<svg width="23" height="25" viewBox="0 0 23 25" fill="none" xmlns="http://www.w3.org/2000/svg">
<path d="M3.00781 2.00629V23.9937C3.00781 24.2606 3.12726 24.5165 3.33989 24.7053C3.55252 24.894 3.8409 25 4.1416 25H21.874C22.1747 25 22.4631 24.894 22.6757 24.7053C22.8884 24.5165 23.0078 24.2606 23.0078 23.9937V8.51698L16.6301 1H4.1416C3.8409 1 3.55252 1.10602 3.33989 1.29474C3.12726 1.48345 3.00781 1.7394 3.00781 2.00629Z" fill="#EDEEEF"/>
<path d="M16.6253 0.946533L16.5902 7.49963C16.5902 7.76484 16.7041 8.0192 16.9069 8.20673C17.1097 8.39427 17.3848 8.49963 17.6715 8.49963H23.0078L16.6253 0.946533Z" fill="#CFD0D1"/>
<path d="M14.7092 14.3333H1.91876C1.40164 14.3333 0.982422 14.7584 0.982422 15.2829V20.0503C0.982422 20.5747 1.40164 20.9999 1.91876 20.9999H14.7092C15.2263 20.9999 15.6455 20.5747 15.6455 20.0503V15.2829C15.6455 14.7584 15.2263 14.3333 14.7092 14.3333Z" fill="#FF5D44"/>
<path d="M4.0162 17.6666V16.456H4.6882C5.16287 16.456 5.3762 16.68 5.3762 17.064C5.3762 17.4373 5.16287 17.6666 4.6882 17.6666H4.0162ZM6.0002 17.064C6.0002 16.4613 5.5682 15.96 4.6882 15.96H3.4082V19.6666H4.0162V18.1626H4.6882C5.65354 18.1626 6.0002 17.592 6.0002 17.064Z" fill="white"/>
<path d="M7.92408 15.96H6.71341V19.6666H7.92408C9.11341 19.6666 9.89208 18.968 9.89208 17.8266C9.89208 16.68 9.11341 15.96 7.92408 15.96ZM7.32141 19.1706V16.456H7.92408C8.79875 16.456 9.26808 16.9786 9.26808 17.8266C9.26808 18.6693 8.79875 19.1706 7.92408 19.1706H7.32141Z" fill="white"/>
<path d="M10.628 19.6666H11.236V18.0453H12.4627V17.5493H11.236V16.456H12.8093V15.96H10.628V19.6666Z" fill="white"/>
</svg>
