<svg xmlns="http://www.w3.org/2000/svg" height="83.498" width="345.79" viewBox="0 0 276.63113 66.796483"><g transform="translate(-.32514 -.073983)"><g transform="matrix(.45 0 0 .45 .97179 -144.59)" stroke="#0050ba" fill="#0051ba"><path stroke-linejoin="round" d="m117.26 11.012h185.76" transform="matrix(2.0132,0,0,-2.0132,0,468.47)" stroke="#0050ba" stroke-linecap="round" stroke-width="1.125" fill="#0051ba"></path></g><g transform="matrix(.45 0 0 .45 .97179 -144.59)" fill="#0051ba"><path fill="#0051ba" d="m86.25 340.85c-5.1484 4.7266-29.5 29.191-35.02 35.031l46.5 50.004 18.863 20.453c6.5586 6.2852 14.168 12.898 22.301 16.066 4.875 1.9492 8.8281 3.1524 10.785 3.1524 1.1289 0 2.1055 0.32422 2.1055 1.293 0 1.1406-0.82032 1.625-3.8984 1.625h-14.109c-4.8594 0-7.7852 0-11.188-0.32032-8.7539-0.80859-13.129-4.3828-20.109-10.543l-63.723-70.379-1.7891-2.4336h-0.8125v14.758c0 14.914 0 27.723 0.49219 34.695 0.32031 4.5391 1.7812 8.1055 5.832 8.7617 2.2734 0.32031 5.8359 0.64453 7.9375 0.64453 1.3047 0 2.1133 0.48437 2.1133 1.293 0 1.1367-1.3008 1.6211-3.0703 1.6211-9.0898 0-19.305-0.48437-23.355-0.48437-3.7344 0-13.945 0.48437-20.438 0.48437-2.1055 0-3.2383-0.48437-3.2383-1.6211 0-0.8086 0.64062-1.293 2.5859-1.293 2.4375 0 4.3867-0.32422 5.8398-0.64453 3.2461-0.65625 4.0547-4.2227 4.707-8.9258 0.80859-6.8086 0.80859-19.617 0.80859-34.531v-28.539c0-24.648 0-29.191-0.32422-34.379-0.32031-5.5078-1.6211-8.1094-6.9766-9.2461-1.2878-0.33-4.0456-0.49-6.3151-0.49-1.7813 0-2.7461-0.33-2.7461-1.46 0-1.1367 1.1367-1.4609 3.5625-1.4609 8.5977 0 18.809 0.48828 22.699 0.48828 3.8945 0 14.109-0.48828 19.625-0.48828 2.2812 0 3.4023 0.32422 3.4023 1.4609 0 1.1328-0.97266 1.457-2.2734 1.457-1.6211 0-2.5938 0.16406-4.5352 0.48437-4.3789 0.8125-5.6758 3.5664-6.0039 9.2461-0.32031 5.1875-0.32031 9.7305-0.32031 34.379v7.1328h0.8125c5.5117-6 29.188-30.164 33.887-35.676 4.543-5.3477 8.1172-9.3984 8.1172-12.156 0-1.7891-0.65625-2.9258-2.2812-3.2461-1.457-0.32422-2.1016-0.64844-2.1016-1.6211 0-1.1367 0.80859-1.4609 2.5938-1.4609 3.4023 0 12.316 0.48828 16.699 0.48828l31.086-0.004c3.8789 0 14.07-0.48438 19.895-0.48438 2.418 0 3.5586 0.32422 3.5586 1.4609 0 1.1211-0.97265 1.4453-2.5976 1.4453-1.7734 0-2.7461 0.16797-4.6836 0.48828-4.3672 0.8125-5.6641 3.5586-5.9883 9.2227-0.32031 5.1719-0.32031 9.6992-0.32031 34.281v22.648c0 23.449 4.6914 33.312 12.617 39.785 7.2734 5.9844 14.711 6.6328 20.207 6.6328 7.1211 0 15.852-2.2656 22.328-8.7344 8.8984-8.8945 9.375-23.449 9.375-40.109v-20.223c0-24.582 0-29.109-0.3164-34.281-0.32422-5.4961-1.6172-8.0898-6.9609-9.2227-1.293-0.32031-4.043-0.48828-5.8164-0.48828-1.7812 0-2.7578-0.32422-2.7578-1.4453 0-1.1367 1.1445-1.4609 3.3984-1.4609 8.2461 0 18.438 0.48438 18.605 0.48438 1.9375 0 12.125-0.48438 18.438-0.48438 2.2656 0 3.3984 0.32422 3.3984 1.4609 0 1.1211-0.97266 1.4453-2.9141 1.4453-1.7812 0-2.7539 0.16797-4.6875 0.48828-4.3672 0.8125-5.6641 3.5586-5.9883 9.2227-0.32422 5.1719-0.32422 9.6992-0.32422 34.281v17.312c0 17.953-1.7773 37.039-15.363 48.684-11.484 9.8633-23.125 11.648-33.645 11.648-8.5703 0-24.098-0.49219-35.898-11.168-8.2578-7.4375-14.395-19.41-14.395-42.859v-23.617c0-24.582 0-29.109-0.33593-34.281-0.31641-5.4961-1.9141-9.2227-6.9492-9.2227-5.0352 0-12.23 5.793-20.598 13.465"></path></g><path fill="#85898a" d="m161.62 1.0229c-0.1512 0-0.1944 0.20918-0.1944 0.50623l-0.1332 8.8294c-0.0144 1.2989-0.0756 1.7302-0.4644 1.8497-0.2088 0.05976-0.4752 0.07524-0.6696 0.07524-0.1512 0-0.2376 0.02988-0.2376 0.11952 0 0.13356 0.1332 0.1476 0.3276 0.1476 0.774 0 1.476-0.04356 1.6092-0.04356 0.2844 0 0.882 0.04356 1.8504 0.04356 0.2088 0 0.342-0.02808 0.342-0.1476 0-0.08964-0.09-0.11952-0.252-0.11952-0.2412 0-0.522-0.01584-0.7776-0.10548-0.2988-0.10368-0.4896-0.49068-0.522-1.6542v0.00072l-0.162-6.2651 0.0432 0.000072c0.27 0.28303 1.926 2.148 3.5496 3.7584 1.5516 1.5361 3.4632 3.4888 4.3992 4.3852 0.1656 0.16344 0.3456 0.32724 0.5076 0.32724 0.1368 0 0.1944-0.13356 0.1944-0.46224l0.1656-9.4097c0.0108-0.83509 0.1332-1.1497 0.5508-1.2693 0.18-0.043992 0.2952-0.044316 0.4464-0.044316 0.18 0 0.27-0.04392 0.27-0.1336 0-0.11955-0.1512-0.13499-0.3456-0.13499-0.7272 0-1.296 0.043596-1.458 0.043596-0.3168 0-1.0332-0.043596-1.8072-0.043596-0.2232 0-0.3888 0.015469-0.3888 0.13499 0 0.089676 0.0612 0.1336 0.2412 0.1336 0.2052 0 0.5652 0.00036 0.7884 0.09 0.36 0.14944 0.4932 0.43207 0.5076 1.3409l0.1512 6.6971h-0.0756c-0.2556-0.23904-2.268-2.3864-3.2832-3.3988-2.1744-2.1639-4.4424-4.5958-4.6224-4.7891-0.252-0.26887-0.3888-0.46188-0.5508-0.46188zm-52.646 0.043592c-0.0864 0-0.1332 0.090349-0.1764 0.28547-0.0324 0.11777-0.3168 1.4745-0.3168 1.7135 0 0.16524 0.0288 0.23908 0.1368 0.23908 0.09 0 0.1332-0.05976 0.162-0.17932 0.0324-0.11776 0.108-0.29848 0.2556-0.52171 0.2232-0.32695 0.5796-0.40288 1.4436-0.43099l2.2248-0.0612v6.1153c0 1.3709 0 2.551-0.0756 3.1766-0.0432 0.43416-0.1332 0.76068-0.432 0.82044-0.1332 0.02988-0.3132 0.05976-0.5364 0.05976-0.18 0-0.2412 0.04392-0.2412 0.11952 0 0.10368 0.1044 0.1476 0.2988 0.1476 0.5976 0 1.5372-0.04356 1.8828-0.04356 0.414 0 1.3536 0.04356 2.34 0.04356 0.162 0 0.2808-0.04392 0.2808-0.1476 0-0.0756-0.0756-0.11952-0.2376-0.11952-0.2232 0-0.5508-0.02988-0.7596-0.05976-0.4464-0.05976-0.5364-0.38664-0.5832-0.80496-0.0756-0.64152-0.0756-1.8212-0.0756-3.1921v-6.1153l1.8828 0.04374c1.3248 0.02988 1.728 0.44824 1.7568 0.83675l0.018 0.16312c0.0144 0.225 0.0432 0.29884 0.162 0.29884 0.09 0 0.1188-0.089676 0.1332-0.23908 0-0.38848 0.0468-1.4168 0.0468-1.7297 0-0.22324-0.0144-0.31289-0.1188-0.31289-0.1224 0-0.4788 0.14766-1.4328 0.14766h-5.904c-0.4932 0-1.062-0.028127-1.494-0.073829-0.3708-0.029884-0.522-0.1793-0.6408-0.1793zm106.95 0c-2.07 0-3.4416 1.1795-3.4416 2.8195 0 1.2078 0.5652 2.2521 2.2068 3.5352l0.6876 0.53604c1.2348 0.95436 1.458 1.6556 1.458 2.3872 0 0.78912-0.6552 1.6999-1.998 1.6999-0.9252 0-1.8036-0.40284-2.1348-1.5066-0.072-0.25308-0.1296-0.56736-0.1296-0.76104 0-0.11952-0.018-0.25308-0.1512-0.25308-0.1188 0-0.1656 0.16524-0.1764 0.387-0.018 0.23904-0.0756 1.1354-0.0756 1.9544 0 0.2412 0.0252 0.34416 0.1332 0.42408-0.018-0.0029-0.036-0.0058-0.0576-0.0058-0.1224 0-0.2556-0.01584-0.4212-0.04572-0.2232-0.04392-0.8352-0.14976-1.6704-1.0145-0.8784-0.92448-1.908-2.2514-3.2364-3.9215 1.5084-1.2233 1.9692-2.2378 1.9692-3.3418 0-0.99842-0.5976-1.7596-1.0152-2.0426-0.8028-0.55195-1.8036-0.64127-2.7432-0.64127-0.4644 0.0000072-1.5948 0.043603-2.1024 0.043603-0.3132 0-1.2528-0.043596-2.0448-0.043596-0.2232 0-0.3276 0.031291-0.3276 0.13499 0 0.10372 0.09 0.1336 0.2556 0.1336 0.2088 0 0.4608 0.014436 0.5832 0.044316 0.4896 0.10544 0.6084 0.34452 0.6372 0.85075 0.0324 0.47639 0.0324 0.89438 0.0324 3.1621v2.6248c0 1.3709 0 2.5502-0.0756 3.1759-0.0576 0.43416-0.1332 0.7614-0.432 0.82116-0.1332 0.02988-0.3132 0.05976-0.5364 0.05976-0.18 0-0.2376 0.04392-0.2376 0.11952 0 0.10368 0.1044 0.1476 0.2952 0.1476 0.5976 0 1.5372-0.04356 1.8216-0.04356 0.2232 0 1.3248 0.04356 2.1924 0.04356 0.1944 0 0.2988-0.04392 0.2988-0.1476 0-0.0756-0.0612-0.11952-0.18-0.11952-0.18 0-0.5076-0.02988-0.7308-0.05976-0.4464-0.05976-0.5364-0.387-0.5796-0.82116-0.0756-0.62568-0.0792-1.805-0.0792-3.19v-0.20952c0-0.08964 0.0468-0.11952 0.1224-0.11952l1.2996 0.03024c0.1008 0 0.1908 0.01368 0.2664 0.10332 0.1908 0.2232 0.8784 1.2377 1.476 2.0585 0.8352 1.148 1.4004 1.849 2.0448 2.1917 0.3852 0.20916 0.7596 0.28332 1.5948 0.28332h1.4148c0.18 0 0.2844-0.02808 0.2844-0.1476 0-0.02052-0.004-0.03852-0.0144-0.054 0.018 0.0079 0.0252 0.01584 0.0468 0.02376 0.6372 0.28296 1.3104 0.387 2.1744 0.387 0.792 0 1.6272-0.13392 2.3724-0.612 1.0728-0.69948 1.4004-1.7294 1.4004-2.5945 0-1.4166-0.6552-2.4167-2.4444-3.8016l-0.4212-0.31284c-1.2348-0.94057-1.5768-1.4626-1.5768-2.1482 0-0.89647 0.6696-1.5363 1.7748-1.5363 0.9684 0 1.4004 0.44615 1.6236 0.72914 0.3132 0.38848 0.3888 0.85079 0.3888 0.98438 0 0.17932 0.0432 0.26932 0.1476 0.26932 0.1188 0 0.1656-0.11956 0.1656-0.44651 0-1.1637 0.0612-1.5961 0.0612-1.7895 0-0.10544-0.0756-0.14976-0.2088-0.1814-0.3888-0.10371-1.0188-0.25313-1.9872-0.25313zm10.724 0c-0.09 0-0.1332 0.090349-0.1764 0.28547-0.0324 0.11777-0.3132 1.4745-0.3132 1.7135 0 0.16524 0.0288 0.23908 0.1332 0.23908 0.09 0 0.1332-0.05976 0.162-0.17932 0.0288-0.11776 0.1044-0.29848 0.2556-0.52171 0.2232-0.32695 0.5796-0.40288 1.4436-0.43099l2.2248-0.0612v6.1153c0 1.3709 0 2.551-0.0756 3.1766-0.0432 0.43416-0.1332 0.76068-0.432 0.82044-0.1332 0.02988-0.3132 0.05976-0.5364 0.05976-0.18 0-0.2376 0.04392-0.2376 0.11952 0 0.10368 0.1008 0.1476 0.2952 0.1476 0.5976 0 1.5372-0.04356 1.8792-0.04356 0.4176 0 1.3608 0.04356 2.3436 0.04356 0.162 0 0.2844-0.04392 0.2844-0.1476 0-0.0756-0.0756-0.11952-0.2412-0.11952-0.2232 0-0.5508-0.02988-0.7596-0.05976-0.4464-0.05976-0.5364-0.38664-0.5796-0.80496-0.0756-0.64152-0.0756-1.8212-0.0756-3.1921v-6.1153l1.8792 0.04374c1.3248 0.02988 1.728 0.44824 1.7568 0.83675l0.018 0.16312c0.0144 0.225 0.0468 0.29884 0.1656 0.29884 0.0864 0 0.1152-0.089676 0.1296-0.23908 0-0.35752 0.036-1.2069 0.0432-1.5919 0.0936 0.033264 0.1908 0.0711 0.2736 0.11531 0.2808 0.16524 0.6552 0.53824 1.026 1.0885 0.522 0.77695 2.52 4.0568 2.6244 4.2959 0.1944 0.43272 0.3456 0.76104 0.3456 1.566v1.2222c0 0.23904 0 0.86616-0.0468 1.4918-0.0288 0.43416-0.1656 0.7614-0.4608 0.82116-0.1332 0.02988-0.3132 0.05976-0.522 0.05976-0.162 0-0.2376 0.04392-0.2376 0.11952 0 0.11952 0.1188 0.1476 0.3276 0.1476 0.5508 0 1.4904-0.04356 1.8612-0.04356 0.4032 0 1.3464 0.04356 2.286 0.04356 0.1908 0 0.3132-0.04392 0.3132-0.1476 0-0.0756-0.0756-0.11952-0.2412-0.11952-0.2052 0-0.5364-0.02988-0.7452-0.05976-0.4464-0.05976-0.5796-0.387-0.612-0.82116-0.0432-0.62568-0.0468-1.2528-0.0468-1.4918v-1.2222c0-0.49212 0-0.954 0.2268-1.4922 0.27-0.63972 2.358-4.1447 2.8476-4.7423 0.3276-0.4027 0.4932-0.58057 0.8064-0.72997 0.2232-0.11956 0.5076-0.17932 0.6552-0.17932 0.1656 0 0.2844-0.043596 0.2844-0.14904 0-0.087908-0.1044-0.11955-0.27-0.11955-0.2808 0-1.2672 0.043596-1.5948 0.043596-0.432 0-0.9108-0.043596-1.4004-0.043596-0.18 0-0.2556 0.031291-0.2556 0.13499 0 0.089676 0.1332 0.11779 0.27 0.14767 0.252 0.05976 0.3096 0.22536 0.3096 0.37476 0 0.19336-0.0576 0.44615-0.2052 0.77483-0.2088 0.46231-2.088 3.7426-2.2392 4.1011-0.2376-0.41832-2.3256-4.0108-2.5344-4.459-0.1044-0.20761-0.18-0.38725-0.18-0.50854 0-0.11779 0.0756-0.23731 0.2088-0.26719 0.2232-0.05976 0.3276-0.07416 0.3276-0.16384 0-0.091422-0.072-0.13499-0.2232-0.13499-0.6696 0-1.2816 0.043596-1.5948 0.043596-0.4176 0-1.1808-0.027727-1.5948-0.037267-0.0144-0.072979-0.0432-0.11039-0.1044-0.11039-0.1188 0-0.4788 0.14766-1.4328 0.14766h-5.904c-0.4932 0-1.0584-0.028127-1.494-0.073829-0.3708-0.029884-0.522-0.1793-0.6408-0.1793zm30.888 0c-4.4748 0-6.1596 3.2977-6.1596 5.8464 0 2.6402 1.728 5.8468 6.0084 5.8468 3.7908 0 6.174-2.6986 6.174-6.1139 0-3.4154-2.3112-5.5793-6.0228-5.5793zm-116.45 0.09c-0.072 0-0.162 0.045727-0.2376 0.059767-0.1188 0.029884-0.3564 0.059771-0.6408 0.091408-0.2844 0.012283-3.2508 0.011952-3.726 0.011952-0.4212 0-1.3572-0.043596-2.1492-0.043596-0.2268 0-0.3276 0.031291-0.3276 0.13499 0 0.10372 0.09 0.1336 0.252 0.1336 0.2088 0 0.4608 0.014436 0.5832 0.044316 0.4896 0.10544 0.6084 0.34452 0.6408 0.85075 0.0288 0.47639 0.0288 0.89438 0.0288 3.1621v2.6248c0 1.3709 0 2.5502-0.0756 3.1759-0.0576 0.43416-0.1332 0.7614-0.432 0.82116-0.1332 0.02988-0.3132 0.05976-0.5364 0.05976-0.18 0-0.2376 0.04392-0.2376 0.11952 0 0.10368 0.1044 0.1476 0.2988 0.1476 0.5976 0 1.5336-0.04428 1.8792-0.04428 0.8784 0 1.8756 0.09 4.1292 0.09 0.5688 0 0.702-0.00036 0.8064-0.3888 0.0756-0.297 0.1944-1.3108 0.1944-1.6535 0-0.1494 0-0.26928-0.1188-0.26928-0.1044 0-0.1368 0.06012-0.1656 0.22356-0.1044 0.61164-0.2844 0.92448-0.6696 1.1038-0.3888 0.17928-1.0152 0.17928-1.404 0.17928-1.5192 0-1.7604-0.22356-1.7892-1.2535-0.0144-0.43236 0-1.805 0-2.3112v-1.1779c0-0.08964 0.0144-0.14976 0.09-0.14976 0.36 0 1.836 0.0144 2.1168 0.04428 0.5544 0.06156 0.7596 0.28296 0.8352 0.58356 0.0468 0.19188 0.0468 0.38664 0.0612 0.53604 0 0.0738 0.0288 0.13356 0.1332 0.13356 0.1332 0 0.1332-0.16308 0.1332-0.2826 0-0.10548 0.0324-0.702 0.0612-1.0008 0.0432-0.76104 0.1188-0.99792 0.1188-1.0876 0-0.08964-0.0432-0.11952-0.1044-0.11952-0.0756 0-0.1332 0.0738-0.2376 0.19332-0.1332 0.1494-0.36 0.19512-0.7164 0.225-0.342 0.02808-2.0592 0.02808-2.3868 0.02808-0.09 0-0.1044-0.05832-0.1044-0.1638v-3.7721c0-0.10566 0.0288-0.14926 0.1044-0.14926 0.2988 0 1.8648 0.02988 2.1168 0.05976 0.7452 0.08964 0.8964 0.26719 0.9972 0.53788 0.0756 0.17755 0.0936 0.43034 0.0936 0.53579 0 0.1336 0.0288 0.20743 0.1332 0.20743s0.1332-0.087552 0.1512-0.16312c0.0288-0.17932 0.0576-0.83498 0.072-0.98438 0.0468-0.68555 0.1188-0.86519 0.1188-0.9689 0-0.075589-0.0144-0.135-0.09-0.135zm57.373 0c-0.072 0-0.162 0.045727-0.2376 0.059767-0.1188 0.029884-0.3564 0.059771-0.6408 0.091408-0.2844 0.012283-3.2508 0.011952-3.726 0.011952-0.4212 0-1.3608-0.043596-2.1492-0.043596-0.1584 0-0.2556 0.017298-0.2988 0.063986-0.0468-0.046778-0.144-0.063986-0.2844-0.063986-0.4464 0-1.1484 0.043596-1.4004 0.043596-0.1944 0-0.8208-0.043596-1.566-0.043596-0.2844 0-0.4176 0.031291-0.4176 0.14907 0 0.10372 0.1188 0.11952 0.252 0.11952 0.1944 0 0.4176 0.01476 0.5976 0.07452 0.1332 0.04572 0.1944 0.16456 0.1944 0.28408 0 0.1336-0.0612 0.35719-0.1332 0.55055-0.36 0.98438-2.3004 5.7866-2.9412 7.4282h-0.0576l-2.5668-6.7709c-0.2088-0.53798-0.342-0.95666-0.342-1.1483 0-0.13532 0.0432-0.23904 0.1512-0.31288 0.1188-0.09144 0.342-0.10548 0.5796-0.10548 0.1332 0 0.2232-0.02988 0.2232-0.1336 0-0.10371-0.1656-0.13499-0.342-0.13499-0.7452 0-1.4616 0.043596-1.836 0.043596-0.522 0-1.3716-0.043596-2.16-0.043596-0.2232 0-0.3888 0.015469-0.3888 0.13499 0 0.089676 0.0432 0.1336 0.18 0.1336 0.1188 0 0.3564 0.00072 0.5796 0.06048 0.54 0.1494 0.7884 0.31255 1.134 1.1334l3.7584 9.1102c0.2844 0.70164 0.3744 0.9108 0.5652 0.9108 0.2088 0 0.2988-0.23724 0.6876-1.102 0.3276-0.747 1.0296-2.3731 1.9836-4.5493 0.8064-1.8349 1.206-2.6401 1.7892-4.0428 0.4032-0.95454 0.6264-1.208 0.8208-1.3416 0.2664-0.17932 0.5796-0.17932 0.7308-0.17932 0.1008 0 0.1728-0.016128 0.2088-0.057636 0.036 0.04176 0.1116 0.057636 0.2232 0.057636 0.2088 0 0.4608 0.014436 0.5796 0.044316 0.4932 0.10544 0.612 0.34452 0.6444 0.85075 0.0288 0.47639 0.0288 0.89438 0.0288 3.1621v2.6248c0 1.3709 0 2.5502-0.0756 3.1759-0.0576 0.43416-0.1332 0.7614-0.432 0.82116-0.1332 0.02988-0.3132 0.05976-0.5364 0.05976-0.18 0-0.2376 0.04392-0.2376 0.11952 0 0.10368 0.1044 0.1476 0.2988 0.1476 0.594 0 1.5336-0.04428 1.8792-0.04428 0.8784 0 1.8792 0.09 4.1292 0.09 0.5652 0 0.702-0.00036 0.8064-0.3888 0.0756-0.297 0.1944-1.3108 0.1944-1.6535 0-0.1494 0-0.26928-0.1188-0.26928-0.108 0-0.1332 0.06012-0.1656 0.22356-0.1044 0.61164-0.2808 0.92448-0.6696 1.1038-0.3888 0.17928-1.0152 0.17928-1.404 0.17928-1.5192 0-1.7604-0.22356-1.7892-1.2535-0.0144-0.43236 0-1.805 0-2.3112v-1.1779c0-0.08964 0.0144-0.14976 0.09-0.14976 0.3564 0 1.836 0.0144 2.1168 0.04428 0.5544 0.06156 0.7596 0.28296 0.8352 0.58356 0.0432 0.19188 0.0432 0.38664 0.0612 0.53604 0 0.0738 0.0288 0.13356 0.1332 0.13356 0.1332 0 0.1368-0.16308 0.1368-0.2826 0-0.10548 0.0288-0.702 0.0576-1.0008 0.0432-0.76104 0.1188-0.99792 0.1188-1.0876 0-0.08964-0.0432-0.11952-0.1044-0.11952-0.072 0-0.1332 0.0738-0.2376 0.19332-0.1332 0.1494-0.36 0.19512-0.7164 0.225-0.342 0.02808-2.0592 0.02808-2.3868 0.02808-0.09 0-0.1044-0.05832-0.1044-0.1638v-3.7721c0-0.10566 0.0288-0.14926 0.1044-0.14926 0.2988 0 1.8648 0.02988 2.1204 0.05976 0.7416 0.08964 0.8928 0.26719 0.9972 0.53788 0.072 0.17755 0.09 0.43034 0.09 0.53579 0 0.1336 0.0288 0.20743 0.1332 0.20743s0.1368-0.087552 0.1476-0.16312c0.0324-0.17932 0.0612-0.83498 0.0756-0.98438 0.0432-0.68555 0.1188-0.86519 0.1188-0.9689 0-0.075589-0.0144-0.135-0.09-0.135zm73.991 0c-0.0756 0-0.1512 0.059418-0.2412 0.089298-0.1476 0.045684-0.3276 0.046037-0.612 0.061877-0.342 0.012283-3.3696 0.011952-3.9384 0.011952-0.432 0-1.368-0.043596-2.1456-0.043596-0.2232 0-0.342 0.031291-0.342 0.14907 0 0.08964 0.1044 0.11952 0.252 0.11952 0.2088 0 0.4644 0.014436 0.5832 0.044316 0.4896 0.10544 0.612 0.34452 0.6408 0.85075 0.0288 0.47639 0.0288 0.89438 0.0288 3.1621v2.6248c0 1.4306 0 2.5502-0.072 3.1759-0.0612 0.43416-0.1368 0.7614-0.4356 0.82116-0.1332 0.02988-0.3132 0.05976-0.5364 0.05976-0.162 0-0.2232 0.04392-0.2232 0.11952 0 0.11952 0.1044 0.1476 0.3132 0.1476 0.5688 0 1.5048-0.04356 1.8936-0.04356s1.3284 0.04356 2.268 0.04356c0.2232 0 0.3276-0.04392 0.3276-0.1476 0-0.0756-0.0612-0.11952-0.252-0.11952-0.2124 0-0.54-0.02988-0.7488-0.05976-0.4464-0.05976-0.5364-0.387-0.5796-0.82116-0.0756-0.62568-0.0756-1.7453-0.0756-3.1759v-1.2096c0-0.10368 0.0288-0.13356 0.1044-0.13356 0.2556 0 1.836 0 2.2104 0.04572 0.4608 0.05796 0.684 0.32688 0.7596 0.53784 0.0576 0.17784 0.0864 0.35712 0.0864 0.4608 0 0.10548 0.0324 0.20952 0.1224 0.20952 0.1476 0 0.1476-0.14976 0.1476-0.28332 0-0.10548 0.0288-0.79092 0.0612-1.0879 0.0432-0.46404 0.1188-0.837 0.1188-0.92664 0-0.08784-0.0288-0.13356-0.09-0.13356-0.09 0-0.1188 0.06012-0.1944 0.14976-0.1476 0.19332-0.3564 0.25272-0.6408 0.26856-0.2088 0.01404-0.4176 0.01404-0.6732 0.01404l-1.908 0.01404c-0.09 0-0.1044-0.04392-0.1044-0.13356v-3.7289c0-0.1633 0.0468-0.20862 0.1368-0.20862l2.2932 0.045684c0.5688 0.01584 0.882 0.23731 0.9864 0.44647 0.09 0.2092 0.09 0.44791 0.09 0.56743 0.0144 0.16348 0.0432 0.23908 0.1476 0.23908s0.1332-0.089316 0.1512-0.20884c0.0288-0.17928 0.0576-1.0603 0.072-1.208 0.0468-0.38848 0.1188-0.56776 0.1188-0.67147 0-0.075589-0.0432-0.135-0.1008-0.135zm-152.48 0.11953c-0.2088 0-0.3168 0.031291-0.3168 0.13499 0 0.10372 0.09 0.1336 0.2556 0.1336 0.2088 0 0.4608 0.014436 0.5832 0.044316 0.4896 0.10544 0.6084 0.34452 0.6372 0.85075 0.0324 0.47639 0.0324 0.89438 0.0324 3.1621v2.6248c0 1.3709 0 2.5502-0.0756 3.1759-0.0576 0.43416-0.1332 0.7614-0.432 0.82116-0.1332 0.02988-0.3132 0.05976-0.5364 0.05976-0.18 0-0.2412 0.04392-0.2412 0.11952 0 0.10368 0.1044 0.1476 0.3024 0.1476 0.594 0 1.5336-0.04356 1.8792-0.04356 0.414 0 1.3572 0.04356 2.3256 0.04356 0.1764 0 0.2952-0.04392 0.2952-0.1476 0-0.0756-0.072-0.11952-0.2376-0.11952-0.2232 0-0.5508-0.02988-0.7596-0.05976-0.4464-0.05976-0.5364-0.38664-0.5832-0.80496-0.0756-0.64152-0.0756-1.8212-0.0756-3.1921v-1.3136c0-0.0738 0.0468-0.08784 0.0936-0.08784h5.6952c0.0432 0 0.09 0.02988 0.09 0.08784v1.3136c0 1.3709 0 2.5502-0.0756 3.1759-0.0612 0.43416-0.1332 0.7614-0.432 0.82116-0.1368 0.02988-0.3132 0.05976-0.54 0.05976-0.1764 0-0.234 0.04392-0.234 0.11952 0 0.10368 0.1044 0.1476 0.3132 0.1476 0.5796 0 1.5192-0.04356 1.8648-0.04356 0.414 0 1.3572 0.04356 2.3256 0.04356 0.1764 0 0.2988-0.04392 0.2988-0.1476 0-0.0756-0.0756-0.11952-0.2412-0.11952-0.2232 0-0.5508-0.02988-0.7596-0.05976-0.4464-0.05976-0.5364-0.38664-0.5796-0.80496-0.0756-0.64152-0.0756-1.8212-0.0756-3.1921v-2.6248c0-2.2677 0-2.6857 0.0288-3.1621 0.0288-0.52204 0.1476-0.77519 0.5508-0.85075 0.18-0.029952 0.3132-0.044316 0.432-0.044316 0.18 0 0.27-0.02988 0.27-0.1336 0-0.10371-0.1044-0.13499-0.3132-0.13499-0.5796 0-1.5228 0.043596-1.8792 0.043596-0.4032 0-1.3428-0.043596-2.1492-0.043596-0.2088 0-0.3132 0.031291-0.3132 0.13499 0 0.10372 0.09 0.1336 0.2556 0.1336 0.2052 0 0.4608 0.014436 0.5796 0.044316 0.4932 0.10544 0.612 0.34452 0.6444 0.85075 0.0288 0.47639 0.0288 0.89438 0.0288 3.1621v0.31284c0 0.0738-0.0468 0.10404-0.09 0.10404h-5.6952c-0.0468 0-0.0936-0.03024-0.0936-0.10404v-0.31284c0-2.2677 0-2.6857 0.0324-3.1621 0.0288-0.52204 0.1476-0.77519 0.5508-0.85075 0.18-0.029952 0.3132-0.044316 0.4356-0.044316 0.1764 0 0.2664-0.02988 0.2664-0.1336 0-0.10371-0.1044-0.13499-0.3132-0.13499-0.5796 0-1.5228 0.043596-1.8792 0.043596-0.4032 0-1.3428-0.043596-2.1456-0.043596zm27.32 0c-0.2232 0-0.3276 0.031291-0.3276 0.13499 0 0.10372 0.09 0.1336 0.252 0.1336 0.2088 0 0.4608 0.014436 0.5832 0.044316 0.4896 0.10544 0.612 0.34452 0.6408 0.85075 0.0288 0.47639 0.0288 0.89438 0.0288 3.1621v2.1769c0 2.1618 0.5652 3.2674 1.3284 3.9528 1.0872 0.98424 2.52 1.0282 3.3084 1.0282 0.972 0 2.0448-0.16308 3.1032-1.0717 1.2528-1.0757 1.4184-2.8339 1.4184-4.4917v-1.5944c0-2.2677 0-2.6857 0.0288-3.1621 0.0288-0.52204 0.1476-0.77519 0.5508-0.85075 0.18-0.029952 0.27-0.044316 0.432-0.044316 0.18 0 0.27-0.02988 0.27-0.1336 0-0.10371-0.1044-0.13499-0.3132-0.13499-0.5796 0-1.5228 0.043596-1.6992 0.043596-0.0144 0-0.9576-0.043596-1.7172-0.043596-0.2088 0-0.3132 0.031291-0.3132 0.13499 0 0.10372 0.09 0.1336 0.2556 0.1336 0.162 0 0.4176 0.014436 0.5364 0.044316 0.4896 0.10544 0.612 0.34452 0.6408 0.85075 0.0288 0.47639 0.0288 0.89438 0.0288 3.1621v1.8652c0 1.5347-0.0432 2.8778-0.864 3.6986-0.594 0.5958-1.4004 0.80352-2.0592 0.80352-0.504 0-1.1916-0.05832-1.8612-0.6102-0.7344-0.5976-1.1664-1.507-1.1664-3.6688v-2.0884c0-2.2677 0-2.6857 0.0324-3.1621 0.0288-0.52204 0.1476-0.77519 0.5508-0.85075 0.1764-0.029952 0.2664-0.044316 0.432-0.044316 0.1512 0 0.2376-0.02988 0.2376-0.1336 0-0.10371-0.1044-0.13499-0.3276-0.13499-0.5364 0-1.476 0.043596-1.8324 0.043596-0.45 0-1.3896-0.043596-2.178-0.043596zm27.396 0c-0.2412 0-0.36 0.031644-0.36 0.11955 0 0.11952 0.0936 0.14904 0.2412 0.14904 0.1764 0 0.3744 0.01476 0.5364 0.06048 0.3276 0.073836 0.4788 0.32836 0.5076 0.83459 0.0288 0.47639 0.0288 0.89438 0.0288 3.1621v0.00072 2.624c0 1.4465 0 2.6244-0.0756 3.2519-0.0432 0.43236-0.1332 0.68544-0.432 0.7452-0.1332 0.02988-0.3132 0.05976-0.5364 0.05976-0.1764 0-0.2412 0.04392-0.2412 0.11952 0 0.10368 0.108 0.1476 0.2988 0.1476 0.6012 0 1.5372-0.04356 1.8828-0.04356 0.4032 0 1.3428 0.04356 2.3256 0.04356 0.1656 0 0.2844-0.04392 0.2844-0.1476 0-0.0756-0.0756-0.11952-0.2376-0.11952-0.2268 0-0.5544-0.02988-0.7632-0.05976-0.4464-0.05976-0.5544-0.32868-0.5976-0.73116-0.0576-0.64152-0.0576-1.8194-0.0576-3.2659v-2.624c0-2.2677 0-2.6864 0.0288-3.1628 0.0288-0.52204 0.1512-0.77519 0.5508-0.85075 0.18-0.029952 0.2988-0.044316 0.45-0.044316 0.1476 0 0.2376-0.02952 0.2376-0.14904 0-0.087908-0.1188-0.11955-0.3132-0.11955-0.5652 0-1.4472 0.043596-1.8216 0.043596-0.432 0-1.368-0.043596-1.9368-0.043596zm46.159 0c-0.2412 0-0.36 0.031644-0.36 0.11955 0 0.11952 0.09 0.14904 0.2376 0.14904 0.18 0 0.3744 0.01476 0.54 0.06048 0.3276 0.073836 0.4752 0.32836 0.504 0.83459 0.0324 0.47639 0.0324 0.89438 0.0324 3.1621v0.00072 2.624c0 1.4465 0 2.6244-0.0756 3.2519-0.0432 0.43236-0.1332 0.68544-0.432 0.7452-0.1332 0.02988-0.3132 0.05976-0.5364 0.05976-0.18 0-0.2412 0.04392-0.2412 0.11952 0 0.10368 0.108 0.1476 0.2988 0.1476 0.5976 0 1.5372-0.04356 1.8792-0.04356 0.4032 0 1.3428 0.04356 2.3292 0.04356 0.162 0 0.2808-0.04392 0.2808-0.1476 0-0.0756-0.0756-0.11952-0.2376-0.11952-0.2232 0-0.5508-0.02988-0.7596-0.05976-0.4464-0.05976-0.5508-0.32868-0.5976-0.73116-0.0612-0.64152-0.0612-1.8194-0.0612-3.2659v-2.624c0-2.2677 0-2.6864 0.0324-3.1628 0.0288-0.52204 0.1476-0.77519 0.5508-0.85075 0.18-0.029952 0.2988-0.044316 0.4464-0.044316 0.1512 0 0.2412-0.02952 0.2412-0.14904 0-0.087908-0.1188-0.11955-0.3132-0.11955-0.5688 0-1.4472 0.043596-1.8216 0.043596-0.432 0-1.3716-0.043596-1.9368-0.043596zm36.252 0.50767c2.448 0 4.3704 2.0728 4.3704 5.4126 0 4.3103-2.4156 4.8179-3.4596 4.8179-2.862 0-4.5792-2.4606-4.5792-5.5631 0-3.7123 1.9548-4.6674 3.6684-4.6674zm-52.258 0.19336c0.882 0 2.2824 0.61207 2.2824 2.7301 0 1.2218-0.432 1.9091-0.8784 2.236-0.2664 0.19332-0.4644 0.25308-1.0584 0.25308-0.3744 0-0.8208-0.04392-1.134-0.1476-0.1044-0.04392-0.1368-0.10512-0.1368-0.26856v-4.5338c0-0.11938 0.0324-0.1795 0.1368-0.20938 0.1512-0.04392 0.4176-0.05976 0.7884-0.05976zm-52.895 14.97c-0.3996 0-0.648 0.45324-1.1376 1.647l-10.314 25.794c-0.36 0.8676-0.6228 1.6092-0.9864 2.178-0.3168 0.4716-0.8388 1.0368-1.5912 1.0368-0.6084 0-1.3068-0.3888-1.7964-0.738-0.1944-0.144-0.3888-0.2988-0.594-0.468-0.0396-0.0324-0.0576-0.0504-0.0576-0.0504v0.0072c-0.8496-0.7056-1.8684-1.6668-3.3552-3.1176-1.602-1.5372-9.594-10.308-11.081-12.246 1.404-1.4764 7.6104-7.6324 8.8704-8.8664 1.7784-1.7262 3.1608-2.5927 4.4496-3.0794 0.7776-0.28656 1.7964-0.45 2.3724-0.45 0.4068 0 0.6228-0.08424 0.6228-0.37764 0-0.28836-0.2988-0.36936-0.7092-0.36936-1.2636 0-3.5316 0.12096-4.7952 0.12096-1.116 0-3.3588-0.12096-4.2372-0.12096-0.4572 0-0.6624 0.081-0.6624 0.36936 0 0.25308 0.1692 0.33516 0.5292 0.41616 0.432 0.0828 0.5976 0.3708 0.5976 0.81576 0 0.70488-0.9216 1.7266-2.0628 3.0816-1.1808 1.4029-7.182 7.5236-8.5932 9.0421h-0.2052v-1.809c0-6.2438 0-7.3966 0.0828-8.7131 0.0864-1.4346 0.4104-2.1269 1.5336-2.3346 0.4932-0.08244 0.738-0.12132 1.1412-0.12132 0.324 0 0.5688-0.08424 0.5688-0.37764 0-0.28836-0.2844-0.36936-0.8532-0.36936-1.3896 0-3.9744 0.12096-4.9788 0.12096-0.9828 0-3.5748-0.12096-5.7348-0.12096-0.63 0-0.918 0.081-0.918 0.36936 0 0.2934 0.2448 0.37764 0.7128 0.37764 0.576 0 1.2672 0.03888 1.5912 0.12132 1.3644 0.28836 1.692 0.93888 1.7784 2.3346 0.0756 1.3165 0.0756 2.4692 0.0756 8.7131v7.2245c0 3.7793 0 7.0265-0.2016 8.7581-0.1656 1.1808-0.3708 2.0916-1.206 2.2536-0.3708 0.0792-0.8532 0.162-1.4616 0.162-0.4968 0-0.6588 0.126-0.6588 0.3276 0 0.288 0.288 0.4176 0.8208 0.4176 1.6272 0 4.2192-0.1296 5.1588-0.1296 1.0476 0 3.6324 0.1296 5.9184 0.1296 0.45 0 0.792-0.1296 0.792-0.4176 0-0.2016-0.2124-0.3276-0.5436-0.3276-0.5328 0-1.4292-0.0828-2.0016-0.162-1.0404-0.162-1.4112-1.0728-1.4904-2.214-0.126-1.7712-0.126-5.0184-0.126-8.7977v-3.7314h0.2052l0.4536 0.60948c0.8748 1.1956 8.9532 10.688 10.775 12.287 1.7568 1.5624 2.8728 2.4588 5.0796 2.6676 0.7308 0.072 1.368 0.0828 2.2608 0.0864h0.0252 9.2088c0.4428 0 0.6912-0.0864 0.6912-0.4176 0-0.2448-0.1224-0.3276-0.6084-0.3276h-0.6156c-1.2852 0-1.6524-0.5292-1.6524-1.2744 0-0.4896 0.2052-1.4796 0.6228-2.4984l2.214-5.8788c0.0792-0.2448 0.162-0.324 0.3672-0.324h9.162c0.2052 0 0.324 0.0792 0.4068 0.2808l3.2868 8.7048c0.2052 0.5004-0.0828 0.8712-0.3636 0.9504-0.414 0.0396-0.5688 0.1224-0.5688 0.3672 0 0.288 0.486 0.288 1.2168 0.3312 3.2868 0.0864 6.2928 0.0864 7.7796 0.0864 0.2088 0 0.3888-0.0036 0.5616-0.0072 0.0756 0.0036 0.1476 0.0072 0.234 0.0072h9.5364c0.5724 0 0.9324-0.0864 0.9324-0.4176 0-0.2448-0.2412-0.3276-0.6876-0.3276-0.6516 0-1.4292-0.0396-2.142-0.2808-0.8244-0.288-1.35-1.3608-1.4256-4.5612l-0.4536-17.259h0.1224c0.7308 0.78912 5.3064 5.9234 9.774 10.358 4.2624 4.2264 9.5328 9.612 12.121 12.071 0.4536 0.4608 0.9432 0.9108 1.3824 0.9108 0.3744 0 0.5328-0.3672 0.5328-1.278l0.4644-25.917c0.0432-2.3062 0.378-3.1601 1.5192-3.4891 0.486-0.12096 0.8172-0.12132 1.2204-0.12132 0.5076 0 0.756-0.12456 0.756-0.37764 0-0.32868-0.4248-0.36936-0.9576-0.36936-2.0016 0-3.5712 0.12096-4.0176 0.12096-0.8568 0-2.8404-0.12096-4.968-0.12096-0.6264 0-1.0764 0.03996-1.0764 0.36864 0 0.25308 0.1656 0.37836 0.6552 0.37836 0.5832 0 1.5696-0.00036 2.1852 0.24372 0.9756 0.40608 1.3464 1.1927 1.4004 3.6922l0.414 18.449h-0.2088c-0.7092-0.6624-6.2424-6.5844-9.036-9.3668-5.9976-5.9609-12.244-12.653-12.733-13.186-0.7056-0.74556-1.0836-1.2726-1.5336-1.2726-0.4104 0-0.5292 0.56988-0.5292 1.3975l-0.36 24.314c-0.018 1.3932-0.054 2.412-0.1512 3.1788-0.0828 0.3456-0.576 1.8792-2.772 1.8792-2.178 0-3.2472-1.5624-3.2472-1.5624v0.018c-0.4464-0.648-0.9468-1.5552-1.494-2.8584-2.6316-6.246-9.2052-22.999-10.202-25.264-0.4104-0.93672-0.6552-1.3093-1.026-1.3093zm85.72 0c-0.4032 0-0.6552 0.45324-1.1448 1.647l-10.321 25.791c-0.8172 2.0556-1.5912 3.4524-3.492 3.6936-0.3204 0.0396-0.8928 0.0828-1.2636 0.0828-0.3276 0-0.4932 0.0828-0.4932 0.3276 0 0.3312 0.2484 0.4176 0.7812 0.4176 2.1312 0 4.3812-0.1296 4.8348-0.1296 1.2852 0 3.042 0.1296 4.3668 0.1296 0.45 0 0.6984-0.0864 0.6984-0.4176 0-0.2448-0.126-0.3276-0.6192-0.3276h-0.612c-1.2852 0-1.6488-0.5292-1.6488-1.2744 0-0.4896 0.198-1.4796 0.612-2.502l2.2284-5.8788c0.0792-0.2412 0.1584-0.3204 0.3672-0.3204h9.1584c0.2088 0 0.3276 0.0792 0.4068 0.2808l3.2904 8.7048c0.198 0.5004-0.0828 0.8712-0.3708 0.9468-0.4068 0.0432-0.5724 0.126-0.5724 0.3708 0 0.288 0.4932 0.288 1.2204 0.3312 3.2832 0.0864 6.2892 0.0864 7.7724 0.0864 1.5192 0 1.8792-0.0864 1.8792-0.4176 0-0.2844-0.1944-0.3276-0.5256-0.3276-0.4896 0-1.1016-0.0432-1.7208-0.162-0.8748-0.2016-2.0556-0.7812-3.6252-4.4784-2.6172-6.246-9.1908-22.999-10.184-25.264-0.4032-0.93672-0.6516-1.3093-1.0224-1.3093zm-23.159 0.32832c-5.706 0-9.486 3.2468-9.486 7.7663 0 3.3257 1.548 6.2014 6.0732 9.7312l1.8828 1.4821c3.4092 2.6219 4.0248 4.5551 4.0248 6.5711 0 2.1744-1.7928 4.6836-5.49 4.6836-2.5524 0-4.9824-1.1088-5.8752-4.1544-0.2052-0.6912-0.3708-1.5624-0.3708-2.088 0-0.3312-0.036-0.7092-0.4068-0.7092-0.3348 0-0.4644 0.4608-0.5076 1.0728-0.0432 0.6552-0.2052 3.1248-0.2052 5.3784 0 0.9108 0.1188 1.1124 0.7956 1.3968 1.7532 0.7884 3.6108 1.0728 5.994 1.0728 2.1672 0 4.4748-0.3672 6.5268-1.6812 2.952-1.9332 3.8664-4.7664 3.8664-7.1532 0-3.8981-1.8216-6.656-6.7356-10.469l-1.1628-0.86976c-3.4128-2.5805-4.3452-4.0201-4.3452-5.9098 0-2.4678 1.8504-4.2347 4.8744-4.2347 2.6748 0 3.8772 1.2359 4.4964 2.0131 0.8496 1.0721 1.0512 2.3443 1.0512 2.7119 0 0.49212 0.1224 0.73872 0.4104 0.73872 0.3276 0 0.4536-0.32904 0.4536-1.229 0-3.2044 0.1728-4.3931 0.1728-4.9273 0-0.2952-0.216-0.41796-0.5868-0.50076-1.0548-0.28656-2.79-0.69264-5.4504-0.69264zm52.258 0c-5.7168 0-9.4896 3.2468-9.4896 7.7663 0 3.3257 1.5552 6.2014 6.0804 9.7312l1.8828 1.4821c3.4128 2.6219 4.032 4.5551 4.032 6.5711 0 2.1744-1.8144 4.6836-5.508 4.6836-2.556 0-4.9752-1.1088-5.8788-4.1544-0.198-0.6912-0.3636-1.5624-0.3636-2.088 0-0.3312-0.0432-0.7092-0.4068-0.7092-0.3312 0-0.4536 0.4608-0.4896 1.0728-0.0432 0.6552-0.2088 3.1248-0.2088 5.3784 0 0.9108 0.1188 1.1124 0.7812 1.3968 1.7604 0.7884 3.6108 1.0728 5.994 1.0728 2.178 0 4.4676-0.3672 6.534-1.6812 2.9556-1.9332 3.8556-4.7664 3.8556-7.1532 0-3.8981-1.8036-6.656-6.732-10.469l-1.152-0.86976c-3.4092-2.5805-4.3632-4.0201-4.3632-5.9098 0-2.4678 1.8576-4.2347 4.8996-4.2347 2.6676 0 3.8592 1.2359 4.4676 2.0131 0.864 1.0721 1.0764 2.3443 1.0764 2.7119 0 0.49212 0.1224 0.73872 0.4104 0.73872 0.3312 0 0.4536-0.32904 0.4536-1.229 0-3.2044 0.1656-4.3931 0.1656-4.9273 0-0.2952-0.2088-0.41796-0.576-0.50076-1.0836-0.28656-2.7936-0.69264-5.4648-0.69264zm-115.83 8.0932c0.1224 0 0.1656 0.20196 0.2052 0.36576l3.6972 10.142c0.036 0.12312 0 0.25452-0.2052 0.25452h-7.5564c-0.1692 0-0.2088-0.13176-0.1692-0.2952l3.7836-10.102c0.0396-0.1638 0.1224-0.36576 0.2448-0.36576zm85.709 0c0.126 0 0.1656 0.20196 0.2052 0.36576l3.7008 10.142c0.0396 0.12312 0 0.25452-0.2016 0.25452h-7.5744c-0.162 0-0.2088-0.13176-0.162-0.2952l3.78-10.102c0.0468-0.1638 0.1332-0.36576 0.252-0.36576z"></path></g></svg>