<?xml version="1.0" encoding="UTF-8" standalone="no"?>
<!-- Created with Inkscape (http://www.inkscape.org/) -->
<svg
   xmlns:svg="http://www.w3.org/2000/svg"
   xmlns="http://www.w3.org/2000/svg"
   version="1.0"
   width="450"
   height="185"
   id="svg28311">
  <defs
     id="defs28313" />
  <g
     transform="translate(-32.142857,-199.86218)"
     id="layer1">
    <g
       transform="matrix(4.0037298,0,0,4.0037298,-602.03281,-316.88528)"
       id="g28358">
      <path
         d="M 187.09616,133.81493 L 187.09616,133.87411 L 187.0969,133.93328 L 187.09912,133.98506 L 187.10134,134.04423 L 187.10429,134.09601 L 187.10799,134.14779 L 187.11169,134.19956 L 187.11687,134.25134 L 187.12279,134.29572 L 187.1287,134.3401 L 187.13536,134.39188 L 187.1435,134.42886 L 187.15163,134.47324 L 187.16051,134.51762 L 187.16939,134.55461 L 187.17974,134.59899 L 187.1901,134.63597 L 187.20193,134.67295 L 187.21377,134.70254 L 187.22634,134.73952 L 187.23965,134.77651 L 187.25371,134.80609 L 187.2685,134.83568 L 187.2833,134.87266 L 187.29957,134.90225 L 187.31584,134.93184 L 187.35061,134.99101 L 187.38833,135.04279 L 187.42827,135.09457 C 187.74855,135.48659 188.27445,135.67151 188.90761,135.67151 C 190.2368,135.67151 191.06301,134.75432 191.11775,133.38593 L 191.17544,132.03233 C 191.19911,131.56633 191.23314,131.32224 191.29157,131.17431 C 191.38403,130.93022 191.55416,130.83406 191.75091,130.78228 C 191.86334,130.76009 191.8515,130.63435 191.72724,130.63435 L 189.98531,130.63435 C 189.88102,130.63435 189.85809,130.7453 189.96238,130.78228 C 190.30633,130.90063 190.49938,130.98939 190.59184,131.21129 C 190.64954,131.35923 190.70723,131.59592 190.70723,132.12848 L 190.70723,132.97171 C 190.70723,134.02944 190.53415,134.58419 190.2368,134.85787 C 189.95055,135.16114 189.54891,135.17593 189.28632,135.17593 C 188.78039,135.17593 188.41351,134.96142 188.20862,134.75432 C 187.96527,134.54721 187.80698,134.08861 187.80698,133.45989 L 187.80698,132.60927 C 187.80698,131.81782 187.84101,131.21869 187.98894,131.02637 C 188.05773,130.90803 188.17386,130.83406 188.41351,130.78228 C 188.5289,130.76009 188.51781,130.63435 188.37875,130.63435 L 186.5096,130.63435 C 186.39643,130.63435 186.39643,130.77489 186.49776,130.78228 C 186.70561,130.84146 186.94601,130.90803 187.02663,131.07815 C 187.07249,131.18171 187.09616,131.29266 187.09616,131.92138 L 187.09616,133.81493 z"
         id="path11100"
         style="font-style:normal;font-variant:normal;font-weight:normal;font-stretch:normal;letter-spacing:normal;word-spacing:normal;text-anchor:start;fill:#000000;fill-opacity:1;fill-rule:evenodd;stroke:#000000;stroke-width:0;stroke-linecap:butt;stroke-linejoin:miter;stroke-miterlimit:10.43299961;stroke-dasharray:none;stroke-dashoffset:0;stroke-opacity:1" />
      <path
         d="M 198.52555,133.12704 L 198.52555,132.9865 L 198.52555,132.84597 L 198.53295,132.71282 L 198.53295,132.58708 L 198.54035,132.46134 L 198.54774,132.34299 L 198.55514,132.22464 L 198.56254,132.11369 L 198.56993,132.06191 L 198.56993,132.01014 L 198.57733,131.95836 L 198.57733,131.91398 L 198.58473,131.8622 L 198.59212,131.81782 L 198.59212,131.76605 L 198.59952,131.72906 L 198.60692,131.68468 L 198.60692,131.6403 L 198.61432,131.60332 L 198.62171,131.56633 L 198.62911,131.52935 L 198.62911,131.49237 L 198.63651,131.45538 L 198.6439,131.4258 C 198.72527,131.01898 198.93977,130.90063 199.21345,130.78228 C 199.3318,130.7379 199.3318,130.63435 199.19126,130.63435 L 197.38202,130.63435 C 197.26663,130.63435 197.24297,130.76009 197.35909,130.78228 C 197.91902,130.93022 198.04477,131.02637 198.10394,131.56633 C 198.14832,131.98795 198.18531,132.35778 198.18531,133.06787 L 198.18531,134.19217 C 198.18531,134.28832 198.16312,134.30312 198.08175,134.22175 C 196.7607,132.81638 195.81022,131.66989 195.48921,131.21869 C 195.29319,130.98939 195.22662,130.85625 195.19186,130.72311 C 195.18002,130.67133 195.14526,130.65654 194.97218,130.67133 C 194.83682,130.68613 194.74436,130.68613 194.6519,130.68613 C 194.38857,130.68613 194.11416,130.63435 193.79314,130.63435 C 193.66592,130.63435 193.66592,130.76009 193.77021,130.78228 C 194.00986,130.85625 194.33088,130.9598 194.4692,131.1965 C 194.55056,131.34443 194.59346,131.46278 194.59346,131.95096 L 194.59346,133.14923 C 194.59346,133.99246 194.55056,134.71733 194.49287,134.93923 C 194.43517,135.11676 194.26135,135.25729 194.07939,135.32386 L 193.84861,135.41262 C 193.74728,135.4644 193.74728,135.56795 193.89447,135.56795 L 195.683,135.56795 C 195.83315,135.57535 195.83315,135.44961 195.74069,135.41262 L 195.40858,135.29428 C 195.16893,135.19812 194.94925,135.05018 194.94925,133.69659 L 194.94925,132.72022 C 194.94925,132.21724 194.94925,132.01014 194.96034,131.90658 C 194.97218,131.81782 194.9951,131.76605 195.02987,131.80303 C 195.76362,132.63146 197.06101,134.19956 197.85985,135.19812 C 197.88204,135.2351 198.00039,135.34605 198.14093,135.4644 C 198.21489,135.53097 198.35543,135.61233 198.44419,135.61233 C 198.51816,135.61233 198.58473,135.59014 198.56254,135.39043 C 198.54774,135.30167 198.52555,134.80609 198.52555,133.94808 L 198.52555,133.12704 z"
         id="path11102"
         style="font-style:normal;font-variant:normal;font-weight:normal;font-stretch:normal;letter-spacing:normal;word-spacing:normal;text-anchor:start;fill:#000000;fill-opacity:1;fill-rule:evenodd;stroke:#000000;stroke-width:0;stroke-linecap:butt;stroke-linejoin:miter;stroke-miterlimit:10.43299961;stroke-dasharray:none;stroke-dashoffset:0;stroke-opacity:1" />
      <path
         d="M 202.76387,133.61522 L 202.76387,133.68179 L 202.76387,133.74097 L 202.76387,133.80014 L 202.76387,133.85931 L 202.76387,133.91849 L 202.76387,133.97766 L 202.76387,134.02944 L 202.76387,134.08122 L 202.76387,134.13299 L 202.76387,134.18477 L 202.76387,134.23655 L 202.76387,134.28093 L 202.76387,134.3327 L 202.75647,134.37708 L 202.75647,134.42146 L 202.75647,134.46584 L 202.75647,134.55461 L 202.74908,134.63597 L 202.74908,134.70994 L 202.74168,134.7839 L 202.73428,134.85787 L 202.72689,134.92444 L 202.71949,134.99101 L 202.7047,135.05758 C 202.66032,135.27209 202.40143,135.38304 202.17213,135.41262 C 202.05379,135.43481 202.06858,135.56795 202.19432,135.56795 L 204.08788,135.56795 C 204.22102,135.56795 204.22102,135.43481 204.11747,135.41262 C 203.84379,135.36085 203.5997,135.27209 203.54792,134.99841 C 203.47395,134.71733 203.47395,134.30312 203.47395,133.61522 L 203.47395,132.59448 C 203.47395,131.90658 203.47395,131.47018 203.53313,131.1965 C 203.57751,130.92282 203.84379,130.83406 204.0361,130.78228 C 204.15445,130.76009 204.15445,130.63435 204.01391,130.63435 L 202.23131,130.63435 C 202.09077,130.63435 202.07598,130.76009 202.17213,130.78228 C 202.40143,130.84146 202.65292,130.93022 202.71949,131.23348 C 202.76387,131.47018 202.76387,131.90658 202.76387,132.59448 L 202.76387,133.61522 z"
         id="path11104"
         style="font-style:normal;font-variant:normal;font-weight:normal;font-stretch:normal;letter-spacing:normal;word-spacing:normal;text-anchor:start;fill:#000000;fill-opacity:1;fill-rule:evenodd;stroke:#000000;stroke-width:0;stroke-linecap:butt;stroke-linejoin:miter;stroke-miterlimit:10.43299961;stroke-dasharray:none;stroke-dashoffset:0;stroke-opacity:1" />
      <path
         d="M 210.36029,132.23944 L 210.39727,132.15807 L 210.43426,132.07671 L 210.47124,131.99534 L 210.50822,131.92138 L 210.54521,131.85481 L 210.5748,131.78084 L 210.61178,131.72167 L 210.64137,131.66249 L 210.67095,131.60332 L 210.70054,131.54414 L 210.73013,131.49237 L 210.75971,131.44799 L 210.7819,131.39621 L 210.81149,131.35183 L 210.84108,131.31485 L 210.86327,131.27047 L 210.89285,131.24088 L 210.91504,131.2039 L 210.94463,131.16691 L 210.96682,131.13733 L 210.99641,131.11514 L 211.0186,131.08555 L 211.04818,131.06336 L 211.07037,131.03377 L 211.09996,131.01158 L 211.12215,130.99679 L 211.15174,130.9746 L 211.18133,130.9598 L 211.20352,130.94501 L 211.2331,130.93022 L 211.26269,130.91542 L 211.29967,130.90063 L 211.55116,130.78228 C 211.65471,130.7379 211.66211,130.63435 211.52897,130.63435 L 209.80554,130.63435 C 209.68719,130.63435 209.67979,130.7453 209.76855,130.78228 L 209.90169,130.83406 C 210.25674,130.9598 210.3381,131.09295 210.18277,131.59592 C 210.02004,132.11369 209.41351,133.63002 209.05847,134.36229 C 208.97711,134.53242 208.94752,134.52502 208.88095,134.36229 C 208.5333,133.59303 208.17086,132.69063 207.83801,131.71427 C 207.67528,131.23348 207.59392,131.04117 207.90458,130.90063 L 208.20045,130.78228 C 208.30401,130.7453 208.30401,130.63435 208.17086,130.63435 L 206.2995,130.63435 C 206.13677,130.63435 206.15896,130.7379 206.26251,130.78228 L 206.45483,130.87844 C 206.7433,131.02637 206.82466,131.13733 207.12793,131.8696 C 207.4238,132.58708 207.78624,133.54865 208.01553,134.17737 C 208.24483,134.82828 208.3188,135.05018 208.52591,135.59014 C 208.55549,135.67891 208.59248,135.72329 208.64425,135.72329 C 208.69603,135.72329 208.84397,135.59754 209.01409,135.27209 C 209.09545,135.13155 209.18421,134.85787 209.39132,134.39927 C 209.82033,133.40812 210.09401,132.80159 210.36029,132.23944 z"
         id="path11106"
         style="font-style:normal;font-variant:normal;font-weight:normal;font-stretch:normal;letter-spacing:normal;word-spacing:normal;text-anchor:start;fill:#000000;fill-opacity:1;fill-rule:evenodd;stroke:#000000;stroke-width:0;stroke-linecap:butt;stroke-linejoin:miter;stroke-miterlimit:10.43299961;stroke-dasharray:none;stroke-dashoffset:0;stroke-opacity:1" />
      <path
         d="M 214.59861,133.70398 L 214.59861,133.74836 L 214.59861,133.78535 L 214.59861,133.86671 L 214.59861,133.94068 L 214.59861,134.00725 L 214.59861,134.07382 L 214.59861,134.14039 L 214.59121,134.19956 L 214.59121,134.25874 L 214.59121,134.31051 L 214.59121,134.36229 L 214.59121,134.41407 L 214.58381,134.45845 L 214.58381,134.50283 L 214.58381,134.53981 L 214.58381,134.5768 L 214.57642,134.61378 L 214.57642,134.65076 L 214.57642,134.68035 L 214.56902,134.70994 L 214.56902,134.73952 L 214.56902,134.76171 L 214.56162,134.7839 L 214.56162,134.80609 L 214.56162,134.82828 L 214.55423,134.85047 L 214.55423,134.86527 L 214.55423,134.88006 L 214.55423,134.89485 L 214.54683,134.90965 L 214.54683,134.92444 L 214.53943,134.94663 C 214.46546,135.27209 214.11042,135.33866 213.7184,135.41262 C 213.62224,135.42742 213.62224,135.56795 213.75538,135.56795 L 217.18006,135.56795 C 217.49072,135.56795 217.55729,135.55316 217.59427,135.40523 C 217.66084,135.05758 217.70522,134.62857 217.70522,134.51023 C 217.70522,134.42146 217.59427,134.40667 217.55729,134.49543 C 217.51291,134.63597 217.44634,134.80609 217.35018,134.92444 C 217.23923,135.03539 217.09869,135.11676 216.92857,135.13895 C 216.75105,135.17593 216.47737,135.18333 216.20369,135.18333 C 215.7451,135.18333 215.49361,135.16114 215.41224,135.03539 C 215.33088,134.92444 215.30869,134.63597 215.30869,133.83712 L 215.30869,133.29716 C 215.30869,133.15663 215.34567,133.14923 215.5158,133.14923 L 215.86344,133.14923 C 216.45518,133.14923 216.74365,133.2158 216.862,133.40812 C 216.92857,133.53386 216.96555,133.63741 216.97295,133.70398 C 216.98774,133.80014 217.11349,133.79274 217.11349,133.69659 C 217.11349,133.01609 217.14307,132.73501 217.16526,132.5501 C 217.18006,132.46873 217.09869,132.44654 217.06171,132.50572 C 217.03212,132.55749 216.93597,132.66105 216.80282,132.71282 C 216.69927,132.74241 216.43299,132.77939 215.78948,132.77939 L 215.55278,132.77939 C 215.30869,132.7572 215.30869,132.772 215.30869,132.63146 L 215.30869,132.01014 C 215.30869,131.65509 215.32348,131.34443 215.33088,131.24088 C 215.36047,131.05596 215.38266,131.04117 215.61935,131.04117 L 215.92262,131.04117 C 216.32944,131.04117 216.53654,131.04856 216.76584,131.11514 C 216.98774,131.17431 217.15787,131.4258 217.20225,131.67729 C 217.22444,131.81782 217.37977,131.79563 217.36497,131.6477 C 217.34278,131.35923 217.36497,130.93022 217.41675,130.65654 C 217.43155,130.60476 217.40196,130.57518 217.37977,130.57518 C 217.36497,130.57518 217.32059,130.58997 217.26142,130.62695 C 217.15787,130.65654 216.76584,130.67133 216.15931,130.67133 L 214.97584,130.67133 C 214.6208,130.67133 214.36191,130.63435 213.97728,130.63435 C 213.85154,130.63435 213.84414,130.76009 213.96989,130.79708 C 214.25836,130.86365 214.50984,130.98939 214.55423,131.29266 C 214.59861,131.57373 214.59861,131.79563 214.59861,132.48353 L 214.59861,133.70398 z"
         id="path11108"
         style="font-style:normal;font-variant:normal;font-weight:normal;font-stretch:normal;letter-spacing:normal;word-spacing:normal;text-anchor:start;fill:#000000;fill-opacity:1;fill-rule:evenodd;stroke:#000000;stroke-width:0;stroke-linecap:butt;stroke-linejoin:miter;stroke-miterlimit:10.43299961;stroke-dasharray:none;stroke-dashoffset:0;stroke-opacity:1" />
      <path
         d="M 220.51597,133.98506 L 220.51597,134.02204 L 220.51597,134.06642 L 220.51597,134.10341 L 220.51597,134.14039 L 220.51597,134.17737 L 220.51597,134.21436 L 220.51597,134.25134 L 220.50858,134.28832 L 220.50858,134.32531 L 220.50858,134.35489 L 220.50858,134.39188 L 220.50858,134.42146 L 220.50118,134.45105 L 220.50118,134.48064 L 220.50118,134.51023 L 220.50118,134.53981 L 220.49378,134.562 L 220.49378,134.59159 L 220.49378,134.61378 L 220.49378,134.64337 L 220.48639,134.66556 L 220.48639,134.68775 L 220.48639,134.70994 L 220.48639,134.73213 L 220.47899,134.75432 L 220.47899,134.77651 L 220.47899,134.7913 L 220.47899,134.81349 L 220.47159,134.82828 L 220.47159,134.84308 L 220.47159,134.86527 L 220.47159,134.88006 C 220.42721,135.21291 220.32366,135.30167 219.88725,135.41262 C 219.76151,135.44961 219.7837,135.56795 219.90944,135.56795 L 221.90655,135.56795 C 222.0397,135.56795 222.0397,135.44961 221.91395,135.41262 C 221.41098,135.27948 221.32961,135.17593 221.26304,134.80609 C 221.24085,134.67295 221.22606,134.54721 221.22606,134.17737 L 221.22606,133.69659 C 221.22606,133.48208 221.24085,133.45989 221.30002,133.45989 C 221.48494,133.45989 221.66246,133.43031 221.82519,133.42291 C 221.95094,133.40812 222.0323,133.43031 222.13585,133.65221 C 222.4761,134.31051 222.77937,134.85787 223.20098,135.25729 C 223.46726,135.48659 223.89627,135.61973 224.32528,135.61973 C 224.56197,135.61973 224.76168,135.57535 224.80607,135.55316 C 224.84305,135.54576 224.82826,135.4718 224.78388,135.4644 C 224.73949,135.44961 224.43623,135.36824 224.059,135.05758 C 223.65958,134.73952 223.09743,134.01465 222.7054,133.20101 C 222.66102,133.10485 222.68321,133.06787 222.74238,133.03088 L 222.97168,132.88295 C 223.17879,132.7572 223.45247,132.38737 223.45247,131.90658 C 223.45247,131.57373 223.3711,130.56778 221.65507,130.61216 C 220.9154,130.61216 219.99081,130.7379 219.82808,130.76009 C 219.69494,130.78228 219.68015,130.90063 219.82808,130.90803 C 220.04998,130.93022 220.30147,130.9672 220.38283,131.04856 C 220.41982,131.09295 220.4494,131.15212 220.47159,131.30005 C 220.47899,131.49237 220.51597,131.76605 220.51597,132.18026 L 220.51597,133.98506 z M 221.22606,131.79563 L 221.22606,131.74386 L 221.22606,131.69948 L 221.22606,131.65509 L 221.22606,131.61071 L 221.22606,131.57373 L 221.22606,131.53675 L 221.22606,131.49976 L 221.22606,131.46278 L 221.23345,131.43319 L 221.23345,131.40361 L 221.23345,131.37402 L 221.23345,131.34443 L 221.23345,131.31485 L 221.23345,131.29266 L 221.23345,131.27047 L 221.23345,131.24828 L 221.24085,131.22609 L 221.24085,131.21129 L 221.24085,131.1891 L 221.24085,131.17431 L 221.24085,131.15952 L 221.24085,131.14472 L 221.24825,131.12993 L 221.24825,131.12253 L 221.24825,131.10774 L 221.24825,131.10034 L 221.25564,131.08555 L 221.25564,131.07815 L 221.25564,131.07075 L 221.25564,131.06336 L 221.26304,131.05596 L 221.26304,131.04856 C 221.28523,130.9672 221.30742,130.93022 221.47015,130.93022 C 222.26899,130.93022 222.72759,131.53675 222.72759,132.22464 C 222.72759,132.88295 222.23941,133.09006 221.86217,133.09006 C 221.61808,133.09006 221.48494,133.09006 221.32961,133.07526 C 221.24085,133.06787 221.22606,133.03088 221.22606,132.90514 L 221.22606,131.79563 z"
         id="path11110"
         style="font-style:normal;font-variant:normal;font-weight:normal;font-stretch:normal;letter-spacing:normal;word-spacing:normal;text-anchor:start;fill:#000000;fill-opacity:1;fill-rule:evenodd;stroke:#000000;stroke-width:0;stroke-linecap:butt;stroke-linejoin:miter;stroke-miterlimit:10.43299961;stroke-dasharray:none;stroke-dashoffset:0;stroke-opacity:1" />
      <path
         d="M 228.9926,130.5308 L 228.94822,130.5308 L 228.89645,130.53819 L 228.85207,130.53819 L 228.80769,130.54559 L 228.76331,130.54559 L 228.71892,130.55299 L 228.67454,130.56038 L 228.63756,130.57518 L 228.59318,130.58257 L 228.5488,130.59737 L 228.51182,130.60476 L 228.46744,130.61956 L 228.43045,130.63435 L 228.38607,130.64914 L 228.34909,130.66394 L 228.31211,130.67873 L 228.26773,130.70092 L 228.23074,130.71571 L 228.19376,130.7379 L 228.16417,130.7527 L 228.12719,130.77489 L 228.0902,130.79708 L 228.02363,130.84146 L 227.95706,130.88584 L 227.89789,130.93761 L 227.84611,130.98939 L 227.81653,131.01158 L 227.78694,131.04117 C 227.44669,131.36662 227.35053,131.72167 227.35053,132.02493 C 227.35053,132.61667 227.72037,132.9865 228.49702,133.26018 C 229.11095,133.48208 229.55475,133.76316 229.55475,134.36969 C 229.55475,134.96142 229.24409,135.25729 228.70413,135.25729 C 228.26033,135.25729 227.76475,134.98361 227.61681,134.67295 C 227.53545,134.49543 227.53545,134.39927 227.53545,134.32531 C 227.52066,134.22175 227.4245,134.21436 227.38752,134.28832 C 227.34314,134.39927 227.24698,134.64337 227.18781,134.73952 C 227.13603,134.82089 227.07686,134.94663 227.09905,135.02799 C 227.14343,135.18333 227.26917,135.32386 227.48367,135.4644 C 227.69818,135.59014 227.99405,135.67151 228.36388,135.67151 C 228.74111,135.67151 229.14054,135.54576 229.49558,135.27948 C 229.80624,135.05018 230.20566,134.61378 230.20566,133.97027 C 230.20566,133.14923 229.62132,132.89035 228.94822,132.65365 C 228.46744,132.48353 227.99405,132.23944 227.99405,131.61071 C 227.99405,131.15212 228.28252,130.88584 228.66715,130.88584 C 228.9926,130.88584 229.25888,131.00418 229.4512,131.23348 C 229.59913,131.40361 229.64351,131.53675 229.65831,131.6329 C 229.6657,131.76605 229.81364,131.76605 229.81364,131.6477 C 229.81364,131.44059 229.84322,131.29266 229.85062,131.1965 C 229.87281,131.10774 229.8876,131.04856 229.8876,130.98939 C 229.8876,130.93022 229.87281,130.83406 229.76186,130.7453 C 229.65831,130.68613 229.43641,130.5308 228.9926,130.5308 z"
         id="path11114"
         style="font-style:normal;font-variant:normal;font-weight:normal;font-stretch:normal;letter-spacing:normal;word-spacing:normal;text-anchor:start;fill:#000000;fill-opacity:1;fill-rule:evenodd;stroke:#000000;stroke-width:0;stroke-linecap:butt;stroke-linejoin:miter;stroke-miterlimit:10.43299961;stroke-dasharray:none;stroke-dashoffset:0;stroke-opacity:1" />
      <path
         d="M 233.09038,133.61522 L 233.09038,133.68179 L 233.09038,133.74097 L 233.09038,133.80014 L 233.09038,133.85931 L 233.09038,133.91849 L 233.09038,133.97766 L 233.09038,134.02944 L 233.09038,134.08122 L 233.09038,134.13299 L 233.09038,134.18477 L 233.09038,134.23655 L 233.09038,134.28093 L 233.09038,134.3327 L 233.08298,134.37708 L 233.08298,134.42146 L 233.08298,134.46584 L 233.08298,134.55461 L 233.07559,134.63597 L 233.07559,134.70994 L 233.06819,134.7839 L 233.06079,134.85787 L 233.0534,134.92444 L 233.046,134.99101 L 233.03121,135.05758 C 232.99422,135.27209 232.72794,135.38304 232.49864,135.41262 C 232.3803,135.43481 232.39509,135.56795 232.52083,135.56795 L 234.41439,135.56795 C 234.54753,135.56795 234.54753,135.43481 234.44398,135.41262 C 234.1703,135.36085 233.92621,135.27209 233.87443,134.99841 C 233.80046,134.71733 233.80046,134.30312 233.80046,133.61522 L 233.80046,132.59448 C 233.80046,131.90658 233.80046,131.47018 233.85964,131.1965 C 233.90402,130.92282 234.1703,130.83406 234.36261,130.78228 C 234.48096,130.76009 234.48096,130.63435 234.34042,130.63435 L 232.55042,130.63435 C 232.41728,130.63435 232.40249,130.76009 232.49864,130.78228 C 232.72794,130.84146 232.97943,130.93022 233.046,131.23348 C 233.09038,131.47018 233.09038,131.90658 233.09038,132.59448 L 233.09038,133.61522 z"
         id="path11116"
         style="font-style:normal;font-variant:normal;font-weight:normal;font-stretch:normal;letter-spacing:normal;word-spacing:normal;text-anchor:start;fill:#000000;fill-opacity:1;fill-rule:evenodd;stroke:#000000;stroke-width:0;stroke-linecap:butt;stroke-linejoin:miter;stroke-miterlimit:10.43299961;stroke-dasharray:none;stroke-dashoffset:0;stroke-opacity:1" />
      <path
         d="M 238.91899,130.67133 L 238.85981,130.67133 L 238.80804,130.67133 L 238.74886,130.67133 L 238.69709,130.67133 L 238.64531,130.67133 L 238.60093,130.67133 L 238.54915,130.67133 L 238.50477,130.67133 L 238.46779,130.67133 L 238.42341,130.66394 L 238.38642,130.66394 L 238.34944,130.66394 L 238.31246,130.66394 L 238.28287,130.66394 L 238.25328,130.66394 L 238.2237,130.66394 L 238.19411,130.65654 L 238.16452,130.65654 L 238.14233,130.65654 L 238.12014,130.65654 L 238.09795,130.65654 L 238.07576,130.64914 L 238.05357,130.64914 L 238.03878,130.64914 L 238.02399,130.64175 L 238.0018,130.64175 L 237.987,130.64175 L 237.97221,130.63435 L 237.95742,130.63435 L 237.95002,130.63435 L 237.93523,130.62695 L 237.92783,130.62695 C 237.80208,130.58997 237.70593,130.55299 237.63936,130.48641 C 237.57279,130.41984 237.49142,130.42724 237.49142,130.56778 C 237.49142,131.04856 237.42485,131.50716 237.42485,131.61071 C 237.42485,131.73646 237.5432,131.75865 237.58018,131.6477 C 237.62456,131.49237 237.74291,131.26307 237.91304,131.15952 C 238.17932,131.02637 238.91899,131.04117 239.15568,131.04117 C 239.30362,131.04117 239.32581,131.07075 239.32581,131.26307 C 239.32581,131.35923 239.348,131.62551 239.348,132.43915 L 239.348,133.57084 C 239.348,134.42886 239.30362,134.7839 239.28143,134.94663 C 239.24444,135.25729 238.91899,135.30167 238.52696,135.41262 C 238.40861,135.44961 238.40861,135.56795 238.54915,135.56795 L 240.74598,135.56795 C 240.89391,135.56795 240.9087,135.44961 240.79036,135.41262 C 240.34655,135.27209 240.14684,135.22031 240.09506,134.84308 C 240.05808,134.5694 240.05808,134.28093 240.05808,133.51167 L 240.05808,132.42435 C 240.05808,131.66989 240.08027,131.26307 240.10246,131.15952 C 240.11725,131.07075 240.12465,131.04117 240.27998,131.04117 C 240.81255,131.04117 241.07883,131.07075 241.27114,131.11514 C 241.55961,131.1965 241.64098,131.39621 241.72234,131.59592 C 241.76672,131.69948 241.87028,131.67729 241.87767,131.57373 C 241.90726,131.15212 241.90726,130.85625 242.033,130.54559 C 242.05519,130.46422 241.97383,130.42724 241.90726,130.47162 C 241.75932,130.57518 241.53742,130.64914 241.33032,130.65654 C 241.16759,130.65654 240.93089,130.67133 240.50188,130.67133 L 238.91899,130.67133 z"
         id="path11118"
         style="font-style:normal;font-variant:normal;font-weight:normal;font-stretch:normal;letter-spacing:normal;word-spacing:normal;text-anchor:start;fill:#000000;fill-opacity:1;fill-rule:evenodd;stroke:#000000;stroke-width:0;stroke-linecap:butt;stroke-linejoin:miter;stroke-miterlimit:10.43299961;stroke-dasharray:none;stroke-dashoffset:0;stroke-opacity:1" />
      <path
         d="M 246.52281,133.60783 L 246.52281,133.57824 L 246.52281,133.54865 L 246.52281,133.51907 L 246.5302,133.48948 L 246.5302,133.45989 L 246.5376,133.43031 L 246.545,133.40072 L 246.55239,133.37113 L 246.55979,133.34154 L 246.56719,133.31196 L 246.57458,133.28237 L 246.58938,133.25278 L 246.60417,133.2158 L 246.61896,133.18621 L 246.63376,133.15663 L 246.64855,133.12704 C 246.84086,132.74241 247.27727,132.05452 247.69149,131.51456 C 248.03173,131.07075 248.1131,130.9672 248.61607,130.78228 C 248.73442,130.7453 248.71223,130.63435 248.59388,130.63435 L 247.05537,130.63435 C 246.90743,130.63435 246.90004,130.76009 246.9888,130.78228 C 247.34384,130.90803 247.44739,130.98939 247.29206,131.35923 C 247.10715,131.82522 246.72252,132.44654 246.48582,132.82378 C 246.42665,132.91993 246.39706,132.94212 246.33789,132.86076 C 246.00504,132.36518 245.64999,131.73646 245.46508,131.35923 C 245.25797,130.9598 245.33933,130.93022 245.76094,130.78228 C 245.8645,130.7453 245.8645,130.63435 245.73136,130.63435 L 243.98573,130.63435 C 243.85999,130.63435 243.86739,130.7453 243.98573,130.78228 C 244.34078,130.90063 244.38516,131.00418 244.77718,131.59592 C 245.12483,132.12848 245.4207,132.65365 245.70917,133.2232 C 245.79053,133.38593 245.82012,133.48948 245.82012,133.71878 L 245.82012,134.30312 C 245.82012,134.7839 245.77574,135.0132 245.70917,135.10936 C 245.59082,135.27209 245.29495,135.34605 245.07305,135.41262 C 244.9695,135.44961 244.98429,135.56795 245.11003,135.56795 L 247.15892,135.56795 C 247.29946,135.56795 247.29946,135.44961 247.19591,135.41262 C 246.81867,135.30167 246.67074,135.22031 246.60417,135.0132 C 246.5302,134.88746 246.52281,134.61378 246.52281,134.19217 L 246.52281,133.60783 z"
         id="path11120"
         style="font-style:normal;font-variant:normal;font-weight:normal;font-stretch:normal;letter-spacing:normal;word-spacing:normal;text-anchor:start;fill:#000000;fill-opacity:1;fill-rule:evenodd;stroke:#000000;stroke-width:0;stroke-linecap:butt;stroke-linejoin:miter;stroke-miterlimit:10.43299961;stroke-dasharray:none;stroke-dashoffset:0;stroke-opacity:1" />
      <path
         d="M 257.19626,130.5308 L 257.07051,130.53819 L 256.94477,130.54559 L 256.81903,130.56038 L 256.69328,130.57518 L 256.57493,130.60476 L 256.44919,130.63435 L 256.32345,130.67133 L 256.2051,130.71571 L 256.07936,130.76009 L 255.96101,130.81187 L 255.84266,130.87104 L 255.79088,130.90803 L 255.73171,130.93761 L 255.67254,130.9746 L 255.61336,131.01158 L 255.56159,131.04856 L 255.50241,131.08555 L 255.45063,131.12253 L 255.39886,131.16691 L 255.34708,131.21129 L 255.2953,131.25567 C 254.71096,131.75865 254.45948,132.44654 254.45948,133.17142 C 254.45948,134.69514 255.46543,135.67151 256.81903,135.67151 C 257.65485,135.67151 258.38713,135.31647 258.86791,134.77651 C 259.25994,134.3401 259.51143,133.75576 259.51143,132.97171 C 259.51143,131.62551 258.63122,130.5308 257.19626,130.5308 z M 257.17407,135.30167 L 257.05572,135.30167 L 256.94477,135.28688 L 256.83382,135.27209 L 256.72287,135.2499 L 256.62671,135.22771 L 256.52316,135.19072 L 256.4344,135.15374 L 256.33824,135.10936 L 256.25688,135.06498 L 256.17551,135.0058 L 256.09415,134.95403 L 256.02018,134.88746 L 255.94621,134.82089 L 255.87964,134.75432 L 255.82047,134.67295 L 255.7613,134.59899 L 255.70212,134.51762 L 255.65035,134.42886 L 255.60597,134.3475 L 255.56159,134.25134 L 255.51721,134.16258 L 255.48022,134.06642 L 255.44324,133.96287 L 255.41365,133.86671 L 255.39146,133.76316 L 255.36927,133.6596 L 255.34708,133.55605 L 255.33229,133.4451 L 255.31749,133.34154 L 255.3101,133.23059 L 255.3101,133.11964 L 255.3027,133.00869 C 255.3027,132.04712 255.61336,130.90063 256.80423,130.90063 C 258.12824,130.90063 258.6756,132.00274 258.6756,133.28237 C 258.6756,134.36969 258.29837,135.30167 257.17407,135.30167 z"
         id="path11122"
         style="font-style:normal;font-variant:normal;font-weight:normal;font-stretch:normal;letter-spacing:normal;word-spacing:normal;text-anchor:start;fill:#000000;fill-opacity:1;fill-rule:evenodd;stroke:#000000;stroke-width:0;stroke-linecap:butt;stroke-linejoin:miter;stroke-miterlimit:10.43299961;stroke-dasharray:none;stroke-dashoffset:0;stroke-opacity:1" />
      <path
         d="M 262.67722,133.70398 L 262.67722,133.74836 L 262.67722,133.78535 L 262.67722,133.82233 L 262.67722,133.85931 L 262.67722,133.93328 L 262.67722,133.99985 L 262.67722,134.06642 L 262.67722,134.1256 L 262.67722,134.18477 L 262.67722,134.23655 L 262.66982,134.28832 L 262.66982,134.3401 L 262.66982,134.38448 L 262.66982,134.42886 L 262.66982,134.47324 L 262.66243,134.51023 L 262.66243,134.54721 L 262.66243,134.58419 L 262.66243,134.61378 L 262.65503,134.64337 L 262.65503,134.67295 L 262.65503,134.70254 L 262.64763,134.73213 L 262.64763,134.75432 L 262.64024,134.7839 L 262.64024,134.80609 L 262.63284,134.85047 L 262.62544,134.89485 L 262.61805,134.93923 L 262.61065,134.98361 C 262.55148,135.21291 262.2778,135.33866 262.01152,135.41262 C 261.93015,135.44961 261.92276,135.56795 262.0485,135.56795 L 264.09739,135.56795 C 264.27491,135.56795 264.26012,135.43481 264.17136,135.41262 C 263.73495,135.30167 263.50565,135.18333 263.46127,134.93923 C 263.40949,134.75432 263.3873,134.5694 263.3873,133.74097 L 263.3873,133.40812 C 263.3873,133.26018 263.4021,133.24539 263.66838,133.24539 L 263.91987,133.24539 C 264.50421,133.24539 264.78528,133.30456 264.91103,133.52646 C 264.99239,133.6596 265.02198,133.77795 265.05156,133.86671 C 265.06636,133.93328 265.1995,133.92588 265.1995,133.84452 C 265.1921,133.2158 265.22169,132.86076 265.24388,132.67584 C 265.25867,132.58708 265.16991,132.55749 265.12553,132.65365 C 265.07375,132.74241 264.9702,132.79419 264.85925,132.82378 C 264.76309,132.84597 264.50421,132.86816 263.91987,132.86816 L 263.6314,132.86816 C 263.3873,132.86816 263.3873,132.86076 263.3873,132.71282 L 263.3873,132.01014 C 263.3873,131.67729 263.4021,131.34443 263.42429,131.1965 C 263.44648,131.07815 263.46867,131.04117 263.60921,131.04117 L 263.94206,131.04117 C 264.35627,131.04117 264.55598,131.04856 264.78528,131.11514 C 265.05156,131.1965 265.1921,131.47018 265.22169,131.67729 C 265.25867,131.79563 265.39921,131.75865 265.38442,131.6477 C 265.37702,131.35923 265.4214,130.93022 265.46578,130.65654 C 265.48057,130.57518 265.4214,130.56778 265.37702,130.58997 C 265.22169,130.65654 264.88144,130.67133 264.55598,130.67133 L 263.11363,130.67133 C 262.73639,130.67133 262.38135,130.63435 262.00412,130.63435 C 261.88577,130.63435 261.87838,130.77489 261.98193,130.78228 C 262.35916,130.85625 262.58846,131.00418 262.63284,131.40361 C 262.65503,131.59592 262.67722,131.89919 262.67722,132.48353 L 262.67722,133.70398 z"
         id="path11126"
         style="font-style:normal;font-variant:normal;font-weight:normal;font-stretch:normal;letter-spacing:normal;word-spacing:normal;text-anchor:start;fill:#000000;fill-opacity:1;fill-rule:evenodd;stroke:#000000;stroke-width:0;stroke-linecap:butt;stroke-linejoin:miter;stroke-miterlimit:10.43299961;stroke-dasharray:none;stroke-dashoffset:0;stroke-opacity:1" />
      <path
         d="M 167.49192,150.00633 L 167.49192,150.14687 L 167.49118,150.28741 L 167.49044,150.54629 L 167.48896,150.79778 L 167.48674,151.04187 L 167.48378,151.27117 L 167.48082,151.48567 L 167.47638,151.69278 L 167.47269,151.8851 L 167.46751,152.07001 L 167.46233,152.24754 L 167.45715,152.41766 L 167.45124,152.57299 L 167.44458,152.72093 L 167.43792,152.85407 L 167.43127,152.98721 L 167.42387,153.11295 L 167.41647,153.2239 L 167.40907,153.33485 L 167.40094,153.43101 L 167.3928,153.52717 L 167.38467,153.61593 L 167.37653,153.69729 L 167.36839,153.77126 L 167.36026,153.83783 L 167.35138,153.9044 L 167.34324,153.96357 L 167.33511,154.02275 L 167.32697,154.07452 L 167.31884,154.1189 L 167.3107,154.16328 L 167.29517,154.24465 C 167.02371,155.33936 165.80695,155.57606 164.47554,155.84973 C 164.16044,155.88672 164.16044,156.36011 164.59093,156.36011 L 176.31323,156.36011 C 177.37022,156.36011 177.60766,156.31573 177.72601,155.81275 C 177.95974,154.63667 178.11581,153.14254 178.11581,152.75051 C 178.11581,152.43985 177.72601,152.39547 177.60766,152.71353 C 177.45159,153.18692 177.21415,153.77126 176.90201,154.16328 C 176.50925,154.55531 176.03808,154.82899 175.45152,154.91035 C 174.86274,155.0213 173.9204,155.06568 172.98176,155.06568 C 171.41291,155.06568 170.5512,154.98432 170.27678,154.55531 C 170.00236,154.16328 169.9247,153.18692 169.9247,150.44274 L 169.9247,148.59356 C 169.9247,148.12757 170.04008,148.09058 170.6296,148.09058 L 171.80568,148.09058 C 173.84273,148.09058 174.82502,148.31988 175.21482,148.99298 C 175.45152,149.42199 175.56765,149.76964 175.60759,150.00633 C 175.64531,150.32439 176.07876,150.28741 176.07876,149.96935 C 176.07876,147.66158 176.19415,146.67781 176.27551,146.04909 C 176.31323,145.77541 176.03808,145.69405 175.91973,145.89376 C 175.80434,146.08608 175.48924,146.44112 175.01881,146.59645 C 174.66599,146.7148 173.76433,146.83314 171.56824,146.83314 L 170.74499,146.83314 C 169.9247,146.75918 169.9247,146.79616 169.9247,146.32277 L 169.9247,144.20731 C 169.9247,142.99425 169.96242,141.93652 170.00236,141.58148 C 170.08077,140.95276 170.15843,140.8714 170.98243,140.8714 L 172.00169,140.8714 C 173.41224,140.8714 174.11715,140.91578 174.90268,141.14507 C 175.64531,141.34479 176.23483,142.2102 176.3909,143.06822 C 176.46857,143.54161 176.98042,143.46024 176.93974,142.94987 C 176.86207,141.97351 176.93974,140.52375 177.13649,139.58437 C 177.17717,139.38466 177.05808,139.30329 176.98042,139.30329 C 176.93974,139.30329 176.78367,139.34767 176.58765,139.46602 C 176.23483,139.58437 174.90268,139.62135 172.82569,139.62135 L 168.78634,139.62135 C 167.56958,139.62135 166.66792,139.503 165.37646,139.503 C 164.94301,139.503 164.90603,139.93201 165.33652,140.05036 C 166.31584,140.28706 167.17978,140.71606 167.33585,141.73681 C 167.49192,142.72057 167.49192,143.46024 167.49192,145.8124 L 167.49192,150.00633 z"
         id="path11128"
         style="font-style:normal;font-variant:normal;font-weight:normal;font-stretch:normal;letter-spacing:normal;word-spacing:normal;text-anchor:start;fill:#000000;fill-opacity:1;fill-rule:evenodd;stroke:#000000;stroke-width:0;stroke-linecap:butt;stroke-linejoin:miter;stroke-miterlimit:10.43299961;stroke-dasharray:none;stroke-dashoffset:0;stroke-opacity:1" />
      <path
         d="M 169.62439,129.87249 L 169.28932,129.87249 L 168.96238,129.87988 L 168.64359,129.89468 L 168.33292,129.91687 L 168.02966,129.93906 L 167.73379,129.96865 L 167.44458,129.99823 L 167.16202,130.04261 L 166.88613,130.08699 L 166.61689,130.13877 L 166.35282,130.19055 L 166.09468,130.24972 L 165.84245,130.31629 L 165.5954,130.39026 L 165.35279,130.46422 L 165.11536,130.54559 L 164.88236,130.63435 L 164.65306,130.72311 L 164.4282,130.81927 L 164.2063,130.91542 L 163.77359,131.13733 L 163.35198,131.37402 L 162.94072,131.62551 L 162.53612,131.90658 L 162.13744,132.20245 L 161.74172,132.51311 C 160.3896,133.59303 159.52566,134.83568 159.20243,135.7011 C 158.87845,136.50734 159.20243,137.10647 159.5804,137.37275 C 159.90437,137.64643 160.33782,137.53548 160.44433,136.94374 C 160.87778,134.24394 162.60565,131.59592 167.08732,131.59592 C 171.94696,131.59592 176.64535,133.91849 181.61224,139.0518 C 184.36529,141.90694 187.7663,146.50029 190.30633,150.16906 C 190.5201,150.49452 190.5201,150.60547 190.08961,151.14543 C 188.68497,152.87626 187.38759,154.59969 185.93118,156.43407 C 182.85415,160.21379 182.58269,160.59102 179.72238,161.61917 C 179.23715,161.83367 179.18168,162.32185 179.82889,162.32185 L 187.60431,162.32185 C 188.30626,162.32185 188.30626,161.83367 187.71452,161.61917 C 185.93118,160.91648 185.28396,160.75375 186.63386,158.48296 C 188.03776,156.16779 190.14434,153.24609 191.11479,152.01084 C 191.33151,151.73716 191.43877,151.78894 191.65549,152.11439 C 193.32789,154.54791 194.5158,156.33052 195.37973,157.51399 C 196.78363,159.45933 198.13353,161.50822 200.35254,164.15624 C 204.45032,168.9641 210.50083,174.85188 218.70378,174.85188 C 223.23796,174.85188 227.77954,173.0101 229.50298,168.37236 C 229.61393,167.93596 229.56215,167.6105 229.34025,167.396 C 229.12574,167.18149 228.91124,167.12972 228.74851,167.50695 C 228.48223,168.26141 228.20855,169.12683 227.50586,170.04402 C 226.37417,171.55295 224.53978,172.84737 220.27188,172.84737 C 214.06604,172.84737 208.50372,168.52769 202.56416,161.35289 C 199.3244,157.46222 196.78363,153.63072 193.81385,149.46637 C 193.54461,149.09654 193.54461,148.98559 193.76133,148.66013 C 195.11123,146.98847 196.35314,145.42037 198.24448,143.31231 C 200.24159,141.04892 200.56705,140.77524 203.3704,139.80627 C 203.91036,139.64354 203.96953,139.10358 203.31862,139.10358 L 195.00102,139.10358 C 194.40855,139.10358 194.35381,139.64354 194.94925,139.80627 C 196.8391,140.44978 197.26959,140.77524 196.46039,142.34334 C 195.48921,143.96322 194.30203,145.63488 193.16664,147.1512 C 192.73615,147.74294 192.62594,147.74294 192.40922,147.47666 C 190.89807,145.30942 189.28041,143.04603 187.65905,141.04892 C 181.93547,133.91849 176.59061,130.08699 169.62439,129.87249 z"
         id="path11130"
         style="font-style:normal;font-variant:normal;font-weight:normal;font-stretch:normal;letter-spacing:normal;word-spacing:normal;text-anchor:start;fill:#25559f;fill-opacity:1;fill-rule:evenodd;stroke:#075f00;stroke-width:0;stroke-linecap:butt;stroke-linejoin:miter;stroke-miterlimit:10.43299961;stroke-dasharray:none;stroke-dashoffset:0;stroke-opacity:1" />
      <path
         d="M 208.17086,150.00633 L 208.17086,150.14687 L 208.17086,150.28741 L 208.17086,150.54629 L 208.17086,150.79778 L 208.17086,151.04187 L 208.16347,151.27117 L 208.16347,151.48567 L 208.15607,151.69278 L 208.15607,151.8851 L 208.14867,152.07001 L 208.14128,152.24754 L 208.14128,152.41766 L 208.13388,152.57299 L 208.12648,152.72093 L 208.11909,152.85407 L 208.11169,152.98721 L 208.10429,153.11295 L 208.0969,153.2239 L 208.0895,153.33485 L 208.0821,153.43101 L 208.07471,153.52717 L 208.06731,153.61593 L 208.05991,153.69729 L 208.05252,153.77126 L 208.04512,153.83783 L 208.03033,153.9044 L 208.02293,153.96357 L 208.01553,154.02275 L 208.00814,154.07452 L 208.00074,154.1189 L 207.99334,154.16328 L 207.97855,154.24465 C 207.70487,155.33936 206.49181,155.57606 205.1604,155.84973 C 204.84234,155.88672 204.84234,156.36011 205.27135,156.36011 L 216.99514,156.36011 C 218.05287,156.36011 218.28956,156.31573 218.40791,155.81275 C 218.64461,154.63667 218.79994,153.14254 218.79994,152.75051 C 218.79994,152.43985 218.40791,152.39547 218.28956,152.71353 C 218.13423,153.18692 217.89754,153.77126 217.58688,154.16328 C 217.19485,154.55531 216.72146,154.82899 216.13712,154.91035 C 215.54538,155.0213 214.606,155.06568 213.66662,155.06568 C 212.09112,155.06568 211.2331,154.98432 210.95942,154.55531 C 210.68575,154.16328 210.60438,153.18692 210.60438,150.44274 L 210.60438,148.59356 C 210.60438,148.12757 210.72273,148.09058 211.31447,148.09058 L 212.49054,148.09058 C 214.52464,148.09058 215.5084,148.31988 215.90043,148.99298 C 216.13712,149.42199 216.24807,149.76964 216.29245,150.00633 C 216.32944,150.32439 216.75844,150.28741 216.75844,149.96935 C 216.75844,147.66158 216.87679,146.67781 216.95816,146.04909 C 216.99514,145.77541 216.72146,145.69405 216.60311,145.89376 C 216.48477,146.08608 216.1741,146.44112 215.70072,146.59645 C 215.34567,146.7148 214.44327,146.83314 212.25385,146.83314 L 211.42542,146.83314 C 210.60438,146.75918 210.60438,146.79616 210.60438,146.32277 L 210.60438,144.20731 C 210.60438,142.99425 210.64137,141.93652 210.68575,141.58148 C 210.75971,140.95276 210.84108,140.8714 211.66211,140.8714 L 212.68286,140.8714 C 214.09563,140.8714 214.79832,140.91578 215.58237,141.14507 C 216.32944,141.34479 216.91378,142.2102 217.0765,143.06822 C 217.15047,143.54161 217.66084,143.46024 217.62386,142.94987 C 217.5425,141.97351 217.62386,140.52375 217.81617,139.58437 C 217.86055,139.38466 217.74221,139.30329 217.66084,139.30329 C 217.62386,139.30329 217.46853,139.34767 217.26882,139.46602 C 216.91378,139.58437 215.58237,139.62135 213.51129,139.62135 L 209.46529,139.62135 C 208.25223,139.62135 207.34983,139.503 206.05541,139.503 C 205.6264,139.503 205.58941,139.93201 206.01842,140.05036 C 206.99479,140.28706 207.8602,140.71606 208.01553,141.73681 C 208.17086,142.72057 208.17086,143.46024 208.17086,145.8124 L 208.17086,150.00633 z"
         id="path11132"
         style="font-style:normal;font-variant:normal;font-weight:normal;font-stretch:normal;letter-spacing:normal;word-spacing:normal;text-anchor:start;fill:#000000;fill-opacity:1;fill-rule:evenodd;stroke:#000000;stroke-width:0;stroke-linecap:butt;stroke-linejoin:miter;stroke-miterlimit:10.43299961;stroke-dasharray:none;stroke-dashoffset:0;stroke-opacity:1" />
      <path
         d="M 225.20549,139.62135 L 224.99838,139.62135 L 224.79867,139.62135 L 224.61375,139.62135 L 224.42883,139.61395 L 224.25871,139.61395 L 224.08858,139.61395 L 223.93325,139.61395 L 223.78532,139.61395 L 223.63739,139.60656 L 223.49685,139.60656 L 223.3711,139.60656 L 223.24536,139.59916 L 223.12701,139.59916 L 223.01606,139.59176 L 222.90511,139.59176 L 222.80895,139.58437 L 222.7128,139.58437 L 222.61664,139.57697 L 222.53528,139.56957 L 222.45391,139.56218 L 222.37994,139.56218 L 222.30598,139.55478 L 222.23941,139.54738 L 222.17284,139.53999 L 222.11366,139.53259 L 222.06189,139.52519 L 222.01011,139.5104 L 221.95833,139.503 L 221.91395,139.49561 L 221.86957,139.48081 L 221.83259,139.47342 L 221.78821,139.46602 C 221.3592,139.34767 221.04854,139.22933 220.81184,138.99263 C 220.57515,138.75594 220.30147,138.79292 220.30147,139.26631 C 220.30147,140.91578 220.06477,142.48388 220.06477,142.83152 C 220.06477,143.26793 220.50118,143.3419 220.61213,142.94987 C 220.77486,142.4395 221.16688,141.65545 221.75122,141.3078 C 222.65362,140.83441 225.20549,140.8714 225.98954,140.8714 C 226.49252,140.8714 226.57388,140.98974 226.57388,141.65545 C 226.57388,141.97351 226.65524,142.8759 226.65524,145.65707 L 226.65524,149.54034 C 226.65524,152.47683 226.49252,153.68989 226.41855,154.24465 C 226.3002,155.30238 225.20549,155.45771 223.8297,155.84973 C 223.43767,155.96808 223.43767,156.36011 223.91106,156.36011 L 231.43352,156.36011 C 231.94389,156.36011 231.98827,155.96808 231.58885,155.84973 C 230.06513,155.33936 229.39942,155.18403 229.19971,153.88961 C 229.08136,152.95022 229.08136,151.96646 229.08136,149.34063 L 229.08136,145.62008 C 229.08136,143.03123 229.16273,141.65545 229.23669,141.3078 C 229.28107,140.98974 229.31806,140.8714 229.82843,140.8714 C 231.67021,140.8714 232.57261,140.98974 233.23831,141.14507 C 234.21468,141.42615 234.49576,142.09185 234.76943,142.79454 C 234.92476,143.14958 235.27981,143.06822 235.31679,142.72057 C 235.39815,141.26342 235.39815,140.24268 235.82716,139.19234 C 235.90853,138.91127 235.62745,138.79292 235.39815,138.95565 C 234.88778,139.30329 234.14071,139.53999 233.43803,139.58437 C 232.88327,139.58437 232.06224,139.62135 230.61248,139.62135 L 225.20549,139.62135 z"
         id="path11134"
         style="font-style:normal;font-variant:normal;font-weight:normal;font-stretch:normal;letter-spacing:normal;word-spacing:normal;text-anchor:start;fill:#000000;fill-opacity:1;fill-rule:evenodd;stroke:#000000;stroke-width:0;stroke-linecap:butt;stroke-linejoin:miter;stroke-miterlimit:10.43299961;stroke-dasharray:none;stroke-dashoffset:0;stroke-opacity:1" />
      <path
         d="M 239.97672,150.00633 L 239.97672,150.14687 L 239.97672,150.28741 L 239.97672,150.54629 L 239.97672,150.79778 L 239.97672,151.04187 L 239.96932,151.27117 L 239.96932,151.48567 L 239.96192,151.69278 L 239.96192,151.8851 L 239.95453,152.07001 L 239.94713,152.24754 L 239.94713,152.41766 L 239.93973,152.57299 L 239.93234,152.72093 L 239.92494,152.85407 L 239.91754,152.98721 L 239.91015,153.11295 L 239.90275,153.2239 L 239.89535,153.33485 L 239.88796,153.43101 L 239.88056,153.52717 L 239.87316,153.61593 L 239.86577,153.69729 L 239.85837,153.77126 L 239.85097,153.83783 L 239.83618,153.9044 L 239.82878,153.96357 L 239.82139,154.02275 L 239.81399,154.07452 L 239.80659,154.1189 L 239.7992,154.16328 L 239.7844,154.24465 C 239.51072,155.33936 238.29766,155.57606 236.96626,155.84973 C 236.6482,155.88672 236.6482,156.36011 237.07721,156.36011 L 248.80099,156.36011 C 249.85872,156.36011 250.09542,156.31573 250.21376,155.81275 C 250.45046,154.63667 250.60579,153.14254 250.60579,152.75051 C 250.60579,152.43985 250.21376,152.39547 250.09542,152.71353 C 249.94009,153.18692 249.70339,153.77126 249.39273,154.16328 C 249.0007,154.55531 248.52731,154.82899 247.93558,154.91035 C 247.35124,155.0213 246.41186,155.06568 245.47247,155.06568 C 243.90437,155.06568 243.03896,154.98432 242.76528,154.55531 C 242.4916,154.16328 242.41023,153.18692 242.41023,150.44274 L 242.41023,148.59356 C 242.41023,148.12757 242.52858,148.09058 243.12032,148.09058 L 244.2964,148.09058 C 246.33049,148.09058 247.31425,148.31988 247.70628,148.99298 C 247.93558,149.42199 248.05392,149.76964 248.0983,150.00633 C 248.13529,150.32439 248.5643,150.28741 248.5643,149.96935 C 248.5643,147.66158 248.68265,146.67781 248.76401,146.04909 C 248.80099,145.77541 248.52731,145.69405 248.40897,145.89376 C 248.29062,146.08608 247.97996,146.44112 247.50657,146.59645 C 247.15153,146.7148 246.24913,146.83314 244.0523,146.83314 L 243.23127,146.83314 C 242.41023,146.75918 242.41023,146.79616 242.41023,146.32277 L 242.41023,144.20731 C 242.41023,142.99425 242.44722,141.93652 242.4916,141.58148 C 242.56557,140.95276 242.64693,140.8714 243.46796,140.8714 L 244.48871,140.8714 C 245.90148,140.8714 246.60417,140.91578 247.38822,141.14507 C 248.13529,141.34479 248.71963,142.2102 248.88236,143.06822 C 248.95632,143.54161 249.4667,143.46024 249.42971,142.94987 C 249.34835,141.97351 249.42971,140.52375 249.62203,139.58437 C 249.66641,139.38466 249.54806,139.30329 249.4667,139.30329 C 249.42971,139.30329 249.27438,139.34767 249.07467,139.46602 C 248.71963,139.58437 247.38822,139.62135 245.30975,139.62135 L 241.27114,139.62135 C 240.05808,139.62135 239.15568,139.503 237.86126,139.503 C 237.43225,139.503 237.39527,139.93201 237.82427,140.05036 C 238.80064,140.28706 239.66606,140.71606 239.82139,141.73681 C 239.97672,142.72057 239.97672,143.46024 239.97672,145.8124 L 239.97672,150.00633 z"
         id="path11136"
         style="font-style:normal;font-variant:normal;font-weight:normal;font-stretch:normal;letter-spacing:normal;word-spacing:normal;text-anchor:start;fill:#000000;fill-opacity:1;fill-rule:evenodd;stroke:#000000;stroke-width:0;stroke-linecap:butt;stroke-linejoin:miter;stroke-miterlimit:10.43299961;stroke-dasharray:none;stroke-dashoffset:0;stroke-opacity:1" />
      <path
         d="M 254.77014,150.94571 L 254.77014,151.09365 L 254.77014,151.22679 L 254.77014,151.36733 L 254.77014,151.49307 L 254.76274,151.62621 L 254.76274,151.75196 L 254.75534,151.8777 L 254.75534,151.99605 L 254.74795,152.11439 L 254.74795,152.22535 L 254.74055,152.3363 L 254.73315,152.43985 L 254.72576,152.5508 L 254.72576,152.64696 L 254.71836,152.75051 L 254.71096,152.84667 L 254.70357,152.93543 L 254.69617,153.03159 L 254.68877,153.12035 L 254.68138,153.20171 L 254.68138,153.28308 L 254.67398,153.36444 L 254.66658,153.43841 L 254.65919,153.51237 L 254.65179,153.58634 L 254.64439,153.65291 L 254.64439,153.71948 L 254.637,153.77865 L 254.6296,153.84522 L 254.6222,153.897 L 254.6222,153.95618 L 254.61481,154.00795 C 254.45948,155.14705 254.11183,155.45771 252.61769,155.84973 C 252.18869,155.96808 252.26265,156.36011 252.69906,156.36011 L 259.51883,156.36011 C 259.99221,156.36011 259.99221,155.96808 259.55581,155.84973 C 257.83238,155.38374 257.5587,155.0213 257.322,153.77126 C 257.24064,153.29787 257.20365,152.86886 257.20365,151.61882 L 257.20365,149.96935 C 257.20365,149.22228 257.24064,149.14831 257.44035,149.14831 C 258.06907,149.14831 258.69779,149.06695 259.24515,149.02997 C 259.67416,148.99298 259.94783,149.06695 260.30288,149.81402 C 261.47895,152.08481 262.4997,153.92659 263.94945,155.30238 C 264.84446,156.08643 266.33859,156.55982 267.78835,156.55982 C 268.60938,156.55982 269.27509,156.39709 269.43781,156.31573 C 269.54876,156.27874 269.51178,156.04205 269.35645,156.00506 C 269.20112,155.96808 268.18037,155.6944 266.88595,154.63667 C 265.51756,153.53456 263.59441,151.06406 262.263,148.2829 C 262.10767,147.93525 262.18164,147.80951 262.38135,147.69856 L 263.1654,147.18819 C 263.86809,146.75918 264.80747,145.50174 264.80747,143.85227 C 264.80747,142.72057 264.53379,139.26631 258.65341,139.42164 C 256.14593,139.42164 252.97274,139.85805 252.41798,139.93201 C 251.95199,140.01338 251.91501,140.4054 252.41798,140.44239 C 253.16505,140.52375 254.03047,140.6421 254.30414,140.91578 C 254.42249,141.07111 254.54084,141.26342 254.61481,141.77379 C 254.65919,142.4395 254.77014,143.38628 254.77014,144.79165 L 254.77014,150.94571 z M 257.20365,143.46024 L 257.20365,143.29752 L 257.20365,143.14219 L 257.20365,142.98685 L 257.21105,142.84632 L 257.21105,142.70578 L 257.21105,142.58004 L 257.21105,142.45429 L 257.21105,142.33594 L 257.21845,142.22499 L 257.21845,142.12144 L 257.21845,142.01789 L 257.21845,141.92173 L 257.22585,141.83297 L 257.22585,141.7516 L 257.23324,141.67024 L 257.23324,141.59627 L 257.24064,141.5297 L 257.24064,141.46313 L 257.24804,141.40396 L 257.24804,141.34479 L 257.25543,141.29301 L 257.26283,141.24863 L 257.26283,141.19685 L 257.27023,141.15987 L 257.27762,141.11549 L 257.28502,141.0785 L 257.28502,141.04892 L 257.29242,141.01933 L 257.29981,140.98974 L 257.30721,140.96016 L 257.31461,140.93797 L 257.322,140.91578 C 257.40337,140.6421 257.47733,140.52375 258.02469,140.52375 C 260.76887,140.52375 262.33697,142.59483 262.33697,144.94698 C 262.33697,147.18819 260.65792,147.89087 259.36349,147.89087 C 258.53506,147.89087 258.06907,147.89087 257.5587,147.85389 C 257.24064,147.80951 257.20365,147.69856 257.20365,147.26215 L 257.20365,143.46024 z"
         id="path11138"
         style="font-style:normal;font-variant:normal;font-weight:normal;font-stretch:normal;letter-spacing:normal;word-spacing:normal;text-anchor:start;fill:#000000;fill-opacity:1;fill-rule:evenodd;stroke:#000000;stroke-width:0;stroke-linecap:butt;stroke-linejoin:miter;stroke-miterlimit:10.43299961;stroke-dasharray:none;stroke-dashoffset:0;stroke-opacity:1" />
    </g>
  </g>
</svg>
