<svg xmlns="http://www.w3.org/2000/svg" xmlns:xlink="http://www.w3.org/1999/xlink" id="Layer_1" data-name="Layer 1" viewBox="0 0 53.8 63.8"><defs><clipPath id="clip-path" transform="translate(-2518.34 -568.44)"><rect x="2518.74" y="568.84" width="53" height="63" style="fill:none"></rect></clipPath></defs><g style="clip-path:url(#clip-path)"><path d="M2546.62,616l19.77,12.86" transform="translate(-2518.34 -568.44)" style="fill:none;stroke:#243b4c;stroke-miterlimit:10;stroke-width:2px"></path><path d="M2555.52,617V600.55" transform="translate(-2518.34 -568.44)" style="fill:none;stroke:#243b4c;stroke-miterlimit:10;stroke-width:2px"></path><path d="M2539.89,584.7h-20.55" transform="translate(-2518.34 -568.44)" style="fill:none;stroke:#243b4c;stroke-miterlimit:10;stroke-width:2px"></path><path d="M2555.52,621.73v9.52h-36.18V589.73" transform="translate(-2518.34 -568.44)" style="fill:none;stroke:#243b4c;stroke-miterlimit:10;stroke-width:2px"></path><path d="M2524.63,605.34h25.9" transform="translate(-2518.34 -568.44)" style="fill:none;stroke:#243b4c;stroke-miterlimit:10;stroke-width:2px"></path><path d="M2524.63,609.89h25.9" transform="translate(-2518.34 -568.44)" style="fill:none;stroke:#243b4c;stroke-miterlimit:10;stroke-width:2px"></path><path d="M2524.63,614.43h16" transform="translate(-2518.34 -568.44)" style="fill:none;stroke:#243b4c;stroke-miterlimit:10;stroke-width:2px"></path><path d="M2524.63,619h16" transform="translate(-2518.34 -568.44)" style="fill:none;stroke:#243b4c;stroke-miterlimit:10;stroke-width:2px"></path><path d="M2524.63,590.38h4.87" transform="translate(-2518.34 -568.44)" style="fill:none;stroke:#243b4c;stroke-miterlimit:10;stroke-width:2px"></path><path d="M2524.63,595.89h12" transform="translate(-2518.34 -568.44)" style="fill:none;stroke:#243b4c;stroke-miterlimit:10;stroke-width:2px"></path><path d="M2524.63,600.43h18.21" transform="translate(-2518.34 -568.44)" style="fill:none;stroke:#243b4c;stroke-miterlimit:10;stroke-width:2px"></path><path d="M2549.69,583.5v4.31l5.83,3.05,5.83-3.05v-2.69" transform="translate(-2518.34 -568.44)" style="fill:none;stroke:#243b4c;stroke-miterlimit:10;stroke-width:2px"></path><path d="M2549.69,587.81v4.37" transform="translate(-2518.34 -568.44)" style="fill:none;stroke:#243b4c;stroke-miterlimit:10;stroke-width:2px"></path><path d="M2555.52,586.55l-8.42-4.36,8.42-4.37,8.41,4.37Z" transform="translate(-2518.34 -568.44)" style="fill:none;stroke:#243b4c;stroke-miterlimit:10;stroke-width:2px"></path><path d="M2555.52,600.55A15.56,15.56,0,1,0,2539.89,585,15.58,15.58,0,0,0,2555.52,600.55Z" transform="translate(-2518.34 -568.44)" style="fill:none;stroke:#243b4c;stroke-miterlimit:10;stroke-width:2px"></path></g></svg>