<svg xmlns="http://www.w3.org/2000/svg" xmlns:xlink="http://www.w3.org/1999/xlink" id="Layer_1" data-name="Layer 1" viewBox="0 0 462.26 320.65"><defs><clipPath id="clip-path" transform="translate(-189.45 -434.96)"><rect x="189.45" y="434.96" width="462.26" height="320.65" style="fill: none"></rect></clipPath></defs><g style="clip-path: url(#clip-path)"><g><path d="M512.84,463.26H196.19a6.74,6.74,0,0,0-6.74,6.74V642.14a6.74,6.74,0,0,0,6.74,6.74H512.84a6.74,6.74,0,0,0,6.74-6.74V470A6.74,6.74,0,0,0,512.84,463.26Z" transform="translate(-189.45 -434.96)" style="fill: #fff"></path><path d="M608.49,470.82H203.26a5.83,5.83,0,0,0-5.82,5.82V749.79a5.82,5.82,0,0,0,5.82,5.82H608.49a5.82,5.82,0,0,0,5.83-5.82V476.64A5.83,5.83,0,0,0,608.49,470.82Z" transform="translate(-189.45 -434.96)" style="fill: #f1f3f5"></path><path d="M598,521.22H213.72V740.14H598Z" transform="translate(-189.45 -434.96)" style="fill: #fff"></path><path d="M225.16,535.55a1.77,1.77,0,0,1-.79-.17,1.2,1.2,0,0,1-.51-.46,1.24,1.24,0,0,1-.18-.67h.51a1,1,0,0,0,.11.44.89.89,0,0,0,.32.32,1.13,1.13,0,0,0,.54.12,1,1,0,0,0,.64-.2.64.64,0,0,0,.23-.5.67.67,0,0,0-.11-.39.73.73,0,0,0-.28-.24,2.19,2.19,0,0,0-.41-.17,4.5,4.5,0,0,1-.48-.16,1.82,1.82,0,0,1-.71-.4.91.91,0,0,1-.22-.64,1,1,0,0,1,.15-.58,1,1,0,0,1,.44-.39,1.52,1.52,0,0,1,.69-.15,1.45,1.45,0,0,1,.68.15,1,1,0,0,1,.45.4,1.06,1.06,0,0,1,.17.58h-.51a.68.68,0,0,0-.09-.33.7.7,0,0,0-.27-.27.87.87,0,0,0-.44-.11.81.81,0,0,0-.55.17.61.61,0,0,0-.22.49.52.52,0,0,0,.15.4,1.18,1.18,0,0,0,.42.23l.62.21a3.25,3.25,0,0,1,.53.24,1,1,0,0,1,.36.37,1.12,1.12,0,0,1,0,1.12,1.11,1.11,0,0,1-.46.42A1.58,1.58,0,0,1,225.16,535.55Zm3.35,0a1.51,1.51,0,0,1-.74-.19,1.52,1.52,0,0,1-.51-.53,1.73,1.73,0,0,1-.18-.81,1.65,1.65,0,0,1,.18-.79,1.24,1.24,0,0,1,.51-.53,1.42,1.42,0,0,1,.75-.2,1.35,1.35,0,0,1,.73.2,1.3,1.3,0,0,1,.47.49,1.41,1.41,0,0,1,.16.67v.28h-2.31a1.15,1.15,0,0,0,.15.55,1,1,0,0,0,.34.33,1,1,0,0,0,.45.11A.93.93,0,0,0,229,535a.88.88,0,0,0,.3-.38h.48a1.34,1.34,0,0,1-.45.67A1.28,1.28,0,0,1,228.51,535.55Zm0-2.63a1,1,0,0,0-.63.21.87.87,0,0,0-.31.62h1.83a.81.81,0,0,0-.27-.61A.91.91,0,0,0,228.51,532.92Zm2,2.55v-4.21H231v4.21Zm2.6.08a1.48,1.48,0,0,1-.74-.19,1.52,1.52,0,0,1-.51-.53,1.73,1.73,0,0,1-.18-.81,1.65,1.65,0,0,1,.18-.79,1.28,1.28,0,0,1,.5-.53,1.46,1.46,0,0,1,.76-.2,1.29,1.29,0,0,1,.72.2,1.25,1.25,0,0,1,.48.49,1.41,1.41,0,0,1,.16.67v.28H232.2a1.15,1.15,0,0,0,.15.55,1,1,0,0,0,.34.33,1,1,0,0,0,.45.11.93.93,0,0,0,.51-.14.79.79,0,0,0,.29-.38h.49a1.34,1.34,0,0,1-.45.67A1.28,1.28,0,0,1,233.14,535.55Zm0-2.63a1,1,0,0,0-.63.21.87.87,0,0,0-.31.62H234a.89.89,0,0,0-.27-.61A.91.91,0,0,0,233.14,532.92Zm3.36,2.63a1.55,1.55,0,0,1-.75-.19,1.47,1.47,0,0,1-.52-.53A1.62,1.62,0,0,1,235,534a1.54,1.54,0,0,1,.19-.79,1.33,1.33,0,0,1,.52-.53,1.45,1.45,0,0,1,.75-.2,1.36,1.36,0,0,1,.86.27,1.15,1.15,0,0,1,.45.72h-.5a.59.59,0,0,0-.29-.41.88.88,0,0,0-.53-.16.93.93,0,0,0-.81.5,1.21,1.21,0,0,0-.14.6,1.22,1.22,0,0,0,.14.61.88.88,0,0,0,.81.5A.94.94,0,0,0,237,535a.63.63,0,0,0,.29-.42h.5a1.1,1.1,0,0,1-.44.71A1.41,1.41,0,0,1,236.5,535.55Zm3.07-.08a.93.93,0,0,1-.63-.19.88.88,0,0,1-.23-.69V533h-.5v-.42h.5l.07-.69h.42v.69h.86V533h-.86v1.6a.47.47,0,0,0,.12.37.62.62,0,0,0,.39.09h.3v.42Zm1.41-3.54a.32.32,0,0,1-.24-.09.33.33,0,0,1-.1-.25.29.29,0,0,1,.1-.23.3.3,0,0,1,.24-.1.33.33,0,0,1,.24.1.29.29,0,0,1,.1.23.33.33,0,0,1-.1.25A.36.36,0,0,1,241,531.93Zm-.24,3.54v-2.9h.49v2.9Zm2.66.08a1.5,1.5,0,0,1-.73-.19,1.39,1.39,0,0,1-.52-.53,1.8,1.8,0,0,1,0-1.61,1.39,1.39,0,0,1,.52-.53,1.58,1.58,0,0,1,.75-.19,1.47,1.47,0,0,1,.73.19,1.33,1.33,0,0,1,.52.53,1.8,1.8,0,0,1,0,1.61,1.42,1.42,0,0,1-.53.53A1.51,1.51,0,0,1,243.4,535.55Zm0-.43a.94.94,0,0,0,.47-.12.84.84,0,0,0,.35-.37,1.22,1.22,0,0,0,.14-.61,1.21,1.21,0,0,0-.14-.6.82.82,0,0,0-.34-.37.87.87,0,0,0-.46-.13.85.85,0,0,0-.47.13.84.84,0,0,0-.35.37,1.21,1.21,0,0,0-.14.6,1.22,1.22,0,0,0,.14.61.88.88,0,0,0,.34.37A1,1,0,0,0,243.4,535.12Zm2.15.35v-2.9H246l0,.52a1.1,1.1,0,0,1,.4-.43,1.22,1.22,0,0,1,.6-.16,1.09,1.09,0,0,1,.82.32,1.31,1.31,0,0,1,.31,1v1.69h-.49v-1.64c0-.6-.25-.91-.75-.91a.84.84,0,0,0-.63.28,1.13,1.13,0,0,0-.24.77v1.5Zm4.46.08a1.37,1.37,0,0,1-.87-.27,1,1,0,0,1-.4-.71h.5a.73.73,0,0,0,.24.4.8.8,0,0,0,.53.16.67.67,0,0,0,.46-.13.43.43,0,0,0,.14-.31.35.35,0,0,0-.19-.36,2.51,2.51,0,0,0-.53-.15,4.19,4.19,0,0,1-.47-.14,1.08,1.08,0,0,1-.39-.24.59.59,0,0,1-.16-.43.77.77,0,0,1,.28-.62,1.12,1.12,0,0,1,.77-.25,1.17,1.17,0,0,1,.76.24.89.89,0,0,1,.34.65h-.48a.48.48,0,0,0-.2-.34.6.6,0,0,0-.42-.13.69.69,0,0,0-.41.11.33.33,0,0,0-.14.29.31.31,0,0,0,.18.28,2.39,2.39,0,0,0,.5.17,3.8,3.8,0,0,1,.51.14,1,1,0,0,1,.4.25.69.69,0,0,1,.16.48.81.81,0,0,1-.3.65A1.21,1.21,0,0,1,250,535.55Z" transform="translate(-189.45 -434.96)" style="fill: #293b4a"></path><path d="M225.67,580.47a2.08,2.08,0,0,1-1.06-.26,1.79,1.79,0,0,1-.69-.75,2.41,2.41,0,0,1-.24-1.1,2.45,2.45,0,0,1,.24-1.11,1.79,1.79,0,0,1,.69-.75,2,2,0,0,1,1.06-.27,2,2,0,0,1,1.21.37,1.62,1.62,0,0,1,.59,1h-.83a.82.82,0,0,0-.33-.52,1,1,0,0,0-.65-.2,1.08,1.08,0,0,0-.89.39,1.92,1.92,0,0,0,0,2.12,1.11,1.11,0,0,0,.89.38,1.07,1.07,0,0,0,.65-.18.83.83,0,0,0,.33-.5h.83a1.56,1.56,0,0,1-.59,1A2,2,0,0,1,225.67,580.47Zm3.83,0a1.51,1.51,0,0,1-.76-.19,1.45,1.45,0,0,1-.53-.54A1.57,1.57,0,0,1,228,579a1.51,1.51,0,0,1,.73-1.33,1.51,1.51,0,0,1,.76-.19,1.44,1.44,0,0,1,.75.19,1.38,1.38,0,0,1,.53.54,1.54,1.54,0,0,1,.2.79,1.57,1.57,0,0,1-.2.79,1.38,1.38,0,0,1-.53.54A1.51,1.51,0,0,1,229.5,580.47Zm0-.65a.67.67,0,0,0,.51-.22,1.07,1.07,0,0,0,0-1.3.69.69,0,0,0-1,0,1.07,1.07,0,0,0,0,1.3A.66.66,0,0,0,229.5,579.82Zm3.25.65a1,1,0,0,1-.84-.34,1.46,1.46,0,0,1-.3-1V577.5h.75v1.57a.92.92,0,0,0,.15.57.57.57,0,0,0,.48.2.69.69,0,0,0,.51-.22.92.92,0,0,0,.2-.62v-1.5h.75v2.9h-.66l-.06-.49a1,1,0,0,1-.39.41A1.15,1.15,0,0,1,232.75,580.47Zm2.47-.07v-2.9h.67l.07.54a1.11,1.11,0,0,1,.42-.44,1.17,1.17,0,0,1,.65-.17v.79h-.21a1.2,1.2,0,0,0-.44.07.62.62,0,0,0-.31.27,1,1,0,0,0-.1.52v1.32Zm3.52.07a1.79,1.79,0,0,1-.68-.12,1.41,1.41,0,0,1-.47-.35,1.15,1.15,0,0,1-.21-.52h.76a.48.48,0,0,0,.18.29.66.66,0,0,0,.41.12.49.49,0,0,0,.35-.1.29.29,0,0,0,.12-.23.24.24,0,0,0-.16-.25,2.2,2.2,0,0,0-.46-.13l-.38-.1a1.94,1.94,0,0,1-.36-.15.79.79,0,0,1-.25-.23.61.61,0,0,1-.1-.36.83.83,0,0,1,.3-.65,1.35,1.35,0,0,1,.87-.26,1.31,1.31,0,0,1,.82.24,1,1,0,0,1,.36.66h-.7c0-.22-.21-.32-.49-.32a.54.54,0,0,0-.33.08.24.24,0,0,0-.11.2c0,.09.06.16.17.21a2.69,2.69,0,0,0,.45.14,5.48,5.48,0,0,1,.56.16.82.82,0,0,1,.41.25.68.68,0,0,1,.15.47.85.85,0,0,1-.14.49,1,1,0,0,1-.42.34A1.6,1.6,0,0,1,238.74,580.47Zm3.28,0a1.49,1.49,0,0,1-.77-.19,1.35,1.35,0,0,1-.54-.52,1.57,1.57,0,0,1-.19-.79,1.6,1.6,0,0,1,.19-.8,1.42,1.42,0,0,1,.52-.54,1.68,1.68,0,0,1,1.55,0,1.44,1.44,0,0,1,.7,1.24.57.57,0,0,1,0,.13v.15h-2.21a.78.78,0,0,0,.24.53.75.75,0,0,0,.52.2.74.74,0,0,0,.38-.1.67.67,0,0,0,.23-.27h.76a1.29,1.29,0,0,1-.27.5,1.26,1.26,0,0,1-.47.35A1.39,1.39,0,0,1,242,580.47Zm0-2.43a.84.84,0,0,0-.49.15.74.74,0,0,0-.27.47h1.45a.6.6,0,0,0-.21-.45A.67.67,0,0,0,242,578Zm5.35,2.43a2.12,2.12,0,0,1-1.07-.26,1.83,1.83,0,0,1-.68-.75,2.41,2.41,0,0,1-.24-1.1,2.45,2.45,0,0,1,.24-1.11,1.83,1.83,0,0,1,.68-.75,2,2,0,0,1,1.07-.27,1.91,1.91,0,0,1,1.2.37,1.54,1.54,0,0,1,.59,1h-.82a.82.82,0,0,0-.33-.52,1,1,0,0,0-.65-.2,1.08,1.08,0,0,0-.89.39,1.87,1.87,0,0,0,0,2.12,1.11,1.11,0,0,0,.89.38,1.07,1.07,0,0,0,.65-.18.83.83,0,0,0,.33-.5h.82a1.48,1.48,0,0,1-.59,1A1.9,1.9,0,0,1,247.38,580.47Zm3.44,0a1.4,1.4,0,0,1-.62-.12.84.84,0,0,1-.35-.32.83.83,0,0,1-.12-.44.78.78,0,0,1,.32-.65,1.47,1.47,0,0,1,.94-.25h.74v-.07a.51.51,0,0,0-.17-.44.59.59,0,0,0-.42-.14.69.69,0,0,0-.4.11.46.46,0,0,0-.21.31h-.73a1.06,1.06,0,0,1,.21-.55,1.3,1.3,0,0,1,.48-.35,1.56,1.56,0,0,1,.66-.13,1.4,1.4,0,0,1,1,.31,1.09,1.09,0,0,1,.36.88v1.78h-.64l-.07-.47a1,1,0,0,1-.36.39A1.05,1.05,0,0,1,250.82,580.47Zm.17-.59a.63.63,0,0,0,.5-.21,1,1,0,0,0,.22-.52h-.63a.69.69,0,0,0-.43.11.32.32,0,0,0-.13.27.29.29,0,0,0,.13.26A.59.59,0,0,0,251,579.88Zm2.21.52v-2.9h.66l.07.54a1.21,1.21,0,0,1,.43-.44,1.14,1.14,0,0,1,.64-.17v.79h-.21a1.23,1.23,0,0,0-.44.07.6.6,0,0,0-.3.27,1,1,0,0,0-.11.52v1.32Zm3.6.07a1.35,1.35,0,0,1-.73-.2,1.33,1.33,0,0,1-.51-.54,1.72,1.72,0,0,1,0-1.57,1.3,1.3,0,0,1,.51-.53,1.42,1.42,0,0,1,1.3-.08,1,1,0,0,1,.4.35v-1.71h.75v4.21h-.67l-.08-.42a1.15,1.15,0,0,1-.38.34A1.05,1.05,0,0,1,256.8,580.47Zm.16-.66a.79.79,0,0,0,.59-.24,1,1,0,0,0,0-1.24.76.76,0,0,0-.59-.25.81.81,0,0,0-.6.24.88.88,0,0,0-.23.62.9.9,0,0,0,.23.63A.81.81,0,0,0,257,579.81Zm3.52.66a1.79,1.79,0,0,1-.68-.12,1.41,1.41,0,0,1-.47-.35,1.15,1.15,0,0,1-.21-.52h.76a.48.48,0,0,0,.18.29.66.66,0,0,0,.41.12.49.49,0,0,0,.35-.1.29.29,0,0,0,.12-.23.24.24,0,0,0-.16-.25,2.2,2.2,0,0,0-.46-.13l-.38-.1a1.94,1.94,0,0,1-.36-.15.79.79,0,0,1-.25-.23.61.61,0,0,1-.1-.36.83.83,0,0,1,.3-.65,1.35,1.35,0,0,1,.87-.26,1.31,1.31,0,0,1,.82.24,1,1,0,0,1,.37.66h-.71c-.05-.22-.21-.32-.49-.32a.54.54,0,0,0-.33.08.24.24,0,0,0-.11.2c0,.09.06.16.17.21a2.69,2.69,0,0,0,.45.14,5.48,5.48,0,0,1,.56.16.82.82,0,0,1,.41.25.68.68,0,0,1,.15.47.85.85,0,0,1-.14.49,1,1,0,0,1-.42.34A1.6,1.6,0,0,1,260.48,580.47Zm4.68,0a2,2,0,0,1-.79-.15,1.44,1.44,0,0,1-.55-.45,1.23,1.23,0,0,1-.2-.7h.79a.75.75,0,0,0,.2.48.77.77,0,0,0,.55.19.68.68,0,0,0,.47-.14.45.45,0,0,0,.18-.38.47.47,0,0,0-.16-.39,1.07,1.07,0,0,0-.41-.23l-.55-.19a1.87,1.87,0,0,1-.73-.42,1,1,0,0,1-.24-.69,1.07,1.07,0,0,1,.17-.62,1.14,1.14,0,0,1,.49-.4,1.64,1.64,0,0,1,.71-.15,1.59,1.59,0,0,1,.72.15,1.19,1.19,0,0,1,.5.41,1.17,1.17,0,0,1,.19.63h-.8a.54.54,0,0,0-.17-.38.72.72,0,0,0-.86,0,.42.42,0,0,0-.17.36.45.45,0,0,0,.13.33,1.15,1.15,0,0,0,.35.2l.51.17a4.11,4.11,0,0,1,.56.25,1.1,1.1,0,0,1,.4.37,1.08,1.08,0,0,1,.15.59,1.12,1.12,0,0,1-.16.6,1.26,1.26,0,0,1-.49.45A1.68,1.68,0,0,1,265.16,580.47Zm3.49,0a1.55,1.55,0,0,1-.78-.19,1.39,1.39,0,0,1-.53-.52,1.57,1.57,0,0,1-.19-.79,1.71,1.71,0,0,1,.18-.8,1.45,1.45,0,0,1,.53-.54,1.49,1.49,0,0,1,.8-.2,1.54,1.54,0,0,1,.75.18,1.34,1.34,0,0,1,.51.52,1.43,1.43,0,0,1,.19.72s0,.09,0,.13a.76.76,0,0,1,0,.15h-2.2a.73.73,0,0,0,.23.53.77.77,0,0,0,.52.2.71.71,0,0,0,.38-.1.62.62,0,0,0,.24-.27H270a1.46,1.46,0,0,1-.28.5,1.23,1.23,0,0,1-.46.35A1.45,1.45,0,0,1,268.65,580.47Zm0-2.43a.81.81,0,0,0-.49.15.74.74,0,0,0-.27.47h1.45a.68.68,0,0,0-.21-.45A.67.67,0,0,0,268.66,578Zm2.08,2.36v-2.9h.66l.07.54a1.21,1.21,0,0,1,.43-.44,1.14,1.14,0,0,1,.64-.17v.79h-.21a1.23,1.23,0,0,0-.44.07.6.6,0,0,0-.3.27,1,1,0,0,0-.1.52v1.32Zm3.1,0-1.06-2.9h.78l.74,2.19.73-2.19h.79l-1.07,2.9Zm3.72.07a1.53,1.53,0,0,1-.78-.19,1.33,1.33,0,0,1-.53-.52,1.57,1.57,0,0,1-.2-.79,1.72,1.72,0,0,1,.19-.8,1.46,1.46,0,0,1,1.32-.74,1.55,1.55,0,0,1,.76.18,1.34,1.34,0,0,1,.51.52,1.43,1.43,0,0,1,.18.72V579a.76.76,0,0,1,0,.15h-2.2a.73.73,0,0,0,.23.53.77.77,0,0,0,.52.2.74.74,0,0,0,.38-.1.62.62,0,0,0,.24-.27h.76a1.46,1.46,0,0,1-.28.5,1.19,1.19,0,0,1-.47.35A1.38,1.38,0,0,1,277.56,580.47Zm0-2.43a.81.81,0,0,0-.48.15.74.74,0,0,0-.27.47h1.44a.6.6,0,0,0-.21-.45A.67.67,0,0,0,277.56,578Zm3.42,2.43a1.35,1.35,0,0,1-.73-.2,1.33,1.33,0,0,1-.51-.54,1.72,1.72,0,0,1,0-1.57,1.3,1.3,0,0,1,.51-.53,1.42,1.42,0,0,1,1.3-.08,1,1,0,0,1,.4.35v-1.71h.75v4.21H282L282,580a1.15,1.15,0,0,1-.38.34A1.05,1.05,0,0,1,281,580.47Zm.16-.66a.79.79,0,0,0,.59-.24,1,1,0,0,0,0-1.24.76.76,0,0,0-.59-.25.78.78,0,0,0-.59.24.84.84,0,0,0-.24.62.87.87,0,0,0,.24.63A.78.78,0,0,0,281.14,579.81Z" transform="translate(-189.45 -434.96)" style="fill: #293b4a"></path><path d="M323,532H272.44a1.88,1.88,0,0,0,0,3.75H323a1.88,1.88,0,1,0,0-3.75Z" transform="translate(-189.45 -434.96)" style="fill: #667887"></path><path d="M563.48,589.7H225.3a1.88,1.88,0,1,0,0,3.75H563.48a1.88,1.88,0,0,0,0-3.75Z" transform="translate(-189.45 -434.96)" style="fill: #f1f3f5"></path><path d="M480.59,599.4H225.3a1.88,1.88,0,1,0,0,3.75H480.59a1.88,1.88,0,1,0,0-3.75Z" transform="translate(-189.45 -434.96)" style="fill: #f1f3f5"></path><path d="M507.34,532H470.27a1.88,1.88,0,0,0,0,3.75h37.07a1.88,1.88,0,1,0,0-3.75Z" transform="translate(-189.45 -434.96)" style="fill: #667887"></path><path d="M507.34,558.19H470.27a1.88,1.88,0,0,0,0,3.76h37.07a1.88,1.88,0,1,0,0-3.76Z" transform="translate(-189.45 -434.96)" style="fill: #667887"></path><path d="M382.36,532H334.13v9.67h48.23Z" transform="translate(-189.45 -434.96)" style="fill: #f1f3f5"></path><path d="M585.42,534.46H518.1v9.67h67.32Z" transform="translate(-189.45 -434.96)" style="fill: #f1f3f5"></path><path d="M585.42,557.68H518.1v9.66h67.32Z" transform="translate(-189.45 -434.96)" style="fill: #f1f3f5"></path><path d="M434.56,532H386.34v9.67h48.22Z" transform="translate(-189.45 -434.96)" style="fill: #f1f3f5"></path><path d="M239.69,624.84H228.21a2.85,2.85,0,1,0,0,5.69h11.48a2.85,2.85,0,1,0,0-5.69Z" transform="translate(-189.45 -434.96)" style="fill: #667887"></path><path d="M299.86,624.84H288.38a2.85,2.85,0,1,0,0,5.69h11.48a2.85,2.85,0,1,0,0-5.69Z" transform="translate(-189.45 -434.96)" style="fill: #667887"></path><path d="M239.69,675.94H228.21a2.85,2.85,0,1,0,0,5.69h11.48a2.85,2.85,0,1,0,0-5.69Z" transform="translate(-189.45 -434.96)" style="fill: #667887"></path><path d="M299.86,675.94H288.38a2.85,2.85,0,1,0,0,5.69h11.48a2.85,2.85,0,1,0,0-5.69Z" transform="translate(-189.45 -434.96)" style="fill: #667887"></path><path d="M242.54,646.06H225.36v3.66h17.18Z" transform="translate(-189.45 -434.96)" style="fill: #667887"></path><path d="M225.81,641.33v-.82c.38-.31.75-.63,1.1-.93a12.2,12.2,0,0,0,1-.91,4.93,4.93,0,0,0,.67-.89,1.61,1.61,0,0,0,.26-.84,1.13,1.13,0,0,0-.21-.67.82.82,0,0,0-.69-.29.9.9,0,0,0-.74.32,1.23,1.23,0,0,0-.25.77h-1.09a2.19,2.19,0,0,1,.3-1.14,1.82,1.82,0,0,1,.75-.68,2.38,2.38,0,0,1,1-.23,2,2,0,0,1,1.48.52,1.82,1.82,0,0,1,.53,1.34,2.23,2.23,0,0,1-.24,1,4.19,4.19,0,0,1-.61.94,7.4,7.4,0,0,1-.83.85c-.29.26-.58.51-.85.73h2.68v.93Z" transform="translate(-189.45 -434.96)" style="fill: #293b4a"></path><path d="M233.05,641.44a2.77,2.77,0,0,1-1.1-.22,1.81,1.81,0,0,1-.8-.67,2,2,0,0,1-.32-1.14H232a1,1,0,0,0,1.1,1.07,1,1,0,0,0,.76-.28.93.93,0,0,0,.27-.69.86.86,0,0,0-.35-.74,1.52,1.52,0,0,0-.9-.26h-.47v-.93h.47a1.26,1.26,0,0,0,.75-.21.73.73,0,0,0,.31-.63.75.75,0,0,0-.23-.56A.93.93,0,0,0,233,636a.9.9,0,0,0-.68.26,1,1,0,0,0-.27.63H231a1.86,1.86,0,0,1,.6-1.35A2.16,2.16,0,0,1,233,635a2.34,2.34,0,0,1,1.08.22,1.58,1.58,0,0,1,.89,1.43,1.39,1.39,0,0,1-.29.88,1.37,1.37,0,0,1-.71.48,1.5,1.5,0,0,1,.85.51,1.55,1.55,0,0,1,.33,1,1.82,1.82,0,0,1-1,1.63,2.44,2.44,0,0,1-1.17.26Z" transform="translate(-189.45 -434.96)" style="fill: #293b4a"></path><path d="M235.83,642.36l.5-2.21h1.1l-.86,2.21Z" transform="translate(-189.45 -434.96)" style="fill: #293b4a"></path><path d="M238.2,641.33v-.82c.38-.31.75-.62,1.1-.93a12.2,12.2,0,0,0,1-.91,4.93,4.93,0,0,0,.67-.89,1.59,1.59,0,0,0,.25-.83,1.14,1.14,0,0,0-.2-.68.82.82,0,0,0-.69-.29.9.9,0,0,0-.74.32,1.23,1.23,0,0,0-.25.77h-1.09a2.19,2.19,0,0,1,.3-1.14,1.82,1.82,0,0,1,.75-.68,2.38,2.38,0,0,1,1.05-.23,2,2,0,0,1,1.48.52,1.82,1.82,0,0,1,.53,1.34,2.23,2.23,0,0,1-.24,1,4.19,4.19,0,0,1-.61.94,8.33,8.33,0,0,1-.83.85c-.29.26-.58.51-.85.73h2.68v.93Z" transform="translate(-189.45 -434.96)" style="fill: #293b4a"></path><path d="M243.26,641.33v-.82c.38-.31.74-.62,1.1-.93a12,12,0,0,0,.95-.91,5,5,0,0,0,.68-.89,1.69,1.69,0,0,0,.25-.83,1.14,1.14,0,0,0-.21-.68.79.79,0,0,0-.69-.29.87.87,0,0,0-.73.32,1.17,1.17,0,0,0-.25.77h-1.1a2.19,2.19,0,0,1,.3-1.14,1.78,1.78,0,0,1,.76-.68,2.38,2.38,0,0,1,1.05-.23,2,2,0,0,1,1.48.52,1.82,1.82,0,0,1,.52,1.34,2.36,2.36,0,0,1-.23,1,4.24,4.24,0,0,1-.62.94,7.3,7.3,0,0,1-.82.85c-.3.26-.58.51-.86.73h2.69v.93Z" transform="translate(-189.45 -434.96)" style="fill: #293b4a"></path><path d="M250.55,641.44a2.21,2.21,0,0,1-1.1-.26,2,2,0,0,1-.69-.66,2.09,2.09,0,0,1-.29-.87h1.05a1,1,0,0,0,.34.63,1.09,1.09,0,0,0,.69.21,1.1,1.1,0,0,0,1-.54,3.24,3.24,0,0,0,.39-1.66,1.65,1.65,0,0,1-.65.6,1.88,1.88,0,0,1-.94.24,1.92,1.92,0,0,1-1-.25,2,2,0,0,1-.73-.7,2,2,0,0,1-.29-1.06,2.1,2.1,0,0,1,.28-1,2,2,0,0,1,.76-.77,2.11,2.11,0,0,1,1.14-.3,2.48,2.48,0,0,1,1.18.26,2,2,0,0,1,.76.7,3.08,3.08,0,0,1,.42,1A5,5,0,0,1,253,638a5.25,5.25,0,0,1-.28,1.81,2.65,2.65,0,0,1-.85,1.19,2.12,2.12,0,0,1-1.32.42Zm0-3.27a1.36,1.36,0,0,0,.6-.14,1.18,1.18,0,0,0,.41-.39,1.1,1.1,0,0,0-.18-1.34,1.21,1.21,0,0,0-.84-.31,1.12,1.12,0,0,0-.82.31,1,1,0,0,0-.33.77,1,1,0,0,0,.33.8A1.18,1.18,0,0,0,250.58,638.17Z" transform="translate(-189.45 -434.96)" style="fill: #293b4a"></path><path d="M287.14,641.33v-.82l1.11-.93c.35-.31.67-.61.95-.91a4.93,4.93,0,0,0,.67-.89,1.61,1.61,0,0,0,.26-.83,1.14,1.14,0,0,0-.21-.68.8.8,0,0,0-.69-.29.9.9,0,0,0-.74.32,1.22,1.22,0,0,0-.24.77h-1.1a2.19,2.19,0,0,1,.3-1.14,1.82,1.82,0,0,1,.75-.68,2.38,2.38,0,0,1,1.05-.23,2,2,0,0,1,1.48.52,1.82,1.82,0,0,1,.53,1.34,2.23,2.23,0,0,1-.24,1,4.19,4.19,0,0,1-.61.94,8.23,8.23,0,0,1-.82.85c-.3.26-.58.51-.86.73h2.68v.93Z" transform="translate(-189.45 -434.96)" style="fill: #293b4a"></path><path d="M291.88,642.36l.5-2.21h1.1l-.86,2.21Z" transform="translate(-189.45 -434.96)" style="fill: #293b4a"></path><path d="M296.52,641.44a2.14,2.14,0,0,1-1.09-.26,1.93,1.93,0,0,1-.7-.66,2.09,2.09,0,0,1-.29-.87h1.05a1,1,0,0,0,.35.63,1.08,1.08,0,0,0,.68.21,1.1,1.1,0,0,0,1-.54,3.24,3.24,0,0,0,.39-1.66,1.69,1.69,0,0,1-.64.6,1.92,1.92,0,0,1-1,.24,2,2,0,0,1-1-.25,2,2,0,0,1-.73-.7,2,2,0,0,1-.28-1.06,2.08,2.08,0,0,1,1-1.81,2.16,2.16,0,0,1,1.14-.3,2.48,2.48,0,0,1,1.18.26,2,2,0,0,1,.77.7,2.85,2.85,0,0,1,.41,1A5,5,0,0,1,299,638a5.25,5.25,0,0,1-.29,1.81,2.63,2.63,0,0,1-.84,1.19,2.15,2.15,0,0,1-1.33.42Zm0-3.27a1.33,1.33,0,0,0,.6-.14,1.18,1.18,0,0,0,.41-.39,1.1,1.1,0,0,0-.18-1.34,1.21,1.21,0,0,0-.84-.31,1.13,1.13,0,0,0-.82.31,1,1,0,0,0-.33.77,1,1,0,0,0,.33.8A1.19,1.19,0,0,0,296.55,638.17Z" transform="translate(-189.45 -434.96)" style="fill: #293b4a"></path><path d="M300.26,641.33l2.34-5.23h-3.06v-1h4.23v.81l-2.33,5.39Z" transform="translate(-189.45 -434.96)" style="fill: #293b4a"></path><path d="M307.12,641.44a2.61,2.61,0,0,1-1.47-.41,2.58,2.58,0,0,1-.95-1.13,4,4,0,0,1-.33-1.67,4,4,0,0,1,.33-1.68,2.64,2.64,0,0,1,.95-1.13,2.84,2.84,0,0,1,2.94,0,2.65,2.65,0,0,1,1,1.13,4,4,0,0,1,.33,1.68,4,4,0,0,1-.33,1.67,2.58,2.58,0,0,1-1,1.13A2.61,2.61,0,0,1,307.12,641.44Zm0-1a1.36,1.36,0,0,0,1.14-.59,2.56,2.56,0,0,0,.44-1.6,2.59,2.59,0,0,0-.44-1.61,1.38,1.38,0,0,0-1.14-.58,1.39,1.39,0,0,0-1.15.58,2.65,2.65,0,0,0-.44,1.61,2.62,2.62,0,0,0,.44,1.6A1.39,1.39,0,0,0,307.12,640.42Z" transform="translate(-189.45 -434.96)" style="fill: #293b4a"></path><path d="M226.64,693.15v-4.91l-1,.24v-.87l1.49-.66h.71v6.2Z" transform="translate(-189.45 -434.96)" style="fill: #293b4a"></path><path d="M228.54,694.18,229,692h1.1l-.86,2.21Z" transform="translate(-189.45 -434.96)" style="fill: #293b4a"></path><path d="M231.74,693.15v-4.91l-1,.24v-.87l1.49-.66h.71v6.2Z" transform="translate(-189.45 -434.96)" style="fill: #293b4a"></path><path d="M236.67,693.25a2.62,2.62,0,0,1-1.48-.4,2.56,2.56,0,0,1-.94-1.13,3.83,3.83,0,0,1-.33-1.67,4,4,0,0,1,.33-1.68,2.72,2.72,0,0,1,3.89-1.13,2.56,2.56,0,0,1,.94,1.13,3.85,3.85,0,0,1,.34,1.68,4,4,0,0,1-.34,1.67,2.56,2.56,0,0,1-.94,1.13A2.61,2.61,0,0,1,236.67,693.25Zm0-1a1.39,1.39,0,0,0,1.14-.59,3.15,3.15,0,0,0,0-3.21,1.42,1.42,0,0,0-2.29,0,3.15,3.15,0,0,0,0,3.21A1.37,1.37,0,0,0,236.67,692.24Z" transform="translate(-189.45 -434.96)" style="fill: #293b4a"></path><path d="M242.53,693.25a2.17,2.17,0,0,1-1.09-.25,1.83,1.83,0,0,1-.69-.66,2,2,0,0,1-.3-.87h1.06a1,1,0,0,0,.34.62,1,1,0,0,0,.69.22,1.1,1.1,0,0,0,1-.54,3.26,3.26,0,0,0,.39-1.67,1.57,1.57,0,0,1-.64.61,2,2,0,0,1-1.91,0,2,2,0,0,1-.74-.7,2,2,0,0,1-.28-1.07,2.06,2.06,0,0,1,.27-1,2.08,2.08,0,0,1,.76-.77,2.16,2.16,0,0,1,1.14-.3,2.48,2.48,0,0,1,1.18.26,2.06,2.06,0,0,1,.77.69,3,3,0,0,1,.41,1,5,5,0,0,1,.13,1.09,5.25,5.25,0,0,1-.29,1.81,2.63,2.63,0,0,1-.84,1.19,2.13,2.13,0,0,1-1.33.41Zm0-3.26a1.33,1.33,0,0,0,.6-.14,1.09,1.09,0,0,0,.57-.94,1,1,0,0,0-.34-.79,1.21,1.21,0,0,0-.84-.31,1.13,1.13,0,0,0-.82.31,1,1,0,0,0-.33.77,1,1,0,0,0,.33.8A1.19,1.19,0,0,0,242.56,690Z" transform="translate(-189.45 -434.96)" style="fill: #293b4a"></path><path d="M287.56,691.67a3.34,3.34,0,0,0,1.4.37c.73,0,1.09-.35,1.09-.8s-.59-.86-1.21-.86h-.57v-1h.55c.47,0,1.07-.19,1.07-.69s-.29-.63-.88-.63a2.73,2.73,0,0,0-1.26.36l-.29-1a3.78,3.78,0,0,1,1.86-.45c1.28,0,2,.67,2,1.5a1.43,1.43,0,0,1-1.1,1.39v0a1.49,1.49,0,0,1,1.3,1.46c0,1.06-.93,1.84-2.46,1.84a3.56,3.56,0,0,1-1.78-.43l.29-1.05Z" transform="translate(-189.45 -434.96)" style="fill: #293b4a"></path><path d="M295.11,693.15V692h-3.05v-.91L295,687h1.29V691h.81v1h-.81v1.15ZM293.27,691h1.92v-2.82Z" transform="translate(-189.45 -434.96)" style="fill: #293b4a"></path><path d="M298.31,693.15l2.34-5.24h-3v-1h4.22v.8l-2.33,5.4Z" transform="translate(-189.45 -434.96)" style="fill: #293b4a"></path><path d="M247.09,646.14v3.58" transform="translate(-189.45 -434.96)" style="fill: none;stroke: #19ad4a;stroke-miterlimit: 10;stroke-width: 0.7362300157546997px"></path><path d="M245,646.63l2.11-2.1,2.1,2.1" transform="translate(-189.45 -434.96)" style="fill: none;stroke: #19ad4a;stroke-miterlimit: 10;stroke-width: 0.7362300157546997px"></path><path d="M302.71,646.06H285.53v3.66h17.18Z" transform="translate(-189.45 -434.96)" style="fill: #667887"></path><path d="M306,646.14v3.58" transform="translate(-189.45 -434.96)" style="fill: none;stroke: #19ad4a;stroke-miterlimit: 10;stroke-width: 0.7362300157546997px"></path><path d="M303.89,646.63l2.1-2.1,2.1,2.1" transform="translate(-189.45 -434.96)" style="fill: none;stroke: #19ad4a;stroke-miterlimit: 10;stroke-width: 0.7362300157546997px"></path><path d="M242.54,697.06H225.36v3.66h17.18Z" transform="translate(-189.45 -434.96)" style="fill: #667887"></path><path d="M247.09,697.13v3.59" transform="translate(-189.45 -434.96)" style="fill: none;stroke: #19ad4a;stroke-miterlimit: 10;stroke-width: 0.7362300157546997px"></path><path d="M245,697.63l2.11-2.1,2.1,2.1" transform="translate(-189.45 -434.96)" style="fill: none;stroke: #19ad4a;stroke-miterlimit: 10;stroke-width: 0.7362300157546997px"></path><path d="M302.71,697.06H285.53v3.66h17.18Z" transform="translate(-189.45 -434.96)" style="fill: #667887"></path><path d="M306,697.13v3.59" transform="translate(-189.45 -434.96)" style="fill: none;stroke: #19ad4a;stroke-miterlimit: 10;stroke-width: 0.7362300157546997px"></path><path d="M303.89,697.63l2.1-2.1,2.1,2.1" transform="translate(-189.45 -434.96)" style="fill: none;stroke: #19ad4a;stroke-miterlimit: 10;stroke-width: 0.7362300157546997px"></path><path d="M596.77,491.08H212.46v20.65H596.77Z" transform="translate(-189.45 -434.96)" style="fill: #fff"></path><path d="M226.74,505v-6.83h4.41v1H228v1.91h2.55v1H228V505Zm7.15.11a1.75,1.75,0,0,1-1.4-.56,2.46,2.46,0,0,1-.49-1.66V500.2h1.24v2.61a1.55,1.55,0,0,0,.25,1,1,1,0,0,0,.8.33,1.07,1.07,0,0,0,.85-.37,1.46,1.46,0,0,0,.34-1v-2.5h1.25V505h-1.1l-.1-.82a1.77,1.77,0,0,1-.65.68A1.87,1.87,0,0,1,233.89,505.15ZM238,505V500.2h1.1l.1.82a1.7,1.7,0,0,1,.65-.68,1.91,1.91,0,0,1,1-.26,1.74,1.74,0,0,1,1.39.57,2.41,2.41,0,0,1,.5,1.66V505H241.5v-2.62a1.54,1.54,0,0,0-.25-.95.93.93,0,0,0-.79-.33,1.13,1.13,0,0,0-.87.37,1.48,1.48,0,0,0-.33,1V505Zm5.94,0V500.2h1.1l.09.82a1.7,1.7,0,0,1,.65-.68,1.91,1.91,0,0,1,1-.26,1.76,1.76,0,0,1,1.4.57,2.46,2.46,0,0,1,.49,1.66V505h-1.24v-2.62a1.53,1.53,0,0,0-.26-.95.93.93,0,0,0-.79-.33,1.09,1.09,0,0,0-.86.37,1.44,1.44,0,0,0-.34,1V505Zm8.28.11a2.63,2.63,0,0,1-1.3-.31A2.32,2.32,0,0,1,250,504a2.67,2.67,0,0,1-.32-1.31,2.91,2.91,0,0,1,.31-1.34,2.31,2.31,0,0,1,.88-.9,2.71,2.71,0,0,1,2.59,0,2.15,2.15,0,0,1,.84.85,2.34,2.34,0,0,1,.32,1.2c0,.08,0,.15,0,.23s0,.16,0,.24H251a1.32,1.32,0,0,0,.39.89,1.28,1.28,0,0,0,.87.32,1.14,1.14,0,0,0,.63-.16,1,1,0,0,0,.39-.45h1.27a2.32,2.32,0,0,1-.46.84,2.28,2.28,0,0,1-.78.58A2.44,2.44,0,0,1,252.23,505.15Zm0-4a1.33,1.33,0,0,0-.81.26,1.14,1.14,0,0,0-.45.78h2.41a1.07,1.07,0,0,0-.35-.76A1.17,1.17,0,0,0,252.24,501.1Zm3.47,3.94v-7H257v7Zm4.87,0v-6.83h2.51a2.93,2.93,0,0,1,1.34.28,1.84,1.84,0,0,1,.8.76,2,2,0,0,1,.27,1,2.08,2.08,0,0,1-.33,1.14,1.91,1.91,0,0,1-1,.75l1.42,2.86h-1.44l-1.27-2.69h-1V505Zm1.25-3.61H263a1.24,1.24,0,0,0,.92-.3,1.12,1.12,0,0,0,.29-.8,1.06,1.06,0,0,0-.29-.78,1.24,1.24,0,0,0-.93-.29h-1.17Zm6.85,3.72a2.59,2.59,0,0,1-1.29-.31,2.26,2.26,0,0,1-.89-.87,2.57,2.57,0,0,1-.32-1.31,2.79,2.79,0,0,1,.31-1.34,2.24,2.24,0,0,1,.88-.9,2.69,2.69,0,0,1,2.58,0,2.11,2.11,0,0,1,.85.85,2.33,2.33,0,0,1,.31,1.2,1.77,1.77,0,0,1,0,.23,1.93,1.93,0,0,1,0,.24h-3.67a1.23,1.23,0,0,0,.39.89,1.27,1.27,0,0,0,.86.32,1.15,1.15,0,0,0,.64-.16,1.2,1.2,0,0,0,.39-.45H271a2.66,2.66,0,0,1-.46.84,2.28,2.28,0,0,1-.78.58A2.52,2.52,0,0,1,268.68,505.15Zm0-4a1.37,1.37,0,0,0-.81.26,1.17,1.17,0,0,0-.44.78h2.4a1,1,0,0,0-.35-.76A1.15,1.15,0,0,0,268.69,501.1Zm3.47,6.08v-7h1.11l.14.69a2.36,2.36,0,0,1,.61-.56,1.91,1.91,0,0,1,1-.25,2.22,2.22,0,0,1,1.22.34,2.45,2.45,0,0,1,.85.9,2.92,2.92,0,0,1,0,2.62,2.5,2.5,0,0,1-.85.89,2.29,2.29,0,0,1-1.22.32,2.09,2.09,0,0,1-1-.2,1.76,1.76,0,0,1-.66-.58v2.81Zm2.61-3.12a1.3,1.3,0,0,0,1-.4,1.4,1.4,0,0,0,.39-1,1.44,1.44,0,0,0-.39-1,1.28,1.28,0,0,0-1-.41,1.29,1.29,0,0,0-1,.41,1.44,1.44,0,0,0-.38,1,1.48,1.48,0,0,0,.38,1A1.32,1.32,0,0,0,274.77,504.06Zm6.07,1.09a2.43,2.43,0,0,1-2.15-1.2,2.65,2.65,0,0,1-.32-1.33,2.59,2.59,0,0,1,.33-1.32,2.38,2.38,0,0,1,.89-.89,2.44,2.44,0,0,1,1.26-.33,2.41,2.41,0,0,1,1.25.33,2.31,2.31,0,0,1,.89.89,2.59,2.59,0,0,1,.33,1.32A2.65,2.65,0,0,1,283,504a2.35,2.35,0,0,1-.89.88A2.44,2.44,0,0,1,280.84,505.15Zm0-1.08a1.16,1.16,0,0,0,.85-.36,1.51,1.51,0,0,0,.36-1.09,1.47,1.47,0,0,0-.36-1.08,1.15,1.15,0,0,0-1.69,0,1.47,1.47,0,0,0-.36,1.08,1.51,1.51,0,0,0,.36,1.09A1.15,1.15,0,0,0,280.84,504.07Zm3.6,1V500.2h1.11l.12.91a1.94,1.94,0,0,1,.71-.74,2,2,0,0,1,1.07-.29v1.32h-.35a1.86,1.86,0,0,0-.73.13,1,1,0,0,0-.51.44,1.69,1.69,0,0,0-.18.86V505Zm6,0a1.91,1.91,0,0,1-1.22-.37,1.61,1.61,0,0,1-.46-1.32v-2.11H288v-1h.83l.15-1.3H290v1.3h1.3v1H290v2.12a.7.7,0,0,0,.14.49.9.9,0,0,0,.53.12h.61V505Z" transform="translate(-189.45 -434.96)" style="fill: #293b4a"></path><path d="M593.83,550.71A57.88,57.88,0,1,0,536,492.84,57.87,57.87,0,0,0,593.83,550.71Z" transform="translate(-189.45 -434.96)" style="fill: #f1f3f5"></path><path d="M595.37,514.41a21.3,21.3,0,1,0-21.3-21.3A21.3,21.3,0,0,0,595.37,514.41Z" transform="translate(-189.45 -434.96)" style="fill: #5273fd"></path><path d="M582.06,510.57a20.71,20.71,0,1,1,17.38-9.49l-1.45-.93a18.94,18.94,0,1,0-8.78,7.35A17.11,17.11,0,0,0,592.1,506l.93,1.45a20.78,20.78,0,0,1-11,3.17v-.08Z" transform="translate(-189.45 -434.96)" style="fill: #293b4a"></path><path d="M596,502.63l-1.22,1.21,18.92,18.92,1.21-1.22Z" transform="translate(-189.45 -434.96)" style="fill: #293b4a"></path><path d="M384.06,721.24a1.94,1.94,0,0,1-1-.27,1.78,1.78,0,0,1-.67-.74,2.45,2.45,0,0,1-.24-1.11,2.38,2.38,0,0,1,.24-1.1,1.81,1.81,0,0,1,.67-.75,1.94,1.94,0,0,1,1-.27,1.78,1.78,0,0,1,1.14.34,1.46,1.46,0,0,1,.57.94h-.54a1.07,1.07,0,0,0-.39-.61,1.17,1.17,0,0,0-.78-.24,1.35,1.35,0,0,0-.76.21,1.26,1.26,0,0,0-.51.58,2.34,2.34,0,0,0,0,1.8,1.32,1.32,0,0,0,.51.58,1.35,1.35,0,0,0,.76.2,1.23,1.23,0,0,0,.78-.22,1.07,1.07,0,0,0,.39-.6h.54a1.46,1.46,0,0,1-.57.92A1.84,1.84,0,0,1,384.06,721.24Zm3.71,0a1.54,1.54,0,0,1-.74-.19,1.47,1.47,0,0,1-.52-.53,1.73,1.73,0,0,1-.18-.81,1.6,1.6,0,0,1,.19-.8,1.39,1.39,0,0,1,.52-.53,1.54,1.54,0,0,1,.74-.19,1.51,1.51,0,0,1,.74.19,1.3,1.3,0,0,1,.51.53,1.72,1.72,0,0,1,0,1.61,1.33,1.33,0,0,1-.52.53A1.54,1.54,0,0,1,387.77,721.24Zm0-.43a1,1,0,0,0,.47-.12.9.9,0,0,0,.35-.37,1.23,1.23,0,0,0,.13-.61,1.21,1.21,0,0,0-.13-.6.84.84,0,0,0-.35-.37.91.91,0,0,0-.46-.13,1,1,0,0,0-.47.13.9.9,0,0,0-.35.37,1.21,1.21,0,0,0-.13.6,1.23,1.23,0,0,0,.13.61.9.9,0,0,0,.35.37A.93.93,0,0,0,387.77,720.81Zm3.2.43a1.12,1.12,0,0,1-.82-.31,1.37,1.37,0,0,1-.3-1v-1.7h.49v1.65c0,.6.25.9.74.9a.86.86,0,0,0,.63-.26,1.18,1.18,0,0,0,.25-.78v-1.51h.49v2.91H392l0-.52a1,1,0,0,1-.4.43A1.22,1.22,0,0,1,391,721.24Zm2.29-.07v-2.91h.44l0,.56a1.13,1.13,0,0,1,.41-.46,1.32,1.32,0,0,1,.68-.17v.52h-.13a1.28,1.28,0,0,0-.48.09.72.72,0,0,0-.34.31,1.1,1.1,0,0,0-.13.59v1.47Zm3.24.07a1.37,1.37,0,0,1-.87-.27,1,1,0,0,1-.4-.71h.5a.73.73,0,0,0,.24.4.8.8,0,0,0,.53.16.67.67,0,0,0,.46-.13.39.39,0,0,0,.14-.31.35.35,0,0,0-.19-.36,2.51,2.51,0,0,0-.53-.15,2.79,2.79,0,0,1-.47-.14,1.17,1.17,0,0,1-.39-.24.59.59,0,0,1-.16-.43.77.77,0,0,1,.28-.62,1.32,1.32,0,0,1,1.53,0,.89.89,0,0,1,.34.65H397a.5.5,0,0,0-.19-.34.65.65,0,0,0-.43-.13.69.69,0,0,0-.41.11.36.36,0,0,0-.14.29.31.31,0,0,0,.18.28,2.39,2.39,0,0,0,.5.17l.51.14a.87.87,0,0,1,.4.26.61.61,0,0,1,.16.47.81.81,0,0,1-.3.65A1.21,1.21,0,0,1,396.5,721.24Zm3.11,0a1.47,1.47,0,0,1-.73-.19,1.37,1.37,0,0,1-.51-.53,1.73,1.73,0,0,1-.18-.81,1.67,1.67,0,0,1,.18-.79,1.28,1.28,0,0,1,.5-.53,1.46,1.46,0,0,1,.76-.2,1.29,1.29,0,0,1,.72.2,1.25,1.25,0,0,1,.48.49,1.41,1.41,0,0,1,.16.67.57.57,0,0,1,0,.13v.15h-2.31a1.27,1.27,0,0,0,.15.55.92.92,0,0,0,.35.33,1,1,0,0,0,.44.11.88.88,0,0,0,.51-.14.76.76,0,0,0,.3-.38h.49a1.34,1.34,0,0,1-.45.67A1.29,1.29,0,0,1,399.61,721.24Zm0-2.63a.94.94,0,0,0-.62.22.85.85,0,0,0-.31.62h1.82a.82.82,0,0,0-.27-.62A.87.87,0,0,0,399.61,718.61Zm5.41,2.63a2,2,0,0,1-1-.27,1.78,1.78,0,0,1-.67-.74,2.45,2.45,0,0,1-.24-1.11,2.38,2.38,0,0,1,.24-1.1,1.81,1.81,0,0,1,.67-.75,2,2,0,0,1,1-.27,1.82,1.82,0,0,1,1.14.34,1.49,1.49,0,0,1,.56.94h-.54a1,1,0,0,0-.39-.61,1.16,1.16,0,0,0-.77-.24,1.39,1.39,0,0,0-.77.21,1.26,1.26,0,0,0-.51.58,2.34,2.34,0,0,0,0,1.8,1.32,1.32,0,0,0,.51.58,1.38,1.38,0,0,0,.77.2,1.21,1.21,0,0,0,.77-.22,1,1,0,0,0,.39-.6h.54a1.49,1.49,0,0,1-.56.92A1.88,1.88,0,0,1,405,721.24Zm3.35,0a1.35,1.35,0,0,1-.61-.13.78.78,0,0,1-.35-.32.89.89,0,0,1-.12-.45.77.77,0,0,1,.34-.68,1.55,1.55,0,0,1,.92-.24h.79v0a.77.77,0,0,0-.2-.57.72.72,0,0,0-.53-.2.82.82,0,0,0-.5.15.62.62,0,0,0-.26.41h-.5a.93.93,0,0,1,.21-.53,1.09,1.09,0,0,1,.46-.33,1.45,1.45,0,0,1,.59-.12,1.11,1.11,0,0,1,1.22,1.19v1.79h-.44l0-.52a1.19,1.19,0,0,1-.36.42A1.09,1.09,0,0,1,408.37,721.24Zm.07-.42a.76.76,0,0,0,.48-.15.83.83,0,0,0,.31-.38,1.17,1.17,0,0,0,.11-.49h-.75a1,1,0,0,0-.61.15.46.46,0,0,0-.18.37.48.48,0,0,0,.17.37A.73.73,0,0,0,408.44,720.82Zm2.13.35v-2.91H411l0,.56a1.13,1.13,0,0,1,.41-.46,1.29,1.29,0,0,1,.68-.17v.52H412a1.24,1.24,0,0,0-.48.09.68.68,0,0,0-.34.31,1.1,1.1,0,0,0-.13.59v1.47Zm3.33.07a1.46,1.46,0,0,1-.76-.2,1.39,1.39,0,0,1-.5-.55,1.78,1.78,0,0,1,0-1.56,1.37,1.37,0,0,1,.5-.54,1.47,1.47,0,0,1,.77-.2,1.33,1.33,0,0,1,.63.15,1,1,0,0,1,.42.41V717h.5v4.22H415l-.05-.48a1.33,1.33,0,0,1-.4.38A1.24,1.24,0,0,1,413.9,721.24Zm.05-.43a1,1,0,0,0,.52-.14.92.92,0,0,0,.35-.38,1.34,1.34,0,0,0,0-1.15.92.92,0,0,0-.35-.38,1,1,0,0,0-.52-.14,1,1,0,0,0-.51.14.92.92,0,0,0-.35.38,1.2,1.2,0,0,0-.13.57,1.21,1.21,0,0,0,.13.58.92.92,0,0,0,.35.38A1,1,0,0,0,414,720.81Zm3.42.43a1.37,1.37,0,0,1-.87-.27,1,1,0,0,1-.4-.71h.5a.73.73,0,0,0,.24.4.8.8,0,0,0,.53.16.67.67,0,0,0,.46-.13.4.4,0,0,0,.15-.31.36.36,0,0,0-.2-.36,2.51,2.51,0,0,0-.53-.15,3.1,3.1,0,0,1-.47-.14,1.28,1.28,0,0,1-.39-.24.63.63,0,0,1-.16-.43.8.8,0,0,1,.28-.62,1.2,1.2,0,0,1,.78-.25,1.14,1.14,0,0,1,.75.24.9.9,0,0,1,.35.65h-.49a.47.47,0,0,0-.19-.34.65.65,0,0,0-.43-.13.71.71,0,0,0-.41.11.36.36,0,0,0-.14.29.31.31,0,0,0,.18.28,2.51,2.51,0,0,0,.51.17l.5.14a.87.87,0,0,1,.4.26.61.61,0,0,1,.16.47.81.81,0,0,1-.3.65A1.21,1.21,0,0,1,417.37,721.24Zm4.69,0a1.73,1.73,0,0,1-.78-.17,1.25,1.25,0,0,1-.51-.45,1.22,1.22,0,0,1-.19-.68h.52a.93.93,0,0,0,.11.44.82.82,0,0,0,.32.32,1.09,1.09,0,0,0,.53.12,1,1,0,0,0,.65-.2.64.64,0,0,0,.23-.5.67.67,0,0,0-.11-.39.7.7,0,0,0-.29-.24,1.74,1.74,0,0,0-.41-.17c-.15,0-.31-.1-.47-.16a1.7,1.7,0,0,1-.71-.4.91.91,0,0,1-.23-.64,1,1,0,0,1,.16-.58,1,1,0,0,1,.44-.39A1.52,1.52,0,0,1,422,717a1.45,1.45,0,0,1,.68.15,1,1,0,0,1,.45.4,1.07,1.07,0,0,1,.17.59h-.51a.69.69,0,0,0-.09-.34.7.7,0,0,0-.27-.27.88.88,0,0,0-.45-.11.84.84,0,0,0-.55.17.61.61,0,0,0-.21.49.52.52,0,0,0,.15.4,1.18,1.18,0,0,0,.42.23l.62.21a3.25,3.25,0,0,1,.53.24,1.05,1.05,0,0,1,.5.94,1.1,1.1,0,0,1-.16.55,1.11,1.11,0,0,1-.46.42A1.6,1.6,0,0,1,422.06,721.24Zm3.36,0a1.51,1.51,0,0,1-.74-.19,1.52,1.52,0,0,1-.51-.53,1.73,1.73,0,0,1-.18-.81,1.67,1.67,0,0,1,.18-.79,1.28,1.28,0,0,1,.5-.53,1.46,1.46,0,0,1,.76-.2,1.35,1.35,0,0,1,.73.2,1.3,1.3,0,0,1,.47.49,1.41,1.41,0,0,1,.16.67v.28h-2.31a1.15,1.15,0,0,0,.15.55.89.89,0,0,0,.34.33,1,1,0,0,0,.45.11.93.93,0,0,0,.51-.14.88.88,0,0,0,.3-.38h.48a1.34,1.34,0,0,1-.45.67A1.28,1.28,0,0,1,425.42,721.24Zm0-2.63a1,1,0,0,0-.63.22.85.85,0,0,0-.31.62h1.83a.82.82,0,0,0-.27-.62A.91.91,0,0,0,425.42,718.61Zm2,2.56v-2.91h.45l0,.56a1.13,1.13,0,0,1,.41-.46,1.29,1.29,0,0,1,.68-.17v.52h-.14a1.19,1.19,0,0,0-.47.09.74.74,0,0,0-.35.31,1.21,1.21,0,0,0-.12.59v1.47Zm3,0-1.1-2.91h.51l.87,2.43.88-2.43h.5l-1.1,2.91Zm3.37.07a1.48,1.48,0,0,1-.74-.19,1.52,1.52,0,0,1-.51-.53,1.73,1.73,0,0,1-.18-.81,1.67,1.67,0,0,1,.18-.79,1.28,1.28,0,0,1,.5-.53,1.46,1.46,0,0,1,.76-.2,1.29,1.29,0,0,1,.72.2,1.25,1.25,0,0,1,.48.49,1.41,1.41,0,0,1,.16.67v.28h-2.31a1.15,1.15,0,0,0,.15.55.89.89,0,0,0,.34.33,1,1,0,0,0,.45.11.93.93,0,0,0,.51-.14.79.79,0,0,0,.29-.38h.49a1.34,1.34,0,0,1-.45.67A1.28,1.28,0,0,1,433.78,721.24Zm0-2.63a1,1,0,0,0-.63.22.85.85,0,0,0-.31.62h1.83a.89.89,0,0,0-.27-.62A.91.91,0,0,0,433.78,718.61Zm3.34,2.63a1.46,1.46,0,0,1-.76-.2,1.39,1.39,0,0,1-.5-.55,1.78,1.78,0,0,1,0-1.56,1.33,1.33,0,0,1,.51-.54,1.41,1.41,0,0,1,.76-.2,1.33,1.33,0,0,1,.63.15,1,1,0,0,1,.42.41V717h.5v4.22h-.45l-.05-.48a1.33,1.33,0,0,1-.4.38A1.2,1.2,0,0,1,437.12,721.24Zm.05-.43a1,1,0,0,0,.52-.14.92.92,0,0,0,.35-.38,1.34,1.34,0,0,0,0-1.15.92.92,0,0,0-.35-.38,1,1,0,0,0-.52-.14,1,1,0,0,0-.51.14.92.92,0,0,0-.35.38,1.2,1.2,0,0,0-.13.57,1.21,1.21,0,0,0,.13.58.92.92,0,0,0,.35.38A1,1,0,0,0,437.17,720.81Z" transform="translate(-189.45 -434.96)" style="fill: #293b4a"></path><path d="M378.33,716.1h-5.55v5.56h5.55Z" transform="translate(-189.45 -434.96)" style="fill: #ff340c"></path><path d="M483.81,721.24a1.77,1.77,0,0,1-.77-.17,1.28,1.28,0,0,1-.54-.52,1.7,1.7,0,0,1-.2-.89v-2.59h.49v2.59a1.15,1.15,0,0,0,.28.87,1.18,1.18,0,0,0,1.5,0,1.19,1.19,0,0,0,.28-.87v-2.59h.49v2.59a1.7,1.7,0,0,1-.21.89,1.2,1.2,0,0,1-.55.52A1.74,1.74,0,0,1,483.81,721.24Zm2.33-.07v-2.91h.45l0,.52a1.13,1.13,0,0,1,.41-.43,1.17,1.17,0,0,1,.6-.16,1.07,1.07,0,0,1,.81.32,1.31,1.31,0,0,1,.31,1v1.7h-.49v-1.65c0-.6-.25-.91-.75-.91a.82.82,0,0,0-.62.28,1.08,1.08,0,0,0-.25.77v1.51Zm3.65-3.55a.31.31,0,0,1-.34-.34.32.32,0,0,1,.09-.23.33.33,0,0,1,.25-.1.34.34,0,0,1,.34.33.37.37,0,0,1-.1.25A.36.36,0,0,1,489.79,717.62Zm-.25,3.55v-2.91H490v2.91Zm3.73,1.28v-1.76a1.47,1.47,0,0,1-.4.38,1.24,1.24,0,0,1-.66.17,1.5,1.5,0,0,1-.77-.2,1.47,1.47,0,0,1-.5-.55,1.83,1.83,0,0,1,0-1.56,1.37,1.37,0,0,1,.5-.54,1.46,1.46,0,0,1,.76-.2,1.28,1.28,0,0,1,.63.15,1,1,0,0,1,.43.41l.05-.49h.44v4.19Zm-1-1.64a1,1,0,0,0,.51-.14.86.86,0,0,0,.35-.38,1.21,1.21,0,0,0,.13-.58,1.2,1.2,0,0,0-.13-.57.86.86,0,0,0-.35-.38,1,1,0,0,0-.51-.14,1,1,0,0,0-.52.14,1,1,0,0,0-.35.38,1.32,1.32,0,0,0-.12.57,1.34,1.34,0,0,0,.12.58,1,1,0,0,0,.35.38A1,1,0,0,0,492.26,720.81Zm3.36.43a1.14,1.14,0,0,1-.82-.31,1.37,1.37,0,0,1-.3-1v-1.7H495v1.65c0,.6.25.9.74.9a.83.83,0,0,0,.63-.26,1.13,1.13,0,0,0,.25-.78v-1.51h.49v2.91h-.44l0-.52a1,1,0,0,1-.4.43A1.22,1.22,0,0,1,495.62,721.24Zm3.6,0a1.48,1.48,0,0,1-.74-.19,1.37,1.37,0,0,1-.51-.53,1.73,1.73,0,0,1-.18-.81,1.67,1.67,0,0,1,.18-.79,1.28,1.28,0,0,1,.5-.53,1.46,1.46,0,0,1,.76-.2,1.29,1.29,0,0,1,.72.2,1.25,1.25,0,0,1,.48.49,1.41,1.41,0,0,1,.16.67.57.57,0,0,1,0,.13v.15h-2.31a1.27,1.27,0,0,0,.16.55.83.83,0,0,0,.34.33,1,1,0,0,0,.45.11.87.87,0,0,0,.5-.14.76.76,0,0,0,.3-.38h.49a1.34,1.34,0,0,1-.45.67A1.28,1.28,0,0,1,499.22,721.24Zm0-2.63a1,1,0,0,0-.63.22.85.85,0,0,0-.31.62h1.83a.89.89,0,0,0-.27-.62A.91.91,0,0,0,499.22,718.61Zm4.9,2.63a1.73,1.73,0,0,1-.78-.17,1.25,1.25,0,0,1-.51-.45,1.22,1.22,0,0,1-.19-.68h.52a.93.93,0,0,0,.11.44.82.82,0,0,0,.32.32,1.09,1.09,0,0,0,.53.12,1,1,0,0,0,.65-.2.64.64,0,0,0,.23-.5.67.67,0,0,0-.11-.39.7.7,0,0,0-.29-.24,1.74,1.74,0,0,0-.41-.17c-.15,0-.31-.1-.47-.16a1.7,1.7,0,0,1-.71-.4.91.91,0,0,1-.23-.64,1,1,0,0,1,.16-.58,1,1,0,0,1,.44-.39,1.52,1.52,0,0,1,.69-.15,1.45,1.45,0,0,1,.68.15,1,1,0,0,1,.45.4,1.07,1.07,0,0,1,.17.59h-.51a.69.69,0,0,0-.09-.34.7.7,0,0,0-.27-.27.88.88,0,0,0-.45-.11.84.84,0,0,0-.55.17.61.61,0,0,0-.21.49.52.52,0,0,0,.15.4,1.18,1.18,0,0,0,.42.23l.62.21a3.25,3.25,0,0,1,.53.24,1.16,1.16,0,0,1,.36.37,1.07,1.07,0,0,1,.14.57,1.1,1.1,0,0,1-.16.55,1.11,1.11,0,0,1-.46.42A1.6,1.6,0,0,1,504.12,721.24Zm3.2-.07a1,1,0,0,1-.63-.2.88.88,0,0,1-.22-.69v-1.6H506v-.42h.51l.06-.69H507v.69h.85v.42H507v1.6a.47.47,0,0,0,.11.37.62.62,0,0,0,.39.09h.3v.43Zm2.17.07a1.1,1.1,0,0,1-.81-.31,1.33,1.33,0,0,1-.31-1v-1.7h.49v1.65q0,.9.75.9a.82.82,0,0,0,.62-.26,1.13,1.13,0,0,0,.25-.78v-1.51H511v2.91h-.44l0-.52a1.06,1.06,0,0,1-.41.43A1.17,1.17,0,0,1,509.49,721.24Zm3.61,0a1.35,1.35,0,0,1-1.26-.75,1.78,1.78,0,0,1,0-1.56,1.33,1.33,0,0,1,.51-.54,1.41,1.41,0,0,1,.76-.2,1.33,1.33,0,0,1,.63.15,1.13,1.13,0,0,1,.43.41V717h.49v4.22h-.45l0-.48a1.52,1.52,0,0,1-.41.38A1.2,1.2,0,0,1,513.1,721.24Zm0-.43a1,1,0,0,0,.52-.14.92.92,0,0,0,.35-.38,1.34,1.34,0,0,0,0-1.15.92.92,0,0,0-.35-.38,1,1,0,0,0-.52-.14,1,1,0,0,0-.51.14.92.92,0,0,0-.35.38,1.34,1.34,0,0,0,0,1.15.92.92,0,0,0,.35.38A1,1,0,0,0,513.15,720.81Zm3.61.43a1.47,1.47,0,0,1-.73-.19,1.37,1.37,0,0,1-.51-.53,1.73,1.73,0,0,1-.19-.81,1.68,1.68,0,0,1,.19-.79,1.28,1.28,0,0,1,.5-.53,1.45,1.45,0,0,1,.75-.2,1.3,1.3,0,0,1,.73.2,1.23,1.23,0,0,1,.47.49,1.42,1.42,0,0,1,.17.67.57.57,0,0,1,0,.13v.15h-2.31a1.15,1.15,0,0,0,.15.55.92.92,0,0,0,.35.33,1,1,0,0,0,.44.11.88.88,0,0,0,.51-.14.76.76,0,0,0,.3-.38h.49a1.34,1.34,0,0,1-.45.67A1.29,1.29,0,0,1,516.76,721.24Zm0-2.63a.94.94,0,0,0-.62.22.81.81,0,0,0-.31.62h1.82a.82.82,0,0,0-.27-.62A.87.87,0,0,0,516.76,718.61Zm2,2.56v-2.91h.44l0,.52a1.13,1.13,0,0,1,.41-.43,1.16,1.16,0,0,1,.59-.16,1.08,1.08,0,0,1,.82.32,1.31,1.31,0,0,1,.31,1v1.7h-.49v-1.65c0-.6-.25-.91-.75-.91a.8.8,0,0,0-.62.28,1.08,1.08,0,0,0-.25.77v1.51Zm4.49,0a.92.92,0,0,1-.62-.2.88.88,0,0,1-.23-.69v-1.6h-.5v-.42h.5l.06-.69h.43v.69h.86v.42h-.86v1.6a.51.51,0,0,0,.11.37.66.66,0,0,0,.39.09h.31v.43Zm2.23.07a1.34,1.34,0,0,1-.86-.27,1,1,0,0,1-.41-.71h.51a.78.78,0,0,0,.23.4.83.83,0,0,0,.54.16.64.64,0,0,0,.45-.13.4.4,0,0,0,.15-.31.35.35,0,0,0-.19-.36,2.84,2.84,0,0,0-.54-.15,2.69,2.69,0,0,1-.46-.14,1.22,1.22,0,0,1-.4-.24.63.63,0,0,1-.15-.43.77.77,0,0,1,.28-.62,1.17,1.17,0,0,1,.77-.25,1.13,1.13,0,0,1,.75.24.9.9,0,0,1,.35.65H526a.47.47,0,0,0-.19-.34.63.63,0,0,0-.43-.13.71.71,0,0,0-.41.11.36.36,0,0,0-.14.29.31.31,0,0,0,.19.28,2.39,2.39,0,0,0,.5.17l.51.14a1,1,0,0,1,.4.26.65.65,0,0,1,.15.47.75.75,0,0,1-.3.65A1.19,1.19,0,0,1,525.51,721.24Z" transform="translate(-189.45 -434.96)" style="fill: #293b4a"></path><path d="M479.05,716.1H473.5v5.56h5.55Z" transform="translate(-189.45 -434.96)" style="fill: #5273fd"></path><path d="M342.53,686a2,2,0,0,1-.27,1,1.85,1.85,0,0,1-.74.67,2.45,2.45,0,0,1-1.11.24,2.38,2.38,0,0,1-1.1-.24,1.88,1.88,0,0,1-.75-.67,2,2,0,0,1-.27-1,1.82,1.82,0,0,1,.34-1.14,1.49,1.49,0,0,1,.94-.56v.54a1,1,0,0,0-.61.39,1.16,1.16,0,0,0-.24.77,1.39,1.39,0,0,0,.21.77,1.26,1.26,0,0,0,.58.51,2.34,2.34,0,0,0,1.8,0,1.32,1.32,0,0,0,.58-.51,1.38,1.38,0,0,0,.2-.77,1.21,1.21,0,0,0-.22-.77,1,1,0,0,0-.6-.39v-.54a1.49,1.49,0,0,1,.92.56A1.88,1.88,0,0,1,342.53,686Zm0-3.7a1.5,1.5,0,0,1-.19.73,1.33,1.33,0,0,1-.53.52,1.8,1.8,0,0,1-1.61,0,1.39,1.39,0,0,1-.53-.52,1.55,1.55,0,0,1-.19-.75,1.5,1.5,0,0,1,.19-.73,1.39,1.39,0,0,1,.53-.52,1.8,1.8,0,0,1,1.61,0,1.42,1.42,0,0,1,.53.53A1.51,1.51,0,0,1,342.53,682.27Zm-.43,0a.94.94,0,0,0-.12-.47.84.84,0,0,0-.37-.35,1.22,1.22,0,0,0-.61-.14,1.21,1.21,0,0,0-.6.14.82.82,0,0,0-.37.34,1,1,0,0,0-.13.46,1,1,0,0,0,.13.47.84.84,0,0,0,.37.35,1.21,1.21,0,0,0,.6.14,1.22,1.22,0,0,0,.61-.14.88.88,0,0,0,.37-.34A1,1,0,0,0,342.1,682.27Zm.43-3.2a1.14,1.14,0,0,1-.31.82,1.37,1.37,0,0,1-1,.3h-1.7v-.49h1.65c.6,0,.9-.25.9-.74a.83.83,0,0,0-.26-.63,1.13,1.13,0,0,0-.78-.25h-1.51v-.49h2.91V678l-.53,0a1,1,0,0,1,.44.4A1.19,1.19,0,0,1,342.53,679.07Zm-.07-2.29h-2.91v-.45l.56,0a1.07,1.07,0,0,1-.46-.41,1.29,1.29,0,0,1-.17-.68H340v.14a1.19,1.19,0,0,0,.09.47.7.7,0,0,0,.31.35,1.2,1.2,0,0,0,.59.13h1.47Zm.07-3.24a1.37,1.37,0,0,1-.27.87,1,1,0,0,1-.71.4v-.5a.73.73,0,0,0,.4-.24.83.83,0,0,0,.16-.54.65.65,0,0,0-.13-.45.4.4,0,0,0-.31-.15.36.36,0,0,0-.36.2,2.51,2.51,0,0,0-.15.53,3.1,3.1,0,0,1-.14.47,1.28,1.28,0,0,1-.24.39.63.63,0,0,1-.43.16.78.78,0,0,1-.62-.29,1.15,1.15,0,0,1-.25-.77,1.13,1.13,0,0,1,.24-.75.9.9,0,0,1,.65-.35V673a.47.47,0,0,0-.34.19.65.65,0,0,0-.13.43.71.71,0,0,0,.11.41.36.36,0,0,0,.29.14.31.31,0,0,0,.28-.18,2.75,2.75,0,0,0,.17-.51,3.8,3.8,0,0,1,.14-.51,1,1,0,0,1,.25-.39.65.65,0,0,1,.48-.16.78.78,0,0,1,.65.3A1.21,1.21,0,0,1,342.53,673.54Zm0-3.12a1.51,1.51,0,0,1-.19.74,1.52,1.52,0,0,1-.53.51,1.73,1.73,0,0,1-.81.18,1.67,1.67,0,0,1-.79-.18,1.28,1.28,0,0,1-.53-.5,1.46,1.46,0,0,1-.2-.76,1.35,1.35,0,0,1,.2-.73,1.3,1.3,0,0,1,.49-.47,1.41,1.41,0,0,1,.67-.16h.28v2.31a1.15,1.15,0,0,0,.55-.15.89.89,0,0,0,.33-.34,1,1,0,0,0,.11-.45.93.93,0,0,0-.14-.51.88.88,0,0,0-.38-.3v-.48a1.34,1.34,0,0,1,.67.45A1.28,1.28,0,0,1,342.53,670.42Zm-2.63,0a1,1,0,0,0,.22.63.85.85,0,0,0,.62.31v-1.83a.82.82,0,0,0-.62.27A.91.91,0,0,0,339.9,670.42Zm2.63-5.4a1.94,1.94,0,0,1-.27,1,1.8,1.8,0,0,1-.74.68,2.45,2.45,0,0,1-1.11.24,2.38,2.38,0,0,1-1.1-.24,1.83,1.83,0,0,1-.75-.68,1.94,1.94,0,0,1-.27-1,1.78,1.78,0,0,1,.34-1.14,1.5,1.5,0,0,1,.94-.57v.55a1.05,1.05,0,0,0-.61.38,1.17,1.17,0,0,0-.24.78,1.41,1.41,0,0,0,.21.77,1.26,1.26,0,0,0,.58.51,2.47,2.47,0,0,0,1.8,0,1.32,1.32,0,0,0,.58-.51,1.41,1.41,0,0,0,.2-.77,1.23,1.23,0,0,0-.22-.78,1.06,1.06,0,0,0-.6-.38v-.55a1.51,1.51,0,0,1,.92.57A1.84,1.84,0,0,1,342.53,665Zm0-3.35a1.33,1.33,0,0,1-.13.6.87.87,0,0,1-.32.36.89.89,0,0,1-.45.12.79.79,0,0,1-.68-.34,1.6,1.6,0,0,1-.24-.93v-.78h0a.77.77,0,0,0-.57.2.72.72,0,0,0-.2.53.84.84,0,0,0,.15.5.65.65,0,0,0,.41.26v.5a.93.93,0,0,1-.53-.21,1.15,1.15,0,0,1-.33-.46,1.48,1.48,0,0,1-.12-.59,1.11,1.11,0,0,1,1.19-1.22h1.79v.44l-.53,0a1.14,1.14,0,0,1,.43.36A1.09,1.09,0,0,1,342.53,661.67Zm-.42-.08a.75.75,0,0,0-.15-.47.83.83,0,0,0-.38-.31,1,1,0,0,0-.49-.11h0v.74a1,1,0,0,0,.15.62.48.48,0,0,0,.37.17.47.47,0,0,0,.37-.16A.74.74,0,0,0,342.11,661.59Zm.35-2.12h-2.91V659l.56,0a1.13,1.13,0,0,1-.46-.41,1.32,1.32,0,0,1-.17-.68H340V658a1.28,1.28,0,0,0,.09.48.72.72,0,0,0,.31.34,1.1,1.1,0,0,0,.59.13h1.47Zm.07-3.33a1.35,1.35,0,0,1-.75,1.26,1.78,1.78,0,0,1-1.56,0,1.4,1.4,0,0,1-.54-.51,1.43,1.43,0,0,1-.2-.76,1.28,1.28,0,0,1,.15-.63,1.06,1.06,0,0,1,.41-.43h-1.8v-.49h4.22V655l-.48,0a1.52,1.52,0,0,1,.38.41A1.2,1.2,0,0,1,342.53,656.14Zm-.43-.06a1,1,0,0,0-.14-.51.92.92,0,0,0-.38-.35,1.21,1.21,0,0,0-.58-.13,1.2,1.2,0,0,0-.57.13.92.92,0,0,0-.38.35,1,1,0,0,0-.14.51,1,1,0,0,0,.14.52.92.92,0,0,0,.38.35,1.32,1.32,0,0,0,.57.12,1.34,1.34,0,0,0,.58-.12.92.92,0,0,0,.38-.35A1,1,0,0,0,342.1,656.08Zm.43-3.41a1.34,1.34,0,0,1-.27.86,1,1,0,0,1-.71.41v-.51a.73.73,0,0,0,.4-.24.8.8,0,0,0,.16-.53.64.64,0,0,0-.13-.45.4.4,0,0,0-.31-.15.35.35,0,0,0-.36.19,2.84,2.84,0,0,0-.15.54,2.69,2.69,0,0,1-.14.46,1.22,1.22,0,0,1-.24.4.63.63,0,0,1-.43.15.77.77,0,0,1-.62-.28,1.17,1.17,0,0,1-.25-.77,1.13,1.13,0,0,1,.24-.75.9.9,0,0,1,.65-.35v.49a.47.47,0,0,0-.34.19.63.63,0,0,0-.13.43.71.71,0,0,0,.11.41.36.36,0,0,0,.29.14.31.31,0,0,0,.28-.19,2.39,2.39,0,0,0,.17-.5,3.8,3.8,0,0,1,.14-.51,1.09,1.09,0,0,1,.25-.4.69.69,0,0,1,.48-.15.75.75,0,0,1,.65.3A1.19,1.19,0,0,1,342.53,652.67Zm0-4.7a1.8,1.8,0,0,1-.17.79,1.25,1.25,0,0,1-.45.51,1.3,1.3,0,0,1-.68.18v-.51a.93.93,0,0,0,.44-.11.85.85,0,0,0,.32-.33,1.07,1.07,0,0,0,.12-.53,1,1,0,0,0-.2-.64.64.64,0,0,0-.5-.23.67.67,0,0,0-.39.11.73.73,0,0,0-.24.28,2.19,2.19,0,0,0-.17.41c0,.15-.1.31-.16.48a1.6,1.6,0,0,1-.4.7.87.87,0,0,1-.64.23,1,1,0,0,1-.58-.15,1,1,0,0,1-.39-.44,1.54,1.54,0,0,1-.15-.7,1.41,1.41,0,0,1,.15-.67,1,1,0,0,1,.4-.45,1.06,1.06,0,0,1,.58-.17v.51a.68.68,0,0,0-.33.09.7.7,0,0,0-.27.27,1,1,0,0,0,.06,1,.61.61,0,0,0,.49.21.56.56,0,0,0,.4-.14,1.28,1.28,0,0,0,.23-.42l.21-.62a2.91,2.91,0,0,1,.24-.53,1,1,0,0,1,.37-.36,1.06,1.06,0,0,1,.56-.14,1.09,1.09,0,0,1,.56.15,1.14,1.14,0,0,1,.42.47A1.55,1.55,0,0,1,342.53,648Zm0-3.35a1.51,1.51,0,0,1-.19.74,1.52,1.52,0,0,1-.53.51,1.73,1.73,0,0,1-.81.18,1.67,1.67,0,0,1-.79-.18,1.3,1.3,0,0,1-.53-.51,1.45,1.45,0,0,1-.2-.75,1.33,1.33,0,0,1,.2-.73,1.3,1.3,0,0,1,.49-.47,1.42,1.42,0,0,1,.67-.17h.28v2.31a1.15,1.15,0,0,0,.55-.15.85.85,0,0,0,.33-.35,1,1,0,0,0,.11-.44.93.93,0,0,0-.14-.51.76.76,0,0,0-.38-.3v-.48a1.22,1.22,0,0,1,.67.45A1.26,1.26,0,0,1,342.53,644.62Zm-2.63,0a1,1,0,0,0,.22.63.88.88,0,0,0,.62.31v-1.83a.82.82,0,0,0-.62.27A.89.89,0,0,0,339.9,644.62Zm2.56-2h-2.91v-.44l.56,0a1.13,1.13,0,0,1-.46-.41,1.32,1.32,0,0,1-.17-.68H340v.13a1.28,1.28,0,0,0,.09.48.68.68,0,0,0,.31.34,1.1,1.1,0,0,0,.59.13h1.47Zm0-3-2.91,1.1v-.51l2.43-.88-2.43-.87V638l2.91,1.1Zm.07-3.37a1.51,1.51,0,0,1-.19.74,1.52,1.52,0,0,1-.53.51,1.73,1.73,0,0,1-.81.18,1.67,1.67,0,0,1-.79-.18,1.24,1.24,0,0,1-.53-.51,1.45,1.45,0,0,1-.2-.75,1.35,1.35,0,0,1,.2-.73,1.3,1.3,0,0,1,.49-.47,1.42,1.42,0,0,1,.67-.17h.28v2.31a1.15,1.15,0,0,0,.55-.15.85.85,0,0,0,.33-.35,1,1,0,0,0,.11-.44.93.93,0,0,0-.14-.51.76.76,0,0,0-.38-.3V635a1.22,1.22,0,0,1,.67.45A1.28,1.28,0,0,1,342.53,636.26Zm-2.63,0a1,1,0,0,0,.22.63.85.85,0,0,0,.62.31v-1.83a.82.82,0,0,0-.62.27A.89.89,0,0,0,339.9,636.26Zm2.63-3.34a1.35,1.35,0,0,1-.75,1.26,1.66,1.66,0,0,1-.78.18,1.55,1.55,0,0,1-.78-.19,1.3,1.3,0,0,1-.54-.5,1.43,1.43,0,0,1-.2-.76,1.28,1.28,0,0,1,.15-.63,1.06,1.06,0,0,1,.41-.43h-1.8v-.49h4.22v.45l-.48,0a1.52,1.52,0,0,1,.38.41A1.2,1.2,0,0,1,342.53,632.92Zm-.43-.06a1,1,0,0,0-.14-.51.92.92,0,0,0-.38-.35,1.21,1.21,0,0,0-.58-.13,1.2,1.2,0,0,0-.57.13.92.92,0,0,0-.38.35,1,1,0,0,0-.14.51.95.95,0,0,0,.52.87,1.32,1.32,0,0,0,.57.12,1.34,1.34,0,0,0,.58-.12.95.95,0,0,0,.52-.87Z" transform="translate(-189.45 -434.96)" style="fill: #293b4a"></path><path d="M368.08,671.12H542.53" transform="translate(-189.45 -434.96)" style="fill: none;stroke: #8fa3b5;stroke-miterlimit: 10;stroke-width: 0.3461740016937256px;opacity: 0.5;isolation: isolate"></path><path d="M368.08,651.1H542.53" transform="translate(-189.45 -434.96)" style="fill: none;stroke: #8fa3b5;stroke-miterlimit: 10;stroke-width: 0.3461740016937256px;opacity: 0.5;isolation: isolate"></path><path d="M542.53,631.09H368.08" transform="translate(-189.45 -434.96)" style="fill: none;stroke: #8fa3b5;stroke-miterlimit: 10;stroke-width: 0.3461740016937256px;opacity: 0.5;isolation: isolate"></path><path d="M368.08,621.08v70H542.53" transform="translate(-189.45 -434.96)" style="fill: none;stroke: #8fa3b5;stroke-miterlimit: 10;stroke-width: 0.3559260070323944px"></path><path d="M353.47,632.72a1.9,1.9,0,0,1-.73-.14,1.22,1.22,0,0,1-.53-.45,1.44,1.44,0,0,1-.21-.75h.74a.76.76,0,0,0,.19.51.73.73,0,0,0,.54.2.63.63,0,0,0,.5-.19.61.61,0,0,0,.18-.45.55.55,0,0,0-.24-.49,1,1,0,0,0-.59-.17H353v-.61h.31a.89.89,0,0,0,.5-.14.48.48,0,0,0,.19-.42.46.46,0,0,0-.15-.36.58.58,0,0,0-.41-.14.61.61,0,0,0-.45.17.66.66,0,0,0-.17.41h-.73a1.18,1.18,0,0,1,.39-.89,1.4,1.4,0,0,1,1-.33,1.52,1.52,0,0,1,.71.15,1,1,0,0,1,.44.4,1,1,0,0,1,.15.54.91.91,0,0,1-.19.59.36.36,0,1,0,.09.65,1,1,0,0,1,.22.67,1.33,1.33,0,0,1-.16.62,1.31,1.31,0,0,1-.48.45A1.65,1.65,0,0,1,353.47,632.72Zm3.82,0a1.72,1.72,0,0,1-1-.27,1.62,1.62,0,0,1-.62-.74,2.91,2.91,0,0,1,0-2.22,1.67,1.67,0,0,1,.62-.74,1.72,1.72,0,0,1,1-.27,1.66,1.66,0,0,1,1.59,1,2.79,2.79,0,0,1,0,2.22,1.62,1.62,0,0,1-.62.74A1.68,1.68,0,0,1,357.29,632.72Zm0-.68a.91.91,0,0,0,.76-.38,2.08,2.08,0,0,0,0-2.12.94.94,0,0,0-1.52,0,2.15,2.15,0,0,0,0,2.12A.91.91,0,0,0,357.29,632Zm2.46.61v-4.22h.75v2.49l1-1.17h.89l-1.19,1.32,1.38,1.58h-.93l-1.18-1.46v1.46Z" transform="translate(-189.45 -434.96)" style="fill: #293b4a"></path><path d="M352.2,652v-.54l.73-.61a7.41,7.41,0,0,0,.63-.61,3.15,3.15,0,0,0,.45-.58,1.1,1.1,0,0,0,.17-.55.77.77,0,0,0-.14-.45.51.51,0,0,0-.45-.19.58.58,0,0,0-.49.21.8.8,0,0,0-.16.51h-.73a1.44,1.44,0,0,1,.2-.75,1.15,1.15,0,0,1,.5-.45,1.55,1.55,0,0,1,.69-.15,1.3,1.3,0,0,1,1,.34,1.17,1.17,0,0,1,.36.89,1.6,1.6,0,0,1-.16.66,2.89,2.89,0,0,1-.41.62,5.69,5.69,0,0,1-.54.56l-.57.48H355V652Zm5.1.07a1.7,1.7,0,0,1-1-.26,1.82,1.82,0,0,1-.63-.74,2.91,2.91,0,0,1,0-2.22,1.8,1.8,0,0,1,2.57-.74,1.68,1.68,0,0,1,.62.74,2.91,2.91,0,0,1,0,2.22,1.8,1.8,0,0,1-.62.74A1.7,1.7,0,0,1,357.3,652.08Zm0-.67a.89.89,0,0,0,.75-.39,2.06,2.06,0,0,0,0-2.11.89.89,0,0,0-.75-.39.9.9,0,0,0-.76.39,2.06,2.06,0,0,0,0,2.11A.9.9,0,0,0,357.3,651.41Zm2.45.6V647.8h.75v2.49l1-1.18h.89l-1.19,1.32,1.39,1.58h-.94l-1.18-1.45V652Z" transform="translate(-189.45 -434.96)" style="fill: #293b4a"></path><path d="M354,672v-3.24l-.67.16v-.58l1-.44h.46V672Zm3.25.07a1.78,1.78,0,0,1-1-.26,1.7,1.7,0,0,1-.62-.75,2.91,2.91,0,0,1,0-2.22,1.73,1.73,0,0,1,.62-.74,1.88,1.88,0,0,1,1.94,0,1.73,1.73,0,0,1,.62.74,2.79,2.79,0,0,1,0,2.22,1.7,1.7,0,0,1-.62.75A1.78,1.78,0,0,1,357.29,672.1Zm0-.67a.92.92,0,0,0,.76-.39,2.08,2.08,0,0,0,0-2.12.95.95,0,0,0-1.52,0,2.15,2.15,0,0,0,0,2.12A.92.92,0,0,0,357.29,671.43Zm2.46.6v-4.21h.75v2.48l1-1.17h.89l-1.19,1.32,1.38,1.58h-.94l-1.17-1.46V672Z" transform="translate(-189.45 -434.96)" style="fill: #293b4a"></path><path d="M357.29,690.28a1.8,1.8,0,0,1-1-.26,1.77,1.77,0,0,1-.62-.75,2.59,2.59,0,0,1-.22-1.11,2.54,2.54,0,0,1,.22-1.1,1.77,1.77,0,0,1,.62-.75,1.9,1.9,0,0,1,1.95,0,1.85,1.85,0,0,1,.62.75,2.7,2.7,0,0,1,.22,1.1,2.75,2.75,0,0,1-.22,1.11,1.85,1.85,0,0,1-.62.75A1.81,1.81,0,0,1,357.29,690.28Zm0-.67a.92.92,0,0,0,.76-.39,2.08,2.08,0,0,0,0-2.12.95.95,0,0,0-1.52,0,2.15,2.15,0,0,0,0,2.12A.92.92,0,0,0,357.29,689.61Zm2.46.6V686h.75v2.48l1-1.17h.89l-1.19,1.32,1.38,1.58h-.93l-1.18-1.46v1.46Z" transform="translate(-189.45 -434.96)" style="fill: #293b4a"></path><path d="M577.35,664.11a1.73,1.73,0,0,1-.16.78,1.17,1.17,0,0,1-.46.52,1.25,1.25,0,0,1-.68.18v-.51a.89.89,0,0,0,.45-.12.82.82,0,0,0,.32-.32,1.07,1.07,0,0,0,.12-.53.94.94,0,0,0-.2-.64.61.61,0,0,0-.5-.23.67.67,0,0,0-.39.1.89.89,0,0,0-.25.29,2.7,2.7,0,0,0-.16.41c-.05.15-.1.31-.16.48a1.7,1.7,0,0,1-.4.7.91.91,0,0,1-.64.23,1.11,1.11,0,0,1-.58-.15,1.17,1.17,0,0,1-.4-.45,1.6,1.6,0,0,1-.14-.69,1.62,1.62,0,0,1,.14-.68,1.19,1.19,0,0,1,.41-.45,1.13,1.13,0,0,1,.58-.17v.52a.68.68,0,0,0-.33.09.72.72,0,0,0-.28.27,1,1,0,0,0,.07,1,.6.6,0,0,0,.48.21.54.54,0,0,0,.41-.15,1.18,1.18,0,0,0,.23-.42l.21-.62a3.13,3.13,0,0,1,.24-.52,1.09,1.09,0,0,1,.37-.37,1,1,0,0,1,.56-.13,1.12,1.12,0,0,1,.56.15,1.18,1.18,0,0,1,.42.46A1.63,1.63,0,0,1,577.35,664.11Zm-.07-3.19a.92.92,0,0,1-.19.62.89.89,0,0,1-.7.23H574.8v.5h-.42v-.5l-.69-.07v-.42h.69v-.86h.42v.86h1.59a.52.52,0,0,0,.38-.11.67.67,0,0,0,.09-.4v-.3h.42Zm.07-2.18a1.09,1.09,0,0,1-.31.82,1.35,1.35,0,0,1-1,.3h-1.7v-.49H576c.6,0,.9-.25.9-.74a.83.83,0,0,0-.27-.63,1.13,1.13,0,0,0-.77-.25h-1.51v-.49h2.9v.44l-.52,0a1,1,0,0,1,.44.4A1.21,1.21,0,0,1,577.35,658.74Zm0-3.61a1.41,1.41,0,0,1-.2.77,1.37,1.37,0,0,1-.54.5,1.66,1.66,0,0,1-.78.17,1.61,1.61,0,0,1-.78-.18,1.37,1.37,0,0,1-.54-.5,1.46,1.46,0,0,1-.2-.76,1.28,1.28,0,0,1,.15-.63,1,1,0,0,1,.41-.43h-1.8v-.49h4.21V654l-.48.05a1.33,1.33,0,0,1,.38.4A1.16,1.16,0,0,1,577.35,655.13Zm-.42,0a1,1,0,0,0-.14-.51.86.86,0,0,0-.38-.35,1.21,1.21,0,0,0-.58-.13,1.14,1.14,0,0,0-.57.13.86.86,0,0,0-.38.35,1,1,0,0,0-.14.51,1,1,0,0,0,.14.52,1,1,0,0,0,.38.35,1.26,1.26,0,0,0,.57.12,1.34,1.34,0,0,0,.58-.12,1,1,0,0,0,.38-.35A1,1,0,0,0,576.93,655.08Zm.42-3.61a1.33,1.33,0,0,1-.72,1.25,1.85,1.85,0,0,1-1.59,0,1.37,1.37,0,0,1-.54-.5,1.56,1.56,0,0,1-.19-.76,1.38,1.38,0,0,1,.19-.72,1.35,1.35,0,0,1,.5-.48,1.41,1.41,0,0,1,.67-.16h.27v2.31a1.16,1.16,0,0,0,.56-.15,1.07,1.07,0,0,0,.33-.34,1,1,0,0,0,.11-.45.93.93,0,0,0-.14-.51.94.94,0,0,0-.38-.3v-.48a1.34,1.34,0,0,1,.67.45A1.28,1.28,0,0,1,577.35,651.47Zm-2.62,0a1,1,0,0,0,.21.63.87.87,0,0,0,.62.31v-1.83a.81.81,0,0,0-.61.27A.91.91,0,0,0,574.73,651.47Zm2.55-2h-2.9V649l.52,0a1,1,0,0,1-.43-.4,1.12,1.12,0,0,1-.16-.6,1.11,1.11,0,0,1,.32-.82,1.32,1.32,0,0,1,1-.31h1.69v.49h-1.64c-.61,0-.91.25-.91.75a.81.81,0,0,0,.28.63,1.11,1.11,0,0,0,.77.24h1.5Zm0-4.5a1,1,0,0,1-.19.63.89.89,0,0,1-.7.23H574.8v.5h-.42v-.5l-.69-.07v-.43h.69v-.85h.42v.85h1.59a.48.48,0,0,0,.38-.11.62.62,0,0,0,.09-.39v-.3h.42Zm.07-2.23a1.36,1.36,0,0,1-.26.87,1,1,0,0,1-.71.4v-.5a.68.68,0,0,0,.39-.24.8.8,0,0,0,.17-.53.67.67,0,0,0-.13-.46.41.41,0,0,0-.32-.14.35.35,0,0,0-.35.19,2.43,2.43,0,0,0-.16.53,2.75,2.75,0,0,1-.13.47,1,1,0,0,1-.25.39.55.55,0,0,1-.42.16.79.79,0,0,1-.62-.28,1.12,1.12,0,0,1-.25-.77,1.17,1.17,0,0,1,.24-.76.89.89,0,0,1,.65-.34v.48a.47.47,0,0,0-.34.19.65.65,0,0,0-.13.43.63.63,0,0,0,.11.41.36.36,0,0,0,.29.14.31.31,0,0,0,.28-.18,2.39,2.39,0,0,0,.17-.5,2.73,2.73,0,0,1,.14-.51,1,1,0,0,1,.25-.4.65.65,0,0,1,.48-.16.82.82,0,0,1,.65.3A1.21,1.21,0,0,1,577.35,642.72Z" transform="translate(-189.45 -434.96)" style="fill: #293b4a"></path><path d="M547.35,652.15v-3.24l-.67.16v-.58l1-.44h.46v4.1Zm3.25.07a1.8,1.8,0,0,1-1-.26,1.77,1.77,0,0,1-.62-.75,2.89,2.89,0,0,1,0-2.21,1.77,1.77,0,0,1,.62-.75,1.9,1.9,0,0,1,2,0,1.85,1.85,0,0,1,.62.75,2.89,2.89,0,0,1,0,2.21,1.85,1.85,0,0,1-.62.75A1.81,1.81,0,0,1,550.6,652.22Zm0-.67a.92.92,0,0,0,.76-.39,2.08,2.08,0,0,0,0-2.12.95.95,0,0,0-1.52,0,2.15,2.15,0,0,0,0,2.12A.92.92,0,0,0,550.6,651.55Zm4.16.67a1.65,1.65,0,0,1-1.6-1,2.89,2.89,0,0,1,0-2.21,1.79,1.79,0,0,1,.63-.75,1.73,1.73,0,0,1,2.56.75,2.89,2.89,0,0,1,0,2.21,1.7,1.7,0,0,1-.62.75A1.78,1.78,0,0,1,554.76,652.22Zm0-.67a.89.89,0,0,0,.75-.39,2,2,0,0,0,0-2.12.9.9,0,0,0-.75-.38.92.92,0,0,0-.76.38,2.08,2.08,0,0,0,0,2.12A.9.9,0,0,0,554.76,651.55Zm4.15.67a1.65,1.65,0,0,1-1.6-1,3,3,0,0,1,0-2.21,1.79,1.79,0,0,1,.63-.75,1.73,1.73,0,0,1,2.56.75,2.77,2.77,0,0,1,0,2.21,1.7,1.7,0,0,1-.62.75A1.78,1.78,0,0,1,558.91,652.22Zm0-.67a.92.92,0,0,0,.76-.39,2.08,2.08,0,0,0,0-2.12.95.95,0,0,0-1.52,0,2.08,2.08,0,0,0,0,2.12A.92.92,0,0,0,558.91,651.55Z" transform="translate(-189.45 -434.96)" style="fill: #293b4a"></path><path d="M548.38,672.24a1.87,1.87,0,0,1-.78-.16,1.22,1.22,0,0,1-.51-.44,1.31,1.31,0,0,1-.21-.63h.73a.72.72,0,0,0,.26.42.77.77,0,0,0,.51.17.68.68,0,0,0,.53-.24.88.88,0,0,0,.21-.6.79.79,0,0,0-.21-.58.67.67,0,0,0-.52-.22.78.78,0,0,0-.46.13.64.64,0,0,0-.27.32h-.72l.35-2.34h2.27v.65h-1.71l-.19.95a1.12,1.12,0,0,1,.35-.23,1.35,1.35,0,0,1,.5-.09,1.28,1.28,0,0,1,.73.2,1.23,1.23,0,0,1,.45.51,1.65,1.65,0,0,1,.15.69,1.52,1.52,0,0,1-.19.77,1.34,1.34,0,0,1-.51.52A1.46,1.46,0,0,1,548.38,672.24Zm3.84,0a1.73,1.73,0,0,1-1-.27,1.88,1.88,0,0,1-.62-.74,2.91,2.91,0,0,1,0-2.22,1.75,1.75,0,0,1,.62-.74,1.9,1.9,0,0,1,2,0,1.68,1.68,0,0,1,.62.74,2.91,2.91,0,0,1,0,2.22,1.8,1.8,0,0,1-.62.74A1.72,1.72,0,0,1,552.22,672.24Zm0-.68a.91.91,0,0,0,.75-.38,2.08,2.08,0,0,0,0-2.12.9.9,0,0,0-.75-.39.92.92,0,0,0-.77.39,2.15,2.15,0,0,0,0,2.12A.94.94,0,0,0,552.22,671.56Zm4.15.68a1.7,1.7,0,0,1-1-.27,1.82,1.82,0,0,1-.63-.74,3,3,0,0,1,0-2.22,1.8,1.8,0,0,1,2.57-.74,1.62,1.62,0,0,1,.62.74,2.91,2.91,0,0,1,0,2.22,1.73,1.73,0,0,1-.62.74A1.7,1.7,0,0,1,556.37,672.24Zm0-.68a.9.9,0,0,0,.75-.38,2,2,0,0,0,0-2.12.89.89,0,0,0-.75-.39.9.9,0,0,0-.76.39,2.08,2.08,0,0,0,0,2.12A.92.92,0,0,0,556.37,671.56Z" transform="translate(-189.45 -434.96)" style="fill: #293b4a"></path><path d="M548.59,692.92a1.7,1.7,0,0,1-1-.26,1.82,1.82,0,0,1-.63-.74,2.76,2.76,0,0,1-.22-1.12,2.73,2.73,0,0,1,.22-1.1,1.8,1.8,0,0,1,2.57-.74,1.68,1.68,0,0,1,.62.74,2.57,2.57,0,0,1,.22,1.1,2.6,2.6,0,0,1-.22,1.12,1.8,1.8,0,0,1-.62.74A1.7,1.7,0,0,1,548.59,692.92Zm0-.67a.89.89,0,0,0,.75-.39,2.06,2.06,0,0,0,0-2.11.89.89,0,0,0-.75-.39.9.9,0,0,0-.76.39,2.06,2.06,0,0,0,0,2.11A.9.9,0,0,0,548.59,692.25Z" transform="translate(-189.45 -434.96)" style="fill: #293b4a"></path><path d="M371.87,696.83v-.31l.42-.36c.14-.12.26-.24.37-.35a2.37,2.37,0,0,0,.26-.34.7.7,0,0,0,.1-.32.39.39,0,0,0-.09-.26.29.29,0,0,0-.26-.12.32.32,0,0,0-.28.13.43.43,0,0,0-.1.29h-.42a.73.73,0,0,1,.12-.43.69.69,0,0,1,.29-.27.87.87,0,0,1,.4-.09.75.75,0,0,1,.57.21.66.66,0,0,1,.2.51.92.92,0,0,1-.09.39,2.41,2.41,0,0,1-.23.36l-.32.33-.33.28h1v.35Zm3.07,0v-.44h-1.18V696l1.12-1.59h.49V696h.32v.38h-.32v.44Zm-.71-.82H375v-1.08Zm2.61.82v-2.38h1.55v.35h-1.11v.67h.89v.34h-.89v1Zm2.61,0a1,1,0,0,1-.46-.11.92.92,0,0,1-.31-.31,1,1,0,0,1-.11-.46,1,1,0,0,1,.11-.47.77.77,0,0,1,.31-.31.85.85,0,0,1,.46-.12.9.9,0,0,1,.44.11.72.72,0,0,1,.3.3.88.88,0,0,1,.11.42s0,.05,0,.08v.08H379a.43.43,0,0,0,.14.31.41.41,0,0,0,.3.12.36.36,0,0,0,.22-.06.31.31,0,0,0,.14-.16h.44a.73.73,0,0,1-.16.3.79.79,0,0,1-.27.2A.86.86,0,0,1,379.45,696.88Zm0-1.42a.45.45,0,0,0-.28.09.38.38,0,0,0-.16.27h.84a.38.38,0,0,0-.12-.27A.45.45,0,0,0,379.45,695.46Zm2.22,1.42a.74.74,0,0,1-.34-.08.55.55,0,0,1-.23-.2l-.05.23h-.39v-2.45h.44v1a.69.69,0,0,1,.22-.19.61.61,0,0,1,.35-.09.74.74,0,0,1,.42.12.75.75,0,0,1,.3.31,1,1,0,0,1,0,.92.75.75,0,0,1-.3.31A.74.74,0,0,1,381.67,696.88Zm-.1-.39a.45.45,0,0,0,.35-.14.53.53,0,0,0,0-.72.45.45,0,0,0-.35-.15.43.43,0,0,0-.34.15.53.53,0,0,0,0,.72A.42.42,0,0,0,381.57,696.49Zm2.09.34v-.31l.42-.36c.14-.12.26-.24.37-.35a2.37,2.37,0,0,0,.26-.34.7.7,0,0,0,.1-.32.39.39,0,0,0-.09-.26.29.29,0,0,0-.26-.12.32.32,0,0,0-.28.13.43.43,0,0,0-.1.29h-.42a.81.81,0,0,1,.11-.43.75.75,0,0,1,.29-.27,1,1,0,0,1,.41-.09.77.77,0,0,1,.57.21.69.69,0,0,1,.2.51.92.92,0,0,1-.09.39,1.88,1.88,0,0,1-.24.36c-.09.11-.2.22-.31.33l-.33.28h1v.35Zm2.26,0v-1.89l-.39.1v-.34l.58-.25h.27v2.38Z" transform="translate(-189.45 -434.96)" style="fill: #293b4a"></path><path d="M398.54,696.88a.93.93,0,0,1-.42-.1.72.72,0,0,1-.26-.26.66.66,0,0,1-.12-.33h.41a.41.41,0,0,0,.13.24.4.4,0,0,0,.27.08.42.42,0,0,0,.36-.2,1.16,1.16,0,0,0,.15-.65.61.61,0,0,1-.24.24.75.75,0,0,1-.37.09.71.71,0,0,1-.37-.1.72.72,0,0,1-.28-.27.76.76,0,0,1-.11-.41.82.82,0,0,1,.1-.4.83.83,0,0,1,.3-.29.78.78,0,0,1,.44-.12,1,1,0,0,1,.45.1.87.87,0,0,1,.3.27,1.53,1.53,0,0,1,.16.37,2,2,0,0,1,.05.42,1.86,1.86,0,0,1-.12.7,1,1,0,0,1-.32.46A.86.86,0,0,1,398.54,696.88Zm0-1.26a.4.4,0,0,0,.22-.06.29.29,0,0,0,.16-.15.37.37,0,0,0,.06-.21.38.38,0,0,0-.13-.3.44.44,0,0,0-.32-.12.45.45,0,0,0-.32.12.41.41,0,0,0-.12.3.39.39,0,0,0,.12.3A.48.48,0,0,0,398.56,695.62Zm2.14,1.21v-2.38h.52L402,696l.75-1.51h.52v2.38h-.43v-1.64l-.67,1.3h-.34l-.67-1.3v1.64Zm3.59,0a.88.88,0,0,1-.36-.07.55.55,0,0,1-.21-.19.56.56,0,0,1-.07-.26.49.49,0,0,1,.19-.38.86.86,0,0,1,.55-.15h.43v0a.29.29,0,0,0-.1-.25.33.33,0,0,0-.24-.08.48.48,0,0,0-.24.06.29.29,0,0,0-.12.18h-.42a.63.63,0,0,1,.12-.32.58.58,0,0,1,.28-.2.92.92,0,0,1,.38-.08.85.85,0,0,1,.57.18.64.64,0,0,1,.21.51v1h-.37l0-.27a.69.69,0,0,1-.22.23A.57.57,0,0,1,404.29,696.88Zm.1-.35a.37.37,0,0,0,.29-.12.59.59,0,0,0,.13-.3h-.37a.4.4,0,0,0-.25.06.19.19,0,0,0-.07.16.18.18,0,0,0,.07.15A.31.31,0,0,0,404.39,696.53Zm1.44,1.06.39-.87h-.1l-.66-1.58h.48l.47,1.19.5-1.19h.46l-1.08,2.45Zm2.59-.76v-.31l.42-.36a4.27,4.27,0,0,0,.37-.35,1.81,1.81,0,0,0,.26-.34.6.6,0,0,0,.1-.32.45.45,0,0,0-.08-.26.29.29,0,0,0-.26-.12.34.34,0,0,0-.29.13.48.48,0,0,0-.09.29h-.43a.91.91,0,0,1,.12-.43.69.69,0,0,1,.29-.27.91.91,0,0,1,.41-.09.73.73,0,0,1,.56.21.66.66,0,0,1,.21.51.92.92,0,0,1-.09.39,1.88,1.88,0,0,1-.24.36c-.1.11-.2.22-.32.33l-.33.28h1v.35Zm2.27,0v-1.89l-.39.1v-.34l.57-.25h.27v2.38Z" transform="translate(-189.45 -434.96)" style="fill: #293b4a"></path><path d="M422.71,696.83v-1.89l-.4.1v-.34l.58-.25h.27v2.38Zm1.57,0,.88-2.38h.49l.87,2.38h-.46l-.19-.55h-.94l-.19.55Zm.77-.89h.7l-.35-1Zm2.37.94a.62.62,0,0,1-.49-.2.89.89,0,0,1-.17-.58v-1h.43v.92a.54.54,0,0,0,.09.33.32.32,0,0,0,.28.12.42.42,0,0,0,.3-.13A.52.52,0,0,0,428,696v-.88h.43v1.69H428l0-.28a.53.53,0,0,1-.23.24A.62.62,0,0,1,427.42,696.88Zm2.16-.55a.85.85,0,0,1-.23,0l-.13.13a.5.5,0,0,0,.16.05l.32,0a.83.83,0,0,1,.49.16.44.44,0,0,1,.16.36.49.49,0,0,1-.09.28.5.5,0,0,1-.25.22.91.91,0,0,1-.43.09,1.12,1.12,0,0,1-.59-.14.43.43,0,0,1-.22-.4.47.47,0,0,1,.22-.4l-.12-.06a.6.6,0,0,1-.08-.08v-.07l.29-.32a.55.55,0,0,1-.19-.44.59.59,0,0,1,.08-.32.57.57,0,0,1,.24-.22.81.81,0,0,1,.37-.08.75.75,0,0,1,.26,0h.65v.27l-.29,0a.65.65,0,0,1,.06.29.57.57,0,0,1-.32.53A.8.8,0,0,1,429.58,696.33Zm0-.34a.32.32,0,0,0,.22-.07.23.23,0,0,0,.09-.2.26.26,0,0,0-.09-.21.38.38,0,0,0-.22-.07.42.42,0,0,0-.23.07.29.29,0,0,0-.08.21.25.25,0,0,0,.08.2A.35.35,0,0,0,429.58,696Zm-.41,1a.2.2,0,0,0,.12.19.59.59,0,0,0,.29.07.53.53,0,0,0,.26-.07.21.21,0,0,0,.1-.18.2.2,0,0,0-.06-.15.51.51,0,0,0-.27-.08l-.26,0a.58.58,0,0,0-.14.12A.22.22,0,0,0,429.17,697Zm2.4-.21v-.31l.42-.36a4.27,4.27,0,0,0,.37-.35,1.81,1.81,0,0,0,.26-.34.6.6,0,0,0,.1-.32.45.45,0,0,0-.08-.26.29.29,0,0,0-.26-.12.34.34,0,0,0-.29.13.48.48,0,0,0-.09.29h-.43a.91.91,0,0,1,.12-.43.69.69,0,0,1,.29-.27.91.91,0,0,1,.41-.09.73.73,0,0,1,.56.21.66.66,0,0,1,.21.51.92.92,0,0,1-.09.39,1.88,1.88,0,0,1-.24.36c-.1.11-.2.22-.32.33l-.33.28h1v.35Zm2.27,0v-1.89l-.39.1v-.34l.57-.25h.27v2.38Z" transform="translate(-189.45 -434.96)" style="fill: #293b4a"></path><path d="M445.9,696.83v-.31l.43-.36c.14-.12.26-.24.37-.35a2.25,2.25,0,0,0,.25-.34.6.6,0,0,0,.1-.32.38.38,0,0,0-.08-.26.29.29,0,0,0-.26-.12.31.31,0,0,0-.28.13.43.43,0,0,0-.1.29h-.42a.81.81,0,0,1,.11-.43.75.75,0,0,1,.29-.27.91.91,0,0,1,.41-.09.77.77,0,0,1,.57.21.69.69,0,0,1,.2.51.92.92,0,0,1-.09.39,1.88,1.88,0,0,1-.24.36c-.09.11-.2.22-.31.33l-.34.28h1v.35Zm3.07,0v-.44H447.8V696l1.12-1.59h.49V696h.31v.38h-.31v.44Zm-.71-.82H449v-1.08Zm3.74.87a1.28,1.28,0,0,1-.63-.16,1.33,1.33,0,0,1-.42-.43,1.38,1.38,0,0,1-.15-.65A1.32,1.32,0,0,1,451,695a1.2,1.2,0,0,1,2.1,0,1.32,1.32,0,0,1,.15.64,1.38,1.38,0,0,1-.15.65,1.33,1.33,0,0,1-.42.43A1.28,1.28,0,0,1,452,696.88Zm0-.4a.67.67,0,0,0,.54-.22,1,1,0,0,0,0-1.24.67.67,0,0,0-.54-.22.71.71,0,0,0-.55.22,1.06,1.06,0,0,0,0,1.24A.71.71,0,0,0,452,696.48Zm2.4.4a.88.88,0,0,1-.46-.12.84.84,0,0,1-.31-.31.9.9,0,0,1-.11-.46.87.87,0,0,1,.42-.78,1,1,0,0,1,.46-.11.9.9,0,0,1,.55.17.78.78,0,0,1,.28.47h-.46a.32.32,0,0,0-.14-.2.42.42,0,0,0-.23-.07.41.41,0,0,0-.31.14.62.62,0,0,0,0,.76.4.4,0,0,0,.31.13.41.41,0,0,0,.23-.06.35.35,0,0,0,.14-.2h.46a.78.78,0,0,1-.28.46A.85.85,0,0,1,454.4,696.88Zm2,0a.65.65,0,0,1-.43-.13.55.55,0,0,1-.16-.46v-.73h-.29v-.37h.29l.05-.45h.39v.45h.46v.37h-.46v.74c0,.08,0,.14.05.17a.3.3,0,0,0,.18,0h.22v.37Zm1.45,0v-.31l.42-.36c.14-.12.26-.24.37-.35a2.37,2.37,0,0,0,.26-.34.7.7,0,0,0,.1-.32.39.39,0,0,0-.09-.26.29.29,0,0,0-.26-.12.32.32,0,0,0-.28.13.43.43,0,0,0-.1.29h-.42a.73.73,0,0,1,.12-.43.63.63,0,0,1,.29-.27.87.87,0,0,1,.4-.09.77.77,0,0,1,.57.21.69.69,0,0,1,.2.51.92.92,0,0,1-.09.39,2.41,2.41,0,0,1-.23.36l-.32.33-.33.28h1v.35Zm2.26,0v-1.89l-.39.1v-.34l.58-.25h.27v2.38Z" transform="translate(-189.45 -434.96)" style="fill: #293b4a"></path><path d="M472,696.83v-1.89l-.39.1v-.34l.57-.25h.27v2.38Zm1.81,0a1,1,0,0,1-.45-.1,1,1,0,0,1-.3-.27,1.22,1.22,0,0,1-.16-.37,2,2,0,0,1-.05-.42,1.78,1.78,0,0,1,.12-.69,1,1,0,0,1,.32-.46.8.8,0,0,1,.51-.17.9.9,0,0,1,.42.1.84.84,0,0,1,.27.26.76.76,0,0,1,.11.33h-.41a.41.41,0,0,0-.13-.24.38.38,0,0,0-.26-.08.43.43,0,0,0-.37.21,1.28,1.28,0,0,0-.15.64.69.69,0,0,1,.24-.24.78.78,0,0,1,.37-.09.69.69,0,0,1,.37.1.66.66,0,0,1,.28.27.76.76,0,0,1,.11.41.82.82,0,0,1-.1.4.76.76,0,0,1-.3.29A.78.78,0,0,1,473.76,696.88Zm0-.38a.41.41,0,0,0,.31-.12.38.38,0,0,0,.13-.3.37.37,0,0,0-.13-.3.44.44,0,0,0-.32-.12.4.4,0,0,0-.22.06.33.33,0,0,0-.16.15.37.37,0,0,0-.06.21.38.38,0,0,0,.13.3A.44.44,0,0,0,473.74,696.5Zm2.73.38a.8.8,0,0,1-.56-.2.73.73,0,0,1-.21-.56h.44a.46.46,0,0,0,.08.27.3.3,0,0,0,.24.1.26.26,0,0,0,.23-.1.43.43,0,0,0,.07-.24v-1.7h.44v1.7a.73.73,0,0,1-.2.54A.76.76,0,0,1,476.47,696.88Zm1.76,0a.87.87,0,0,1-.35-.07.44.44,0,0,1-.21-.19.46.46,0,0,1-.07-.26.48.48,0,0,1,.18-.38.89.89,0,0,1,.56-.15h.43v0a.32.32,0,0,0-.1-.25.36.36,0,0,0-.25-.08.44.44,0,0,0-.23.06.23.23,0,0,0-.12.18h-.43a.63.63,0,0,1,.12-.32.69.69,0,0,1,.28-.2,1,1,0,0,1,.38-.08.81.81,0,0,1,.57.18.64.64,0,0,1,.21.51v1h-.37l0-.27a.66.66,0,0,1-.21.23A.63.63,0,0,1,478.23,696.88Zm.1-.35a.36.36,0,0,0,.29-.12.6.6,0,0,0,.14-.3h-.38a.42.42,0,0,0-.25.06.19.19,0,0,0-.07.16.18.18,0,0,0,.07.15A.31.31,0,0,0,478.33,696.53Zm1.29.3v-1.69H480l0,.29a.64.64,0,0,1,.22-.24.69.69,0,0,1,.36-.09.6.6,0,0,1,.48.2.82.82,0,0,1,.18.58v1h-.44v-.91a.5.5,0,0,0-.09-.33.32.32,0,0,0-.27-.12.39.39,0,0,0-.31.13.57.57,0,0,0-.11.36v.87Zm2.84,0v-.31l.42-.36a4.27,4.27,0,0,0,.37-.35,1.81,1.81,0,0,0,.26-.34.6.6,0,0,0,.1-.32.45.45,0,0,0-.08-.26.29.29,0,0,0-.26-.12.34.34,0,0,0-.29.13.48.48,0,0,0-.09.29h-.42a.81.81,0,0,1,.11-.43.69.69,0,0,1,.29-.27.91.91,0,0,1,.41-.09.73.73,0,0,1,.56.21.66.66,0,0,1,.21.51.92.92,0,0,1-.09.39,1.88,1.88,0,0,1-.24.36c-.1.11-.2.22-.32.33l-.33.28h1v.35Zm2,0v-.31l.42-.36a4.27,4.27,0,0,0,.37-.35,1.81,1.81,0,0,0,.26-.34.6.6,0,0,0,.1-.32.45.45,0,0,0-.08-.26.29.29,0,0,0-.26-.12.34.34,0,0,0-.29.13.48.48,0,0,0-.09.29h-.43a.91.91,0,0,1,.12-.43.69.69,0,0,1,.29-.27.91.91,0,0,1,.41-.09.73.73,0,0,1,.56.21.66.66,0,0,1,.21.51.92.92,0,0,1-.09.39,1.88,1.88,0,0,1-.24.36c-.1.11-.2.22-.32.33l-.33.28h1v.35Z" transform="translate(-189.45 -434.96)" style="fill: #293b4a"></path><path d="M497.35,696.83v-1.89l-.39.1v-.34l.58-.25h.27v2.38Zm1.9,0a1.06,1.06,0,0,1-.57-.16,1,1,0,0,1-.36-.43,1.48,1.48,0,0,1-.13-.65,1.51,1.51,0,0,1,.13-.65,1,1,0,0,1,.36-.43,1.1,1.1,0,0,1,1.14,0,1.09,1.09,0,0,1,.36.43,1.67,1.67,0,0,1,.13.65,1.64,1.64,0,0,1-.13.65,1.09,1.09,0,0,1-.36.43A1.06,1.06,0,0,1,499.25,696.88Zm0-.4a.52.52,0,0,0,.44-.22,1.22,1.22,0,0,0,0-1.24.55.55,0,0,0-.88,0,1.22,1.22,0,0,0,0,1.24A.52.52,0,0,0,499.25,696.48Zm2.1.35.88-2.38h.49l.87,2.38h-.46l-.19-.55H502l-.19.55Zm.77-.89h.7l-.35-1Zm1.77,1.65v-2.45h.39l.05.24a.65.65,0,0,1,.21-.19.63.63,0,0,1,.35-.09.8.8,0,0,1,.43.12.89.89,0,0,1,.3.31,1.11,1.11,0,0,1,0,.92.89.89,0,0,1-.3.31.8.8,0,0,1-.43.12.67.67,0,0,1-.33-.08.45.45,0,0,1-.23-.2v1Zm.91-1.1a.42.42,0,0,0,.34-.14.53.53,0,0,0,0-.72.43.43,0,0,0-.34-.15.45.45,0,0,0-.35.15.56.56,0,0,0,0,.72A.45.45,0,0,0,504.8,696.49Zm1.32.34v-1.69h.38l.05.32a.67.67,0,0,1,.24-.26.7.7,0,0,1,.38-.1v.46h-.12a.71.71,0,0,0-.26.05.43.43,0,0,0-.18.15.61.61,0,0,0-.06.3v.77Zm2.11,0v-.31l.43-.36c.14-.12.26-.24.37-.35a3.44,3.44,0,0,0,.26-.34.68.68,0,0,0,.09-.32.38.38,0,0,0-.08-.26.29.29,0,0,0-.26-.12.31.31,0,0,0-.28.13.43.43,0,0,0-.1.29h-.42a.81.81,0,0,1,.11-.43.75.75,0,0,1,.29-.27.91.91,0,0,1,.41-.09.77.77,0,0,1,.57.21.69.69,0,0,1,.2.51.92.92,0,0,1-.09.39,1.88,1.88,0,0,1-.24.36c-.09.11-.2.22-.31.33l-.34.28h1v.35Zm1.95,0v-.31l.43-.36c.14-.12.26-.24.37-.35a2.25,2.25,0,0,0,.25-.34.6.6,0,0,0,.1-.32.38.38,0,0,0-.08-.26.29.29,0,0,0-.26-.12.31.31,0,0,0-.28.13.43.43,0,0,0-.1.29h-.42a.81.81,0,0,1,.11-.43.75.75,0,0,1,.29-.27.91.91,0,0,1,.41-.09.77.77,0,0,1,.57.21.69.69,0,0,1,.2.51.92.92,0,0,1-.09.39,1.88,1.88,0,0,1-.24.36c-.09.11-.2.22-.31.33l-.34.28h1v.35Z" transform="translate(-189.45 -434.96)" style="fill: #293b4a"></path><path d="M523.54,696.88a1,1,0,0,1-.43-.09.65.65,0,0,1-.31-.26.73.73,0,0,1-.12-.43h.43a.44.44,0,0,0,.11.29.42.42,0,0,0,.32.12.4.4,0,0,0,.29-.11.36.36,0,0,0,.1-.27.31.31,0,0,0-.14-.28.57.57,0,0,0-.34-.1h-.18v-.36h.18a.43.43,0,0,0,.29-.08.26.26,0,0,0,.12-.24.26.26,0,0,0-.09-.21.32.32,0,0,0-.24-.08.33.33,0,0,0-.26.1.33.33,0,0,0-.1.24h-.43a.7.7,0,0,1,.23-.52.8.8,0,0,1,.56-.2.9.9,0,0,1,.42.09.7.7,0,0,1,.25.23.59.59,0,0,1,.09.32.55.55,0,0,1-.11.34.21.21,0,1,0,.05.38.58.58,0,0,1,.13.39.65.65,0,0,1-.1.36.67.67,0,0,1-.28.27A1,1,0,0,1,523.54,696.88Zm2.68,0a.77.77,0,0,1-.55-.2.73.73,0,0,1-.21-.56h.43a.54.54,0,0,0,.08.27.3.3,0,0,0,.24.1.24.24,0,0,0,.23-.1.36.36,0,0,0,.07-.24v-1.7H527v1.7a.69.69,0,0,1-.2.54A.74.74,0,0,1,526.22,696.88Zm1.82,0a.63.63,0,0,1-.49-.2.89.89,0,0,1-.17-.58v-1h.43v.92a.54.54,0,0,0,.09.33.32.32,0,0,0,.28.12.42.42,0,0,0,.3-.13.52.52,0,0,0,.12-.36v-.88H529v1.69h-.38l0-.28a.56.56,0,0,1-.22.24A.68.68,0,0,1,528,696.88Zm1.44,0v-2.45h.44v2.45Zm1.65,0v-.31l.42-.36a4.27,4.27,0,0,0,.37-.35,1.81,1.81,0,0,0,.26-.34.6.6,0,0,0,.1-.32.45.45,0,0,0-.08-.26.29.29,0,0,0-.26-.12.34.34,0,0,0-.29.13.48.48,0,0,0-.09.29h-.42a.81.81,0,0,1,.11-.43.69.69,0,0,1,.29-.27.91.91,0,0,1,.41-.09.73.73,0,0,1,.56.21.66.66,0,0,1,.21.51.92.92,0,0,1-.09.39,1.88,1.88,0,0,1-.24.36c-.1.11-.2.22-.32.33l-.33.28h1v.35Zm2,0v-.31l.42-.36a4.27,4.27,0,0,0,.37-.35,1.81,1.81,0,0,0,.26-.34.6.6,0,0,0,.1-.32.45.45,0,0,0-.08-.26.29.29,0,0,0-.26-.12.34.34,0,0,0-.29.13.48.48,0,0,0-.09.29h-.43a.91.91,0,0,1,.12-.43.69.69,0,0,1,.29-.27.91.91,0,0,1,.41-.09.73.73,0,0,1,.56.21.66.66,0,0,1,.21.51.92.92,0,0,1-.09.39,1.88,1.88,0,0,1-.24.36c-.1.11-.2.22-.32.33l-.33.28h1v.35Z" transform="translate(-189.45 -434.96)" style="fill: #293b4a"></path><path d="M379.15,688.14v3" transform="translate(-189.45 -434.96)" style="fill: none;stroke: #8fa3b5;stroke-miterlimit: 10;stroke-width: 0.3217960000038147px"></path><path d="M404.43,688.14v3" transform="translate(-189.45 -434.96)" style="fill: none;stroke: #8fa3b5;stroke-miterlimit: 10;stroke-width: 0.3217960000038147px"></path><path d="M428.36,688.14v3" transform="translate(-189.45 -434.96)" style="fill: none;stroke: #8fa3b5;stroke-miterlimit: 10;stroke-width: 0.3217960000038147px"></path><path d="M453.24,688.14v3" transform="translate(-189.45 -434.96)" style="fill: none;stroke: #8fa3b5;stroke-miterlimit: 10;stroke-width: 0.3217960000038147px"></path><path d="M478.82,688.14v3" transform="translate(-189.45 -434.96)" style="fill: none;stroke: #8fa3b5;stroke-miterlimit: 10;stroke-width: 0.3217960000038147px"></path><path d="M504,688.14v3" transform="translate(-189.45 -434.96)" style="fill: none;stroke: #8fa3b5;stroke-miterlimit: 10;stroke-width: 0.3217960000038147px"></path><path d="M528.92,688.14v3" transform="translate(-189.45 -434.96)" style="fill: none;stroke: #8fa3b5;stroke-miterlimit: 10;stroke-width: 0.3217960000038147px"></path><path d="M374.4,681.35h5.38l.94-2.1,2.33,1,1.58-1,2.09,1,1.61-1,8.14.63,1.28-1,3.46,1.26,9.19-.7,6.44-3.7,3.38,2.41,4.06-.48,3.43.9,2.9,2.24,3.14.58,1.61-1.47,1.61,1.47,4.19-2.82h4.58l2.18-.9,2.17.9,2.58-1.87,5.31,1.87,1.61-.82,1.69,1.53,4,.16,2.09,1.53,1.85-.89,5.8.16,1.69-1.67,2,1.19,1.77-1.69,1.69,1.12,2.25-1.6,3.62,1,3.23-2.83,2.74.64,1.85-1.45,2.82,2.26,2.57,3.54,2-4.11,3.3,2.82,3.94-17.63,1.53-2.18,2.26,1.45,1.93.08,1.44-1.53h2.42a19.61,19.61,0,0,0,1.77-1.21c-.25.08,3.7,8.7,3.7,8.7l1.45-5,2-.24,1.86-3.14,2.49,2.33,1.05-2.66,2.18-8.53,3.7-3.39,2.18-10.14" transform="translate(-189.45 -434.96)" style="fill: none;stroke: #5273fd;stroke-linecap: round;stroke-miterlimit: 10;stroke-width: 0.9800140261650085px"></path><path d="M375,682.29l4.73-2.36,3.44,2.36h1.58l1.87-4,1.58,3.09,3.64-1.07,3.64,1.07,4-1.07,3.05,1.52,4.06-2.12,5.19.6s4.07-4.49,5-4.58,3,3.3,3,3.3h4.45l4.51,1.62,4.92-.59,1.77-4.33h2.66l2.75-5.12,2.07,2,2.36-2.66,1.58-2.46,2,1.28,3.45-6.3,2,7.78,1.67-3.45,1.87,2.86,2-2,1.58,4,2.36.1,3.55,7.49h2.36L471,677l1.87,1.68,2-2.76,1.87,1.58,3.74-2.37,1.68.89,1.77-1.08,4.43-.3,1.68,2.22,2-2.42,2.07,1.93,1.67-4.39,3.45,4.23,1.54,3.69,2.1-7.92,4.55,4.11,3.13-15.23,1.88-2.76,3.14,2.17,2.76-2.17h2.56l4.53,13.49,4.43-7,3.35-.89,3.55-9.65h2.65l1-7.57" transform="translate(-189.45 -434.96)" style="fill: none;stroke: #ff340c;stroke-linecap: round;stroke-miterlimit: 10;stroke-width: 1.0921599864959717px"></path></g></g></svg>