<svg xmlns="http://www.w3.org/2000/svg" xmlns:xlink="http://www.w3.org/1999/xlink" id="Layer_1" data-name="Layer 1" viewBox="0 0 442 418.54"><defs><clipPath id="clip-path" transform="translate(-200.17 -395.83)"><rect x="200.17" y="395.83" width="442" height="418.54" style="fill: none"></rect></clipPath></defs><g style="clip-path: url(#clip-path)"><g><path d="M510.94,422.89H205.07a4.9,4.9,0,0,0-4.9,4.9V595.48a4.89,4.89,0,0,0,4.9,4.89H510.94a4.9,4.9,0,0,0,4.9-4.89V427.79A4.91,4.91,0,0,0,510.94,422.89Z" transform="translate(-200.17 -395.83)" style="fill: #fff"></path><path d="M602.19,430.12H212a4.23,4.23,0,0,0-4.23,4.23v375.8a4.23,4.23,0,0,0,4.23,4.23H602.19a4.24,4.24,0,0,0,4.23-4.23V434.35A4.24,4.24,0,0,0,602.19,430.12Z" transform="translate(-200.17 -395.83)" style="fill: #f1f3f5"></path><path d="M589.64,483.15H222.17V799.47H589.64Z" transform="translate(-200.17 -395.83)" style="fill: #fff"></path><path d="M234.31,493.6a1.65,1.65,0,0,1-.75-.16,1.21,1.21,0,0,1-.49-.43,1.29,1.29,0,0,1-.17-.65h.49a.88.88,0,0,0,.11.42.81.81,0,0,0,.3.31,1,1,0,0,0,.51.11.9.9,0,0,0,.62-.19.6.6,0,0,0,.22-.47.61.61,0,0,0-.38-.61,1.76,1.76,0,0,0-.39-.16l-.46-.15a1.69,1.69,0,0,1-.67-.39.88.88,0,0,1-.22-.61,1,1,0,0,1,.15-.55,1,1,0,0,1,.42-.38,1.53,1.53,0,0,1,.66-.14,1.45,1.45,0,0,1,.65.14,1,1,0,0,1,.43.38,1.11,1.11,0,0,1,.17.56H235a.6.6,0,0,0-.08-.31.67.67,0,0,0-.26-.27.87.87,0,0,0-.42-.1.82.82,0,0,0-.53.16.6.6,0,0,0-.2.47.51.51,0,0,0,.14.38,1.17,1.17,0,0,0,.4.23l.6.19a3.31,3.31,0,0,1,.5.24,1,1,0,0,1,.35.35,1.08,1.08,0,0,1,.12.54,1,1,0,0,1-.14.53,1.14,1.14,0,0,1-.44.4A1.5,1.5,0,0,1,234.31,493.6Zm3.21,0a1.35,1.35,0,0,1-.7-.18,1.27,1.27,0,0,1-.49-.51,1.52,1.52,0,0,1-.17-.76,1.56,1.56,0,0,1,.17-.77,1.18,1.18,0,0,1,.48-.51,1.43,1.43,0,0,1,.72-.18,1.33,1.33,0,0,1,.7.18,1.3,1.3,0,0,1,.45.48,1.41,1.41,0,0,1,.16.64s0,.08,0,.12v.14h-2.21a1.07,1.07,0,0,0,.15.53.78.78,0,0,0,.33.32.87.87,0,0,0,.42.1.85.85,0,0,0,.49-.13.75.75,0,0,0,.28-.37h.47a1.31,1.31,0,0,1-.43.65A1.24,1.24,0,0,1,237.52,493.6Zm0-2.51a1,1,0,0,0-.6.2.82.82,0,0,0-.29.6h1.74a.8.8,0,0,0-.26-.59A.85.85,0,0,0,237.52,491.09Zm1.94,2.44v-4h.47v4Zm2.49.07a1.39,1.39,0,0,1-.71-.18,1.24,1.24,0,0,1-.48-.51,1.53,1.53,0,0,1-.18-.76,1.57,1.57,0,0,1,.18-.77,1.18,1.18,0,0,1,.48-.51,1.43,1.43,0,0,1,.72-.18,1.27,1.27,0,0,1,.69.18,1.25,1.25,0,0,1,.46.48,1.4,1.4,0,0,1,.15.64v.26h-2.21a1.18,1.18,0,0,0,.14.53.92.92,0,0,0,.33.32.94.94,0,0,0,.43.1.82.82,0,0,0,.48-.13.77.77,0,0,0,.29-.37h.46a1.19,1.19,0,0,1-.43.65A1.22,1.22,0,0,1,242,493.6Zm0-2.51a1,1,0,0,0-.6.2.87.87,0,0,0-.3.6h1.75a.8.8,0,0,0-.26-.59A.87.87,0,0,0,242,491.09Zm3.21,2.51a1.48,1.48,0,0,1-.72-.18,1.34,1.34,0,0,1-.49-.51,1.72,1.72,0,0,1,0-1.53,1.34,1.34,0,0,1,.49-.51,1.48,1.48,0,0,1,.72-.18,1.33,1.33,0,0,1,.83.26,1.1,1.1,0,0,1,.43.69h-.48a.59.59,0,0,0-.28-.4.84.84,0,0,0-.5-.15.89.89,0,0,0-.45.12.93.93,0,0,0-.33.35,1.17,1.17,0,0,0-.13.59,1.16,1.16,0,0,0,.13.58,1,1,0,0,0,.33.36,1,1,0,0,0,.45.11.84.84,0,0,0,.5-.14.61.61,0,0,0,.28-.41h.48a1.15,1.15,0,0,1-.43.69A1.33,1.33,0,0,1,245.16,493.6Zm2.94-.07a.9.9,0,0,1-.6-.18.83.83,0,0,1-.22-.67v-1.53h-.48v-.39h.48l.06-.67h.41v.67h.82v.39h-.82v1.53a.47.47,0,0,0,.11.36.57.57,0,0,0,.37.09h.29v.4Zm1.35-3.39a.36.36,0,0,1-.24-.09.34.34,0,0,1,0-.46.36.36,0,0,1,.24-.09.32.32,0,1,1,0,.64Zm-.24,3.39v-2.77h.47v2.77Zm2.56.07a1.36,1.36,0,0,1-1.21-.68,1.71,1.71,0,0,1-.17-.77,1.54,1.54,0,0,1,.18-.77,1.29,1.29,0,0,1,.5-.51,1.41,1.41,0,0,1,.71-.18,1.35,1.35,0,0,1,.7.18,1.29,1.29,0,0,1,.5.51,1.54,1.54,0,0,1,.18.77,1.59,1.59,0,0,1-.18.77,1.36,1.36,0,0,1-.51.5A1.38,1.38,0,0,1,251.77,493.6Zm0-.4a.89.89,0,0,0,.45-.12.93.93,0,0,0,.33-.35,1.16,1.16,0,0,0,.13-.58,1.17,1.17,0,0,0-.13-.59.87.87,0,0,0-.77-.47.89.89,0,0,0-.45.12.86.86,0,0,0-.33.35,1.17,1.17,0,0,0-.13.59,1.16,1.16,0,0,0,.13.58.86.86,0,0,0,.33.35A.83.83,0,0,0,251.77,493.2Zm2,.33v-2.77h.43l0,.5a1,1,0,0,1,.38-.42,1.1,1.1,0,0,1,.57-.15,1.06,1.06,0,0,1,.79.3,1.26,1.26,0,0,1,.29.92v1.62h-.47V492c0-.58-.23-.87-.71-.87a.77.77,0,0,0-.6.27,1,1,0,0,0-.24.73v1.44Zm4.27.07a1.32,1.32,0,0,1-.83-.25,1,1,0,0,1-.38-.68h.48a.67.67,0,0,0,.23.38.78.78,0,0,0,.51.15.65.65,0,0,0,.43-.12.39.39,0,0,0,.14-.3.34.34,0,0,0-.18-.34,3.28,3.28,0,0,0-.51-.15,2.54,2.54,0,0,1-.45-.13.93.93,0,0,1-.37-.23.54.54,0,0,1-.16-.41.74.74,0,0,1,.27-.59,1.27,1.27,0,0,1,1.46,0,.89.89,0,0,1,.33.63h-.46a.47.47,0,0,0-.19-.33.62.62,0,0,0-.4-.12.68.68,0,0,0-.4.1.34.34,0,0,0-.13.28.31.31,0,0,0,.17.27,2.43,2.43,0,0,0,.48.16,3.15,3.15,0,0,1,.49.14.78.78,0,0,1,.38.24.64.64,0,0,1,.15.46.74.74,0,0,1-.28.62A1.17,1.17,0,0,1,258.08,493.6Z" transform="translate(-200.17 -395.83)" style="fill: #293b4a"></path><path d="M329.07,491h-50.8a.54.54,0,0,0-.54.54V494a.54.54,0,0,0,.54.54h50.8a.55.55,0,0,0,.55-.54v-2.51A.55.55,0,0,0,329.07,491Z" transform="translate(-200.17 -395.83)" style="fill: #627989"></path><path d="M485.87,491H447.92a.54.54,0,0,0-.54.54V494a.54.54,0,0,0,.54.54h37.95a.54.54,0,0,0,.54-.54v-2.51A.54.54,0,0,0,485.87,491Z" transform="translate(-200.17 -395.83)" style="fill: #627989"></path><path d="M485.87,510.34H447.92a.55.55,0,0,0-.54.55v2.5a.55.55,0,0,0,.54.55h37.95a.55.55,0,0,0,.54-.55v-2.5A.55.55,0,0,0,485.87,510.34Z" transform="translate(-200.17 -395.83)" style="fill: #627989"></path><path d="M409.94,491H338.51v9.24h71.43Z" transform="translate(-200.17 -395.83)" style="fill: #f1f3f5"></path><path d="M329.07,510.34h-50.8a.55.55,0,0,0-.54.55v2.5a.55.55,0,0,0,.54.55h50.8a.55.55,0,0,0,.55-.55v-2.5A.55.55,0,0,0,329.07,510.34Z" transform="translate(-200.17 -395.83)" style="fill: #627989"></path><path d="M409.94,510.34H338.51v9.24h71.43Z" transform="translate(-200.17 -395.83)" style="fill: #f1f3f5"></path><path d="M329.07,528.27h-50.8a.55.55,0,0,0-.54.55v2.5a.55.55,0,0,0,.54.55h50.8a.55.55,0,0,0,.55-.55v-2.5A.55.55,0,0,0,329.07,528.27Z" transform="translate(-200.17 -395.83)" style="fill: #627989"></path><path d="M334.15,673.82H286.92a.54.54,0,0,0-.55.54v2.5a.55.55,0,0,0,.55.55h47.23a.55.55,0,0,0,.55-.55v-2.5A.55.55,0,0,0,334.15,673.82Z" transform="translate(-200.17 -395.83)" style="fill: #627989"></path><path d="M334.15,683.67H286.92a.55.55,0,0,0-.55.55v2.5a.55.55,0,0,0,.55.55h47.23a.55.55,0,0,0,.55-.55v-2.5A.55.55,0,0,0,334.15,683.67Z" transform="translate(-200.17 -395.83)" style="fill: #627989"></path><path d="M334.15,714.74H286.92a.55.55,0,0,0-.55.55v2.5a.55.55,0,0,0,.55.55h47.23a.55.55,0,0,0,.55-.55v-2.5A.55.55,0,0,0,334.15,714.74Z" transform="translate(-200.17 -395.83)" style="fill: #627989"></path><path d="M334.15,724.61H286.92a.54.54,0,0,0-.55.54v2.5a.54.54,0,0,0,.55.55h47.23a.55.55,0,0,0,.55-.55v-2.5A.55.55,0,0,0,334.15,724.61Z" transform="translate(-200.17 -395.83)" style="fill: #627989"></path><path d="M334.15,760.07H286.92a.54.54,0,0,0-.55.55v2.5a.54.54,0,0,0,.55.54h47.23a.55.55,0,0,0,.55-.54v-2.5A.55.55,0,0,0,334.15,760.07Z" transform="translate(-200.17 -395.83)" style="fill: #627989"></path><path d="M334.15,769.93H286.92a.55.55,0,0,0-.55.55V773a.55.55,0,0,0,.55.55h47.23a.55.55,0,0,0,.55-.55v-2.5A.55.55,0,0,0,334.15,769.93Z" transform="translate(-200.17 -395.83)" style="fill: #627989"></path><path d="M395.83,673.82H348.59a.54.54,0,0,0-.54.54v2.5a.55.55,0,0,0,.54.55h47.24a.55.55,0,0,0,.54-.55v-2.5A.54.54,0,0,0,395.83,673.82Z" transform="translate(-200.17 -395.83)" style="fill: #627989"></path><path d="M395.83,683.67H348.59a.55.55,0,0,0-.54.55v2.5a.55.55,0,0,0,.54.55h47.24a.55.55,0,0,0,.54-.55v-2.5A.55.55,0,0,0,395.83,683.67Z" transform="translate(-200.17 -395.83)" style="fill: #627989"></path><path d="M395.83,714.74H348.59a.55.55,0,0,0-.54.55v2.5a.55.55,0,0,0,.54.55h47.24a.55.55,0,0,0,.54-.55v-2.5A.55.55,0,0,0,395.83,714.74Z" transform="translate(-200.17 -395.83)" style="fill: #627989"></path><path d="M395.83,724.61H348.59a.54.54,0,0,0-.54.54v2.5a.54.54,0,0,0,.54.55h47.24a.54.54,0,0,0,.54-.55v-2.5A.54.54,0,0,0,395.83,724.61Z" transform="translate(-200.17 -395.83)" style="fill: #627989"></path><path d="M395.83,760.07H348.59a.54.54,0,0,0-.54.55v2.5a.54.54,0,0,0,.54.54h47.24a.54.54,0,0,0,.54-.54v-2.5A.54.54,0,0,0,395.83,760.07Z" transform="translate(-200.17 -395.83)" style="fill: #627989"></path><path d="M395.83,769.93H348.59a.55.55,0,0,0-.54.55V773a.55.55,0,0,0,.54.55h47.24a.55.55,0,0,0,.54-.55v-2.5A.55.55,0,0,0,395.83,769.93Z" transform="translate(-200.17 -395.83)" style="fill: #627989"></path><path d="M457.38,673.82H410.15a.55.55,0,0,0-.55.54v2.5a.55.55,0,0,0,.55.55h47.23a.55.55,0,0,0,.55-.55v-2.5A.55.55,0,0,0,457.38,673.82Z" transform="translate(-200.17 -395.83)" style="fill: #627989"></path><path d="M457.38,683.67H410.15a.55.55,0,0,0-.55.55v2.5a.55.55,0,0,0,.55.55h47.23a.55.55,0,0,0,.55-.55v-2.5A.55.55,0,0,0,457.38,683.67Z" transform="translate(-200.17 -395.83)" style="fill: #627989"></path><path d="M457.38,714.74H410.15a.55.55,0,0,0-.55.55v2.5a.55.55,0,0,0,.55.55h47.23a.55.55,0,0,0,.55-.55v-2.5A.55.55,0,0,0,457.38,714.74Z" transform="translate(-200.17 -395.83)" style="fill: #627989"></path><path d="M457.38,724.61H410.15a.55.55,0,0,0-.55.54v2.5a.55.55,0,0,0,.55.55h47.23a.55.55,0,0,0,.55-.55v-2.5A.55.55,0,0,0,457.38,724.61Z" transform="translate(-200.17 -395.83)" style="fill: #627989"></path><path d="M457.38,760.07H410.15a.55.55,0,0,0-.55.55v2.5a.55.55,0,0,0,.55.54h47.23a.55.55,0,0,0,.55-.54v-2.5A.55.55,0,0,0,457.38,760.07Z" transform="translate(-200.17 -395.83)" style="fill: #627989"></path><path d="M457.38,769.93H410.15a.55.55,0,0,0-.55.55V773a.55.55,0,0,0,.55.55h47.23a.55.55,0,0,0,.55-.55v-2.5A.55.55,0,0,0,457.38,769.93Z" transform="translate(-200.17 -395.83)" style="fill: #627989"></path><path d="M520.45,673.82H473.21a.54.54,0,0,0-.54.54v2.5a.55.55,0,0,0,.54.55h47.24a.55.55,0,0,0,.54-.55v-2.5A.54.54,0,0,0,520.45,673.82Z" transform="translate(-200.17 -395.83)" style="fill: #627989"></path><path d="M520.45,683.67H473.21a.55.55,0,0,0-.54.55v2.5a.55.55,0,0,0,.54.55h47.24a.55.55,0,0,0,.54-.55v-2.5A.55.55,0,0,0,520.45,683.67Z" transform="translate(-200.17 -395.83)" style="fill: #627989"></path><path d="M520.45,714.74H473.21a.55.55,0,0,0-.54.55v2.5a.55.55,0,0,0,.54.55h47.24a.55.55,0,0,0,.54-.55v-2.5A.55.55,0,0,0,520.45,714.74Z" transform="translate(-200.17 -395.83)" style="fill: #627989"></path><path d="M520.45,724.61H473.21a.54.54,0,0,0-.54.54v2.5a.54.54,0,0,0,.54.55h47.24a.54.54,0,0,0,.54-.55v-2.5A.54.54,0,0,0,520.45,724.61Z" transform="translate(-200.17 -395.83)" style="fill: #627989"></path><path d="M520.45,760.07H473.21a.54.54,0,0,0-.54.55v2.5a.54.54,0,0,0,.54.54h47.24a.54.54,0,0,0,.54-.54v-2.5A.54.54,0,0,0,520.45,760.07Z" transform="translate(-200.17 -395.83)" style="fill: #627989"></path><path d="M520.45,769.93H473.21a.55.55,0,0,0-.54.55V773a.55.55,0,0,0,.54.55h47.24A.55.55,0,0,0,521,773v-2.5A.55.55,0,0,0,520.45,769.93Z" transform="translate(-200.17 -395.83)" style="fill: #627989"></path><path d="M578.43,673.82H531.2a.54.54,0,0,0-.54.54v2.5a.55.55,0,0,0,.54.55h47.23a.55.55,0,0,0,.55-.55v-2.5A.54.54,0,0,0,578.43,673.82Z" transform="translate(-200.17 -395.83)" style="fill: #627989"></path><path d="M578.43,683.67H531.2a.55.55,0,0,0-.54.55v2.5a.55.55,0,0,0,.54.55h47.23a.55.55,0,0,0,.55-.55v-2.5A.55.55,0,0,0,578.43,683.67Z" transform="translate(-200.17 -395.83)" style="fill: #627989"></path><path d="M578.43,714.74H531.2a.55.55,0,0,0-.54.55v2.5a.55.55,0,0,0,.54.55h47.23a.55.55,0,0,0,.55-.55v-2.5A.55.55,0,0,0,578.43,714.74Z" transform="translate(-200.17 -395.83)" style="fill: #627989"></path><path d="M578.43,724.61H531.2a.54.54,0,0,0-.54.54v2.5a.54.54,0,0,0,.54.55h47.23a.54.54,0,0,0,.55-.55v-2.5A.54.54,0,0,0,578.43,724.61Z" transform="translate(-200.17 -395.83)" style="fill: #627989"></path><path d="M578.43,760.07H531.2a.54.54,0,0,0-.54.55v2.5a.54.54,0,0,0,.54.54h47.23a.54.54,0,0,0,.55-.54v-2.5A.54.54,0,0,0,578.43,760.07Z" transform="translate(-200.17 -395.83)" style="fill: #627989"></path><path d="M578.43,769.93H531.2a.55.55,0,0,0-.54.55V773a.55.55,0,0,0,.54.55h47.23A.55.55,0,0,0,579,773v-2.5A.55.55,0,0,0,578.43,769.93Z" transform="translate(-200.17 -395.83)" style="fill: #627989"></path><path d="M409.94,528.27H338.51v9.25h71.43Z" transform="translate(-200.17 -395.83)" style="fill: #f1f3f5"></path><path d="M577.58,491H494.91v9.24h82.67Z" transform="translate(-200.17 -395.83)" style="fill: #f1f3f5"></path><path d="M577.58,510.34H494.91v9.24h82.67Z" transform="translate(-200.17 -395.83)" style="fill: #f1f3f5"></path><path d="M485.87,528.27H447.92a.55.55,0,0,0-.54.55v2.5a.55.55,0,0,0,.54.55h37.95a.55.55,0,0,0,.54-.55v-2.5A.55.55,0,0,0,485.87,528.27Z" transform="translate(-200.17 -395.83)" style="fill: #627989"></path><path d="M577.58,528.27H494.91v9.25h82.67Z" transform="translate(-200.17 -395.83)" style="fill: #f1f3f5"></path><path d="M485.87,546.21H447.92a.54.54,0,0,0-.54.54v2.5a.54.54,0,0,0,.54.55h37.95a.54.54,0,0,0,.54-.55v-2.5A.54.54,0,0,0,485.87,546.21Z" transform="translate(-200.17 -395.83)" style="fill: #627989"></path><path d="M577.58,546.21H494.91v9.24h82.67Z" transform="translate(-200.17 -395.83)" style="fill: #f1f3f5"></path><path d="M589.64,451.83H222.17v19.74H589.64Z" transform="translate(-200.17 -395.83)" style="fill: #fff"></path><path d="M235.29,464.68l1.09-3H237l1.09,3h-.58l-.24-.69H236.1l-.24.69Zm1-1.12h.86l-.43-1.23Zm2.2,2.05v-3h.48l.06.3a1.09,1.09,0,0,1,.27-.25.82.82,0,0,1,.44-.1,1,1,0,0,1,.53.14,1,1,0,0,1,.37.4,1.15,1.15,0,0,1,.14.57,1.2,1.2,0,0,1-.14.57,1.06,1.06,0,0,1-.37.39,1,1,0,0,1-.53.14.93.93,0,0,1-.42-.09.78.78,0,0,1-.29-.25v1.22Zm1.13-1.36a.58.58,0,0,0,.43-.17.6.6,0,0,0,.17-.45.61.61,0,0,0-.17-.46.55.55,0,0,0-.43-.18.57.57,0,0,0-.43.18.64.64,0,0,0-.17.45.65.65,0,0,0,.17.46A.6.6,0,0,0,239.58,464.25Zm1.64,1.36v-3h.49l.06.3a.89.89,0,0,1,.26-.25.84.84,0,0,1,.44-.1,1,1,0,0,1,.9.54,1.15,1.15,0,0,1,.14.57,1.2,1.2,0,0,1-.14.57,1.06,1.06,0,0,1-.37.39,1,1,0,0,1-.53.14.86.86,0,0,1-.41-.09.71.71,0,0,1-.29-.25v1.22Zm1.14-1.36a.61.61,0,0,0,.43-.17.64.64,0,0,0,.17-.45.65.65,0,0,0-.17-.46.58.58,0,0,0-.43-.18.59.59,0,0,0-.44.18.64.64,0,0,0-.16.45.65.65,0,0,0,.16.46A.62.62,0,0,0,242.36,464.25Zm1.64.43v-3.06h.54v3.06Zm1.39-2.44a.37.37,0,0,1-.25-.09.29.29,0,0,1-.09-.22.28.28,0,0,1,.09-.22.37.37,0,0,1,.25-.09.32.32,0,0,1,.24.09.26.26,0,0,1,.1.22.27.27,0,0,1-.1.22A.32.32,0,0,1,245.39,462.24Zm-.27,2.44v-2.11h.54v2.11Zm2.14.05a1.13,1.13,0,0,1-1-1.68,1,1,0,0,1,.39-.39,1.1,1.1,0,0,1,.57-.14,1.08,1.08,0,0,1,.68.21.91.91,0,0,1,.36.58h-.58a.41.41,0,0,0-.17-.24.48.48,0,0,0-.29-.09.5.5,0,0,0-.38.17.64.64,0,0,0-.16.47.68.68,0,0,0,.16.48.5.5,0,0,0,.38.17.48.48,0,0,0,.29-.09.41.41,0,0,0,.17-.24h.58a.91.91,0,0,1-.36.57A1,1,0,0,1,247.26,464.73Zm2.25,0a1,1,0,0,1-.45-.09.62.62,0,0,1-.11-1,1.08,1.08,0,0,1,.68-.18h.54v-.05a.41.41,0,0,0-.12-.32.46.46,0,0,0-.31-.1.55.55,0,0,0-.29.08.34.34,0,0,0-.15.23h-.53a.7.7,0,0,1,.15-.4.92.92,0,0,1,.35-.26,1.21,1.21,0,0,1,.48-.09,1.06,1.06,0,0,1,.71.22.82.82,0,0,1,.26.64v1.3h-.47l-.05-.34a.86.86,0,0,1-.26.28A.81.81,0,0,1,249.51,464.73Zm.12-.43a.43.43,0,0,0,.36-.15.7.7,0,0,0,.17-.38h-.47a.52.52,0,0,0-.31.08.25.25,0,0,0-.09.19.24.24,0,0,0,.09.2A.49.49,0,0,0,249.63,464.3Zm1.6.38v-2.11h.49l0,.36a.68.68,0,0,1,.28-.3.78.78,0,0,1,.44-.11.75.75,0,0,1,.6.24,1.06,1.06,0,0,1,.22.73v1.19h-.54v-1.14a.72.72,0,0,0-.11-.42.41.41,0,0,0-.35-.14.49.49,0,0,0-.38.16.69.69,0,0,0-.14.45v1.09Zm3.53,0a.86.86,0,0,1-.53-.16.72.72,0,0,1-.2-.58V463h-.36v-.45H254l.06-.57h.48v.57h.57V463h-.57V464a.29.29,0,0,0,.07.21.34.34,0,0,0,.23,0h.26v.47Zm1.88,0v-3h1.1a1.29,1.29,0,0,1,.59.12.8.8,0,0,1,.35.33.91.91,0,0,1,.11.47.88.88,0,0,1-.11.45.73.73,0,0,1-.34.33,1.33,1.33,0,0,1-.6.13h-.56v1.15Zm.54-1.6h.53a.55.55,0,0,0,.4-.12.45.45,0,0,0,.13-.34.45.45,0,0,0-.13-.35.55.55,0,0,0-.4-.13h-.53Zm2.93,1.65a1.06,1.06,0,0,1-.94-.53,1.21,1.21,0,0,1-.14-.58,1.05,1.05,0,0,1,.15-.57,1,1,0,0,1,.38-.39,1.06,1.06,0,0,1,.56-.14,1,1,0,0,1,.54.14,1,1,0,0,1,.39.39,1.15,1.15,0,0,1,.14.57,1.21,1.21,0,0,1-.14.58,1,1,0,0,1-.39.39A1.12,1.12,0,0,1,260.11,464.73Zm0-.47a.52.52,0,0,0,.37-.16.65.65,0,0,0,.16-.48.62.62,0,0,0-.16-.47.46.46,0,0,0-.36-.16.51.51,0,0,0-.38.16.66.66,0,0,0-.15.47.69.69,0,0,0,.15.48A.54.54,0,0,0,260.11,464.26Zm2.58.47a1.06,1.06,0,0,1-.94-.53,1.21,1.21,0,0,1-.14-.58,1.05,1.05,0,0,1,.15-.57,1,1,0,0,1,.38-.39,1.06,1.06,0,0,1,.56-.14,1,1,0,0,1,.54.14,1,1,0,0,1,.39.39,1.15,1.15,0,0,1,.14.57,1.21,1.21,0,0,1-.14.58,1.06,1.06,0,0,1-.94.53Zm0-.47a.52.52,0,0,0,.37-.16.65.65,0,0,0,.16-.48.62.62,0,0,0-.16-.47.48.48,0,0,0-.36-.16.51.51,0,0,0-.38.16.66.66,0,0,0-.15.47.69.69,0,0,0,.15.48A.54.54,0,0,0,262.69,464.26Zm1.57.42v-3.06h.54v3.06Z" transform="translate(-200.17 -395.83)" style="fill: #293b4a"></path><path d="M586.83,506.51a55.34,55.34,0,1,0-55.33-55.34A55.33,55.33,0,0,0,586.83,506.51Z" transform="translate(-200.17 -395.83)" style="fill: #f0f2f4"></path><path d="M588.3,471.81a20.38,20.38,0,1,0-20.37-20.37A20.37,20.37,0,0,0,588.3,471.81Z" transform="translate(-200.17 -395.83)" style="fill: #5273fd"></path><path d="M575.57,468.12a19.79,19.79,0,1,1,16.63-9.07l-1.39-.88a18.09,18.09,0,1,0-8.38,7,17,17,0,0,0,2.76-1.4l.89,1.38a20,20,0,0,1-10.5,3v-.07Z" transform="translate(-200.17 -395.83)" style="fill: #293b4a"></path><path d="M588.94,460.54l-1.16,1.15,18.08,18.09,1.16-1.16Z" transform="translate(-200.17 -395.83)" style="fill: #293b4a"></path><path d="M578.51,568.79H233.58v54H578.51Z" transform="translate(-200.17 -395.83)" style="fill: #f1f3f5"></path><path d="M403.49,574.18H238v43.24H403.49Z" transform="translate(-200.17 -395.83)" style="fill: #fff"></path><path d="M299.39,593.84l1.44-3.91h.5l1.44,3.91h-.5l-.36-1h-1.66l-.37,1Zm1-1.38h1.38l-.69-1.94-.7,1.94Z" transform="translate(-200.17 -395.83)" style="fill: #293b4a"></path><path d="M303.32,595.07v-4h.43l0,.46a1.27,1.27,0,0,1,.39-.37,1.09,1.09,0,0,1,.63-.16,1.29,1.29,0,0,1,.72.19,1.27,1.27,0,0,1,.48.52,1.74,1.74,0,0,1,0,1.5,1.18,1.18,0,0,1-.48.51,1.43,1.43,0,0,1-1.33,0,.89.89,0,0,1-.4-.39v1.7h-.48Zm1.43-1.57a.93.93,0,0,0,.5-.13.91.91,0,0,0,.33-.37,1.18,1.18,0,0,0,.13-.55,1.24,1.24,0,0,0-.13-.55.89.89,0,0,0-.33-.36.93.93,0,0,0-.5-.13.88.88,0,0,0-.49.13,1,1,0,0,0-.34.36,1.23,1.23,0,0,0-.12.55,1.2,1.2,0,0,0,.12.55.94.94,0,0,0,.34.37A.88.88,0,0,0,304.75,593.5Z" transform="translate(-200.17 -395.83)" style="fill: #293b4a"></path><path d="M306.84,595.07v-4h.42l.05.46a1.22,1.22,0,0,1,.38-.37,1.15,1.15,0,0,1,.64-.16,1.34,1.34,0,0,1,.72.19,1.42,1.42,0,0,1,.48.52,1.74,1.74,0,0,1,0,1.5,1.27,1.27,0,0,1-.49.51,1.31,1.31,0,0,1-.72.19,1.27,1.27,0,0,1-.6-.14.91.91,0,0,1-.41-.39v1.7h-.47Zm1.43-1.57a.88.88,0,0,0,.49-.13.94.94,0,0,0,.34-.37,1.18,1.18,0,0,0,.12-.55,1.23,1.23,0,0,0-.12-.55.91.91,0,0,0-.34-.36,1,1,0,0,0-1,0,.9.9,0,0,0-.34.36,1.23,1.23,0,0,0-.12.55,1.2,1.2,0,0,0,.12.55.9.9,0,0,0,.83.5Z" transform="translate(-200.17 -395.83)" style="fill: #293b4a"></path><path d="M310.35,593.84v-4h.47v4Z" transform="translate(-200.17 -395.83)" style="fill: #293b4a"></path><path d="M311.88,590.45a.34.34,0,0,1-.24-.09.32.32,0,0,1-.09-.23.3.3,0,0,1,.09-.23.32.32,0,0,1,.24-.09.33.33,0,0,1,.23.09.32.32,0,0,1,.09.23.31.31,0,0,1-.32.32Zm-.24,3.39v-2.77h.47v2.77Z" transform="translate(-200.17 -395.83)" style="fill: #293b4a"></path><path d="M314.2,593.91a1.41,1.41,0,0,1-.71-.18,1.36,1.36,0,0,1-.5-.51,1.55,1.55,0,0,1-.18-.76,1.59,1.59,0,0,1,.18-.77,1.36,1.36,0,0,1,.5-.51,1.41,1.41,0,0,1,.71-.18,1.33,1.33,0,0,1,.83.26,1.1,1.1,0,0,1,.43.69H315a.63.63,0,0,0-.27-.4,1,1,0,0,0-1,0,1,1,0,0,0-.33.36,1.13,1.13,0,0,0-.13.58,1.16,1.16,0,0,0,.13.58.86.86,0,0,0,.33.35,1,1,0,0,0,1,0,.6.6,0,0,0,.27-.4h.48a1.12,1.12,0,0,1-.42.68,1.32,1.32,0,0,1-.84.26Z" transform="translate(-200.17 -395.83)" style="fill: #293b4a"></path><path d="M317,593.91a1.28,1.28,0,0,1-.58-.12.79.79,0,0,1-.34-.31.88.88,0,0,1-.11-.42.78.78,0,0,1,.32-.66,1.54,1.54,0,0,1,.89-.23H318v0a.71.71,0,0,0-.19-.55.66.66,0,0,0-.51-.19.75.75,0,0,0-.47.14.62.62,0,0,0-.25.4h-.48a.85.85,0,0,1,.21-.51,1,1,0,0,1,.44-.32,1.47,1.47,0,0,1,.56-.11,1.13,1.13,0,0,1,.87.31,1.14,1.14,0,0,1,.3.83v1.7H318l0-.5a1.09,1.09,0,0,1-.34.4A1,1,0,0,1,317,593.91Zm.07-.4a.76.76,0,0,0,.46-.13,1,1,0,0,0,.3-.37,1.07,1.07,0,0,0,.1-.47h-.71a1,1,0,0,0-.59.14.48.48,0,0,0-.17.36.46.46,0,0,0,.16.35.69.69,0,0,0,.45.13Z" transform="translate(-200.17 -395.83)" style="fill: #293b4a"></path><path d="M320.16,593.84a.93.93,0,0,1-.6-.18.85.85,0,0,1-.22-.67v-1.52h-.48v-.4h.48l.06-.67h.41v.67h.82v.4h-.82V593a.47.47,0,0,0,.11.36.57.57,0,0,0,.37.09h.29v.4Z" transform="translate(-200.17 -395.83)" style="fill: #293b4a"></path><path d="M321.52,590.45a.34.34,0,0,1-.24-.09.32.32,0,0,1-.09-.23.3.3,0,0,1,.09-.23.32.32,0,0,1,.24-.09.33.33,0,0,1,.23.09.32.32,0,0,1,.09.23.31.31,0,0,1-.32.32Zm-.24,3.39v-2.77h.47v2.77Z" transform="translate(-200.17 -395.83)" style="fill: #293b4a"></path><path d="M323.83,593.91a1.38,1.38,0,0,1-.7-.18,1.27,1.27,0,0,1-.5-.5,1.59,1.59,0,0,1-.18-.77,1.44,1.44,0,0,1,.19-.77,1.34,1.34,0,0,1,.49-.51,1.41,1.41,0,0,1,.71-.18,1.39,1.39,0,0,1,.71.18,1.36,1.36,0,0,1,.5.51,1.57,1.57,0,0,1,.18.77,1.49,1.49,0,0,1-.19.77,1.27,1.27,0,0,1-.5.5A1.39,1.39,0,0,1,323.83,593.91Zm0-.4a.89.89,0,0,0,.45-.12,1,1,0,0,0,.34-.35,1.28,1.28,0,0,0,.12-.58,1.25,1.25,0,0,0-.12-.58.91.91,0,0,0-.34-.36.85.85,0,0,0-.44-.11.88.88,0,0,0-.45.11,1,1,0,0,0-.33.36,1.13,1.13,0,0,0-.13.58,1.16,1.16,0,0,0,.13.58.87.87,0,0,0,.77.47Z" transform="translate(-200.17 -395.83)" style="fill: #293b4a"></path><path d="M325.88,593.84v-2.77h.42l0,.5a1.05,1.05,0,0,1,.39-.42,1.08,1.08,0,0,1,.57-.15,1.06,1.06,0,0,1,.79.3,1.3,1.3,0,0,1,.29.92v1.62h-.47v-1.57q0-.87-.72-.87a.77.77,0,0,0-.59.26,1,1,0,0,0-.24.74v1.44Z" transform="translate(-200.17 -395.83)" style="fill: #293b4a"></path><path d="M330.14,593.91a1.32,1.32,0,0,1-.83-.25,1,1,0,0,1-.38-.68h.48a.62.62,0,0,0,.23.37.76.76,0,0,0,.51.16.63.63,0,0,0,.43-.12.38.38,0,0,0,.15-.3.34.34,0,0,0-.18-.34,4.13,4.13,0,0,0-.51-.15,3.81,3.81,0,0,1-.45-.13,1,1,0,0,1-.38-.24.54.54,0,0,1-.15-.4.74.74,0,0,1,.27-.59,1.08,1.08,0,0,1,.74-.24,1.12,1.12,0,0,1,.72.22.89.89,0,0,1,.33.63h-.46a.47.47,0,0,0-.19-.33.78.78,0,0,0-.8,0,.35.35,0,0,0-.13.28.31.31,0,0,0,.17.27,2.43,2.43,0,0,0,.48.16,3.94,3.94,0,0,1,.49.14.83.83,0,0,1,.38.24.65.65,0,0,1,.15.46.75.75,0,0,1-.29.62,1.17,1.17,0,0,1-.78.24Z" transform="translate(-200.17 -395.83)" style="fill: #293b4a"></path><path d="M333.92,593.84l-.81-2.77h.47l.59,2.17.65-2.17h.53l.65,2.17.58-2.17h.48l-.81,2.77h-.48l-.69-2.29-.68,2.29Z" transform="translate(-200.17 -395.83)" style="fill: #293b4a"></path><path d="M337.86,590.45a.31.31,0,0,1-.32-.32.3.3,0,0,1,.09-.23.32.32,0,0,1,.23-.09.3.3,0,0,1,.23.09.29.29,0,0,1,.1.23.32.32,0,0,1-.33.32Zm-.23,3.39v-2.77h.47v2.77Z" transform="translate(-200.17 -395.83)" style="fill: #293b4a"></path><path d="M340,593.84a.93.93,0,0,1-.6-.18.85.85,0,0,1-.22-.67v-1.52h-.48v-.4h.48l.06-.67h.41v.67h.82v.4h-.82V593a.47.47,0,0,0,.11.36.57.57,0,0,0,.37.09h.29v.4Z" transform="translate(-200.17 -395.83)" style="fill: #293b4a"></path><path d="M341.08,593.84v-4h.47v1.73a1,1,0,0,1,.4-.4,1.16,1.16,0,0,1,.56-.14,1,1,0,0,1,.77.3,1.3,1.3,0,0,1,.29.92v1.62h-.47v-1.57q0-.87-.69-.87a.82.82,0,0,0-.61.26,1,1,0,0,0-.25.74v1.44Z" transform="translate(-200.17 -395.83)" style="fill: #293b4a"></path><path d="M344.57,590.45a.32.32,0,0,1-.24-.09.32.32,0,0,1-.09-.23.3.3,0,0,1,.09-.23.32.32,0,0,1,.24-.09.33.33,0,0,1,.23.09.32.32,0,0,1,.09.23.31.31,0,0,1-.32.32Zm-.24,3.39v-2.77h.47v2.77Z" transform="translate(-200.17 -395.83)" style="fill: #293b4a"></path><path d="M345.62,593.84v-2.77H346l0,.5a1.05,1.05,0,0,1,.39-.42A1.08,1.08,0,0,1,347,591a1,1,0,0,1,.78.3,1.26,1.26,0,0,1,.3.92v1.62h-.47v-1.57q0-.87-.72-.87a.77.77,0,0,0-.59.26,1,1,0,0,0-.24.74v1.44Z" transform="translate(-200.17 -395.83)" style="fill: #293b4a"></path><path d="M351.36,593.91a1.32,1.32,0,0,1-.83-.25,1,1,0,0,1-.38-.68h.48a.67.67,0,0,0,.23.37.76.76,0,0,0,.51.16.68.68,0,0,0,.44-.12.41.41,0,0,0,.14-.3.34.34,0,0,0-.18-.34,3.28,3.28,0,0,0-.51-.15,3.81,3.81,0,0,1-.45-.13,1,1,0,0,1-.38-.24.54.54,0,0,1-.15-.4.74.74,0,0,1,.27-.59,1.1,1.1,0,0,1,.74-.24,1.12,1.12,0,0,1,.72.22.89.89,0,0,1,.33.63h-.46a.49.49,0,0,0-.18-.33.7.7,0,0,0-.42-.12.64.64,0,0,0-.39.1.35.35,0,0,0-.13.28.31.31,0,0,0,.17.27,2.43,2.43,0,0,0,.48.16,3.5,3.5,0,0,1,.49.14.83.83,0,0,1,.38.24.65.65,0,0,1,.15.46.77.77,0,0,1-.28.62,1.21,1.21,0,0,1-.78.24Z" transform="translate(-200.17 -395.83)" style="fill: #293b4a"></path><path d="M354.34,593.91a1.35,1.35,0,0,1-.7-.18,1.27,1.27,0,0,1-.49-.51,1.53,1.53,0,0,1-.18-.76,1.57,1.57,0,0,1,.18-.77,1.31,1.31,0,0,1,.48-.51,1.43,1.43,0,0,1,.72-.18,1.3,1.3,0,0,1,.7.18,1.15,1.15,0,0,1,.45.48,1.41,1.41,0,0,1,.16.64v.26h-2.21a1.07,1.07,0,0,0,.15.53.9.9,0,0,0,.75.42,1,1,0,0,0,.49-.13.75.75,0,0,0,.28-.37h.47a1.28,1.28,0,0,1-.43.64,1.25,1.25,0,0,1-.81.26Zm0-2.51a1,1,0,0,0-.59.2.8.8,0,0,0-.3.6h1.75a.8.8,0,0,0-.26-.59.87.87,0,0,0-.59-.21Z" transform="translate(-200.17 -395.83)" style="fill: #293b4a"></path><path d="M356.28,593.84v-4h.47v4Z" transform="translate(-200.17 -395.83)" style="fill: #293b4a"></path><path d="M358.77,593.91a1.39,1.39,0,0,1-.71-.18,1.31,1.31,0,0,1-.48-.51,1.53,1.53,0,0,1-.18-.76,1.68,1.68,0,0,1,.17-.77,1.33,1.33,0,0,1,.49-.51,1.43,1.43,0,0,1,.72-.18,1.33,1.33,0,0,1,.7.18,1.22,1.22,0,0,1,.45.48,1.4,1.4,0,0,1,.15.64v.26h-2.2a1.18,1.18,0,0,0,.14.53.89.89,0,0,0,.33.31,1,1,0,0,0,.43.11.9.9,0,0,0,.48-.13.77.77,0,0,0,.29-.37H360a1.17,1.17,0,0,1-.43.64,1.22,1.22,0,0,1-.8.26Zm0-2.51a1,1,0,0,0-.6.2.82.82,0,0,0-.29.6h1.74a.76.76,0,0,0-.26-.59.84.84,0,0,0-.59-.21Z" transform="translate(-200.17 -395.83)" style="fill: #293b4a"></path><path d="M362,593.91a1.39,1.39,0,0,1-.71-.18,1.29,1.29,0,0,1-.5-.51,1.45,1.45,0,0,1-.18-.76,1.59,1.59,0,0,1,.18-.77,1.29,1.29,0,0,1,.5-.51A1.41,1.41,0,0,1,362,591a1.33,1.33,0,0,1,.83.26,1.1,1.1,0,0,1,.43.69h-.48a.61.61,0,0,0-.28-.4.85.85,0,0,0-.51-.14.87.87,0,0,0-.44.11.91.91,0,0,0-.34.36,1.25,1.25,0,0,0-.12.58,1.28,1.28,0,0,0,.12.58.9.9,0,0,0,.78.47.85.85,0,0,0,.51-.14.61.61,0,0,0,.28-.4h.48a1.13,1.13,0,0,1-.43.68,1.27,1.27,0,0,1-.83.26Z" transform="translate(-200.17 -395.83)" style="fill: #293b4a"></path><path d="M364.91,593.84a.93.93,0,0,1-.6-.18.85.85,0,0,1-.22-.67v-1.52h-.48v-.4h.48l.06-.67h.41v.67h.82v.4h-.82V593a.47.47,0,0,0,.11.36.57.57,0,0,0,.37.09h.29v.4Z" transform="translate(-200.17 -395.83)" style="fill: #293b4a"></path><path d="M366.26,590.45a.31.31,0,0,1-.32-.32.3.3,0,0,1,.09-.23.32.32,0,0,1,.23-.09.3.3,0,0,1,.23.09.29.29,0,0,1,.1.23.32.32,0,0,1-.33.32Zm-.23,3.39v-2.77h.47v2.77Z" transform="translate(-200.17 -395.83)" style="fill: #293b4a"></path><path d="M368.58,593.91a1.38,1.38,0,0,1-.7-.18,1.27,1.27,0,0,1-.5-.5,1.59,1.59,0,0,1-.18-.77,1.54,1.54,0,0,1,.18-.77,1.36,1.36,0,0,1,.5-.51,1.41,1.41,0,0,1,.71-.18,1.39,1.39,0,0,1,.71.18,1.27,1.27,0,0,1,.49.51,1.46,1.46,0,0,1,.18.77,1.59,1.59,0,0,1-.18.77,1.27,1.27,0,0,1-.5.5A1.41,1.41,0,0,1,368.58,593.91Zm0-.4a.89.89,0,0,0,.45-.12,1,1,0,0,0,.34-.35,1.28,1.28,0,0,0,.12-.58,1.25,1.25,0,0,0-.12-.58.91.91,0,0,0-.34-.36.85.85,0,0,0-.44-.11.88.88,0,0,0-.45.11.83.83,0,0,0-.33.36,1.13,1.13,0,0,0-.13.58,1.16,1.16,0,0,0,.13.58.87.87,0,0,0,.77.47Z" transform="translate(-200.17 -395.83)" style="fill: #293b4a"></path><path d="M370.63,593.84v-2.77h.43l0,.5a1.05,1.05,0,0,1,.39-.42A1.1,1.1,0,0,1,372,591a1.06,1.06,0,0,1,.79.3,1.3,1.3,0,0,1,.29.92v1.62h-.47v-1.57q0-.87-.72-.87a.79.79,0,0,0-.59.26,1,1,0,0,0-.24.74v1.44Z" transform="translate(-200.17 -395.83)" style="fill: #293b4a"></path><path d="M374.89,593.91a1.32,1.32,0,0,1-.83-.25,1,1,0,0,1-.38-.68h.48a.67.67,0,0,0,.23.37.76.76,0,0,0,.51.16.68.68,0,0,0,.44-.12.41.41,0,0,0,.14-.3.34.34,0,0,0-.18-.34,3.28,3.28,0,0,0-.51-.15,3.81,3.81,0,0,1-.45-.13.85.85,0,0,1-.37-.24.54.54,0,0,1-.16-.4.72.72,0,0,1,.28-.59,1.05,1.05,0,0,1,.73-.24,1.17,1.17,0,0,1,.73.22.92.92,0,0,1,.32.63h-.46a.49.49,0,0,0-.18-.33.66.66,0,0,0-.41-.12.63.63,0,0,0-.39.1.34.34,0,0,0-.14.28.3.3,0,0,0,.18.27,2.11,2.11,0,0,0,.47.16,3.5,3.5,0,0,1,.49.14.78.78,0,0,1,.38.24.65.65,0,0,1,.15.46.77.77,0,0,1-.28.62,1.21,1.21,0,0,1-.78.24Z" transform="translate(-200.17 -395.83)" style="fill: #293b4a"></path><path d="M292.81,601.79v-4h.42l0,.46a1.32,1.32,0,0,1,.38-.36,1.14,1.14,0,0,1,.63-.17,1.28,1.28,0,0,1,1.21.72,1.66,1.66,0,0,1,.17.75,1.58,1.58,0,0,1-.17.74,1.36,1.36,0,0,1-.49.52,1.4,1.4,0,0,1-.72.19,1.34,1.34,0,0,1-.61-.14,1,1,0,0,1-.4-.39v1.69Zm1.43-1.57a.88.88,0,0,0,.49-.14.85.85,0,0,0,.34-.36,1.32,1.32,0,0,0,0-1.1.85.85,0,0,0-.34-.36.93.93,0,0,0-1,0,.79.79,0,0,0-.34.36,1.23,1.23,0,0,0,0,1.1.79.79,0,0,0,.34.36A.88.88,0,0,0,294.24,600.22Z" transform="translate(-200.17 -395.83)" style="fill: #293b4a"></path><path d="M297.57,600.62a1.33,1.33,0,0,1-1.2-.68,1.83,1.83,0,0,1,0-1.54,1.33,1.33,0,0,1,.49-.51,1.37,1.37,0,0,1,.72-.18,1.27,1.27,0,0,1,.69.18,1.15,1.15,0,0,1,.45.48,1.29,1.29,0,0,1,.16.64v.26h-2.21a1,1,0,0,0,.15.53.92.92,0,0,0,.33.32.87.87,0,0,0,.42.1.77.77,0,0,0,.78-.5h.46a1.28,1.28,0,0,1-.43.64,1.25,1.25,0,0,1-.81.26Zm0-2.51a.91.91,0,0,0-.6.21.83.83,0,0,0-.3.59h1.75a.8.8,0,0,0-.26-.59.87.87,0,0,0-.59-.21Z" transform="translate(-200.17 -395.83)" style="fill: #293b4a"></path><path d="M299.5,600.56v-2.78h.43l0,.5a1,1,0,0,1,.39-.41,1.11,1.11,0,0,1,.57-.16,1.06,1.06,0,0,1,.79.3,1.3,1.3,0,0,1,.29.92v1.63h-.47V599q0-.87-.72-.87a.79.79,0,0,0-.59.26,1,1,0,0,0-.24.74v1.44h-.47Z" transform="translate(-200.17 -395.83)" style="fill: #293b4a"></path><path d="M304,600.62a1.34,1.34,0,0,1-.72-.19,1.36,1.36,0,0,1-.49-.52,1.66,1.66,0,0,1-.17-.75,1.54,1.54,0,0,1,.18-.75,1.18,1.18,0,0,1,.48-.51,1.35,1.35,0,0,1,.73-.19,1.33,1.33,0,0,1,.6.14,1,1,0,0,1,.41.39v-1.72h.47v4H305l0-.46a1.27,1.27,0,0,1-.39.37,1.14,1.14,0,0,1-.63.16Zm.05-.4a.94.94,0,0,0,.5-.14.83.83,0,0,0,.33-.36,1.23,1.23,0,0,0,0-1.1.83.83,0,0,0-.33-.36.94.94,0,0,0-.5-.14.88.88,0,0,0-.49.14.83.83,0,0,0-.33.36,1.32,1.32,0,0,0,0,1.1.83.83,0,0,0,.33.36A.91.91,0,0,0,304,600.22Z" transform="translate(-200.17 -395.83)" style="fill: #293b4a"></path><path d="M306.5,597.17a.32.32,0,0,1-.23-.09.33.33,0,0,1-.1-.24.33.33,0,0,1,.66,0,.37.37,0,0,1-.1.24A.32.32,0,0,1,306.5,597.17Zm-.23,3.39v-2.78h.47v2.78Z" transform="translate(-200.17 -395.83)" style="fill: #293b4a"></path><path d="M307.55,600.56v-2.78H308l0,.5a1,1,0,0,1,.38-.41,1.11,1.11,0,0,1,.57-.16,1.06,1.06,0,0,1,.79.3,1.3,1.3,0,0,1,.29.92v1.63h-.47V599c0-.58-.23-.87-.71-.87a.79.79,0,0,0-.6.26,1,1,0,0,0-.24.74v1.44h-.47Z" transform="translate(-200.17 -395.83)" style="fill: #293b4a"></path><path d="M311.85,599.68a1.44,1.44,0,0,1-.43-.06l-.28.27.15.07.26.06.49.05a1.26,1.26,0,0,1,.8.26.73.73,0,0,1,.24.57.87.87,0,0,1-.13.46,1,1,0,0,1-.4.35,1.46,1.46,0,0,1-.7.14,2,2,0,0,1-.67-.1,1,1,0,0,1-.45-.29.79.79,0,0,1-.16-.5.88.88,0,0,1,.08-.34.87.87,0,0,1,.32-.35.68.68,0,0,1-.21-.11l-.16-.13v-.13l.47-.47a1,1,0,0,1-.2-1.23.88.88,0,0,1,.38-.36,1.32,1.32,0,0,1,.59-.13,1.23,1.23,0,0,1,.44.07h1v.35l-.52,0a.94.94,0,0,1,.17.54,1,1,0,0,1-.13.5,1,1,0,0,1-.38.36,1.21,1.21,0,0,1-.6.13Zm-.82,1.23a.45.45,0,0,0,.24.42,1.13,1.13,0,0,0,.58.14.93.93,0,0,0,.56-.15.49.49,0,0,0,.21-.41.4.4,0,0,0-.15-.31.81.81,0,0,0-.53-.15c-.21,0-.39,0-.54-.06a.67.67,0,0,0-.3.27.53.53,0,0,0-.07.25Zm.82-1.61a.7.7,0,0,0,.47-.15.58.58,0,0,0,.18-.45.53.53,0,0,0-.18-.44.72.72,0,0,0-.47-.15.73.73,0,0,0-.48.15.54.54,0,0,0-.18.44.58.58,0,0,0,.18.45A.73.73,0,0,0,311.85,599.3Z" transform="translate(-200.17 -395.83)" style="fill: #293b4a"></path><path d="M315.63,601.79l.68-1.5h-.16l-1.1-2.51h.51l.92,2.16,1-2.16h.49l-1.82,4Z" transform="translate(-200.17 -395.83)" style="fill: #293b4a"></path><path d="M319.44,600.62a1.49,1.49,0,0,1-.71-.17,1.29,1.29,0,0,1-.5-.51,1.59,1.59,0,0,1-.18-.77,1.49,1.49,0,0,1,.19-.77,1.29,1.29,0,0,1,.5-.51,1.38,1.38,0,0,1,.71-.17,1.48,1.48,0,0,1,.7.17,1.36,1.36,0,0,1,.5.51,1.59,1.59,0,0,1,.18.77,1.49,1.49,0,0,1-.19.77,1.29,1.29,0,0,1-.5.51A1.37,1.37,0,0,1,319.44,600.62Zm0-.4a.9.9,0,0,0,.78-.47,1.36,1.36,0,0,0,0-1.16,1,1,0,0,0-.33-.36,1,1,0,0,0-.45-.11.93.93,0,0,0-.44.11.91.91,0,0,0-.34.36,1.36,1.36,0,0,0,0,1.16.8.8,0,0,0,.33.35.88.88,0,0,0,.44.12Z" transform="translate(-200.17 -395.83)" style="fill: #293b4a"></path><path d="M322.49,600.62a1.07,1.07,0,0,1-.78-.29,1.31,1.31,0,0,1-.29-.93v-1.62h.47v1.57c0,.58.24.87.71.87a.79.79,0,0,0,.6-.26,1,1,0,0,0,.24-.74v-1.44h.47v2.78h-.42l0-.5a.89.89,0,0,1-.38.41,1.12,1.12,0,0,1-.58.16Z" transform="translate(-200.17 -395.83)" style="fill: #293b4a"></path><path d="M324.68,600.56v-2.78h.43l0,.53a.9.9,0,0,1,.39-.43,1.18,1.18,0,0,1,.65-.17v.5h-.13a1.09,1.09,0,0,0-.45.08.68.68,0,0,0-.33.3,1,1,0,0,0-.13.57v1.4Z" transform="translate(-200.17 -395.83)" style="fill: #293b4a"></path><path d="M328.48,597.17a.32.32,0,0,1-.23-.09.32.32,0,0,1-.09-.24.29.29,0,0,1,.09-.22.32.32,0,0,1,.23-.09.3.3,0,0,1,.23.09.27.27,0,0,1,.1.22.33.33,0,0,1-.1.24A.32.32,0,0,1,328.48,597.17Zm-.23,3.39v-2.78h.47v2.78Z" transform="translate(-200.17 -395.83)" style="fill: #293b4a"></path><path d="M329.53,600.56v-2.78H330l0,.5a1,1,0,0,1,.38-.41,1.11,1.11,0,0,1,.57-.16,1.06,1.06,0,0,1,.79.3,1.3,1.3,0,0,1,.29.92v1.63h-.47V599c0-.58-.24-.87-.71-.87a.79.79,0,0,0-.6.26,1,1,0,0,0-.24.74v1.44h-.47Z" transform="translate(-200.17 -395.83)" style="fill: #293b4a"></path><path d="M333.8,600.62a1.3,1.3,0,0,1-.83-.25,1,1,0,0,1-.39-.68h.48a.69.69,0,0,0,.24.38.77.77,0,0,0,.5.16.66.66,0,0,0,.44-.13.39.39,0,0,0,.14-.3.34.34,0,0,0-.18-.34,3.28,3.28,0,0,0-.51-.15,2.54,2.54,0,0,1-.45-.13.93.93,0,0,1-.37-.23.58.58,0,0,1-.16-.41A.72.72,0,0,1,333,598a1.05,1.05,0,0,1,.73-.24,1.15,1.15,0,0,1,.73.22.88.88,0,0,1,.32.63h-.46a.49.49,0,0,0-.18-.33.65.65,0,0,0-.41-.12.62.62,0,0,0-.39.11.34.34,0,0,0-.14.28.3.3,0,0,0,.18.26,1.7,1.7,0,0,0,.47.16,3.5,3.5,0,0,1,.49.14.86.86,0,0,1,.38.24.65.65,0,0,1,.15.46.74.74,0,0,1-.28.62,1.21,1.21,0,0,1-.78.24Z" transform="translate(-200.17 -395.83)" style="fill: #293b4a"></path><path d="M336.5,600.56a.88.88,0,0,1-.6-.19.84.84,0,0,1-.22-.66v-1.53h-.48v-.4h.48l.06-.67h.41v.67H337v.4h-.82v1.53a.46.46,0,0,0,.11.35.57.57,0,0,0,.37.09h.29v.41Z" transform="translate(-200.17 -395.83)" style="fill: #293b4a"></path><path d="M337.86,597.17a.34.34,0,0,1-.24-.09.32.32,0,0,1-.09-.24.29.29,0,0,1,.09-.22.32.32,0,0,1,.24-.09.33.33,0,0,1,.23.09.29.29,0,0,1,.09.22.36.36,0,0,1-.09.24A.33.33,0,0,1,337.86,597.17Zm-.24,3.39v-2.78h.47v2.78Z" transform="translate(-200.17 -395.83)" style="fill: #293b4a"></path><path d="M340,600.56a.84.84,0,0,1-.59-.19.81.81,0,0,1-.22-.66v-1.53h-.49v-.4h.49l.06-.67h.4v.67h.82v.4h-.82v1.53a.46.46,0,0,0,.11.35.59.59,0,0,0,.38.09h.29v.41Z" transform="translate(-200.17 -395.83)" style="fill: #293b4a"></path><path d="M342.09,600.62a1.1,1.1,0,0,1-.79-.29,1.31,1.31,0,0,1-.29-.93v-1.62h.48v1.57c0,.58.23.87.7.87a.8.8,0,0,0,.61-.26,1,1,0,0,0,.23-.74v-1.44h.48v2.78h-.43l0-.5a.89.89,0,0,1-.38.41,1.11,1.11,0,0,1-.57.16Z" transform="translate(-200.17 -395.83)" style="fill: #293b4a"></path><path d="M345.37,600.56a.86.86,0,0,1-.6-.19.84.84,0,0,1-.22-.66v-1.53h-.48v-.4h.48l.06-.67H345v.67h.82v.4H345v1.53a.42.42,0,0,0,.11.35.57.57,0,0,0,.37.09h.29v.41Z" transform="translate(-200.17 -395.83)" style="fill: #293b4a"></path><path d="M346.72,597.17a.32.32,0,0,1-.23-.09.32.32,0,0,1-.09-.24.29.29,0,0,1,.09-.22.32.32,0,0,1,.23-.09.3.3,0,0,1,.23.09.27.27,0,0,1,.1.22.33.33,0,0,1-.1.24A.3.3,0,0,1,346.72,597.17Zm-.23,3.39v-2.78H347v2.78Z" transform="translate(-200.17 -395.83)" style="fill: #293b4a"></path><path d="M349,600.62a1.45,1.45,0,0,1-.7-.17,1.29,1.29,0,0,1-.5-.51,1.74,1.74,0,0,1,0-1.54,1.36,1.36,0,0,1,.5-.51,1.41,1.41,0,0,1,.71-.17,1.52,1.52,0,0,1,.71.17,1.27,1.27,0,0,1,.49.51,1.49,1.49,0,0,1,.18.77,1.59,1.59,0,0,1-.18.77,1.29,1.29,0,0,1-.5.51A1.41,1.41,0,0,1,349,600.62Zm0-.4a.89.89,0,0,0,.45-.12.8.8,0,0,0,.33-.35,1.36,1.36,0,0,0,0-1.16.89.89,0,0,0-.33-.36,1,1,0,0,0-.44-.11,1,1,0,0,0-.45.11.91.91,0,0,0-.34.36,1.46,1.46,0,0,0,0,1.16.88.88,0,0,0,.34.35.86.86,0,0,0,.44.12Z" transform="translate(-200.17 -395.83)" style="fill: #293b4a"></path><path d="M351.09,600.56v-2.78h.42l0,.5a1,1,0,0,1,.39-.41,1.06,1.06,0,0,1,.57-.16,1,1,0,0,1,.78.3,1.26,1.26,0,0,1,.3.92v1.63h-.47V599q0-.87-.72-.87a.79.79,0,0,0-.6.26,1.11,1.11,0,0,0-.23.74v1.44h-.47Z" transform="translate(-200.17 -395.83)" style="fill: #293b4a"></path><path d="M354.09,597.89l.32-1.25h.52l-.51,1.25h-.33Z" transform="translate(-200.17 -395.83)" style="fill: #293b4a"></path><path d="M356.3,600.62a1.32,1.32,0,0,1-.83-.25,1,1,0,0,1-.38-.68h.48a.73.73,0,0,0,.23.38.82.82,0,0,0,.51.16.68.68,0,0,0,.44-.13.39.39,0,0,0,.14-.3.34.34,0,0,0-.18-.34,3.28,3.28,0,0,0-.51-.15,2.54,2.54,0,0,1-.45-.13,1,1,0,0,1-.38-.23.58.58,0,0,1-.15-.41.74.74,0,0,1,.27-.59,1.1,1.1,0,0,1,.74-.24,1.12,1.12,0,0,1,.72.22.89.89,0,0,1,.33.63h-.46a.49.49,0,0,0-.18-.33.7.7,0,0,0-.42-.12.65.65,0,0,0-.39.11.33.33,0,0,0-.13.28.3.3,0,0,0,.17.26,1.92,1.92,0,0,0,.48.16,3.5,3.5,0,0,1,.49.14.92.92,0,0,1,.38.24.65.65,0,0,1,.15.46.77.77,0,0,1-.28.62,1.21,1.21,0,0,1-.78.24Z" transform="translate(-200.17 -395.83)" style="fill: #293b4a"></path><path d="M359.52,600.56v-2.78h.42l0,.53a1,1,0,0,1,.39-.43,1.18,1.18,0,0,1,.65-.17v.5h-.13a1.12,1.12,0,0,0-.45.08.68.68,0,0,0-.33.3,1.14,1.14,0,0,0-.13.57v1.4h-.46Z" transform="translate(-200.17 -395.83)" style="fill: #293b4a"></path><path d="M362.69,600.62a1.39,1.39,0,0,1-.71-.18,1.36,1.36,0,0,1-.48-.5,1.59,1.59,0,0,1-.18-.77,1.71,1.71,0,0,1,.17-.77,1.33,1.33,0,0,1,.49-.51,1.43,1.43,0,0,1,.72-.18,1.33,1.33,0,0,1,.7.18,1.3,1.3,0,0,1,.45.48,1.4,1.4,0,0,1,.15.64v.26h-2.2a1.15,1.15,0,0,0,.14.53.92.92,0,0,0,.33.32.94.94,0,0,0,.43.1.82.82,0,0,0,.48-.13.77.77,0,0,0,.29-.37h.46a1.17,1.17,0,0,1-.43.64,1.24,1.24,0,0,1-.8.26Zm0-2.51a1,1,0,0,0-.6.21.78.78,0,0,0-.29.59h1.74a.76.76,0,0,0-.26-.59.85.85,0,0,0-.59-.21Z" transform="translate(-200.17 -395.83)" style="fill: #293b4a"></path><path d="M365.69,600.62a1.32,1.32,0,0,1-.83-.25,1,1,0,0,1-.39-.68H365a.67.67,0,0,0,.23.38.78.78,0,0,0,.51.16.63.63,0,0,0,.43-.13.37.37,0,0,0,.15-.3.35.35,0,0,0-.19-.34,3.28,3.28,0,0,0-.51-.15,2.71,2.71,0,0,1-.44-.13,1,1,0,0,1-.38-.23.58.58,0,0,1-.15-.41.74.74,0,0,1,.27-.59,1.08,1.08,0,0,1,.74-.24,1.14,1.14,0,0,1,.72.22.89.89,0,0,1,.33.63h-.47a.43.43,0,0,0-.18-.33.65.65,0,0,0-.41-.12.62.62,0,0,0-.39.11.34.34,0,0,0-.14.28.3.3,0,0,0,.18.26,1.92,1.92,0,0,0,.48.16,3.94,3.94,0,0,1,.49.14,1,1,0,0,1,.38.24.65.65,0,0,1,.15.46.75.75,0,0,1-.29.62,1.17,1.17,0,0,1-.78.24Z" transform="translate(-200.17 -395.83)" style="fill: #293b4a"></path><path d="M367.42,601.79v-4h.43l0,.46a1.37,1.37,0,0,1,.39-.36,1.09,1.09,0,0,1,.63-.17,1.38,1.38,0,0,1,.72.19,1.29,1.29,0,0,1,.48.53,1.54,1.54,0,0,1,.17.75,1.47,1.47,0,0,1-.17.74,1.27,1.27,0,0,1-.48.52,1.4,1.4,0,0,1-.72.19,1.34,1.34,0,0,1-.61-.14.94.94,0,0,1-.4-.39v1.69h-.48Zm1.43-1.57a.92.92,0,0,0,.5-.14.83.83,0,0,0,.33-.36,1.23,1.23,0,0,0,0-1.1.83.83,0,0,0-.33-.36.92.92,0,0,0-.5-.14.91.91,0,0,0-.49.14.83.83,0,0,0-.33.36,1.23,1.23,0,0,0,0,1.1.83.83,0,0,0,.33.36A.91.91,0,0,0,368.85,600.22Z" transform="translate(-200.17 -395.83)" style="fill: #293b4a"></path><path d="M372.2,600.62a1.45,1.45,0,0,1-.7-.17,1.29,1.29,0,0,1-.5-.51,1.74,1.74,0,0,1,0-1.54,1.36,1.36,0,0,1,.5-.51,1.41,1.41,0,0,1,.71-.17,1.52,1.52,0,0,1,.71.17,1.27,1.27,0,0,1,.49.51,1.49,1.49,0,0,1,.18.77,1.59,1.59,0,0,1-.18.77,1.36,1.36,0,0,1-.5.51A1.41,1.41,0,0,1,372.2,600.62Zm0-.4a.89.89,0,0,0,.45-.12.8.8,0,0,0,.33-.35,1.36,1.36,0,0,0,0-1.16.89.89,0,0,0-.33-.36,1,1,0,0,0-.44-.11,1,1,0,0,0-.45.11.91.91,0,0,0-.34.36,1.46,1.46,0,0,0,0,1.16.88.88,0,0,0,.34.35.86.86,0,0,0,.44.12Z" transform="translate(-200.17 -395.83)" style="fill: #293b4a"></path><path d="M374.25,600.56v-2.78h.42l0,.5a1,1,0,0,1,.39-.41,1.11,1.11,0,0,1,.57-.16,1.06,1.06,0,0,1,.79.3,1.3,1.3,0,0,1,.29.92v1.63h-.47V599q0-.87-.72-.87a.79.79,0,0,0-.59.26,1,1,0,0,0-.24.74v1.44h-.47Z" transform="translate(-200.17 -395.83)" style="fill: #293b4a"></path><path d="M378.51,600.62a1.32,1.32,0,0,1-.83-.25,1,1,0,0,1-.38-.68h.48a.67.67,0,0,0,.23.38.82.82,0,0,0,.51.16.68.68,0,0,0,.44-.13.39.39,0,0,0,.14-.3.34.34,0,0,0-.18-.34,3.28,3.28,0,0,0-.51-.15,2.54,2.54,0,0,1-.45-.13,1,1,0,0,1-.38-.23.58.58,0,0,1-.15-.41.74.74,0,0,1,.27-.59,1.08,1.08,0,0,1,.74-.24,1.12,1.12,0,0,1,.72.22.89.89,0,0,1,.33.63H379a.49.49,0,0,0-.18-.33.7.7,0,0,0-.42-.12.65.65,0,0,0-.39.11.33.33,0,0,0-.13.28.3.3,0,0,0,.17.26,1.92,1.92,0,0,0,.48.16,3.94,3.94,0,0,1,.49.14.92.92,0,0,1,.38.24.65.65,0,0,1,.15.46.77.77,0,0,1-.28.62,1.21,1.21,0,0,1-.78.24Z" transform="translate(-200.17 -395.83)" style="fill: #293b4a"></path><path d="M381.49,600.62a1.35,1.35,0,0,1-.7-.18,1.31,1.31,0,0,1-.49-.5,1.74,1.74,0,0,1,0-1.54,1.31,1.31,0,0,1,.48-.51,1.43,1.43,0,0,1,.72-.18,1.3,1.3,0,0,1,.7.18,1.15,1.15,0,0,1,.45.48,1.41,1.41,0,0,1,.16.64v.26H380.6a1,1,0,0,0,.15.53.92.92,0,0,0,.33.32,1,1,0,0,0,.91,0,.75.75,0,0,0,.28-.37h.47a1.28,1.28,0,0,1-.43.64,1.25,1.25,0,0,1-.81.26Zm0-2.51a.91.91,0,0,0-.59.21.76.76,0,0,0-.3.59h1.75a.8.8,0,0,0-.26-.59.87.87,0,0,0-.59-.21Z" transform="translate(-200.17 -395.83)" style="fill: #293b4a"></path><path d="M271.82,601.62a5.27,5.27,0,0,1-2.33-.49,4.12,4.12,0,0,1-1.59-1.32,4.45,4.45,0,0,1-.71-1.94h1.53a3,3,0,0,0,1,1.75,3.17,3.17,0,0,0,2.07.65,2.88,2.88,0,0,0,1.6-.43,2.84,2.84,0,0,0,1-1.19,3.78,3.78,0,0,0,.37-1.66,3.33,3.33,0,0,0-.82-2.35,2.78,2.78,0,0,0-2.13-.89,3.38,3.38,0,0,0-1.84.48,2.86,2.86,0,0,0-1.12,1.27h-1.49l1.11-7.16h6.85v1.36h-5.63l-.77,4a3.32,3.32,0,0,1,1.23-.89,4.46,4.46,0,0,1,1.83-.36,4.12,4.12,0,0,1,2.24.6,4.21,4.21,0,0,1,1.51,1.62,4.94,4.94,0,0,1,.54,2.33,5,5,0,0,1-.54,2.32,4.13,4.13,0,0,1-1.55,1.69A4.5,4.5,0,0,1,271.82,601.62Zm8.27-.23v-11.3l-2.11.47v-1.08l2.63-1.14h1.06v13Z" transform="translate(-200.17 -395.83)" style="fill: #293b4a"></path><path d="M574.13,574.18H408.61v43.24H574.13Z" transform="translate(-200.17 -395.83)" style="fill: #fff"></path><path d="M433.57,602a5.46,5.46,0,0,1-2.26-.45,3.88,3.88,0,0,1-1.62-1.38,4.33,4.33,0,0,1-.64-2.27h1.59a2.78,2.78,0,0,0,.78,1.93,2.82,2.82,0,0,0,2.15.81,2.65,2.65,0,0,0,2.07-.77,2.61,2.61,0,0,0,.7-1.84,2.45,2.45,0,0,0-.44-1.5,2.53,2.53,0,0,0-1.18-.85,4.34,4.34,0,0,0-1.6-.28h-1v-1.33h1a3,3,0,0,0,2-.58,1.93,1.93,0,0,0,.73-1.62,1.88,1.88,0,0,0-.58-1.43,2.2,2.2,0,0,0-1.67-.58,2.37,2.37,0,0,0-1.74.65,2.44,2.44,0,0,0-.73,1.6h-1.58a3.94,3.94,0,0,1,.56-1.88,3.49,3.49,0,0,1,1.42-1.27,4.39,4.39,0,0,1,2.07-.46,4.54,4.54,0,0,1,2.1.44,3.13,3.13,0,0,1,1.29,1.2,3.09,3.09,0,0,1,.45,1.64,3.23,3.23,0,0,1-.54,1.81,2.73,2.73,0,0,1-1.63,1.08,3.46,3.46,0,0,1,1.92,1.1,3.26,3.26,0,0,1,.77,2.26,4.11,4.11,0,0,1-.5,2,3.62,3.62,0,0,1-1.46,1.44A4.89,4.89,0,0,1,433.57,602Zm6.69-.23v-1.1c.88-.69,1.71-1.4,2.5-2.1a26.12,26.12,0,0,0,2.1-2.13,10,10,0,0,0,1.46-2,4.11,4.11,0,0,0,.54-1.94,3.44,3.44,0,0,0-.24-1.29,2,2,0,0,0-.75-.95,2.39,2.39,0,0,0-1.42-.37,2.48,2.48,0,0,0-1.43.39,2.34,2.34,0,0,0-.88,1,3.25,3.25,0,0,0-.28,1.36h-1.51a4.25,4.25,0,0,1,.54-2.2,3.59,3.59,0,0,1,1.47-1.42,4.58,4.58,0,0,1,2.11-.48,4.14,4.14,0,0,1,2.84,1,3.67,3.67,0,0,1,1.12,2.91,5.12,5.12,0,0,1-.58,2.3,12.17,12.17,0,0,1-1.48,2.18,18.69,18.69,0,0,1-1.92,2c-.67.61-1.3,1.15-1.88,1.64h6.3v1.3Zm15.31.23a5.16,5.16,0,0,1-2.33-.49,4,4,0,0,1-1.58-1.32,4.33,4.33,0,0,1-.71-1.94h1.53a3,3,0,0,0,1,1.75,3.2,3.2,0,0,0,2.07.65,2.69,2.69,0,0,0,2.63-1.62,3.62,3.62,0,0,0,.37-1.66,3.33,3.33,0,0,0-.82-2.35,2.75,2.75,0,0,0-2.12-.89,3.42,3.42,0,0,0-1.85.48,3,3,0,0,0-1.12,1.27h-1.49l1.12-7.16h6.84v1.36h-5.63l-.76,4a3.32,3.32,0,0,1,1.23-.89,4.39,4.39,0,0,1,1.83-.36,4.09,4.09,0,0,1,2.23.6,4.13,4.13,0,0,1,1.51,1.62,4.94,4.94,0,0,1,.54,2.33,5,5,0,0,1-.54,2.32,4,4,0,0,1-1.54,1.69A4.47,4.47,0,0,1,455.57,602Z" transform="translate(-200.17 -395.83)" style="fill: #293b4a"></path><path d="M561.59,632.88H235.73a.55.55,0,0,0-.54.55v2.5a.55.55,0,0,0,.54.55H561.59a.55.55,0,0,0,.55-.55v-2.5A.55.55,0,0,0,561.59,632.88Z" transform="translate(-200.17 -395.83)" style="fill: #f1f3f5"></path><path d="M482.34,642.16H235.73a.54.54,0,0,0-.54.54v2.51a.54.54,0,0,0,.54.54H482.34a.55.55,0,0,0,.55-.54V642.7A.55.55,0,0,0,482.34,642.16Z" transform="translate(-200.17 -395.83)" style="fill: #f1f3f5"></path><path d="M253.93,697.38a18.28,18.28,0,1,0-18.27-18.28A18.28,18.28,0,0,0,253.93,697.38Z" transform="translate(-200.17 -395.83)" style="fill: #ff340c"></path><path d="M255.24,741.76A18.28,18.28,0,1,0,237,723.48,18.28,18.28,0,0,0,255.24,741.76Z" transform="translate(-200.17 -395.83)" style="fill: #5273fd"></path><path d="M256.12,785.5a18.28,18.28,0,1,0-18.27-18.27A18.27,18.27,0,0,0,256.12,785.5Z" transform="translate(-200.17 -395.83)" style="fill: #19ad4a"></path><path d="M256.9,671.21v3.16l5.23,11.91a2.36,2.36,0,0,1-2.16,3.31H247.88a2.37,2.37,0,0,1-2.17-3.31L251,674.37v-3.16" transform="translate(-200.17 -395.83)" style="fill: none;stroke: #fff;stroke-miterlimit: 10;stroke-width: 0.4677959978580475px"></path><path d="M249.91,668.62h8" transform="translate(-200.17 -395.83)" style="fill: none;stroke: #fff;stroke-miterlimit: 10;stroke-width: 0.4677959978580475px"></path><path d="M247.79,681.52a9.09,9.09,0,0,0,1.69.9,5.32,5.32,0,0,0,2.37.41c2.76-.19,4.57-2.67,7.85-2.26" transform="translate(-200.17 -395.83)" style="fill: none;stroke: #fff;stroke-miterlimit: 10;stroke-width: 0.4677959978580475px"></path><path d="M249.91,671.38h8" transform="translate(-200.17 -395.83)" style="fill: none;stroke: #fff;stroke-miterlimit: 10;stroke-width: 0.4677959978580475px"></path><path d="M259.31,730.86v1.31" transform="translate(-200.17 -395.83)" style="fill: none;stroke: #fff;stroke-miterlimit: 10;stroke-width: 0.4677959978580475px"></path><path d="M253.34,732.17v-1.31" transform="translate(-200.17 -395.83)" style="fill: none;stroke: #fff;stroke-miterlimit: 10;stroke-width: 0.4677959978580475px"></path><path d="M249.89,732.78h12.7" transform="translate(-200.17 -395.83)" style="fill: none;stroke: #fff;stroke-miterlimit: 10;stroke-width: 0.4677959978580475px"></path><path d="M246.25,724.7v5.43h20.14" transform="translate(-200.17 -395.83)" style="fill: none;stroke: #fff;stroke-miterlimit: 10;stroke-width: 0.4677959978580475px"></path><path d="M247.43,728.58h19V717.3h-9.18" transform="translate(-200.17 -395.83)" style="fill: none;stroke: #fff;stroke-miterlimit: 10;stroke-width: 0.4677959978580475px"></path><path d="M249.52,725.54V723.6" transform="translate(-200.17 -395.83)" style="fill: none;stroke: #fff;stroke-miterlimit: 10;stroke-width: 0.4677959978580475px"></path><path d="M250.55,725.54V723" transform="translate(-200.17 -395.83)" style="fill: none;stroke: #fff;stroke-miterlimit: 10;stroke-width: 0.4677959978580475px"></path><path d="M251.59,725.54v-3.3" transform="translate(-200.17 -395.83)" style="fill: none;stroke: #fff;stroke-miterlimit: 10;stroke-width: 0.4677959978580475px"></path><path d="M252.62,725.54v-4" transform="translate(-200.17 -395.83)" style="fill: none;stroke: #fff;stroke-miterlimit: 10;stroke-width: 0.4677959978580475px"></path><path d="M249.05,726.16h4.16" transform="translate(-200.17 -395.83)" style="fill: none;stroke: #fff;stroke-miterlimit: 10;stroke-width: 0.4677959978580475px"></path><path d="M261.75,722.74a1.45,1.45,0,1,0-1.45-1.45A1.44,1.44,0,0,0,261.75,722.74Z" transform="translate(-200.17 -395.83)" style="fill: none;stroke: #fff;stroke-miterlimit: 10;stroke-width: 0.4677959978580475px"></path><path d="M256.71,722.57h-1.95" transform="translate(-200.17 -395.83)" style="fill: none;stroke: #fff;stroke-miterlimit: 10;stroke-width: 0.4677959978580475px"></path><path d="M256.71,721.46h-1.95" transform="translate(-200.17 -395.83)" style="fill: none;stroke: #fff;stroke-miterlimit: 10;stroke-width: 0.4677959978580475px"></path><path d="M256.71,720.35h-1.95" transform="translate(-200.17 -395.83)" style="fill: none;stroke: #fff;stroke-miterlimit: 10;stroke-width: 0.4677959978580475px"></path><path d="M257.41,721.46h2.16" transform="translate(-200.17 -395.83)" style="fill: none;stroke: #fff;stroke-miterlimit: 10;stroke-width: 0.4677959978580475px"></path><path d="M257.41,722.57h1.06v-2.22h-1.06" transform="translate(-200.17 -395.83)" style="fill: none;stroke: #fff;stroke-miterlimit: 10;stroke-width: 0.4677959978580475px"></path><path d="M254.76,726.19h8.83" transform="translate(-200.17 -395.83)" style="fill: none;stroke: #fff;stroke-miterlimit: 10;stroke-width: 0.4677959978580475px"></path><path d="M254.76,725h8.83" transform="translate(-200.17 -395.83)" style="fill: none;stroke: #fff;stroke-miterlimit: 10;stroke-width: 0.4677959978580475px"></path><path d="M245.65,723.7a2.67,2.67,0,0,1-2.73-.14l2-1.12-.68-1.21-2,1.11a2.67,2.67,0,0,1,1.31-2.4,2.09,2.09,0,0,1,2.16.08l6.54-3.65a2.09,2.09,0,0,1,1.06-1.87,2.65,2.65,0,0,1,2.73.14l-2,1.11.68,1.22,2-1.11a2.67,2.67,0,0,1-1.31,2.4,2.05,2.05,0,0,1-2.15-.09l-6.55,3.65a2.07,2.07,0,0,1-1.06,1.88Z" transform="translate(-200.17 -395.83)" style="fill: none;stroke: #fff;stroke-miterlimit: 10;stroke-width: 0.4677959978580475px"></path><path d="M253.48,716.87l-8.11,4.52" transform="translate(-200.17 -395.83)" style="fill: none;stroke: #fff;stroke-miterlimit: 10;stroke-width: 0.4677959978580475px"></path><path d="M250.15,765.8a4.43,4.43,0,1,0-4.43-4.42A4.42,4.42,0,0,0,250.15,765.8Z" transform="translate(-200.17 -395.83)" style="fill: none;stroke: #fff;stroke-miterlimit: 10;stroke-width: 0.4677959978580475px"></path><path d="M250.15,763.33a2,2,0,1,0-2-2A1.95,1.95,0,0,0,250.15,763.33Z" transform="translate(-200.17 -395.83)" style="fill: none;stroke: #fff;stroke-miterlimit: 10;stroke-width: 0.4677959978580475px"></path><path d="M261.17,765.8a4.43,4.43,0,1,0-4.43-4.42A4.43,4.43,0,0,0,261.17,765.8Z" transform="translate(-200.17 -395.83)" style="fill: none;stroke: #fff;stroke-miterlimit: 10;stroke-width: 0.4677959978580475px"></path><path d="M261.17,763.33a2,2,0,1,0-1.95-2A1.95,1.95,0,0,0,261.17,763.33Z" transform="translate(-200.17 -395.83)" style="fill: none;stroke: #fff;stroke-miterlimit: 10;stroke-width: 0.4677959978580475px"></path><path d="M261.17,767.42H249.72v6.27h11.45Z" transform="translate(-200.17 -395.83)" style="fill: none;stroke: #fff;stroke-miterlimit: 10;stroke-width: 0.4677959978580475px"></path><path d="M248.82,771.2h-1.48v-2.08h1.48" transform="translate(-200.17 -395.83)" style="fill: none;stroke: #fff;stroke-miterlimit: 10;stroke-width: 0.4677959978580475px"></path><path d="M262.22,769.12h1.48v2.08h-1.48" transform="translate(-200.17 -395.83)" style="fill: none;stroke: #fff;stroke-miterlimit: 10;stroke-width: 0.4677959978580475px"></path><path d="M263.7,769.12l2.82-2.81v7.51l-2.72-2.71" transform="translate(-200.17 -395.83)" style="fill: none;stroke: #fff;stroke-miterlimit: 10;stroke-width: 0.4677959978580475px"></path><path d="M252.86,777.5l1.92-1.92h2.33l1.78,1.77" transform="translate(-200.17 -395.83)" style="fill: none;stroke: #fff;stroke-miterlimit: 10;stroke-width: 0.4677959978580475px"></path><path d="M466.48,596.83v-3.47h-1.15V593h2.76v.38h-1.15v3.47Zm2.89.07a1.37,1.37,0,0,1-.69-.18,1.28,1.28,0,0,1-.49-.49,1.55,1.55,0,0,1-.17-.76,1.49,1.49,0,0,1,.18-.75,1.18,1.18,0,0,1,.49-.5,1.43,1.43,0,0,1,1.39,0,1.16,1.16,0,0,1,.48.5,1.49,1.49,0,0,1,.18.75,1.55,1.55,0,0,1-.18.76,1.22,1.22,0,0,1-.49.49A1.38,1.38,0,0,1,469.37,596.9Zm0-.4a.82.82,0,0,0,.44-.11.8.8,0,0,0,.33-.35,1.31,1.31,0,0,0,0-1.14.78.78,0,0,0-.32-.35.84.84,0,0,0-.43-.11.82.82,0,0,0-.44.11.8.8,0,0,0-.33.35,1.31,1.31,0,0,0,0,1.14.8.8,0,0,0,.75.46Zm3,.33a.89.89,0,0,1-.59-.18.83.83,0,0,1-.22-.65v-1.5h-.47v-.39h.47l.06-.66H472v.66h.8v.39H472V596a.46.46,0,0,0,.1.35.57.57,0,0,0,.37.09h.28v.39Zm1.95.07a1.19,1.19,0,0,1-.56-.12.72.72,0,0,1-.34-.3.88.88,0,0,1-.11-.42.74.74,0,0,1,.32-.64,1.47,1.47,0,0,1,.87-.23h.74v0a.74.74,0,0,0-.19-.54.66.66,0,0,0-.5-.19.82.82,0,0,0-.47.14.57.57,0,0,0-.24.39h-.47a.83.83,0,0,1,.19-.5,1.14,1.14,0,0,1,.44-.31,1.42,1.42,0,0,1,.55-.11,1.1,1.1,0,0,1,.86.31,1.13,1.13,0,0,1,.29.81v1.67h-.41l0-.49a1.09,1.09,0,0,1-.34.4A1,1,0,0,1,474.31,596.9Zm.07-.39a.78.78,0,0,0,.46-.14.94.94,0,0,0,.29-.36,1.19,1.19,0,0,0,.1-.46h-.7a1,1,0,0,0-.58.14.43.43,0,0,0-.16.35.42.42,0,0,0,.15.34A.66.66,0,0,0,474.38,596.51Zm2,.32v-4h.46v4Zm3.58.07a1.19,1.19,0,0,1-.56-.12.77.77,0,0,1-.34-.3.88.88,0,0,1-.11-.42.74.74,0,0,1,.32-.64,1.47,1.47,0,0,1,.87-.23h.74v0a.74.74,0,0,0-.19-.54.65.65,0,0,0-.5-.19.82.82,0,0,0-.47.14.57.57,0,0,0-.24.39H479a.89.89,0,0,1,.19-.5,1.14,1.14,0,0,1,.44-.31,1.42,1.42,0,0,1,.55-.11,1.1,1.1,0,0,1,.86.31,1.13,1.13,0,0,1,.29.81v1.67h-.41l0-.49a1.09,1.09,0,0,1-.34.4A1,1,0,0,1,480,596.9Zm.08-.39a.77.77,0,0,0,.45-.14.94.94,0,0,0,.29-.36,1.19,1.19,0,0,0,.1-.46h-.7a1,1,0,0,0-.58.14.43.43,0,0,0-.16.35.42.42,0,0,0,.15.34A.67.67,0,0,0,480,596.51Zm2,1.53v-3.93h.42l0,.45a1.47,1.47,0,0,1,.38-.36,1.08,1.08,0,0,1,.62-.16,1.26,1.26,0,0,1,.71.19,1.16,1.16,0,0,1,.47.51,1.5,1.5,0,0,1,.17.74,1.46,1.46,0,0,1-.17.73,1.28,1.28,0,0,1-.47.51,1.36,1.36,0,0,1-.71.18,1.33,1.33,0,0,1-.6-.14,1,1,0,0,1-.4-.38V598Zm1.41-1.54a.86.86,0,0,0,.48-.13,1,1,0,0,0,.33-.36,1.13,1.13,0,0,0,.12-.54,1.19,1.19,0,0,0-.12-.54.91.91,0,0,0-1.62,0,1.2,1.2,0,0,0-.13.54,1.13,1.13,0,0,0,.13.54,1,1,0,0,0,.33.36A.86.86,0,0,0,483.44,596.5Zm2.05,1.54v-3.93h.41l.05.45a1.41,1.41,0,0,1,.37-.36A1.14,1.14,0,0,1,487,594a1.28,1.28,0,0,1,.71.19,1.22,1.22,0,0,1,.47.51,1.61,1.61,0,0,1,.17.74,1.57,1.57,0,0,1-.17.73,1.24,1.24,0,0,1-.48.51,1.36,1.36,0,0,1-.71.18,1.33,1.33,0,0,1-.6-.14,1,1,0,0,1-.39-.38V598Zm1.4-1.54a.88.88,0,0,0,.49-.13,1,1,0,0,0,.33-.36,1.13,1.13,0,0,0,.12-.54,1.19,1.19,0,0,0-.12-.54,1,1,0,0,0-.33-.36,1,1,0,0,0-.49-.13.88.88,0,0,0-.81.49,1.19,1.19,0,0,0-.12.54,1.13,1.13,0,0,0,.12.54,1,1,0,0,0,.33.36A.86.86,0,0,0,486.89,596.5Zm2.05.33v-4h.46v4Zm1.5-3.33a.31.31,0,0,1-.32-.32.29.29,0,0,1,.09-.22.32.32,0,0,1,.23-.09.29.29,0,0,1,.22.09.27.27,0,0,1,.1.22.29.29,0,0,1-.1.23A.29.29,0,0,1,490.44,593.5Zm-.23,3.33v-2.72h.46v2.72Zm2.52.07a1.41,1.41,0,0,1-.71-.18,1.38,1.38,0,0,1-.49-.5,1.6,1.6,0,0,1-.17-.75,1.63,1.63,0,0,1,.17-.75,1.47,1.47,0,0,1,.49-.5,1.41,1.41,0,0,1,.71-.18,1.28,1.28,0,0,1,.81.25,1.1,1.1,0,0,1,.43.68h-.48a.55.55,0,0,0-.27-.39.84.84,0,0,0-.5-.14.81.81,0,0,0-.43.11.8.8,0,0,0-.33.35,1.31,1.31,0,0,0,0,1.14.8.8,0,0,0,.33.35.82.82,0,0,0,.43.12.92.92,0,0,0,.5-.14.57.57,0,0,0,.27-.4H494a1.11,1.11,0,0,1-.42.67A1.34,1.34,0,0,1,492.73,596.9Zm2.79,0a1.2,1.2,0,0,1-.57-.12.69.69,0,0,1-.33-.3.78.78,0,0,1-.11-.42.72.72,0,0,1,.32-.64,1.46,1.46,0,0,1,.86-.23h.74v0a.7.7,0,0,0-.19-.54.65.65,0,0,0-.5-.19.78.78,0,0,0-.46.14.62.62,0,0,0-.25.39h-.47a.9.9,0,0,1,.2-.5,1.1,1.1,0,0,1,.43-.31,1.5,1.5,0,0,1,.55-.11,1,1,0,0,1,1.15,1.12v1.67h-.41l0-.49a1,1,0,0,1-.34.4A.94.94,0,0,1,495.52,596.9Zm.07-.39a.73.73,0,0,0,.45-.14.79.79,0,0,0,.29-.36,1,1,0,0,0,.1-.46h-.7a.91.91,0,0,0-.57.14.44.44,0,0,0-.17.35.42.42,0,0,0,.15.34A.69.69,0,0,0,495.59,596.51Zm3,.32a.89.89,0,0,1-.59-.18.83.83,0,0,1-.21-.65v-1.5h-.48v-.39h.48l.06-.66h.4v.66h.8v.39h-.8V596a.46.46,0,0,0,.1.35.59.59,0,0,0,.37.09H499v.39Zm1.33-3.33a.31.31,0,0,1-.32-.32.29.29,0,0,1,.09-.22.32.32,0,0,1,.23-.09.29.29,0,0,1,.22.09.27.27,0,0,1,.1.22.29.29,0,0,1-.1.23A.29.29,0,0,1,499.92,593.5Zm-.23,3.33v-2.72h.46v2.72Zm2.51.07a1.38,1.38,0,0,1-.7-.18,1.35,1.35,0,0,1-.49-.49,1.67,1.67,0,0,1-.17-.76,1.49,1.49,0,0,1,.18-.75,1.18,1.18,0,0,1,.49-.5,1.38,1.38,0,0,1,.7-.18,1.34,1.34,0,0,1,.69.18,1.18,1.18,0,0,1,.49.5,1.49,1.49,0,0,1,.18.75,1.55,1.55,0,0,1-.18.76,1.31,1.31,0,0,1-.5.49A1.37,1.37,0,0,1,502.2,596.9Zm0-.4a.87.87,0,0,0,.44-.11A.93.93,0,0,0,503,596a1.41,1.41,0,0,0,0-1.14.8.8,0,0,0-.33-.35.81.81,0,0,0-.43-.11.82.82,0,0,0-.44.11.8.8,0,0,0-.33.35,1.31,1.31,0,0,0,0,1.14.8.8,0,0,0,.76.46Zm2,.33v-2.72h.42l0,.49a1,1,0,0,1,.38-.41,1.1,1.1,0,0,1,.57-.15,1,1,0,0,1,.77.3,1.23,1.23,0,0,1,.29.9v1.59h-.47v-1.54c0-.57-.23-.85-.7-.85a.78.78,0,0,0-.59.25,1.08,1.08,0,0,0-.23.73v1.41Zm4.19.07a1.26,1.26,0,0,1-.81-.25.92.92,0,0,1-.38-.67h.47a.73.73,0,0,0,.23.38.76.76,0,0,0,.5.15.67.67,0,0,0,.43-.12.39.39,0,0,0,.13-.3.34.34,0,0,0-.18-.33,3.11,3.11,0,0,0-.5-.15,3.6,3.6,0,0,1-.44-.12,1.23,1.23,0,0,1-.37-.23.58.58,0,0,1-.15-.41.73.73,0,0,1,.27-.58,1.09,1.09,0,0,1,.72-.23,1.08,1.08,0,0,1,.71.22.85.85,0,0,1,.33.62h-.46a.49.49,0,0,0-.18-.33.62.62,0,0,0-.4-.12.65.65,0,0,0-.39.11.35.35,0,0,0-.13.27.29.29,0,0,0,.17.26,2.43,2.43,0,0,0,.48.16,3.64,3.64,0,0,1,.47.14.9.9,0,0,1,.38.23.64.64,0,0,1,.15.45.75.75,0,0,1-.28.61A1.16,1.16,0,0,1,508.4,596.9Zm3.71-.07-.8-2.72h.47l.57,2.14.64-2.14h.52l.65,2.14.57-2.14h.47l-.8,2.72h-.47l-.67-2.25-.67,2.25ZM516,593.5a.31.31,0,0,1-.32-.32.29.29,0,0,1,.09-.22.32.32,0,0,1,.23-.09.29.29,0,0,1,.22.09.27.27,0,0,1,.1.22.29.29,0,0,1-.1.23A.29.29,0,0,1,516,593.5Zm-.23,3.33v-2.72h.46v2.72Zm2.34,0a.9.9,0,0,1-.59-.18.83.83,0,0,1-.21-.65v-1.5h-.47v-.39h.47l.06-.66h.4v.66h.8v.39h-.8V596a.46.46,0,0,0,.11.35.56.56,0,0,0,.36.09h.29v.39Zm1,0v-4h.46v1.7a1.21,1.21,0,0,1,.39-.39,1.18,1.18,0,0,1,.55-.14,1,1,0,0,1,.76.3,1.23,1.23,0,0,1,.29.9v1.59h-.46v-1.54c0-.57-.23-.85-.68-.85a.79.79,0,0,0-.6.25,1,1,0,0,0-.25.73v1.41Zm3.43-3.33a.31.31,0,0,1-.32-.32.29.29,0,0,1,.09-.22.32.32,0,0,1,.23-.09.29.29,0,0,1,.22.09.27.27,0,0,1,.1.22.29.29,0,0,1-.1.23A.29.29,0,0,1,522.58,593.5Zm-.23,3.33v-2.72h.46v2.72Zm1.26,0v-2.72H524l0,.49a.94.94,0,0,1,.38-.41A1,1,0,0,1,525,594a1,1,0,0,1,.77.3,1.19,1.19,0,0,1,.29.9v1.59h-.46v-1.54c0-.57-.23-.85-.7-.85a.76.76,0,0,0-.59.25,1,1,0,0,0-.23.73v1.41Zm5.65.07a1.28,1.28,0,0,1-.81-.25,1,1,0,0,1-.38-.67h.47a.73.73,0,0,0,.23.38.76.76,0,0,0,.5.15.65.65,0,0,0,.43-.12.39.39,0,0,0,.13-.3.34.34,0,0,0-.18-.33,2.81,2.81,0,0,0-.5-.15l-.44-.12a1.37,1.37,0,0,1-.37-.23.62.62,0,0,1-.14-.41.72.72,0,0,1,.26-.58,1.26,1.26,0,0,1,1.44,0,.88.88,0,0,1,.32.62h-.46a.46.46,0,0,0-.18-.33.72.72,0,0,0-.78,0,.33.33,0,0,0-.14.27.29.29,0,0,0,.17.26,2.43,2.43,0,0,0,.48.16,3.36,3.36,0,0,1,.48.14.93.93,0,0,1,.37.23.64.64,0,0,1,.15.45.75.75,0,0,1-.28.61A1.15,1.15,0,0,1,529.26,596.9Zm2.93,0a1.31,1.31,0,0,1-.69-.18,1.28,1.28,0,0,1-.48-.5,1.6,1.6,0,0,1-.17-.75,1.63,1.63,0,0,1,.17-.75,1.28,1.28,0,0,1,.48-.5,1.36,1.36,0,0,1,.71-.18,1.25,1.25,0,0,1,.68.18,1.3,1.3,0,0,1,.6,1.1.49.49,0,0,1,0,.12v.13h-2.17a1.18,1.18,0,0,0,.14.53,1,1,0,0,0,.33.31.86.86,0,0,0,.41.1.8.8,0,0,0,.48-.13A.77.77,0,0,0,533,596h.46a1.2,1.2,0,0,1-1.22.88Zm0-2.47a.93.93,0,0,0-.58.2.85.85,0,0,0-.3.59H533a.77.77,0,0,0-.25-.58A.85.85,0,0,0,532.19,594.43Zm1.91,2.4v-4h.46v4Zm2.45.07a1.33,1.33,0,0,1-.7-.18,1.28,1.28,0,0,1-.48-.5,1.6,1.6,0,0,1-.17-.75,1.63,1.63,0,0,1,.17-.75,1.28,1.28,0,0,1,.48-.5,1.36,1.36,0,0,1,.71-.18,1.25,1.25,0,0,1,.68.18,1.3,1.3,0,0,1,.6,1.1.49.49,0,0,1,0,.12v.13h-2.17a1.18,1.18,0,0,0,.14.53,1,1,0,0,0,.33.31.87.87,0,0,0,.42.1.77.77,0,0,0,.47-.13.71.71,0,0,0,.28-.36h.46a1.2,1.2,0,0,1-1.21.88Zm0-2.47a1,1,0,0,0-.59.2.8.8,0,0,0-.29.59h1.71a.77.77,0,0,0-.25-.58A.84.84,0,0,0,536.55,594.43Zm3.15,2.47a1.38,1.38,0,0,1-.7-.18,1.24,1.24,0,0,1-.49-.5,1.49,1.49,0,0,1-.18-.75,1.51,1.51,0,0,1,.18-.75,1.31,1.31,0,0,1,.49-.5,1.38,1.38,0,0,1,.7-.18,1.29,1.29,0,0,1,.82.25,1.13,1.13,0,0,1,.42.68h-.47a.61.61,0,0,0-.27-.39.84.84,0,0,0-.5-.14.85.85,0,0,0-.44.11.93.93,0,0,0-.33.35,1.41,1.41,0,0,0,0,1.14.93.93,0,0,0,.33.35.86.86,0,0,0,.44.12.92.92,0,0,0,.5-.14.63.63,0,0,0,.27-.4h.47a1,1,0,0,1-.42.67A1.3,1.3,0,0,1,539.7,596.9Zm2.89-.07a.89.89,0,0,1-.59-.18.83.83,0,0,1-.21-.65v-1.5h-.48v-.39h.48l.06-.66h.4v.66h.8v.39h-.8V596a.46.46,0,0,0,.1.35.59.59,0,0,0,.37.09H543v.39Zm1.33-3.33a.31.31,0,0,1-.32-.32.29.29,0,0,1,.09-.22.32.32,0,0,1,.23-.09.29.29,0,0,1,.22.09.27.27,0,0,1,.1.22.29.29,0,0,1-.1.23A.29.29,0,0,1,543.92,593.5Zm-.23,3.33v-2.72h.46v2.72Zm2.51.07a1.38,1.38,0,0,1-.7-.18,1.35,1.35,0,0,1-.49-.49,1.67,1.67,0,0,1-.17-.76,1.49,1.49,0,0,1,.18-.75,1.18,1.18,0,0,1,.49-.5,1.38,1.38,0,0,1,.7-.18,1.34,1.34,0,0,1,.69.18,1.18,1.18,0,0,1,.49.5,1.49,1.49,0,0,1,.18.75,1.55,1.55,0,0,1-.18.76,1.31,1.31,0,0,1-.5.49A1.37,1.37,0,0,1,546.2,596.9Zm0-.4a.87.87,0,0,0,.44-.11A.93.93,0,0,0,547,596a1.41,1.41,0,0,0,0-1.14.8.8,0,0,0-.33-.35.81.81,0,0,0-.43-.11.82.82,0,0,0-.44.11.8.8,0,0,0-.33.35,1.31,1.31,0,0,0,0,1.14.8.8,0,0,0,.76.46Zm2,.33v-2.72h.42l0,.49a1,1,0,0,1,.38-.41,1.1,1.1,0,0,1,.57-.15,1,1,0,0,1,.77.3,1.23,1.23,0,0,1,.29.9v1.59h-.47v-1.54c0-.57-.23-.85-.7-.85a.78.78,0,0,0-.59.25,1.08,1.08,0,0,0-.23.73v1.41Zm4.19.07a1.26,1.26,0,0,1-.81-.25.92.92,0,0,1-.38-.67h.47a.73.73,0,0,0,.23.38.76.76,0,0,0,.5.15.67.67,0,0,0,.43-.12.39.39,0,0,0,.13-.3.34.34,0,0,0-.18-.33,3.11,3.11,0,0,0-.5-.15,3.6,3.6,0,0,1-.44-.12,1.23,1.23,0,0,1-.37-.23.58.58,0,0,1-.15-.41.73.73,0,0,1,.27-.58,1.09,1.09,0,0,1,.72-.23,1.08,1.08,0,0,1,.71.22.85.85,0,0,1,.33.62h-.46a.49.49,0,0,0-.18-.33.62.62,0,0,0-.4-.12.65.65,0,0,0-.39.11.35.35,0,0,0-.13.27.29.29,0,0,0,.17.26,2.43,2.43,0,0,0,.48.16,3.64,3.64,0,0,1,.47.14.9.9,0,0,1,.38.23.64.64,0,0,1,.15.45.75.75,0,0,1-.28.61A1.16,1.16,0,0,1,552.4,596.9Z" transform="translate(-200.17 -395.83)" style="fill: #293b4a"></path></g></g></svg>