<svg xmlns="http://www.w3.org/2000/svg" xmlns:xlink="http://www.w3.org/1999/xlink" id="Layer_1" data-name="Layer 1" viewBox="0 0 374.1 439.77"><defs><clipPath id="clip-path" transform="translate(-234.12 -366.22)"><rect x="234.12" y="366.22" width="374.11" height="439.77" style="fill: none"></rect></clipPath></defs><g style="clip-path: url(#clip-path)"><g><path d="M495.82,389.12H239.59a5.47,5.47,0,0,0-5.47,5.48v244a5.47,5.47,0,0,0,5.47,5.47H495.82a5.47,5.47,0,0,0,5.47-5.47v-244A5.47,5.47,0,0,0,495.82,389.12Z" transform="translate(-234.12 -366.22)" style="fill: #fff"></path><path d="M573.23,395.24H245.32a4.73,4.73,0,0,0-4.73,4.73V801.26a4.73,4.73,0,0,0,4.73,4.73H573.23a4.73,4.73,0,0,0,4.73-4.73V400A4.73,4.73,0,0,0,573.23,395.24Z" transform="translate(-234.12 -366.22)" style="fill: #f1f3f5"></path><path d="M563.76,438.68h-311V793.82h311Z" transform="translate(-234.12 -366.22)" style="fill: #fff"></path><path d="M263,453.2a1.41,1.41,0,0,1-.64-.13.93.93,0,0,1-.41-.37,1,1,0,0,1-.15-.55h.42a.74.74,0,0,0,.09.36.59.59,0,0,0,.26.26.81.81,0,0,0,.43.1.83.83,0,0,0,.52-.16.52.52,0,0,0,.18-.41.57.57,0,0,0-.08-.31.74.74,0,0,0-.23-.2,1.51,1.51,0,0,0-.34-.13l-.38-.13a1.38,1.38,0,0,1-.57-.33.69.69,0,0,1-.19-.51.81.81,0,0,1,.13-.47.75.75,0,0,1,.36-.32,1.18,1.18,0,0,1,.55-.12,1.15,1.15,0,0,1,.55.12.83.83,0,0,1,.37.32,1,1,0,0,1,.14.48h-.42a.5.5,0,0,0-.07-.27.54.54,0,0,0-.22-.23.74.74,0,0,0-.36-.08.59.59,0,0,0-.44.14.45.45,0,0,0-.17.39.4.4,0,0,0,.11.32,1,1,0,0,0,.34.19l.51.17a2.33,2.33,0,0,1,.42.2.76.76,0,0,1,.3.29,1,1,0,0,1,0,.91.94.94,0,0,1-.37.34A1.29,1.29,0,0,1,263,453.2Zm2.71,0a1.21,1.21,0,0,1-.6-.15,1.13,1.13,0,0,1-.41-.43,1.33,1.33,0,0,1-.14-.65,1.31,1.31,0,0,1,.14-.64,1.06,1.06,0,0,1,.41-.43,1.13,1.13,0,0,1,.61-.16,1.08,1.08,0,0,1,1,.56,1.13,1.13,0,0,1,.13.54v.22H265a1,1,0,0,0,.12.45.8.8,0,0,0,.28.27.74.74,0,0,0,.36.09.69.69,0,0,0,.41-.12.6.6,0,0,0,.24-.3h.4a1.12,1.12,0,0,1-.37.54A1,1,0,0,1,265.73,453.2Zm0-2.12a.85.85,0,0,0-.51.17.72.72,0,0,0-.25.51h1.48a.65.65,0,0,0-.22-.5A.71.71,0,0,0,265.73,451.08Zm1.64,2.07v-3.41h.4v3.41Zm2.1.05a1.15,1.15,0,0,1-.59-.15,1.06,1.06,0,0,1-.41-.43,1.46,1.46,0,0,1,0-1.29,1,1,0,0,1,.4-.43,1.13,1.13,0,0,1,.61-.16,1,1,0,0,1,.59.16.92.92,0,0,1,.38.4,1.14,1.14,0,0,1,.14.54.31.31,0,0,1,0,.1v.12h-1.87a.88.88,0,0,0,.13.45.7.7,0,0,0,.27.27.8.8,0,0,0,.36.09.7.7,0,0,0,.42-.12.6.6,0,0,0,.24-.3h.39a1,1,0,0,1-.36.54A1.09,1.09,0,0,1,269.47,453.2Zm0-2.12a.82.82,0,0,0-.5.17.68.68,0,0,0-.25.51h1.47a.68.68,0,0,0-.21-.5A.76.76,0,0,0,269.47,451.08Zm2.72,2.12a1.21,1.21,0,0,1-.6-.15,1.09,1.09,0,0,1-.42-.43,1.38,1.38,0,0,1,0-1.29,1,1,0,0,1,.42-.43,1.12,1.12,0,0,1,.6-.16,1.15,1.15,0,0,1,.7.22.93.93,0,0,1,.37.58h-.41a.52.52,0,0,0-.23-.33.71.71,0,0,0-.43-.13.86.86,0,0,0-.38.1.81.81,0,0,0-.28.3,1,1,0,0,0-.11.49,1.09,1.09,0,0,0,.11.5.81.81,0,0,0,.28.3.86.86,0,0,0,.38.1.77.77,0,0,0,.43-.12.54.54,0,0,0,.23-.35h.41a1,1,0,0,1-.36.58A1.11,1.11,0,0,1,272.19,453.2Zm2.49-.05a.73.73,0,0,1-.51-.16.71.71,0,0,1-.18-.56v-1.29h-.41v-.34H274l.05-.56h.34v.56h.69v.34h-.69v1.29a.38.38,0,0,0,.09.3.51.51,0,0,0,.32.08H275v.34Zm1.14-2.87a.3.3,0,0,1-.2-.08.27.27,0,0,1-.07-.2.28.28,0,0,1,.07-.19.29.29,0,0,1,.2-.07.26.26,0,0,1,.27.26.24.24,0,0,1-.08.2A.26.26,0,0,1,275.82,450.28Zm-.2,2.87V450.8h.4v2.35Zm2.16.05a1.14,1.14,0,0,1-1-.57,1.4,1.4,0,0,1-.15-.66,1.25,1.25,0,0,1,.16-.65,1.15,1.15,0,0,1,.42-.43,1.15,1.15,0,0,1,1.61.43,1.25,1.25,0,0,1,.16.65,1.29,1.29,0,0,1-.16.66,1.06,1.06,0,0,1-.42.42A1.21,1.21,0,0,1,277.78,453.2Zm0-.34a.72.72,0,0,0,.38-.1.66.66,0,0,0,.28-.29,1,1,0,0,0,.11-.5.94.94,0,0,0-.11-.49.74.74,0,0,0-.28-.3.79.79,0,0,0-.37-.1.86.86,0,0,0-.38.1.81.81,0,0,0-.28.3,1,1,0,0,0-.11.49,1.09,1.09,0,0,0,.11.5.66.66,0,0,0,.28.29A.69.69,0,0,0,277.78,452.86Zm1.73.29V450.8h.36l0,.42a.83.83,0,0,1,.32-.35,1,1,0,0,1,.49-.13.9.9,0,0,1,.66.26,1,1,0,0,1,.25.77v1.38h-.4v-1.33c0-.49-.2-.74-.6-.74a.65.65,0,0,0-.51.23.89.89,0,0,0-.2.62v1.22Zm3.61.05a1.14,1.14,0,0,1-.7-.21.84.84,0,0,1-.33-.58h.41a.65.65,0,0,0,.19.33.74.74,0,0,0,.44.13.52.52,0,0,0,.36-.11.32.32,0,0,0,.12-.25.3.3,0,0,0-.15-.29,2.11,2.11,0,0,0-.43-.12l-.38-.11a1,1,0,0,1-.32-.2.5.5,0,0,1-.13-.35.64.64,0,0,1,.23-.5.92.92,0,0,1,.62-.2,1,1,0,0,1,.62.19.72.72,0,0,1,.27.53h-.39a.41.41,0,0,0-.15-.28.66.66,0,0,0-.68,0,.28.28,0,0,0-.11.24.24.24,0,0,0,.14.22,1.93,1.93,0,0,0,.41.14l.41.11a.81.81,0,0,1,.32.21.51.51,0,0,1,.13.39.66.66,0,0,1-.24.52A1,1,0,0,1,283.12,453.2Z" transform="translate(-234.12 -366.22)" style="fill: #293b4a"></path><path d="M343.07,450.21h-42.7a.61.61,0,0,0-.61.61v1.82a.61.61,0,0,0,.61.61h42.7a.61.61,0,0,0,.61-.61v-1.82A.61.61,0,0,0,343.07,450.21Z" transform="translate(-234.12 -366.22)" style="fill: #627989"></path><path d="M475.78,450.21H444a.61.61,0,0,0-.61.61v1.82a.61.61,0,0,0,.61.61h31.82a.61.61,0,0,0,.61-.61v-1.82A.61.61,0,0,0,475.78,450.21Z" transform="translate(-234.12 -366.22)" style="fill: #627989"></path><path d="M475.78,466.61H444a.61.61,0,0,0-.61.61V469a.62.62,0,0,0,.61.61h31.82a.61.61,0,0,0,.61-.61v-1.82A.61.61,0,0,0,475.78,466.61Z" transform="translate(-234.12 -366.22)" style="fill: #627989"></path><path d="M411.66,450.21H351.21V458h60.45Z" transform="translate(-234.12 -366.22)" style="fill: #f1f3f5"></path><path d="M343.07,466.61h-42.7a.61.61,0,0,0-.61.61V469a.62.62,0,0,0,.61.61h42.7a.61.61,0,0,0,.61-.61v-1.82A.61.61,0,0,0,343.07,466.61Z" transform="translate(-234.12 -366.22)" style="fill: #627989"></path><path d="M411.66,466.61H351.21v7.82h60.45Z" transform="translate(-234.12 -366.22)" style="fill: #f1f3f5"></path><path d="M343.07,481.78h-42.7a.62.62,0,0,0-.61.61v1.83a.62.62,0,0,0,.61.61h42.7a.61.61,0,0,0,.61-.61v-1.83A.61.61,0,0,0,343.07,481.78Z" transform="translate(-234.12 -366.22)" style="fill: #627989"></path><path d="M411.66,481.78H351.21v7.83h60.45Z" transform="translate(-234.12 -366.22)" style="fill: #f1f3f5"></path><path d="M553.56,450.21h-70V458h70Z" transform="translate(-234.12 -366.22)" style="fill: #f1f3f5"></path><path d="M553.56,466.61h-70v7.82h70Z" transform="translate(-234.12 -366.22)" style="fill: #f1f3f5"></path><path d="M475.78,481.78H444a.62.62,0,0,0-.61.61v1.83a.62.62,0,0,0,.61.61h31.82a.61.61,0,0,0,.61-.61v-1.83A.61.61,0,0,0,475.78,481.78Z" transform="translate(-234.12 -366.22)" style="fill: #627989"></path><path d="M553.56,481.78h-70v7.83h70Z" transform="translate(-234.12 -366.22)" style="fill: #f1f3f5"></path><path d="M475.78,497H444a.61.61,0,0,0-.61.61v1.82a.61.61,0,0,0,.61.61h31.82a.61.61,0,0,0,.61-.61v-1.82A.61.61,0,0,0,475.78,497Z" transform="translate(-234.12 -366.22)" style="fill: #627989"></path><path d="M553.56,497h-70v7.82h70Z" transform="translate(-234.12 -366.22)" style="fill: #f1f3f5"></path><path d="M563.76,413.61h-311v16.71h311Z" transform="translate(-234.12 -366.22)" style="fill: #fff"></path><path d="M264.08,425v-3.33h1.22a1.4,1.4,0,0,1,.66.14.93.93,0,0,1,.39.37,1.06,1.06,0,0,1,.13.5,1.08,1.08,0,0,1-.16.56.92.92,0,0,1-.5.37l.69,1.39h-.7l-.62-1.31h-.5V425Zm.61-1.76h.57a.58.58,0,0,0,.45-.15.52.52,0,0,0,.14-.39.5.5,0,0,0-.14-.38.62.62,0,0,0-.45-.14h-.57ZM268,425a1.28,1.28,0,0,1-.63-.16,1,1,0,0,1-.43-.42,1.24,1.24,0,0,1-.16-.64,1.36,1.36,0,0,1,.15-.65,1.14,1.14,0,0,1,.43-.44,1.23,1.23,0,0,1,.65-.17,1.13,1.13,0,0,1,.61.16,1.08,1.08,0,0,1,.41.41,1.18,1.18,0,0,1,.15.59v.11a.49.49,0,0,1,0,.12h-1.79a.66.66,0,0,0,.19.43.65.65,0,0,0,.43.16.56.56,0,0,0,.3-.08.5.5,0,0,0,.19-.22h.62a1.17,1.17,0,0,1-.22.41,1.08,1.08,0,0,1-.38.28A1.19,1.19,0,0,1,268,425Zm0-2a.62.62,0,0,0-.4.13.58.58,0,0,0-.22.38h1.18a.49.49,0,0,0-.18-.37A.51.51,0,0,0,268,423Zm2.84,2a1.35,1.35,0,0,1-.64-.16,1.14,1.14,0,0,1-.43-.44,1.36,1.36,0,0,1,0-1.28,1.14,1.14,0,0,1,.43-.44,1.35,1.35,0,0,1,.64-.16,1.19,1.19,0,0,1,.76.24,1.05,1.05,0,0,1,.4.65h-.65a.44.44,0,0,0-.19-.27.58.58,0,0,0-.32-.1.59.59,0,0,0-.43.19.74.74,0,0,0-.18.53.76.76,0,0,0,.18.53.59.59,0,0,0,.43.19.51.51,0,0,0,.32-.1.41.41,0,0,0,.19-.27H272a1.06,1.06,0,0,1-.4.64A1.2,1.2,0,0,1,270.88,425Zm1.7-.06v-2.36h.54l.05.44a1.1,1.1,0,0,1,.35-.36,1,1,0,0,1,.52-.14v.65h-.17a1,1,0,0,0-.35.06.47.47,0,0,0-.25.21.82.82,0,0,0-.09.42V425Zm2.76.06a.87.87,0,0,1-.68-.28,1.19,1.19,0,0,1-.24-.81v-1.33H275v1.27a.78.78,0,0,0,.12.47.45.45,0,0,0,.39.16.51.51,0,0,0,.41-.18.72.72,0,0,0,.17-.5v-1.22h.61V425h-.54l-.05-.4a.78.78,0,0,1-.32.33A.9.9,0,0,1,275.34,425Zm2.34-2.79a.45.45,0,0,1-.28-.09.35.35,0,0,1-.1-.26.3.3,0,0,1,.1-.24.4.4,0,0,1,.28-.1.36.36,0,0,1,.27.1.3.3,0,0,1,.11.24.36.36,0,0,1-.11.26A.4.4,0,0,1,277.68,422.22Zm-.3,2.73v-2.36h.6V425Zm2.29,0a.89.89,0,0,1-.59-.18.79.79,0,0,1-.23-.64v-1h-.4v-.51h.4l.07-.63h.54v.63h.64v.51h-.64v1a.31.31,0,0,0,.07.24.43.43,0,0,0,.26.06h.29V425Zm2,.06a1.35,1.35,0,0,1-.64-.16,1.15,1.15,0,0,1-.43-.42,1.35,1.35,0,0,1-.16-.64,1.25,1.25,0,0,1,.16-.65,1.05,1.05,0,0,1,.42-.44,1.26,1.26,0,0,1,.65-.17,1.19,1.19,0,0,1,1,.57,1.18,1.18,0,0,1,.15.59.45.45,0,0,1,0,.11v.12h-1.79a.58.58,0,0,0,.19.43.63.63,0,0,0,.42.16.59.59,0,0,0,.31-.08.57.57,0,0,0,.19-.22h.62a1.2,1.2,0,0,1-.23.41,1,1,0,0,1-.38.28A1.15,1.15,0,0,1,281.71,425Zm0-2a.59.59,0,0,0-.39.13.54.54,0,0,0-.22.38h1.17a.53.53,0,0,0-.56-.51ZM283.4,425v-2.36h.54l.06.44a.93.93,0,0,1,.35-.36,1,1,0,0,1,.52-.14v.65h-.17a1,1,0,0,0-.36.06.51.51,0,0,0-.25.21,1,1,0,0,0-.08.42V425Zm3,0v-3.33h1.22a1.4,1.4,0,0,1,.66.14.93.93,0,0,1,.39.37,1.06,1.06,0,0,1,.13.5,1.08,1.08,0,0,1-.16.56.92.92,0,0,1-.5.37l.69,1.39h-.7l-.62-1.31H287V425Zm.61-1.76h.58a.57.57,0,0,0,.44-.15.52.52,0,0,0,.14-.39.5.5,0,0,0-.14-.38.62.62,0,0,0-.45-.14H287ZM290.1,425a1.2,1.2,0,0,1-.5-.1.65.65,0,0,1-.38-.62.65.65,0,0,1,.26-.53,1.18,1.18,0,0,1,.77-.2h.6v-.06a.46.46,0,0,0-.14-.36.55.55,0,0,0-.34-.11.58.58,0,0,0-.33.09.37.37,0,0,0-.17.26h-.59a.78.78,0,0,1,.17-.45,1,1,0,0,1,.39-.29,1.29,1.29,0,0,1,.53-.11,1.14,1.14,0,0,1,.79.26.85.85,0,0,1,.29.71V425h-.51l-.06-.38a.81.81,0,0,1-.3.31A.85.85,0,0,1,290.1,425Zm.14-.48a.52.52,0,0,0,.41-.17.84.84,0,0,0,.18-.42h-.52a.51.51,0,0,0-.34.09.26.26,0,0,0,0,.42A.46.46,0,0,0,290.24,424.53Zm2.81.42a.92.92,0,0,1-.59-.18.79.79,0,0,1-.23-.64v-1h-.4v-.51h.4l.08-.63h.53v.63h.64v.51h-.64v1a.36.36,0,0,0,.07.24.45.45,0,0,0,.26.06h.3V425Zm1.28-2.73a.45.45,0,0,1-.28-.09.4.4,0,0,1-.1-.26.33.33,0,0,1,.1-.24.4.4,0,0,1,.28-.1.36.36,0,0,1,.27.1.3.3,0,0,1,.11.24.36.36,0,0,1-.11.26A.4.4,0,0,1,294.33,422.22ZM294,425v-2.36h.6V425Zm1.24,0v-2.36h.54l0,.4a.85.85,0,0,1,.32-.33,1,1,0,0,1,.49-.13.87.87,0,0,1,.68.28,1.19,1.19,0,0,1,.24.81V425H297v-1.28a.76.76,0,0,0-.12-.46.45.45,0,0,0-.39-.16.54.54,0,0,0-.42.18.72.72,0,0,0-.16.5V425Zm3.89-.7a1.65,1.65,0,0,1-.32,0l-.17.17a.52.52,0,0,0,.21.07l.45.06a1.31,1.31,0,0,1,.69.22.64.64,0,0,1,.21.5.83.83,0,0,1-.11.4.77.77,0,0,1-.36.3,1.34,1.34,0,0,1-.6.12,1.53,1.53,0,0,1-.82-.19.62.62,0,0,1-.31-.56.69.69,0,0,1,.31-.55l-.16-.09a.63.63,0,0,1-.12-.1v-.11l.41-.44a.8.8,0,0,1-.28-.62.8.8,0,0,1,.12-.43.82.82,0,0,1,.33-.31,1.05,1.05,0,0,1,.52-.12,1.1,1.1,0,0,1,.37.06h.89V423l-.4,0a.88.88,0,0,1,.1.4.8.8,0,0,1-.12.43.83.83,0,0,1-.33.31A1,1,0,0,1,299.16,424.25Zm0-.47a.44.44,0,0,0,.3-.1.34.34,0,0,0,.13-.29.33.33,0,0,0-.13-.28.44.44,0,0,0-.3-.1.45.45,0,0,0-.31.1.35.35,0,0,0-.12.28.36.36,0,0,0,.12.29A.45.45,0,0,0,299.16,423.78Zm-.57,1.46a.27.27,0,0,0,.16.26.86.86,0,0,0,.41.09.7.7,0,0,0,.37-.09.31.31,0,0,0,.14-.25.27.27,0,0,0-.1-.22.64.64,0,0,0-.36-.1l-.36,0a.48.48,0,0,0-.2.16A.35.35,0,0,0,298.59,425.24Zm3.25-.23a1.54,1.54,0,0,1-.55-.1,1,1,0,0,1-.38-.29.87.87,0,0,1-.17-.42h.61a.45.45,0,0,0,.15.24.59.59,0,0,0,.33.1.39.39,0,0,0,.29-.09.21.21,0,0,0,.1-.18.22.22,0,0,0-.14-.21,2.3,2.3,0,0,0-.37-.1l-.31-.09-.29-.11a.91.91,0,0,1-.2-.19.48.48,0,0,1-.09-.29.69.69,0,0,1,.25-.53,1.08,1.08,0,0,1,.71-.22,1,1,0,0,1,.66.2.78.78,0,0,1,.3.54h-.57c0-.18-.17-.27-.4-.27a.54.54,0,0,0-.27.07.21.21,0,0,0-.09.17c0,.07,0,.12.14.16a2.7,2.7,0,0,0,.37.12l.45.13a.68.68,0,0,1,.33.2.57.57,0,0,1,.13.39.69.69,0,0,1-.12.39.79.79,0,0,1-.34.28A1.43,1.43,0,0,1,301.84,425Z" transform="translate(-234.12 -366.22)" style="fill: #293b4a"></path><path d="M561.38,459.89a46.84,46.84,0,1,0-46.83-46.83A46.84,46.84,0,0,0,561.38,459.89Z" transform="translate(-234.12 -366.22)" style="fill: #f0f2f4"></path><path d="M562.63,430.52a17.24,17.24,0,1,0-17.24-17.24A17.24,17.24,0,0,0,562.63,430.52Z" transform="translate(-234.12 -366.22)" style="fill: #5273fd"></path><path d="M551.86,427.41a16.78,16.78,0,1,1,14.06-7.69l-1.17-.75a15.32,15.32,0,1,0-7.11,6,15.7,15.7,0,0,0,2.35-1.19l.75,1.17a17,17,0,0,1-8.89,2.56v-.06Z" transform="translate(-234.12 -366.22)" style="fill: #293b4a"></path><path d="M563.17,421l-1,1,15.3,15.31,1-1Z" transform="translate(-234.12 -366.22)" style="fill: #293b4a"></path><path d="M470.86,526.51H262.43a.61.61,0,0,0-.61.61v1.82a.61.61,0,0,0,.61.61H470.86a.61.61,0,0,0,.61-.61v-1.82A.62.62,0,0,0,470.86,526.51Z" transform="translate(-234.12 -366.22)" style="fill: #f1f3f5"></path><path d="M537.94,511.07H262.43a.61.61,0,0,0-.61.61v1.82a.61.61,0,0,0,.61.61H537.94a.61.61,0,0,0,.61-.61v-1.82A.62.62,0,0,0,537.94,511.07Z" transform="translate(-234.12 -366.22)" style="fill: #f1f3f5"></path><path d="M537.94,518.92H262.43a.61.61,0,0,0-.61.61v1.82a.61.61,0,0,0,.61.61H537.94a.61.61,0,0,0,.61-.61v-1.82A.62.62,0,0,0,537.94,518.92Z" transform="translate(-234.12 -366.22)" style="fill: #f1f3f5"></path><path d="M346.69,579.46h-74a.61.61,0,0,0-.61.61v1.82a.61.61,0,0,0,.61.61h74a.61.61,0,0,0,.61-.61v-1.82A.61.61,0,0,0,346.69,579.46Z" transform="translate(-234.12 -366.22)" style="fill: #f1f3f5"></path><path d="M370.75,564H272.69a.61.61,0,0,0-.61.61v1.83a.61.61,0,0,0,.61.61h98.06a.61.61,0,0,0,.61-.61v-1.83A.61.61,0,0,0,370.75,564Z" transform="translate(-234.12 -366.22)" style="fill: #f1f3f5"></path><path d="M370.75,571.87H272.69a.61.61,0,0,0-.61.61v1.82a.61.61,0,0,0,.61.61h98.06a.61.61,0,0,0,.61-.61v-1.82A.61.61,0,0,0,370.75,571.87Z" transform="translate(-234.12 -366.22)" style="fill: #f1f3f5"></path><path d="M500.62,579.46h-74a.61.61,0,0,0-.61.61v1.82a.61.61,0,0,0,.61.61h74a.61.61,0,0,0,.61-.61v-1.82A.61.61,0,0,0,500.62,579.46Z" transform="translate(-234.12 -366.22)" style="fill: #f1f3f5"></path><path d="M524.69,564H426.63a.61.61,0,0,0-.61.61v1.83a.61.61,0,0,0,.61.61h98.06a.61.61,0,0,0,.61-.61v-1.83A.61.61,0,0,0,524.69,564Z" transform="translate(-234.12 -366.22)" style="fill: #f1f3f5"></path><path d="M524.69,571.87H426.63a.61.61,0,0,0-.61.61v1.82a.61.61,0,0,0,.61.61h98.06a.61.61,0,0,0,.61-.61v-1.82A.61.61,0,0,0,524.69,571.87Z" transform="translate(-234.12 -366.22)" style="fill: #f1f3f5"></path><path d="M272.22,555l1.22-3.32h.42l1.22,3.32h-.42l-.3-.85H273l-.31.85Zm.84-1.18h1.18l-.59-1.63Zm2.49,2.22v-3.39h.36l0,.39a1,1,0,0,1,.32-.31,1,1,0,0,1,.54-.14,1.2,1.2,0,0,1,.61.16,1.13,1.13,0,0,1,.4.44,1.34,1.34,0,0,1,.15.64,1.28,1.28,0,0,1-.15.63,1.06,1.06,0,0,1-.4.44,1.24,1.24,0,0,1-.62.15,1.06,1.06,0,0,1-.51-.11.8.8,0,0,1-.34-.34V556Zm1.21-1.33a.82.82,0,0,0,.42-.11.84.84,0,0,0,.28-.31,1,1,0,0,0,.11-.47,1,1,0,0,0-.11-.46.77.77,0,0,0-.28-.31.82.82,0,0,0-.42-.11.77.77,0,0,0-.7.42,1,1,0,0,0-.1.46,1,1,0,0,0,.1.47.86.86,0,0,0,.29.31A.78.78,0,0,0,276.76,554.67Zm1.76,1.33v-3.39h.36l0,.39a1.06,1.06,0,0,1,.32-.31,1,1,0,0,1,.54-.14,1.18,1.18,0,0,1,.61.16,1.06,1.06,0,0,1,.4.44,1.34,1.34,0,0,1,.15.64,1.28,1.28,0,0,1-.15.63,1.06,1.06,0,0,1-.4.44,1.23,1.23,0,0,1-.61.15,1.08,1.08,0,0,1-.52-.11.8.8,0,0,1-.34-.34V556Zm1.21-1.33a.82.82,0,0,0,.42-.11.76.76,0,0,0,.28-.31,1,1,0,0,0,.11-.47,1,1,0,0,0-.11-.46.7.7,0,0,0-.28-.31.82.82,0,0,0-.42-.11.81.81,0,0,0-.41.11.79.79,0,0,0-.29.31,1,1,0,0,0-.1.46,1,1,0,0,0,.1.47.86.86,0,0,0,.29.31A.81.81,0,0,0,279.73,554.67Zm1.76.29v-3.41h.4V555Zm1.3-2.87a.27.27,0,0,1-.28-.28.25.25,0,0,1,.08-.18.24.24,0,0,1,.2-.08.24.24,0,0,1,.19.08.25.25,0,0,1,.08.18.28.28,0,0,1-.08.2A.27.27,0,0,1,282.79,552.09Zm-.2,2.87v-2.35H283V555Zm2.17,0a1.23,1.23,0,0,1-.61-.15,1,1,0,0,1-.42-.43,1.46,1.46,0,0,1,0-1.29,1,1,0,0,1,.42-.43,1.23,1.23,0,0,1,.61-.16,1.17,1.17,0,0,1,.7.22,1,1,0,0,1,.36.58h-.41a.52.52,0,0,0-.23-.33.69.69,0,0,0-.43-.13.79.79,0,0,0-.37.1.84.84,0,0,0-.29.3,1,1,0,0,0-.11.49,1.09,1.09,0,0,0,.11.5.84.84,0,0,0,.29.3.69.69,0,0,0,.37.1.75.75,0,0,0,.43-.12.54.54,0,0,0,.23-.35h.41a1,1,0,0,1-.36.58A1.1,1.1,0,0,1,284.76,555Zm2.4,0a1.16,1.16,0,0,1-.49-.09.69.69,0,0,1-.29-.27.74.74,0,0,1-.09-.36.63.63,0,0,1,.27-.55,1.26,1.26,0,0,1,.75-.2h.63v0a.6.6,0,0,0-.16-.46.57.57,0,0,0-.43-.16.68.68,0,0,0-.4.12.5.5,0,0,0-.21.33h-.41a.87.87,0,0,1,.17-.43,1,1,0,0,1,.38-.26,1.07,1.07,0,0,1,.47-.1,1,1,0,0,1,.74.27.93.93,0,0,1,.25.69V555H288l0-.42a.93.93,0,0,1-.29.34A.88.88,0,0,1,287.16,555Zm.06-.33a.65.65,0,0,0,.39-.12.76.76,0,0,0,.25-.31,1.06,1.06,0,0,0,.08-.4h-.6a.82.82,0,0,0-.5.12.39.39,0,0,0,0,.6A.59.59,0,0,0,287.22,554.68Zm2.58.28a.76.76,0,0,1-.51-.16.71.71,0,0,1-.18-.56V553h-.41v-.34h.41l.05-.56h.35v.56h.69V553h-.69v1.29a.38.38,0,0,0,.09.3.48.48,0,0,0,.31.08h.25V555Zm1.14-2.87a.27.27,0,0,1-.19-.08.24.24,0,0,1-.08-.2.22.22,0,0,1,.08-.18.24.24,0,0,1,.19-.08.26.26,0,0,1,.2.08.25.25,0,0,1,.08.18.28.28,0,0,1-.08.2A.3.3,0,0,1,290.94,552.09Zm-.19,2.87v-2.35h.39V555Zm2.16,0a1.19,1.19,0,0,1-.6-.15,1.06,1.06,0,0,1-.42-.42,1.4,1.4,0,0,1-.15-.66,1.29,1.29,0,0,1,.15-.64,1.27,1.27,0,0,1,.42-.44,1.21,1.21,0,0,1,.6-.15,1.19,1.19,0,0,1,.6.15,1.11,1.11,0,0,1,.42.44,1.29,1.29,0,0,1,.15.64,1.4,1.4,0,0,1-.15.66,1.15,1.15,0,0,1-.43.42A1.18,1.18,0,0,1,292.91,555Zm0-.34a.69.69,0,0,0,.37-.1.68.68,0,0,0,.29-.29,1.09,1.09,0,0,0,.11-.5,1,1,0,0,0-.11-.49.74.74,0,0,0-.28-.3.83.83,0,0,0-.38-.1.79.79,0,0,0-.37.1.76.76,0,0,0-.29.3,1,1,0,0,0-.11.49,1.09,1.09,0,0,0,.11.5.71.71,0,0,0,.28.29A.72.72,0,0,0,292.91,554.67Zm1.73.29v-2.35H295l0,.42a.85.85,0,0,1,.33-.35,1,1,0,0,1,.48-.13.87.87,0,0,1,.66.26,1,1,0,0,1,.25.77V555h-.39v-1.33c0-.49-.21-.74-.61-.74a.68.68,0,0,0-.51.23.89.89,0,0,0-.2.62V555Zm5.21,0a1.06,1.06,0,0,1-.51-.11.75.75,0,0,1-.34-.34l0,.4h-.36v-3.41h.4V553a1,1,0,0,1,.32-.31,1,1,0,0,1,.54-.14,1.23,1.23,0,0,1,.61.16,1.13,1.13,0,0,1,.4.44,1.34,1.34,0,0,1,.15.64,1.28,1.28,0,0,1-.15.63,1,1,0,0,1-.41.44A1.17,1.17,0,0,1,299.85,555Zm0-.34a.82.82,0,0,0,.42-.11.84.84,0,0,0,.28-.31,1,1,0,0,0,.1-.47,1,1,0,0,0-.1-.46.77.77,0,0,0-.28-.31.86.86,0,0,0-.84,0,.77.77,0,0,0-.28.31,1,1,0,0,0-.1.46,1,1,0,0,0,.1.47.84.84,0,0,0,.28.31A.82.82,0,0,0,299.81,554.67Zm1.83,1.33.58-1.27h-.14l-.93-2.12h.43l.78,1.83.82-1.83h.41L302.05,556Zm3.65-1v-3.32h1.07a1.41,1.41,0,0,1,.63.13.84.84,0,0,1,.37.35,1.14,1.14,0,0,1,.11.49,1,1,0,0,1-.17.57.87.87,0,0,1-.52.35l.73,1.43H307l-.67-1.37h-.68V555Zm.4-1.68h.64a.73.73,0,0,0,.56-.19.68.68,0,0,0,.17-.47.62.62,0,0,0-.17-.46.76.76,0,0,0-.57-.18h-.63Zm3.1,1.73a1.16,1.16,0,0,1-.49-.09.69.69,0,0,1-.29-.27.75.75,0,0,1-.1-.36.64.64,0,0,1,.28-.55,1.26,1.26,0,0,1,.75-.2h.63v0a.6.6,0,0,0-.16-.46.57.57,0,0,0-.43-.16.68.68,0,0,0-.4.12.5.5,0,0,0-.21.33H308a.78.78,0,0,1,.17-.43,1,1,0,0,1,.38-.26,1,1,0,0,1,.47-.1,1,1,0,0,1,.74.27.93.93,0,0,1,.25.69V555h-.36l0-.42a1,1,0,0,1-.29.34A.88.88,0,0,1,308.79,555Zm.06-.33a.65.65,0,0,0,.39-.12.76.76,0,0,0,.25-.31,1.06,1.06,0,0,0,.08-.4H309a.82.82,0,0,0-.5.12.39.39,0,0,0-.14.3.42.42,0,0,0,.13.3A.65.65,0,0,0,308.85,554.68Zm2.58.28a.74.74,0,0,1-.51-.16.71.71,0,0,1-.18-.56V553h-.41v-.34h.41l.05-.56h.35v.56h.69V553h-.69v1.29a.38.38,0,0,0,.09.3.48.48,0,0,0,.31.08h.25V555Zm1.14-2.87a.3.3,0,0,1-.2-.08.27.27,0,0,1-.07-.2.24.24,0,0,1,.07-.18.29.29,0,0,1,.4,0,.25.25,0,0,1,.08.18.28.28,0,0,1-.08.2A.3.3,0,0,1,312.57,552.09Zm-.2,2.87v-2.35h.4V555Zm1.09,0v-2.35h.36l0,.42a.83.83,0,0,1,.32-.35,1,1,0,0,1,.49-.13.88.88,0,0,1,.66.26,1,1,0,0,1,.25.77V555h-.4v-1.33c0-.49-.2-.74-.6-.74a.68.68,0,0,0-.51.23.89.89,0,0,0-.2.62V555Zm3.64-.74a1.36,1.36,0,0,1-.36-.05l-.24.22.13.07.22,0,.42,0a1.1,1.1,0,0,1,.67.21.64.64,0,0,1,.21.49.68.68,0,0,1-.12.38.74.74,0,0,1-.34.31,1.22,1.22,0,0,1-.58.12,1.66,1.66,0,0,1-.57-.09.79.79,0,0,1-.38-.25.64.64,0,0,1-.14-.42.82.82,0,0,1,.07-.29.81.81,0,0,1,.27-.29l-.18-.09a.69.69,0,0,1-.13-.11v-.11l.4-.4a.77.77,0,0,1-.28-.62.77.77,0,0,1,.42-.72,1,1,0,0,1,.51-.12,1.06,1.06,0,0,1,.37.06h.87v.3l-.44,0a.87.87,0,0,1,0,.88.85.85,0,0,1-.32.3A1.06,1.06,0,0,1,317.1,554.22Zm0-.33a.57.57,0,0,0,.4-.13.53.53,0,0,0,0-.74.57.57,0,0,0-.4-.14.6.6,0,0,0-.41.14.56.56,0,0,0,0,.74A.59.59,0,0,0,317.1,553.89Zm-.69,1.37a.37.37,0,0,0,.2.35,1,1,0,0,0,.5.12.72.72,0,0,0,.46-.13.39.39,0,0,0,.18-.34.34.34,0,0,0-.12-.26.69.69,0,0,0-.45-.13l-.45,0a.59.59,0,0,0-.26.22A.52.52,0,0,0,316.41,555.26Z" transform="translate(-234.12 -366.22)" style="fill: #293b4a"></path><path d="M426.37,555v-3.32h1.07a1.41,1.41,0,0,1,.63.13.84.84,0,0,1,.37.35,1,1,0,0,1,.12.49,1,1,0,0,1-.17.57.92.92,0,0,1-.53.35l.73,1.43h-.47l-.67-1.37h-.68V555Zm.4-1.68h.64a.72.72,0,0,0,.56-.19.63.63,0,0,0,.17-.47.58.58,0,0,0-.17-.46.74.74,0,0,0-.56-.18h-.64Zm3.1,1.73a1.16,1.16,0,0,1-.49-.09.69.69,0,0,1-.29-.27.74.74,0,0,1-.09-.36.63.63,0,0,1,.27-.55,1.26,1.26,0,0,1,.75-.2h.63v0a.6.6,0,0,0-.16-.46.57.57,0,0,0-.43-.16.68.68,0,0,0-.4.12.5.5,0,0,0-.21.33H429a.87.87,0,0,1,.17-.43,1,1,0,0,1,.38-.26,1.07,1.07,0,0,1,.47-.1,1,1,0,0,1,.74.27.93.93,0,0,1,.25.69V555h-.35l0-.42a.93.93,0,0,1-.29.34A.88.88,0,0,1,429.87,555Zm.06-.33a.65.65,0,0,0,.39-.12.76.76,0,0,0,.25-.31,1.06,1.06,0,0,0,.08-.4h-.6a.82.82,0,0,0-.5.12.39.39,0,0,0,0,.6A.59.59,0,0,0,429.93,554.68Zm2.58.28a.76.76,0,0,1-.51-.16.71.71,0,0,1-.18-.56V553h-.41v-.34h.41l.05-.56h.35v.56h.69V553h-.69v1.29a.38.38,0,0,0,.09.3.48.48,0,0,0,.31.08h.25V555Zm1.14-2.87a.27.27,0,0,1-.19-.08.24.24,0,0,1-.08-.2.22.22,0,0,1,.08-.18.24.24,0,0,1,.19-.08.26.26,0,0,1,.2.08.25.25,0,0,1,.08.18.28.28,0,0,1-.08.2A.3.3,0,0,1,433.65,552.09Zm-.19,2.87v-2.35h.39V555Zm1.09,0v-2.35h.36l0,.42a.79.79,0,0,1,.33-.35,1,1,0,0,1,.48-.13.87.87,0,0,1,.66.26,1,1,0,0,1,.25.77V555h-.4v-1.33c0-.49-.2-.74-.6-.74a.68.68,0,0,0-.51.23.89.89,0,0,0-.2.62V555Zm3.63-.74a1.36,1.36,0,0,1-.36-.05l-.24.22.13.07.23,0,.41,0a1.1,1.1,0,0,1,.67.21.64.64,0,0,1,.21.49.68.68,0,0,1-.12.38.74.74,0,0,1-.34.31,1.22,1.22,0,0,1-.58.12,1.7,1.7,0,0,1-.57-.09.79.79,0,0,1-.38-.25.64.64,0,0,1-.14-.42.82.82,0,0,1,.07-.29.81.81,0,0,1,.27-.29l-.18-.09a.69.69,0,0,1-.13-.11v-.11l.4-.4a.77.77,0,0,1-.28-.62.89.89,0,0,1,.11-.43.75.75,0,0,1,.32-.29,1,1,0,0,1,.5-.12,1.06,1.06,0,0,1,.37.06h.87v.3l-.44,0a.87.87,0,0,1,0,.88.85.85,0,0,1-.32.3A1.06,1.06,0,0,1,438.18,554.22Zm0-.33a.57.57,0,0,0,.4-.13.53.53,0,0,0,0-.74.57.57,0,0,0-.4-.14.62.62,0,0,0-.41.14.56.56,0,0,0,0,.74A.61.61,0,0,0,438.18,553.89Zm-.69,1.37a.37.37,0,0,0,.2.35,1,1,0,0,0,.5.12.77.77,0,0,0,.47-.13.39.39,0,0,0,.18-.34.35.35,0,0,0-.13-.26.69.69,0,0,0-.45-.13l-.45,0a.59.59,0,0,0-.26.22A.52.52,0,0,0,437.49,555.26Zm2.18.15,1.19-4.07h.39l-1.19,4.07Zm3.12-.4a1.39,1.39,0,0,1-.63-.13,1,1,0,0,1-.42-.37,1.1,1.1,0,0,1-.14-.55H442a.74.74,0,0,0,.09.36.65.65,0,0,0,.26.26.83.83,0,0,0,.43.1.79.79,0,0,0,.52-.16.5.5,0,0,0,.19-.4.51.51,0,0,0-.09-.32.57.57,0,0,0-.23-.2,1.26,1.26,0,0,0-.33-.13l-.39-.13a1.53,1.53,0,0,1-.57-.33.72.72,0,0,1-.18-.51.89.89,0,0,1,.12-.47.86.86,0,0,1,.36-.32,1.25,1.25,0,0,1,.56-.12,1.18,1.18,0,0,1,.55.12.83.83,0,0,1,.37.32,1,1,0,0,1,.13.48h-.41a.5.5,0,0,0-.08-.27.52.52,0,0,0-.21-.23.8.8,0,0,0-.36-.08.67.67,0,0,0-.45.14.48.48,0,0,0-.17.39.45.45,0,0,0,.12.33,1.08,1.08,0,0,0,.34.18l.5.17a2.44,2.44,0,0,1,.43.2.74.74,0,0,1,.29.29.92.92,0,0,1,.11.46.89.89,0,0,1-.12.45.91.91,0,0,1-.38.34A1.27,1.27,0,0,1,442.79,555Zm1.66,0v-3.41h.4V553a.83.83,0,0,1,.34-.33.93.93,0,0,1,1.12.13,1,1,0,0,1,.25.77V555h-.4v-1.33c0-.49-.19-.74-.59-.74a.68.68,0,0,0-.51.23.85.85,0,0,0-.21.62V555Zm3.49,0a1.19,1.19,0,0,1-.49-.09.76.76,0,0,1-.29-.27.74.74,0,0,1-.09-.36.63.63,0,0,1,.27-.55,1.3,1.3,0,0,1,.75-.2h.64v0a.64.64,0,0,0-.16-.46.57.57,0,0,0-.43-.16.71.71,0,0,0-.41.12.5.5,0,0,0-.21.33h-.4a.72.72,0,0,1,.17-.43,1,1,0,0,1,.37-.26,1.12,1.12,0,0,1,.48-.1.9.9,0,0,1,1,1V555h-.35l0-.42a1.07,1.07,0,0,1-.3.34A.84.84,0,0,1,447.94,555Zm.06-.33a.65.65,0,0,0,.39-.12.76.76,0,0,0,.25-.31.9.9,0,0,0,.09-.4h-.6a.8.8,0,0,0-.5.12.36.36,0,0,0-.14.3.38.38,0,0,0,.13.3A.61.61,0,0,0,448,554.68Zm1.72.28v-2.35h.36l0,.45a.87.87,0,0,1,.34-.37,1,1,0,0,1,.54-.14V553h-.1a.85.85,0,0,0-.39.08.54.54,0,0,0-.28.24,1,1,0,0,0-.1.48V555Zm2.69,0a1.19,1.19,0,0,1-.6-.15,1.06,1.06,0,0,1-.41-.43,1.46,1.46,0,0,1,0-1.29,1,1,0,0,1,.41-.43,1.2,1.2,0,0,1,.61-.16,1.07,1.07,0,0,1,.58.16,1,1,0,0,1,.39.4,1.13,1.13,0,0,1,.13.54v.22h-1.87a1,1,0,0,0,.12.45.8.8,0,0,0,.28.27.74.74,0,0,0,.36.09.69.69,0,0,0,.41-.12.6.6,0,0,0,.24-.3h.39a1,1,0,0,1-.36.54A1.06,1.06,0,0,1,452.41,555Zm0-2.12a.85.85,0,0,0-.51.17.74.74,0,0,0-.25.51h1.48a.65.65,0,0,0-.22-.5A.73.73,0,0,0,452.41,552.89Zm4.42,2.12a1.71,1.71,0,0,1-.86-.21,1.57,1.57,0,0,1-.57-.6,1.87,1.87,0,0,1-.2-.9,1.83,1.83,0,0,1,.2-.89,1.5,1.5,0,0,1,.57-.6,1.79,1.79,0,0,1,1.72,0,1.5,1.5,0,0,1,.57.6,2,2,0,0,1,.2.89,2,2,0,0,1-.2.9,1.52,1.52,0,0,1-.56.59l.84.81H458l-.67-.66A1.72,1.72,0,0,1,456.83,555Zm0-.35a1.22,1.22,0,0,0,.64-.16,1.09,1.09,0,0,0,.43-.47,1.75,1.75,0,0,0,0-1.46,1.12,1.12,0,0,0-.43-.46,1.29,1.29,0,0,0-1.28,0,1.15,1.15,0,0,0-.44.46,1.85,1.85,0,0,0,0,1.46,1.11,1.11,0,0,0,.44.47A1.22,1.22,0,0,0,456.83,554.66Zm3.08.35a.9.9,0,0,1-.67-.25A1.1,1.1,0,0,1,459,554v-1.37h.39v1.33c0,.49.21.73.61.73a.66.66,0,0,0,.5-.21.89.89,0,0,0,.21-.63v-1.22h.39V555h-.36l0-.42a1,1,0,0,1-.33.35A1,1,0,0,1,459.91,555Zm2.63,0a1.16,1.16,0,0,1-.49-.09.76.76,0,0,1-.29-.27.74.74,0,0,1-.09-.36.63.63,0,0,1,.27-.55,1.3,1.3,0,0,1,.75-.2h.63v0a.6.6,0,0,0-.16-.46.56.56,0,0,0-.43-.16.68.68,0,0,0-.4.12.5.5,0,0,0-.21.33h-.4a.72.72,0,0,1,.17-.43,1,1,0,0,1,.37-.26,1.1,1.1,0,0,1,.47-.1,1,1,0,0,1,.74.27.93.93,0,0,1,.25.69V555h-.35l0-.42a.93.93,0,0,1-.29.34A.88.88,0,0,1,462.54,555Zm.06-.33a.65.65,0,0,0,.39-.12.76.76,0,0,0,.25-.31.9.9,0,0,0,.08-.4h-.6a.76.76,0,0,0-.49.12.37.37,0,0,0-.15.3.39.39,0,0,0,.14.3A.61.61,0,0,0,462.6,554.68Zm2.78.33a1.13,1.13,0,0,1-.61-.16,1.09,1.09,0,0,1-.41-.44,1.39,1.39,0,0,1-.14-.63,1.28,1.28,0,0,1,.15-.63,1.06,1.06,0,0,1,.4-.44,1.24,1.24,0,0,1,.62-.16,1.07,1.07,0,0,1,.51.12.93.93,0,0,1,.35.33v-1.45h.39V555h-.36l0-.39a1.24,1.24,0,0,1-.33.31A1,1,0,0,1,465.38,555Zm.05-.34a.81.81,0,0,0,.41-.11.78.78,0,0,0,.29-.31,1,1,0,0,0,.1-.47,1,1,0,0,0-.1-.46.72.72,0,0,0-.29-.31.81.81,0,0,0-.41-.11.82.82,0,0,0-.42.11.77.77,0,0,0-.28.31,1,1,0,0,0-.1.46,1,1,0,0,0,.1.47.84.84,0,0,0,.28.31A.82.82,0,0,0,465.43,554.67Zm1.86.29v-2.35h.36l0,.45a.87.87,0,0,1,.34-.37,1,1,0,0,1,.54-.14V553h-.1a.85.85,0,0,0-.39.08.54.54,0,0,0-.28.24,1,1,0,0,0-.1.48V555Zm2.5,0a1.19,1.19,0,0,1-.49-.09.67.67,0,0,1-.28-.27.65.65,0,0,1-.1-.36.62.62,0,0,1,.28-.55,1.25,1.25,0,0,1,.74-.2h.64v0a.64.64,0,0,0-.16-.46.57.57,0,0,0-.43-.16.71.71,0,0,0-.41.12.46.46,0,0,0-.2.33H469a.72.72,0,0,1,.17-.43,1,1,0,0,1,.37-.26,1.12,1.12,0,0,1,.48-.1.91.91,0,0,1,1,1V555h-.36l0-.42a1.07,1.07,0,0,1-.3.34A.84.84,0,0,1,469.79,555Zm.06-.33a.65.65,0,0,0,.39-.12.69.69,0,0,0,.25-.31.9.9,0,0,0,.09-.4H470a.8.8,0,0,0-.5.12.36.36,0,0,0-.14.3.38.38,0,0,0,.13.3A.61.61,0,0,0,469.85,554.68Zm1.72.28v-2.35h.36l0,.42a.83.83,0,0,1,.32-.35,1,1,0,0,1,.48-.13.9.9,0,0,1,.67.26,1.08,1.08,0,0,1,.25.77V555h-.4v-1.33c0-.49-.2-.74-.61-.74a.64.64,0,0,0-.5.23.89.89,0,0,0-.2.62V555Zm3.64,0a.73.73,0,0,1-.51-.16.71.71,0,0,1-.18-.56V553h-.41v-.34h.41l.05-.56h.34v.56h.7V553h-.7v1.29a.38.38,0,0,0,.09.3.51.51,0,0,0,.32.08h.25V555Zm1.8,0a1.14,1.14,0,0,1-.7-.21.8.8,0,0,1-.33-.58h.41a.65.65,0,0,0,.19.33.74.74,0,0,0,.44.13.52.52,0,0,0,.36-.11.32.32,0,0,0,.12-.25.3.3,0,0,0-.15-.29,2.11,2.11,0,0,0-.43-.12,2.38,2.38,0,0,1-.38-.11,1,1,0,0,1-.32-.2.46.46,0,0,1-.13-.35.64.64,0,0,1,.23-.5.92.92,0,0,1,.62-.2,1,1,0,0,1,.61.19.7.7,0,0,1,.28.53h-.39a.39.39,0,0,0-.16-.28.51.51,0,0,0-.34-.1.54.54,0,0,0-.33.09.29.29,0,0,0-.12.24.25.25,0,0,0,.15.22,1.93,1.93,0,0,0,.41.14l.41.11a.81.81,0,0,1,.32.21.53.53,0,0,1,.13.39.66.66,0,0,1-.24.52A1,1,0,0,1,477,555Z" transform="translate(-234.12 -366.22)" style="fill: #293b4a"></path><path d="M405.72,542H261.82V676h143.9Z" transform="translate(-234.12 -366.22)" style="fill: none;stroke: #293b4a;stroke-miterlimit: 10;stroke-width: 0.19805200397968292px"></path><path d="M553.56,542H409.66V676h143.9Z" transform="translate(-234.12 -366.22)" style="fill: none;stroke: #293b4a;stroke-miterlimit: 10;stroke-width: 0.19805200397968292px"></path><path d="M277.47,593.22l1.39,2.83,3.12.45-2.26,2.2.54,3.11-2.79-1.47-2.8,1.47.54-3.11L273,596.5l3.12-.45Z" transform="translate(-234.12 -366.22)" style="fill: #19ad4a"></path><path d="M290.77,593.22l1.39,2.83,3.12.45L293,598.7l.53,3.11-2.79-1.47L288,601.81l.53-3.11-2.25-2.2,3.11-.45Z" transform="translate(-234.12 -366.22)" style="fill: #19ad4a"></path><path d="M304.07,593.22l1.4,2.83,3.12.45-2.26,2.2.53,3.11-2.79-1.47-2.78,1.47.53-3.11-2.26-2.2,3.12-.45Z" transform="translate(-234.12 -366.22)" style="fill: #19ad4a"></path><path d="M318.35,593.22l1.4,2.83,3.12.45-2.26,2.2.53,3.11-2.79-1.47-2.79,1.47.54-3.11-2.26-2.2,3.12-.45Z" transform="translate(-234.12 -366.22)" style="fill: #19ad4a"></path><path d="M331.74,593.22l1.39,2.83,3.12.45L334,598.7l.53,3.11-2.79-1.47L329,601.81l.53-3.11-2.25-2.2,3.11-.45Z" transform="translate(-234.12 -366.22)" style="fill: #19ad4a"></path><path d="M277.47,607.59l1.39,2.83,3.12.45-2.26,2.2.54,3.1-2.79-1.46-2.8,1.46.54-3.1-2.26-2.2,3.12-.45Z" transform="translate(-234.12 -366.22)" style="fill: #19ad4a"></path><path d="M290.77,607.59l1.39,2.83,3.12.45-2.25,2.2.53,3.1-2.79-1.46L288,616.17l.53-3.1-2.25-2.2,3.11-.45Z" transform="translate(-234.12 -366.22)" style="fill: #19ad4a"></path><path d="M304.07,607.59l1.4,2.83,3.12.45-2.26,2.2.53,3.1-2.79-1.46-2.78,1.46.53-3.1-2.26-2.2,3.12-.45Z" transform="translate(-234.12 -366.22)" style="fill: #19ad4a"></path><path d="M318.35,607.59l1.4,2.83,3.12.45-2.26,2.2.53,3.1-2.79-1.46-2.79,1.46.54-3.1-2.26-2.2,3.12-.45Z" transform="translate(-234.12 -366.22)" style="fill: #19ad4a"></path><path d="M331.74,607.59l1.39,2.83,3.12.45-2.25,2.2.53,3.1-2.79-1.46L329,616.17l.53-3.1-2.25-2.2,3.11-.45Z" transform="translate(-234.12 -366.22)" style="fill: none;stroke: gray;stroke-miterlimit: 10;stroke-width: 0.39610499143600464px"></path><path d="M277.47,622.35l1.39,2.82,3.12.46-2.26,2.2.54,3.1-2.79-1.46-2.8,1.46.54-3.1-2.26-2.2,3.12-.46Z" transform="translate(-234.12 -366.22)" style="fill: #19ad4a"></path><path d="M290.77,622.35l1.39,2.82,3.12.46-2.25,2.2.53,3.1-2.79-1.46L288,630.93l.53-3.1-2.25-2.2,3.11-.46Z" transform="translate(-234.12 -366.22)" style="fill: #19ad4a"></path><path d="M304.07,622.35l1.4,2.82,3.12.46-2.26,2.2.53,3.1-2.79-1.46-2.78,1.46.53-3.1-2.26-2.2,3.12-.46Z" transform="translate(-234.12 -366.22)" style="fill: #19ad4a"></path><path d="M318.35,622.35l1.4,2.82,3.12.46-2.26,2.2.53,3.1-2.79-1.46-2.79,1.46.54-3.1-2.26-2.2,3.12-.46Z" transform="translate(-234.12 -366.22)" style="fill: none;stroke: gray;stroke-miterlimit: 10;stroke-width: 0.39610499143600464px"></path><path d="M331.74,622.35l1.39,2.82,3.12.46-2.25,2.2.53,3.1-2.79-1.46L329,630.93l.53-3.1-2.25-2.2,3.11-.46Z" transform="translate(-234.12 -366.22)" style="fill: none;stroke: gray;stroke-miterlimit: 10;stroke-width: 0.39610499143600464px"></path><path d="M277.47,636.24l1.39,2.82,3.12.45-2.26,2.21.54,3.1-2.79-1.47-2.8,1.47.54-3.1L273,639.51l3.12-.45Z" transform="translate(-234.12 -366.22)" style="fill: #19ad4a"></path><path d="M290.77,636.24l1.39,2.82,3.12.45L293,641.72l.53,3.1-2.79-1.47L288,644.82l.53-3.1-2.25-2.21,3.11-.45Z" transform="translate(-234.12 -366.22)" style="fill: #19ad4a"></path><path d="M304.07,636.24l1.4,2.82,3.12.45-2.26,2.21.53,3.1-2.79-1.47-2.78,1.47.53-3.1-2.26-2.21,3.12-.45Z" transform="translate(-234.12 -366.22)" style="fill: none;stroke: gray;stroke-miterlimit: 10;stroke-width: 0.39610499143600464px"></path><path d="M318.35,636.24l1.4,2.82,3.12.45-2.26,2.21.53,3.1-2.79-1.47-2.79,1.47.54-3.1-2.26-2.21,3.12-.45Z" transform="translate(-234.12 -366.22)" style="fill: none;stroke: gray;stroke-miterlimit: 10;stroke-width: 0.39610499143600464px"></path><path d="M331.74,636.24l1.39,2.82,3.12.45L334,641.72l.53,3.1-2.79-1.47L329,644.82l.53-3.1-2.25-2.21,3.11-.45Z" transform="translate(-234.12 -366.22)" style="fill: none;stroke: gray;stroke-miterlimit: 10;stroke-width: 0.39610499143600464px"></path><path d="M277.47,649.46l1.39,2.83,3.12.45-2.26,2.2.54,3.11-2.79-1.47-2.8,1.47.54-3.11-2.26-2.2,3.12-.45Z" transform="translate(-234.12 -366.22)" style="fill: #19ad4a"></path><path d="M290.77,649.46l1.39,2.83,3.12.45-2.25,2.2.53,3.11-2.79-1.47L288,658.05l.53-3.11-2.25-2.2,3.11-.45Z" transform="translate(-234.12 -366.22)" style="fill: none;stroke: gray;stroke-miterlimit: 10;stroke-width: 0.39610499143600464px"></path><path d="M304.07,649.46l1.4,2.83,3.12.45-2.26,2.2.53,3.11-2.79-1.47-2.78,1.47.53-3.11-2.26-2.2,3.12-.45Z" transform="translate(-234.12 -366.22)" style="fill: none;stroke: gray;stroke-miterlimit: 10;stroke-width: 0.39610499143600464px"></path><path d="M318.35,649.46l1.4,2.83,3.12.45-2.26,2.2.53,3.11-2.79-1.47-2.79,1.47.54-3.11-2.26-2.2,3.12-.45Z" transform="translate(-234.12 -366.22)" style="fill: none;stroke: gray;stroke-miterlimit: 10;stroke-width: 0.39610499143600464px"></path><path d="M331.74,649.46l1.39,2.83,3.12.45-2.25,2.2.53,3.11-2.79-1.47L329,658.05l.53-3.11-2.25-2.2,3.11-.45Z" transform="translate(-234.12 -366.22)" style="fill: none;stroke: gray;stroke-miterlimit: 10;stroke-width: 0.39610499143600464px"></path><path d="M359.71,594.74h-16.5v3.53h16.5Z" transform="translate(-234.12 -366.22)" style="fill: #19ad4a"></path><path d="M369.52,600H343.21v3.53h26.31Z" transform="translate(-234.12 -366.22)" style="fill: #293b4a"></path><path d="M383.08,608.82H343.21v3.53h39.87Z" transform="translate(-234.12 -366.22)" style="fill: #19ad4a"></path><path d="M389.19,614.12h-46v3.53h46Z" transform="translate(-234.12 -366.22)" style="fill: #293b4a"></path><path d="M394.78,622.9H343.21v3.53h51.57Z" transform="translate(-234.12 -366.22)" style="fill: #19ad4a"></path><path d="M400.4,628.2H343.21v3.53H400.4Z" transform="translate(-234.12 -366.22)" style="fill: #293b4a"></path><path d="M350.39,637h-7.18v3.53h7.18Z" transform="translate(-234.12 -366.22)" style="fill: #19ad4a"></path><path d="M353.72,642.27H343.21v3.54h10.51Z" transform="translate(-234.12 -366.22)" style="fill: #293b4a"></path><path d="M348.47,648.45h-5.26V652h5.26Z" transform="translate(-234.12 -366.22)" style="fill: #19ad4a"></path><path d="M351.46,653.76h-8.25v3.53h8.25Z" transform="translate(-234.12 -366.22)" style="fill: #293b4a"></path><path d="M339.73,661.94v-68.1" transform="translate(-234.12 -366.22)" style="fill: none;stroke: #293b4a;stroke-miterlimit: 10;stroke-width: 0.09902620315551758px"></path><path d="M398,661.94H272.22" transform="translate(-234.12 -366.22)" style="fill: none;stroke: #293b4a;stroke-miterlimit: 10;stroke-width: 0.09902620315551758px"></path><path d="M398.85,665.83H320.57a.61.61,0,0,0-.61.61v1.82a.61.61,0,0,0,.61.61h78.28a.61.61,0,0,0,.61-.61v-1.82A.61.61,0,0,0,398.85,665.83Z" transform="translate(-234.12 -366.22)" style="fill: #f1f3f5"></path><path d="M544.51,667.35H466.23a.61.61,0,0,0-.61.61v1.82a.61.61,0,0,0,.61.61h78.28a.61.61,0,0,0,.61-.61V668A.61.61,0,0,0,544.51,667.35Z" transform="translate(-234.12 -366.22)" style="fill: #f1f3f5"></path><path d="M543.54,592.6H524.87a.62.62,0,0,0-.61.61V595a.61.61,0,0,0,.61.61h18.67a.61.61,0,0,0,.61-.61v-1.82A.61.61,0,0,0,543.54,592.6Z" transform="translate(-234.12 -366.22)" style="fill: #293b4a"></path><path d="M543.54,597.83H524.87a.62.62,0,0,0-.61.61v1.83a.62.62,0,0,0,.61.61h18.67a.61.61,0,0,0,.61-.61v-1.83A.61.61,0,0,0,543.54,597.83Z" transform="translate(-234.12 -366.22)" style="fill: #293b4a"></path><path d="M432.46,661a1.08,1.08,0,0,1-.6-.16,1.18,1.18,0,0,1-.38-.47,1.76,1.76,0,0,1-.13-.71,1.68,1.68,0,0,1,.13-.7,1.06,1.06,0,0,1,.38-.47,1.09,1.09,0,0,1,1.2,0,1.06,1.06,0,0,1,.38.47,1.68,1.68,0,0,1,.13.7,1.76,1.76,0,0,1-.13.71,1.18,1.18,0,0,1-.38.47A1.08,1.08,0,0,1,432.46,661Zm0-.27a.67.67,0,0,0,.41-.13.86.86,0,0,0,.28-.36,1.5,1.5,0,0,0,.1-.58,1.42,1.42,0,0,0-.1-.57.89.89,0,0,0-.28-.37.71.71,0,0,0-.82,0,.89.89,0,0,0-.28.37,1.42,1.42,0,0,0-.1.57,1.5,1.5,0,0,0,.1.58.86.86,0,0,0,.28.36A.67.67,0,0,0,432.46,660.68Z" transform="translate(-234.12 -366.22)" style="fill: #293b4a"></path><path d="M446.21,660.91v-.22c.18-.14.34-.28.5-.42a4.16,4.16,0,0,0,.42-.42,2.4,2.4,0,0,0,.29-.41.86.86,0,0,0,.11-.39.7.7,0,0,0,0-.25.36.36,0,0,0-.15-.19.47.47,0,0,0-.28-.08.52.52,0,0,0-.29.08.55.55,0,0,0-.17.2.63.63,0,0,0-.06.27h-.3a.87.87,0,0,1,.11-.44.78.78,0,0,1,.29-.28,1,1,0,0,1,.42-.1.84.84,0,0,1,.57.2.72.72,0,0,1,.22.58,1,1,0,0,1-.12.46,1.91,1.91,0,0,1-.29.43,4.68,4.68,0,0,1-.38.39l-.38.33h1.26v.26Zm3.15,0a1.08,1.08,0,0,1-.6-.16,1.1,1.1,0,0,1-.38-.47,1.76,1.76,0,0,1-.14-.71,1.68,1.68,0,0,1,.14-.7,1,1,0,0,1,.38-.47,1,1,0,0,1,.6-.18,1,1,0,0,1,.59.18.94.94,0,0,1,.38.47,1.68,1.68,0,0,1,.14.7,1.76,1.76,0,0,1-.14.71,1,1,0,0,1-.38.47A1,1,0,0,1,449.36,661Zm0-.27a.64.64,0,0,0,.4-.13.78.78,0,0,0,.28-.36,1.5,1.5,0,0,0,.11-.58A1.41,1.41,0,0,0,450,659a.81.81,0,0,0-.28-.37.71.71,0,0,0-.4-.13.71.71,0,0,0-.41.13.89.89,0,0,0-.28.37,1.41,1.41,0,0,0-.11.57,1.5,1.5,0,0,0,.11.58.86.86,0,0,0,.28.36A.65.65,0,0,0,449.36,660.68Z" transform="translate(-234.12 -366.22)" style="fill: #293b4a"></path><path d="M463.2,660.91v-.56h-1.32v-.24l1.27-1.8h.36v1.77h.39v.27h-.39v.56Zm-1-.83h1v-1.43Zm3.06.87a1.08,1.08,0,0,1-.6-.16,1.18,1.18,0,0,1-.38-.47,1.76,1.76,0,0,1-.13-.71,1.68,1.68,0,0,1,.13-.7,1.06,1.06,0,0,1,.38-.47,1,1,0,0,1,.6-.18,1,1,0,0,1,.59.18,1,1,0,0,1,.39.47,1.68,1.68,0,0,1,.13.7,1.76,1.76,0,0,1-.13.71,1.12,1.12,0,0,1-.39.47A1,1,0,0,1,465.29,661Zm0-.27a.62.62,0,0,0,.4-.13.8.8,0,0,0,.29-.36,1.5,1.5,0,0,0,.1-.58,1.42,1.42,0,0,0-.1-.57.83.83,0,0,0-.29-.37.68.68,0,0,0-.4-.13.74.74,0,0,0-.41.13.89.89,0,0,0-.28.37,1.41,1.41,0,0,0-.11.57,1.5,1.5,0,0,0,.11.58.86.86,0,0,0,.28.36A.67.67,0,0,0,465.29,660.68Z" transform="translate(-234.12 -366.22)" style="fill: #293b4a"></path><path d="M478.77,661a1,1,0,0,1-.48-.1.86.86,0,0,1-.31-.29,1.25,1.25,0,0,1-.17-.39,1.75,1.75,0,0,1-.05-.46,2.15,2.15,0,0,1,.12-.75,1,1,0,0,1,.34-.51.85.85,0,0,1,.54-.19.87.87,0,0,1,.42.1.78.78,0,0,1,.28.26.92.92,0,0,1,.13.36h-.29a.59.59,0,0,0-.18-.33.55.55,0,0,0-.36-.11.58.58,0,0,0-.49.27,1.54,1.54,0,0,0-.22.87.76.76,0,0,1,.29-.3.79.79,0,0,1,.47-.13.8.8,0,0,1,.41.1.82.82,0,0,1,.32.29.74.74,0,0,1,.13.44.88.88,0,0,1-.11.42.89.89,0,0,1-.31.33A1,1,0,0,1,478.77,661Zm0-.27a.79.79,0,0,0,.32-.07.53.53,0,0,0,.21-.21.61.61,0,0,0,.08-.3.54.54,0,0,0-.17-.42.61.61,0,0,0-.44-.16.55.55,0,0,0-.31.08.63.63,0,0,0-.22.21.59.59,0,0,0-.07.29.6.6,0,0,0,.07.3.63.63,0,0,0,.22.21A.78.78,0,0,0,478.74,660.68Zm2.45.27a1.05,1.05,0,0,1-.6-.16,1.12,1.12,0,0,1-.39-.47,2,2,0,0,1-.13-.71,1.86,1.86,0,0,1,.13-.7,1,1,0,0,1,.39-.47,1.05,1.05,0,0,1,1.57.47,1.68,1.68,0,0,1,.14.7,1.76,1.76,0,0,1-.14.71,1.1,1.1,0,0,1-.38.47A1,1,0,0,1,481.19,661Zm0-.27a.64.64,0,0,0,.4-.13.78.78,0,0,0,.28-.36,1.5,1.5,0,0,0,.11-.58,1.41,1.41,0,0,0-.11-.57.81.81,0,0,0-.28-.37.71.71,0,0,0-.4-.13.71.71,0,0,0-.41.13.91.91,0,0,0-.29.37,1.42,1.42,0,0,0-.1.57,1.5,1.5,0,0,0,.1.58.87.87,0,0,0,.29.36A.65.65,0,0,0,481.19,660.68Z" transform="translate(-234.12 -366.22)" style="fill: #293b4a"></path><path d="M494.58,661a1.11,1.11,0,0,1-.46-.09.78.78,0,0,1-.33-.26.77.77,0,0,1-.11-.4.7.7,0,0,1,.13-.42.73.73,0,0,1,.38-.26.65.65,0,0,1-.33-.22.56.56,0,0,1-.12-.34.68.68,0,0,1,.1-.35.71.71,0,0,1,.29-.25,1,1,0,0,1,.45-.1,1,1,0,0,1,.44.1.65.65,0,0,1,.29.25.6.6,0,0,1,.1.35.56.56,0,0,1-.12.34.58.58,0,0,1-.32.22.68.68,0,0,1,.36.26.66.66,0,0,1,.15.42.7.7,0,0,1-.12.4.82.82,0,0,1-.32.26A1.14,1.14,0,0,1,494.58,661Zm0-1.54a.53.53,0,0,0,.37-.12.37.37,0,0,0,.14-.32.42.42,0,0,0-.13-.33.63.63,0,0,0-.38-.11.61.61,0,0,0-.38.11.42.42,0,0,0-.14.33.4.4,0,0,0,.14.32A.56.56,0,0,0,494.58,659.41Zm0,1.27a.64.64,0,0,0,.44-.13.52.52,0,0,0,.14-.36.47.47,0,0,0-.16-.39.68.68,0,0,0-.42-.13.71.71,0,0,0-.43.13.47.47,0,0,0-.16.39.52.52,0,0,0,.14.36A.65.65,0,0,0,494.58,660.68ZM497,661a1.08,1.08,0,0,1-.6-.16,1.18,1.18,0,0,1-.38-.47,1.76,1.76,0,0,1-.13-.71,1.68,1.68,0,0,1,.13-.7,1.06,1.06,0,0,1,.38-.47,1,1,0,0,1,.6-.18,1,1,0,0,1,.59.18,1,1,0,0,1,.39.47,1.68,1.68,0,0,1,.13.7,1.76,1.76,0,0,1-.13.71,1.12,1.12,0,0,1-.39.47A1,1,0,0,1,497,661Zm0-.27a.67.67,0,0,0,.41-.13.86.86,0,0,0,.28-.36,1.5,1.5,0,0,0,.1-.58,1.42,1.42,0,0,0-.1-.57.89.89,0,0,0-.28-.37.71.71,0,0,0-.82,0,.89.89,0,0,0-.28.37,1.42,1.42,0,0,0-.1.57,1.5,1.5,0,0,0,.1.58.86.86,0,0,0,.28.36A.67.67,0,0,0,497,660.68Z" transform="translate(-234.12 -366.22)" style="fill: #293b4a"></path><path d="M509.11,660.91v-2.25l-.42.09v-.21l.52-.23h.22v2.6Zm1.88,0a1.08,1.08,0,0,1-.6-.16,1.1,1.1,0,0,1-.38-.47,1.76,1.76,0,0,1-.14-.71,1.68,1.68,0,0,1,.14-.7,1,1,0,0,1,.38-.47,1,1,0,0,1,.6-.18,1,1,0,0,1,.59.18,1,1,0,0,1,.39.47,1.68,1.68,0,0,1,.13.7,1.76,1.76,0,0,1-.13.71,1.12,1.12,0,0,1-.39.47A1,1,0,0,1,511,661Zm0-.27a.62.62,0,0,0,.4-.13.8.8,0,0,0,.29-.36,1.5,1.5,0,0,0,.1-.58,1.42,1.42,0,0,0-.1-.57.83.83,0,0,0-.29-.37.68.68,0,0,0-.4-.13.74.74,0,0,0-.41.13.89.89,0,0,0-.28.37,1.41,1.41,0,0,0-.11.57,1.5,1.5,0,0,0,.11.58.86.86,0,0,0,.28.36A.67.67,0,0,0,511,660.68Zm2.58.27a1.05,1.05,0,0,1-.6-.16,1.12,1.12,0,0,1-.39-.47,2,2,0,0,1-.13-.71,1.86,1.86,0,0,1,.13-.7,1,1,0,0,1,.39-.47,1.05,1.05,0,0,1,1.57.47,1.68,1.68,0,0,1,.14.7,1.76,1.76,0,0,1-.14.71,1.1,1.1,0,0,1-.38.47A1,1,0,0,1,513.57,661Zm0-.27a.64.64,0,0,0,.4-.13.78.78,0,0,0,.28-.36,1.5,1.5,0,0,0,.11-.58,1.41,1.41,0,0,0-.11-.57.81.81,0,0,0-.28-.37.71.71,0,0,0-.4-.13.71.71,0,0,0-.41.13.91.91,0,0,0-.29.37,1.42,1.42,0,0,0-.1.57,1.5,1.5,0,0,0,.1.58.87.87,0,0,0,.29.36A.65.65,0,0,0,513.57,660.68Z" transform="translate(-234.12 -366.22)" style="fill: #293b4a"></path><path d="M432.46,656.92h94.66" transform="translate(-234.12 -366.22)" style="fill: none;stroke: #293b4a;stroke-miterlimit: 10;stroke-width: 0.2099359929561615px"></path><path d="M432.46,656.92v-1.48" transform="translate(-234.12 -366.22)" style="fill: none;stroke: #293b4a;stroke-miterlimit: 10;stroke-width: 0.19012999534606934px"></path><path d="M448.31,656.92v-1.48" transform="translate(-234.12 -366.22)" style="fill: none;stroke: #293b4a;stroke-miterlimit: 10;stroke-width: 0.19012999534606934px"></path><path d="M464.16,656.92v-1.48" transform="translate(-234.12 -366.22)" style="fill: none;stroke: #293b4a;stroke-miterlimit: 10;stroke-width: 0.19012999534606934px"></path><path d="M480,656.92v-1.48" transform="translate(-234.12 -366.22)" style="fill: none;stroke: #293b4a;stroke-miterlimit: 10;stroke-width: 0.19012999534606934px"></path><path d="M495.86,656.92v-1.48" transform="translate(-234.12 -366.22)" style="fill: none;stroke: #293b4a;stroke-miterlimit: 10;stroke-width: 0.19012999534606934px"></path><path d="M511.71,656.92v-1.48" transform="translate(-234.12 -366.22)" style="fill: none;stroke: #293b4a;stroke-miterlimit: 10;stroke-width: 0.19012999534606934px"></path><path d="M429.94,658.64a1.08,1.08,0,0,1-.6-.17A1,1,0,0,1,429,658a1.73,1.73,0,0,1-.14-.71,1.68,1.68,0,0,1,.14-.7,1,1,0,0,1,.38-.47,1,1,0,0,1,.6-.17,1,1,0,0,1,.59.17,1,1,0,0,1,.38.47,1.68,1.68,0,0,1,.14.7,1.73,1.73,0,0,1-.14.71,1,1,0,0,1-.38.47A1,1,0,0,1,429.94,658.64Zm0-.28a.7.7,0,0,0,.4-.12.91.91,0,0,0,.29-.37,1.63,1.63,0,0,0,.1-.58,1.61,1.61,0,0,0-.1-.57.81.81,0,0,0-.29-.36.64.64,0,0,0-.4-.13.65.65,0,0,0-.41.13.8.8,0,0,0-.28.36,1.41,1.41,0,0,0-.11.57,1.43,1.43,0,0,0,.11.58.89.89,0,0,0,.28.37A.71.71,0,0,0,429.94,658.36Z" transform="translate(-234.12 -366.22)" style="fill: #293b4a"></path><path d="M426.79,646.8v-.21c.18-.14.34-.28.5-.42a5.56,5.56,0,0,0,.42-.43,2.06,2.06,0,0,0,.29-.41.82.82,0,0,0,.11-.38.75.75,0,0,0-.05-.26.4.4,0,0,0-.15-.19.47.47,0,0,0-.28-.07.52.52,0,0,0-.29.07.44.44,0,0,0-.17.21.6.6,0,0,0-.06.27h-.3a.87.87,0,0,1,.11-.44.65.65,0,0,1,.29-.28.82.82,0,0,1,.42-.1.8.8,0,0,1,.57.2.74.74,0,0,1,.22.58,1,1,0,0,1-.12.45,2,2,0,0,1-.29.44,4.68,4.68,0,0,1-.38.39c-.14.12-.26.23-.38.32h1.26v.26Zm3.15.05a1.08,1.08,0,0,1-.6-.17,1,1,0,0,1-.38-.47,1.85,1.85,0,0,1,0-1.41,1,1,0,0,1,.38-.47,1.08,1.08,0,0,1,.6-.17,1,1,0,0,1,1,.64,1.85,1.85,0,0,1,0,1.41,1,1,0,0,1-1,.64Zm0-.28a.7.7,0,0,0,.4-.12.81.81,0,0,0,.28-.37,1.43,1.43,0,0,0,.11-.58,1.41,1.41,0,0,0-.11-.57.74.74,0,0,0-.28-.36.64.64,0,0,0-.4-.13.65.65,0,0,0-.41.13.74.74,0,0,0-.28.36,1.41,1.41,0,0,0-.11.57,1.43,1.43,0,0,0,.11.58.81.81,0,0,0,.28.37A.71.71,0,0,0,429.94,646.57Z" transform="translate(-234.12 -366.22)" style="fill: #293b4a"></path><path d="M427.85,635v-.55h-1.32v-.25l1.27-1.8h.36v1.77h.39v.28h-.39V635Zm-1-.83h1v-1.42Zm3.06.88a1.08,1.08,0,0,1-.6-.17,1,1,0,0,1-.38-.47,1.73,1.73,0,0,1-.14-.71,1.68,1.68,0,0,1,.14-.7,1,1,0,0,1,.38-.47,1,1,0,0,1,.6-.17,1,1,0,0,1,.59.17,1,1,0,0,1,.38.47,1.68,1.68,0,0,1,.14.7,1.73,1.73,0,0,1-.14.71,1,1,0,0,1-.38.47A1,1,0,0,1,429.94,635.06Zm0-.28a.7.7,0,0,0,.4-.12.81.81,0,0,0,.28-.37,1.43,1.43,0,0,0,.11-.58,1.41,1.41,0,0,0-.11-.57.74.74,0,0,0-.28-.36.64.64,0,0,0-.4-.13.65.65,0,0,0-.41.13.8.8,0,0,0-.28.36,1.41,1.41,0,0,0-.11.57,1.43,1.43,0,0,0,.11.58.89.89,0,0,0,.28.37A.71.71,0,0,0,429.94,634.78Z" transform="translate(-234.12 -366.22)" style="fill: #293b4a"></path><path d="M427.52,623.27a1,1,0,0,1-.48-.11.93.93,0,0,1-.31-.28,1.42,1.42,0,0,1-.17-.4,2.31,2.31,0,0,1-.05-.46,2.19,2.19,0,0,1,.12-.75,1.12,1.12,0,0,1,.34-.51.85.85,0,0,1,.55-.18.86.86,0,0,1,.41.09.78.78,0,0,1,.28.26.92.92,0,0,1,.13.36h-.29a.59.59,0,0,0-.18-.33.53.53,0,0,0-.36-.11.58.58,0,0,0-.49.28,1.57,1.57,0,0,0-.21.86.67.67,0,0,1,.28-.3.81.81,0,0,1,.47-.13.87.87,0,0,1,.42.1,1,1,0,0,1,.32.29.81.81,0,0,1,.12.44.88.88,0,0,1-.11.42.89.89,0,0,1-.31.33A1,1,0,0,1,427.52,623.27Zm0-.28a.64.64,0,0,0,.31-.07.53.53,0,0,0,.21-.21.52.52,0,0,0,.08-.3.54.54,0,0,0-.17-.42.6.6,0,0,0-.43-.16.59.59,0,0,0-.32.08.53.53,0,0,0-.21.21.51.51,0,0,0-.08.29.52.52,0,0,0,.08.3.53.53,0,0,0,.21.21A.68.68,0,0,0,427.5,623Zm2.44.28a1.08,1.08,0,0,1-.6-.17,1.1,1.1,0,0,1-.38-.47,1.76,1.76,0,0,1-.14-.71,1.68,1.68,0,0,1,.14-.7,1,1,0,0,1,.38-.47,1,1,0,0,1,.6-.17,1,1,0,0,1,.59.17.94.94,0,0,1,.38.47,1.68,1.68,0,0,1,.14.7,1.76,1.76,0,0,1-.14.71,1,1,0,0,1-1,.64Zm0-.28a.64.64,0,0,0,.4-.13.78.78,0,0,0,.28-.36,1.46,1.46,0,0,0,.11-.58,1.41,1.41,0,0,0-.11-.57.81.81,0,0,0-.28-.37.71.71,0,0,0-.4-.13.71.71,0,0,0-.41.13.89.89,0,0,0-.28.37,1.41,1.41,0,0,0-.11.57,1.46,1.46,0,0,0,.11.58.86.86,0,0,0,.28.36A.65.65,0,0,0,429.94,623Z" transform="translate(-234.12 -366.22)" style="fill: #293b4a"></path><path d="M427.51,611.48a1,1,0,0,1-.46-.1.82.82,0,0,1-.32-.26.65.65,0,0,1-.12-.39.74.74,0,0,1,.14-.43.63.63,0,0,1,.37-.25.65.65,0,0,1-.32-.23.54.54,0,0,1-.12-.34.62.62,0,0,1,.1-.35.72.72,0,0,1,.29-.25,1,1,0,0,1,.44-.09,1,1,0,0,1,.45.09.69.69,0,0,1,.28.25.62.62,0,0,1,.1.35.55.55,0,0,1-.11.34.73.73,0,0,1-.33.23.61.61,0,0,1,.37.25.74.74,0,0,1,.14.43.65.65,0,0,1-.12.39.7.7,0,0,1-.32.26A1,1,0,0,1,427.51,611.48Zm0-1.54a.56.56,0,0,0,.38-.12.43.43,0,0,0,.14-.32.39.39,0,0,0-.14-.33.66.66,0,0,0-.76,0,.39.39,0,0,0-.13.33.43.43,0,0,0,.14.32A.53.53,0,0,0,427.51,609.94Zm0,1.26a.63.63,0,0,0,.44-.13.46.46,0,0,0,.15-.36.44.44,0,0,0-.16-.38.78.78,0,0,0-.86,0,.46.46,0,0,0-.15.38.45.45,0,0,0,.14.36A.64.64,0,0,0,427.51,611.2Zm2.43.28a1.08,1.08,0,0,1-.6-.17,1,1,0,0,1-.38-.47,1.76,1.76,0,0,1-.14-.71,1.68,1.68,0,0,1,.14-.7,1,1,0,0,1,.38-.47,1,1,0,0,1,.6-.17,1,1,0,0,1,.59.17,1,1,0,0,1,.38.47,1.68,1.68,0,0,1,.14.7,1.76,1.76,0,0,1-.14.71,1,1,0,0,1-1,.64Zm0-.28a.7.7,0,0,0,.4-.12.81.81,0,0,0,.28-.37,1.43,1.43,0,0,0,.11-.58,1.41,1.41,0,0,0-.11-.57.74.74,0,0,0-.28-.36.64.64,0,0,0-.4-.13.65.65,0,0,0-.41.13.81.81,0,0,0-.29.36,1.61,1.61,0,0,0-.1.57,1.63,1.63,0,0,0,.1.58.91.91,0,0,0,.29.37A.71.71,0,0,0,429.94,611.2Z" transform="translate(-234.12 -366.22)" style="fill: #293b4a"></path><path d="M425.48,599.64v-2.25l-.42.09v-.21l.52-.23h.22v2.6Zm1.88.05a1.08,1.08,0,0,1-.6-.17,1.18,1.18,0,0,1-.38-.47,1.76,1.76,0,0,1-.14-.71,1.68,1.68,0,0,1,.14-.7,1.06,1.06,0,0,1,.38-.47,1,1,0,0,1,.6-.17,1,1,0,0,1,.59.17,1,1,0,0,1,.39.47,1.68,1.68,0,0,1,.13.7,1.76,1.76,0,0,1-.13.71,1.12,1.12,0,0,1-.39.47A1,1,0,0,1,427.36,599.69Zm0-.28a.62.62,0,0,0,.4-.13.8.8,0,0,0,.29-.36,1.5,1.5,0,0,0,.1-.58,1.42,1.42,0,0,0-.1-.57.83.83,0,0,0-.29-.37.68.68,0,0,0-.4-.13.74.74,0,0,0-.41.13.89.89,0,0,0-.28.37,1.41,1.41,0,0,0-.11.57,1.5,1.5,0,0,0,.11.58.86.86,0,0,0,.28.36A.67.67,0,0,0,427.36,599.41Zm2.58.28a1.08,1.08,0,0,1-.6-.17,1.12,1.12,0,0,1-.39-.47,2,2,0,0,1-.13-.71,1.86,1.86,0,0,1,.13-.7,1,1,0,0,1,1-.64,1,1,0,0,1,.59.17,1,1,0,0,1,.38.47,1.68,1.68,0,0,1,.14.7,1.76,1.76,0,0,1-.14.71,1.1,1.1,0,0,1-.38.47A1,1,0,0,1,429.94,599.69Zm0-.28a.64.64,0,0,0,.4-.13.78.78,0,0,0,.28-.36,1.5,1.5,0,0,0,.11-.58,1.41,1.41,0,0,0-.11-.57.81.81,0,0,0-.28-.37.71.71,0,0,0-.4-.13.71.71,0,0,0-.41.13.91.91,0,0,0-.29.37,1.61,1.61,0,0,0-.1.57,1.72,1.72,0,0,0,.1.58.87.87,0,0,0,.29.36A.65.65,0,0,0,429.94,599.41Z" transform="translate(-234.12 -366.22)" style="fill: #293b4a"></path><path d="M432.46,656.92V598" transform="translate(-234.12 -366.22)" style="fill: none;stroke: #293b4a;stroke-miterlimit: 10;stroke-width: 0.19012999534606934px"></path><path d="M432.46,656.92h2" transform="translate(-234.12 -366.22)" style="fill: none;stroke: #293b4a;stroke-miterlimit: 10;stroke-width: 0.19012999534606934px"></path><path d="M432.46,645.13h2" transform="translate(-234.12 -366.22)" style="fill: none;stroke: #293b4a;stroke-miterlimit: 10;stroke-width: 0.19012999534606934px"></path><path d="M432.46,633.33h2" transform="translate(-234.12 -366.22)" style="fill: none;stroke: #293b4a;stroke-miterlimit: 10;stroke-width: 0.19012999534606934px"></path><path d="M432.46,621.55h2" transform="translate(-234.12 -366.22)" style="fill: none;stroke: #293b4a;stroke-miterlimit: 10;stroke-width: 0.19012999534606934px"></path><path d="M432.46,609.75h2" transform="translate(-234.12 -366.22)" style="fill: none;stroke: #293b4a;stroke-miterlimit: 10;stroke-width: 0.19012999534606934px"></path><path d="M432.46,598h2" transform="translate(-234.12 -366.22)" style="fill: none;stroke: #293b4a;stroke-miterlimit: 10;stroke-width: 0.19012999534606934px"></path><path d="M495.64,616.84H494.5V618h1.14Z" transform="translate(-234.12 -366.22)" style="fill: #19ad4a;stroke: #293b4a;stroke-miterlimit: 10;stroke-width: 0.09506519883871078px"></path><path d="M452.85,611.54H451.7v1.14h1.15Z" transform="translate(-234.12 -366.22)" style="fill: #293b4a"></path><path d="M497.23,600.34h-1.15v1.14h1.15Z" transform="translate(-234.12 -366.22)" style="fill: #19ad4a"></path><path d="M476.62,616.25h-1.14v1.15h1.14Z" transform="translate(-234.12 -366.22)" style="fill: #5cc46e"></path><path d="M468.69,647.5h-1.14v1.14h1.14Z" transform="translate(-234.12 -366.22)" style="fill: gray"></path><path d="M437,650.45h-1.14v1.14H437Z" transform="translate(-234.12 -366.22)" style="fill: #293b4a;stroke: #293b4a;stroke-miterlimit: 10;stroke-width: 0.09506519883871078px"></path><path d="M501.81,628.77h-1.15v1.15h1.15Z" transform="translate(-234.12 -366.22)" style="fill: #19ad4a;stroke: #293b4a;stroke-miterlimit: 10;stroke-width: 0.09506519883871078px"></path><path d="M447.36,621h-1.14v1.15h1.14Z" transform="translate(-234.12 -366.22)" style="fill: #293b4a"></path><path d="M497.23,643.3h-1.15v1.14h1.15Z" transform="translate(-234.12 -366.22)" style="fill: #19ad4a"></path><path d="M467,624.09h-1.14v1.14H467Z" transform="translate(-234.12 -366.22)" style="fill: #5cc46e"></path><path d="M512.29,629.39h-1.15v1.14h1.15Z" transform="translate(-234.12 -366.22)" style="fill: #19ad4a;stroke: #293b4a;stroke-miterlimit: 10;stroke-width: 0.09506519883871078px"></path><path d="M466.77,601.83h-1.15V603h1.15Z" transform="translate(-234.12 -366.22)" style="fill: #293b4a"></path><path d="M478.33,628.2h-1.15v1.14h1.15Z" transform="translate(-234.12 -366.22)" style="fill: #19ad4a"></path><path d="M490.54,606.55H489.4v1.14h1.14Z" transform="translate(-234.12 -366.22)" style="fill: #5cc46e"></path><path d="M482.62,637.79h-1.15v1.14h1.15Z" transform="translate(-234.12 -366.22)" style="fill: gray"></path><path d="M450.92,640.74h-1.15v1.14h1.15Z" transform="translate(-234.12 -366.22)" style="fill: #293b4a;stroke: #293b4a;stroke-miterlimit: 10;stroke-width: 0.09506519883871078px"></path><path d="M339.73,698.26H303.29a.59.59,0,0,0-.6.59v1.79a.59.59,0,0,0,.6.59h36.44a.59.59,0,0,0,.6-.59v-1.79A.59.59,0,0,0,339.73,698.26Z" transform="translate(-234.12 -366.22)" style="fill: #627989"></path><path d="M339.73,706.43H303.29a.6.6,0,0,0-.6.6v1.78a.6.6,0,0,0,.6.6h36.44a.6.6,0,0,0,.6-.6V707A.6.6,0,0,0,339.73,706.43Z" transform="translate(-234.12 -366.22)" style="fill: #627989"></path><path d="M339.73,732.19H303.29a.59.59,0,0,0-.6.59v1.79a.59.59,0,0,0,.6.59h36.44a.59.59,0,0,0,.6-.59v-1.79A.59.59,0,0,0,339.73,732.19Z" transform="translate(-234.12 -366.22)" style="fill: #627989"></path><path d="M339.73,740.36H303.29a.6.6,0,0,0-.6.6v1.78a.6.6,0,0,0,.6.6h36.44a.6.6,0,0,0,.6-.6V741A.6.6,0,0,0,339.73,740.36Z" transform="translate(-234.12 -366.22)" style="fill: #627989"></path><path d="M339.73,765.67H303.29a.6.6,0,0,0-.6.6v1.78a.6.6,0,0,0,.6.6h36.44a.6.6,0,0,0,.6-.6v-1.78A.6.6,0,0,0,339.73,765.67Z" transform="translate(-234.12 -366.22)" style="fill: #627989"></path><path d="M339.73,773.84H303.29a.6.6,0,0,0-.6.6v1.78a.6.6,0,0,0,.6.6h36.44a.6.6,0,0,0,.6-.6v-1.78A.6.6,0,0,0,339.73,773.84Z" transform="translate(-234.12 -366.22)" style="fill: #627989"></path><path d="M387.78,698.26H351.33a.59.59,0,0,0-.6.59v1.79a.59.59,0,0,0,.6.59h36.45a.59.59,0,0,0,.6-.59v-1.79A.59.59,0,0,0,387.78,698.26Z" transform="translate(-234.12 -366.22)" style="fill: #627989"></path><path d="M387.78,706.43H351.33a.6.6,0,0,0-.6.6v1.78a.6.6,0,0,0,.6.6h36.45a.6.6,0,0,0,.6-.6V707A.6.6,0,0,0,387.78,706.43Z" transform="translate(-234.12 -366.22)" style="fill: #627989"></path><path d="M387.78,732.19H351.33a.59.59,0,0,0-.6.59v1.79a.59.59,0,0,0,.6.59h36.45a.59.59,0,0,0,.6-.59v-1.79A.59.59,0,0,0,387.78,732.19Z" transform="translate(-234.12 -366.22)" style="fill: #627989"></path><path d="M387.78,740.36H351.33a.6.6,0,0,0-.6.6v1.78a.6.6,0,0,0,.6.6h36.45a.6.6,0,0,0,.6-.6V741A.6.6,0,0,0,387.78,740.36Z" transform="translate(-234.12 -366.22)" style="fill: #627989"></path><path d="M387.78,765.67H351.33a.6.6,0,0,0-.6.6v1.78a.6.6,0,0,0,.6.6h36.45a.6.6,0,0,0,.6-.6v-1.78A.6.6,0,0,0,387.78,765.67Z" transform="translate(-234.12 -366.22)" style="fill: #627989"></path><path d="M387.78,773.84H351.33a.6.6,0,0,0-.6.6v1.78a.6.6,0,0,0,.6.6h36.45a.6.6,0,0,0,.6-.6v-1.78A.6.6,0,0,0,387.78,773.84Z" transform="translate(-234.12 -366.22)" style="fill: #627989"></path><path d="M435.72,698.26H399.28a.59.59,0,0,0-.6.59v1.79a.59.59,0,0,0,.6.59h36.44a.59.59,0,0,0,.6-.59v-1.79A.59.59,0,0,0,435.72,698.26Z" transform="translate(-234.12 -366.22)" style="fill: #627989"></path><path d="M435.72,706.43H399.28a.6.6,0,0,0-.6.6v1.78a.6.6,0,0,0,.6.6h36.44a.6.6,0,0,0,.6-.6V707A.6.6,0,0,0,435.72,706.43Z" transform="translate(-234.12 -366.22)" style="fill: #627989"></path><path d="M435.72,732.19H399.28a.59.59,0,0,0-.6.59v1.79a.59.59,0,0,0,.6.59h36.44a.59.59,0,0,0,.6-.59v-1.79A.59.59,0,0,0,435.72,732.19Z" transform="translate(-234.12 -366.22)" style="fill: #627989"></path><path d="M435.72,740.36H399.28a.6.6,0,0,0-.6.6v1.78a.6.6,0,0,0,.6.6h36.44a.6.6,0,0,0,.6-.6V741A.6.6,0,0,0,435.72,740.36Z" transform="translate(-234.12 -366.22)" style="fill: #627989"></path><path d="M435.72,765.67H399.28a.6.6,0,0,0-.6.6v1.78a.6.6,0,0,0,.6.6h36.44a.6.6,0,0,0,.6-.6v-1.78A.6.6,0,0,0,435.72,765.67Z" transform="translate(-234.12 -366.22)" style="fill: #627989"></path><path d="M435.72,773.84H399.28a.6.6,0,0,0-.6.6v1.78a.6.6,0,0,0,.6.6h36.44a.6.6,0,0,0,.6-.6v-1.78A.6.6,0,0,0,435.72,773.84Z" transform="translate(-234.12 -366.22)" style="fill: #627989"></path><path d="M484.84,698.26H448.4a.59.59,0,0,0-.6.59v1.79a.59.59,0,0,0,.6.59h36.44a.59.59,0,0,0,.6-.59v-1.79A.59.59,0,0,0,484.84,698.26Z" transform="translate(-234.12 -366.22)" style="fill: #627989"></path><path d="M484.84,706.43H448.4a.6.6,0,0,0-.6.6v1.78a.6.6,0,0,0,.6.6h36.44a.6.6,0,0,0,.6-.6V707A.6.6,0,0,0,484.84,706.43Z" transform="translate(-234.12 -366.22)" style="fill: #627989"></path><path d="M484.84,732.19H448.4a.59.59,0,0,0-.6.59v1.79a.59.59,0,0,0,.6.59h36.44a.59.59,0,0,0,.6-.59v-1.79A.59.59,0,0,0,484.84,732.19Z" transform="translate(-234.12 -366.22)" style="fill: #627989"></path><path d="M484.84,740.36H448.4a.6.6,0,0,0-.6.6v1.78a.6.6,0,0,0,.6.6h36.44a.6.6,0,0,0,.6-.6V741A.6.6,0,0,0,484.84,740.36Z" transform="translate(-234.12 -366.22)" style="fill: #627989"></path><path d="M484.84,765.67H448.4a.6.6,0,0,0-.6.6v1.78a.6.6,0,0,0,.6.6h36.44a.6.6,0,0,0,.6-.6v-1.78A.6.6,0,0,0,484.84,765.67Z" transform="translate(-234.12 -366.22)" style="fill: #627989"></path><path d="M484.84,773.84H448.4a.6.6,0,0,0-.6.6v1.78a.6.6,0,0,0,.6.6h36.44a.6.6,0,0,0,.6-.6v-1.78A.6.6,0,0,0,484.84,773.84Z" transform="translate(-234.12 -366.22)" style="fill: #627989"></path><path d="M498.56,699.24l1.36,2.77,3.06.44-2.21,2.15.52,3-2.73-1.44-2.74,1.44.53-3-2.21-2.15,3.05-.44Z" transform="translate(-234.12 -366.22)" style="fill: #19ad4a"></path><path d="M511.59,699.24,513,702l3.06.44-2.21,2.15.52,3-2.73-1.44-2.73,1.44.51-3-2.2-2.15,3.05-.44Z" transform="translate(-234.12 -366.22)" style="fill: #19ad4a"></path><path d="M524.62,699.24,526,702l3,.44-2.2,2.15.52,3-2.73-1.44-2.74,1.44.53-3-2.21-2.15,3-.44Z" transform="translate(-234.12 -366.22)" style="fill: #19ad4a"></path><path d="M538.6,699.24,540,702l3,.44-2.21,2.15.52,3-2.73-1.44-2.73,1.44.52-3-2.21-2.15,3.06-.44Z" transform="translate(-234.12 -366.22)" style="fill: #19ad4a"></path><path d="M551.71,699.24l1.37,2.77,3,.44-2.21,2.15.52,3-2.73-1.44L549,707.65l.52-3-2.21-2.15,3.05-.44Z" transform="translate(-234.12 -366.22)" style="fill: #19ad4a"></path><path d="M498.56,732.14l1.36,2.77,3.06.44-2.21,2.16.52,3-2.73-1.44-2.74,1.44.53-3-2.21-2.16,3.05-.44Z" transform="translate(-234.12 -366.22)" style="fill: #19ad4a"></path><path d="M511.59,732.14l1.36,2.77,3.06.44-2.21,2.16.52,3-2.73-1.44-2.73,1.44.51-3-2.2-2.16,3.05-.44Z" transform="translate(-234.12 -366.22)" style="fill: #19ad4a"></path><path d="M524.62,732.14l1.36,2.77,3,.44-2.2,2.16.52,3-2.73-1.44-2.74,1.44.53-3-2.21-2.16,3-.44Z" transform="translate(-234.12 -366.22)" style="fill: #19ad4a"></path><path d="M538.6,732.14l1.37,2.77,3,.44-2.21,2.16.52,3-2.73-1.44-2.73,1.44.52-3-2.21-2.16,3.06-.44Z" transform="translate(-234.12 -366.22)" style="fill: #19ad4a"></path><path d="M551.71,732.14l1.37,2.77,3,.44-2.21,2.16.52,3-2.73-1.44L549,740.55l.52-3-2.21-2.16,3.05-.44Z" transform="translate(-234.12 -366.22)" style="fill: none;stroke: gray;stroke-miterlimit: 10;stroke-width: 0.38818299770355225px"></path><path d="M498.56,767.16l1.36,2.77,3.06.44-2.21,2.16.52,3-2.73-1.44-2.74,1.44.53-3-2.21-2.16,3.05-.44Z" transform="translate(-234.12 -366.22)" style="fill: #19ad4a"></path><path d="M511.59,767.16l1.36,2.77,3.06.44-2.21,2.16.52,3-2.73-1.44-2.73,1.44.51-3-2.2-2.16,3.05-.44Z" transform="translate(-234.12 -366.22)" style="fill: #19ad4a;stroke: gray;stroke-miterlimit: 10;stroke-width: 0.38818299770355225px"></path><path d="M524.62,767.16l1.36,2.77,3,.44-2.2,2.16.52,3-2.73-1.44-2.74,1.44.53-3-2.21-2.16,3-.44Z" transform="translate(-234.12 -366.22)" style="fill: #19ad4a;stroke: gray;stroke-miterlimit: 10;stroke-width: 0.38818299770355225px"></path><path d="M538.6,767.16l1.37,2.77,3,.44-2.21,2.16.52,3-2.73-1.44-2.73,1.44.52-3-2.21-2.16,3.06-.44Z" transform="translate(-234.12 -366.22)" style="fill: none;stroke: gray;stroke-miterlimit: 10;stroke-width: 0.38818299770355225px"></path><path d="M551.71,767.16l1.37,2.77,3,.44-2.21,2.16.52,3-2.73-1.44L549,775.57l.52-3-2.21-2.16,3.05-.44Z" transform="translate(-234.12 -366.22)" style="fill: none;stroke: gray;stroke-miterlimit: 10;stroke-width: 0.38818299770355225px"></path><path d="M263.25,736.69A14.68,14.68,0,1,0,277.92,722a14.64,14.64,0,0,0-14.67,14.68Z" transform="translate(-234.12 -366.22)" style="fill: #ff9624"></path><path d="M281.55,729a11.41,11.41,0,0,0,.63,2c.41,1,1.06,2.23,1.06,2.23s.4.21-.12.21h-.53a5.67,5.67,0,0,1,0,2.25,1.57,1.57,0,0,1-1.54.79h-.59a5.54,5.54,0,0,0-.49,2.27c0,1.34.18,1.38-.29,1.68a2.23,2.23,0,0,1-2.9-.18c-1.35-1.12.56-2.89.23-4.3s0-2.17-.25-2.58a5,5,0,0,1,.21-3c.43-.53.47-1.89,2-1.93a5.37,5.37,0,0,1,2.57.56Z" transform="translate(-234.12 -366.22)" style="fill: #f0e5b7"></path><path d="M285.1,745.94a10,10,0,0,0,.84,3" transform="translate(-234.12 -366.22)" style="fill: none;stroke: #293b4a;stroke-miterlimit: 10;stroke-width: 0.30103999376296997px"></path><path d="M280.83,731.88a.33.33,0,1,1-.33-.33A.34.34,0,0,1,280.83,731.88Z" transform="translate(-234.12 -366.22)" style="fill: #293b4a;fill-rule: evenodd"></path><path d="M279.71,734.34a1.11,1.11,0,0,0,1.57.44" transform="translate(-234.12 -366.22)" style="fill: none;stroke: #293b4a;stroke-linejoin: round;stroke-width: 0.30103999376296997px"></path><path d="M281.28,741c3.09.77,5.25,3.51,6.65,6.29" transform="translate(-234.12 -366.22)" style="fill: none;stroke: #293b4a;stroke-miterlimit: 10;stroke-width: 0.30103999376296997px"></path><path d="M267.29,746.84a28.63,28.63,0,0,1,1.9-3.08c1-1.46,3.69-2.42,6.08-2.67,2.61,5.24,3.69,1.35,3.69,1.35s3.4,3.54,2.32-1.44c-1.62-.5-1.49-2.24-.79-4.47,1.12-.13,2.74.57,2.1-3h.53a.14.14,0,0,0,.12-.21,15.19,15.19,0,0,1-1.53-3.74" transform="translate(-234.12 -366.22)" style="fill: none;stroke: #293b4a;stroke-linejoin: round;stroke-width: 0.30103999376296997px"></path><path d="M276.43,739.87c1.45,1.88,3.45.92,3.7,0" transform="translate(-234.12 -366.22)" style="fill: none;stroke: #293b4a;stroke-linejoin: round;stroke-width: 0.30103999376296997px"></path><path d="M275.27,741.09c1.51-.7,2.72-3.75,2.2-5.11a2.4,2.4,0,0,1,.37-2.06.34.34,0,0,0-.2-.48c-.23-.08-.48-.39-.61-1.22-.29-1.91,1.62-.67,1.62-.67V729c.61.43.54,1.81.54,1.81,1.3-1.55,3.79-1,3.79-1s-.8-4.51-4.33-3.08c0,0-6.23-.79-4.81,8.68.62,4.12-.75,5.89-2.5,6.58l3.94-.94Z" transform="translate(-234.12 -366.22)" style="fill: #293b4a"></path><path d="M281.78,736.47c1.68,2.18.78,3.8,2.16,5.86,0,0-4.23-1.24-3.93-3.53a11,11,0,0,1,.49-2.27Z" transform="translate(-234.12 -366.22)" style="fill: #293b4a"></path><path d="M292.54,702.58A14.62,14.62,0,1,1,277.92,688,14.64,14.64,0,0,1,292.54,702.58Z" transform="translate(-234.12 -366.22)" style="fill: #ffc900"></path><path d="M281.06,693.92a14.24,14.24,0,0,1,.56,3.37,12.3,12.3,0,0,0,.05,1.8,2.67,2.67,0,0,0-.14,1.1c.06.53.29,2.3.29,2.3l-1.6.44s-.13,2.05.8,2.83a1.34,1.34,0,0,1,.11,2.22,3.86,3.86,0,0,1-2.81-.25l-2.93-1.8s-.19-.3.29-.81a2.48,2.48,0,0,0,.38-2.11,8.66,8.66,0,0,0-1.09-3.32,3.27,3.27,0,0,1,0-4,5.36,5.36,0,0,1,3.08-1.88,11.27,11.27,0,0,1,3,.13Z" transform="translate(-234.12 -366.22)" style="fill: #cbb3a4"></path><path d="M279.65,713.72h-4v1.57h4Z" transform="translate(-234.12 -366.22)" style="fill: none;stroke: #293b4a;stroke-linecap: round;stroke-miterlimit: 10;stroke-width: 0.2851960062980652px"></path><path d="M276.2,714.51h2.87" transform="translate(-234.12 -366.22)" style="fill: none;stroke: #293b4a;stroke-linecap: round;stroke-miterlimit: 10;stroke-width: 0.2851960062980652px"></path><path d="M273.53,714.51c-.08.68-.16,1.33-.25,1.94" transform="translate(-234.12 -366.22)" style="fill: none;stroke: #293b4a;stroke-linecap: round;stroke-miterlimit: 10;stroke-width: 0.2851960062980652px"></path><path d="M280.39,704.33A3.89,3.89,0,0,1,283.5,708a5.92,5.92,0,0,1-.37,2.22,13.72,13.72,0,0,0-2.05-2,.39.39,0,0,0-.57.06,14.6,14.6,0,0,0-1.3,3.07s-5.79-3.26-6.5-5l.74-1.1a1.78,1.78,0,0,1,1-.7,4.79,4.79,0,0,1,1.45-.24" transform="translate(-234.12 -366.22)" style="fill: none;stroke: #293b4a;stroke-linecap: round;stroke-miterlimit: 10;stroke-width: 0.2851960062980652px"></path><path d="M282.38,709.39c.05,1.31-.43,1.66-1,1.62a2.42,2.42,0,0,1-1.66-1.08" transform="translate(-234.12 -366.22)" style="fill: none;stroke: #293b4a;stroke-linecap: round;stroke-miterlimit: 10;stroke-width: 0.2851960062980652px"></path><path d="M278.15,697a.33.33,0,1,0-.33-.33A.33.33,0,0,0,278.15,697Z" transform="translate(-234.12 -366.22)" style="fill: #293b4a"></path><path d="M281.56,696.8a.33.33,0,1,0-.33-.33A.33.33,0,0,0,281.56,696.8Z" transform="translate(-234.12 -366.22)" style="fill: #293b4a"></path><path d="M280.13,695.73a11.25,11.25,0,0,1,1.6,3.61l-1.44.25" transform="translate(-234.12 -366.22)" style="fill: none;stroke: #293b4a;stroke-linecap: round;stroke-linejoin: round;stroke-width: 0.2851960062980652px"></path><path d="M278.77,701a1.46,1.46,0,0,0,1.89.29" transform="translate(-234.12 -366.22)" style="fill: none;stroke: #293b4a;stroke-linecap: round;stroke-miterlimit: 10;stroke-width: 0.2851960062980652px"></path><path d="M281.48,699.5a16.23,16.23,0,0,0,.34,3,4.87,4.87,0,0,1-5.14-.7" transform="translate(-234.12 -366.22)" style="fill: none;stroke: #293b4a;stroke-linecap: round;stroke-miterlimit: 10;stroke-width: 0.2851960062980652px"></path><path d="M275.13,693.41a11.49,11.49,0,0,0,5-.78" transform="translate(-234.12 -366.22)" style="fill: none;stroke: #293b4a;stroke-linecap: round;stroke-miterlimit: 10;stroke-width: 0.2851960062980652px"></path><path d="M275.27,692.25a25,25,0,0,1,5.85-.46.47.47,0,0,1,.42.6,11,11,0,0,0-.14,2.8c-.74-1.32-1.28.1-1.28.1a2.42,2.42,0,0,0-3.06-.46,2.71,2.71,0,0,0-1,1.27,1.45,1.45,0,0,0,0,1.37s-1.43-1-1.13.9c.2,1.22,1,1.13,1,1.13l-.36,1.71a4.88,4.88,0,0,1-2.4-4.73,8.83,8.83,0,0,1,1.1-3.52,1.66,1.66,0,0,1,1-.71Z" transform="translate(-234.12 -366.22)" style="fill: #293b4a;fill-rule: evenodd"></path><path d="M275.09,705.62s2-.61.33-5.11" transform="translate(-234.12 -366.22)" style="fill: none;stroke: #293b4a;stroke-linecap: round;stroke-miterlimit: 10;stroke-width: 0.2851960062980652px"></path><path d="M280.22,702.93a4,4,0,0,0,.53,2.64c2.35,1.36.63,5.33-6.17-.37" transform="translate(-234.12 -366.22)" style="fill: none;stroke: #293b4a;stroke-linecap: round;stroke-miterlimit: 10;stroke-width: 0.2851960062980652px"></path><path d="M281.35,716.8c.11-2.69.15-5.1.16-5.72a0,0,0,0,1,.08,0,20.39,20.39,0,0,1,1.9,5" transform="translate(-234.12 -366.22)" style="fill: none;stroke: #293b4a;stroke-linecap: round;stroke-miterlimit: 10;stroke-width: 0.2851960062980652px"></path><path d="M281.4,716.31l1.63-1.85" transform="translate(-234.12 -366.22)" style="fill: none;stroke: #293b4a;stroke-linecap: round;stroke-miterlimit: 10;stroke-width: 0.2851960062980652px"></path><path d="M281.46,714.1l1-1.15" transform="translate(-234.12 -366.22)" style="fill: none;stroke: #293b4a;stroke-linecap: round;stroke-miterlimit: 10;stroke-width: 0.2851960062980652px"></path><path d="M289.49,711.53c-2-3-4.43-5.3-6.61-5.5" transform="translate(-234.12 -366.22)" style="fill: none;stroke: #293b4a;stroke-linecap: round;stroke-miterlimit: 10;stroke-width: 0.2851960062980652px"></path><path d="M267,712.2c1.92-3.62,4.47-5.61,5.68-5.78" transform="translate(-234.12 -366.22)" style="fill: none;stroke: #293b4a;stroke-linecap: round;stroke-miterlimit: 10;stroke-width: 0.2851960062980652px"></path><path d="M277.92,785.69A14.73,14.73,0,1,0,263.19,771,14.73,14.73,0,0,0,277.92,785.69Z" transform="translate(-234.12 -366.22)" style="fill: #5273fd"></path><path d="M271.49,773.47a1.51,1.51,0,0,1,.64-.92s2.49-.75,2.42-5,3.54-4.22,3.54-4.22l3.81,1.77-.13,1.06s-.65.51-.31,3.6l-1.12.29a11,11,0,0,1-.42,3s1.79,3.74-1,4.74-7.45-4.31-7.45-4.31Z" transform="translate(-234.12 -366.22)" style="fill: #ffd9bd"></path><path d="M275.75,772.36a4.9,4.9,0,0,0,2.47,2c2.21.49,2-4.4,2-4.4l1.14-.16-.07-1.67c-.11-1.81.53-2.2.53-2.2" transform="translate(-234.12 -366.22)" style="fill: none;stroke: #1c3c4e;stroke-linecap: round;stroke-linejoin: round;stroke-width: 0.2970789968967438px"></path><path d="M279.4,771.87a3.27,3.27,0,0,1-1.95-.81" transform="translate(-234.12 -366.22)" style="fill: none;stroke: #1c3c4e;stroke-linecap: round;stroke-linejoin: round;stroke-width: 0.2970789968967438px"></path><path d="M278.81,768.2a.38.38,0,1,0-.39-.38A.38.38,0,0,0,278.81,768.2Z" transform="translate(-234.12 -366.22)" style="fill: #1c3c4e"></path><path d="M274.56,766.23c.57,5.31-2.52,6.4-2.52,6.4a.61.61,0,0,0-.38,1c8.16,8.08,10,2.69,8.26-.67" transform="translate(-234.12 -366.22)" style="fill: none;stroke: #1c3c4e;stroke-linecap: round;stroke-linejoin: round;stroke-width: 0.2970789968967438px"></path><path d="M288.39,781.33a18.73,18.73,0,0,0-6.46-7.26" transform="translate(-234.12 -366.22)" style="fill: none;stroke: #1c3c4e;stroke-linecap: round;stroke-linejoin: round;stroke-width: 0.2970789968967438px"></path><path d="M280,772.53a3.29,3.29,0,0,1,1.88,1.54,8.22,8.22,0,0,1-.72,7.34,20.18,20.18,0,0,0-2.4-3.55c-.89.07-3.05,3.92-3.05,3.92s-6.66-5.88-7.12-8.34l1.28-1.22a2.36,2.36,0,0,1,1.46-.65,6.71,6.71,0,0,1,2,.08" transform="translate(-234.12 -366.22)" style="fill: none;stroke: #1c3c4e;stroke-linecap: round;stroke-linejoin: round;stroke-width: 0.2970789968967438px"></path><path d="M280.49,780.22c-1.32,1.26-3.43.35-3.71,0" transform="translate(-234.12 -366.22)" style="fill: none;stroke: #1c3c4e;stroke-linecap: round;stroke-linejoin: round;stroke-width: 0.2970789968967438px"></path><path d="M281.5,766.54c1.09-.79-3.07-1.44-3.07-1.44a3.09,3.09,0,0,1-1.15-1.09,2.91,2.91,0,0,1-1,3.25c-1.29-2.69-1.48,1-1.48,1-3.31-4.21.71-7.87,1.64-6.89.93-1,5-1,6.37,2.63C284.06,767.29,281.5,766.54,281.5,766.54Z" transform="translate(-234.12 -366.22)" style="fill: #1c3c4e"></path><path d="M268.63,773.44a16.13,16.13,0,0,0-4.63,2.28" transform="translate(-234.12 -366.22)" style="fill: none;stroke: #1c3c4e;stroke-linecap: round;stroke-linejoin: round;stroke-width: 0.2970789968967438px"></path></g></g></svg>