<svg xmlns="http://www.w3.org/2000/svg" xmlns:xlink="http://www.w3.org/1999/xlink" id="Layer_1" data-name="Layer 1" viewBox="0 0 480 327.15"><defs><clipPath id="clip-path" transform="translate(-180.58 -431.71)"><rect x="180.58" y="431.71" width="410" height="327.15" style="fill: none"></rect></clipPath><clipPath id="clip-path-2" transform="translate(-180.58 -431.71)"><rect x="537.58" y="570.71" width="123" height="123" style="fill: none"></rect></clipPath></defs><g><g style="clip-path: url(#clip-path)"><g><path d="M198.93,431.71H572.22c10.14,0,18.36,8.57,18.36,19.14V739.73c0,10.57-8.22,19.14-18.36,19.14H198.93c-10.13,0-18.35-8.57-18.35-19.14V450.85C180.58,440.28,188.8,431.71,198.93,431.71Z" transform="translate(-180.58 -431.71)" style="fill: #e6e6e6"></path><path d="M201.17,438.68H570c7.38,0,13.35,6.23,13.35,13.91V738c0,7.69-6,13.92-13.35,13.92H201.17c-7.38,0-13.36-6.23-13.36-13.92V452.59A13.64,13.64,0,0,1,201.17,438.68Z" transform="translate(-180.58 -431.71)" style="fill: #fff"></path><path d="M539.4,456a3.56,3.56,0,1,0-3.55-3.55A3.56,3.56,0,0,0,539.4,456Z" transform="translate(-180.58 -431.71)" style="fill: #4e6fff"></path><path d="M526,456a3.56,3.56,0,1,0-3.56-3.55A3.55,3.55,0,0,0,526,456Z" transform="translate(-180.58 -431.71)" style="fill: #ff340c"></path><path d="M566.12,456a3.56,3.56,0,1,0-3.55-3.55A3.55,3.55,0,0,0,566.12,456Z" transform="translate(-180.58 -431.71)" style="fill: #19ad4a"></path><path d="M552.76,456a3.56,3.56,0,1,0-3.55-3.55A3.55,3.55,0,0,0,552.76,456Z" transform="translate(-180.58 -431.71)" style="fill: #fc0"></path><path d="M560.1,475.6h-349a8.91,8.91,0,0,0-8.91,8.91v39.3a8.91,8.91,0,0,0,8.91,8.91H560.1a8.91,8.91,0,0,0,8.92-8.91v-39.3A8.91,8.91,0,0,0,560.1,475.6Z" transform="translate(-180.58 -431.71)" style="fill: #19ad4a"></path><path d="M274.9,481.75H215.82a7.28,7.28,0,0,0-7.27,7.27V519.3a7.28,7.28,0,0,0,7.27,7.27H274.9a7.27,7.27,0,0,0,7.27-7.27V489A7.27,7.27,0,0,0,274.9,481.75Z" transform="translate(-180.58 -431.71)" style="fill: #fff"></path><path d="M253.45,515.63h-.95v-7.09h-2.38v7.09h-1v-8h4.28Z" transform="translate(-180.58 -431.71)" style="fill: #293b4a"></path><path d="M241.54,515.63h-.95v-7.09h-2.38v7.09h-1v-8h4.28Z" transform="translate(-180.58 -431.71)" style="fill: #293b4a"></path><path d="M261.47,506H229.24v-4.47h32.23ZM230.18,505h30.34v-2.58H230.18Z" transform="translate(-180.58 -431.71)" style="fill: #293b4a"></path><path d="M262.51,519.55H227v1h35.52Z" transform="translate(-180.58 -431.71)" style="fill: #293b4a"></path><path d="M261.47,519.59h-1v-1.25H230.18v1.25h-.94V517.4h32.23Z" transform="translate(-180.58 -431.71)" style="fill: #293b4a"></path><path d="M247.29,518.34h-3.88V505h3.88Zm-2.93-1h2V506h-2Z" transform="translate(-180.58 -431.71)" style="fill: #293b4a"></path><path d="M235.17,518.34H231.3V505h3.87Zm-2.93-1h2V506h-2Z" transform="translate(-180.58 -431.71)" style="fill: #293b4a"></path><path d="M259.41,518.34h-3.88V505h3.88Zm-2.93-1h2V506h-2Z" transform="translate(-180.58 -431.71)" style="fill: #293b4a"></path><path d="M245.35,498.13a2.46,2.46,0,1,1,2.46-2.45A2.45,2.45,0,0,1,245.35,498.13Zm0-4a1.51,1.51,0,1,0,1.51,1.51A1.52,1.52,0,0,0,245.35,494.17Z" transform="translate(-180.58 -431.71)" style="fill: #293b4a"></path><path d="M258,487.83H257v8.41H258Z" transform="translate(-180.58 -431.71)" style="fill: #293b4a"></path><path d="M263.74,493.46l-.78-.66c-.7-.59-1.37-.35-2.41.07s-2.2.92-3.38-.07l-.17-.14v-4.47l.77.65c.71.6,1.38.36,2.42-.07s2.19-.92,3.38.07l.17.14Zm-5.8-1.25c.66.42,1.3.19,2.25-.2a3.57,3.57,0,0,1,2.6-.38v-2.18c-.65-.43-1.29-.2-2.24.19a3.6,3.6,0,0,1-2.61.38Z" transform="translate(-180.58 -431.71)" style="fill: #293b4a"></path><path d="M259.41,500.41h-1V498.7h-2.75l-10.35-8.52L235,498.7h-2.76v1.71h-.94v-2.66h3.36l10.7-8.79,10.69,8.79h3.36Z" transform="translate(-180.58 -431.71)" style="fill: #293b4a"></path><path d="M247.89,498.91h-5.06v.95h5.06Z" transform="translate(-180.58 -431.71)" style="fill: #293b4a"></path><path d="M297.59,509.49V496.37h4.86a5.75,5.75,0,0,1,2.61.52,3.52,3.52,0,0,1,1.53,1.45,4.17,4.17,0,0,1,.51,2.06,4,4,0,0,1-.49,2,3.47,3.47,0,0,1-1.52,1.46,5.55,5.55,0,0,1-2.64.56H300v5.08h-2.4Zm2.4-7h2.31a2.5,2.5,0,0,0,1.81-.55,2,2,0,0,0,.55-1.51,2.1,2.1,0,0,0-.55-1.53,2.53,2.53,0,0,0-1.81-.55H300Z" transform="translate(-180.58 -431.71)" style="fill: #fff"></path><path d="M308.92,509.49v-9.3h2.13l.22,1.74a4,4,0,0,1,1.38-1.44,3.82,3.82,0,0,1,2.05-.54v2.53H314a3.93,3.93,0,0,0-1.41.24,1.87,1.87,0,0,0-1,.84,3.37,3.37,0,0,0-.35,1.67v4.24h-2.4Z" transform="translate(-180.58 -431.71)" style="fill: #fff"></path><path d="M320.7,509.71a5,5,0,0,1-2.5-.6,4.36,4.36,0,0,1-1.7-1.68,5,5,0,0,1-.62-2.51,5.42,5.42,0,0,1,.61-2.57,4.32,4.32,0,0,1,1.69-1.75,4.91,4.91,0,0,1,2.54-.63,4.8,4.8,0,0,1,2.42.6,4.4,4.4,0,0,1,1.65,1.64,4.68,4.68,0,0,1,.59,2.32c0,.13,0,.27,0,.42s0,.31,0,.48h-7.07a2.4,2.4,0,0,0,.76,1.7,2.37,2.37,0,0,0,1.66.62,2.19,2.19,0,0,0,1.23-.33,2,2,0,0,0,.74-.86h2.44a4.42,4.42,0,0,1-2.38,2.73,4.71,4.71,0,0,1-2,.41Zm0-7.8a2.54,2.54,0,0,0-1.55.5,2.32,2.32,0,0,0-.87,1.51h4.64a2,2,0,0,0-.68-1.47A2.26,2.26,0,0,0,320.71,501.91Z" transform="translate(-180.58 -431.71)" style="fill: #fff"></path><path d="M327.39,509.49v-9.3h2.12l.21,1.26a3.23,3.23,0,0,1,1.18-1.08,3.56,3.56,0,0,1,1.72-.41,3.17,3.17,0,0,1,3.05,1.67,3.73,3.73,0,0,1,1.36-1.22,3.94,3.94,0,0,1,1.87-.45,3.57,3.57,0,0,1,2.79,1.09,4.6,4.6,0,0,1,1,3.19v5.25h-2.41v-5a3.19,3.19,0,0,0-.45-1.84,1.63,1.63,0,0,0-1.42-.63,1.94,1.94,0,0,0-1.56.71,3,3,0,0,0-.59,2v4.81h-2.41v-5a3.18,3.18,0,0,0-.46-1.84,1.67,1.67,0,0,0-1.45-.63,1.89,1.89,0,0,0-1.54.71,3,3,0,0,0-.59,2v4.81h-2.4Z" transform="translate(-180.58 -431.71)" style="fill: #fff"></path><path d="M346.26,498.75a1.52,1.52,0,0,1-1.08-.39,1.38,1.38,0,0,1,0-2,1.5,1.5,0,0,1,1.08-.38,1.53,1.53,0,0,1,1.08.38,1.29,1.29,0,0,1,.42,1,1.31,1.31,0,0,1-.42,1A1.52,1.52,0,0,1,346.26,498.75Zm-1.2,10.74v-9.3h2.4v9.3Z" transform="translate(-180.58 -431.71)" style="fill: #fff"></path><path d="M353.47,509.71a3.33,3.33,0,0,1-2.69-1.09,4.65,4.65,0,0,1-.95-3.18v-5.25h2.38v5a2.94,2.94,0,0,0,.5,1.84,1.79,1.79,0,0,0,1.53.64,2.18,2.18,0,0,0,1.65-.72,2.88,2.88,0,0,0,.64-2v-4.8h2.4v9.3h-2.12l-.18-1.57a3.28,3.28,0,0,1-1.25,1.31,3.72,3.72,0,0,1-1.91.49Z" transform="translate(-180.58 -431.71)" style="fill: #fff"></path><path d="M361.38,509.49v-9.3h2.12l.2,1.26a3.26,3.26,0,0,1,1.19-1.08,3.49,3.49,0,0,1,1.71-.41,3.2,3.2,0,0,1,3.06,1.67,3.65,3.65,0,0,1,1.36-1.22,3.9,3.9,0,0,1,1.86-.45,3.58,3.58,0,0,1,2.8,1.09,4.65,4.65,0,0,1,1,3.19v5.25h-2.4v-5a3.11,3.11,0,0,0-.46-1.84,1.62,1.62,0,0,0-1.42-.63,1.94,1.94,0,0,0-1.56.71,3.07,3.07,0,0,0-.59,2v4.81h-2.4v-5a3.1,3.1,0,0,0-.47-1.84,1.65,1.65,0,0,0-1.44-.63,1.9,1.9,0,0,0-1.55.71,3.07,3.07,0,0,0-.59,2v4.81h-2.4Z" transform="translate(-180.58 -431.71)" style="fill: #fff"></path><path d="M490.31,522.45h53a18.3,18.3,0,0,0,18.3-18.29h0a18.3,18.3,0,0,0-18.3-18.29h-53A18.3,18.3,0,0,0,472,504.15h0A18.3,18.3,0,0,0,490.31,522.45Z" transform="translate(-180.58 -431.71)" style="fill: #293b4a"></path><path d="M491,519.39a15.3,15.3,0,1,0-15.3-15.29A15.3,15.3,0,0,0,491,519.39Z" transform="translate(-180.58 -431.71)" style="fill: #fd3b07"></path><path d="M490.42,510.85a.86.86,0,0,0,1.16,0c1.58-1.42,5.88-5.54,6.05-8.28.21-3.37-3.58-5.65-6.63-2.39h0c-3-3.26-6.88-1-6.66,2.39.18,2.74,4.47,6.86,6.06,8.29Z" transform="translate(-180.58 -431.71)" style="fill: #fff"></path><path d="M548.64,496h-34.1a2.64,2.64,0,0,0-2.64,2.64v0a2.64,2.64,0,0,0,2.64,2.64h34.1a2.64,2.64,0,0,0,2.64-2.64v0A2.64,2.64,0,0,0,548.64,496Z" transform="translate(-180.58 -431.71)" style="fill: #526373"></path><path d="M548.64,505.84h-34.1a2.64,2.64,0,0,0-2.64,2.64v0a2.64,2.64,0,0,0,2.64,2.64h34.1a2.64,2.64,0,0,0,2.64-2.64v0A2.64,2.64,0,0,0,548.64,505.84Z" transform="translate(-180.58 -431.71)" style="fill: #526373"></path><path d="M560.1,544.18h-349a8.91,8.91,0,0,0-8.91,8.91v39.3a8.91,8.91,0,0,0,8.91,8.91H560.1a8.91,8.91,0,0,0,8.92-8.91v-39.3A8.91,8.91,0,0,0,560.1,544.18Z" transform="translate(-180.58 -431.71)" style="fill: #f1f3f5"></path><path d="M274.9,550.33H215.82a7.28,7.28,0,0,0-7.27,7.27v30.28a7.28,7.28,0,0,0,7.27,7.27H274.9a7.27,7.27,0,0,0,7.27-7.27V557.6A7.27,7.27,0,0,0,274.9,550.33Z" transform="translate(-180.58 -431.71)" style="fill: #fff"></path><path d="M265,586.56H225.75v1H265Z" transform="translate(-180.58 -431.71)" style="fill: #293b4a"></path><path d="M245.54,568.86l-.21-.1c-.15-.07-3.67-1.81-3.64-5.12l0-2.62,1.68,0v-1.35l4.42,0v1.35l1.67,0,0,2.62c0,3.31-3.58,5-3.73,5.06l-.21.09Zm-2.89-6.9v1.68c0,2.3,2.21,3.75,2.91,4.15.69-.38,2.95-1.8,3-4.09l0-1.68h-.89a.84.84,0,0,1-.56-.24.81.81,0,0,1-.23-.57v-.56l-2.52,0v.57a.81.81,0,0,1-.8.78h-.89Z" transform="translate(-180.58 -431.71)" style="fill: #293b4a"></path><path d="M248.63,563h-6.09V564h6.09Z" transform="translate(-180.58 -431.71)" style="fill: #293b4a"></path><path d="M252.43,580.8h-.94v-3.09H250v3.09h-1v-4h3.39Z" transform="translate(-180.58 -431.71)" style="fill: #293b4a"></path><path d="M242.14,580.8h-.94v-3.09h-1.5v3.09h-.95v-4h3.39Z" transform="translate(-180.58 -431.71)" style="fill: #293b4a"></path><path d="M252.43,575.87h-.94v-3.09H250v3.09h-1v-4h3.39Z" transform="translate(-180.58 -431.71)" style="fill: #293b4a"></path><path d="M247.28,575.87h-.94v-3.09h-1.51v3.09h-.94v-4h3.39Z" transform="translate(-180.58 -431.71)" style="fill: #293b4a"></path><path d="M242.14,575.87h-.94v-3.09h-1.5v3.09h-.95v-4h3.39Z" transform="translate(-180.58 -431.71)" style="fill: #293b4a"></path><path d="M262.82,587h-.95v-2.66H229.31V587h-.95v-3.6h34.46Z" transform="translate(-180.58 -431.71)" style="fill: #293b4a"></path><path d="M247.42,582.68h-.94v-5H244.7v5h-.95v-5.91h3.67Z" transform="translate(-180.58 -431.71)" style="fill: #293b4a"></path><path d="M237,584.37h-3.59V572.31h.93v11.12h1.71V572.31h1Z" transform="translate(-180.58 -431.71)" style="fill: #293b4a"></path><path d="M257.76,584.37h-3.59V572.31h.94v11.12h1.7V572.31h.95Z" transform="translate(-180.58 -431.71)" style="fill: #293b4a"></path><path d="M259.62,567.1H249.1V568h10.52Z" transform="translate(-180.58 -431.71)" style="fill: #293b4a"></path><path d="M260.78,561.94l-8.51-1,.06-2.73H238.89v2.73l-8.49,1-.11-.94,7.66-.9v-2.83H253.3l-.06,2.83,7.65.9Z" transform="translate(-180.58 -431.71)" style="fill: #293b4a"></path><path d="M242.44,567.1H231.56V568h10.88Z" transform="translate(-180.58 -431.71)" style="fill: #293b4a"></path><path d="M262.13,571H229.05V567.1h2.51V568H230v2h31.19v-2h-1.58v-.94h2.52Z" transform="translate(-180.58 -431.71)" style="fill: #293b4a"></path><path d="M231.62,570.54h-.94V583.9h.94Z" transform="translate(-180.58 -431.71)" style="fill: #293b4a"></path><path d="M260.51,570.54h-.95V583.9h.95Z" transform="translate(-180.58 -431.71)" style="fill: #293b4a"></path><path d="M240.7,563H229.93V564H240.7Z" transform="translate(-180.58 -431.71)" style="fill: #293b4a"></path><path d="M261.24,563H250.48V564h10.76Z" transform="translate(-180.58 -431.71)" style="fill: #293b4a"></path><path d="M231.62,564.78h-.94v2.79h.94Z" transform="translate(-180.58 -431.71)" style="fill: #293b4a"></path><path d="M260.51,564.78h-.95v2.79h.95Z" transform="translate(-180.58 -431.71)" style="fill: #293b4a"></path><path d="M302.07,578.3a6.2,6.2,0,0,1-2.55-.5,4,4,0,0,1-1.74-1.43,3.92,3.92,0,0,1-.66-2.26h2.52a2.25,2.25,0,0,0,.67,1.55,2.35,2.35,0,0,0,1.74.62,2.39,2.39,0,0,0,1.52-.45,1.53,1.53,0,0,0,.56-1.23,1.65,1.65,0,0,0-.5-1.26,3.47,3.47,0,0,0-1.32-.73l-1.76-.6a6,6,0,0,1-2.32-1.35,3.07,3.07,0,0,1-.79-2.2,3.42,3.42,0,0,1,.55-2,3.81,3.81,0,0,1,1.56-1.29,5.54,5.54,0,0,1,2.29-.46,5.33,5.33,0,0,1,2.31.48,3.79,3.79,0,0,1,1.58,1.31,3.67,3.67,0,0,1,.6,2h-2.57a1.77,1.77,0,0,0-.53-1.23,1.9,1.9,0,0,0-1.44-.54,2.09,2.09,0,0,0-1.32.38,1.37,1.37,0,0,0-.54,1.17,1.36,1.36,0,0,0,.41,1.05,3.19,3.19,0,0,0,1.13.64c.47.17,1,.37,1.63.56a12.23,12.23,0,0,1,1.79.79,3.78,3.78,0,0,1,1.29,1.19,3.41,3.41,0,0,1,.49,1.9,3.78,3.78,0,0,1-.52,1.91,3.7,3.7,0,0,1-1.56,1.41,5.41,5.41,0,0,1-2.53.53Z" transform="translate(-180.58 -431.71)" style="fill: #293b4a"></path><path d="M312.87,578.07a3.58,3.58,0,0,1-2.34-.72,3.11,3.11,0,0,1-.88-2.52v-4.05h-1.6v-2h1.6l.27-2.49H312v2.49h2.51v2H312v4.07a1.15,1.15,0,0,0,.3.92,1.51,1.51,0,0,0,1,.25h1.16v2.05h-1.63Z" transform="translate(-180.58 -431.71)" style="fill: #293b4a"></path><path d="M319.83,578.3a4.35,4.35,0,0,1-2-.38,2.75,2.75,0,0,1-1.15-1,2.72,2.72,0,0,1-.37-1.4,2.56,2.56,0,0,1,1-2.1,4.79,4.79,0,0,1,3-.8h2.37v-.23a1.76,1.76,0,0,0-.54-1.41,2.07,2.07,0,0,0-1.35-.44,2.36,2.36,0,0,0-1.28.34,1.52,1.52,0,0,0-.68,1h-2.34a3.26,3.26,0,0,1,.69-1.76,3.78,3.78,0,0,1,1.53-1.15,5.19,5.19,0,0,1,2.09-.4,4.65,4.65,0,0,1,3.14,1,3.53,3.53,0,0,1,1.14,2.81v5.72h-2l-.23-1.5a3.49,3.49,0,0,1-1.15,1.24,3.41,3.41,0,0,1-1.9.49Zm.54-1.87a2,2,0,0,0,1.61-.68,3.26,3.26,0,0,0,.73-1.67h-2a2.09,2.09,0,0,0-1.37.35,1.07,1.07,0,0,0-.41.85,1,1,0,0,0,.41.85,1.83,1.83,0,0,0,1.09.3Z" transform="translate(-180.58 -431.71)" style="fill: #293b4a"></path><path d="M327.45,578.07v-9.3h2.11l.19,1.57A3.22,3.22,0,0,1,331,569a3.66,3.66,0,0,1,1.92-.5,3.37,3.37,0,0,1,2.68,1.09,4.7,4.7,0,0,1,1,3.19v5.25h-2.4v-5a3,3,0,0,0-.5-1.84,1.79,1.79,0,0,0-1.51-.63,2.13,2.13,0,0,0-1.67.72,2.88,2.88,0,0,0-.64,2v4.8h-2.39Z" transform="translate(-180.58 -431.71)" style="fill: #293b4a"></path><path d="M343.13,578.3a4.41,4.41,0,0,1-2.34-.63,4.55,4.55,0,0,1-1.63-1.74,5.2,5.2,0,0,1-.6-2.51,5.11,5.11,0,0,1,.6-2.5,4.37,4.37,0,0,1,4-2.35A4.12,4.12,0,0,1,345,569a3.36,3.36,0,0,1,1.28,1.11V564.6h2.4v13.5h-2.13l-.26-1.33a4.45,4.45,0,0,1-1.19,1.08,3.46,3.46,0,0,1-1.92.47Zm.51-2.1a2.52,2.52,0,0,0,1.9-.77,2.81,2.81,0,0,0,.74-2,2.77,2.77,0,0,0-.74-2,2.7,2.7,0,0,0-3.79,0,2.73,2.73,0,0,0-.75,2,2.81,2.81,0,0,0,.75,2A2.51,2.51,0,0,0,343.64,576.2Z" transform="translate(-180.58 -431.71)" style="fill: #293b4a"></path><path d="M354.29,578.3a4.4,4.4,0,0,1-2-.38,2.62,2.62,0,0,1-1.52-2.42,2.56,2.56,0,0,1,1-2.1,4.82,4.82,0,0,1,3-.8h2.37v-.23a1.73,1.73,0,0,0-.55-1.41,2,2,0,0,0-1.35-.44,2.3,2.3,0,0,0-1.27.34,1.52,1.52,0,0,0-.68,1H351a3.19,3.19,0,0,1,.69-1.76,3.82,3.82,0,0,1,1.52-1.15,5.24,5.24,0,0,1,2.1-.4,4.67,4.67,0,0,1,3.14,1,3.53,3.53,0,0,1,1.14,2.81v5.72h-2.05l-.22-1.5a3.59,3.59,0,0,1-1.15,1.24,3.43,3.43,0,0,1-1.9.49Zm.54-1.87a2,2,0,0,0,1.61-.68,3.34,3.34,0,0,0,.72-1.67h-2a2.07,2.07,0,0,0-1.37.35,1,1,0,0,0-.41.85,1,1,0,0,0,.41.85,1.83,1.83,0,0,0,1.09.3Z" transform="translate(-180.58 -431.71)" style="fill: #293b4a"></path><path d="M361.91,578.07v-9.3H364l.22,1.74a4,4,0,0,1,1.38-1.44,3.82,3.82,0,0,1,2.05-.54v2.53H367a3.93,3.93,0,0,0-1.41.24,1.87,1.87,0,0,0-1,.84,3.37,3.37,0,0,0-.35,1.67v4.24h-2.4Z" transform="translate(-180.58 -431.71)" style="fill: #293b4a"></path><path d="M373.44,578.3a4.36,4.36,0,0,1-2.34-.63,4.58,4.58,0,0,1-1.64-1.74,5.2,5.2,0,0,1-.6-2.51,5.11,5.11,0,0,1,.6-2.5,4.55,4.55,0,0,1,1.64-1.73,4.47,4.47,0,0,1,2.34-.62,4.15,4.15,0,0,1,1.84.39,3.4,3.4,0,0,1,1.27,1.11V564.6H379v13.5h-2.14l-.26-1.33a4.16,4.16,0,0,1-1.19,1.08,3.46,3.46,0,0,1-1.92.47Zm.51-2.1a2.53,2.53,0,0,0,1.9-.77,2.81,2.81,0,0,0,.74-2,2.77,2.77,0,0,0-.74-2,2.5,2.5,0,0,0-1.9-.78,2.53,2.53,0,0,0-1.9.77,2.73,2.73,0,0,0-.75,2,2.81,2.81,0,0,0,.75,2A2.53,2.53,0,0,0,374,576.2Z" transform="translate(-180.58 -431.71)" style="fill: #293b4a"></path><path d="M490.31,591h53a18.3,18.3,0,0,0,18.3-18.29h0a18.3,18.3,0,0,0-18.3-18.29h-53A18.3,18.3,0,0,0,472,572.74h0A18.3,18.3,0,0,0,490.31,591Z" transform="translate(-180.58 -431.71)" style="fill: #fff"></path><path d="M491,588a15.3,15.3,0,1,0-15.3-15.29A15.3,15.3,0,0,0,491,588Z" transform="translate(-180.58 -431.71)" style="fill: #f1f3f5"></path><path d="M490.42,579.43a.86.86,0,0,0,1.16,0c1.58-1.42,5.88-5.54,6.05-8.28.21-3.37-3.58-5.65-6.63-2.39h0c-3-3.26-6.88-1-6.66,2.39.18,2.74,4.47,6.86,6.06,8.29Z" transform="translate(-180.58 -431.71)" style="fill: #fff"></path><path d="M548.64,564.53h-34.1a2.64,2.64,0,0,0-2.64,2.64v0a2.64,2.64,0,0,0,2.64,2.64h34.1a2.64,2.64,0,0,0,2.64-2.64v0A2.64,2.64,0,0,0,548.64,564.53Z" transform="translate(-180.58 -431.71)" style="fill: #f1f3f5"></path><path d="M548.64,574.42h-34.1a2.64,2.64,0,0,0-2.64,2.64v0a2.64,2.64,0,0,0,2.64,2.64h34.1a2.64,2.64,0,0,0,2.64-2.64v0A2.64,2.64,0,0,0,548.64,574.42Z" transform="translate(-180.58 -431.71)" style="fill: #f1f3f5"></path><path d="M560.1,612.71h-349a8.91,8.91,0,0,0-8.91,8.91v39.29a8.9,8.9,0,0,0,8.91,8.91H560.1a8.91,8.91,0,0,0,8.92-8.91V621.62A8.91,8.91,0,0,0,560.1,612.71Z" transform="translate(-180.58 -431.71)" style="fill: #f1f3f5"></path><path d="M274.9,618.86H215.82a7.27,7.27,0,0,0-7.27,7.26v30.29a7.27,7.27,0,0,0,7.27,7.26H274.9a7.26,7.26,0,0,0,7.27-7.26V626.12A7.26,7.26,0,0,0,274.9,618.86Z" transform="translate(-180.58 -431.71)" style="fill: #fff"></path><path d="M245.33,637.87l-.2-.09c-.16-.08-4-2-4-5.6l0-2.85,1.86,0v-1.49l4.78,0v1.49l1.85,0,0,2.85c0,3.61-3.92,5.45-4.08,5.53l-.21.1Zm-3.23-7.58,0,1.9c0,2.58,2.51,4.21,3.26,4.63.75-.41,3.31-2,3.33-4.58l0-1.9h-1a.85.85,0,0,1-.82-.84v-.67l-2.87,0v.66a.83.83,0,0,1-.83.83Z" transform="translate(-180.58 -431.71)" style="fill: #293b4a"></path><path d="M246.63,632.33a1.5,1.5,0,0,0-2.47,0l-.77-.54a2.45,2.45,0,0,1,4,0l-.77.54Z" transform="translate(-180.58 -431.71)" style="fill: #293b4a"></path><path d="M247.15,633h-3.52V634h3.52Z" transform="translate(-180.58 -431.71)" style="fill: #293b4a"></path><path d="M258.56,635.69H247.32v.94h11.24Z" transform="translate(-180.58 -431.71)" style="fill: #293b4a"></path><path d="M243.42,635.69H232.21v.94h11.21Z" transform="translate(-180.58 -431.71)" style="fill: #293b4a"></path><path d="M253,649.44h-.95v-3.57H250v3.57H249v-4.51h4Z" transform="translate(-180.58 -431.71)" style="fill: #293b4a"></path><path d="M241.74,649.44h-.94v-3.57h-2.08v3.57h-.94v-4.51h4Z" transform="translate(-180.58 -431.71)" style="fill: #293b4a"></path><path d="M261.4,643.08h-32v-5h32v5Zm-31.08-1h30.13V639H230.32Z" transform="translate(-180.58 -431.71)" style="fill: #293b4a"></path><path d="M261.4,654.2h-.95v-2.66H230.32v2.66h-.94v-3.61h32Z" transform="translate(-180.58 -431.71)" style="fill: #293b4a"></path><path d="M247.54,651.54h-4.31v-9.4h4.31Zm-3.36-.95h2.42v-7.51h-2.42Z" transform="translate(-180.58 -431.71)" style="fill: #293b4a"></path><path d="M236.05,651.54h-4.3v-9.4h4.3Zm-3.36-.95h2.42v-7.51h-2.42Z" transform="translate(-180.58 -431.71)" style="fill: #293b4a"></path><path d="M259,651.54h-4.3v-9.4H259Zm-3.36-.95h2.42v-7.51h-2.42Z" transform="translate(-180.58 -431.71)" style="fill: #293b4a"></path><path d="M232.21,634.21h-2.59v-3.76H240v.93h-9.43v1.89h1.64Z" transform="translate(-180.58 -431.71)" style="fill: #293b4a"></path><path d="M261.16,634.21h-2.6v-.94h1.65v-1.89h-9.42v-.93h10.37Z" transform="translate(-180.58 -431.71)" style="fill: #293b4a"></path><path d="M241.61,633.27h-9.4v.94h9.4Z" transform="translate(-180.58 -431.71)" style="fill: #293b4a"></path><path d="M258.56,633.27h-9.68v.94h9.68Z" transform="translate(-180.58 -431.71)" style="fill: #293b4a"></path><path d="M262.41,653.73H228.32v.94h34.09Z" transform="translate(-180.58 -431.71)" style="fill: #293b4a"></path><path d="M302.07,646.82a6.2,6.2,0,0,1-2.55-.5,4,4,0,0,1-1.74-1.43,4,4,0,0,1-.66-2.26h2.52a2.25,2.25,0,0,0,.67,1.55,2.35,2.35,0,0,0,1.74.62,2.39,2.39,0,0,0,1.52-.45,1.54,1.54,0,0,0,.56-1.24,1.68,1.68,0,0,0-.5-1.26,3.76,3.76,0,0,0-1.32-.73l-1.76-.6a5.82,5.82,0,0,1-2.32-1.34,3.07,3.07,0,0,1-.79-2.2,3.38,3.38,0,0,1,.55-2,3.81,3.81,0,0,1,1.56-1.29,5.38,5.38,0,0,1,2.29-.46,5.48,5.48,0,0,1,2.31.47,3.81,3.81,0,0,1,1.58,1.32,3.66,3.66,0,0,1,.6,2h-2.57a1.81,1.81,0,0,0-.53-1.23,1.93,1.93,0,0,0-1.44-.53,2,2,0,0,0-1.32.38,1.37,1.37,0,0,0-.54,1.17,1.32,1.32,0,0,0,.41,1,3.2,3.2,0,0,0,1.13.65c.47.17,1,.36,1.63.56a11.25,11.25,0,0,1,1.79.79,3.75,3.75,0,0,1,1.29,1.18,3.43,3.43,0,0,1,.49,1.9,3.63,3.63,0,0,1-2.08,3.33,5.54,5.54,0,0,1-2.53.53Z" transform="translate(-180.58 -431.71)" style="fill: #293b4a"></path><path d="M312.87,646.59a3.63,3.63,0,0,1-2.34-.71,3.12,3.12,0,0,1-.88-2.53V639.3h-1.6v-2h1.6l.27-2.49H312v2.49h2.51v2H312v4.07a1.18,1.18,0,0,0,.3.93,1.51,1.51,0,0,0,1,.25h1.16v2h-1.63Z" transform="translate(-180.58 -431.71)" style="fill: #293b4a"></path><path d="M319.83,646.82a4.34,4.34,0,0,1-2-.39,2.66,2.66,0,0,1-1.15-1,2.74,2.74,0,0,1-.37-1.4,2.55,2.55,0,0,1,1-2.1,4.78,4.78,0,0,1,3-.81h2.37v-.22a1.75,1.75,0,0,0-.54-1.41,2.07,2.07,0,0,0-1.35-.45,2.36,2.36,0,0,0-1.28.35,1.48,1.48,0,0,0-.68,1h-2.34a3.26,3.26,0,0,1,.69-1.76,3.78,3.78,0,0,1,1.53-1.15,5.19,5.19,0,0,1,2.09-.4,4.65,4.65,0,0,1,3.14,1,3.53,3.53,0,0,1,1.14,2.81v5.71h-2l-.23-1.5a3.61,3.61,0,0,1-1.15,1.25,3.41,3.41,0,0,1-1.9.49Zm.54-1.88a2,2,0,0,0,1.61-.67,3.26,3.26,0,0,0,.73-1.67h-2a2.15,2.15,0,0,0-1.37.34,1.11,1.11,0,0,0-.41.86,1,1,0,0,0,.41.85,1.83,1.83,0,0,0,1.09.3Z" transform="translate(-180.58 -431.71)" style="fill: #293b4a"></path><path d="M327.45,646.6v-9.31h2.11l.19,1.57a3.28,3.28,0,0,1,1.25-1.31,3.75,3.75,0,0,1,1.92-.49,3.37,3.37,0,0,1,2.68,1.09,4.68,4.68,0,0,1,1,3.19v5.25h-2.4v-5a3,3,0,0,0-.5-1.84,1.76,1.76,0,0,0-1.51-.63,2.15,2.15,0,0,0-1.67.71,2.9,2.9,0,0,0-.64,2v4.81h-2.39Z" transform="translate(-180.58 -431.71)" style="fill: #293b4a"></path><path d="M343.13,646.82a4.42,4.42,0,0,1-2.34-.64,4.48,4.48,0,0,1-1.63-1.74,5.16,5.16,0,0,1-.6-2.5,5.11,5.11,0,0,1,.6-2.5,4.37,4.37,0,0,1,4-2.35,4.12,4.12,0,0,1,1.84.39,3.27,3.27,0,0,1,1.28,1.11v-5.48h2.4v13.5h-2.13l-.26-1.33a4.48,4.48,0,0,1-1.19,1.09,3.54,3.54,0,0,1-1.92.47Zm.51-2.1a2.49,2.49,0,0,0,1.9-.78,2.77,2.77,0,0,0,.74-2,2.81,2.81,0,0,0-.74-2,2.72,2.72,0,0,0-3.79,0,2.7,2.7,0,0,0-.75,2,2.77,2.77,0,0,0,.75,2A2.48,2.48,0,0,0,343.64,644.72Z" transform="translate(-180.58 -431.71)" style="fill: #293b4a"></path><path d="M354.29,646.82a4.39,4.39,0,0,1-2-.39,2.63,2.63,0,0,1-1.14-1,2.75,2.75,0,0,1-.38-1.4,2.55,2.55,0,0,1,1-2.1,4.82,4.82,0,0,1,3-.81h2.37v-.22a1.72,1.72,0,0,0-.55-1.41,2,2,0,0,0-1.35-.45,2.3,2.3,0,0,0-1.27.35,1.48,1.48,0,0,0-.68,1H351a3.19,3.19,0,0,1,.69-1.76,3.82,3.82,0,0,1,1.52-1.15,5.24,5.24,0,0,1,2.1-.4,4.67,4.67,0,0,1,3.14,1,3.53,3.53,0,0,1,1.14,2.81v5.71h-2.05l-.22-1.5a3.71,3.71,0,0,1-1.15,1.25,3.43,3.43,0,0,1-1.9.49Zm.54-1.88a2,2,0,0,0,1.61-.67,3.34,3.34,0,0,0,.72-1.67h-2a2.13,2.13,0,0,0-1.37.34,1.08,1.08,0,0,0-.41.86,1,1,0,0,0,.41.85,1.83,1.83,0,0,0,1.09.3Z" transform="translate(-180.58 -431.71)" style="fill: #293b4a"></path><path d="M361.91,646.6v-9.31H364l.22,1.74a3.94,3.94,0,0,1,1.38-1.43,3.82,3.82,0,0,1,2.05-.54v2.53H367a3.93,3.93,0,0,0-1.41.24,1.83,1.83,0,0,0-1,.84,3.35,3.35,0,0,0-.35,1.67v4.24h-2.4Z" transform="translate(-180.58 -431.71)" style="fill: #293b4a"></path><path d="M373.44,646.82a4.37,4.37,0,0,1-2.34-.64,4.51,4.51,0,0,1-1.64-1.74,5.16,5.16,0,0,1-.6-2.5,5.11,5.11,0,0,1,.6-2.5,4.48,4.48,0,0,1,1.64-1.73,4.38,4.38,0,0,1,2.34-.62,4.15,4.15,0,0,1,1.84.39,3.32,3.32,0,0,1,1.27,1.11v-5.48H379v13.5h-2.14l-.26-1.33a4.19,4.19,0,0,1-1.19,1.09,3.54,3.54,0,0,1-1.92.47Zm.51-2.1a2.5,2.5,0,0,0,1.9-.78,2.77,2.77,0,0,0,.74-2,2.81,2.81,0,0,0-.74-2,2.73,2.73,0,0,0-3.8,0,2.7,2.7,0,0,0-.75,2,2.77,2.77,0,0,0,.75,2A2.51,2.51,0,0,0,374,644.72Z" transform="translate(-180.58 -431.71)" style="fill: #293b4a"></path><path d="M490.31,659.57h53a18.3,18.3,0,0,0,18.3-18.3h0a18.3,18.3,0,0,0-18.3-18.3h-53a18.3,18.3,0,0,0-18.3,18.3h0A18.3,18.3,0,0,0,490.31,659.57Z" transform="translate(-180.58 -431.71)" style="fill: #fff"></path><path d="M491,656.5a15.3,15.3,0,1,0-15.3-15.3A15.3,15.3,0,0,0,491,656.5Z" transform="translate(-180.58 -431.71)" style="fill: #f1f3f5"></path><path d="M490.42,648a.86.86,0,0,0,1.16,0c1.58-1.43,5.88-5.54,6.05-8.28.21-3.37-3.58-5.65-6.63-2.4h0c-3-3.25-6.88-1-6.66,2.4.18,2.74,4.47,6.85,6.06,8.29Z" transform="translate(-180.58 -431.71)" style="fill: #fff"></path><path d="M548.64,633.05h-34.1a2.64,2.64,0,0,0-2.64,2.64v0a2.64,2.64,0,0,0,2.64,2.64h34.1a2.64,2.64,0,0,0,2.64-2.64v0A2.64,2.64,0,0,0,548.64,633.05Z" transform="translate(-180.58 -431.71)" style="fill: #f1f3f5"></path><path d="M548.64,642.94h-34.1a2.65,2.65,0,0,0-2.64,2.65v0a2.65,2.65,0,0,0,2.64,2.65h34.1a2.65,2.65,0,0,0,2.64-2.65v0A2.65,2.65,0,0,0,548.64,642.94Z" transform="translate(-180.58 -431.71)" style="fill: #f1f3f5"></path><path d="M560.1,681.22h-349a8.91,8.91,0,0,0-8.91,8.91v39.3a8.91,8.91,0,0,0,8.91,8.91H560.1a8.91,8.91,0,0,0,8.92-8.91v-39.3A8.91,8.91,0,0,0,560.1,681.22Z" transform="translate(-180.58 -431.71)" style="fill: #f1f3f5"></path><path d="M274.9,687.38H215.82a7.27,7.27,0,0,0-7.27,7.26v30.28a7.27,7.27,0,0,0,7.27,7.27H274.9a7.26,7.26,0,0,0,7.27-7.27V694.64A7.26,7.26,0,0,0,274.9,687.38Z" transform="translate(-180.58 -431.71)" style="fill: #fff"></path><path d="M260.18,711.45H230.79v-3.73h29.39Zm-28.54-.85h27.7v-2h-27.7Z" transform="translate(-180.58 -431.71)" style="fill: #293b4a"></path><path d="M260.18,726h-.85v-5.85H231.64V726h-.85v-6.69h29.39Z" transform="translate(-180.58 -431.71)" style="fill: #293b4a"></path><path d="M252.19,720.11h-13.4V710.6h13.4Zm-12.56-.85h11.72v-7.82H239.63Z" transform="translate(-180.58 -431.71)" style="fill: #293b4a"></path><path d="M239.63,720.11h-6.72V710.6h6.72Zm-5.87-.85h5v-7.82h-5Z" transform="translate(-180.58 -431.71)" style="fill: #293b4a"></path><path d="M258.06,720.11h-6.72V710.6h6.72Zm-5.87-.85h5v-7.82h-5Z" transform="translate(-180.58 -431.71)" style="fill: #293b4a"></path><path d="M245.91,693.05h-.85v8.84h.85Z" transform="translate(-180.58 -431.71)" style="fill: #293b4a"></path><path d="M240.11,699.86a2.57,2.57,0,0,1-1.7-.64l-.15-.12v-4.9l.7.58c.93.79,1.87.4,3-.06s2.5-1,3.83.06l.15.13v4.89l-.69-.58c-.94-.78-1.88-.39-3,.06A5.68,5.68,0,0,1,240.11,699.86Zm-1-1.17c.88.62,1.78.25,2.81-.18a4,4,0,0,1,3.15-.38v-2.82c-.89-.62-1.79-.25-2.82.18a3.87,3.87,0,0,1-3.14.37Z" transform="translate(-180.58 -431.71)" style="fill: #293b4a"></path><path d="M258.68,706.94h-.84v-1.23l-12.36-3.38-12.35,3.38v1.23h-.84v-1.87l13.19-3.62,13.2,3.62Z" transform="translate(-180.58 -431.71)" style="fill: #293b4a"></path><path d="M257.49,726.08h-.84v-1.49H234.32v1.49h-.84v-2.33h24Z" transform="translate(-180.58 -431.71)" style="fill: #293b4a"></path><path d="M253.78,722.9h-.84v-.76H238v.76h-.84v-1.61h16.59Z" transform="translate(-180.58 -431.71)" style="fill: #293b4a"></path><path d="M249,718.59h-.84v-4.51H242.8v4.51H242v-5.35h7Z" transform="translate(-180.58 -431.71)" style="fill: #293b4a"></path><path d="M252.19,706.88h-.85v-1H239.63v1h-.85v-1.82h13.41Z" transform="translate(-180.58 -431.71)" style="fill: #293b4a"></path><path d="M235.78,712.37h-.85v6h.85Z" transform="translate(-180.58 -431.71)" style="fill: #293b4a"></path><path d="M256,712.37h-.85v6H256Z" transform="translate(-180.58 -431.71)" style="fill: #293b4a"></path><path d="M260.71,725.67H230v.85h30.7Z" transform="translate(-180.58 -431.71)" style="fill: #293b4a"></path><path d="M302.07,715.34a6.2,6.2,0,0,1-2.55-.5,4,4,0,0,1-1.74-1.42,4,4,0,0,1-.66-2.26h2.52a2.25,2.25,0,0,0,.67,1.54,2.73,2.73,0,0,0,3.26.17,1.5,1.5,0,0,0,.56-1.23,1.65,1.65,0,0,0-.5-1.26,3.76,3.76,0,0,0-1.32-.73l-1.76-.6a5.83,5.83,0,0,1-2.32-1.35,3,3,0,0,1-.79-2.19,3.38,3.38,0,0,1,.55-2,3.83,3.83,0,0,1,1.56-1.3,5.54,5.54,0,0,1,2.29-.45,5.48,5.48,0,0,1,2.31.47,3.79,3.79,0,0,1,1.58,1.31,3.67,3.67,0,0,1,.6,2h-2.57a1.81,1.81,0,0,0-.53-1.23,1.9,1.9,0,0,0-1.44-.54,2,2,0,0,0-1.32.39,1.37,1.37,0,0,0-.54,1.17,1.35,1.35,0,0,0,.41,1,3.19,3.19,0,0,0,1.13.64c.47.17,1,.37,1.63.57a12.22,12.22,0,0,1,1.79.78,3.88,3.88,0,0,1,1.29,1.19,3.41,3.41,0,0,1,.49,1.9,3.75,3.75,0,0,1-.52,1.91,3.7,3.7,0,0,1-1.56,1.41,5.41,5.41,0,0,1-2.53.54Z" transform="translate(-180.58 -431.71)" style="fill: #293b4a"></path><path d="M312.87,715.12a3.63,3.63,0,0,1-2.34-.71,3.13,3.13,0,0,1-.88-2.53v-4h-1.6v-2h1.6l.27-2.49H312v2.49h2.51v2H312v4.07a1.19,1.19,0,0,0,.3.93,1.51,1.51,0,0,0,1,.25h1.16v2h-1.63Z" transform="translate(-180.58 -431.71)" style="fill: #293b4a"></path><path d="M319.83,715.34a4.35,4.35,0,0,1-2-.38,2.75,2.75,0,0,1-1.15-1,2.72,2.72,0,0,1-.37-1.4,2.58,2.58,0,0,1,1-2.1,4.85,4.85,0,0,1,3-.8h2.37v-.22a1.73,1.73,0,0,0-.54-1.41,2,2,0,0,0-1.35-.45,2.36,2.36,0,0,0-1.28.35,1.48,1.48,0,0,0-.68,1h-2.34a3.26,3.26,0,0,1,.69-1.76,3.7,3.7,0,0,1,1.53-1.15,5.2,5.2,0,0,1,2.09-.41,4.65,4.65,0,0,1,3.14,1,3.55,3.55,0,0,1,1.14,2.82v5.71h-2l-.23-1.5a3.49,3.49,0,0,1-1.15,1.24,3.41,3.41,0,0,1-1.9.49Zm.54-1.87a2,2,0,0,0,1.61-.68,3.23,3.23,0,0,0,.73-1.67h-2a2.15,2.15,0,0,0-1.37.35,1.09,1.09,0,0,0-.41.86,1,1,0,0,0,.41.85,1.9,1.9,0,0,0,1.09.3Z" transform="translate(-180.58 -431.71)" style="fill: #293b4a"></path><path d="M327.45,715.12v-9.3h2.11l.19,1.57a3.28,3.28,0,0,1,1.25-1.31,3.75,3.75,0,0,1,1.92-.49,3.34,3.34,0,0,1,2.68,1.09,4.65,4.65,0,0,1,1,3.18v5.25h-2.4v-5a2.94,2.94,0,0,0-.5-1.84,1.76,1.76,0,0,0-1.51-.64,2.13,2.13,0,0,0-1.67.72,2.88,2.88,0,0,0-.64,2v4.8h-2.39Z" transform="translate(-180.58 -431.71)" style="fill: #293b4a"></path><path d="M343.13,715.34a4.41,4.41,0,0,1-2.34-.63,4.55,4.55,0,0,1-1.63-1.74,5.17,5.17,0,0,1-.6-2.51,5.11,5.11,0,0,1,.6-2.5,4.5,4.5,0,0,1,1.63-1.72,4.44,4.44,0,0,1,2.34-.63,4.12,4.12,0,0,1,1.84.4,3.33,3.33,0,0,1,1.28,1.1v-5.47h2.4v13.5h-2.13l-.26-1.33a4.48,4.48,0,0,1-1.19,1.09,3.55,3.55,0,0,1-1.92.46Zm.51-2.09a2.49,2.49,0,0,0,1.9-.78,3.07,3.07,0,0,0,0-4,2.7,2.7,0,0,0-3.79,0,2.73,2.73,0,0,0-.75,2,2.81,2.81,0,0,0,.75,2A2.48,2.48,0,0,0,343.64,713.25Z" transform="translate(-180.58 -431.71)" style="fill: #293b4a"></path><path d="M354.29,715.34a4.4,4.4,0,0,1-2-.38,2.62,2.62,0,0,1-1.52-2.42,2.58,2.58,0,0,1,1-2.1,4.88,4.88,0,0,1,3-.8h2.37v-.22a1.71,1.71,0,0,0-.55-1.41,2,2,0,0,0-1.35-.45,2.3,2.3,0,0,0-1.27.35,1.48,1.48,0,0,0-.68,1H351a3.19,3.19,0,0,1,.69-1.76,3.73,3.73,0,0,1,1.52-1.15,5.24,5.24,0,0,1,2.1-.41,4.67,4.67,0,0,1,3.14,1,3.55,3.55,0,0,1,1.14,2.82v5.71h-2.05l-.22-1.5a3.59,3.59,0,0,1-1.15,1.24,3.43,3.43,0,0,1-1.9.49Zm.54-1.87a2,2,0,0,0,1.61-.68,3.3,3.3,0,0,0,.72-1.67h-2a2.13,2.13,0,0,0-1.37.35,1.06,1.06,0,0,0-.41.86,1,1,0,0,0,.41.85,1.9,1.9,0,0,0,1.09.3Z" transform="translate(-180.58 -431.71)" style="fill: #293b4a"></path><path d="M361.91,715.12v-9.3H364l.22,1.74a4,4,0,0,1,1.38-1.44,3.91,3.91,0,0,1,2.05-.53v2.52H367a3.93,3.93,0,0,0-1.41.24,1.92,1.92,0,0,0-1,.84,3.4,3.4,0,0,0-.35,1.67v4.24h-2.4Z" transform="translate(-180.58 -431.71)" style="fill: #293b4a"></path><path d="M373.44,715.34a4.36,4.36,0,0,1-2.34-.63,4.58,4.58,0,0,1-1.64-1.74,5.17,5.17,0,0,1-.6-2.51,5.11,5.11,0,0,1,.6-2.5,4.52,4.52,0,0,1,1.64-1.72,4.39,4.39,0,0,1,2.34-.63,4.15,4.15,0,0,1,1.84.4,3.38,3.38,0,0,1,1.27,1.1v-5.47H379v13.5h-2.14l-.26-1.33a4.19,4.19,0,0,1-1.19,1.09,3.55,3.55,0,0,1-1.92.46Zm.51-2.09a2.5,2.5,0,0,0,1.9-.78,3.07,3.07,0,0,0,0-4,2.5,2.5,0,0,0-1.9-.78,2.53,2.53,0,0,0-1.9.77,2.73,2.73,0,0,0-.75,2,2.81,2.81,0,0,0,.75,2A2.51,2.51,0,0,0,374,713.25Z" transform="translate(-180.58 -431.71)" style="fill: #293b4a"></path><path d="M490.31,728.08h53a18.3,18.3,0,0,0,18.3-18.29h0a18.3,18.3,0,0,0-18.3-18.29h-53A18.3,18.3,0,0,0,472,709.78h0A18.3,18.3,0,0,0,490.31,728.08Z" transform="translate(-180.58 -431.71)" style="fill: #fff"></path><path d="M491,725a15.29,15.29,0,1,0-15.3-15.29A15.29,15.29,0,0,0,491,725Z" transform="translate(-180.58 -431.71)" style="fill: #f1f3f5"></path><path d="M490.42,716.48a.88.88,0,0,0,1.16,0c1.58-1.43,5.88-5.55,6.05-8.29.21-3.36-3.58-5.65-6.63-2.39h0c-3-3.26-6.88-1-6.66,2.39.18,2.74,4.47,6.86,6.06,8.3Z" transform="translate(-180.58 -431.71)" style="fill: #fff"></path><path d="M548.64,701.57h-34.1a2.64,2.64,0,0,0-2.64,2.64v0a2.64,2.64,0,0,0,2.64,2.64h34.1a2.64,2.64,0,0,0,2.64-2.64v0A2.64,2.64,0,0,0,548.64,701.57Z" transform="translate(-180.58 -431.71)" style="fill: #f1f3f5"></path><path d="M548.64,711.46h-34.1a2.64,2.64,0,0,0-2.64,2.64v0a2.64,2.64,0,0,0,2.64,2.64h34.1a2.64,2.64,0,0,0,2.64-2.64v0A2.64,2.64,0,0,0,548.64,711.46Z" transform="translate(-180.58 -431.71)" style="fill: #f1f3f5"></path></g></g><g style="clip-path: url(#clip-path-2)"><g><path d="M599.08,693.71a61.5,61.5,0,1,0-61.5-61.5A61.5,61.5,0,0,0,599.08,693.71Z" transform="translate(-180.58 -431.71)" style="fill: #f1f3f5"></path><path d="M599.1,656.3A23.31,23.31,0,1,0,575.79,633,23.31,23.31,0,0,0,599.1,656.3Z" transform="translate(-180.58 -431.71)" style="fill: #19ad4a"></path><path d="M620,610.55l-46.77,48,1.34,1.31,46.78-47.95Z" transform="translate(-180.58 -431.71)" style="fill: #263441"></path><path d="M628.53,628.78l-.07-25.39-25.42.09V601.6l27.32-.09.06,27.27Z" transform="translate(-180.58 -431.71)" style="fill: #263441"></path></g></g></g></svg>