<svg xmlns="http://www.w3.org/2000/svg" xmlns:xlink="http://www.w3.org/1999/xlink" id="Layer_1" data-name="Layer 1" viewBox="0 0 487 300"><defs><clipPath id="clip-path" transform="translate(-177.08 -445.29)"><rect x="177.08" y="445.29" width="424.73" height="300" style="fill: none"></rect></clipPath><clipPath id="clip-path-2" transform="translate(-177.08 -445.29)"><rect x="541.08" y="534.29" width="123" height="123" style="fill: none"></rect></clipPath></defs><g><g style="clip-path: url(#clip-path)"><g><path d="M590.91,448.79H188a7.4,7.4,0,0,0-7.4,7.4v278.2a7.39,7.39,0,0,0,7.4,7.39H590.91a7.39,7.39,0,0,0,7.39-7.39V456.19A7.4,7.4,0,0,0,590.91,448.79Z" transform="translate(-177.08 -445.29)" style="fill: #f1f3f5"></path><path d="M590.91,745.29H188a10.91,10.91,0,0,1-10.91-10.9V456.19A10.91,10.91,0,0,1,188,445.29H590.91a10.91,10.91,0,0,1,10.9,10.9v278.2A10.91,10.91,0,0,1,590.91,745.29ZM188,452.3a3.9,3.9,0,0,0-3.9,3.89v278.2a3.9,3.9,0,0,0,3.9,3.89H590.91a3.9,3.9,0,0,0,3.89-3.89V456.19a3.89,3.89,0,0,0-3.89-3.89Z" transform="translate(-177.08 -445.29)" style="fill: #e6e6e6"></path><path d="M586.3,487.86H196.2v.79H586.3Z" transform="translate(-177.08 -445.29)" style="fill: #243c4b"></path><path d="M544.35,476.85a4.56,4.56,0,1,0-4.56-4.56A4.56,4.56,0,0,0,544.35,476.85Z" transform="translate(-177.08 -445.29)" style="fill: #19ad4a"></path><path d="M556.45,476.85a4.56,4.56,0,1,0-4.56-4.56A4.56,4.56,0,0,0,556.45,476.85Z" transform="translate(-177.08 -445.29)" style="fill: #ff340c"></path><path d="M569.14,476.85a4.56,4.56,0,1,0-4.56-4.56A4.56,4.56,0,0,0,569.14,476.85Z" transform="translate(-177.08 -445.29)" style="fill: #fc0"></path><path d="M215,472.76l-.94.48v.94l-2.85,1.42-2.84-1.42v-2.84l-.94-.47,3.78-1.89,1.9.94,1.89.95-3.79,1.89-1.31-.65v.94l1.31.66,5.69-2.84L213.08,469l-1.9-1-5.68,2.84,1.9.95v2.84l3.78,1.89,3.79-1.89v-1.9Z" transform="translate(-177.08 -445.29)" style="fill: #19ad4a"></path><path d="M221.84,469.21h1.33l2.32,6.51h-1l-.51-1.48h-3l-.52,1.48h-1l2.36-6.51Zm1.83,4.18-1.16-3.28h-.07l-1.16,3.28Z" transform="translate(-177.08 -445.29)" style="fill: #19ad4a"></path><path d="M225.87,473.29a2.35,2.35,0,0,1,2.28-2.55,1.88,1.88,0,0,1,1.58.81h.08v-2.82h.92v7h-.91v-.67h-.06a1.81,1.81,0,0,1-1.54.79,2.38,2.38,0,0,1-2.34-2.55Zm3.95,0a1.54,1.54,0,0,0-1.51-1.7,1.71,1.71,0,0,0,0,3.39A1.55,1.55,0,0,0,229.82,473.3Z" transform="translate(-177.08 -445.29)" style="fill: #19ad4a"></path><path d="M231.59,470.86h1l1.33,4H234l1.32-4h1l-1.72,4.86h-1.24l-1.75-4.86Z" transform="translate(-177.08 -445.29)" style="fill: #19ad4a"></path><path d="M236.73,473.3a2.42,2.42,0,0,1,2.4-2.56,2.29,2.29,0,0,1,2.35,2.51v.28h-3.79a1.4,1.4,0,0,0,1.49,1.51,1.34,1.34,0,0,0,1.34-.94l.87.21a2.2,2.2,0,0,1-2.21,1.53,2.36,2.36,0,0,1-2.44-2.54Zm3.8-.47a1.32,1.32,0,0,0-1.4-1.28,1.43,1.43,0,0,0-1.44,1.28Z" transform="translate(-177.08 -445.29)" style="fill: #19ad4a"></path><path d="M242.51,470.86h.92v.63h.08a1.49,1.49,0,0,1,1.39-.75,1.74,1.74,0,0,1,1.78,1.86v3.12h-.92v-3a1.1,1.1,0,0,0-1.11-1.15,1.2,1.2,0,0,0-1.21,1.23v2.88h-.92v-4.86Z" transform="translate(-177.08 -445.29)" style="fill: #19ad4a"></path><path d="M248.45,474.3v-2.63h-.89v-.8h.94v-1.38h.87v1.38h1.44v.8h-1.44v2.62c0,.44.17.62.6.62h.77v.81H250c-.91,0-1.51-.42-1.51-1.43Z" transform="translate(-177.08 -445.29)" style="fill: #19ad4a"></path><path d="M251.84,474v-3.12h.92v3a1.09,1.09,0,0,0,1.11,1.15,1.19,1.19,0,0,0,1.21-1.23v-2.87H256v4.86h-.92v-.64H255a1.47,1.47,0,0,1-1.39.76,1.74,1.74,0,0,1-1.78-1.86Z" transform="translate(-177.08 -445.29)" style="fill: #19ad4a"></path><path d="M257,474.35l.86-.19A1,1,0,0,0,259,475c.62,0,.95-.27.95-.68,0-1.17-2.76-.24-2.76-2.19,0-.83.72-1.41,1.78-1.41a1.7,1.7,0,0,1,1.81,1.35l-.81.24a.94.94,0,0,0-1-.77c-.55,0-.86.26-.86.61,0,1.06,2.81.12,2.81,2.1,0,.94-.76,1.57-1.93,1.57A1.75,1.75,0,0,1,257,474.35Z" transform="translate(-177.08 -445.29)" style="fill: #19ad4a"></path><path d="M262,475.24a.61.61,0,1,1,.61.61.61.61,0,0,1-.61-.61Z" transform="translate(-177.08 -445.29)" style="fill: #19ad4a"></path><path d="M264.94,471.67h-.89v-.8h1.81v4.86h-.92Zm-.15-2.24a.6.6,0,0,1,.6-.6h0a.61.61,0,0,1,.63.6.62.62,0,0,1-.63.63A.6.6,0,0,1,264.79,469.43Z" transform="translate(-177.08 -445.29)" style="fill: #19ad4a"></path><path d="M267,473.29a2.56,2.56,0,1,1,2.55,2.55A2.48,2.48,0,0,1,267,473.29Zm4.17,0a1.62,1.62,0,1,0-1.62,1.68A1.61,1.61,0,0,0,271.21,473.29Z" transform="translate(-177.08 -445.29)" style="fill: #19ad4a"></path><path d="M514.24,517.81H259.87v22.93H514.24Z" transform="translate(-177.08 -445.29)" style="fill: #ffe05d"></path><path d="M203.3,540.74h62L277,517.81h-67a6.76,6.76,0,0,0-6.76,6.76v16.18Z" transform="translate(-177.08 -445.29)" style="fill: #293b4a"></path><path d="M586.31,540.74H498.64l11.83-22.93h68.88a6.85,6.85,0,0,1,6.95,6.76v16.18Z" transform="translate(-177.08 -445.29)" style="fill: #19ad4a"></path><path d="M220.8,498.88h49.64a9.68,9.68,0,0,1,9.67,9.67v9.25h-69v-9.25a9.67,9.67,0,0,1,9.67-9.67Z" transform="translate(-177.08 -445.29)" style="fill: #19ad4a"></path><path d="M228.34,511.73v-5.35h2a2.35,2.35,0,0,1,1.06.21,1.42,1.42,0,0,1,.64.59,1.69,1.69,0,0,1,.21.84,1.61,1.61,0,0,1-.21.82,1.48,1.48,0,0,1-.62.59,2.28,2.28,0,0,1-1.08.23h-1v2.07Zm1-2.87h.94a1,1,0,0,0,.74-.23.84.84,0,0,0,.23-.61.86.86,0,0,0-.23-.62,1,1,0,0,0-.74-.23h-.94Z" transform="translate(-177.08 -445.29)" style="fill: #fff"></path><path d="M233,511.73v-3.8h.88l.09.71a1.67,1.67,0,0,1,.56-.59,1.64,1.64,0,0,1,.84-.21v1h-.27a1.7,1.7,0,0,0-.57.1.76.76,0,0,0-.39.34,1.28,1.28,0,0,0-.14.68v1.73h-1Z" transform="translate(-177.08 -445.29)" style="fill: #fff"></path><path d="M237.76,511.81a2,2,0,0,1-1-.24,1.83,1.83,0,0,1-.69-.69,2,2,0,0,1-.25-1,2.17,2.17,0,0,1,.24-1.05,1.91,1.91,0,0,1,.69-.72,2,2,0,0,1,1-.25,2,2,0,0,1,1,.24,1.8,1.8,0,0,1,.67.67,2,2,0,0,1,.23.94v.18a1.28,1.28,0,0,1,0,.19h-2.88a1,1,0,0,0,.31.7,1,1,0,0,0,.67.25.87.87,0,0,0,.5-.13.79.79,0,0,0,.3-.35h1a1.82,1.82,0,0,1-.36.65,1.64,1.64,0,0,1-.61.47,2,2,0,0,1-.83.17Zm0-3.18a1.05,1.05,0,0,0-.63.2.94.94,0,0,0-.35.62h1.88a.84.84,0,0,0-.27-.6.91.91,0,0,0-.62-.22Z" transform="translate(-177.08 -445.29)" style="fill: #fff"></path><path d="M240.49,511.73v-3.8h.86l.09.51a1.36,1.36,0,0,1,.48-.44,1.6,1.6,0,0,1,.7-.16,1.3,1.3,0,0,1,1.25.68,1.47,1.47,0,0,1,.55-.5,1.61,1.61,0,0,1,.76-.18,1.42,1.42,0,0,1,1.14.44,1.87,1.87,0,0,1,.4,1.3v2.14h-1v-2.05a1.22,1.22,0,0,0-.19-.75.66.66,0,0,0-.58-.26.81.81,0,0,0-.64.29,1.28,1.28,0,0,0-.23.81v1.95h-1v-2a1.22,1.22,0,0,0-.2-.75.68.68,0,0,0-.58-.26.79.79,0,0,0-.64.29,1.28,1.28,0,0,0-.23.81v1.95h-1Z" transform="translate(-177.08 -445.29)" style="fill: #fff"></path><path d="M248.18,507.35a.63.63,0,0,1-.43-.16.54.54,0,0,1-.18-.41.53.53,0,0,1,.18-.4.63.63,0,0,1,.43-.16.64.64,0,0,1,.44.16.52.52,0,0,1,.18.4.52.52,0,0,1-.18.41A.64.64,0,0,1,248.18,507.35Zm-.49,4.38v-3.8h1v3.8Z" transform="translate(-177.08 -445.29)" style="fill: #fff"></path><path d="M251.12,511.81a1.38,1.38,0,0,1-1.1-.44,2,2,0,0,1-.38-1.3v-2.14h1V510a1.22,1.22,0,0,0,.2.75.77.77,0,0,0,.63.26.86.86,0,0,0,.67-.29,1.12,1.12,0,0,0,.26-.8v-2h1v3.8h-.87l-.08-.64a1.3,1.3,0,0,1-.51.53,1.51,1.51,0,0,1-.78.2Z" transform="translate(-177.08 -445.29)" style="fill: #fff"></path><path d="M254.35,511.73v-3.8h.87l.08.51a1.45,1.45,0,0,1,.48-.44,1.61,1.61,0,0,1,.71-.16,1.28,1.28,0,0,1,1.24.68,1.55,1.55,0,0,1,.55-.5,1.65,1.65,0,0,1,.77-.18,1.45,1.45,0,0,1,1.14.44,1.92,1.92,0,0,1,.39,1.3v2.14h-1v-2.05a1.22,1.22,0,0,0-.19-.75.65.65,0,0,0-.57-.26.78.78,0,0,0-.64.29,1.22,1.22,0,0,0-.24.81v1.95h-1v-2a1.16,1.16,0,0,0-.2-.75.68.68,0,0,0-.58-.26.76.76,0,0,0-.63.29,1.22,1.22,0,0,0-.24.81v1.95h-1Z" transform="translate(-177.08 -445.29)" style="fill: #fff"></path><path d="M203.3,540.74h383V603a7.46,7.46,0,0,1-7.45,7.45H215.62a12.34,12.34,0,0,1-12.32-12.32Z" transform="translate(-177.08 -445.29)" style="fill: #fff"></path><path d="M341.77,571.58h-69.7a.4.4,0,0,1-.4-.4.41.41,0,0,1,.4-.4h69.69a.39.39,0,0,1,.4.4.4.4,0,0,1-.4.4Z" transform="translate(-177.08 -445.29)" style="fill: #293b4a"></path><path d="M326.88,578.46h-54.8a.4.4,0,1,1,0-.8h54.8a.39.39,0,0,1,.4.4A.4.4,0,0,1,326.88,578.46Z" transform="translate(-177.08 -445.29)" style="fill: #293b4a"></path><path d="M550.11,571.58H508.6a.4.4,0,0,1-.41-.4.41.41,0,0,1,.41-.4h41.51a.39.39,0,0,1,.4.4A.4.4,0,0,1,550.11,571.58Z" transform="translate(-177.08 -445.29)" style="fill: #293b4a"></path><path d="M539.79,585.34H508.6a.4.4,0,0,1-.41-.4.41.41,0,0,1,.41-.4h31.19a.39.39,0,0,1,.4.4A.4.4,0,0,1,539.79,585.34Z" transform="translate(-177.08 -445.29)" style="fill: #293b4a"></path><path d="M564,578.46H508.6a.4.4,0,0,1-.41-.4.41.41,0,0,1,.41-.4H564a.39.39,0,0,1,.4.4A.4.4,0,0,1,564,578.46Z" transform="translate(-177.08 -445.29)" style="fill: #293b4a"></path><path d="M286.78,588.3H272.07v4h14.71Z" transform="translate(-177.08 -445.29)" style="fill: #293b4a"></path><path d="M305.65,588.3H290.94v4h14.71Z" transform="translate(-177.08 -445.29)" style="fill: #293b4a"></path><path d="M345.36,588.3h-14.7v4h14.7Z" transform="translate(-177.08 -445.29)" style="fill: #293b4a"></path><path d="M364.22,588.3h-14.7v4h14.7Z" transform="translate(-177.08 -445.29)" style="fill: #293b4a"></path><path d="M404.15,588.3h-14.7v4h14.7Z" transform="translate(-177.08 -445.29)" style="fill: #293b4a"></path><path d="M423,588.3H408.3v4H423Z" transform="translate(-177.08 -445.29)" style="fill: #293b4a"></path><path d="M215.81,527.34h.84l1.44,4.06h-.62l-.32-.91h-1.87l-.33.91h-.6ZM217,530l-.72-2h0l-.72,2Z" transform="translate(-177.08 -445.29)" style="fill: #fff"></path><path d="M218.32,529.89a1.46,1.46,0,0,1,1.42-1.59,1.13,1.13,0,0,1,1,.51h.05v-1.75h.57v4.34h-.56V531h-.05a1.14,1.14,0,0,1-1,.49,1.47,1.47,0,0,1-1.46-1.58Zm2.46,0a1,1,0,0,0-.94-1.06,1.06,1.06,0,0,0,0,2.11A1,1,0,0,0,220.78,529.89Z" transform="translate(-177.08 -445.29)" style="fill: #fff"></path><path d="M221.88,528.38h.61l.83,2.49h0l.83-2.49h.62l-1.08,3H223l-1.09-3Z" transform="translate(-177.08 -445.29)" style="fill: #fff"></path><path d="M225.08,529.89a1.51,1.51,0,0,1,1.49-1.59,1.43,1.43,0,0,1,1.47,1.56V530h-2.36a.87.87,0,0,0,.93.94.84.84,0,0,0,.83-.58l.53.13a1.36,1.36,0,0,1-1.37.94,1.47,1.47,0,0,1-1.52-1.58Zm2.37-.28a.83.83,0,0,0-.88-.8.88.88,0,0,0-.89.8Z" transform="translate(-177.08 -445.29)" style="fill: #fff"></path><path d="M228.68,528.38h.57v.39h.05a1,1,0,0,1,.87-.47,1.08,1.08,0,0,1,1.1,1.16v1.94h-.57v-1.84a.69.69,0,0,0-.69-.72.76.76,0,0,0-.76.77v1.79h-.57Z" transform="translate(-177.08 -445.29)" style="fill: #fff"></path><path d="M232.38,530.52v-1.64h-.56v-.5h.59v-.87H233v.87h.89v.5H233v1.63c0,.27.11.38.37.38h.48v.51h-.49c-.57,0-.94-.26-.94-.88Z" transform="translate(-177.08 -445.29)" style="fill: #fff"></path><path d="M234.49,530.32v-1.94h.57v1.84a.68.68,0,0,0,.69.71.75.75,0,0,0,.75-.76v-1.79h.57v3h-.57V531h0a1,1,0,0,1-.87.47,1.08,1.08,0,0,1-1.1-1.16Z" transform="translate(-177.08 -445.29)" style="fill: #fff"></path><path d="M237.71,530.55l.53-.12a.6.6,0,0,0,.69.53c.4,0,.6-.16.6-.42,0-.72-1.72-.15-1.72-1.36,0-.51.45-.87,1.11-.87a1.06,1.06,0,0,1,1.12.84l-.51.15a.58.58,0,0,0-.64-.47c-.34,0-.54.15-.54.37,0,.66,1.76.08,1.76,1.31,0,.59-.48,1-1.2,1a1.08,1.08,0,0,1-1.2-.93Z" transform="translate(-177.08 -445.29)" style="fill: #fff"></path><path d="M245.65,528.13a1.71,1.71,0,0,0-.35-.56,2,2,0,0,0-1.48-.51h-2l-.19,1.07h.45l0,.23-.36,2-.19,1.09h1.66a2.79,2.79,0,0,0,1.38-.32,2.4,2.4,0,0,0,.84-.77,1.19,1.19,0,0,0,.09-.15,2.68,2.68,0,0,0,.33-1.33,2.13,2.13,0,0,0-.13-.78Zm-1.24,1.61a1.06,1.06,0,0,1-.44.47,1.6,1.6,0,0,1-.75.18h-.35l.39-2.25h.42a1,1,0,0,1,.69.2.88.88,0,0,1,.2.63A1.68,1.68,0,0,1,244.41,529.74Z" transform="translate(-177.08 -445.29)" style="fill: #fff"></path><path d="M258,528.22l-.08.44h1.49l-.2,1.16h-1.49l-.09.49h1.66l-.21,1.17h-3l.78-4.42h3l-.22,1.16Z" transform="translate(-177.08 -445.29)" style="fill: #fff"></path><path d="M251.93,527.06l-.2,1.07,0,.23-.36,2-.19,1.09h-1.33l.2-1.09.35-2,0-.23H250l.2-1.07h1.71Z" transform="translate(-177.08 -445.29)" style="fill: #fff"></path><path d="M249.46,529.33a1.44,1.44,0,0,0,.33-1,.86.86,0,0,0,0-.23,1.19,1.19,0,0,0-.15-.41,1.24,1.24,0,0,0-.52-.49,1.66,1.66,0,0,0-.8-.18h-2.13l-.2,1.08h.33l-.05.23-.35,2-.2,1.1H247l.19-1.1.07-.4h.29l.12.4.33,1.1h1.42l-.35-1.1-.2-.62a1.47,1.47,0,0,0,.55-.43Zm-1-.51a.65.65,0,0,1-.46.15h-.6l.15-.84h.66a.55.55,0,0,1,.32.08.31.31,0,0,1,.09.23A.42.42,0,0,1,248.42,528.82Z" transform="translate(-177.08 -445.29)" style="fill: #fff"></path><path d="M256.71,527.06l-.57,1.07-1.23,2.26-.6,1.09H253l-.21-1.09-.37-2-.05-.23H252l.18-1.06h1.38l.18,1.07.24,1.36.71-1.36.57-1.07Z" transform="translate(-177.08 -445.29)" style="fill: #fff"></path><path d="M292.36,527v-3.8h-1.3v-.66h3.42v.66h-1.3V527Z" transform="translate(-177.08 -445.29)"></path><path d="M295.07,527v-4.58h.82v1.91a1.06,1.06,0,0,1,.43-.41,1.24,1.24,0,0,1,.62-.15,1.14,1.14,0,0,1,.91.37,1.6,1.6,0,0,1,.33,1.08V527h-.81V525.3a1,1,0,0,0-.16-.62.58.58,0,0,0-.51-.22.72.72,0,0,0-.57.25.92.92,0,0,0-.23.67V527h-.83Z" transform="translate(-177.08 -445.29)"></path><path d="M299.39,523.35a.55.55,0,0,1-.37-.13.42.42,0,0,1-.14-.34.42.42,0,0,1,.14-.33.51.51,0,0,1,.37-.13.5.5,0,0,1,.36.13.42.42,0,0,1,.14.33.42.42,0,0,1-.14.34A.55.55,0,0,1,299.39,523.35ZM299,527v-3.15h.82V527Z" transform="translate(-177.08 -445.29)"></path><path d="M302,527.07a1.67,1.67,0,0,1-.73-.14,1.32,1.32,0,0,1-.51-.37,1.15,1.15,0,0,1-.23-.57h.83a.48.48,0,0,0,.21.32.65.65,0,0,0,.43.13.62.62,0,0,0,.4-.1.33.33,0,0,0,.12-.25.28.28,0,0,0-.17-.28,2.62,2.62,0,0,0-.5-.14,3.25,3.25,0,0,1-.42-.11,1.45,1.45,0,0,1-.38-.16.78.78,0,0,1-.28-.26.63.63,0,0,1-.11-.38.91.91,0,0,1,.34-.71,1.38,1.38,0,0,1,.93-.29,1.44,1.44,0,0,1,.9.26,1,1,0,0,1,.39.72h-.77c0-.24-.22-.35-.52-.35a.62.62,0,0,0-.36.09.29.29,0,0,0-.12.22c0,.09.06.16.19.22a3.7,3.7,0,0,0,.49.15c.22,0,.42.1.6.16a.92.92,0,0,1,.44.27.77.77,0,0,1,.17.52,1,1,0,0,1-.15.53,1.11,1.11,0,0,1-.46.36,1.7,1.7,0,0,1-.71.14Z" transform="translate(-177.08 -445.29)"></path><path d="M306,523.35a.57.57,0,0,1-.37-.13.46.46,0,0,1-.14-.34.45.45,0,0,1,.14-.33.59.59,0,0,1,.74,0,.42.42,0,0,1,.14.33.42.42,0,0,1-.14.34A.57.57,0,0,1,306,523.35Zm-.4,3.64v-3.15h.81V527Z" transform="translate(-177.08 -445.29)"></path><path d="M307.21,527v-3.15h.72l.07.53a1,1,0,0,1,.42-.44,1.33,1.33,0,0,1,1.57.2,1.6,1.6,0,0,1,.32,1.08V527h-.82V525.3a1,1,0,0,0-.16-.62.63.63,0,0,0-.52-.22.68.68,0,0,0-.56.25.92.92,0,0,0-.22.67V527h-.82Z" transform="translate(-177.08 -445.29)"></path><path d="M312.4,527.07a1.72,1.72,0,0,1-.74-.14,1.32,1.32,0,0,1-.51-.37,1.15,1.15,0,0,1-.23-.57h.83a.48.48,0,0,0,.21.32.66.66,0,0,0,.44.13.61.61,0,0,0,.39-.1.33.33,0,0,0,.12-.25.28.28,0,0,0-.17-.28,2.62,2.62,0,0,0-.5-.14,3.59,3.59,0,0,1-.41-.11,1.52,1.52,0,0,1-.39-.16.87.87,0,0,1-.28-.26.63.63,0,0,1-.11-.38.91.91,0,0,1,.34-.71,1.39,1.39,0,0,1,.94-.29,1.43,1.43,0,0,1,.89.26,1.07,1.07,0,0,1,.4.72h-.78c0-.24-.22-.35-.52-.35a.58.58,0,0,0-.35.09.27.27,0,0,0-.13.22c0,.09.07.16.19.22a3.7,3.7,0,0,0,.49.15c.22,0,.42.1.6.16a.92.92,0,0,1,.44.27.77.77,0,0,1,.17.52.91.91,0,0,1-.15.53,1,1,0,0,1-.46.36,1.66,1.66,0,0,1-.71.14Z" transform="translate(-177.08 -445.29)"></path><path d="M315.74,527a1.23,1.23,0,0,1-.8-.24,1.07,1.07,0,0,1-.3-.86v-1.38h-.54v-.68h.54l.1-.85h.72v.85h.85v.68h-.85v1.39a.43.43,0,0,0,.09.31.51.51,0,0,0,.34.09h.4V527Z" transform="translate(-177.08 -445.29)"></path><path d="M317.46,523.35a.55.55,0,0,1-.37-.13.42.42,0,0,1-.14-.34.42.42,0,0,1,.14-.33.51.51,0,0,1,.37-.13.5.5,0,0,1,.36.13.42.42,0,0,1,.14.33.42.42,0,0,1-.14.34A.55.55,0,0,1,317.46,523.35Zm-.41,3.64v-3.15h.82V527Z" transform="translate(-177.08 -445.29)"></path><path d="M320.12,527a1.25,1.25,0,0,1-.8-.24,1.07,1.07,0,0,1-.3-.86v-1.38h-.54v-.68H319l.1-.85h.72v.85h.85v.68h-.85v1.39a.42.42,0,0,0,.1.31.5.5,0,0,0,.34.09h.39V527Z" transform="translate(-177.08 -445.29)"></path><path d="M322.58,527.07a1.13,1.13,0,0,1-.91-.37,1.55,1.55,0,0,1-.32-1.08v-1.78h.8v1.71a1,1,0,0,0,.17.62.61.61,0,0,0,.53.22.7.7,0,0,0,.56-.25.92.92,0,0,0,.22-.67v-1.63h.81V527h-.72l-.06-.53a1.13,1.13,0,0,1-.42.45,1.23,1.23,0,0,1-.65.16Z" transform="translate(-177.08 -445.29)"></path><path d="M326.68,527a1.25,1.25,0,0,1-.8-.24,1.07,1.07,0,0,1-.3-.86v-1.38H325v-.68h.54l.1-.85h.72v.85h.85v.68h-.85v1.39a.43.43,0,0,0,.09.31.54.54,0,0,0,.35.09h.39V527Z" transform="translate(-177.08 -445.29)"></path><path d="M328.39,523.35a.57.57,0,0,1-.37-.13.42.42,0,0,1-.14-.34.42.42,0,0,1,.14-.33.59.59,0,0,1,.74,0,.45.45,0,0,1,.14.33.46.46,0,0,1-.14.34A.57.57,0,0,1,328.39,523.35ZM328,527v-3.15h.81V527Z" transform="translate(-177.08 -445.29)"></path><path d="M331.17,527.07a1.65,1.65,0,0,1-.83-.21,1.61,1.61,0,0,1-.58-.58,1.69,1.69,0,0,1-.21-.86,1.57,1.57,0,0,1,.22-.86,1.59,1.59,0,0,1,1.42-.8,1.58,1.58,0,0,1,.81.21,1.43,1.43,0,0,1,.58.59,1.71,1.71,0,0,1,.21.86,1.74,1.74,0,0,1-.21.86,1.43,1.43,0,0,1-.59.58A1.61,1.61,0,0,1,331.17,527.07Zm0-.71a.78.78,0,0,0,.55-.23,1,1,0,0,0,.24-.71.94.94,0,0,0-.24-.71.75.75,0,0,0-.54-.24.76.76,0,0,0-.56.24.94.94,0,0,0-.23.71,1,1,0,0,0,.23.71A.75.75,0,0,0,331.17,526.36Z" transform="translate(-177.08 -445.29)"></path><path d="M333.52,527v-3.15h.72l.06.53a1,1,0,0,1,.42-.44,1.16,1.16,0,0,1,.66-.17,1.14,1.14,0,0,1,.91.37,1.55,1.55,0,0,1,.32,1.08V527h-.81V525.3a1,1,0,0,0-.17-.62.62.62,0,0,0-.52-.22.69.69,0,0,0-.56.25.92.92,0,0,0-.22.67V527h-.81Z" transform="translate(-177.08 -445.29)"></path><path d="M339.35,523.35a.57.57,0,0,1-.37-.13.42.42,0,0,1-.14-.34.42.42,0,0,1,.14-.33.59.59,0,0,1,.74,0,.45.45,0,0,1,.14.33.46.46,0,0,1-.14.34A.57.57,0,0,1,339.35,523.35Zm-.41,3.64v-3.15h.82V527Z" transform="translate(-177.08 -445.29)"></path><path d="M341.92,527.07a1.72,1.72,0,0,1-.74-.14,1.32,1.32,0,0,1-.51-.37,1.15,1.15,0,0,1-.23-.57h.83a.48.48,0,0,0,.21.32.66.66,0,0,0,.44.13.61.61,0,0,0,.39-.1.33.33,0,0,0,.12-.25.28.28,0,0,0-.17-.28,2.62,2.62,0,0,0-.5-.14,3.59,3.59,0,0,1-.41-.11,1.52,1.52,0,0,1-.39-.16.87.87,0,0,1-.28-.26.63.63,0,0,1-.1-.38.91.91,0,0,1,.33-.71,1.39,1.39,0,0,1,.94-.29,1.43,1.43,0,0,1,.89.26,1.07,1.07,0,0,1,.4.72h-.78c0-.24-.22-.35-.52-.35a.58.58,0,0,0-.35.09.27.27,0,0,0-.13.22c0,.09.07.16.19.22a3.7,3.7,0,0,0,.49.15c.22,0,.42.1.6.16a.92.92,0,0,1,.44.27.77.77,0,0,1,.17.52.91.91,0,0,1-.15.53,1,1,0,0,1-.46.36,1.66,1.66,0,0,1-.71.14Z" transform="translate(-177.08 -445.29)"></path><path d="M346.55,527.07a1.41,1.41,0,0,1-.66-.13.84.84,0,0,1-.39-.35,1,1,0,0,1-.13-.47.85.85,0,0,1,.34-.71,1.6,1.6,0,0,1,1-.27h.8v-.08a.59.59,0,0,0-.18-.48.75.75,0,0,0-.46-.15.8.8,0,0,0-.43.12.47.47,0,0,0-.22.35h-.8a1.07,1.07,0,0,1,.24-.6,1.54,1.54,0,0,1,.51-.39,1.8,1.8,0,0,1,.71-.14,1.52,1.52,0,0,1,1.06.34,1.2,1.2,0,0,1,.39,1V527h-.69l-.08-.51a1.15,1.15,0,0,1-.4.42,1.09,1.09,0,0,1-.65.17Zm.19-.64a.69.69,0,0,0,.54-.22,1.19,1.19,0,0,0,.25-.57h-.69a.74.74,0,0,0-.47.11.34.34,0,0,0-.14.29.33.33,0,0,0,.14.29A.62.62,0,0,0,346.74,526.43Z" transform="translate(-177.08 -445.29)"></path><path d="M349.15,527v-3.15h.72l.06.53a1.17,1.17,0,0,1,1.08-.61,1.14,1.14,0,0,1,.91.37,1.55,1.55,0,0,1,.32,1.08V527h-.81V525.3a.94.94,0,0,0-.17-.62.61.61,0,0,0-.51-.22.7.7,0,0,0-.57.25,1,1,0,0,0-.21.67V527h-.82Z" transform="translate(-177.08 -445.29)"></path><path d="M354.27,527l1.63-4.46h.92l1.63,4.46h-.87l-.36-1h-1.73l-.37,1Zm1.44-1.66H357l-.65-1.86-.64,1.86Z" transform="translate(-177.08 -445.29)"></path><path d="M360.31,527.07a1.46,1.46,0,0,1-.8-.22,1.56,1.56,0,0,1-.55-.59,1.87,1.87,0,0,1-.2-.85,1.78,1.78,0,0,1,.2-.85,1.49,1.49,0,0,1,.55-.59,1.54,1.54,0,0,1,.8-.21,1.32,1.32,0,0,1,.62.13,1,1,0,0,1,.43.38v-1.86h.82V527h-.73l-.09-.45a1.43,1.43,0,0,1-.4.37,1.29,1.29,0,0,1-.66.15Zm.18-.71a.82.82,0,0,0,.64-.26,1,1,0,0,0,0-1.35.85.85,0,0,0-.64-.26.84.84,0,0,0-.64.26.94.94,0,0,0-.26.68,1,1,0,0,0,.26.68.86.86,0,0,0,.64.27Z" transform="translate(-177.08 -445.29)"></path><path d="M363.86,527l-1.16-3.15h.85l.81,2.38.81-2.38H366L364.85,527Z" transform="translate(-177.08 -445.29)"></path><path d="M367.92,527.07a1.84,1.84,0,0,1-.85-.2,1.51,1.51,0,0,1-.58-.57,1.67,1.67,0,0,1-.21-.85,1.81,1.81,0,0,1,.21-.87,1.57,1.57,0,0,1,.57-.6,1.75,1.75,0,0,1,.87-.21,1.66,1.66,0,0,1,.82.2,1.61,1.61,0,0,1,.57.56,1.63,1.63,0,0,1,.2.79v.15a.92.92,0,0,1,0,.16h-2.4a.82.82,0,0,0,.25.58.79.79,0,0,0,.56.21.7.7,0,0,0,.42-.12.67.67,0,0,0,.26-.29h.83a1.56,1.56,0,0,1-.3.55,1.48,1.48,0,0,1-.51.38,1.51,1.51,0,0,1-.68.14Zm0-2.64a.88.88,0,0,0-.53.16.78.78,0,0,0-.28.52h1.57a.68.68,0,0,0-.23-.5A.79.79,0,0,0,367.92,524.43Z" transform="translate(-177.08 -445.29)"></path><path d="M370.19,527v-3.15h.72l.06.53a1.18,1.18,0,0,1,.42-.44,1.2,1.2,0,0,1,.66-.17,1.13,1.13,0,0,1,.91.37,1.55,1.55,0,0,1,.33,1.08V527h-.82V525.3a.94.94,0,0,0-.17-.62.61.61,0,0,0-.51-.22.68.68,0,0,0-.56.25.92.92,0,0,0-.22.67V527h-.82Z" transform="translate(-177.08 -445.29)"></path><path d="M375.47,527a1.25,1.25,0,0,1-.8-.24,1.07,1.07,0,0,1-.3-.86v-1.38h-.54v-.68h.54l.1-.85h.72v.85H376v.68h-.85v1.39a.39.39,0,0,0,.1.31.5.5,0,0,0,.34.09H376V527Z" transform="translate(-177.08 -445.29)"></path><path d="M377.93,527.07a1.13,1.13,0,0,1-.91-.37,1.55,1.55,0,0,1-.32-1.08v-1.78h.8v1.71a1,1,0,0,0,.17.62.6.6,0,0,0,.53.22.72.72,0,0,0,.56-.25.92.92,0,0,0,.22-.67v-1.63h.81V527h-.72l-.06-.53a1.13,1.13,0,0,1-.42.45,1.23,1.23,0,0,1-.65.16Z" transform="translate(-177.08 -445.29)"></path><path d="M381.93,527.07a1.75,1.75,0,0,1-.74-.14,1.28,1.28,0,0,1-.5-.37,1,1,0,0,1-.23-.57h.82a.57.57,0,0,0,.21.32.7.7,0,0,0,.44.13.62.62,0,0,0,.4-.1.37.37,0,0,0,.12-.25.27.27,0,0,0-.18-.28,2.42,2.42,0,0,0-.5-.14,3.59,3.59,0,0,1-.41-.11,1.45,1.45,0,0,1-.38-.16.78.78,0,0,1-.28-.26.63.63,0,0,1-.11-.38.91.91,0,0,1,.33-.71,1.41,1.41,0,0,1,.94-.29,1.44,1.44,0,0,1,.9.26,1.06,1.06,0,0,1,.39.72h-.77c-.05-.24-.22-.35-.53-.35a.58.58,0,0,0-.35.09.26.26,0,0,0-.12.22c0,.09.06.16.18.22a4.23,4.23,0,0,0,.49.15c.22,0,.43.1.61.16a1,1,0,0,1,.44.27.83.83,0,0,1,.16.52,1,1,0,0,1-.14.53,1.11,1.11,0,0,1-.46.36,1.7,1.7,0,0,1-.71.14Z" transform="translate(-177.08 -445.29)"></path><path d="M385.5,527v-4.46H387a2.67,2.67,0,0,1,1.28.28,1.84,1.84,0,0,1,.76.78,2.73,2.73,0,0,1,.24,1.18,2.69,2.69,0,0,1-.24,1.17,1.74,1.74,0,0,1-.76.78A2.72,2.72,0,0,1,387,527H385.5Zm.82-.7H387a1.85,1.85,0,0,0,.89-.18,1,1,0,0,0,.46-.53,2.5,2.5,0,0,0,0-1.65,1,1,0,0,0-.46-.52,1.84,1.84,0,0,0-.89-.19h-.66Z" transform="translate(-177.08 -445.29)"></path><path d="M390,527v-3.15h.72l.08.59a1.47,1.47,0,0,1,.47-.49,1.33,1.33,0,0,1,.7-.18v.86h-.23a1.16,1.16,0,0,0-.47.08.62.62,0,0,0-.33.29,1.11,1.11,0,0,0-.11.57V527H390Z" transform="translate(-177.08 -445.29)"></path><path d="M393,523.35a.57.57,0,0,1-.37-.13.42.42,0,0,1-.14-.34.42.42,0,0,1,.14-.33.59.59,0,0,1,.74,0,.45.45,0,0,1,.14.33.46.46,0,0,1-.14.34A.57.57,0,0,1,393,523.35Zm-.4,3.64v-3.15h.81V527Z" transform="translate(-177.08 -445.29)"></path><path d="M395.09,527l-1.16-3.15h.85l.81,2.38.81-2.38h.85L396.08,527Z" transform="translate(-177.08 -445.29)"></path><path d="M399.14,527.07a1.84,1.84,0,0,1-.85-.2,1.51,1.51,0,0,1-.58-.57,1.67,1.67,0,0,1-.21-.85,1.81,1.81,0,0,1,.21-.87,1.57,1.57,0,0,1,.57-.6,1.75,1.75,0,0,1,.87-.21,1.73,1.73,0,0,1,.83.2,1.58,1.58,0,0,1,.56.56,1.63,1.63,0,0,1,.2.79v.15a.92.92,0,0,1,0,.16h-2.4a.82.82,0,0,0,.25.58.79.79,0,0,0,.56.21.7.7,0,0,0,.42-.12.61.61,0,0,0,.26-.29h.83a1.56,1.56,0,0,1-.3.55,1.39,1.39,0,0,1-.51.38,1.51,1.51,0,0,1-.68.14Zm0-2.64a.85.85,0,0,0-.52.16.75.75,0,0,0-.29.52h1.57a.68.68,0,0,0-.23-.5A.79.79,0,0,0,399.14,524.43Z" transform="translate(-177.08 -445.29)"></path><path d="M402.94,528.4v-4.56h.73l.08.45a1.44,1.44,0,0,1,.41-.36,1.14,1.14,0,0,1,.65-.16,1.44,1.44,0,0,1,.8.22,1.49,1.49,0,0,1,.55.59,1.65,1.65,0,0,1,.21.85,1.67,1.67,0,0,1-.21.85,1.49,1.49,0,0,1-.55.59,1.52,1.52,0,0,1-.8.21,1.38,1.38,0,0,1-.62-.13,1.21,1.21,0,0,1-.43-.38v1.83h-.82Zm1.7-2a.84.84,0,0,0,.64-.26.91.91,0,0,0,.25-.67,1,1,0,0,0-.25-.69.88.88,0,0,0-.64-.26.91.91,0,0,0-.65.26,1,1,0,0,0-.25.68.91.91,0,0,0,.25.67.86.86,0,0,0,.65.27Z" transform="translate(-177.08 -445.29)"></path><path d="M408.18,527.07a1.41,1.41,0,0,1-.66-.13.84.84,0,0,1-.39-.35,1,1,0,0,1-.13-.47.85.85,0,0,1,.34-.71,1.58,1.58,0,0,1,1-.27h.81v-.08a.59.59,0,0,0-.18-.48.77.77,0,0,0-.46-.15.75.75,0,0,0-.43.12.51.51,0,0,0-.23.35h-.79a1,1,0,0,1,.23-.6,1.58,1.58,0,0,1,.52-.39,1.8,1.8,0,0,1,.71-.14,1.52,1.52,0,0,1,1.06.34,1.23,1.23,0,0,1,.39,1V527h-.7l-.08-.51a1,1,0,0,1-.39.42,1.13,1.13,0,0,1-.65.17Zm.19-.64a.71.71,0,0,0,.54-.22,1.09,1.09,0,0,0,.24-.57h-.69a.69.69,0,0,0-.46.11.34.34,0,0,0-.14.29.33.33,0,0,0,.14.29A.6.6,0,0,0,408.37,526.43Z" transform="translate(-177.08 -445.29)"></path><path d="M410.77,527v-3.15h.73l.07.59A1.57,1.57,0,0,1,412,524a1.33,1.33,0,0,1,.7-.18v.86h-.23a1.19,1.19,0,0,0-.47.08.62.62,0,0,0-.33.29,1.22,1.22,0,0,0-.11.57V527h-.83Z" transform="translate(-177.08 -445.29)"></path><path d="M414.7,527a1.23,1.23,0,0,1-.8-.24,1.07,1.07,0,0,1-.3-.86v-1.38h-.54v-.68h.54l.1-.85h.72v.85h.85v.68h-.85v1.39a.43.43,0,0,0,.09.31.51.51,0,0,0,.34.09h.4V527Z" transform="translate(-177.08 -445.29)"></path><path d="M416,527v-3.15h.71l.07.53a1,1,0,0,1,.42-.44,1.33,1.33,0,0,1,1.57.2,1.55,1.55,0,0,1,.32,1.08V527h-.81V525.3a1,1,0,0,0-.17-.62.63.63,0,0,0-.52-.22.68.68,0,0,0-.56.25.92.92,0,0,0-.22.67V527H416Z" transform="translate(-177.08 -445.29)"></path><path d="M421.39,527.07a1.85,1.85,0,0,1-.86-.2,1.49,1.49,0,0,1-.57-.57,1.67,1.67,0,0,1-.21-.85,1.81,1.81,0,0,1,.21-.87,1.5,1.5,0,0,1,.57-.6,1.69,1.69,0,0,1,.86-.21,1.73,1.73,0,0,1,.83.2,1.5,1.5,0,0,1,.56.56,1.63,1.63,0,0,1,.2.79v.15a.92.92,0,0,1,0,.16h-2.4a.91.91,0,0,0,.25.58.82.82,0,0,0,.57.21.74.74,0,0,0,.42-.12.65.65,0,0,0,.25-.29h.83a1.54,1.54,0,0,1-.29.55,1.48,1.48,0,0,1-.51.38,1.52,1.52,0,0,1-.69.14Zm0-2.64a.86.86,0,0,0-.53.16.79.79,0,0,0-.29.52h1.57a.68.68,0,0,0-.23-.5A.77.77,0,0,0,421.39,524.43Z" transform="translate(-177.08 -445.29)"></path><path d="M423.66,527v-3.15h.72l.08.59a1.47,1.47,0,0,1,.47-.49,1.33,1.33,0,0,1,.7-.18v.86h-.23a1.19,1.19,0,0,0-.47.08.62.62,0,0,0-.33.29,1.11,1.11,0,0,0-.11.57V527h-.83Z" transform="translate(-177.08 -445.29)"></path><path d="M425.92,527.74l.36-1.59h.79l-.63,1.59h-.52Zm.76-3a.49.49,0,0,1-.37-.14.45.45,0,0,1-.14-.33.48.48,0,0,1,.14-.34.56.56,0,0,1,.74,0,.45.45,0,0,1,.14.34.4.4,0,0,1-.14.33A.49.49,0,0,1,426.68,524.72Z" transform="translate(-177.08 -445.29)"></path><path d="M429.39,527v-4.58h.82v1.91a1.06,1.06,0,0,1,.43-.41,1.24,1.24,0,0,1,.62-.15,1.14,1.14,0,0,1,.91.37,1.6,1.6,0,0,1,.32,1.08V527h-.8V525.3a1.07,1.07,0,0,0-.16-.62.59.59,0,0,0-.51-.22.72.72,0,0,0-.57.25.92.92,0,0,0-.23.67V527h-.83Z" transform="translate(-177.08 -445.29)"></path><path d="M433.7,523.35a.53.53,0,0,1-.36-.13.42.42,0,0,1-.14-.34.42.42,0,0,1,.14-.33.48.48,0,0,1,.36-.13.51.51,0,0,1,.37.13.42.42,0,0,1,.14.33.42.42,0,0,1-.14.34A.55.55,0,0,1,433.7,523.35Zm-.4,3.64v-3.15h.82V527Z" transform="translate(-177.08 -445.29)"></path><path d="M436.31,526.06a1.49,1.49,0,0,1-.43-.06l-.24.24a1.21,1.21,0,0,0,.29.1l.6.08a1.72,1.72,0,0,1,.92.29.84.84,0,0,1,.29.67,1.12,1.12,0,0,1-.15.53,1,1,0,0,1-.48.41,1.88,1.88,0,0,1-.81.16,2,2,0,0,1-1.09-.26.82.82,0,0,1-.41-.75.92.92,0,0,1,.41-.74.91.91,0,0,1-.22-.12l-.16-.13v-.15l.55-.59a1,1,0,0,1-.37-.83,1.08,1.08,0,0,1,.16-.58,1,1,0,0,1,.44-.41,1.35,1.35,0,0,1,.69-.15,1.69,1.69,0,0,1,.5.08H438v.5l-.54,0a1.2,1.2,0,0,1,.13.54,1.17,1.17,0,0,1-.15.58,1.24,1.24,0,0,1-.44.41,1.45,1.45,0,0,1-.68.15Zm-.77,1.33a.38.38,0,0,0,.22.35,1.13,1.13,0,0,0,.54.11.93.93,0,0,0,.5-.12.39.39,0,0,0,.07-.62.84.84,0,0,0-.49-.14c-.18,0-.34,0-.48-.06a.78.78,0,0,0-.27.22.43.43,0,0,0-.08.24Zm.77-2a.63.63,0,0,0,.41-.13.5.5,0,0,0,.16-.38.52.52,0,0,0-.16-.39.63.63,0,0,0-.41-.13.6.6,0,0,0-.42.13.47.47,0,0,0-.16.39.46.46,0,0,0,.16.38A.56.56,0,0,0,436.31,525.43Z" transform="translate(-177.08 -445.29)"></path><path d="M438.6,527v-4.58h.81v1.91a1.2,1.2,0,0,1,.43-.41,1.29,1.29,0,0,1,.62-.15,1.15,1.15,0,0,1,.92.37,1.6,1.6,0,0,1,.32,1.08V527h-.81V525.3a1.07,1.07,0,0,0-.15-.62.6.6,0,0,0-.51-.22.72.72,0,0,0-.57.25.92.92,0,0,0-.23.67V527h-.83Z" transform="translate(-177.08 -445.29)"></path><path d="M442.46,527v-4.58h.82V527Z" transform="translate(-177.08 -445.29)"></path><path d="M444.51,528.4l.74-1.62h-.19l-1.23-2.94h.89l.88,2.22.92-2.22h.87l-2,4.56Z" transform="translate(-177.08 -445.29)"></path><path d="M451,527.07a1.78,1.78,0,0,1-.85-.2,1.45,1.45,0,0,1-.58-.57,1.67,1.67,0,0,1-.21-.85,1.81,1.81,0,0,1,.21-.87,1.5,1.5,0,0,1,.57-.6,1.69,1.69,0,0,1,.86-.21,1.73,1.73,0,0,1,.83.2,1.5,1.5,0,0,1,.56.56,1.63,1.63,0,0,1,.2.79v.15a.92.92,0,0,1,0,.16h-2.4a.91.91,0,0,0,.25.58.82.82,0,0,0,.57.21.74.74,0,0,0,.42-.12.65.65,0,0,0,.25-.29h.83a1.54,1.54,0,0,1-.29.55,1.48,1.48,0,0,1-.51.38,1.52,1.52,0,0,1-.69.14Zm0-2.64a.86.86,0,0,0-.53.16.79.79,0,0,0-.29.52h1.57a.68.68,0,0,0-.23-.5A.77.77,0,0,0,451,524.43Z" transform="translate(-177.08 -445.29)"></path><path d="M453.25,527v-3.15H454l.06.53a1,1,0,0,1,.42-.44,1.16,1.16,0,0,1,.66-.17,1.14,1.14,0,0,1,.91.37,1.55,1.55,0,0,1,.32,1.08V527h-.81V525.3a1,1,0,0,0-.17-.62.62.62,0,0,0-.52-.22.69.69,0,0,0-.56.25.92.92,0,0,0-.22.67V527h-.81Z" transform="translate(-177.08 -445.29)"></path><path d="M458.46,526.06A1.54,1.54,0,0,1,458,526l-.23.24a1.07,1.07,0,0,0,.29.1l.59.08a1.69,1.69,0,0,1,.92.29.81.81,0,0,1,.29.67,1,1,0,0,1-.15.53,1,1,0,0,1-.47.41,1.9,1.9,0,0,1-.82.16,2,2,0,0,1-1.08-.26.82.82,0,0,1-.41-.75.92.92,0,0,1,.41-.74.91.91,0,0,1-.22-.12l-.17-.13v-.15l.55-.59a1.07,1.07,0,0,1-.36-.83,1.17,1.17,0,0,1,.15-.58,1.08,1.08,0,0,1,.44-.41,1.35,1.35,0,0,1,.69-.15,1.59,1.59,0,0,1,.5.08h1.21v.5l-.55,0a1.08,1.08,0,0,1,.13.54,1.17,1.17,0,0,1-.15.58,1.13,1.13,0,0,1-.43.41,1.52,1.52,0,0,1-.69.15Zm-.76,1.33a.37.37,0,0,0,.22.35,1.09,1.09,0,0,0,.53.11.93.93,0,0,0,.5-.12.38.38,0,0,0,.2-.33.39.39,0,0,0-.13-.29.79.79,0,0,0-.49-.14c-.17,0-.33,0-.48-.06a.73.73,0,0,0-.26.22.43.43,0,0,0-.08.24Zm.76-2a.66.66,0,0,0,.42-.13.49.49,0,0,0,.15-.38.51.51,0,0,0-.15-.39.74.74,0,0,0-.84,0,.5.5,0,0,0-.16.39.5.5,0,0,0,.16.38A.59.59,0,0,0,458.46,525.43Z" transform="translate(-177.08 -445.29)"></path><path d="M461.84,527.07a1.48,1.48,0,0,1-.67-.13.87.87,0,0,1-.38-.35,1,1,0,0,1-.13-.47.85.85,0,0,1,.34-.71,1.57,1.57,0,0,1,1-.27h.81v-.08a.57.57,0,0,0-.19-.48.74.74,0,0,0-.45-.15.75.75,0,0,0-.43.12.51.51,0,0,0-.23.35h-.8a1.07,1.07,0,0,1,.24-.6,1.58,1.58,0,0,1,.52-.39,1.76,1.76,0,0,1,.71-.14,1.55,1.55,0,0,1,1.06.34,1.23,1.23,0,0,1,.38,1V527H463l-.08-.51a1.11,1.11,0,0,1-1,.59Zm.18-.64a.73.73,0,0,0,.55-.22,1.09,1.09,0,0,0,.24-.57h-.69a.74.74,0,0,0-.47.11.37.37,0,0,0-.14.29.36.36,0,0,0,.14.29A.62.62,0,0,0,462,526.43Z" transform="translate(-177.08 -445.29)"></path><path d="M465.76,526.06a1.49,1.49,0,0,1-.43-.06l-.24.24a1.21,1.21,0,0,0,.29.1l.6.08a1.72,1.72,0,0,1,.92.29.84.84,0,0,1,.29.67,1.12,1.12,0,0,1-.15.53,1,1,0,0,1-.48.41,1.88,1.88,0,0,1-.81.16,2,2,0,0,1-1.09-.26.82.82,0,0,1-.41-.75.92.92,0,0,1,.41-.74.91.91,0,0,1-.22-.12l-.16-.13v-.15l.55-.59a1,1,0,0,1-.37-.83,1.08,1.08,0,0,1,.16-.58,1,1,0,0,1,.44-.41,1.35,1.35,0,0,1,.69-.15,1.69,1.69,0,0,1,.5.08h1.2v.5l-.54,0a1.2,1.2,0,0,1,.13.54,1.17,1.17,0,0,1-.15.58,1.24,1.24,0,0,1-.44.41,1.45,1.45,0,0,1-.68.15Zm-.76,1.33a.37.37,0,0,0,.21.35,1.13,1.13,0,0,0,.54.11.93.93,0,0,0,.5-.12.39.39,0,0,0,.07-.62.84.84,0,0,0-.49-.14c-.18,0-.34,0-.48-.06a.78.78,0,0,0-.27.22.43.43,0,0,0-.08.24Zm.76-2a.63.63,0,0,0,.41-.13.46.46,0,0,0,.16-.38.48.48,0,0,0-.16-.39.63.63,0,0,0-.41-.13.6.6,0,0,0-.42.13.47.47,0,0,0-.16.39.46.46,0,0,0,.16.38A.56.56,0,0,0,465.76,525.43Z" transform="translate(-177.08 -445.29)"></path><path d="M469.46,527.07a1.78,1.78,0,0,1-.85-.2,1.45,1.45,0,0,1-.58-.57,1.67,1.67,0,0,1-.21-.85,1.81,1.81,0,0,1,.21-.87,1.5,1.5,0,0,1,.57-.6,1.84,1.84,0,0,1,1.69,0,1.5,1.5,0,0,1,.56.56,1.63,1.63,0,0,1,.2.79v.15a.92.92,0,0,1,0,.16h-2.4a.87.87,0,0,0,.26.58.79.79,0,0,0,.56.21.74.74,0,0,0,.42-.12.65.65,0,0,0,.25-.29H471a1.74,1.74,0,0,1-.3.55,1.48,1.48,0,0,1-.51.38,1.51,1.51,0,0,1-.68.14Zm0-2.64a.88.88,0,0,0-.53.16.79.79,0,0,0-.29.52h1.57a.68.68,0,0,0-.23-.5A.77.77,0,0,0,469.46,524.43Z" transform="translate(-177.08 -445.29)"></path><path d="M473.18,527.07a1.43,1.43,0,0,1-.79-.22,1.59,1.59,0,0,1-.56-.59,1.87,1.87,0,0,1-.2-.85,1.78,1.78,0,0,1,.2-.85,1.59,1.59,0,0,1,.56-.59,1.51,1.51,0,0,1,.79-.21,1.39,1.39,0,0,1,.63.13,1.12,1.12,0,0,1,.43.38v-1.86h.81V527h-.73l-.08-.45a1.64,1.64,0,0,1-.41.37,1.23,1.23,0,0,1-.65.15Zm.18-.71a.85.85,0,0,0,.65-.26,1,1,0,0,0,0-1.35.89.89,0,0,0-.65-.26.87.87,0,0,0-.64.26.94.94,0,0,0-.26.68,1,1,0,0,0,.26.68.88.88,0,0,0,.64.27Z" transform="translate(-177.08 -445.29)"></path><path d="M477.84,523.35a.57.57,0,0,1-.37-.13.42.42,0,0,1-.14-.34.42.42,0,0,1,.14-.33.59.59,0,0,1,.74,0,.45.45,0,0,1,.14.33.46.46,0,0,1-.14.34A.57.57,0,0,1,477.84,523.35Zm-.4,3.64v-3.15h.81V527Z" transform="translate(-177.08 -445.29)"></path><path d="M479.1,527v-3.15h.72l.06.53a1.18,1.18,0,0,1,.42-.44,1.2,1.2,0,0,1,.66-.17,1.13,1.13,0,0,1,.91.37,1.55,1.55,0,0,1,.33,1.08V527h-.82V525.3a.94.94,0,0,0-.17-.62.61.61,0,0,0-.51-.22.68.68,0,0,0-.56.25.92.92,0,0,0-.22.67V527h-.82Z" transform="translate(-177.08 -445.29)"></path><path d="M292.71,534.64a1.17,1.17,0,0,1-.79-.24,1,1,0,0,1-.3-.86v-1.38h-.55v-.68h.55l.09-.85h.72v.85h.85v.68h-.85v1.39a.42.42,0,0,0,.1.31.45.45,0,0,0,.34.09h.4v.69Z" transform="translate(-177.08 -445.29)"></path><path d="M294,534.64v-4.58h.82V532a1.13,1.13,0,0,1,.43-.41,1.24,1.24,0,0,1,.62-.15,1.13,1.13,0,0,1,.91.37,1.61,1.61,0,0,1,.33,1.09v1.77h-.81v-1.7a1,1,0,0,0-.16-.63.58.58,0,0,0-.51-.22.74.74,0,0,0-.57.25,1,1,0,0,0-.22.67v1.63H294Z" transform="translate(-177.08 -445.29)"></path><path d="M299.4,534.71a1.84,1.84,0,0,1-.85-.2,1.44,1.44,0,0,1-.58-.57,1.67,1.67,0,0,1-.21-.85,1.83,1.83,0,0,1,.21-.87,1.57,1.57,0,0,1,.57-.6,1.75,1.75,0,0,1,.87-.21,1.73,1.73,0,0,1,.83.2,1.67,1.67,0,0,1,.56.56,1.52,1.52,0,0,1,.2.79v.15a.86.86,0,0,1,0,.16h-2.4a.86.86,0,0,0,.25.58.81.81,0,0,0,.56.21.7.7,0,0,0,.42-.12.66.66,0,0,0,.26-.29h.83a1.48,1.48,0,0,1-.81.93,1.51,1.51,0,0,1-.68.14Zm0-2.64a.85.85,0,0,0-.52.16.77.77,0,0,0-.29.51h1.57a.69.69,0,0,0-.23-.5.79.79,0,0,0-.53-.18Z" transform="translate(-177.08 -445.29)"></path><path d="M303.19,534.64v-3.15h.72l.07.43a1.29,1.29,0,0,1,.4-.37,1.12,1.12,0,0,1,.59-.14,1.06,1.06,0,0,1,1,.57,1.33,1.33,0,0,1,.47-.41,1.22,1.22,0,0,1,.63-.15,1.2,1.2,0,0,1,.95.37,1.55,1.55,0,0,1,.33,1.08v1.78h-.81v-1.71a1.07,1.07,0,0,0-.16-.62.55.55,0,0,0-.48-.22.66.66,0,0,0-.54.25,1,1,0,0,0-.2.67v1.63h-.82v-1.71a1.07,1.07,0,0,0-.15-.62.58.58,0,0,0-.5-.22.63.63,0,0,0-.52.25,1,1,0,0,0-.2.67v1.63h-.81Z" transform="translate(-177.08 -445.29)"></path><path d="M310.25,534.71a1.48,1.48,0,0,1-.67-.13.81.81,0,0,1-.38-.35.88.88,0,0,1,.21-1.18,1.63,1.63,0,0,1,1-.27h.81v-.08a.53.53,0,0,0-.19-.47.68.68,0,0,0-.45-.15.75.75,0,0,0-.43.11.51.51,0,0,0-.23.35h-.8a1,1,0,0,1,.24-.59,1.39,1.39,0,0,1,.52-.4,1.76,1.76,0,0,1,.71-.14,1.6,1.6,0,0,1,1.06.33,1.24,1.24,0,0,1,.38,1v1.94h-.69l-.08-.5a1.29,1.29,0,0,1-.39.42,1.21,1.21,0,0,1-.65.16Zm.18-.63a.7.7,0,0,0,.55-.23,1.06,1.06,0,0,0,.24-.57h-.69a.74.74,0,0,0-.47.11.38.38,0,0,0-.14.29.36.36,0,0,0,.14.29A.62.62,0,0,0,310.43,534.08Z" transform="translate(-177.08 -445.29)"></path><path d="M312.83,534.64v-3.15h.73l.08.6a1.3,1.3,0,0,1,.47-.49,1.25,1.25,0,0,1,.7-.19v.86h-.23a1.36,1.36,0,0,0-.47.08.62.62,0,0,0-.33.29,1.13,1.13,0,0,0-.11.57v1.43h-.84Z" transform="translate(-177.08 -445.29)"></path><path d="M315.36,534.64v-4.58h.82v2.71l1.12-1.28h1L317,532.93l1.5,1.71h-1l-1.28-1.58v1.58Z" transform="translate(-177.08 -445.29)"></path><path d="M320.25,534.71a1.84,1.84,0,0,1-.85-.2,1.44,1.44,0,0,1-.58-.57,1.67,1.67,0,0,1-.21-.85,1.83,1.83,0,0,1,.21-.87,1.57,1.57,0,0,1,.57-.6,1.75,1.75,0,0,1,.87-.21,1.73,1.73,0,0,1,.83.2,1.67,1.67,0,0,1,.56.56,1.52,1.52,0,0,1,.2.79v.15a.86.86,0,0,1,0,.16h-2.4a.82.82,0,0,0,.25.58.81.81,0,0,0,.56.21.7.7,0,0,0,.42-.12.66.66,0,0,0,.26-.29h.83a1.48,1.48,0,0,1-.81.93,1.51,1.51,0,0,1-.68.14Zm0-2.64a.85.85,0,0,0-.52.16.77.77,0,0,0-.29.51H321a.69.69,0,0,0-.23-.5.79.79,0,0,0-.53-.18Z" transform="translate(-177.08 -445.29)"></path><path d="M323.88,534.64a1.21,1.21,0,0,1-.8-.24,1.05,1.05,0,0,1-.29-.86v-1.38h-.55v-.68h.55l.09-.85h.72v.85h.85v.68h-.85v1.39a.42.42,0,0,0,.1.31.45.45,0,0,0,.34.09h.39v.69Z" transform="translate(-177.08 -445.29)"></path><path d="M325.15,536v-4.56h.73l.09.46a1.42,1.42,0,0,1,.4-.37,1.2,1.2,0,0,1,.66-.16,1.46,1.46,0,0,1,.8.22,1.52,1.52,0,0,1,.55.6,1.81,1.81,0,0,1,.2.85,1.84,1.84,0,0,1-.2.85,1.61,1.61,0,0,1-.55.58,1.52,1.52,0,0,1-.8.21,1.32,1.32,0,0,1-.62-.13,1,1,0,0,1-.43-.37v1.83h-.83Zm1.7-2a.82.82,0,0,0,.64-.27.92.92,0,0,0,.26-.67,1,1,0,0,0-.26-.68.88.88,0,0,0-1.28,0,.92.92,0,0,0-.26.67,1,1,0,0,0,.26.68.85.85,0,0,0,.64.26Z" transform="translate(-177.08 -445.29)"></path><path d="M329.31,534.64v-4.58h.81v4.58Z" transform="translate(-177.08 -445.29)"></path><path d="M332,534.71a1.41,1.41,0,0,1-.66-.13.79.79,0,0,1-.39-.35.91.91,0,0,1,.21-1.18,1.66,1.66,0,0,1,1-.27h.8v-.08a.56.56,0,0,0-.18-.47.69.69,0,0,0-.46-.15.79.79,0,0,0-.43.11.47.47,0,0,0-.22.35H331a1,1,0,0,1,.24-.59,1.36,1.36,0,0,1,.51-.4,1.8,1.8,0,0,1,.71-.14,1.56,1.56,0,0,1,1.06.33,1.21,1.21,0,0,1,.39,1v1.94h-.69l-.08-.5a1.33,1.33,0,0,1-.4.42,1.16,1.16,0,0,1-.65.16Zm.19-.63a.67.67,0,0,0,.54-.23,1.15,1.15,0,0,0,.25-.57h-.7a.73.73,0,0,0-.46.11.35.35,0,0,0-.14.29.33.33,0,0,0,.14.29A.62.62,0,0,0,332.23,534.08Z" transform="translate(-177.08 -445.29)"></path><path d="M336.18,534.71a1.7,1.7,0,0,1-.85-.21,1.64,1.64,0,0,1-.59-.58,1.77,1.77,0,0,1-.21-.86,1.71,1.71,0,0,1,.21-.86,1.59,1.59,0,0,1,.59-.59,1.73,1.73,0,0,1,.85-.21,1.61,1.61,0,0,1,1,.32,1.41,1.41,0,0,1,.53.87h-.86a.64.64,0,0,0-.26-.36.72.72,0,0,0-.44-.14.75.75,0,0,0-.57.26,1,1,0,0,0-.23.71,1,1,0,0,0,.23.71.81.81,0,0,0,1,.13.72.72,0,0,0,.26-.37h.86a1.49,1.49,0,0,1-.53.86A1.58,1.58,0,0,1,336.18,534.71Z" transform="translate(-177.08 -445.29)"></path><path d="M340,534.71a1.78,1.78,0,0,1-.85-.2,1.39,1.39,0,0,1-.58-.57,1.67,1.67,0,0,1-.21-.85,1.83,1.83,0,0,1,.21-.87,1.5,1.5,0,0,1,.57-.6,1.84,1.84,0,0,1,1.69,0,1.58,1.58,0,0,1,.56.56,1.52,1.52,0,0,1,.2.79v.15a.86.86,0,0,1,0,.16h-2.4a.87.87,0,0,0,.26.58.79.79,0,0,0,.56.21.74.74,0,0,0,.42-.12.71.71,0,0,0,.25-.29h.83a1.39,1.39,0,0,1-.29.55,1.48,1.48,0,0,1-.51.38,1.52,1.52,0,0,1-.69.14Zm0-2.64a.86.86,0,0,0-.53.16.82.82,0,0,0-.29.51h1.57a.69.69,0,0,0-.23-.5.77.77,0,0,0-.52-.18Z" transform="translate(-177.08 -445.29)"></path><path d="M344.87,534.71a1.48,1.48,0,0,1-.67-.13.81.81,0,0,1-.38-.35.91.91,0,0,1,.21-1.18,1.65,1.65,0,0,1,1-.27h.81v-.08a.56.56,0,0,0-.18-.47.73.73,0,0,0-.46-.15.75.75,0,0,0-.43.11.51.51,0,0,0-.23.35h-.79A.94.94,0,0,1,344,532a1.39,1.39,0,0,1,.52-.4,1.8,1.8,0,0,1,.71-.14,1.56,1.56,0,0,1,1.06.33,1.25,1.25,0,0,1,.39,1v1.94H346l-.08-.5a1.19,1.19,0,0,1-.39.42,1.21,1.21,0,0,1-.65.16Zm.19-.63a.68.68,0,0,0,.54-.23,1.06,1.06,0,0,0,.24-.57h-.69a.69.69,0,0,0-.46.11.35.35,0,0,0-.14.29.33.33,0,0,0,.14.29A.6.6,0,0,0,345.06,534.08Z" transform="translate(-177.08 -445.29)"></path><path d="M347.46,534.64v-3.15h.72l.06.53a1,1,0,0,1,.42-.44,1.16,1.16,0,0,1,.66-.17,1.14,1.14,0,0,1,.91.37,1.56,1.56,0,0,1,.32,1.09v1.77h-.81v-1.7a1,1,0,0,0-.17-.63.59.59,0,0,0-.52-.22.69.69,0,0,0-.56.25,1,1,0,0,0-.22.67v1.63Z" transform="translate(-177.08 -445.29)"></path><path d="M352.79,534.71a1.54,1.54,0,0,1-.8-.21,1.51,1.51,0,0,1-.55-.6,1.72,1.72,0,0,1-.2-.85,1.78,1.78,0,0,1,.2-.85,1.49,1.49,0,0,1,.55-.59,1.52,1.52,0,0,1,.8-.21,1.46,1.46,0,0,1,.62.13,1.06,1.06,0,0,1,.43.38v-1.86h.82v4.59h-.73l-.09-.46a1.59,1.59,0,0,1-.4.37,1.29,1.29,0,0,1-.66.16ZM353,534a.82.82,0,0,0,.65-.26.92.92,0,0,0,.26-.67,1,1,0,0,0-.26-.68.93.93,0,0,0-1.29,0,1,1,0,0,0,0,1.36.84.84,0,0,0,.64.26Z" transform="translate(-177.08 -445.29)"></path><path d="M358.09,534.71a1.41,1.41,0,0,1-.66-.13.79.79,0,0,1-.39-.35.91.91,0,0,1,.21-1.18,1.66,1.66,0,0,1,1-.27h.8v-.08a.56.56,0,0,0-.18-.47.69.69,0,0,0-.46-.15.79.79,0,0,0-.43.11.51.51,0,0,0-.23.35H357a.94.94,0,0,1,.23-.59,1.39,1.39,0,0,1,.52-.4,1.8,1.8,0,0,1,.71-.14,1.56,1.56,0,0,1,1.06.33,1.21,1.21,0,0,1,.39,1v1.94h-.7l-.07-.5a1.33,1.33,0,0,1-.4.42,1.16,1.16,0,0,1-.65.16Zm.19-.63a.68.68,0,0,0,.54-.23,1.15,1.15,0,0,0,.25-.57h-.7a.71.71,0,0,0-.46.11.35.35,0,0,0-.14.29.33.33,0,0,0,.14.29A.62.62,0,0,0,358.28,534.08Z" transform="translate(-177.08 -445.29)"></path><path d="M362.23,534.71a1.7,1.7,0,0,1-.85-.21,1.64,1.64,0,0,1-.59-.58,1.77,1.77,0,0,1-.21-.86,1.71,1.71,0,0,1,.21-.86,1.52,1.52,0,0,1,.59-.59,1.73,1.73,0,0,1,.85-.21,1.63,1.63,0,0,1,1,.32,1.4,1.4,0,0,1,.52.87h-.86a.58.58,0,0,0-.25-.36.72.72,0,0,0-.44-.14.73.73,0,0,0-.57.26,1,1,0,0,0-.23.71,1,1,0,0,0,.23.71.81.81,0,0,0,1,.13.65.65,0,0,0,.25-.37h.86a1.43,1.43,0,0,1-.52.86A1.59,1.59,0,0,1,362.23,534.71Z" transform="translate(-177.08 -445.29)"></path><path d="M365.87,534.64a1.19,1.19,0,0,1-.8-.24,1.05,1.05,0,0,1-.3-.86v-1.38h-.54v-.68h.54l.1-.85h.72v.85h.85v.68h-.85v1.39a.39.39,0,0,0,.1.31.45.45,0,0,0,.34.09h.39v.69Z" transform="translate(-177.08 -445.29)"></path><path d="M367.59,531a.52.52,0,0,1-.37-.13.48.48,0,0,1,0-.68.59.59,0,0,1,.74,0,.48.48,0,0,1,.14.34.49.49,0,0,1-.14.34A.52.52,0,0,1,367.59,531Zm-.41,3.65v-3.16H368v3.16Z" transform="translate(-177.08 -445.29)"></path><path d="M369.7,534.64l-1.16-3.15h.85l.81,2.39.81-2.39h.85l-1.17,3.15Z" transform="translate(-177.08 -445.29)"></path><path d="M373.75,534.71a1.84,1.84,0,0,1-.85-.2,1.44,1.44,0,0,1-.58-.57,1.67,1.67,0,0,1-.21-.85,1.83,1.83,0,0,1,.21-.87,1.57,1.57,0,0,1,.57-.6,1.75,1.75,0,0,1,.87-.21,1.66,1.66,0,0,1,.82.2,1.61,1.61,0,0,1,.57.56,1.52,1.52,0,0,1,.2.79v.15a.86.86,0,0,1,0,.16h-2.4a.82.82,0,0,0,.25.58.81.81,0,0,0,.56.21.7.7,0,0,0,.42-.12.66.66,0,0,0,.26-.29h.83a1.41,1.41,0,0,1-.3.55,1.48,1.48,0,0,1-.51.38,1.51,1.51,0,0,1-.68.14Zm0-2.64a.83.83,0,0,0-.52.16.77.77,0,0,0-.29.51h1.57a.69.69,0,0,0-.23-.5.79.79,0,0,0-.53-.18Z" transform="translate(-177.08 -445.29)"></path><path d="M376,534.64v-4.58h.82v4.58Z" transform="translate(-177.08 -445.29)"></path><path d="M378.07,536l.74-1.61h-.19l-1.23-3h.89l.88,2.23.92-2.23H381l-2,4.56h-.87Z" transform="translate(-177.08 -445.29)"></path><path d="M384.3,534.71a1.72,1.72,0,0,1-.74-.14,1.2,1.2,0,0,1-.51-.37,1,1,0,0,1-.22-.56h.82a.58.58,0,0,0,.21.31.66.66,0,0,0,.44.13.59.59,0,0,0,.39-.1.34.34,0,0,0,.13-.25.3.3,0,0,0-.18-.28,3.27,3.27,0,0,0-.5-.14c-.13,0-.27-.07-.41-.1a3.52,3.52,0,0,1-.39-.16,1,1,0,0,1-.28-.25.71.71,0,0,1-.1-.39.91.91,0,0,1,.33-.71,1.66,1.66,0,0,1,1.83,0,1.09,1.09,0,0,1,.4.72h-.77c-.05-.23-.22-.35-.53-.35a.58.58,0,0,0-.35.09.26.26,0,0,0-.12.22.25.25,0,0,0,.18.22,3.7,3.7,0,0,0,.49.15c.22,0,.42.1.61.16a.88.88,0,0,1,.43.28.69.69,0,0,1,.17.51.91.91,0,0,1-.15.53,1,1,0,0,1-.45.37,1.91,1.91,0,0,1-.71.13Z" transform="translate(-177.08 -445.29)"></path><path d="M387.88,534.71a1.78,1.78,0,0,1-.85-.2,1.39,1.39,0,0,1-.58-.57,1.67,1.67,0,0,1-.21-.85,1.83,1.83,0,0,1,.21-.87,1.5,1.5,0,0,1,.57-.6,1.69,1.69,0,0,1,.86-.21,1.73,1.73,0,0,1,.83.2,1.58,1.58,0,0,1,.56.56,1.52,1.52,0,0,1,.2.79v.15a.86.86,0,0,1,0,.16h-2.4a.91.91,0,0,0,.25.58.84.84,0,0,0,.57.21.74.74,0,0,0,.42-.12.71.71,0,0,0,.25-.29h.83a1.39,1.39,0,0,1-.29.55,1.48,1.48,0,0,1-.51.38,1.52,1.52,0,0,1-.69.14Zm0-2.64a.86.86,0,0,0-.53.16.82.82,0,0,0-.29.51h1.57a.69.69,0,0,0-.23-.5.77.77,0,0,0-.52-.18Z" transform="translate(-177.08 -445.29)"></path><path d="M391.69,534.71a1.78,1.78,0,0,1-.85-.2,1.39,1.39,0,0,1-.58-.57,1.67,1.67,0,0,1-.21-.85,1.83,1.83,0,0,1,.21-.87,1.5,1.5,0,0,1,.57-.6,1.75,1.75,0,0,1,.87-.21,1.66,1.66,0,0,1,.82.2,1.58,1.58,0,0,1,.56.56,1.53,1.53,0,0,1,.21.79v.15a.86.86,0,0,1,0,.16h-2.41a.87.87,0,0,0,.26.58.81.81,0,0,0,.56.21.7.7,0,0,0,.42-.12.71.71,0,0,0,.25-.29h.84a1.41,1.41,0,0,1-.3.55,1.48,1.48,0,0,1-.51.38,1.51,1.51,0,0,1-.68.14Zm0-2.64a.88.88,0,0,0-.53.16.82.82,0,0,0-.29.51h1.57a.65.65,0,0,0-.22-.5.79.79,0,0,0-.53-.18Z" transform="translate(-177.08 -445.29)"></path><path d="M394,534.64v-4.58h.82v2.71l1.12-1.28h1l-1.29,1.44,1.5,1.71h-1l-1.28-1.58v1.58Z" transform="translate(-177.08 -445.29)"></path><path d="M398,531a.52.52,0,0,1-.37-.13.48.48,0,0,1,0-.68.59.59,0,0,1,.74,0,.48.48,0,0,1,.14.34.49.49,0,0,1-.14.34A.52.52,0,0,1,398,531Zm-.4,3.65v-3.16h.81v3.16Z" transform="translate(-177.08 -445.29)"></path><path d="M399.28,534.64v-3.15H400l.06.53a1.18,1.18,0,0,1,.42-.44,1.2,1.2,0,0,1,.66-.17,1.13,1.13,0,0,1,.91.37,1.56,1.56,0,0,1,.33,1.09v1.77h-.82v-1.7a1,1,0,0,0-.16-.63.62.62,0,0,0-.52-.22.68.68,0,0,0-.56.25,1,1,0,0,0-.22.67v1.63Z" transform="translate(-177.08 -445.29)"></path><path d="M404.5,533.7a2,2,0,0,1-.43-.05l-.24.23a1.21,1.21,0,0,0,.29.1,6,6,0,0,0,.6.08,1.61,1.61,0,0,1,.92.3.81.81,0,0,1,.29.66,1,1,0,0,1-.15.54,1.1,1.1,0,0,1-.47.4,1.93,1.93,0,0,1-.82.16,2,2,0,0,1-1.09-.26.81.81,0,0,1-.41-.75.92.92,0,0,1,.41-.74,1.55,1.55,0,0,1-.22-.12l-.16-.13V534l.55-.59a1,1,0,0,1-.37-.83,1.08,1.08,0,0,1,.16-.58,1.09,1.09,0,0,1,.44-.41,1.35,1.35,0,0,1,.69-.15,1.64,1.64,0,0,1,.5.08h1.2v.5l-.54,0a1.11,1.11,0,0,1,.13.54,1.07,1.07,0,0,1-.59,1,1.45,1.45,0,0,1-.68.15Zm-.76,1.33a.37.37,0,0,0,.22.35,1.07,1.07,0,0,0,.53.11.93.93,0,0,0,.5-.12.39.39,0,0,0,.19-.33.4.4,0,0,0-.12-.29.84.84,0,0,0-.49-.14l-.48-.05a.78.78,0,0,0-.27.22.44.44,0,0,0-.07.24Zm.76-1.95a.62.62,0,0,0,.41-.14.44.44,0,0,0,.16-.38.48.48,0,0,0-.16-.39.65.65,0,0,0-.41-.13.66.66,0,0,0-.42.13.47.47,0,0,0-.16.39.45.45,0,0,0,.16.38A.56.56,0,0,0,404.5,533.08Z" transform="translate(-177.08 -445.29)"></path><path d="M410.81,536v-1.85a1.59,1.59,0,0,1-.4.37,1.29,1.29,0,0,1-.66.15,1.54,1.54,0,0,1-.8-.21,1.59,1.59,0,0,1-.55-.6,1.7,1.7,0,0,1-.2-.85,1.81,1.81,0,0,1,.2-.85,1.57,1.57,0,0,1,.55-.59,1.52,1.52,0,0,1,.8-.21,1.46,1.46,0,0,1,.62.13,1.06,1.06,0,0,1,.43.38l.09-.43h.73V536h-.81Zm-.88-2a.82.82,0,0,0,.64-.27.92.92,0,0,0,.26-.67,1,1,0,0,0-.26-.68.85.85,0,0,0-.64-.26.84.84,0,0,0-.64.26,1,1,0,0,0,0,1.36.82.82,0,0,0,.64.27Z" transform="translate(-177.08 -445.29)"></path><path d="M413.63,534.71a1.15,1.15,0,0,1-.91-.36,1.59,1.59,0,0,1-.32-1.09v-1.79h.81v1.71a1,1,0,0,0,.16.62.64.64,0,0,0,.53.22.73.73,0,0,0,.56-.24,1,1,0,0,0,.22-.68v-1.63h.81v3.16h-.72l-.06-.54a1,1,0,0,1-.42.45,1.23,1.23,0,0,1-.65.17Z" transform="translate(-177.08 -445.29)"></path><path d="M417.41,534.71a1.41,1.41,0,0,1-.66-.13.79.79,0,0,1-.39-.35.91.91,0,0,1,.21-1.18,1.66,1.66,0,0,1,1-.27h.8v-.08a.56.56,0,0,0-.18-.47.69.69,0,0,0-.46-.15.79.79,0,0,0-.43.11.47.47,0,0,0-.22.35h-.8a1,1,0,0,1,.23-.59,1.48,1.48,0,0,1,.52-.4,1.8,1.8,0,0,1,.71-.14,1.56,1.56,0,0,1,1.06.33,1.21,1.21,0,0,1,.39,1v1.94h-.69l-.08-.5a1.33,1.33,0,0,1-.4.42,1.16,1.16,0,0,1-.65.16Zm.19-.63a.68.68,0,0,0,.54-.23,1.15,1.15,0,0,0,.25-.57h-.7a.73.73,0,0,0-.46.11.35.35,0,0,0-.14.29.33.33,0,0,0,.14.29A.62.62,0,0,0,417.6,534.08Z" transform="translate(-177.08 -445.29)"></path><path d="M420,534.64v-4.58h.82v4.58Z" transform="translate(-177.08 -445.29)"></path><path d="M422.1,531a.51.51,0,0,1-.37-.13.48.48,0,0,1,0-.68.55.55,0,0,1,.37-.13.55.55,0,0,1,.36.13.44.44,0,0,1,.14.34.45.45,0,0,1-.14.34A.5.5,0,0,1,422.1,531Zm-.41,3.65v-3.16h.82v3.16Z" transform="translate(-177.08 -445.29)"></path><path d="M424.76,534.64a1.19,1.19,0,0,1-.8-.24,1.05,1.05,0,0,1-.3-.86v-1.38h-.54v-.68h.54l.1-.85h.72v.85h.85v.68h-.85v1.39a.42.42,0,0,0,.1.31.45.45,0,0,0,.34.09h.39v.69Z" transform="translate(-177.08 -445.29)"></path><path d="M426.44,536l.73-1.61H427l-1.23-3h.89l.88,2.23.92-2.23h.87l-2,4.56h-.86Z" transform="translate(-177.08 -445.29)"></path><path d="M432.45,534.71a1.48,1.48,0,0,1-.67-.13.81.81,0,0,1-.38-.35.91.91,0,0,1,.21-1.18,1.65,1.65,0,0,1,1-.27h.81v-.08a.56.56,0,0,0-.18-.47.73.73,0,0,0-.46-.15.75.75,0,0,0-.43.11.51.51,0,0,0-.23.35h-.8a1,1,0,0,1,.24-.59,1.39,1.39,0,0,1,.52-.4,1.8,1.8,0,0,1,.71-.14,1.58,1.58,0,0,1,1.06.33,1.24,1.24,0,0,1,.38,1v1.94h-.69l-.08-.5a1.29,1.29,0,0,1-.39.42,1.21,1.21,0,0,1-.65.16Zm.18-.63a.69.69,0,0,0,.55-.23,1.06,1.06,0,0,0,.24-.57h-.69a.69.69,0,0,0-.46.11.35.35,0,0,0-.14.29.33.33,0,0,0,.14.29A.57.57,0,0,0,432.63,534.08Z" transform="translate(-177.08 -445.29)"></path><path d="M435,536v-4.56h.72l.09.46a1.47,1.47,0,0,1,.41-.37,1.14,1.14,0,0,1,.65-.16,1.49,1.49,0,0,1,1.35.82,1.81,1.81,0,0,1,.2.85,1.84,1.84,0,0,1-.2.85,1.61,1.61,0,0,1-.55.58,1.52,1.52,0,0,1-.8.21,1.38,1.38,0,0,1-.62-.13,1.18,1.18,0,0,1-.43-.37v1.83H435Zm1.7-2a.85.85,0,0,0,.64-.27,1,1,0,0,0,.25-.67,1,1,0,0,0-.25-.68.89.89,0,0,0-1.29,0,.92.92,0,0,0-.26.67,1,1,0,0,0,.26.68.87.87,0,0,0,.65.26Z" transform="translate(-177.08 -445.29)"></path><path d="M439.19,536v-4.56h.73l.09.46a1.3,1.3,0,0,1,.4-.37,1.2,1.2,0,0,1,.66-.16,1.46,1.46,0,0,1,.8.22,1.52,1.52,0,0,1,.55.6,1.81,1.81,0,0,1,.2.85,1.84,1.84,0,0,1-.2.85,1.7,1.7,0,0,1-.55.58,1.52,1.52,0,0,1-.8.21,1.32,1.32,0,0,1-.62-.13,1,1,0,0,1-.43-.37v1.83h-.83Zm1.7-2a.82.82,0,0,0,.64-.27.92.92,0,0,0,.26-.67,1,1,0,0,0-.26-.68.83.83,0,0,0-.64-.28.88.88,0,0,0-.65.27,1,1,0,0,0-.25.67,1,1,0,0,0,.25.68.89.89,0,0,0,.65.26Z" transform="translate(-177.08 -445.29)"></path><path d="M443.34,534.64v-4.58h.81v4.58Z" transform="translate(-177.08 -445.29)"></path><path d="M445.43,531a.5.5,0,0,1-.36-.13.48.48,0,0,1,0-.68.55.55,0,0,1,.36-.13.55.55,0,0,1,.37.13.44.44,0,0,1,.14.34.45.45,0,0,1-.14.34A.51.51,0,0,1,445.43,531Zm-.4,3.65v-3.16h.82v3.16Z" transform="translate(-177.08 -445.29)"></path><path d="M448.24,534.71a1.7,1.7,0,0,1-.85-.21,1.56,1.56,0,0,1-.59-.58,1.77,1.77,0,0,1-.21-.86,1.71,1.71,0,0,1,.21-.86,1.52,1.52,0,0,1,.59-.59,1.7,1.7,0,0,1,.85-.21,1.63,1.63,0,0,1,1,.32,1.4,1.4,0,0,1,.52.87h-.86a.58.58,0,0,0-.25-.36.72.72,0,0,0-.44-.14.73.73,0,0,0-.57.26,1,1,0,0,0-.24.71,1,1,0,0,0,.24.71.81.81,0,0,0,1,.13.65.65,0,0,0,.25-.37h.86a1.48,1.48,0,0,1-.52.86A1.59,1.59,0,0,1,448.24,534.71Z" transform="translate(-177.08 -445.29)"></path><path d="M451.61,534.71a1.48,1.48,0,0,1-.67-.13.84.84,0,0,1-.39-.35,1,1,0,0,1-.13-.47.87.87,0,0,1,.35-.71,1.63,1.63,0,0,1,1-.27h.81v-.08a.53.53,0,0,0-.19-.47.68.68,0,0,0-.45-.15.75.75,0,0,0-.43.11.48.48,0,0,0-.23.35h-.8a1,1,0,0,1,.24-.59,1.32,1.32,0,0,1,.52-.4,1.76,1.76,0,0,1,.71-.14,1.6,1.6,0,0,1,1.06.33,1.24,1.24,0,0,1,.38,1v1.94h-.69l-.08-.5a1.41,1.41,0,0,1-.39.42,1.21,1.21,0,0,1-.65.16Zm.18-.63a.67.67,0,0,0,.54-.23,1,1,0,0,0,.25-.57h-.69a.74.74,0,0,0-.47.11.38.38,0,0,0-.14.29.36.36,0,0,0,.14.29A.62.62,0,0,0,451.79,534.08Z" transform="translate(-177.08 -445.29)"></path><path d="M455.55,534.64a1.21,1.21,0,0,1-.8-.24,1.05,1.05,0,0,1-.29-.86v-1.38h-.55v-.68h.55l.09-.85h.72v.85h.85v.68h-.85v1.39a.42.42,0,0,0,.1.31.45.45,0,0,0,.34.09h.39v.69Z" transform="translate(-177.08 -445.29)"></path><path d="M457.27,531a.52.52,0,0,1-.37-.13.48.48,0,0,1,0-.68.59.59,0,0,1,.74,0,.44.44,0,0,1,.14.34.45.45,0,0,1-.14.34A.52.52,0,0,1,457.27,531Zm-.4,3.65v-3.16h.81v3.16Z" transform="translate(-177.08 -445.29)"></path><path d="M460.05,534.71a1.59,1.59,0,0,1-.82-.21,1.47,1.47,0,0,1-.58-.58,1.77,1.77,0,0,1-.21-.86,1.68,1.68,0,0,1,.22-.87,1.72,1.72,0,0,1,.58-.59,1.65,1.65,0,0,1,.83-.21,1.55,1.55,0,0,1,.81.21,1.5,1.5,0,0,1,.58.59,1.75,1.75,0,0,1,.21.87,1.71,1.71,0,0,1-.21.86,1.5,1.5,0,0,1-.59.58A1.52,1.52,0,0,1,460.05,534.71Zm0-.7a.75.75,0,0,0,.55-.24,1,1,0,0,0,.24-.71,1,1,0,0,0-.24-.71.75.75,0,0,0-.54-.24.79.79,0,0,0-.56.24,1,1,0,0,0-.23.71,1,1,0,0,0,.23.71A.74.74,0,0,0,460.05,534Z" transform="translate(-177.08 -445.29)"></path><path d="M462.39,534.64v-3.15h.72l.06.53a1.18,1.18,0,0,1,.42-.44,1.2,1.2,0,0,1,.66-.17,1.14,1.14,0,0,1,.91.37,1.56,1.56,0,0,1,.33,1.09v1.77h-.82v-1.7a1,1,0,0,0-.17-.63.59.59,0,0,0-.51-.22.68.68,0,0,0-.56.25,1,1,0,0,0-.22.67v1.63Z" transform="translate(-177.08 -445.29)"></path><path d="M467.57,534.71a1.67,1.67,0,0,1-.73-.14,1.15,1.15,0,0,1-.51-.37,1.12,1.12,0,0,1-.23-.56h.82a.58.58,0,0,0,.21.31.7.7,0,0,0,.44.13.62.62,0,0,0,.4-.1.33.33,0,0,0,.12-.25.28.28,0,0,0-.18-.28,3,3,0,0,0-.5-.14c-.13,0-.27-.07-.41-.1a2.72,2.72,0,0,1-.38-.16.85.85,0,0,1-.28-.25.71.71,0,0,1-.11-.39.94.94,0,0,1,.33-.71,1.41,1.41,0,0,1,.94-.29,1.44,1.44,0,0,1,.9.26,1,1,0,0,1,.39.72H468c0-.23-.22-.35-.53-.35a.58.58,0,0,0-.35.09.26.26,0,0,0-.12.22.25.25,0,0,0,.18.22,3.91,3.91,0,0,0,.5.15c.21,0,.42.1.6.16a1,1,0,0,1,.44.28.73.73,0,0,1,.17.51,1,1,0,0,1-.15.53,1.13,1.13,0,0,1-.46.37,1.87,1.87,0,0,1-.71.13Z" transform="translate(-177.08 -445.29)"></path><path d="M220.85,554v-4.46h1l1.42,2.83,1.4-2.83h1V554h-.82v-3.07l-1.24,2.43h-.64l-1.25-2.43V554h-.8Z" transform="translate(-177.08 -445.29)"></path><path d="M227.54,554.08a1.45,1.45,0,0,1-.67-.13.84.84,0,0,1-.39-.35,1,1,0,0,1-.13-.47.87.87,0,0,1,.34-.71,1.66,1.66,0,0,1,1-.27h.81v-.08a.59.59,0,0,0-.19-.48.74.74,0,0,0-.45-.15.75.75,0,0,0-.43.12.46.46,0,0,0-.23.35h-.8a1.07,1.07,0,0,1,.24-.6,1.44,1.44,0,0,1,.51-.39,1.8,1.8,0,0,1,.71-.14,1.61,1.61,0,0,1,1.07.33,1.24,1.24,0,0,1,.38,1V554h-.69l-.08-.51a1.15,1.15,0,0,1-.4.42,1.07,1.07,0,0,1-.64.17Zm.18-.64a.69.69,0,0,0,.54-.22,1.1,1.1,0,0,0,.25-.57h-.69a.74.74,0,0,0-.47.11.37.37,0,0,0-.14.29.36.36,0,0,0,.14.29A.62.62,0,0,0,227.72,553.44Z" transform="translate(-177.08 -445.29)"></path><path d="M231.43,554.08a1.72,1.72,0,0,1-.74-.14,1.4,1.4,0,0,1-.51-.37A1,1,0,0,1,230,553h.82a.57.57,0,0,0,.21.32.66.66,0,0,0,.44.13.59.59,0,0,0,.39-.1.34.34,0,0,0,.13-.25.29.29,0,0,0-.18-.28,2.42,2.42,0,0,0-.5-.14l-.41-.1a3.52,3.52,0,0,1-.39-.16.87.87,0,0,1-.28-.26.65.65,0,0,1-.1-.38.91.91,0,0,1,.33-.71,1.66,1.66,0,0,1,1.83,0,1.07,1.07,0,0,1,.4.72h-.77c0-.24-.22-.35-.53-.35a.58.58,0,0,0-.35.09.26.26,0,0,0-.12.22c0,.08.06.16.18.22a2.71,2.71,0,0,0,.49.14l.61.17a.94.94,0,0,1,.43.27.73.73,0,0,1,.17.52.91.91,0,0,1-.15.53,1,1,0,0,1-.45.36,1.73,1.73,0,0,1-.71.14Z" transform="translate(-177.08 -445.29)"></path><path d="M234.78,554a1.18,1.18,0,0,1-.8-.24,1.05,1.05,0,0,1-.3-.86v-1.38h-.54v-.68h.54l.1-.85h.72v.85h.85v.68h-.85v1.39a.43.43,0,0,0,.09.31.49.49,0,0,0,.35.09h.39V554Z" transform="translate(-177.08 -445.29)"></path><path d="M237.5,554.08a1.84,1.84,0,0,1-.85-.2,1.42,1.42,0,0,1-.57-.57,1.67,1.67,0,0,1-.21-.85,1.83,1.83,0,0,1,.21-.87,1.5,1.5,0,0,1,.57-.6,1.69,1.69,0,0,1,.86-.21,1.73,1.73,0,0,1,.83.2,1.58,1.58,0,0,1,.56.56,1.52,1.52,0,0,1,.2.79v.15a.92.92,0,0,1,0,.16h-2.4a.89.89,0,0,0,.25.58.83.83,0,0,0,.56.21.75.75,0,0,0,.43-.12.71.71,0,0,0,.25-.29H239a1.48,1.48,0,0,1-.3.55,1.58,1.58,0,0,1-.5.38,1.55,1.55,0,0,1-.69.14Zm0-2.64a.85.85,0,0,0-.52.16.75.75,0,0,0-.29.51h1.57a.68.68,0,0,0-.23-.5.77.77,0,0,0-.53-.18Z" transform="translate(-177.08 -445.29)"></path><path d="M239.78,554v-3.15h.72l.08.59a1.47,1.47,0,0,1,.47-.49,1.33,1.33,0,0,1,.7-.18v.86h-.23a1.36,1.36,0,0,0-.47.08.62.62,0,0,0-.33.29,1.13,1.13,0,0,0-.11.57V554h-.83Z" transform="translate(-177.08 -445.29)"></path><path d="M245.33,554.08a1.64,1.64,0,0,1-.82-.21,1.47,1.47,0,0,1-.58-.58,1.77,1.77,0,0,1-.21-.86,1.66,1.66,0,0,1,.22-.87,1.66,1.66,0,0,1,2.23-.59,1.5,1.5,0,0,1,.58.59,1.89,1.89,0,0,1,0,1.73,1.64,1.64,0,0,1-.59.58A1.58,1.58,0,0,1,245.33,554.08Zm0-.71a.8.8,0,0,0,.56-.23,1,1,0,0,0,.23-.71,1,1,0,0,0-.23-.71.77.77,0,0,0-.55-.24.79.79,0,0,0-.56.24.94.94,0,0,0-.23.71,1,1,0,0,0,.23.71A.76.76,0,0,0,245.33,553.37Z" transform="translate(-177.08 -445.29)"></path><path d="M247.82,554v-2.48h-.43v-.68h.43v-.37a1,1,0,0,1,.29-.81,1.22,1.22,0,0,1,.79-.25h.35v.69H249a.44.44,0,0,0-.29.08.34.34,0,0,0-.09.28v.37h.68v.68h-.68V554h-.83Z" transform="translate(-177.08 -445.29)"></path><path d="M251.51,554v-4.46h1.78a1.56,1.56,0,0,1,1.07.33,1,1,0,0,1,.36.82,1,1,0,0,1-.22.68,1.2,1.2,0,0,1-.56.34,1.07,1.07,0,0,1,.64.37,1.13,1.13,0,0,1,.24.71,1.11,1.11,0,0,1-.39.87,1.54,1.54,0,0,1-1.08.34h-1.84Zm.81-2.58h.85a.76.76,0,0,0,.53-.16.56.56,0,0,0,.18-.46.51.51,0,0,0-.18-.43.79.79,0,0,0-.55-.17h-.84v1.22Zm0,1.92h.91a.78.78,0,0,0,.56-.17.57.57,0,0,0,.21-.47.62.62,0,0,0-.21-.49.81.81,0,0,0-.57-.18h-.9v1.32Z" transform="translate(-177.08 -445.29)"></path><path d="M256.69,554.08a1.11,1.11,0,0,1-.91-.37,1.55,1.55,0,0,1-.33-1.08v-1.79h.81v1.71a1,1,0,0,0,.16.62.66.66,0,0,0,.53.22.7.7,0,0,0,.56-.25.92.92,0,0,0,.22-.67v-1.63h.82V554h-.72l-.06-.53a1.13,1.13,0,0,1-1.07.61Z" transform="translate(-177.08 -445.29)"></path><path d="M260.69,554.08a1.72,1.72,0,0,1-.74-.14,1.32,1.32,0,0,1-.51-.37,1.11,1.11,0,0,1-.23-.57H260a.48.48,0,0,0,.21.32.66.66,0,0,0,.44.13.61.61,0,0,0,.39-.1.33.33,0,0,0,.12-.25.28.28,0,0,0-.17-.28,2.62,2.62,0,0,0-.5-.14l-.41-.1a2.87,2.87,0,0,1-.39-.16.87.87,0,0,1-.28-.26.66.66,0,0,1-.11-.38.91.91,0,0,1,.34-.71,1.39,1.39,0,0,1,.94-.29,1.43,1.43,0,0,1,.89.26,1,1,0,0,1,.39.72h-.77c0-.24-.22-.35-.52-.35a.58.58,0,0,0-.35.09.27.27,0,0,0-.13.22c0,.08.06.16.19.22a2.71,2.71,0,0,0,.49.14l.6.17a.92.92,0,0,1,.44.27.73.73,0,0,1,.17.52,1,1,0,0,1-.15.53,1,1,0,0,1-.46.36,1.66,1.66,0,0,1-.71.14Z" transform="translate(-177.08 -445.29)"></path><path d="M263.17,550.36a.57.57,0,0,1-.37-.13.43.43,0,0,1-.14-.35.4.4,0,0,1,.14-.33.59.59,0,0,1,.74,0,.45.45,0,0,1,.14.33.5.5,0,0,1-.14.35A.52.52,0,0,1,263.17,550.36Zm-.41,3.64v-3.15h.82V554Z" transform="translate(-177.08 -445.29)"></path><path d="M264.42,554v-3.15h.72l.06.53a1.18,1.18,0,0,1,.42-.44,1.2,1.2,0,0,1,.66-.17,1.14,1.14,0,0,1,.91.37,1.55,1.55,0,0,1,.33,1.08V554h-.82v-1.71a.94.94,0,0,0-.17-.62.59.59,0,0,0-.51-.22.68.68,0,0,0-.56.25.93.93,0,0,0-.22.67V554Z" transform="translate(-177.08 -445.29)"></path><path d="M269.83,554.08a1.81,1.81,0,0,1-.85-.2,1.39,1.39,0,0,1-.58-.57,1.67,1.67,0,0,1-.21-.85,1.83,1.83,0,0,1,.21-.87,1.5,1.5,0,0,1,.57-.6,1.75,1.75,0,0,1,.87-.21,1.66,1.66,0,0,1,.82.2,1.5,1.5,0,0,1,.56.56,1.53,1.53,0,0,1,.21.79v.15a.92.92,0,0,1,0,.16H269a.84.84,0,0,0,.25.58.81.81,0,0,0,.56.21.7.7,0,0,0,.42-.12.73.73,0,0,0,.26-.29h.83a1.48,1.48,0,0,1-.3.55,1.62,1.62,0,0,1-.51.38,1.51,1.51,0,0,1-.68.14Zm0-2.64a.88.88,0,0,0-.53.16.78.78,0,0,0-.28.51h1.56a.64.64,0,0,0-.22-.5.79.79,0,0,0-.53-.18Z" transform="translate(-177.08 -445.29)"></path><path d="M273.42,554.08a1.72,1.72,0,0,1-.74-.14,1.32,1.32,0,0,1-.51-.37,1.11,1.11,0,0,1-.23-.57h.83a.48.48,0,0,0,.21.32.66.66,0,0,0,.44.13.61.61,0,0,0,.39-.1.33.33,0,0,0,.12-.25.28.28,0,0,0-.17-.28,2.62,2.62,0,0,0-.5-.14l-.41-.1a2.87,2.87,0,0,1-.39-.16.87.87,0,0,1-.28-.26.66.66,0,0,1-.11-.38.91.91,0,0,1,.34-.71,1.39,1.39,0,0,1,.94-.29,1.43,1.43,0,0,1,.89.26,1.07,1.07,0,0,1,.4.72h-.78c0-.24-.22-.35-.52-.35a.58.58,0,0,0-.35.09.27.27,0,0,0-.13.22c0,.08.07.16.19.22a2.71,2.71,0,0,0,.49.14l.6.17a.92.92,0,0,1,.44.27.73.73,0,0,1,.17.52.91.91,0,0,1-.15.53,1,1,0,0,1-.46.36,1.66,1.66,0,0,1-.71.14Z" transform="translate(-177.08 -445.29)"></path><path d="M276.76,554.08a1.72,1.72,0,0,1-.74-.14,1.32,1.32,0,0,1-.51-.37,1.11,1.11,0,0,1-.23-.57h.83a.48.48,0,0,0,.21.32.66.66,0,0,0,.44.13.61.61,0,0,0,.39-.1.33.33,0,0,0,.12-.25.28.28,0,0,0-.17-.28,2.62,2.62,0,0,0-.5-.14l-.41-.1a3.52,3.52,0,0,1-.39-.16.87.87,0,0,1-.28-.26.65.65,0,0,1-.1-.38.91.91,0,0,1,.33-.71,1.39,1.39,0,0,1,.94-.29,1.43,1.43,0,0,1,.89.26,1.07,1.07,0,0,1,.4.72h-.78c0-.24-.22-.35-.52-.35a.58.58,0,0,0-.35.09.27.27,0,0,0-.13.22c0,.08.07.16.19.22a2.71,2.71,0,0,0,.49.14l.6.17a.92.92,0,0,1,.44.27.73.73,0,0,1,.17.52.91.91,0,0,1-.15.53,1,1,0,0,1-.46.36,1.66,1.66,0,0,1-.71.14Z" transform="translate(-177.08 -445.29)"></path><path d="M280,554l1.63-4.46h.93l1.63,4.46h-.87l-.36-1h-1.74l-.37,1Zm1.44-1.66h1.3l-.65-1.85-.64,1.85Z" transform="translate(-177.08 -445.29)"></path><path d="M286.09,554.08a1.44,1.44,0,0,1-.8-.22,1.59,1.59,0,0,1-.56-.59,1.75,1.75,0,0,1-.2-.85,1.78,1.78,0,0,1,.2-.85,1.59,1.59,0,0,1,.56-.59,1.52,1.52,0,0,1,.8-.21,1.38,1.38,0,0,1,.62.13,1.21,1.21,0,0,1,.43.38v-1.86H288V554h-.73l-.08-.45a1.64,1.64,0,0,1-.41.37,1.23,1.23,0,0,1-.65.15Zm.17-.71a.85.85,0,0,0,.65-.26,1,1,0,0,0,0-1.35.85.85,0,0,0-.65-.26.83.83,0,0,0-.64.26.94.94,0,0,0-.25.68,1,1,0,0,0,.25.68.88.88,0,0,0,.64.26Z" transform="translate(-177.08 -445.29)"></path><path d="M288.79,554v-3.15h.72l.07.43a1.33,1.33,0,0,1,.41-.37,1.25,1.25,0,0,1,1.62.43,1.07,1.07,0,0,1,.46-.41,1.27,1.27,0,0,1,.63-.15,1.19,1.19,0,0,1,.95.37,1.55,1.55,0,0,1,.33,1.08V554h-.81V552.3a1,1,0,0,0-.16-.62.53.53,0,0,0-.48-.22.66.66,0,0,0-.54.25,1,1,0,0,0-.2.67V554H291V552.3a1.07,1.07,0,0,0-.16-.62.56.56,0,0,0-.49-.22.63.63,0,0,0-.53.25,1,1,0,0,0-.2.67V554h-.81Z" transform="translate(-177.08 -445.29)"></path><path d="M295.2,550.36a.57.57,0,0,1-.37-.13.47.47,0,0,1-.14-.35.44.44,0,0,1,.14-.33.52.52,0,0,1,.37-.13.51.51,0,0,1,.37.13.42.42,0,0,1,.14.33.46.46,0,0,1-.14.35A.51.51,0,0,1,295.2,550.36Zm-.4,3.64v-3.15h.82V554Z" transform="translate(-177.08 -445.29)"></path><path d="M296.47,554v-3.15h.71l.07.53a1,1,0,0,1,.42-.44,1.33,1.33,0,0,1,1.57.2,1.55,1.55,0,0,1,.32,1.08V554h-.81v-1.71a1,1,0,0,0-.17-.62.61.61,0,0,0-.52-.22.68.68,0,0,0-.56.25.93.93,0,0,0-.22.67V554Z" transform="translate(-177.08 -445.29)"></path><path d="M300.78,550.36a.57.57,0,0,1-.37-.13.43.43,0,0,1-.14-.35.4.4,0,0,1,.14-.33.59.59,0,0,1,.74,0,.45.45,0,0,1,.14.33.5.5,0,0,1-.14.35A.52.52,0,0,1,300.78,550.36Zm-.4,3.64v-3.15h.81V554Z" transform="translate(-177.08 -445.29)"></path><path d="M303.34,554.08a1.72,1.72,0,0,1-.74-.14,1.4,1.4,0,0,1-.51-.37,1,1,0,0,1-.22-.57h.82a.57.57,0,0,0,.21.32.7.7,0,0,0,.44.13.59.59,0,0,0,.39-.1.34.34,0,0,0,.13-.25.27.27,0,0,0-.18-.28,2.42,2.42,0,0,0-.5-.14l-.41-.1a3.52,3.52,0,0,1-.39-.16.87.87,0,0,1-.28-.26.65.65,0,0,1-.1-.38.91.91,0,0,1,.33-.71,1.66,1.66,0,0,1,1.83,0,1.07,1.07,0,0,1,.4.72h-.77c-.05-.24-.22-.35-.53-.35a.58.58,0,0,0-.35.09.26.26,0,0,0-.12.22c0,.08.06.16.18.22a2.71,2.71,0,0,0,.49.14l.61.17a1,1,0,0,1,.44.27.77.77,0,0,1,.16.52.91.91,0,0,1-.15.53,1,1,0,0,1-.45.36,1.73,1.73,0,0,1-.71.14Z" transform="translate(-177.08 -445.29)"></path><path d="M306.69,554a1.19,1.19,0,0,1-.8-.24,1.05,1.05,0,0,1-.3-.86v-1.38h-.54v-.68h.54l.1-.85h.72v.85h.85v.68h-.85v1.39a.43.43,0,0,0,.09.31.49.49,0,0,0,.35.09h.39V554Z" transform="translate(-177.08 -445.29)"></path><path d="M308,554v-3.15h.73l.08.59a1.44,1.44,0,0,1,.46-.49,1.33,1.33,0,0,1,.7-.18v.86h-.23a1.4,1.4,0,0,0-.47.08.6.6,0,0,0-.32.29,1.12,1.12,0,0,0-.12.57V554H308Z" transform="translate(-177.08 -445.29)"></path><path d="M311.57,554.08a1.41,1.41,0,0,1-.66-.13.84.84,0,0,1-.39-.35.88.88,0,0,1-.13-.47.85.85,0,0,1,.34-.71,1.66,1.66,0,0,1,1-.27h.8v-.08a.59.59,0,0,0-.18-.48.8.8,0,0,0-.89,0,.51.51,0,0,0-.23.35h-.79a1,1,0,0,1,.23-.6,1.48,1.48,0,0,1,.52-.39,1.8,1.8,0,0,1,.71-.14,1.56,1.56,0,0,1,1.06.33,1.21,1.21,0,0,1,.39,1V554h-.7l-.07-.51a1.15,1.15,0,0,1-.4.42,1.09,1.09,0,0,1-.65.17Zm.19-.64a.71.71,0,0,0,.54-.22,1.19,1.19,0,0,0,.25-.57h-.7a.69.69,0,0,0-.46.11.34.34,0,0,0-.14.29.33.33,0,0,0,.14.29A.6.6,0,0,0,311.76,553.44Z" transform="translate(-177.08 -445.29)"></path><path d="M315.53,554a1.18,1.18,0,0,1-.8-.24,1.05,1.05,0,0,1-.3-.86v-1.38h-.54v-.68h.54l.1-.85h.72v.85h.85v.68h-.85v1.39a.43.43,0,0,0,.09.31.46.46,0,0,0,.34.09h.4V554Z" transform="translate(-177.08 -445.29)"></path><path d="M317.24,550.36a.55.55,0,0,1-.36-.13.43.43,0,0,1-.14-.35.4.4,0,0,1,.14-.33.5.5,0,0,1,.36-.13.51.51,0,0,1,.37.13.42.42,0,0,1,.14.33.46.46,0,0,1-.14.35A.51.51,0,0,1,317.24,550.36Zm-.4,3.64v-3.15h.82V554Z" transform="translate(-177.08 -445.29)"></path><path d="M320,554.08a1.65,1.65,0,0,1-.83-.21,1.54,1.54,0,0,1-.58-.58,1.77,1.77,0,0,1-.21-.86,1.66,1.66,0,0,1,.22-.87,1.59,1.59,0,0,1,.59-.59,1.61,1.61,0,0,1,.82-.21,1.59,1.59,0,0,1,.82.21,1.5,1.5,0,0,1,.58.59,1.89,1.89,0,0,1,0,1.73,1.64,1.64,0,0,1-.59.58A1.54,1.54,0,0,1,320,554.08Zm0-.71a.78.78,0,0,0,.55-.23,1,1,0,0,0,.23-.71.94.94,0,0,0-.23-.71.75.75,0,0,0-.55-.24.79.79,0,0,0-.56.24,1,1,0,0,0-.22.71,1,1,0,0,0,.22.71A.77.77,0,0,0,320,553.37Z" transform="translate(-177.08 -445.29)"></path><path d="M322.36,554v-3.15h.72l.07.53a1,1,0,0,1,.42-.44,1.33,1.33,0,0,1,1.57.2,1.6,1.6,0,0,1,.32,1.08V554h-.82v-1.71a1,1,0,0,0-.16-.62.61.61,0,0,0-.52-.22.68.68,0,0,0-.56.25.93.93,0,0,0-.22.67V554Z" transform="translate(-177.08 -445.29)"></path><path d="M542.57,531.59a2.21,2.21,0,0,1-.87-.16,1.41,1.41,0,0,1-.59-.48,1.38,1.38,0,0,1-.22-.78h.86a.72.72,0,0,0,.22.53.82.82,0,0,0,.59.21.77.77,0,0,0,.52-.16.5.5,0,0,0,.19-.42.54.54,0,0,0-.17-.43,1.23,1.23,0,0,0-.44-.24l-.6-.2a2.35,2.35,0,0,1-.79-.46,1,1,0,0,1-.27-.74,1.21,1.21,0,0,1,.18-.68,1.4,1.4,0,0,1,.54-.44,1.9,1.9,0,0,1,.78-.16,2,2,0,0,1,.79.16,1.3,1.3,0,0,1,.53.45,1.12,1.12,0,0,1,.21.68h-.87a.58.58,0,0,0-.19-.42.64.64,0,0,0-.49-.18.66.66,0,0,0-.44.13.46.46,0,0,0-.19.4.42.42,0,0,0,.14.35,1.11,1.11,0,0,0,.39.22l.55.2a3.29,3.29,0,0,1,.6.26,1.07,1.07,0,0,1,.44.4,1.18,1.18,0,0,1,.17.65,1.26,1.26,0,0,1-.7,1.13,1.86,1.86,0,0,1-.86.18Z" transform="translate(-177.08 -445.29)"></path><path d="M544.83,531.52v-4.58h.82v1.91a1.21,1.21,0,0,1,.43-.41,1.24,1.24,0,0,1,.62-.15,1.14,1.14,0,0,1,.91.37,1.61,1.61,0,0,1,.33,1.09v1.78h-.81v-1.71a1,1,0,0,0-.16-.62.58.58,0,0,0-.51-.22.72.72,0,0,0-.57.25.93.93,0,0,0-.22.67v1.63h-.84Z" transform="translate(-177.08 -445.29)"></path><path d="M550.22,531.59a1.65,1.65,0,0,1-.83-.21,1.59,1.59,0,0,1-.58-.57,1.75,1.75,0,0,1-.21-.87,1.62,1.62,0,0,1,.22-.86,1.59,1.59,0,0,1,.59-.59,1.61,1.61,0,0,1,.82-.21,1.59,1.59,0,0,1,.82.21,1.56,1.56,0,0,1,.58.59,1.71,1.71,0,0,1,.21.86,1.81,1.81,0,0,1-.21.87,1.54,1.54,0,0,1-.59.57A1.64,1.64,0,0,1,550.22,531.59Zm0-.71a.74.74,0,0,0,.55-.23,1,1,0,0,0,.23-.71,1,1,0,0,0-.23-.71.75.75,0,0,0-.55-.24.79.79,0,0,0-.56.24,1,1,0,0,0-.22.71,1,1,0,0,0,.22.71A.73.73,0,0,0,550.22,530.88Z" transform="translate(-177.08 -445.29)"></path><path d="M553.06,531.52l-.92-3.15H553l.54,2.27.64-2.27H555l.64,2.27.55-2.27H557l-.93,3.15h-.85l-.68-2.36-.67,2.36Z" transform="translate(-177.08 -445.29)"></path><path d="M559,531.59a1.7,1.7,0,0,1-.85-.21,1.64,1.64,0,0,1-.59-.58,1.66,1.66,0,0,1-.21-.86,1.71,1.71,0,0,1,.21-.86,1.52,1.52,0,0,1,.59-.59,1.76,1.76,0,0,1,.85-.21,1.63,1.63,0,0,1,1,.32,1.4,1.4,0,0,1,.52.87h-.85a.64.64,0,0,0-.26-.36A.72.72,0,0,0,559,529a.73.73,0,0,0-.57.26,1,1,0,0,0-.23.71,1,1,0,0,0,.23.71.79.79,0,0,0,.57.25.72.72,0,0,0,.44-.13.73.73,0,0,0,.26-.36h.85a1.43,1.43,0,0,1-.52.86A1.59,1.59,0,0,1,559,531.59Z" transform="translate(-177.08 -445.29)"></path><path d="M562.36,531.59a1.48,1.48,0,0,1-.67-.13.81.81,0,0,1-.38-.35,1,1,0,0,1-.14-.47.87.87,0,0,1,.35-.71,1.63,1.63,0,0,1,1-.27h.81v-.08a.53.53,0,0,0-.19-.47.68.68,0,0,0-.45-.15.75.75,0,0,0-.43.11.51.51,0,0,0-.23.35h-.8a1,1,0,0,1,.24-.59,1.48,1.48,0,0,1,.52-.4,1.76,1.76,0,0,1,.71-.14,1.55,1.55,0,0,1,1.06.34,1.24,1.24,0,0,1,.38,1v1.94h-.69l-.08-.5a1.29,1.29,0,0,1-.39.42,1.21,1.21,0,0,1-.65.16Zm.18-.63a.7.7,0,0,0,.55-.23,1.06,1.06,0,0,0,.24-.57h-.69a.74.74,0,0,0-.47.11.38.38,0,0,0-.14.29.36.36,0,0,0,.14.29A.62.62,0,0,0,562.54,531Z" transform="translate(-177.08 -445.29)"></path><path d="M566.25,531.59a1.75,1.75,0,0,1-.74-.14,1.19,1.19,0,0,1-.5-.37,1,1,0,0,1-.23-.56h.82a.58.58,0,0,0,.21.31.7.7,0,0,0,.44.13.62.62,0,0,0,.4-.1.37.37,0,0,0,.12-.25.28.28,0,0,0-.18-.28,3.27,3.27,0,0,0-.5-.14,3.48,3.48,0,0,1-.41-.1,1.9,1.9,0,0,1-.38-.17,1,1,0,0,1-.29-.25.69.69,0,0,1-.1-.39.91.91,0,0,1,.33-.71,1.41,1.41,0,0,1,.94-.29,1.38,1.38,0,0,1,.9.27,1.07,1.07,0,0,1,.39.71h-.77c-.05-.23-.22-.35-.53-.35a.58.58,0,0,0-.35.09.26.26,0,0,0-.12.22.25.25,0,0,0,.18.22,4.23,4.23,0,0,0,.49.15c.22,0,.42.1.61.16a1,1,0,0,1,.44.28.78.78,0,0,1,.16.51.89.89,0,0,1-.15.53,1,1,0,0,1-.45.37,1.87,1.87,0,0,1-.71.13Z" transform="translate(-177.08 -445.29)"></path><path d="M569.83,531.59a1.78,1.78,0,0,1-.85-.2,1.45,1.45,0,0,1-.58-.57,1.67,1.67,0,0,1-.21-.85,1.81,1.81,0,0,1,.21-.87,1.5,1.5,0,0,1,.57-.6,1.84,1.84,0,0,1,1.69,0,1.58,1.58,0,0,1,.56.56,1.63,1.63,0,0,1,.2.79v.31H569a.87.87,0,0,0,.26.58.79.79,0,0,0,.56.21.72.72,0,0,0,.42-.12.65.65,0,0,0,.25-.29h.84a1.64,1.64,0,0,1-.3.55,1.48,1.48,0,0,1-.51.38,1.51,1.51,0,0,1-.68.14Zm0-2.64a.88.88,0,0,0-.53.16.82.82,0,0,0-.29.52h1.57a.68.68,0,0,0-.23-.5A.77.77,0,0,0,569.83,529Z" transform="translate(-177.08 -445.29)"></path><path d="M526.21,526.27l4,3-4,3Z" transform="translate(-177.08 -445.29)" style="fill: #fff"></path><path d="M531.67,535h-7.44a2.74,2.74,0,0,1-2.74-2.73v-6a2.74,2.74,0,0,1,2.74-2.73h7.44a2.74,2.74,0,0,1,2.74,2.73v6A2.74,2.74,0,0,1,531.67,535Zm-7.44-10.8a2,2,0,0,0-2,2v6a2,2,0,0,0,2,2h7.44a2,2,0,0,0,2-2v-6a2,2,0,0,0-2-2Z" transform="translate(-177.08 -445.29)" style="fill: #fff"></path><path d="M248.59,563.24H229.33a8.92,8.92,0,0,0-8.92,8.92v19.25a8.92,8.92,0,0,0,8.92,8.92h19.26a8.92,8.92,0,0,0,8.92-8.92V572.16A8.92,8.92,0,0,0,248.59,563.24Z" transform="translate(-177.08 -445.29)" style="fill: #19ad4a"></path><path d="M497.36,563.21h-23a4.28,4.28,0,0,0-4.28,4.27V596a4.28,4.28,0,0,0,4.28,4.27h23a4.27,4.27,0,0,0,4.27-4.27V567.48A4.27,4.27,0,0,0,497.36,563.21Z" transform="translate(-177.08 -445.29)" style="fill: #f1f3f5"></path><path d="M486,575.12l2.05,1.32,2.41-.37,1.34,2,2.35.65.39,2.4,1.89,1.55-.62,2.35,1.09,2.18-1.52,1.9.11,2.43-2.16,1.12-.88,2.26-2.43.15-1.74,1.71-2.28-.86-2.28.86L482,595.09l-2.43-.15-.9-2.26-2.15-1.12.11-2.43-1.52-1.9,1.09-2.18-.61-2.35,1.87-1.55.4-2.4,2.35-.65,1.34-2,2.4.37Z" transform="translate(-177.08 -445.29)" style="fill: #ff8f00"></path><path d="M490.56,581.5h-9.69v1.62h9.69Z" transform="translate(-177.08 -445.29)" style="fill: #fff"></path><path d="M490.56,584.15h-9.69v1.62h9.69Z" transform="translate(-177.08 -445.29)" style="fill: #fff"></path><path d="M488.41,591.46l-2.7-2.7-2.7,2.7-1.14-1.15,3.84-3.84,3.85,3.84Z" transform="translate(-177.08 -445.29)" style="fill: #fff"></path><path d="M496.56,571.58H475.15a.4.4,0,0,1-.41-.4.41.41,0,0,1,.41-.4h21.41a.39.39,0,0,1,.4.4A.4.4,0,0,1,496.56,571.58Z" transform="translate(-177.08 -445.29)" style="fill: #293b4a"></path><path d="M391.16,578.46H336.37a.4.4,0,0,1-.41-.4.41.41,0,0,1,.41-.4h54.79a.4.4,0,0,1,.41.4A.41.41,0,0,1,391.16,578.46Z" transform="translate(-177.08 -445.29)" style="fill: #293b4a"></path><path d="M238.84,593l-.18-.08c-.38-.19-9.14-4.53-9.07-12.7l0-6.07,4,0a.44.44,0,0,0,.44-.43l0-3.12,9.9.09,0,3.12a.45.45,0,0,0,.12.31.49.49,0,0,0,.31.13l4,0,0,6.07c-.07,8.16-8.91,12.37-9.29,12.55Zm-8.39-18,0,5.26c-.06,7,7.22,11.21,8.45,11.86,1.23-.63,8.58-4.69,8.64-11.72l0-5.26-3.15,0a1.25,1.25,0,0,1-1.24-1.25V571.5l-8.27-.07v2.3a1.26,1.26,0,0,1-1.26,1.24l-3.15,0Z" transform="translate(-177.08 -445.29)" style="fill: #fff"></path><path d="M242.48,580.15a4.25,4.25,0,0,0-7,0l-.68-.46a5.08,5.08,0,0,1,8.4,0Z" transform="translate(-177.08 -445.29)" style="fill: #fff"></path><path d="M243.14,582.91h-8.35v.82h8.35Z" transform="translate(-177.08 -445.29)" style="fill: #fff"></path><path d="M250,588.32h-3.91v.82H250Z" transform="translate(-177.08 -445.29)" style="fill: #fff"></path><path d="M231.74,588.32H227.9v.82h3.84Z" transform="translate(-177.08 -445.29)" style="fill: #fff"></path><path d="M578.86,647.28H210.75a7.46,7.46,0,0,0-7.45,7.45v54.85a7.46,7.46,0,0,0,7.45,7.45H578.86a7.46,7.46,0,0,0,7.45-7.45V654.73A7.46,7.46,0,0,0,578.86,647.28Z" transform="translate(-177.08 -445.29)" style="fill: #fff"></path><path d="M341.77,678.12h-69.7a.4.4,0,0,1-.4-.4.41.41,0,0,1,.4-.4h69.69a.39.39,0,0,1,.4.4.4.4,0,0,1-.4.4Z" transform="translate(-177.08 -445.29)" style="fill: #293b4a"></path><path d="M326.88,685h-54.8a.4.4,0,1,1,0-.8h54.8a.39.39,0,0,1,.4.4A.4.4,0,0,1,326.88,685Z" transform="translate(-177.08 -445.29)" style="fill: #293b4a"></path><path d="M550.11,678.12H508.6a.4.4,0,0,1-.41-.4.41.41,0,0,1,.41-.4h41.51a.39.39,0,0,1,.4.4A.4.4,0,0,1,550.11,678.12Z" transform="translate(-177.08 -445.29)" style="fill: #293b4a"></path><path d="M539.79,691.89H508.6a.4.4,0,0,1-.41-.4.41.41,0,0,1,.41-.4h31.19a.39.39,0,0,1,.4.4A.4.4,0,0,1,539.79,691.89Z" transform="translate(-177.08 -445.29)" style="fill: #293b4a"></path><path d="M564,685H508.6a.4.4,0,0,1-.41-.4.41.41,0,0,1,.41-.4H564a.39.39,0,0,1,.4.4A.4.4,0,0,1,564,685Z" transform="translate(-177.08 -445.29)" style="fill: #293b4a"></path><path d="M286.78,694.85H272.07v4h14.71Z" transform="translate(-177.08 -445.29)" style="fill: #293b4a"></path><path d="M305.65,694.85H290.94v4h14.71Z" transform="translate(-177.08 -445.29)" style="fill: #293b4a"></path><path d="M345.36,694.85h-14.7v4h14.7Z" transform="translate(-177.08 -445.29)" style="fill: #293b4a"></path><path d="M364.22,694.85h-14.7v4h14.7Z" transform="translate(-177.08 -445.29)" style="fill: #293b4a"></path><path d="M404.15,694.85h-14.7v4h14.7Z" transform="translate(-177.08 -445.29)" style="fill: #293b4a"></path><path d="M423,694.85H408.3v4H423Z" transform="translate(-177.08 -445.29)" style="fill: #293b4a"></path><path d="M220.85,660.55v-4.46h1l1.42,2.83,1.4-2.83h1v4.46h-.82v-3.07l-1.24,2.43h-.64l-1.25-2.43v3.07h-.8Z" transform="translate(-177.08 -445.29)"></path><path d="M227.54,660.62a1.45,1.45,0,0,1-.67-.13.84.84,0,0,1-.39-.35,1,1,0,0,1-.13-.47.87.87,0,0,1,.34-.71,1.6,1.6,0,0,1,1-.27h.81v-.08a.59.59,0,0,0-.19-.48.73.73,0,0,0-.45-.14.75.75,0,0,0-.43.11.46.46,0,0,0-.23.35h-.8a1.07,1.07,0,0,1,.24-.6,1.44,1.44,0,0,1,.51-.39,1.8,1.8,0,0,1,.71-.14,1.61,1.61,0,0,1,1.07.33,1.24,1.24,0,0,1,.38,1v1.94h-.69l-.08-.51a1.26,1.26,0,0,1-.4.43,1.15,1.15,0,0,1-.64.16Zm.18-.64a.69.69,0,0,0,.54-.22,1.1,1.1,0,0,0,.25-.57h-.69a.74.74,0,0,0-.47.11.38.38,0,0,0-.14.29.36.36,0,0,0,.14.29A.62.62,0,0,0,227.72,660Z" transform="translate(-177.08 -445.29)"></path><path d="M231.43,660.62a1.72,1.72,0,0,1-.74-.14,1.3,1.3,0,0,1-.51-.37,1,1,0,0,1-.22-.56h.82a.58.58,0,0,0,.21.31.66.66,0,0,0,.44.13.59.59,0,0,0,.39-.1.31.31,0,0,0,.13-.25.29.29,0,0,0-.18-.28,2.42,2.42,0,0,0-.5-.14l-.41-.1a2.3,2.3,0,0,1-.39-.17.84.84,0,0,1-.28-.25.71.71,0,0,1-.1-.39.91.91,0,0,1,.33-.71,1.66,1.66,0,0,1,1.83,0,1.09,1.09,0,0,1,.4.72h-.77c0-.23-.22-.35-.53-.35a.58.58,0,0,0-.35.09.26.26,0,0,0-.12.22c0,.09.06.16.18.22a3.7,3.7,0,0,0,.49.15c.22,0,.42.1.61.16a.94.94,0,0,1,.43.27.73.73,0,0,1,.17.52.91.91,0,0,1-.15.53,1,1,0,0,1-.45.37,1.91,1.91,0,0,1-.71.13Z" transform="translate(-177.08 -445.29)"></path><path d="M234.78,660.55a1.23,1.23,0,0,1-.8-.24,1.05,1.05,0,0,1-.3-.86v-1.38h-.54v-.68h.54l.1-.85h.72v.85h.85v.68h-.85v1.39a.43.43,0,0,0,.09.31.54.54,0,0,0,.35.09h.39v.69Z" transform="translate(-177.08 -445.29)"></path><path d="M237.5,660.62a1.84,1.84,0,0,1-.85-.2,1.49,1.49,0,0,1-.57-.57,1.67,1.67,0,0,1-.21-.85,1.81,1.81,0,0,1,.21-.87,1.5,1.5,0,0,1,.57-.6,1.69,1.69,0,0,1,.86-.21,1.73,1.73,0,0,1,.83.2,1.67,1.67,0,0,1,.56.56,1.63,1.63,0,0,1,.2.79V659a.92.92,0,0,1,0,.16h-2.4a.86.86,0,0,0,.25.58.83.83,0,0,0,.56.21.75.75,0,0,0,.43-.12.71.71,0,0,0,.25-.29H239a1.56,1.56,0,0,1-.3.55,1.45,1.45,0,0,1-.5.38,1.55,1.55,0,0,1-.69.14Zm0-2.64a.85.85,0,0,0-.52.16.75.75,0,0,0-.29.51h1.57a.68.68,0,0,0-.23-.5.77.77,0,0,0-.53-.18Z" transform="translate(-177.08 -445.29)"></path><path d="M239.78,660.55V657.4h.72l.08.59a1.47,1.47,0,0,1,.47-.49,1.33,1.33,0,0,1,.7-.18v.86h-.23a1.16,1.16,0,0,0-.47.08.62.62,0,0,0-.33.29,1.13,1.13,0,0,0-.11.57v1.43h-.83Z" transform="translate(-177.08 -445.29)"></path><path d="M245.33,660.62a1.64,1.64,0,0,1-.82-.21,1.47,1.47,0,0,1-.58-.58,1.78,1.78,0,0,1-.21-.87,1.65,1.65,0,0,1,2.45-1.45,1.56,1.56,0,0,1,.58.59,1.71,1.71,0,0,1,.21.86,1.81,1.81,0,0,1-.21.87,1.56,1.56,0,0,1-.59.58A1.65,1.65,0,0,1,245.33,660.62Zm0-.71a.8.8,0,0,0,.56-.23,1,1,0,0,0,.23-.71,1,1,0,0,0-.23-.71.77.77,0,0,0-.55-.24.79.79,0,0,0-.56.24.94.94,0,0,0-.23.71,1,1,0,0,0,.23.71A.76.76,0,0,0,245.33,659.91Z" transform="translate(-177.08 -445.29)"></path><path d="M247.82,660.55v-2.48h-.43v-.68h.43V657a1,1,0,0,1,.29-.81,1.22,1.22,0,0,1,.79-.25h.35v.69H249a.44.44,0,0,0-.29.08c-.07,0-.09.15-.09.28v.37h.68v.68h-.68v2.48h-.83Z" transform="translate(-177.08 -445.29)"></path><path d="M251.51,660.55v-4.46h1.78a1.56,1.56,0,0,1,1.07.33,1,1,0,0,1,.36.82,1,1,0,0,1-.22.68,1.2,1.2,0,0,1-.56.34,1.07,1.07,0,0,1,.64.37,1.13,1.13,0,0,1,.24.71,1.11,1.11,0,0,1-.39.87,1.54,1.54,0,0,1-1.08.34h-1.84Zm.81-2.58h.85a.76.76,0,0,0,.53-.16.56.56,0,0,0,.18-.46.51.51,0,0,0-.18-.43.79.79,0,0,0-.55-.17h-.84V658Zm0,1.92h.91a.83.83,0,0,0,.56-.17.57.57,0,0,0,.21-.47.62.62,0,0,0-.21-.49.86.86,0,0,0-.57-.18h-.9v1.32Z" transform="translate(-177.08 -445.29)"></path><path d="M256.69,660.62a1.14,1.14,0,0,1-.91-.36,1.6,1.6,0,0,1-.33-1.09v-1.79h.81v1.71a1,1,0,0,0,.16.62.66.66,0,0,0,.53.22.73.73,0,0,0,.56-.24,1,1,0,0,0,.22-.68v-1.63h.82v3.16h-.72l-.06-.54a1.21,1.21,0,0,1-.42.45,1.28,1.28,0,0,1-.65.16Z" transform="translate(-177.08 -445.29)"></path><path d="M260.69,660.62a1.72,1.72,0,0,1-.74-.14,1.23,1.23,0,0,1-.51-.37,1.12,1.12,0,0,1-.23-.56H260a.49.49,0,0,0,.21.31.66.66,0,0,0,.44.13.61.61,0,0,0,.39-.1.3.3,0,0,0,.12-.25.28.28,0,0,0-.17-.28,2.62,2.62,0,0,0-.5-.14l-.41-.1a2,2,0,0,1-.39-.17.84.84,0,0,1-.28-.25.71.71,0,0,1-.11-.39.91.91,0,0,1,.34-.71,1.39,1.39,0,0,1,.94-.29,1.43,1.43,0,0,1,.89.26,1,1,0,0,1,.39.72h-.77c0-.23-.22-.35-.52-.35a.58.58,0,0,0-.35.09.27.27,0,0,0-.13.22c0,.09.06.16.19.22a3.7,3.7,0,0,0,.49.15c.22,0,.42.1.6.16a.92.92,0,0,1,.44.27.73.73,0,0,1,.17.52,1,1,0,0,1-.15.53,1.07,1.07,0,0,1-.46.37,1.84,1.84,0,0,1-.71.13Z" transform="translate(-177.08 -445.29)"></path><path d="M263.17,656.9a.57.57,0,0,1-.37-.13.48.48,0,0,1,0-.68.59.59,0,0,1,.74,0,.46.46,0,0,1,.14.34.49.49,0,0,1-.14.34A.57.57,0,0,1,263.17,656.9Zm-.41,3.64v-3.15h.82v3.15Z" transform="translate(-177.08 -445.29)"></path><path d="M264.42,660.55V657.4h.72l.06.53a1.18,1.18,0,0,1,.42-.44,1.2,1.2,0,0,1,.66-.17,1.14,1.14,0,0,1,.91.37,1.55,1.55,0,0,1,.33,1.08v1.79h-.82v-1.71a.94.94,0,0,0-.17-.62A.61.61,0,0,0,266,658a.68.68,0,0,0-.56.25.92.92,0,0,0-.22.67v1.63h-.82Z" transform="translate(-177.08 -445.29)"></path><path d="M269.83,660.62a1.81,1.81,0,0,1-.85-.2,1.45,1.45,0,0,1-.58-.57,1.67,1.67,0,0,1-.21-.85,1.81,1.81,0,0,1,.21-.87,1.5,1.5,0,0,1,.57-.6,1.75,1.75,0,0,1,.87-.21,1.66,1.66,0,0,1,.82.2,1.58,1.58,0,0,1,.56.56,1.53,1.53,0,0,1,.21.79V659a.92.92,0,0,1,0,.16H269a.82.82,0,0,0,.25.58.81.81,0,0,0,.56.21.7.7,0,0,0,.42-.12.73.73,0,0,0,.26-.29h.83a1.56,1.56,0,0,1-.3.55,1.48,1.48,0,0,1-.51.38,1.51,1.51,0,0,1-.68.14Zm0-2.64a.88.88,0,0,0-.53.16.78.78,0,0,0-.28.51h1.56a.64.64,0,0,0-.22-.5.79.79,0,0,0-.53-.18Z" transform="translate(-177.08 -445.29)"></path><path d="M273.42,660.62a1.72,1.72,0,0,1-.74-.14,1.23,1.23,0,0,1-.51-.37,1.12,1.12,0,0,1-.23-.56h.83a.49.49,0,0,0,.21.31.66.66,0,0,0,.44.13.61.61,0,0,0,.39-.1.3.3,0,0,0,.12-.25.28.28,0,0,0-.17-.28,2.62,2.62,0,0,0-.5-.14l-.41-.1a2,2,0,0,1-.39-.17.84.84,0,0,1-.28-.25.71.71,0,0,1-.11-.39.91.91,0,0,1,.34-.71,1.39,1.39,0,0,1,.94-.29,1.43,1.43,0,0,1,.89.26,1.09,1.09,0,0,1,.4.72h-.78c0-.23-.22-.35-.52-.35a.58.58,0,0,0-.35.09.27.27,0,0,0-.13.22c0,.09.07.16.19.22a3.7,3.7,0,0,0,.49.15c.22,0,.42.1.6.16a.92.92,0,0,1,.44.27.73.73,0,0,1,.17.52.91.91,0,0,1-.15.53,1.07,1.07,0,0,1-.46.37,1.84,1.84,0,0,1-.71.13Z" transform="translate(-177.08 -445.29)"></path><path d="M276.76,660.62a1.72,1.72,0,0,1-.74-.14,1.23,1.23,0,0,1-.51-.37,1.12,1.12,0,0,1-.23-.56h.83a.49.49,0,0,0,.21.31.66.66,0,0,0,.44.13.61.61,0,0,0,.39-.1.3.3,0,0,0,.12-.25.28.28,0,0,0-.17-.28,2.62,2.62,0,0,0-.5-.14l-.41-.1a2.3,2.3,0,0,1-.39-.17.84.84,0,0,1-.28-.25.71.71,0,0,1-.1-.39.91.91,0,0,1,.33-.71,1.39,1.39,0,0,1,.94-.29,1.43,1.43,0,0,1,.89.26,1.09,1.09,0,0,1,.4.72h-.78c0-.23-.22-.35-.52-.35a.58.58,0,0,0-.35.09.27.27,0,0,0-.13.22c0,.09.07.16.19.22a3.7,3.7,0,0,0,.49.15c.22,0,.42.1.6.16a.92.92,0,0,1,.44.27.73.73,0,0,1,.17.52.91.91,0,0,1-.15.53,1.07,1.07,0,0,1-.46.37,1.84,1.84,0,0,1-.71.13Z" transform="translate(-177.08 -445.29)"></path><path d="M280,660.55l1.63-4.46h.93l1.63,4.46h-.87l-.36-1h-1.74l-.37,1Zm1.44-1.66h1.3l-.65-1.85-.64,1.85Z" transform="translate(-177.08 -445.29)"></path><path d="M286.09,660.62a1.44,1.44,0,0,1-.8-.22,1.52,1.52,0,0,1-.56-.59,1.75,1.75,0,0,1-.2-.85,1.78,1.78,0,0,1,.2-.85,1.67,1.67,0,0,1,.56-.59,1.52,1.52,0,0,1,.8-.21,1.38,1.38,0,0,1,.62.13,1.12,1.12,0,0,1,.43.38V656H288v4.58h-.73l-.08-.45a1.64,1.64,0,0,1-.41.37,1.23,1.23,0,0,1-.65.15Zm.17-.71a.85.85,0,0,0,.65-.26.91.91,0,0,0,.25-.67.94.94,0,0,0-.25-.68.89.89,0,0,0-.65-.26.87.87,0,0,0-.64.26.94.94,0,0,0-.25.68,1,1,0,0,0,.25.68.89.89,0,0,0,.64.27Z" transform="translate(-177.08 -445.29)"></path><path d="M288.79,660.55V657.4h.72l.07.43a1.33,1.33,0,0,1,.41-.37,1.18,1.18,0,0,1,.58-.14,1.06,1.06,0,0,1,1,.57,1.07,1.07,0,0,1,.46-.41,1.27,1.27,0,0,1,.63-.15,1.19,1.19,0,0,1,.95.37,1.55,1.55,0,0,1,.33,1.08v1.79h-.81v-1.71a1,1,0,0,0-.16-.62.56.56,0,0,0-.48-.22.66.66,0,0,0-.54.25,1,1,0,0,0-.2.67v1.63H291v-1.71a1.07,1.07,0,0,0-.16-.62.59.59,0,0,0-.49-.22.63.63,0,0,0-.53.25,1,1,0,0,0-.2.67v1.63h-.81Z" transform="translate(-177.08 -445.29)"></path><path d="M295.2,656.9a.57.57,0,0,1-.37-.13.48.48,0,0,1,0-.68.52.52,0,0,1,.37-.13.51.51,0,0,1,.37.13.42.42,0,0,1,.14.34.45.45,0,0,1-.14.34A.55.55,0,0,1,295.2,656.9Zm-.4,3.64v-3.15h.82v3.15Z" transform="translate(-177.08 -445.29)"></path><path d="M296.47,660.55V657.4h.71l.07.53a1,1,0,0,1,.42-.44,1.33,1.33,0,0,1,1.57.2,1.55,1.55,0,0,1,.32,1.08v1.79h-.81v-1.71a1,1,0,0,0-.17-.62.63.63,0,0,0-.52-.22.68.68,0,0,0-.56.25.92.92,0,0,0-.22.67v1.63h-.81Z" transform="translate(-177.08 -445.29)"></path><path d="M300.78,656.9a.57.57,0,0,1-.37-.13.48.48,0,0,1,0-.68.59.59,0,0,1,.74,0,.46.46,0,0,1,.14.34.49.49,0,0,1-.14.34A.57.57,0,0,1,300.78,656.9Zm-.4,3.64v-3.15h.81v3.15Z" transform="translate(-177.08 -445.29)"></path><path d="M303.34,660.62a1.72,1.72,0,0,1-.74-.14,1.3,1.3,0,0,1-.51-.37,1,1,0,0,1-.22-.56h.82a.58.58,0,0,0,.21.31.7.7,0,0,0,.44.13.59.59,0,0,0,.39-.1.31.31,0,0,0,.13-.25.27.27,0,0,0-.18-.28,2.42,2.42,0,0,0-.5-.14l-.41-.1a2.3,2.3,0,0,1-.39-.17.84.84,0,0,1-.28-.25.71.71,0,0,1-.1-.39.91.91,0,0,1,.33-.71,1.66,1.66,0,0,1,1.83,0,1.09,1.09,0,0,1,.4.72h-.77c-.05-.23-.22-.35-.53-.35a.58.58,0,0,0-.35.09.26.26,0,0,0-.12.22c0,.09.06.16.18.22a3.7,3.7,0,0,0,.49.15c.22,0,.42.1.61.16a1,1,0,0,1,.44.27.77.77,0,0,1,.16.52.91.91,0,0,1-.15.53,1,1,0,0,1-.45.37,1.91,1.91,0,0,1-.71.13Z" transform="translate(-177.08 -445.29)"></path><path d="M306.69,660.55a1.25,1.25,0,0,1-.8-.24,1.05,1.05,0,0,1-.3-.86v-1.38h-.54v-.68h.54l.1-.85h.72v.85h.85v.68h-.85v1.39a.43.43,0,0,0,.09.31.54.54,0,0,0,.35.09h.39v.69Z" transform="translate(-177.08 -445.29)"></path><path d="M308,660.55V657.4h.73l.08.59a1.44,1.44,0,0,1,.46-.49,1.33,1.33,0,0,1,.7-.18v.86h-.23a1.19,1.19,0,0,0-.47.08.6.6,0,0,0-.32.29,1.12,1.12,0,0,0-.12.57v1.43H308Z" transform="translate(-177.08 -445.29)"></path><path d="M311.57,660.62a1.41,1.41,0,0,1-.66-.13.84.84,0,0,1-.39-.35.88.88,0,0,1-.13-.47.85.85,0,0,1,.34-.71,1.6,1.6,0,0,1,1-.27h.8v-.08a.59.59,0,0,0-.18-.48.86.86,0,0,0-.89,0,.51.51,0,0,0-.23.35h-.79a1,1,0,0,1,.23-.6,1.48,1.48,0,0,1,.52-.39,1.8,1.8,0,0,1,.71-.14,1.56,1.56,0,0,1,1.06.33,1.21,1.21,0,0,1,.39,1v1.94h-.7l-.07-.51a1.26,1.26,0,0,1-.4.43,1.16,1.16,0,0,1-.65.16Zm.19-.64a.71.71,0,0,0,.54-.22,1.19,1.19,0,0,0,.25-.57h-.7a.69.69,0,0,0-.46.11.35.35,0,0,0-.14.29.33.33,0,0,0,.14.29A.6.6,0,0,0,311.76,660Z" transform="translate(-177.08 -445.29)"></path><path d="M315.53,660.55a1.23,1.23,0,0,1-.8-.24,1.05,1.05,0,0,1-.3-.86v-1.38h-.54v-.68h.54l.1-.85h.72v.85h.85v.68h-.85v1.39a.43.43,0,0,0,.09.31.51.51,0,0,0,.34.09h.4v.69Z" transform="translate(-177.08 -445.29)"></path><path d="M317.24,656.9a.55.55,0,0,1-.36-.13.48.48,0,0,1,0-.68.5.5,0,0,1,.36-.13.51.51,0,0,1,.37.13.42.42,0,0,1,.14.34.45.45,0,0,1-.14.34A.55.55,0,0,1,317.24,656.9Zm-.4,3.64v-3.15h.82v3.15Z" transform="translate(-177.08 -445.29)"></path><path d="M320,660.62a1.65,1.65,0,0,1-.83-.21,1.54,1.54,0,0,1-.58-.58,1.78,1.78,0,0,1-.21-.87,1.63,1.63,0,0,1,.81-1.45,1.61,1.61,0,0,1,.82-.21,1.59,1.59,0,0,1,.82.21,1.56,1.56,0,0,1,.58.59,1.71,1.71,0,0,1,.21.86,1.81,1.81,0,0,1-.21.87,1.56,1.56,0,0,1-.59.58A1.64,1.64,0,0,1,320,660.62Zm0-.71a.78.78,0,0,0,.55-.23,1,1,0,0,0,.23-.71.94.94,0,0,0-.23-.71A.75.75,0,0,0,320,658a.79.79,0,0,0-.56.24,1,1,0,0,0-.22.71,1,1,0,0,0,.22.71A.77.77,0,0,0,320,659.91Z" transform="translate(-177.08 -445.29)"></path><path d="M322.36,660.55V657.4h.72l.07.53a1,1,0,0,1,.42-.44,1.33,1.33,0,0,1,1.57.2,1.6,1.6,0,0,1,.32,1.08v1.79h-.82v-1.71a1,1,0,0,0-.16-.62A.63.63,0,0,0,324,658a.68.68,0,0,0-.56.25.92.92,0,0,0-.22.67v1.63h-.82Z" transform="translate(-177.08 -445.29)"></path><path d="M248.59,669.78H229.33a8.92,8.92,0,0,0-8.92,8.92V698a8.92,8.92,0,0,0,8.92,8.92h19.26a8.92,8.92,0,0,0,8.92-8.92V678.7A8.92,8.92,0,0,0,248.59,669.78Z" transform="translate(-177.08 -445.29)" style="fill: #293b4a"></path><path d="M497.36,669.75h-23a4.28,4.28,0,0,0-4.28,4.27v28.54a4.28,4.28,0,0,0,4.28,4.27h23a4.27,4.27,0,0,0,4.27-4.27V674A4.27,4.27,0,0,0,497.36,669.75Z" transform="translate(-177.08 -445.29)" style="fill: #f1f3f5"></path><path d="M486,681.67,488,683l2.41-.36,1.34,2,2.35.65.39,2.4,1.89,1.55-.62,2.35,1.09,2.18-1.52,1.9.11,2.43-2.16,1.12-.88,2.26-2.43.15-1.74,1.71-2.28-.86-2.28.86L482,701.63l-2.43-.15-.9-2.26-2.15-1.12.11-2.43-1.52-1.9,1.09-2.18-.61-2.35,1.87-1.55.4-2.4,2.35-.65,1.34-2,2.4.36Z" transform="translate(-177.08 -445.29)" style="fill: #19ad4a"></path><path d="M490.56,688h-9.69v1.62h9.69Z" transform="translate(-177.08 -445.29)" style="fill: #fff"></path><path d="M490.56,690.69h-9.69v1.62h9.69Z" transform="translate(-177.08 -445.29)" style="fill: #fff"></path><path d="M485.27,693.65h-4.4v1.63h4.4Z" transform="translate(-177.08 -445.29)" style="fill: #fff"></path><path d="M485.27,696.31h-4.4v1.62h4.4Z" transform="translate(-177.08 -445.29)" style="fill: #fff"></path><path d="M488.44,697.9l-2.73-3.1,1.22-1.07,1.43,1.63,2.77-3.56,1.28,1Z" transform="translate(-177.08 -445.29)" style="fill: #fff"></path><path d="M496.56,678.12H475.15a.4.4,0,0,1-.41-.4.41.41,0,0,1,.41-.4h21.41a.39.39,0,0,1,.4.4A.4.4,0,0,1,496.56,678.12Z" transform="translate(-177.08 -445.29)" style="fill: #293b4a"></path><path d="M391.16,685H336.37a.4.4,0,0,1-.41-.4.41.41,0,0,1,.41-.4h54.79a.4.4,0,0,1,.41.4A.41.41,0,0,1,391.16,685Z" transform="translate(-177.08 -445.29)" style="fill: #293b4a"></path><path d="M238.84,699.53l-.18-.09c-.38-.19-9.14-4.53-9.07-12.7l0-6.07,4,0a.34.34,0,0,0,.31-.12.44.44,0,0,0,.13-.31l0-3.12,9.9.09,0,3.12a.45.45,0,0,0,.12.31.49.49,0,0,0,.31.13l4,0,0,6.08c-.07,8.15-8.91,12.36-9.29,12.54Zm-8.39-18,0,5.26c-.06,7,7.22,11.22,8.45,11.87,1.23-.63,8.58-4.69,8.64-11.72l0-5.26-3.15,0a1.25,1.25,0,0,1-1.24-1.25v-2.31l-8.27-.07v2.3a1.27,1.27,0,0,1-.38.88,1.14,1.14,0,0,1-.89.36Z" transform="translate(-177.08 -445.29)" style="fill: #fff"></path><path d="M242.48,686.69a4.25,4.25,0,0,0-7,0l-.68-.46a5.08,5.08,0,0,1,8.4,0Z" transform="translate(-177.08 -445.29)" style="fill: #fff"></path><path d="M243.14,689.46h-8.35v.82h8.35Z" transform="translate(-177.08 -445.29)" style="fill: #fff"></path><path d="M250,694.86h-3.91v.82H250Z" transform="translate(-177.08 -445.29)" style="fill: #fff"></path><path d="M231.74,694.86H227.9v.82h3.84Z" transform="translate(-177.08 -445.29)" style="fill: #fff"></path><path d="M220.8,627.81h49.64a9.68,9.68,0,0,1,9.67,9.67v9.25h-69v-9.25a9.67,9.67,0,0,1,9.67-9.67Z" transform="translate(-177.08 -445.29)" style="fill: #293b4a"></path><path d="M229.67,640.76a2.49,2.49,0,0,1-1-.21,1.82,1.82,0,0,1-.71-.57,1.74,1.74,0,0,1-.27-.92h1a.86.86,0,0,0,.27.63.93.93,0,0,0,.71.25,1,1,0,0,0,.62-.18.6.6,0,0,0,.23-.5.65.65,0,0,0-.2-.51,1.62,1.62,0,0,0-.54-.3l-.72-.24a2.3,2.3,0,0,1-.94-.56,1.21,1.21,0,0,1-.33-.89,1.39,1.39,0,0,1,.23-.82,1.57,1.57,0,0,1,.64-.52,2.27,2.27,0,0,1,.93-.19,2.24,2.24,0,0,1,.95.2,1.53,1.53,0,0,1,.64.53,1.55,1.55,0,0,1,.24.82h-1a.68.68,0,0,0-.22-.5.76.76,0,0,0-.59-.22.82.82,0,0,0-.54.16.55.55,0,0,0-.22.47.52.52,0,0,0,.17.42,1.37,1.37,0,0,0,.45.26l.67.23a4.87,4.87,0,0,1,.73.32,1.53,1.53,0,0,1,.52.49,1.39,1.39,0,0,1,.2.78,1.52,1.52,0,0,1-.21.78,1.62,1.62,0,0,1-.63.58,2.28,2.28,0,0,1-1,.21Z" transform="translate(-177.08 -445.29)" style="fill: #fff"></path><path d="M234.08,640.66a1.5,1.5,0,0,1-1-.29,1.25,1.25,0,0,1-.36-1v-1.65h-.65v-.82h.65l.12-1h.86v1h1v.82h-1v1.65a.45.45,0,0,0,.13.38.63.63,0,0,0,.41.11h.47v.83h-.67Z" transform="translate(-177.08 -445.29)" style="fill: #fff"></path><path d="M236.91,640.76a1.88,1.88,0,0,1-.81-.16,1.07,1.07,0,0,1-.61-1,1.07,1.07,0,0,1,.41-.86,1.93,1.93,0,0,1,1.24-.33h1v-.09a.68.68,0,0,0-.22-.57.85.85,0,0,0-.55-.19,1,1,0,0,0-.52.14.64.64,0,0,0-.27.43h-1a1.29,1.29,0,0,1,.29-.72,1.5,1.5,0,0,1,.62-.48,2.31,2.31,0,0,1,.86-.16,1.91,1.91,0,0,1,1.28.4,1.47,1.47,0,0,1,.46,1.15v2.33h-.83l-.09-.61a1.49,1.49,0,0,1-.47.5,1.32,1.32,0,0,1-.77.21Zm.22-.77a.81.81,0,0,0,.66-.27,1.36,1.36,0,0,0,.29-.68h-.83a.84.84,0,0,0-.56.14.44.44,0,0,0-.17.35.4.4,0,0,0,.17.34.75.75,0,0,0,.45.12Z" transform="translate(-177.08 -445.29)" style="fill: #fff"></path><path d="M240,640.66v-3.8h.87l.08.64a1.3,1.3,0,0,1,.51-.53,1.51,1.51,0,0,1,.78-.2,1.39,1.39,0,0,1,1.09.44,1.87,1.87,0,0,1,.4,1.3v2.14h-1v-2a1.18,1.18,0,0,0-.21-.75.74.74,0,0,0-.62-.26.86.86,0,0,0-.67.29,1.15,1.15,0,0,0-.27.81v1.95h-1Z" transform="translate(-177.08 -445.29)" style="fill: #fff"></path><path d="M246.4,640.76a1.7,1.7,0,0,1-1-.27,1.91,1.91,0,0,1-.67-.71,2.13,2.13,0,0,1-.24-1,2.11,2.11,0,0,1,.24-1,1.88,1.88,0,0,1,.67-.7,1.69,1.69,0,0,1,1-.25,1.73,1.73,0,0,1,.75.15,1.5,1.5,0,0,1,.52.45v-2.23h1v5.5h-.87l-.11-.54a1.87,1.87,0,0,1-.48.44,1.41,1.41,0,0,1-.78.2Zm.21-.86a1,1,0,0,0,.78-.32,1.29,1.29,0,0,0,0-1.63,1.12,1.12,0,0,0-1.55,0,1.13,1.13,0,0,0-.3.81,1.14,1.14,0,0,0,.3.81A1.05,1.05,0,0,0,246.61,639.9Z" transform="translate(-177.08 -445.29)" style="fill: #fff"></path><path d="M251,640.76a1.87,1.87,0,0,1-.8-.16,1.14,1.14,0,0,1-.47-.42,1.16,1.16,0,0,1-.15-.57,1,1,0,0,1,.42-.86,1.92,1.92,0,0,1,1.23-.33h1v-.09a.68.68,0,0,0-.22-.57.88.88,0,0,0-.56-.19,1,1,0,0,0-.51.14.6.6,0,0,0-.27.43h-1a1.28,1.28,0,0,1,.28-.72,1.65,1.65,0,0,1,.62-.48,2.39,2.39,0,0,1,.86-.16,1.87,1.87,0,0,1,1.28.4,1.44,1.44,0,0,1,.47,1.15v2.33h-.84l-.08-.61a1.63,1.63,0,0,1-.48.5,1.3,1.3,0,0,1-.77.21Zm.22-.77a.81.81,0,0,0,.66-.27,1.29,1.29,0,0,0,.3-.68h-.83a.87.87,0,0,0-.57.14.43.43,0,0,0-.16.35.39.39,0,0,0,.16.34.79.79,0,0,0,.45.12Z" transform="translate(-177.08 -445.29)" style="fill: #fff"></path><path d="M254.06,640.66v-3.8h.87l.09.71a1.73,1.73,0,0,1,.56-.58,1.55,1.55,0,0,1,.84-.22v1h-.27a1.7,1.7,0,0,0-.57.1.85.85,0,0,0-.39.34,1.32,1.32,0,0,0-.14.68v1.73h-1Z" transform="translate(-177.08 -445.29)" style="fill: #fff"></path><path d="M258.77,640.76a1.74,1.74,0,0,1-1-.27,1.91,1.91,0,0,1-.67-.71,2.13,2.13,0,0,1-.24-1,2.11,2.11,0,0,1,.24-1,1.88,1.88,0,0,1,.67-.7,1.72,1.72,0,0,1,1-.25,1.68,1.68,0,0,1,.74.15,1.42,1.42,0,0,1,.52.45v-2.23h1v5.5h-.87l-.1-.54a1.92,1.92,0,0,1-.49.44,1.41,1.41,0,0,1-.78.2Zm.21-.86a1,1,0,0,0,.77-.32,1.26,1.26,0,0,0,0-1.63,1,1,0,0,0-.77-.31,1,1,0,0,0-.78.31,1.13,1.13,0,0,0-.3.81,1.14,1.14,0,0,0,.3.81A1.07,1.07,0,0,0,259,639.9Z" transform="translate(-177.08 -445.29)" style="fill: #fff"></path><g style="opacity: 0.5"><path d="M574.62,546.83H565.7a1.92,1.92,0,0,0-1.93,1.92v8.92a1.92,1.92,0,0,0,1.93,1.92h8.92a1.92,1.92,0,0,0,1.92-1.92v-8.92A1.92,1.92,0,0,0,574.62,546.83Z" transform="translate(-177.08 -445.29)" style="fill: #14c763"></path><path d="M574.61,559.81H565.7a2.15,2.15,0,0,1-2.15-2.15v-8.91a2.14,2.14,0,0,1,2.15-2.14h8.91a2.14,2.14,0,0,1,2.14,2.14v8.91A2.15,2.15,0,0,1,574.61,559.81ZM565.7,547a1.71,1.71,0,0,0-1.71,1.71v8.9a1.71,1.71,0,0,0,1.71,1.71h8.91a1.72,1.72,0,0,0,1.71-1.71v-8.9a1.72,1.72,0,0,0-1.71-1.71Z" transform="translate(-177.08 -445.29)" style="fill: #19ad4a"></path></g><path d="M570.15,556.88l-.15-.07c-.15-.08-3.78-1.93-3.78-5.1a13.73,13.73,0,0,0,5.74-2.13,2.13,2.13,0,0,1,2.13,2.13c0,3.17-3.63,5-3.79,5.1Zm-1.8-6.64a1.47,1.47,0,0,0-1.48,1.47c0,2.43,2.62,4.06,3.28,4.43.66-.37,3.28-2,3.28-4.43a1.47,1.47,0,1,0-2.94,0h-.66a1.47,1.47,0,0,0-1.47-1.47Z" transform="translate(-177.08 -445.29)" style="fill: #19ad4a"></path><g style="opacity: 0.5"><path d="M574.62,654.12H565.7a1.92,1.92,0,0,0-1.93,1.93V665a1.92,1.92,0,0,0,1.93,1.93h8.92a1.92,1.92,0,0,0,1.92-1.93v-8.91A1.92,1.92,0,0,0,574.62,654.12Z" transform="translate(-177.08 -445.29)" style="fill: #14c763"></path><path d="M574.61,667.11H565.7a2.15,2.15,0,0,1-2.15-2.15v-8.9a2.15,2.15,0,0,1,2.15-2.15h8.91a2.14,2.14,0,0,1,2.14,2.15V665A2.15,2.15,0,0,1,574.61,667.11Zm-8.91-12.77a1.71,1.71,0,0,0-1.71,1.71V665a1.71,1.71,0,0,0,1.71,1.71h8.91a1.72,1.72,0,0,0,1.71-1.71v-8.9a1.72,1.72,0,0,0-1.71-1.71Z" transform="translate(-177.08 -445.29)" style="fill: #19ad4a"></path></g><path d="M570.15,664.17l-.15-.07c-.15-.08-3.78-1.93-3.78-5.1a2.13,2.13,0,0,1,3.93-1.13,2.17,2.17,0,0,1,1.81-1,2.14,2.14,0,0,1,2.13,2.13c0,3.17-3.63,5-3.79,5.1Zm-1.8-6.64a1.47,1.47,0,0,0-1.48,1.47c0,2.43,2.62,4.06,3.28,4.44.66-.37,3.28-2,3.28-4.44a1.47,1.47,0,1,0-2.94,0h-.66a1.47,1.47,0,0,0-1.47-1.47Z" transform="translate(-177.08 -445.29)" style="fill: #19ad4a"></path></g></g><g style="clip-path: url(#clip-path-2)"><g><path d="M602.58,657.29a61.5,61.5,0,1,0-61.5-61.5A61.5,61.5,0,0,0,602.58,657.29Z" transform="translate(-177.08 -445.29)" style="fill: #f1f3f5"></path><path d="M602.6,619.88a23.31,23.31,0,1,0-23.31-23.31A23.31,23.31,0,0,0,602.6,619.88Z" transform="translate(-177.08 -445.29)" style="fill: #19ad4a"></path><path d="M623.54,574.12l-46.77,48,1.34,1.32,46.78-47.95Z" transform="translate(-177.08 -445.29)" style="fill: #263441"></path><path d="M632,592.36,632,567l-25.42.09v-1.89l27.32-.09.06,27.28Z" transform="translate(-177.08 -445.29)" style="fill: #263441"></path></g></g></g></svg>