<svg xmlns="http://www.w3.org/2000/svg" xmlns:xlink="http://www.w3.org/1999/xlink" id="Layer_1" data-name="Layer 1" viewBox="0 0 519 313.26"><defs><clipPath id="clip-path" transform="translate(-161.08 -438.66)"><rect x="161.08" y="438.66" width="462" height="313.26" style="fill: none"></rect></clipPath><clipPath id="clip-path-2" transform="translate(-161.08 -438.66)"><rect x="557.08" y="561.66" width="123" height="123" style="fill: none"></rect></clipPath></defs><g><g style="clip-path: url(#clip-path)"><g><path d="M604.74,438.66H231.67A18.35,18.35,0,0,0,213.32,457v276.6a18.35,18.35,0,0,0,18.35,18.33H604.74a18.34,18.34,0,0,0,18.34-18.33V457A18.34,18.34,0,0,0,604.74,438.66Z" transform="translate(-161.08 -438.66)" style="fill: #e6e6e6"></path><path d="M602.51,445.32H233.9a13.34,13.34,0,0,0-13.35,13.33V731.92a13.34,13.34,0,0,0,13.35,13.33H602.51a13.34,13.34,0,0,0,13.35-13.33V458.65A13.34,13.34,0,0,0,602.51,445.32Z" transform="translate(-161.08 -438.66)" style="fill: #fff"></path><path d="M571.93,462.9a3.55,3.55,0,1,0-3.55-3.55A3.55,3.55,0,0,0,571.93,462.9Z" transform="translate(-161.08 -438.66)" style="fill: #4e6fff"></path><path d="M558.58,462.9a3.55,3.55,0,1,0-3.55-3.55A3.55,3.55,0,0,0,558.58,462.9Z" transform="translate(-161.08 -438.66)" style="fill: #ff340c"></path><path d="M598.65,462.9a3.55,3.55,0,1,0-3.55-3.55A3.55,3.55,0,0,0,598.65,462.9Z" transform="translate(-161.08 -438.66)" style="fill: #19ad4a"></path><path d="M585.29,462.9a3.55,3.55,0,1,0-3.56-3.55A3.55,3.55,0,0,0,585.29,462.9Z" transform="translate(-161.08 -438.66)" style="fill: #fc0"></path><path d="M548.79,608.48H346.23V612H548.79Z" transform="translate(-161.08 -438.66)" style="fill: #e6e6e6"></path><path d="M548.79,619.45H346.23V623H548.79Z" transform="translate(-161.08 -438.66)" style="fill: #e6e6e6"></path><path d="M530.68,630.43H346.23V634H530.68Z" transform="translate(-161.08 -438.66)" style="fill: #e6e6e6"></path><path d="M325.86,610.26H282.54a5.41,5.41,0,0,0-5.42,5.41V626.8a5.41,5.41,0,0,0,5.42,5.41h43.32a5.41,5.41,0,0,0,5.41-5.41V615.67A5.41,5.41,0,0,0,325.86,610.26Z" transform="translate(-161.08 -438.66)" style="fill: #e6e6e6"></path><path d="M251.63,632.85l-.19-.09c-.39-.19-9.47-4.69-9.4-13.15l.05-6.29,4.14,0a.46.46,0,0,0,.3-.12.42.42,0,0,0,.12-.29l0-3.26,10.29.09V613a.42.42,0,0,0,.42.43l4.13,0-.06,6.3c-.07,8.46-9.22,12.81-9.62,13l-.19.09ZM243,614.21l0,5.4c-.06,7.24,7.4,11.54,8.7,12.24,1.32-.67,8.85-4.85,8.91-12.09l0-5.42-3.24,0A1.32,1.32,0,0,1,256,613v-2.36l-8.49-.08v2.37a1.42,1.42,0,0,1-.41.93,1.29,1.29,0,0,1-.91.37h0l-3.24,0Z" transform="translate(-161.08 -438.66)" style="fill: #293b4a"></path><path d="M258.48,618.78H245v.89h13.46Z" transform="translate(-161.08 -438.66)" style="fill: #293b4a"></path><path d="M256.08,622.91h-8.64v.9h8.64Z" transform="translate(-161.08 -438.66)" style="fill: #293b4a"></path><path d="M548.79,694.37H346.23v3.57H548.79Z" transform="translate(-161.08 -438.66)" style="fill: #e6e6e6"></path><path d="M548.79,705.35H346.23v3.57H548.79Z" transform="translate(-161.08 -438.66)" style="fill: #e6e6e6"></path><path d="M530.68,716.33H346.23v3.57H530.68Z" transform="translate(-161.08 -438.66)" style="fill: #e6e6e6"></path><path d="M325.86,696.16H282.54a5.41,5.41,0,0,0-5.42,5.41V712.7a5.41,5.41,0,0,0,5.42,5.41h43.32a5.41,5.41,0,0,0,5.41-5.41V701.57A5.41,5.41,0,0,0,325.86,696.16Z" transform="translate(-161.08 -438.66)" style="fill: #e6e6e6"></path><path d="M251.63,718.75l-.19-.09c-.39-.19-9.47-4.69-9.4-13.15l.05-6.29,4.14,0a.52.52,0,0,0,.3-.12.42.42,0,0,0,.12-.3l0-3.25,10.29.09v3.25a.42.42,0,0,0,.42.43l4.13,0-.06,6.3c-.07,8.45-9.22,12.81-9.62,13l-.19.09ZM243,700.11l0,5.4c-.06,7.23,7.4,11.54,8.7,12.24,1.32-.67,8.85-4.85,8.91-12.09l0-5.42-3.24,0a1.32,1.32,0,0,1-1.31-1.33v-2.37l-8.49-.07v2.37a1.42,1.42,0,0,1-.41.92,1.3,1.3,0,0,1-.91.38h0l-3.24,0Z" transform="translate(-161.08 -438.66)" style="fill: #293b4a"></path><path d="M258.48,704.67H245v.9h13.46Z" transform="translate(-161.08 -438.66)" style="fill: #293b4a"></path><path d="M256.08,708.81h-8.64v.89h8.64Z" transform="translate(-161.08 -438.66)" style="fill: #293b4a"></path><path d="M548.79,565.52H346.23v3.57H548.79Z" transform="translate(-161.08 -438.66)" style="fill: #e6e6e6"></path><path d="M548.79,576.5H346.23v3.57H548.79Z" transform="translate(-161.08 -438.66)" style="fill: #e6e6e6"></path><path d="M530.68,587.48H346.23V591H530.68Z" transform="translate(-161.08 -438.66)" style="fill: #e6e6e6"></path><path d="M325.86,567.31H282.54a5.41,5.41,0,0,0-5.42,5.41v11.13a5.41,5.41,0,0,0,5.42,5.41h43.32a5.41,5.41,0,0,0,5.41-5.41V572.72A5.41,5.41,0,0,0,325.86,567.31Z" transform="translate(-161.08 -438.66)" style="fill: #e6e6e6"></path><path d="M251.63,589.89l-.18-.09c-.39-.18-9.47-4.69-9.4-13.14l0-6.29,4.13,0a.45.45,0,0,0,.43-.42l0-3.25,10.29.09,0,3.25a.43.43,0,0,0,.42.43l4.14,0-.06,6.31c-.07,8.45-9.23,12.8-9.61,13l-.2.09ZM243,571.26l-.05,5.4c-.06,7.23,7.4,11.54,8.7,12.24,1.32-.67,8.85-4.86,8.91-12.1l.05-5.41-3.24,0a1.3,1.3,0,0,1-1.31-1.32v-2.37l-8.49-.07V570a1.34,1.34,0,0,1-1.33,1.31h0l-3.24,0Z" transform="translate(-161.08 -438.66)" style="fill: #293b4a"></path><path d="M255.38,576.62a4.37,4.37,0,0,0-7.24,0l-.75-.5a5.29,5.29,0,0,1,8.73,0Z" transform="translate(-161.08 -438.66)" style="fill: #293b4a"></path><path d="M256.09,579.43h-8.64v.9h8.64Z" transform="translate(-161.08 -438.66)" style="fill: #293b4a"></path><path d="M263.2,585h-4v.89h4Z" transform="translate(-161.08 -438.66)" style="fill: #293b4a"></path><path d="M244.3,585h-4v.89h4Z" transform="translate(-161.08 -438.66)" style="fill: #293b4a"></path><path d="M548.79,651.42H346.23V655H548.79Z" transform="translate(-161.08 -438.66)" style="fill: #e6e6e6"></path><path d="M548.79,662.4H346.23V666H548.79Z" transform="translate(-161.08 -438.66)" style="fill: #e6e6e6"></path><path d="M530.68,673.38H346.23v3.56H530.68Z" transform="translate(-161.08 -438.66)" style="fill: #e6e6e6"></path><path d="M325.86,653.21H282.54a5.41,5.41,0,0,0-5.42,5.41v11.13a5.41,5.41,0,0,0,5.42,5.41h43.32a5.41,5.41,0,0,0,5.41-5.41V658.62A5.41,5.41,0,0,0,325.86,653.21Z" transform="translate(-161.08 -438.66)" style="fill: #e6e6e6"></path><path d="M251.63,675.62l-.19-.09c-.39-.18-9.33-4.62-9.26-12.94l0-5.76h.89l-.05,5.76c-.06,7.13,7.28,11.36,8.56,12,1.3-.67,8.71-4.78,8.77-11.89l0-5.76h.9l0,5.77c-.07,8.32-9.09,12.61-9.48,12.79l-.19.09Zm5.24-19.53H256v-2.33l-8.35-.07V656h-.9v-3.22l10.15.09Z" transform="translate(-161.08 -438.66)" style="fill: #293b4a"></path><path d="M255.07,666.2h-5.54v-.89h3.4l-4.47-4.5H254v.89h-3.4Z" transform="translate(-161.08 -438.66)" style="fill: #293b4a"></path><path d="M259.87,674.69H243.63v.89h16.24Z" transform="translate(-161.08 -438.66)" style="fill: #293b4a"></path><path d="M259,655.64H244.53v.89H259Z" transform="translate(-161.08 -438.66)" style="fill: #293b4a"></path><g><path d="M531.24,479.38H184a22.85,22.85,0,0,0-22.87,22.84v9.13A22.86,22.86,0,0,0,184,534.2H531.24a22.86,22.86,0,0,0,22.87-22.85v-9.13A22.85,22.85,0,0,0,531.24,479.38Z" transform="translate(-161.08 -438.66)" style="fill: #f1f3f5"></path><path d="M219.24,503.5H185a2.21,2.21,0,0,0-2.22,2.22v.88a2.21,2.21,0,0,0,2.22,2.22h34.25a2.21,2.21,0,0,0,2.22-2.22v-.88A2.21,2.21,0,0,0,219.24,503.5Z" transform="translate(-161.08 -438.66)" style="fill: #1cb454"></path><path d="M246,504a4.33,4.33,0,0,0-.89-1.41,5,5,0,0,0-3.7-1.28h-5l-.47,2.69H237l-.09.57-.9,5.05-.48,2.73h4.17a7.22,7.22,0,0,0,3.44-.81,5.9,5.9,0,0,0,2.1-1.93c.08-.11.15-.24.23-.36a6.72,6.72,0,0,0,.83-3.31A5.46,5.46,0,0,0,246,504Zm-3.09,4a2.74,2.74,0,0,1-1.13,1.18,3.68,3.68,0,0,1-1.86.43H239l1-5.59h1a2.48,2.48,0,0,1,1.73.5,2.1,2.1,0,0,1,.51,1.57,4.4,4.4,0,0,1-.39,1.91Z" transform="translate(-161.08 -438.66)" style="fill: #293b4a"></path><path d="M276.68,504.25l-.19,1.09h3.72l-.5,2.87H276l-.22,1.23h4.14l-.52,2.92h-7.45l2-11h7.46l-.55,2.93Z" transform="translate(-161.08 -438.66)" style="fill: #293b4a"></path><path d="M261.64,501.32l-.48,2.69-.1.57-.89,5.05-.49,2.73h-3.31l.49-2.73.89-5.05.11-.57h-1l.48-2.68h4.27Z" transform="translate(-161.08 -438.66)" style="fill: #293b4a"></path><path d="M255.48,507a3.66,3.66,0,0,0,.82-2.42,2.84,2.84,0,0,0-.05-.58,3.27,3.27,0,0,0-.37-1,3.08,3.08,0,0,0-1.28-1.22,4.19,4.19,0,0,0-2-.44h-5.32l-.47,2.69h.82l-.1.57-.89,5.05-.48,2.73h3.31l.48-2.73.18-1h.72l.3,1,.8,2.73h3.53l-.86-2.73-.49-1.55a4,4,0,0,0,1.37-1.08Zm-2.6-1.26a1.66,1.66,0,0,1-1.14.37h-1.51l.37-2.1h1.67a1.22,1.22,0,0,1,.79.21.75.75,0,0,1,.22.56,1.15,1.15,0,0,1-.39,1Z" transform="translate(-161.08 -438.66)" style="fill: #293b4a"></path><path d="M273.61,501.32,272.15,504l-3.06,5.62-1.48,2.73h-3.23l-.52-2.73-.95-5.05-.11-.57h-1l.47-2.65v0h3.45l.46,2.69.58,3.4,1.79-3.4,1.41-2.69Z" transform="translate(-161.08 -438.66)" style="fill: #293b4a"></path><path d="M293,512.53a3.6,3.6,0,0,1-1.83-.45,3.26,3.26,0,0,1-1.25-1.25,3.73,3.73,0,0,1-.46-1.85,3.79,3.79,0,0,1,.46-1.85,3.26,3.26,0,0,1,1.25-1.25,3.87,3.87,0,0,1,4,.22,3.08,3.08,0,0,1,1.13,1.86h-1.85a1.37,1.37,0,0,0-.53-.77,1.69,1.69,0,0,0-2.18.27,2.11,2.11,0,0,0-.51,1.51,2.15,2.15,0,0,0,.51,1.52A1.63,1.63,0,0,0,293,511a1.66,1.66,0,0,0,.95-.27,1.36,1.36,0,0,0,.53-.78h1.85a3.14,3.14,0,0,1-1.13,1.85,3.47,3.47,0,0,1-2.19.69Z" transform="translate(-161.08 -438.66)" style="fill: #293b4a"></path><path d="M301.13,512.53a3.48,3.48,0,0,1-1.77-.45,3.28,3.28,0,0,1-1.24-1.24,3.74,3.74,0,0,1-.45-1.86,3.6,3.6,0,0,1,.46-1.85,3.26,3.26,0,0,1,1.25-1.25,3.44,3.44,0,0,1,1.77-.46,3.4,3.4,0,0,1,1.76.46,3.31,3.31,0,0,1,1.24,1.25,3.7,3.7,0,0,1,.45,1.85,3.74,3.74,0,0,1-.45,1.86,3.38,3.38,0,0,1-1.25,1.24A3.43,3.43,0,0,1,301.13,512.53Zm0-1.52a1.6,1.6,0,0,0,1.19-.51,2.08,2.08,0,0,0,.51-1.53,2.05,2.05,0,0,0-.51-1.52,1.61,1.61,0,0,0-1.18-.51,1.64,1.64,0,0,0-1.2.51,2.09,2.09,0,0,0-.5,1.52,2.13,2.13,0,0,0,.5,1.53A1.6,1.6,0,0,0,301.13,511Z" transform="translate(-161.08 -438.66)" style="fill: #293b4a"></path><path d="M308.71,512.53a2.52,2.52,0,0,1-2-.79,3.45,3.45,0,0,1-.68-2.32v-3.83h1.74v3.66a2.18,2.18,0,0,0,.35,1.34,1.33,1.33,0,0,0,1.13.46,1.55,1.55,0,0,0,1.2-.52,2.1,2.1,0,0,0,.47-1.44v-3.5h1.75v6.78h-1.55l-.13-1.15a2.31,2.31,0,0,1-.91.95,2.6,2.6,0,0,1-1.38.36Z" transform="translate(-161.08 -438.66)" style="fill: #293b4a"></path><path d="M314.47,512.36v-6.78H316l.16,1.27a2.79,2.79,0,0,1,2.5-1.44v1.85h-.49a2.74,2.74,0,0,0-1,.18,1.36,1.36,0,0,0-.71.61,2.46,2.46,0,0,0-.25,1.22v3.08h-1.75Z" transform="translate(-161.08 -438.66)" style="fill: #293b4a"></path><path d="M322.7,512.53a4.1,4.1,0,0,1-1.59-.29,2.69,2.69,0,0,1-1.09-.82,2.25,2.25,0,0,1-.49-1.2h1.76a1.18,1.18,0,0,0,.45.68,1.46,1.46,0,0,0,.94.27,1.3,1.3,0,0,0,.84-.23.67.67,0,0,0,.26-.53.58.58,0,0,0-.38-.6,5.63,5.63,0,0,0-1.06-.3c-.3-.07-.59-.15-.89-.24a3.44,3.44,0,0,1-.83-.34,1.8,1.8,0,0,1-.61-.55,1.45,1.45,0,0,1-.23-.83,1.94,1.94,0,0,1,.71-1.51,3,3,0,0,1,2-.62,3.06,3.06,0,0,1,1.92.56,2.3,2.3,0,0,1,.85,1.55h-1.65c-.1-.5-.48-.75-1.13-.75a1.28,1.28,0,0,0-.76.19.55.55,0,0,0-.27.48c0,.19.14.35.4.48a6.29,6.29,0,0,0,1.05.33c.47.11.91.23,1.3.36a2.27,2.27,0,0,1,.95.59,1.6,1.6,0,0,1,.35,1.12,1.87,1.87,0,0,1-.33,1.13,2.22,2.22,0,0,1-1,.79,3.7,3.7,0,0,1-1.51.29Z" transform="translate(-161.08 -438.66)" style="fill: #293b4a"></path><path d="M330.36,512.53a3.66,3.66,0,0,1-1.82-.44,3.19,3.19,0,0,1-1.24-1.23,3.62,3.62,0,0,1-.45-1.83,4,4,0,0,1,.44-1.87,3.27,3.27,0,0,1,1.23-1.27,3.62,3.62,0,0,1,1.86-.46,3.45,3.45,0,0,1,1.77.44,3.09,3.09,0,0,1,1.19,1.19,3.35,3.35,0,0,1,.43,1.69v.31c0,.11,0,.22,0,.34H328.6a1.76,1.76,0,0,0,.56,1.24,1.75,1.75,0,0,0,1.21.45,1.55,1.55,0,0,0,.89-.24,1.41,1.41,0,0,0,.54-.62h1.78a3.22,3.22,0,0,1-1.74,2,3.57,3.57,0,0,1-1.47.3Zm0-5.68a1.8,1.8,0,0,0-1.13.37,1.64,1.64,0,0,0-.63,1.09H332a1.48,1.48,0,0,0-.49-1.06,1.69,1.69,0,0,0-1.13-.39Z" transform="translate(-161.08 -438.66)" style="fill: #293b4a"></path><path d="M338,512.53a4.14,4.14,0,0,1-1.59-.29,2.76,2.76,0,0,1-1.09-.82,2.25,2.25,0,0,1-.49-1.2h1.77a1.11,1.11,0,0,0,.44.68,1.5,1.5,0,0,0,.94.27,1.28,1.28,0,0,0,.84-.23.68.68,0,0,0,.27-.53.59.59,0,0,0-.39-.6,5.21,5.21,0,0,0-1.06-.3l-.89-.24a3.61,3.61,0,0,1-.83-.34,1.8,1.8,0,0,1-.61-.55,1.45,1.45,0,0,1-.23-.83,1.94,1.94,0,0,1,.71-1.51,3.59,3.59,0,0,1,3.94-.06,2.35,2.35,0,0,1,.86,1.55H339c-.1-.5-.49-.75-1.14-.75a1.28,1.28,0,0,0-.76.19.56.56,0,0,0-.26.48q0,.29.39.48a7,7,0,0,0,1.05.33c.48.11.91.23,1.31.36a2.23,2.23,0,0,1,.94.59,1.6,1.6,0,0,1,.36,1.12,1.94,1.94,0,0,1-.33,1.13,2.22,2.22,0,0,1-1,.79,3.75,3.75,0,0,1-1.52.29Z" transform="translate(-161.08 -438.66)" style="fill: #293b4a"></path><path d="M348.93,512.53a3.48,3.48,0,0,1-1.77-.45,3.21,3.21,0,0,1-1.24-1.24,3.74,3.74,0,0,1-.45-1.86,3.6,3.6,0,0,1,.46-1.85,3.26,3.26,0,0,1,1.25-1.25,3.44,3.44,0,0,1,1.77-.46,3.4,3.4,0,0,1,1.76.46,3.31,3.31,0,0,1,1.24,1.25,3.7,3.7,0,0,1,.45,1.85,3.74,3.74,0,0,1-.45,1.86,3.38,3.38,0,0,1-1.25,1.24A3.43,3.43,0,0,1,348.93,512.53Zm0-1.52a1.62,1.62,0,0,0,1.19-.51,2.08,2.08,0,0,0,.51-1.53,2.05,2.05,0,0,0-.51-1.52,1.64,1.64,0,0,0-2.38,0,2.09,2.09,0,0,0-.5,1.52,2.13,2.13,0,0,0,.5,1.53A1.6,1.6,0,0,0,348.93,511Z" transform="translate(-161.08 -438.66)" style="fill: #293b4a"></path><path d="M354,512.36v-6.78h1.55l.13,1.15a2.31,2.31,0,0,1,.91-1,2.68,2.68,0,0,1,1.4-.36,2.47,2.47,0,0,1,2,.8,3.41,3.41,0,0,1,.7,2.31v3.83h-1.75V508.7a2.13,2.13,0,0,0-.36-1.33,1.29,1.29,0,0,0-1.11-.47,1.55,1.55,0,0,0-1.21.52,2,2,0,0,0-.47,1.44v3.5Z" transform="translate(-161.08 -438.66)" style="fill: #293b4a"></path><path d="M362.27,512.36v-9.84H364v9.84Z" transform="translate(-161.08 -438.66)" style="fill: #293b4a"></path><path d="M366.66,515.37l1.57-3.46h-.41l-2.64-6.33h1.9l1.9,4.77,2-4.77h1.86l-4.31,9.79Z" transform="translate(-161.08 -438.66)" style="fill: #293b4a"></path><path d="M443.49,509.77a2.31,2.31,0,0,1-1.44-.44,1.68,1.68,0,0,1-.67-1.19h.84a1.1,1.1,0,0,0,.4.66,1.27,1.27,0,0,0,.88.28,1.08,1.08,0,0,0,.76-.22.71.71,0,0,0,.24-.53.59.59,0,0,0-.32-.59,3.7,3.7,0,0,0-.89-.26,4.93,4.93,0,0,1-.79-.22,1.65,1.65,0,0,1-.65-.41.94.94,0,0,1-.27-.7,1.34,1.34,0,0,1,.48-1,1.89,1.89,0,0,1,1.28-.4,2,2,0,0,1,1.27.38,1.55,1.55,0,0,1,.57,1.1h-.81a.86.86,0,0,0-.32-.58,1.14,1.14,0,0,0-.72-.21,1.12,1.12,0,0,0-.68.18.6.6,0,0,0-.24.49.5.5,0,0,0,.31.46,3.27,3.27,0,0,0,.84.28,7,7,0,0,1,.85.25,1.52,1.52,0,0,1,.66.41,1.18,1.18,0,0,1,.26.81,1.38,1.38,0,0,1-.49,1.08,2,2,0,0,1-1.36.42Z" transform="translate(-161.08 -438.66)" style="fill: #d1d2d3"></path><path d="M448.73,509.77a2.45,2.45,0,0,1-1.23-.32,2.15,2.15,0,0,1-.86-.88,2.64,2.64,0,0,1-.33-1.34,2.57,2.57,0,0,1,.33-1.33,2.19,2.19,0,0,1,.87-.89,2.55,2.55,0,0,1,1.23-.31A2.5,2.5,0,0,1,450,505a2.19,2.19,0,0,1,.87.89,2.94,2.94,0,0,1,0,2.67,2.19,2.19,0,0,1-.88.88A2.4,2.4,0,0,1,448.73,509.77Zm0-.71a1.66,1.66,0,0,0,.79-.2,1.54,1.54,0,0,0,.59-.62,2.11,2.11,0,0,0,.22-1,2.07,2.07,0,0,0-.22-1,1.52,1.52,0,0,0-.58-.62,1.61,1.61,0,0,0-.77-.2,1.72,1.72,0,0,0-.79.2,1.61,1.61,0,0,0-.59.62,2.07,2.07,0,0,0-.22,1,2.11,2.11,0,0,0,.22,1,1.54,1.54,0,0,0,.59.62A1.57,1.57,0,0,0,448.73,509.06Z" transform="translate(-161.08 -438.66)" style="fill: #d1d2d3"></path><path d="M452.3,509.65v-4.84H453l.08.93a1.62,1.62,0,0,1,.68-.76,2.14,2.14,0,0,1,1.14-.29v.86h-.23a2.06,2.06,0,0,0-.79.15,1.24,1.24,0,0,0-.58.51,2,2,0,0,0-.22,1v2.44Z" transform="translate(-161.08 -438.66)" style="fill: #d1d2d3"></path><path d="M457.77,509.65a1.59,1.59,0,0,1-1-.32,1.48,1.48,0,0,1-.38-1.16V505.5h-.84v-.69h.84l.1-1.16h.72v1.16h1.43v.69h-1.43v2.67a.75.75,0,0,0,.19.61,1,1,0,0,0,.65.16h.51v.71Z" transform="translate(-161.08 -438.66)" style="fill: #d1d2d3"></path><path d="M464.8,509.77a2.16,2.16,0,0,1-1.06-.25,1.67,1.67,0,0,1-.71-.68l-.08.81h-.74v-7H463v3a2.15,2.15,0,0,1,.67-.63,2,2,0,0,1,1.11-.29,2.37,2.37,0,0,1,1.26.33,2.46,2.46,0,0,1,.84.91,2.9,2.9,0,0,1,.29,1.31,2.86,2.86,0,0,1-.29,1.3,2.28,2.28,0,0,1-.84.9,2.4,2.4,0,0,1-1.27.33Zm-.09-.72a1.54,1.54,0,0,0,.86-.23,1.66,1.66,0,0,0,.59-.64,2.09,2.09,0,0,0,.21-1,2,2,0,0,0-.21-1,1.59,1.59,0,0,0-.59-.64,1.65,1.65,0,0,0-.86-.23,1.62,1.62,0,0,0-.86.23,1.66,1.66,0,0,0-.59.64,2.28,2.28,0,0,0,0,1.91,1.58,1.58,0,0,0,1.45.87Z" transform="translate(-161.08 -438.66)" style="fill: #d1d2d3"></path><path d="M468.49,511.8l1.2-2.61h-.28l-1.93-4.37h.89l1.6,3.76,1.69-3.76h.85l-3.18,7h-.84Z" transform="translate(-161.08 -438.66)" style="fill: #d1d2d3"></path><path d="M532.88,498.08h-47a4.57,4.57,0,0,0-4.58,4.57v8.15a4.57,4.57,0,0,0,4.58,4.57h47a4.57,4.57,0,0,0,4.58-4.57v-8.15A4.57,4.57,0,0,0,532.88,498.08Z" transform="translate(-161.08 -438.66)" style="fill: #fff"></path><path d="M532.89,515.81h-47a5,5,0,0,1-5-5v-8.14a5,5,0,0,1,5-5h47a5,5,0,0,1,5,5v8.14A5,5,0,0,1,532.89,515.81Zm-47-17.3a4.14,4.14,0,0,0-4.13,4.13v8.14a4.14,4.14,0,0,0,4.13,4.13h47a4.14,4.14,0,0,0,4.13-4.13v-8.14a4.14,4.14,0,0,0-4.13-4.13Z" transform="translate(-161.08 -438.66)" style="fill: #f1f3f5"></path><path d="M487.41,509.65v-6.83h2.2a2.81,2.81,0,0,1,1.32.27,1.74,1.74,0,0,1,.75.72,2.13,2.13,0,0,1,.24,1,2,2,0,0,1-.35,1.15,1.93,1.93,0,0,1-1.08.74l1.49,2.93h-1l-1.39-2.82h-1.41v2.82h-.81Zm.82-3.46h1.33a1.53,1.53,0,0,0,1.15-.38,1.37,1.37,0,0,0,.37-1,1.31,1.31,0,0,0-.36-1,1.59,1.59,0,0,0-1.17-.36h-1.32Z" transform="translate(-161.08 -438.66)" style="fill: #d1d2d3"></path><path d="M495,509.77a2.31,2.31,0,0,1-1.23-.33,2.25,2.25,0,0,1-.85-.88,2.79,2.79,0,0,1-.3-1.34,2.74,2.74,0,0,1,.3-1.32,2.24,2.24,0,0,1,.85-.9,2.48,2.48,0,0,1,1.26-.32,2.23,2.23,0,0,1,1.21.32,2.19,2.19,0,0,1,.79.84,2.41,2.41,0,0,1,.28,1.12v.45h-3.86a1.89,1.89,0,0,0,.26.92,1.52,1.52,0,0,0,.58.55,1.46,1.46,0,0,0,.74.19,1.52,1.52,0,0,0,.85-.23,1.42,1.42,0,0,0,.5-.63h.81a2.17,2.17,0,0,1-.75,1.11,2.24,2.24,0,0,1-1.41.45Zm0-4.38a1.61,1.61,0,0,0-1,.35,1.42,1.42,0,0,0-.52,1.05h3a1.39,1.39,0,0,0-.44-1A1.51,1.51,0,0,0,495,505.39Z" transform="translate(-161.08 -438.66)" style="fill: #d1d2d3"></path><path d="M498.41,509.65v-7h.82v7Z" transform="translate(-161.08 -438.66)" style="fill: #d1d2d3"></path><path d="M502.75,509.77a2.31,2.31,0,0,1-1.23-.33,2.25,2.25,0,0,1-.85-.88,2.79,2.79,0,0,1-.3-1.34,2.74,2.74,0,0,1,.3-1.32,2.3,2.3,0,0,1,.85-.9,2.48,2.48,0,0,1,1.26-.32,2.18,2.18,0,0,1,2,1.16,2.41,2.41,0,0,1,.28,1.12v.45H501.2a1.89,1.89,0,0,0,.26.92,1.52,1.52,0,0,0,.58.55,1.46,1.46,0,0,0,.74.19,1.49,1.49,0,0,0,.85-.23,1.42,1.42,0,0,0,.5-.63h.81a2.11,2.11,0,0,1-.75,1.11,2.22,2.22,0,0,1-1.41.45Zm0-4.38a1.61,1.61,0,0,0-1,.35,1.46,1.46,0,0,0-.52,1.05h3.05a1.4,1.4,0,0,0-.45-1A1.51,1.51,0,0,0,502.75,505.39Z" transform="translate(-161.08 -438.66)" style="fill: #d1d2d3"></path><path d="M507.33,509.65l-1.84-4.84h.86l1.46,4.05,1.46-4.05h.84l-1.84,4.84h-.94Z" transform="translate(-161.08 -438.66)" style="fill: #d1d2d3"></path><path d="M512.39,509.77a2.25,2.25,0,0,1-1-.21,1.38,1.38,0,0,1-.6-.54,1.4,1.4,0,0,1-.2-.74,1.32,1.32,0,0,1,.56-1.14,2.64,2.64,0,0,1,1.55-.41H514v-.06a1.3,1.3,0,0,0-.33-1,1.21,1.21,0,0,0-.89-.33,1.37,1.37,0,0,0-.82.24,1.06,1.06,0,0,0-.44.69h-.84a1.54,1.54,0,0,1,.36-.89,2,2,0,0,1,.76-.55,2.71,2.71,0,0,1,1-.19,2,2,0,0,1,1.52.55,2,2,0,0,1,.51,1.43v3h-.73l0-.86a2,2,0,0,1-.6.69,1.81,1.81,0,0,1-1.07.29Zm.13-.7a1.33,1.33,0,0,0,.8-.24,1.57,1.57,0,0,0,.51-.63,2,2,0,0,0,.18-.82h-1.24a1.53,1.53,0,0,0-1,.24.76.76,0,0,0-.29.61.78.78,0,0,0,.27.61A1.24,1.24,0,0,0,512.52,509.07Z" transform="translate(-161.08 -438.66)" style="fill: #d1d2d3"></path><path d="M516.06,509.65v-4.84h.74l.05.86a2,2,0,0,1,3-.46,2.21,2.21,0,0,1,.51,1.6v2.83h-.82V506.9c0-1-.42-1.51-1.25-1.51a1.34,1.34,0,0,0-1,.45,1.85,1.85,0,0,0-.42,1.3v2.5h-.81Z" transform="translate(-161.08 -438.66)" style="fill: #d1d2d3"></path><path d="M523.88,509.77a2.37,2.37,0,0,1-1.24-.33,2.17,2.17,0,0,1-.86-.89,2.6,2.6,0,0,1-.33-1.33,2.56,2.56,0,0,1,.33-1.32,2.33,2.33,0,0,1,.86-.9,2.49,2.49,0,0,1,1.24-.32,2.32,2.32,0,0,1,1.45.45,2,2,0,0,1,.75,1.2h-.84a1,1,0,0,0-.48-.69,1.65,1.65,0,0,0-1.66-.05,1.54,1.54,0,0,0-.59.62,2.07,2.07,0,0,0-.23,1,2.11,2.11,0,0,0,.23,1,1.54,1.54,0,0,0,.59.62,1.5,1.5,0,0,0,.76.21,1.6,1.6,0,0,0,.9-.25,1.09,1.09,0,0,0,.48-.7h.84a1.93,1.93,0,0,1-.74,1.18,2.32,2.32,0,0,1-1.46.46Z" transform="translate(-161.08 -438.66)" style="fill: #d1d2d3"></path><path d="M529.4,509.77a2.26,2.26,0,0,1-1.23-.33,2.18,2.18,0,0,1-.85-.88,2.68,2.68,0,0,1-.3-1.34,2.63,2.63,0,0,1,.3-1.32,2.17,2.17,0,0,1,.85-.9,2.43,2.43,0,0,1,1.26-.32,2.23,2.23,0,0,1,1.21.32,2.1,2.1,0,0,1,.78.84,2.41,2.41,0,0,1,.28,1.12v.45h-3.85a1.79,1.79,0,0,0,.25.92,1.6,1.6,0,0,0,.58.55,1.52,1.52,0,0,0,.75.19,1.48,1.48,0,0,0,.84-.23,1.3,1.3,0,0,0,.5-.63h.82a2.15,2.15,0,0,1-2.16,1.56Zm0-4.38a1.66,1.66,0,0,0-1,.35,1.42,1.42,0,0,0-.51,1.05h3a1.4,1.4,0,0,0-.45-1A1.46,1.46,0,0,0,529.4,505.39Z" transform="translate(-161.08 -438.66)" style="fill: #d1d2d3"></path><path d="M408.86,497.16h-15a9.63,9.63,0,1,0,0,19.26h15a9.63,9.63,0,1,0,0-19.26Zm0,17.12a7.49,7.49,0,1,1,7.5-7.49A7.49,7.49,0,0,1,408.86,514.28Z" transform="translate(-161.08 -438.66)" style="fill: #19ad4a"></path><path d="M408.86,515.12a8.33,8.33,0,1,0-8.34-8.33A8.34,8.34,0,0,0,408.86,515.12Z" transform="translate(-161.08 -438.66)" style="fill: #fff"></path></g></g></g><g style="clip-path: url(#clip-path-2)"><g><path d="M618.58,684.66a61.5,61.5,0,1,0-61.5-61.5A61.5,61.5,0,0,0,618.58,684.66Z" transform="translate(-161.08 -438.66)" style="fill: #f1f3f5"></path><path d="M618.6,647.25a23.31,23.31,0,1,0-23.31-23.31A23.31,23.31,0,0,0,618.6,647.25Z" transform="translate(-161.08 -438.66)" style="fill: #19ad4a"></path><path d="M639.54,601.5l-46.77,47.94,1.34,1.32,46.78-48Z" transform="translate(-161.08 -438.66)" style="fill: #263441"></path><path d="M648,619.73,648,594.34l-25.42.09v-1.88l27.32-.09.06,27.27Z" transform="translate(-161.08 -438.66)" style="fill: #263441"></path></g></g></g></svg>