<svg xmlns="http://www.w3.org/2000/svg" xmlns:xlink="http://www.w3.org/1999/xlink" id="Layer_1" data-name="Layer 1" viewBox="0 0 462 355.63"><defs><clipPath id="clip-path" transform="translate(-190.17 -427.29)"><rect x="190.17" y="427.29" width="462" height="355.62" style="fill: none"></rect></clipPath></defs><g style="clip-path: url(#clip-path)"><g><path d="M576.33,477.93H213.48a17.84,17.84,0,0,0-17.84,17.84V765.08a17.84,17.84,0,0,0,17.84,17.84H576.33a17.84,17.84,0,0,0,17.84-17.84V495.77A17.84,17.84,0,0,0,576.33,477.93Z" transform="translate(-190.17 -427.29)" style="fill: #f1f3f5"></path><path d="M574.17,484.42H215.65a13,13,0,0,0-13,13V763.45a13,13,0,0,0,13,13H574.17a13,13,0,0,0,13-13V497.4A13,13,0,0,0,574.17,484.42Z" transform="translate(-190.17 -427.29)" style="fill: #fff"></path><path d="M544.42,501.53a3.46,3.46,0,1,0-3.45-3.46A3.46,3.46,0,0,0,544.42,501.53Z" transform="translate(-190.17 -427.29)" style="fill: #19ad4a"></path><path d="M531.44,501.53a3.46,3.46,0,1,0-3.46-3.46A3.46,3.46,0,0,0,531.44,501.53Z" transform="translate(-190.17 -427.29)" style="fill: #19ad4a"></path><path d="M570.41,501.53a3.46,3.46,0,1,0-3.46-3.46A3.45,3.45,0,0,0,570.41,501.53Z" transform="translate(-190.17 -427.29)" style="fill: #19ad4a"></path><path d="M557.41,501.53a3.46,3.46,0,1,0-3.45-3.46A3.46,3.46,0,0,0,557.41,501.53Z" transform="translate(-190.17 -427.29)" style="fill: #19ad4a"></path><path d="M592.68,689.27a59.49,59.49,0,1,0-59.48-59.49A59.49,59.49,0,0,0,592.68,689.27Z" transform="translate(-190.17 -427.29)" style="fill: #f1f3f5"></path><path d="M588.92,652.27a21.81,21.81,0,1,0-21.81-21.8A21.8,21.8,0,0,0,588.92,652.27Z" transform="translate(-190.17 -427.29)" style="fill: #fc0"></path><path d="M601.79,639.11l-8.65-8.64,8.65-8.65,8.65,8.65Zm-6.14-8.64,6.14,6.14,6.15-6.14-6.15-6.15Z" transform="translate(-190.17 -427.29)" style="fill: #263441"></path><path d="M602.67,602.09h-1.76v12.66h1.76Z" transform="translate(-190.17 -427.29)" style="fill: #263441"></path><path d="M602.67,646.19h-1.76v12.66h1.76Z" transform="translate(-190.17 -427.29)" style="fill: #263441"></path><path d="M585.46,612.9l-1.25,1.25,5.86,5.86,1.24-1.25Z" transform="translate(-190.17 -427.29)" style="fill: #263441"></path><path d="M613.53,641l-1.24,1.25,5.85,5.86,1.25-1.25Z" transform="translate(-190.17 -427.29)" style="fill: #263441"></path><path d="M586.07,629.59h-19v1.76h19Z" transform="translate(-190.17 -427.29)" style="fill: #263441"></path><path d="M630.17,629.59H617.51v1.76h12.66Z" transform="translate(-190.17 -427.29)" style="fill: #263441"></path><path d="M590.05,641l-5.86,5.85,1.25,1.25,5.85-5.86Z" transform="translate(-190.17 -427.29)" style="fill: #263441"></path><path d="M618.1,612.9l-5.82,5.83,1.24,1.24,5.83-5.82Z" transform="translate(-190.17 -427.29)" style="fill: #263441"></path><path d="M472.38,727.29H250.67V735H472.38Z" transform="translate(-190.17 -427.29)" style="fill: #f1f3f5"></path><path d="M228.16,738.88a7.76,7.76,0,1,0-7.75-7.76A7.75,7.75,0,0,0,228.16,738.88Z" transform="translate(-190.17 -427.29)" style="fill: #f1f3f5"></path><path d="M472.38,698.59H250.67v7.68H472.38Z" transform="translate(-190.17 -427.29)" style="fill: #f1f3f5"></path><path d="M228.16,710.17a7.75,7.75,0,1,0-7.75-7.75A7.75,7.75,0,0,0,228.16,710.17Z" transform="translate(-190.17 -427.29)" style="fill: #f1f3f5"></path><path d="M472.38,669.87H250.67v7.69H472.38Z" transform="translate(-190.17 -427.29)" style="fill: #f1f3f5"></path><path d="M228.16,681.46a7.75,7.75,0,1,0-7.75-7.75A7.75,7.75,0,0,0,228.16,681.46Z" transform="translate(-190.17 -427.29)" style="fill: #f1f3f5"></path><path d="M472.38,641.17H250.67v7.69H472.38Z" transform="translate(-190.17 -427.29)" style="fill: #f1f3f5"></path><path d="M228.16,652.76a7.75,7.75,0,1,0-7.75-7.75A7.75,7.75,0,0,0,228.16,652.76Z" transform="translate(-190.17 -427.29)" style="fill: #19ad4a"></path><path d="M253.34,521.93H203a12.82,12.82,0,0,0-12.81,12.82V585.1A12.81,12.81,0,0,0,203,597.91h50.36a12.81,12.81,0,0,0,12.81-12.81V534.75A12.82,12.82,0,0,0,253.34,521.93Z" transform="translate(-190.17 -427.29)" style="fill: #00b705"></path><path d="M228.16,629.83l-10.53-31.92h21.05l-10.53,31.92Z" transform="translate(-190.17 -427.29)" style="fill: #00b705"></path><path d="M229.8,539.13H209.33a2.77,2.77,0,0,0-2.77,2.77v2.33a2.77,2.77,0,0,0,2.77,2.77H229.8a2.77,2.77,0,0,0,2.77-2.77V541.9A2.77,2.77,0,0,0,229.8,539.13Z" transform="translate(-190.17 -427.29)" style="fill: #fff"></path><path d="M247,554.9H209.33a2.77,2.77,0,0,0-2.77,2.77V560a2.77,2.77,0,0,0,2.77,2.77H247a2.77,2.77,0,0,0,2.77-2.77v-2.33A2.77,2.77,0,0,0,247,554.9Z" transform="translate(-190.17 -427.29)" style="fill: #fff"></path><path d="M247,570.67H209.33a2.77,2.77,0,0,0-2.77,2.77v2.33a2.77,2.77,0,0,0,2.77,2.77H247a2.77,2.77,0,0,0,2.77-2.77v-2.33A2.77,2.77,0,0,0,247,570.67Z" transform="translate(-190.17 -427.29)" style="fill: #fff"></path><path d="M338.65,547H286.31a11.51,11.51,0,0,0-11.51,11.51v27.27a11.51,11.51,0,0,0,11.51,11.52h52.34a11.51,11.51,0,0,0,11.51-11.52V558.51A11.51,11.51,0,0,0,338.65,547Z" transform="translate(-190.17 -427.29)" style="fill: #f1f3f5"></path><path d="M423.64,547H371.29a11.51,11.51,0,0,0-11.51,11.51v27.27a11.52,11.52,0,0,0,11.51,11.52h52.35a11.52,11.52,0,0,0,11.51-11.52V558.51A11.51,11.51,0,0,0,423.64,547Z" transform="translate(-190.17 -427.29)" style="fill: #f1f3f5"></path><path d="M509.58,547H457.24a11.51,11.51,0,0,0-11.51,11.51v27.27a11.51,11.51,0,0,0,11.51,11.52h52.34a11.52,11.52,0,0,0,11.52-11.52V558.51A11.51,11.51,0,0,0,509.58,547Z" transform="translate(-190.17 -427.29)" style="fill: #f1f3f5"></path><path d="M450.05,494.62H565.24c8.42,0,15.26,7.54,15.26,16.82s-6.83,16.83-15.26,16.83H450.05c-8.43,0-15.26-7.54-15.26-16.83S441.62,494.62,450.05,494.62Z" transform="translate(-190.17 -427.29)" style="fill: #fff;stroke: #293b4a;stroke-width: 1.7656400203704834px"></path><path d="M456.73,519.52a8.08,8.08,0,1,0-8.07-8.08A8.07,8.07,0,0,0,456.73,519.52Z" transform="translate(-190.17 -427.29)" style="fill: #5273fc"></path><path d="M482.18,519.52a8.08,8.08,0,1,0-8.07-8.08A8.08,8.08,0,0,0,482.18,519.52Z" transform="translate(-190.17 -427.29)" style="fill: #5273fc"></path><path d="M507.65,519.52a8.08,8.08,0,1,0-8.08-8.08A8.07,8.07,0,0,0,507.65,519.52Z" transform="translate(-190.17 -427.29)" style="fill: #5273fc"></path><path d="M558.56,519.52a8.08,8.08,0,1,0-8.08-8.08A8.07,8.07,0,0,0,558.56,519.52Z" transform="translate(-190.17 -427.29)" style="fill: #293b4a"></path><path d="M575.08,427.29h-33a8.42,8.42,0,0,0-8.41,8.42v33a8.41,8.41,0,0,0,8.41,8.41h33a8.41,8.41,0,0,0,8.41-8.41v-33A8.42,8.42,0,0,0,575.08,427.29Z" transform="translate(-190.17 -427.29)" style="fill: #ff340c"></path><path d="M558.56,498.07l-6.91-20.93h13.81Z" transform="translate(-190.17 -427.29)" style="fill: #ff340c"></path><path d="M549,461.23a3.1,3.1,0,0,1-1.75-.48,3.19,3.19,0,0,1-1.14-1.34,5.37,5.37,0,0,1,0-4,3.16,3.16,0,0,1,1.14-1.35,3.45,3.45,0,0,1,3.51,0,3.14,3.14,0,0,1,1.13,1.35,5.25,5.25,0,0,1,0,4,3.17,3.17,0,0,1-1.13,1.34A3.11,3.11,0,0,1,549,461.23Zm0-1.22a1.63,1.63,0,0,0,1.37-.7,3.15,3.15,0,0,0,.53-1.92,3.1,3.1,0,0,0-.53-1.91,1.69,1.69,0,0,0-2.74,0,3.1,3.1,0,0,0-.52,1.91,3.15,3.15,0,0,0,.52,1.92A1.63,1.63,0,0,0,549,460Zm4.25,1.09v-1c.46-.38.89-.75,1.32-1.12a12,12,0,0,0,1.14-1.09,5.94,5.94,0,0,0,.81-1.05,2,2,0,0,0,.3-1,1.32,1.32,0,0,0-.25-.81.93.93,0,0,0-.82-.35,1.07,1.07,0,0,0-.88.38,1.51,1.51,0,0,0-.29.92h-1.32a2.75,2.75,0,0,1,.36-1.35,2.15,2.15,0,0,1,.9-.82,2.92,2.92,0,0,1,1.27-.27,2.38,2.38,0,0,1,1.75.62,2.12,2.12,0,0,1,.64,1.6,2.72,2.72,0,0,1-.29,1.2,4.78,4.78,0,0,1-.73,1.12,10.47,10.47,0,0,1-1,1l-1,.87h3.21v1.11Z" transform="translate(-190.17 -427.29)" style="fill: #fff"></path></g></g></svg>