<svg xmlns="http://www.w3.org/2000/svg" xmlns:xlink="http://www.w3.org/1999/xlink" id="Layer_1" data-name="Layer 1" viewBox="0 0 448.97 295.8"><defs><clipPath id="clip-path" transform="translate(-202.1 -451.34)"><rect x="181.17" y="443.01" width="480" height="304.2" style="fill: none"></rect></clipPath></defs><g style="clip-path: url(#clip-path)"><g><path d="M618,462.8H212.8a10.7,10.7,0,0,0-10.7,10.7V699.11a10.7,10.7,0,0,0,10.7,10.7H618a10.7,10.7,0,0,0,10.7-10.7V473.5A10.7,10.7,0,0,0,618,462.8Z" transform="translate(-202.1 -451.34)" style="fill: #fff"></path><path d="M608.24,474.58H221.7a6.81,6.81,0,0,0-6.81,6.81V740.33a6.81,6.81,0,0,0,6.81,6.81H608.24a6.81,6.81,0,0,0,6.81-6.81V481.39A6.81,6.81,0,0,0,608.24,474.58Z" transform="translate(-202.1 -451.34)" style="fill: #f1f3f5"></path><path d="M264.47,514.22v-.7l.94-.8a10.66,10.66,0,0,0,.83-.79,5.08,5.08,0,0,0,.58-.75,1.5,1.5,0,0,0,.22-.73.92.92,0,0,0-.19-.58.67.67,0,0,0-.58-.25.76.76,0,0,0-.64.28,1,1,0,0,0-.21.66h-.94a1.85,1.85,0,0,1,.26-1,1.49,1.49,0,0,1,.64-.58,2.06,2.06,0,0,1,.91-.2,1.7,1.7,0,0,1,1.26.45,1.51,1.51,0,0,1,.46,1.15,2,2,0,0,1-.2.86,4,4,0,0,1-.53.81,7,7,0,0,1-.71.73c-.25.22-.5.43-.74.62h2.31v.8Zm6.85,0v-1h-2.63v-.77l2.5-3.57h1.11v3.5h.7v.84h-.7v1Zm-1.58-1.83h1.64V510Zm5.93,1.92a2.28,2.28,0,0,1-1-.2,1.73,1.73,0,0,1-.66-.56,1.82,1.82,0,0,1-.28-.83h1a.91.91,0,0,0,.33.55,1,1,0,0,0,.66.21.87.87,0,0,0,.7-.31,1.13,1.13,0,0,0,.27-.77,1.08,1.08,0,0,0-.27-.77.94.94,0,0,0-.68-.28,1,1,0,0,0-.59.17.91.91,0,0,0-.36.42h-.94l.46-3.05h2.95v.85H275l-.24,1.24a1.27,1.27,0,0,1,.45-.3,1.71,1.71,0,0,1,.65-.12,1.66,1.66,0,0,1,.95.26,1.57,1.57,0,0,1,.58.67,2,2,0,0,1,.2.9,2,2,0,0,1-.24,1,1.71,1.71,0,0,1-.68.68A1.87,1.87,0,0,1,275.67,514.31Zm5,0a2.24,2.24,0,0,1-1.26-.34,2.31,2.31,0,0,1-.82-1,3.84,3.84,0,0,1,0-2.88,2.31,2.31,0,0,1,.82-1,2.25,2.25,0,0,1,1.26-.35,2.28,2.28,0,0,1,1.27.35,2.14,2.14,0,0,1,.8,1,3.72,3.72,0,0,1,0,2.88,2.14,2.14,0,0,1-.8,1A2.27,2.27,0,0,1,280.67,514.31Zm0-.87a1.18,1.18,0,0,0,1-.5,2.22,2.22,0,0,0,.39-1.38,2.18,2.18,0,0,0-.39-1.38,1.16,1.16,0,0,0-1-.5,1.19,1.19,0,0,0-1,.5,2.24,2.24,0,0,0-.37,1.38,2.28,2.28,0,0,0,.37,1.38A1.21,1.21,0,0,0,280.67,513.44Z" transform="translate(-202.1 -451.34)" style="fill: #293b4a"></path><path d="M481.41,519.88a14.3,14.3,0,1,0-14.3-14.3A14.3,14.3,0,0,0,481.41,519.88Z" transform="translate(-202.1 -451.34)" style="fill: none;stroke: #293b4a;stroke-miterlimit: 10;stroke-width: 1.2694799900054932px"></path><path d="M485.59,499.46l-.23.38-2.86,4.62h6l-12.07,9.84a.05.05,0,0,1-.08-.07l5.61-8.91h-6l4.32-6.88h6" transform="translate(-202.1 -451.34)" style="fill: none;stroke: #293b4a;stroke-miterlimit: 10;stroke-width: 1.2694799900054932px"></path><path d="M527.25,505.58a14.3,14.3,0,1,1-14.3-14.3A14.3,14.3,0,0,1,527.25,505.58Z" transform="translate(-202.1 -451.34)" style="fill: none;stroke: #293b4a;stroke-miterlimit: 10;stroke-width: 1.2694799900054932px"></path><path d="M545.87,519.88a14.3,14.3,0,1,0-14.3-14.3A14.3,14.3,0,0,0,545.87,519.88Z" transform="translate(-202.1 -451.34)" style="fill: none;stroke: #293b4a;stroke-miterlimit: 10;stroke-width: 1.2694799900054932px"></path><path d="M513,512.74a7.17,7.17,0,1,0-7.17-7.16A7.17,7.17,0,0,0,513,512.74Z" transform="translate(-202.1 -451.34)" style="fill: none;stroke: #293b4a;stroke-miterlimit: 10;stroke-width: 1.2694799900054932px"></path><path d="M513,512.74c1.48,0,2.68-3.21,2.68-7.16s-1.2-7.17-2.68-7.17-2.68,3.21-2.68,7.17S511.48,512.74,513,512.74Z" transform="translate(-202.1 -451.34)" style="fill: none;stroke: #293b4a;stroke-miterlimit: 10;stroke-width: 1.2694799900054932px"></path><path d="M507.06,505.58h11.79" transform="translate(-202.1 -451.34)" style="fill: none;stroke: #293b4a;stroke-miterlimit: 10;stroke-width: 1.2694799900054932px"></path><path d="M246.65,519.88a14.3,14.3,0,1,0-14.3-14.3A14.3,14.3,0,0,0,246.65,519.88Z" transform="translate(-202.1 -451.34)" style="fill: #fff"></path><path d="M255,505.57c-1.33,3.19-4.75,5.05-8.38,5.05a9.48,9.48,0,0,1-6.91-3" transform="translate(-202.1 -451.34)" style="fill: none;stroke: #293b4a;stroke-miterlimit: 10;stroke-width: 1.2694799900054932px"></path><path d="M238.27,505.57a9.49,9.49,0,0,1,16.75,0" transform="translate(-202.1 -451.34)" style="fill: none;stroke: #293b4a;stroke-miterlimit: 10;stroke-width: 1.2694799900054932px"></path><path d="M248.38,506.62a2,2,0,1,1-.69-2.79,2,2,0,0,1,.59.54" transform="translate(-202.1 -451.34)" style="fill: none;stroke: #293b4a;stroke-miterlimit: 10;stroke-width: 1.2694799900054932px"></path><path d="M549.8,510.26h2V509l-1-.81v-2.33c0-7-9.54-7.81-9.54-.08l0,2.34-1,.73v1.38l2.86,0,4.51,0" transform="translate(-202.1 -451.34)" style="fill: none;stroke: #293b4a;stroke-miterlimit: 10;stroke-width: 1.2694799900054932px"></path><path d="M547.52,510.24a1.47,1.47,0,1,1-2.93,0" transform="translate(-202.1 -451.34)" style="fill: none;stroke: #293b4a;stroke-miterlimit: 10;stroke-width: 1.2694799900054932px"></path><path d="M546.05,498.72v1.52" transform="translate(-202.1 -451.34)" style="fill: none;stroke: #293b4a;stroke-miterlimit: 10;stroke-width: 1.2694799900054932px"></path><path d="M589,537.35H235.14a8.76,8.76,0,0,0-8.75,8.76V727.38a8.75,8.75,0,0,0,8.75,8.75H589a8.75,8.75,0,0,0,8.75-8.75V546.11A8.76,8.76,0,0,0,589,537.35Z" transform="translate(-202.1 -451.34)" style="fill: #e6e6e6"></path><path d="M598,534.9H244.17a8.75,8.75,0,0,0-8.75,8.75V724.92a8.75,8.75,0,0,0,8.75,8.75H598a8.74,8.74,0,0,0,8.75-8.75V543.65A8.75,8.75,0,0,0,598,534.9Z" transform="translate(-202.1 -451.34)" style="fill: #f1f3f5"></path><path d="M391.31,716.29H260.43a3.13,3.13,0,0,0-3.12,3.13v1.68a3.13,3.13,0,0,0,3.12,3.13H391.31a3.13,3.13,0,0,0,3.13-3.13v-1.68A3.13,3.13,0,0,0,391.31,716.29Z" transform="translate(-202.1 -451.34)" style="fill: #293b4a"></path><path d="M593.54,716.29H260.43a3.13,3.13,0,0,0-3.12,3.13v1.68a3.13,3.13,0,0,0,3.12,3.13H593.54a3.13,3.13,0,0,0,3.13-3.13v-1.68A3.13,3.13,0,0,0,593.54,716.29Z" transform="translate(-202.1 -451.34)" style="fill: none;stroke: #293b4a;stroke-miterlimit: 10;stroke-width: 1.2694799900054932px"></path><path d="M596.66,530.67H240.79a7.72,7.72,0,0,0-7.71,7.72V721.73a7.72,7.72,0,0,0,7.71,7.72H596.66a7.72,7.72,0,0,0,7.72-7.72V538.39A7.72,7.72,0,0,0,596.66,530.67Z" transform="translate(-202.1 -451.34)" style="fill: none;stroke: #293b4a;stroke-miterlimit: 10;stroke-width: 1.2694799900054932px"></path><path d="M505.42,605.94c-5.18-2.2-15.52,1.08-18.43,8.16a10.56,10.56,0,0,0,6.76,4.76s-9,11.34-2.89,15.38c0,0-2.26,19.92-3.95,24.12,0,0,12.12,10.1,30.31,1,0,0-3.52-12.48,1.44-17.61s5.79-14.76,5.58-15.71,1,2.19,5.09.67l-2.88-3s.92-2.49,6.44-5.45l3,1.84s1.38-2.07.35-3.43-15.83-10.5-22.71-10.44l-.49.23a3.91,3.91,0,0,1-.84,6.25c-4.13,2.84-10.3,2.87-10.3,2.87l3.49-9.67Z" transform="translate(-202.1 -451.34)" style="fill: #ffcd00"></path><path d="M479.39,707.56c.49-3.54,1-12.27,1.49-15.47,1.59-10.39,3.08-18.91,4.17-24.8,1.06-5.71,1.73-8.93,1.73-8.93" transform="translate(-202.1 -451.34)" style="fill: none;stroke: #293b4a;stroke-miterlimit: 10;stroke-width: 1.2694799900054932px"></path><path d="M503.15,694.46a104,104,0,0,0-4.88,13.1" transform="translate(-202.1 -451.34)" style="fill: none;stroke: #293b4a;stroke-miterlimit: 10;stroke-width: 1.2694799900054932px"></path><path d="M526.45,708c-.24-5.48-.3-10.79-.3-15.67,0-2.54,0-5,0-7.25,0-3.66,0-6.93-.13-9.64-.24-5.47-1.85-9.1-3.7-11.49-2.74-3.54-4.8-4.47-4.8-4.47s-3.68-10.75,0-16.06c8.63-12.42,6.39-17.85,6.39-17.85" transform="translate(-202.1 -451.34)" style="fill: none;stroke: #293b4a;stroke-miterlimit: 10;stroke-width: 1.2694799900054932px"></path><path d="M497.73,674.07s.07.26.19.75c.41,1.55,1.45,5.51,3,11.24.67,2.48,1.43,5.3,2.26,8.4.4,1.47.81,3,1.25,4.59.5,1.85,1,7,1.57,9" transform="translate(-202.1 -451.34)" style="fill: none;stroke: #293b4a;stroke-miterlimit: 10;stroke-width: 1.2694799900054932px"></path><path d="M517.54,659.51c-18.68,8.87-30.76-1.15-30.76-1.15s3.83-14.08,4.21-24.64" transform="translate(-202.1 -451.34)" style="fill: none;stroke: #293b4a;stroke-miterlimit: 10;stroke-width: 1.2694799900054932px"></path><path d="M245.45,560h167V644.2H245.45" transform="translate(-202.1 -451.34)" style="fill: none;stroke: #293b4a;stroke-miterlimit: 10;stroke-width: 1.2694799900054932px"></path><path d="M245.45,550.58H421.07v103H373.54" transform="translate(-202.1 -451.34)" style="fill: none;stroke: #293b4a;stroke-miterlimit: 10;stroke-width: 1.2694799900054932px"></path><path d="M347.31,653.58H245.62" transform="translate(-202.1 -451.34)" style="fill: none;stroke: #293b4a;stroke-miterlimit: 10;stroke-width: 1.2694799900054932px"></path><path d="M307.93,618.72l18.64-18.64,15.62,15.62,36.62-36.63,11.32,11.31,10-10" transform="translate(-202.1 -451.34)" style="fill: none;stroke: #293b4a;stroke-miterlimit: 10;stroke-width: 1.2694799900054932px"></path><path d="M353.06,644.2l29.94,56" transform="translate(-202.1 -451.34)" style="fill: none;stroke: #293b4a;stroke-miterlimit: 10;stroke-width: 1.2694799900054932px"></path><path d="M533,618.49s13.28,8.46,15.15,11.41C554.8,640.39,522.71,650,523,656.73a3.43,3.43,0,0,0,3.33-.88c1-.89,3-.33,1,2.09" transform="translate(-202.1 -451.34)" style="fill: none;stroke: #293b4a;stroke-miterlimit: 10;stroke-width: 1.2694799900054932px"></path><path d="M528.36,659.51c2.26-1.07,2.38-4.35.77-2.66a8.43,8.43,0,0,1-5.86,1.85" transform="translate(-202.1 -451.34)" style="fill: none;stroke: #293b4a;stroke-miterlimit: 10;stroke-width: 1.2694799900054932px"></path><path d="M542.52,629.46c-16.71,8.73-24.89,24.82-24.89,24.82-1,8.47,7.34,9.74,9.9,9.71,4.54-.08,7.33-3.19,5-2.54a10.12,10.12,0,0,1-5-.14c5.6-1,5.25-2.41,3-2.14-3.83.48-4.13,1-5.38.9a2.69,2.69,0,0,1-2.12-3.34" transform="translate(-202.1 -451.34)" style="fill: none;stroke: #293b4a;stroke-miterlimit: 10;stroke-width: 1.2694799900054932px"></path><path d="M526.16,623.83a36.06,36.06,0,0,0,12.61,7.6" transform="translate(-202.1 -451.34)" style="fill: none;stroke: #293b4a;stroke-miterlimit: 10;stroke-width: 1.2694799900054932px"></path><path d="M535.93,619.65c3.75-5.65-8.67-.18-10.21,5.18-1.17,4.13,3.7,1.69,3.7,1.69" transform="translate(-202.1 -451.34)" style="fill: none;stroke: #293b4a;stroke-miterlimit: 10;stroke-width: 1.2694799900054932px"></path><path d="M515.64,618.49S522.16,624.7,526,627" transform="translate(-202.1 -451.34)" style="fill: none;stroke: #293b4a;stroke-miterlimit: 10;stroke-width: 1.2694799900054932px"></path><path d="M536.63,617.27s-11.58-10-23.35-11" transform="translate(-202.1 -451.34)" style="fill: none;stroke: #293b4a;stroke-miterlimit: 10;stroke-width: 1.2694799900054932px"></path><path d="M496.39,611.66c-.31,5.75-4.43,9.25-7.33,15.58-1.64,3.57-.09,8.53,7.88,7.29" transform="translate(-202.1 -451.34)" style="fill: none;stroke: #293b4a;stroke-miterlimit: 10;stroke-width: 1.2694799900054932px"></path><path d="M505.64,605.77c-12.93-2.55-18.86,8.23-18.86,8.23s1.29,3.26,7.09,5" transform="translate(-202.1 -451.34)" style="fill: none;stroke: #293b4a;stroke-miterlimit: 10;stroke-width: 1.2694799900054932px"></path><path d="M516.35,634.24c-3.89,3.93-10,2-11.43,0" transform="translate(-202.1 -451.34)" style="fill: none;stroke: #293b4a;stroke-miterlimit: 10;stroke-width: 1.2694799900054932px"></path><path d="M487.62,615.61c-2.42,2.77-12.71,10.68-12.71,10.68" transform="translate(-202.1 -451.34)" style="fill: none;stroke: #293b4a;stroke-miterlimit: 10;stroke-width: 1.2694799900054932px"></path><path d="M504.82,589.43a.77.77,0,0,0,0-1.53.77.77,0,1,0,0,1.53Z" transform="translate(-202.1 -451.34)" style="fill: #293b4a"></path><path d="M512.75,597c-1.18,3.12.21,8.29.72,9.92,0,0,5.43,7.33-11.91,9,0,0,2.15-5.34,3.3-8s1.34-3.6-.27-8.69c-2.56-.29-5,2.68-3.54-5.58l-1.2-.59a.33.33,0,0,1-.28-.5,51.29,51.29,0,0,0,3.49-10.32" transform="translate(-202.1 -451.34)" style="fill: none;stroke: #293b4a;stroke-miterlimit: 10;stroke-width: 1.2694799900054932px"></path><path d="M507.35,593.23c-.54,1.81-1.77,2.43-4.24,2" transform="translate(-202.1 -451.34)" style="fill: none;stroke: #293b4a;stroke-miterlimit: 10;stroke-width: 1.2694799900054932px"></path><path d="M511.9,574.79c-4-1-8.17.23-9.13,3.52-1,3.61.3,4,.3,4,6.84-3.06,6.6,5.38,6.6,5.38s4.16-1,2,2.92c0,0,2.14,4.49,1,6.43,0,0,10.9,1.24,7.17-14.15a11.12,11.12,0,0,0-.74-2.13l0,0" transform="translate(-202.1 -451.34)" style="fill: #293b4a"></path><path d="M511.9,574.79c-4-1-8.17.23-9.13,3.52-1,3.61.3,4,.3,4,6.84-3.06,6.6,5.38,6.6,5.38s4.16-1,2,2.92c0,0,2.14,4.49,1,6.43,0,0,10.9,1.24,7.17-14.15a11.12,11.12,0,0,0-.74-2.13l0,0" transform="translate(-202.1 -451.34)" style="fill: none;stroke: #293b4a;stroke-miterlimit: 10;stroke-width: 1.2694799900054932px"></path><path d="M513.46,571.44c-5-13.69,9.6-10.45,16.48,3,5.34,10.45-3.75,7.24-9.17,4.67C520.77,579.09,521.27,575,513.46,571.44Z" transform="translate(-202.1 -451.34)" style="fill: #293b4a;stroke: #293b4a;stroke-miterlimit: 10;stroke-width: 1.2694799900054932px"></path><path d="M521,579.88a14.41,14.41,0,0,0-7.5-7.74c-2.43,1.67-2.22,2.3-2.22,2.3s6.17,3.18,7.91,6.27l1.81-.83Z" transform="translate(-202.1 -451.34)" style="fill: none;stroke: #293b4a;stroke-miterlimit: 10;stroke-width: 1.2694799900054932px"></path><path d="M488.47,628.59c-.81.93-20.06,10.76-40.29-9.08a29.25,29.25,0,0,0-3.64-3c-1.77-1.14-8.32.36-10.18-3.85-1.21-2.75,2.05-3.36,2.62-4.45a1.1,1.1,0,0,1,1.57-.5.91.91,0,0,1,.31,1.1" transform="translate(-202.1 -451.34)" style="fill: none;stroke: #293b4a;stroke-miterlimit: 10;stroke-width: 1.2694799900054932px"></path><path d="M448.86,614.19a90.08,90.08,0,0,1,27.42,13.34" transform="translate(-202.1 -451.34)" style="fill: none;stroke: #293b4a;stroke-miterlimit: 10;stroke-width: 1.2694799900054932px"></path><path d="M386.9,593.72l47.47,15.94" transform="translate(-202.1 -451.34)" style="fill: none;stroke: #293b4a;stroke-miterlimit: 10;stroke-width: 1.2694799900054932px"></path><path d="M446.76,613.83l-5.2-1.75" transform="translate(-202.1 -451.34)" style="fill: none;stroke: #293b4a;stroke-miterlimit: 10;stroke-width: 1.2694799900054932px"></path><path d="M436.15,612.08a9.92,9.92,0,0,0,2.57-3,1.1,1.1,0,0,1,1.57-.5,1.38,1.38,0,0,1,.27,1.37" transform="translate(-202.1 -451.34)" style="fill: none;stroke: #293b4a;stroke-miterlimit: 10;stroke-width: 1.2694799900054932px"></path><path d="M438.09,612.86a9.56,9.56,0,0,0,2.46-2.91,1.08,1.08,0,0,1,1.58-.5.93.93,0,0,1,.31,1.1" transform="translate(-202.1 -451.34)" style="fill: none;stroke: #293b4a;stroke-miterlimit: 10;stroke-width: 1.2694799900054932px"></path><path d="M439.86,613.71a9.5,9.5,0,0,0,2.42-2.86,1.07,1.07,0,0,1,1.57-.5.91.91,0,0,1,.31,1.1" transform="translate(-202.1 -451.34)" style="fill: none;stroke: #293b4a;stroke-miterlimit: 10;stroke-width: 1.2694799900054932px"></path><path d="M431.92,608.84c.93-2.86,4.22,0,4.22,0" transform="translate(-202.1 -451.34)" style="fill: none;stroke: #293b4a;stroke-miterlimit: 10;stroke-width: 1.2694799900054932px"></path><path d="M510.36,622.87l-.07,1.23,1.56,1,1.73-.69.07-1.24" transform="translate(-202.1 -451.34)" style="fill: none;stroke: #293b4a;stroke-miterlimit: 10;stroke-width: 1.2694799900054932px"></path><path d="M510.29,624.1l-.12,1.39" transform="translate(-202.1 -451.34)" style="fill: none;stroke: #293b4a;stroke-miterlimit: 10;stroke-width: 1.2694799900054932px"></path><path d="M512,623.9l-2.25-1.48,2.5-1,2.24,1.47Z" transform="translate(-202.1 -451.34)" style="fill: none;stroke: #293b4a;stroke-miterlimit: 10;stroke-width: 1.2694799900054932px"></path><path d="M243.12,715.13l8.48,5.26-8.73,5Z" transform="translate(-202.1 -451.34)" style="fill: #293b4a"></path><g><path d="M617,519.41a34,34,0,1,0-34-34A34,34,0,0,0,617,519.41Z" transform="translate(-202.1 -451.34)" style="fill: #f1f3f5"></path><path d="M614.88,498.24a12.48,12.48,0,1,0-12.48-12.47A12.47,12.47,0,0,0,614.88,498.24Z" transform="translate(-202.1 -451.34)" style="fill: #ffcd00"></path><path d="M622.24,490.71l-4.94-4.94,4.94-4.95,5,4.95Zm-3.51-4.94,3.51,3.51,3.52-3.51-3.52-3.52Z" transform="translate(-202.1 -451.34)" style="fill: #293b4a"></path><path d="M622.74,469.52h-1v7.25h1Z" transform="translate(-202.1 -451.34)" style="fill: #293b4a"></path><path d="M622.74,494.76h-1V502h1Z" transform="translate(-202.1 -451.34)" style="fill: #293b4a"></path><path d="M612.91,475.72l-.71.72,3.35,3.35.71-.71Z" transform="translate(-202.1 -451.34)" style="fill: #293b4a"></path><path d="M629,491.77l-.71.71,3.35,3.36.72-.72Z" transform="translate(-202.1 -451.34)" style="fill: #293b4a"></path><path d="M613.25,485.26H602.4v1h10.85Z" transform="translate(-202.1 -451.34)" style="fill: #293b4a"></path><path d="M638.48,485.26h-7.25v1h7.25Z" transform="translate(-202.1 -451.34)" style="fill: #293b4a"></path><path d="M615.52,491.77l-3.35,3.35.71.71,3.35-3.35Z" transform="translate(-202.1 -451.34)" style="fill: #293b4a"></path><path d="M631.57,475.71l-3.33,3.34.71.71,3.33-3.33Z" transform="translate(-202.1 -451.34)" style="fill: #293b4a"></path></g><path d="M251.6,619.48h52.77" transform="translate(-202.1 -451.34)" style="fill: none;stroke: #293b4a;stroke-miterlimit: 10;stroke-width: 0.9521139860153198px"></path><path d="M301.39,617.6v-9.38" transform="translate(-202.1 -451.34)" style="fill: none;stroke: #293b4a;stroke-miterlimit: 10;stroke-width: 0.9521139860153198px"></path><path d="M255.63,617.6v-8.86" transform="translate(-202.1 -451.34)" style="fill: none;stroke: #293b4a;stroke-miterlimit: 10;stroke-width: 0.9521139860153198px"></path><path d="M280.69,591.31v-1l-3.53,0v1a.32.32,0,0,1-.33.32h-1.38l0,2.19c0,3.1,3.43,4.78,3.43,4.78s3.49-1.62,3.52-4.72l0-2.19H281a.34.34,0,0,1-.33-.33Z" transform="translate(-202.1 -451.34)" style="fill: none;stroke: #293b4a;stroke-miterlimit: 10;stroke-width: 0.9521139860153198px"></path><path d="M275.81,593.64H282" transform="translate(-202.1 -451.34)" style="fill: none;stroke: #293b4a;stroke-miterlimit: 10;stroke-width: 0.9521139860153198px"></path><path d="M282.91,611.26v-3.63h2.48v3.63" transform="translate(-202.1 -451.34)" style="fill: none;stroke: #293b4a;stroke-miterlimit: 10;stroke-width: 0.9521139860153198px"></path><path d="M272.43,611.26v-3.63h2.5v3.63" transform="translate(-202.1 -451.34)" style="fill: none;stroke: #293b4a;stroke-miterlimit: 10;stroke-width: 0.9521139860153198px"></path><path d="M282.91,606.24v-3.63h2.48v3.63" transform="translate(-202.1 -451.34)" style="fill: none;stroke: #293b4a;stroke-miterlimit: 10;stroke-width: 0.9521139860153198px"></path><path d="M277.66,606.24v-3.63h2.49v3.63" transform="translate(-202.1 -451.34)" style="fill: none;stroke: #293b4a;stroke-miterlimit: 10;stroke-width: 0.9521139860153198px"></path><path d="M272.43,606.24v-3.63h2.5v3.63" transform="translate(-202.1 -451.34)" style="fill: none;stroke: #293b4a;stroke-miterlimit: 10;stroke-width: 0.9521139860153198px"></path><path d="M261.86,617.6v-3.2H296v3.2" transform="translate(-202.1 -451.34)" style="fill: none;stroke: #293b4a;stroke-miterlimit: 10;stroke-width: 0.9521139860153198px"></path><path d="M277.53,613.17v-5.54h2.77v5.54" transform="translate(-202.1 -451.34)" style="fill: none;stroke: #293b4a;stroke-miterlimit: 10;stroke-width: 0.9521139860153198px"></path><path d="M269.7,602.61V614.4H267V602.61" transform="translate(-202.1 -451.34)" style="fill: none;stroke: #293b4a;stroke-miterlimit: 10;stroke-width: 0.9521139860153198px"></path><path d="M290.81,602.61V614.4h-2.69V602.61" transform="translate(-202.1 -451.34)" style="fill: none;stroke: #293b4a;stroke-miterlimit: 10;stroke-width: 0.9521139860153198px"></path><path d="M293.19,597.79H282.48" transform="translate(-202.1 -451.34)" style="fill: none;stroke: #293b4a;stroke-miterlimit: 10;stroke-width: 0.9521139860153198px"></path><path d="M263.4,591.58l8.22-1v-2.82h14.65l-.06,2.82,8.22,1" transform="translate(-202.1 -451.34)" style="fill: none;stroke: #293b4a;stroke-miterlimit: 10;stroke-width: 0.9521139860153198px"></path><path d="M275.71,597.79H264.63" transform="translate(-202.1 -451.34)" style="fill: none;stroke: #293b4a;stroke-miterlimit: 10;stroke-width: 0.9521139860153198px"></path><path d="M264.63,597.79h-2.07v3h32.7v-3h-2.07" transform="translate(-202.1 -451.34)" style="fill: none;stroke: #293b4a;stroke-miterlimit: 10;stroke-width: 0.9521139860153198px"></path><path d="M264.22,600.81V614.4" transform="translate(-202.1 -451.34)" style="fill: none;stroke: #293b4a;stroke-miterlimit: 10;stroke-width: 0.9521139860153198px"></path><path d="M293.61,600.81V614.4" transform="translate(-202.1 -451.34)" style="fill: none;stroke: #293b4a;stroke-miterlimit: 10;stroke-width: 0.9521139860153198px"></path><path d="M273.94,593.64H263" transform="translate(-202.1 -451.34)" style="fill: none;stroke: #293b4a;stroke-miterlimit: 10;stroke-width: 0.9521139860153198px"></path><path d="M294.84,593.64H283.89" transform="translate(-202.1 -451.34)" style="fill: none;stroke: #293b4a;stroke-miterlimit: 10;stroke-width: 0.9521139860153198px"></path><path d="M264.22,594.94v2.85" transform="translate(-202.1 -451.34)" style="fill: none;stroke: #293b4a;stroke-miterlimit: 10;stroke-width: 0.9521139860153198px"></path><path d="M293.61,594.94v2.85" transform="translate(-202.1 -451.34)" style="fill: none;stroke: #293b4a;stroke-miterlimit: 10;stroke-width: 0.9521139860153198px"></path><path d="M299.38,613.32h-1.76l3.79-11.43,4,11.43H303.9" transform="translate(-202.1 -451.34)" style="fill: none;stroke: #293b4a;stroke-miterlimit: 10;stroke-width: 0.9521139860153198px"></path><path d="M253.48,613.32h-1.76l3.79-11.43,4,11.43H258" transform="translate(-202.1 -451.34)" style="fill: none;stroke: #293b4a;stroke-miterlimit: 10;stroke-width: 0.9521139860153198px"></path></g></g></svg>