<svg width="24" height="24" viewBox="0 0 24 24" fill="none" xmlns="http://www.w3.org/2000/svg">
<path opacity="0.5" d="M17.544 15.4759V19.7995C17.544 20.507 16.9734 21.0909 16.2574 21.0909H4.28658C3.58176 21.0909 3 20.5182 3 19.7995V3.29144C3 2.58396 3.57057 2 4.28658 2H16.2574C16.9622 2 17.544 2.57273 17.544 3.29144V5.36898" fill="white"/>
<path d="M21.6432 9.68738L15.1798 16.3161C15.1798 16.3161 12.6724 17.2003 12.4856 16.8741C12.2988 16.5479 13.0296 14.111 13.0296 14.111L16.8118 10.232L19.493 7.48223C20.0888 6.87116 21.0473 6.87116 21.6432 7.48223C22.239 8.09329 22.239 9.07632 21.6432 9.68738Z" fill="white"/>
<path d="M5.72656 6.54541H12.913" stroke="white" stroke-width="1.5" stroke-miterlimit="10" stroke-linecap="square" stroke-linejoin="round"/>
<path d="M5.72656 11.0909H11.8864" stroke="white" stroke-width="1.5" stroke-miterlimit="10" stroke-linecap="square" stroke-linejoin="round"/>
<path d="M5.72656 15.6364H9.60495" stroke="white" stroke-width="1.5" stroke-miterlimit="10" stroke-linecap="square" stroke-linejoin="round"/>
</svg>
