<svg width="25" height="24" viewBox="0 0 25 24" fill="none" xmlns="http://www.w3.org/2000/svg">
<g opacity="0.6">
<path d="M6.4 6.79999H5.5C4.94771 6.79999 4.5 7.2477 4.5 7.79999V21C4.5 21.5523 4.94772 22 5.5 22H15.9" stroke="white" stroke-width="1.5"/>
<path d="M8.30078 18.15V4C8.30078 3.44772 8.7485 3 9.30078 3H14.8413C15.0834 3 15.3172 3.08779 15.4995 3.2471L20.3089 7.45116C20.5262 7.64106 20.6508 7.91553 20.6508 8.20407V18.15C20.6508 18.7023 20.2031 19.15 19.6508 19.15H9.30078C8.7485 19.15 8.30078 18.7023 8.30078 18.15Z" stroke="white" stroke-width="1.5"/>
<path d="M14.9492 3V7.75H19.6992" stroke="white" stroke-width="1.25" stroke-linecap="square" stroke-linejoin="round"/>
</g>
</svg>
