<svg width="19" height="22" viewBox="0 0 19 22" fill="none" xmlns="http://www.w3.org/2000/svg">
<path d="M9.26676 13.3076C11.8158 13.3076 13.8822 11.2412 13.8822 8.69224C13.8822 6.14323 11.8158 4.07684 9.26676 4.07684C6.71775 4.07684 4.65137 6.14323 4.65137 8.69224C4.65137 11.2412 6.71775 13.3076 9.26676 13.3076Z" stroke="white" stroke-linecap="round" stroke-linejoin="round"/>
<path d="M4.65137 8.69177H13.8822" stroke="white" stroke-linecap="round" stroke-linejoin="round"/>
<path d="M-nan -nanL9.26559 4.07684C10.42 5.3407 11.0761 6.98086 11.1117 8.69224C11.0837 10.0365 10.6729 11.3369 9.93848 12.4454C9.61375 12.9355 8.91743 12.9355 8.5927 12.4454C7.85824 11.3369 7.44744 10.0365 7.41943 8.69224C7.45509 6.98086 8.11115 5.3407 9.26559 4.07684L-nan -nanL-nan -nanZ" stroke="white" stroke-linecap="round" stroke-linejoin="round"/>
<rect x="0.803223" y="0.999756" width="16.9231" height="20" rx="1" stroke="white" stroke-width="1.5"/>
<path d="M4.64905 17.154H13.8798" stroke="white" stroke-width="1.5"/>

</svg>
