<svg width="25" height="24" viewBox="0 0 25 24" fill="none" xmlns="http://www.w3.org/2000/svg">
<g opacity="0.6">
<mask id="mask0_2_813" style="mask-type:alpha" maskUnits="userSpaceOnUse" x="0" y="0" width="25" height="24">
<rect x="0.5" width="24" height="24" rx="1" fill="#C4C4C4"/>
</mask>
<g mask="url(#mask0_2_813)">
<path d="M10.5405 12.9601H3.90051C3.34823 12.9601 2.90051 13.4078 2.90051 13.9601V20.6001C2.90051 21.1523 3.34823 21.6001 3.90051 21.6001H10.5405C11.0928 21.6001 11.5405 21.1523 11.5405 20.6001V13.9601C11.5405 13.4078 11.0928 12.9601 10.5405 12.9601Z" stroke="white" stroke-width="1.5" stroke-linecap="round" stroke-linejoin="round"/>
<path d="M21.0999 15.8401H15.4199C14.8676 15.8401 14.4199 16.2878 14.4199 16.8401V20.6001C14.4199 21.1524 14.8676 21.6001 15.4199 21.6001H21.0999C21.6522 21.6001 22.0999 21.1524 22.0999 20.6001V16.8401C22.0999 16.2878 21.6522 15.8401 21.0999 15.8401Z" stroke="white" stroke-width="1.5" stroke-linecap="round" stroke-linejoin="round"/>
<path d="M10.5404 2.40002H3.90039C3.34811 2.40002 2.90039 2.84774 2.90039 3.40002V9.08002C2.90039 9.63231 3.3481 10.08 3.90039 10.08H10.5404C11.0927 10.08 11.5404 9.63231 11.5404 9.08003V3.40002C11.5404 2.84774 11.0927 2.40002 10.5404 2.40002Z" stroke="white" stroke-width="1.5" stroke-linecap="round" stroke-linejoin="round"/>
<path d="M21.0999 2.40002H15.4199C14.8676 2.40002 14.4199 2.84774 14.4199 3.40002V11.96C14.4199 12.5123 14.8676 12.96 15.4199 12.96H21.0999C21.6522 12.96 22.0999 12.5123 22.0999 11.96V3.40002C22.0999 2.84774 21.6522 2.40002 21.0999 2.40002Z" stroke="white" stroke-width="1.5" stroke-linecap="round" stroke-linejoin="round"/>
</g>
</g>
</svg>
