<svg width="24" height="24" viewBox="0 0 24 24" fill="none" xmlns="http://www.w3.org/2000/svg">
<g opacity="0.6">
<path d="M2.40039 4.20032H8.16039C9.17882 4.20032 10.1555 4.59365 10.8757 5.29379C11.5958 5.99392 12.0004 6.94351 12.0004 7.93365V21.0003C12.0004 20.2577 11.697 19.5455 11.1569 19.0204C10.6168 18.4953 9.88421 18.2003 9.12039 18.2003H2.40039V4.20032Z" stroke="white" stroke-width="1.5" stroke-linecap="square"/>
<path d="M21.6 4.20032H15.84C14.8216 4.20032 13.8448 4.59365 13.1247 5.29379C12.4046 5.99392 12 6.94351 12 7.93365V21.0003C12 20.2577 12.3034 19.5455 12.8435 19.0204C13.3836 18.4953 14.1162 18.2003 14.88 18.2003H21.6V4.20032Z" stroke="white" stroke-width="1.5" stroke-linecap="square"/>
</g>
</svg>
