<svg width="24" height="24" viewBox="0 0 24 24" fill="none" xmlns="http://www.w3.org/2000/svg">
<g opacity="0.6">
<path d="M5.53702 6.83334H3.91797C3.36568 6.83334 2.91797 7.28106 2.91797 7.83334V20C2.91797 20.5523 3.36569 21 3.91797 21H20.2513C20.8036 21 21.2513 20.5523 21.2513 20V7.83334C21.2513 7.28106 20.8036 6.83334 20.2513 6.83334H19.0688" stroke="white" stroke-width="1.5"/>
<path d="M16.8082 15.5L11.947 12.0278L7.08594 15.5V4.38889C7.08594 4.02053 7.23227 3.66726 7.49273 3.4068C7.7532 3.14633 8.10647 3 8.47483 3H15.4193C15.7876 3 16.1409 3.14633 16.4014 3.4068C16.6618 3.66726 16.8082 4.02053 16.8082 4.38889V15.5Z" stroke="white" stroke-width="1.5" stroke-linecap="square" stroke-linejoin="round"/>
</g>
</svg>
