<svg width="24" height="24" viewBox="0 0 24 24" fill="none" xmlns="http://www.w3.org/2000/svg">
<g opacity="0.6">
<path d="M12.2668 14.3076C14.8158 14.3076 16.8822 12.2412 16.8822 9.69224C16.8822 7.14323 14.8158 5.07684 12.2668 5.07684C9.71775 5.07684 7.65137 7.14323 7.65137 9.69224C7.65137 12.2412 9.71775 14.3076 12.2668 14.3076Z" stroke="white" stroke-linecap="round" stroke-linejoin="round"/>
<path d="M7.65137 9.69177H16.8822" stroke="white" stroke-linecap="round" stroke-linejoin="round"/>
<path d="M-nan -nanL12.2656 5.07684C13.42 6.3407 14.0761 7.98086 14.1117 9.69224C14.0837 11.0365 13.6729 12.3369 12.9385 13.4454C12.6138 13.9355 11.9174 13.9355 11.5927 13.4454C10.8582 12.3369 10.4474 11.0365 10.4194 9.69224C10.4551 7.98086 11.1112 6.3407 12.2656 5.07684L-nan -nanL-nan -nanZ" stroke="white" stroke-linecap="round" stroke-linejoin="round"/>
<rect x="3.80322" y="1.99976" width="16.9231" height="20" rx="1" stroke="white" stroke-width="1.5"/>
<path d="M7.64905 18.154H16.8798" stroke="white" stroke-width="1.5"/>
</g>
</svg>
