<svg xmlns="http://www.w3.org/2000/svg" id="Layer_1" data-name="Layer 1" viewBox="0 0 406.18 313.66"><path d="M217.47,732.21l23.19-63.36h13l23.18,63.36H264.57l-5.08-14.67H234.76l-5.16,14.67H217.47Zm20.47-23.71h18.4l-9.25-26.34Z" transform="translate(-217.46 -438.46)" style="fill: #fff"></path><path d="M284.77,732.21V687.32H295l.9,7.6a15.79,15.79,0,0,1,6-6.33,17.68,17.68,0,0,1,9.29-2.36c5.55,0,9.88,1.75,12.95,5.25s4.61,8.63,4.61,15.38v25.35H317.19V708q0-5.79-2.36-8.87T307.49,696a10.28,10.28,0,0,0-8,3.43c-2.08,2.3-3.12,5.49-3.12,9.6V732.2H284.77Z" transform="translate(-217.46 -438.46)" style="fill: #fff"></path><path d="M355.33,733.29a21.47,21.47,0,0,1-9.51-1.85,12.81,12.81,0,0,1-5.53-4.93,13.14,13.14,0,0,1-1.82-6.8,12.36,12.36,0,0,1,4.9-10.14q4.89-3.89,14.67-3.89h11.42v-1.09c0-3.08-.88-5.33-2.63-6.79a9.83,9.83,0,0,0-6.52-2.17,11.19,11.19,0,0,0-6.16,1.68,7.16,7.16,0,0,0-3.26,4.93H339.56a15.86,15.86,0,0,1,3.31-8.51,18.54,18.54,0,0,1,7.39-5.56,25.5,25.5,0,0,1,10.14-1.95c6.41,0,11.44,1.59,15.13,4.8s5.53,7.72,5.53,13.57V732.2h-9.88L370.09,725a15.74,15.74,0,0,1-14.76,8.33Zm2.62-9A9.62,9.62,0,0,0,365.7,721a15.77,15.77,0,0,0,3.49-8.06h-9.88c-3.08,0-5.29.56-6.61,1.67a5.18,5.18,0,0,0-2,4.12,4.72,4.72,0,0,0,2,4.07,8.81,8.81,0,0,0,5.25,1.44Z" transform="translate(-217.46 -438.46)" style="fill: #fff"></path><path d="M392.11,732.21V667H403.7v65.17Z" transform="translate(-217.46 -438.46)" style="fill: #fff"></path><path d="M421.18,752.12l10.41-22.9h-2.71L411.4,687.31H424l12.59,31.58,13.14-31.58h12.32l-28.54,64.8H421.18Z" transform="translate(-217.46 -438.46)" style="fill: #fff"></path><path d="M489.66,732.21q-7.07,0-11.33-3.44t-4.26-12.21V697h-7.7v-9.68h7.7l1.36-12h10.23v12H497.8V697H485.66v19.65c0,2.16.47,3.66,1.41,4.48s2.55,1.22,4.85,1.22h5.62v9.86Z" transform="translate(-217.46 -438.46)" style="fill: #fff"></path><path d="M514,680.34a7.35,7.35,0,0,1-5.22-1.91,6.29,6.29,0,0,1-2-4.8,6.16,6.16,0,0,1,2-4.75,8.28,8.28,0,0,1,10.43,0,6.14,6.14,0,0,1,2,4.75,6.27,6.27,0,0,1-2,4.8A7.34,7.34,0,0,1,514,680.34Zm-5.8,51.86V687.31h11.59V732.2Z" transform="translate(-217.46 -438.46)" style="fill: #fff"></path><path d="M554,733.29a24.12,24.12,0,0,1-12.14-3,21.82,21.82,0,0,1-8.3-8.32,26.16,26.16,0,0,1,0-24.44,21.68,21.68,0,0,1,8.3-8.32,24.14,24.14,0,0,1,12.14-3,23.23,23.23,0,0,1,14.49,4.48A20.09,20.09,0,0,1,576,703.06H563.77a9,9,0,0,0-3.58-5.12,11.25,11.25,0,0,0-14.45,1.77c-2.23,2.41-3.34,5.77-3.34,10s1.11,7.63,3.34,10a10.73,10.73,0,0,0,8.16,3.63,11,11,0,0,0,6.29-1.81,8.81,8.81,0,0,0,3.58-5.16H576a20.42,20.42,0,0,1-7.52,12.22A22.8,22.8,0,0,1,554,733.3Z" transform="translate(-217.46 -438.46)" style="fill: #fff"></path><path d="M604.89,733.29a26.29,26.29,0,0,1-10.52-2,18,18,0,0,1-7.24-5.38,15.61,15.61,0,0,1-3.26-8h11.68a7.63,7.63,0,0,0,2.94,4.48,9.84,9.84,0,0,0,6.21,1.85c2.53,0,4.39-.5,5.57-1.53a4.62,4.62,0,0,0,1.76-3.54,3.91,3.91,0,0,0-2.54-3.94,44.55,44.55,0,0,0-7.06-2c-1.93-.42-3.9-.94-5.89-1.53a27.34,27.34,0,0,1-5.48-2.31,12,12,0,0,1-4-3.62,9.39,9.39,0,0,1-1.54-5.48,12.73,12.73,0,0,1,4.76-10.05q4.75-4.07,13.37-4.07c5.31,0,9.55,1.25,12.72,3.72A15,15,0,0,1,622,700.14H611q-1-5-7.52-5a8.5,8.5,0,0,0-5,1.27,3.8,3.8,0,0,0-1.76,3.17c0,1.27.88,2.38,2.63,3.17a37.84,37.84,0,0,0,7,2.16c3.14.73,6,1.53,8.65,2.4a14.45,14.45,0,0,1,6.29,3.89c1.58,1.72,2.36,4.18,2.36,7.38a12.59,12.59,0,0,1-2.17,7.51,15,15,0,0,1-6.51,5.25,24.5,24.5,0,0,1-10.06,1.9Z" transform="translate(-217.46 -438.46)" style="fill: #fff"></path><path d="M361.51,542.7A33.66,33.66,0,1,0,327.82,509,33.67,33.67,0,0,0,361.51,542.7Z" transform="translate(-217.46 -438.46)" style="fill: #5273fd"></path><path d="M340.46,536.62a32.75,32.75,0,1,1,27.5-15l-2.28-1.47a29.92,29.92,0,1,0-13.88,11.63,29,29,0,0,0,4.58-2.32l1.47,2.28a33,33,0,0,1-17.36,5v-.11Z" transform="translate(-217.46 -438.46)" style="fill: #293b4a"></path><path d="M362.57,524.08,360.66,526l29.9,29.88,1.92-1.91Z" transform="translate(-217.46 -438.46)" style="fill: #293b4a"></path><path d="M598.6,438.46h-149a13.31,13.31,0,0,0-13.31,13.31V684.23a13.3,13.3,0,0,0,13.31,13.3h149a13.3,13.3,0,0,0,13.31-13.3V451.77A13.31,13.31,0,0,0,598.6,438.46Z" transform="translate(-217.46 -438.46)" style="fill: #e6e6e6"></path><path d="M577.55,572.38h-103a5.27,5.27,0,0,0-5.26,5.26h0a5.26,5.26,0,0,0,5.26,5.26h103a5.26,5.26,0,0,0,5.27-5.26h0A5.27,5.27,0,0,0,577.55,572.38Z" transform="translate(-217.46 -438.46)" style="fill: #f1f3f5"></path><path d="M577.55,610.66H516.76a5.26,5.26,0,0,0-5.26,5.26h0a5.27,5.27,0,0,0,5.26,5.26h60.79a5.27,5.27,0,0,0,5.27-5.26h0A5.26,5.26,0,0,0,577.55,610.66Z" transform="translate(-217.46 -438.46)" style="fill: #fff"></path><path d="M577.55,631.72H516.76A5.26,5.26,0,0,0,511.5,637h0a5.26,5.26,0,0,0,5.26,5.26h60.79a5.26,5.26,0,0,0,5.27-5.26h0A5.26,5.26,0,0,0,577.55,631.72Z" transform="translate(-217.46 -438.46)" style="fill: #fff"></path><path d="M483.68,644.74a18.29,18.29,0,1,0-18.3-18.29A18.3,18.3,0,0,0,483.68,644.74Z" transform="translate(-217.46 -438.46)" style="fill: #ff340c"></path><path d="M483,634.52a1,1,0,0,0,1.38,0c1.89-1.71,7-6.63,7.24-9.91.27-4-4.28-6.76-7.92-2.86h0c-3.64-3.91-8.23-1.17-8,2.86C476,627.89,481.1,632.81,483,634.52Z" transform="translate(-217.46 -438.46)" style="fill: #fff"></path><path d="M572.54,511.64A46,46,0,0,1,570.87,524c-.18.65-.38,1.32-.58,2a46.22,46.22,0,1,1,2.28-14.32Z" transform="translate(-217.46 -438.46)" style="fill: #5273fd"></path><path d="M572.54,511.64H526.1V465.27a46.38,46.38,0,0,1,46.44,46.34Z" transform="translate(-217.46 -438.46)" style="fill: #ffcd00"></path><path d="M572.54,511.62A45.88,45.88,0,0,1,570.86,524c-.18.64-.38,1.3-.57,2a45.76,45.76,0,0,1-5.18,10.81l-39-25.16h46.44Z" transform="translate(-217.46 -438.46)" style="fill: #ff9f00"></path><path d="M438.57,556.92h-153a8,8,0,0,0-7.84,8.1v84.89a8,8,0,0,0,7.84,8.09h153a8,8,0,0,0,7.84-8.09V565A8,8,0,0,0,438.57,556.92Z" transform="translate(-217.46 -438.46)" style="fill: #5273fd"></path><path d="M412.62,608.93H321.43a2.6,2.6,0,0,0-2.6,2.6v1.7a2.6,2.6,0,0,0,2.6,2.6h91.19a2.61,2.61,0,0,0,2.6-2.6v-1.7A2.61,2.61,0,0,0,412.62,608.93Z" transform="translate(-217.46 -438.46)" style="fill: #ffcd00"></path><path d="M303.87,617.56a5.46,5.46,0,1,0-6.92-3.43A5.45,5.45,0,0,0,303.87,617.56Z" transform="translate(-217.46 -438.46)" style="fill: #ffcd00"></path><path d="M412.62,627.12H321.43a2.6,2.6,0,0,0-2.6,2.6v1.7a2.59,2.59,0,0,0,2.6,2.59h91.19a2.6,2.6,0,0,0,2.6-2.59v-1.7A2.61,2.61,0,0,0,412.62,627.12Z" transform="translate(-217.46 -438.46)" style="fill: #ffcd00"></path><path d="M303.87,635.74A5.46,5.46,0,1,0,297,632.3,5.46,5.46,0,0,0,303.87,635.74Z" transform="translate(-217.46 -438.46)" style="fill: #ffcd00"></path><path d="M423.52,589.71a9.86,9.86,0,1,0-9.87-9.86A9.87,9.87,0,0,0,423.52,589.71Z" transform="translate(-217.46 -438.46)" style="fill: #293b4a"></path><path d="M421.32,582.14l0-2.84h.79a7,7,0,0,0,1.62-.11,2.18,2.18,0,0,0,1.16-.59,1.81,1.81,0,0,0,.46-1.3,1.66,1.66,0,0,0-.48-1.31,1.93,1.93,0,0,0-1.32-.49,1.86,1.86,0,0,0-1.36.46,1.74,1.74,0,0,0-.51,1.28l-2.08,0a3.42,3.42,0,0,1,.49-1.84,3.2,3.2,0,0,1,1.37-1.25,4.41,4.41,0,0,1,2.13-.44,4.48,4.48,0,0,1,2,.47A3.43,3.43,0,0,1,427,575.4a3.5,3.5,0,0,1,.48,2,3.38,3.38,0,0,1-.56,1.95,3.06,3.06,0,0,1-1.44,1.13,5.72,5.72,0,0,1-2.11.37l-.07,1.38-2,0Zm.93,3.89a1.35,1.35,0,0,1-1-.39,1.19,1.19,0,0,1-.37-.93,1.25,1.25,0,0,1,.41-.92,1.33,1.33,0,0,1,1-.37,1.32,1.32,0,0,1,1,.39,1.26,1.26,0,0,1,.37.94,1.23,1.23,0,0,1-.39.91,1.3,1.3,0,0,1-1,.37Z" transform="translate(-217.46 -438.46)" style="fill: #fff"></path></svg>