<svg xmlns="http://www.w3.org/2000/svg" id="Layer_1" data-name="Layer 1" viewBox="0 0 601 170.9"><path d="M464.74,196.22a4,4,0,0,1-3.56-2,3.94,3.94,0,0,1-.54-2.22,4.45,4.45,0,0,1,.54-2.22,3.47,3.47,0,0,1,1.48-1.48,4.32,4.32,0,0,1,4.51.2,2.9,2.9,0,0,1,1.21,2H467a2,2,0,0,0-.8-1.15,2.74,2.74,0,0,0-1.48-.4,2.69,2.69,0,0,0-1.28.34,2.39,2.39,0,0,0-1,1,3.73,3.73,0,0,0,0,3.36,2.45,2.45,0,0,0,1,1,2.8,2.8,0,0,0,1.28.33,2.74,2.74,0,0,0,1.48-.4,1.94,1.94,0,0,0,.8-1.21h1.42a3.7,3.7,0,0,1-3.64,2.82Z" transform="translate(-60.5 -74.43)"></path><path d="M474,196.22a4.19,4.19,0,0,1-2-.53,3.43,3.43,0,0,1-1.41-1.48A4.5,4.5,0,0,1,470,192a4.45,4.45,0,0,1,.54-2.22,3.83,3.83,0,0,1,1.48-1.48,4.12,4.12,0,0,1,2.08-.54,3.87,3.87,0,0,1,2,.54,3.22,3.22,0,0,1,1.41,1.48,4.85,4.85,0,0,1,.54,2.22,4.7,4.7,0,0,1-.54,2.22,3.94,3.94,0,0,1-1.47,1.48A4.47,4.47,0,0,1,474,196.22Zm0-1.14a2.72,2.72,0,0,0,1.28-.34,2.42,2.42,0,0,0,1-1,3.28,3.28,0,0,0,.4-1.69,4,4,0,0,0-.34-1.68,2.26,2.26,0,0,0-.94-1,2.63,2.63,0,0,0-2.55,0,2.45,2.45,0,0,0-1,1,3.67,3.67,0,0,0,0,3.37,2.29,2.29,0,0,0,.94,1A2.23,2.23,0,0,0,474,195.08Z" transform="translate(-60.5 -74.43)"></path><path d="M479.88,196V188h1.21l.07,1.14a3.44,3.44,0,0,1,1-1,2.66,2.66,0,0,1,1.48-.34,3.27,3.27,0,0,1,1.68.4,2.7,2.7,0,0,1,1.07,1.21,3.14,3.14,0,0,1,1.15-1.14,3.18,3.18,0,0,1,1.61-.4,3,3,0,0,1,2.29.87,3.63,3.63,0,0,1,.87,2.69v4.71H491v-4.57a3.07,3.07,0,0,0-.47-1.89A1.8,1.8,0,0,0,489,189a2.06,2.06,0,0,0-1.62.74,3.3,3.3,0,0,0-.67,2.15v4.17h-1.35v-4.57a3,3,0,0,0-.47-1.89,1.78,1.78,0,0,0-1.48-.6,2.15,2.15,0,0,0-1.61.74,3.3,3.3,0,0,0-.67,2.15v4.17h-1.28Z" transform="translate(-60.5 -74.43)"></path><path d="M494.48,196V188h1.21l.06,1.14a3.56,3.56,0,0,1,1-1,2.68,2.68,0,0,1,1.48-.34,3.24,3.24,0,0,1,1.68.4,2.78,2.78,0,0,1,1.08,1.21,3.12,3.12,0,0,1,1.14-1.14,3.19,3.19,0,0,1,1.62-.4,3,3,0,0,1,2.29.87,3.63,3.63,0,0,1,.87,2.69v4.71h-1.35v-4.57a3,3,0,0,0-.47-1.89,1.78,1.78,0,0,0-1.48-.6,2,2,0,0,0-1.61.74,3.3,3.3,0,0,0-.67,2.15v4.17H500v-4.57a3,3,0,0,0-.47-1.89A1.8,1.8,0,0,0,498,189a2.15,2.15,0,0,0-1.61.74,3.25,3.25,0,0,0-.68,2.15v4.17h-1.27Z" transform="translate(-60.5 -74.43)"></path><path d="M509.81,186.2a.83.83,0,0,1-.67-.27.95.95,0,0,1,1.34-1.34.94.94,0,0,1-.67,1.61Zm-.67,9.82V188h1.34V196Z" transform="translate(-60.5 -74.43)"></path><path d="M515.93,196.22a4.06,4.06,0,0,1-2.42-.74,2.79,2.79,0,0,1-1.14-1.95h1.41a1.88,1.88,0,0,0,.67,1.08,2.06,2.06,0,0,0,1.48.47,2,2,0,0,0,1.28-.34,1.15,1.15,0,0,0,.4-.87,1.11,1.11,0,0,0-.53-1,11.46,11.46,0,0,0-1.48-.47,4.74,4.74,0,0,1-1.28-.4,3.06,3.06,0,0,1-1.08-.68,1.64,1.64,0,0,1-.47-1.21,2.28,2.28,0,0,1,.81-1.75,3.07,3.07,0,0,1,2.15-.67,3,3,0,0,1,2.09.67,2.56,2.56,0,0,1,.94,1.82h-1.35a1.23,1.23,0,0,0-.53-.94,2,2,0,0,0-1.22-.34,1.93,1.93,0,0,0-1.14.34,1,1,0,0,0-.4.81.8.8,0,0,0,.53.74,5.21,5.21,0,0,0,1.42.47l1.41.4a2.53,2.53,0,0,1,1.08.67,2,2,0,0,1,.4,1.35,2.29,2.29,0,0,1-.81,1.81A2.77,2.77,0,0,1,515.93,196.22Z" transform="translate(-60.5 -74.43)"></path><path d="M524.07,196.22a4.06,4.06,0,0,1-2.42-.74,2.79,2.79,0,0,1-1.14-1.95h1.41a1.88,1.88,0,0,0,.67,1.08,2.06,2.06,0,0,0,1.48.47,2,2,0,0,0,1.28-.34,1.15,1.15,0,0,0,.4-.87,1.1,1.1,0,0,0-.54-1,10.76,10.76,0,0,0-1.47-.47,4.74,4.74,0,0,1-1.28-.4,3,3,0,0,1-1.08-.68,1.64,1.64,0,0,1-.47-1.21,2.28,2.28,0,0,1,.81-1.75,3.07,3.07,0,0,1,2.15-.67,3,3,0,0,1,2.08.67,2.57,2.57,0,0,1,.95,1.82h-1.35a1.24,1.24,0,0,0-.54-.94,2,2,0,0,0-1.21-.34,1.93,1.93,0,0,0-1.14.34,1,1,0,0,0-.4.81.8.8,0,0,0,.53.74,5.21,5.21,0,0,0,1.42.47l1.41.4a2.53,2.53,0,0,1,1.08.67,2.07,2.07,0,0,1,.4,1.35,2.29,2.29,0,0,1-.81,1.81A2.87,2.87,0,0,1,524.07,196.22Z" transform="translate(-60.5 -74.43)"></path><path d="M530,186.2a.83.83,0,0,1-.67-.27.95.95,0,0,1,1.34-1.34,1,1,0,0,1,0,1.34A.92.92,0,0,1,530,186.2Zm-.74,9.82V188h1.35V196Z" transform="translate(-60.5 -74.43)"></path><path d="M536.72,196.22a4.16,4.16,0,0,1-2-.53,3.32,3.32,0,0,1-1.41-1.48,4.5,4.5,0,0,1-.54-2.22,4.45,4.45,0,0,1,.54-2.22,3.76,3.76,0,0,1,1.48-1.48,4.12,4.12,0,0,1,2.08-.54,3.87,3.87,0,0,1,2,.54,3.22,3.22,0,0,1,1.41,1.48,4.85,4.85,0,0,1,.54,2.22,4.7,4.7,0,0,1-.54,2.22,3.9,3.9,0,0,1-1.48,1.48A4.4,4.4,0,0,1,536.72,196.22Zm0-1.14a2.72,2.72,0,0,0,1.28-.34,2.42,2.42,0,0,0,1-1,3.38,3.38,0,0,0,.4-1.69,4.18,4.18,0,0,0-.34-1.68,2.37,2.37,0,0,0-.94-1,2.8,2.8,0,0,0-1.28-.33,2.83,2.83,0,0,0-1.28.33,2.43,2.43,0,0,0-1,1,3.67,3.67,0,0,0,0,3.37,2.18,2.18,0,0,0,.94,1A2.23,2.23,0,0,0,536.72,195.08Z" transform="translate(-60.5 -74.43)"></path><path d="M542.64,196V188h1.21l.07,1.48a2.44,2.44,0,0,1,1.14-1.21,3.28,3.28,0,0,1,1.68-.47,3.07,3.07,0,0,1,2.29.87,3.9,3.9,0,0,1,.87,2.69V196h-1.34v-4.5c0-1.69-.68-2.49-2.09-2.49a2.45,2.45,0,0,0-1.75.74,3,3,0,0,0-.67,2.15v4.17h-1.41Z" transform="translate(-60.5 -74.43)"></path><path d="M461.11,164.27V152.91h3.77a4.5,4.5,0,0,1,2.22.47,2.52,2.52,0,0,1,1.28,1.21,3.42,3.42,0,0,1,.4,1.68,3.65,3.65,0,0,1-.4,1.68,3.2,3.2,0,0,1-1.28,1.21,5.43,5.43,0,0,1-2.22.47h-2.36v4.78h-1.41Zm1.35-5.85h2.35a2.61,2.61,0,0,0,1.95-.6,2.19,2.19,0,0,0,.61-1.62,2.15,2.15,0,0,0-.61-1.61,2.57,2.57,0,0,0-1.95-.61h-2.35Z" transform="translate(-60.5 -74.43)"></path><path d="M472.75,164.48a4.18,4.18,0,0,1-1.68-.34,2,2,0,0,1-1-.94,2.81,2.81,0,0,1-.34-1.21,2.21,2.21,0,0,1,.94-1.89,4.14,4.14,0,0,1,2.56-.67h2.15v-.07a2.42,2.42,0,0,0-.54-1.61,2.06,2.06,0,0,0-1.48-.54,2.2,2.2,0,0,0-1.34.4,1.92,1.92,0,0,0-.74,1.15h-1.41a2.64,2.64,0,0,1,.6-1.48,3,3,0,0,1,1.28-.94,4.47,4.47,0,0,1,1.61-.34,3.4,3.4,0,0,1,2.56.87,3.57,3.57,0,0,1,.88,2.43v5h-1.22l-.06-1.48a2.45,2.45,0,0,1-1,1.15A2.5,2.5,0,0,1,472.75,164.48Zm.2-1.15a2.29,2.29,0,0,0,1.35-.4,2.33,2.33,0,0,0,.87-1.08,3.21,3.21,0,0,0,.27-1.34h-2.09a2.69,2.69,0,0,0-1.68.4,1.32,1.32,0,0,0,0,2A1.72,1.72,0,0,0,473,163.33Z" transform="translate(-60.5 -74.43)"></path><path d="M478.87,164.27V156.2h1.21l.13,1.55a3,3,0,0,1,1.15-1.28,3.37,3.37,0,0,1,1.88-.47v1.41h-.4a3.08,3.08,0,0,0-1.35.27,1.72,1.72,0,0,0-.94.88,3,3,0,0,0-.34,1.68v4Z" transform="translate(-60.5 -74.43)"></path><path d="M488,164.27a2.76,2.76,0,0,1-1.75-.53,2.52,2.52,0,0,1-.6-2v-4.44h-1.42V156.2h1.42l.2-1.95H487v1.95h2.35v1.15H487v4.44c0,.53.13.87.34,1s.53.27,1.07.27h.88v1.15H488Z" transform="translate(-60.5 -74.43)"></path><path d="M491.85,154.45a.83.83,0,0,1-.67-.27.95.95,0,0,1,1.34-1.34.94.94,0,0,1-.67,1.61Zm-.67,9.82V156.2h1.34v8.07Z" transform="translate(-60.5 -74.43)"></path><path d="M497.57,164.48a4.18,4.18,0,0,1-1.68-.34,2,2,0,0,1-1-.94,2.81,2.81,0,0,1-.34-1.21,2.21,2.21,0,0,1,.94-1.89,4.14,4.14,0,0,1,2.56-.67h2.15v-.07a2.42,2.42,0,0,0-.54-1.61,2.06,2.06,0,0,0-1.48-.54,2.2,2.2,0,0,0-1.34.4,1.92,1.92,0,0,0-.74,1.15h-1.41a2.64,2.64,0,0,1,.6-1.48,3,3,0,0,1,1.28-.94,4.47,4.47,0,0,1,1.61-.34,3.39,3.39,0,0,1,2.56.87,3.57,3.57,0,0,1,.88,2.43v5h-1.22l-.06-1.48a3.09,3.09,0,0,1-2.76,1.69Zm.27-1.15a2.24,2.24,0,0,0,1.34-.4,2.29,2.29,0,0,0,.88-1.08,3.21,3.21,0,0,0,.27-1.34h-2.09a2.67,2.67,0,0,0-1.68.4,1.32,1.32,0,0,0,0,2A1.71,1.71,0,0,0,497.84,163.33Z" transform="translate(-60.5 -74.43)"></path><path d="M503.69,164.27v-11.7H505v11.7Z" transform="translate(-60.5 -74.43)"></path><path d="M617.84,176.58H442.08" transform="translate(-60.5 -74.43)" style="fill:none;stroke:#ffd100;stroke-miterlimit:10;stroke-width:2px"></path><path d="M447.93,169.72,441,176.58l6.93,6.93" transform="translate(-60.5 -74.43)" style="fill:none;stroke:#ffd100;stroke-miterlimit:10;stroke-width:2px"></path><path d="M550.71,237.05l6.87,6.87,6.86-6.87" transform="translate(-60.5 -74.43)" style="fill:none;stroke:#ffd100;stroke-miterlimit:10;stroke-width:2px"></path><path d="M542,112.88,535.18,106l-6.93,6.86" transform="translate(-60.5 -74.43)" style="fill:none;stroke:#ffd100;stroke-miterlimit:10;stroke-width:2px"></path><path d="M627,176.58H591.14a33.65,33.65,0,0,0-33.63,33.64v33.36" transform="translate(-60.5 -74.43)" style="fill:none;stroke:#ffd100;stroke-miterlimit:10;stroke-width:2px"></path><path d="M535.18,106.7v35.85a33.64,33.64,0,0,0,33.63,33.63h33.36" transform="translate(-60.5 -74.43)" style="fill:none;stroke:#ffd100;stroke-miterlimit:10;stroke-width:2px"></path><path d="M629.29,189.82a23.48,23.48,0,0,0,7.26,1.14,24,24,0,1,0-.06-48,23.49,23.49,0,0,0-7.27,1.14" transform="translate(-60.5 -74.43)" style="fill:#fc0"></path><path d="M629.29,189.82a23.48,23.48,0,0,0,7.26,1.14,24,24,0,1,0-.06-48,23.49,23.49,0,0,0-7.27,1.14" transform="translate(-60.5 -74.43)" style="fill:none;stroke:#293b4a;stroke-miterlimit:10;stroke-width:2px"></path><path d="M614.63,189.82a23.38,23.38,0,0,0,7.26,1.14,24,24,0,0,0,0-48,23.38,23.38,0,0,0-7.26,1.14" transform="translate(-60.5 -74.43)" style="fill:#fc0"></path><path d="M614.63,189.82a23.38,23.38,0,0,0,7.26,1.14,24,24,0,0,0,0-48,23.38,23.38,0,0,0-7.26,1.14" transform="translate(-60.5 -74.43)" style="fill:none;stroke:#293b4a;stroke-miterlimit:10;stroke-width:2px"></path><path d="M607.36,143.07a23.95,23.95,0,1,0,23.95,24A23.91,23.91,0,0,0,607.36,143.07ZM610.59,167c2.56.87,4.31,2.82,4.31,5.11,0,3.09-3.37,5.65-7.54,5.65V167" transform="translate(-60.5 -74.43)" style="fill:#fc0"></path><path d="M610.59,167c2.56.87,4.31,2.82,4.31,5.11,0,3.09-3.37,5.65-7.54,5.65V167m0-23.88a23.95,23.95,0,1,0,23.95,24A23.91,23.91,0,0,0,607.36,143.07Z" transform="translate(-60.5 -74.43)" style="fill:none;stroke:#293b4a;stroke-miterlimit:10;stroke-width:2px"></path><path d="M607.36,166.41c-4.17,0-7.53-2.56-7.53-5.65s3.36-5.65,7.53-5.65,7.54,2.55,7.54,5.65" transform="translate(-60.5 -74.43)" style="fill:#fc0"></path><path d="M607.36,166.41c-4.17,0-7.53-2.56-7.53-5.65s3.36-5.65,7.53-5.65,7.54,2.55,7.54,5.65" transform="translate(-60.5 -74.43)" style="fill:none;stroke:#293b4a;stroke-miterlimit:10;stroke-width:2px"></path><path d="M599.9,172.06c0,3.09,3.36,5.65,7.53,5.65s7.53-2.56,7.53-5.65c0-2.22-1.75-4.17-4.3-5.11a10.08,10.08,0,0,0-3.23-.54" transform="translate(-60.5 -74.43)" style="fill:#fc0"></path><path d="M599.9,172.06c0,3.09,3.36,5.65,7.53,5.65s7.53-2.56,7.53-5.65c0-2.22-1.75-4.17-4.3-5.11a10.08,10.08,0,0,0-3.23-.54" transform="translate(-60.5 -74.43)" style="fill:none;stroke:#293b4a;stroke-miterlimit:10;stroke-width:2px"></path><path d="M607.36,183.29V150.67" transform="translate(-60.5 -74.43)" style="fill:#fc0"></path><path d="M607.36,183.29V150.67" transform="translate(-60.5 -74.43)" style="fill:none;stroke:#293b4a;stroke-miterlimit:10;stroke-width:2px"></path><path d="M221.39,126.79c.06-.88-2.39-3.86-6.41-2" transform="translate(-60.5 -74.43)" style="fill:none;stroke:#293b4a;stroke-linejoin:round;stroke-width:2px"></path><path d="M219.27,115.85a1.4,1.4,0,1,0-1.39-1.4A1.39,1.39,0,0,0,219.27,115.85Z" transform="translate(-60.5 -74.43)" style="fill:#293b4a"></path><path d="M185,237c10,4,22,4.87,34.49,6.15" transform="translate(-60.5 -74.43)" style="fill:none;stroke:#293b4a;stroke-miterlimit:10;stroke-width:2px"></path><path d="M204.12,112.05c5.37,20.35-1.73,24.71-5,25.61a39.09,39.09,0,0,0-6,2.06c-15.93,7.16-38.63,25.78-40.81,63-1.18,20,2.35,33.32,35.16,40" transform="translate(-60.5 -74.43)" style="fill:none;stroke:#293b4a;stroke-miterlimit:10;stroke-width:2px"></path><path d="M264.78,243.49c-7.49-17.39-26.61-14.26-26.61-14.26l-4.25-1.56" transform="translate(-60.5 -74.43)" style="fill:none;stroke:#293b4a;stroke-miterlimit:10;stroke-width:2px"></path><path d="M188,176.68c-2.35,22.36-11.63,35.61-11.63,35.61s13.3,1.18,41,9" transform="translate(-60.5 -74.43)" style="fill:none;stroke:#293b4a;stroke-miterlimit:10;stroke-width:2px"></path><path d="M242.09,173.94c2.85,20.35.78,49.87.78,49.87" transform="translate(-60.5 -74.43)" style="fill:none;stroke:#293b4a;stroke-miterlimit:10;stroke-width:2px"></path><path d="M305.2,112.78v69.55l110.25,5.36V93.38Z" transform="translate(-60.5 -74.43)" style="fill:none;stroke:#293b4a;stroke-miterlimit:10;stroke-width:2px"></path><path d="M421.55,94.72v82.8" transform="translate(-60.5 -74.43)" style="fill:none;stroke:#293b4a;stroke-miterlimit:10;stroke-width:2px"></path><path d="M354.63,194.29l-2.74-9.67" transform="translate(-60.5 -74.43)" style="fill:none;stroke:#293b4a;stroke-miterlimit:10;stroke-width:2px"></path><path d="M368.6,185.4l17.95,15.26" transform="translate(-60.5 -74.43)" style="fill:none;stroke:#293b4a;stroke-miterlimit:10;stroke-width:2px"></path><path d="M399.46,200.66H344.34v7.44" transform="translate(-60.5 -74.43)" style="fill:none;stroke:#293b4a;stroke-miterlimit:10;stroke-width:2px"></path><path d="M305.2,132.12h-74" transform="translate(-60.5 -74.43)" style="fill:none;stroke:#293b4a;stroke-miterlimit:10;stroke-width:2px"></path><path d="M205.41,132.12H152.3" transform="translate(-60.5 -74.43)" style="fill:none;stroke:#293b4a;stroke-linejoin:round;stroke-width:2px"></path><path d="M154.59,243.15H430.32" transform="translate(-60.5 -74.43)" style="fill:none;stroke:#293b4a;stroke-linejoin:round;stroke-width:2px"></path><path d="M267.24,222.47c4.36,5.36,12,10.84,18.06,14.2" transform="translate(-60.5 -74.43)" style="fill:none;stroke:#293b4a;stroke-miterlimit:10;stroke-width:2px"></path><path d="M349.7,221.35v21.8" transform="translate(-60.5 -74.43)" style="fill:none;stroke:#293b4a;stroke-miterlimit:10;stroke-width:2px"></path><path d="M325.67,223v20.12" transform="translate(-60.5 -74.43)" style="fill:none;stroke:#293b4a;stroke-miterlimit:10;stroke-width:2px"></path><path d="M355.86,210.5H320.69v10.9h35.17Z" transform="translate(-60.5 -74.43)" style="fill:none;stroke:#293b4a;stroke-miterlimit:10;stroke-width:2px"></path><path d="M285.3,243.15v-8.89l35.39-23.76" transform="translate(-60.5 -74.43)" style="fill:none;stroke:#293b4a;stroke-miterlimit:10;stroke-width:2px"></path><path d="M320.69,204.35c4.08,1.74,3.08,6.1,3.08,6.1" transform="translate(-60.5 -74.43)" style="fill:none;stroke:#293b4a;stroke-miterlimit:10;stroke-width:2px"></path><path d="M336.62,210.5s.84-4.86-4.3-8.89a4.9,4.9,0,0,0-2.85-1H319.24a4.22,4.22,0,0,0-2.18.56c-5.6,3-31.42,17.56-30,31.92" transform="translate(-60.5 -74.43)" style="fill:none;stroke:#293b4a;stroke-miterlimit:10;stroke-width:2px"></path><path d="M243.54,204.8c5.81,17.11,22.31,25.77,22.31,25.77" transform="translate(-60.5 -74.43)" style="fill:none;stroke:#293b4a;stroke-miterlimit:10;stroke-width:2px"></path><path d="M293.29,219.84c-14.42-14.93-27.5-21.47-27.5-21.47-3.24-23-9.06-39.92-33.66-55.74a.35.35,0,0,0-.5.45c5.09,12.35-7.49,26.95-37.62-3.64" transform="translate(-60.5 -74.43)" style="fill:none;stroke:#293b4a;stroke-miterlimit:10;stroke-width:2px"></path><path d="M281.55,208.88c-21.24,14.54-18.78,29.13-9.56,18" transform="translate(-60.5 -74.43)" style="fill:none;stroke:#293b4a;stroke-miterlimit:10;stroke-width:2px"></path><path d="M204.29,217.88c-20.4,5-27.45,33.94-7.43,22.53" transform="translate(-60.5 -74.43)" style="fill:none;stroke:#293b4a;stroke-miterlimit:10;stroke-width:2px"></path><path d="M234.5,226.56c.3-2.45-4-5-9.54-5.7s-10.35.72-10.66,3.17,4,5,9.55,5.7S234.19,229,234.5,226.56Z" transform="translate(-60.5 -74.43)" style="fill:none;stroke:#293b4a;stroke-miterlimit:10;stroke-width:2px"></path><path d="M218.27,228.28a20.07,20.07,0,0,0-5.82,14.59" transform="translate(-60.5 -74.43)" style="fill:none;stroke:#293b4a;stroke-miterlimit:10;stroke-width:2px"></path><path d="M225.87,229.9c-4.92,5-3.58,13.53-3.58,13.53" transform="translate(-60.5 -74.43)" style="fill:none;stroke:#293b4a;stroke-miterlimit:10;stroke-width:2px"></path><path d="M232.19,163.43c-4.87,4.64-12.58,1.28-13.64,0" transform="translate(-60.5 -74.43)" style="fill:none;stroke:#293b4a;stroke-miterlimit:10;stroke-width:2px"></path><path d="M264.17,146.55h23.31s-3.52,15.54,5.76,17.16H275.13a9.89,9.89,0,0,1-9.34-6.65A33.08,33.08,0,0,1,264.17,146.55Z" transform="translate(-60.5 -74.43)" style="fill:none;stroke:#293b4a;stroke-miterlimit:10;stroke-width:2px"></path><path d="M268.92,158s4.47.05,5.65-1.74c0,0,2.51,3.36.28,5.65" transform="translate(-60.5 -74.43)" style="fill:none;stroke:#293b4a;stroke-miterlimit:10;stroke-width:2px"></path><path d="M246.78,234.77c10.57,2.74,11,8,11,8" transform="translate(-60.5 -74.43)" style="fill:none;stroke:#293b4a;stroke-miterlimit:10;stroke-width:2px"></path><path d="M240.52,237.11c7.49,2,7.77,5.76,7.77,5.76" transform="translate(-60.5 -74.43)" style="fill:none;stroke:#293b4a;stroke-miterlimit:10;stroke-width:2px"></path><path d="M215.75,133.24c3,5.48,6.15,1.45,6.15,1.45,3.13,3.19,5.82.95,5.42-1.73l-1.89-10.18,2.85-1.17a2,2,0,0,0,1.06-2.68c-.67-1.51-1.4-3.08-2-4.42a12.67,12.67,0,0,1-1.06-7.16,12.3,12.3,0,0,1,1.28-4" transform="translate(-60.5 -74.43)" style="fill:none;stroke:#293b4a;stroke-linejoin:round;stroke-width:2px"></path><path d="M224.64,136.2c-.39,5,4.75,6.1,4.75,6.1" transform="translate(-60.5 -74.43)" style="fill:none;stroke:#293b4a;stroke-linejoin:round;stroke-width:2px"></path><path d="M97.29,228.5,101,243.15H120.1l3.8-14.65Z" transform="translate(-60.5 -74.43)" style="fill:none;stroke:#293b4a;stroke-miterlimit:10;stroke-width:2px"></path><path d="M110.59,225.88V172.21" transform="translate(-60.5 -74.43)" style="fill:none;stroke:#293b4a;stroke-miterlimit:10;stroke-width:2px"></path><path d="M92.7,188.7s1.9,19,17.39,21.91C110.09,210.56,110.82,196.47,92.7,188.7Z" transform="translate(-60.5 -74.43)" style="fill:none;stroke:#293b4a;stroke-miterlimit:10;stroke-width:2px"></path><path d="M131.22,200.94s-18.73,3.47-20.35,19.18C110.82,220.12,125,219.62,131.22,200.94Z" transform="translate(-60.5 -74.43)" style="fill:none;stroke:#293b4a;stroke-miterlimit:10;stroke-width:2px"></path><path d="M110.59,172.15a3.86,3.86,0,1,0-3.86-3.86A3.86,3.86,0,0,0,110.59,172.15Z" transform="translate(-60.5 -74.43)" style="fill:none;stroke:#293b4a;stroke-miterlimit:10;stroke-width:2px"></path><path d="M113.44,178.47c2.18,3.8,5,6.32,6.21,5.59s.5-4.36-1.73-8.16a4,4,0,0,0-.28-.45l.44.28c3.81,2.18,7.44,3,8.17,1.73s-1.79-4-5.59-6.2a4,4,0,0,1-.45-.28h.56c4.36,0,7.94-1.18,7.94-2.63s-3.58-2.63-7.94-2.63h-.56a3.54,3.54,0,0,0,.45-.28c3.8-2.18,6.31-5,5.59-6.2s-4.36-.51-8.17,1.73a3.37,3.37,0,0,0-.44.28c.11-.17.16-.28.28-.45,2.18-3.8,3-7.43,1.73-8.16s-4,1.79-6.21,5.59a2.68,2.68,0,0,1-.28.45v-.56c0-4.36-1.17-7.94-2.62-7.94s-2.63,3.58-2.63,7.94v.56a2.94,2.94,0,0,0-.28-.45c-2.18-3.8-5-6.32-6.21-5.59s-.5,4.36,1.74,8.16a2.33,2.33,0,0,0,.28.45L103,161c-3.8-2.18-7.44-3-8.16-1.73s1.79,4,5.59,6.2a3.37,3.37,0,0,1,.44.28h-.55c-4.37,0-7.94,1.17-7.94,2.63s3.57,2.63,7.94,2.63h.55a2.57,2.57,0,0,0-.44.28c-3.8,2.18-6.32,5-5.59,6.2s4.36.5,8.16-1.73a3.54,3.54,0,0,0,.45-.28c-.12.17-.17.28-.28.45-2.18,3.8-3,7.43-1.74,8.16s4-1.79,6.21-5.59Z" transform="translate(-60.5 -74.43)" style="fill:none;stroke:#293b4a;stroke-miterlimit:10;stroke-width:2px"></path><path d="M123.56,243.15h25.05" transform="translate(-60.5 -74.43)" style="fill:none;stroke:#293b4a;stroke-miterlimit:10;stroke-width:2px"></path><path d="M79.62,243.15h24.65" transform="translate(-60.5 -74.43)" style="fill:none;stroke:#293b4a;stroke-miterlimit:10;stroke-width:2px"></path><path d="M60.5,243.15H72.8" transform="translate(-60.5 -74.43)" style="fill:none;stroke:#293b4a;stroke-miterlimit:10;stroke-width:2px"></path><path d="M440.72,243.22h58.64" transform="translate(-60.5 -74.43)" style="fill:none;stroke:#293b4a;stroke-miterlimit:10;stroke-width:2px"></path><path d="M227,105.17s-11.18-2.29-12.3,2.41-.5,11.07-4.08,6c-2.57-3.58-3.19-3.41-3.75-1.84a12.11,12.11,0,0,0-.67,4.24c.06,2.86,3.58,9.4-.11,9.9,0,0-5-5.37-8.89-10-6.87-8.22-10.45-34.66,11.8-31.92-1.73,2.29-8.39,4.81-9.45,4.81,4.75,0,8.72-2.07,12-4.48,3.08-2.29,5.54-4.8,7.49-6.09a19.24,19.24,0,0,1,8.67-3.47C254.38,71.18,235.26,102.55,227,105.17Z" transform="translate(-60.5 -74.43)" style="fill:#293b4a;fill-rule:evenodd"></path><path d="M215.22,126.11a2.54,2.54,0,0,0-.48-2.54" transform="translate(-60.5 -74.43)" style="fill:none;stroke:#293b4a;stroke-linejoin:round;stroke-width:2px"></path><path d="M319.35,156.11l36.95-.56" transform="translate(-60.5 -74.43)" style="fill:none;stroke:#293b4a;stroke-linejoin:round;stroke-width:2px"></path><path d="M319.35,162l36.95.5" transform="translate(-60.5 -74.43)" style="fill:none;stroke:#293b4a;stroke-linejoin:round;stroke-width:2px"></path><path d="M319.35,167.9,356.3,169" transform="translate(-60.5 -74.43)" style="fill:none;stroke:#293b4a;stroke-linejoin:round;stroke-width:2px"></path><path d="M350.21,120.49v22.2l-29.91,1.06V124.69Z" transform="translate(-60.5 -74.43)" style="fill:none;stroke:#293b4a;stroke-linejoin:round;stroke-width:2px"></path><path d="M386.55,243.49V226.83h28.9v-19.4h21" transform="translate(-60.5 -74.43)" style="fill:none;stroke:#293b4a;stroke-linejoin:round;stroke-width:2px"></path><path d="M144.36,242.87,137.82,169s4.81-8.21,29.57-8.77" transform="translate(-60.5 -74.43)" style="fill:none;stroke:#293b4a;stroke-miterlimit:10;stroke-width:2px"></path><path d="M148.05,227.72l-4.75-53.78" transform="translate(-60.5 -74.43)" style="fill:none;stroke:#293b4a;stroke-miterlimit:10;stroke-width:2px"></path></svg>