<svg xmlns="http://www.w3.org/2000/svg" id="Layer_1" data-name="Layer 1" viewBox="0 0 559.4 420.82"><path d="M851.24,374.21H350a24.64,24.64,0,0,0-24.65,24.62V770.4A24.64,24.64,0,0,0,350,795H851.24a24.64,24.64,0,0,0,24.65-24.63V398.83A24.64,24.64,0,0,0,851.24,374.21Z" transform="translate(-325.33 -374.21)" style="fill: #f1f3f5"></path><path d="M848.25,383.16H353A17.92,17.92,0,0,0,335,401.07V768.16A17.92,17.92,0,0,0,353,786.07H848.25a17.92,17.92,0,0,0,17.93-17.91V401.07A17.92,17.92,0,0,0,848.25,383.16Z" transform="translate(-325.33 -374.21)" style="fill: #fff"></path><path d="M808.55,406.78a4.78,4.78,0,1,0-4.78-4.78A4.78,4.78,0,0,0,808.55,406.78Z" transform="translate(-325.33 -374.21)" style="fill: #5273fd"></path><path d="M790.61,406.78a4.78,4.78,0,1,0-4.78-4.78A4.78,4.78,0,0,0,790.61,406.78Z" transform="translate(-325.33 -374.21)" style="fill: #ff340c"></path><path d="M844.44,406.78a4.78,4.78,0,1,0-4.78-4.78A4.78,4.78,0,0,0,844.44,406.78Z" transform="translate(-325.33 -374.21)" style="fill: #19ad4a"></path><path d="M826.5,406.78a4.78,4.78,0,1,0-4.78-4.78A4.78,4.78,0,0,0,826.5,406.78Z" transform="translate(-325.33 -374.21)" style="fill: #fc0"></path><path d="M762.3,657H541.66a10,10,0,0,0-10,10v73.32a10,10,0,0,0,10,10H762.3a10,10,0,0,0,10-10V666.93A10,10,0,0,0,762.3,657Z" transform="translate(-325.33 -374.21)" style="fill: #b2cdf7"></path><path d="M632.59,693.61l4-11h2.27l4,11h-2.17l-.88-2.54h-4.28l-.91,2.54Zm3.56-4.1h3.19l-1.6-4.58Z" transform="translate(-325.33 -374.21)" style="fill: #293b4a"></path><path d="M644.5,697.06V685.83h1.79l.21,1.11a3.82,3.82,0,0,1,1-.91,2.9,2.9,0,0,1,1.6-.39,3.57,3.57,0,0,1,2,.53,3.75,3.75,0,0,1,1.38,1.47,4.64,4.64,0,0,1,0,4.19,3.67,3.67,0,0,1-1.38,1.44,3.56,3.56,0,0,1-2,.52,3.22,3.22,0,0,1-1.53-.32,2.7,2.7,0,0,1-1.08-.93v4.52Zm4.19-5a2.08,2.08,0,0,0,.86-.15,2.23,2.23,0,0,0,.73-.49,2.33,2.33,0,0,0,.48-.76,2.13,2.13,0,0,0,.14-.9,2.35,2.35,0,0,0-.62-1.69,2.21,2.21,0,0,0-3.8,1.66,2.36,2.36,0,0,0,.61,1.68,2.19,2.19,0,0,0,.73.51,2.32,2.32,0,0,0,.87.17Z" transform="translate(-325.33 -374.21)" style="fill: #293b4a"></path><path d="M655,697.06V685.83h1.79l.22,1.11a3.63,3.63,0,0,1,1-.91,2.85,2.85,0,0,1,1.61-.39,3.72,3.72,0,0,1,2,.53,4,4,0,0,1,1.31,1.47,4.56,4.56,0,0,1,0,4.19,3.86,3.86,0,0,1-1.31,1.44,3.62,3.62,0,0,1-2,.52,3.35,3.35,0,0,1-1.55-.32,2.72,2.72,0,0,1-1.06-.93v4.52Zm4.19-5a2.19,2.19,0,0,0,.87-.15,2.23,2.23,0,0,0,.73-.49,2.36,2.36,0,0,0,.61-1.66,2.45,2.45,0,0,0-.61-1.69,2.23,2.23,0,0,0-.73-.49,2.17,2.17,0,0,0-.87-.16,2,2,0,0,0-.87.16,2,2,0,0,0-.73.49,2.34,2.34,0,0,0-.62,1.66,2.37,2.37,0,0,0,.62,1.68,2.09,2.09,0,0,0,.73.51,2.32,2.32,0,0,0,.87.17Z" transform="translate(-325.33 -374.21)" style="fill: #293b4a"></path><path d="M665.43,693.61v-11.3h2v11.3Z" transform="translate(-325.33 -374.21)" style="fill: #293b4a"></path><path d="M670.87,684.62a1.34,1.34,0,0,1-.92-.33,1.19,1.19,0,0,1-.25-.38,1.13,1.13,0,0,1-.09-.45,1.09,1.09,0,0,1,.34-.82,1.34,1.34,0,0,1,.92-.33,1.38,1.38,0,0,1,.89.33,1.13,1.13,0,0,1,.28.37,1.17,1.17,0,0,1,.09.45,1.06,1.06,0,0,1-.1.46,1,1,0,0,1-.27.37A1.38,1.38,0,0,1,670.87,684.62Zm-1,9v-7.78h2v7.78Z" transform="translate(-325.33 -374.21)" style="fill: #293b4a"></path><path d="M678,693.79a4.2,4.2,0,0,1-2.11-.51,3.78,3.78,0,0,1-1.44-1.45,4.56,4.56,0,0,1,0-4.23,3.69,3.69,0,0,1,1.44-1.44,4.5,4.5,0,0,1,4.63.26,3.51,3.51,0,0,1,1.31,2.14h-2.13a1.53,1.53,0,0,0-.61-.88,1.83,1.83,0,0,0-1.1-.33,1.91,1.91,0,0,0-.78.16,2,2,0,0,0-.64.47,2.92,2.92,0,0,0-.57,1.74,3,3,0,0,0,.57,1.75,1.8,1.8,0,0,0,.64.46,1.76,1.76,0,0,0,.78.16,2,2,0,0,0,1.1-.31,1.49,1.49,0,0,0,.61-.9h2.13a3.63,3.63,0,0,1-1.31,2.12A3.94,3.94,0,0,1,678,693.79Z" transform="translate(-325.33 -374.21)" style="fill: #293b4a"></path><path d="M686.49,693.79a3.73,3.73,0,0,1-1.65-.31,2.23,2.23,0,0,1-1-.86,2.35,2.35,0,0,1-.32-1.18,2.1,2.1,0,0,1,.22-1,2,2,0,0,1,.64-.77A4.07,4.07,0,0,1,687,689h2v-.18a1.61,1.61,0,0,0-.1-.65,1.47,1.47,0,0,0-.36-.53,1.72,1.72,0,0,0-1.13-.38,2.1,2.1,0,0,0-1.07.29,1.19,1.19,0,0,0-.37.37,1.3,1.3,0,0,0-.2.49h-2a2.76,2.76,0,0,1,.57-1.48,3.19,3.19,0,0,1,1.31-1,4.28,4.28,0,0,1,1.76-.34,3.92,3.92,0,0,1,2.62.83,3,3,0,0,1,1,2.36v4.78h-1.77L689,692.3a3.12,3.12,0,0,1-1,1A2.84,2.84,0,0,1,686.49,693.79Zm.45-1.56a1.6,1.6,0,0,0,.72-.14,1.48,1.48,0,0,0,.59-.43,2.58,2.58,0,0,0,.61-1.4h-1.71a1.88,1.88,0,0,0-1.15.3.87.87,0,0,0-.25.32.86.86,0,0,0-.09.39.8.8,0,0,0,.08.4.86.86,0,0,0,.26.31A1.57,1.57,0,0,0,686.94,692.23Z" transform="translate(-325.33 -374.21)" style="fill: #293b4a"></path><path d="M696.56,693.61a3,3,0,0,1-2-.6,2.68,2.68,0,0,1-.6-1,2.58,2.58,0,0,1-.13-1.14v-3.38h-1.31v-1.68h1.31l.24-2.09h1.76v2.09H698v1.68h-2.11v3.41a1,1,0,0,0,0,.41,1,1,0,0,0,.2.36,1.32,1.32,0,0,0,.84.21h1v1.71Z" transform="translate(-325.33 -374.21)" style="fill: #293b4a"></path><path d="M701,684.62a1.35,1.35,0,0,1-.9-.33,1.07,1.07,0,0,1-.27-.37,1.2,1.2,0,0,1,0-.91,1,1,0,0,1,.27-.37,1.43,1.43,0,0,1,1.8,0,1,1,0,0,1,.27.37,1.2,1.2,0,0,1,0,.91,1.07,1.07,0,0,1-.27.37A1.33,1.33,0,0,1,701,684.62Zm-1,9v-7.78h2v7.78Z" transform="translate(-325.33 -374.21)" style="fill: #293b4a"></path><path d="M708.09,693.79a4,4,0,0,1-2.05-.51,3.9,3.9,0,0,1-1.42-1.43,4.12,4.12,0,0,1-.53-2.14,4,4,0,0,1,.54-2.11,3.73,3.73,0,0,1,1.43-1.44,4,4,0,0,1,2-.52,4,4,0,0,1,2,.52,3.8,3.8,0,0,1,1.43,1.44,4.58,4.58,0,0,1,.52,2.12,4.65,4.65,0,0,1-.52,2.13,3.83,3.83,0,0,1-1.45,1.43A3.93,3.93,0,0,1,708.09,693.79Zm0-1.73a1.94,1.94,0,0,0,.71-.17,1.81,1.81,0,0,0,.6-.42,3,3,0,0,0,.57-1.75,2.92,2.92,0,0,0-.57-1.74,1.9,1.9,0,0,0-.62-.44,1.93,1.93,0,0,0-1.49,0,1.9,1.9,0,0,0-.62.44,2.92,2.92,0,0,0-.57,1.74,3,3,0,0,0,.57,1.75,1.91,1.91,0,0,0,.64.45,1.75,1.75,0,0,0,.78.15Z" transform="translate(-325.33 -374.21)" style="fill: #293b4a"></path><path d="M714.1,693.61v-7.78h1.78l.16,1.31a2.66,2.66,0,0,1,1-1.1,3.16,3.16,0,0,1,1.62-.42,2.86,2.86,0,0,1,1.22.21,2.93,2.93,0,0,1,1,.71,4,4,0,0,1,.8,2.61v4.4h-2v-4.1a2.39,2.39,0,0,0-.42-1.53,1.38,1.38,0,0,0-.58-.43,1.51,1.51,0,0,0-.73-.1,1.8,1.8,0,0,0-.76.14,1.76,1.76,0,0,0-.62.46,2.29,2.29,0,0,0-.54,1.66v4Z" transform="translate(-325.33 -374.21)" style="fill: #293b4a"></path><path d="M727.08,693.79a4.54,4.54,0,0,1-1.82-.32,3.24,3.24,0,0,1-1.31-.94,2.65,2.65,0,0,1-.56-1.31h2a1.31,1.31,0,0,0,.51.77,1.72,1.72,0,0,0,1.07.33,1.41,1.41,0,0,0,1-.28.64.64,0,0,0,.22-.27.81.81,0,0,0,.08-.34.65.65,0,0,0-.1-.41.63.63,0,0,0-.33-.27,8.67,8.67,0,0,0-1.23-.36,6.93,6.93,0,0,1-1-.26,4.06,4.06,0,0,1-1-.4,2,2,0,0,1-.69-.63,1.51,1.51,0,0,1-.26-.94,2,2,0,0,1,.21-1,2.21,2.21,0,0,1,.61-.78,4.1,4.1,0,0,1,4.52,0,2.65,2.65,0,0,1,.67.78,2.61,2.61,0,0,1,.31,1h-1.9c-.11-.57-.55-.86-1.31-.86a1.46,1.46,0,0,0-.86.22.63.63,0,0,0-.23.23.62.62,0,0,0-.09.32c0,.24.16.42.46.55a7.49,7.49,0,0,0,1.22.38,12.14,12.14,0,0,1,1.49.42,2.48,2.48,0,0,1,1.1.66,1.89,1.89,0,0,1,.41,1.31,2.18,2.18,0,0,1-.38,1.31,2.63,2.63,0,0,1-1.13.9A4.06,4.06,0,0,1,727.08,693.79Z" transform="translate(-325.33 -374.21)" style="fill: #293b4a"></path><path d="M584.72,733.41A31.63,31.63,0,1,0,553,701.78,31.65,31.65,0,0,0,584.72,733.41Z" transform="translate(-325.33 -374.21)" style="fill: #f1f3f5"></path><path d="M592.27,707.37c-1.62,2.21-3.62,4.22-5.7,4.69-5.07,1.11-4.69-10.11-4.69-10.11l-2.62-.36.16-3.82c.25-4.15-1.21-5-1.21-5" transform="translate(-325.33 -374.21)" style="fill: none;stroke: #293b4a;stroke-linejoin: round;stroke-width: 1.5703500509262085px"></path><path d="M583.83,706.25a7.48,7.48,0,0,0,4.48-1.85" transform="translate(-325.33 -374.21)" style="fill: none;stroke: #293b4a;stroke-linejoin: round;stroke-width: 1.5703500509262085px"></path><path d="M586.07,680c-4.37-4.85-8.67,1.75-7.53,3a5,5,0,0,0-2.54,5.53s-5.12,7.74,3.22,6.26c0,0,1.14-3.75,7.86-2.12a14.3,14.3,0,0,0,6.88.21s.26,2.33-1.31,3.22c0,0-.41,6.39.9,6.27,0,0,3-1.43,4.09-.32s3.22-4.1.24-6.93c0,0,3.72-3,.66-5.23,0,0,2-6.47-3.93-4.4,0,0,1-5.72-4.83-4C589.73,681.61,589.13,679.11,586.07,680Z" transform="translate(-325.33 -374.21)" style="fill: #293b4a"></path><path d="M585.2,697.83a.88.88,0,1,0-.88-.87A.87.87,0,0,0,585.2,697.83Z" transform="translate(-325.33 -374.21)" style="fill: #293b4a"></path><path d="M594.89,693.3c-1.31,12.2,5.79,14.69,5.79,14.69s5.06,0,12.08,4" transform="translate(-325.33 -374.21)" style="fill: none;stroke: #293b4a;stroke-miterlimit: 10;stroke-width: 1.5703500509262085px"></path><path d="M582.61,708.79c-9.83,3-16.1,10.85-20.08,19.53" transform="translate(-325.33 -374.21)" style="fill: none;stroke: #293b4a;stroke-miterlimit: 10;stroke-width: 1.5703500509262085px"></path><path d="M575.4,727.45a39.56,39.56,0,0,0-1.46,6" transform="translate(-325.33 -374.21)" style="fill: none;stroke: #293b4a;stroke-miterlimit: 10;stroke-width: 1.5703500509262085px"></path><path d="M588.34,692.07c2.11.59-1.06,8.26,1.15,7.35s1.76-2.21,3.68-3.13,1.31-7.31,1.31-7.31l-4.94,3.13Z" transform="translate(-325.33 -374.21)" style="fill: #293b4a"></path><path d="M603.4,708.29c-21.44,24.85-25.58,10.88-20.79.5" transform="translate(-325.33 -374.21)" style="fill: none;stroke: #293b4a;stroke-miterlimit: 10;stroke-width: 1.5703500509262085px"></path><path d="M614,703.44a31.58,31.58,0,1,1-9.26-22.27A31.45,31.45,0,0,1,614,703.44Z" transform="translate(-325.33 -374.21)" style="fill: none;stroke: #293b4a;stroke-miterlimit: 10;stroke-width: 1.5703500509262085px"></path><path d="M632.72,710H746.56" transform="translate(-325.33 -374.21)" style="fill: none;stroke: #293b4a;stroke-miterlimit: 10;stroke-width: 1.5703500509262085px"></path><path d="M632.72,721H746.56" transform="translate(-325.33 -374.21)" style="fill: none;stroke: #293b4a;stroke-miterlimit: 10;stroke-width: 1.5703500509262085px"></path><path d="M632.72,731.67H746.56" transform="translate(-325.33 -374.21)" style="fill: none;stroke: #293b4a;stroke-miterlimit: 10;stroke-width: 1.5703500509262085px"></path><path d="M480.62,474.05H388.27a10,10,0,0,0-10,10V648.93a10,10,0,0,0,10,10h92.35a10,10,0,0,0,10-10V484A10,10,0,0,0,480.62,474.05Z" transform="translate(-325.33 -374.21)" style="fill: #fc0"></path><path d="M476.71,592.83h-86a1.69,1.69,0,0,0-1.69,1.69V604.6a1.69,1.69,0,0,0,1.69,1.68h86a1.69,1.69,0,0,0,1.69-1.68V594.52A1.69,1.69,0,0,0,476.71,592.83Z" transform="translate(-325.33 -374.21)" style="fill: #f1f3f5"></path><path d="M395.58,417.21a22.58,22.58,0,1,0,0,45.16H651.27a22.58,22.58,0,1,0,0-45.16Z" transform="translate(-325.33 -374.21)" style="fill: #f1f3f5"></path><path d="M682.43,514.49V629.26a4.71,4.71,0,0,1-4.72,4.7h-91a4.71,4.71,0,0,1-4.72-4.7V496.81a4.73,4.73,0,0,1,4.72-4.71H660Z" transform="translate(-325.33 -374.21)" style="fill: #19ad4a"></path><path d="M658,604.17,643.86,591l20.53-7.41-57.15-20.49,20.54,57,9.11-22.19,14.24,13.31" transform="translate(-325.33 -374.21)" style="fill: none;stroke: #293b4a;stroke-miterlimit: 10;stroke-width: 1.5703500509262085px"></path><path d="M399.46,446.38a5,5,0,0,1-2.13-.42,3.33,3.33,0,0,1-1.46-1.19,3.19,3.19,0,0,1-.55-1.89h2.12a1.87,1.87,0,0,0,.15.7,1.75,1.75,0,0,0,.4.6,2,2,0,0,0,1.46.53,1.93,1.93,0,0,0,1.31-.4,1.22,1.22,0,0,0,.36-.45,1.76,1.76,0,0,0,0-1.14,1.25,1.25,0,0,0-.33-.49,3.54,3.54,0,0,0-1.11-.61l-1.48-.5a4.73,4.73,0,0,1-1.94-1.12,2.61,2.61,0,0,1-.52-.86,2.72,2.72,0,0,1-.15-1,2.91,2.91,0,0,1,.46-1.67,3.13,3.13,0,0,1,1.31-1.08,4.36,4.36,0,0,1,1.91-.39,4.46,4.46,0,0,1,1.94.39,3.12,3.12,0,0,1,1.31,1.1,3.07,3.07,0,0,1,.51,1.68h-2.17a1.54,1.54,0,0,0-.46-1,1.57,1.57,0,0,0-.55-.35,1.53,1.53,0,0,0-.64-.09,1.63,1.63,0,0,0-1.11.32,1.31,1.31,0,0,0-.11,1.85,3.18,3.18,0,0,0,.94.55l1.38.47a9.34,9.34,0,0,1,1.49.65,3,3,0,0,1,1.08,1,2.91,2.91,0,0,1,.42,1.6,3.11,3.11,0,0,1-1.76,2.78A4.53,4.53,0,0,1,399.46,446.38Z" transform="translate(-325.33 -374.21)" style="fill: #293b4a"></path><path d="M409.05,446.38a4.29,4.29,0,0,1-2.08-.5,3.53,3.53,0,0,1-1.43-1.41,4.07,4.07,0,0,1-.52-2.1,4.36,4.36,0,0,1,.51-2.16,3.76,3.76,0,0,1,1.41-1.47,4.29,4.29,0,0,1,2.14-.52,3.93,3.93,0,0,1,2,.51,3.41,3.41,0,0,1,1.38,1.31A3.73,3.73,0,0,1,413,442v.75H407a2.13,2.13,0,0,0,.64,1.44,2,2,0,0,0,1.39.51,1.89,1.89,0,0,0,1-.28,1.65,1.65,0,0,0,.61-.7h2a3.68,3.68,0,0,1-2,2.26A4.23,4.23,0,0,1,409.05,446.38Zm0-6.54a2.13,2.13,0,0,0-1.31.42,1.94,1.94,0,0,0-.49.58,1.69,1.69,0,0,0-.23.73H411a1.92,1.92,0,0,0-.15-.67,1.72,1.72,0,0,0-.41-.55,2,2,0,0,0-.61-.38,2.06,2.06,0,0,0-.7-.12Z" transform="translate(-325.33 -374.21)" style="fill: #293b4a"></path><path d="M417.45,446.38a3.74,3.74,0,0,1-1.65-.32,2.13,2.13,0,0,1-1-.82,2.09,2.09,0,0,1-.35-1.21,2.06,2.06,0,0,1,.21-1,2.2,2.2,0,0,1,.64-.78,3.94,3.94,0,0,1,2.54-.68h2v-.18a1.39,1.39,0,0,0-.09-.64,1.51,1.51,0,0,0-.36-.54,1.78,1.78,0,0,0-1.14-.38,1.91,1.91,0,0,0-1.06.29,1.49,1.49,0,0,0-.38.37,1.47,1.47,0,0,0-.19.49h-2a2.67,2.67,0,0,1,.58-1.47,3.09,3.09,0,0,1,1.31-1,4.37,4.37,0,0,1,1.75-.34,3.87,3.87,0,0,1,2.62.84,2.93,2.93,0,0,1,.75,1.06,2.85,2.85,0,0,1,.21,1.29v4.8h-1.72L420,444.9a2.9,2.9,0,0,1-1,1A2.84,2.84,0,0,1,417.45,446.38Zm.46-1.57a1.58,1.58,0,0,0,.71-.14,1.67,1.67,0,0,0,.6-.42,2.92,2.92,0,0,0,.6-1.4H418.1a1.75,1.75,0,0,0-1.15.29.8.8,0,0,0-.25.32.9.9,0,0,0-.09.4.88.88,0,0,0,.08.39.86.86,0,0,0,.26.31,1.53,1.53,0,0,0,1,.25Z" transform="translate(-325.33 -374.21)" style="fill: #293b4a"></path><path d="M423.7,446.21v-7.85h1.78l.2,1.46a3.26,3.26,0,0,1,1.15-1.21,3.21,3.21,0,0,1,1.71-.44v2.12H428a3,3,0,0,0-1.18.21,1.58,1.58,0,0,0-.81.7,3,3,0,0,0-.29,1.4v3.61Z" transform="translate(-325.33 -374.21)" style="fill: #293b4a"></path><path d="M433.55,446.38a4.3,4.3,0,0,1-2.11-.51,3.93,3.93,0,0,1-1.44-1.45,4.58,4.58,0,0,1,0-4.24,3.83,3.83,0,0,1,1.44-1.44,4.08,4.08,0,0,1,2.11-.52,4,4,0,0,1,2.51.78,3.46,3.46,0,0,1,1.31,2.14h-2.12a1.45,1.45,0,0,0-.63-.88,1.81,1.81,0,0,0-1.08-.33,1.86,1.86,0,0,0-1.42.63,2.86,2.86,0,0,0,0,3.48,1.86,1.86,0,0,0,1.42.63,1.82,1.82,0,0,0,1.08-.32,1.44,1.44,0,0,0,.63-.89h2.12a3.58,3.58,0,0,1-1.31,2.12A3.92,3.92,0,0,1,433.55,446.38Z" transform="translate(-325.33 -374.21)" style="fill: #293b4a"></path><path d="M439.08,446.21v-11.3h2v4.71a2.83,2.83,0,0,1,1.07-1,3.23,3.23,0,0,1,1.53-.37,3,3,0,0,1,1.22.2,2.83,2.83,0,0,1,1,.72,4,4,0,0,1,.8,2.61v4.45h-2V442a2.49,2.49,0,0,0-.39-1.53,1.61,1.61,0,0,0-.59-.44,1.47,1.47,0,0,0-.72-.1,1.89,1.89,0,0,0-.77.15,1.84,1.84,0,0,0-.63.44,2.36,2.36,0,0,0-.57,1.66v4Z" transform="translate(-325.33 -374.21)" style="fill: #293b4a"></path><path d="M452.43,446.21v-11h4a4.69,4.69,0,0,1,2.18.44,3.29,3.29,0,0,1,1.31,1.2,3.68,3.68,0,0,1,.42,1.78,3.48,3.48,0,0,1-.53,1.75,3,3,0,0,1-1.65,1.21l2.28,4.6h-2.3l-2.05-4.33h-1.66v4.33Zm2-5.81h1.9a2.09,2.09,0,0,0,.79-.09,2.05,2.05,0,0,0,.69-.39,1.82,1.82,0,0,0,.37-.61,2.63,2.63,0,0,0,0-1.4,1.58,1.58,0,0,0-.38-.6,1.86,1.86,0,0,0-.7-.39,2.09,2.09,0,0,0-.79-.09h-1.89Z" transform="translate(-325.33 -374.21)" style="fill: #293b4a"></path><path d="M465.77,446.38a4.36,4.36,0,0,1-2.09-.5,3.73,3.73,0,0,1-1.43-1.41,4.18,4.18,0,0,1-.51-2.1,4.47,4.47,0,0,1,.51-2.16,3.79,3.79,0,0,1,1.42-1.47,4.32,4.32,0,0,1,2.12-.52,3.91,3.91,0,0,1,2,.51,3.43,3.43,0,0,1,1.31,1.31,4,4,0,0,1,.5,1.93v.75h-5.86a2,2,0,0,0,.16.76,1.88,1.88,0,0,0,.44.64,2.18,2.18,0,0,0,.66.42,2,2,0,0,0,.77.13,1.83,1.83,0,0,0,1-.28,1.7,1.7,0,0,0,.63-.7h2a3.68,3.68,0,0,1-2,2.26A4.06,4.06,0,0,1,465.77,446.38Zm0-6.54a2.07,2.07,0,0,0-1.31.42,1.9,1.9,0,0,0-.73,1.31h3.93a1.73,1.73,0,0,0-.16-.67,1.66,1.66,0,0,0-.4-.55,1.89,1.89,0,0,0-1.31-.5Z" transform="translate(-325.33 -374.21)" style="fill: #293b4a"></path><path d="M474.6,446.38a4.74,4.74,0,0,1-1.82-.34,3.12,3.12,0,0,1-1.31-.93,2.71,2.71,0,0,1-.56-1.38h2a1.33,1.33,0,0,0,.51.78,1.7,1.7,0,0,0,1.07.31,1.44,1.44,0,0,0,1-.26.71.71,0,0,0,.22-.27,1,1,0,0,0,.09-.34.66.66,0,0,0-.45-.68,8.54,8.54,0,0,0-1.22-.36,9.54,9.54,0,0,1-1-.26,5.73,5.73,0,0,1-1-.4,1.9,1.9,0,0,1-.69-.63,1.54,1.54,0,0,1-.26-.95,2.15,2.15,0,0,1,.21-1,2.17,2.17,0,0,1,.61-.77,3.41,3.41,0,0,1,2.32-.71,3.51,3.51,0,0,1,2.2.64,2.66,2.66,0,0,1,.67.79,2.49,2.49,0,0,1,.31,1h-1.9c-.11-.58-.55-.86-1.31-.86a1.46,1.46,0,0,0-.86.22.61.61,0,0,0-.31.55c0,.22.15.4.45.55a6.46,6.46,0,0,0,1.21.36c.55.13,1.05.28,1.51.42a2.75,2.75,0,0,1,1.1.68,1.88,1.88,0,0,1,.4,1.31,2.2,2.2,0,0,1-.38,1.31,2.62,2.62,0,0,1-1.12.91A4.37,4.37,0,0,1,474.6,446.38Z" transform="translate(-325.33 -374.21)" style="fill: #293b4a"></path><path d="M482.5,446.38a2.73,2.73,0,0,1-1.23-.2,2.66,2.66,0,0,1-1-.7,3.92,3.92,0,0,1-.8-2.62v-4.5h2v4.2a2.61,2.61,0,0,0,.41,1.54,1.58,1.58,0,0,0,.59.43,1.6,1.6,0,0,0,.72.1,1.93,1.93,0,0,0,.75-.15,1.71,1.71,0,0,0,.62-.44,2.35,2.35,0,0,0,.54-1.66v-4h2v7.85h-1.78l-.16-1.31a2.75,2.75,0,0,1-1,1.1A3.09,3.09,0,0,1,482.5,446.38Z" transform="translate(-325.33 -374.21)" style="fill: #293b4a"></path><path d="M489.2,446.21v-11.3h2.08v11.3Z" transform="translate(-325.33 -374.21)" style="fill: #293b4a"></path><path d="M496.52,446.21a3.06,3.06,0,0,1-2-.6,2.58,2.58,0,0,1-.75-2.12V440.1H492.5v-1.74h1.31l.23-2.09h1.79v2.09h2.11V440h-2.11v3.4a.94.94,0,0,0,0,.41,1,1,0,0,0,.2.37,1.42,1.42,0,0,0,.85.21h1v1.78Z" transform="translate(-325.33 -374.21)" style="fill: #293b4a"></path><path d="M502.94,446.38a4.76,4.76,0,0,1-1.83-.34,3.06,3.06,0,0,1-1.31-.93,2.72,2.72,0,0,1-.57-1.39h2a1.42,1.42,0,0,0,.51.79,1.73,1.73,0,0,0,1.08.31,1.47,1.47,0,0,0,1-.26.73.73,0,0,0,.22-.27.81.81,0,0,0,.08-.34.65.65,0,0,0-.11-.41.6.6,0,0,0-.32-.27,9.21,9.21,0,0,0-1.24-.36c-.32-.07-.66-.15-1-.26a5.53,5.53,0,0,1-.94-.4,2.14,2.14,0,0,1-.71-.63,1.7,1.7,0,0,1-.26-.95,2.29,2.29,0,0,1,.21-1,2.32,2.32,0,0,1,.62-.77,3.44,3.44,0,0,1,2.31-.71,3.51,3.51,0,0,1,2.2.64,2.7,2.7,0,0,1,.68.79,2.86,2.86,0,0,1,.31,1H504c-.12-.58-.55-.86-1.31-.86a1.5,1.5,0,0,0-.88.22.69.69,0,0,0-.22.23.61.61,0,0,0-.08.32c0,.22.14.4.44.55a6.79,6.79,0,0,0,1.22.36c.54.13,1.05.28,1.5.42a2.75,2.75,0,0,1,1.1.68,1.83,1.83,0,0,1,.4,1.31,2.14,2.14,0,0,1-.38,1.31,2.62,2.62,0,0,1-1.12.91A4.22,4.22,0,0,1,502.94,446.38Z" transform="translate(-325.33 -374.21)" style="fill: #293b4a"></path><path d="M591.42,511.74v-11h4.08a4.87,4.87,0,0,1,2.19.43A3,3,0,0,1,599,502.4a3.5,3.5,0,0,1,.43,1.73,3.59,3.59,0,0,1-.41,1.67,3,3,0,0,1-1.31,1.22,4.57,4.57,0,0,1-2.21.47h-2.06v4.25Zm2-5.88h1.94a2.17,2.17,0,0,0,.8-.09,2.12,2.12,0,0,0,.71-.38,2,2,0,0,0,.38-.61,1.65,1.65,0,0,0,.09-.7,1.73,1.73,0,0,0-.1-.71,1.77,1.77,0,0,0-.37-.6,2.14,2.14,0,0,0-.71-.39,2,2,0,0,0-.8-.08h-1.94Z" transform="translate(-325.33 -374.21)" style="fill: #fff"></path><path d="M603.83,511.92a3.73,3.73,0,0,1-1.65-.31,2.21,2.21,0,0,1-1-.83,2.16,2.16,0,0,1-.35-1.21,2.09,2.09,0,0,1,.21-1,2.17,2.17,0,0,1,.64-.77,3.94,3.94,0,0,1,2.54-.68h2V507a1.36,1.36,0,0,0-.09-.63,1.32,1.32,0,0,0-.36-.54,1.72,1.72,0,0,0-1.13-.38,1.92,1.92,0,0,0-1.07.29,1.19,1.19,0,0,0-.37.37,1.24,1.24,0,0,0-.2.49h-2a2.7,2.7,0,0,1,.58-1.48,3.24,3.24,0,0,1,1.31-1,4.58,4.58,0,0,1,1.75-.34,3.87,3.87,0,0,1,2.62.84,2.93,2.93,0,0,1,1,2.35v4.79h-1.72l-.18-1.31a2.85,2.85,0,0,1-1,1A2.81,2.81,0,0,1,603.83,511.92Zm.46-1.57a1.64,1.64,0,0,0,.72-.13,1.76,1.76,0,0,0,.59-.43,2.84,2.84,0,0,0,.6-1.4h-1.72a1.87,1.87,0,0,0-1.15.29,1.11,1.11,0,0,0-.25.32.93.93,0,0,0-.09.4.86.86,0,0,0,.09.39.78.78,0,0,0,.25.32A1.54,1.54,0,0,0,604.29,510.35Z" transform="translate(-325.33 -374.21)" style="fill: #fff"></path><path d="M613.73,509.41a3.66,3.66,0,0,1-1-.13l-.59.59a3.12,3.12,0,0,0,.73.24c.3.06.79.11,1.47.18a4,4,0,0,1,2.26.74,2,2,0,0,1,.55.75,2,2,0,0,1,.16.9,2.44,2.44,0,0,1-.38,1.31,2.68,2.68,0,0,1-1.15,1,4.68,4.68,0,0,1-2,.37,5.19,5.19,0,0,1-2.62-.61,2.05,2.05,0,0,1-1-1.87,2.3,2.3,0,0,1,.28-1,2.24,2.24,0,0,1,.74-.79,2.94,2.94,0,0,1-.55-.3,2.37,2.37,0,0,1-.39-.32v-.36l1.31-1.45a2.6,2.6,0,0,1-.69-.92,2.74,2.74,0,0,1-.22-1.13,2.67,2.67,0,0,1,.38-1.43,2.82,2.82,0,0,1,1.09-1,3.76,3.76,0,0,1,1.72-.38A4,4,0,0,1,615,504h2.95v1.23l-1.31.09a2.94,2.94,0,0,1,.31,1.31,2.74,2.74,0,0,1-.37,1.42,2.64,2.64,0,0,1-1.1,1A3.57,3.57,0,0,1,613.73,509.41Zm-1.88,3.28a.85.85,0,0,0,.14.52,1,1,0,0,0,.41.36,2.79,2.79,0,0,0,1.31.29,2.14,2.14,0,0,0,1.23-.32,1,1,0,0,0,.35-.34,1,1,0,0,0,.12-.48,1.09,1.09,0,0,0-.08-.39.9.9,0,0,0-.23-.32,2.19,2.19,0,0,0-1.22-.34,6.16,6.16,0,0,1-1.19-.14,1.86,1.86,0,0,0-.66.55A1.11,1.11,0,0,0,611.85,512.69Zm1.88-4.82a1.61,1.61,0,0,0,1-.33,1.42,1.42,0,0,0,.29-.43,1.26,1.26,0,0,0,.11-.51,1.3,1.3,0,0,0-.11-.51,1.42,1.42,0,0,0-.29-.43,1.73,1.73,0,0,0-1-.33,1.59,1.59,0,0,0-1,.33,1.27,1.27,0,0,0-.4.94,1.25,1.25,0,0,0,.1.51,1.28,1.28,0,0,0,.3.43A1.53,1.53,0,0,0,613.73,507.87Z" transform="translate(-325.33 -374.21)" style="fill: #fff"></path><path d="M623.39,511.92a4.5,4.5,0,0,1-2.1-.49,4,4,0,0,1-1.43-1.42,4.38,4.38,0,0,1-.51-2.1,4.64,4.64,0,0,1,.51-2.16,3.76,3.76,0,0,1,1.42-1.46,4.25,4.25,0,0,1,2.12-.53,4,4,0,0,1,2,.51,3.58,3.58,0,0,1,1.31,1.31,3.83,3.83,0,0,1,.5,1.95,2,2,0,0,1,0,.35v.4h-5.92a1.82,1.82,0,0,0,.16.76,1.88,1.88,0,0,0,.44.64,2,2,0,0,0,.66.41,1.87,1.87,0,0,0,.77.13,1.74,1.74,0,0,0,1-.27,1.63,1.63,0,0,0,.63-.72h2a3.67,3.67,0,0,1-2,2.3A4,4,0,0,1,623.39,511.92Zm0-6.53a2,2,0,0,0-1.31.41,1.84,1.84,0,0,0-.5.58,1.78,1.78,0,0,0-.23.73h3.93a1.88,1.88,0,0,0-.16-.66,1.72,1.72,0,0,0-.41-.55,1.85,1.85,0,0,0-1.31-.5Z" transform="translate(-325.33 -374.21)" style="fill: #fff"></path><path d="M596.41,530.75a5.42,5.42,0,0,1-2.86-.72,4.78,4.78,0,0,1-1.84-2,7.16,7.16,0,0,1,0-5.92,4.89,4.89,0,0,1,1.84-2,5.51,5.51,0,0,1,2.86-.72,5.16,5.16,0,0,1,3.25,1,4.31,4.31,0,0,1,1.58,2.76H599a2.3,2.3,0,0,0-.88-1.41,2.7,2.7,0,0,0-1.76-.51,3,3,0,0,0-1.32.24,3,3,0,0,0-1.07.8,5.09,5.09,0,0,0,0,5.66,3.38,3.38,0,0,0,2,1,3.3,3.3,0,0,0,2.17-.46,2.15,2.15,0,0,0,.88-1.3h2.22a4.19,4.19,0,0,1-1.58,2.61A5.22,5.22,0,0,1,596.41,530.75Z" transform="translate(-325.33 -374.21)" style="fill: #fff"></path><path d="M603.19,530.57v-11.3h2v11.3Z" transform="translate(-325.33 -374.21)" style="fill: #fff"></path><path d="M608.56,521.57a1.33,1.33,0,0,1-.9-.32,1.1,1.1,0,0,1-.27-.38,1.2,1.2,0,0,1,0-.91,1,1,0,0,1,.27-.37,1.43,1.43,0,0,1,1.8,0,1.26,1.26,0,0,1,.27.37,1.2,1.2,0,0,1,0,.91,1.46,1.46,0,0,1-.27.38A1.34,1.34,0,0,1,608.56,521.57Zm-1,9v-7.85h2v7.85Z" transform="translate(-325.33 -374.21)" style="fill: #fff"></path><path d="M615.71,530.75a4,4,0,0,1-2.09-.52,3.69,3.69,0,0,1-1.44-1.44,4.5,4.5,0,0,1,0-4.24,3.6,3.6,0,0,1,1.44-1.43,4.4,4.4,0,0,1,2.34-.52,4.52,4.52,0,0,1,2.27.76,3.57,3.57,0,0,1,1.31,2.15h-2.12a1.62,1.62,0,0,0-.62-.89,2,2,0,0,0-1.1-.31,1.76,1.76,0,0,0-.78.16,1.8,1.8,0,0,0-.64.46,3,3,0,0,0-.57,1.74,2.92,2.92,0,0,0,.57,1.74,2,2,0,0,0,.64.47,1.91,1.91,0,0,0,.78.16,1.89,1.89,0,0,0,1.1-.32,1.59,1.59,0,0,0,.62-.88h2.12a3.53,3.53,0,0,1-1.31,2.11A3.93,3.93,0,0,1,615.71,530.75Z" transform="translate(-325.33 -374.21)" style="fill: #fff"></path><path d="M621.55,530.57v-11.3h2v6.67l2.76-3.16h2.4l-3.2,3.55,3.71,4.24h-2.51l-3.16-3.92v3.92Z" transform="translate(-325.33 -374.21)" style="fill: #fff"></path><path d="M633.92,530.75a4.56,4.56,0,0,1-1.82-.34,3.12,3.12,0,0,1-1.31-.93,2.59,2.59,0,0,1-.56-1.38h2a1.39,1.39,0,0,0,.52.78,1.7,1.7,0,0,0,1.07.31,1.46,1.46,0,0,0,1-.26.87.87,0,0,0,.23-.27.77.77,0,0,0,.08-.34.62.62,0,0,0-.1-.42.68.68,0,0,0-.34-.26,7.68,7.68,0,0,0-1.22-.35l-1-.28a5.48,5.48,0,0,1-.94-.39,2.37,2.37,0,0,1-.71-.63,1.68,1.68,0,0,1-.26-1,2.29,2.29,0,0,1,.21-1,2.32,2.32,0,0,1,.62-.77,3.45,3.45,0,0,1,2.32-.71,3.54,3.54,0,0,1,2.21.64,2.82,2.82,0,0,1,.67.79,2.49,2.49,0,0,1,.31,1H635c-.1-.57-.55-.86-1.31-.86a1.43,1.43,0,0,0-.88.22.73.73,0,0,0-.22.24.65.65,0,0,0-.08.31c0,.22.15.4.46.55a6.25,6.25,0,0,0,1.21.36c.55.14,1,.28,1.5.42a2.69,2.69,0,0,1,1.09.68,1.84,1.84,0,0,1,.41,1.31,2.26,2.26,0,0,1-.38,1.31,2.46,2.46,0,0,1-1.13.91A4.13,4.13,0,0,1,633.92,530.75Z" transform="translate(-325.33 -374.21)" style="fill: #fff"></path><path d="M660,509.78V492.1l22.41,22.39h-17.7a4.71,4.71,0,0,1-4.71-4.71Z" transform="translate(-325.33 -374.21)" style="fill: #293b4a"></path><path d="M418,633.54a2,2,0,0,1,.59-1.39,2,2,0,0,1,1.39-.58h58.3a2,2,0,0,1,2,2v9.24a1.93,1.93,0,0,1-.58,1.39,2,2,0,0,1-1.39.58h-58.3" transform="translate(-325.33 -374.21)" style="fill: none;stroke: #293b4a;stroke-miterlimit: 10;stroke-width: 1.5703500509262085px"></path><path d="M480.2,540.35a2,2,0,0,1-2,2h-58.3a2,2,0,0,1-1.39-.58,2,2,0,0,1-.59-1.39V531.2a2,2,0,0,1,.59-1.4,2,2,0,0,1,1.39-.58h58.3a2,2,0,0,1,2,2" transform="translate(-325.33 -374.21)" style="fill: none;stroke: #293b4a;stroke-miterlimit: 10;stroke-width: 1.5703500509262085px"></path><path d="M418,592.65a2,2,0,0,1,2-2h58.3a2,2,0,0,1,1.39.58,2,2,0,0,1,.58,1.4v9.15a2,2,0,0,1-2,2h-58.3a2,2,0,0,1-1.39-.58,2,2,0,0,1-.59-1.39" transform="translate(-325.33 -374.21)" style="fill: none;stroke: #293b4a;stroke-miterlimit: 10;stroke-width: 1.5703500509262085px"></path><path d="M480.2,581.34a2,2,0,0,1-2,2h-58.3a2,2,0,0,1-1.39-.58,2,2,0,0,1-.59-1.39v-9.23a2,2,0,0,1,2-2h58.3a2,2,0,0,1,1.39.58,2,2,0,0,1,.58,1.4" transform="translate(-325.33 -374.21)" style="fill: none;stroke: #293b4a;stroke-miterlimit: 10;stroke-width: 1.5703500509262085px"></path><path d="M418,551.62a2,2,0,0,1,2-2h58.3a2,2,0,0,1,1.39.59,2,2,0,0,1,.58,1.39v9.24a2,2,0,0,1-.58,1.39,2,2,0,0,1-1.39.59h-58.3a2,2,0,0,1-2-2" transform="translate(-325.33 -374.21)" style="fill: none;stroke: #293b4a;stroke-miterlimit: 10;stroke-width: 1.5703500509262085px"></path><path d="M480.2,622.3a2,2,0,0,1-2,2h-58.3a2,2,0,0,1-1.39-.58,2,2,0,0,1-.59-1.39v-9.24a2,2,0,0,1,2-2h58.3a2,2,0,0,1,1.39.58,2,2,0,0,1,.58,1.4" transform="translate(-325.33 -374.21)" style="fill: none;stroke: #293b4a;stroke-miterlimit: 10;stroke-width: 1.5703500509262085px"></path><path d="M418,510.67a2,2,0,0,1,2-2h58.3a2,2,0,0,1,1.39.59,2,2,0,0,1,.58,1.39v9.23a2,2,0,0,1-2,2h-58.3a2,2,0,0,1-1.39-.58,2,2,0,0,1-.59-1.39" transform="translate(-325.33 -374.21)" style="fill: none;stroke: #293b4a;stroke-miterlimit: 10;stroke-width: 1.5703500509262085px"></path><path d="M391.26,641.72v-9.35a.81.81,0,0,1,.23-.57.79.79,0,0,1,.56-.23h10.77" transform="translate(-325.33 -374.21)" style="fill: none;stroke: #293b4a;stroke-miterlimit: 10;stroke-width: 1.5703500509262085px"></path><path d="M406.15,632.54V643.8a1,1,0,0,1-1,1h-13" transform="translate(-325.33 -374.21)" style="fill: none;stroke: #293b4a;stroke-miterlimit: 10;stroke-width: 1.5703500509262085px"></path><path d="M406.15,532.22v9.33a.81.81,0,0,1-.06.31.78.78,0,0,1-.17.26.68.68,0,0,1-.26.18.81.81,0,0,1-.31.06H394.58" transform="translate(-325.33 -374.21)" style="fill: none;stroke: #293b4a;stroke-miterlimit: 10;stroke-width: 1.5703500509262085px"></path><path d="M391.26,541.39V530.14a1,1,0,0,1,.95-1h13" transform="translate(-325.33 -374.21)" style="fill: none;stroke: #293b4a;stroke-miterlimit: 10;stroke-width: 1.5703500509262085px"></path><path d="M391.26,600.75V591.4a.79.79,0,0,1,.79-.79h10.77" transform="translate(-325.33 -374.21)" style="fill: none;stroke: #293b4a;stroke-miterlimit: 10;stroke-width: 1.5703500509262085px"></path><path d="M406.15,591.57v11.26a1,1,0,0,1-1,1h-13" transform="translate(-325.33 -374.21)" style="fill: none;stroke: #293b4a;stroke-miterlimit: 10;stroke-width: 1.5703500509262085px"></path><path d="M406.15,573.18v9.33a.81.81,0,0,1-.06.31.9.9,0,0,1-.17.26,1.06,1.06,0,0,1-.26.17.81.81,0,0,1-.31.06H394.58" transform="translate(-325.33 -374.21)" style="fill: none;stroke: #293b4a;stroke-miterlimit: 10;stroke-width: 1.5703500509262085px"></path><path d="M391.26,582.36V571.1a1,1,0,0,1,.27-.68,1,1,0,0,1,.68-.29h13" transform="translate(-325.33 -374.21)" style="fill: none;stroke: #293b4a;stroke-miterlimit: 10;stroke-width: 1.5703500509262085px"></path><path d="M391.26,559.79v-9.34a.61.61,0,0,1,.05-.3.72.72,0,0,1,.44-.44.78.78,0,0,1,.3-.07h10.77" transform="translate(-325.33 -374.21)" style="fill: none;stroke: #293b4a;stroke-miterlimit: 10;stroke-width: 1.5703500509262085px"></path><path d="M406.15,550.61v11.26a1,1,0,0,1-.28.68,1,1,0,0,1-.68.29h-13" transform="translate(-325.33 -374.21)" style="fill: none;stroke: #293b4a;stroke-miterlimit: 10;stroke-width: 1.5703500509262085px"></path><path d="M406.15,614.13v9.35a.79.79,0,0,1-.23.56.81.81,0,0,1-.57.23H394.58" transform="translate(-325.33 -374.21)" style="fill: none;stroke: #293b4a;stroke-miterlimit: 10;stroke-width: 1.5703500509262085px"></path><path d="M391.26,623.31V612.05a1,1,0,0,1,.27-.68,1,1,0,0,1,.68-.29h13" transform="translate(-325.33 -374.21)" style="fill: none;stroke: #293b4a;stroke-miterlimit: 10;stroke-width: 1.5703500509262085px"></path><path d="M391.26,518.83v-9.34a.79.79,0,0,1,.23-.56.8.8,0,0,1,.56-.24h10.77" transform="translate(-325.33 -374.21)" style="fill: none;stroke: #293b4a;stroke-miterlimit: 10;stroke-width: 1.5703500509262085px"></path><path d="M406.15,509.66v11.25a1,1,0,0,1-.28.67.92.92,0,0,1-.68.29h-13" transform="translate(-325.33 -374.21)" style="fill: none;stroke: #293b4a;stroke-miterlimit: 10;stroke-width: 1.5703500509262085px"></path><path d="M394.88,495.89a4.25,4.25,0,0,1-1.82-.35,2.84,2.84,0,0,1-1.25-1.05,2.78,2.78,0,0,1-.45-1.56h1.81a1.51,1.51,0,0,0,.47,1.09,1.91,1.91,0,0,0,2.31.12,1,1,0,0,0,.3-.39,1,1,0,0,0,.1-.48,1.18,1.18,0,0,0-.08-.49,1.09,1.09,0,0,0-.27-.4,2.7,2.7,0,0,0-.95-.53l-1.31-.41a4.17,4.17,0,0,1-1.63-1,2.08,2.08,0,0,1-.45-.72,2.18,2.18,0,0,1-.13-.84,2.5,2.5,0,0,1,.39-1.41,2.67,2.67,0,0,1,1.12-.93,3.94,3.94,0,0,1,1.63-.31,3.81,3.81,0,0,1,1.64.32,2.92,2.92,0,0,1,1.13.93,2.61,2.61,0,0,1,.43,1.43h-1.82a1.31,1.31,0,0,0-.38-.87,1.35,1.35,0,0,0-.47-.3,1.29,1.29,0,0,0-.55-.07,1.36,1.36,0,0,0-.94.26.85.85,0,0,0-.27.35,1,1,0,0,0-.11.42,1,1,0,0,0,.06.43,1.11,1.11,0,0,0,.22.38,3,3,0,0,0,.8.46l1.17.39a8.9,8.9,0,0,1,1.31.56,2.77,2.77,0,0,1,.92.85,2.51,2.51,0,0,1,.34,1.31,2.57,2.57,0,0,1-1.48,2.31A3.85,3.85,0,0,1,394.88,495.89Z" transform="translate(-325.33 -374.21)" style="fill: #293b4a"></path><path d="M399.81,495.68V486.1h1.7v4a2.35,2.35,0,0,1,.91-.86,2.6,2.6,0,0,1,1.31-.32,2.44,2.44,0,0,1,1,.18,2.38,2.38,0,0,1,.87.6,3.39,3.39,0,0,1,.66,2.26v3.72h-1.7v-3.55a2.17,2.17,0,0,0-.34-1.31,1.38,1.38,0,0,0-.48-.35,1.35,1.35,0,0,0-.59-.11,1.65,1.65,0,0,0-.66.13,1.71,1.71,0,0,0-.54.38,2,2,0,0,0-.47,1.41v3.4Z" transform="translate(-325.33 -374.21)" style="fill: #293b4a"></path><path d="M411.27,495.89a3.51,3.51,0,0,1-1.73-.44,3.06,3.06,0,0,1-1.2-1.22,3.76,3.76,0,0,1-.46-1.8,3.83,3.83,0,0,1,.46-1.81,3.22,3.22,0,0,1,1.22-1.21,3.51,3.51,0,0,1,3.44,0,3.06,3.06,0,0,1,1.21,1.21,3.82,3.82,0,0,1,.45,1.81,3.75,3.75,0,0,1-.45,1.8,3,3,0,0,1-1.22,1.22A3.44,3.44,0,0,1,411.27,495.89Zm0-1.47a1.57,1.57,0,0,0,.64-.14,1.5,1.5,0,0,0,.53-.37,2,2,0,0,0,.48-1.48,2.06,2.06,0,0,0-.48-1.49,1.64,1.64,0,0,0-.53-.37,1.68,1.68,0,0,0-.62-.13,1.56,1.56,0,0,0-.64.13,1.5,1.5,0,0,0-.53.37,2,2,0,0,0-.48,1.49,2,2,0,0,0,.09.79,2,2,0,0,0,.39.69,1.58,1.58,0,0,0,.53.35,1.63,1.63,0,0,0,.62.12Z" transform="translate(-325.33 -374.21)" style="fill: #293b4a"></path><path d="M416.37,495.68v-6.6h1.52l.15,1.24a2.72,2.72,0,0,1,2.44-1.4v1.81H420a2.68,2.68,0,0,0-1,.17,1.37,1.37,0,0,0-.68.6,2.29,2.29,0,0,0-.25,1.18v3Z" transform="translate(-325.33 -374.21)" style="fill: #293b4a"></path><path d="M424.78,495.68a2.63,2.63,0,0,1-1.67-.49,2.16,2.16,0,0,1-.62-1.81v-2.87h-1.13v-1.43h1.13l.19-1.76h1.51v1.76H426v1.43h-1.79v2.89a.82.82,0,0,0,0,.35.73.73,0,0,0,.17.31,1.08,1.08,0,0,0,.72.17h.82v1.45Z" transform="translate(-325.33 -374.21)" style="fill: #293b4a"></path><path d="M427.63,495.68V486.1h1.72v9.58Z" transform="translate(-325.33 -374.21)" style="fill: #293b4a"></path><path d="M432.19,488.05a1.07,1.07,0,0,1-.76-.28.85.85,0,0,1-.23-.32,1,1,0,0,1-.07-.38,1,1,0,0,1,.07-.39.9.9,0,0,1,.23-.32,1.06,1.06,0,0,1,.76-.27,1.16,1.16,0,0,1,.78.27,1,1,0,0,1,.22.32,1,1,0,0,1,.08.39,1,1,0,0,1-.08.38,1,1,0,0,1-.22.32A1.12,1.12,0,0,1,432.19,488.05Zm-.85,7.62v-6.6H433v6.6Z" transform="translate(-325.33 -374.21)" style="fill: #293b4a"></path><path d="M437.76,495.89a4.13,4.13,0,0,1-1.55-.28,2.9,2.9,0,0,1-1.07-.8,2.45,2.45,0,0,1-.48-1.18h1.73a1.08,1.08,0,0,0,.43.67,1.42,1.42,0,0,0,.91.27,1.32,1.32,0,0,0,.82-.22.58.58,0,0,0,.18-.23.74.74,0,0,0,.08-.29.59.59,0,0,0-.08-.35.55.55,0,0,0-.29-.23,6.3,6.3,0,0,0-1.05-.3c-.28-.06-.57-.14-.86-.23a3.65,3.65,0,0,1-.81-.34,1.76,1.76,0,0,1-.59-.53,1.53,1.53,0,0,1-.23-.81,1.88,1.88,0,0,1,.18-.81,1.78,1.78,0,0,1,.52-.66,3.47,3.47,0,0,1,3.84-.06,2.29,2.29,0,0,1,.57.67,2.44,2.44,0,0,1,.27.84h-1.62c-.1-.49-.47-.74-1.11-.74a1.33,1.33,0,0,0-.73.19.52.52,0,0,0-.19.2.5.5,0,0,0-.07.27c0,.19.13.35.39.47a7.07,7.07,0,0,0,1,.31,12.11,12.11,0,0,1,1.31.36,2,2,0,0,1,.93.57,1.53,1.53,0,0,1,.34,1.09,1.76,1.76,0,0,1-.31,1.09,2.15,2.15,0,0,1-1,.78A3.6,3.6,0,0,1,437.76,495.89Z" transform="translate(-325.33 -374.21)" style="fill: #293b4a"></path><path d="M445.16,495.68a2.6,2.6,0,0,1-1.68-.49,2.24,2.24,0,0,1-.5-.84,2.13,2.13,0,0,1-.11-1v-2.87h-1.14v-1.43h1.14l.2-1.76h1.5v1.76h1.81v1.43H444.6v2.89a.69.69,0,0,0,0,.35.87.87,0,0,0,.18.31,1,1,0,0,0,.7.17h.87v1.45Z" transform="translate(-325.33 -374.21)" style="fill: #293b4a"></path><path d="M450.74,495.89a4,4,0,0,1-1.54-.28,2.56,2.56,0,0,1-1.06-.8,2.25,2.25,0,0,1-.49-1.18h1.72a1.08,1.08,0,0,0,.43.67,1.44,1.44,0,0,0,.92.27,1.32,1.32,0,0,0,.82-.22.58.58,0,0,0,.18-.23.72.72,0,0,0,0-.64.55.55,0,0,0-.29-.23,6.08,6.08,0,0,0-1-.3l-.88-.23a3.32,3.32,0,0,1-.8-.34,1.76,1.76,0,0,1-.59-.53,1.37,1.37,0,0,1-.23-.81,1.84,1.84,0,0,1,.7-1.47,3.47,3.47,0,0,1,3.84,0,2.13,2.13,0,0,1,.57.66,2.28,2.28,0,0,1,.26.84h-1.64c-.09-.48-.46-.73-1.1-.73a1.33,1.33,0,0,0-.75.18.58.58,0,0,0-.18.2.56.56,0,0,0-.08.27c0,.19.13.35.39.47a9.43,9.43,0,0,0,1,.32,12.05,12.05,0,0,1,1.31.35,2,2,0,0,1,.91.57,1.55,1.55,0,0,1,.36,1.09,2,2,0,0,1-.33,1.1,2.2,2.2,0,0,1-1,.77A3.54,3.54,0,0,1,450.74,495.89Z" transform="translate(-325.33 -374.21)" style="fill: #293b4a"></path><path d="M813.84,563.32c39.15,0,70.89-22,70.89-49.05S853,465.21,813.84,465.21,743,487.17,743,514.27,774.7,563.32,813.84,563.32Z" transform="translate(-325.33 -374.21)" style="fill: #f1f3f5"></path><path d="M818.78,477.77a84.88,84.88,0,0,1,13.1,1.77q2.85.63,5.57,1.44c19.44,5.8,32.95,18.55,32.95,33.35,0,19.14-22.59,34.85-51.41,36.53" transform="translate(-325.33 -374.21)" style="fill: none;stroke: #2d3b49;stroke-miterlimit: 10;stroke-width: 1.5703500509262085px"></path><path d="M822.44,481.46l-3.08-3.57,3.58-3.06-2.82-.22-3.58,3.07,3.07,3.56Z" transform="translate(-325.33 -374.21)" style="fill: #2d3b49"></path><path d="M807.57,550.71c-28.28-2-50.28-17.59-50.28-36.47,0-19.14,22.59-34.84,51.39-36.53" transform="translate(-325.33 -374.21)" style="fill: none;stroke: #2d3b49;stroke-miterlimit: 10;stroke-width: 1.5703500509262085px"></path><path d="M803.93,547l3.06,3.57-3.57,3.06,2.81.23,3.59-3.06-3.06-3.57Z" transform="translate(-325.33 -374.21)" style="fill: #2d3b49"></path><path d="M770.33,520.14a5.72,5.72,0,0,1-2.94-.74,4.84,4.84,0,0,1-1.88-2,7.2,7.2,0,0,1-.67-3,7.28,7.28,0,0,1,.67-3,4.92,4.92,0,0,1,1.88-2.06,5.5,5.5,0,0,1,2.94-.73,5.23,5.23,0,0,1,3.33,1,4.54,4.54,0,0,1,1.62,2.84H773a2.41,2.41,0,0,0-.89-1.45,3.39,3.39,0,0,0-2.24-.5,3.32,3.32,0,0,0-2,1.05,5.22,5.22,0,0,0,0,5.8,3,3,0,0,0,1.1.81,3,3,0,0,0,1.35.25,3,3,0,0,0,1.82-.5,2.28,2.28,0,0,0,.89-1.3h2.28a4.36,4.36,0,0,1-1.62,2.71A5.36,5.36,0,0,1,770.33,520.14Z" transform="translate(-325.33 -374.21)" style="fill: #293b4a"></path><path d="M781.11,520.14a4.15,4.15,0,0,1-2.09-.54,3.84,3.84,0,0,1-1.46-1.48,4.58,4.58,0,0,1,0-4.35,3.9,3.9,0,0,1,1.48-1.48,4.4,4.4,0,0,1,4.15,0,3.8,3.8,0,0,1,1.47,1.48,4.58,4.58,0,0,1,0,4.35,3.94,3.94,0,0,1-1.47,1.48A4.19,4.19,0,0,1,781.11,520.14Zm0-1.79a1.82,1.82,0,0,0,.76-.16,1.78,1.78,0,0,0,.64-.45,3,3,0,0,0,0-3.59,2.06,2.06,0,0,0-.64-.45,2,2,0,0,0-.76-.16,2,2,0,0,0-.76.16,2,2,0,0,0-.63.45,3,3,0,0,0,0,3.59,1.74,1.74,0,0,0,.63.45A1.82,1.82,0,0,0,781.11,518.35Z" transform="translate(-325.33 -374.21)" style="fill: #293b4a"></path><path d="M787.27,520v-8h1.82l.15,1.3a2.9,2.9,0,0,1,1.08-1.12,3.11,3.11,0,0,1,1.66-.42,2.8,2.8,0,0,1,1.25.21,2.71,2.71,0,0,1,1,.72,4,4,0,0,1,.83,2.73V520H793v-4.32a2.53,2.53,0,0,0-.42-1.58,1.54,1.54,0,0,0-1.31-.54,1.78,1.78,0,0,0-.78.15,1.91,1.91,0,0,0-.64.45,2.46,2.46,0,0,0-.55,1.72V520Z" transform="translate(-325.33 -374.21)" style="fill: #293b4a"></path><path d="M799.45,520l-2.94-8h2.17l2,6,2-6h2.16L802,520Z" transform="translate(-325.33 -374.21)" style="fill: #293b4a"></path><path d="M810.32,520.14a4.36,4.36,0,0,1-2.15-.53,3.7,3.7,0,0,1-1.46-1.45,4.21,4.21,0,0,1-.54-2.14,4.49,4.49,0,0,1,.54-2.21,3.67,3.67,0,0,1,1.44-1.51,4.24,4.24,0,0,1,2.18-.53,4.12,4.12,0,0,1,2.09.51,3.58,3.58,0,0,1,1.4,1.41,4,4,0,0,1,.51,2v.77h-6.08a2.22,2.22,0,0,0,.18.8,2,2,0,0,0,1.9,1.19,1.93,1.93,0,0,0,1-.28,1.74,1.74,0,0,0,.64-.73h2.1a4.17,4.17,0,0,1-.75,1.31,3.74,3.74,0,0,1-1.31,1A4,4,0,0,1,810.32,520.14Zm0-6.7a2.27,2.27,0,0,0-1.31.42,2.14,2.14,0,0,0-.5.58,2,2,0,0,0-.25.73h3.93a1.63,1.63,0,0,0-.14-.72,1.8,1.8,0,0,0-.43-.59,2,2,0,0,0-1.29-.39Z" transform="translate(-325.33 -374.21)" style="fill: #293b4a"></path><path d="M816.29,520v-8h1.85l.19,1.5a3.33,3.33,0,0,1,1.24-1.26,3.43,3.43,0,0,1,1.72-.43V514h-.59a3.58,3.58,0,0,0-1.21.21,1.6,1.6,0,0,0-.82.72,2.78,2.78,0,0,0-.31,1.44V520Z" transform="translate(-325.33 -374.21)" style="fill: #293b4a"></path><path d="M826.21,520.14a4.62,4.62,0,0,1-1.87-.36,3.26,3.26,0,0,1-1.31-.95,2.66,2.66,0,0,1-.58-1.41h2.07a1.32,1.32,0,0,0,.53.78,1.7,1.7,0,0,0,1.11.34,1.48,1.48,0,0,0,1-.27.77.77,0,0,0,.23-.28,1.06,1.06,0,0,0,.09-.35.73.73,0,0,0-.11-.43.78.78,0,0,0-.34-.28,9.75,9.75,0,0,0-1.31-.36,4.24,4.24,0,0,1-1.05-.26,5.67,5.67,0,0,1-1-.42,2.29,2.29,0,0,1-.71-.64,1.68,1.68,0,0,1-.27-1,2.24,2.24,0,0,1,.84-1.79,3.51,3.51,0,0,1,2.38-.72,3.66,3.66,0,0,1,2.27.65,2.79,2.79,0,0,1,1,1.82h-2c-.11-.59-.56-.89-1.31-.89a1.44,1.44,0,0,0-.9.24.66.66,0,0,0-.23.24.72.72,0,0,0-.08.32c0,.23.15.42.47.56a7.3,7.3,0,0,0,1.31.38,15.8,15.8,0,0,1,1.53.43,2.64,2.64,0,0,1,1.13.69,2,2,0,0,1,.42,1.31,2.18,2.18,0,0,1-.4,1.31,2.59,2.59,0,0,1-1.15.94A4.51,4.51,0,0,1,826.21,520.14Z" transform="translate(-325.33 -374.21)" style="fill: #293b4a"></path><path d="M832.71,510.72a1.28,1.28,0,0,1-.93-.34,1.05,1.05,0,0,1-.27-.39,1,1,0,0,1-.08-.46,1,1,0,0,1,.08-.46,1.05,1.05,0,0,1,.27-.39,1.51,1.51,0,0,1,1.86,0,1.21,1.21,0,0,1,.28.39,1.18,1.18,0,0,1,.09.46,1.17,1.17,0,0,1-.37.85A1.28,1.28,0,0,1,832.71,510.72Zm-1,9.15v-8h2.07V520Z" transform="translate(-325.33 -374.21)" style="fill: #293b4a"></path><path d="M840,520.14a4.26,4.26,0,0,1-2.09-.54,3.87,3.87,0,0,1-1.47-1.48,4.32,4.32,0,0,1-.54-2.17,4.36,4.36,0,0,1,.55-2.18,4,4,0,0,1,1.48-1.48,4.42,4.42,0,0,1,4.16,0,3.84,3.84,0,0,1,1.46,1.48,4.65,4.65,0,0,1,0,4.35A3.84,3.84,0,0,1,842,519.6,4.26,4.26,0,0,1,840,520.14Zm0-1.79a1.83,1.83,0,0,0,.77-.16,1.78,1.78,0,0,0,.64-.45,3.07,3.07,0,0,0,0-3.59,2.06,2.06,0,0,0-.64-.45,1.91,1.91,0,0,0-1.53,0,2.06,2.06,0,0,0-.64.45,3,3,0,0,0,0,3.59,1.78,1.78,0,0,0,.64.45A1.82,1.82,0,0,0,840,518.35Z" transform="translate(-325.33 -374.21)" style="fill: #293b4a"></path><path d="M846.12,520v-8h1.82l.16,1.3a2.83,2.83,0,0,1,1.08-1.12,3.08,3.08,0,0,1,1.65-.42,2.95,2.95,0,0,1,2.3.93,4,4,0,0,1,.83,2.73V520h-2.07v-4.32a2.53,2.53,0,0,0-.42-1.58,1.48,1.48,0,0,0-.59-.43,1.49,1.49,0,0,0-.72-.11,1.86,1.86,0,0,0-.78.14,2,2,0,0,0-.65.46,2.46,2.46,0,0,0-.56,1.72V520Z" transform="translate(-325.33 -374.21)" style="fill: #293b4a"></path><path d="M859.45,520.14a4.54,4.54,0,0,1-1.86-.36,3.26,3.26,0,0,1-1.31-.95,2.83,2.83,0,0,1-.58-1.41h2.08a1.32,1.32,0,0,0,.53.78,1.66,1.66,0,0,0,1.1.34,1.52,1.52,0,0,0,1-.27.77.77,0,0,0,.23-.28,1.06,1.06,0,0,0,.09-.35.82.82,0,0,0-.12-.43.78.78,0,0,0-.34-.28,10.18,10.18,0,0,0-1.31-.36,4.14,4.14,0,0,1-1.05-.26,5.57,5.57,0,0,1-1-.42,1.93,1.93,0,0,1-.72-.64,1.69,1.69,0,0,1-.28-1,2.42,2.42,0,0,1,.22-1,2.18,2.18,0,0,1,.64-.8,3.48,3.48,0,0,1,2.37-.72,3.65,3.65,0,0,1,2.26.65,2.6,2.6,0,0,1,.7.81,2.53,2.53,0,0,1,.31,1h-1.95c-.12-.59-.56-.89-1.31-.89a1.41,1.41,0,0,0-.89.24.66.66,0,0,0-.23.24.69.69,0,0,0-.08.32c0,.23.15.42.45.56a7.83,7.83,0,0,0,1.25.38c.56.13,1.07.27,1.54.43a2.61,2.61,0,0,1,1.12.69,1.89,1.89,0,0,1,.42,1.31,2.26,2.26,0,0,1-.38,1.31,2.75,2.75,0,0,1-1.17.94A4.4,4.4,0,0,1,859.45,520.14Z" transform="translate(-325.33 -374.21)" style="fill: #293b4a"></path><path d="M490.61,597.2H500.9V704.58h31.29" transform="translate(-325.33 -374.21)" style="fill: none;stroke: #293b4a;stroke-miterlimit: 10;stroke-width: 1.5703500509262085px;opacity: 0.5;isolation: isolate"></path><path d="M490.61,600a2.78,2.78,0,1,0-2.78-2.77A2.77,2.77,0,0,0,490.61,600Z" transform="translate(-325.33 -374.21)" style="fill: #293b4a"></path><path d="M582,606.57a2.77,2.77,0,1,0-2.78-2.77A2.78,2.78,0,0,0,582,606.57Z" transform="translate(-325.33 -374.21)" style="fill: #293b4a"></path><path d="M532.35,706.46a2.77,2.77,0,1,0-2.78-2.77A2.77,2.77,0,0,0,532.35,706.46Z" transform="translate(-325.33 -374.21)" style="fill: #293b4a"></path><path d="M545.89,462.37V603.8H582" transform="translate(-325.33 -374.21)" style="fill: none;stroke: #293b4a;stroke-miterlimit: 10;stroke-width: 1.5703500509262085px;opacity: 0.5;isolation: isolate"></path><path d="M545.89,465.14a2.77,2.77,0,1,0-2.78-2.77A2.78,2.78,0,0,0,545.89,465.14Z" transform="translate(-325.33 -374.21)" style="fill: #293b4a"></path><path d="M773,708.21a3,3,0,1,1,3-3A3,3,0,0,1,773,708.21Z" transform="translate(-325.33 -374.21)" style="fill: #293b4a"></path><path d="M815,564.21v141H773" transform="translate(-325.33 -374.21)" style="fill: none;stroke: #293b4a;stroke-miterlimit: 10;stroke-width: 1.5703500509262085px;opacity: 0.5;isolation: isolate"></path><path d="M815,567.21a3,3,0,1,1,3-3A3,3,0,0,1,815,567.21Z" transform="translate(-325.33 -374.21)" style="fill: #293b4a"></path></svg>