<svg xmlns="http://www.w3.org/2000/svg" id="Layer_1" data-name="Layer 1" viewBox="0 0 347.12 33.82"><path d="M437.43,584.87h6.35l11.07,31h-4.74l-2.48-7H433.38l-2.47,7h-4.63Zm8.72,19.86-5.45-15.57h-.36l-5.52,15.57Z" transform="translate(-426.28 -582.63)" style="fill: #f1f3f5"></path><path d="M456.6,604.3c0-6.93,4.47-12.13,10.84-12.13a8.7,8.7,0,0,1,7.48,3.9h.36V582.65h4.38v33.2h-4.29v-3.19h-.31a8.72,8.72,0,0,1-7.34,3.77C461.33,616.43,456.6,611.34,456.6,604.3Zm18.81,0c0-5.13-3.28-8.09-7.22-8.09-4.12,0-7.17,3.36-7.17,8.09s3.19,8.06,7.22,8.06c4.38.07,7.17-3.63,7.17-8Z" transform="translate(-426.28 -582.63)" style="fill: #f1f3f5"></path><path d="M483.78,592.75h4.62l6.33,19h.36l6.28-19h4.82L498,615.86h-5.88Z" transform="translate(-426.28 -582.63)" style="fill: #f1f3f5"></path><path d="M508.21,604.34c0-7.3,5.17-12.17,11.38-12.17,7,0,11.15,5,11.15,11.91v1.37h-18c0,4.52,2.79,7.17,7.08,7.17a6.36,6.36,0,0,0,6.38-4.47l4.12,1c-1.42,4.57-5.45,7.27-10.5,7.27C512.77,616.43,508.21,611.42,508.21,604.34Zm18.06-2.21c-.23-3.94-3.19-6.11-6.68-6.11a6.72,6.72,0,0,0-6.82,6.11Z" transform="translate(-426.28 -582.63)" style="fill: #f1f3f5"></path><path d="M535.7,592.75h4.39v3h.35c1-2,3.28-3.59,6.64-3.59,5.22,0,8.47,3.9,8.47,8.85v14.83h-4.38V601.78a5.36,5.36,0,0,0-.34-2.1,5.11,5.11,0,0,0-1.14-1.79,5.19,5.19,0,0,0-3.83-1.6,5.56,5.56,0,0,0-2.24.44,5.8,5.8,0,0,0-1.89,1.28,5.66,5.66,0,0,0-1.24,1.92,5.74,5.74,0,0,0-.39,2.25v13.67h-4.4Z" transform="translate(-426.28 -582.63)" style="fill: #f1f3f5"></path><path d="M563.9,609.08V596.55h-4.21v-3.8h4.47v-6.6h4.11v6.6h6.82v3.8h-6.82V609c0,2.08.85,3,2.88,3h3.68v3.85h-3.72C566.77,615.85,563.9,613.86,563.9,609.08Z" transform="translate(-426.28 -582.63)" style="fill: #f1f3f5"></path><path d="M580.05,607.58V592.75h4.38v14.07a5.31,5.31,0,0,0,.34,2.09,5.23,5.23,0,0,0,5,3.36,5.73,5.73,0,0,0,2.24-.43,5.62,5.62,0,0,0,1.89-1.27,5.53,5.53,0,0,0,1.24-1.91,5.69,5.69,0,0,0,.39-2.24V592.75h4.38v23.11H595.5v-3h-.35c-1,1.95-3.28,3.59-6.65,3.59C583.28,616.43,580.05,612.53,580.05,607.58Z" transform="translate(-426.28 -582.63)" style="fill: #f1f3f5"></path><path d="M604.61,609.35l4.08-.92c.39,2.74,2.31,4.11,5.26,4.11s4.56-1.28,4.56-3.23c0-5.58-13.14-1.15-13.14-10.4,0-3.94,3.4-6.73,8.47-6.73,4.21,0,7.89,2.25,8.59,6.41l-3.85,1.11c-.4-2.31-2.26-3.63-4.87-3.63s-4.11,1.2-4.11,2.88c0,5,13.36.58,13.36,10,0,4.47-3.63,7.49-9.16,7.49C608.66,616.43,605.19,613.82,604.61,609.35Z" transform="translate(-426.28 -582.63)" style="fill: #f1f3f5"></path><path d="M665.27,590.86a12.54,12.54,0,0,0-2.71-4.31c-2.49-2.6-6.3-3.92-11.32-3.92H635.87l-1.45,8.23h3.47l-.3,1.74-2.73,15.48-1.48,8.35h12.74A21.62,21.62,0,0,0,656.64,614a18,18,0,0,0,6.45-5.88c.23-.36.46-.77.67-1.11a20,20,0,0,0,2.54-10.12A16.58,16.58,0,0,0,665.27,590.86Zm-9.45,12.25a8.38,8.38,0,0,1-3.44,3.63,11.55,11.55,0,0,1-5.7,1.32H644l3-17.12h3.16c2.46,0,4.23.52,5.28,1.54s1.54,2.62,1.54,4.81a12.89,12.89,0,0,1-1.2,5.84Z" transform="translate(-426.28 -582.63)" style="fill: #f1f3f5"></path><path d="M759.15,591.58l-.58,3.35h11.36l-1.54,8.8H757l-.68,3.76H769l-1.6,8.93H744.63l6-33.77H773.4l-1.66,8.93Z" transform="translate(-426.28 -582.63)" style="fill: #f1f3f5"></path><path d="M713.18,582.65l-1.46,8.23-.3,1.74-2.75,15.45-1.48,8.35H697.08l1.48-8.35,2.73-15.45.32-1.74h-2.94l1.46-8.22h13Z" transform="translate(-426.28 -582.63)" style="fill: #f1f3f5"></path><path d="M694.37,600a11.39,11.39,0,0,0,2.5-7.39,10.57,10.57,0,0,0-.15-1.77,10.13,10.13,0,0,0-1.13-3.16,9.52,9.52,0,0,0-3.92-3.73,13.16,13.16,0,0,0-6.16-1.34H669.25l-1.47,8.21h2.52l-.3,1.74-2.72,15.46-1.48,8.35h10.13l1.48-8.35L678,605h2.22l.91,3.09,2.45,8.35h10.79l-2.65-8.35-1.54-4.75A12.55,12.55,0,0,0,694.37,600Zm-7.94-3.86a5,5,0,0,1-3.5,1.11h-4.62l1.12-6.41h5.12a3.75,3.75,0,0,1,2.41.63,2.3,2.3,0,0,1,.5.8,2.4,2.4,0,0,1,.15.92,3.52,3.52,0,0,1-1.18,2.95Z" transform="translate(-426.28 -582.63)" style="fill: #f1f3f5"></path><path d="M749.75,582.65l-4.46,8.23L736,608.07l-4.53,8.35h-9.87L720,608.07l-2.92-15.45-.34-1.74h-3l1.43-8.13v-.1H725.7l1.41,8.23,1.78,10.4,5.45-10.4,4.33-8.23Z" transform="translate(-426.28 -582.63)" style="fill: #f1f3f5"></path></svg>