<svg xmlns="http://www.w3.org/2000/svg" id="Layer_1" data-name="Layer 1" viewBox="0 0 1495.58 608.25"><path d="M693.34,672.92a29.25,29.25,0,1,0-29.29-29.24A29.26,29.26,0,0,0,693.34,672.92Z" transform="translate(-26.05 -295.43)" style="fill: #19ad4a"></path><path d="M1346.34,775.92a29.25,29.25,0,1,0-29.29-29.24A29.27,29.27,0,0,0,1346.34,775.92Z" transform="translate(-26.05 -295.43)" style="fill: #19ad4a"></path><path d="M148.34,410.92a29.25,29.25,0,1,0-29.29-29.24A29.26,29.26,0,0,0,148.34,410.92Z" transform="translate(-26.05 -295.43)" style="fill: #fc340d"></path><path d="M271.34,775.92a29.25,29.25,0,1,0-29.29-29.24A29.26,29.26,0,0,0,271.34,775.92Z" transform="translate(-26.05 -295.43)" style="fill: #5273f9"></path><path d="M1242.34,874.43a29.26,29.26,0,0,0-29.29,29.25h58.58A29.27,29.27,0,0,0,1242.34,874.43Z" transform="translate(-26.05 -295.43)" style="fill: #fc340d"></path><path d="M163.34,874.43a29.27,29.27,0,0,0-29.29,29.25h58.58A29.26,29.26,0,0,0,163.34,874.43Z" transform="translate(-26.05 -295.43)" style="fill: #19ad4a"></path><path d="M1375.34,324.68a29.28,29.28,0,0,0,29.29-29.25h-58.58A29.27,29.27,0,0,0,1375.34,324.68Z" transform="translate(-26.05 -295.43)" style="fill: #fc0"></path><path d="M512.34,324.68a29.27,29.27,0,0,0,29.29-29.25H483.05A29.28,29.28,0,0,0,512.34,324.68Z" transform="translate(-26.05 -295.43)" style="fill: #19ad4a"></path><path d="M385.33,583.92A29.25,29.25,0,1,0,356,554.68,29.26,29.26,0,0,0,385.33,583.92Z" transform="translate(-26.05 -295.43)" style="fill: #5273f9"></path><path d="M1375.34,607.92a29.25,29.25,0,1,0-29.29-29.24A29.27,29.27,0,0,0,1375.34,607.92Z" transform="translate(-26.05 -295.43)" style="fill: #5273f9"></path><path d="M55.34,599.92a29.25,29.25,0,1,0-29.29-29.24A29.26,29.26,0,0,0,55.34,599.92Z" transform="translate(-26.05 -295.43)" style="fill: #5273f9"></path><path d="M978.34,526.92a29.25,29.25,0,1,0-29.29-29.24A29.26,29.26,0,0,0,978.34,526.92Z" transform="translate(-26.05 -295.43)" style="fill: #5273f9"></path><path d="M355.34,554.92a29.25,29.25,0,1,0-29.29-29.24A29.26,29.26,0,0,0,355.34,554.92Z" transform="translate(-26.05 -295.43)" style="fill: #fc0"></path><path d="M1037.34,730.92a29.25,29.25,0,1,0-29.29-29.24A29.27,29.27,0,0,0,1037.34,730.92Z" transform="translate(-26.05 -295.43)" style="fill: #fc0"></path><path d="M541.34,804.92a29.25,29.25,0,1,0-29.29-29.24A29.26,29.26,0,0,0,541.34,804.92Z" transform="translate(-26.05 -295.43)" style="fill: #fc0"></path><path d="M766.34,410.92a29.25,29.25,0,1,0-29.29-29.24A29.26,29.26,0,0,0,766.34,410.92Z" transform="translate(-26.05 -295.43)" style="fill: #fc0"></path><path d="M1147.34,468.92a29.25,29.25,0,1,0-29.29-29.24A29.27,29.27,0,0,0,1147.34,468.92Z" transform="translate(-26.05 -295.43)" style="fill: #fc340d"></path><path d="M1492.34,804.92a29.25,29.25,0,1,0-29.29-29.24A29.27,29.27,0,0,0,1492.34,804.92Z" transform="translate(-26.05 -295.43)" style="fill: #fc340d"></path></svg>