<svg xmlns="http://www.w3.org/2000/svg" id="Layer_1" data-name="Layer 1" viewBox="0 0 787 395.71"><path d="M815.11,482.44l30.55-15.28V445.09l-30.55,15.29Z" transform="translate(-206.34 -401.7)" style="fill: #526373"></path><path d="M770.34,550.7l20-10.23V525.7l-20,10.23Z" transform="translate(-206.34 -401.7)" style="fill: #526373"></path><path d="M482.89,515.38l15.28-7.65v-11l-15.28,7.64Z" transform="translate(-206.34 -401.7)" style="fill: #ff340c"></path><path d="M315.34,685.78l20.53-10.26V660.7L315.34,671Z" transform="translate(-206.34 -401.7)" style="fill: #19ad4a"></path><path d="M939.34,792.78l20.52-10.26V767.7L939.34,778Z" transform="translate(-206.34 -401.7)" style="fill: #526373"></path><path d="M383.34,580.52l22-11V553.7l-22,11Z" transform="translate(-206.34 -401.7)" style="fill: #fc0"></path><path d="M951.34,695.7l29-14.32V660.7l-29,14.32Z" transform="translate(-206.34 -401.7)" style="fill: #ff340c"></path><path d="M845.47,649.23l18.83-9.42v-13.6l-18.83,9.42Z" transform="translate(-206.34 -401.7)" style="fill: #526373"></path><path d="M706.34,748l30.57-15.28V710.7L706.34,726Z" transform="translate(-206.34 -401.7)" style="fill: #526373"></path><path d="M275.78,518.77l88-44-.65,22.39-87.32,43.66" transform="translate(-206.34 -401.7)" style="fill: #526373"></path><path d="M609.34,532.69l88-44-.66,22.39-87.32,43.66" transform="translate(-206.34 -401.7)" style="fill: #19ad4a"></path><path d="M225.52,619.6l44-22-.32,11.2-43.66,21.82" transform="translate(-206.34 -401.7)" style="fill: #5273fc"></path><path d="M835.34,749.93l58.45-29.23-.45,14.88-58,29" transform="translate(-206.34 -401.7)" style="fill: #fc0"></path><path d="M221.1,473.7l58.45-29.22-.44,14.86-58,29" transform="translate(-206.34 -401.7)" style="fill: #19ad4a"></path><path d="M564.34,765.92l58.45-29.22-.45,14.88-58,29" transform="translate(-206.34 -401.7)" style="fill: #526373"></path><path d="M905.38,528.73l88-44-.66,22.39-87.3,43.66" transform="translate(-206.34 -401.7)" style="fill: #5273fc"></path><path d="M206.34,775.35l88-44-.66,22.39-87.31,43.66" transform="translate(-206.34 -401.7)" style="fill: #526373"></path><path d="M383.34,738.65l72-35.95L454.8,721,383.34,756.7" transform="translate(-206.34 -401.7)" style="fill: #5273fc"></path><path d="M564.49,445.69l88-44-.66,22.38-87.31,43.67" transform="translate(-206.34 -401.7)" style="fill: #526373"></path></svg>