<svg id="Layer_1" data-name="Layer 1" xmlns="http://www.w3.org/2000/svg" viewBox="0 0 1093 486.8">
  <path d="M881.27,409.65H331.87V745h549.4Z" transform="translate(-53.17 -356.09)" style="fill: #fdfeff"/>
  <path d="M372.27,409.65h-87.7V745h87.7Z" transform="translate(-53.17 -356.09)" style="fill: #fdfeff"/>
  <path d="M395.07,683.75h459.6" transform="translate(-53.17 -356.09)" style="fill: none;stroke: #e7e7e7;stroke-width: 0.571399986743927px"/>
  <path d="M395.07,664.05h459.6" transform="translate(-53.17 -356.09)" style="fill: none;stroke: #e7e7e7;stroke-width: 0.571399986743927px"/>
  <path d="M395.07,644.35h459.6" transform="translate(-53.17 -356.09)" style="fill: none;stroke: #e7e7e7;stroke-width: 0.571399986743927px"/>
  <path d="M395.07,624.65h459.6" transform="translate(-53.17 -356.09)" style="fill: none;stroke: #e7e7e7;stroke-width: 0.571399986743927px"/>
  <path d="M395.07,605.05h459.6" transform="translate(-53.17 -356.09)" style="fill: none;stroke: #e7e7e7;stroke-width: 0.571399986743927px"/>
  <path d="M395.07,585.35h459.6" transform="translate(-53.17 -356.09)" style="fill: none;stroke: #e7e7e7;stroke-width: 0.571399986743927px"/>
  <path d="M395.07,565.65h459.6" transform="translate(-53.17 -356.09)" style="fill: none;stroke: #e7e7e7;stroke-width: 0.571399986743927px"/>
  <path d="M395.07,546h459.6" transform="translate(-53.17 -356.09)" style="fill: none;stroke: #e7e7e7;stroke-width: 0.571399986743927px"/>
  <path d="M395.07,526.25h459.6" transform="translate(-53.17 -356.09)" style="fill: none;stroke: #e7e7e7;stroke-width: 0.571399986743927px"/>
  <path d="M395.07,506.55h459.6" transform="translate(-53.17 -356.09)" style="fill: none;stroke: #e7e7e7;stroke-width: 0.571399986743927px"/>
  <path d="M395.07,487h459.6" transform="translate(-53.17 -356.09)" style="fill: none;stroke: #e7e7e7;stroke-width: 0.571399986743927px"/>
  <path d="M395.07,467.25h459.6" transform="translate(-53.17 -356.09)" style="fill: none;stroke: #e7e7e7;stroke-width: 0.571399986743927px"/>
  <path d="M418.17,654.15s107.2-150.5,200.1-61.3c151.9,145.9,213.3-93.5,213.3-93.5" transform="translate(-53.17 -356.09)" style="fill: none;stroke: #4e6fff;stroke-width: 0.8571000099182129px"/>
  <path d="M842,447.55H407.67a12.55,12.55,0,0,0-12.6,12.6V691a12.55,12.55,0,0,0,12.6,12.6H842a12.55,12.55,0,0,0,12.6-12.6V460.15A12.55,12.55,0,0,0,842,447.55Z" transform="translate(-53.17 -356.09)" style="fill: none;stroke: #e7e7e7;stroke-width: 0.571399986743927px"/>
  <path d="M907.77,471.55h224a14.4,14.4,0,0,1,14.4,14.4v83.4a14.4,14.4,0,0,1-14.4,14.4h-224a14.4,14.4,0,0,1-14.4-14.4V486A14.4,14.4,0,0,1,907.77,471.55Z" transform="translate(-53.17 -356.09)" style="fill: #fff"/>
  <path d="M1129.17,498.15h-85.3a2.43,2.43,0,0,0-2.4,2.4v1.6a2.43,2.43,0,0,0,2.4,2.4h85.3a2.43,2.43,0,0,0,2.4-2.4v-1.6A2.43,2.43,0,0,0,1129.17,498.15Z" transform="translate(-53.17 -356.09)" style="fill: #fc0"/>
  <path d="M1027.37,506.25a5.12,5.12,0,1,0-6.5-3.2A5.27,5.27,0,0,0,1027.37,506.25Z" transform="translate(-53.17 -356.09)" style="fill: #fc0"/>
  <path d="M1121.57,515.15h-77.7a2.43,2.43,0,0,0-2.4,2.4v1.6a2.43,2.43,0,0,0,2.4,2.4h77.7a2.43,2.43,0,0,0,2.4-2.4v-1.6A2.43,2.43,0,0,0,1121.57,515.15Z" transform="translate(-53.17 -356.09)" style="fill: #fc0"/>
  <path d="M1027.37,523.25a5.12,5.12,0,1,0-6.5-3.2A5.27,5.27,0,0,0,1027.37,523.25Z" transform="translate(-53.17 -356.09)" style="fill: #fc0"/>
  <path d="M1111,532.55h-67.1a2.43,2.43,0,0,0-2.4,2.4v1.6a2.43,2.43,0,0,0,2.4,2.4H1111a2.43,2.43,0,0,0,2.4-2.4V535A2.37,2.37,0,0,0,1111,532.55Z" transform="translate(-53.17 -356.09)" style="fill: #fc0"/>
  <path d="M1027.37,540.65a5.12,5.12,0,1,0-6.5-3.2A5.27,5.27,0,0,0,1027.37,540.65Z" transform="translate(-53.17 -356.09)" style="fill: #fc0"/>
  <path d="M1115.17,549.55h-71.3a2.43,2.43,0,0,0-2.4,2.4v1.6a2.43,2.43,0,0,0,2.4,2.4h71.3a2.43,2.43,0,0,0,2.4-2.4V552A2.43,2.43,0,0,0,1115.17,549.55Z" transform="translate(-53.17 -356.09)" style="fill: #fc0"/>
  <path d="M1027.37,557.65a5.12,5.12,0,1,0-6.5-3.2A5.27,5.27,0,0,0,1027.37,557.65Z" transform="translate(-53.17 -356.09)" style="fill: #fc0"/>
  <path d="M812.27,433.65a4.4,4.4,0,1,0-4.4-4.4A4.44,4.44,0,0,0,812.27,433.65Z" transform="translate(-53.17 -356.09)" style="fill: #5273fd"/>
  <path d="M795.77,433.65a4.4,4.4,0,1,0-4.4-4.4A4.44,4.44,0,0,0,795.77,433.65Z" transform="translate(-53.17 -356.09)" style="fill: #ff340c"/>
  <path d="M845.07,433.65a4.4,4.4,0,1,0-4.4-4.4A4.44,4.44,0,0,0,845.07,433.65Z" transform="translate(-53.17 -356.09)" style="fill: #19ad4a"/>
  <path d="M828.67,433.65a4.4,4.4,0,1,0-4.4-4.4A4.44,4.44,0,0,0,828.67,433.65Z" transform="translate(-53.17 -356.09)" style="fill: #fc0"/>
  <path d="M418.17,661.05a6.9,6.9,0,1,0-6.9-6.9A6.79,6.79,0,0,0,418.17,661.05Z" transform="translate(-53.17 -356.09)" style="fill: #5273fd"/>
  <path d="M831.47,506.35a6.9,6.9,0,1,0-6.9-6.9A6.91,6.91,0,0,0,831.47,506.35Z" transform="translate(-53.17 -356.09)" style="fill: #5273fd"/>
  <path d="M956.27,572.75a45.7,45.7,0,1,0-45.7-45.7A45.69,45.69,0,0,0,956.27,572.75Z" transform="translate(-53.17 -356.09)" style="fill: #293b4a"/>
  <path d="M944.47,498.45a31.18,31.18,0,0,0-14,11.4,32,32,0,0,0-5.3,17.2,30.89,30.89,0,0,0,19.1,28.6,30.91,30.91,0,0,0,33.8-6.7,31.31,31.31,0,0,0,8.5-15.9,30.55,30.55,0,0,0-1.8-17.9,30.94,30.94,0,0,0-40.3-16.7Z" transform="translate(-53.17 -356.09)" style="fill: none;stroke: #526373;stroke-miterlimit: 10;stroke-width: 0.732200026512146px"/>
  <path d="M956.27,546.05a19,19,0,0,0,12.1-4.3,19.36,19.36,0,0,0,6.6-11,18.73,18.73,0,0,0-1.9-12.7,19,19,0,0,0-22.3-9.2,19.63,19.63,0,0,0-10.3,7.6,19.26,19.26,0,0,0-3.1,12.4,18.89,18.89,0,0,0,5.5,11.6,17.74,17.74,0,0,0,6.1,4.1A18.71,18.71,0,0,0,956.27,546.05Z" transform="translate(-53.17 -356.09)" style="fill: none;stroke: #526373;stroke-miterlimit: 10;stroke-width: 0.732200026512146px"/>
  <path d="M956.27,564.15a37.1,37.1,0,0,1-33-20.1,36.9,36.9,0,0,1,18.5-51,38.78,38.78,0,0,1,19.9-2.6,36.77,36.77,0,0,1,18.3,8.2,37.87,37.87,0,0,1,11.4,16.5" transform="translate(-53.17 -356.09)" style="fill: none;stroke: #ff340c;stroke-miterlimit: 10;stroke-width: 10.73960018157959px"/>
  <path d="M956.27,552a25,25,0,0,0,11.4-2.8,25.05,25.05,0,0,0,13.3-18.6,25.73,25.73,0,0,0-1-11.7" transform="translate(-53.17 -356.09)" style="fill: none;stroke: #5273fd;stroke-miterlimit: 10;stroke-width: 10.251399993896484px"/>
  <path d="M946.27,527.15a8.42,8.42,0,0,1,.4-2.7l.1-.4a10.14,10.14,0,0,1,4.7-5.7,10.26,10.26,0,0,1,7.3-1,10,10,0,0,1,6,4.2,10.18,10.18,0,0,1,1.6,7.2,10,10,0,0,1-10.7,8.4,9.9,9.9,0,0,1-6.6-3.2A9.45,9.45,0,0,1,946.27,527.15Z" transform="translate(-53.17 -356.09)" style="fill: #526373"/>
  <path d="M946.27,527.15a8.42,8.42,0,0,1,.4-2.7l.1-.4a9.73,9.73,0,0,1,1.1-2.3l8.4,5.5Z" transform="translate(-53.17 -356.09)" style="fill: #4e6fff"/>
  <path d="M956.17,475.75a5.3,5.3,0,1,0-5.3-5.3A5.34,5.34,0,0,0,956.17,475.75Z" transform="translate(-53.17 -356.09)" style="fill: #ffcd00"/>
  <path d="M573.27,619.35a5.6,5.6,0,1,0-5.6-5.6A5.59,5.59,0,0,0,573.27,619.35Z" transform="translate(-53.17 -356.09)" style="fill: #ff340c"/>
  <path d="M772.67,543.35a7.4,7.4,0,1,0-7.4-7.4A7.38,7.38,0,0,0,772.67,543.35Z" transform="translate(-53.17 -356.09)" style="fill: #ff340c"/>
  <path d="M476.27,573a6.6,6.6,0,1,0-6.6-6.6A6.59,6.59,0,0,0,476.27,573Z" transform="translate(-53.17 -356.09)" style="fill: #ff340c"/>
  <path d="M709.37,632.45a7.1,7.1,0,1,0-7.1-7.1A7.13,7.13,0,0,0,709.37,632.45Z" transform="translate(-53.17 -356.09)" style="fill: #ff340c"/>
  <path d="M792.57,594a6.8,6.8,0,1,0-6.8-6.8A6.74,6.74,0,0,0,792.57,594Z" transform="translate(-53.17 -356.09)" style="fill: #5273fd"/>
  <path d="M962.37,789.45a99.56,99.56,0,0,1-23.6,29.9,96.57,96.57,0,0,1-33.1,18.5,95.25,95.25,0,0,1-37.5,4.3,96.32,96.32,0,0,1-36.2-10.6" transform="translate(-53.17 -356.09)" style="fill: none;stroke: #2e4455;stroke-miterlimit: 10;stroke-width: 0.781000018119812px"/>
  <path d="M885.47,647.15a97,97,0,0,1,36.1,10.5" transform="translate(-53.17 -356.09)" style="fill: none;stroke: #2e4455;stroke-miterlimit: 10;stroke-width: 0.781000018119812px"/>
  <path d="M790.47,699.75a98,98,0,0,1,57-48.5" transform="translate(-53.17 -356.09)" style="fill: none;stroke: #2e4455;stroke-miterlimit: 10;stroke-width: 0.781000018119812px"/>
  <path d="M966.87,759.85l-35.4-5.9a57.93,57.93,0,0,0-3.5-31.1l33.2-14A95.6,95.6,0,0,1,966.87,759.85Z" transform="translate(-53.17 -356.09)" style="fill: #19ad4a"/>
  <path d="M825.57,767l-32.9,14.3a94.7,94.7,0,0,1-7.2-35.6,91.74,91.74,0,0,1,4.1-28l34.1,10.5A57.53,57.53,0,0,0,825.57,767Z" transform="translate(-53.17 -356.09)" style="fill: #ff340c"/>
  <path d="M919.17,663l-16.4,31.7a55.16,55.16,0,0,0-23.5-6.2,56.12,56.12,0,0,0-55.7,39.7l-34-10.4a91.39,91.39,0,0,1,91.1-64.9A90.32,90.32,0,0,1,919.17,663Z" transform="translate(-53.17 -356.09)" style="fill: #fc0"/>
  <path d="M957.77,787a91.61,91.61,0,0,1-84.7,49.7,91.09,91.09,0,0,1-80.6-55.8l32.8-14.1a55.63,55.63,0,0,0,89.9,18.4,56.57,56.57,0,0,0,16.5-31.4l35.1,5.8A91.89,91.89,0,0,1,957.77,787Z" transform="translate(-53.17 -356.09)" style="fill: #b4cff9"/>
  <path d="M977,702.15l-16.1,6.7-32.8,13.7a55.47,55.47,0,0,0-25.7-28.1l24.5-47.1A107.58,107.58,0,0,1,977,702.15Z" transform="translate(-53.17 -356.09)" style="fill: #4e6fff"/>
  <path d="M691.07,452.35a90.1,90.1,0,0,1-3.1,23.2c-.3,1.2-.7,2.5-1.1,3.7a87.65,87.65,0,1,1,4.2-26.9Z" transform="translate(-53.17 -356.09)" style="fill: #5273fd"/>
  <path d="M691.07,452.35h-87.3v-87.2a87.23,87.23,0,0,1,87.3,87.2Z" transform="translate(-53.17 -356.09)" style="fill: #ffcd00"/>
  <path d="M691.07,452.35a83.46,83.46,0,0,1-3.2,23.3c-.3,1.2-.7,2.5-1.1,3.7a84.23,84.23,0,0,1-9.7,20.3l-73.3-47.3Z" transform="translate(-53.17 -356.09)" style="fill: #ff8a32"/>
  <path d="M919.17,743.55a42,42,0,0,1-1.5,11.2,12.09,12.09,0,0,0-.5,1.8,42.17,42.17,0,1,1-66.3-46,41.56,41.56,0,0,1,29.4-8.9,42,42,0,0,1,27.7,13.4A42.68,42.68,0,0,1,919.17,743.55Z" transform="translate(-53.17 -356.09)" style="fill: #5cc46e"/>
  <path d="M919.17,743.55h-42.1v-42.1a42.07,42.07,0,0,1,29.8,12.3A42.85,42.85,0,0,1,919.17,743.55Z" transform="translate(-53.17 -356.09)" style="fill: #b4cff9"/>
  <path d="M919.17,743.55a42,42,0,0,1-1.5,11.2c-.2.6-.3,1.2-.5,1.8a38.51,38.51,0,0,1-4.7,9.8l-35.4-22.8Z" transform="translate(-53.17 -356.09)" style="fill: #f1f3f5"/>
  <path d="M222.67,558.25H63a9.82,9.82,0,0,0-9.8,9.8v221.8a9.82,9.82,0,0,0,9.8,9.8h159.7a9.82,9.82,0,0,0,9.8-9.8V568.05A9.82,9.82,0,0,0,222.67,558.25Z" transform="translate(-53.17 -356.09)" style="fill: #fc0"/>
  <path d="M194.87,595.65h-24.3v55.7h24.3Z" transform="translate(-53.17 -356.09)" style="fill: #f1f3f5"/>
  <path d="M114,713.05H89.67v49.2H114Z" transform="translate(-53.17 -356.09)" style="fill: #f1f3f5"/>
  <path d="M89.57,762.25v-49.2h19.1" transform="translate(-53.17 -356.09)" style="fill: none;stroke: #293b4a;stroke-miterlimit: 10;stroke-width: 1.0830999612808228px"/>
  <path d="M116.57,762.25V693h19.1" transform="translate(-53.17 -356.09)" style="fill: none;stroke: #293b4a;stroke-miterlimit: 10;stroke-width: 1.0830999612808228px"/>
  <path d="M143.57,762.25V651.35h19.1" transform="translate(-53.17 -356.09)" style="fill: none;stroke: #293b4a;stroke-miterlimit: 10;stroke-width: 1.0830999612808228px"/>
  <path d="M74.47,762.25h136.7" transform="translate(-53.17 -356.09)" style="fill: none;stroke: #293b4a;stroke-miterlimit: 10;stroke-width: 1.0830999612808228px"/>
  <path d="M99.17,706.75c0-70.8,39.2-78.5,54-78.5" transform="translate(-53.17 -356.09)" style="fill: none;stroke: #ff340c;stroke-miterlimit: 10;stroke-width: 1.444200038909912px"/>
  <path d="M153.17,623.45l4.8,4.8-4.4,4.3" transform="translate(-53.17 -356.09)" style="fill: none;stroke: #ff340c;stroke-miterlimit: 10;stroke-width: 1.444200038909912px"/>
  <path d="M170.57,762.25V595.65h24.3v166.6" transform="translate(-53.17 -356.09)" style="fill: none;stroke: #293b4a;stroke-miterlimit: 10;stroke-width: 1.0830999612808228px"/>
  <path d="M653.27,433.65h49.5v-76.6h253.4v113.4" transform="translate(-53.17 -356.09)" style="fill: none;stroke: #ffcd00;stroke-miterlimit: 10;stroke-width: 1.9215999841690063px"/>
  <path d="M357.57,522.65v91.1h-36.5v70h-88.6" transform="translate(-53.17 -356.09)" style="fill: none;stroke: #ffcd00;stroke-miterlimit: 10;stroke-width: 2px"/>
  <path d="M435.17,452.45H254.77c-5.1,0-9.2,3.2-9.2,7.2v75.6c0,4,4.1,7.2,9.2,7.2h180.4c5.1,0,9.2-3.2,9.2-7.2v-75.6C444.47,455.65,440.27,452.45,435.17,452.45Z" transform="translate(-53.17 -356.09)" style="fill: #b4cff9"/>
  <path d="M323.37,497.45a28.92,28.92,0,0,1-6.7,18.4,29.35,29.35,0,0,1-50.9-26.9,28.93,28.93,0,0,1,11.8-15.7,30.09,30.09,0,0,1,19.2-4.8,29.43,29.43,0,0,1,17.9,8.4A28.84,28.84,0,0,1,323.37,497.45Z" transform="translate(-53.17 -356.09)" style="fill: #fff;stroke: #293b4a;stroke-miterlimit: 10;stroke-width: 1.0292999744415283px"/>
  <path d="M303.27,501.05c-1.5,2-3.4,3.9-5.4,4.3-4.8,1-4.5-9.4-4.5-9.4l-2.5-.3.2-3.5c.2-3.9-1.2-4.7-1.2-4.7" transform="translate(-53.17 -356.09)" style="fill: none;stroke: #293b4a;stroke-linejoin: round;stroke-width: 1.0292999744415283px"/>
  <path d="M295.57,500.25a5.89,5.89,0,0,0,4.1-2.1" transform="translate(-53.17 -356.09)" style="fill: none;stroke: #293b4a;stroke-linejoin: round;stroke-width: 1.0292999744415283px"/>
  <path d="M297.47,475.65c-4-4.5-7.9,1.6-6.9,2.9a4.3,4.3,0,0,0-2,2.2,5.11,5.11,0,0,0-.3,3s-4.7,7.3,3,5.9c0,0,1-3.5,7.2-2a13.7,13.7,0,0,0,6.3.2s.2,2.2-1.2,3c0,0-.4,6,.8,5.9,0,0,2.8-1.4,3.7-.3s3-3.8.2-6.5c0,0,3.4-2.9.6-4.9,0,0,1.8-6.1-3.6-4.1,0,0,.9-5.4-4.4-3.8A2.53,2.53,0,0,0,297.47,475.65Z" transform="translate(-53.17 -356.09)" style="fill: #293b4a"/>
  <path d="M296.57,492.05a1.27,1.27,0,0,0,.6-.1,1.38,1.38,0,0,0,.4-.3.6.6,0,0,0,.1-.4.54.54,0,0,0-.3-.4.76.76,0,0,0-.5-.2h-.6c-.2.1-.3.2-.5.3a.76.76,0,0,0-.2.4.55.55,0,0,0,.3.5A1.45,1.45,0,0,0,296.57,492.05Z" transform="translate(-53.17 -356.09)" style="fill: #293b4a"/>
  <path d="M305.47,488c-1.2,11.4,5.4,13.7,5.4,13.7s4.8,0,11.4,3.8" transform="translate(-53.17 -356.09)" style="fill: none;stroke: #293b4a;stroke-miterlimit: 10;stroke-width: 1.0292999744415283px"/>
  <path d="M294,502.35c-9.1,2.8-14.9,10-18.5,18" transform="translate(-53.17 -356.09)" style="fill: none;stroke: #293b4a;stroke-miterlimit: 10;stroke-width: 1.0292999744415283px"/>
  <path d="M287.27,519.85a52.14,52.14,0,0,0-1,5.7" transform="translate(-53.17 -356.09)" style="fill: none;stroke: #293b4a;stroke-miterlimit: 10;stroke-width: 1.0292999744415283px"/>
  <path d="M299.67,487.05c1.9.5-1,7.3,1.1,6.5s1.6-1.9,3.3-2.8,1.2-6.4,1.2-6.4l-4.5,2.8Z" transform="translate(-53.17 -356.09)" style="fill: #293b4a"/>
  <path d="M313.57,501.85c-20,23-23.9,10.1-19.4.5" transform="translate(-53.17 -356.09)" style="fill: none;stroke: #293b4a;stroke-miterlimit: 10;stroke-width: 1.0292999744415283px"/>
  <path d="M423,482.25H344a4.1,4.1,0,0,1,0-8.2h79a4.12,4.12,0,0,1,4.1,4.1A4.18,4.18,0,0,1,423,482.25Z" transform="translate(-53.17 -356.09)" style="fill: #f1f3f5"/>
  <path d="M395.37,503.55h-51.5a4.1,4.1,0,0,1,0-8.2h51.5a4.12,4.12,0,0,1,4.1,4.1A4.06,4.06,0,0,1,395.37,503.55Z" transform="translate(-53.17 -356.09)" style="fill: #f1f3f5"/>
</svg>
