<svg xmlns="http://www.w3.org/2000/svg" xmlns:xlink="http://www.w3.org/1999/xlink" id="Layer_1" data-name="Layer 1" viewBox="0 0 644.94 356.56" style="opacity: 0.2"><defs><clipPath id="clip-path" transform="translate(-270.84 -419.18)"><rect x="270.84" y="419.18" width="1318" height="360.75" style="fill: none"></rect></clipPath></defs><g style="clip-path: url(#clip-path)"><g><path d="M723.48,771.73h-4v4h4Z" transform="translate(-270.84 -419.18)" style="fill: #293b4a"></path><path d="M755.53,771.73h-4v4h4Z" transform="translate(-270.84 -419.18)" style="fill: #293b4a"></path><path d="M787.58,771.73h-4v4h4Z" transform="translate(-270.84 -419.18)" style="fill: #293b4a"></path><path d="M819.62,771.73h-4v4h4Z" transform="translate(-270.84 -419.18)" style="fill: #293b4a"></path><path d="M851.69,771.73h-4v4h4Z" transform="translate(-270.84 -419.18)" style="fill: #293b4a"></path><path d="M883.73,771.73h-4v4h4Z" transform="translate(-270.84 -419.18)" style="fill: #293b4a"></path><path d="M915.78,771.73h-4v4h4Z" transform="translate(-270.84 -419.18)" style="fill: #293b4a"></path><path d="M723.48,739.68h-4v4h4Z" transform="translate(-270.84 -419.18)" style="fill: #293b4a"></path><path d="M755.53,739.68h-4v4h4Z" transform="translate(-270.84 -419.18)" style="fill: #293b4a"></path><path d="M787.58,739.68h-4v4h4Z" transform="translate(-270.84 -419.18)" style="fill: #293b4a"></path><path d="M819.62,739.68h-4v4h4Z" transform="translate(-270.84 -419.18)" style="fill: #293b4a"></path><path d="M851.69,739.68h-4v4h4Z" transform="translate(-270.84 -419.18)" style="fill: #293b4a"></path><path d="M883.73,739.68h-4v4h4Z" transform="translate(-270.84 -419.18)" style="fill: #293b4a"></path><path d="M915.78,739.68h-4v4h4Z" transform="translate(-270.84 -419.18)" style="fill: #293b4a"></path><path d="M723.48,707.63h-4v4h4Z" transform="translate(-270.84 -419.18)" style="fill: #293b4a"></path><path d="M755.53,707.63h-4v4h4Z" transform="translate(-270.84 -419.18)" style="fill: #293b4a"></path><path d="M787.58,707.63h-4v4h4Z" transform="translate(-270.84 -419.18)" style="fill: #293b4a"></path><path d="M819.62,707.63h-4v4h4Z" transform="translate(-270.84 -419.18)" style="fill: #293b4a"></path><path d="M851.69,707.63h-4v4h4Z" transform="translate(-270.84 -419.18)" style="fill: #293b4a"></path><path d="M883.73,707.63h-4v4h4Z" transform="translate(-270.84 -419.18)" style="fill: #293b4a"></path><path d="M915.78,707.63h-4v4h4Z" transform="translate(-270.84 -419.18)" style="fill: #293b4a"></path><path d="M723.48,675.59h-4v4h4Z" transform="translate(-270.84 -419.18)" style="fill: #293b4a"></path><path d="M755.53,675.59h-4v4h4Z" transform="translate(-270.84 -419.18)" style="fill: #293b4a"></path><path d="M787.58,675.59h-4v4h4Z" transform="translate(-270.84 -419.18)" style="fill: #293b4a"></path><path d="M819.62,675.59h-4v4h4Z" transform="translate(-270.84 -419.18)" style="fill: #293b4a"></path><path d="M851.69,675.59h-4v4h4Z" transform="translate(-270.84 -419.18)" style="fill: #293b4a"></path><path d="M883.73,675.59h-4v4h4Z" transform="translate(-270.84 -419.18)" style="fill: #293b4a"></path><path d="M915.78,675.59h-4v4h4Z" transform="translate(-270.84 -419.18)" style="fill: #293b4a"></path><path d="M723.48,643.53h-4v4h4Z" transform="translate(-270.84 -419.18)" style="fill: #293b4a"></path><path d="M755.53,643.53h-4v4h4Z" transform="translate(-270.84 -419.18)" style="fill: #293b4a"></path><path d="M787.58,643.53h-4v4h4Z" transform="translate(-270.84 -419.18)" style="fill: #293b4a"></path><path d="M819.62,643.53h-4v4h4Z" transform="translate(-270.84 -419.18)" style="fill: #293b4a"></path><path d="M851.69,643.53h-4v4h4Z" transform="translate(-270.84 -419.18)" style="fill: #293b4a"></path><path d="M883.73,643.53h-4v4h4Z" transform="translate(-270.84 -419.18)" style="fill: #293b4a"></path><path d="M915.78,643.53h-4v4h4Z" transform="translate(-270.84 -419.18)" style="fill: #293b4a"></path><path d="M723.48,611.48h-4v4h4Z" transform="translate(-270.84 -419.18)" style="fill: #293b4a"></path><path d="M755.53,611.48h-4v4h4Z" transform="translate(-270.84 -419.18)" style="fill: #293b4a"></path><path d="M787.58,611.48h-4v4h4Z" transform="translate(-270.84 -419.18)" style="fill: #293b4a"></path><path d="M819.62,611.48h-4v4h4Z" transform="translate(-270.84 -419.18)" style="fill: #293b4a"></path><path d="M851.69,611.48h-4v4h4Z" transform="translate(-270.84 -419.18)" style="fill: #293b4a"></path><path d="M883.73,611.48h-4v4h4Z" transform="translate(-270.84 -419.18)" style="fill: #293b4a"></path><path d="M915.78,611.48h-4v4h4Z" transform="translate(-270.84 -419.18)" style="fill: #293b4a"></path><path d="M723.48,579.43h-4v4h4Z" transform="translate(-270.84 -419.18)" style="fill: #293b4a"></path><path d="M755.53,579.43h-4v4h4Z" transform="translate(-270.84 -419.18)" style="fill: #293b4a"></path><path d="M787.58,579.43h-4v4h4Z" transform="translate(-270.84 -419.18)" style="fill: #293b4a"></path><path d="M819.62,579.43h-4v4h4Z" transform="translate(-270.84 -419.18)" style="fill: #293b4a"></path><path d="M851.69,579.43h-4v4h4Z" transform="translate(-270.84 -419.18)" style="fill: #293b4a"></path><path d="M883.73,579.43h-4v4h4Z" transform="translate(-270.84 -419.18)" style="fill: #293b4a"></path><path d="M915.78,579.43h-4v4h4Z" transform="translate(-270.84 -419.18)" style="fill: #293b4a"></path><path d="M723.48,547.38h-4v4h4Z" transform="translate(-270.84 -419.18)" style="fill: #293b4a"></path><path d="M755.53,547.38h-4v4h4Z" transform="translate(-270.84 -419.18)" style="fill: #293b4a"></path><path d="M787.58,547.38h-4v4h4Z" transform="translate(-270.84 -419.18)" style="fill: #293b4a"></path><path d="M819.62,547.38h-4v4h4Z" transform="translate(-270.84 -419.18)" style="fill: #293b4a"></path><path d="M851.69,547.38h-4v4h4Z" transform="translate(-270.84 -419.18)" style="fill: #293b4a"></path><path d="M883.73,547.38h-4v4h4Z" transform="translate(-270.84 -419.18)" style="fill: #293b4a"></path><path d="M915.78,547.38h-4v4h4Z" transform="translate(-270.84 -419.18)" style="fill: #293b4a"></path><path d="M723.48,515.33h-4v4h4Z" transform="translate(-270.84 -419.18)" style="fill: #293b4a"></path><path d="M755.53,515.33h-4v4h4Z" transform="translate(-270.84 -419.18)" style="fill: #293b4a"></path><path d="M787.58,515.33h-4v4h4Z" transform="translate(-270.84 -419.18)" style="fill: #293b4a"></path><path d="M819.62,515.33h-4v4h4Z" transform="translate(-270.84 -419.18)" style="fill: #293b4a"></path><path d="M851.69,515.33h-4v4h4Z" transform="translate(-270.84 -419.18)" style="fill: #293b4a"></path><path d="M883.73,515.33h-4v4h4Z" transform="translate(-270.84 -419.18)" style="fill: #293b4a"></path><path d="M915.78,515.33h-4v4h4Z" transform="translate(-270.84 -419.18)" style="fill: #293b4a"></path><path d="M723.48,483.28h-4v4h4Z" transform="translate(-270.84 -419.18)" style="fill: #293b4a"></path><path d="M755.53,483.28h-4v4h4Z" transform="translate(-270.84 -419.18)" style="fill: #293b4a"></path><path d="M787.58,483.28h-4v4h4Z" transform="translate(-270.84 -419.18)" style="fill: #293b4a"></path><path d="M819.62,483.28h-4v4h4Z" transform="translate(-270.84 -419.18)" style="fill: #293b4a"></path><path d="M851.69,483.28h-4v4h4Z" transform="translate(-270.84 -419.18)" style="fill: #293b4a"></path><path d="M883.73,483.28h-4v4h4Z" transform="translate(-270.84 -419.18)" style="fill: #293b4a"></path><path d="M915.78,483.28h-4v4h4Z" transform="translate(-270.84 -419.18)" style="fill: #293b4a"></path><path d="M723.48,451.23h-4v4h4Z" transform="translate(-270.84 -419.18)" style="fill: #293b4a"></path><path d="M755.53,451.23h-4v4h4Z" transform="translate(-270.84 -419.18)" style="fill: #293b4a"></path><path d="M787.58,451.23h-4v4h4Z" transform="translate(-270.84 -419.18)" style="fill: #293b4a"></path><path d="M819.62,451.23h-4v4h4Z" transform="translate(-270.84 -419.18)" style="fill: #293b4a"></path><path d="M851.69,451.23h-4v4h4Z" transform="translate(-270.84 -419.18)" style="fill: #293b4a"></path><path d="M883.73,451.23h-4v4h4Z" transform="translate(-270.84 -419.18)" style="fill: #293b4a"></path><path d="M915.78,451.23h-4v4h4Z" transform="translate(-270.84 -419.18)" style="fill: #293b4a"></path><path d="M723.48,419.18h-4v4h4Z" transform="translate(-270.84 -419.18)" style="fill: #293b4a"></path><path d="M755.53,419.18h-4v4h4Z" transform="translate(-270.84 -419.18)" style="fill: #293b4a"></path><path d="M787.58,419.18h-4v4h4Z" transform="translate(-270.84 -419.18)" style="fill: #293b4a"></path><path d="M819.62,419.18h-4v4h4Z" transform="translate(-270.84 -419.18)" style="fill: #293b4a"></path><path d="M851.68,419.18h-4v4h4Z" transform="translate(-270.84 -419.18)" style="fill: #293b4a"></path><path d="M883.73,419.18h-4v4h4Z" transform="translate(-270.84 -419.18)" style="fill: #293b4a"></path><path d="M915.78,419.18h-4v4h4Z" transform="translate(-270.84 -419.18)" style="fill: #293b4a"></path><path d="M274.85,771.73h-4v4h4Z" transform="translate(-270.84 -419.18)" style="fill: #293b4a"></path><path d="M306.9,771.73h-4v4h4Z" transform="translate(-270.84 -419.18)" style="fill: #293b4a"></path><path d="M339,771.73h-4v4h4Z" transform="translate(-270.84 -419.18)" style="fill: #293b4a"></path><path d="M371,771.73h-4v4h4Z" transform="translate(-270.84 -419.18)" style="fill: #293b4a"></path><path d="M403,771.73h-4v4h4Z" transform="translate(-270.84 -419.18)" style="fill: #293b4a"></path><path d="M435.09,771.73h-4v4h4Z" transform="translate(-270.84 -419.18)" style="fill: #293b4a"></path><path d="M467.15,771.73h-4v4h4Z" transform="translate(-270.84 -419.18)" style="fill: #293b4a"></path><path d="M499.2,771.73h-4v4h4Z" transform="translate(-270.84 -419.18)" style="fill: #293b4a"></path><path d="M531.25,771.73h-4v4h4Z" transform="translate(-270.84 -419.18)" style="fill: #293b4a"></path><path d="M274.85,739.68h-4v4h4Z" transform="translate(-270.84 -419.18)" style="fill: #293b4a"></path><path d="M306.9,739.68h-4v4h4Z" transform="translate(-270.84 -419.18)" style="fill: #293b4a"></path><path d="M339,739.68h-4v4h4Z" transform="translate(-270.84 -419.18)" style="fill: #293b4a"></path><path d="M371,739.68h-4v4h4Z" transform="translate(-270.84 -419.18)" style="fill: #293b4a"></path><path d="M403,739.68h-4v4h4Z" transform="translate(-270.84 -419.18)" style="fill: #293b4a"></path><path d="M435.09,739.68h-4v4h4Z" transform="translate(-270.84 -419.18)" style="fill: #293b4a"></path><path d="M467.15,739.68h-4v4h4Z" transform="translate(-270.84 -419.18)" style="fill: #293b4a"></path><path d="M499.2,739.68h-4v4h4Z" transform="translate(-270.84 -419.18)" style="fill: #293b4a"></path><path d="M531.25,739.68h-4v4h4Z" transform="translate(-270.84 -419.18)" style="fill: #293b4a"></path><path d="M274.85,707.63h-4v4h4Z" transform="translate(-270.84 -419.18)" style="fill: #293b4a"></path><path d="M306.9,707.63h-4v4h4Z" transform="translate(-270.84 -419.18)" style="fill: #293b4a"></path><path d="M339,707.63h-4v4h4Z" transform="translate(-270.84 -419.18)" style="fill: #293b4a"></path><path d="M371,707.63h-4v4h4Z" transform="translate(-270.84 -419.18)" style="fill: #293b4a"></path><path d="M403,707.63h-4v4h4Z" transform="translate(-270.84 -419.18)" style="fill: #293b4a"></path><path d="M435.09,707.63h-4v4h4Z" transform="translate(-270.84 -419.18)" style="fill: #293b4a"></path><path d="M467.15,707.63h-4v4h4Z" transform="translate(-270.84 -419.18)" style="fill: #293b4a"></path><path d="M499.2,707.63h-4v4h4Z" transform="translate(-270.84 -419.18)" style="fill: #293b4a"></path><path d="M531.25,707.63h-4v4h4Z" transform="translate(-270.84 -419.18)" style="fill: #293b4a"></path><path d="M274.85,675.59h-4v4h4Z" transform="translate(-270.84 -419.18)" style="fill: #293b4a"></path><path d="M306.9,675.59h-4v4h4Z" transform="translate(-270.84 -419.18)" style="fill: #293b4a"></path><path d="M339,675.59h-4v4h4Z" transform="translate(-270.84 -419.18)" style="fill: #293b4a"></path><path d="M371,675.59h-4v4h4Z" transform="translate(-270.84 -419.18)" style="fill: #293b4a"></path><path d="M403,675.59h-4v4h4Z" transform="translate(-270.84 -419.18)" style="fill: #293b4a"></path><path d="M435.09,675.59h-4v4h4Z" transform="translate(-270.84 -419.18)" style="fill: #293b4a"></path><path d="M467.15,675.59h-4v4h4Z" transform="translate(-270.84 -419.18)" style="fill: #293b4a"></path><path d="M499.2,675.59h-4v4h4Z" transform="translate(-270.84 -419.18)" style="fill: #293b4a"></path><path d="M531.25,675.59h-4v4h4Z" transform="translate(-270.84 -419.18)" style="fill: #293b4a"></path><path d="M274.85,643.53h-4v4h4Z" transform="translate(-270.84 -419.18)" style="fill: #293b4a"></path><path d="M306.9,643.53h-4v4h4Z" transform="translate(-270.84 -419.18)" style="fill: #293b4a"></path><path d="M339,643.53h-4v4h4Z" transform="translate(-270.84 -419.18)" style="fill: #293b4a"></path><path d="M371,643.53h-4v4h4Z" transform="translate(-270.84 -419.18)" style="fill: #293b4a"></path><path d="M403,643.53h-4v4h4Z" transform="translate(-270.84 -419.18)" style="fill: #293b4a"></path><path d="M435.09,643.53h-4v4h4Z" transform="translate(-270.84 -419.18)" style="fill: #293b4a"></path><path d="M467.15,643.53h-4v4h4Z" transform="translate(-270.84 -419.18)" style="fill: #293b4a"></path><path d="M499.2,643.53h-4v4h4Z" transform="translate(-270.84 -419.18)" style="fill: #293b4a"></path><path d="M531.25,643.53h-4v4h4Z" transform="translate(-270.84 -419.18)" style="fill: #293b4a"></path><path d="M274.85,611.48h-4v4h4Z" transform="translate(-270.84 -419.18)" style="fill: #293b4a"></path><path d="M306.9,611.48h-4v4h4Z" transform="translate(-270.84 -419.18)" style="fill: #293b4a"></path><path d="M339,611.48h-4v4h4Z" transform="translate(-270.84 -419.18)" style="fill: #293b4a"></path><path d="M371,611.48h-4v4h4Z" transform="translate(-270.84 -419.18)" style="fill: #293b4a"></path><path d="M403,611.48h-4v4h4Z" transform="translate(-270.84 -419.18)" style="fill: #293b4a"></path><path d="M435.09,611.48h-4v4h4Z" transform="translate(-270.84 -419.18)" style="fill: #293b4a"></path><path d="M467.15,611.48h-4v4h4Z" transform="translate(-270.84 -419.18)" style="fill: #293b4a"></path><path d="M499.2,611.48h-4v4h4Z" transform="translate(-270.84 -419.18)" style="fill: #293b4a"></path><path d="M531.25,611.48h-4v4h4Z" transform="translate(-270.84 -419.18)" style="fill: #293b4a"></path><path d="M563.3,771.73h-4v4h4Z" transform="translate(-270.84 -419.18)" style="fill: #293b4a"></path><path d="M595.35,771.73h-4v4h4Z" transform="translate(-270.84 -419.18)" style="fill: #293b4a"></path><path d="M627.4,771.73h-4v4h4Z" transform="translate(-270.84 -419.18)" style="fill: #293b4a"></path><path d="M659.45,771.73h-4v4h4Z" transform="translate(-270.84 -419.18)" style="fill: #293b4a"></path><path d="M691.5,771.73h-4v4h4Z" transform="translate(-270.84 -419.18)" style="fill: #293b4a"></path><path d="M563.3,739.68h-4v4h4Z" transform="translate(-270.84 -419.18)" style="fill: #293b4a"></path><path d="M595.35,739.68h-4v4h4Z" transform="translate(-270.84 -419.18)" style="fill: #293b4a"></path><path d="M627.4,739.68h-4v4h4Z" transform="translate(-270.84 -419.18)" style="fill: #293b4a"></path><path d="M659.45,739.68h-4v4h4Z" transform="translate(-270.84 -419.18)" style="fill: #293b4a"></path><path d="M691.5,739.68h-4v4h4Z" transform="translate(-270.84 -419.18)" style="fill: #293b4a"></path><path d="M563.3,707.63h-4v4h4Z" transform="translate(-270.84 -419.18)" style="fill: #293b4a"></path><path d="M595.35,707.63h-4v4h4Z" transform="translate(-270.84 -419.18)" style="fill: #293b4a"></path><path d="M627.4,707.63h-4v4h4Z" transform="translate(-270.84 -419.18)" style="fill: #293b4a"></path><path d="M659.45,707.63h-4v4h4Z" transform="translate(-270.84 -419.18)" style="fill: #293b4a"></path><path d="M691.5,707.63h-4v4h4Z" transform="translate(-270.84 -419.18)" style="fill: #293b4a"></path><path d="M563.3,675.59h-4v4h4Z" transform="translate(-270.84 -419.18)" style="fill: #293b4a"></path><path d="M595.35,675.59h-4v4h4Z" transform="translate(-270.84 -419.18)" style="fill: #293b4a"></path><path d="M627.4,675.59h-4v4h4Z" transform="translate(-270.84 -419.18)" style="fill: #293b4a"></path><path d="M659.45,675.59h-4v4h4Z" transform="translate(-270.84 -419.18)" style="fill: #293b4a"></path><path d="M691.5,675.59h-4v4h4Z" transform="translate(-270.84 -419.18)" style="fill: #293b4a"></path><path d="M563.3,643.53h-4v4h4Z" transform="translate(-270.84 -419.18)" style="fill: #293b4a"></path><path d="M595.35,643.53h-4v4h4Z" transform="translate(-270.84 -419.18)" style="fill: #293b4a"></path><path d="M627.4,643.53h-4v4h4Z" transform="translate(-270.84 -419.18)" style="fill: #293b4a"></path><path d="M659.45,643.53h-4v4h4Z" transform="translate(-270.84 -419.18)" style="fill: #293b4a"></path><path d="M691.5,643.53h-4v4h4Z" transform="translate(-270.84 -419.18)" style="fill: #293b4a"></path><path d="M563.3,611.48h-4v4h4Z" transform="translate(-270.84 -419.18)" style="fill: #293b4a"></path><path d="M595.35,611.48h-4v4h4Z" transform="translate(-270.84 -419.18)" style="fill: #293b4a"></path><path d="M627.4,611.48h-4v4h4Z" transform="translate(-270.84 -419.18)" style="fill: #293b4a"></path><path d="M659.45,611.48h-4v4h4Z" transform="translate(-270.84 -419.18)" style="fill: #293b4a"></path><path d="M691.5,611.48h-4v4h4Z" transform="translate(-270.84 -419.18)" style="fill: #293b4a"></path><path d="M274.85,579.43h-4v4h4Z" transform="translate(-270.84 -419.18)" style="fill: #293b4a"></path><path d="M306.9,579.43h-4v4h4Z" transform="translate(-270.84 -419.18)" style="fill: #293b4a"></path><path d="M339,579.43h-4v4h4Z" transform="translate(-270.84 -419.18)" style="fill: #293b4a"></path><path d="M371,579.43h-4v4h4Z" transform="translate(-270.84 -419.18)" style="fill: #293b4a"></path><path d="M403,579.43h-4v4h4Z" transform="translate(-270.84 -419.18)" style="fill: #293b4a"></path><path d="M435.09,579.43h-4v4h4Z" transform="translate(-270.84 -419.18)" style="fill: #293b4a"></path><path d="M467.15,579.43h-4v4h4Z" transform="translate(-270.84 -419.18)" style="fill: #293b4a"></path><path d="M499.2,579.43h-4v4h4Z" transform="translate(-270.84 -419.18)" style="fill: #293b4a"></path><path d="M531.25,579.43h-4v4h4Z" transform="translate(-270.84 -419.18)" style="fill: #293b4a"></path><path d="M274.85,547.38h-4v4h4Z" transform="translate(-270.84 -419.18)" style="fill: #293b4a"></path><path d="M306.9,547.38h-4v4h4Z" transform="translate(-270.84 -419.18)" style="fill: #293b4a"></path><path d="M339,547.38h-4v4h4Z" transform="translate(-270.84 -419.18)" style="fill: #293b4a"></path><path d="M371,547.38h-4v4h4Z" transform="translate(-270.84 -419.18)" style="fill: #293b4a"></path><path d="M403,547.38h-4v4h4Z" transform="translate(-270.84 -419.18)" style="fill: #293b4a"></path><path d="M435.09,547.38h-4v4h4Z" transform="translate(-270.84 -419.18)" style="fill: #293b4a"></path><path d="M467.15,547.38h-4v4h4Z" transform="translate(-270.84 -419.18)" style="fill: #293b4a"></path><path d="M499.2,547.38h-4v4h4Z" transform="translate(-270.84 -419.18)" style="fill: #293b4a"></path><path d="M531.25,547.38h-4v4h4Z" transform="translate(-270.84 -419.18)" style="fill: #293b4a"></path><path d="M274.85,515.33h-4v4h4Z" transform="translate(-270.84 -419.18)" style="fill: #293b4a"></path><path d="M306.9,515.33h-4v4h4Z" transform="translate(-270.84 -419.18)" style="fill: #293b4a"></path><path d="M339,515.33h-4v4h4Z" transform="translate(-270.84 -419.18)" style="fill: #293b4a"></path><path d="M371,515.33h-4v4h4Z" transform="translate(-270.84 -419.18)" style="fill: #293b4a"></path><path d="M403,515.33h-4v4h4Z" transform="translate(-270.84 -419.18)" style="fill: #293b4a"></path><path d="M435.09,515.33h-4v4h4Z" transform="translate(-270.84 -419.18)" style="fill: #293b4a"></path><path d="M467.15,515.33h-4v4h4Z" transform="translate(-270.84 -419.18)" style="fill: #293b4a"></path><path d="M499.2,515.33h-4v4h4Z" transform="translate(-270.84 -419.18)" style="fill: #293b4a"></path><path d="M531.25,515.33h-4v4h4Z" transform="translate(-270.84 -419.18)" style="fill: #293b4a"></path><path d="M274.85,483.28h-4v4h4Z" transform="translate(-270.84 -419.18)" style="fill: #293b4a"></path><path d="M306.9,483.28h-4v4h4Z" transform="translate(-270.84 -419.18)" style="fill: #293b4a"></path><path d="M339,483.28h-4v4h4Z" transform="translate(-270.84 -419.18)" style="fill: #293b4a"></path><path d="M371,483.28h-4v4h4Z" transform="translate(-270.84 -419.18)" style="fill: #293b4a"></path><path d="M403,483.28h-4v4h4Z" transform="translate(-270.84 -419.18)" style="fill: #293b4a"></path><path d="M435.09,483.28h-4v4h4Z" transform="translate(-270.84 -419.18)" style="fill: #293b4a"></path><path d="M467.15,483.28h-4v4h4Z" transform="translate(-270.84 -419.18)" style="fill: #293b4a"></path><path d="M499.2,483.28h-4v4h4Z" transform="translate(-270.84 -419.18)" style="fill: #293b4a"></path><path d="M531.25,483.28h-4v4h4Z" transform="translate(-270.84 -419.18)" style="fill: #293b4a"></path><path d="M274.85,451.23h-4v4h4Z" transform="translate(-270.84 -419.18)" style="fill: #293b4a"></path><path d="M306.9,451.23h-4v4h4Z" transform="translate(-270.84 -419.18)" style="fill: #293b4a"></path><path d="M339,451.23h-4v4h4Z" transform="translate(-270.84 -419.18)" style="fill: #293b4a"></path><path d="M371,451.23h-4v4h4Z" transform="translate(-270.84 -419.18)" style="fill: #293b4a"></path><path d="M403,451.23h-4v4h4Z" transform="translate(-270.84 -419.18)" style="fill: #293b4a"></path><path d="M435.09,451.23h-4v4h4Z" transform="translate(-270.84 -419.18)" style="fill: #293b4a"></path><path d="M467.15,451.23h-4v4h4Z" transform="translate(-270.84 -419.18)" style="fill: #293b4a"></path><path d="M499.2,451.23h-4v4h4Z" transform="translate(-270.84 -419.18)" style="fill: #293b4a"></path><path d="M531.25,451.23h-4v4h4Z" transform="translate(-270.84 -419.18)" style="fill: #293b4a"></path><path d="M274.85,419.18h-4v4h4Z" transform="translate(-270.84 -419.18)" style="fill: #293b4a"></path><path d="M306.9,419.18h-4v4h4Z" transform="translate(-270.84 -419.18)" style="fill: #293b4a"></path><path d="M339,419.18h-4v4h4Z" transform="translate(-270.84 -419.18)" style="fill: #293b4a"></path><path d="M371,419.18h-4v4h4Z" transform="translate(-270.84 -419.18)" style="fill: #293b4a"></path><path d="M403,419.18h-4v4h4Z" transform="translate(-270.84 -419.18)" style="fill: #293b4a"></path><path d="M435.09,419.18h-4v4h4Z" transform="translate(-270.84 -419.18)" style="fill: #293b4a"></path><path d="M467.15,419.18h-4v4h4Z" transform="translate(-270.84 -419.18)" style="fill: #293b4a"></path><path d="M499.2,419.18h-4v4h4Z" transform="translate(-270.84 -419.18)" style="fill: #293b4a"></path><path d="M531.25,419.18h-4v4h4Z" transform="translate(-270.84 -419.18)" style="fill: #293b4a"></path><path d="M563.3,579.43h-4v4h4Z" transform="translate(-270.84 -419.18)" style="fill: #293b4a"></path><path d="M595.35,579.43h-4v4h4Z" transform="translate(-270.84 -419.18)" style="fill: #293b4a"></path><path d="M627.4,579.43h-4v4h4Z" transform="translate(-270.84 -419.18)" style="fill: #293b4a"></path><path d="M659.45,579.43h-4v4h4Z" transform="translate(-270.84 -419.18)" style="fill: #293b4a"></path><path d="M691.5,579.43h-4v4h4Z" transform="translate(-270.84 -419.18)" style="fill: #293b4a"></path><path d="M563.3,547.38h-4v4h4Z" transform="translate(-270.84 -419.18)" style="fill: #293b4a"></path><path d="M595.35,547.38h-4v4h4Z" transform="translate(-270.84 -419.18)" style="fill: #293b4a"></path><path d="M627.4,547.38h-4v4h4Z" transform="translate(-270.84 -419.18)" style="fill: #293b4a"></path><path d="M659.45,547.38h-4v4h4Z" transform="translate(-270.84 -419.18)" style="fill: #293b4a"></path><path d="M691.5,547.38h-4v4h4Z" transform="translate(-270.84 -419.18)" style="fill: #293b4a"></path><path d="M563.3,515.33h-4v4h4Z" transform="translate(-270.84 -419.18)" style="fill: #293b4a"></path><path d="M595.35,515.33h-4v4h4Z" transform="translate(-270.84 -419.18)" style="fill: #293b4a"></path><path d="M627.4,515.33h-4v4h4Z" transform="translate(-270.84 -419.18)" style="fill: #293b4a"></path><path d="M659.45,515.33h-4v4h4Z" transform="translate(-270.84 -419.18)" style="fill: #293b4a"></path><path d="M691.5,515.33h-4v4h4Z" transform="translate(-270.84 -419.18)" style="fill: #293b4a"></path><path d="M563.3,483.28h-4v4h4Z" transform="translate(-270.84 -419.18)" style="fill: #293b4a"></path><path d="M595.35,483.28h-4v4h4Z" transform="translate(-270.84 -419.18)" style="fill: #293b4a"></path><path d="M627.4,483.28h-4v4h4Z" transform="translate(-270.84 -419.18)" style="fill: #293b4a"></path><path d="M659.45,483.28h-4v4h4Z" transform="translate(-270.84 -419.18)" style="fill: #293b4a"></path><path d="M691.5,483.28h-4v4h4Z" transform="translate(-270.84 -419.18)" style="fill: #293b4a"></path><path d="M563.3,451.23h-4v4h4Z" transform="translate(-270.84 -419.18)" style="fill: #293b4a"></path><path d="M595.35,451.23h-4v4h4Z" transform="translate(-270.84 -419.18)" style="fill: #293b4a"></path><path d="M627.4,451.23h-4v4h4Z" transform="translate(-270.84 -419.18)" style="fill: #293b4a"></path><path d="M659.45,451.23h-4v4h4Z" transform="translate(-270.84 -419.18)" style="fill: #293b4a"></path><path d="M691.5,451.23h-4v4h4Z" transform="translate(-270.84 -419.18)" style="fill: #293b4a"></path><path d="M563.3,419.18h-4v4h4Z" transform="translate(-270.84 -419.18)" style="fill: #293b4a"></path><path d="M595.35,419.18h-4v4h4Z" transform="translate(-270.84 -419.18)" style="fill: #293b4a"></path><path d="M627.4,419.18h-4v4h4Z" transform="translate(-270.84 -419.18)" style="fill: #293b4a"></path><path d="M659.45,419.18h-4v4h4Z" transform="translate(-270.84 -419.18)" style="fill: #293b4a"></path><path d="M691.5,419.18h-4v4h4Z" transform="translate(-270.84 -419.18)" style="fill: #293b4a"></path></g></g></svg>