<svg xmlns="http://www.w3.org/2000/svg" id="Layer_1" data-name="Layer 1" viewBox="0 0 78.61 83.87"><path d="M588.4,641.49a27.16,27.16,0,1,0-27.16-27.16A27.16,27.16,0,0,0,588.4,641.49Z" transform="translate(-560.54 -557.62)" style="fill: #19ad4a"></path><path d="M601.74,615.72c6.07,0,11-12.78,11-28.54s-4.93-28.55-11-28.55-11,12.78-11,28.55S595.67,615.72,601.74,615.72Z" transform="translate(-560.54 -557.62)" style="fill: none;stroke: #293b4a;stroke-miterlimit: 10;stroke-width: 2.03764009475708px"></path><path d="M595.83,579.24a8.43,8.43,0,0,1,0,16.86" transform="translate(-560.54 -557.62)" style="fill: none;stroke: #293b4a;stroke-miterlimit: 10;stroke-width: 2.03764009475708px"></path><path d="M561,596.32,599.19,615" transform="translate(-560.54 -557.62)" style="fill: none;stroke: #293b4a;stroke-miterlimit: 10;stroke-width: 2.03764009475708px"></path><path d="M599.87,559.05l-38.89,19" transform="translate(-560.54 -557.62)" style="fill: none;stroke: #293b4a;stroke-miterlimit: 10;stroke-width: 2.03764009475708px"></path><path d="M621.26,573.58l10.47-10.47" transform="translate(-560.54 -557.62)" style="fill: none;stroke: #293b4a;stroke-miterlimit: 10;stroke-width: 2.03764009475708px"></path><path d="M624.33,587.67h14.82" transform="translate(-560.54 -557.62)" style="fill: none;stroke: #293b4a;stroke-miterlimit: 10;stroke-width: 2.03764009475708px"></path><path d="M621.26,601.75l10.47,10.48" transform="translate(-560.54 -557.62)" style="fill: none;stroke: #293b4a;stroke-miterlimit: 10;stroke-width: 2.03764009475708px"></path></svg>