<svg xmlns="http://www.w3.org/2000/svg" id="Layer_1" data-name="Layer 1" viewBox="0 0 926 326.75"><rect y="148.75" width="926" height="178" rx="15" style="fill: #fff"></rect><path d="M663.36,628.82a70.49,70.49,0,1,0-70.48-70.48A70.48,70.48,0,0,0,663.36,628.82Z" transform="translate(-136.84 -436.18)" style="fill: #fff"></path><path d="M693.33,573.46c-23.61-12.61-47.2,12.6-70.81,0v-42c23.61,12.61,47.2-12.6,70.81,0Z" transform="translate(-136.84 -436.18)" style="fill: none;stroke: #293b4a;stroke-miterlimit: 10;stroke-width: 1.5px"></path><path d="M697.88,540.68a30.31,30.31,0,0,1,6.32,2.52v42c-23.61-12.6-47.22,12.6-70.81,0v-4.7" transform="translate(-136.84 -436.18)" style="fill: none;stroke: #293b4a;stroke-miterlimit: 10;stroke-width: 1.5px"></path><path d="M668.39,545.52a6.39,6.39,0,0,1-.42,7.69" transform="translate(-136.84 -436.18)" style="fill: none;stroke: #ff340c;stroke-miterlimit: 10;stroke-width: 1.5px"></path><path d="M657.88,551.69c-3.19-3.17-3.84-7.68-1.44-10.09s6.92-1.74,10.09,1.43" transform="translate(-136.84 -436.18)" style="fill: none;stroke: #ff340c;stroke-miterlimit: 10;stroke-width: 1.5px"></path><path d="M647.34,557.8a6.35,6.35,0,0,1,.46-7.53" transform="translate(-136.84 -436.18)" style="fill: none;stroke: #ff340c;stroke-miterlimit: 10;stroke-width: 1.5px"></path><path d="M657.88,551.69c3.17,3.19,3.84,7.69,1.42,10.09s-6.89,1.74-10.08-1.43" transform="translate(-136.84 -436.18)" style="fill: none;stroke: #ff340c;stroke-miterlimit: 10;stroke-width: 1.5px"></path><path d="M670,539.62,666.53,543l-21.59,21.6" transform="translate(-136.84 -436.18)" style="fill: none;stroke: #ff340c;stroke-miterlimit: 10;stroke-width: 1.5px"></path><path d="M828,680.71l2.36,6.83,3-2.95-1-7.48a101.21,101.21,0,0,0,11-9" transform="translate(-136.84 -436.18)" style="fill: none;stroke: #293b4a;stroke-miterlimit: 10;stroke-width: 1.5px"></path><path d="M838.52,663.36a102.38,102.38,0,0,0-9,11l-7.47-1-2.94,3,6.82,2.36" transform="translate(-136.84 -436.18)" style="fill: none;stroke: #293b4a;stroke-miterlimit: 10;stroke-width: 1.5px"></path><path d="M844.47,669.79l10.72,14.91,2.94-3-2.59-5.61.19-.19c1.23-1.21,1.67-2.73,1-3.4s-1.64-.33-2.67.4l-1.92-4c.15-.14.32-.27.5-.45,1.21-1.21,1.67-2.72,1-3.4s-1.92-.28-3,.66L849,662.26c6.56-6.91,9-11.33,7.69-12.54s-5.63,1.17-12.53,7.68l-3.55-1.63c.94-1.13,1.23-2.4.65-3s-2.19-.21-3.4,1c-.17.17-.3.35-.44.5l-4-1.92c.73-1,.93-2.13.41-2.67s-2.19-.21-3.4,1l-.2.19-5.6-2.59-3,2.93L836.69,662" transform="translate(-136.84 -436.18)" style="fill: none;stroke: #293b4a;stroke-miterlimit: 10;stroke-width: 1.5px"></path><path d="M826.89,657.06l-1,1" transform="translate(-136.84 -436.18)" style="fill: none;stroke: #293b4a;stroke-miterlimit: 10;stroke-width: 1.5px"></path><path d="M833.31,661.69l-1,1" transform="translate(-136.84 -436.18)" style="fill: none;stroke: #293b4a;stroke-miterlimit: 10;stroke-width: 1.5px"></path><path d="M849.51,679.78l-1,1" transform="translate(-136.84 -436.18)" style="fill: none;stroke: #293b4a;stroke-miterlimit: 10;stroke-width: 1.5px"></path><path d="M844.89,673.37l-1,1" transform="translate(-136.84 -436.18)" style="fill: none;stroke: #293b4a;stroke-miterlimit: 10;stroke-width: 1.5px"></path><path d="M840.19,661.69l-1.67,1.67" transform="translate(-136.84 -436.18)" style="fill: none;stroke: #293b4a;stroke-miterlimit: 10;stroke-width: 1.5px"></path><path d="M844.88,666.37l-1.67,1.68" transform="translate(-136.84 -436.18)" style="fill: none;stroke: #293b4a;stroke-miterlimit: 10;stroke-width: 1.5px"></path><path d="M829.07,677.52,825,681.59" transform="translate(-136.84 -436.18)" style="fill: none;stroke: #293b4a;stroke-miterlimit: 10;stroke-width: 1.5px"></path><path d="M854.27,653.62c.69-.81.81-1.44.48-1.77s-1-.21-1.75.5" transform="translate(-136.84 -436.18)" style="fill: none;stroke: #293b4a;stroke-miterlimit: 10;stroke-width: 1.5px"></path><path d="M465.76,636.5a37.63,37.63,0,1,0-37.63-37.63A37.64,37.64,0,0,0,465.76,636.5Z" transform="translate(-136.84 -436.18)" style="fill: #fff"></path><path d="M465.77,620.42a21.55,21.55,0,1,0-21.56-21.55A21.55,21.55,0,0,0,465.77,620.42Z" transform="translate(-136.84 -436.18)" style="fill: none;stroke: #293b4a;stroke-miterlimit: 10;stroke-width: 1.5px"></path><path d="M452.53,598.85a15,15,0,0,1,26.47,0,14,14,0,0,1-13.23,8,14.88,14.88,0,0,1-10.92-4.72" transform="translate(-136.84 -436.18)" style="fill: none;stroke: #4e6fff;stroke-miterlimit: 10;stroke-width: 1.5px"></path><path d="M468.47,600.52a3.1,3.1,0,0,1-1.38,1.25,3.15,3.15,0,0,1-1.84.27,3.23,3.23,0,0,1-1.69-.79,3.21,3.21,0,0,1,.26-5,3.17,3.17,0,0,1,1.75-.62,3.28,3.28,0,0,1,1.81.45,3.46,3.46,0,0,1,.94.85" transform="translate(-136.84 -436.18)" style="fill: none;stroke: #4e6fff;stroke-miterlimit: 10;stroke-width: 1.5px"></path><path d="M537.3,609a43.94,43.94,0,1,0-43.93-43.93A43.93,43.93,0,0,0,537.3,609Z" transform="translate(-136.84 -436.18)" style="fill: #fff"></path><path d="M555.11,583.62l-26.68,9-14.82-44.05,32.57-10.95,14.81,44" transform="translate(-136.84 -436.18)" style="fill: none;stroke: #293b4a;stroke-miterlimit: 10;stroke-width: 1.5px"></path><path d="M521.82,554.61l21.48-7.22" transform="translate(-136.84 -436.18)" style="fill: none;stroke: #19ad4a;stroke-miterlimit: 10;stroke-width: 1.5px"></path><path d="M549.65,569.72a11,11,0,1,0-11.6,10.34A11,11,0,0,0,549.65,569.72Z" transform="translate(-136.84 -436.18)" style="fill: none;stroke: #19ad4a;stroke-miterlimit: 10;stroke-width: 1.5px"></path><path d="M542.18,579.28c2.15-.72,2.33-6,.39-11.72s-5.24-9.83-7.4-9.11-2.32,6-.39,11.73S540,580,542.18,579.28Z" transform="translate(-136.84 -436.18)" style="fill: none;stroke: #19ad4a;stroke-miterlimit: 10;stroke-width: 1.5px"></path><path d="M528.22,572.55l20.82-7" transform="translate(-136.84 -436.18)" style="fill: none;stroke: #19ad4a;stroke-miterlimit: 10;stroke-width: 1.5px"></path><path d="M649.63,670.58l-3.69.37-5,.5-22.73,2.23,15.41,18.76L614.82,677l-2.23,22.72-.48,5-.37,3.68-.36-3.68-.5-5L608.65,677l-18.77,15.4,15.41-18.76-22.73-2.23-5-.5-3.69-.37,3.69-.36,5-.48,22.73-2.23-15.41-18.77,18.77,15.41,2.23-22.73.5-5,.36-3.71.37,3.71.48,5,2.23,22.73,18.77-15.41-15.41,18.77,22.73,2.23,5,.48Z" transform="translate(-136.84 -436.18)" style="fill: none;stroke: #fc0;stroke-miterlimit: 10;stroke-width: 1.5px"></path><path d="M611.38,636.39h.73" transform="translate(-136.84 -436.18)" style="fill: none;stroke: #293b4a;stroke-miterlimit: 10;stroke-width: 1.5px"></path><path d="M645.57,675.67a34.22,34.22,0,0,1-28.81,28.82" transform="translate(-136.84 -436.18)" style="fill: none;stroke: #293b4a;stroke-miterlimit: 10;stroke-width: 1.5px"></path><path d="M578,675.67a34.22,34.22,0,0,0,28.81,28.82" transform="translate(-136.84 -436.18)" style="fill: none;stroke: #293b4a;stroke-miterlimit: 10;stroke-width: 1.5px"></path><path d="M578,665.49a34.22,34.22,0,0,1,28.81-28.81" transform="translate(-136.84 -436.18)" style="fill: none;stroke: #293b4a;stroke-miterlimit: 10;stroke-width: 1.5px"></path><path d="M577.53,671v-.73" transform="translate(-136.84 -436.18)" style="fill: none;stroke: #293b4a;stroke-miterlimit: 10;stroke-width: 1.5px"></path><path d="M611.38,704.79h.73" transform="translate(-136.84 -436.18)" style="fill: none;stroke: #293b4a;stroke-miterlimit: 10;stroke-width: 1.5px"></path><path d="M616.83,636.75a34.21,34.21,0,0,1,28.82,28.82" transform="translate(-136.84 -436.18)" style="fill: none;stroke: #293b4a;stroke-miterlimit: 10;stroke-width: 1.5px"></path><path d="M611.74,713.15a42.57,42.57,0,1,0-42.57-42.57A42.57,42.57,0,0,0,611.74,713.15Z" transform="translate(-136.84 -436.18)" style="fill: none;stroke: #293b4a;stroke-miterlimit: 10;stroke-width: 1.5px"></path><path d="M611.74,627.63a9.86,9.86,0,1,0-9.85-9.86A9.86,9.86,0,0,0,611.74,627.63Z" transform="translate(-136.84 -436.18)" style="fill: none;stroke: #293b4a;stroke-miterlimit: 10;stroke-width: 1.5px"></path><path d="M611.74,622.38a4.61,4.61,0,1,0-4.61-4.61A4.6,4.6,0,0,0,611.74,622.38Z" transform="translate(-136.84 -436.18)" style="fill: none;stroke: #293b4a;stroke-miterlimit: 10;stroke-width: 1.5px"></path><path d="M727.64,665.6V620.31a44,44,0,1,0,44.05,44H737.51" transform="translate(-136.84 -436.18)" style="fill: none;stroke: #293b4a;stroke-miterlimit: 10;stroke-width: 1.5px"></path><path d="M738.76,652.31l25-25" transform="translate(-136.84 -436.18)" style="fill: none;stroke: #5273fd;stroke-miterlimit: 10;stroke-width: 1.5px"></path><path d="M756.34,649.11A6,6,0,1,1,758,653.2" transform="translate(-136.84 -436.18)" style="fill: none;stroke: #5273fd;stroke-miterlimit: 10;stroke-width: 1.5px"></path><path d="M745.91,633.32a5.82,5.82,0,0,1-3.19.88,6,6,0,0,1-5.48-3.76A6.11,6.11,0,0,1,737,627a6,6,0,0,1,11.82,1.34" transform="translate(-136.84 -436.18)" style="fill: none;stroke: #5273fd;stroke-miterlimit: 10;stroke-width: 1.5px"></path><path d="M443.62,702.24A27.16,27.16,0,0,0,473,660" transform="translate(-136.84 -436.18)" style="fill: #fff"></path><path d="M443.62,702.24A27.16,27.16,0,0,0,473,660" transform="translate(-136.84 -436.18)" style="fill: none;stroke: #293b4a;stroke-miterlimit: 10;stroke-width: 1.5px"></path><path d="M326.87,604.08c-4.45,37.28-12.77,50.86-27.53,65.1S322.4,687,322.4,687a48.9,48.9,0,0,0,50.71,47.21L379,734a7.68,7.68,0,0,1,7.68,7.69" transform="translate(-136.84 -436.18)" style="fill: #fff"></path><path d="M326.87,604.08c-4.45,37.28-12.77,50.86-27.53,65.1S322.4,687,322.4,687a48.9,48.9,0,0,0,50.71,47.21L379,734a7.68,7.68,0,0,1,7.68,7.69" transform="translate(-136.84 -436.18)" style="fill: none;stroke: #293b4a;stroke-miterlimit: 10;stroke-width: 1.5px"></path><path d="M377.19,691.43s-8.2,19.05-33.54,19Z" transform="translate(-136.84 -436.18)" style="fill: #fff"></path><path d="M377.19,691.43s-8.2,19.05-33.54,19" transform="translate(-136.84 -436.18)" style="fill: none;stroke: #293b4a;stroke-miterlimit: 10;stroke-width: 1.5px"></path><path d="M355.53,655.75a6.73,6.73,0,1,0-6.72-6.72A6.72,6.72,0,0,0,355.53,655.75Z" transform="translate(-136.84 -436.18)" style="fill: #fff;stroke: #293b4a;stroke-miterlimit: 10;stroke-width: 1.5px"></path><path d="M372.15,642.31c-2.67-8.55-10.54-23.54-38.84-6.56Z" transform="translate(-136.84 -436.18)" style="fill: #fff"></path><path d="M372.15,642.31c-2.67-8.55-10.54-23.54-38.84-6.56" transform="translate(-136.84 -436.18)" style="fill: none;stroke: #293b4a;stroke-miterlimit: 10;stroke-width: 1.5px"></path><path d="M500.21,635.14a25.81,25.81,0,0,1-25.8,25.8" transform="translate(-136.84 -436.18)" style="fill: #fff"></path><path d="M500.21,635.14a25.81,25.81,0,0,1-25.8,25.8" transform="translate(-136.84 -436.18)" style="fill: none;stroke: #293b4a;stroke-miterlimit: 10;stroke-width: 1.5px"></path><path d="M398,618.79a25.74,25.74,0,0,1-24.05-16.56,25.73,25.73,0,0,1-26-1.92A25.78,25.78,0,1,1,327.22,554a25.76,25.76,0,0,1,48-8.89,25.79,25.79,0,0,1,42.26-4.27,25.78,25.78,0,0,1,43.55,26.34" transform="translate(-136.84 -436.18)" style="fill: #fff"></path><path d="M398,618.79a25.74,25.74,0,0,1-24.05-16.56,25.73,25.73,0,0,1-26-1.92A25.78,25.78,0,1,1,327.22,554a25.76,25.76,0,0,1,48-8.89,25.79,25.79,0,0,1,42.26-4.27,25.78,25.78,0,0,1,43.55,26.34" transform="translate(-136.84 -436.18)" style="fill: none;stroke: #293b4a;stroke-miterlimit: 10;stroke-width: 1.5px"></path><path d="M412.92,615.72c37.21-10,50.1,38,14,40Z" transform="translate(-136.84 -436.18)" style="fill: #fff"></path><path d="M412.92,615.72c37.21-10,50.1,38,14,40" transform="translate(-136.84 -436.18)" style="fill: none;stroke: #293b4a;stroke-miterlimit: 10;stroke-width: 1.5px"></path><path d="M517.27,659.75a11.3,11.3,0,1,0-11.3-11.3A11.29,11.29,0,0,0,517.27,659.75Z" transform="translate(-136.84 -436.18)" style="fill: #fff;stroke: #293b4a;stroke-miterlimit: 10;stroke-width: 1.5px"></path><path d="M801.9,666.66a38.29,38.29,0,0,1,38.29-38.28" transform="translate(-136.84 -436.18)" style="fill: none;stroke: #293b4a;stroke-miterlimit: 10;stroke-width: 1.5px"></path><path d="M878.47,666.66A38.27,38.27,0,0,1,840.19,705" transform="translate(-136.84 -436.18)" style="fill: none;stroke: #293b4a;stroke-miterlimit: 10;stroke-width: 1.5px"></path><path d="M599.49,587a70.11,70.11,0,1,1,126.36,2.86" transform="translate(-136.84 -436.18)" style="fill: none;stroke: #293b4a;stroke-miterlimit: 10;stroke-width: 1.5px"></path><path d="M498.92,585.63a44.3,44.3,0,1,1,79.76-3.55" transform="translate(-136.84 -436.18)" style="fill: none;stroke: #293b4a;stroke-miterlimit: 10;stroke-width: 1.5px"></path><g><path d="M829.07,588.48a75.78,75.78,0,1,0-75.78-75.77A75.77,75.77,0,0,0,829.07,588.48Z" transform="translate(-136.84 -436.18)" style="fill: #fff"></path><path d="M829.07,588.48a75.78,75.78,0,1,0-75.78-75.77A75.77,75.77,0,0,0,829.07,588.48Z" transform="translate(-136.84 -436.18)" style="fill: none;stroke: #293b4a;stroke-miterlimit: 10;stroke-width: 1.5px"></path><path d="M822.25,475.18l-6.62,10.76H832.2l-33.59,27,11.07-24.69h-12.3l11.94-19h16.59" transform="translate(-136.84 -436.18)" style="fill: none;stroke: #fc0;stroke-miterlimit: 10;stroke-width: 1.5px"></path><path d="M802.41,557.12V530.9h10.18" transform="translate(-136.84 -436.18)" style="fill: none;stroke: #293b4a;stroke-miterlimit: 10;stroke-width: 1.5px"></path><path d="M816.79,557.12v-37H827" transform="translate(-136.84 -436.18)" style="fill: none;stroke: #293b4a;stroke-miterlimit: 10;stroke-width: 1.5px"></path><path d="M831.15,557.12V498h10.19" transform="translate(-136.84 -436.18)" style="fill: none;stroke: #293b4a;stroke-miterlimit: 10;stroke-width: 1.5px"></path><path d="M845.52,557.12V468.27h13v88.85" transform="translate(-136.84 -436.18)" style="fill: none;stroke: #293b4a;stroke-miterlimit: 10;stroke-width: 1.5px"></path><path d="M794.33,557.12h72.81" transform="translate(-136.84 -436.18)" style="fill: none;stroke: #293b4a;stroke-miterlimit: 10;stroke-width: 1.5px"></path></g></svg>