<svg xmlns="http://www.w3.org/2000/svg" id="Layer_1" data-name="Layer 1" viewBox="0 0 79.34 71.41"><path d="M587.61,627a27.44,27.44,0,1,0-27.44-27.43A27.43,27.43,0,0,0,587.61,627Z" transform="translate(-560.17 -563.85)" style="fill: #fc0"></path><path d="M613.1,599.56l-9.31-9.31-9.31,9.31,9.31,9.3Z" transform="translate(-560.17 -563.85)" style="fill: none;stroke: #2a3b4b;stroke-miterlimit: 10;stroke-width: 2px"></path><path d="M603.8,579.78V563.85" transform="translate(-560.17 -563.85)" style="fill: none;stroke: #2a3b4b;stroke-miterlimit: 10;stroke-width: 2px"></path><path d="M603.8,635.26V619.32" transform="translate(-560.17 -563.85)" style="fill: none;stroke: #2a3b4b;stroke-miterlimit: 10;stroke-width: 2px"></path><path d="M589.82,585.58l-7.37-7.37" transform="translate(-560.17 -563.85)" style="fill: none;stroke: #2a3b4b;stroke-miterlimit: 10;stroke-width: 2px"></path><path d="M625.15,620.91l-7.37-7.37" transform="translate(-560.17 -563.85)" style="fill: none;stroke: #2a3b4b;stroke-miterlimit: 10;stroke-width: 2px"></path><path d="M584,599.56H560.17" transform="translate(-560.17 -563.85)" style="fill: none;stroke: #2a3b4b;stroke-miterlimit: 10;stroke-width: 2px"></path><path d="M639.51,599.56h-16" transform="translate(-560.17 -563.85)" style="fill: none;stroke: #2a3b4b;stroke-miterlimit: 10;stroke-width: 2px"></path><path d="M589.82,613.54l-7.37,7.37" transform="translate(-560.17 -563.85)" style="fill: none;stroke: #2a3b4b;stroke-miterlimit: 10;stroke-width: 2px"></path><path d="M625.11,578.25l-7.33,7.33" transform="translate(-560.17 -563.85)" style="fill: none;stroke: #2a3b4b;stroke-miterlimit: 10;stroke-width: 2px"></path></svg>