<svg xmlns="http://www.w3.org/2000/svg" id="Layer_1" data-name="Layer 1" viewBox="0 0 341.86 338.21"><path d="M674.41,419.64a24.72,24.72,0,1,0-24.72-24.72A24.72,24.72,0,0,0,674.41,419.64Z" transform="translate(-367.43 -358.54)" style="fill: #19ad4a"></path><path d="M647.75,422.66l49.58-50.84" transform="translate(-367.43 -358.54)" style="fill: none;stroke: #2a3b4b;stroke-miterlimit: 10;stroke-width: 2px"></path><path d="M678.58,362.64l28-.1.07,27.92" transform="translate(-367.43 -358.54)" style="fill: none;stroke: #2a3b4b;stroke-miterlimit: 10;stroke-width: 2px"></path><path d="M367.43,695.54V625.21h45.91v10.35h-33v19.29h30v10h-30v20.29h33v10.35Zm57.78,0V623.21h12.86v72.33Zm50.2,1.2a27.25,27.25,0,0,1-13.36-3.21,23.36,23.36,0,0,1-9.14-9A26.79,26.79,0,0,1,449.6,671a28.84,28.84,0,0,1,3.21-13.76,23.83,23.83,0,0,1,9-9.34,26.51,26.51,0,0,1,13.66-3.42,25.59,25.59,0,0,1,13,3.22,22.58,22.58,0,0,1,8.74,8.84,24,24,0,0,1,3.22,12.35c0,.74,0,1.51-.1,2.31s0,1.65-.1,2.52H462.35a12.5,12.5,0,0,0,13,12.45,11.74,11.74,0,0,0,6.53-1.7,11.12,11.12,0,0,0,4-4.63h13.06a23.78,23.78,0,0,1-4.72,8.64,22.54,22.54,0,0,1-8,6A25.09,25.09,0,0,1,475.41,696.74Zm.1-41.79a13.5,13.5,0,0,0-8.33,2.71q-3.62,2.61-4.62,8h24.81a10.87,10.87,0,0,0-3.62-7.84A12,12,0,0,0,475.51,655Zm47.23,40.59-18.28-49.83h13.46l12.66,37.67,12.66-37.67H556.7l-18.39,49.83Zm56.21,1.2a24.05,24.05,0,0,1-10.55-2,14.1,14.1,0,0,1-8.14-13.06,13.7,13.7,0,0,1,5.43-11.25q5.41-4.32,16.27-4.32h12.66v-1.2q0-5.13-2.92-7.54a10.94,10.94,0,0,0-7.23-2.41,12.2,12.2,0,0,0-6.83,1.91,7.83,7.83,0,0,0-3.62,5.42H561.47a17.76,17.76,0,0,1,3.61-9.44,20.58,20.58,0,0,1,8.24-6.13,27.71,27.71,0,0,1,11.25-2.21q10.65,0,16.78,5.33t6.13,15.07v30.64h-11l-1.21-8a18.37,18.37,0,0,1-6.23,6.63A18,18,0,0,1,579,696.74Zm2.91-10q5.52,0,8.54-3.62a17.42,17.42,0,0,0,3.92-8.94h-11c-3.42,0-5.86.63-7.34,1.91a5.61,5.61,0,0,0-2.21,4.52,5.27,5.27,0,0,0,2.21,4.52A9.72,9.72,0,0,0,581.86,686.7Zm59.4,8.84q-7.83,0-12.56-3.82T624,678.16v-21.7h-8.54V645.71H624l1.51-13.36h11.35v13.36H650.3v10.75H636.84v21.8q0,3.62,1.51,5t5.42,1.31H650v10.95Zm43,1.2a27.22,27.22,0,0,1-13.36-3.21,23.3,23.3,0,0,1-9.14-9A26.79,26.79,0,0,1,658.46,671a28.73,28.73,0,0,1,3.22-13.76,23.76,23.76,0,0,1,9-9.34,26.49,26.49,0,0,1,13.66-3.42,25.59,25.59,0,0,1,13,3.22,22.64,22.64,0,0,1,8.74,8.84,24.12,24.12,0,0,1,3.21,12.35c0,.74,0,1.51-.1,2.31s0,1.65-.1,2.52H671.22a12.5,12.5,0,0,0,13,12.45,11.76,11.76,0,0,0,6.53-1.7,11.12,11.12,0,0,0,4-4.63h13.06a23.8,23.8,0,0,1-4.73,8.64,22.6,22.6,0,0,1-8,6A25.13,25.13,0,0,1,684.28,696.74Zm.1-41.79a13.51,13.51,0,0,0-8.34,2.71q-3.62,2.61-4.62,8h24.81a10.86,10.86,0,0,0-3.61-7.84A12,12,0,0,0,684.38,655Z" transform="translate(-367.43 -358.54)" style="fill: #fff"></path><rect x="79.32" width="184.62" height="288.01" rx="7.57" style="fill: #19ad4a"></rect><rect x="92.45" y="13.95" width="158.43" height="100.99" rx="7.57" style="fill: #293b4a"></rect><path d="M512.37,503.14H468.12a1.93,1.93,0,1,0,0,3.85h44.25a1.93,1.93,0,0,0,0-3.85Z" transform="translate(-367.43 -358.54)" style="fill: #293b4a"></path><path d="M565.61,503.14H538.54a1.93,1.93,0,1,0,0,3.85h27.07a1.93,1.93,0,0,0,0-3.85Z" transform="translate(-367.43 -358.54)" style="fill: #293b4a"></path><path d="M487.83,527.53H467.88a1.68,1.68,0,1,0,0,3.36h19.95a1.68,1.68,0,1,0,0-3.36Z" transform="translate(-367.43 -358.54)" style="fill: #f1f3f5"></path><path d="M487.83,549.27H467.88a1.68,1.68,0,1,0,0,3.36h19.95a1.68,1.68,0,1,0,0-3.36Z" transform="translate(-367.43 -358.54)" style="fill: #f1f3f5"></path><path d="M487.83,571H467.88a1.68,1.68,0,1,0,0,3.36h19.95a1.68,1.68,0,1,0,0-3.36Z" transform="translate(-367.43 -358.54)" style="fill: #f1f3f5"></path><path d="M487.83,592.73H467.88a1.68,1.68,0,1,0,0,3.36h19.95a1.68,1.68,0,1,0,0-3.36Z" transform="translate(-367.43 -358.54)" style="fill: #f1f3f5"></path><path d="M487.83,614.47H467.88a1.68,1.68,0,1,0,0,3.36h19.95a1.68,1.68,0,1,0,0-3.36Z" transform="translate(-367.43 -358.54)" style="fill: #f1f3f5"></path><path d="M585.17,527.53H538.3a1.68,1.68,0,1,0,0,3.36h46.87a1.68,1.68,0,0,0,0-3.36Z" transform="translate(-367.43 -358.54)" style="fill: #f1f3f5"></path><path d="M612.21,549.27H538.3a1.68,1.68,0,1,0,0,3.36h73.91a1.68,1.68,0,0,0,0-3.36Z" transform="translate(-367.43 -358.54)" style="fill: #f1f3f5"></path><path d="M601.51,571H538.3a1.68,1.68,0,1,0,0,3.36h63.21a1.68,1.68,0,1,0,0-3.36Z" transform="translate(-367.43 -358.54)" style="fill: #f1f3f5"></path><path d="M599.65,592.73H538.3a1.68,1.68,0,1,0,0,3.36h61.35a1.68,1.68,0,1,0,0-3.36Z" transform="translate(-367.43 -358.54)" style="fill: #f1f3f5"></path><path d="M596,614.47H538.3a1.68,1.68,0,1,0,0,3.36H596a1.68,1.68,0,0,0,0-3.36Z" transform="translate(-367.43 -358.54)" style="fill: #f1f3f5"></path><path d="M555.19,422.67,531.05,436.6V408.73Z" transform="translate(-367.43 -358.54)" style="fill: #19ad4a"></path></svg>