<svg xmlns="http://www.w3.org/2000/svg" id="Layer_1" data-name="Layer 1" viewBox="0 0 578.77 420.82"><path d="M837,311.21H335.69A24.64,24.64,0,0,0,311,335.83V707.4A24.64,24.64,0,0,0,335.69,732H837a24.65,24.65,0,0,0,24.66-24.63V335.83A24.64,24.64,0,0,0,837,311.21Z" transform="translate(-311.04 -311.21)" style="fill: #f1f3f5"></path><path d="M834,320.16H338.68a17.92,17.92,0,0,0-17.93,17.91v367.1a17.91,17.91,0,0,0,17.93,17.9H834a17.91,17.91,0,0,0,17.92-17.9V338.07A17.91,17.91,0,0,0,834,320.16Z" transform="translate(-311.04 -311.21)" style="fill: #fff"></path><path d="M794.27,343.78a4.78,4.78,0,1,0-4.78-4.78A4.78,4.78,0,0,0,794.27,343.78Z" transform="translate(-311.04 -311.21)" style="fill: #5273fd"></path><path d="M776.32,343.78a4.78,4.78,0,1,0-4.78-4.78A4.78,4.78,0,0,0,776.32,343.78Z" transform="translate(-311.04 -311.21)" style="fill: #ff340c"></path><path d="M830.16,343.78a4.78,4.78,0,1,0-4.79-4.78A4.78,4.78,0,0,0,830.16,343.78Z" transform="translate(-311.04 -311.21)" style="fill: #19ad4a"></path><path d="M812.21,343.78a4.78,4.78,0,1,0-4.78-4.78A4.78,4.78,0,0,0,812.21,343.78Z" transform="translate(-311.04 -311.21)" style="fill: #fc0"></path><path d="M368.73,442.14l5.31-14.5h3l5.31,14.51h-2.82l-1.16-3.35H372.7l-1.15,3.35Zm4.69-5.43h4.21l-2.12-6Z" transform="translate(-311.04 -311.21)" style="fill: #293b4a"></path><path d="M383.35,446.71V431.85h2.38l.29,1.48a5,5,0,0,1,1.31-1.21,3.89,3.89,0,0,1,2.13-.51,4.83,4.83,0,0,1,2.59.7,5,5,0,0,1,1.81,1.93,6.16,6.16,0,0,1,0,5.55,5.05,5.05,0,0,1-1.79,1.91,4.82,4.82,0,0,1-2.59.69,4.44,4.44,0,0,1-2-.43,3.64,3.64,0,0,1-1.41-1.23v6Zm5.54-6.64a3,3,0,0,0,1.14-.2,2.86,2.86,0,0,0,1-.65,3.09,3.09,0,0,0,.64-1,3.14,3.14,0,0,0,.19-1.18,3.18,3.18,0,0,0-.83-2.22,3.15,3.15,0,0,0-1-.64,2.93,2.93,0,0,0-1.13-.23,3,3,0,0,0-2.1.87,3.39,3.39,0,0,0,0,4.42,2.86,2.86,0,0,0,1,.65A3,3,0,0,0,388.89,440.07Z" transform="translate(-311.04 -311.21)" style="fill: #293b4a"></path><path d="M396.1,446.71V431.85h2.37l.29,1.48a4.91,4.91,0,0,1,1.32-1.21,3.85,3.85,0,0,1,2.13-.51,4.83,4.83,0,0,1,2.59.7,5.06,5.06,0,0,1,1.8,1.93,5.73,5.73,0,0,1,.66,2.78,5.58,5.58,0,0,1-.66,2.77,5.08,5.08,0,0,1-1.8,1.91,4.82,4.82,0,0,1-2.59.69,4.48,4.48,0,0,1-2-.43,3.72,3.72,0,0,1-1.41-1.23v6Zm5.55-6.64a2.74,2.74,0,0,0,1.13-.21,2.7,2.7,0,0,0,1-.64,3.09,3.09,0,0,0,.64-1,3.14,3.14,0,0,0,.19-1.18,2.87,2.87,0,0,0-1.8-2.86,2.93,2.93,0,0,0-1.13-.23,3,3,0,0,0-2.1.87,3.39,3.39,0,0,0,0,4.42,2.82,2.82,0,0,0,.95.65,3,3,0,0,0,1.14.2Z" transform="translate(-311.04 -311.21)" style="fill: #293b4a"></path><path d="M408.83,442.14V427.21h2.65v14.93Z" transform="translate(-311.04 -311.21)" style="fill: #293b4a"></path><path d="M414.84,430.26a1.71,1.71,0,0,1-1.19-.43,1.46,1.46,0,0,1-.35-.5,1.58,1.58,0,0,1-.12-.61,1.51,1.51,0,0,1,.11-.59,1.36,1.36,0,0,1,.36-.49,1.85,1.85,0,0,1,1.19-.43,1.83,1.83,0,0,1,1.19.43,1.25,1.25,0,0,1,.36.49,1.35,1.35,0,0,1,.11.59,1.41,1.41,0,0,1-.11.61,1.36,1.36,0,0,1-.36.5A1.71,1.71,0,0,1,414.84,430.26Zm-1.33,11.88V431.85h2.66v10.29Z" transform="translate(-311.04 -311.21)" style="fill: #293b4a"></path><path d="M423.18,442.39a5.51,5.51,0,0,1-2.78-.68,5,5,0,0,1-1.9-1.91,6,6,0,0,1,0-5.6,5.05,5.05,0,0,1,1.9-1.91,5.51,5.51,0,0,1,2.78-.68,5.33,5.33,0,0,1,3.32,1,4.6,4.6,0,0,1,1.73,2.84h-2.8a2.1,2.1,0,0,0-.82-1.16,2.63,2.63,0,0,0-1.73-.4,2.58,2.58,0,0,0-1.57.81,3.86,3.86,0,0,0-.77,2.31,3.81,3.81,0,0,0,.77,2.3,2.4,2.4,0,0,0,1.87.8,2.52,2.52,0,0,0,1.44-.41,2,2,0,0,0,.82-1.15h2.8a4.7,4.7,0,0,1-1.73,2.8A5.22,5.22,0,0,1,423.18,442.39Z" transform="translate(-311.04 -311.21)" style="fill: #293b4a"></path><path d="M433.36,442.39a4.64,4.64,0,0,1-2.17-.43,2.78,2.78,0,0,1-1.27-1.15,3,3,0,0,1-.42-1.55,2.87,2.87,0,0,1,.29-1.29,2.83,2.83,0,0,1,.83-1,5.51,5.51,0,0,1,3.37-.89h2.61v-.24a2.21,2.21,0,0,0-.11-.85,1.88,1.88,0,0,0-.47-.71,2.23,2.23,0,0,0-1.49-.49,2.5,2.5,0,0,0-1.41.38,1.63,1.63,0,0,0-.75,1.15h-2.6a3.58,3.58,0,0,1,.77-1.95,4.13,4.13,0,0,1,1.68-1.27,5.73,5.73,0,0,1,2.31-.45,5.05,5.05,0,0,1,3.45,1.1,3.77,3.77,0,0,1,1,1.41,3.81,3.81,0,0,1,.28,1.7v6.34H437l-.25-1.66a3.6,3.6,0,0,1-3.38,1.91Zm.58-2.07a2.14,2.14,0,0,0,1-.17,2.2,2.2,0,0,0,.8-.58,3.63,3.63,0,0,0,.8-1.85h-2.26a2.37,2.37,0,0,0-1.51.39,1.1,1.1,0,0,0-.35.42,1.32,1.32,0,0,0-.11.53,1,1,0,0,0,.11.52,1.15,1.15,0,0,0,.35.41,2,2,0,0,0,1.22.32Z" transform="translate(-311.04 -311.21)" style="fill: #293b4a"></path><path d="M445.58,442.14a4,4,0,0,1-2.59-.79,3.38,3.38,0,0,1-1-2.8v-4.47h-1.76v-2.23H442l.31-2.75h2.34v2.75h2.79v2.23h-2.79v4.5a1.28,1.28,0,0,0,.06.55,1.15,1.15,0,0,0,.27.48,1.67,1.67,0,0,0,1.11.28h1.28v2.26Z" transform="translate(-311.04 -311.21)" style="fill: #293b4a"></path><path d="M450.37,430.26a1.76,1.76,0,0,1-1.2-.43,1.46,1.46,0,0,1-.35-.5,1.41,1.41,0,0,1-.11-.61,1.39,1.39,0,0,1,.46-1.08,1.88,1.88,0,0,1,2.39,0,1.33,1.33,0,0,1,.35.49,1.52,1.52,0,0,1,.12.59,1.58,1.58,0,0,1-.12.61,1.46,1.46,0,0,1-.35.5A1.73,1.73,0,0,1,450.37,430.26ZM449,442.14V431.85h2.66v10.29Z" transform="translate(-311.04 -311.21)" style="fill: #293b4a"></path><path d="M458.62,442.39a5.24,5.24,0,0,1-2.68-.68,5.07,5.07,0,0,1-1.89-1.9,6,6,0,0,1,0-5.62,5.12,5.12,0,0,1,1.91-1.9,5.6,5.6,0,0,1,5.35,0,5,5,0,0,1,1.88,1.9,6,6,0,0,1,0,5.62,5,5,0,0,1-1.89,1.9A5.34,5.34,0,0,1,458.62,442.39Zm0-2.3a2.57,2.57,0,0,0,1-.2,2.5,2.5,0,0,0,.82-.58,3.84,3.84,0,0,0,0-4.61,2.5,2.5,0,0,0-.82-.58,2.5,2.5,0,0,0-2,0,2.5,2.5,0,0,0-.82.58,3.92,3.92,0,0,0,0,4.61,2.42,2.42,0,0,0,.81.58,2.39,2.39,0,0,0,1,.2Z" transform="translate(-311.04 -311.21)" style="fill: #293b4a"></path><path d="M465.47,442.14V431.85h2.34l.21,1.73a3.57,3.57,0,0,1,1.38-1.45,4,4,0,0,1,2.12-.54,3.79,3.79,0,0,1,1.63.28,3.73,3.73,0,0,1,1.34.95,5.17,5.17,0,0,1,1.06,3.53v5.79h-2.66v-5.56a3.25,3.25,0,0,0-.54-2,2.08,2.08,0,0,0-.75-.56,1.94,1.94,0,0,0-.92-.14,2.33,2.33,0,0,0-1,.19,2.36,2.36,0,0,0-.83.6,3.17,3.17,0,0,0-.72,2.21v5.32Z" transform="translate(-311.04 -311.21)" style="fill: #293b4a"></path><path d="M481.54,442.39a6,6,0,0,1-2.4-.44,4.15,4.15,0,0,1-1.66-1.24,3.55,3.55,0,0,1-.75-1.82h2.68a1.73,1.73,0,0,0,.67,1,2.25,2.25,0,0,0,1.42.43,1.93,1.93,0,0,0,1.28-.35,1.12,1.12,0,0,0,.29-.36,1,1,0,0,0,.11-.45.87.87,0,0,0-.13-.55.89.89,0,0,0-.44-.35,10.33,10.33,0,0,0-1.62-.47q-.66-.15-1.35-.36a6.22,6.22,0,0,1-1.25-.52,3,3,0,0,1-.93-.83,2.22,2.22,0,0,1-.35-1.26,2.94,2.94,0,0,1,.28-1.27,3,3,0,0,1,.81-1,5.36,5.36,0,0,1,3-.93,5.42,5.42,0,0,1,3,.85,3.39,3.39,0,0,1,.88,1,3.53,3.53,0,0,1,.41,1.3H483c-.15-.76-.73-1.15-1.73-1.15a1.94,1.94,0,0,0-1.15.29,1,1,0,0,0-.29.31.88.88,0,0,0-.11.42q0,.45.6.72a9,9,0,0,0,1.6.5,16.06,16.06,0,0,1,2,.57,3.35,3.35,0,0,1,1.44.9,2.43,2.43,0,0,1,.54,1.68,2.87,2.87,0,0,1-.5,1.73,3.46,3.46,0,0,1-1.49,1.21A5.7,5.7,0,0,1,481.54,442.39Z" transform="translate(-311.04 -311.21)" style="fill: #293b4a"></path><path d="M497.64,442.39a4.44,4.44,0,0,1-2-.43,3.57,3.57,0,0,1-1.41-1.23l-.29,1.41h-2.37V427.21h2.66v6.12a4.87,4.87,0,0,1,1.31-1.21,3.89,3.89,0,0,1,2.13-.51,4.83,4.83,0,0,1,2.59.7,5.09,5.09,0,0,1,1.81,1.93,6.21,6.21,0,0,1,0,5.55,5.08,5.08,0,0,1-1.8,1.91A4.82,4.82,0,0,1,497.64,442.39Zm-.58-2.3a2.78,2.78,0,0,0,1.14-.21,2.86,2.86,0,0,0,1-.65,3.41,3.41,0,0,0,.63-3.38,3.21,3.21,0,0,0-.63-1,3,3,0,0,0-1-.64,2.93,2.93,0,0,0-1.13-.23,3,3,0,0,0-1.14.23,2.84,2.84,0,0,0-1,.64,3.39,3.39,0,0,0,0,4.42,2.65,2.65,0,0,0,1,.64,2.84,2.84,0,0,0,1.15.19Z" transform="translate(-311.04 -311.21)" style="fill: #293b4a"></path><path d="M505.57,446.71l2.38-5.25h-.65l-4-9.6h2.88l2.88,7.24,3-7.24h2.82l-6.51,14.85Z" transform="translate(-311.04 -311.21)" style="fill: #293b4a"></path><path d="M372.72,467.17a6.25,6.25,0,0,1-2.41-.45,4.17,4.17,0,0,1-1.65-1.23,3.7,3.7,0,0,1-.75-1.83h2.68a1.72,1.72,0,0,0,.67,1,2.23,2.23,0,0,0,1.43.42,1.87,1.87,0,0,0,1.27-.35,1,1,0,0,0,.29-.36,1,1,0,0,0,.11-.45.85.85,0,0,0-.13-.54.91.91,0,0,0-.44-.36,9.32,9.32,0,0,0-1.62-.46c-.44-.1-.89-.22-1.34-.36a6.34,6.34,0,0,1-1.26-.53,2.74,2.74,0,0,1-.93-.83,2.21,2.21,0,0,1-.35-1.25,3,3,0,0,1,.28-1.28,3,3,0,0,1,.81-1,5.44,5.44,0,0,1,3-.93,5.5,5.5,0,0,1,3,.85,3.51,3.51,0,0,1,.88,1,3.58,3.58,0,0,1,.41,1.31h-2.52c-.15-.76-.72-1.15-1.72-1.15a2,2,0,0,0-1.16.28.89.89,0,0,0-.29.32.77.77,0,0,0,.47,1.14,8.86,8.86,0,0,0,1.59.49,15.54,15.54,0,0,1,2,.58,3.19,3.19,0,0,1,1.44.89,2.41,2.41,0,0,1,.55,1.69,2.9,2.9,0,0,1-.51,1.73,3.44,3.44,0,0,1-1.49,1.2A5.69,5.69,0,0,1,372.72,467.17Z" transform="translate(-311.04 -311.21)" style="fill: #293b4a"></path><path d="M383.15,466.92a4.08,4.08,0,0,1-2.59-.79,3.44,3.44,0,0,1-1-2.8v-4.48h-1.76v-2.22h1.79l.31-2.76h2.34v2.76H385v2.22h-2.78v4.51a1.24,1.24,0,0,0,.06.54,1.15,1.15,0,0,0,.27.48,1.71,1.71,0,0,0,1.1.29H385v2.25Z" transform="translate(-311.04 -311.21)" style="fill: #293b4a"></path><path d="M390.37,467.17a3.74,3.74,0,0,1-3-1.21,5.14,5.14,0,0,1-1-3.52v-5.81H389v5.58a3.26,3.26,0,0,0,.54,2,2,2,0,0,0,1.73.7,2.24,2.24,0,0,0,1-.19,2.39,2.39,0,0,0,.82-.59,3.21,3.21,0,0,0,.72-2.2v-5.31h2.65v10.29h-2.34l-.21-1.73a3.7,3.7,0,0,1-1.38,1.45A4.07,4.07,0,0,1,390.37,467.17Z" transform="translate(-311.04 -311.21)" style="fill: #293b4a"></path><path d="M403.06,467.17a4.84,4.84,0,0,1-2.59-.71,5.06,5.06,0,0,1-1.8-1.93,6.08,6.08,0,0,1,0-5.55,5,5,0,0,1,1.8-1.9,4.83,4.83,0,0,1,2.59-.7,4.37,4.37,0,0,1,2,.44,3.69,3.69,0,0,1,1.41,1.22V452h2.65v14.94H406.8l-.29-1.48a4.76,4.76,0,0,1-1.32,1.21A4,4,0,0,1,403.06,467.17Zm.58-2.31a3,3,0,0,0,1.15-.2,2.75,2.75,0,0,0,1-.66,3.39,3.39,0,0,0,0-4.42,2.72,2.72,0,0,0-1-.65,2.86,2.86,0,0,0-1.15-.21,2.78,2.78,0,0,0-1.14.21,2.66,2.66,0,0,0-.95.64,3,3,0,0,0-.64,1,3,3,0,0,0-.19,1.18,3.08,3.08,0,0,0,.19,1.2,3,3,0,0,0,.64,1,2.69,2.69,0,0,0,2.07.85Z" transform="translate(-311.04 -311.21)" style="fill: #293b4a"></path><path d="M412.36,471.48l2.39-5.24h-.63l-4-9.61H413l2.88,7.24,3-7.24h2.83l-6.56,14.85Z" transform="translate(-311.04 -311.21)" style="fill: #293b4a"></path><path d="M426.81,466.92V452h2.66v14.94Z" transform="translate(-311.04 -311.21)" style="fill: #293b4a"></path><path d="M436.39,467.17a5.55,5.55,0,0,1-2.76-.67,4.8,4.8,0,0,1-1.88-1.86,5.62,5.62,0,0,1-.69-2.78,6,6,0,0,1,.68-2.85,4.89,4.89,0,0,1,1.87-1.93,5.48,5.48,0,0,1,2.81-.7,5.31,5.31,0,0,1,2.67.66,4.82,4.82,0,0,1,1.82,1.82,5.08,5.08,0,0,1,.65,2.56v.48a3.08,3.08,0,0,1,0,.52H433.7a2.66,2.66,0,0,0,.23,1,2.56,2.56,0,0,0,.61.85,2.61,2.61,0,0,0,1.84.69,2.39,2.39,0,0,0,1.35-.36,2.16,2.16,0,0,0,.82-.95h2.71a5.07,5.07,0,0,1-1,1.78,4.76,4.76,0,0,1-1.66,1.25A5.23,5.23,0,0,1,436.39,467.17Zm0-8.65a2.81,2.81,0,0,0-1.72.58,2.54,2.54,0,0,0-1,1.67h5.13a2.28,2.28,0,0,0-.21-.89,2.39,2.39,0,0,0-.54-.73,2.5,2.5,0,0,0-1.67-.61Z" transform="translate(-311.04 -311.21)" style="fill: #293b4a"></path><path d="M445.79,466.92,442,456.63h2.77l2.62,7.78,2.61-7.78h2.76L449,466.92Z" transform="translate(-311.04 -311.21)" style="fill: #293b4a"></path><path d="M458.69,467.17a5.55,5.55,0,0,1-2.76-.67,4.8,4.8,0,0,1-1.88-1.86,5.52,5.52,0,0,1-.69-2.78A5.89,5.89,0,0,1,454,459a5,5,0,0,1,1.87-1.93,5.51,5.51,0,0,1,2.81-.7,5.31,5.31,0,0,1,2.67.66,4.82,4.82,0,0,1,1.82,1.82,5.08,5.08,0,0,1,.65,2.56v.48a4.61,4.61,0,0,1,0,.52H456a2.65,2.65,0,0,0,.84,1.88,2.6,2.6,0,0,0,1.83.69,2.48,2.48,0,0,0,1.36-.36,2.35,2.35,0,0,0,.82-.95h2.7a5.07,5.07,0,0,1-1,1.78,4.76,4.76,0,0,1-1.66,1.25A5.34,5.34,0,0,1,458.69,467.17Zm0-8.65a2.86,2.86,0,0,0-1.73.58,2.57,2.57,0,0,0-.95,1.67h5.12a2.1,2.1,0,0,0-.2-.89,2.56,2.56,0,0,0-.54-.73,2.52,2.52,0,0,0-1.68-.61Z" transform="translate(-311.04 -311.21)" style="fill: #293b4a"></path><path d="M465.31,466.92V452H468v14.94Z" transform="translate(-311.04 -311.21)" style="fill: #293b4a"></path><path d="M475.47,455a1.67,1.67,0,0,1-1.19-.43,1.46,1.46,0,0,1-.35-.5,1.36,1.36,0,0,1-.11-.6,1.39,1.39,0,0,1,.11-.6,1.52,1.52,0,0,1,.35-.49,1.88,1.88,0,0,1,1.19-.42,1.9,1.9,0,0,1,1.19.42,1.36,1.36,0,0,1,.47,1.09,1.53,1.53,0,0,1-.12.6,1.46,1.46,0,0,1-.35.5A1.67,1.67,0,0,1,475.47,455Zm-1.33,11.89V456.63h2.66v10.29Z" transform="translate(-311.04 -311.21)" style="fill: #293b4a"></path><path d="M478.79,466.92V456.63h2.34l.21,1.73a3.59,3.59,0,0,1,1.38-1.46,4.07,4.07,0,0,1,2.13-.54,3.76,3.76,0,0,1,1.62.29,3.61,3.61,0,0,1,1.34,1,5.13,5.13,0,0,1,1.06,3.52v5.81H486.2v-5.56a3.31,3.31,0,0,0-.54-2,1.84,1.84,0,0,0-.76-.56,2.07,2.07,0,0,0-.92-.15,2.41,2.41,0,0,0-1,.19,2.36,2.36,0,0,0-.83.6,3.15,3.15,0,0,0-.72,2.2v5.31Z" transform="translate(-311.04 -311.21)" style="fill: #293b4a"></path><path d="M493.89,466.92l5.31-14.52h3l5.31,14.52h-2.83l-1.15-3.36h-5.66l-1.18,3.36Zm4.69-5.43h4.21l-2.12-6Z" transform="translate(-311.04 -311.21)" style="fill: #293b4a"></path><path d="M512.37,467.17a3.78,3.78,0,0,1-3-1.21,5.19,5.19,0,0,1-1.05-3.52v-5.81H511v5.58a3.4,3.4,0,0,0,.54,2,2,2,0,0,0,.77.56,2,2,0,0,0,.93.14,2.29,2.29,0,0,0,1-.19,2.26,2.26,0,0,0,.82-.59,3.15,3.15,0,0,0,.72-2.2v-5.31h2.65v10.29h-2.34l-.21-1.73a3.7,3.7,0,0,1-1.38,1.45A4.06,4.06,0,0,1,512.37,467.17Z" transform="translate(-311.04 -311.21)" style="fill: #293b4a"></path><path d="M524.69,463.85a5.45,5.45,0,0,1-1.39-.17l-.76.77a3.53,3.53,0,0,0,1,.31c.4.08,1,.16,2,.25a5.37,5.37,0,0,1,3,1,2.61,2.61,0,0,1,.72,1,2.68,2.68,0,0,1,.22,1.19,3.41,3.41,0,0,1-.5,1.73,3.62,3.62,0,0,1-1.54,1.33,6,6,0,0,1-2.65.5,6.66,6.66,0,0,1-3.55-.82,2.62,2.62,0,0,1-1-1,2.68,2.68,0,0,1-.32-1.42,3,3,0,0,1,.37-1.36,3,3,0,0,1,1-1,4.16,4.16,0,0,1-.71-.4,3.12,3.12,0,0,1-.53-.43v-.48l1.8-1.9a3.56,3.56,0,0,1-.91-1.23,3.48,3.48,0,0,1-.29-1.49,3.6,3.6,0,0,1,.51-1.89,3.51,3.51,0,0,1,1.44-1.34,4.68,4.68,0,0,1,2.26-.51,5.22,5.22,0,0,1,1.62.25h3.9v1.62l-1.76.13a3.85,3.85,0,0,1-.09,3.63,3.6,3.6,0,0,1-1.44,1.35A4.92,4.92,0,0,1,524.69,463.85Zm-2.49,4.34a1.27,1.27,0,0,0,.19.68,1.21,1.21,0,0,0,.53.47,3.55,3.55,0,0,0,1.72.38,2.86,2.86,0,0,0,1.62-.4,1.26,1.26,0,0,0,.63-1.09,1.29,1.29,0,0,0-.1-.51,1.27,1.27,0,0,0-.31-.42,2.68,2.68,0,0,0-1.61-.46,13.78,13.78,0,0,1-1.57-.19,2.43,2.43,0,0,0-.86.73A1.45,1.45,0,0,0,522.2,468.19Zm2.49-6.38a2,2,0,0,0,1.34-.43,1.75,1.75,0,0,0,.39-.57,1.7,1.7,0,0,0,0-1.35,1.86,1.86,0,0,0-.39-.57,2,2,0,0,0-1.34-.44,2.12,2.12,0,0,0-1.37.44,1.56,1.56,0,0,0-.4.56,1.62,1.62,0,0,0-.12.69,1.56,1.56,0,0,0,.52,1.24A2.06,2.06,0,0,0,524.69,461.81Z" transform="translate(-311.04 -311.21)" style="fill: #293b4a"></path><path d="M535.21,467.17a3.79,3.79,0,0,1-1.63-.27,3.83,3.83,0,0,1-1.35-.94,5.19,5.19,0,0,1-1.05-3.52v-5.81h2.64v5.58a3.26,3.26,0,0,0,.54,2,2,2,0,0,0,1.7.7,2.24,2.24,0,0,0,1-.19,2.21,2.21,0,0,0,.82-.59,3.16,3.16,0,0,0,.72-2.2v-5.31h2.65v10.29H538.9l-.21-1.73a3.63,3.63,0,0,1-1.38,1.45A4.06,4.06,0,0,1,535.21,467.17Z" transform="translate(-311.04 -311.21)" style="fill: #293b4a"></path><path d="M547.42,467.17a6.17,6.17,0,0,1-2.4-.45,4.13,4.13,0,0,1-1.66-1.23,3.61,3.61,0,0,1-.75-1.83h2.68a1.72,1.72,0,0,0,.67,1,2.18,2.18,0,0,0,1.42.42,1.89,1.89,0,0,0,1.28-.35,1,1,0,0,0,.29-.36,1,1,0,0,0,.11-.45.8.8,0,0,0-.14-.54.84.84,0,0,0-.43-.36,9.32,9.32,0,0,0-1.62-.46c-.45-.1-.89-.22-1.35-.36a6,6,0,0,1-1.25-.53,2.65,2.65,0,0,1-.93-.83,2.14,2.14,0,0,1-.35-1.25,2.84,2.84,0,0,1,.28-1.28,2.9,2.9,0,0,1,.81-1,5.45,5.45,0,0,1,6-.08,3.41,3.41,0,0,1,1.3,2.35h-2.51c-.15-.76-.73-1.15-1.73-1.15a1.92,1.92,0,0,0-1.15.28.84.84,0,0,0-.3.32.77.77,0,0,0,.47,1.14,8.72,8.72,0,0,0,1.6.49,15.54,15.54,0,0,1,2,.58,3.24,3.24,0,0,1,1.44.89,2.41,2.41,0,0,1,.54,1.69,3,3,0,0,1-.5,1.73,3.49,3.49,0,0,1-1.49,1.2A5.77,5.77,0,0,1,547.42,467.17Z" transform="translate(-311.04 -311.21)" style="fill: #293b4a"></path><path d="M557.85,466.92a4.08,4.08,0,0,1-2.59-.79,3.47,3.47,0,0,1-1-2.8v-4.48h-1.77v-2.22h1.77l.31-2.76h2.34v2.76h2.78v2.22h-2.78v4.51a1.47,1.47,0,0,0,0,.55,1.25,1.25,0,0,0,.28.47,1.71,1.71,0,0,0,1.1.29h1.29v2.25Z" transform="translate(-311.04 -311.21)" style="fill: #293b4a"></path><path d="M526.77,585.21H381.32a16,16,0,0,0,0,32H526.77a16,16,0,0,0,0-32Z" transform="translate(-311.04 -311.21)" style="fill: #19ad4a"></path><path d="M435.76,543.21H381.33a15.5,15.5,0,1,0,0,31h54.43a15.5,15.5,0,1,0,0-31Z" transform="translate(-311.04 -311.21)" style="fill: #5273fc"></path><path d="M519.73,501.21H381.36a15.5,15.5,0,1,0,0,31H519.73a15.5,15.5,0,1,0,0-31Z" transform="translate(-311.04 -311.21)" style="fill: #fc0"></path><path d="M377.54,605.21v-10h3.56a4.24,4.24,0,0,1,1.92.39,2.65,2.65,0,0,1,1.14,1.11,3.39,3.39,0,0,1,0,3.08,2.7,2.7,0,0,1-1.15,1.12,3.85,3.85,0,0,1-1.94.42h-1.8v3.88Zm1.77-5.36H381a1.71,1.71,0,0,0,.71-.07,1.74,1.74,0,0,0,.62-.35,1.56,1.56,0,0,0,.41-1.19,1.6,1.6,0,0,0-.08-.65,1.57,1.57,0,0,0-.33-.54,1.63,1.63,0,0,0-.62-.36,1.71,1.71,0,0,0-.71-.07h-1.68Z" transform="translate(-311.04 -311.21)" style="fill: #fff"></path><path d="M389,606.21a3.25,3.25,0,0,1-1.78-.51,3.84,3.84,0,0,1-1.26-1.39,4.66,4.66,0,0,1-.46-2.09,4.5,4.5,0,0,1,.47-2.08,3.63,3.63,0,0,1,1.27-1.39,3.19,3.19,0,0,1,2.66-.41,3.28,3.28,0,0,1,1.23.66,3.76,3.76,0,0,1,.91,1.14,5,5,0,0,1,0,4.17,3.75,3.75,0,0,1-1.26,1.39A3.23,3.23,0,0,1,389,606.21Zm0-1.7a1.55,1.55,0,0,0,.63-.16,1.72,1.72,0,0,0,.52-.41,3.14,3.14,0,0,0,.52-1.72,3.1,3.1,0,0,0-.52-1.71,1.61,1.61,0,0,0-.52-.42,1.39,1.39,0,0,0-.63-.15,1.34,1.34,0,0,0-.65.14,1.64,1.64,0,0,0-.55.43,3.14,3.14,0,0,0,0,3.43,1.49,1.49,0,0,0,1.2.57Z" transform="translate(-311.04 -311.21)" style="fill: #fff"></path><path d="M396.76,606.21a3.64,3.64,0,0,1-1.59-.34A2.77,2.77,0,0,1,394,605a2.7,2.7,0,0,1-.49-1.36h1.76a1.36,1.36,0,0,0,.44.77,1.39,1.39,0,0,0,.95.31,1.12,1.12,0,0,0,.83-.26.86.86,0,0,0,.2-.26,1,1,0,0,0,.07-.34.73.73,0,0,0-.09-.41.54.54,0,0,0-.29-.25,6,6,0,0,0-1.06-.35c-.3-.08-.6-.17-.89-.27a4,4,0,0,1-.84-.38,2.22,2.22,0,0,1-.6-.62,1.75,1.75,0,0,1-.24-.93,2.37,2.37,0,0,1,.19-1,2,2,0,0,1,.53-.76,3.27,3.27,0,0,1,3.94-.06,2.51,2.51,0,0,1,.59.77,2.92,2.92,0,0,1,.27,1h-1.66a1,1,0,0,0-1.13-.85,1.2,1.2,0,0,0-.77.22.71.71,0,0,0-.19.23.82.82,0,0,0-.07.31.63.63,0,0,0,.4.54,5,5,0,0,0,1.05.36c.48.13.91.27,1.31.41a2.1,2.1,0,0,1,.94.66,2,2,0,0,1,.36,1.29,2.37,2.37,0,0,1-.32,1.28,2.29,2.29,0,0,1-1,.89A3.28,3.28,0,0,1,396.76,606.21Z" transform="translate(-311.04 -311.21)" style="fill: #fff"></path><path d="M403.21,605.17a2.81,2.81,0,0,1-1.79-.54,2.53,2.53,0,0,1-.56-.89,2.34,2.34,0,0,1-.12-1v-3.05h-1.2V598.1h1.2l.21-1.89h1.63v1.89h2v1.54h-1.92v3.1a.81.81,0,0,0,0,.38,1.11,1.11,0,0,0,.18.34,1.33,1.33,0,0,0,.78.19h.88v1.56Z" transform="translate(-311.04 -311.21)" style="fill: #fff"></path><path d="M408.86,603.56a3.65,3.65,0,0,1-.93-.12l-.53.55a3,3,0,0,0,.65.23c.28.06.71.11,1.32.17a3.48,3.48,0,0,1,2,.7,2,2,0,0,1,.48.71,2.06,2.06,0,0,1,.15.85,2.53,2.53,0,0,1-.34,1.24,2.59,2.59,0,0,1-1,1,4.13,4.13,0,0,1-1.79.36,4.47,4.47,0,0,1-2.39-.59,1.78,1.78,0,0,1-.7-.74,2,2,0,0,1-.21-1,2.1,2.1,0,0,1,.25-1,2,2,0,0,1,.66-.74,3,3,0,0,1-.49-.28,2.1,2.1,0,0,1-.35-.31v-.34l1.16-1.37a2.49,2.49,0,0,1-.61-.88,2.58,2.58,0,0,1-.2-1.07,2.51,2.51,0,0,1,.35-1.34,2.33,2.33,0,0,1,1-1,3.14,3.14,0,0,1,1.53-.36,3.65,3.65,0,0,1,1.09.17h2.63v1.17l-1.17.08a2.68,2.68,0,0,1,.28,1.24,2.51,2.51,0,0,1-.33,1.35,2.45,2.45,0,0,1-1,1A3.22,3.22,0,0,1,408.86,603.56Zm-1.68,3.11a.89.89,0,0,0,.13.48.75.75,0,0,0,.35.33,2.28,2.28,0,0,0,1.17.29,1.81,1.81,0,0,0,1.08-.3.81.81,0,0,0,.29-.29,1.06,1.06,0,0,0,.13-.39,1,1,0,0,0-.05-.42,1,1,0,0,0-.21-.35,1.88,1.88,0,0,0-1.09-.32,5.59,5.59,0,0,1-1.06-.13,1.72,1.72,0,0,0-.59.52A1.14,1.14,0,0,0,407.18,606.67Zm1.68-4.57a1.33,1.33,0,0,0,.9-.31,1.22,1.22,0,0,0,.27-.41,1.32,1.32,0,0,0,.09-.48,1.37,1.37,0,0,0-.09-.49,1.09,1.09,0,0,0-.27-.4,1.24,1.24,0,0,0-.9-.31,1.3,1.3,0,0,0-.92.31,1.31,1.31,0,0,0-.36.89,1.15,1.15,0,0,0,.1.48,1.36,1.36,0,0,0,.26.41A1.3,1.3,0,0,0,408.86,602.1Z" transform="translate(-311.04 -311.21)" style="fill: #fff"></path><path d="M413.54,605.21v-6.84H415l.15,1.28a2.92,2.92,0,0,1,.95-1,2.56,2.56,0,0,1,1.42-.39v1.85h-.46a2.32,2.32,0,0,0-1,.18,1.29,1.29,0,0,0-.67.61,2.55,2.55,0,0,0-.24,1.21v3.1Z" transform="translate(-311.04 -311.21)" style="fill: #fff"></path><path d="M421.29,606.21a3.32,3.32,0,0,1-1.55-.32,2.08,2.08,0,0,1-.9-.84,2.33,2.33,0,0,1-.3-1.16,2.12,2.12,0,0,1,.8-1.72,3.61,3.61,0,0,1,2.39-.67h1.86v-.15a1.5,1.5,0,0,0-.08-.63,1.33,1.33,0,0,0-.35-.53,1.51,1.51,0,0,0-1.06-.37,1.84,1.84,0,0,0-1,.28,1.34,1.34,0,0,0-.34.37,1.29,1.29,0,0,0-.19.47h-1.84a2.73,2.73,0,0,1,.54-1.44,3,3,0,0,1,1.23-1,3.9,3.9,0,0,1,1.65-.33,3.47,3.47,0,0,1,2.46.82,2.9,2.9,0,0,1,.72,1,3.07,3.07,0,0,1,.22,1.27v4.7h-1.61l-.18-1.28a2.85,2.85,0,0,1-.91,1A2.59,2.59,0,0,1,421.29,606.21Zm.43-1.55a1.46,1.46,0,0,0,.68-.12,1.53,1.53,0,0,0,.55-.43,2.85,2.85,0,0,0,.58-1.37h-1.61a1.63,1.63,0,0,0-1.09.28.92.92,0,0,0-.24.31,1.1,1.1,0,0,0-.08.4.88.88,0,0,0,.08.39.78.78,0,0,0,.24.3A1.37,1.37,0,0,0,421.72,604.66Z" transform="translate(-311.04 -311.21)" style="fill: #fff"></path><path d="M429.69,606.21a2.73,2.73,0,0,1-1.63-.52A3.36,3.36,0,0,1,427,604.3a4.91,4.91,0,0,1,0-4,3.49,3.49,0,0,1,1.09-1.39,2.77,2.77,0,0,1,1.63-.5,2.54,2.54,0,0,1,1.29.31,2.5,2.5,0,0,1,.88.89v-4.38h1.68V606h-1.49l-.19-1.08a2.8,2.8,0,0,1-.83.88A2.23,2.23,0,0,1,429.69,606.21Zm.35-1.68a1.55,1.55,0,0,0,.73-.15,1.72,1.72,0,0,0,.6-.48,2.68,2.68,0,0,0,0-3.2,1.72,1.72,0,0,0-.6-.48,1.55,1.55,0,0,0-.73-.15,1.59,1.59,0,0,0-.71.15,1.76,1.76,0,0,0-.61.48,2.35,2.35,0,0,0-.4.73,2.45,2.45,0,0,0-.12.86,2.52,2.52,0,0,0,.12.86,2.4,2.4,0,0,0,.4.74,1.92,1.92,0,0,0,.59.48,1.63,1.63,0,0,0,.71.16Z" transform="translate(-311.04 -311.21)" style="fill: #fff"></path><path d="M437.34,606.2a2.47,2.47,0,0,1-1.13-.21,2.52,2.52,0,0,1-.94-.72,4.18,4.18,0,0,1-.72-2.63v-4.43h1.82v4.24a2.8,2.8,0,0,0,.37,1.56,1.4,1.4,0,0,0,.55.42,1.32,1.32,0,0,0,.65.11,1.62,1.62,0,0,0,.69-.15,1.65,1.65,0,0,0,.57-.45,2.6,2.6,0,0,0,.5-1.67v-4.06h1.84v7.91H439.9l-.14-1.32a2.74,2.74,0,0,1-1,1.11A2.57,2.57,0,0,1,437.34,606.2Z" transform="translate(-311.04 -311.21)" style="fill: #fff"></path><path d="M445.28,606.21a3.17,3.17,0,0,1-1.54-.33,2,2,0,0,1-.9-.83,2.33,2.33,0,0,1-.3-1.16,2.27,2.27,0,0,1,.2-1,2,2,0,0,1,.6-.76,3.57,3.57,0,0,1,2.44-.67h1.85v-.15a1.36,1.36,0,0,0-.09-.63,1.42,1.42,0,0,0-.34-.53,1.51,1.51,0,0,0-1.05-.37,1.78,1.78,0,0,0-1,.28,1.24,1.24,0,0,0-.35.37,1.28,1.28,0,0,0-.18.47h-1.83a2.57,2.57,0,0,1,.54-1.44,3,3,0,0,1,1.22-1,3.9,3.9,0,0,1,1.65-.33,3.38,3.38,0,0,1,2.44.82,2.77,2.77,0,0,1,.7,1.05,3,3,0,0,1,.2,1.26v4.7H448l-.19-1.28a2.56,2.56,0,0,1-1,1.07,2.44,2.44,0,0,1-1.39.34Zm.42-1.55a1.41,1.41,0,0,0,.67-.13,1.5,1.5,0,0,0,.55-.42,2.73,2.73,0,0,0,.56-1.37h-1.59a1.56,1.56,0,0,0-1.07.28.84.84,0,0,0-.25.31,1.1,1.1,0,0,0-.08.4.76.76,0,0,0,.08.39.81.81,0,0,0,.25.3A1.33,1.33,0,0,0,445.7,604.66Z" transform="translate(-311.04 -311.21)" style="fill: #fff"></path><path d="M454.24,605.17a2.85,2.85,0,0,1-1.81-.54,2.48,2.48,0,0,1-.56-.9,2.28,2.28,0,0,1-.12-1v-3.05h-1.21V598.1h1.21l.22-1.89h1.64v1.89h1.93v1.54h-1.93v3.1a1.2,1.2,0,0,0,0,.38,1,1,0,0,0,.19.34,1.23,1.23,0,0,0,.77.19h.91v1.56Z" transform="translate(-311.04 -311.21)" style="fill: #fff"></path><path d="M459.63,606.21a4.56,4.56,0,0,1-2.12-.49,3.85,3.85,0,0,1-1.45-1.38,4.19,4.19,0,0,1-.52-2.07,4.33,4.33,0,0,1,.51-2.11,4,4,0,0,1,1.43-1.44,4.4,4.4,0,0,1,2.17-.51,4.34,4.34,0,0,1,2.06.49A3.69,3.69,0,0,1,463,600a3.82,3.82,0,0,1,.51,1.91v.73h-6a1.94,1.94,0,0,0,.16.75,2.1,2.1,0,0,0,.45.62,2,2,0,0,0,.67.41,2,2,0,0,0,.77.13,1.8,1.8,0,0,0,1-.27,1.66,1.66,0,0,0,.64-.7h2.07a3.58,3.58,0,0,1-.76,1.34,3.83,3.83,0,0,1-1.26.92A4.43,4.43,0,0,1,459.63,606.21Zm0-6.41a2.07,2.07,0,0,0-1.32.41,1.85,1.85,0,0,0-.51.57,1.81,1.81,0,0,0-.24.71h4a1.7,1.7,0,0,0-.17-.65,1.52,1.52,0,0,0-.41-.54,1.93,1.93,0,0,0-1.32-.49Z" transform="translate(-311.04 -311.21)" style="fill: #fff"></path><path d="M470.11,606.21a4.22,4.22,0,0,1-1.88-.41,2.87,2.87,0,0,1-1.24-1.13,3.3,3.3,0,0,1-.45-1.72,3.34,3.34,0,0,1,.54-1.86,3.67,3.67,0,0,1,1.58-1.35,3.8,3.8,0,0,1-.6-1,2.61,2.61,0,0,1-.18-1,2.44,2.44,0,0,1,.34-1.27,2.37,2.37,0,0,1,.95-.91,3.26,3.26,0,0,1,1.5-.34,2.82,2.82,0,0,1,1.5.36,2.27,2.27,0,0,1,.9.94,2.55,2.55,0,0,1,.27,1.33h-1.71a1.22,1.22,0,0,0-.06-.46,1.28,1.28,0,0,0-.24-.39,1,1,0,0,0-.73-.28,1,1,0,0,0-.41.06,1,1,0,0,0-.35.23,1,1,0,0,0-.22.34.89.89,0,0,0-.07.4,1.54,1.54,0,0,0,.22.79,7.44,7.44,0,0,0,.67.92l2.75,2.94c.19-.34.39-.73.6-1.19l.32-.67H476l-.5,1a14.66,14.66,0,0,1-1.16,2.09l2.25,2.43H474.4l-1.1-1.19a4.63,4.63,0,0,1-1.52,1A5,5,0,0,1,470.11,606.21Zm-1.82-3.37a1.68,1.68,0,0,0,.13.7,1.59,1.59,0,0,0,.38.57,1.91,1.91,0,0,0,1.37.51,2.89,2.89,0,0,0,1.15-.24,3.19,3.19,0,0,0,1-.71l-2.6-2.79a2.39,2.39,0,0,0-1.05.84A1.84,1.84,0,0,0,468.29,602.84Z" transform="translate(-311.04 -311.21)" style="fill: #fff"></path><path d="M480.54,605.21v-10h2l3,6.33,2.95-6.33h2v10H488.8V598.3l-2.61,5.48h-1.35l-2.61-5.48v6.91Z" transform="translate(-311.04 -311.21)" style="fill: #fff"></path><path d="M494.92,606.21a2.47,2.47,0,0,1-1.34-.33,1.85,1.85,0,0,1-.78-.83,2.66,2.66,0,0,1-.26-1.16,2.6,2.6,0,0,1,.18-1,2,2,0,0,1,.51-.76,2.83,2.83,0,0,1,2.07-.67h1.6v-.15a1.68,1.68,0,0,0-.08-.63,1.44,1.44,0,0,0-.29-.53,1.22,1.22,0,0,0-.92-.37,1.38,1.38,0,0,0-.86.28,1.22,1.22,0,0,0-.3.37,1.45,1.45,0,0,0-.16.47H492.7a3,3,0,0,1,.46-1.44,2.67,2.67,0,0,1,1.06-1,3,3,0,0,1,1.43-.33,2.72,2.72,0,0,1,2.11.82,3,3,0,0,1,.61,1.05,3.56,3.56,0,0,1,.17,1.26v4.7h-1.39l-.15-1.28a2.52,2.52,0,0,1-.88,1.09,1.92,1.92,0,0,1-1.24.32Zm.36-1.55a1.12,1.12,0,0,0,.58-.13,1.34,1.34,0,0,0,.47-.42,2.93,2.93,0,0,0,.49-1.37h-1.39a1.22,1.22,0,0,0-.92.28.85.85,0,0,0-.21.31,1.09,1.09,0,0,0-.07.4.87.87,0,0,0,.07.39.81.81,0,0,0,.21.3A1.06,1.06,0,0,0,495.28,604.66Z" transform="translate(-311.04 -311.21)" style="fill: #fff"></path><path d="M502.76,606.21a3.64,3.64,0,0,1-1.59-.34A2.77,2.77,0,0,1,500,605a2.9,2.9,0,0,1-.49-1.36h1.77a1.26,1.26,0,0,0,.43.77,1.39,1.39,0,0,0,.95.31,1.12,1.12,0,0,0,.83-.26.86.86,0,0,0,.2-.26,1,1,0,0,0,.07-.34.73.73,0,0,0-.09-.41.54.54,0,0,0-.29-.25,6,6,0,0,0-1.06-.35c-.3-.08-.6-.17-.89-.27a3.66,3.66,0,0,1-.83-.38,2.12,2.12,0,0,1-.61-.62,1.75,1.75,0,0,1-.24-.93,2.37,2.37,0,0,1,.19-1,2,2,0,0,1,.53-.76,3.27,3.27,0,0,1,3.94-.06,2.51,2.51,0,0,1,.59.77,2.92,2.92,0,0,1,.27,1h-1.65a1,1,0,0,0-1.14-.85,1.2,1.2,0,0,0-.77.22.71.71,0,0,0-.19.23.82.82,0,0,0-.07.31.63.63,0,0,0,.4.54,5,5,0,0,0,1.05.36c.48.13.91.27,1.31.41a2.1,2.1,0,0,1,.94.66,1.94,1.94,0,0,1,.36,1.29,2.37,2.37,0,0,1-.32,1.28,2.29,2.29,0,0,1-1,.89A3.28,3.28,0,0,1,502.76,606.21Z" transform="translate(-311.04 -311.21)" style="fill: #fff"></path><path d="M510.24,605.17a2.85,2.85,0,0,1-1.81-.54,2.53,2.53,0,0,1-.56-.89,2.34,2.34,0,0,1-.12-1v-3.05h-1.21V598.1h1.21l.21-1.89h1.64v1.89h1.94v1.54H509.6v3.1a1,1,0,0,0,0,.38.88.88,0,0,0,.19.34,1.23,1.23,0,0,0,.77.19h.89v1.56Z" transform="translate(-311.04 -311.21)" style="fill: #fff"></path><path d="M516.12,606.21a3.53,3.53,0,0,1-1.84-.49,3.29,3.29,0,0,1-1.27-1.39,4.42,4.42,0,0,1-.47-2.06,4.79,4.79,0,0,1,.46-2.12,3.51,3.51,0,0,1,1.25-1.44,3.65,3.65,0,0,1,3.69,0,3.39,3.39,0,0,1,1.16,1.35,4,4,0,0,1,.44,1.91v.73h-5.26a2,2,0,0,0,.15.77,1.93,1.93,0,0,0,.42.63,1.66,1.66,0,0,0,1.23.52,1.62,1.62,0,0,0,.92-.27,1.54,1.54,0,0,0,.54-.71h1.82a3.84,3.84,0,0,1-.67,1.34,3,3,0,0,1-2.57,1.23Zm0-6.42a1.76,1.76,0,0,0-1.16.41,1.78,1.78,0,0,0-.44.57,1.93,1.93,0,0,0-.2.71h3.49a1.62,1.62,0,0,0-.14-.65,1.55,1.55,0,0,0-.36-.54,1.63,1.63,0,0,0-.54-.37,1.39,1.39,0,0,0-.63-.12Z" transform="translate(-311.04 -311.21)" style="fill: #fff"></path><path d="M520.54,605.21v-6.84H522l.15,1.28a2.92,2.92,0,0,1,1-1,2.56,2.56,0,0,1,1.42-.39v1.85h-.46a2.32,2.32,0,0,0-1,.18,1.26,1.26,0,0,0-.67.62,2.49,2.49,0,0,0-.24,1.2v3.1Z" transform="translate(-311.04 -311.21)" style="fill: #fff"></path><path d="M528.3,606.21a4.94,4.94,0,0,1-1.86-.34,3.2,3.2,0,0,1-1.33-.91,2.8,2.8,0,0,1-.57-1.35h2.06a1.38,1.38,0,0,0,.52.76,1.76,1.76,0,0,0,1.09.31,1.57,1.57,0,0,0,1-.25.93.93,0,0,0,.22-.27.81.81,0,0,0,.08-.34.63.63,0,0,0-.1-.4.68.68,0,0,0-.34-.26,8.54,8.54,0,0,0-1.25-.35l-1-.27a5.05,5.05,0,0,1-1-.38,2.39,2.39,0,0,1-.72-.62,1.71,1.71,0,0,1-.27-.93,2.1,2.1,0,0,1,.22-1,2.26,2.26,0,0,1,.62-.76,4.32,4.32,0,0,1,4.59-.06,2.5,2.5,0,0,1,.68.77,2.58,2.58,0,0,1,.32,1h-1.93c-.13-.56-.57-.85-1.33-.85a1.54,1.54,0,0,0-.89.22.69.69,0,0,0-.22.23.59.59,0,0,0-.09.31q0,.33.45.54a6.76,6.76,0,0,0,1.24.36c.55.13,1.06.27,1.53.41a2.68,2.68,0,0,1,1.1.66,1.74,1.74,0,0,1,.42,1.29,2.12,2.12,0,0,1-.39,1.28,2.65,2.65,0,0,1-1.14.9A4.49,4.49,0,0,1,528.3,606.21Z" transform="translate(-311.04 -311.21)" style="fill: #fff"></path><path d="M377.54,563.21v-10h4.28a3.92,3.92,0,0,1,2.54.71,2.47,2.47,0,0,1,.67.84,2.26,2.26,0,0,1,.22,1,2.12,2.12,0,0,1-.55,1.5,2.62,2.62,0,0,1-1.27.76,2.65,2.65,0,0,1,1.5.84,2.41,2.41,0,0,1,.39,2.61,2.71,2.71,0,0,1-.69.89,3.94,3.94,0,0,1-2.54.77Zm1.94-5.8h2a2.12,2.12,0,0,0,1.27-.36,1.38,1.38,0,0,0,.34-.46,1.3,1.3,0,0,0,.09-.55,1.1,1.1,0,0,0-.09-.54,1.17,1.17,0,0,0-.34-.45,2,2,0,0,0-1.27-.37h-2Zm0,4.31h2.19a2.11,2.11,0,0,0,1.34-.38,1.26,1.26,0,0,0,.49-1.06,1.31,1.31,0,0,0-.12-.61,1.33,1.33,0,0,0-.39-.49,2.18,2.18,0,0,0-1.36-.4h-2.15Z" transform="translate(-311.04 -311.21)" style="fill: #fff"></path><path d="M388.29,563.21a3.68,3.68,0,0,1-1.55-.28,2,2,0,0,1-.9-.73,1.87,1.87,0,0,1-.3-1,1.68,1.68,0,0,1,.2-.84,1.87,1.87,0,0,1,.59-.66,4.09,4.09,0,0,1,2.4-.59h1.86V559a1,1,0,0,0-.09-.55,1.11,1.11,0,0,0-.34-.46,1.65,1.65,0,0,0-1.06-.33,2,2,0,0,0-1,.25,1.14,1.14,0,0,0-.53.73h-1.82a2.23,2.23,0,0,1,.54-1.26,3,3,0,0,1,1.23-.83,4.45,4.45,0,0,1,1.65-.29,3.84,3.84,0,0,1,2.47.71,2.59,2.59,0,0,1,.7.92,2.37,2.37,0,0,1,.21,1.11v4.11h-1.62l-.18-1.12a2.52,2.52,0,0,1-1,.94,2.7,2.7,0,0,1-1.4.29Zm.43-1.35a1.77,1.77,0,0,0,.68-.11,1.64,1.64,0,0,0,.55-.38,2.14,2.14,0,0,0,.57-1.2h-1.6a1.87,1.87,0,0,0-1.09.25.88.88,0,0,0-.24.27.85.85,0,0,0-.08.35.68.68,0,0,0,.08.34.67.67,0,0,0,.24.26A1.55,1.55,0,0,0,388.72,561.86Z" transform="translate(-311.04 -311.21)" style="fill: #fff"></path><path d="M397.15,563.21a3.8,3.8,0,0,1-1.87-.45,3.34,3.34,0,0,1-1.27-1.23,3.76,3.76,0,0,1,0-3.64,3.34,3.34,0,0,1,1.27-1.23,3.8,3.8,0,0,1,1.87-.45,3.75,3.75,0,0,1,2.23.66,3,3,0,0,1,1.16,1.84h-1.88a1.29,1.29,0,0,0-.56-.76,1.63,1.63,0,0,0-1-.27,1.8,1.8,0,0,0-.69.13,1.76,1.76,0,0,0-.56.41,2.36,2.36,0,0,0,0,3,1.6,1.6,0,0,0,.56.4,1.64,1.64,0,0,0,.69.14,1.7,1.7,0,0,0,1-.27,1.29,1.29,0,0,0,.56-.76h1.88a3,3,0,0,1-1.16,1.81A3.62,3.62,0,0,1,397.15,563.21Z" transform="translate(-311.04 -311.21)" style="fill: #fff"></path><path d="M401.54,563.21v-10h1.84v4.17a2.57,2.57,0,0,1,1-.91,2.94,2.94,0,0,1,1.4-.32,2.64,2.64,0,0,1,1.12.18,2.4,2.4,0,0,1,.93.63,3.36,3.36,0,0,1,.74,2.31v3.89h-1.83v-3.72a2.22,2.22,0,0,0-.37-1.37,1.3,1.3,0,0,0-.54-.38,1.34,1.34,0,0,0-.66-.08,1.64,1.64,0,0,0-1.28.52,2,2,0,0,0-.52,1.47v3.56Z" transform="translate(-311.04 -311.21)" style="fill: #fff"></path><path d="M413.09,563.21a3.92,3.92,0,0,1-1.84-.43,3.33,3.33,0,0,1-1.26-1.21,3.71,3.71,0,0,1-.45-1.81,3.85,3.85,0,0,1,.44-1.85,3.36,3.36,0,0,1,1.25-1.26,4,4,0,0,1,3.66,0,3.12,3.12,0,0,1,1.21,1.18,3.39,3.39,0,0,1,.44,1.67v.64h-5.29a1.44,1.44,0,0,0,.15.65,1.63,1.63,0,0,0,.39.55,1.78,1.78,0,0,0,.57.36,2,2,0,0,0,.68.12,1.63,1.63,0,0,0,.89-.24,1.4,1.4,0,0,0,.56-.62h1.79a3.18,3.18,0,0,1-1.75,2A3.69,3.69,0,0,1,413.09,563.21Zm0-5.62a1.83,1.83,0,0,0-1.15.36,1.62,1.62,0,0,0-.44.5,1.69,1.69,0,0,0-.21.62h3.46a1.3,1.3,0,0,0-.14-.57,1.35,1.35,0,0,0-.35-.47,1.68,1.68,0,0,0-1.17-.43Z" transform="translate(-311.04 -311.21)" style="fill: #fff"></path><path d="M417.54,563.21v-10h2v10Z" transform="translate(-311.04 -311.21)" style="fill: #fff"></path><path d="M424,563.21a3.54,3.54,0,0,1-1.78-.45,3.28,3.28,0,0,1-1.26-1.22,3.87,3.87,0,0,1,0-3.66,3.62,3.62,0,0,1,2.16-1.56,3.7,3.7,0,0,1,2.67.34,3.33,3.33,0,0,1,1.25,1.22,3.87,3.87,0,0,1,0,3.66,3.28,3.28,0,0,1-1.26,1.22A3.57,3.57,0,0,1,424,563.21Zm0-1.49a1.79,1.79,0,0,0,.65-.13,1.64,1.64,0,0,0,.55-.38,2.46,2.46,0,0,0,0-3,1.53,1.53,0,0,0-.54-.37,1.65,1.65,0,0,0-.65-.14,1.76,1.76,0,0,0-1.2.51,2.5,2.5,0,0,0,0,3,1.71,1.71,0,0,0,.54.38A1.75,1.75,0,0,0,424,561.72Z" transform="translate(-311.04 -311.21)" style="fill: #fff"></path><path d="M428.54,563.21v-7.82h1.85l.2,1.46a3.26,3.26,0,0,1,3-1.64v2.11H433a3.15,3.15,0,0,0-1.21.21,1.61,1.61,0,0,0-.84.7,2.67,2.67,0,0,0-.29,1.38v3.55Z" transform="translate(-311.04 -311.21)" style="fill: #fff"></path><path d="M436.76,563.21a4.08,4.08,0,0,1-1.59-.29,2.85,2.85,0,0,1-1.14-.8,2.28,2.28,0,0,1-.49-1.19h1.76a1.14,1.14,0,0,0,.44.67,1.53,1.53,0,0,0,.95.27,1.29,1.29,0,0,0,.83-.22.74.74,0,0,0,.2-.23.82.82,0,0,0,.07-.3.57.57,0,0,0-.09-.36.58.58,0,0,0-.29-.22,8,8,0,0,0-1.06-.31,8.93,8.93,0,0,1-.89-.23,4,4,0,0,1-.83-.34,1.75,1.75,0,0,1-.61-.54,1.38,1.38,0,0,1-.24-.81,1.84,1.84,0,0,1,.19-.83,1.82,1.82,0,0,1,.53-.67,3.67,3.67,0,0,1,2-.6,3.63,3.63,0,0,1,2,.55,2.15,2.15,0,0,1,.59.68,2.3,2.3,0,0,1,.27.84h-1.65c-.11-.49-.48-.74-1.14-.74a1.3,1.3,0,0,0-.77.19.76.76,0,0,0-.19.21.59.59,0,0,0-.07.26c0,.2.14.35.4.48a6.33,6.33,0,0,0,1.05.31c.48.11.91.24,1.31.36a2.19,2.19,0,0,1,.94.58,1.55,1.55,0,0,1,.36,1.12,1.89,1.89,0,0,1-.32,1.13,2.3,2.3,0,0,1-1,.78A3.7,3.7,0,0,1,436.76,563.21Z" transform="translate(-311.04 -311.21)" style="fill: #fff"></path><path d="M530.54,510.21h-158v20h158Z" transform="translate(-311.04 -311.21)" style="fill: #f7cb46"></path><path d="M379.54,521.21v-10h7v1.46h-5v2.8h4v1.41h-4v4.28Z" transform="translate(-311.04 -311.21)" style="fill: #2d3b49"></path><path d="M390.55,521.21a4.11,4.11,0,0,1-2-.51,4,4,0,0,1-1.45-1.4,4.39,4.39,0,0,1,0-4.18,4,4,0,0,1,1.45-1.4,4.11,4.11,0,0,1,2-.51,4,4,0,0,1,2,.5,3.83,3.83,0,0,1,1.47,1.41,4.46,4.46,0,0,1,0,4.18,4,4,0,0,1-1.45,1.4A4,4,0,0,1,390.55,521.21Zm0-1.71a1.79,1.79,0,0,0,.72-.15,1.92,1.92,0,0,0,.59-.42,2.77,2.77,0,0,0,0-3.44,1.79,1.79,0,0,0-.62-.42,1.9,1.9,0,0,0-1.48,0,1.93,1.93,0,0,0-.63.42,2.88,2.88,0,0,0,0,3.44,1.84,1.84,0,0,0,1.42.57Z" transform="translate(-311.04 -311.21)" style="fill: #2d3b49"></path><path d="M398,521.2a2,2,0,0,1-1-.18,2.15,2.15,0,0,1-.81-.63,3.71,3.71,0,0,1-.63-2.3v-3.88h1.58v3.71a2.5,2.5,0,0,0,.32,1.37,1.29,1.29,0,0,0,.47.37,1.11,1.11,0,0,0,.57.09,1.3,1.3,0,0,0,.57-.14,1.51,1.51,0,0,0,.46-.38,2.23,2.23,0,0,0,.44-1.47v-3.55h1.58v6.92h-1.4L400,520a2.45,2.45,0,0,1-.83,1A2.21,2.21,0,0,1,398,521.2Z" transform="translate(-311.04 -311.21)" style="fill: #2d3b49"></path><path d="M403.54,521.21v-7.8h1.62l.15,1.3a2.67,2.67,0,0,1,1-1.09,2.64,2.64,0,0,1,1.47-.41,2.53,2.53,0,0,1,2.06.91,4.13,4.13,0,0,1,.74,2.6v4.37h-1.85v-4.18a2.75,2.75,0,0,0-.37-1.54,1.47,1.47,0,0,0-.54-.42,1.37,1.37,0,0,0-.66-.1,1.54,1.54,0,0,0-.7.14,1.65,1.65,0,0,0-.57.45,2.48,2.48,0,0,0-.51,1.65v4Z" transform="translate(-311.04 -311.21)" style="fill: #2d3b49"></path><path d="M414.69,521.2a2.79,2.79,0,0,1-1.64-.51A3.58,3.58,0,0,1,412,519.3a5,5,0,0,1,0-4,3.58,3.58,0,0,1,1.09-1.39,2.78,2.78,0,0,1,1.64-.5,2.59,2.59,0,0,1,1.29.31,2.53,2.53,0,0,1,.89.89v-4.38h1.67V521h-1.45l-.17-1.08a3.24,3.24,0,0,1-.85.88A2.14,2.14,0,0,1,414.69,521.2Zm.36-1.67a1.64,1.64,0,0,0,.72-.16,1.73,1.73,0,0,0,.61-.47,2.78,2.78,0,0,0,0-3.21,1.85,1.85,0,0,0-.61-.47,1.8,1.8,0,0,0-1.44,0,1.82,1.82,0,0,0-.6.47,2.14,2.14,0,0,0-.41.74,2.43,2.43,0,0,0-.12.85,2.55,2.55,0,0,0,.13.87,2.13,2.13,0,0,0,.4.74,1.72,1.72,0,0,0,.6.48A1.64,1.64,0,0,0,415.05,519.53Z" transform="translate(-311.04 -311.21)" style="fill: #2d3b49"></path><path d="M422.27,521.21a3.28,3.28,0,0,1-1.54-.32,2.06,2.06,0,0,1-.89-.84,2.33,2.33,0,0,1-.3-1.16,2.12,2.12,0,0,1,.2-1,2.09,2.09,0,0,1,.59-.76,3.65,3.65,0,0,1,2.45-.67h1.85v-.15a1.69,1.69,0,0,0-.09-.63,1.42,1.42,0,0,0-.34-.53,1.53,1.53,0,0,0-1.06-.37,1.78,1.78,0,0,0-1,.28,1.2,1.2,0,0,0-.34.37,1.29,1.29,0,0,0-.19.47h-1.83a2.75,2.75,0,0,1,.53-1.44,3.08,3.08,0,0,1,1.23-1,3.88,3.88,0,0,1,1.64-.33,3.4,3.4,0,0,1,2.45.82,2.92,2.92,0,0,1,.71,1.05,3.18,3.18,0,0,1,.2,1.26v4.7h-1.61l-.18-1.28a2.62,2.62,0,0,1-1,1.09,2.47,2.47,0,0,1-1.43.32Zm.43-1.54a1.61,1.61,0,0,0,.68-.13,1.53,1.53,0,0,0,.55-.43,2.64,2.64,0,0,0,.56-1.37H422.9a1.61,1.61,0,0,0-1.08.28.92.92,0,0,0-.24.31,1.1,1.1,0,0,0-.08.4.88.88,0,0,0,.08.39.78.78,0,0,0,.24.3A1.39,1.39,0,0,0,422.7,519.67Z" transform="translate(-311.04 -311.21)" style="fill: #2d3b49"></path><path d="M431.27,521.17a2.87,2.87,0,0,1-1.82-.54,2.42,2.42,0,0,1-.57-.89,2.34,2.34,0,0,1-.12-1v-3.05h-1.22V514.1h1.22l.21-1.89h1.62v1.89h2v1.54h-2v3.1a.9.9,0,0,0,.22.72,1.35,1.35,0,0,0,.79.19h.89v1.56Z" transform="translate(-311.04 -311.21)" style="fill: #2d3b49"></path><path d="M434.54,512.45a.93.93,0,0,1-.72-.32,1.1,1.1,0,0,1-.2-.37,1.27,1.27,0,0,1-.08-.44,1.32,1.32,0,0,1,.08-.44,1.15,1.15,0,0,1,.2-.36,1,1,0,0,1,.72-.31,1,1,0,0,1,.72.31,1.17,1.17,0,0,1,.21.36,1.31,1.31,0,0,1,.07.44,1.27,1.27,0,0,1-.07.44,1.12,1.12,0,0,1-.21.37A.91.91,0,0,1,434.54,512.45Zm-.8,8.76v-7.64h1.6v7.64Z" transform="translate(-311.04 -311.21)" style="fill: #2d3b49"></path><path d="M440,521.21a3.23,3.23,0,0,1-1.78-.51,3.63,3.63,0,0,1-1.26-1.4,5,5,0,0,1,0-4.18,3.67,3.67,0,0,1,2.16-1.78,3.31,3.31,0,0,1,2.67.38,3.68,3.68,0,0,1,1.25,1.4,5,5,0,0,1,0,4.18,3.56,3.56,0,0,1-1.26,1.4A3.25,3.25,0,0,1,440,521.21Zm0-1.71a1.58,1.58,0,0,0,1.15-.57,3.21,3.21,0,0,0,0-3.44,1.72,1.72,0,0,0-.55-.42,1.47,1.47,0,0,0-.65-.15,1.51,1.51,0,0,0-.65.15,1.58,1.58,0,0,0-.54.42,3.16,3.16,0,0,0,0,3.44,1.5,1.5,0,0,0,.56.44A1.32,1.32,0,0,0,440,519.5Z" transform="translate(-311.04 -311.21)" style="fill: #2d3b49"></path><path d="M444.54,521.21v-7.8h1.63l.15,1.3a2.52,2.52,0,0,1,.95-1.09,2.69,2.69,0,0,1,1.48-.41,2.43,2.43,0,0,1,1.12.21,2.51,2.51,0,0,1,.92.7,4.13,4.13,0,0,1,.75,2.6v4.37h-1.85v-4.18a2.75,2.75,0,0,0-.37-1.54,1.39,1.39,0,0,0-.54-.42,1.35,1.35,0,0,0-.66-.1,1.54,1.54,0,0,0-.7.14,1.69,1.69,0,0,0-.58.45,2.58,2.58,0,0,0-.49,1.65v4Z" transform="translate(-311.04 -311.21)" style="fill: #2d3b49"></path><path d="M459.09,521.21a4.46,4.46,0,0,1-1.87-.37,2.8,2.8,0,0,1-1.24-1,2.74,2.74,0,0,1-.44-1.55,2.89,2.89,0,0,1,.54-1.7,3.5,3.5,0,0,1,1.57-1.22,3.32,3.32,0,0,1-.6-.92,2.38,2.38,0,0,1-.18-.91,2.18,2.18,0,0,1,.34-1.16,2.23,2.23,0,0,1,1-.82,3.3,3.3,0,0,1,1.49-.31,3.23,3.23,0,0,1,1.49.32,2.27,2.27,0,0,1,.93.86,2.43,2.43,0,0,1,.29,1.16h-1.71a.94.94,0,0,0-.3-.78,1,1,0,0,0-.71-.25,1.13,1.13,0,0,0-.41.05,1.07,1.07,0,0,0-.36.21.81.81,0,0,0-.21.31.75.75,0,0,0-.07.36,1.3,1.3,0,0,0,.22.72,7.42,7.42,0,0,0,.65.83l2.73,2.68c.2-.31.41-.67.62-1.08l.31-.62H465l-.49.94a13.32,13.32,0,0,1-1.16,1.91l2.24,2.21H463.4L462.32,520a4.65,4.65,0,0,1-1.51.95A5.56,5.56,0,0,1,459.09,521.21Zm-1.81-3.06a1.39,1.39,0,0,0,.12.63,1.43,1.43,0,0,0,.39.52,1.93,1.93,0,0,0,1.36.46,2.79,2.79,0,0,0,1.14-.22,3,3,0,0,0,1-.64l-2.58-2.53a2.37,2.37,0,0,0-1.06.76,1.74,1.74,0,0,0-.3,1Z" transform="translate(-311.04 -311.21)" style="fill: #2d3b49"></path><path d="M468.54,521.21v-10h4.07a5.31,5.31,0,0,1,2.2.4,2.83,2.83,0,0,1,1.31,1.1,3,3,0,0,1,.42,1.57,2.79,2.79,0,0,1-.41,1.51,2.87,2.87,0,0,1-1.31,1.12,5,5,0,0,1-2.23.42h-2.06v3.88Zm2-5.36h1.95a2.26,2.26,0,0,0,1.52-.42,1.61,1.61,0,0,0,.37-.56,1.36,1.36,0,0,0,.09-.63,1.39,1.39,0,0,0-.09-.64,1.49,1.49,0,0,0-.37-.55,2.21,2.21,0,0,0-1.52-.43h-1.95Z" transform="translate(-311.04 -311.21)" style="fill: #2d3b49"></path><path d="M479.3,521.21a3.39,3.39,0,0,1-1.56-.32,2.08,2.08,0,0,1-.9-.84,2.33,2.33,0,0,1-.3-1.16,2.27,2.27,0,0,1,.2-1,2.06,2.06,0,0,1,.61-.76,3.62,3.62,0,0,1,2.4-.67h1.87v-.15a1.5,1.5,0,0,0-.08-.63,1.55,1.55,0,0,0-.34-.53,1.65,1.65,0,0,0-1.08-.37,1.79,1.79,0,0,0-1,.28,1.24,1.24,0,0,0-.35.37,1.29,1.29,0,0,0-.19.47h-1.85a2.73,2.73,0,0,1,.54-1.44,3,3,0,0,1,1.24-1,3.94,3.94,0,0,1,1.66-.33,3.51,3.51,0,0,1,2.47.82,2.92,2.92,0,0,1,.71,1.05,3.18,3.18,0,0,1,.2,1.26v4.7h-1.62l-.18-1.28a2.77,2.77,0,0,1-.91,1A2.62,2.62,0,0,1,479.3,521.21Zm.44-1.55a1.46,1.46,0,0,0,.68-.12,1.65,1.65,0,0,0,.56-.43,2.85,2.85,0,0,0,.58-1.37h-1.62a1.62,1.62,0,0,0-1.09.28.85.85,0,0,0-.24.32.86.86,0,0,0-.09.39,1,1,0,0,0,.08.38.76.76,0,0,0,.25.31A1.34,1.34,0,0,0,479.74,519.66Z" transform="translate(-311.04 -311.21)" style="fill: #2d3b49"></path><path d="M488.24,521.17a2.85,2.85,0,0,1-1.81-.54,2.53,2.53,0,0,1-.56-.89,2.34,2.34,0,0,1-.12-1v-3.05h-1.21V514.1h1.21l.21-1.89h1.64v1.89h1.94v1.54H487.6v3.1a1,1,0,0,0,0,.38.88.88,0,0,0,.19.34,1.23,1.23,0,0,0,.77.19h.89v1.56Z" transform="translate(-311.04 -311.21)" style="fill: #2d3b49"></path><path d="M490.54,521.21v-11h1.59v4.58a2.54,2.54,0,0,1,.83-1,2,2,0,0,1,1.2-.36,1.89,1.89,0,0,1,1,.2,2.29,2.29,0,0,1,.8.69,4.6,4.6,0,0,1,.62,2.55v4.28H495v-4.1a2.82,2.82,0,0,0-.32-1.5,1.15,1.15,0,0,0-.46-.42.92.92,0,0,0-.56-.09,1.19,1.19,0,0,0-.61.14,1.46,1.46,0,0,0-.5.43,2.71,2.71,0,0,0-.44,1.62v3.92Z" transform="translate(-311.04 -311.21)" style="fill: #2d3b49"></path><path d="M499.63,521.21l-2.09-7h1.83l1.2,5,1.44-5h2.06l1.44,5,1.21-5h1.82l-2.1,7h-1.91L503,516l-1.44,5.2Z" transform="translate(-311.04 -311.21)" style="fill: #2d3b49"></path><path d="M511.3,521.21a3.39,3.39,0,0,1-1.56-.32,2.08,2.08,0,0,1-.9-.84,2.33,2.33,0,0,1-.3-1.16,2.27,2.27,0,0,1,.2-1,2.06,2.06,0,0,1,.61-.76,3.62,3.62,0,0,1,2.4-.67h1.87v-.15a1.5,1.5,0,0,0-.08-.63,1.55,1.55,0,0,0-.34-.53,1.6,1.6,0,0,0-1.08-.37,1.78,1.78,0,0,0-1,.28,1.54,1.54,0,0,0-.36.36,1.42,1.42,0,0,0-.19.48h-1.85a2.73,2.73,0,0,1,.54-1.44,3,3,0,0,1,1.24-1,3.94,3.94,0,0,1,1.66-.33,3.51,3.51,0,0,1,2.47.82,2.92,2.92,0,0,1,.71,1.05,3,3,0,0,1,.2,1.26v4.7h-1.62l-.18-1.28a2.77,2.77,0,0,1-.91,1A2.62,2.62,0,0,1,511.3,521.21Zm.44-1.55a1.47,1.47,0,0,0,.68-.13,1.5,1.5,0,0,0,.55-.42,2.74,2.74,0,0,0,.57-1.37H512a1.63,1.63,0,0,0-1.09.28.82.82,0,0,0-.23.32.86.86,0,0,0-.09.39.87.87,0,0,0,.32.69A1.39,1.39,0,0,0,511.74,519.66Z" transform="translate(-311.04 -311.21)" style="fill: #2d3b49"></path><path d="M517.9,524.16l1.44-3.49H519l-2.43-6.46h1.76l1.75,4.87,1.82-4.87h1.67l-4,10Z" transform="translate(-311.04 -311.21)" style="fill: #2d3b49"></path><path d="M740.68,529.63,660,641.27a138.22,138.22,0,0,1,38.25-242.9Z" transform="translate(-311.04 -311.21)" style="fill: #5273fc"></path><path d="M879,529.61A137.91,137.91,0,0,1,660.07,641.09l81.06-111.48V391.83A137.81,137.81,0,0,1,879,529.64Z" transform="translate(-311.04 -311.21)" style="fill: #19ad4a"></path><path d="M888.81,536.7A147.92,147.92,0,0,1,669.88,659" transform="translate(-311.04 -311.21)" style="fill: none;stroke: #293b4a;stroke-miterlimit: 10;stroke-width: 2px"></path><path d="M885.54,498.58q1.46,7.55,2.18,15.25" transform="translate(-311.04 -311.21)" style="fill: none;stroke: #293b4a;stroke-miterlimit: 10;stroke-width: 2px"></path><path d="M594.72,501.85A149.17,149.17,0,0,1,710.18,384.21" transform="translate(-311.04 -311.21)" style="fill: none;stroke: #293b4a;stroke-miterlimit: 10;stroke-width: 2px"></path><path d="M592.9,541.06a198.06,198.06,0,0,1,.73-32.68" transform="translate(-311.04 -311.21)" style="fill: none;stroke: #293b4a;stroke-miterlimit: 10;stroke-width: 2px"></path><path d="M595.81,559.57c-.87-2.9-1.6-5.81-2.18-8.71" transform="translate(-311.04 -311.21)" style="fill: none;stroke: #293b4a;stroke-miterlimit: 10;stroke-width: 2px"></path><path d="M740.68,391.83V530.17L698.2,398.54A136.48,136.48,0,0,1,740.68,391.83Z" transform="translate(-311.04 -311.21)" style="fill: #fc0"></path><path d="M715.13,420.15a4.46,4.46,0,0,1-2-.41,3.14,3.14,0,0,1-1.31-1.14,3.41,3.41,0,0,1-.55-1.64h1.89a1.83,1.83,0,0,0,.66,1.09,2,2,0,0,0,1.3.44,1.62,1.62,0,0,0,.76-.16,1.79,1.79,0,0,0,.62-.47,2.29,2.29,0,0,0,.54-1.56,2.14,2.14,0,0,0-.54-1.53,1.74,1.74,0,0,0-.61-.43,1.7,1.7,0,0,0-.74-.13,2,2,0,0,0-1.17.33,1.8,1.8,0,0,0-.7.84h-1.86l.9-6.12h5.85V411h-4.4l-.48,2.48a2.5,2.5,0,0,1,.9-.6,3.3,3.3,0,0,1,1.28-.23,3.22,3.22,0,0,1,1.88.51,3.18,3.18,0,0,1,1.15,1.34,4.23,4.23,0,0,1,.39,1.82,4.14,4.14,0,0,1-.47,2,3.57,3.57,0,0,1-1.33,1.37A3.82,3.82,0,0,1,715.13,420.15Z" transform="translate(-311.04 -311.21)" style="fill: #293b4a"></path><path d="M724.53,414.62a2.42,2.42,0,0,1-1.2-.32,2.39,2.39,0,0,1-.85-.93,3,3,0,0,1-.32-1.43,3,3,0,0,1,.32-1.42,2.42,2.42,0,0,1,.85-.94,2.46,2.46,0,0,1,1.21-.32,2.2,2.2,0,0,1,2,1.25,2.93,2.93,0,0,1,.31,1.43,2.87,2.87,0,0,1-.31,1.42,2.21,2.21,0,0,1-2,1.26Zm0-1.35a.84.84,0,0,0,.38-.08,1,1,0,0,0,.31-.25,1.53,1.53,0,0,0,.29-1,1.58,1.58,0,0,0-.28-1,1.08,1.08,0,0,0-.31-.26.85.85,0,0,0-.38-.09.82.82,0,0,0-.38.09,1,1,0,0,0-.32.26,1.93,1.93,0,0,0,0,2,.93.93,0,0,0,.31.25,1,1,0,0,0,.37.08ZM724,420l5.42-10.53h1.71L725.73,420Zm6.67.18a2.23,2.23,0,0,1-1.2-.32,2.39,2.39,0,0,1-.85-.93,3.43,3.43,0,0,1,0-2.85,2.33,2.33,0,0,1,.85-.91,2.35,2.35,0,0,1,2.4,0,2.31,2.31,0,0,1,.84.91,3.33,3.33,0,0,1,0,2.85,2.37,2.37,0,0,1-.84.93,2.26,2.26,0,0,1-1.21.32Zm0-1.34a.85.85,0,0,0,.38-.09,1,1,0,0,0,.31-.24,1.52,1.52,0,0,0,.28-1,1.61,1.61,0,0,0-.28-1,1.07,1.07,0,0,0-.31-.25.85.85,0,0,0-.76,0,.84.84,0,0,0-.31.25,1.56,1.56,0,0,0-.29,1,1.53,1.53,0,0,0,.29,1,.81.81,0,0,0,.31.24.78.78,0,0,0,.37.09Z" transform="translate(-311.04 -311.21)" style="fill: #293b4a"></path><path d="M652,529.07a6,6,0,0,1-2.5-.51,4.21,4.21,0,0,1-1.8-1.6,5.14,5.14,0,0,1-.72-2.69h2.52a2.73,2.73,0,0,0,.67,1.8,2.37,2.37,0,0,0,.84.57,3.15,3.15,0,0,0,1.92,0,2.41,2.41,0,0,0,.79-.52,2.25,2.25,0,0,0,.45-.76,2.2,2.2,0,0,0,.14-.88,2,2,0,0,0-.79-1.76,3.3,3.3,0,0,0-2-.6h-1v-2.2h1.06a2.81,2.81,0,0,0,1.7-.51,1.91,1.91,0,0,0,.48-.61,2.14,2.14,0,0,0,.2-.76,2.09,2.09,0,0,0-.12-.78,1.65,1.65,0,0,0-.4-.66,2.23,2.23,0,0,0-2.93.12,2.37,2.37,0,0,0-.61,1.49h-2.5a4.57,4.57,0,0,1,.35-1.76,4.41,4.41,0,0,1,1-1.46,4.56,4.56,0,0,1,3.28-1.18,5,5,0,0,1,2.43.54,3.66,3.66,0,0,1,1.5,1.42,3.93,3.93,0,0,1,.51,2,3.39,3.39,0,0,1-.65,2.09,3.2,3.2,0,0,1-1.61,1.15,3.16,3.16,0,0,1,1.89,1.2,3.8,3.8,0,0,1,.74,2.42,4.55,4.55,0,0,1-.55,2.23,4.23,4.23,0,0,1-1.63,1.62A5.24,5.24,0,0,1,652,529.07Z" transform="translate(-311.04 -311.21)" style="fill: #293b4a"></path><path d="M666.67,529.07a6.91,6.91,0,0,1-2.85-.53,4.56,4.56,0,0,1-1.87-1.48,4.24,4.24,0,0,1-.79-2.14h2.69a2.42,2.42,0,0,0,.95,1.42,3,3,0,0,0,1.87.57,2.67,2.67,0,0,0,1.09-.2,2.49,2.49,0,0,0,.88-.61,2.84,2.84,0,0,0,.77-2,2.59,2.59,0,0,0-.17-1.07,2.8,2.8,0,0,0-.6-.93,2.72,2.72,0,0,0-1.92-.73,3.24,3.24,0,0,0-1.68.43,2.57,2.57,0,0,0-1,1.1h-2.64l1.29-8H671v2.22h-6.29l-.69,3.22a3.6,3.6,0,0,1,1.29-.78,5,5,0,0,1,3.55-.11,4.57,4.57,0,0,1,2.61,2.22,5,5,0,0,1,.56,2.35,4.86,4.86,0,0,1-.68,2.59,4.73,4.73,0,0,1-1.89,1.79A5.76,5.76,0,0,1,666.67,529.07Z" transform="translate(-311.04 -311.21)" style="fill: #293b4a"></path><path d="M678.86,521.32a3.54,3.54,0,0,1-1.79-.46,3.27,3.27,0,0,1-1.28-1.3,4.45,4.45,0,0,1,0-4,3.33,3.33,0,0,1,1.28-1.3,3.6,3.6,0,0,1,1.81-.45,3.5,3.5,0,0,1,1.79.45,3.31,3.31,0,0,1,1.27,1.3,4.06,4.06,0,0,1,.48,2,3.93,3.93,0,0,1-.48,2,3.31,3.31,0,0,1-1.27,1.3A3.59,3.59,0,0,1,678.86,521.32Zm0-1.89a1.24,1.24,0,0,0,.57-.12,1.45,1.45,0,0,0,.47-.34,2.5,2.5,0,0,0,0-2.82,1.26,1.26,0,0,0-.47-.36,1.29,1.29,0,0,0-.58-.13,1.46,1.46,0,0,0-.55.11,1.32,1.32,0,0,0-.47.34,2.09,2.09,0,0,0-.42,1.41,2.14,2.14,0,0,0,.42,1.41,1.34,1.34,0,0,0,.46.36A1.25,1.25,0,0,0,678.86,519.43Zm-.78,9.4,8.15-14.77h2.58l-8.14,14.76Zm10,.25a3.64,3.64,0,0,1-1.79-.46,3.27,3.27,0,0,1-1.28-1.3,3.92,3.92,0,0,1-.47-2,3.83,3.83,0,0,1,.47-2,3.37,3.37,0,0,1,1.28-1.26,3.87,3.87,0,0,1,1.8-.45,3.93,3.93,0,0,1,1.8.45,3.45,3.45,0,0,1,1.27,1.3,4,4,0,0,1,.47,2,4.06,4.06,0,0,1-.47,2,3.38,3.38,0,0,1-1.27,1.3,3.78,3.78,0,0,1-1.81.4Zm0-1.89a1.24,1.24,0,0,0,.57-.11,1.38,1.38,0,0,0,.47-.36,2,2,0,0,0,.43-1.4,2,2,0,0,0-.43-1.41,1.26,1.26,0,0,0-1-.49,1.39,1.39,0,0,0-.57.12,1.4,1.4,0,0,0-.47.37,2,2,0,0,0-.42,1.41,2,2,0,0,0,.42,1.4,1.35,1.35,0,0,0,.47.35A1.27,1.27,0,0,0,688.11,527.19Z" transform="translate(-311.04 -311.21)" style="fill: #293b4a"></path><path d="M781,565a7.43,7.43,0,0,1-3.59-.79,6.44,6.44,0,0,1-2.35-2.11,9.12,9.12,0,0,1-1.28-3,14.37,14.37,0,0,1-.39-3.33,15.42,15.42,0,0,1,.89-5.51,8.09,8.09,0,0,1,2.56-3.64,6.38,6.38,0,0,1,4-1.27,6.69,6.69,0,0,1,3.31.76,5.76,5.76,0,0,1,2.11,2,6.35,6.35,0,0,1,.89,2.68H783.9a2.93,2.93,0,0,0-3.13-2.59,3.35,3.35,0,0,0-1.69.43,3.25,3.25,0,0,0-1.24,1.23,9.77,9.77,0,0,0-1.19,5.08,5,5,0,0,1,2-1.84,5.72,5.72,0,0,1,2.88-.74,6,6,0,0,1,2.34.45,5.89,5.89,0,0,1,2,1.34,6,6,0,0,1,1.71,4.35,6.35,6.35,0,0,1-3.14,5.53A6.66,6.66,0,0,1,781,565Zm-.2-2.95a3.4,3.4,0,0,0,1.34-.22,3.56,3.56,0,0,0,1.16-.71,3.2,3.2,0,0,0,.74-1.08,3,3,0,0,0,.23-1.29,3.19,3.19,0,0,0-.22-1.33,3.25,3.25,0,0,0-.75-1.11,4,4,0,0,0-4.34-.47,3.31,3.31,0,0,0-.69,5.27,3.56,3.56,0,0,0,2.49.9Z" transform="translate(-311.04 -311.21)" style="fill: #293b4a"></path><path d="M801.13,565a7.37,7.37,0,0,1-4.32-1.18,7.69,7.69,0,0,1-2.89-3.48,12.68,12.68,0,0,1-1-5.13,12.42,12.42,0,0,1,1-5.11,7.58,7.58,0,0,1,2.88-3.51,8.47,8.47,0,0,1,8.64,0,7.55,7.55,0,0,1,2.89,3.49,12.59,12.59,0,0,1,1,5.11,12.35,12.35,0,0,1-1,5.13,7.53,7.53,0,0,1-2.88,3.49A7.3,7.3,0,0,1,801.13,565Zm0-3.11a4,4,0,0,0,1.92-.46,4.06,4.06,0,0,0,1.49-1.33,9.73,9.73,0,0,0,0-9.82,4.26,4.26,0,0,0-1.49-1.31,4.2,4.2,0,0,0-1.92-.48,4.14,4.14,0,0,0-1.92.48,4.29,4.29,0,0,0-1.5,1.31,9.86,9.86,0,0,0,0,9.82,4.14,4.14,0,0,0,1.49,1.33A4,4,0,0,0,801.13,561.9Z" transform="translate(-311.04 -311.21)" style="fill: #293b4a"></path><path d="M819.23,555.05a4.32,4.32,0,0,1-2.27-.58,4.17,4.17,0,0,1-1.62-1.66,5.8,5.8,0,0,1,0-5.14A4.2,4.2,0,0,1,817,546a4.68,4.68,0,0,1,4.55,0,4.31,4.31,0,0,1,1.61,1.67,5.89,5.89,0,0,1,0,5.14,4.17,4.17,0,0,1-1.62,1.66A4.34,4.34,0,0,1,819.23,555.05Zm0-2.4a1.71,1.71,0,0,0,.71-.16,1.75,1.75,0,0,0,.59-.45,2.59,2.59,0,0,0,.55-1.8,2.65,2.65,0,0,0-.54-1.82A1.63,1.63,0,0,0,820,548a1.65,1.65,0,0,0-.72-.17,1.62,1.62,0,0,0-.72.17,1.76,1.76,0,0,0-.6.45,2.76,2.76,0,0,0-.54,1.82,2.69,2.69,0,0,0,.54,1.8,2,2,0,0,0,.59.46A1.83,1.83,0,0,0,819.23,552.65Zm-1,12,10.3-19h3.25l-10.29,19ZM831,565a4.54,4.54,0,0,1-2.27-.58,4.24,4.24,0,0,1-1.62-1.66,5.23,5.23,0,0,1-.59-2.58,5.16,5.16,0,0,1,.59-2.56,4.35,4.35,0,0,1,1.62-1.65,4.59,4.59,0,0,1,2.29-.58,4.48,4.48,0,0,1,2.26.58,4.3,4.3,0,0,1,1.6,1.65,5.7,5.7,0,0,1,0,5.13,4.22,4.22,0,0,1-1.6,1.67,4.5,4.5,0,0,1-2.32.58Zm0-2.41a1.75,1.75,0,0,0,.72-.15,1.79,1.79,0,0,0,.6-.46,2.68,2.68,0,0,0,.53-1.8,2.8,2.8,0,0,0-.53-1.77,1.89,1.89,0,0,0-.6-.45,1.61,1.61,0,0,0-.72-.16,1.64,1.64,0,0,0-.72.16,1.75,1.75,0,0,0-.59.45,2.65,2.65,0,0,0-.54,1.82,2.59,2.59,0,0,0,.54,1.8,1.6,1.6,0,0,0,.58.42,1.5,1.5,0,0,0,.69.14Z" transform="translate(-311.04 -311.21)" style="fill: #293b4a"></path></svg>