<svg xmlns="http://www.w3.org/2000/svg" xmlns:xlink="http://www.w3.org/1999/xlink" id="Layer_1" data-name="Layer 1" viewBox="0 0 192.14 136.55"><defs><clipPath id="clip-path" transform="translate(-503.77 -531.28)"><rect x="503.77" y="531.28" width="192.14" height="136.55" style="fill: none"></rect></clipPath></defs><g style="clip-path: url(#clip-path)"><g><path d="M656.18,565.83h-118a10,10,0,0,0-10,10v82a10,10,0,0,0,10,10h118a10,10,0,0,0,10-10v-82A10,10,0,0,0,656.18,565.83Z" transform="translate(-503.77 -531.28)" style="fill: #fff"></path><path d="M674.68,610.29a11.38,11.38,0,1,0-16.06-1A11.37,11.37,0,0,0,674.68,610.29Z" transform="translate(-503.77 -531.28)" style="fill: #f1f3f5;stroke: #293b4a;stroke-miterlimit: 10;stroke-width: 2px"></path><path d="M681.79,621h-28l-6.6,6.6,6.53,6.52v25.11h41.21V634.15Z" transform="translate(-503.77 -531.28)" style="fill: #f1f3f5;stroke: #293b4a;stroke-miterlimit: 10;stroke-width: 2px"></path><path d="M539.78,659.26H653.69" transform="translate(-503.77 -531.28)" style="fill: none;stroke: #293b4a;stroke-miterlimit: 10;stroke-width: 2px"></path><path d="M549.82,608.77h18.77" transform="translate(-503.77 -531.28)" style="fill: none;stroke: #293b4a;stroke-miterlimit: 10;stroke-width: 2px"></path><path d="M646.18,615.62H617.54" transform="translate(-503.77 -531.28)" style="fill: none;stroke: #19ad4a;stroke-miterlimit: 10;stroke-width: 2px"></path><path d="M628,597.54l18.16,18.08L628.07,633.7" transform="translate(-503.77 -531.28)" style="fill: none;stroke: #19ad4a;stroke-miterlimit: 10;stroke-width: 2px"></path><path d="M539.78,637.89a36,36,0,1,0-36-36A36,36,0,0,0,539.78,637.89Z" transform="translate(-503.77 -531.28)" style="fill: #19ad4a"></path><path d="M615.13,556.47H539.78v89h75.35Z" transform="translate(-503.77 -531.28)" style="fill: #f1f3f5;stroke: #293b4a;stroke-miterlimit: 10;stroke-width: 2px"></path><path d="M549.82,616.83h55.26" transform="translate(-503.77 -531.28)" style="fill: none;stroke: #293b4a;stroke-miterlimit: 10;stroke-width: 2px"></path><path d="M549.82,624.88h55.26" transform="translate(-503.77 -531.28)" style="fill: none;stroke: #293b4a;stroke-miterlimit: 10;stroke-width: 2px"></path><path d="M549.82,632.93h55.26" transform="translate(-503.77 -531.28)" style="fill: none;stroke: #293b4a;stroke-miterlimit: 10;stroke-width: 2px"></path><path d="M586,539.74v9.1l15.07,34.31a6.81,6.81,0,0,1-6.22,9.53H560a6.81,6.81,0,0,1-6.22-9.53l15.08-34.31v-9.1" transform="translate(-503.77 -531.28)" style="fill: #fff"></path><path d="M586,539.74v9.1l15.07,34.31a6.76,6.76,0,0,1-1.42,7.53h0a6.85,6.85,0,0,1-4.8,2H560a6.81,6.81,0,0,1-6.22-9.53l15.08-34.31v-9.1" transform="translate(-503.77 -531.28)" style="fill: none;stroke: #293b4a;stroke-miterlimit: 10;stroke-width: 2px"></path><path d="M565.89,532.28H589" transform="translate(-503.77 -531.28)" style="fill: none;stroke: #293b4a;stroke-miterlimit: 10;stroke-width: 2px"></path><path d="M559.78,569.45a28,28,0,0,0,4.86,2.59,15.37,15.37,0,0,0,6.83,1.18c7.94-.54,13.17-7.71,22.59-6.5" transform="translate(-503.77 -531.28)" style="fill: none;stroke: #293b4a;stroke-miterlimit: 10;stroke-width: 2px"></path><path d="M565.89,540.22H589" transform="translate(-503.77 -531.28)" style="fill: none;stroke: #293b4a;stroke-miterlimit: 10;stroke-width: 2px"></path></g></g></svg>