<svg xmlns="http://www.w3.org/2000/svg" xmlns:xlink="http://www.w3.org/1999/xlink" id="Layer_1" data-name="Layer 1" viewBox="0 0 164.63 131.01"><defs><clipPath id="clip-path" transform="translate(-517.53 -534.05)"><rect x="517.53" y="534.05" width="164.63" height="131.01" style="fill: none"></rect></clipPath></defs><g style="clip-path: url(#clip-path)"><g><path d="M645.53,546.43h-118a10,10,0,0,0-10,10v82a10,10,0,0,0,10,10h118a10,10,0,0,0,10-10v-82A10,10,0,0,0,645.53,546.43Z" transform="translate(-517.53 -534.05)" style="fill: #fff"></path><path d="M624.26,648.92a22.81,22.81,0,1,0-30.83,9.52A22.81,22.81,0,0,0,624.26,648.92Z" transform="translate(-517.53 -534.05)" style="fill: #ffcd00"></path><path d="M679.91,597.43H638.57v41.34h41.34Z" transform="translate(-517.53 -534.05)" style="fill: #19ad4a"></path><path d="M657.75,534.05,670,555.19l12.21,21.15H633.33l12.21-21.15Z" transform="translate(-517.53 -534.05)" style="fill: #5273fd"></path><path d="M539.5,664.4l93.83-107.53" transform="translate(-517.53 -534.05)" style="fill: none;stroke: #293b4a;stroke-miterlimit: 10;stroke-width: 2px"></path><path d="M540.91,558H529.79v14.46h11.12Z" transform="translate(-517.53 -534.05)" style="fill: #fff;stroke: #293b4a;stroke-miterlimit: 10;stroke-width: 2px"></path><path d="M558.07,558H547v14.46h11.12Z" transform="translate(-517.53 -534.05)" style="fill: #fff;stroke: #293b4a;stroke-miterlimit: 10;stroke-width: 2px"></path><path d="M575.23,558H564.11v14.46h11.12Z" transform="translate(-517.53 -534.05)" style="fill: #fff;stroke: #293b4a;stroke-miterlimit: 10;stroke-width: 2px"></path><path d="M592.4,558H581.28v14.46H592.4Z" transform="translate(-517.53 -534.05)" style="fill: #fff;stroke: #293b4a;stroke-miterlimit: 10;stroke-width: 2px"></path><path d="M609.56,558H598.44v14.46h11.12Z" transform="translate(-517.53 -534.05)" style="fill: #fff;stroke: #293b4a;stroke-miterlimit: 10;stroke-width: 2px"></path><path d="M615,572.46V558h11.12" transform="translate(-517.53 -534.05)" style="fill: #fff"></path><path d="M615,572.46V558h11.12" transform="translate(-517.53 -534.05)" style="fill: none;stroke: #293b4a;stroke-miterlimit: 10;stroke-width: 2px"></path><path d="M540.91,579.47H529.79v14.46h11.12Z" transform="translate(-517.53 -534.05)" style="fill: #fff;stroke: #293b4a;stroke-miterlimit: 10;stroke-width: 2px"></path><path d="M558.07,579.47H547v14.46h11.12Z" transform="translate(-517.53 -534.05)" style="fill: #fff;stroke: #293b4a;stroke-miterlimit: 10;stroke-width: 2px"></path><path d="M575.23,579.47H564.11v14.46h11.12Z" transform="translate(-517.53 -534.05)" style="fill: #fff;stroke: #293b4a;stroke-miterlimit: 10;stroke-width: 2px"></path><path d="M592.4,579.47H581.28v14.46H592.4Z" transform="translate(-517.53 -534.05)" style="fill: #fff;stroke: #293b4a;stroke-miterlimit: 10;stroke-width: 2px"></path><path d="M581.28,610.09v-9.46h8.64" transform="translate(-517.53 -534.05)" style="fill: #fff"></path><path d="M581.28,610.09v-9.46h8.64" transform="translate(-517.53 -534.05)" style="fill: none;stroke: #293b4a;stroke-miterlimit: 10;stroke-width: 2px"></path><path d="M598.44,590.18V579.47h11.12" transform="translate(-517.53 -534.05)" style="fill: #fff"></path><path d="M598.44,590.18V579.47h11.12" transform="translate(-517.53 -534.05)" style="fill: none;stroke: #293b4a;stroke-miterlimit: 10;stroke-width: 2px"></path><path d="M540.91,600.94H529.79V615.4h11.12Z" transform="translate(-517.53 -534.05)" style="fill: #fff;stroke: #293b4a;stroke-miterlimit: 10;stroke-width: 2px"></path><path d="M558.07,600.94H547V615.4h11.12Z" transform="translate(-517.53 -534.05)" style="fill: #fff;stroke: #293b4a;stroke-miterlimit: 10;stroke-width: 2px"></path><path d="M575.23,600.94H564.11V615.4h11.12Z" transform="translate(-517.53 -534.05)" style="fill: #fff;stroke: #293b4a;stroke-miterlimit: 10;stroke-width: 2px"></path><path d="M564.11,629.64v-7.23h5.56" transform="translate(-517.53 -534.05)" style="fill: none;stroke: #293b4a;stroke-miterlimit: 10;stroke-width: 2px"></path><path d="M540.91,622.41H529.79v14.46h11.12Z" transform="translate(-517.53 -534.05)" style="fill: #fff;stroke: #293b4a;stroke-miterlimit: 10;stroke-width: 2px"></path><path d="M558.07,622.41H547v14.46h11.12Z" transform="translate(-517.53 -534.05)" style="fill: #fff;stroke: #293b4a;stroke-miterlimit: 10;stroke-width: 2px"></path><path d="M622.26,603a7.25,7.25,0,1,0-7.25-7.25A7.26,7.26,0,0,0,622.26,603Z" transform="translate(-517.53 -534.05)" style="fill: #ff340c"></path></g></g></svg>