<svg xmlns="http://www.w3.org/2000/svg" id="Layer_1" data-name="Layer 1" viewBox="0 0 138 142"><rect y="40" width="138" height="102" rx="10" style="fill: #fff"></rect><path d="M572.34,602.55a13.5,13.5,0,1,0-13.5-13.5A13.49,13.49,0,0,0,572.34,602.55Z" transform="translate(-530.84 -528.55)" style="fill: none;stroke: #293b4a;stroke-miterlimit: 10;stroke-width: 2px"></path><path d="M545.84,640.55c0-22.13,11.86-31,26.5-31s26.5,8.87,26.5,31" transform="translate(-530.84 -528.55)" style="fill: none;stroke: #293b4a;stroke-miterlimit: 10;stroke-width: 2px"></path><path d="M544.84,645.55h55" transform="translate(-530.84 -528.55)" style="fill: none;stroke: #293b4a;stroke-miterlimit: 10;stroke-width: 2px"></path><path d="M598.84,603.55l16.69-9.46h44.31V529.55h-61v74Z" transform="translate(-530.84 -528.55)" style="fill: #ffcd00;stroke: #293b4a;stroke-miterlimit: 10;stroke-width: 2px"></path><path d="M612.84,542.55h33" transform="translate(-530.84 -528.55)" style="fill: none;stroke: #293b4a;stroke-miterlimit: 10;stroke-width: 2px"></path><path d="M612.84,553.55h33" transform="translate(-530.84 -528.55)" style="fill: none;stroke: #293b4a;stroke-miterlimit: 10;stroke-width: 2px"></path><path d="M612.84,565.55h33" transform="translate(-530.84 -528.55)" style="fill: none;stroke: #293b4a;stroke-miterlimit: 10;stroke-width: 2px"></path><path d="M612.84,576.55h33" transform="translate(-530.84 -528.55)" style="fill: none;stroke: #293b4a;stroke-miterlimit: 10;stroke-width: 2px"></path><path d="M631.34,642.55a19.5,19.5,0,1,0-19.5-19.5A19.5,19.5,0,0,0,631.34,642.55Z" transform="translate(-530.84 -528.55)" style="fill: #19ad4a"></path><path d="M630.44,624.34V626h-1.36l-.07-2.87h.41a12.11,12.11,0,0,0,2.55-.24,3.87,3.87,0,0,0,2-1.06h0v0a3.29,3.29,0,0,0,.8-2.38,3,3,0,0,0-.23-1.29,3.14,3.14,0,0,0-.76-1.11h0l0,0a4.14,4.14,0,0,0-5,0h0v0a2.76,2.76,0,0,0-.76,1.09,2.65,2.65,0,0,0-.2.77h-1.47a4,4,0,0,1,2.27-3.28,6.69,6.69,0,0,1,5.36,0,4.1,4.1,0,0,1,1.74,1.5,4.35,4.35,0,0,1,.62,2.36h0v0a4.22,4.22,0,0,1-.67,2.46,4,4,0,0,1-1.85,1.4,8,8,0,0,1-2.87.48l-.51,0Zm-.68,6.71h0a1.17,1.17,0,0,1-.46-.07,1.19,1.19,0,0,1-.38-.25h0a1.27,1.27,0,0,1-.24-.33,1.1,1.1,0,0,1-.08-.4h0a1.14,1.14,0,0,1,.08-.4,1,1,0,0,1,.24-.34h0a1.44,1.44,0,0,1,.39-.25,1.23,1.23,0,0,1,.46-.07h0a1,1,0,0,1,.45.08,1.07,1.07,0,0,1,.38.24h0a1.15,1.15,0,0,1,.25.34l.46-.19-.46.19a.94.94,0,0,1,.07.4v0h0a.83.83,0,0,1-.07.38,1,1,0,0,1-.24.33h0a.85.85,0,0,1-.37.24A1,1,0,0,1,629.76,631.05Z" transform="translate(-530.84 -528.55)" style="fill: #fff;stroke: #fff"></path></svg>