<svg xmlns="http://www.w3.org/2000/svg" xmlns:xlink="http://www.w3.org/1999/xlink" id="Layer_1" data-name="Layer 1" viewBox="0 0 146.99 145.49"><defs><clipPath id="clip-path" transform="translate(-526.35 -526.81)"><rect x="526.35" y="526.81" width="146.98" height="145.49" style="fill: none"></rect></clipPath></defs><g style="clip-path: url(#clip-path)"><g><path d="M663.33,570.3h-118a10,10,0,0,0-10,10v82a10,10,0,0,0,10,10h118a10,10,0,0,0,10-10v-82A10,10,0,0,0,663.33,570.3Z" transform="translate(-526.35 -526.81)" style="fill: #fff"></path><path d="M651.9,526.87H558V655.11H651.9Z" transform="translate(-526.35 -526.81)" style="fill: #f1f3f5"></path><path d="M625.32,617l17.9,18.6" transform="translate(-526.35 -526.81)" style="fill: none;stroke: #293b4a;stroke-miterlimit: 10;stroke-width: 4px"></path><path d="M651.36,601.55v24.8" transform="translate(-526.35 -526.81)" style="fill: none;stroke: #293b4a;stroke-miterlimit: 10;stroke-width: 2px"></path><path d="M557.64,538.82v-11h93.72v74" transform="translate(-526.35 -526.81)" style="fill: none;stroke: #293b4a;stroke-miterlimit: 10;stroke-width: 2px"></path><path d="M651.36,636.92v16.89H557.64V609.55" transform="translate(-526.35 -526.81)" style="fill: none;stroke: #293b4a;stroke-miterlimit: 10;stroke-width: 2px"></path><path d="M570.18,611.4H613" transform="translate(-526.35 -526.81)" style="fill: none;stroke: #293b4a;stroke-miterlimit: 10;stroke-width: 2px"></path><path d="M570.18,624.78H613" transform="translate(-526.35 -526.81)" style="fill: none;stroke: #293b4a;stroke-miterlimit: 10;stroke-width: 2px"></path><path d="M570.18,638.1H613" transform="translate(-526.35 -526.81)" style="fill: none;stroke: #293b4a;stroke-miterlimit: 10;stroke-width: 2px"></path><path d="M600.11,544h13.12" transform="translate(-526.35 -526.81)" style="fill: none;stroke: #293b4a;stroke-miterlimit: 10;stroke-width: 2px"></path><path d="M600.11,557.57h37.28" transform="translate(-526.35 -526.81)" style="fill: none;stroke: #293b4a;stroke-miterlimit: 10;stroke-width: 2px"></path><path d="M600.11,571.1h37.28" transform="translate(-526.35 -526.81)" style="fill: none;stroke: #293b4a;stroke-miterlimit: 10;stroke-width: 2px"></path><path d="M600.11,584.73h37.28" transform="translate(-526.35 -526.81)" style="fill: none;stroke: #293b4a;stroke-miterlimit: 10;stroke-width: 2px"></path><path d="M558.16,599.83A30.87,30.87,0,1,0,527.29,569,30.87,30.87,0,0,0,558.16,599.83Z" transform="translate(-526.35 -526.81)" style="fill: #fc0;stroke: #293b4a;stroke-miterlimit: 10;stroke-width: 1.8899999856948853px"></path><path d="M567.72,558.83c.19-1.8-1.91-3.5-4.7-3.81s-5.21.92-5.4,2.72,1.91,3.5,4.7,3.81S567.52,560.63,567.72,558.83Z" transform="translate(-526.35 -526.81)" style="fill: #293b4a"></path><path d="M559.32,563.54c.2-1.8-1.9-3.51-4.69-3.81s-5.21.91-5.41,2.71,1.91,3.51,4.7,3.81S559.13,565.34,559.32,563.54Z" transform="translate(-526.35 -526.81)" style="fill: #293b4a"></path><path d="M551.21,566.23c1.41-1.14,1.13-3.83-.63-6s-4.33-3-5.74-1.9-1.13,3.83.63,6S549.79,567.36,551.21,566.23Z" transform="translate(-526.35 -526.81)" style="fill: #293b4a"></path><path d="M550.15,560.41a3.38,3.38,0,1,0-4.62-.62A3.29,3.29,0,0,0,550.15,560.41Z" transform="translate(-526.35 -526.81)" style="fill: #293b4a"></path><path d="M554.74,560.89a4.71,4.71,0,1,0-6.43-.86A4.58,4.58,0,0,0,554.74,560.89Z" transform="translate(-526.35 -526.81)" style="fill: #293b4a"></path><path d="M562.51,560a5.09,5.09,0,1,0-7-.93A5,5,0,0,0,562.51,560Z" transform="translate(-526.35 -526.81)" style="fill: #293b4a"></path><path d="M562.33,563c1.23-1.33.54-4-1.52-5.85s-4.74-2.35-6-1-.55,4,1.52,5.85S561.11,564.32,562.33,563Z" transform="translate(-526.35 -526.81)" style="fill: #293b4a"></path><path d="M548.78,564.83c1.6-1.08,2.34-2.78,1.65-3.82s-2.55-1-4.15.08-2.34,2.77-1.65,3.81S547.18,565.9,548.78,564.83Z" transform="translate(-526.35 -526.81)" style="fill: #293b4a"></path><path d="M549.92,568.82c1.6-1.07,2.34-2.78,1.65-3.81s-2.55-1-4.15.07-2.34,2.78-1.65,3.81S548.32,569.89,549.92,568.82Z" transform="translate(-526.35 -526.81)" style="fill: #293b4a"></path><path d="M548.13,567.35c1.61-1.07,2.35-2.77,1.65-3.81s-2.55-1-4.15.07-2.34,2.78-1.65,3.82S546.53,568.43,548.13,567.35Z" transform="translate(-526.35 -526.81)" style="fill: #293b4a"></path><path d="M547,564.38c1.61-1.07,2.34-2.78,1.65-3.81s-2.55-1-4.15.07-2.34,2.78-1.65,3.81S545.35,565.45,547,564.38Z" transform="translate(-526.35 -526.81)" style="fill: #293b4a"></path><path d="M557.12,560.54c1.67-.69,2.17-3.35,1.1-5.94s-3.28-4.15-5-3.46-2.17,3.35-1.1,6S555.44,561.23,557.12,560.54Z" transform="translate(-526.35 -526.81)" style="fill: #293b4a"></path><path d="M563.63,571a.93.93,0,1,0-.93-.93A.93.93,0,0,0,563.63,571Z" transform="translate(-526.35 -526.81)" style="fill: #293b4a"></path><path d="M553,577.9s.89-3.44,2.61-4.15c0,0-4.24-3.86,0-10.28s-7.58,2-7.58,2S545.74,572.18,553,577.9Z" transform="translate(-526.35 -526.81)" style="fill: #293b4a"></path><path d="M557.66,570.15c-3-2.91-4.27-1.2-3.69.74s-3.94-.57-3.94-.57l.64-5.76,4.29-2.5,4.58,6C559.51,569.7,558.93,570.47,557.66,570.15Z" transform="translate(-526.35 -526.81)" style="fill: #293b4a"></path><path d="M567,587.46c5.58.23,8.47,7.21,8.47,7.21" transform="translate(-526.35 -526.81)" style="fill: none;stroke: #293b4a;stroke-miterlimit: 10;stroke-width: 1.8899999856948853px"></path><path d="M539.52,593.13c3.36-7.86,10.13-6.22,10.13-6.22,12.05,8.42,21.38,5.87,17.31.55v-.12c-1.12,0-4.94-1.92-4.92-7.44h5.58v-5.54h.5a1.64,1.64,0,0,0,1.65-1.52,1.57,1.57,0,0,0-.15-.8,11.24,11.24,0,0,0-1-1.71,8.27,8.27,0,0,1-1.5-4.17,25.9,25.9,0,0,0-1.33-4.48c-2.09-5.23-10.94-6.84-15.21-2.1-8.38,9.3,3.24,19.1,3.24,19.1s-.79,6.2-4.17,8.23" transform="translate(-526.35 -526.81)" style="fill: none;stroke: #293b4a;stroke-miterlimit: 10;stroke-width: 1.8899999856948853px"></path><path d="M613,614H570.18v7.35H613Z" transform="translate(-526.35 -526.81)" style="fill: #fc0"></path><path d="M637.39,560.39H600.11v7.35h37.28Z" transform="translate(-526.35 -526.81)" style="fill: #fc0"></path><path d="M612.13,594H601v7.91h11.12Z" transform="translate(-526.35 -526.81)" style="fill: none;stroke: #293b4a;stroke-miterlimit: 10;stroke-width: 2px"></path><path d="M628,594H616.91v7.91H628Z" transform="translate(-526.35 -526.81)" style="fill: none;stroke: #293b4a;stroke-miterlimit: 10;stroke-width: 2px"></path><path d="M637.39,593.13h-5.77v9.58h5.77Z" transform="translate(-526.35 -526.81)" style="fill: #fc0"></path><path d="M624.76,631.26l-6-20.83,20.82,6" transform="translate(-526.35 -526.81)" style="fill: #293b4a"></path></g></g></svg>