<svg xmlns="http://www.w3.org/2000/svg" xmlns:xlink="http://www.w3.org/1999/xlink" id="Layer_1" data-name="Layer 1" viewBox="0 0 202.86 113.19"><defs><clipPath id="clip-path" transform="translate(-498.81 -542.96)"><rect x="491.65" y="542.96" width="216.38" height="113.19" style="fill: none"></rect></clipPath></defs><g style="clip-path: url(#clip-path)"><g><path d="M659.19,554.15h-118a10,10,0,0,0-10,10v82a10,10,0,0,0,10,10h118a10,10,0,0,0,10-10v-82A10,10,0,0,0,659.19,554.15Z" transform="translate(-498.81 -542.96)" style="fill: #fff"></path><path d="M543,642.58H656.51" transform="translate(-498.81 -542.96)" style="fill: none;stroke: #f1f3f5;stroke-miterlimit: 10;stroke-width: 2px"></path><path d="M543,627.34H656.51" transform="translate(-498.81 -542.96)" style="fill: none;stroke: #f1f3f5;stroke-miterlimit: 10;stroke-width: 2px"></path><path d="M543,612.1H656.51" transform="translate(-498.81 -542.96)" style="fill: none;stroke: #f1f3f5;stroke-miterlimit: 10;stroke-width: 2px"></path><path d="M543,596.86H656.51" transform="translate(-498.81 -542.96)" style="fill: none;stroke: #f1f3f5;stroke-miterlimit: 10;stroke-width: 2px"></path><path d="M543,581.62H656.51" transform="translate(-498.81 -542.96)" style="fill: none;stroke: #f1f3f5;stroke-miterlimit: 10;stroke-width: 2px"></path><path d="M543,566.37H656.51" transform="translate(-498.81 -542.96)" style="fill: none;stroke: #f1f3f5;stroke-miterlimit: 10;stroke-width: 2px"></path><path d="M520.22,609.88a21.41,21.41,0,1,0-21.41-21.41A21.41,21.41,0,0,0,520.22,609.88Z" transform="translate(-498.81 -542.96)" style="fill: #293b4a"></path><path d="M627.36,570.41a26.45,26.45,0,1,1,52.9,0" transform="translate(-498.81 -542.96)" style="fill: none;stroke: #293b4a;stroke-miterlimit: 10;stroke-width: 2px"></path><path d="M626.18,609.88a26.46,26.46,0,0,1-52.91,0" transform="translate(-498.81 -542.96)" style="fill: none;stroke: #293b4a;stroke-miterlimit: 10;stroke-width: 2px"></path><path d="M573.57,609.88a21.41,21.41,0,1,0-21.41-21.41A21.41,21.41,0,0,0,573.57,609.88Z" transform="translate(-498.81 -542.96)" style="fill: #5273fc"></path><path d="M626.92,609.88a21.41,21.41,0,1,0-21.41-21.41A21.41,21.41,0,0,0,626.92,609.88Z" transform="translate(-498.81 -542.96)" style="fill: #19ad4a"></path><path d="M680.26,609.88a21.41,21.41,0,1,0-21.41-21.41A21.41,21.41,0,0,0,680.26,609.88Z" transform="translate(-498.81 -542.96)" style="fill: #fc0"></path><path d="M517.73,593.59a4.11,4.11,0,0,1-2.31-.62,4.32,4.32,0,0,1-1.49-1.77,7.09,7.09,0,0,1,0-5.28,4.11,4.11,0,0,1,1.49-1.76,4,4,0,0,1,2.31-.64,4.1,4.1,0,0,1,2.32.64,3.94,3.94,0,0,1,1.47,1.76,6.84,6.84,0,0,1,0,5.28,3.87,3.87,0,0,1-3.79,2.39Zm0-1.6a2.15,2.15,0,0,0,1.8-.91,4.89,4.89,0,0,0,0-5,2.13,2.13,0,0,0-1.8-.92,2.16,2.16,0,0,0-1.81.92,5,5,0,0,0,0,5A2.18,2.18,0,0,0,517.73,592Zm6.95,1.44v-7.71l-1.6.37v-1.36l2.35-1.05h1.1v9.75Z" transform="translate(-498.81 -542.96)" style="fill: #f1f3f5"></path><path d="M569.33,593.59A4.11,4.11,0,0,1,567,593a4.32,4.32,0,0,1-1.49-1.77,7.09,7.09,0,0,1,0-5.28,4.11,4.11,0,0,1,1.49-1.76,4.49,4.49,0,0,1,4.62,0,3.9,3.9,0,0,1,1.48,1.76,6.84,6.84,0,0,1,0,5.28,3.9,3.9,0,0,1-3.79,2.39Zm0-1.6a2.15,2.15,0,0,0,1.8-.91,4.89,4.89,0,0,0,0-5,2.13,2.13,0,0,0-1.8-.92,2.16,2.16,0,0,0-1.81.92,5,5,0,0,0,0,5A2.18,2.18,0,0,0,569.33,592Zm5.59,1.44v-1.3c.59-.49,1.17-1,1.72-1.46a17.55,17.55,0,0,0,1.51-1.43,8,8,0,0,0,1.05-1.38,2.6,2.6,0,0,0,.41-1.32,1.72,1.72,0,0,0-.34-1.06,1.2,1.2,0,0,0-1.07-.46,1.37,1.37,0,0,0-1.15.5,1.93,1.93,0,0,0-.39,1.21h-1.73a3.55,3.55,0,0,1,.47-1.78,2.79,2.79,0,0,1,1.19-1.07,3.7,3.7,0,0,1,1.65-.36,3.09,3.09,0,0,1,2.31.82,2.79,2.79,0,0,1,.84,2.1A3.52,3.52,0,0,1,581,588a6.68,6.68,0,0,1-1,1.48,13.5,13.5,0,0,1-1.29,1.33L577.41,592h4.22v1.46Z" transform="translate(-498.81 -542.96)" style="fill: #293b4a"></path><path d="M622.26,593.59A4.11,4.11,0,0,1,620,593a4.32,4.32,0,0,1-1.49-1.77,7.09,7.09,0,0,1,0-5.28,4.11,4.11,0,0,1,1.49-1.76,4.49,4.49,0,0,1,4.62,0,3.9,3.9,0,0,1,1.48,1.76,6.84,6.84,0,0,1,0,5.28,3.9,3.9,0,0,1-3.79,2.39Zm0-1.6a2.15,2.15,0,0,0,1.8-.91,4.89,4.89,0,0,0,0-5,2.13,2.13,0,0,0-1.8-.92,2.16,2.16,0,0,0-1.81.92,5,5,0,0,0,0,5A2.18,2.18,0,0,0,622.26,592Zm9.08,1.6a4.42,4.42,0,0,1-1.74-.33,2.8,2.8,0,0,1-1.25-1.06,3.17,3.17,0,0,1-.5-1.78h1.75a1.78,1.78,0,0,0,.46,1.2,1.71,1.71,0,0,0,1.28.47,1.59,1.59,0,0,0,1.2-.43,1.54,1.54,0,0,0,.41-1.09,1.31,1.31,0,0,0-.55-1.15A2.29,2.29,0,0,0,631,589h-.72v-1.47H631a2,2,0,0,0,1.18-.33,1.14,1.14,0,0,0,.47-1,1.09,1.09,0,0,0-.36-.86,1.36,1.36,0,0,0-1-.34,1.43,1.43,0,0,0-1.08.41,1.53,1.53,0,0,0-.41,1H628.1a2.83,2.83,0,0,1,.93-2.13,3.36,3.36,0,0,1,2.3-.78,3.6,3.6,0,0,1,1.68.36,2.47,2.47,0,0,1,1.41,2.23,1.49,1.49,0,1,0-.24,2.95,2.4,2.4,0,0,1,.51,1.58,2.8,2.8,0,0,1-1.53,2.55A3.74,3.74,0,0,1,631.34,593.59Z" transform="translate(-498.81 -542.96)" style="fill: #293b4a"></path><path d="M675.09,593.59a4.11,4.11,0,0,1-2.31-.62,4.32,4.32,0,0,1-1.49-1.77,7.09,7.09,0,0,1,0-5.28,4.11,4.11,0,0,1,1.49-1.76,4.49,4.49,0,0,1,4.62,0,3.9,3.9,0,0,1,1.48,1.76,6.84,6.84,0,0,1,0,5.28,3.9,3.9,0,0,1-3.79,2.39Zm0-1.6a2.15,2.15,0,0,0,1.8-.91,4.89,4.89,0,0,0,0-5,2.13,2.13,0,0,0-1.8-.92,2.16,2.16,0,0,0-1.81.92,5,5,0,0,0,0,5A2.18,2.18,0,0,0,675.09,592Zm10.35,1.44v-1.81h-4.81V590.2l4.57-6.52h2v6.39h1.28v1.55h-1.28v1.81Zm-2.9-3.36h3v-4.42Z" transform="translate(-498.81 -542.96)" style="fill: #293b4a"></path></g></g></svg>