<svg xmlns="http://www.w3.org/2000/svg" xmlns:xlink="http://www.w3.org/1999/xlink" id="Layer_1" data-name="Layer 1" viewBox="0 0 138 152"><defs><clipPath id="clip-path" transform="translate(-529.63 -523.55)"><rect x="529.63" y="523.55" width="138" height="152" style="fill: none"></rect></clipPath></defs><g style="clip-path: url(#clip-path)"><g><path d="M657.63,573.55h-118a10,10,0,0,0-10,10v82a10,10,0,0,0,10,10h118a10,10,0,0,0,10-10v-82A10,10,0,0,0,657.63,573.55Z" transform="translate(-529.63 -523.55)" style="fill: #fff"></path><path d="M629.62,525.07H577v53.52h52.61Z" transform="translate(-529.63 -523.55)" style="fill: #fff"></path><path d="M620.27,600.59v15.86H560.21V539h9.57" transform="translate(-529.63 -523.55)" style="fill: #fff"></path><path d="M620.27,600.59v15.86H560.21V539h9.57" transform="translate(-529.63 -523.55)" style="fill: none;stroke: #243b4c;stroke-miterlimit: 10;stroke-width: 2px"></path><path d="M628.68,592.21v15.87H568.62V530.61H577" transform="translate(-529.63 -523.55)" style="fill: #fff"></path><path d="M628.68,592.21v15.87H568.62V530.61H577" transform="translate(-529.63 -523.55)" style="fill: none;stroke: #243b4c;stroke-miterlimit: 10;stroke-width: 2px"></path><path d="M637.05,587.62V524.55H577" transform="translate(-529.63 -523.55)" style="fill: #fff"></path><path d="M637.05,587.62V524.55H577" transform="translate(-529.63 -523.55)" style="fill: none;stroke: #243b4c;stroke-miterlimit: 10;stroke-width: 2px"></path><path d="M637.05,595.94v3.78H577v-70.1" transform="translate(-529.63 -523.55)" style="fill: #fff"></path><path d="M637.05,595.94v3.78H577v-70.1" transform="translate(-529.63 -523.55)" style="fill: none;stroke: #243b4c;stroke-miterlimit: 10;stroke-width: 2px"></path><path d="M585.79,559h43" transform="translate(-529.63 -523.55)" style="fill: none;stroke: #243b4c;stroke-miterlimit: 10;stroke-width: 2px"></path><path d="M585.79,566.56h43" transform="translate(-529.63 -523.55)" style="fill: none;stroke: #243b4c;stroke-miterlimit: 10;stroke-width: 2px"></path><path d="M585.79,574.14h26.49" transform="translate(-529.63 -523.55)" style="fill: none;stroke: #243b4c;stroke-miterlimit: 10;stroke-width: 2px"></path><path d="M585.79,581.71h26.49" transform="translate(-529.63 -523.55)" style="fill: none;stroke: #243b4c;stroke-miterlimit: 10;stroke-width: 2px"></path><path d="M585.79,534h8.11" transform="translate(-529.63 -523.55)" style="fill: none;stroke: #243b4c;stroke-miterlimit: 10;stroke-width: 2px"></path><path d="M585.79,543.2h25.13" transform="translate(-529.63 -523.55)" style="fill: none;stroke: #243b4c;stroke-miterlimit: 10;stroke-width: 2px"></path><path d="M585.79,550.78h43" transform="translate(-529.63 -523.55)" style="fill: none;stroke: #243b4c;stroke-miterlimit: 10;stroke-width: 2px"></path><path d="M627.13,535.62l-7.6,7.61L615,538.72" transform="translate(-529.63 -523.55)" style="fill: #fff"></path><path d="M627.13,535.62l-7.6,7.61L615,538.72" transform="translate(-529.63 -523.55)" style="fill: none;stroke: #243b4c;stroke-miterlimit: 10;stroke-width: 2px"></path><path d="M660.31,635.73a25,25,0,1,0-35.3,0A24.94,24.94,0,0,0,660.31,635.73Z" transform="translate(-529.63 -523.55)" style="fill: #19ad4a"></path><path d="M660.68,620.84v-5.5a1,1,0,0,0-1-1h-3.89a1,1,0,0,1-.86-.49l-.62-1.09a1,1,0,0,1-.13-.62,1.06,1.06,0,0,1,.28-.57l2.88-2.88a1,1,0,0,0,.28-.7,1,1,0,0,0-.28-.7l-3.9-3.9a1,1,0,0,0-.7-.28,1,1,0,0,0-.69.28l-2,2h-2.63a1,1,0,0,1-1-1V601.1a1,1,0,0,0-1-1h-5.5a1,1,0,0,0-.71.3,1,1,0,0,0-.29.7v3.31a1,1,0,0,1-.3.71,1,1,0,0,1-.7.29H635.3l-2-2a1,1,0,0,0-.7-.28,1,1,0,0,0-.69.28l-3.9,3.9a1,1,0,0,0-.29.7,1,1,0,0,0,.29.7l2.88,2.88a1.06,1.06,0,0,1,.28.57,1.1,1.1,0,0,1-.12.62l-.63,1.09a1,1,0,0,1-.37.36,1,1,0,0,1-.49.13h-3.89a1,1,0,0,0-.71.3,1,1,0,0,0-.29.7v5.5a1,1,0,0,0,1,1h3.88a1,1,0,0,1,.49.14,1.06,1.06,0,0,1,.37.36l.63,1.09a1.05,1.05,0,0,1,.12.63,1,1,0,0,1-.28.57L628,627.51a1,1,0,0,0,0,1.41l1.43,1.42,2.48,2.48a1,1,0,0,0,.69.28,1,1,0,0,0,.69-.28l2-1.94h2.63a1,1,0,0,1,1,1v3.27a1,1,0,0,0,1,1h5.5a1,1,0,0,0,.7-.29,1,1,0,0,0,.3-.71v-3.27a1,1,0,0,1,.29-.7,1,1,0,0,1,.71-.3h2.63l2,1.94a1,1,0,0,0,.69.28,1,1,0,0,0,.7-.28l3.9-3.9a1,1,0,0,0,0-1.41l-2.87-2.86a1,1,0,0,1-.29-.57,1.06,1.06,0,0,1,.13-.63l.63-1.09a1,1,0,0,1,.86-.5h3.88a1,1,0,0,0,.38-.08,1,1,0,0,0,.32-.22,1,1,0,0,0,.22-.33,1,1,0,0,0,.07-.39Z" transform="translate(-529.63 -523.55)" style="fill: none;stroke: #293b4a;stroke-miterlimit: 10;stroke-width: 2px"></path><path d="M642.67,612a6,6,0,1,1-1.7,11.77,6,6,0,0,1-2.69-9.9" transform="translate(-529.63 -523.55)" style="fill: none;stroke: #293b4a;stroke-miterlimit: 10;stroke-width: 2px"></path><path d="M609.52,632.71h-54a2.58,2.58,0,0,0-1.8.77,2.51,2.51,0,0,0-.74,1.81v2a2.56,2.56,0,0,0,2.54,2.58h54a2.61,2.61,0,0,0,1.8-.76,2.63,2.63,0,0,0,.74-1.82v-2a2.58,2.58,0,0,0-2.54-2.58Z" transform="translate(-529.63 -523.55)" style="fill: #f1f3f5"></path><path d="M645,647.71H555.56a2.58,2.58,0,0,0-1.8.77,2.55,2.55,0,0,0-.74,1.81v2a2.56,2.56,0,0,0,2.54,2.58H645a2.57,2.57,0,0,0,1.81-.76,2.62,2.62,0,0,0,.74-1.82v-2a2.58,2.58,0,0,0-2.55-2.58Z" transform="translate(-529.63 -523.55)" style="fill: #f1f3f5"></path></g></g></svg>