<svg xmlns="http://www.w3.org/2000/svg" id="Layer_1" data-name="Layer 1" viewBox="0 0 98.26 34.59"><path d="M584.88,591.33c0-.12,0-.15-.12-.15h-.31c-.37,0-.48.2-.63.57a.12.12,0,0,1-.1,0,.16.16,0,0,1-.08-.06,6.21,6.21,0,0,0,.16-.86l.07,0a.08.08,0,0,1,.07,0c0,.08,0,.1.42.1h1.88c.33,0,.41,0,.45-.11h.11l0,0a3.65,3.65,0,0,0-.07.87.17.17,0,0,1-.19,0c-.08-.32-.16-.56-.53-.56h-.31c-.12,0-.13,0-.13.15v2.23c0,.46,0,.5.27.53l.2,0a.21.21,0,0,1,0,.18l-.81,0c-.22,0-.5,0-.86,0a.32.32,0,0,1,0-.09.24.24,0,0,1,0-.09l.23,0c.23,0,.26-.07.26-.53v-2.23Z" transform="translate(-550.82 -582.26)" style="fill: #1e417c"></path><path d="M589.3,592.68c-.21,0-.21,0-.21.14v.73c0,.47,0,.5.26.54l.16,0a.12.12,0,0,1,0,.18l-.76,0-.75,0a.15.15,0,0,1,0-.18h.12c.22-.05.26-.09.26-.55v-1.87c0-.47,0-.51-.26-.55l-.12,0a.11.11,0,0,1,0-.08.12.12,0,0,1,0-.09h1.45a.12.12,0,0,1,0,.09.11.11,0,0,1,0,.08l-.11,0c-.22,0-.24.08-.24.55v.58c0,.15,0,.15.21.15h1c.22,0,.22,0,.22-.15v-.58c0-.47,0-.51-.27-.55l-.13,0a.11.11,0,0,1,0-.08.12.12,0,0,1,0-.09h1.48a.12.12,0,0,1,0,.09.11.11,0,0,1,0,.08l-.1,0c-.23,0-.26.08-.26.55v1.87c0,.47,0,.51.26.55l.12,0a.12.12,0,0,1,0,.09.11.11,0,0,1,0,.08H590.2a.11.11,0,0,1,0-.08.12.12,0,0,1,0-.09l.11,0c.23,0,.26-.08.26-.55v-.72c0-.14,0-.14-.21-.14H589.3Z" transform="translate(-550.82 -582.26)" style="fill: #1e417c"></path><path d="M594.11,592.26c0,.14,0,.15.14.15h.34c.27,0,.32,0,.38-.27l0-.13a.14.14,0,0,1,.19,0c0,.16,0,.34,0,.54s0,.37,0,.53a.18.18,0,0,1-.09,0,.17.17,0,0,1-.1,0l0-.13c-.06-.24-.11-.29-.38-.29h-.34c-.13,0-.14,0-.14.16v.6a.81.81,0,0,0,.08.48c.06.09.16.13.52.13s.61,0,.89-.58c0,0,0,0,0,0h.1l0,0a2.86,2.86,0,0,1-.22.81l-1.16,0h-.66c-.24,0-.48,0-.86,0a.15.15,0,0,1,0-.18l.24,0c.22,0,.26-.07.26-.53v-1.87c0-.46,0-.49-.26-.54l-.14,0a.1.1,0,0,1,0-.09.16.16,0,0,1,0-.09l.73,0h1.07a5.22,5.22,0,0,0,.68,0c0,.09,0,.45.06.79,0,.06-.13.07-.18,0a1.11,1.11,0,0,0-.2-.39.48.48,0,0,0-.23-.13.57.57,0,0,0-.26,0h-.4c-.17,0-.17,0-.17.19v.88Z" transform="translate(-550.82 -582.26)" style="fill: #1e417c"></path><path d="M599.56,591.68c0-.47,0-.51-.26-.55l-.13,0,0,0s0,0,0-.05a.09.09,0,0,1,0,0l0,0h1.48a.11.11,0,0,1,0,.08.16.16,0,0,1,0,.09l-.12,0c-.23,0-.26.08-.26.54v1.17c0,.59.06,1.24.83,1.24s.84-.56.84-1.26v-.6a3.23,3.23,0,0,0-.08-.92c0-.11-.15-.13-.29-.16l-.13,0a.11.11,0,0,1,0-.08.16.16,0,0,1,0-.09l.68,0,.56,0a.16.16,0,0,1,0,.09.11.11,0,0,1,0,.08l-.09,0c-.13,0-.23.06-.27.17a3.23,3.23,0,0,0-.08.92v.56a1.76,1.76,0,0,1-.32,1.22,1.39,1.39,0,0,1-1,.36,1.55,1.55,0,0,1-1-.28,1.4,1.4,0,0,1-.37-1.15v-1.25Z" transform="translate(-550.82 -582.26)" style="fill: #1e417c"></path><path d="M607,593.42c0,.33,0,.65,0,.82a.6.6,0,0,1-.13.09.44.44,0,0,1-.16,0,6.83,6.83,0,0,0-.41-.55l-1.17-1.44a6.64,6.64,0,0,0-.55-.64,1.13,1.13,0,0,0,0,.32v1a3.71,3.71,0,0,0,.07.91c0,.11.16.14.3.16l.14,0a.15.15,0,0,1,0,.18l-.68,0-.56,0a.15.15,0,0,1,0-.18h.08c.13,0,.24-.06.28-.17a3.81,3.81,0,0,0,.07-.92v-1.28c0-.28,0-.36,0-.43s-.11-.13-.28-.17l-.14,0s0-.16,0-.17h1.12a4.45,4.45,0,0,0,.84,1.15l.42.49c.22.27.37.44.48.56a.9.9,0,0,0,0-.23v-.69a4,4,0,0,0-.07-.93c-.05-.1-.16-.13-.3-.16l-.13,0a.11.11,0,0,1,0-.08.12.12,0,0,1,0-.09h1.24a.12.12,0,0,1,0,.09.11.11,0,0,1,0,.08l-.09,0c-.13,0-.23.06-.27.17a3.2,3.2,0,0,0-.08.91v1.21Z" transform="translate(-550.82 -582.26)" style="fill: #1e417c"></path><path d="M609.71,593.54c0,.47,0,.51.27.55l.14,0a.1.1,0,0,1,0,.09.11.11,0,0,1,0,.08h-1.52a.11.11,0,0,1,0-.08.12.12,0,0,1,0-.09l.14,0c.23,0,.26-.07.26-.55v-1.85c0-.47,0-.51-.26-.55l-.14,0a.15.15,0,0,1,0-.18l.76,0c.25,0,.49,0,.77,0a.15.15,0,0,1,0,.18l-.14,0c-.24,0-.27.08-.27.55Z" transform="translate(-550.82 -582.26)" style="fill: #1e417c"></path><path d="M613.53,593c-.27.61-.4,1-.51,1.29a.39.39,0,0,1-.18,0,.2.2,0,0,1-.13,0c-.06-.13-.14-.4-.21-.57l-.82-2.06c-.21-.51-.2-.49-.44-.55l-.14,0a.1.1,0,0,1,0-.09.09.09,0,0,1,0-.08h1.44s0,.13,0,.17l-.16,0c-.09,0-.13.05-.13.09s.13.38.2.56l.45,1.13c.07.19.12.3.16.39,0-.08.1-.22.16-.37l.18-.47c.13-.32.34-.88.4-1.05a1.21,1.21,0,0,0,0-.18s0-.06-.13-.09l-.15,0s0-.15,0-.17h1.09s0,.14,0,.17l-.13,0a.44.44,0,0,0-.16.06.34.34,0,0,0-.12.12,6.71,6.71,0,0,0-.42.85Z" transform="translate(-550.82 -582.26)" style="fill: #1e417c"></path><path d="M616.72,592.26c0,.14,0,.15.14.15h.35c.26,0,.32,0,.37-.27l0-.13s.16,0,.18,0,0,.34,0,.54,0,.37,0,.53a.15.15,0,0,1-.09,0,.14.14,0,0,1-.09,0l0-.13c-.06-.24-.11-.29-.37-.29h-.34c-.14,0-.15,0-.15.16v.6a.79.79,0,0,0,.09.48c.06.09.16.13.52.13s.61,0,.89-.58c0,0,0,0,0,0h.11l0,0a2.85,2.85,0,0,1-.21.81l-1.16,0h-.66c-.24,0-.49,0-.86,0a.15.15,0,0,1,0-.18l.23,0c.23,0,.26-.07.26-.53v-1.87c0-.46,0-.49-.26-.54l-.13,0a.16.16,0,0,1,0-.09.18.18,0,0,1,0-.09l.73,0h1.07a5,5,0,0,0,.67,0c0,.09,0,.45.07.79,0,.06-.13.07-.19,0a1,1,0,0,0-.19-.39.59.59,0,0,0-.23-.13.57.57,0,0,0-.26,0h-.41c-.16,0-.16,0-.16.19v.88Z" transform="translate(-550.82 -582.26)" style="fill: #1e417c"></path><path d="M619.94,591.77c0-.51,0-.56-.22-.59l-.13,0,0,0a.09.09,0,0,1,0,0s0,0,0-.05l0,0c.38,0,.77,0,1.25,0a2.2,2.2,0,0,1,1,.18.89.89,0,0,1,.33.31.76.76,0,0,1,.11.44.8.8,0,0,1-.53.75s0,.06,0,.12a4.21,4.21,0,0,0,.79,1.26.65.65,0,0,0,.34.14.09.09,0,0,1,0,.06.1.1,0,0,1,0,.07,1.26,1.26,0,0,1-.39,0,1,1,0,0,1-.57-.12,1.05,1.05,0,0,1-.41-.4,5.79,5.79,0,0,1-.39-.79.32.32,0,0,0-.1-.13.24.24,0,0,0-.16,0c-.18,0-.19,0-.19.11v.62c0,.46,0,.49.26.53l.13,0a.15.15,0,0,1,0,.18l-.74,0c-.24,0-.47,0-.73,0a.18.18,0,0,1,0-.09.15.15,0,0,1,0-.09l.13,0c.22,0,.26-.07.26-.53v-1.79Zm.69.64c0,.17,0,.19.31.19a.39.39,0,0,0,.21,0,.42.42,0,0,0,.18-.11.82.82,0,0,0,.14-.26.7.7,0,0,0,0-.29.66.66,0,0,0-.66-.74c-.2,0-.2,0-.21.26Z" transform="translate(-550.82 -582.26)" style="fill: #1e417c"></path><path d="M624.8,594.36a1.83,1.83,0,0,1-.86-.19,1.72,1.72,0,0,1-.16-.82l0,0h.11l0,0c.1.33.44.79.87.79a.39.39,0,0,0,.21,0,.59.59,0,0,0,.17-.1.36.36,0,0,0,.12-.18.34.34,0,0,0,0-.2c0-.41-.38-.65-.68-.8a1.17,1.17,0,0,1-.76-1c0-.57.43-1,1.16-1a1.9,1.9,0,0,1,.58.09l.17,0a2.84,2.84,0,0,1,.09.72c0,.06-.15.06-.2,0-.08-.26-.3-.62-.66-.62a.46.46,0,0,0-.2,0,.44.44,0,0,0-.16.1.48.48,0,0,0-.12.16.58.58,0,0,0,0,.19.76.76,0,0,0,.47.58l.33.17a1.16,1.16,0,0,1,.71,1C626.07,594,625.56,594.36,624.8,594.36Z" transform="translate(-550.82 -582.26)" style="fill: #1e417c"></path><path d="M628.47,593.54c0,.47,0,.51.26.55l.14,0a.14.14,0,0,1,0,.09.12.12,0,0,1,0,.08h-1.52a.11.11,0,0,1,0-.08.12.12,0,0,1,0-.09l.14,0c.24,0,.27-.07.27-.55v-1.85c0-.47,0-.51-.27-.55l-.14,0a.15.15,0,0,1,0-.18l.77,0c.24,0,.48,0,.76,0a.15.15,0,0,1,0,.18l-.14,0c-.24,0-.26.08-.26.55Z" transform="translate(-550.82 -582.26)" style="fill: #1e417c"></path><path d="M631.27,591.33c0-.12,0-.15-.11-.15h-.32c-.36,0-.47.2-.62.57a.12.12,0,0,1-.1,0,.15.15,0,0,1-.09-.06,5,5,0,0,0,.17-.86l.07,0a.1.1,0,0,1,.07,0c0,.08,0,.1.42.1h1.88c.33,0,.4,0,.45-.11h.11l0,0a3.65,3.65,0,0,0-.07.87.17.17,0,0,1-.19,0c-.08-.32-.16-.56-.54-.56h-.3c-.12,0-.13,0-.13.15v2.23c0,.46,0,.5.26.53l.2,0a.15.15,0,0,1,0,.18l-.8,0c-.23,0-.51,0-.86,0a.16.16,0,0,1,0-.09.12.12,0,0,1,0-.09l.23,0c.23,0,.26-.07.26-.53v-2.23Z" transform="translate(-550.82 -582.26)" style="fill: #1e417c"></path><path d="M636.13,593.55c0,.47,0,.51.26.54l.21,0a.29.29,0,0,1,0,.09.24.24,0,0,1,0,.09H635a.12.12,0,0,1,0-.09.16.16,0,0,1,0-.09l.17,0c.23,0,.27-.07.27-.54v-.25a1,1,0,0,0-.14-.6l-.59-1.24c-.11-.21-.15-.28-.33-.32l-.17,0s0-.16,0-.18l.72,0,.73,0c.05,0,.06.13,0,.18l-.17,0c-.09,0-.12,0-.12.05a1.48,1.48,0,0,0,.13.35l.24.54c.08.16.17.36.23.49.15-.24.29-.54.42-.8a2,2,0,0,0,.27-.58s0-.05-.17-.07l-.12,0a.15.15,0,0,1,0-.18l.57,0,.49,0c.06,0,.06.15,0,.18l-.13,0a.41.41,0,0,0-.24.11,5.41,5.41,0,0,0-.45.72l-.32.58a1.07,1.07,0,0,0-.18.65v.36Z" transform="translate(-550.82 -582.26)" style="fill: #1e417c"></path><path d="M644.17,592.6a1.68,1.68,0,0,1-1.82,1.76,1.64,1.64,0,0,1-1.75-1.72,1.73,1.73,0,0,1,1.8-1.77A1.67,1.67,0,0,1,644.17,592.6Zm-1.82-1.5c-.62,0-1,.58-1,1.42,0,.62.22,1.6,1,1.6.65,0,.92-.64.92-1.46S643,591.1,642.35,591.1Z" transform="translate(-550.82 -582.26)" style="fill: #1e417c"></path><path d="M646.61,592.3c0,.13,0,.15.15.15h.39c.26,0,.32,0,.37-.28l0-.12a.15.15,0,0,1,.09,0,.18.18,0,0,1,.1,0c0,.16,0,.34,0,.54a4.18,4.18,0,0,0,0,.52.18.18,0,0,1-.1,0,.14.14,0,0,1-.09,0l0-.12c-.06-.24-.11-.29-.38-.29h-.39c-.13,0-.14,0-.14.16v.68c0,.47,0,.5.26.53l.19,0a.21.21,0,0,1,0,.18l-.81,0c-.24,0-.48,0-.78,0a.15.15,0,0,1,0-.18l.16,0c.23,0,.27-.06.27-.53v-1.87c0-.47,0-.51-.27-.55l-.1,0s0-.15,0-.17H648c0,.08,0,.44,0,.78,0,.06-.13.06-.19,0a1.64,1.64,0,0,0-.14-.39.6.6,0,0,0-.5-.17h-.39c-.17,0-.17,0-.17.21Z" transform="translate(-550.82 -582.26)" style="fill: #1e417c"></path><path d="M590.6,608c-1,0-1.65-.05-2.3-.05s-1.36,0-2.43.05h0a.29.29,0,0,1-.1-.12.28.28,0,0,1,0-.15.47.47,0,0,1,0-.17.38.38,0,0,1,.09-.15h0l.67-.09c.7-.06.82-.07.82-1.77v-7c0-.64,0-.64-.35-.64h-.89c-1.39,0-1.8.14-2.38,1.45a.26.26,0,0,1-.11.07.3.3,0,0,1-.13,0,.37.37,0,0,1-.23,0,.35.35,0,0,1-.16-.16v0a25.16,25.16,0,0,0,.62-2.45.22.22,0,0,1,.1-.09.31.31,0,0,1,.13,0l.13,0a.34.34,0,0,1,.09.08c.07.37.24.39,1.31.39h6.41c.75,0,1,0,1.13-.38v0h0a.41.41,0,0,1,.22-.07.32.32,0,0,1,.14,0,.27.27,0,0,1,.12.09l0,0v0a11.17,11.17,0,0,0-.23,2.56v0l0,0a.33.33,0,0,1-.14.12.38.38,0,0,1-.18,0,.47.47,0,0,1-.26-.08l0,0v0c-.2-1.22-.43-1.53-2.12-1.53h-.9c-.35,0-.35,0-.35.66v7c0,1.7.13,1.71.82,1.79l.59.07v0a.35.35,0,0,1,.08.16.41.41,0,0,1,0,.19.5.5,0,0,1,0,.13l-.09.1h0Z" transform="translate(-550.82 -582.26)" style="fill: #1e417c"></path><path d="M599.17,608.19a5.43,5.43,0,0,1-5.66-5.55,5.58,5.58,0,0,1,5.69-5.84c3.82,0,5.56,3,5.56,5.73A5.51,5.51,0,0,1,599.17,608.19Zm-.18-10.6c-1.55,0-3.21,1.2-3.21,4.58,0,4.13,2.22,5.24,3.53,5.24,2,0,3.17-1.67,3.17-4.59C602.48,600.3,601.39,597.59,599,597.59Z" transform="translate(-550.82 -582.26)" style="fill: #1e417c"></path><path d="M613.49,608c-.64,0-2-.05-3.77-.05h-1.63c-.81,0-1.59,0-2.24.05h0a.41.41,0,0,1-.12-.14.39.39,0,0,1,0-.18.27.27,0,0,1,0-.15.31.31,0,0,1,.09-.11l.5-.09c.69-.09.82-.11.82-1.77v-6c0-1.66-.13-1.68-.82-1.79l-.46-.07h0a.31.31,0,0,1-.1-.15.55.55,0,0,1,0-.18.42.42,0,0,1,0-.15.35.35,0,0,1,.11-.1h0c.81,0,1.51.05,2.21.05s1.4,0,2.09-.05h0a.32.32,0,0,1,.12.11.32.32,0,0,1,0,.17.29.29,0,0,1,0,.16.3.3,0,0,1-.1.14l-.37.08c-.7.11-.82.13-.82,1.79v5.71a3.08,3.08,0,0,0,.25,1.63c.16.19.38.33,1.65.33,1.7,0,1.94-.06,2.65-1.71v0h0a.54.54,0,0,1,.21,0,.52.52,0,0,1,.21,0,.65.65,0,0,1,.16.13v.05a16,16,0,0,1-.66,2.37l0,0Z" transform="translate(-550.82 -582.26)" style="fill: #1e417c"></path><path d="M623.44,608c-.68,0-2-.05-3.87-.05h-1.79c-.64,0-1.62,0-2.35.05h0a.26.26,0,0,1-.09-.09.33.33,0,0,1,0-.13.61.61,0,0,1,0-.19.89.89,0,0,1,.08-.17l0,0,.6-.06c.7-.08.82-.1.82-1.79v-6c0-1.69-.13-1.71-.82-1.81l-.27,0,0,0a.3.3,0,0,1-.08-.16.31.31,0,0,1,0-.19.2.2,0,0,1,0-.13.2.2,0,0,1,.09-.09v0h0c.57,0,1.3,0,2,0h3c1.1,0,1.93,0,2.11,0h.06l0,.06c0,.15.07.59.13,1.09s.08.86.13,1.18v0a.39.39,0,0,1-.35.16.48.48,0,0,1-.26-.07l0,0v0c-.26-1-.48-1.31-.94-1.43a4.41,4.41,0,0,0-1.25-.15h-1c-.61,0-.61,0-.61.89v2.75c0,.37,0,.37.31.37h.76c1.39,0,1.57,0,1.68-.65l.11-.58,0,0a.51.51,0,0,1,.3-.1.47.47,0,0,1,.17,0,.28.28,0,0,1,.13.11h0V601c0,.4,0,.85,0,1.31s0,.86,0,1.25c0,.16,0,.48,0,.48v0a.42.42,0,0,1-.14.09.41.41,0,0,1-.16,0,.53.53,0,0,1-.3-.09h0l-.11-.68c-.1-.62-.31-.66-1.68-.66h-.75c-.31,0-.31,0-.31.37v2.07a3.06,3.06,0,0,0,.25,1.65c.16.19.38.33,1.72.33h.19c1.76,0,2.11-.44,2.64-1.72h0a.38.38,0,0,1,.23-.08.5.5,0,0,1,.21,0,.43.43,0,0,1,.16.14v0a10.58,10.58,0,0,1-.66,2.38l0,0Z" transform="translate(-550.82 -582.26)" style="fill: #1e417c"></path><path d="M629.93,608c-.55,0-1,0-1.43-.06s-.6,0-.85,0c-.61,0-1.32,0-2,.05h0l-.09-.09a.65.65,0,0,1,0-.13.41.41,0,0,1,0-.19.38.38,0,0,1,.08-.17h0l.37-.06c.7-.09.82-.1.82-1.8v-5.95c0-1.57,0-1.69-.7-1.78l-.34,0h0a.38.38,0,0,1-.09-.13.43.43,0,0,1,0-.16.23.23,0,0,1,0-.16.28.28,0,0,1,.1-.12h0c1.15-.1,2.4-.15,3.93-.15a10,10,0,0,1,3.72.56,5,5,0,0,1,3.27,4.93,5.27,5.27,0,0,1-2.85,4.74A8.38,8.38,0,0,1,629.93,608Zm.14-10.23a2.69,2.69,0,0,0-1.23.21,3.19,3.19,0,0,0-.1,1.16v5.72c0,1.55.07,2.36,1.7,2.36,2.53,0,4-1.73,4-4.73S632.83,597.8,630.07,597.8Z" transform="translate(-550.82 -582.26)" style="fill: #1e417c"></path><path d="M643.48,608.19a5.43,5.43,0,0,1-5.65-5.55,5.58,5.58,0,0,1,5.69-5.84c3.82,0,5.56,3,5.56,5.73A5.5,5.5,0,0,1,643.48,608.19Zm-.17-10.6c-1.55,0-3.21,1.2-3.21,4.58,0,4.13,2.23,5.24,3.54,5.24,2,0,3.16-1.67,3.16-4.59C646.81,600.3,645.71,597.59,643.31,597.59Z" transform="translate(-550.82 -582.26)" style="fill: #1e417c"></path><path d="M581.11,585c-9.25,2-15.14-2.71-15.14-2.71s-5.9,4.72-15.15,2.71c0,7.55-.21,21.28,15.15,31.88C581.33,606.25,581.11,592.52,581.11,585Z" transform="translate(-550.82 -582.26)" style="fill: #1e417c"></path><path d="M566,614.42l-.15-.09c-.09-.06-8.71-5.69-11.53-15.73a37.11,37.11,0,0,1-1.53-11.2l0-.28.28,0a26.49,26.49,0,0,0,6.79-.25,25,25,0,0,0,6-2.12l.13-.07.13.07a25.28,25.28,0,0,0,6,2.12,26.49,26.49,0,0,0,6.79.25l.28,0,0,.29a37.33,37.33,0,0,1-1.54,11.19c-2.82,10-11.48,15.68-11.56,15.73Zm-12.68-26.7a37.61,37.61,0,0,0,1.53,10.73c2.56,9.13,10,14.53,11.15,15.32,1.14-.79,8.63-6.2,11.19-15.32a37.83,37.83,0,0,0,1.52-10.73,26.14,26.14,0,0,1-6.67-.28,27.14,27.14,0,0,1-6-2.11,22.09,22.09,0,0,1-12.67,2.39Z" transform="translate(-550.82 -582.26)" style="fill: #fff"></path><path d="M566.17,591.49a5.58,5.58,0,0,0-.59.09,1.77,1.77,0,0,0-.64.24,1,1,0,0,0-.34.69,7.8,7.8,0,0,0-.1,1.28v4.48a3.06,3.06,0,0,1-.35,1.49,3,3,0,0,1-.94,1,4,4,0,0,1-1.21.57,4.48,4.48,0,0,1-1.21.17,5.47,5.47,0,0,1-1.66-.24,3.8,3.8,0,0,1-1.22-.66,2.72,2.72,0,0,1-.73-.95,2.68,2.68,0,0,1-.25-1.11v-6.1a.92.92,0,0,0-.08-.43.85.85,0,0,0-.34-.31,1.62,1.62,0,0,0-.48-.17,3.54,3.54,0,0,0-.47-.07V591h4.3v.52l-.51.06-.45.11a.59.59,0,0,0-.19.11.38.38,0,0,0-.13.18,1.2,1.2,0,0,0-.09.45v5.7a4.92,4.92,0,0,0,.09.86,2.12,2.12,0,0,0,.37.84,2,2,0,0,0,.77.66,2.9,2.9,0,0,0,1.34.26,3.24,3.24,0,0,0,1.34-.26,2.26,2.26,0,0,0,.86-.67,2.45,2.45,0,0,0,.42-.82,3.15,3.15,0,0,0,.12-.87v-4.23a5.89,5.89,0,0,0-.11-1.32,1.16,1.16,0,0,0-.34-.67,2.18,2.18,0,0,0-.69-.28,3.93,3.93,0,0,0-.67-.12V591h4.19v.51Z" transform="translate(-550.82 -582.26)" style="fill: #fed206"></path><path d="M575,596.09h-.49a2.82,2.82,0,0,0-.23-.61,6.29,6.29,0,0,0-.37-.67,3.65,3.65,0,0,0-.47-.57.93.93,0,0,0-.49-.28l-.56,0-.62,0h-.41V602a.91.91,0,0,0,.1.43.59.59,0,0,0,.34.3,3.53,3.53,0,0,0,.54.13,4.58,4.58,0,0,0,.63.1v.5h-4.76v-.5l.6-.06a2.13,2.13,0,0,0,.57-.11.71.71,0,0,0,.35-.27.92.92,0,0,0,.11-.46V593.9h-1a6.19,6.19,0,0,0-.63.05.87.87,0,0,0-.48.28,4.18,4.18,0,0,0-.47.57,6.52,6.52,0,0,0-.38.68,3.33,3.33,0,0,0-.22.6h-.51v-2.74H575v2.74Z" transform="translate(-550.82 -582.26)" style="fill: #fed206"></path><path d="M563.48,606.38a2.42,2.42,0,0,1,1.43.37,2.92,2.92,0,0,1,.89,1.15,2.83,2.83,0,0,1-1.56-.31,1.87,1.87,0,0,1-.76-1.21Z" transform="translate(-550.82 -582.26)" style="fill: #fed206"></path><path d="M568.46,606.38a2.38,2.38,0,0,0-1.43.37,2.88,2.88,0,0,0-.9,1.15,2.83,2.83,0,0,0,1.56-.31,1.72,1.72,0,0,0,.51-.53A1.81,1.81,0,0,0,568.46,606.38Z" transform="translate(-550.82 -582.26)" style="fill: #fed206"></path><path d="M566,603.52a4.05,4.05,0,0,1,.71,2,3.79,3.79,0,0,1-.71,1.88,3.76,3.76,0,0,1-.72-1.88A4,4,0,0,1,566,603.52Z" transform="translate(-550.82 -582.26)" style="fill: #fed206"></path></svg>