<svg id="Layer_1" data-name="Layer 1" xmlns="http://www.w3.org/2000/svg" xmlns:xlink="http://www.w3.org/1999/xlink" viewBox="0 0 170 170"><defs><style>.cls-1{fill:none;}.cls-2{clip-path:url(#clip-path);}.cls-3{clip-path:url(#clip-path-2);}.cls-4{fill:#e52328;}.cls-5{fill:#fff;}</style><clipPath id="clip-path"><circle class="cls-1" cx="85" cy="85" r="85"/></clipPath><clipPath id="clip-path-2"><rect class="cls-1" x="-39.01" width="248.03" height="170"/></clipPath></defs><g class="cls-2"><g id="CANADA"><g class="cls-3"><rect class="cls-4" x="-39.01" width="58.35" height="170"/><rect class="cls-4" x="150.67" width="58.35" height="170"/><rect class="cls-5" x="19.33" width="131.34" height="170"/><g class="cls-3"><path class="cls-4" d="M85,31.42,76.4,48.13c-1,1.82-2.74,1.62-4.49.62l-6.23-3.36,4.65,25.68c1,4.71-2.15,4.71-3.71,2.68L55.75,61.07,54,67.5A2.08,2.08,0,0,1,51.55,69L37.81,66l3.61,13.69c.78,3,1.37,4.31-.79,5.11l-4.9,2.4,23.68,20a3.27,3.27,0,0,1,1.06,3.34l-2.06,7.08c8.12-1,15.45-1.85,23.58-2.84.71,0,1.93.64,1.93,1.51l-1.09,25.94h4l-.64-25.88c0-.85,1.1-1.57,1.81-1.57,8.16,1,15.45,1.88,23.61,2.84l-2.08-7.08a3.33,3.33,0,0,1,1.07-3.34l23.67-20-4.9-2.4c-2.16-.8-1.55-2.07-.78-5.11L132.17,66l-13.74,3A2.11,2.11,0,0,1,116,67.5l-1.75-6.43L103.35,73.75c-1.55,2-4.68,2-3.7-2.68l4.63-25.68-6.21,3.36c-1.75,1-3.5,1.2-4.47-.62Z"/></g></g></g></g></svg>