<svg id="Layer_1" data-name="Layer 1" xmlns="http://www.w3.org/2000/svg" xmlns:xlink="http://www.w3.org/1999/xlink" viewBox="0 0 170 170"><defs><style>.cls-1{fill:none;}.cls-2{clip-path:url(#clip-path);}.cls-3{fill:#2f2e7a;}.cls-4{clip-path:url(#clip-path-2);}.cls-5{fill:#fff;}.cls-6{fill:#e52328;}</style><clipPath id="clip-path"><circle class="cls-1" cx="85" cy="85" r="85"/></clipPath><clipPath id="clip-path-2"><rect class="cls-1" x="-35.07" width="227.09" height="132.48"/></clipPath></defs><g class="cls-2"><circle class="cls-3" cx="85" cy="85" r="85"/><g id="AUSTRALIA"><g class="cls-4"><rect class="cls-3" x="-35.07" width="227.09" height="132.48"/><polygon class="cls-5" points="127.07 114.17 128.48 118.49 132.73 116.89 130.23 120.67 134.12 122.99 129.58 123.38 130.23 127.87 127.07 124.58 123.97 127.87 124.59 123.38 120.07 122.99 123.97 120.67 121.46 116.89 125.7 118.49 127.07 114.17"/><polygon class="cls-5" points="101.86 74.21 103.25 78.53 107.48 76.92 104.98 80.71 108.88 83.02 104.36 83.4 104.98 87.92 101.86 84.62 98.72 87.92 99.34 83.4 94.82 83.02 98.72 80.71 96.22 76.92 100.46 78.53 101.86 74.21"/><polygon class="cls-5" points="127.07 46.86 128.48 51.19 132.73 49.59 130.23 53.36 134.12 55.69 129.58 56.08 130.23 60.57 127.07 57.29 123.97 60.57 124.59 56.08 120.07 55.69 123.97 53.36 121.46 49.59 125.7 51.19 127.07 46.86"/><polygon class="cls-5" points="149.53 67.48 150.91 71.8 155.19 70.19 152.65 73.98 156.56 76.28 152.03 76.69 152.67 81.19 149.53 77.89 146.4 81.19 147.04 76.69 142.5 76.28 146.4 73.98 143.91 70.19 148.15 71.8 149.53 67.48"/><polygon class="cls-5" points="137.18 87.72 138.29 90.42 141.18 90.64 138.97 92.51 139.65 95.34 137.18 93.79 134.73 95.34 135.41 92.51 133.19 90.64 136.09 90.42 137.18 87.72"/><polygon class="cls-5" points="14.72 0 14.72 19.93 -35.07 19.93 -35.07 39.84 14.72 39.84 14.72 59.75 34.61 59.75 34.61 39.84 84.43 39.84 84.43 19.93 34.61 19.93 34.61 0 14.72 0"/><polygon class="cls-5" points="-35.07 0 -35.07 6.68 71.06 59.75 84.41 59.75 84.41 53.08 -21.71 0 -35.07 0"/><polygon class="cls-5" points="71.06 0 -35.07 53.08 -35.07 59.75 -21.71 59.75 84.41 6.68 84.41 0 71.06 0"/><polygon class="cls-6" points="18.68 0 18.68 23.9 -35.07 23.9 -35.07 35.85 18.68 35.85 18.68 59.75 30.63 59.75 30.63 35.85 84.41 35.85 84.41 23.9 30.63 23.9 30.63 0 18.68 0"/><path class="cls-6" d="M-35.07,0V4.47L-4.18,19.92H4.76ZM75.5,0,35.68,19.92h8.91L84.41,0Z"/><path class="cls-6" d="M4.76,39.84-35.07,59.75h8.9L13.66,39.84Zm39.83,0L84.43,59.75V55.3L53.49,39.84Z"/></g></g><polygon class="cls-5" points="51.27 108.99 54.76 119.76 65.31 115.76 59.08 125.16 68.76 130.92 57.53 131.91 59.08 143.07 51.27 134.9 43.52 143.07 45.06 131.91 33.81 130.92 43.52 125.16 37.27 115.76 47.84 119.76 51.27 108.99"/></g></svg>