<svg id="Layer_1" data-name="Layer 1" xmlns="http://www.w3.org/2000/svg" xmlns:xlink="http://www.w3.org/1999/xlink" viewBox="0 0 170 170"><defs><style>.cls-1{fill:none;}.cls-2{clip-path:url(#clip-path);}.cls-3{clip-path:url(#clip-path-2);}.cls-4{fill:#fff;}.cls-5{fill:#bd2238;}.cls-6{fill:#2c3178;}</style><clipPath id="clip-path"><circle class="cls-1" cx="85" cy="85" r="85"/></clipPath><clipPath id="clip-path-2"><rect class="cls-1" x="-60.72" width="291.44" height="170"/></clipPath></defs><g class="cls-2"><g id="UNITED_KINGDOM" data-name="UNITED KINGDOM"><g class="cls-3"><rect class="cls-4" x="-60.72" width="291.44" height="170"/><polygon class="cls-5" points="134.42 61.46 230.72 7.56 230.72 0 224.08 0 114.28 61.46 134.42 61.46"/><polygon class="cls-5" points="129.88 111.94 230.72 168.38 230.72 157.11 150.03 111.94 129.88 111.94"/><polygon class="cls-5" points="-60.72 12.94 25.55 61.46 45.7 61.46 -60.72 1.65 -60.72 12.94"/><polygon class="cls-5" points="41.13 111.94 -60.72 169.01 -60.72 170 -42.32 170 61.3 111.94 41.13 111.94"/><polygon class="cls-6" points="210.78 0 108.73 0 108.73 57.15 210.78 0"/><polygon class="cls-6" points="63.68 0 -37.95 0 63.68 57.15 63.68 0"/><polygon class="cls-6" points="230.72 61.46 230.72 22.46 161.5 61.46 230.72 61.46"/><polygon class="cls-6" points="230.72 150.53 230.72 111.94 161.5 111.94 230.72 150.53"/><polygon class="cls-6" points="-32.18 170 63.68 170 63.68 116.29 -32.18 170"/><polygon class="cls-6" points="108.73 170 204.91 170 108.73 116.29 108.73 170"/><polygon class="cls-6" points="-60.72 111.94 -60.72 152.27 10.91 111.94 -60.72 111.94"/><polygon class="cls-6" points="-60.72 61.46 10.91 61.46 -60.72 21.09 -60.72 61.46"/><polygon class="cls-5" points="72.69 0 72.69 71.57 -60.72 71.57 -60.72 101.88 72.69 101.88 72.69 170 99.72 170 99.72 101.88 230.72 101.88 230.72 71.57 99.72 71.57 99.72 0 72.69 0"/></g></g></g></svg>