<svg id="Layer_1" data-name="Layer 1" xmlns="http://www.w3.org/2000/svg" viewBox="0 0 67.58 66"><ellipse cx="33.79" cy="33" rx="33.79" ry="33" style="fill:#293b4a"/><path d="M2537.81,569.19v33.53H2512.6q-.09-1.22-.09-2.46a31.1,31.1,0,0,1,.93-7.58c0-.13.06-.26.1-.39s0-.14.05-.21a32.23,32.23,0,0,1,1.81-5l.07-.14.06-.14c.28-.58.57-1.15.88-1.71h0a31.27,31.27,0,0,1,1.86-3l.22-.31.16-.21c.19-.27.39-.53.6-.79l.18-.24.08-.09a32.65,32.65,0,0,1,14.57-10.27l.13,0,.1,0A34.15,34.15,0,0,1,2537.81,569.19Z" transform="translate(-2511.45 -567.34)" style="fill:#123c9e"/><path d="M2534.94,572.06l.45,1.35-1.18-.83-1.18.83.45-1.35-1.18-.84h1.46l.32-1,.13,0,.1,0,.35,1h1.46Z" transform="translate(-2511.45 -567.34)" style="fill:#f9f9f9"/><path d="M2534.21,570.21v1.43l-.45-.42.32-1Z" transform="translate(-2511.45 -567.34)" style="fill:#f9f9f9"/><path d="M2534.21,571.64l-.73.42-1.18-.84Z" transform="translate(-2511.45 -567.34)" style="fill:#f9f9f9"/><path d="M2534.21,571.64l.45-.42h1.46Z" transform="translate(-2511.45 -567.34)" style="fill:#f9f9f9"/><path d="M2534.21,571.64l-1.91-.42h1.46Z" transform="translate(-2511.45 -567.34)" style="fill:#f9f9f9"/><path d="M2534.21,571.64l-1.18,1.77,1.18-.83Z" transform="translate(-2511.45 -567.34)" style="fill:#f9f9f9"/><path d="M2536.12,571.22l-1.91.42.73.42Z" transform="translate(-2511.45 -567.34)" style="fill:#f9f9f9"/><path d="M2534.21,571.64l1.18,1.77-1.18-.83Z" transform="translate(-2511.45 -567.34)" style="fill:#f9f9f9"/><path d="M2524.36,576.82l.45,1.35h1.46l-1.18.84.45,1.36-1.18-.84-1.18.84.45-1.36-1.18-.84h1.46Z" transform="translate(-2511.45 -567.34)" style="fill:#f9f9f9"/><path d="M2524.36,578.59l-.45-.42.45-1.35Z" transform="translate(-2511.45 -567.34)" style="fill:#f9f9f9"/><path d="M2524.36,578.59l-.73.42-1.18-.84Z" transform="translate(-2511.45 -567.34)" style="fill:#f9f9f9"/><path d="M2524.36,578.59l.45-.42h1.46Z" transform="translate(-2511.45 -567.34)" style="fill:#f9f9f9"/><path d="M2524.36,578.59l-1.91-.42h1.46Z" transform="translate(-2511.45 -567.34)" style="fill:#f9f9f9"/><path d="M2524.36,578.59l-1.18,1.78,1.18-.84Z" transform="translate(-2511.45 -567.34)" style="fill:#f9f9f9"/><path d="M2526.27,578.17l-1.91.42.73.42Z" transform="translate(-2511.45 -567.34)" style="fill:#f9f9f9"/><path d="M2524.36,578.59l1.18,1.78-1.18-.84Z" transform="translate(-2511.45 -567.34)" style="fill:#f9f9f9"/><path d="M2534.21,576.82l.45,1.35h1.46l-1.18.84.45,1.36-1.18-.84-1.18.84.45-1.36-1.18-.84h1.46Z" transform="translate(-2511.45 -567.34)" style="fill:#f9f9f9"/><path d="M2534.21,578.59l-.45-.42.45-1.35Z" transform="translate(-2511.45 -567.34)" style="fill:#f9f9f9"/><path d="M2534.21,578.59l-.73.42-1.18-.84Z" transform="translate(-2511.45 -567.34)" style="fill:#f9f9f9"/><path d="M2534.21,578.59l.45-.42h1.46Z" transform="translate(-2511.45 -567.34)" style="fill:#f9f9f9"/><path d="M2534.21,578.59l-1.91-.42h1.46Z" transform="translate(-2511.45 -567.34)" style="fill:#f9f9f9"/><path d="M2534.21,578.59l-1.18,1.78,1.18-.84Z" transform="translate(-2511.45 -567.34)" style="fill:#f9f9f9"/><path d="M2536.12,578.17l-1.91.42.73.42Z" transform="translate(-2511.45 -567.34)" style="fill:#f9f9f9"/><path d="M2534.21,578.59l1.18,1.78-1.18-.84Z" transform="translate(-2511.45 -567.34)" style="fill:#f9f9f9"/><path d="M2515.53,586.84l.16.48-.29-.2.07-.14Z" transform="translate(-2511.45 -567.34)" style="fill:#f9f9f9"/><path d="M2516.42,585.13h0Z" transform="translate(-2511.45 -567.34)" style="fill:#f9f9f9"/><path d="M2516.42,585.13h0Z" transform="translate(-2511.45 -567.34)" style="fill:#f9f9f9"/><path d="M2515.69,587.32l-.29-.2.07-.14Z" transform="translate(-2511.45 -567.34)" style="fill:#f9f9f9"/><path d="M2524.36,583.77l.45,1.36h1.46l-1.18.83.45,1.36-1.18-.84-1.18.84.45-1.36-1.18-.83h1.46Z" transform="translate(-2511.45 -567.34)" style="fill:#f9f9f9"/><path d="M2524.36,585.55l-.45-.42.45-1.36Z" transform="translate(-2511.45 -567.34)" style="fill:#f9f9f9"/><path d="M2524.36,585.55l-.73.41-1.18-.83Z" transform="translate(-2511.45 -567.34)" style="fill:#f9f9f9"/><path d="M2524.36,585.55l.45-.42h1.46Z" transform="translate(-2511.45 -567.34)" style="fill:#f9f9f9"/><path d="M2524.36,585.55l-1.91-.42h1.46Z" transform="translate(-2511.45 -567.34)" style="fill:#f9f9f9"/><path d="M2524.36,585.55l-1.18,1.77,1.18-.84Z" transform="translate(-2511.45 -567.34)" style="fill:#f9f9f9"/><path d="M2526.27,585.13l-1.91.42.73.41Z" transform="translate(-2511.45 -567.34)" style="fill:#f9f9f9"/><path d="M2524.36,585.55l1.18,1.77-1.18-.84Z" transform="translate(-2511.45 -567.34)" style="fill:#f9f9f9"/><path d="M2534.21,583.77l.45,1.36h1.46l-1.18.83.45,1.36-1.18-.84-1.18.84.45-1.36-1.18-.83h1.46Z" transform="translate(-2511.45 -567.34)" style="fill:#f9f9f9"/><path d="M2534.21,585.55l-.45-.42.45-1.36Z" transform="translate(-2511.45 -567.34)" style="fill:#f9f9f9"/><path d="M2534.21,585.55l-.73.41-1.18-.83Z" transform="translate(-2511.45 -567.34)" style="fill:#f9f9f9"/><path d="M2534.21,585.55l.45-.42h1.46Z" transform="translate(-2511.45 -567.34)" style="fill:#f9f9f9"/><path d="M2534.21,585.55l-1.91-.42h1.46Z" transform="translate(-2511.45 -567.34)" style="fill:#f9f9f9"/><path d="M2534.21,585.55l-1.18,1.77,1.18-.84Z" transform="translate(-2511.45 -567.34)" style="fill:#f9f9f9"/><path d="M2536.12,585.13l-1.91.42.73.41Z" transform="translate(-2511.45 -567.34)" style="fill:#f9f9f9"/><path d="M2534.21,585.55l1.18,1.77-1.18-.84Z" transform="translate(-2511.45 -567.34)" style="fill:#f9f9f9"/><path d="M2515.24,592.92l.45,1.36-1.18-.84-1.18.84.45-1.36-.34-.24c0-.13.06-.26.1-.39a1.6,1.6,0,0,0,.05-.21h.47l.45-1.35.45,1.35h1.46Z" transform="translate(-2511.45 -567.34)" style="fill:#f9f9f9"/><path d="M2514.51,592.5l-.45-.42.45-1.36Z" transform="translate(-2511.45 -567.34)" style="fill:#f9f9f9"/><path d="M2514.51,592.5l-.73.42-.34-.24c0-.13.06-.26.1-.39Z" transform="translate(-2511.45 -567.34)" style="fill:#f9f9f9"/><path d="M2514.51,592.5l.45-.42h1.46Z" transform="translate(-2511.45 -567.34)" style="fill:#f9f9f9"/><path d="M2514.51,592.5l-1-.21c0-.07,0-.14.05-.21h.47Z" transform="translate(-2511.45 -567.34)" style="fill:#f9f9f9"/><path d="M2514.51,592.5l-1.18,1.77,1.18-.84Z" transform="translate(-2511.45 -567.34)" style="fill:#f9f9f9"/><path d="M2516.42,592.08l-1.91.42.73.42Z" transform="translate(-2511.45 -567.34)" style="fill:#f9f9f9"/><path d="M2514.51,592.5l1.18,1.77-1.18-.84Z" transform="translate(-2511.45 -567.34)" style="fill:#f9f9f9"/><path d="M2524.36,590.72l.45,1.36h1.46l-1.18.84.45,1.35-1.18-.84-1.18.84.45-1.35-1.18-.84h1.46Z" transform="translate(-2511.45 -567.34)" style="fill:#f9f9f9"/><path d="M2524.36,592.5l-.45-.42.45-1.36Z" transform="translate(-2511.45 -567.34)" style="fill:#f9f9f9"/><path d="M2524.36,592.5l-.73.42-1.18-.84Z" transform="translate(-2511.45 -567.34)" style="fill:#f9f9f9"/><path d="M2524.36,592.5l.45-.42h1.46Z" transform="translate(-2511.45 -567.34)" style="fill:#f9f9f9"/><path d="M2524.36,592.5l-1.91-.42h1.46Z" transform="translate(-2511.45 -567.34)" style="fill:#f9f9f9"/><path d="M2524.36,592.5l-1.18,1.77,1.18-.84Z" transform="translate(-2511.45 -567.34)" style="fill:#f9f9f9"/><path d="M2526.27,592.08l-1.91.42.73.42Z" transform="translate(-2511.45 -567.34)" style="fill:#f9f9f9"/><path d="M2524.36,592.5l1.18,1.77-1.18-.84Z" transform="translate(-2511.45 -567.34)" style="fill:#f9f9f9"/><path d="M2534.21,590.72l.45,1.36h1.46l-1.18.84.45,1.35-1.18-.84-1.18.84.45-1.35-1.18-.84h1.46Z" transform="translate(-2511.45 -567.34)" style="fill:#f9f9f9"/><path d="M2534.21,592.5l-.45-.42.45-1.36Z" transform="translate(-2511.45 -567.34)" style="fill:#f9f9f9"/><path d="M2534.21,592.5l-.73.42-1.18-.84Z" transform="translate(-2511.45 -567.34)" style="fill:#f9f9f9"/><path d="M2534.21,592.5l.45-.42h1.46Z" transform="translate(-2511.45 -567.34)" style="fill:#f9f9f9"/><path d="M2534.21,592.5l-1.91-.42h1.46Z" transform="translate(-2511.45 -567.34)" style="fill:#f9f9f9"/><path d="M2534.21,592.5l-1.18,1.77,1.18-.84Z" transform="translate(-2511.45 -567.34)" style="fill:#f9f9f9"/><path d="M2536.12,592.08l-1.91.42.73.42Z" transform="translate(-2511.45 -567.34)" style="fill:#f9f9f9"/><path d="M2534.21,592.5l1.18,1.77-1.18-.84Z" transform="translate(-2511.45 -567.34)" style="fill:#f9f9f9"/><path d="M2514.51,597.68,2515,599h1.46l-1.18.84.45,1.36-1.18-.84-1.18.84.45-1.36-1.18-.84h1.46Z" transform="translate(-2511.45 -567.34)" style="fill:#f9f9f9"/><path d="M2514.51,599.45l-.45-.42.45-1.35Z" transform="translate(-2511.45 -567.34)" style="fill:#f9f9f9"/><path d="M2514.51,599.45l-.73.42-1.18-.84Z" transform="translate(-2511.45 -567.34)" style="fill:#f9f9f9"/><path d="M2514.51,599.45l.45-.42h1.46Z" transform="translate(-2511.45 -567.34)" style="fill:#f9f9f9"/><path d="M2514.51,599.45l-1.91-.42h1.46Z" transform="translate(-2511.45 -567.34)" style="fill:#f9f9f9"/><path d="M2514.51,599.45l-1.18,1.78,1.18-.84Z" transform="translate(-2511.45 -567.34)" style="fill:#f9f9f9"/><path d="M2516.42,599l-1.91.42.73.42Z" transform="translate(-2511.45 -567.34)" style="fill:#f9f9f9"/><path d="M2514.51,599.45l1.18,1.78-1.18-.84Z" transform="translate(-2511.45 -567.34)" style="fill:#f9f9f9"/><path d="M2524.36,597.68l.45,1.35h1.46l-1.18.84.45,1.36-1.18-.84-1.18.84.45-1.36-1.18-.84h1.46Z" transform="translate(-2511.45 -567.34)" style="fill:#f9f9f9"/><path d="M2524.36,599.45l-.45-.42.45-1.35Z" transform="translate(-2511.45 -567.34)" style="fill:#f9f9f9"/><path d="M2524.36,599.45l-.73.42-1.18-.84Z" transform="translate(-2511.45 -567.34)" style="fill:#f9f9f9"/><path d="M2524.36,599.45l.45-.42h1.46Z" transform="translate(-2511.45 -567.34)" style="fill:#f9f9f9"/><path d="M2524.36,599.45l-1.91-.42h1.46Z" transform="translate(-2511.45 -567.34)" style="fill:#f9f9f9"/><path d="M2524.36,599.45l-1.18,1.78,1.18-.84Z" transform="translate(-2511.45 -567.34)" style="fill:#f9f9f9"/><path d="M2526.27,599l-1.91.42.73.42Z" transform="translate(-2511.45 -567.34)" style="fill:#f9f9f9"/><path d="M2524.36,599.45l1.18,1.78-1.18-.84Z" transform="translate(-2511.45 -567.34)" style="fill:#f9f9f9"/><path d="M2534.21,597.68l.45,1.35h1.46l-1.18.84.45,1.36-1.18-.84-1.18.84.45-1.36-1.18-.84h1.46Z" transform="translate(-2511.45 -567.34)" style="fill:#f9f9f9"/><path d="M2534.21,599.45l-.45-.42.45-1.35Z" transform="translate(-2511.45 -567.34)" style="fill:#f9f9f9"/><path d="M2534.21,599.45l-.73.42-1.18-.84Z" transform="translate(-2511.45 -567.34)" style="fill:#f9f9f9"/><path d="M2534.21,599.45l.45-.42h1.46Z" transform="translate(-2511.45 -567.34)" style="fill:#f9f9f9"/><path d="M2534.21,599.45l-1.91-.42h1.46Z" transform="translate(-2511.45 -567.34)" style="fill:#f9f9f9"/><path d="M2534.21,599.45l-1.18,1.78,1.18-.84Z" transform="translate(-2511.45 -567.34)" style="fill:#f9f9f9"/><path d="M2536.12,599l-1.91.42.73.42Z" transform="translate(-2511.45 -567.34)" style="fill:#f9f9f9"/><path d="M2534.21,599.45l1.18,1.78-1.18-.84Z" transform="translate(-2511.45 -567.34)" style="fill:#f9f9f9"/><path d="M2529.29,573.34l.45,1.36h1.46l-1.19.83.46,1.36-1.18-.84-1.18.84.45-1.36-1.18-.83h1.45Z" transform="translate(-2511.45 -567.34)" style="fill:#f9f9f9"/><path d="M2529.28,575.12l-.45-.42.45-1.36Z" transform="translate(-2511.45 -567.34)" style="fill:#f9f9f9"/><path d="M2529.28,575.12l-.73.41-1.18-.83Z" transform="translate(-2511.45 -567.34)" style="fill:#f9f9f9"/><path d="M2529.28,575.12l.45-.42h1.46Z" transform="translate(-2511.45 -567.34)" style="fill:#f9f9f9"/><path d="M2529.28,575.12l-1.91-.42h1.46Z" transform="translate(-2511.45 -567.34)" style="fill:#f9f9f9"/><path d="M2529.28,575.12l-1.18,1.77,1.18-.84Z" transform="translate(-2511.45 -567.34)" style="fill:#f9f9f9"/><path d="M2531.19,574.7l-1.91.42.73.41Z" transform="translate(-2511.45 -567.34)" style="fill:#f9f9f9"/><path d="M2529.28,575.12l1.18,1.77-1.18-.84Z" transform="translate(-2511.45 -567.34)" style="fill:#f9f9f9"/><path d="M2520.16,582.49l.45,1.35-1.18-.83-1.17.83.45-1.35-.44-.31.22-.32.16-.21h.33l.27-.79.18-.24.08-.09.38,1.12h1.45Z" transform="translate(-2511.45 -567.34)" style="fill:#f9f9f9"/><path d="M2519.43,580.62v1.45l-.45-.42.26-.79Z" transform="translate(-2511.45 -567.34)" style="fill:#f9f9f9"/><path d="M2519.43,582.07l-.72.42-.44-.31.22-.32Z" transform="translate(-2511.45 -567.34)" style="fill:#f9f9f9"/><path d="M2519.43,582.07l.45-.42h1.46Z" transform="translate(-2511.45 -567.34)" style="fill:#f9f9f9"/><path d="M2519.43,582.07l-.94-.21.15-.21h.34Z" transform="translate(-2511.45 -567.34)" style="fill:#f9f9f9"/><path d="M2519.43,582.07l-1.17,1.77,1.17-.83Z" transform="translate(-2511.45 -567.34)" style="fill:#f9f9f9"/><path d="M2521.34,581.65l-1.91.42.73.42Z" transform="translate(-2511.45 -567.34)" style="fill:#f9f9f9"/><path d="M2519.43,582.07l1.19,1.77-1.19-.83Z" transform="translate(-2511.45 -567.34)" style="fill:#f9f9f9"/><path d="M2529.29,580.3l.45,1.35h1.46l-1.18.84.45,1.35-1.18-.83-1.18.83.45-1.35-1.18-.84h1.45Z" transform="translate(-2511.45 -567.34)" style="fill:#f9f9f9"/><path d="M2529.28,582.07l-.45-.42.45-1.35Z" transform="translate(-2511.45 -567.34)" style="fill:#f9f9f9"/><path d="M2529.28,582.07l-.73.42-1.17-.84Z" transform="translate(-2511.45 -567.34)" style="fill:#f9f9f9"/><path d="M2529.29,582.07l.45-.42h1.46Z" transform="translate(-2511.45 -567.34)" style="fill:#f9f9f9"/><path d="M2529.28,582.07l-1.9-.42h1.45Z" transform="translate(-2511.45 -567.34)" style="fill:#f9f9f9"/><path d="M2529.28,582.07l-1.18,1.77,1.18-.83Z" transform="translate(-2511.45 -567.34)" style="fill:#f9f9f9"/><path d="M2531.2,581.65l-1.91.42.72.42Z" transform="translate(-2511.45 -567.34)" style="fill:#f9f9f9"/><path d="M2529.29,582.07l1.17,1.77-1.17-.83Z" transform="translate(-2511.45 -567.34)" style="fill:#f9f9f9"/><path d="M2519.43,587.25l.45,1.35h1.46l-1.18.84.46,1.36-1.19-.84-1.18.84.46-1.36-1.19-.84H2519Z" transform="translate(-2511.45 -567.34)" style="fill:#f9f9f9"/><path d="M2519.43,589l-.45-.42.45-1.35Z" transform="translate(-2511.45 -567.34)" style="fill:#f9f9f9"/><path d="M2519.43,589l-.73.42-1.18-.84Z" transform="translate(-2511.45 -567.34)" style="fill:#f9f9f9"/><path d="M2519.43,589l.45-.42h1.46Z" transform="translate(-2511.45 -567.34)" style="fill:#f9f9f9"/><path d="M2519.43,589l-1.91-.42H2519Z" transform="translate(-2511.45 -567.34)" style="fill:#f9f9f9"/><path d="M2519.43,589l-1.18,1.78,1.18-.84Z" transform="translate(-2511.45 -567.34)" style="fill:#f9f9f9"/><path d="M2521.34,588.6l-1.91.42.73.42Z" transform="translate(-2511.45 -567.34)" style="fill:#f9f9f9"/><path d="M2519.43,589l1.18,1.78-1.18-.84Z" transform="translate(-2511.45 -567.34)" style="fill:#f9f9f9"/><path d="M2529.29,587.25l.45,1.35h1.46l-1.19.84.45,1.36-1.17-.84-1.19.84.45-1.36-1.17-.84h1.45Z" transform="translate(-2511.45 -567.34)" style="fill:#f9f9f9"/><path d="M2529.28,589l-.45-.42.45-1.35Z" transform="translate(-2511.45 -567.34)" style="fill:#f9f9f9"/><path d="M2529.28,589l-.73.42-1.17-.84Z" transform="translate(-2511.45 -567.34)" style="fill:#f9f9f9"/><path d="M2529.28,589l.46-.42h1.45Z" transform="translate(-2511.45 -567.34)" style="fill:#f9f9f9"/><path d="M2529.28,589l-1.9-.42h1.45Z" transform="translate(-2511.45 -567.34)" style="fill:#f9f9f9"/><path d="M2529.28,589l-1.18,1.78,1.18-.84Z" transform="translate(-2511.45 -567.34)" style="fill:#f9f9f9"/><path d="M2531.19,588.6l-1.91.42.73.42Z" transform="translate(-2511.45 -567.34)" style="fill:#f9f9f9"/><path d="M2529.28,589l1.18,1.78-1.18-.84Z" transform="translate(-2511.45 -567.34)" style="fill:#f9f9f9"/><path d="M2519.43,594.2l.46,1.36h1.45l-1.18.84.46,1.35-1.19-.84-1.17.84.45-1.35-1.19-.84H2519Z" transform="translate(-2511.45 -567.34)" style="fill:#f9f9f9"/><path d="M2519.43,596l-.45-.42.45-1.36Z" transform="translate(-2511.45 -567.34)" style="fill:#f9f9f9"/><path d="M2519.43,596l-.73.42-1.18-.84Z" transform="translate(-2511.45 -567.34)" style="fill:#f9f9f9"/><path d="M2519.43,596l.45-.42h1.46Z" transform="translate(-2511.45 -567.34)" style="fill:#f9f9f9"/><path d="M2519.43,596l-1.91-.42H2519Z" transform="translate(-2511.45 -567.34)" style="fill:#f9f9f9"/><path d="M2519.43,596l-1.18,1.77,1.18-.84Z" transform="translate(-2511.45 -567.34)" style="fill:#f9f9f9"/><path d="M2521.34,595.56l-1.91.42.73.42Z" transform="translate(-2511.45 -567.34)" style="fill:#f9f9f9"/><path d="M2519.43,596l1.18,1.77-1.18-.84Z" transform="translate(-2511.45 -567.34)" style="fill:#f9f9f9"/><path d="M2529.29,594.2l.45,1.36h1.46l-1.19.84.45,1.35-1.17-.84-1.19.84.45-1.35-1.17-.84h1.45Z" transform="translate(-2511.45 -567.34)" style="fill:#f9f9f9"/><path d="M2529.28,596l-.45-.41.45-1.36Z" transform="translate(-2511.45 -567.34)" style="fill:#f9f9f9"/><path d="M2529.28,596l-.73.42-1.17-.84Z" transform="translate(-2511.45 -567.34)" style="fill:#f9f9f9"/><path d="M2529.28,596l.46-.42h1.45Z" transform="translate(-2511.45 -567.34)" style="fill:#f9f9f9"/><path d="M2529.28,596l-1.9-.42h1.45Z" transform="translate(-2511.45 -567.34)" style="fill:#f9f9f9"/><path d="M2529.28,596l-1.18,1.78,1.18-.84Z" transform="translate(-2511.45 -567.34)" style="fill:#f9f9f9"/><path d="M2531.19,595.56l-1.91.42.73.42Z" transform="translate(-2511.45 -567.34)" style="fill:#f9f9f9"/><path d="M2529.28,596l1.18,1.78-1.18-.84Z" transform="translate(-2511.45 -567.34)" style="fill:#f9f9f9"/><path d="M2562.56,573.28h-24.75v-4.09a33.51,33.51,0,0,1,7.35-.81A33,33,0,0,1,2562.56,573.28Z" transform="translate(-2511.45 -567.34)" style="fill:#ff0028"/><path d="M2568.72,578.19h-30.91v-4.91h24.75A32.58,32.58,0,0,1,2568.72,578.19Z" transform="translate(-2511.45 -567.34)" style="fill:#f3f3f3"/><path d="M2572.67,583.09h-34.86v-4.9h30.91A32.1,32.1,0,0,1,2572.67,583.09Z" transform="translate(-2511.45 -567.34)" style="fill:#ff0028"/><path d="M2575.3,588h-37.49v-4.91h34.86A30.85,30.85,0,0,1,2575.3,588Z" transform="translate(-2511.45 -567.34)" style="fill:#f3f3f3"/><path d="M2576.93,592.9h-39.12V588h37.49A30.28,30.28,0,0,1,2576.93,592.9Z" transform="translate(-2511.45 -567.34)" style="fill:#ff0028"/><path d="M2577.71,597.81h-39.9V592.9h39.12A30.82,30.82,0,0,1,2577.71,597.81Z" transform="translate(-2511.45 -567.34)" style="fill:#f3f3f3"/><path d="M2577.81,600.26c0,.83,0,1.65-.1,2.46h-39.9v-4.91h39.9C2577.77,598.62,2577.81,599.44,2577.81,600.26Z" transform="translate(-2511.45 -567.34)" style="fill:#ff0028"/><path d="M2577.71,602.72a30.52,30.52,0,0,1-.78,4.9h-63.55a31.67,31.67,0,0,1-.78-4.9Z" transform="translate(-2511.45 -567.34)" style="fill:#f3f3f3"/><path d="M2576.93,607.62a30.72,30.72,0,0,1-1.63,4.91H2515a31.76,31.76,0,0,1-1.63-4.91Z" transform="translate(-2511.45 -567.34)" style="fill:#ff0028"/><path d="M2575.3,612.53a31.19,31.19,0,0,1-2.63,4.9h-55a32,32,0,0,1-2.63-4.9Z" transform="translate(-2511.45 -567.34)" style="fill:#f3f3f3"/><path d="M2572.67,617.43a32.18,32.18,0,0,1-4,4.91H2521.6a32.25,32.25,0,0,1-4-4.91Z" transform="translate(-2511.45 -567.34)" style="fill:#ff0028"/><path d="M2568.72,622.34a32.85,32.85,0,0,1-6.16,4.9h-34.81a32.87,32.87,0,0,1-6.15-4.9Z" transform="translate(-2511.45 -567.34)" style="fill:#f3f3f3"/><path d="M2562.56,627.24a33.3,33.3,0,0,1-34.81,0Z" transform="translate(-2511.45 -567.34)" style="fill:#ff0028"/></svg>