<svg id="Layer_1" data-name="Layer 1" xmlns="http://www.w3.org/2000/svg" xmlns:xlink="http://www.w3.org/1999/xlink" viewBox="0 0 170 170"><defs><style>.cls-1{fill:none;}.cls-2{clip-path:url(#clip-path);}.cls-3{fill:#304197;}.cls-4{fill:#fcee23;}</style><clipPath id="clip-path"><circle class="cls-1" cx="85" cy="85" r="85"/></clipPath></defs><g class="cls-2"><rect class="cls-3" x="-64.03" y="-1.93" width="298.06" height="173.86"/><polygon class="cls-4" points="84.99 16.36 82.97 22.6 76.43 22.6 81.72 26.43 79.7 32.66 85 28.81 90.3 32.66 88.27 26.44 93.57 22.6 87.02 22.6 84.99 16.36"/><polygon class="cls-4" points="87.02 143.57 84.99 137.34 82.97 143.57 76.43 143.57 81.72 147.41 79.7 153.64 85 149.79 90.3 153.64 88.27 147.41 93.57 143.57 87.02 143.57"/><polygon class="cls-4" points="54.6 24.51 52.57 30.75 46.04 30.75 51.33 34.58 49.3 40.81 54.6 36.96 59.9 40.81 57.88 34.59 63.17 30.75 56.63 30.75 54.6 24.51"/><polygon class="cls-4" points="115.39 24.51 113.37 30.75 106.83 30.75 112.12 34.58 110.1 40.81 115.4 36.96 120.7 40.81 118.67 34.59 123.96 30.75 117.42 30.75 115.39 24.51"/><polygon class="cls-4" points="24.2 89.19 29.5 93.04 27.48 86.82 32.77 82.98 26.23 82.98 24.2 76.74 22.17 82.98 15.64 82.98 20.93 86.82 18.91 93.04 24.2 89.19"/><polygon class="cls-4" points="154.36 82.98 147.82 82.98 145.79 76.74 143.77 82.98 137.23 82.98 142.52 86.82 140.5 93.04 145.8 89.19 151.09 93.04 149.07 86.82 154.36 82.98"/><polygon class="cls-4" points="34.36 113.16 32.33 106.93 30.31 113.16 23.77 113.16 29.06 117 27.04 123.22 32.34 119.38 37.64 123.22 35.61 117 40.91 113.16 34.36 113.16"/><polygon class="cls-4" points="139.68 113.16 137.65 106.93 135.63 113.16 129.09 113.16 134.38 117 132.36 123.22 137.66 119.38 142.96 123.22 140.93 117 146.23 113.16 139.68 113.16"/><polygon class="cls-4" points="32.33 46.56 30.31 52.79 23.77 52.79 29.06 56.63 27.04 62.86 32.34 59.01 37.64 62.86 35.61 56.64 40.91 52.79 34.36 52.79 32.33 46.56"/><polygon class="cls-4" points="134.38 56.63 132.36 62.86 137.66 59.01 142.96 62.86 140.93 56.64 146.23 52.79 139.68 52.79 137.65 46.56 135.63 52.79 129.09 52.79 134.38 56.63"/><polygon class="cls-4" points="56.63 135.42 54.6 129.19 52.57 135.42 46.04 135.42 51.33 139.26 49.3 145.49 54.6 141.64 59.9 145.49 57.88 139.26 63.17 135.42 56.63 135.42"/><polygon class="cls-4" points="117.42 135.42 115.39 129.19 113.37 135.42 106.83 135.42 112.12 139.26 110.1 145.49 115.4 141.64 120.7 145.49 118.67 139.27 123.96 135.42 117.42 135.42"/></g></svg>