<svg id="Layer_1" data-name="Layer 1" xmlns="http://www.w3.org/2000/svg" viewBox="0 0 38.01 38.01"><path d="M2039.93,366.65h-31.27a2.86,2.86,0,0,1-2.87-2.86V332.51a2.86,2.86,0,0,1,2.87-2.86h31.27a2.85,2.85,0,0,1,2.87,2.86v31.28A2.81,2.81,0,0,1,2039.93,366.65Z" transform="translate(-2005.29 -329.15)" style="fill:none;stroke:#293b4a;stroke-miterlimit:10"/><path d="M2024.33,333.91v14.21l9.74,8.85" transform="translate(-2005.29 -329.15)" style="fill:none;stroke:#293b4a;stroke-miterlimit:10"/><path d="M2027.58,351.05a4.45,4.45,0,0,1-3.25,1.46,4.33,4.33,0,1,1,0-8.66" transform="translate(-2005.29 -329.15)" style="fill:none;stroke:#293b4a;stroke-miterlimit:10"/></svg>