<svg xmlns="http://www.w3.org/2000/svg" viewBox="0 0 261.76 272.49"><defs><style>.cls-1{fill:#f27a3f;}.cls-2{fill:#9c9593;}.cls-3{fill:#f37a41;}.cls-4{fill:#fff;}</style></defs><g id="Layer_2" data-name="Layer 2"><g id="Layer_2-2" data-name="Layer 2"><path class="cls-1" d="M195,68.79l-40.16,203.7C83.49,253.29,27.27,209.14,0,140.09Z"/><g id="Artwork_8" data-name="Artwork 8"><path class="cls-2" d="M220.34,49.62,260.06,36c3.83,14.65,1.21,29.25-8.11,41.19Z"/><path class="cls-2" d="M219,42.23l8.1-41.17c14.67,4.14,25.28,14.38,31.61,27.61Z"/><path class="cls-2" d="M211.38,41.51,179.77,13.89C191.13,2.93,204-1.26,219.49.32Z"/><path class="cls-2" d="M205.71,47.87,166,61.45a47.16,47.16,0,0,1,8.11-41.19Z"/><path class="cls-3" d="M194.44,70.35l-8.11,41.18c-14.55-4.22-26-13.46-31.61-27.61Z"/><path class="cls-2" d="M215,55.86l31.61,27.61A45.66,45.66,0,0,1,206.9,97Z"/></g><path class="cls-4" d="M47.69,146.75h3.37a11.07,11.07,0,0,1,3.95.5,4,4,0,0,1,1.91,1.64,5.08,5.08,0,0,1,.7,2.71,4.53,4.53,0,0,1-.92,2.9,4.73,4.73,0,0,1-2.48,1.62,14.5,14.5,0,0,1-3.35.26v7.07H47.69Zm3.18,6.53h1a5.59,5.59,0,0,0,1.66-.17,1.54,1.54,0,0,0,.73-.57,1.64,1.64,0,0,0,.27-.95,1.51,1.51,0,0,0-.75-1.41,4.27,4.27,0,0,0-2-.33h-.9Z"/><path class="cls-4" d="M62.81,146.75H66v16.7H62.81Z"/><path class="cls-4" d="M71.85,146.75H81v3.11H75v3h6v3.05H75v4.4h6v3.12H71.85Z"/><path class="cls-4" d="M92,150.78a6.12,6.12,0,0,1,4.74,2.07,6.64,6.64,0,0,1-.1,9,6.52,6.52,0,0,1-9.28,0,6.6,6.6,0,0,1-.1-9A6.1,6.1,0,0,1,92,150.78Zm0,1.55a4.59,4.59,0,0,0-3.41,1.47,5.13,5.13,0,0,0-.77,6,4.57,4.57,0,0,0,1.75,1.79,5,5,0,0,0,4.86,0,4.63,4.63,0,0,0,1.75-1.79,5,5,0,0,0,.65-2.5,4.91,4.91,0,0,0-1.43-3.54A4.58,4.58,0,0,0,92,152.33Z"/><path class="cls-4" d="M103.64,151.1h1.59v2.21a6.57,6.57,0,0,1,2.11-1.9,5.18,5.18,0,0,1,2.52-.63,4.35,4.35,0,0,1,2.46.7,4.22,4.22,0,0,1,1.59,1.9,10,10,0,0,1,.51,3.71v6.36h-1.59v-5.89a14.25,14.25,0,0,0-.18-2.85,3.12,3.12,0,0,0-1.06-1.85,3.2,3.2,0,0,0-2-.62,3.9,3.9,0,0,0-2.59,1,4.42,4.42,0,0,0-1.5,2.36,15.71,15.71,0,0,0-.23,3.36v4.53h-1.59Z"/><path class="cls-4" d="M130.53,159.35l1.34.71a7.47,7.47,0,0,1-1.52,2.09,6.19,6.19,0,0,1-1.95,1.21,6.9,6.9,0,0,1-2.44.41,5.91,5.91,0,0,1-4.73-2,6.68,6.68,0,0,1-1.71-4.48,6.61,6.61,0,0,1,1.45-4.19,5.9,5.9,0,0,1,4.9-2.34,6.13,6.13,0,0,1,5,2.39,6.76,6.76,0,0,1,1.36,4.23H121.16a5,5,0,0,0,1.38,3.53,4.36,4.36,0,0,0,3.28,1.38,5.29,5.29,0,0,0,1.84-.33,5,5,0,0,0,1.52-.87A7.63,7.63,0,0,0,130.53,159.35Zm0-3.32a5.22,5.22,0,0,0-.93-2,4.38,4.38,0,0,0-1.61-1.22,4.88,4.88,0,0,0-2.1-.47,4.56,4.56,0,0,0-3.13,1.17,5.38,5.38,0,0,0-1.44,2.56Z"/><path class="cls-4" d="M148,159.35l1.34.71a7.47,7.47,0,0,1-1.52,2.09,6.19,6.19,0,0,1-2,1.21,6.9,6.9,0,0,1-2.44.41,5.91,5.91,0,0,1-4.73-2,6.68,6.68,0,0,1-1.71-4.48,6.61,6.61,0,0,1,1.45-4.19,5.9,5.9,0,0,1,4.9-2.34,6.1,6.1,0,0,1,5,2.39,6.7,6.7,0,0,1,1.37,4.23H138.58a5,5,0,0,0,1.38,3.53,4.36,4.36,0,0,0,3.28,1.38,5.29,5.29,0,0,0,1.84-.33,5,5,0,0,0,1.52-.87A7.92,7.92,0,0,0,148,159.35Zm0-3.32a5.22,5.22,0,0,0-.93-2,4.38,4.38,0,0,0-1.61-1.22,4.88,4.88,0,0,0-2.1-.47,4.54,4.54,0,0,0-3.13,1.17,5.3,5.3,0,0,0-1.44,2.56Z"/><path class="cls-4" d="M154.36,151.1H156v1.8a5.57,5.57,0,0,1,1.53-1.59,3,3,0,0,1,1.68-.53,2.91,2.91,0,0,1,1.41.42l-.83,1.34a2.09,2.09,0,0,0-.84-.22,2.28,2.28,0,0,0-1.53.66,4.15,4.15,0,0,0-1.13,2,20.07,20.07,0,0,0-.29,4.27v4.18h-1.63Z"/><path class="cls-4" d="M119.61,128v-1.64h9.15V128H125v15.07h-1.71V128Z"/><path class="cls-4" d="M133.21,125.92h1.59v7a6.82,6.82,0,0,1,2.12-1.9,5.2,5.2,0,0,1,2.51-.63,4.36,4.36,0,0,1,2.46.71,4.19,4.19,0,0,1,1.59,1.89,10,10,0,0,1,.51,3.72v6.36H142.4v-5.9a15.44,15.44,0,0,0-.17-2.85,3.22,3.22,0,0,0-1.08-1.84,3.1,3.1,0,0,0-2-.62,4,4,0,0,0-2.59.95,4.5,4.5,0,0,0-1.5,2.36,16.47,16.47,0,0,0-.23,3.37v4.53h-1.59Z"/><path class="cls-4" d="M160.1,139l1.34.7a7.47,7.47,0,0,1-1.52,2.09A6.14,6.14,0,0,1,158,143a6.73,6.73,0,0,1-2.45.42,5.92,5.92,0,0,1-4.73-2,6.78,6.78,0,0,1-.26-8.67,5.9,5.9,0,0,1,4.9-2.34,6.1,6.1,0,0,1,5.05,2.4,6.69,6.69,0,0,1,1.36,4.22H150.73a5,5,0,0,0,1.38,3.53,4.38,4.38,0,0,0,3.28,1.38,5.25,5.25,0,0,0,1.84-.33,4.88,4.88,0,0,0,1.52-.87A7.28,7.28,0,0,0,160.1,139Zm0-3.33a5.1,5.1,0,0,0-.93-2,4.34,4.34,0,0,0-1.6-1.23,5,5,0,0,0-2.11-.47,4.51,4.51,0,0,0-3.12,1.17,5.3,5.3,0,0,0-1.45,2.56Z"/><path class="cls-4" d="M70.33,168.23l7.79,16.71h-1.8l-2.63-5.5h-7.2l-2.6,5.5H62l7.89-16.71Zm-.21,3.55-2.86,6.05H73Z"/><path class="cls-4" d="M79.57,172.58h1.64l3.79,9,3.94-9h.29l4,9,3.86-9h1.65l-5.37,12.36h-.29l-4-8.85-3.95,8.85h-.3Z"/><path class="cls-4" d="M115.19,172.58v12.36h-1.57v-2.12a6.86,6.86,0,0,1-2.24,1.83,6.2,6.2,0,0,1-2.72.61,6,6,0,0,1-4.48-1.9,6.38,6.38,0,0,1-1.86-4.63,6.27,6.27,0,0,1,1.87-4.57,6.14,6.14,0,0,1,4.51-1.89,5.85,5.85,0,0,1,2.76.64,6.21,6.21,0,0,1,2.16,2v-2.28Zm-6.36,1.22a4.77,4.77,0,0,0-4.23,2.48,5,5,0,0,0-.67,2.5,5.06,5.06,0,0,0,.67,2.49,4.88,4.88,0,0,0,1.8,1.86,4.71,4.71,0,0,0,2.42.66,5.08,5.08,0,0,0,2.48-.65,4.66,4.66,0,0,0,1.79-1.79,5.05,5.05,0,0,0,.63-2.53,4.93,4.93,0,0,0-1.41-3.58A4.68,4.68,0,0,0,108.83,173.8Z"/><path class="cls-4" d="M120.47,172.58h1.62v1.81a6,6,0,0,1,1.53-1.6,3,3,0,0,1,1.69-.52,2.9,2.9,0,0,1,1.4.42l-.83,1.34a2.09,2.09,0,0,0-.84-.22,2.31,2.31,0,0,0-1.53.65,4.1,4.1,0,0,0-1.12,2,19.13,19.13,0,0,0-.3,4.27v4.18h-1.62Z"/><path class="cls-4" d="M142.57,167.81v17.13H141v-2.12a6.89,6.89,0,0,1-2.25,1.83,6.14,6.14,0,0,1-2.72.61,6,6,0,0,1-4.47-1.9,6.38,6.38,0,0,1-1.86-4.63,6.27,6.27,0,0,1,1.87-4.57,6.12,6.12,0,0,1,4.51-1.89,5.81,5.81,0,0,1,2.75.64,6.15,6.15,0,0,1,2.17,2v-7.05Zm-6.36,6a4.85,4.85,0,0,0-2.45.65,4.91,4.91,0,0,0-1.79,1.83,5.05,5.05,0,0,0-.66,2.5,5,5,0,0,0,.67,2.49,4.81,4.81,0,0,0,1.8,1.86,4.71,4.71,0,0,0,2.42.66,5,5,0,0,0,2.47-.65,4.62,4.62,0,0,0,1.8-1.79,5.05,5.05,0,0,0,.63-2.53,4.93,4.93,0,0,0-1.41-3.58A4.68,4.68,0,0,0,136.21,173.8Z"/><path class="cls-4" d="M154.68,173.93l-1,1.06a3.7,3.7,0,0,0-2.49-1.24,1.89,1.89,0,0,0-1.33.51,1.59,1.59,0,0,0-.55,1.2,1.76,1.76,0,0,0,.45,1.14,6.5,6.5,0,0,0,1.91,1.31,7.1,7.1,0,0,1,2.42,1.77,3.27,3.27,0,0,1,.62,1.94,3.45,3.45,0,0,1-1.07,2.58,3.62,3.62,0,0,1-2.67,1.06,4.69,4.69,0,0,1-2-.47,4.42,4.42,0,0,1-1.61-1.28l1-1.14a3.46,3.46,0,0,0,2.58,1.38,2.33,2.33,0,0,0,1.63-.62,1.88,1.88,0,0,0,.23-2.65,7.21,7.21,0,0,0-2-1.32,6.47,6.47,0,0,1-2.27-1.7,3.22,3.22,0,0,1-.6-1.92,3.12,3.12,0,0,1,1-2.34,3.35,3.35,0,0,1,2.43-.93A5,5,0,0,1,154.68,173.93Z"/><path class="cls-4" d="M100.24,198.37H98.63a5.77,5.77,0,0,1,1.66-4.07,5.34,5.34,0,0,1,3.93-1.59,5,5,0,0,1,5.17,5,5.59,5.59,0,0,1-.68,2.68,19.63,19.63,0,0,1-2.65,3.38l-4.17,4.49h7.73v1.62H98.23l6.41-6.92a20,20,0,0,0,2.53-3.1,4.07,4.07,0,0,0,.59-2.12,3.28,3.28,0,0,0-1.05-2.44,3.59,3.59,0,0,0-2.58-1,3.63,3.63,0,0,0-2.68,1.07A4.63,4.63,0,0,0,100.24,198.37Z"/><path class="cls-4" d="M113.36,201.52a14.69,14.69,0,0,1,.71-5.13,6,6,0,0,1,2-2.75,5.06,5.06,0,0,1,5.86,0,6.16,6.16,0,0,1,2.09,2.82,17,17,0,0,1,0,10.07,6.13,6.13,0,0,1-2.09,2.82,4.93,4.93,0,0,1-3,.95,4.79,4.79,0,0,1-2.89-.92,6,6,0,0,1-2-2.75A14.47,14.47,0,0,1,113.36,201.52Zm1.58,0a13.74,13.74,0,0,0,.51,4.3A4.55,4.55,0,0,0,117,208a3.29,3.29,0,0,0,4.18,0,4.42,4.42,0,0,0,1.47-2.2,13.13,13.13,0,0,0,.63-4.32,12.93,12.93,0,0,0-.56-4.14,4.87,4.87,0,0,0-1.54-2.36,3.29,3.29,0,0,0-4.18,0,4.61,4.61,0,0,0-1.49,2.2A13.68,13.68,0,0,0,114.94,201.54Z"/><path class="cls-4" d="M130.4,198.37h-1.61a5.77,5.77,0,0,1,1.66-4.07,5.34,5.34,0,0,1,3.93-1.59,5,5,0,0,1,3.74,1.49,4.9,4.9,0,0,1,1.43,3.52,5.59,5.59,0,0,1-.68,2.68,19.13,19.13,0,0,1-2.65,3.38l-4.17,4.49h7.73v1.62H128.4l6.4-6.92a20.84,20.84,0,0,0,2.54-3.1,4.15,4.15,0,0,0,.58-2.12,3.28,3.28,0,0,0-1-2.44,3.56,3.56,0,0,0-2.58-1,3.63,3.63,0,0,0-2.67,1.07A4.59,4.59,0,0,0,130.4,198.37Z"/><path class="cls-4" d="M147.1,193.13h3.29v16.76h-1.66V194.77H146.1Z"/></g></g></svg>