<svg xmlns="http://www.w3.org/2000/svg" id="Layer_1" data-name="Layer 1" viewBox="0 0 533 376"><rect width="533" height="376" rx="30" style="fill:#fff"></rect><rect x="16" y="16" width="501" height="344" rx="15" style="fill:#f5f5f5"></rect><line x1="517" y1="43.5" x2="16" y2="43.5" style="fill:none;stroke:#fff"></line><line x1="521.57" y1="340.05" x2="12.15" y2="340.05" style="fill:none;stroke:#fff"></line><path d="M722.11,492.72V705.83a8.12,8.12,0,0,1-8.12,8.11H421.56a3.78,3.78,0,0,1-3.8-3.79V488.35a3.79,3.79,0,0,1,3.8-3.8H714A8.14,8.14,0,0,1,722.11,492.72Z" transform="translate(-333.39 -411.55)" style="fill:#fff"></path><path d="M433.73,713.94H421.19a3.78,3.78,0,0,1-3.8-3.79V488.35a3.79,3.79,0,0,1,3.8-3.8h12.54" transform="translate(-333.39 -411.55)" style="fill:#223849"></path><g style="opacity:0.699999988079071"><g style="opacity:0.699999988079071"><path d="M428.94,499.1H422.3a2.23,2.23,0,0,1-2.22-2.21v-6.64A2.23,2.23,0,0,1,422.3,488h6.64a2.23,2.23,0,0,1,2.21,2.22v6.64A2.22,2.22,0,0,1,428.94,499.1Z" transform="translate(-333.39 -411.55)" style="fill:#19ad4a;opacity:0.699999988079071;isolation:isolate"></path><path d="M510,484.66H433.73V713.94H510Z" transform="translate(-333.39 -411.55)" style="fill:#dadce0;opacity:0.699999988079071;isolation:isolate"></path><path d="M576.68,550.39H522.76a2.06,2.06,0,1,1,0-4.11h53.92a2.05,2.05,0,0,1,2.06,2.05A2,2,0,0,1,576.68,550.39Z" transform="translate(-333.39 -411.55)" style="fill:#e7e7e7;opacity:0.699999988079071;isolation:isolate"></path><path d="M478.06,500.1H443.75a2.06,2.06,0,1,1,0-4.11h34.31a2.06,2.06,0,0,1,2.06,2.06A2.09,2.09,0,0,1,478.06,500.1Z" transform="translate(-333.39 -411.55)" style="fill:#b2b2b2;opacity:0.699999988079071;isolation:isolate"></path><path d="M464.36,539.42H442.7a1.06,1.06,0,1,1,0-2.11h21.66a1.06,1.06,0,0,1,0,2.11Z" transform="translate(-333.39 -411.55)" style="fill:#b2b2b2;opacity:0.699999988079071;isolation:isolate"></path><path d="M490.08,512.86H443a1.32,1.32,0,0,1,0-2.64h47.17a1.31,1.31,0,0,1,1.32,1.32A1.38,1.38,0,0,1,490.08,512.86Z" transform="translate(-333.39 -411.55)" style="fill:#fff;opacity:0.699999988079071;isolation:isolate"></path><path d="M576.68,502.16H522.76a2.06,2.06,0,1,1,0-4.11h53.92a2.06,2.06,0,0,1,2.06,2.05A2,2,0,0,1,576.68,502.16Z" transform="translate(-333.39 -411.55)" style="fill:#b2b2b2;opacity:0.699999988079071;isolation:isolate"></path><path d="M576.68,542H522.76a2.06,2.06,0,1,1,0-4.11h53.92a2.06,2.06,0,0,1,2.06,2.06A2,2,0,0,1,576.68,542Z" transform="translate(-333.39 -411.55)" style="fill:#e7e7e7;opacity:0.699999988079071;isolation:isolate"></path><path d="M548.59,579.48H528a1.16,1.16,0,0,1,0-2.32h20.56a1.16,1.16,0,0,1,0,2.32Z" transform="translate(-333.39 -411.55)" style="fill:#fff;opacity:0.699999988079071;isolation:isolate"></path><path d="M552,595.29H528a1.16,1.16,0,1,1,0-2.31h24a1.16,1.16,0,1,1,0,2.31Z" transform="translate(-333.39 -411.55)" style="fill:#e5e9f7;opacity:0.699999988079071;isolation:isolate"></path><path d="M546,611.06H528a1.16,1.16,0,0,1,0-2.32H546a1.16,1.16,0,0,1,0,2.32Z" transform="translate(-333.39 -411.55)" style="fill:#e5e9f7;opacity:0.699999988079071;isolation:isolate"></path><path d="M552,626.87H528a1.16,1.16,0,0,1,0-2.32h24a1.16,1.16,0,0,1,0,2.32Z" transform="translate(-333.39 -411.55)" style="fill:#e5e9f7;opacity:0.699999988079071;isolation:isolate"></path><path d="M556.28,642.63H528a1.16,1.16,0,0,1,0-2.32h28.25a1.16,1.16,0,0,1,0,2.32Z" transform="translate(-333.39 -411.55)" style="fill:#e5e9f7;opacity:0.699999988079071;isolation:isolate"></path><path d="M552,658.39H528a1.16,1.16,0,0,1,0-2.32h24a1.16,1.16,0,0,1,0,2.32Z" transform="translate(-333.39 -411.55)" style="fill:#e5e9f7;opacity:0.699999988079071;isolation:isolate"></path><path d="M552,674.2H528a1.16,1.16,0,1,1,0-2.32h24a1.16,1.16,0,1,1,0,2.32Z" transform="translate(-333.39 -411.55)" style="fill:#e5e9f7;opacity:0.699999988079071;isolation:isolate"></path><path d="M593.5,595.29h-24a1.16,1.16,0,1,1,0-2.31h24a1.17,1.17,0,0,1,1.16,1.16A1.1,1.1,0,0,1,593.5,595.29Z" transform="translate(-333.39 -411.55)" style="fill:#e7e7e7;opacity:0.699999988079071;isolation:isolate"></path><path d="M587.44,611.06H569.51a1.16,1.16,0,0,1,0-2.32h17.93a1.16,1.16,0,0,1,0,2.32Z" transform="translate(-333.39 -411.55)" style="fill:#e7e7e7;opacity:0.699999988079071;isolation:isolate"></path><path d="M593.5,626.87h-24a1.16,1.16,0,0,1,0-2.32h24a1.17,1.17,0,0,1,1.16,1.16A1.11,1.11,0,0,1,593.5,626.87Z" transform="translate(-333.39 -411.55)" style="fill:#e7e7e7;opacity:0.699999988079071;isolation:isolate"></path><path d="M597.77,642.63H569.51a1.16,1.16,0,0,1,0-2.32h28.26a1.16,1.16,0,0,1,0,2.32Z" transform="translate(-333.39 -411.55)" style="fill:#e7e7e7;opacity:0.699999988079071;isolation:isolate"></path><path d="M593.5,658.39h-24a1.16,1.16,0,0,1,0-2.32h24a1.17,1.17,0,0,1,1.16,1.16A1.11,1.11,0,0,1,593.5,658.39Z" transform="translate(-333.39 -411.55)" style="fill:#e7e7e7;opacity:0.699999988079071;isolation:isolate"></path><path d="M593.5,674.2h-24a1.16,1.16,0,1,1,0-2.32h24a1.17,1.17,0,0,1,1.16,1.16A1.11,1.11,0,0,1,593.5,674.2Z" transform="translate(-333.39 -411.55)" style="fill:#e7e7e7;opacity:0.699999988079071;isolation:isolate"></path><path d="M692.22,595.29h-24a1.16,1.16,0,1,1,0-2.31h24a1.17,1.17,0,0,1,1.16,1.16A1.13,1.13,0,0,1,692.22,595.29Z" transform="translate(-333.39 -411.55)" style="fill:#e7e7e7;opacity:0.699999988079071;isolation:isolate"></path><path d="M686.16,611.06H668.24a1.16,1.16,0,0,1,0-2.32h17.92a1.16,1.16,0,1,1,0,2.32Z" transform="translate(-333.39 -411.55)" style="fill:#e7e7e7;opacity:0.699999988079071;isolation:isolate"></path><path d="M692.22,626.87h-24a1.16,1.16,0,0,1,0-2.32h24a1.17,1.17,0,0,1,1.16,1.16A1.14,1.14,0,0,1,692.22,626.87Z" transform="translate(-333.39 -411.55)" style="fill:#e7e7e7;opacity:0.699999988079071;isolation:isolate"></path><path d="M696.49,642.63H668.24a1.16,1.16,0,0,1,0-2.32h28.25a1.16,1.16,0,0,1,0,2.32Z" transform="translate(-333.39 -411.55)" style="fill:#e7e7e7;opacity:0.699999988079071;isolation:isolate"></path><path d="M692.22,658.39h-24a1.16,1.16,0,0,1,0-2.32h24a1.17,1.17,0,0,1,1.16,1.16A1.14,1.14,0,0,1,692.22,658.39Z" transform="translate(-333.39 -411.55)" style="fill:#e7e7e7;opacity:0.699999988079071;isolation:isolate"></path><path d="M692.22,674.2h-24a1.16,1.16,0,0,1,0-2.32h24a1.17,1.17,0,0,1,1.16,1.16A1.14,1.14,0,0,1,692.22,674.2Z" transform="translate(-333.39 -411.55)" style="fill:#e7e7e7;opacity:0.699999988079071;isolation:isolate"></path><path d="M646.42,595.29h-24a1.16,1.16,0,1,1,0-2.31h24a1.16,1.16,0,1,1,0,2.31Z" transform="translate(-333.39 -411.55)" style="fill:#f8dad3;opacity:0.699999988079071;isolation:isolate"></path><path d="M640.36,611.06H622.43a1.16,1.16,0,0,1,0-2.32h17.93a1.16,1.16,0,0,1,0,2.32Z" transform="translate(-333.39 -411.55)" style="fill:#d7eedc;opacity:0.699999988079071;isolation:isolate"></path><path d="M646.42,626.87h-24a1.16,1.16,0,1,1,0-2.32h24a1.16,1.16,0,0,1,0,2.32Z" transform="translate(-333.39 -411.55)" style="fill:#f8dad3;opacity:0.699999988079071;isolation:isolate"></path><path d="M650.69,642.63H622.43a1.16,1.16,0,0,1,0-2.32h28.26a1.16,1.16,0,0,1,0,2.32Z" transform="translate(-333.39 -411.55)" style="fill:#d7eedc;opacity:0.699999988079071;isolation:isolate"></path><path d="M646.42,658.39h-24a1.16,1.16,0,1,1,0-2.32h24a1.16,1.16,0,1,1,0,2.32Z" transform="translate(-333.39 -411.55)" style="fill:#f8dad3;opacity:0.699999988079071;isolation:isolate"></path><path d="M646.42,674.2h-24a1.16,1.16,0,1,1,0-2.32h24a1.16,1.16,0,1,1,0,2.32Z" transform="translate(-333.39 -411.55)" style="fill:#d7eedc;opacity:0.699999988079071;isolation:isolate"></path><path d="M589.49,579.48H568.93a1.16,1.16,0,1,1,0-2.32h20.56a1.17,1.17,0,0,1,1.16,1.16A1.1,1.1,0,0,1,589.49,579.48Z" transform="translate(-333.39 -411.55)" style="fill:#fff;opacity:0.699999988079071;isolation:isolate"></path><path d="M642.94,579.48H622.38a1.16,1.16,0,0,1,0-2.32h20.56a1.17,1.17,0,0,1,1.16,1.16A1.11,1.11,0,0,1,642.94,579.48Z" transform="translate(-333.39 -411.55)" style="fill:#fff;opacity:0.699999988079071;isolation:isolate"></path><path d="M688.8,579.48H668.24a1.16,1.16,0,0,1,0-2.32H688.8a1.16,1.16,0,0,1,0,2.32Z" transform="translate(-333.39 -411.55)" style="fill:#fff;opacity:0.699999988079071;isolation:isolate"></path><path d="M499.62,645a3.17,3.17,0,1,0-3.16-3.16A3.16,3.16,0,0,0,499.62,645Z" transform="translate(-333.39 -411.55)" style="fill:#c9c9c9;opacity:0.699999988079071;isolation:isolate"></path><path d="M499.62,652.64a3.16,3.16,0,1,0-3.16-3.16A3.15,3.15,0,0,0,499.62,652.64Z" transform="translate(-333.39 -411.55)" style="fill:#c9c9c9;opacity:0.699999988079071;isolation:isolate"></path><path d="M490.08,522.56H443a1.32,1.32,0,0,1,0-2.64h47.17a1.31,1.31,0,0,1,1.32,1.32A1.38,1.38,0,0,1,490.08,522.56Z" transform="translate(-333.39 -411.55)" style="fill:#fff;opacity:0.699999988079071;isolation:isolate"></path><path d="M480.12,548.38H443a1.32,1.32,0,1,1,0-2.63h37.16a1.32,1.32,0,1,1,0,2.63Z" transform="translate(-333.39 -411.55)" style="fill:#fff;opacity:0.699999988079071;isolation:isolate"></path><path d="M464.36,563H442.7a1.06,1.06,0,1,1,0-2.11h21.66a1.06,1.06,0,0,1,0,2.11Z" transform="translate(-333.39 -411.55)" style="fill:#b2b2b2;opacity:0.699999988079071;isolation:isolate"></path><path d="M480.12,571.94H443a1.32,1.32,0,1,1,0-2.63h37.16a1.32,1.32,0,1,1,0,2.63Z" transform="translate(-333.39 -411.55)" style="fill:#fff;opacity:0.699999988079071;isolation:isolate"></path><path d="M490.77,579.64H443a1.32,1.32,0,0,1,0-2.64h47.81a1.3,1.3,0,0,1,1.31,1.32A1.37,1.37,0,0,1,490.77,579.64Z" transform="translate(-333.39 -411.55)" style="fill:#fff;opacity:0.699999988079071;isolation:isolate"></path><path d="M464.36,634.19H442.7a1.05,1.05,0,1,1,0-2.1h21.66a1.05,1.05,0,1,1,0,2.1Z" transform="translate(-333.39 -411.55)" style="fill:#b2b2b2;opacity:0.699999988079071;isolation:isolate"></path><path d="M480.12,643.1H443a1.32,1.32,0,1,1,0-2.63h37.16a1.32,1.32,0,1,1,0,2.63Z" transform="translate(-333.39 -411.55)" style="fill:#fff;opacity:0.699999988079071;isolation:isolate"></path><path d="M490.77,650.8H443a1.32,1.32,0,0,1,0-2.64h47.81a1.3,1.3,0,0,1,1.31,1.32A1.37,1.37,0,0,1,490.77,650.8Z" transform="translate(-333.39 -411.55)" style="fill:#fff;opacity:0.699999988079071;isolation:isolate"></path><path d="M490.77,685.8H443a1.32,1.32,0,0,1,0-2.64h47.81a1.3,1.3,0,0,1,1.31,1.32A1.37,1.37,0,0,1,490.77,685.8Z" transform="translate(-333.39 -411.55)" style="fill:#fff;opacity:0.699999988079071;isolation:isolate"></path><path d="M498.94,587.28H443a1.32,1.32,0,1,1,0-2.63h56a1.31,1.31,0,0,1,1.32,1.32A1.39,1.39,0,0,1,498.94,587.28Z" transform="translate(-333.39 -411.55)" style="fill:#fff;opacity:0.699999988079071;isolation:isolate"></path><path d="M473,594.93H443a1.32,1.32,0,0,1,0-2.64h30a1.32,1.32,0,0,1,0,2.64Z" transform="translate(-333.39 -411.55)" style="fill:#fff;opacity:0.699999988079071;isolation:isolate"></path><path d="M480.12,602.62H443a1.32,1.32,0,1,1,0-2.63h37.16a1.32,1.32,0,1,1,0,2.63Z" transform="translate(-333.39 -411.55)" style="fill:#fff;opacity:0.699999988079071;isolation:isolate"></path><path d="M489.18,610.26H443a1.32,1.32,0,1,1,0-2.63h46.28a1.31,1.31,0,0,1,1.32,1.32A1.4,1.4,0,0,1,489.18,610.26Z" transform="translate(-333.39 -411.55)" style="fill:#fff;opacity:0.699999988079071;isolation:isolate"></path><path d="M492.77,617.91H443a1.32,1.32,0,0,1,0-2.64h49.81a1.32,1.32,0,0,1,0,2.64Z" transform="translate(-333.39 -411.55)" style="fill:#fff;opacity:0.699999988079071;isolation:isolate"></path></g></g><path d="M590.65,506.11a6,6,0,1,0-6-6A6,6,0,0,0,590.65,506.11Z" transform="translate(-333.39 -411.55)" style="fill:#19ad4a"></path><path d="M526.82,576.64a6,6,0,1,0-6-6A6,6,0,0,0,526.82,576.64Z" transform="translate(-333.39 -411.55)" style="fill:#e7e7e7"></path><path d="M542.16,574.84a4.16,4.16,0,1,0-4.17-4.16A4.16,4.16,0,0,0,542.16,574.84Z" transform="translate(-333.39 -411.55)" style="fill:#e7e7e7"></path><path d="M605.34,508.87H774.85a9.37,9.37,0,0,1,9.12,9.59V678.91a9.37,9.37,0,0,1-9.12,9.59H605.34a9.37,9.37,0,0,1-9.12-9.59V518.46A9.33,9.33,0,0,1,605.34,508.87Z" transform="translate(-333.39 -411.55)" style="fill:#19ad4a"></path><path d="M630.53,549.72a11.18,11.18,0,1,0-11.17-11.18A11.19,11.19,0,0,0,630.53,549.72Z" transform="translate(-333.39 -411.55)" style="fill:#fff"></path><path d="M630.64,547.56a9,9,0,1,0-9-9A9,9,0,0,0,630.64,547.56Z" transform="translate(-333.39 -411.55)" style="fill:#f7d047"></path><path d="M745.86,541.65H658.2a3.06,3.06,0,0,1,0-6.11h87.66a3.06,3.06,0,1,1,0,6.11Z" transform="translate(-333.39 -411.55)" style="fill:#fff"></path><path d="M633.12,671.69H747a14.13,14.13,0,1,0,0-28.26H633.12a14.13,14.13,0,1,0,0,28.26Z" transform="translate(-333.39 -411.55)" style="fill:#fff"></path><path d="M644.34,659.88h89.24a2.32,2.32,0,0,0,0-4.64H644.34a2.32,2.32,0,1,0,0,4.64Z" transform="translate(-333.39 -411.55)" style="fill:#b2b2b2"></path><path d="M623.62,580.27V569.93h1.57v10.34Zm3.6,0V573h1.39l.12,1.28a2.41,2.41,0,0,1,1-1.06,2.85,2.85,0,0,1,1.52-.4,2.68,2.68,0,0,1,2.08.82,3.55,3.55,0,0,1,.77,2.47v4.21h-1.55v-4c0-1.42-.58-2.12-1.75-2.12a1.85,1.85,0,0,0-1.44.62,2.51,2.51,0,0,0-.56,1.77v3.78Zm11.78,0a2.64,2.64,0,0,1-1.71-.52,2.33,2.33,0,0,1-.64-1.88v-3.61H635.4V573h1.25l.19-1.86h1.38V573h2.06v1.31h-2.06v3.61a1.14,1.14,0,0,0,.25.85,1.44,1.44,0,0,0,.9.22h.84v1.33Zm5.37.17a3.28,3.28,0,0,1-1.53-.31,2.1,2.1,0,0,1-.9-.81,2.19,2.19,0,0,1-.3-1.12,2,2,0,0,1,.83-1.68,3.83,3.83,0,0,1,2.36-.62h1.92v-.14a1.66,1.66,0,0,0-.47-1.28,1.68,1.68,0,0,0-1.2-.43,2,2,0,0,0-1.13.33,1.28,1.28,0,0,0-.58.93h-1.56a2.42,2.42,0,0,1,.53-1.36,2.94,2.94,0,0,1,1.18-.87,3.91,3.91,0,0,1,1.58-.31,3.28,3.28,0,0,1,2.37.81,2.87,2.87,0,0,1,.85,2.18v4.51H647l-.14-1.26a2.73,2.73,0,0,1-.9,1A2.68,2.68,0,0,1,644.37,580.44Zm.31-1.27a1.9,1.9,0,0,0,1.07-.29,2.14,2.14,0,0,0,.68-.81,3.39,3.39,0,0,0,.31-1.11H645a2.13,2.13,0,0,0-1.32.32,1,1,0,0,0-.39.82,1,1,0,0,0,.37.79A1.7,1.7,0,0,0,644.68,579.17Zm5.46,1.1V569.64h1.56V576l2.81-3h1.87l-3.11,3.32,3.57,4h-2l-3.16-3.75v3.75Zm10.77.17A3.78,3.78,0,0,1,659,580a3.35,3.35,0,0,1-1.3-1.34,4,4,0,0,1-.48-2,4.36,4.36,0,0,1,.46-2,3.45,3.45,0,0,1,1.3-1.35,3.77,3.77,0,0,1,1.95-.49,3.45,3.45,0,0,1,1.87.49,3.26,3.26,0,0,1,1.24,1.26,3.55,3.55,0,0,1,.45,1.76c0,.1,0,.21,0,.33s0,.23,0,.36h-5.7a2.35,2.35,0,0,0,.69,1.63,2.2,2.2,0,0,0,1.46.54,1.91,1.91,0,0,0,1.11-.29,1.85,1.85,0,0,0,.68-.83h1.56a3.26,3.26,0,0,1-1.18,1.73A3.38,3.38,0,0,1,660.91,580.44Zm0-6.39a2.2,2.2,0,0,0-1.38.47,2,2,0,0,0-.74,1.39h4.13a1.9,1.9,0,0,0-.6-1.36A2.08,2.08,0,0,0,660.91,574.05Zm8.12,6.39a3.66,3.66,0,0,1-2.29-.68,2.53,2.53,0,0,1-1-1.8h1.58a1.54,1.54,0,0,0,.56.87,1.8,1.8,0,0,0,1.17.36,1.49,1.49,0,0,0,1-.3.86.86,0,0,0,.32-.68.74.74,0,0,0-.45-.75,5.84,5.84,0,0,0-1.24-.37,9.16,9.16,0,0,1-1.24-.35,2.88,2.88,0,0,1-1-.62A1.53,1.53,0,0,1,666,575a2,2,0,0,1,.74-1.59,3,3,0,0,1,2.06-.65,3.07,3.07,0,0,1,2,.59,2.38,2.38,0,0,1,.9,1.67h-1.5a1.07,1.07,0,0,0-.45-.74,1.81,1.81,0,0,0-1.87,0,.74.74,0,0,0-.33.62.68.68,0,0,0,.45.61,5.86,5.86,0,0,0,1.19.4,10.59,10.59,0,0,1,1.36.38,2.48,2.48,0,0,1,1,.62,1.71,1.71,0,0,1,.38,1.21,2,2,0,0,1-.78,1.67A3.2,3.2,0,0,1,669,580.44Zm8.72-.17v-6h-1V573h1v-1.07a2.18,2.18,0,0,1,.59-1.71,2.51,2.51,0,0,1,1.7-.53h.76V571h-.53a1,1,0,0,0-.74.22,1,1,0,0,0-.22.71V573H681v1.31h-1.69v6Zm7.87.17a3.73,3.73,0,0,1-1.89-.47,3.61,3.61,0,0,1-1.32-1.34,4.13,4.13,0,0,1-.48-2,4,4,0,0,1,.48-2,3.54,3.54,0,0,1,1.35-1.34,3.83,3.83,0,0,1,3.75,0,3.34,3.34,0,0,1,1.32,1.34,3.85,3.85,0,0,1,.51,2,3.94,3.94,0,0,1-.51,2,3.47,3.47,0,0,1-1.32,1.34A3.73,3.73,0,0,1,685.62,580.44Zm0-1.34a1.94,1.94,0,0,0,1-.28,2,2,0,0,0,.78-.83,3.32,3.32,0,0,0,0-2.76,2,2,0,0,0-.76-.84,2,2,0,0,0-1-.28,2,2,0,0,0-1.81,1.12,3.32,3.32,0,0,0,0,2.76,2,2,0,0,0,.76.83A2,2,0,0,0,685.62,579.1Zm5.41,1.17V573h1.4l.13,1.38a2.84,2.84,0,0,1,1.07-1.13,3,3,0,0,1,1.66-.43v1.64h-.42a2.87,2.87,0,0,0-1.17.22,1.66,1.66,0,0,0-.81.72,2.75,2.75,0,0,0-.3,1.4v3.52Zm10.18,3.24,1.76-3.85h-.43l-2.9-6.71h1.7l2.25,5.41,2.34-5.41h1.65l-4.72,10.56Zm10.42-3.07a3.73,3.73,0,0,1-1.89-.47,3.51,3.51,0,0,1-1.31-1.34,4,4,0,0,1-.49-2,3.94,3.94,0,0,1,.49-2,3.45,3.45,0,0,1,1.34-1.34,3.64,3.64,0,0,1,1.88-.49,3.55,3.55,0,0,1,1.87.49,3.43,3.43,0,0,1,1.33,1.34,3.94,3.94,0,0,1,.5,2,4,4,0,0,1-.5,2,3.56,3.56,0,0,1-1.33,1.34A3.73,3.73,0,0,1,711.63,580.44Zm0-1.34a2,2,0,0,0,1-.28,2.09,2.09,0,0,0,.78-.83,3.43,3.43,0,0,0,0-2.76,2,2,0,0,0-.77-.84,1.94,1.94,0,0,0-1-.28,2,2,0,0,0-1,.28,2.1,2.1,0,0,0-.77.84,3.43,3.43,0,0,0,0,2.76,2.07,2.07,0,0,0,.77.83A1.94,1.94,0,0,0,711.63,579.1Zm8.11,1.34a2.71,2.71,0,0,1-2.09-.82,3.58,3.58,0,0,1-.75-2.47V573h1.56v4c0,1.42.58,2.12,1.74,2.12a1.81,1.81,0,0,0,1.43-.62,2.51,2.51,0,0,0,.56-1.77V573h1.57v7.32h-1.39l-.12-1.29a2.6,2.6,0,0,1-1,1.08A3,3,0,0,1,719.74,580.44Zm6-.17V573h1.4l.13,1.38a2.84,2.84,0,0,1,1.07-1.13,3,3,0,0,1,1.66-.43v1.64h-.42a2.87,2.87,0,0,0-1.17.22,1.7,1.7,0,0,0-.81.72,2.75,2.75,0,0,0-.3,1.4v3.52Zm-99.49,19.17a2.71,2.71,0,0,1-2.09-.82,3.58,3.58,0,0,1-.76-2.47V592H625v4c0,1.42.58,2.12,1.74,2.12a1.81,1.81,0,0,0,1.43-.62,2.51,2.51,0,0,0,.56-1.77V592h1.57v7.32h-1.39l-.12-1.29a2.6,2.6,0,0,1-1,1.08A3,3,0,0,1,626.26,599.44Zm6-.17V592h1.38l.12,1.28a2.53,2.53,0,0,1,1-1.06,2.85,2.85,0,0,1,1.52-.4,2.66,2.66,0,0,1,2.08.82,3.55,3.55,0,0,1,.77,2.47v4.21h-1.55v-4c0-1.42-.58-2.12-1.74-2.12a1.89,1.89,0,0,0-1.45.62,2.56,2.56,0,0,0-.56,1.77v3.78Zm9.59-8.71a1.05,1.05,0,0,1-.74-.27.92.92,0,0,1-.28-.69.88.88,0,0,1,.28-.68,1,1,0,0,1,.74-.28,1,1,0,0,1,.72.28.87.87,0,0,1,.3.68.9.9,0,0,1-.3.69A1,1,0,0,1,641.86,590.56Zm-.78,8.71V592h1.56v7.32Zm5.68,0L644,592h1.64l2,5.82,2-5.82h1.63l-2.73,7.32Zm8.92.17a3.8,3.8,0,0,1-1.92-.47,3.49,3.49,0,0,1-1.3-1.34,4.13,4.13,0,0,1-.47-2,4.24,4.24,0,0,1,.46-2,3.38,3.38,0,0,1,1.3-1.35,3.77,3.77,0,0,1,2-.49,3.48,3.48,0,0,1,1.87.49,3.26,3.26,0,0,1,1.24,1.26,3.54,3.54,0,0,1,.44,1.76c0,.1,0,.21,0,.33s0,.23,0,.36h-5.69a2.35,2.35,0,0,0,.69,1.63,2.18,2.18,0,0,0,1.46.54,2,2,0,0,0,1.11-.29,1.91,1.91,0,0,0,.68-.83H659a3.26,3.26,0,0,1-1.18,1.73A3.38,3.38,0,0,1,655.68,599.44Zm0-6.39a2.24,2.24,0,0,0-1.39.47,2,2,0,0,0-.73,1.39h4.13a1.87,1.87,0,0,0-.61-1.36A2,2,0,0,0,655.68,593.05Zm5.2,6.22V592h1.4l.13,1.38a2.89,2.89,0,0,1,1.06-1.13,3.1,3.1,0,0,1,1.67-.43v1.64h-.43a2.86,2.86,0,0,0-1.16.22,1.66,1.66,0,0,0-.81.72,2.75,2.75,0,0,0-.3,1.4v3.52Zm8.53.17a3.64,3.64,0,0,1-2.29-.68,2.55,2.55,0,0,1-1-1.8h1.58a1.59,1.59,0,0,0,.56.87,1.82,1.82,0,0,0,1.17.36,1.47,1.47,0,0,0,1-.3.88.88,0,0,0,.33-.68.73.73,0,0,0-.46-.75,5.66,5.66,0,0,0-1.24-.37,9.59,9.59,0,0,1-1.24-.35,3.06,3.06,0,0,1-1-.62,1.57,1.57,0,0,1-.4-1.11,2,2,0,0,1,.74-1.59,3,3,0,0,1,2.07-.65,3.09,3.09,0,0,1,2,.59,2.38,2.38,0,0,1,.9,1.67h-1.51a1.1,1.1,0,0,0-.44-.74,1.83,1.83,0,0,0-1.88,0,.75.75,0,0,0-.32.62.68.68,0,0,0,.44.61,6.21,6.21,0,0,0,1.2.4,11.59,11.59,0,0,1,1.36.38,2.38,2.38,0,0,1,1,.62,1.71,1.71,0,0,1,.39,1.21,2,2,0,0,1-.78,1.67A3.24,3.24,0,0,1,669.41,599.44Zm5.51-8.88a1.07,1.07,0,0,1-.74-.27,1,1,0,0,1-.28-.69.92.92,0,0,1,.28-.68,1,1,0,0,1,.74-.28.94.94,0,0,1,.72.28.87.87,0,0,1,.3.68.9.9,0,0,1-.3.69A1,1,0,0,1,674.92,590.56Zm-.78,8.71V592h1.56v7.32Zm6.7,0a2.64,2.64,0,0,1-1.71-.52,2.33,2.33,0,0,1-.64-1.88v-3.61h-1.25V592h1.25l.19-1.86h1.38V592h2.06v1.31h-2.06v3.61a1.14,1.14,0,0,0,.25.85,1.44,1.44,0,0,0,.9.22h.84v1.33Zm3.75,3.24,1.76-3.85h-.43L683,592h1.69l2.25,5.41,2.34-5.41H691l-4.73,10.56Zm14.85-3.07a3.86,3.86,0,0,1-1.93-.48,3.59,3.59,0,0,1-1.33-1.35,4.08,4.08,0,0,1-.47-2,4,4,0,0,1,.47-2,3.45,3.45,0,0,1,1.33-1.35,3.77,3.77,0,0,1,1.93-.49,3.54,3.54,0,0,1,2.27.71,3.19,3.19,0,0,1,1.2,1.92h-1.64a1.53,1.53,0,0,0-.65-.95,2,2,0,0,0-1.18-.34,2,2,0,0,0-1.06.3,1.88,1.88,0,0,0-.78.84,2.77,2.77,0,0,0-.3,1.36,2.89,2.89,0,0,0,.3,1.37,2.11,2.11,0,0,0,.78.84,2,2,0,0,0,1.06.29,2,2,0,0,0,1.18-.34,1.5,1.5,0,0,0,.65-.95h1.64a3.19,3.19,0,0,1-1.18,1.9A3.62,3.62,0,0,1,699.44,599.44Zm5.16-.17V588.64h1.57v10.63Zm7,.17a3.72,3.72,0,0,1-1.88-.47,3.54,3.54,0,0,1-1.32-1.34,4.14,4.14,0,0,1-.49-2,4,4,0,0,1,.49-2,3.52,3.52,0,0,1,1.34-1.34,3.66,3.66,0,0,1,1.88-.49,3.55,3.55,0,0,1,1.87.49,3.36,3.36,0,0,1,1.33,1.34,3.85,3.85,0,0,1,.5,2,3.93,3.93,0,0,1-.5,2,3.49,3.49,0,0,1-1.33,1.34A3.73,3.73,0,0,1,711.57,599.44Zm0-1.34a2,2,0,0,0,1-.28,2.09,2.09,0,0,0,.78-.83,3.43,3.43,0,0,0,0-2.76,2,2,0,0,0-.77-.84,1.94,1.94,0,0,0-1-.28,2.07,2.07,0,0,0-1.05.28,2.17,2.17,0,0,0-.77.84,3.43,3.43,0,0,0,0,2.76,2.14,2.14,0,0,0,.77.83A2,2,0,0,0,711.57,598.1Zm8.34,1.34a3.64,3.64,0,0,1-2.29-.68,2.53,2.53,0,0,1-1-1.8h1.58a1.49,1.49,0,0,0,.56.87,1.77,1.77,0,0,0,1.16.36,1.5,1.5,0,0,0,1-.3.9.9,0,0,0,.32-.68.73.73,0,0,0-.46-.75,5.66,5.66,0,0,0-1.24-.37,10.06,10.06,0,0,1-1.24-.35,2.92,2.92,0,0,1-1-.62,1.53,1.53,0,0,1-.4-1.11,2,2,0,0,1,.73-1.59,3,3,0,0,1,2.07-.65,3.07,3.07,0,0,1,2,.59,2.38,2.38,0,0,1,.9,1.67h-1.51a1.06,1.06,0,0,0-.44-.74,1.56,1.56,0,0,0-1-.27,1.49,1.49,0,0,0-.91.25.74.74,0,0,0-.33.62.68.68,0,0,0,.44.61,6.21,6.21,0,0,0,1.2.4,11.59,11.59,0,0,1,1.36.38,2.48,2.48,0,0,1,1,.62,1.75,1.75,0,0,1,.38,1.21,2,2,0,0,1-.78,1.67A3.22,3.22,0,0,1,719.91,599.44Zm8.05,0A3.8,3.8,0,0,1,726,599a3.49,3.49,0,0,1-1.3-1.34,4.13,4.13,0,0,1-.47-2,4.24,4.24,0,0,1,.46-2,3.38,3.38,0,0,1,1.3-1.35,3.77,3.77,0,0,1,2-.49,3.48,3.48,0,0,1,1.87.49,3.26,3.26,0,0,1,1.24,1.26,3.54,3.54,0,0,1,.44,1.76c0,.1,0,.21,0,.33s0,.23,0,.36h-5.69a2.35,2.35,0,0,0,.69,1.63,2.18,2.18,0,0,0,1.46.54,2,2,0,0,0,1.11-.29,1.91,1.91,0,0,0,.68-.83h1.56a3.26,3.26,0,0,1-1.18,1.73A3.38,3.38,0,0,1,728,599.44Zm0-6.39a2.24,2.24,0,0,0-1.39.47,2,2,0,0,0-.73,1.39H730a1.87,1.87,0,0,0-.61-1.36A2,2,0,0,0,728,593.05Zm-104.4,25.22V611H625l.12,1.28a2.41,2.41,0,0,1,1-1.06,2.85,2.85,0,0,1,1.52-.4,2.68,2.68,0,0,1,2.08.82,3.55,3.55,0,0,1,.76,2.47v4.21h-1.54v-4c0-1.42-.59-2.12-1.75-2.12a1.85,1.85,0,0,0-1.44.62,2.51,2.51,0,0,0-.56,1.77v3.78Zm12.13.17a3.8,3.8,0,0,1-1.92-.47,3.49,3.49,0,0,1-1.3-1.34,4.13,4.13,0,0,1-.47-2,4.24,4.24,0,0,1,.46-2,3.38,3.38,0,0,1,1.3-1.35,3.77,3.77,0,0,1,2-.49,3.48,3.48,0,0,1,1.87.49,3.26,3.26,0,0,1,1.24,1.26,3.54,3.54,0,0,1,.44,1.76c0,.1,0,.21,0,.33s0,.23,0,.36h-5.69a2.35,2.35,0,0,0,.69,1.63,2.18,2.18,0,0,0,1.46.54,2,2,0,0,0,1.11-.29,1.91,1.91,0,0,0,.68-.83H639a3.32,3.32,0,0,1-1.18,1.73A3.38,3.38,0,0,1,635.69,618.44Zm0-6.39a2.24,2.24,0,0,0-1.39.47,2,2,0,0,0-.73,1.39h4.13a1.87,1.87,0,0,0-.61-1.36A2,2,0,0,0,635.69,612.05Zm4.06,6.22,2.59-3.66L639.75,611h1.66l2,2.8,1.94-2.8H647l-2.6,3.66,2.6,3.66h-1.69l-1.94-2.81-2,2.81Zm11.6,0a2.64,2.64,0,0,1-1.71-.52,2.33,2.33,0,0,1-.64-1.88v-3.61h-1.25V611H649l.2-1.86h1.37V611h2.06v1.31h-2.06v3.61a1.14,1.14,0,0,0,.25.85,1.48,1.48,0,0,0,.9.22h.84v1.33Zm8.08,0L657.27,611h1.57l1.41,5.51,1.6-5.51h1.74l1.59,5.51L666.6,611h1.56L666,618.27H664.4l-1.68-5.76L661,618.27Zm13.17.17a3.8,3.8,0,0,1-1.92-.47,3.4,3.4,0,0,1-1.29-1.34,4,4,0,0,1-.48-2,4.36,4.36,0,0,1,.46-2,3.45,3.45,0,0,1,1.3-1.35,3.77,3.77,0,0,1,2-.49,3.45,3.45,0,0,1,1.87.49,3.26,3.26,0,0,1,1.24,1.26,3.54,3.54,0,0,1,.44,1.76c0,.1,0,.21,0,.33s0,.23,0,.36h-5.69a2.35,2.35,0,0,0,.69,1.63,2.18,2.18,0,0,0,1.46.54,1.93,1.93,0,0,0,1.11-.29,1.91,1.91,0,0,0,.68-.83H676a3.26,3.26,0,0,1-1.18,1.73A3.38,3.38,0,0,1,672.6,618.44Zm0-6.39a2.2,2.2,0,0,0-1.38.47,2,2,0,0,0-.74,1.39h4.13a1.87,1.87,0,0,0-.61-1.36A2,2,0,0,0,672.6,612.05Zm8.62,6.39a3.8,3.8,0,0,1-1.92-.47,3.49,3.49,0,0,1-1.3-1.34,4.13,4.13,0,0,1-.47-2,4.24,4.24,0,0,1,.46-2,3.38,3.38,0,0,1,1.3-1.35,3.77,3.77,0,0,1,2-.49,3.48,3.48,0,0,1,1.87.49,3.33,3.33,0,0,1,1.24,1.26,3.54,3.54,0,0,1,.44,1.76c0,.1,0,.21,0,.33s0,.23,0,.36h-5.69a2.35,2.35,0,0,0,.69,1.63,2.18,2.18,0,0,0,1.46.54,2,2,0,0,0,1.11-.29A1.91,1.91,0,0,0,683,616h1.56a3.32,3.32,0,0,1-1.18,1.73A3.38,3.38,0,0,1,681.22,618.44Zm0-6.39a2.24,2.24,0,0,0-1.39.47,2,2,0,0,0-.73,1.39h4.13a1.87,1.87,0,0,0-.61-1.36A2,2,0,0,0,681.22,612.05Zm5.2,6.22V607.64H688V614l2.8-3h1.88l-3.12,3.32,3.58,4h-2L688,614.52v3.75Z" transform="translate(-333.39 -411.55)" style="fill:#fff"></path></svg>