<svg xmlns="http://www.w3.org/2000/svg" id="Layer_1" data-name="Layer 1" viewBox="0 0 533 376"><rect width="533" height="376" rx="30" style="fill:#fff"></rect><rect x="16" y="16" width="501" height="344" rx="15" style="fill:#f5f5f5"></rect><line x1="517" y1="43.5" x2="16" y2="43.5" style="fill:none;stroke:#fff"></line><line x1="521.57" y1="340.05" x2="12.15" y2="340.05" style="fill:none;stroke:#fff"></line><path d="M793.39,512.83H443V701.16H793.39Z" transform="translate(-333.39 -411.55)" style="fill:#19ad4a"></path><path d="M604.69,588.18v37.64l27-18.85Z" transform="translate(-333.39 -411.55)" style="fill:#f1f3f5"></path><path d="M693.45,675.77l26.19-26.19,15.15,15.15L765,634.43l28.35,24.13v17.21Z" transform="translate(-333.39 -411.55)" style="fill:#19874a"></path><path d="M662.3,643.83V593.09h6.54Z" transform="translate(-333.39 -411.55)" style="fill:#19874a"></path><path d="M678.66,643.83V593.09h6.55Z" transform="translate(-333.39 -411.55)" style="fill:#19874a"></path><path d="M695.08,643.83V593.09h6.55Z" transform="translate(-333.39 -411.55)" style="fill:#19874a"></path><path d="M711.45,643.83V593.09H718Z" transform="translate(-333.39 -411.55)" style="fill:#19874a"></path><path d="M732.68,588.18h-78v-3h5.17v-6.29H688Z" transform="translate(-333.39 -411.55)" style="fill:#19874a"></path><path d="M648.62,640h83v2.17l-83,6Z" transform="translate(-333.39 -411.55)" style="fill:#19874a"></path><path d="M624.07,651.22h87.38v2.16l-87.38,6Z" transform="translate(-333.39 -411.55)" style="fill:#19874a"></path><path d="M540.54,645.73s6.55-13.94,18.85-16.64c0,0,4.65-19.11,19.38-9.55,0,0,14.36-4.07,14.73,19.38,0,0,18.27-5.44,18.59,21.85l-39-8.18s3.27-18.16-7.39-19.64c0,0,7.07,10.93,1.9,18.27Z" transform="translate(-333.39 -411.55)" style="fill:#19874a"></path><path d="M733.79,599.42h-6.5v6.5h6.5Z" transform="translate(-333.39 -411.55)" style="fill:#19874a"></path><path d="M744.77,599.42h-6.5v6.5h6.5Z" transform="translate(-333.39 -411.55)" style="fill:#19874a"></path><path d="M755.75,599.42h-6.49v6.5h6.49Z" transform="translate(-333.39 -411.55)" style="fill:#19874a"></path><path d="M766.73,599.42h-6.49v6.5h6.49Z" transform="translate(-333.39 -411.55)" style="fill:#19874a"></path><path d="M733.79,610.83h-6.5v6.49h6.5Z" transform="translate(-333.39 -411.55)" style="fill:#19874a"></path><path d="M744.77,610.83h-6.5v6.49h6.5Z" transform="translate(-333.39 -411.55)" style="fill:#19874a"></path><path d="M755.75,610.83h-6.49v6.49h6.49Z" transform="translate(-333.39 -411.55)" style="fill:#19874a"></path><path d="M766.73,610.83h-6.49v6.49h6.49Z" transform="translate(-333.39 -411.55)" style="fill:#19874a"></path><path d="M733.79,622.28h-6.5v6.5h6.5Z" transform="translate(-333.39 -411.55)" style="fill:#19874a"></path><path d="M744.77,622.28h-6.5v6.5h6.5Z" transform="translate(-333.39 -411.55)" style="fill:#19874a"></path><path d="M755.75,622.28h-6.49v6.5h6.49Z" transform="translate(-333.39 -411.55)" style="fill:#19874a"></path><path d="M766.73,622.28h-6.49v6.5h6.49Z" transform="translate(-333.39 -411.55)" style="fill:#19874a"></path><path d="M508.76,607H504v4.81h4.81Z" transform="translate(-333.39 -411.55)" style="fill:#19874a"></path><path d="M516.94,607h-4.8v4.81h4.8Z" transform="translate(-333.39 -411.55)" style="fill:#19874a"></path><path d="M525.07,607h-4.8v4.81h4.8Z" transform="translate(-333.39 -411.55)" style="fill:#19874a"></path><path d="M533.26,607h-4.81v4.81h4.81Z" transform="translate(-333.39 -411.55)" style="fill:#19874a"></path><path d="M508.76,615.47H504v4.81h4.81Z" transform="translate(-333.39 -411.55)" style="fill:#19874a"></path><path d="M516.94,615.47h-4.8v4.81h4.8Z" transform="translate(-333.39 -411.55)" style="fill:#19874a"></path><path d="M525.07,615.47h-4.8v4.81h4.8Z" transform="translate(-333.39 -411.55)" style="fill:#19874a"></path><path d="M533.26,615.47h-4.81v4.81h4.81Z" transform="translate(-333.39 -411.55)" style="fill:#19874a"></path><path d="M508.76,623.92H504v4.81h4.81Z" transform="translate(-333.39 -411.55)" style="fill:#19874a"></path><path d="M516.94,623.92h-4.8v4.81h4.8Z" transform="translate(-333.39 -411.55)" style="fill:#19874a"></path><path d="M525.07,623.92h-4.8v4.81h4.8Z" transform="translate(-333.39 -411.55)" style="fill:#19874a"></path><path d="M533.26,623.92h-4.81v4.81h4.81Z" transform="translate(-333.39 -411.55)" style="fill:#19874a"></path><path d="M508.76,577.3H504v4.8h4.81Z" transform="translate(-333.39 -411.55)" style="fill:#19874a"></path><path d="M516.94,577.3h-4.8v4.8h4.8Z" transform="translate(-333.39 -411.55)" style="fill:#19874a"></path><path d="M525.07,577.3h-4.8v4.8h4.8Z" transform="translate(-333.39 -411.55)" style="fill:#19874a"></path><path d="M533.26,577.3h-4.81v4.8h4.81Z" transform="translate(-333.39 -411.55)" style="fill:#19874a"></path><path d="M508.76,585.75H504v4.8h4.81Z" transform="translate(-333.39 -411.55)" style="fill:#19874a"></path><path d="M516.94,585.75h-4.8v4.8h4.8Z" transform="translate(-333.39 -411.55)" style="fill:#19874a"></path><path d="M525.07,585.75h-4.8v4.8h4.8Z" transform="translate(-333.39 -411.55)" style="fill:#19874a"></path><path d="M533.26,585.75h-4.81v4.8h4.81Z" transform="translate(-333.39 -411.55)" style="fill:#19874a"></path><path d="M508.76,594.25H504v4.8h4.81Z" transform="translate(-333.39 -411.55)" style="fill:#19874a"></path><path d="M516.94,594.25h-4.8v4.8h4.8Z" transform="translate(-333.39 -411.55)" style="fill:#19874a"></path><path d="M525.07,594.25h-4.8v4.8h4.8Z" transform="translate(-333.39 -411.55)" style="fill:#19874a"></path><path d="M533.26,594.25h-4.81v4.8h4.81Z" transform="translate(-333.39 -411.55)" style="fill:#19874a"></path><path d="M759.81,560.83h-4.06v4.06h4.06Z" transform="translate(-333.39 -411.55)" style="fill:#19874a"></path><path d="M766.73,560.83h-4.06v4.06h4.06Z" transform="translate(-333.39 -411.55)" style="fill:#19874a"></path><path d="M773.7,560.83h-4.06v4.06h4.06Z" transform="translate(-333.39 -411.55)" style="fill:#19874a"></path><path d="M780.62,560.83h-4.07v4.06h4.07Z" transform="translate(-333.39 -411.55)" style="fill:#19874a"></path><path d="M759.81,568.06h-4.06v4.07h4.06Z" transform="translate(-333.39 -411.55)" style="fill:#19874a"></path><path d="M766.73,568.06h-4.06v4.07h4.06Z" transform="translate(-333.39 -411.55)" style="fill:#19874a"></path><path d="M773.7,568.06h-4.06v4.07h4.06Z" transform="translate(-333.39 -411.55)" style="fill:#19874a"></path><path d="M780.62,568.06h-4.07v4.07h4.07Z" transform="translate(-333.39 -411.55)" style="fill:#19874a"></path><path d="M759.81,575.24h-4.06v11.88h4.06Z" transform="translate(-333.39 -411.55)" style="fill:#19874a"></path><path d="M766.73,575.24h-4.06v11.88h4.06Z" transform="translate(-333.39 -411.55)" style="fill:#19874a"></path><path d="M773.7,575.24h-4.06v11.88h4.06Z" transform="translate(-333.39 -411.55)" style="fill:#19874a"></path><path d="M780.62,575.24h-4.07v11.88h4.07Z" transform="translate(-333.39 -411.55)" style="fill:#19874a"></path><path d="M571.8,693.4l221.59-11.88v19.64H443V684.8Z" transform="translate(-333.39 -411.55)" style="fill:#19874a"></path><path d="M696.93,567.32a6.65,6.65,0,0,1-6.65,6.65,6.49,6.49,0,0,1-2.06-.31,6.67,6.67,0,0,0,0-12.67,6.43,6.43,0,0,1,2.06-.32A6.62,6.62,0,0,1,696.93,567.32Z" transform="translate(-333.39 -411.55)" style="fill:#19874a"></path><path d="M698.36,550l17.69,28.93h27.34L728.88,552.7Z" transform="translate(-333.39 -411.55)" style="fill:#19874a"></path><path d="M780.62,593.09H724.28v2.16h56.34Z" transform="translate(-333.39 -411.55)" style="fill:#19874a"></path><path d="M776.55,599.42h16.84v51.8l-16.84-14.1Z" transform="translate(-333.39 -411.55)" style="fill:#19874a"></path><path d="M793.39,560.83h-9.76v43h9.76Z" transform="translate(-333.39 -411.55)" style="fill:#19874a"></path><path d="M752.48,572.13H726.71v16h25.77Z" transform="translate(-333.39 -411.55)" style="fill:#19874a"></path><path d="M736.37,640v16L754,640Z" transform="translate(-333.39 -411.55)" style="fill:#19874a"></path><path d="M488.17,535.54h34.9v31.78h19.59V603.8h12.46V554.86H594v13.2h30V541.24h27.3v13.62H671V541.24h14.2v-18h16.42v10.41h25.66V521h30.52v24.55h13.83V533.64h21.75V512.83H443V550h24.45V535.54Z" transform="translate(-333.39 -411.55)" style="fill:#f1f3f5;opacity:0.20000000298023224;isolation:isolate"></path><path d="M443,634.85l224.24,40.92H443Z" transform="translate(-333.39 -411.55)" style="fill:#19874a"></path><path d="M487.69,489.07h-89.6V641.61h89.6Z" transform="translate(-333.39 -411.55)" style="fill:#fff"></path><path d="M467.31,519.33H418.47a1.9,1.9,0,1,1,0-3.8h48.79a1.9,1.9,0,0,1,.05,3.8Z" transform="translate(-333.39 -411.55)" style="fill:#19ad4a;opacity:0.4000000059604645;isolation:isolate"></path><path d="M467.31,527.88H418.47a1.9,1.9,0,0,1,0-3.8h48.79a1.9,1.9,0,0,1,.05,3.8Z" transform="translate(-333.39 -411.55)" style="fill:#19ad4a;opacity:0.4000000059604645;isolation:isolate"></path><path d="M445.77,536.43h-27.3a1.9,1.9,0,0,1,0-3.8h27.25a1.9,1.9,0,0,1,0,3.8Z" transform="translate(-333.39 -411.55)" style="fill:#19ad4a;opacity:0.4000000059604645;isolation:isolate"></path><path d="M469.16,555.76H416.57V584h52.59Z" transform="translate(-333.39 -411.55)" style="fill:#19ad4a"></path><path d="M439.59,565.68v8.4l6.08-4.22Z" transform="translate(-333.39 -411.55)" style="fill:#f1f3f5"></path><path d="M469.16,592.08H416.57v28.25h52.59Z" transform="translate(-333.39 -411.55)" style="fill:#19ad4a"></path><path d="M439.59,602v8.39l6.08-4.17Z" transform="translate(-333.39 -411.55)" style="fill:#f1f3f5"></path></svg>