<svg xmlns="http://www.w3.org/2000/svg" xmlns:xlink="http://www.w3.org/1999/xlink" id="Layer_1" data-name="Layer 1" viewBox="0 0 571.02 322.59"><defs><clipPath id="clip-path" transform="translate(-0.39 -0.26)"><rect x="0.39" y="0.26" width="571" height="322.57" style="fill:none"></rect></clipPath></defs><g style="clip-path:url(#clip-path)"><path d="M398.43,240.32H7.43a7,7,0,0,1-7-7V19.85a7,7,0,0,1,7-7h391a7,7,0,0,1,7,7V233.23A7,7,0,0,1,398.43,240.32Z" transform="translate(-0.39 -0.26)" style="opacity:0.15000000596046448;isolation:isolate"></path><path d="M416.75,5.63v219a5.38,5.38,0,0,1-5.37,5.37H15.06a5.38,5.38,0,0,1-5.37-5.37V5.63A5.38,5.38,0,0,1,15.06.26H411.43A5.34,5.34,0,0,1,416.75,5.63Z" transform="translate(-0.39 -0.26)" style="fill:#adb3b8"></path><path d="M395.48,27H351a6.27,6.27,0,0,1-6.3-6.3v-.54a6.27,6.27,0,0,1,6.3-6.3h44.46a6.28,6.28,0,0,1,6.3,6.3v.54A6.28,6.28,0,0,1,395.48,27Z" transform="translate(-0.39 -0.26)" style="fill:#d7d7d7"></path><path d="M60.2.26V229.93H15.06a5.38,5.38,0,0,1-5.37-5.37V5.63A5.38,5.38,0,0,1,15.06.26Z" transform="translate(-0.39 -0.26)" style="fill:#293b4a"></path><path d="M416.75,38.27H60.2v1H416.75Z" transform="translate(-0.39 -0.26)" style="fill:#f0f2f4"></path><path d="M60.2,38.27H9.69v1H60.2Z" transform="translate(-0.39 -0.26)" style="fill:#304b4f"></path><path d="M136.66,23.2H80a2,2,0,0,1,0-3.94h56.66a2,2,0,0,1,2,2A1.94,1.94,0,0,1,136.66,23.2Z" transform="translate(-0.39 -0.26)" style="fill:#d7d7d7"></path><path d="M41.1,30.14H27.41a2.07,2.07,0,0,1-2.06-2.06V14.44a2.08,2.08,0,0,1,2.06-2.07H41.05a2.09,2.09,0,0,1,2.07,2.07V28.08A2,2,0,0,1,41.1,30.14Z" transform="translate(-0.39 -0.26)" style="fill:#19ad4a"></path><rect x="63.43" y="43.44" width="398.29" height="279.15" style="fill:none"></rect><path d="M431.52,298.61H82.8a6.57,6.57,0,0,1-6.55-6.55V62.34a6.57,6.57,0,0,1,6.55-6.55H431.57a6.56,6.56,0,0,1,6.54,6.55V292.06A6.6,6.6,0,0,1,431.52,298.61Z" transform="translate(-0.39 -0.26)" style="fill:#f1f1f1;stroke:#293b4a;stroke-width:0.4923259913921356px"></path><path d="M427.23,66H87.08v44.5H427.23Z" transform="translate(-0.39 -0.26)" style="fill:#f9fbfd"></path><path d="M427.23,110.49H87.08V155H427.23Z" transform="translate(-0.39 -0.26)" style="fill:#fff"></path><path d="M427.23,155H87.08v44.5H427.23Z" transform="translate(-0.39 -0.26)" style="fill:#f9fbfd"></path><path d="M402.32,98.48a10.24,10.24,0,1,0-10.24-10.24A10.24,10.24,0,0,0,402.32,98.48Z" transform="translate(-0.39 -0.26)" style="fill:none;stroke:#d7d7d7;stroke-miterlimit:10;stroke-width:1.9693000316619873px"></path><path d="M402.32,187.44a10.24,10.24,0,1,0-10.24-10.24A10.23,10.23,0,0,0,402.32,187.44Z" transform="translate(-0.39 -0.26)" style="fill:none;stroke:#d7d7d7;stroke-miterlimit:10;stroke-width:1.9693000316619873px"></path><path d="M338.56,90.9H187.86A1.87,1.87,0,0,1,186,89V87.45a1.87,1.87,0,0,1,1.87-1.87h150.7a1.88,1.88,0,0,1,1.88,1.87V89A1.88,1.88,0,0,1,338.56,90.9Z" transform="translate(-0.39 -0.26)" style="fill:#d7d7d7"></path><path d="M312.77,135.4H187.91a1.87,1.87,0,0,1-1.87-1.87V132a1.87,1.87,0,0,1,1.87-1.87H312.82a1.87,1.87,0,0,1,1.87,1.87v1.57A1.94,1.94,0,0,1,312.77,135.4Z" transform="translate(-0.39 -0.26)" style="fill:#fc0"></path><path d="M338.56,179.86H187.91A1.87,1.87,0,0,1,186,178v-1.58a1.87,1.87,0,0,1,1.87-1.87h150.7a1.87,1.87,0,0,1,1.87,1.87V178A1.9,1.9,0,0,1,338.56,179.86Z" transform="translate(-0.39 -0.26)" style="fill:#d7d7d7"></path><path d="M427.23,199.45H87.08V244H427.23Z" transform="translate(-0.39 -0.26)" style="fill:#fff"></path><path d="M427.23,244H87.08v44.51H427.23Z" transform="translate(-0.39 -0.26)" style="fill:#f9fbfd"></path><path d="M398.33,264.74l4.39,4.38,12.35-12.36" transform="translate(-0.39 -0.26)" style="fill:none;stroke:#fc0;stroke-miterlimit:10;stroke-width:1.9693000316619873px"></path><path d="M411,260.8a10.08,10.08,0,1,1-3.11-3.2" transform="translate(-0.39 -0.26)" style="fill:none;stroke:#fc0;stroke-miterlimit:10;stroke-width:1.9693000316619873px"></path><path d="M398.33,220.23l4.39,4.38,12.35-12.35" transform="translate(-0.39 -0.26)" style="fill:none;stroke:#d7d7d7;stroke-miterlimit:10;stroke-width:1.9693000316619873px"></path><path d="M411,216.29a10,10,0,1,1-3.11-3.2" transform="translate(-0.39 -0.26)" style="fill:none;stroke:#d7d7d7;stroke-miterlimit:10;stroke-width:1.9693000316619873px"></path><path d="M398.33,131.22l4.39,4.38,12.35-12.36" transform="translate(-0.39 -0.26)" style="fill:none;stroke:#fc0;stroke-miterlimit:10;stroke-width:1.9693000316619873px"></path><path d="M411,127.28a10.08,10.08,0,1,1-3.11-3.2" transform="translate(-0.39 -0.26)" style="fill:none;stroke:#fc0;stroke-miterlimit:10;stroke-width:1.9693000316619873px"></path><path d="M338.56,224.42H187.91a1.88,1.88,0,0,1-1.87-1.88V221a1.87,1.87,0,0,1,1.87-1.87h150.7a1.87,1.87,0,0,1,1.87,1.87v1.57A1.94,1.94,0,0,1,338.56,224.42Z" transform="translate(-0.39 -0.26)" style="fill:#d7d7d7"></path><path d="M312.77,268.92H187.91a1.87,1.87,0,0,1-1.87-1.87v-1.57a1.88,1.88,0,0,1,1.87-1.88H312.82a1.88,1.88,0,0,1,1.87,1.88v1.57A2,2,0,0,1,312.77,268.92Z" transform="translate(-0.39 -0.26)" style="fill:#fc0"></path><path d="M164.48,123H153.55v15.26h10.93Z" transform="translate(-0.39 -0.26)" style="fill:none;stroke:#fc0;stroke-miterlimit:10;stroke-width:1.9693000316619873px"></path><path d="M164.53,127.23h4.77v15.26h-11v-4.28" transform="translate(-0.39 -0.26)" style="fill:none;stroke:#fc0;stroke-miterlimit:10;stroke-width:1.9693000316619873px"></path><path d="M164.48,78.49H153.55V93.75h10.93Z" transform="translate(-0.39 -0.26)" style="fill:none;stroke:#d7d7d7;stroke-miterlimit:10;stroke-width:1.9693000316619873px"></path><path d="M164.48,167.45H153.55v15.27h10.93Z" transform="translate(-0.39 -0.26)" style="fill:none;stroke:#d7d7d7;stroke-miterlimit:10;stroke-width:1.9693000316619873px"></path><path d="M164.48,256.47H153.55v15.26h10.93Z" transform="translate(-0.39 -0.26)" style="fill:none;stroke:#fc0;stroke-miterlimit:10;stroke-width:1.9693000316619873px"></path><path d="M164.53,260.75h4.77V276h-11v-4.28" transform="translate(-0.39 -0.26)" style="fill:none;stroke:#fc0;stroke-miterlimit:10;stroke-width:1.9693000316619873px"></path><path d="M164.48,212H153.55v15.26h10.93Z" transform="translate(-0.39 -0.26)" style="fill:none;stroke:#d7d7d7;stroke-miterlimit:10;stroke-width:1.9693000316619873px"></path><path d="M124,88.53h-2.46v8H124Z" transform="translate(-0.39 -0.26)" style="fill:none;stroke:#d7d7d7;stroke-miterlimit:10;stroke-width:1.4769799709320068px"></path><path d="M112.78,88.53h-2.46v8h2.46Z" transform="translate(-0.39 -0.26)" style="fill:none;stroke:#d7d7d7;stroke-miterlimit:10;stroke-width:1.4769799709320068px"></path><path d="M131.89,85.56v-3.3H102.45v3.3Z" transform="translate(-0.39 -0.26)" style="fill:none;stroke:#d7d7d7;stroke-miterlimit:10;stroke-width:1.4769799709320068px"></path><path d="M97.77,99.91h38.84" transform="translate(-0.39 -0.26)" style="fill:none;stroke:#d7d7d7;stroke-miterlimit:10;stroke-width:1.4769799709320068px"></path><path d="M102.45,99.76v-3.2h29.44v3.2" transform="translate(-0.39 -0.26)" style="fill:none;stroke:#d7d7d7;stroke-miterlimit:10;stroke-width:1.4769799709320068px"></path><path d="M118.54,85.58h-2.75v11h2.75Z" transform="translate(-0.39 -0.26)" style="fill:none;stroke:#d7d7d7;stroke-miterlimit:10;stroke-width:1.4769799709320068px"></path><path d="M107.17,85.58h-2.76v11h2.76Z" transform="translate(-0.39 -0.26)" style="fill:none;stroke:#d7d7d7;stroke-miterlimit:10;stroke-width:1.4769799709320068px"></path><path d="M130,85.58h-2.75v11H130Z" transform="translate(-0.39 -0.26)" style="fill:none;stroke:#d7d7d7;stroke-miterlimit:10;stroke-width:1.4769799709320068px"></path><path d="M117.17,80.07a1.48,1.48,0,1,0-1.48-1.48A1.48,1.48,0,0,0,117.17,80.07Z" transform="translate(-0.39 -0.26)" style="fill:none;stroke:#d7d7d7;stroke-miterlimit:10;stroke-width:1.4769799709320068px"></path><path d="M125.29,79.38V71.25" transform="translate(-0.39 -0.26)" style="fill:none;stroke:#d7d7d7;stroke-miterlimit:10;stroke-width:1.4769799709320068px"></path><path d="M131.49,76.37c-2.07-1.72-4.13,1.73-6.2,0V72.88c2.07,1.72,4.13-1.73,6.2,0Z" transform="translate(-0.39 -0.26)" style="fill:none;stroke:#d7d7d7;stroke-miterlimit:10;stroke-width:1.4769799709320068px"></path><path d="M104.71,82.23l12.46-8.12,12.5,8.12" transform="translate(-0.39 -0.26)" style="fill:none;stroke:#d7d7d7;stroke-miterlimit:10;stroke-width:1.4769799709320068px"></path><path d="M438.31,266.26c72.57,0,77.34-43.42,77.34-59.62" transform="translate(-0.39 -0.26)" style="fill:none;stroke:#fc0;stroke-miterlimit:10;stroke-width:1.9693000316619873px"></path><path d="M358.55,272.42V276H378.1v-3.59" transform="translate(-0.39 -0.26)" style="fill:none;stroke:#d7d7d7;stroke-miterlimit:10;stroke-width:1.9693000316619873px"></path><path d="M362.54,262.18l5.76-5.76,5.76,5.76" transform="translate(-0.39 -0.26)" style="fill:none;stroke:#d7d7d7;stroke-miterlimit:10;stroke-width:1.9693000316619873px"></path><path d="M368.3,276V256.42" transform="translate(-0.39 -0.26)" style="fill:none;stroke:#d7d7d7;stroke-miterlimit:10;stroke-width:1.9693000316619873px"></path><path d="M358.55,228v3.59H378.1V228" transform="translate(-0.39 -0.26)" style="fill:none;stroke:#d7d7d7;stroke-miterlimit:10;stroke-width:1.9693000316619873px"></path><path d="M362.54,217.72,368.3,212l5.76,5.76" transform="translate(-0.39 -0.26)" style="fill:none;stroke:#d7d7d7;stroke-miterlimit:10;stroke-width:1.9693000316619873px"></path><path d="M368.3,231.55V212" transform="translate(-0.39 -0.26)" style="fill:none;stroke:#d7d7d7;stroke-miterlimit:10;stroke-width:1.9693000316619873px"></path><path d="M358.55,183.5v3.6H378.1v-3.6" transform="translate(-0.39 -0.26)" style="fill:none;stroke:#d7d7d7;stroke-miterlimit:10;stroke-width:1.9693000316619873px"></path><path d="M362.54,173.26l5.76-5.76,5.76,5.76" transform="translate(-0.39 -0.26)" style="fill:none;stroke:#d7d7d7;stroke-miterlimit:10;stroke-width:1.9693000316619873px"></path><path d="M368.3,187.1V167.5" transform="translate(-0.39 -0.26)" style="fill:none;stroke:#d7d7d7;stroke-miterlimit:10;stroke-width:1.9693000316619873px"></path><path d="M358.55,139.05v3.59H378.1v-3.59" transform="translate(-0.39 -0.26)" style="fill:none;stroke:#d7d7d7;stroke-miterlimit:10;stroke-width:1.9693000316619873px"></path><path d="M362.54,128.81l5.76-5.76,5.76,5.76" transform="translate(-0.39 -0.26)" style="fill:none;stroke:#d7d7d7;stroke-miterlimit:10;stroke-width:1.9693000316619873px"></path><path d="M368.3,142.64V123.05" transform="translate(-0.39 -0.26)" style="fill:none;stroke:#d7d7d7;stroke-miterlimit:10;stroke-width:1.9693000316619873px"></path><path d="M358.55,94.59v3.54H378.1V94.59" transform="translate(-0.39 -0.26)" style="fill:none;stroke:#d7d7d7;stroke-miterlimit:10;stroke-width:1.9693000316619873px"></path><path d="M362.54,84.35l5.76-5.76,5.76,5.76" transform="translate(-0.39 -0.26)" style="fill:none;stroke:#d7d7d7;stroke-miterlimit:10;stroke-width:1.9693000316619873px"></path><path d="M368.3,98.13V78.59" transform="translate(-0.39 -0.26)" style="fill:none;stroke:#d7d7d7;stroke-miterlimit:10;stroke-width:1.9693000316619873px"></path><path d="M465.09,127.43V69.63a10.78,10.78,0,0,1,10.78-10.78H542a10.78,10.78,0,0,1,10.79,10.78v57.8A10.79,10.79,0,0,1,542,138.21H475.87A10.78,10.78,0,0,1,465.09,127.43Z" transform="translate(-0.39 -0.26)" style="fill:#293b4a"></path><rect x="457.78" y="51.81" width="113.24" height="147.7" style="fill:none"></rect><path d="M470.46,168.19V71.84A7.81,7.81,0,0,1,478.29,64h61.49a7.81,7.81,0,0,1,7.83,7.82v96.3a7.82,7.82,0,0,1-7.83,7.83H478.24A7.79,7.79,0,0,1,470.46,168.19Z" transform="translate(-0.39 -0.26)" style="fill:#fff"></path><path d="M534.9,131.56H482.72a4.18,4.18,0,0,1-4.19-4.18V75.19A4.18,4.18,0,0,1,482.72,71H534.9a4.18,4.18,0,0,1,4.19,4.18v52.19A4.18,4.18,0,0,1,534.9,131.56Z" transform="translate(-0.39 -0.26)" style="fill:#fc0"></path><path d="M493.7,110.2v5.61h30.57V110.2" transform="translate(-0.39 -0.26)" style="fill:none;stroke:#293b4a;stroke-miterlimit:10;stroke-width:1.9693000316619873px"></path><path d="M500,94.15,509,85.09l9,9.06" transform="translate(-0.39 -0.26)" style="fill:none;stroke:#293b4a;stroke-miterlimit:10;stroke-width:1.9693000316619873px"></path><path d="M519.69,157.51h13.64c5.91,16.05-6.65,32.1-.79,48.15H499.9c-1.87-5.07-1.87-10.19-1.23-15.26" transform="translate(-0.39 -0.26)" style="fill:#fff"></path><path d="M519.69,157.51h13.64c5.91,16.05-6.65,32.1-.79,48.15H499.9c-1.87-5.07-1.87-10.19-1.23-15.26" transform="translate(-0.39 -0.26)" style="fill:none;stroke:#293b4a;stroke-linecap:round;stroke-miterlimit:10;stroke-width:1.9693000316619873px"></path><path d="M518.61,168.09h9.5" transform="translate(-0.39 -0.26)" style="fill:none;stroke:#293b4a;stroke-linecap:round;stroke-miterlimit:10;stroke-width:1.9693000316619873px"></path><path d="M516.44,177.79h10.49" transform="translate(-0.39 -0.26)" style="fill:none;stroke:#293b4a;stroke-linecap:round;stroke-miterlimit:10;stroke-width:1.9693000316619873px"></path><path d="M516.24,183.36h9.51" transform="translate(-0.39 -0.26)" style="fill:none;stroke:#293b4a;stroke-linecap:round;stroke-miterlimit:10;stroke-width:1.9693000316619873px"></path><path d="M516.79,188.92h8" transform="translate(-0.39 -0.26)" style="fill:none;stroke:#293b4a;stroke-linecap:round;stroke-miterlimit:10;stroke-width:1.9693000316619873px"></path><path d="M505.12,196.16h17" transform="translate(-0.39 -0.26)" style="fill:none;stroke:#293b4a;stroke-linecap:round;stroke-miterlimit:10;stroke-width:1.9693000316619873px"></path><path d="M516.84,190.4H484.19c-5.85-16.05,6.65-32.05.79-48.1h32.64C523.48,158.35,511,174.4,516.84,190.4Z" transform="translate(-0.39 -0.26)" style="fill:#fff;stroke:#293b4a;stroke-linecap:round;stroke-miterlimit:10;stroke-width:1.9693000316619873px"></path><path d="M492.22,152.83h19" transform="translate(-0.39 -0.26)" style="fill:none;stroke:#293b4a;stroke-linecap:round;stroke-miterlimit:10;stroke-width:1.9693000316619873px"></path><path d="M492.56,162.53h19.06" transform="translate(-0.39 -0.26)" style="fill:none;stroke:#293b4a;stroke-linecap:round;stroke-miterlimit:10;stroke-width:1.9693000316619873px"></path><path d="M491.38,168.09h19.06" transform="translate(-0.39 -0.26)" style="fill:none;stroke:#293b4a;stroke-linecap:round;stroke-miterlimit:10;stroke-width:1.9693000316619873px"></path><path d="M490.64,173.66H509.7" transform="translate(-0.39 -0.26)" style="fill:none;stroke:#293b4a;stroke-linecap:round;stroke-miterlimit:10;stroke-width:1.9693000316619873px"></path><path d="M491.43,179.22h8.91" transform="translate(-0.39 -0.26)" style="fill:none;stroke:#293b4a;stroke-linecap:round;stroke-miterlimit:10;stroke-width:1.9693000316619873px"></path><path d="M509,115.81V85.09" transform="translate(-0.39 -0.26)" style="fill:none;stroke:#293b4a;stroke-miterlimit:10;stroke-width:1.9693000316619873px"></path><path d="M135,222.5v-3.69H102.32v3.69Z" transform="translate(-0.39 -0.26)" style="fill:none;stroke:#d7d7d7;stroke-miterlimit:10;stroke-width:1.4769799709320068px"></path><path d="M97.08,237.07h43.17" transform="translate(-0.39 -0.26)" style="fill:none;stroke:#d7d7d7;stroke-miterlimit:10;stroke-width:1.4769799709320068px"></path><path d="M102.3,236.92v-5.61H135v5.61" transform="translate(-0.39 -0.26)" style="fill:none;stroke:#d7d7d7;stroke-miterlimit:10;stroke-width:1.4769799709320068px"></path><path d="M125,222.5H112.29v8.86H125Z" transform="translate(-0.39 -0.26)" style="fill:none;stroke:#d7d7d7;stroke-miterlimit:10;stroke-width:1.4769799709320068px"></path><path d="M112.29,222.5h-7.83v8.86h7.83Z" transform="translate(-0.39 -0.26)" style="fill:none;stroke:#d7d7d7;stroke-miterlimit:10;stroke-width:1.4769799709320068px"></path><path d="M132.87,222.5H125v8.86h7.83Z" transform="translate(-0.39 -0.26)" style="fill:none;stroke:#d7d7d7;stroke-miterlimit:10;stroke-width:1.4769799709320068px"></path><path d="M118.64,214.27v-9" transform="translate(-0.39 -0.26)" style="fill:none;stroke:#d7d7d7;stroke-miterlimit:10;stroke-width:1.4769799709320068px"></path><path d="M111.75,210.93c2.31,1.92,4.63-1.92,6.89,0V207c-2.31-1.92-4.63,1.92-6.89,0Z" transform="translate(-0.39 -0.26)" style="fill:none;stroke:#d7d7d7;stroke-miterlimit:10;stroke-width:1.4769799709320068px"></path><path d="M104.81,218.8l13.83-4.53,13.89,4.53" transform="translate(-0.39 -0.26)" style="fill:none;stroke:#d7d7d7;stroke-miterlimit:10;stroke-width:1.4769799709320068px"></path><path d="M105.05,237.07v-3.4h27.23v3.4" transform="translate(-0.39 -0.26)" style="fill:none;stroke:#d7d7d7;stroke-miterlimit:10;stroke-width:1.4769799709320068px"></path><path d="M115.49,233.33v-8.08h6.3v8.08" transform="translate(-0.39 -0.26)" style="fill:none;stroke:#d7d7d7;stroke-miterlimit:10;stroke-width:1.4769799709320068px"></path><path d="M108.35,231.31V222.5" transform="translate(-0.39 -0.26)" style="fill:none;stroke:#d7d7d7;stroke-miterlimit:10;stroke-width:1.4769799709320068px"></path><path d="M128.93,231.31V222.5" transform="translate(-0.39 -0.26)" style="fill:none;stroke:#d7d7d7;stroke-miterlimit:10;stroke-width:1.4769799709320068px"></path></g></svg>