<svg xmlns="http://www.w3.org/2000/svg" id="Layer_1" data-name="Layer 1" viewBox="0 0 133.46 114.46"><path d="M67.59,18.5H97.72v84H37.46V93" transform="translate(-0.61 -1.63)" style="fill:none;stroke:#fff;stroke-miterlimit:10;stroke-width:2px"></path><path d="M1.61,2.63H61.87v84H1.61v-76" transform="translate(-0.61 -1.63)" style="fill:none;stroke:#fff;stroke-miterlimit:10;stroke-width:2px"></path><path d="M104.34,31.19h28.73v83.9H72.81v-6.47" transform="translate(-0.61 -1.63)" style="fill:none;stroke:#fff;stroke-miterlimit:10;stroke-width:2px"></path><path d="M52.21,69.52H11.27" transform="translate(-0.61 -1.63)" style="fill:none;stroke:#fff;stroke-miterlimit:10;stroke-width:2px"></path><path d="M52.21,57.34H11.27" transform="translate(-0.61 -1.63)" style="fill:none;stroke:#fff;stroke-miterlimit:10;stroke-width:2px"></path><path d="M52.21,44.65H11.27" transform="translate(-0.61 -1.63)" style="fill:none;stroke:#fff;stroke-miterlimit:10;stroke-width:2px"></path><path d="M49.79,25.1V11.77" transform="translate(-0.61 -1.63)" style="fill:none;stroke:#fff;stroke-miterlimit:10;stroke-width:2px"></path><path d="M82.6,28.65,86.28,25,90,28.65l-7.63,7.62H91" transform="translate(-0.61 -1.63)" style="fill:none;stroke:#fff;stroke-linejoin:bevel;stroke-width:2px"></path><path d="M116.92,49.72h7.25V39.57h-7.25" transform="translate(-0.61 -1.63)" style="fill:none;stroke:#fff;stroke-miterlimit:10;stroke-width:2px"></path><path d="M118.7,44.65h4.83" transform="translate(-0.61 -1.63)" style="fill:none;stroke:#fff;stroke-miterlimit:10;stroke-width:2px"></path></svg>