<svg xmlns="http://www.w3.org/2000/svg" xmlns:xlink="http://www.w3.org/1999/xlink" id="Layer_1" data-name="Layer 1" viewBox="0 0 222.1 90.9"><defs><clipPath id="clip-path" transform="translate(0.16 -65.1)"><rect x="-0.16" y="65" width="222.1" height="91" style="fill:none"></rect></clipPath></defs><g style="clip-path:url(#clip-path)"><path d="M128.94,77.6a18.26,18.26,0,0,0-17.1-11.5H86.44A18.44,18.44,0,0,0,68,84.6a17.8,17.8,0,0,0,3.9,11.3l-8.5,7.2h48.4a18.52,18.52,0,0,0,18.5-18.5" transform="translate(0.16 -65.1)" style="fill:none;stroke:#19ad4a;stroke-miterlimit:10;stroke-width:2px"></path><path d="M96.34,102.9A19.25,19.25,0,0,1,95,96a18.52,18.52,0,0,1,18.5-18.5h25.3A18.52,18.52,0,0,1,157.34,96a18.21,18.21,0,0,1-3.2,10.3l7.2,8.1h-47.9a18.27,18.27,0,0,1-13.1-5.5" transform="translate(0.16 -65.1)" style="fill:none;stroke:#19ad4a;stroke-miterlimit:10;stroke-width:2px"></path><path d="M193.34,135.3v-7.9h27.6V155h-27.6V141.8h-113V127.4H28.44V113.6H.84v27.6h27.6v-7.8" transform="translate(0.16 -65.1)" style="fill:none;stroke:#19ad4a;stroke-miterlimit:10;stroke-width:2px"></path></g></svg>