<svg xmlns="http://www.w3.org/2000/svg" id="Layer_1" data-name="Layer 1" viewBox="0 0 651.95 295.67"><path d="M468,295.71H79.84a9.55,9.55,0,0,1-9.56-9.54v-256a9.54,9.54,0,0,1,9.56-9.53H468a9.54,9.54,0,0,1,9.56,9.53v256.1A9.54,9.54,0,0,1,468,295.71Z" transform="translate(-0.5 -0.04)" style="opacity:0.20000000298023224;isolation:isolate"></path><path d="M461.56,5.28V275.2a5.24,5.24,0,0,1-5.26,5.25H5.76A5.24,5.24,0,0,1,.5,275.2V5.28A5.23,5.23,0,0,1,5.76,0H456.3A5.32,5.32,0,0,1,461.56,5.28Z" transform="translate(-0.5 -0.04)" style="fill:#2e4354"></path><path d="M22.48,280.45h-17a4.93,4.93,0,0,1-5-5V5a5,5,0,0,1,5-4.95h17Z" transform="translate(-0.5 -0.04)" style="fill:#223849"></path><path d="M17,19.68H6a2,2,0,0,1-2-2v-11a2,2,0,0,1,2-2H17a2,2,0,0,1,2,2v11A2.08,2.08,0,0,1,17,19.68Z" transform="translate(-0.5 -0.04)" style="fill:#1ab554"></path><path d="M126.1.08H22.48V280.45H126.1Z" transform="translate(-0.5 -0.04)" style="fill:#e7e7e7"></path><path d="M82.75,18.39H36.11a2.81,2.81,0,1,1,0-5.62H82.75a2.79,2.79,0,0,1,2.82,2.81A2.82,2.82,0,0,1,82.75,18.39Z" transform="translate(-0.5 -0.04)" style="fill:#b2b2b2"></path><path d="M64.16,74.42H34.67a1.43,1.43,0,1,1,0-2.86H64.16a1.43,1.43,0,1,1,0,2.86Z" transform="translate(-0.5 -0.04)" style="fill:#b2b2b2"></path><path d="M99.15,38.37H35.06a1.77,1.77,0,1,1,0-3.53H99.19A1.79,1.79,0,0,1,101,36.61,1.83,1.83,0,0,1,99.15,38.37Z" transform="translate(-0.5 -0.04)" style="fill:#fff"></path><path d="M112.1,40.9a4.29,4.29,0,1,0-4.31-4.29A4.3,4.3,0,0,0,112.1,40.9Z" transform="translate(-0.5 -0.04)" style="fill:#c9c9c9"></path><path d="M112.1,217.6a4.29,4.29,0,1,0-4.31-4.29A4.3,4.3,0,0,0,112.1,217.6Z" transform="translate(-0.5 -0.04)" style="fill:#c9c9c9"></path><path d="M112.1,228a4.29,4.29,0,1,0-4.31-4.29A4.3,4.3,0,0,0,112.1,228Z" transform="translate(-0.5 -0.04)" style="fill:#c9c9c9"></path><path d="M99.15,51.53H35.06a1.77,1.77,0,1,1,0-3.53H99.19A1.79,1.79,0,0,1,101,49.77,1.83,1.83,0,0,1,99.15,51.53Z" transform="translate(-0.5 -0.04)" style="fill:#fff"></path><path d="M85.57,86.53H35.06a1.77,1.77,0,1,1,0-3.53H85.57a1.79,1.79,0,0,1,1.77,1.76A1.76,1.76,0,0,1,85.57,86.53Z" transform="translate(-0.5 -0.04)" style="fill:#fff"></path><path d="M64.16,106.46H34.67a1.43,1.43,0,1,1,0-2.86H64.16a1.43,1.43,0,1,1,0,2.86Z" transform="translate(-0.5 -0.04)" style="fill:#b2b2b2"></path><path d="M85.57,118.57H35.06a1.77,1.77,0,1,1,0-3.53H85.57a1.79,1.79,0,0,1,1.77,1.77A1.76,1.76,0,0,1,85.57,118.57Z" transform="translate(-0.5 -0.04)" style="fill:#fff"></path><path d="M100.05,129h-65a1.76,1.76,0,1,1,0-3.52h65a1.76,1.76,0,1,1,0,3.52Z" transform="translate(-0.5 -0.04)" style="fill:#fff"></path><path d="M64.16,203H34.67a1.43,1.43,0,1,1,0-2.86H64.16a1.43,1.43,0,1,1,0,2.86Z" transform="translate(-0.5 -0.04)" style="fill:#b2b2b2"></path><path d="M85.57,215.08H35.06a1.77,1.77,0,1,1,0-3.53H85.57a1.79,1.79,0,0,1,1.77,1.76A1.74,1.74,0,0,1,85.57,215.08Z" transform="translate(-0.5 -0.04)" style="fill:#fff"></path><path d="M100.05,225.47h-65a1.77,1.77,0,1,1,0-3.53h65a1.79,1.79,0,0,1,1.77,1.77A1.76,1.76,0,0,1,100.05,225.47Z" transform="translate(-0.5 -0.04)" style="fill:#fff"></path><path d="M111.19,139.31H35.06a1.77,1.77,0,1,1,0-3.53h76.18a1.77,1.77,0,1,1,0,3.53Z" transform="translate(-0.5 -0.04)" style="fill:#fff"></path><path d="M75.92,149.71H35.06a1.77,1.77,0,1,1,0-3.53H75.92a1.8,1.8,0,0,1,1.77,1.76A1.77,1.77,0,0,1,75.92,149.71Z" transform="translate(-0.5 -0.04)" style="fill:#fff"></path><path d="M85.57,160.1H35.06a1.77,1.77,0,1,1,0-3.53H85.57a1.79,1.79,0,0,1,1.77,1.77A1.73,1.73,0,0,1,85.57,160.1Z" transform="translate(-0.5 -0.04)" style="fill:#fff"></path><path d="M98,170.49H35.06a1.76,1.76,0,1,1,0-3.52H98a1.79,1.79,0,0,1,1.77,1.76A1.76,1.76,0,0,1,98,170.49Z" transform="translate(-0.5 -0.04)" style="fill:#fff"></path><path d="M102.78,180.89H35.06a1.77,1.77,0,1,1,0-3.53h67.72a1.8,1.8,0,0,1,1.77,1.77A1.76,1.76,0,0,1,102.78,180.89Z" transform="translate(-0.5 -0.04)" style="fill:#fff"></path><path d="M112.1,54.06a4.29,4.29,0,1,0-4.31-4.29A4.3,4.3,0,0,0,112.1,54.06Z" transform="translate(-0.5 -0.04)" style="fill:#c9c9c9"></path><path d="M443.54,25H402.68a6.1,6.1,0,1,1,0-12.2h40.86a6.1,6.1,0,1,1,0,12.2Z" transform="translate(-0.5 -0.04)" style="fill:#1a9954"></path><rect x="334.54" y="82.67" width="317.41" height="116.23" rx="5.17" style="fill:#ffcd00"></rect><rect x="418.59" y="99.66" width="223.53" height="21.46" rx="10.73" style="fill:#fff"></rect><path d="M429.37,131.88h203a10.29,10.29,0,0,1,10.29,10.28h0a10.29,10.29,0,0,1-10.29,10.28h-203a10.28,10.28,0,0,1-10.28-10.28h0A10.28,10.28,0,0,1,429.37,131.88Z" transform="translate(-0.5 -0.04)" style="fill:#fff"></path><path d="M438.76,139l.37,1.41,1.06-1-.41,1.41,1.43-.24-1.11.94,1.34.57-1.48.19.84,1.22-1.3-.66v1.51l-.74-1.27L438,144.4v-1.51l-1.29.66.78-1.22-1.43-.19,1.34-.57-1.11-.94,1.43.24-.46-1.41,1.11,1Z" transform="translate(-0.5 -0.04)" style="fill:#adb3b8"></path><path d="M450.38,139l.37,1.41,1.07-1-.42,1.42,1.44-.24-1.11.94,1.34.57-1.48.19.83,1.22-1.3-.66v1.51l-.74-1.27-.74,1.27v-1.51l-1.29.66.79-1.22-1.44-.19,1.34-.57-1.11-.94,1.44.24-.47-1.42,1.11,1Z" transform="translate(-0.5 -0.04)" style="fill:#adb3b8"></path><path d="M462.45,139l.44,1.41,1.24-1-.49,1.42,1.67-.24-1.29.94,1.56.57-1.72.19,1,1.22-1.51-.66v1.51l-.87-1.27-.86,1.27v-1.51l-1.51.66.92-1.22-1.67-.19,1.56-.57-1.29-.94,1.67.24-.54-1.42,1.29,1Z" transform="translate(-0.5 -0.04)" style="fill:#adb3b8"></path><path d="M474.52,139l.37,1.41,1.07-1-.42,1.42,1.44-.24-1.11.94,1.34.57-1.48.19.83,1.22-1.3-.66v1.51l-.74-1.27-.74,1.27v-1.51l-1.29.66.79-1.22-1.44-.19,1.34-.57-1.11-.94,1.44.24-.47-1.42,1.11,1Z" transform="translate(-0.5 -0.04)" style="fill:#adb3b8"></path><path d="M486.6,139l.43,1.41,1.24-1-.49,1.42,1.67-.24-1.29.94,1.56.57-1.72.19,1,1.22-1.51-.66v1.51l-.86-1.27-.87,1.27v-1.51l-1.51.66.92-1.22-1.67-.19,1.56-.57-1.29-.94,1.67.24-.54-1.42,1.29,1Z" transform="translate(-0.5 -0.04)" style="fill:#adb3b8"></path><path d="M498.67,139l.37,1.41,1.06-1-.42,1.42,1.44-.24-1.11.94,1.34.57-1.48.19.83,1.22-1.29-.66v1.51l-.74-1.27-.74,1.27v-1.51l-1.3.66.79-1.22-1.44-.19,1.35-.57-1.11-.94,1.43.24-.46-1.42,1.11,1Z" transform="translate(-0.5 -0.04)" style="fill:#adb3b8"></path><path d="M510.29,139l.37,1.41,1.06-1-.41,1.42,1.43-.24-1.11.94,1.34.57-1.48.19.83,1.22-1.29-.66v1.51l-.74-1.27-.74,1.27v-1.51l-1.3.66.79-1.22-1.43-.19,1.34-.57-1.11-.94,1.43.24-.46-1.42,1.11,1Z" transform="translate(-0.5 -0.04)" style="fill:#adb3b8"></path><path d="M522.36,139l.43,1.41,1.24-1-.48,1.42,1.67-.24-1.3.94,1.57.57-1.73.19,1,1.22-1.51-.66v1.51l-.86-1.27-.86,1.27v-1.51l-1.51.66.91-1.22-1.67-.19,1.56-.57-1.29-.94,1.67.24-.54-1.42,1.3,1Z" transform="translate(-0.5 -0.04)" style="fill:#adb3b8"></path><path d="M534.43,139l.37,1.41,1.06-1-.41,1.42,1.43-.24-1.11.94,1.34.57-1.48.19.84,1.22-1.3-.66v1.51l-.74-1.27-.74,1.27v-1.51l-1.29.66.78-1.22-1.43-.19,1.34-.57-1.11-.94,1.43.24-.46-1.42,1.11,1Z" transform="translate(-0.5 -0.04)" style="fill:#adb3b8"></path><path d="M546.5,139l.43,1.41,1.24-1-.48,1.42,1.67-.24-1.29.94,1.56.57-1.73.19,1,1.22-1.51-.66v1.51l-.86-1.27-.86,1.27v-1.51l-1.51.66.91-1.22-1.67-.19,1.57-.57-1.3-.94,1.67.24-.54-1.42,1.3,1Z" transform="translate(-0.5 -0.04)" style="fill:#adb3b8"></path><path d="M429.61,163.17h52.23a10.45,10.45,0,0,1,10.45,10.45h0a10.45,10.45,0,0,1-10.45,10.45H429.61a10.45,10.45,0,0,1-10.45-10.45h0A10.45,10.45,0,0,1,429.61,163.17Z" transform="translate(-0.5 -0.04)" style="fill:#19ad4a"></path><path d="M433,114.63V107h1.66l2.44,4.86,2.41-4.86h1.67v7.66h-1.4v-5.29l-2.14,4.2h-1.11l-2.13-4.2v5.29Zm12.27.13a2.92,2.92,0,0,1-1.46-.35,2.52,2.52,0,0,1-1-1,2.91,2.91,0,0,1-.36-1.47,3.08,3.08,0,0,1,.35-1.5,2.6,2.6,0,0,1,1-1,2.89,2.89,0,0,1,1.49-.37,2.85,2.85,0,0,1,1.42.35,2.57,2.57,0,0,1,.95,1,2.72,2.72,0,0,1,.35,1.35,2.09,2.09,0,0,1,0,.25c0,.09,0,.18,0,.28h-4.13a1.39,1.39,0,0,0,.44,1,1.41,1.41,0,0,0,1,.37,1.29,1.29,0,0,0,.71-.19,1.17,1.17,0,0,0,.44-.5h1.42a2.62,2.62,0,0,1-.51.94,2.53,2.53,0,0,1-.88.65A2.72,2.72,0,0,1,445.25,114.76Zm0-4.55a1.54,1.54,0,0,0-.91.29,1.34,1.34,0,0,0-.5.88h2.71a1.2,1.2,0,0,0-.4-.85A1.32,1.32,0,0,0,445.26,110.21Zm3.78,6.18v-1.34h6.27v1.34Zm7.11-1.76L459,107h1.57l2.81,7.66h-1.49l-.61-1.77h-3l-.63,1.77Zm2.48-2.87h2.22l-1.12-3.18Zm8,1.25a3.4,3.4,0,0,1-.73-.08l-.41.4a1.81,1.81,0,0,0,.51.16,9.54,9.54,0,0,0,1,.14,2.74,2.74,0,0,1,1.57.51,1.43,1.43,0,0,1,.5,1.15,1.69,1.69,0,0,1-.27.91,1.76,1.76,0,0,1-.81.7,3.14,3.14,0,0,1-1.4.28,3.54,3.54,0,0,1-1.87-.44,1.41,1.41,0,0,1-.71-1.3,1.56,1.56,0,0,1,.71-1.27,1.71,1.71,0,0,1-.38-.21,1.6,1.6,0,0,1-.28-.22v-.26l.95-1a1.86,1.86,0,0,1-.63-1.44,1.85,1.85,0,0,1,1-1.71,2.58,2.58,0,0,1,1.19-.26,2.67,2.67,0,0,1,.86.13h2.06v.85l-.93.07a2,2,0,0,1,.21.92,1.89,1.89,0,0,1-.26,1,1.83,1.83,0,0,1-.77.71A2.35,2.35,0,0,1,466.59,113Zm0-1.07a1.05,1.05,0,0,0,.7-.23.88.88,0,0,0,0-1.31,1,1,0,0,0-.7-.24,1,1,0,0,0-.72.24.93.93,0,0,0,0,1.31A1.09,1.09,0,0,0,466.59,111.94Zm-1.31,3.36a.63.63,0,0,0,.37.6,1.94,1.94,0,0,0,.93.21,1.5,1.5,0,0,0,.86-.22.63.63,0,0,0,.32-.57.65.65,0,0,0-.21-.49,1.45,1.45,0,0,0-.85-.24,6.74,6.74,0,0,1-.83-.1,1.53,1.53,0,0,0-.46.38A.8.8,0,0,0,465.28,115.3Zm7.12-.54a2.72,2.72,0,0,1-1.15-.21,1.66,1.66,0,0,1-.67-.61,1.62,1.62,0,0,1-.22-.82,1.47,1.47,0,0,1,.6-1.22,2.75,2.75,0,0,1,1.77-.48h1.38v-.13a1,1,0,0,0-.32-.82,1.21,1.21,0,0,0-.79-.26,1.31,1.31,0,0,0-.74.21.87.87,0,0,0-.4.59H470.5a1.83,1.83,0,0,1,.39-1,2.18,2.18,0,0,1,.9-.67,3,3,0,0,1,1.23-.24,2.65,2.65,0,0,1,1.82.58,2.06,2.06,0,0,1,.67,1.64v3.34h-1.19l-.13-.87a2,2,0,0,1-.68.72A2,2,0,0,1,472.4,114.76Zm.32-1.09a1.13,1.13,0,0,0,.93-.4,1.84,1.84,0,0,0,.43-1h-1.2a1.22,1.22,0,0,0-.8.21.6.6,0,0,0-.24.49.56.56,0,0,0,.24.49A1.05,1.05,0,0,0,472.72,113.67Zm4.89-5.31a.93.93,0,0,1-.64-.23.78.78,0,0,1-.24-.58A.72.72,0,0,1,477,107a.88.88,0,0,1,.64-.23.84.84,0,0,1,.62.23.7.7,0,0,1,.25.57.76.76,0,0,1-.25.58A.88.88,0,0,1,477.61,108.36Zm-.71,6.27V109.2h1.41v5.43Zm2.87,0V109.2H481l.11.92a2,2,0,0,1,.72-.77,2.18,2.18,0,0,1,1.13-.28,1.94,1.94,0,0,1,1.56.64,2.69,2.69,0,0,1,.56,1.86v3.06h-1.4V111.7a1.76,1.76,0,0,0-.28-1.08,1.08,1.08,0,0,0-.89-.37,1.27,1.27,0,0,0-1,.42,1.72,1.72,0,0,0-.37,1.16v2.8Z" transform="translate(-0.5 -0.04)" style="fill:#adb3b8"></path><circle cx="276.13" cy="135.91" r="117.35" style="fill:#fff"></circle><path d="M306.7,89l.1-11-58.62-.5-.1,11a5.48,5.48,0,0,1-5.45,5.38l-23-.2-.3,36.4c-.44,51.43,57,79.25,57,79.25s58-26.88,58.37-78.27l.3-36.39-23-.2A5.52,5.52,0,0,1,306.7,89Z" transform="translate(-0.5 -0.04)" style="fill:#253b4c"></path><path d="M301,118.28H252.8v43H301Z" transform="translate(-0.5 -0.04)" style="fill:#ffd100"></path><path d="M291.1,118.28v-6.45a14.21,14.21,0,0,0-28.41,0v6.45" transform="translate(-0.5 -0.04)" style="fill:none;stroke:#ffd100;stroke-miterlimit:10;stroke-width:6.040140151977539px"></path></svg>