<svg xmlns="http://www.w3.org/2000/svg" id="Layer_1" data-name="Layer 1" viewBox="0 0 533 376"><rect width="533" height="376" rx="30" style="fill:#fff"></rect><rect x="16" y="16" width="501" height="344" rx="15" style="fill:#f5f5f5"></rect><line x1="517" y1="43.5" x2="16" y2="43.5" style="fill:none;stroke:#fff"></line><line x1="521.57" y1="340.05" x2="12.15" y2="340.05" style="fill:none;stroke:#fff"></line><path d="M722.11,492.72V705.83a8.12,8.12,0,0,1-8.12,8.11H421.56a3.78,3.78,0,0,1-3.8-3.79V488.35a3.79,3.79,0,0,1,3.8-3.8H714A8.14,8.14,0,0,1,722.11,492.72Z" transform="translate(-333.39 -411.55)" style="fill:#fff"></path><path d="M433.73,713.94H421.19a3.78,3.78,0,0,1-3.8-3.79V488.35a3.79,3.79,0,0,1,3.8-3.8h12.54" transform="translate(-333.39 -411.55)" style="fill:#223849"></path><g style="opacity:0.699999988079071"><g style="opacity:0.699999988079071"><path d="M428.94,499.1H422.3a2.23,2.23,0,0,1-2.22-2.21v-6.64A2.23,2.23,0,0,1,422.3,488h6.64a2.23,2.23,0,0,1,2.21,2.22v6.64A2.22,2.22,0,0,1,428.94,499.1Z" transform="translate(-333.39 -411.55)" style="fill:#19ad4a;opacity:0.699999988079071;isolation:isolate"></path><path d="M510,484.66H433.73V713.94H510Z" transform="translate(-333.39 -411.55)" style="fill:#dadce0;opacity:0.699999988079071;isolation:isolate"></path><path d="M576.68,550.39H522.76a2.06,2.06,0,1,1,0-4.11h53.92a2.05,2.05,0,0,1,2.06,2.05A2,2,0,0,1,576.68,550.39Z" transform="translate(-333.39 -411.55)" style="fill:#e7e7e7;opacity:0.699999988079071;isolation:isolate"></path><path d="M478.06,500.1H443.75a2.06,2.06,0,1,1,0-4.11h34.31a2.06,2.06,0,0,1,2.06,2.06A2.09,2.09,0,0,1,478.06,500.1Z" transform="translate(-333.39 -411.55)" style="fill:#b2b2b2;opacity:0.699999988079071;isolation:isolate"></path><path d="M464.36,539.42H442.69a1.06,1.06,0,0,1,0-2.11h21.67a1.06,1.06,0,0,1,0,2.11Z" transform="translate(-333.39 -411.55)" style="fill:#b2b2b2;opacity:0.699999988079071;isolation:isolate"></path><path d="M490.08,512.86H443a1.32,1.32,0,0,1,0-2.64h47.17a1.31,1.31,0,0,1,1.32,1.32A1.38,1.38,0,0,1,490.08,512.86Z" transform="translate(-333.39 -411.55)" style="fill:#fff;opacity:0.699999988079071;isolation:isolate"></path><path d="M576.68,502.16H522.76a2.06,2.06,0,1,1,0-4.11h53.92a2.05,2.05,0,0,1,2.06,2.05A2,2,0,0,1,576.68,502.16Z" transform="translate(-333.39 -411.55)" style="fill:#b2b2b2;opacity:0.699999988079071;isolation:isolate"></path><path d="M576.68,542H522.76a2.06,2.06,0,1,1,0-4.11h53.92a2.06,2.06,0,0,1,2.06,2.06A2,2,0,0,1,576.68,542Z" transform="translate(-333.39 -411.55)" style="fill:#e7e7e7;opacity:0.699999988079071;isolation:isolate"></path><path d="M548.59,579.48H528a1.16,1.16,0,0,1,0-2.32h20.56a1.16,1.16,0,0,1,0,2.32Z" transform="translate(-333.39 -411.55)" style="fill:#fff;opacity:0.699999988079071;isolation:isolate"></path><path d="M552,595.3H528a1.16,1.16,0,0,1,0-2.32h24a1.16,1.16,0,0,1,0,2.32Z" transform="translate(-333.39 -411.55)" style="fill:#e5e9f7;opacity:0.699999988079071;isolation:isolate"></path><path d="M546,611.06H528a1.16,1.16,0,0,1,0-2.32H546a1.16,1.16,0,0,1,0,2.32Z" transform="translate(-333.39 -411.55)" style="fill:#e5e9f7;opacity:0.699999988079071;isolation:isolate"></path><path d="M552,626.87H528a1.16,1.16,0,0,1,0-2.32h24a1.16,1.16,0,0,1,0,2.32Z" transform="translate(-333.39 -411.55)" style="fill:#e5e9f7;opacity:0.699999988079071;isolation:isolate"></path><path d="M556.28,642.63H528a1.16,1.16,0,0,1,0-2.32h28.25a1.16,1.16,0,0,1,0,2.32Z" transform="translate(-333.39 -411.55)" style="fill:#e5e9f7;opacity:0.699999988079071;isolation:isolate"></path><path d="M552,658.39H528a1.16,1.16,0,0,1,0-2.32h24a1.16,1.16,0,0,1,0,2.32Z" transform="translate(-333.39 -411.55)" style="fill:#e5e9f7;opacity:0.699999988079071;isolation:isolate"></path><path d="M552,674.2H528a1.16,1.16,0,1,1,0-2.32h24a1.16,1.16,0,1,1,0,2.32Z" transform="translate(-333.39 -411.55)" style="fill:#e5e9f7;opacity:0.699999988079071;isolation:isolate"></path><path d="M593.5,595.3h-24a1.16,1.16,0,0,1,0-2.32h24a1.17,1.17,0,0,1,1.16,1.16A1.11,1.11,0,0,1,593.5,595.3Z" transform="translate(-333.39 -411.55)" style="fill:#e7e7e7;opacity:0.699999988079071;isolation:isolate"></path><path d="M587.44,611.06H569.51a1.16,1.16,0,0,1,0-2.32h17.93a1.16,1.16,0,0,1,0,2.32Z" transform="translate(-333.39 -411.55)" style="fill:#e7e7e7;opacity:0.699999988079071;isolation:isolate"></path><path d="M593.5,626.87h-24a1.16,1.16,0,0,1,0-2.32h24a1.17,1.17,0,0,1,1.16,1.16A1.11,1.11,0,0,1,593.5,626.87Z" transform="translate(-333.39 -411.55)" style="fill:#e7e7e7;opacity:0.699999988079071;isolation:isolate"></path><path d="M597.77,642.63H569.51a1.16,1.16,0,0,1,0-2.32h28.26a1.16,1.16,0,0,1,0,2.32Z" transform="translate(-333.39 -411.55)" style="fill:#e7e7e7;opacity:0.699999988079071;isolation:isolate"></path><path d="M593.5,658.39h-24a1.16,1.16,0,0,1,0-2.32h24a1.17,1.17,0,0,1,1.16,1.16A1.11,1.11,0,0,1,593.5,658.39Z" transform="translate(-333.39 -411.55)" style="fill:#e7e7e7;opacity:0.699999988079071;isolation:isolate"></path><path d="M593.5,674.2h-24a1.16,1.16,0,1,1,0-2.32h24a1.17,1.17,0,0,1,1.16,1.16A1.11,1.11,0,0,1,593.5,674.2Z" transform="translate(-333.39 -411.55)" style="fill:#e7e7e7;opacity:0.699999988079071;isolation:isolate"></path><path d="M692.22,595.3h-24a1.16,1.16,0,0,1,0-2.32h24a1.17,1.17,0,0,1,1.16,1.16A1.14,1.14,0,0,1,692.22,595.3Z" transform="translate(-333.39 -411.55)" style="fill:#e7e7e7;opacity:0.699999988079071;isolation:isolate"></path><path d="M686.16,611.06H668.24a1.16,1.16,0,0,1,0-2.32h17.92a1.16,1.16,0,1,1,0,2.32Z" transform="translate(-333.39 -411.55)" style="fill:#e7e7e7;opacity:0.699999988079071;isolation:isolate"></path><path d="M692.22,626.87h-24a1.16,1.16,0,0,1,0-2.32h24a1.17,1.17,0,0,1,1.16,1.16A1.14,1.14,0,0,1,692.22,626.87Z" transform="translate(-333.39 -411.55)" style="fill:#e7e7e7;opacity:0.699999988079071;isolation:isolate"></path><path d="M696.49,642.63H668.24a1.16,1.16,0,0,1,0-2.32h28.25a1.16,1.16,0,0,1,0,2.32Z" transform="translate(-333.39 -411.55)" style="fill:#e7e7e7;opacity:0.699999988079071;isolation:isolate"></path><path d="M692.22,658.39h-24a1.16,1.16,0,0,1,0-2.32h24a1.17,1.17,0,0,1,1.16,1.16A1.14,1.14,0,0,1,692.22,658.39Z" transform="translate(-333.39 -411.55)" style="fill:#e7e7e7;opacity:0.699999988079071;isolation:isolate"></path><path d="M692.22,674.2h-24a1.16,1.16,0,0,1,0-2.32h24a1.17,1.17,0,0,1,1.16,1.16A1.14,1.14,0,0,1,692.22,674.2Z" transform="translate(-333.39 -411.55)" style="fill:#e7e7e7;opacity:0.699999988079071;isolation:isolate"></path><path d="M646.42,595.3h-24a1.16,1.16,0,0,1,0-2.32h24a1.16,1.16,0,1,1,0,2.32Z" transform="translate(-333.39 -411.55)" style="fill:#d7eedc;opacity:0.699999988079071;isolation:isolate"></path><path d="M640.36,611.06H622.43a1.16,1.16,0,0,1,0-2.32h17.93a1.16,1.16,0,0,1,0,2.32Z" transform="translate(-333.39 -411.55)" style="fill:#d7eedc;opacity:0.699999988079071;isolation:isolate"></path><path d="M646.42,626.87h-24a1.16,1.16,0,1,1,0-2.32h24a1.16,1.16,0,0,1,0,2.32Z" transform="translate(-333.39 -411.55)" style="fill:#d7eedc;opacity:0.699999988079071;isolation:isolate"></path><path d="M650.69,642.63H622.43a1.16,1.16,0,0,1,0-2.32h28.26a1.16,1.16,0,0,1,0,2.32Z" transform="translate(-333.39 -411.55)" style="fill:#d7eedc;opacity:0.699999988079071;isolation:isolate"></path><path d="M646.42,658.39h-24a1.16,1.16,0,1,1,0-2.32h24a1.16,1.16,0,1,1,0,2.32Z" transform="translate(-333.39 -411.55)" style="fill:#d7eedc;opacity:0.699999988079071;isolation:isolate"></path><path d="M646.42,674.2h-24a1.16,1.16,0,1,1,0-2.32h24a1.16,1.16,0,1,1,0,2.32Z" transform="translate(-333.39 -411.55)" style="fill:#d7eedc;opacity:0.699999988079071;isolation:isolate"></path><path d="M589.49,579.48H568.93a1.16,1.16,0,1,1,0-2.32h20.56a1.17,1.17,0,0,1,1.16,1.16A1.11,1.11,0,0,1,589.49,579.48Z" transform="translate(-333.39 -411.55)" style="fill:#fff;opacity:0.699999988079071;isolation:isolate"></path><path d="M642.94,579.48H622.38a1.16,1.16,0,0,1,0-2.32h20.56a1.17,1.17,0,0,1,1.16,1.16A1.11,1.11,0,0,1,642.94,579.48Z" transform="translate(-333.39 -411.55)" style="fill:#fff;opacity:0.699999988079071;isolation:isolate"></path><path d="M688.8,579.48H668.24a1.16,1.16,0,0,1,0-2.32H688.8a1.16,1.16,0,0,1,0,2.32Z" transform="translate(-333.39 -411.55)" style="fill:#fff;opacity:0.699999988079071;isolation:isolate"></path><path d="M499.62,645a3.17,3.17,0,1,0-3.16-3.16A3.16,3.16,0,0,0,499.62,645Z" transform="translate(-333.39 -411.55)" style="fill:#c9c9c9;opacity:0.699999988079071;isolation:isolate"></path><path d="M499.62,652.64a3.16,3.16,0,1,0-3.16-3.16A3.15,3.15,0,0,0,499.62,652.64Z" transform="translate(-333.39 -411.55)" style="fill:#c9c9c9;opacity:0.699999988079071;isolation:isolate"></path><path d="M490.08,522.56H443a1.32,1.32,0,0,1,0-2.64h47.17a1.31,1.31,0,0,1,1.32,1.32A1.38,1.38,0,0,1,490.08,522.56Z" transform="translate(-333.39 -411.55)" style="fill:#fff;opacity:0.699999988079071;isolation:isolate"></path><path d="M480.12,548.38H443a1.32,1.32,0,1,1,0-2.63h37.16a1.32,1.32,0,1,1,0,2.63Z" transform="translate(-333.39 -411.55)" style="fill:#fff;opacity:0.699999988079071;isolation:isolate"></path><path d="M464.36,563H442.69a1.06,1.06,0,0,1,0-2.11h21.67a1.06,1.06,0,0,1,0,2.11Z" transform="translate(-333.39 -411.55)" style="fill:#b2b2b2;opacity:0.699999988079071;isolation:isolate"></path><path d="M480.12,571.94H443a1.32,1.32,0,1,1,0-2.63h37.16a1.32,1.32,0,1,1,0,2.63Z" transform="translate(-333.39 -411.55)" style="fill:#fff;opacity:0.699999988079071;isolation:isolate"></path><path d="M490.77,579.64H443a1.32,1.32,0,0,1,0-2.64h47.81a1.3,1.3,0,0,1,1.31,1.32A1.37,1.37,0,0,1,490.77,579.64Z" transform="translate(-333.39 -411.55)" style="fill:#fff;opacity:0.699999988079071;isolation:isolate"></path><path d="M464.36,634.19H442.69a1.05,1.05,0,1,1,0-2.1h21.67a1.05,1.05,0,1,1,0,2.1Z" transform="translate(-333.39 -411.55)" style="fill:#b2b2b2;opacity:0.699999988079071;isolation:isolate"></path><path d="M480.12,643.1H443a1.32,1.32,0,1,1,0-2.63h37.16a1.32,1.32,0,1,1,0,2.63Z" transform="translate(-333.39 -411.55)" style="fill:#fff;opacity:0.699999988079071;isolation:isolate"></path><path d="M490.77,650.8H443a1.32,1.32,0,0,1,0-2.64h47.81a1.3,1.3,0,0,1,1.31,1.32A1.37,1.37,0,0,1,490.77,650.8Z" transform="translate(-333.39 -411.55)" style="fill:#fff;opacity:0.699999988079071;isolation:isolate"></path><path d="M490.77,685.8H443a1.32,1.32,0,0,1,0-2.64h47.81a1.3,1.3,0,0,1,1.31,1.32A1.37,1.37,0,0,1,490.77,685.8Z" transform="translate(-333.39 -411.55)" style="fill:#fff;opacity:0.699999988079071;isolation:isolate"></path><path d="M498.94,587.28H443a1.32,1.32,0,1,1,0-2.63h56a1.31,1.31,0,0,1,1.32,1.32A1.39,1.39,0,0,1,498.94,587.28Z" transform="translate(-333.39 -411.55)" style="fill:#fff;opacity:0.699999988079071;isolation:isolate"></path><path d="M473,594.93H443a1.32,1.32,0,0,1,0-2.64h30a1.32,1.32,0,0,1,0,2.64Z" transform="translate(-333.39 -411.55)" style="fill:#fff;opacity:0.699999988079071;isolation:isolate"></path><path d="M480.12,602.62H443a1.32,1.32,0,1,1,0-2.63h37.16a1.32,1.32,0,1,1,0,2.63Z" transform="translate(-333.39 -411.55)" style="fill:#fff;opacity:0.699999988079071;isolation:isolate"></path><path d="M489.18,610.26H443a1.32,1.32,0,1,1,0-2.63h46.28a1.3,1.3,0,0,1,1.31,1.32A1.38,1.38,0,0,1,489.18,610.26Z" transform="translate(-333.39 -411.55)" style="fill:#fff;opacity:0.699999988079071;isolation:isolate"></path><path d="M492.77,617.91H443a1.32,1.32,0,0,1,0-2.64h49.81a1.32,1.32,0,0,1,0,2.64Z" transform="translate(-333.39 -411.55)" style="fill:#fff;opacity:0.699999988079071;isolation:isolate"></path></g></g><path d="M590.65,506.06a6,6,0,1,0-6-6A6,6,0,0,0,590.65,506.06Z" transform="translate(-333.39 -411.55)" style="fill:#dadce0"></path><path d="M526.82,578a6,6,0,1,0-6-6A6,6,0,0,0,526.82,578Z" transform="translate(-333.39 -411.55)" style="fill:#fc0"></path><path d="M542.16,576.21a4.22,4.22,0,1,0-4.22-4.21A4.2,4.2,0,0,0,542.16,576.21Z" transform="translate(-333.39 -411.55)" style="fill:#e7e7e7"></path><path d="M605.34,514.6H774.85a9.37,9.37,0,0,1,9.12,9.59V675a9.37,9.37,0,0,1-9.12,9.59H605.34a9.36,9.36,0,0,1-9.12-9.59V524.19A9.33,9.33,0,0,1,605.34,514.6Z" transform="translate(-333.39 -411.55)" style="fill:#fc0"></path><path d="M741.64,574.47H672.75a3.06,3.06,0,0,1,0-6.11h68.84a3.06,3.06,0,0,1,3.06,3.06A3,3,0,0,1,741.64,574.47Z" transform="translate(-333.39 -411.55)" style="fill:#fff;opacity:0.6000000238418579;isolation:isolate"></path><path d="M757.46,562.56H672.75a3.06,3.06,0,0,1,0-6.11H757.4a3.06,3.06,0,0,1,3.06,3.06A3,3,0,0,1,757.46,562.56Z" transform="translate(-333.39 -411.55)" style="fill:#fff;opacity:0.6000000238418579;isolation:isolate"></path><path d="M694.26,548.17H671.33a1.64,1.64,0,0,1,0-3.27h22.93a1.65,1.65,0,0,1,1.63,1.64A1.58,1.58,0,0,1,694.26,548.17Z" transform="translate(-333.39 -411.55)" style="fill:#fff;opacity:0.6000000238418579;isolation:isolate"></path><path d="M621.78,608.75l1.76-3.86h-.43l-2.89-6.71h1.7l2.24,5.41,2.35-5.41h1.65l-4.72,10.57Zm10.43-3.07a3.74,3.74,0,0,1-1.89-.48,3.61,3.61,0,0,1-1.32-1.34,4.11,4.11,0,0,1-.48-2,4,4,0,0,1,.48-2,3.54,3.54,0,0,1,1.35-1.34,3.6,3.6,0,0,1,1.87-.49,3.55,3.55,0,0,1,1.87.49,3.3,3.3,0,0,1,1.33,1.34,3.85,3.85,0,0,1,.5,2,3.91,3.91,0,0,1-.5,2,3.43,3.43,0,0,1-1.33,1.34A3.73,3.73,0,0,1,632.21,605.68Zm0-1.35a2,2,0,0,0,1-.28,2.06,2.06,0,0,0,.78-.82,2.94,2.94,0,0,0,.3-1.39,2.81,2.81,0,0,0-.3-1.37,1.94,1.94,0,0,0-.77-.85,2,2,0,0,0-1-.28,2.17,2.17,0,0,0-1.05.28,2,2,0,0,0-.76.85,2.81,2.81,0,0,0-.3,1.37,2.94,2.94,0,0,0,.3,1.39,2,2,0,0,0,.76.82A2,2,0,0,0,632.21,604.33Zm8.11,1.35a2.73,2.73,0,0,1-2.1-.83,3.56,3.56,0,0,1-.75-2.47v-4.2H639v4q0,2.13,1.74,2.13a1.87,1.87,0,0,0,1.44-.62,2.59,2.59,0,0,0,.56-1.77v-3.78h1.56v7.32h-1.39l-.11-1.29a2.51,2.51,0,0,1-1,1.08A2.84,2.84,0,0,1,640.32,605.68Zm9.72-.18v-7.32h1.39l.12,1.28a2.51,2.51,0,0,1,1-1.06,2.88,2.88,0,0,1,1.52-.4,2.7,2.7,0,0,1,2.09.83,3.5,3.5,0,0,1,.76,2.46v4.21h-1.55v-4c0-1.41-.58-2.12-1.74-2.12a1.88,1.88,0,0,0-1.44.62,2.51,2.51,0,0,0-.57,1.77v3.78Zm12.13.18a3.8,3.8,0,0,1-1.92-.48,3.49,3.49,0,0,1-1.3-1.34,4.09,4.09,0,0,1-.47-2,4.21,4.21,0,0,1,.46-2,3.41,3.41,0,0,1,1.3-1.36,3.76,3.76,0,0,1,1.94-.49,3.49,3.49,0,0,1,1.88.49,3.36,3.36,0,0,1,1.24,1.27,3.58,3.58,0,0,1,.44,1.75c0,.1,0,.21,0,.33s0,.23,0,.37H660a2.31,2.31,0,0,0,.7,1.62,2.19,2.19,0,0,0,1.46.55,2,2,0,0,0,1.11-.3,1.91,1.91,0,0,0,.68-.83h1.56a3.32,3.32,0,0,1-1.18,1.73A3.38,3.38,0,0,1,662.17,605.68Zm0-6.4a2.19,2.19,0,0,0-1.39.48,2,2,0,0,0-.74,1.38h4.14a1.83,1.83,0,0,0-.61-1.35A2,2,0,0,0,662.17,599.28Zm8.62,6.4a3.8,3.8,0,0,1-1.92-.48,3.49,3.49,0,0,1-1.3-1.34,4.09,4.09,0,0,1-.47-2,4.21,4.21,0,0,1,.46-2,3.34,3.34,0,0,1,1.3-1.36,3.76,3.76,0,0,1,1.94-.49,3.49,3.49,0,0,1,1.88.49,3.36,3.36,0,0,1,1.24,1.27,3.58,3.58,0,0,1,.44,1.75c0,.1,0,.21,0,.33s0,.23,0,.37h-5.7a2.27,2.27,0,0,0,.7,1.62,2.19,2.19,0,0,0,1.46.55,2,2,0,0,0,1.11-.3,1.83,1.83,0,0,0,.67-.83h1.57A3.32,3.32,0,0,1,673,605,3.4,3.4,0,0,1,670.79,605.68Zm0-6.4a2.17,2.17,0,0,0-1.39.48,2,2,0,0,0-.74,1.38h4.14a1.86,1.86,0,0,0-.61-1.35A2,2,0,0,0,670.79,599.28Zm8.53,6.4a3.49,3.49,0,0,1-1.88-.51,3.4,3.4,0,0,1-1.26-1.37,4.13,4.13,0,0,1-.46-2,4.05,4.05,0,0,1,.46-2,3.38,3.38,0,0,1,1.26-1.36,3.66,3.66,0,0,1,1.89-.5,3.19,3.19,0,0,1,1.52.34,2.54,2.54,0,0,1,1,1v-4.43h1.56V605.5h-1.4l-.16-1.14a3.35,3.35,0,0,1-1,.92A2.93,2.93,0,0,1,679.32,605.68Zm.28-1.36a2.11,2.11,0,0,0,1.64-.7,2.78,2.78,0,0,0,0-3.57,2.14,2.14,0,0,0-1.64-.69,2.16,2.16,0,0,0-1.65.69,2.45,2.45,0,0,0-.65,1.79,2.77,2.77,0,0,0,.29,1.28,2.32,2.32,0,0,0,.81.89A2.44,2.44,0,0,0,679.6,604.32Zm12.61,1.18a2.59,2.59,0,0,1-1.71-.52,2.34,2.34,0,0,1-.63-1.87v-3.62h-1.26v-1.31h1.26l.19-1.86h1.37v1.86h2.07v1.31h-2.07v3.62a1.13,1.13,0,0,0,.25.84,1.42,1.42,0,0,0,.9.22h.84v1.33Zm6.14.18a3.74,3.74,0,0,1-1.89-.48,3.61,3.61,0,0,1-1.32-1.34,4.11,4.11,0,0,1-.48-2,4,4,0,0,1,.48-2,3.54,3.54,0,0,1,1.35-1.34,3.6,3.6,0,0,1,1.87-.49,3.55,3.55,0,0,1,1.87.49,3.3,3.3,0,0,1,1.33,1.34,3.85,3.85,0,0,1,.5,2,3.91,3.91,0,0,1-.5,2,3.43,3.43,0,0,1-1.33,1.34A3.73,3.73,0,0,1,698.35,605.68Zm0-1.35a2,2,0,0,0,1-.28,2.06,2.06,0,0,0,.78-.82,2.94,2.94,0,0,0,.3-1.39,2.81,2.81,0,0,0-.3-1.37,1.94,1.94,0,0,0-.77-.85,2,2,0,0,0-1-.28,2.17,2.17,0,0,0-1.05.28,2,2,0,0,0-.76.85,2.81,2.81,0,0,0-.3,1.37,2.94,2.94,0,0,0,.3,1.39,2,2,0,0,0,.76.82A2,2,0,0,0,698.35,604.33Zm12,1.35a3.71,3.71,0,0,1-2.29-.68,2.57,2.57,0,0,1-1-1.8h1.58a1.55,1.55,0,0,0,.56.87,1.82,1.82,0,0,0,1.16.35,1.57,1.57,0,0,0,1-.29.93.93,0,0,0,.32-.68.74.74,0,0,0-.46-.76,5.73,5.73,0,0,0-1.24-.36,10.14,10.14,0,0,1-1.24-.36,2.78,2.78,0,0,1-1-.62,1.5,1.5,0,0,1-.4-1.11,2,2,0,0,1,.73-1.59,3.07,3.07,0,0,1,2.07-.65,3.13,3.13,0,0,1,2,.59,2.38,2.38,0,0,1,.9,1.67h-1.51a1.06,1.06,0,0,0-.44-.74,1.56,1.56,0,0,0-1-.26,1.43,1.43,0,0,0-.91.25.71.71,0,0,0-.33.62.68.68,0,0,0,.44.6,6.21,6.21,0,0,0,1.2.4,13.92,13.92,0,0,1,1.36.38,2.48,2.48,0,0,1,1,.62,1.75,1.75,0,0,1,.38,1.21,2,2,0,0,1-.78,1.67A3.22,3.22,0,0,1,710.4,605.68Zm7.33,0a2.73,2.73,0,0,1-2.1-.83,3.56,3.56,0,0,1-.75-2.47v-4.2h1.56v4c0,1.42.58,2.13,1.75,2.13a1.86,1.86,0,0,0,1.43-.62,2.59,2.59,0,0,0,.56-1.77v-3.78h1.56v7.32h-1.38l-.12-1.29a2.51,2.51,0,0,1-1,1.08A2.84,2.84,0,0,1,717.73,605.68Zm6,3.07V598.18h1.4l.17,1.13a3.41,3.41,0,0,1,1-.91,2.88,2.88,0,0,1,1.6-.4,3.41,3.41,0,0,1,3.14,1.88,4.38,4.38,0,0,1,0,4,3.41,3.41,0,0,1-3.16,1.85,3.37,3.37,0,0,1-1.52-.34,2.65,2.65,0,0,1-1-1v4.37Zm3.85-4.43a2.22,2.22,0,0,0,1.66-.68,2.53,2.53,0,0,0,.65-1.8,2.73,2.73,0,0,0-.3-1.29,2.19,2.19,0,0,0-.81-.87,2.24,2.24,0,0,0-1.2-.32,2.17,2.17,0,0,0-1.65.69,2.87,2.87,0,0,0,0,3.59A2.2,2.2,0,0,0,727.58,604.32Zm5.59,4.43V598.18h1.41l.16,1.13a3.41,3.41,0,0,1,1-.91,2.88,2.88,0,0,1,1.6-.4,3.41,3.41,0,0,1,3.14,1.88,4.38,4.38,0,0,1,0,4,3.41,3.41,0,0,1-3.16,1.85,3.37,3.37,0,0,1-1.52-.34,2.65,2.65,0,0,1-1-1v4.37Zm3.86-4.43a2.2,2.2,0,0,0,1.65-.68,2.53,2.53,0,0,0,.65-1.8,2.73,2.73,0,0,0-.3-1.29,2.19,2.19,0,0,0-.81-.87,2.23,2.23,0,0,0-1.19-.32,2.18,2.18,0,0,0-1.66.69,2.87,2.87,0,0,0,0,3.59A2.21,2.21,0,0,0,737,604.32Zm5.58,1.18V594.87h1.57V605.5Zm4.4,3.25,1.76-3.86h-.43l-2.89-6.71h1.7l2.24,5.41,2.35-5.41h1.65l-4.72,10.57Zm-123.6,15.93a3.46,3.46,0,0,1-1.54-.31,2.18,2.18,0,0,1-.9-.82,2.15,2.15,0,0,1-.29-1.12,2,2,0,0,1,.82-1.68,3.9,3.9,0,0,1,2.36-.62h1.92V620a1.68,1.68,0,0,0-.47-1.29,1.71,1.71,0,0,0-1.2-.43,2,2,0,0,0-1.13.33,1.32,1.32,0,0,0-.58.93h-1.56a2.45,2.45,0,0,1,.53-1.36,3,3,0,0,1,1.18-.87,3.91,3.91,0,0,1,1.58-.31,3.32,3.32,0,0,1,2.38.81,2.87,2.87,0,0,1,.84,2.19v4.5H626l-.13-1.26a2.75,2.75,0,0,1-.9,1A2.63,2.63,0,0,1,623.41,624.68Zm.31-1.27a1.81,1.81,0,0,0,1.06-.3,2.14,2.14,0,0,0,.68-.81,3.32,3.32,0,0,0,.31-1.11H624a2.09,2.09,0,0,0-1.33.33,1,1,0,0,0,0,1.61A1.78,1.78,0,0,0,623.72,623.41Zm12.5,1.27a3.45,3.45,0,0,1-1.87-.51,3.5,3.5,0,0,1-1.27-1.37,4.25,4.25,0,0,1-.46-2,4.17,4.17,0,0,1,.46-2,3.47,3.47,0,0,1,1.27-1.36,3.6,3.6,0,0,1,1.89-.5,3.19,3.19,0,0,1,1.52.34,2.52,2.52,0,0,1,1,1v-4.43h1.57V624.5H639l-.17-1.14a3.3,3.3,0,0,1-1,.92A3,3,0,0,1,636.22,624.68Zm.29-1.36a2.09,2.09,0,0,0,1.63-.7,2.78,2.78,0,0,0,0-3.57,2.12,2.12,0,0,0-1.63-.69,2.2,2.2,0,0,0-1.66.69,2.49,2.49,0,0,0-.65,1.79,2.66,2.66,0,0,0,.3,1.28,2.25,2.25,0,0,0,.81.89A2.38,2.38,0,0,0,636.51,623.32Zm6.71-7.53a1.08,1.08,0,0,1-.74-.26.94.94,0,0,1-.28-.7.9.9,0,0,1,.28-.68,1,1,0,0,1,.74-.28,1,1,0,0,1,.72.28.87.87,0,0,1,.29.68.91.91,0,0,1-.29.7A1,1,0,0,1,643.22,615.79Zm-.79,8.71v-7.32H644v7.32Zm6.63-2.25a3.9,3.9,0,0,1-1.06-.13l-.64.62a1.66,1.66,0,0,0,.4.18,4.5,4.5,0,0,0,.66.13q.44.06,1.17.12a3.64,3.64,0,0,1,2.11.71,1.88,1.88,0,0,1,.65,1.5,2.34,2.34,0,0,1-.35,1.23,2.39,2.39,0,0,1-1.08.94,4,4,0,0,1-1.86.37,4.67,4.67,0,0,1-2.5-.59,1.91,1.91,0,0,1-.94-1.75,2,2,0,0,1,.24-.92,2.75,2.75,0,0,1,.78-.84,4,4,0,0,1-.55-.28,4.69,4.69,0,0,1-.4-.33v-.35l1.27-1.3a2.43,2.43,0,0,1-.85-1.93,2.6,2.6,0,0,1,.34-1.32,2.44,2.44,0,0,1,1-.95,3.34,3.34,0,0,1,1.6-.36,3.55,3.55,0,0,1,1.15.18h2.73v1l-1.3.07a2.62,2.62,0,0,1,.36,1.35,2.52,2.52,0,0,1-1.36,2.27A3.24,3.24,0,0,1,649.06,622.25Zm0-1.22a1.64,1.64,0,0,0,1.09-.35,1.29,1.29,0,0,0,.43-1,1.25,1.25,0,0,0-.43-1,1.59,1.59,0,0,0-1.09-.35,1.67,1.67,0,0,0-1.12.35,1.28,1.28,0,0,0-.42,1,1.31,1.31,0,0,0,.42,1A1.72,1.72,0,0,0,649.06,621Zm-2,4.4a1,1,0,0,0,.56.94,2.71,2.71,0,0,0,1.4.33,2.19,2.19,0,0,0,1.31-.36,1,1,0,0,0,.5-.91,1,1,0,0,0-.34-.74,2.26,2.26,0,0,0-1.28-.37c-.47,0-.89-.07-1.25-.13a1.83,1.83,0,0,0-.71.6A1.24,1.24,0,0,0,647.1,625.43Zm8.12-9.64a1.11,1.11,0,0,1-.74-.26,1,1,0,0,1-.28-.7.94.94,0,0,1,.28-.68,1.08,1.08,0,0,1,.74-.28,1,1,0,0,1,.72.28.88.88,0,0,1,.3.68.92.92,0,0,1-.3.7A1,1,0,0,1,655.22,615.79Zm-.78,8.71v-7.32H656v7.32Zm6.7,0a2.59,2.59,0,0,1-1.71-.52,2.31,2.31,0,0,1-.64-1.87v-3.62h-1.25v-1.31h1.25l.19-1.86h1.38v1.86h2.06v1.31h-2.06v3.62a1.13,1.13,0,0,0,.25.84,1.38,1.38,0,0,0,.9.22h.84v1.33Zm5.37.18a3.41,3.41,0,0,1-1.53-.31,2.11,2.11,0,0,1-1.2-1.94,2,2,0,0,1,.83-1.68,3.9,3.9,0,0,1,2.36-.62h1.92V620a1.68,1.68,0,0,0-.47-1.29,1.73,1.73,0,0,0-1.2-.43,2,2,0,0,0-1.13.33,1.32,1.32,0,0,0-.58.93H664a2.45,2.45,0,0,1,.53-1.36,3,3,0,0,1,1.18-.87,3.91,3.91,0,0,1,1.58-.31,3.28,3.28,0,0,1,2.37.81,2.88,2.88,0,0,1,.85,2.19v4.5H669.1l-.14-1.26a2.58,2.58,0,0,1-2.45,1.44Zm.31-1.27a1.82,1.82,0,0,0,1.07-.3,2.14,2.14,0,0,0,.68-.81,3.32,3.32,0,0,0,.31-1.11h-1.75a2.06,2.06,0,0,0-1.32.33,1,1,0,0,0,0,1.61A1.77,1.77,0,0,0,666.82,623.41Zm5.46,1.09V613.87h1.56V624.5Zm7.26,3.25V617.18H681l.16,1.13a3.41,3.41,0,0,1,1-.91,2.88,2.88,0,0,1,1.6-.4,3.41,3.41,0,0,1,3.14,1.88,4.38,4.38,0,0,1,0,4,3.41,3.41,0,0,1-3.16,1.85,3.37,3.37,0,0,1-1.52-.34,2.65,2.65,0,0,1-1-1v4.37Zm3.86-4.43a2.2,2.2,0,0,0,1.65-.68,2.53,2.53,0,0,0,.65-1.8,2.73,2.73,0,0,0-.3-1.29,2.13,2.13,0,0,0-.81-.87,2.23,2.23,0,0,0-1.19-.32,2.2,2.2,0,0,0-1.66.69,2.87,2.87,0,0,0,0,3.59A2.22,2.22,0,0,0,683.4,623.32Zm9,1.36a3.74,3.74,0,0,1-1.89-.48,3.61,3.61,0,0,1-1.32-1.34,4.11,4.11,0,0,1-.48-2,4,4,0,0,1,.48-2,3.54,3.54,0,0,1,1.35-1.34,3.83,3.83,0,0,1,3.75,0,3.34,3.34,0,0,1,1.32,1.34,3.85,3.85,0,0,1,.51,2,3.91,3.91,0,0,1-.51,2,3.47,3.47,0,0,1-1.32,1.34A3.74,3.74,0,0,1,692.41,624.68Zm0-1.35a2,2,0,0,0,1.81-1.1,2.94,2.94,0,0,0,.3-1.39,2.81,2.81,0,0,0-.3-1.37,1.92,1.92,0,0,0-.76-.85,2.08,2.08,0,0,0-1-.28,2.17,2.17,0,0,0-1,.28,2,2,0,0,0-.76.85,2.81,2.81,0,0,0-.3,1.37,2.94,2.94,0,0,0,.3,1.39,2,2,0,0,0,.76.82A2,2,0,0,0,692.41,623.33Zm5.41,1.17v-7.32h1.4l.13,1.39a2.8,2.8,0,0,1,1.07-1.14,3,3,0,0,1,1.66-.43v1.64h-.42a2.87,2.87,0,0,0-1.17.22,1.7,1.7,0,0,0-.81.72,2.79,2.79,0,0,0-.3,1.41v3.51Zm8.67,0a2.62,2.62,0,0,1-1.71-.52,2.34,2.34,0,0,1-.63-1.87v-3.62h-1.26v-1.31h1.26l.19-1.86h1.37v1.86h2.07v1.31h-2.07v3.62a1.17,1.17,0,0,0,.25.84,1.42,1.42,0,0,0,.9.22h.85v1.33Zm3.27,0v-6h-1v-1.31h1v-1.06a2.21,2.21,0,0,1,.59-1.72,2.51,2.51,0,0,1,1.7-.53h.77v1.33h-.54a1,1,0,0,0-.73.22.94.94,0,0,0-.22.71v1H713v1.31h-1.68v6Zm7.87.18a3.74,3.74,0,0,1-1.89-.48,3.51,3.51,0,0,1-1.31-1.34,4,4,0,0,1-.49-2,3.94,3.94,0,0,1,.49-2,3.45,3.45,0,0,1,1.34-1.34,3.63,3.63,0,0,1,1.87-.49,3.59,3.59,0,0,1,1.88.49,3.43,3.43,0,0,1,1.33,1.34,3.94,3.94,0,0,1,.5,2,4,4,0,0,1-.5,2,3.56,3.56,0,0,1-1.33,1.34A3.74,3.74,0,0,1,717.63,624.68Zm0-1.35a1.94,1.94,0,0,0,1-.28,2,2,0,0,0,.79-.82,3.07,3.07,0,0,0,.29-1.39,2.93,2.93,0,0,0-.29-1.37,2,2,0,0,0-.77-.85,2.08,2.08,0,0,0-1-.28,2.1,2.1,0,0,0-1,.28,2.06,2.06,0,0,0-.77.85,2.81,2.81,0,0,0-.3,1.37,2.94,2.94,0,0,0,.3,1.39,2,2,0,0,0,.77.82A1.94,1.94,0,0,0,717.63,623.33ZM723,624.5V613.87h1.57V624.5Zm4.43-8.71a1.11,1.11,0,0,1-.74-.26,1,1,0,0,1-.28-.7.94.94,0,0,1,.28-.68,1.08,1.08,0,0,1,.74-.28,1,1,0,0,1,.73.28.91.91,0,0,1,.29.68,1,1,0,0,1-.29.7A1.05,1.05,0,0,1,727.47,615.79Zm-.78,8.71v-7.32h1.56v7.32Zm7,.18a3.77,3.77,0,0,1-1.89-.48,3.59,3.59,0,0,1-1.31-1.34,4.11,4.11,0,0,1-.49-2,4,4,0,0,1,.49-2,3.52,3.52,0,0,1,1.34-1.34,3.64,3.64,0,0,1,1.88-.49,3.55,3.55,0,0,1,1.87.49,3.36,3.36,0,0,1,1.33,1.34,3.85,3.85,0,0,1,.5,2,3.91,3.91,0,0,1-.5,2,3.49,3.49,0,0,1-1.33,1.34A3.74,3.74,0,0,1,733.74,624.68Zm0-1.35a2,2,0,0,0,1-.28,2.06,2.06,0,0,0,.78-.82,3,3,0,0,0,.29-1.39,2.81,2.81,0,0,0-.29-1.37,1.94,1.94,0,0,0-.77-.85,2,2,0,0,0-1-.28,2,2,0,0,0-1.82,1.13,2.93,2.93,0,0,0-.29,1.37,3.07,3.07,0,0,0,.29,1.39,2.11,2.11,0,0,0,.77.82A2,2,0,0,0,733.74,623.33ZM621.3,643.5v-6h-1v-1.31h1v-1.06a2.17,2.17,0,0,1,.59-1.72,2.5,2.5,0,0,1,1.69-.53h.77v1.33h-.53a1,1,0,0,0-.74.22.94.94,0,0,0-.22.71v1h1.68v1.31h-1.68v6Zm7.86.18a3.73,3.73,0,0,1-1.88-.48,3.54,3.54,0,0,1-1.32-1.34,4.11,4.11,0,0,1-.49-2,4,4,0,0,1,.49-2,3.52,3.52,0,0,1,1.34-1.34,3.66,3.66,0,0,1,1.88-.49,3.55,3.55,0,0,1,1.87.49,3.36,3.36,0,0,1,1.33,1.34,3.85,3.85,0,0,1,.5,2,3.91,3.91,0,0,1-.5,2,3.49,3.49,0,0,1-1.33,1.34A3.74,3.74,0,0,1,629.16,643.68Zm0-1.35a2,2,0,0,0,1-.28,2.06,2.06,0,0,0,.78-.82,2.94,2.94,0,0,0,.3-1.39,2.81,2.81,0,0,0-.3-1.37,1.94,1.94,0,0,0-.77-.85,2,2,0,0,0-1-.28,2.17,2.17,0,0,0-1,.28,2.13,2.13,0,0,0-.77.85,2.93,2.93,0,0,0-.29,1.37,3.07,3.07,0,0,0,.29,1.39,2.11,2.11,0,0,0,.77.82A2,2,0,0,0,629.16,642.33Zm5.42,1.17v-7.32H636l.13,1.39a2.85,2.85,0,0,1,1.06-1.14,3.1,3.1,0,0,1,1.67-.43v1.64h-.43a2.86,2.86,0,0,0-1.16.22,1.66,1.66,0,0,0-.81.72,2.79,2.79,0,0,0-.3,1.41v3.51Zm12.39,0a2.59,2.59,0,0,1-1.71-.52,2.34,2.34,0,0,1-.64-1.87v-3.62h-1.25v-1.31h1.25l.2-1.86h1.37v1.86h2.06v1.31h-2.06v3.62a1.13,1.13,0,0,0,.25.84,1.42,1.42,0,0,0,.9.22h.84v1.33Zm2.9,0V632.87h1.56v4.49a2.69,2.69,0,0,1,1-1,2.91,2.91,0,0,1,1.46-.37,2.66,2.66,0,0,1,2.07.83,3.55,3.55,0,0,1,.75,2.46v4.21h-1.55v-4c0-1.41-.57-2.12-1.7-2.12A2,2,0,0,0,652,638a2.47,2.47,0,0,0-.58,1.77v3.78Zm9.59-8.71a1.09,1.09,0,0,1-.74-.26.94.94,0,0,1-.28-.7.9.9,0,0,1,.28-.68,1.06,1.06,0,0,1,.74-.28,1,1,0,0,1,.72.28.88.88,0,0,1,.3.68.92.92,0,0,1-.3.7A1,1,0,0,1,659.46,634.79Zm-.78,8.71v-7.32h1.56v7.32Zm6.55.18a3.71,3.71,0,0,1-2.29-.68,2.57,2.57,0,0,1-1-1.8h1.58a1.6,1.6,0,0,0,.56.87,1.82,1.82,0,0,0,1.16.35,1.56,1.56,0,0,0,1-.29.93.93,0,0,0,.32-.68.74.74,0,0,0-.46-.76,5.73,5.73,0,0,0-1.24-.36,10.14,10.14,0,0,1-1.24-.36,2.78,2.78,0,0,1-1-.62,1.5,1.5,0,0,1-.4-1.11,2,2,0,0,1,.73-1.59A3.07,3.07,0,0,1,665,636a3.13,3.13,0,0,1,2,.59,2.38,2.38,0,0,1,.9,1.67h-1.51a1.06,1.06,0,0,0-.44-.74,1.54,1.54,0,0,0-1-.26,1.43,1.43,0,0,0-.91.25.71.71,0,0,0-.33.62.68.68,0,0,0,.44.6,6.21,6.21,0,0,0,1.2.4,13.92,13.92,0,0,1,1.36.38,2.48,2.48,0,0,1,1,.62,1.75,1.75,0,0,1,.38,1.21,2,2,0,0,1-.78,1.67A3.22,3.22,0,0,1,665.23,643.68Zm11.81,0a3.9,3.9,0,0,1-1.93-.49,3.64,3.64,0,0,1-1.33-1.34,4.23,4.23,0,0,1-.47-2,4.09,4.09,0,0,1,.47-2,3.55,3.55,0,0,1,1.33-1.36A3.8,3.8,0,0,1,677,636a3.63,3.63,0,0,1,2.28.71,3.13,3.13,0,0,1,1.19,1.92h-1.64a1.52,1.52,0,0,0-.64-1,2.13,2.13,0,0,0-1.19-.34,2,2,0,0,0-1.06.3,2.12,2.12,0,0,0-.78.84,2.79,2.79,0,0,0-.3,1.36,2.86,2.86,0,0,0,.3,1.37,2.19,2.19,0,0,0,.78.84,2,2,0,0,0,1.06.3,2.13,2.13,0,0,0,1.19-.34,1.54,1.54,0,0,0,.64-1h1.64a3.11,3.11,0,0,1-1.18,1.9A3.63,3.63,0,0,1,677,643.68Zm8.59,0a3.79,3.79,0,0,1-1.89-.48,3.59,3.59,0,0,1-1.31-1.34,4.11,4.11,0,0,1-.49-2,4,4,0,0,1,.49-2,3.52,3.52,0,0,1,1.34-1.34,3.64,3.64,0,0,1,1.88-.49,3.55,3.55,0,0,1,1.87.49,3.36,3.36,0,0,1,1.33,1.34,3.85,3.85,0,0,1,.5,2,3.91,3.91,0,0,1-.5,2,3.49,3.49,0,0,1-1.33,1.34A3.74,3.74,0,0,1,685.63,643.68Zm0-1.35a2,2,0,0,0,1-.28,2.06,2.06,0,0,0,.78-.82,3,3,0,0,0,.29-1.39,2.81,2.81,0,0,0-.29-1.37,1.94,1.94,0,0,0-.77-.85,2,2,0,0,0-1-.28,2,2,0,0,0-1.82,1.13,2.93,2.93,0,0,0-.29,1.37,3.07,3.07,0,0,0,.29,1.39,2.11,2.11,0,0,0,.77.82A2,2,0,0,0,685.63,642.33Zm8.12,1.35a2.73,2.73,0,0,1-2.1-.83,3.56,3.56,0,0,1-.75-2.47v-4.2h1.56v4q0,2.13,1.74,2.13a1.85,1.85,0,0,0,1.43-.62,2.55,2.55,0,0,0,.57-1.77v-3.78h1.56v7.32h-1.39l-.12-1.29a2.48,2.48,0,0,1-1,1.08A2.84,2.84,0,0,1,693.75,643.68Zm6-.18v-7.32h1.4l.13,1.39a2.8,2.8,0,0,1,1.07-1.14A3.07,3.07,0,0,1,704,636v1.64h-.43a2.91,2.91,0,0,0-1.17.22,1.75,1.75,0,0,0-.81.72,2.79,2.79,0,0,0-.3,1.41v3.51Zm8.53.18A3.71,3.71,0,0,1,706,643a2.57,2.57,0,0,1-1-1.8h1.58a1.6,1.6,0,0,0,.56.87,1.82,1.82,0,0,0,1.16.35,1.56,1.56,0,0,0,1-.29.93.93,0,0,0,.32-.68.74.74,0,0,0-.46-.76,5.56,5.56,0,0,0-1.24-.36,10.14,10.14,0,0,1-1.24-.36,2.78,2.78,0,0,1-1-.62,1.5,1.5,0,0,1-.4-1.11,2,2,0,0,1,.74-1.59,3,3,0,0,1,2.06-.65,3.13,3.13,0,0,1,2,.59,2.38,2.38,0,0,1,.9,1.67h-1.51a1,1,0,0,0-.44-.74,1.52,1.52,0,0,0-1-.26,1.43,1.43,0,0,0-.91.25.71.71,0,0,0-.33.62.68.68,0,0,0,.45.6,5.86,5.86,0,0,0,1.19.4,13.17,13.17,0,0,1,1.36.38,2.48,2.48,0,0,1,1,.62,1.75,1.75,0,0,1,.38,1.21,2,2,0,0,1-.78,1.67A3.22,3.22,0,0,1,708.28,643.68Zm8.05,0a3.8,3.8,0,0,1-1.92-.48,3.4,3.4,0,0,1-1.29-1.34,4,4,0,0,1-.48-2,4.33,4.33,0,0,1,.46-2,3.48,3.48,0,0,1,1.3-1.36,3.77,3.77,0,0,1,2-.49,3.45,3.45,0,0,1,1.87.49,3.29,3.29,0,0,1,1.24,1.27,3.47,3.47,0,0,1,.44,1.75c0,.1,0,.21,0,.33s0,.23,0,.37h-5.69a2.3,2.3,0,0,0,.69,1.62,2.19,2.19,0,0,0,1.46.55,1.93,1.93,0,0,0,1.11-.3,1.91,1.91,0,0,0,.68-.83h1.56A3.26,3.26,0,0,1,718.5,643,3.38,3.38,0,0,1,716.33,643.68Zm0-6.4a2.15,2.15,0,0,0-1.38.48,2,2,0,0,0-.74,1.38h4.13a1.83,1.83,0,0,0-.61-1.35A2,2,0,0,0,716.33,637.28Z" transform="translate(-333.39 -411.55)" style="fill:#293b4a"></path><path d="M618.73,666.55H760.88" transform="translate(-333.39 -411.55)" style="fill:none;stroke:#fff;stroke-miterlimit:10;stroke-width:0.5270940065383911px"></path><path d="M618.73,666.55h51.12" transform="translate(-333.39 -411.55)" style="fill:none;stroke:#fff;stroke-miterlimit:10;stroke-width:1.0541900396347046px"></path><path d="M634.17,556.61a10.39,10.39,0,1,0-10.38-10.39A10.39,10.39,0,0,0,634.17,556.61Z" transform="translate(-333.39 -411.55)" style="fill:none;stroke:#fff;stroke-miterlimit:10;stroke-width:1.0541900396347046px"></path><path d="M625.58,554.87,619.41,561" transform="translate(-333.39 -411.55)" style="fill:none;stroke:#fff;stroke-miterlimit:10;stroke-width:1.0541900396347046px"></path><path d="M656.15,579.38H627.9V558.61" transform="translate(-333.39 -411.55)" style="fill:none;stroke:#fff;stroke-miterlimit:10;stroke-width:1.0541900396347046px"></path><path d="M647,541.11h9.17V575.9" transform="translate(-333.39 -411.55)" style="fill:none;stroke:#fff;stroke-miterlimit:10;stroke-width:1.0541900396347046px"></path><path d="M633.17,560.56h17.66" transform="translate(-333.39 -411.55)" style="fill:none;stroke:#fff;stroke-miterlimit:10;stroke-width:1.0541900396347046px"></path><path d="M633.17,564.72h17.66" transform="translate(-333.39 -411.55)" style="fill:none;stroke:#fff;stroke-miterlimit:10;stroke-width:1.0541900396347046px"></path><path d="M633.17,568.83h17.66" transform="translate(-333.39 -411.55)" style="fill:none;stroke:#fff;stroke-miterlimit:10;stroke-width:1.0541900396347046px"></path><path d="M647,546.38h3.85" transform="translate(-333.39 -411.55)" style="fill:none;stroke:#fff;stroke-miterlimit:10;stroke-width:1.0541900396347046px"></path><path d="M647,550.07h3.85" transform="translate(-333.39 -411.55)" style="fill:none;stroke:#fff;stroke-miterlimit:10;stroke-width:1.0541900396347046px"></path><path d="M633.17,573.58h5.53" transform="translate(-333.39 -411.55)" style="fill:none;stroke:#fff;stroke-miterlimit:10;stroke-width:1.0541900396347046px"></path><path d="M638.7,548.59a7.39,7.39,0,0,1-4.53,1.48,7.19,7.19,0,0,1-6.38-3.85,7.3,7.3,0,0,1,6.38-3.85,7.2,7.2,0,0,1,6.38,3.85" transform="translate(-333.39 -411.55)" style="fill:none;stroke:#fff;stroke-miterlimit:10;stroke-width:1.0541900396347046px"></path><path d="M632.64,546.22a1.53,1.53,0,0,1,3.06,0,1.57,1.57,0,0,1-1.53,1.58,1.6,1.6,0,0,1-1-.37.46.46,0,0,1-.21-.26" transform="translate(-333.39 -411.55)" style="fill:none;stroke:#fff;stroke-miterlimit:10;stroke-width:1.0541900396347046px"></path></svg>