<svg xmlns="http://www.w3.org/2000/svg" id="Layer_1" data-name="Layer 1" viewBox="0 0 1657.33 327.52"><path d="M382,232.2A21.2,21.2,0,1,0,360.7,211,21.23,21.23,0,0,0,382,232.2Z" transform="translate(0.67 0.67)" style="fill:#19ad4a"></path><path d="M377.54,180.6a21.21,21.21,0,1,0-21.27-21.22A21.25,21.25,0,0,0,377.54,180.6Z" transform="translate(0.67 0.67)" style="fill:#19ad4a"></path><path d="M561.53,238.35a21.21,21.21,0,1,0-21.27-21.21A21.23,21.23,0,0,0,561.53,238.35Z" transform="translate(0.67 0.67)" style="fill:none;stroke:#19ad4a;stroke-miterlimit:10"></path><path d="M412.07,140.72a21.2,21.2,0,1,0-21.27-21.2A21.24,21.24,0,0,0,412.07,140.72Z" transform="translate(0.67 0.67)" style="fill:none;stroke:#19ad4a;stroke-miterlimit:10"></path><path d="M1133.29,188.36a21.21,21.21,0,1,0-21.27-21.2A21.23,21.23,0,0,0,1133.29,188.36Z" transform="translate(0.67 0.67)" style="fill:none;stroke:#19ad4a;stroke-miterlimit:10"></path><path d="M1323.36,117.61a21.27,21.27,0,1,0-23.65,18.52A21.2,21.2,0,0,0,1323.36,117.61Z" transform="translate(0.67 0.67)" style="fill:none;stroke:#19ad4a;stroke-miterlimit:10"></path><path d="M573.23,190.54A21.21,21.21,0,1,0,552,169.34,21.23,21.23,0,0,0,573.23,190.54Z" transform="translate(0.67 0.67)" style="fill:#19ad4a"></path><path d="M837.82,190.54a21.21,21.21,0,1,0-21.27-21.2A21.23,21.23,0,0,0,837.82,190.54Z" transform="translate(0.67 0.67)" style="fill:#19ad4a"></path><path d="M544.41,143.13a21.21,21.21,0,1,0-21.27-21.2A21.24,21.24,0,0,0,544.41,143.13Z" transform="translate(0.67 0.67)" style="fill:#19ad4a"></path><path d="M1395.53,142.61a21.24,21.24,0,1,0-30.08,0A21.15,21.15,0,0,0,1395.53,142.61Z" transform="translate(0.67 0.67)" style="fill:#19ad4a"></path><path d="M287,216.41a21.24,21.24,0,1,0-30.08,0A21.17,21.17,0,0,0,287,216.41Z" transform="translate(0.67 0.67)" style="fill:#19ad4a"></path><path d="M1161.75,146.86a21.21,21.21,0,1,0-21.27-21.21A21.25,21.25,0,0,0,1161.75,146.86Z" transform="translate(0.67 0.67)" style="fill:#19ad4a"></path><path d="M1183,195.54a21.21,21.21,0,1,0-21.27-21.21A21.24,21.24,0,0,0,1183,195.54Z" transform="translate(0.67 0.67)" style="fill:#19ad4a"></path><path d="M1166.14,262.34a21.21,21.21,0,1,0-21.27-21.21A21.23,21.23,0,0,0,1166.14,262.34Z" transform="translate(0.67 0.67)" style="fill:#19ad4a"></path><path d="M1395.79,250.46a21.2,21.2,0,1,0-21.27-21.19A21.24,21.24,0,0,0,1395.79,250.46Z" transform="translate(0.67 0.67)" style="fill:#19ad4a"></path><path d="M1462,196.85a21.21,21.21,0,1,0-21.27-21.22A21.25,21.25,0,0,0,1462,196.85Z" transform="translate(0.67 0.67)" style="fill:none;stroke:#19ad4a;stroke-miterlimit:10"></path><path d="M846.32,130.33a21.21,21.21,0,1,0-21.27-21.22A21.24,21.24,0,0,0,846.32,130.33Z" transform="translate(0.67 0.67)" style="fill:none;stroke:#19ad4a;stroke-miterlimit:10"></path><path d="M671.2,309.45a21.2,21.2,0,1,0-21.27-21.21A21.24,21.24,0,0,0,671.2,309.45Z" transform="translate(0.67 0.67)" style="fill:#19ad4a"></path><path d="M969,166.87a21.21,21.21,0,1,0-21.27-21.2A21.23,21.23,0,0,0,969,166.87Z" transform="translate(0.67 0.67)" style="fill:#19ad4a"></path><path d="M891.41,92.79a21.21,21.21,0,1,0-21.27-21.2A21.24,21.24,0,0,0,891.41,92.79Z" transform="translate(0.67 0.67)" style="fill:#19ad4a"></path><path d="M977.26,326.85A21.21,21.21,0,1,0,956,305.64,21.23,21.23,0,0,0,977.26,326.85Z" transform="translate(0.67 0.67)" style="fill:#19ad4a"></path><path d="M1058.89,88.78a21.21,21.21,0,1,0-21.27-21.2A21.23,21.23,0,0,0,1058.89,88.78Z" transform="translate(0.67 0.67)" style="fill:#19ad4a"></path><path d="M1113.05,86.32a21.21,21.21,0,1,0-21.27-21.21A21.23,21.23,0,0,0,1113.05,86.32Z" transform="translate(0.67 0.67)" style="fill:#19ad4a"></path><path d="M1083.08,42.23A21.2,21.2,0,1,0,1061.81,21,21.24,21.24,0,0,0,1083.08,42.23Z" transform="translate(0.67 0.67)" style="fill:none;stroke:#19ad4a;stroke-miterlimit:10"></path><path d="M729.22,42.15A21.21,21.21,0,1,0,708,20.94,21.24,21.24,0,0,0,729.22,42.15Z" transform="translate(0.67 0.67)" style="fill:#19ad4a"></path><path d="M149.74,235.93S215,303.36,271.89,201.42" transform="translate(0.67 0.67)" style="fill:none;stroke:#19ad4a;stroke-miterlimit:10"></path><path d="M729.22,20.94c0,77.42,60,88.17,95.87,88.17" transform="translate(0.67 0.67)" style="fill:none;stroke:#19ad4a;stroke-miterlimit:10"></path><path d="M1061.89,19.18c-114.15-38-354.43,5.28-390.69,269.06" transform="translate(0.67 0.67)" style="fill:none;stroke:#19ad4a;stroke-miterlimit:10"></path><path d="M398.81,103C308.72,21,73.24,28.68-.22,182.18" transform="translate(0.67 0.67)" style="fill:none;stroke:#19ad4a;stroke-miterlimit:10"></path><path d="M837.82,169.34s-105,97.75-257,56.69" transform="translate(0.67 0.67)" style="fill:none;stroke:#19ad4a;stroke-miterlimit:10"></path><path d="M1656.19,129.8c-38-111.93-250.18-141.32-345.77-35.18" transform="translate(0.67 0.67)" style="fill:none;stroke:#19ad4a;stroke-miterlimit:10"></path><path d="M977.26,305.64S980.75,187,1112,167.12" transform="translate(0.67 0.67)" style="fill:none;stroke:#19ad4a;stroke-miterlimit:10"></path><path d="M401.27,202.12l34.29-13.88" transform="translate(0.67 0.67)" style="fill:none;stroke:#19ad4a;stroke-miterlimit:10"></path><path d="M398.68,161.67l36.88,7.67" transform="translate(0.67 0.67)" style="fill:none;stroke:#19ad4a;stroke-miterlimit:10"></path><path d="M424.31,136.84l11.25,12.24" transform="translate(0.67 0.67)" style="fill:none;stroke:#19ad4a;stroke-miterlimit:10"></path><path d="M544.41,121.93,510,159.38" transform="translate(0.67 0.67)" style="fill:none;stroke:#19ad4a;stroke-miterlimit:10"></path><path d="M573.23,169.34,510,170.68" transform="translate(0.67 0.67)" style="fill:none;stroke:#19ad4a;stroke-miterlimit:10"></path><path d="M542.27,208.1,510,184.92" transform="translate(0.67 0.67)" style="fill:none;stroke:#19ad4a;stroke-miterlimit:10"></path><path d="M466,145v5l6.74,3.52,6.73-3.52V146.9" transform="translate(0.67 0.67)" style="fill:none;stroke:#293b4a;stroke-miterlimit:10"></path><path d="M466,150v5" transform="translate(0.67 0.67)" style="fill:none;stroke:#293b4a;stroke-miterlimit:10"></path><path d="M472.76,148.54l-9.69-5,9.69-5.09,9.73,5.09Z" transform="translate(0.67 0.67)" style="fill:none;stroke:#293b4a;stroke-miterlimit:10"></path><path d="M473.29,148.26h-1.07" transform="translate(0.67 0.67)" style="fill:none;stroke:#293b4a;stroke-miterlimit:10"></path><path d="M440.32,198.88h67.87a1.81,1.81,0,0,0,1.81-1.79v-47a1.82,1.82,0,0,0-1.81-1.8H490.74" transform="translate(0.67 0.67)" style="fill:none;stroke:#293b4a;stroke-miterlimit:10"></path><path d="M454.81,148.26H440.32" transform="translate(0.67 0.67)" style="fill:none;stroke:#293b4a;stroke-miterlimit:10"></path><path d="M443,198.88h-6.61a.82.82,0,0,1-.82-.81v-49a.82.82,0,0,1,.82-.82H443" transform="translate(0.67 0.67)" style="fill:none;stroke:#293b4a;stroke-miterlimit:10"></path><path d="M459.91,159.35v39.53H443V148.26h11.78" transform="translate(0.67 0.67)" style="fill:none;stroke:#293b4a;stroke-miterlimit:10"></path><path d="M466.76,169.94h4.35a2,2,0,0,1,2,2v3.23a2,2,0,0,1-2,2h-4.35a2,2,0,0,1-2-2V172" transform="translate(0.67 0.67)" style="fill:none;stroke:#293b4a;stroke-miterlimit:10"></path><path d="M483.23,177.19h-4.36a2,2,0,0,1-2-2V172a2,2,0,0,1,2-2h4.36a2,2,0,0,1,2,2v3.23" transform="translate(0.67 0.67)" style="fill:none;stroke:#293b4a;stroke-miterlimit:10"></path><path d="M497.6,172v3.23a2,2,0,0,1-2,2h-4.36a2,2,0,0,1-2-2V172a2,2,0,0,1,2-2h4.36" transform="translate(0.67 0.67)" style="fill:none;stroke:#293b4a;stroke-miterlimit:10"></path><path d="M505.19,155.3h-6.77a.83.83,0,0,1-.82-.83V152.6a.82.82,0,0,1,.82-.82h6.77a.82.82,0,0,1,.83.82v1.87A.83.83,0,0,1,505.19,155.3Z" transform="translate(0.67 0.67)" style="fill:none;stroke:#293b4a;stroke-miterlimit:10"></path><path d="M464.34,183.34v-1.16a1.2,1.2,0,0,1,1.19-1.19h38.88a1.2,1.2,0,0,1,1.19,1.19v1.16a1.2,1.2,0,0,1-1.19,1.19H467.05" transform="translate(0.67 0.67)" style="fill:none;stroke:#293b4a;stroke-miterlimit:10"></path><path d="M505.56,189.43v1.15a1.19,1.19,0,0,1-1.19,1.19H465.49a1.19,1.19,0,0,1-1.19-1.19v-1.15a1.19,1.19,0,0,1,1.19-1.19h36.67" transform="translate(0.67 0.67)" style="fill:none;stroke:#293b4a;stroke-miterlimit:10"></path><path d="M445.94,170.68h7.81" transform="translate(0.67 0.67)" style="fill:none;stroke:#293b4a;stroke-miterlimit:10"></path><path d="M445.94,175.18h7.81" transform="translate(0.67 0.67)" style="fill:none;stroke:#293b4a;stroke-miterlimit:10"></path><path d="M445.94,177.77H457.2" transform="translate(0.67 0.67)" style="fill:none;stroke:#293b4a;stroke-miterlimit:10"></path><path d="M445.94,184.92H457.2" transform="translate(0.67 0.67)" style="fill:none;stroke:#293b4a;stroke-miterlimit:10"></path><path d="M445.94,187.6H457.2" transform="translate(0.67 0.67)" style="fill:none;stroke:#293b4a;stroke-miterlimit:10"></path><path d="M472.76,164.7a18,18,0,1,0-18-18A18,18,0,0,0,472.76,164.7Z" transform="translate(0.67 0.67)" style="fill:none;stroke:#293b4a;stroke-miterlimit:10"></path><path d="M1374.52,140.32l-13.92,22.09" transform="translate(0.67 0.67)" style="fill:none;stroke:#19ad4a;stroke-miterlimit:10"></path><path d="M1440.75,175.63h-66.23" transform="translate(0.67 0.67)" style="fill:none;stroke:#19ad4a;stroke-miterlimit:10"></path><path d="M1395.79,229.27l-26.16-34.43" transform="translate(0.67 0.67)" style="fill:none;stroke:#19ad4a;stroke-miterlimit:10"></path><path d="M891.41,71.59v50.58" transform="translate(0.67 0.67)" style="fill:none;stroke:#19ad4a;stroke-miterlimit:10"></path><path d="M859.09,126.07l19.67,15.51" transform="translate(0.67 0.67)" style="fill:none;stroke:#19ad4a;stroke-miterlimit:10"></path><path d="M853.67,165.4l25.09-6.22" transform="translate(0.67 0.67)" style="fill:none;stroke:#19ad4a;stroke-miterlimit:10"></path><path d="M963.06,145.67H920.48" transform="translate(0.67 0.67)" style="fill:none;stroke:#19ad4a;stroke-miterlimit:10"></path><path d="M910.25,158,933,172.86" transform="translate(0.67 0.67)" style="fill:none;stroke:#293b4a;stroke-miterlimit:10"></path><path d="M920.48,159.18v-19" transform="translate(0.67 0.67)" style="fill:none;stroke:#293b4a;stroke-miterlimit:10"></path><path d="M902.45,121.85H878.76" transform="translate(0.67 0.67)" style="fill:none;stroke:#293b4a;stroke-miterlimit:10"></path><path d="M920.48,164.66v11H878.76v-48" transform="translate(0.67 0.67)" style="fill:none;stroke:#293b4a;stroke-miterlimit:10"></path><path d="M884.84,145.67h29.89" transform="translate(0.67 0.67)" style="fill:none;stroke:#293b4a;stroke-miterlimit:10"></path><path d="M884.84,151h29.89" transform="translate(0.67 0.67)" style="fill:none;stroke:#293b4a;stroke-miterlimit:10"></path><path d="M884.84,156.19h18.43" transform="translate(0.67 0.67)" style="fill:none;stroke:#293b4a;stroke-miterlimit:10"></path><path d="M884.84,161.43h18.43" transform="translate(0.67 0.67)" style="fill:none;stroke:#293b4a;stroke-miterlimit:10"></path><path d="M884.84,128.36h5.66" transform="translate(0.67 0.67)" style="fill:none;stroke:#293b4a;stroke-miterlimit:10"></path><path d="M884.84,134.74h13.83" transform="translate(0.67 0.67)" style="fill:none;stroke:#293b4a;stroke-miterlimit:10"></path><path d="M884.84,140h21" transform="translate(0.67 0.67)" style="fill:none;stroke:#293b4a;stroke-miterlimit:10"></path><path d="M913.74,120.45v5l6.74,3.48,6.73-3.48V122.3" transform="translate(0.67 0.67)" style="fill:none;stroke:#293b4a;stroke-miterlimit:10"></path><path d="M913.74,125.45v5" transform="translate(0.67 0.67)" style="fill:none;stroke:#293b4a;stroke-miterlimit:10"></path><path d="M920.48,123.93l-9.73-5,9.73-5,9.73,5Z" transform="translate(0.67 0.67)" style="fill:none;stroke:#293b4a;stroke-miterlimit:10"></path><path d="M920.48,140.14a18,18,0,1,0-18-18A18,18,0,0,0,920.48,140.14Z" transform="translate(0.67 0.67)" style="fill:none;stroke:#293b4a;stroke-miterlimit:10"></path><path d="M1312.27,133.72,1325,162.58" transform="translate(0.67 0.67)" style="fill:none;stroke:#19ad4a;stroke-miterlimit:10"></path><path d="M1311.9,205.19v10.48l14.58-10.48h22.87a4.85,4.85,0,0,0,4.88-4.86V177.61a4.86,4.86,0,0,0-4.88-4.88h-45.74a4.87,4.87,0,0,0-4.89,4.88V199.1c0,4.25,1.85,6.09,6.12,6.09h3.2" transform="translate(0.67 0.67)" style="fill:none;stroke:#293b4a;stroke-miterlimit:10"></path><path d="M1357.93,201.22l5.75,4.14V194.87h6a4.87,4.87,0,0,0,4.89-4.86V167.29a4.88,4.88,0,0,0-4.89-4.88h-43.44a4.88,4.88,0,0,0-4.89,4.88v2.41" transform="translate(0.67 0.67)" style="fill:none;stroke:#293b4a;stroke-miterlimit:10"></path><path d="M1318.63,187.38v5.81l7.81,4.07,7.84-4.07v-3.63" transform="translate(0.67 0.67)" style="fill:none;stroke:#293b4a;stroke-miterlimit:10"></path><path d="M1318.63,193.19v5.87" transform="translate(0.67 0.67)" style="fill:none;stroke:#293b4a;stroke-miterlimit:10"></path><path d="M1326.48,191.43l-11.34-5.84,11.34-5.86,11.29,5.86Z" transform="translate(0.67 0.67)" style="fill:none;stroke:#293b4a;stroke-miterlimit:10"></path></svg>