<svg xmlns="http://www.w3.org/2000/svg" id="Layer_1" data-name="Layer 1" viewBox="0 0 465.58 298"><path d="M83.65,220.05A83.59,83.59,0,1,0,.11,136.46,83.57,83.57,0,0,0,83.65,220.05Z" transform="translate(-0.11 0.45)" style="fill:#fff"></path><path d="M234.61,30.51H200.35a4,4,0,0,0-4,4v34" transform="translate(-0.11 0.45)" style="fill:none;stroke:#253b4c;stroke-miterlimit:10"></path><path d="M226.68,76.44H192.42a4,4,0,0,1-4-4v-4h34.26v4A4,4,0,0,0,226.68,76.44Zm0,0a4,4,0,0,0,4-4v-38a4,4,0,1,1,7.94,0v4.14h-5" transform="translate(-0.11 0.45)" style="fill:none;stroke:#253b4c;stroke-miterlimit:10"></path><path d="M202.29,37.69h10.63" transform="translate(-0.11 0.45)" style="fill:none;stroke:#253b4c;stroke-linecap:round;stroke-miterlimit:10"></path><path d="M202.29,61.16h6.41" transform="translate(-0.11 0.45)" style="fill:none;stroke:#253b4c;stroke-linecap:round;stroke-miterlimit:10"></path><path d="M202.29,44.53h22" transform="translate(-0.11 0.45)" style="fill:none;stroke:#253b4c;stroke-linecap:round;stroke-miterlimit:10"></path><path d="M202.29,48.32h22" transform="translate(-0.11 0.45)" style="fill:none;stroke:#253b4c;stroke-linecap:round;stroke-miterlimit:10"></path><path d="M202.29,52.12h22" transform="translate(-0.11 0.45)" style="fill:none;stroke:#253b4c;stroke-linecap:round;stroke-miterlimit:10"></path><path d="M202.29,55.92h22" transform="translate(-0.11 0.45)" style="fill:none;stroke:#253b4c;stroke-linecap:round;stroke-miterlimit:10"></path><path d="M234.61,112.66H200.35a4,4,0,0,0-4,4v34" transform="translate(-0.11 0.45)" style="fill:none;stroke:#253b4c;stroke-miterlimit:10"></path><path d="M226.68,158.58H192.42a4,4,0,0,1-4-4v-4h34.26v4A4,4,0,0,0,226.68,158.58Zm0,0a4,4,0,0,0,4-4v-38a4,4,0,0,1,7.94,0v4.14h-5" transform="translate(-0.11 0.45)" style="fill:none;stroke:#253b4c;stroke-miterlimit:10"></path><path d="M202.29,119.83h10.63" transform="translate(-0.11 0.45)" style="fill:none;stroke:#253b4c;stroke-linecap:round;stroke-miterlimit:10"></path><path d="M202.29,143.3h6.41" transform="translate(-0.11 0.45)" style="fill:none;stroke:#253b4c;stroke-linecap:round;stroke-miterlimit:10"></path><path d="M202.29,126.67h22" transform="translate(-0.11 0.45)" style="fill:none;stroke:#253b4c;stroke-linecap:round;stroke-miterlimit:10"></path><path d="M202.29,130.47h22" transform="translate(-0.11 0.45)" style="fill:none;stroke:#253b4c;stroke-linecap:round;stroke-miterlimit:10"></path><path d="M202.29,134.27h22" transform="translate(-0.11 0.45)" style="fill:none;stroke:#253b4c;stroke-linecap:round;stroke-miterlimit:10"></path><path d="M202.29,138.07h22" transform="translate(-0.11 0.45)" style="fill:none;stroke:#253b4c;stroke-linecap:round;stroke-miterlimit:10"></path><path d="M234.61,194.8H200.35a4,4,0,0,0-4,4v34" transform="translate(-0.11 0.45)" style="fill:none;stroke:#253b4c;stroke-miterlimit:10"></path><path d="M226.68,240.73H192.42a4,4,0,0,1-4-4v-4h34.26v4A4,4,0,0,0,226.68,240.73Zm0,0a4,4,0,0,0,4-4v-38a4,4,0,0,1,7.94,0v4.14h-5" transform="translate(-0.11 0.45)" style="fill:none;stroke:#253b4c;stroke-miterlimit:10"></path><path d="M202.29,202h10.63" transform="translate(-0.11 0.45)" style="fill:none;stroke:#253b4c;stroke-linecap:round;stroke-miterlimit:10"></path><path d="M202.29,225.45h6.41" transform="translate(-0.11 0.45)" style="fill:none;stroke:#253b4c;stroke-linecap:round;stroke-miterlimit:10"></path><path d="M202.29,208.82h22" transform="translate(-0.11 0.45)" style="fill:none;stroke:#253b4c;stroke-linecap:round;stroke-miterlimit:10"></path><path d="M202.29,212.62h22" transform="translate(-0.11 0.45)" style="fill:none;stroke:#253b4c;stroke-linecap:round;stroke-miterlimit:10"></path><path d="M202.29,216.42h22" transform="translate(-0.11 0.45)" style="fill:none;stroke:#253b4c;stroke-linecap:round;stroke-miterlimit:10"></path><path d="M202.29,220.21h22" transform="translate(-0.11 0.45)" style="fill:none;stroke:#253b4c;stroke-linecap:round;stroke-miterlimit:10"></path><path d="M76.14,134.35A16.13,16.13,0,1,0,60,118.23,16.12,16.12,0,0,0,76.14,134.35Z" transform="translate(-0.11 0.45)" style="fill:none;stroke:#2f4454;stroke-miterlimit:10"></path><path d="M64.24,130.05,53.18,141.11" transform="translate(-0.11 0.45)" style="fill:none;stroke:#2f4454;stroke-miterlimit:10"></path><path d="M90.14,110.29h20v59.27H66.35v-38.5" transform="translate(-0.11 0.45)" style="fill:none;stroke:#2f4454;stroke-miterlimit:10"></path><path d="M74.53,141.28H102" transform="translate(-0.11 0.45)" style="fill:none;stroke:#2f4454;stroke-miterlimit:10"></path><path d="M74.53,147.69H102" transform="translate(-0.11 0.45)" style="fill:none;stroke:#2f4454;stroke-miterlimit:10"></path><path d="M74.53,154H102" transform="translate(-0.11 0.45)" style="fill:none;stroke:#2f4454;stroke-miterlimit:10"></path><path d="M95.12,118.4H102" transform="translate(-0.11 0.45)" style="fill:none;stroke:#2f4454;stroke-miterlimit:10"></path><path d="M95.12,124.14H102" transform="translate(-0.11 0.45)" style="fill:none;stroke:#2f4454;stroke-miterlimit:10"></path><path d="M74.53,161.37h8.61" transform="translate(-0.11 0.45)" style="fill:none;stroke:#2f4454;stroke-miterlimit:10"></path><path d="M86,118.14c-1.6,3.8-5.57,6-9.87,6a11.15,11.15,0,0,1-9.88-6,11.09,11.09,0,0,1,9.88-5.91A11.33,11.33,0,0,1,86,118.14Z" transform="translate(-0.11 0.45)" style="fill:none;stroke:#19ad4a;stroke-miterlimit:10"></path><path d="M76.14,120.59a2.37,2.37,0,1,0-2.37-2.36A2.36,2.36,0,0,0,76.14,120.59Z" transform="translate(-0.11 0.45)" style="fill:none;stroke:#19ad4a;stroke-miterlimit:10"></path><path d="M238.41,220.05H392.49" transform="translate(-0.11 0.45)" style="fill:none;stroke:#253b4c;stroke-miterlimit:10"></path><path d="M238.41,139.08H361.78" transform="translate(-0.11 0.45)" style="fill:none;stroke:#253b4c;stroke-miterlimit:10"></path><path d="M238.41,55.58H402.87" transform="translate(-0.11 0.45)" style="fill:none;stroke:#253b4c;stroke-miterlimit:10"></path><path d="M396,122.2H349.71a11.4,11.4,0,0,0-11.39,11.39v5.07" transform="translate(-0.11 0.45)" style="fill:none;stroke:#253b4c;stroke-miterlimit:10"></path><path d="M341,38.11H322.54a11.4,11.4,0,0,0-11.39,11.4v6.07" transform="translate(-0.11 0.45)" style="fill:none;stroke:#253b4c;stroke-miterlimit:10"></path><path d="M318.32,103H297.14a11.4,11.4,0,0,1-11.39-11.4V55.42" transform="translate(-0.11 0.45)" style="fill:none;stroke:#253b4c;stroke-miterlimit:10"></path><path d="M332,278.13H310.81a11.4,11.4,0,0,1-11.39-11.4V220.21" transform="translate(-0.11 0.45)" style="fill:none;stroke:#253b4c;stroke-miterlimit:10"></path><path d="M413.76,191.59H327.09c-6.32,0-11.39-4.55-11.39-10.13v-42.8" transform="translate(-0.11 0.45)" style="fill:none;stroke:#253b4c;stroke-miterlimit:10"></path><path d="M368.18,46.55a23.5,23.5,0,1,0-23.5-23.5A23.5,23.5,0,0,0,368.18,46.55Z" transform="translate(-0.11 0.45)" style="fill:#fff"></path><path d="M367.78,21.79a4.55,4.55,0,1,0-4.54-4.54A4.54,4.54,0,0,0,367.78,21.79Z" transform="translate(-0.11 0.45)" style="fill:none;stroke:#253b4c;stroke-miterlimit:10"></path><path d="M358.64,34.67c0-7.59,4.08-10.64,9.14-10.64s9.14,3,9.14,10.64" transform="translate(-0.11 0.45)" style="fill:none;stroke:#253b4c;stroke-miterlimit:10"></path><path d="M353.58,34.67h28.34" transform="translate(-0.11 0.45)" style="fill:none;stroke:#253b4c;stroke-miterlimit:10"></path><path d="M360.82,10.06h13.91" transform="translate(-0.11 0.45)" style="fill:none;stroke:#253b4c;stroke-miterlimit:10"></path><path d="M372.6,10.06s-.28,3,2.13,3.79" transform="translate(-0.11 0.45)" style="fill:none;stroke:#253b4c;stroke-miterlimit:10"></path><path d="M361.28,26.5s6.44.29,6.44,8.17" transform="translate(-0.11 0.45)" style="fill:none;stroke:#253b4c;stroke-miterlimit:10"></path><path d="M374.33,26.5s-6.44.29-6.44,8.17" transform="translate(-0.11 0.45)" style="fill:none;stroke:#253b4c;stroke-miterlimit:10"></path><path d="M436.18,77.55a23.5,23.5,0,1,0-23.5-23.5A23.5,23.5,0,0,0,436.18,77.55Z" transform="translate(-0.11 0.45)" style="fill:#fff"></path><path d="M435.78,52.79a4.55,4.55,0,1,0-4.54-4.54A4.54,4.54,0,0,0,435.78,52.79Z" transform="translate(-0.11 0.45)" style="fill:none;stroke:#253b4c;stroke-miterlimit:10"></path><path d="M426.64,65.67c0-7.59,4.08-10.64,9.14-10.64s9.14,3,9.14,10.64" transform="translate(-0.11 0.45)" style="fill:none;stroke:#253b4c;stroke-miterlimit:10"></path><path d="M421.58,65.67h28.34" transform="translate(-0.11 0.45)" style="fill:none;stroke:#253b4c;stroke-miterlimit:10"></path><path d="M428.82,41.06h13.91" transform="translate(-0.11 0.45)" style="fill:none;stroke:#253b4c;stroke-miterlimit:10"></path><path d="M440.6,41.06s-.28,3,2.13,3.79" transform="translate(-0.11 0.45)" style="fill:none;stroke:#253b4c;stroke-miterlimit:10"></path><path d="M429.28,57.5s6.44.29,6.44,8.17" transform="translate(-0.11 0.45)" style="fill:none;stroke:#253b4c;stroke-miterlimit:10"></path><path d="M442.33,57.5s-6.44.29-6.44,8.17" transform="translate(-0.11 0.45)" style="fill:none;stroke:#253b4c;stroke-miterlimit:10"></path><path d="M343.18,112.55a23.5,23.5,0,1,0-23.5-23.5A23.5,23.5,0,0,0,343.18,112.55Z" transform="translate(-0.11 0.45)" style="fill:#fff"></path><path d="M342.78,87.79a4.55,4.55,0,1,0-4.54-4.54A4.54,4.54,0,0,0,342.78,87.79Z" transform="translate(-0.11 0.45)" style="fill:none;stroke:#293b4a;stroke-miterlimit:10"></path><path d="M333.64,100.67c0-7.59,4.08-10.64,9.14-10.64s9.14,3,9.14,10.64" transform="translate(-0.11 0.45)" style="fill:none;stroke:#293b4a;stroke-miterlimit:10"></path><path d="M328.58,100.67h28.34" transform="translate(-0.11 0.45)" style="fill:none;stroke:#293b4a;stroke-miterlimit:10"></path><path d="M335.82,76.06h13.91" transform="translate(-0.11 0.45)" style="fill:none;stroke:#293b4a;stroke-miterlimit:10"></path><path d="M347.6,76.06s-.28,3,2.13,3.79" transform="translate(-0.11 0.45)" style="fill:none;stroke:#293b4a;stroke-miterlimit:10"></path><path d="M336.28,92.5s6.44.29,6.44,8.17" transform="translate(-0.11 0.45)" style="fill:none;stroke:#293b4a;stroke-miterlimit:10"></path><path d="M349.33,92.5s-6.44.29-6.44,8.17" transform="translate(-0.11 0.45)" style="fill:none;stroke:#293b4a;stroke-miterlimit:10"></path><path d="M429.18,143.55a23.5,23.5,0,1,0-23.5-23.5A23.5,23.5,0,0,0,429.18,143.55Z" transform="translate(-0.11 0.45)" style="fill:#fff"></path><path d="M428.78,118.79a4.55,4.55,0,1,0-4.54-4.54A4.55,4.55,0,0,0,428.78,118.79Z" transform="translate(-0.11 0.45)" style="fill:none;stroke:#253b4c;stroke-miterlimit:10"></path><path d="M419.64,131.67c0-7.59,4.08-10.64,9.14-10.64s9.14,3,9.14,10.64" transform="translate(-0.11 0.45)" style="fill:none;stroke:#253b4c;stroke-miterlimit:10"></path><path d="M414.58,131.67h28.34" transform="translate(-0.11 0.45)" style="fill:none;stroke:#253b4c;stroke-miterlimit:10"></path><path d="M421.82,107.06h13.91" transform="translate(-0.11 0.45)" style="fill:none;stroke:#253b4c;stroke-miterlimit:10"></path><path d="M433.6,107.06s-.28,3,2.13,3.79" transform="translate(-0.11 0.45)" style="fill:none;stroke:#253b4c;stroke-miterlimit:10"></path><path d="M422.28,123.5s6.44.29,6.44,8.17" transform="translate(-0.11 0.45)" style="fill:none;stroke:#253b4c;stroke-miterlimit:10"></path><path d="M435.33,123.5s-6.44.29-6.44,8.17" transform="translate(-0.11 0.45)" style="fill:none;stroke:#253b4c;stroke-miterlimit:10"></path><path d="M385.18,181.55a23.5,23.5,0,1,0-23.5-23.5A23.5,23.5,0,0,0,385.18,181.55Z" transform="translate(-0.11 0.45)" style="fill:#fff"></path><path d="M384.78,156.79a4.55,4.55,0,1,0-4.54-4.54A4.55,4.55,0,0,0,384.78,156.79Z" transform="translate(-0.11 0.45)" style="fill:none;stroke:#253b4c;stroke-miterlimit:10"></path><path d="M375.64,169.67c0-7.59,4.08-10.64,9.14-10.64s9.14,3.05,9.14,10.64" transform="translate(-0.11 0.45)" style="fill:none;stroke:#253b4c;stroke-miterlimit:10"></path><path d="M370.58,169.67h28.34" transform="translate(-0.11 0.45)" style="fill:none;stroke:#253b4c;stroke-miterlimit:10"></path><path d="M377.82,145.06h13.91" transform="translate(-0.11 0.45)" style="fill:none;stroke:#253b4c;stroke-miterlimit:10"></path><path d="M389.6,145.06s-.28,3.05,2.13,3.79" transform="translate(-0.11 0.45)" style="fill:none;stroke:#253b4c;stroke-miterlimit:10"></path><path d="M378.28,161.5s6.44.29,6.44,8.17" transform="translate(-0.11 0.45)" style="fill:none;stroke:#253b4c;stroke-miterlimit:10"></path><path d="M391.33,161.5s-6.44.29-6.44,8.17" transform="translate(-0.11 0.45)" style="fill:none;stroke:#253b4c;stroke-miterlimit:10"></path><path d="M408.18,270.55a23.5,23.5,0,1,0-23.5-23.5A23.5,23.5,0,0,0,408.18,270.55Z" transform="translate(-0.11 0.45)" style="fill:#fff"></path><path d="M407.78,245.79a4.55,4.55,0,1,0-4.54-4.54A4.55,4.55,0,0,0,407.78,245.79Z" transform="translate(-0.11 0.45)" style="fill:none;stroke:#253b4c;stroke-miterlimit:10"></path><path d="M398.64,258.67c0-7.59,4.08-10.64,9.14-10.64s9.14,3.05,9.14,10.64" transform="translate(-0.11 0.45)" style="fill:none;stroke:#253b4c;stroke-miterlimit:10"></path><path d="M393.58,258.67h28.34" transform="translate(-0.11 0.45)" style="fill:none;stroke:#253b4c;stroke-miterlimit:10"></path><path d="M400.82,234.06h13.91" transform="translate(-0.11 0.45)" style="fill:none;stroke:#253b4c;stroke-miterlimit:10"></path><path d="M412.6,234.06s-.28,3.05,2.13,3.79" transform="translate(-0.11 0.45)" style="fill:none;stroke:#253b4c;stroke-miterlimit:10"></path><path d="M401.28,250.5s6.44.29,6.44,8.17" transform="translate(-0.11 0.45)" style="fill:none;stroke:#253b4c;stroke-miterlimit:10"></path><path d="M414.33,250.5s-6.44.29-6.44,8.17" transform="translate(-0.11 0.45)" style="fill:none;stroke:#253b4c;stroke-miterlimit:10"></path><path d="M359.18,297.55a23.5,23.5,0,1,0-23.5-23.5A23.5,23.5,0,0,0,359.18,297.55Z" transform="translate(-0.11 0.45)" style="fill:#fff"></path><path d="M358.78,272.79a4.55,4.55,0,1,0-4.54-4.54A4.55,4.55,0,0,0,358.78,272.79Z" transform="translate(-0.11 0.45)" style="fill:none;stroke:#253b4c;stroke-miterlimit:10"></path><path d="M349.64,285.67c0-7.59,4.08-10.64,9.14-10.64s9.14,3.05,9.14,10.64" transform="translate(-0.11 0.45)" style="fill:none;stroke:#253b4c;stroke-miterlimit:10"></path><path d="M344.58,285.67h28.34" transform="translate(-0.11 0.45)" style="fill:none;stroke:#253b4c;stroke-miterlimit:10"></path><path d="M351.82,261.06h13.91" transform="translate(-0.11 0.45)" style="fill:none;stroke:#253b4c;stroke-miterlimit:10"></path><path d="M363.6,261.06s-.28,3.05,2.13,3.79" transform="translate(-0.11 0.45)" style="fill:none;stroke:#253b4c;stroke-miterlimit:10"></path><path d="M352.28,277.5s6.44.29,6.44,8.17" transform="translate(-0.11 0.45)" style="fill:none;stroke:#253b4c;stroke-miterlimit:10"></path><path d="M365.33,277.5s-6.44.29-6.44,8.17" transform="translate(-0.11 0.45)" style="fill:none;stroke:#253b4c;stroke-miterlimit:10"></path><path d="M442.18,214.55a23.5,23.5,0,1,0-23.5-23.5A23.5,23.5,0,0,0,442.18,214.55Z" transform="translate(-0.11 0.45)" style="fill:#fff"></path><path d="M441.78,189.79a4.55,4.55,0,1,0-4.54-4.54A4.55,4.55,0,0,0,441.78,189.79Z" transform="translate(-0.11 0.45)" style="fill:none;stroke:#253b4c;stroke-miterlimit:10"></path><path d="M432.64,202.67c0-7.59,4.08-10.64,9.14-10.64s9.14,3.05,9.14,10.64" transform="translate(-0.11 0.45)" style="fill:none;stroke:#253b4c;stroke-miterlimit:10"></path><path d="M427.58,202.67h28.34" transform="translate(-0.11 0.45)" style="fill:none;stroke:#253b4c;stroke-miterlimit:10"></path><path d="M434.82,178.06h13.91" transform="translate(-0.11 0.45)" style="fill:none;stroke:#253b4c;stroke-miterlimit:10"></path><path d="M446.6,178.06s-.28,3.05,2.13,3.79" transform="translate(-0.11 0.45)" style="fill:none;stroke:#253b4c;stroke-miterlimit:10"></path><path d="M435.28,194.5s6.44.29,6.44,8.17" transform="translate(-0.11 0.45)" style="fill:none;stroke:#253b4c;stroke-miterlimit:10"></path><path d="M448.33,194.5s-6.44.29-6.44,8.17" transform="translate(-0.11 0.45)" style="fill:none;stroke:#253b4c;stroke-miterlimit:10"></path></svg>