<svg xmlns="http://www.w3.org/2000/svg" xmlns:xlink="http://www.w3.org/1999/xlink" id="Layer_1" data-name="Layer 1" viewBox="0 0 358.36 370.41"><defs><clipPath id="clip-path" transform="translate(0.28 -0.35)"><rect x="164.39" y="174.65" width="53.93" height="31.78" style="fill:none"></rect></clipPath></defs><circle cx="190.85" cy="189.19" r="133.91" style="fill:#19ad4a;opacity:0.05000000074505806;isolation:isolate"></circle><circle cx="191.15" cy="189.23" r="102.56" style="fill:#19ad4a;opacity:0.05000000074505806;isolation:isolate"></circle><circle cx="191.15" cy="189.23" r="73.67" style="fill:#19ad4a;opacity:0.05000000074505806;isolation:isolate"></circle><circle cx="190.85" cy="189.19" r="161.34" style="fill:#19ad4a;opacity:0.05000000074505806;isolation:isolate"></circle><circle cx="191.26" cy="188.78" r="41.55" style="fill:#fff"></circle><circle cx="191.26" cy="188.78" r="38.66" style="fill:none;stroke:#293b4a;stroke-width:5.777969837188721px"></circle><circle cx="28.23" cy="178.46" r="28.23" style="fill:#fff"></circle><circle cx="28.23" cy="178.46" r="27.27" style="fill:none;stroke:#ff340c;stroke-width:1.9259899854660034px"></circle><path d="M18.43,176.73v6.64l9.53,5,9.48-5v-6.64" transform="translate(0.28 -0.35)" style="fill:none;stroke:#293b4a;stroke-miterlimit:10;stroke-width:1.9259899854660034px"></path><path d="M18.43,183.37v7.15" transform="translate(0.28 -0.35)" style="fill:none;stroke:#293b4a;stroke-miterlimit:10;stroke-width:1.9259899854660034px"></path><path d="M28,181.2l-13.71-7.14L28,166.87l13.71,7.19Z" transform="translate(0.28 -0.35)" style="fill:none;stroke:#293b4a;stroke-miterlimit:10;stroke-width:1.9259899854660034px"></path><circle cx="149.57" cy="28.23" r="28.23" style="fill:#fff"></circle><circle cx="149.57" cy="28.23" r="27.27" style="fill:none;stroke:#ffcd00;stroke-width:1.9259899854660034px"></circle><path d="M139.77,26.5v6.65l9.53,5,9.48-5V26.5" transform="translate(0.28 -0.35)" style="fill:none;stroke:#293b4a;stroke-miterlimit:10;stroke-width:1.9259899854660034px"></path><path d="M139.77,33.15v7.14" transform="translate(0.28 -0.35)" style="fill:none;stroke:#293b4a;stroke-miterlimit:10;stroke-width:1.9259899854660034px"></path><path d="M149.3,31l-13.71-7.15,13.71-7.19L163,23.83Z" transform="translate(0.28 -0.35)" style="fill:none;stroke:#293b4a;stroke-miterlimit:10;stroke-width:1.9259899854660034px"></path><circle cx="329.65" cy="285.35" r="28.23" style="fill:#fff"></circle><circle cx="329.65" cy="285.35" r="27.27" style="fill:none;stroke:#ffcd00;stroke-width:1.9259899854660034px"></circle><path d="M319.85,283.62v6.65l9.53,5,9.48-5v-6.65" transform="translate(0.28 -0.35)" style="fill:none;stroke:#293b4a;stroke-miterlimit:10;stroke-width:1.9259899854660034px"></path><path d="M319.85,290.27v7.14" transform="translate(0.28 -0.35)" style="fill:none;stroke:#293b4a;stroke-miterlimit:10;stroke-width:1.9259899854660034px"></path><path d="M329.38,288.1,315.67,281l13.71-7.19,13.7,7.19Z" transform="translate(0.28 -0.35)" style="fill:none;stroke:#293b4a;stroke-miterlimit:10;stroke-width:1.9259899854660034px"></path><circle cx="330.12" cy="101.12" r="28.23" style="fill:#fff"></circle><circle cx="330.12" cy="101.12" r="27.27" style="fill:none;stroke:#293b4a;stroke-width:1.9259899854660034px"></circle><path d="M320.32,99.39V106l9.53,5,9.48-5V99.39" transform="translate(0.28 -0.35)" style="fill:none;stroke:#293b4a;stroke-miterlimit:10;stroke-width:1.9259899854660034px"></path><path d="M320.32,106v7.15" transform="translate(0.28 -0.35)" style="fill:none;stroke:#293b4a;stroke-miterlimit:10;stroke-width:1.9259899854660034px"></path><path d="M329.85,103.86l-13.71-7.14,13.71-7.19,13.7,7.19Z" transform="translate(0.28 -0.35)" style="fill:none;stroke:#293b4a;stroke-miterlimit:10;stroke-width:1.9259899854660034px"></path><circle cx="142.83" cy="342.17" r="28.23" style="fill:#fff"></circle><circle cx="142.83" cy="342.17" r="27.27" style="fill:none;stroke:#293b4a;stroke-width:1.9259899854660034px"></circle><path d="M133,340.44v6.65l9.53,5,9.48-5v-6.65" transform="translate(0.28 -0.35)" style="fill:none;stroke:#293b4a;stroke-miterlimit:10;stroke-width:1.9259899854660034px"></path><path d="M133,347.09v7.14" transform="translate(0.28 -0.35)" style="fill:none;stroke:#293b4a;stroke-miterlimit:10;stroke-width:1.9259899854660034px"></path><path d="M142.56,344.92l-13.71-7.15,13.71-7.19,13.7,7.19Z" transform="translate(0.28 -0.35)" style="fill:none;stroke:#293b4a;stroke-miterlimit:10;stroke-width:1.9259899854660034px"></path><g style="clip-path:url(#clip-path)"><path d="M193.54,176.68v-1.29l-4.33,0v1.29a.41.41,0,0,1-.42.41h-1.71v2.72c0,3.82,4.25,5.84,4.25,5.84s4.29-2,4.34-5.8v-2.71H194A.41.41,0,0,1,193.54,176.68Z" transform="translate(0.28 -0.35)" style="fill:none;stroke:#293b4a;stroke-miterlimit:10;stroke-width:1.4371000528335571px"></path><path d="M189.53,179.57a2.25,2.25,0,0,1,3.69,0" transform="translate(0.28 -0.35)" style="fill:none;stroke:#293b4a;stroke-miterlimit:10;stroke-width:1.4371000528335571px"></path><path d="M189.35,181.18h4" transform="translate(0.28 -0.35)" style="fill:none;stroke:#293b4a;stroke-miterlimit:10;stroke-width:1.4371000528335571px"></path><path d="M194,183.76h15.09" transform="translate(0.28 -0.35)" style="fill:none;stroke:#293b4a;stroke-miterlimit:10;stroke-width:1.4371000528335571px"></path><path d="M188.65,183.76h-15" transform="translate(0.28 -0.35)" style="fill:none;stroke:#293b4a;stroke-miterlimit:10;stroke-width:1.4371000528335571px"></path><path d="M200.83,195.62h-3.41v5.52h3.41Z" transform="translate(0.28 -0.35)" style="fill:none;stroke:#293b4a;stroke-miterlimit:10;stroke-width:1.4371000528335571px"></path><path d="M185.29,195.62h-3.42v5.52h3.42Z" transform="translate(0.28 -0.35)" style="fill:none;stroke:#293b4a;stroke-miterlimit:10;stroke-width:1.4371000528335571px"></path><path d="M211.8,191.51V187H171v4.55Z" transform="translate(0.28 -0.35)" style="fill:none;stroke:#293b4a;stroke-miterlimit:10;stroke-width:1.4371000528335571px"></path><path d="M164.39,205.74h53.93" transform="translate(0.28 -0.35)" style="fill:none;stroke:#293b4a;stroke-miterlimit:10;stroke-width:1.4371000528335571px"></path><path d="M170.94,205.56V201.1h40.83v4.46" transform="translate(0.28 -0.35)" style="fill:none;stroke:#293b4a;stroke-miterlimit:10;stroke-width:1.4371000528335571px"></path><path d="M193.27,191.53h-3.83v9.57h3.83Z" transform="translate(0.28 -0.35)" style="fill:none;stroke:#293b4a;stroke-miterlimit:10;stroke-width:1.4371000528335571px"></path><path d="M177.44,191.53h-3.83v9.57h3.83Z" transform="translate(0.28 -0.35)" style="fill:none;stroke:#293b4a;stroke-miterlimit:10;stroke-width:1.4371000528335571px"></path><path d="M209.09,191.53h-3.83v9.57h3.83Z" transform="translate(0.28 -0.35)" style="fill:none;stroke:#293b4a;stroke-miterlimit:10;stroke-width:1.4371000528335571px"></path><path d="M187.08,178.29H171.22v3.17h2.39v5.47" transform="translate(0.28 -0.35)" style="fill:none;stroke:#293b4a;stroke-miterlimit:10;stroke-width:1.4371000528335571px"></path><path d="M209.09,186.93v-5.47h2.4v-3.17H195.67" transform="translate(0.28 -0.35)" style="fill:none;stroke:#293b4a;stroke-miterlimit:10;stroke-width:1.4371000528335571px"></path><path d="M173.61,181.46h13.47" transform="translate(0.28 -0.35)" style="fill:none;stroke:#293b4a;stroke-miterlimit:10;stroke-width:1.4371000528335571px"></path><path d="M209.09,181.46H195.34" transform="translate(0.28 -0.35)" style="fill:none;stroke:#293b4a;stroke-miterlimit:10;stroke-width:1.4371000528335571px"></path></g></svg>