<svg xmlns="http://www.w3.org/2000/svg" xmlns:xlink="http://www.w3.org/1999/xlink" id="Layer_1" data-name="Layer 1" viewBox="0 0 337.74 576.99"><defs><clipPath id="clip-path" transform="translate(-431.07 -311.04)"><rect x="457.91" y="311.08" width="310.91" height="576.99" style="fill: none"></rect></clipPath><clipPath id="clip-path-2" transform="translate(-431.07 -311.04)"><rect x="486.23" y="391.07" width="254.24" height="465.59" style="fill: none"></rect></clipPath><clipPath id="clip-path-3" transform="translate(-431.07 -311.04)"><rect x="489" y="350.07" width="159" height="15.43" style="fill: none"></rect></clipPath></defs><g style="clip-path: url(#clip-path)"><g><path d="M768.81,859V340a29,29,0,0,0-29-29H486.91a29,29,0,0,0-29,29V859a29,29,0,0,0,29,29h252.9A29,29,0,0,0,768.81,859Z" transform="translate(-431.07 -311.04)" style="fill: #f3f5f6"></path><path d="M760.6,857.51V341.57a22.44,22.44,0,0,0-22.44-22.44H488.55a22.43,22.43,0,0,0-22.44,22.44V857.51A22.44,22.44,0,0,0,488.55,880H738.16A22.44,22.44,0,0,0,760.6,857.51Z" transform="translate(-431.07 -311.04)" style="fill: none;stroke: #2e4455;stroke-miterlimit: 10;stroke-width: 1.5px"></path><g style="clip-path: url(#clip-path-2)"><g><path d="M711.62,454.15a4.54,4.54,0,1,0-4.54-4.54A4.54,4.54,0,0,0,711.62,454.15Z" transform="translate(-431.07 -311.04)" style="fill: #5c7eff"></path><path d="M723.53,454.15a4.54,4.54,0,1,0-4.54-4.54A4.54,4.54,0,0,0,723.53,454.15Z" transform="translate(-431.07 -311.04)" style="fill: #fbd94b"></path><path d="M735.44,454.15a4.54,4.54,0,1,0-4.54-4.54A4.54,4.54,0,0,0,735.44,454.15Z" transform="translate(-431.07 -311.04)" style="fill: #00b647"></path></g></g><g style="clip-path: url(#clip-path-3)"><g><path d="M494.13,351.09H497l5.07,14.15h-2.17L498.8,362h-6.53l-1.13,3.2H489Zm4,9.07-2.49-7.11h-.17l-2.53,7.11Z" transform="translate(-431.07 -311.04)" style="fill: #293b4a"></path><path d="M502.91,360c0-3.17,2-5.54,5-5.54a4,4,0,0,1,1.95.45,4,4,0,0,1,1.48,1.33h.16v-6.13h2v15.17h-2v-1.46h-.14a3.92,3.92,0,0,1-1.46,1.28,3.82,3.82,0,0,1-1.9.44C505.08,365.5,502.91,363.18,502.91,360Zm8.61,0c0-2.34-1.5-3.7-3.3-3.7a3.71,3.71,0,0,0,0,7.38c2,0,3.28-1.66,3.28-3.66Z" transform="translate(-431.07 -311.04)" style="fill: #293b4a"></path><path d="M515.35,354.68h2.12l2.9,8.68h.16l2.88-8.68h2.21l-3.77,10.56h-2.7Z" transform="translate(-431.07 -311.04)" style="fill: #293b4a"></path><path d="M526.54,360a5.25,5.25,0,0,1,5.21-5.56c3.23,0,5.11,2.29,5.11,5.44v.63h-8.25a3,3,0,0,0,3.24,3.27,2.93,2.93,0,0,0,2.93-2l1.88.46a4.77,4.77,0,0,1-4.81,3.32C528.63,365.5,526.54,363.21,526.54,360Zm8.27-1a2.87,2.87,0,0,0-3.06-2.79,3.07,3.07,0,0,0-3.12,2.79Z" transform="translate(-431.07 -311.04)" style="fill: #293b4a"></path><path d="M539.13,354.68h2v1.38h.17a3.25,3.25,0,0,1,3-1.64,3.8,3.8,0,0,1,3.89,4v6.78h-2v-6.43a2.43,2.43,0,0,0-.16-1,2.38,2.38,0,0,0-.52-.82,2.31,2.31,0,0,0-.8-.54,2.41,2.41,0,0,0-1-.19,2.78,2.78,0,0,0-1,.2,2.69,2.69,0,0,0-.86.59,2.58,2.58,0,0,0-.75,1.9v6.25h-2Z" transform="translate(-431.07 -311.04)" style="fill: #293b4a"></path><path d="M552.05,362.14v-5.72h-1.93v-1.74h2v-3h1.88v3h3.12v1.74h-3.12v5.7c0,.95.39,1.36,1.32,1.36h1.68v1.76h-1.7C553.36,365.24,552.05,364.33,552.05,362.14Z" transform="translate(-431.07 -311.04)" style="fill: #293b4a"></path><path d="M559.45,361.46v-6.78h2v6.43a2.43,2.43,0,0,0,.16,1,2.39,2.39,0,0,0,.52.81,2.35,2.35,0,0,0,.81.54,2.2,2.2,0,0,0,.95.18,2.53,2.53,0,0,0,1-.19,2.71,2.71,0,0,0,.87-.58,2.62,2.62,0,0,0,.74-1.9v-6.25h2v10.56h-2v-1.37h-.16a3.27,3.27,0,0,1-3,1.64A3.8,3.8,0,0,1,559.45,361.46Z" transform="translate(-431.07 -311.04)" style="fill: #293b4a"></path><path d="M570.7,362.27l1.86-.43a2.14,2.14,0,0,0,2.41,1.88c1.36,0,2.09-.58,2.09-1.47,0-2.55-6-.53-6-4.75,0-1.8,1.56-3.08,3.88-3.08a3.7,3.7,0,0,1,3.94,2.93l-1.77.51a2,2,0,0,0-2.23-1.66c-1.19,0-1.88.55-1.88,1.32,0,2.3,6.12.26,6.12,4.57,0,2-1.66,3.42-4.2,3.42C572.55,365.5,571,364.31,570.7,362.27Z" transform="translate(-431.07 -311.04)" style="fill: #293b4a"></path><path d="M598.48,353.82a5.84,5.84,0,0,0-1.25-2,6.88,6.88,0,0,0-5.18-1.79h-7l-.67,3.76h1.6l-.14.8-1.25,7.07-.68,3.81h5.83a10,10,0,0,0,4.83-1.12,8.16,8.16,0,0,0,2.94-2.69c.11-.16.22-.35.32-.5a9.36,9.36,0,0,0,1.16-4.63A7.78,7.78,0,0,0,598.48,353.82Zm-4.33,5.6a3.76,3.76,0,0,1-1.58,1.65,5.26,5.26,0,0,1-2.61.61h-1.22l1.38-7.82h1.45a3.45,3.45,0,0,1,2.42.7,3,3,0,0,1,.71,2.2,5.87,5.87,0,0,1-.55,2.67Z" transform="translate(-431.07 -311.04)" style="fill: #293b4a"></path><path d="M641.47,354.15l-.26,1.53h5.2l-.7,4H640.5l-.31,1.72H646l-.73,4.08H634.82l2.74-15.43H648l-.76,4.08Z" transform="translate(-431.07 -311.04)" style="fill: #293b4a"></path><path d="M620.42,350.07l-.67,3.76-.14.79-1.26,7.06-.67,3.82H613l.68-3.82,1.25-7.05.15-.8h-1.35l.67-3.75h6Z" transform="translate(-431.07 -311.04)" style="fill: #293b4a"></path><path d="M611.8,358a5.15,5.15,0,0,0,1.15-3.37,4.52,4.52,0,0,0-.59-2.25,4.31,4.31,0,0,0-1.79-1.7,6.16,6.16,0,0,0-2.83-.62H600.3l-.68,3.75h1.16l-.14.8-1.24,7.06-.68,3.81h4.64l.68-3.81.25-1.41h1l.42,1.41,1.12,3.81h4.94l-1.21-3.81-.71-2.17A5.58,5.58,0,0,0,611.8,358Zm-3.63-1.76a2.28,2.28,0,0,1-1.6.51h-2.12l.51-2.93h2.35a1.71,1.71,0,0,1,1.1.29,1.05,1.05,0,0,1,.23.36,1.25,1.25,0,0,1,.07.43,1.65,1.65,0,0,1-.11.73A1.57,1.57,0,0,1,608.17,356.25Z" transform="translate(-431.07 -311.04)" style="fill: #293b4a"></path><path d="M637.17,350.07l-2,3.76-4.27,7.85-2.07,3.82h-4.53l-.72-3.82-1.34-7.05-.15-.8h-1.36l.66-3.71v-.05h4.82l.65,3.76.81,4.75,2.5-4.75,2-3.76Z" transform="translate(-431.07 -311.04)" style="fill: #293b4a"></path></g></g><path d="M723.3,378a20.61,20.61,0,1,0-20.61-20.61A20.61,20.61,0,0,0,723.3,378Z" transform="translate(-431.07 -311.04)" style="fill: #5273fd"></path><path d="M717.25,370.52a20.12,20.12,0,0,1-2.92,1.5,19.19,19.19,0,1,1,8.87-7.37" transform="translate(-431.07 -311.04)" style="fill: none;stroke: #293b4a;stroke-miterlimit: 10;stroke-width: 1.7612799406051636px"></path><path d="M720,367.18l20.21,20.21" transform="translate(-431.07 -311.04)" style="fill: none;stroke: #293b4a;stroke-miterlimit: 10;stroke-width: 1.7612799406051636px"></path></g></g></svg>