<svg xmlns="http://www.w3.org/2000/svg" id="Layer_1" data-name="Layer 1" viewBox="0 0 347.12 33.85"><path d="M11.15,2.24H17.5l11.07,31H23.83l-2.48-7H7.1l-2.47,7H0ZM19.87,22.1,14.42,6.53h-.36L8.54,22.1Z" transform="translate(0 0.03)"></path><path d="M30.32,21.67c0-6.93,4.47-12.13,10.84-12.13a8.69,8.69,0,0,1,7.48,3.9H49V0h4.38v33.2H49.09V30h-.31a8.73,8.73,0,0,1-7.34,3.77C35.05,33.8,30.32,28.71,30.32,21.67Zm18.81,0c0-5.13-3.28-8.09-7.22-8.09-4.12,0-7.17,3.36-7.17,8.09s3.19,8.06,7.22,8.06c4.38.07,7.17-3.63,7.17-8Z" transform="translate(0 0.03)"></path><path d="M57.5,10.12h4.62l6.33,19h.36l6.28-19h4.82L71.72,33.23H65.84Z" transform="translate(0 0.03)"></path><path d="M81.93,21.71c0-7.3,5.17-12.17,11.38-12.17,7,0,11.15,5,11.15,11.91v1.37h-18c0,4.52,2.79,7.17,7.08,7.17a6.36,6.36,0,0,0,6.38-4.47l4.12,1c-1.42,4.57-5.45,7.27-10.5,7.27C86.49,33.8,81.93,28.79,81.93,21.71ZM100,19.5c-.23-3.94-3.19-6.11-6.68-6.11a6.72,6.72,0,0,0-6.82,6.11Z" transform="translate(0 0.03)"></path><path d="M109.42,10.12h4.39v3h.35c1-2,3.28-3.59,6.64-3.59,5.22,0,8.47,3.9,8.47,8.85V33.21h-4.38V19.15a5.36,5.36,0,0,0-.34-2.1,5.11,5.11,0,0,0-1.14-1.79,5.22,5.22,0,0,0-3.83-1.6,5.56,5.56,0,0,0-2.24.44,5.8,5.8,0,0,0-1.89,1.28,5.66,5.66,0,0,0-1.24,1.92,5.77,5.77,0,0,0-.39,2.25V33.22h-4.4Z" transform="translate(0 0.03)"></path><path d="M137.62,26.45V13.92h-4.21v-3.8h4.47V3.52H142v6.6h6.82v3.8H142V26.37c0,2.08.85,3,2.88,3h3.68v3.85h-3.72C140.49,33.22,137.62,31.23,137.62,26.45Z" transform="translate(0 0.03)"></path><path d="M153.77,25V10.12h4.38V24.19a5.34,5.34,0,0,0,.34,2.09,5.23,5.23,0,0,0,5,3.36,5.73,5.73,0,0,0,2.24-.43,5.62,5.62,0,0,0,1.89-1.27A5.53,5.53,0,0,0,168.86,26a5.69,5.69,0,0,0,.39-2.24V10.12h4.38V33.23h-4.41v-3h-.35a7.16,7.16,0,0,1-6.65,3.59C157,33.8,153.77,29.9,153.77,25Z" transform="translate(0 0.03)"></path><path d="M178.33,26.72l4.08-.92c.39,2.74,2.31,4.11,5.26,4.11s4.56-1.28,4.56-3.23c0-5.58-13.14-1.15-13.14-10.4,0-3.94,3.4-6.73,8.47-6.73,4.21,0,7.89,2.25,8.59,6.41l-3.85,1.11c-.4-2.31-2.26-3.63-4.87-3.63s-4.11,1.2-4.11,2.88c0,5,13.36.58,13.36,10,0,4.47-3.63,7.49-9.16,7.49C182.38,33.8,178.91,31.19,178.33,26.72Z" transform="translate(0 0.03)"></path><path d="M239,8.23a12.54,12.54,0,0,0-2.71-4.31C233.79,1.32,230,0,225,0H209.59l-1.45,8.23h3.47l-.3,1.74-2.73,15.48L207.1,33.8h12.74a21.59,21.59,0,0,0,10.52-2.43,18,18,0,0,0,6.45-5.88c.23-.36.46-.77.67-1.11A20,20,0,0,0,240,14.26,16.74,16.74,0,0,0,239,8.23Zm-9.45,12.25a8.38,8.38,0,0,1-3.44,3.63,11.55,11.55,0,0,1-5.7,1.32h-2.68l3-17.12h3.16c2.46,0,4.23.52,5.28,1.54s1.54,2.62,1.54,4.81a13,13,0,0,1-1.2,5.84Z" transform="translate(0 0.03)"></path><path d="M332.87,9l-.58,3.35h11.36l-1.54,8.8H330.72L330,24.86h12.68l-1.6,8.93H318.35l6-33.77h22.77L345.46,9Z" transform="translate(0 0.03)"></path><path d="M286.9,0l-1.46,8.23-.3,1.74-2.75,15.45-1.48,8.35H270.8l1.48-8.35L275,10l.32-1.74h-2.94L273.85,0h13Z" transform="translate(0 0.03)"></path><path d="M268.09,17.37a11.39,11.39,0,0,0,2.5-7.39,10.49,10.49,0,0,0-.15-1.77,10.13,10.13,0,0,0-1.13-3.16,9.52,9.52,0,0,0-3.92-3.73A13.13,13.13,0,0,0,259.23,0H243L241.5,8.19H244l-.3,1.74L241,25.39l-1.48,8.35h10.13l1.48-8.35.59-3h2.22l.91,3.09,2.45,8.35h10.79l-2.65-8.35-1.54-4.75A12.6,12.6,0,0,0,268.09,17.37Zm-7.94-3.86a5,5,0,0,1-3.5,1.11H252l1.12-6.41h5.12a3.75,3.75,0,0,1,2.41.63,2.3,2.3,0,0,1,.5.8,2.4,2.4,0,0,1,.15.92A3.52,3.52,0,0,1,260.15,13.51Z" transform="translate(0 0.03)"></path><path d="M323.47,0,319,8.25l-9.29,17.19-4.53,8.35h-9.87l-1.6-8.35L290.8,10l-.34-1.74h-3L288.89.12V0h10.53l1.41,8.23,1.78,10.4,5.45-10.4L312.39,0Z" transform="translate(0 0.03)"></path></svg>