<svg xmlns="http://www.w3.org/2000/svg" id="Layer_1" data-name="Layer 1" viewBox="0 0 138 175.37"><path d="M658.67,512h-118a10,10,0,0,0-10,10V677.35a10,10,0,0,0,10,10h118a10,10,0,0,0,10-10V522A10,10,0,0,0,658.67,512Z" transform="translate(-530.67 -511.98)" style="fill: #fff"></path><path d="M587,649.8h41.61" transform="translate(-530.67 -511.98)" style="fill: none;stroke: #293b4a;stroke-width: 2px"></path><path d="M587,659.32h41.61" transform="translate(-530.67 -511.98)" style="fill: none;stroke: #293b4a;stroke-width: 2px"></path><path d="M587,668.85h67.68" transform="translate(-530.67 -511.98)" style="fill: none;stroke: #293b4a;stroke-width: 2px"></path><path d="M633.16,652.19v-4.78h8.39V639.7h4.86v7.71h8.35v4.78h-8.35v7.72h-4.86v-7.72Z" transform="translate(-530.67 -511.98)" style="fill: #293b4a"></path><path d="M578.25,659.73a16.28,16.28,0,0,1-.59,4.34c-.06.23-.13.46-.2.69a16.27,16.27,0,1,1,.79-5Z" transform="translate(-530.67 -511.98)" style="fill: #293b4a"></path><path d="M578.25,659.74H562V643.48a16.27,16.27,0,0,1,16.28,16.27Z" transform="translate(-530.67 -511.98)" style="fill: #5273fc"></path><path d="M578.25,659.75a16.7,16.7,0,0,1-.59,4.34c-.06.23-.13.46-.2.68a16.14,16.14,0,0,1-1.82,3.79L562,659.74Z" transform="translate(-530.67 -511.98)" style="fill: #19ad4a"></path><path d="M609.51,610.45a36.07,36.07,0,1,0-36.07-36.07A36.07,36.07,0,0,0,609.51,610.45Z" transform="translate(-530.67 -511.98)" style="fill: #5273fc"></path><path d="M587,604a35,35,0,1,1,29.44-16L614,586.39a32.24,32.24,0,1,0-10,9.81l1.55,2.47A34.85,34.85,0,0,1,587,604Z" transform="translate(-530.67 -511.98)" style="fill: #263441"></path><path d="M610.63,590.54l-2.07,2.06,32,32,2.06-2.07Z" transform="translate(-530.67 -511.98)" style="fill: #263441"></path></svg>