<svg xmlns="http://www.w3.org/2000/svg" id="Layer_1" data-name="Layer 1" viewBox="0 0 218.82 100.24"><path d="M507.61,549.55s3.63,4,3.63,13.34c0,13.27-14.69,23.79-14.69,37.3,0,16.33,9.51,21.41,9.51,28.39a7.79,7.79,0,0,1-1,4.51s-14.83-12.39-14.83-29.16c0-15.21,9.72-23.39,13.9-29.87,2.17-3.36,2.85-5,3-6.27a10.62,10.62,0,0,1-1.22-5.06c0-3,2-7.28,2-9.79a11.75,11.75,0,0,0-.41-3.39" transform="translate(-490.26 -549.55)" style="fill: #fff"></path><path d="M540.05,578.26c-.82-1.28-7.75-3.15-10-3.3l-.72,3.47a20.23,20.23,0,0,1,5.5,2c3.9,2,4.64,3.76,4.64,3.76s1.42-4.46.64-6" transform="translate(-490.26 -549.55)" style="fill: #fff"></path><path d="M537.77,632.63a23.25,23.25,0,0,0,1-7.13c-.37-6.88-3.59-9.79-11.42-17.76a10,10,0,0,1-2.58-9.49s-6-2.25-4.81-7c.67-2.77,3.79-3.1,6.56-3.4,7.21-.77,7.52-3.78,8.12-5.28,0,0,3.8,2.11,2.86,5.21s-4.11,3.07-5.54,3c-1.83-.16-7.48-1.32-8.26,1.15s1.91,4.55,6.43,5.71c6.58,1.76,9.19-.49,9.19-.49a6.14,6.14,0,0,1-1.15,3.44,5.84,5.84,0,0,1-3.64.9s-1.73,2.26,2.31,5c2.85,1.9,8.75,4,8.75,11.59,0,8.56-7.74,14.54-7.74,14.54" transform="translate(-490.26 -549.55)" style="fill: #fff"></path><path d="M525.84,594.59a5.52,5.52,0,0,1,4.71-1.8,24.91,24.91,0,0,0,8.39-.36,11.83,11.83,0,0,0,6.56-3.71,13,13,0,0,1-5.71,5.94,11.34,11.34,0,0,1-7.95.37c-4.93-1.43-6-.44-6-.44" transform="translate(-490.26 -549.55)" style="fill: #fff"></path><path d="M527.82,580a17.51,17.51,0,0,1,5.12,1.69,4.26,4.26,0,0,1-1.91,3.13c-1.77,1.15-4.28,1.26-6.65,1.6-2.85.42-5.64,1.73-6.22,4.28-1.36,5.83,4.65,8.71,4.65,8.71s-1.35,5,3.6,10c7.32,7.43,10.44,10.46,10.44,16.88,0,12.39-13.07,23.51-13.07,23.51s6.77-8.27,6.77-18.16c0-8.86-4.94-11-8.64-14.2-3.11-2.68-5.71-6.12-6-13.45-.65,3.78-2.64,5.38-2.64,9.52a12.57,12.57,0,0,0,1.07,5.19s-7.14-4.4-7.14-12.66c0-5.52,3.74-10.72,3.73-14.57-1.16,4-6.74,8.11-6.74,15.7a19.73,19.73,0,0,0,3,10.82A23.15,23.15,0,0,1,499,600.25c0-10.46,9.5-19.85,9.5-19.85s-.64-6.41,3.17-6.41a3,3,0,0,1,2.86,1.92,30.86,30.86,0,0,1,13.63-1.25l-.65,3.33L526,577.8a7.07,7.07,0,0,1,.11,1,2.37,2.37,0,0,1-4,1.55,2.31,2.31,0,0,1-.75-1.55,2.35,2.35,0,0,1,.41-1.34,29.41,29.41,0,0,0-8.19,1c0,.16,3.78,0,6,.38a4,4,0,0,0,.31,1.61,4.17,4.17,0,0,0,.91,1.36,4,4,0,0,0,1.36.91,4.1,4.1,0,0,0,1.62.31,4,4,0,0,0,4-3.11" transform="translate(-490.26 -549.55)" style="fill: #fff"></path><path d="M515.59,627.71a1.34,1.34,0,0,1,.39-1,1.36,1.36,0,0,1,.95-.39,1.33,1.33,0,0,1,1.34,1.34,1.36,1.36,0,0,1-.39.95,1.34,1.34,0,0,1-1,.39,1.33,1.33,0,0,1-1.34-1.34Zm-5.84,9.59a9.31,9.31,0,0,1,2-1.11,5.49,5.49,0,0,0,2.74-1.59,7.89,7.89,0,0,0,1.24-2.85c.14-.72.2-1.43,1.13-1.57.91.15,1,.88,1.1,1.61a7.53,7.53,0,0,0,1.14,2.85,5.46,5.46,0,0,0,2.67,1.67,10.35,10.35,0,0,1,2,1.19,10,10,0,0,1-.4-2.3,5.77,5.77,0,0,0-.66-3.08,8.22,8.22,0,0,0-2.28-2c-.63-.36-1.3-.64-1.15-1.54.45-.83,1.15-.65,1.86-.53a8.15,8.15,0,0,0,3.07-.22,5.49,5.49,0,0,0,2.41-2,10.4,10.4,0,0,1,1.76-1.55,11.72,11.72,0,0,1-2.35-.36,5.68,5.68,0,0,0-3.13-.33,7.79,7.79,0,0,0-2.66,1.54c-.53.49-1,1-1.83.6-.64-.67-.24-1.28,0-1.94a7.57,7.57,0,0,0,.75-3,5.53,5.53,0,0,0-1.17-2.86,9.25,9.25,0,0,1-.93-2.14,10.69,10.69,0,0,1-1,2.1,5.63,5.63,0,0,0-1.29,2.85,7.88,7.88,0,0,0,.66,3c.28.65.67,1.28,0,1.92-.84.42-1.3-.15-1.82-.67a7.85,7.85,0,0,0-2.58-1.61,5.61,5.61,0,0,0-3.14.21,9.81,9.81,0,0,1-2.3.23,12.33,12.33,0,0,1,1.65,1.66,5.55,5.55,0,0,0,2.35,2.1,7.58,7.58,0,0,0,3,.31c.72,0,1.42-.24,1.84.6.13.91-.56,1.17-1.2,1.51a7.63,7.63,0,0,0-2.34,2,5.61,5.61,0,0,0-.76,3,11,11,0,0,1-.48,2.28" transform="translate(-490.26 -549.55)" style="fill: #fff"></path><path d="M544.34,602a1.13,1.13,0,0,1,.2-.64,1.21,1.21,0,0,1,.52-.43,1.09,1.09,0,0,1,.67-.06,1.12,1.12,0,0,1,.9.9,1.09,1.09,0,0,1-.06.67,1.21,1.21,0,0,1-.43.52,1.13,1.13,0,0,1-.64.2,1.16,1.16,0,0,1-1.16-1.16Zm5.44-2.85a1.18,1.18,0,0,1-.5.11,1.11,1.11,0,0,1-.48-.05,1.22,1.22,0,0,1-.43-.24,1.18,1.18,0,0,1-.29-1.35,1.14,1.14,0,0,1,.29-.39,1.24,1.24,0,0,1,.43-.25,1.29,1.29,0,0,1,.48,0h.22a29,29,0,0,0-1.6-5.62,2.17,2.17,0,0,1-.17.84,2.3,2.3,0,0,1-.47.72c-1,.78-2.86,1.91-1.35,4,.83,1.17.75,1.54.32,1.92s-1.14,0-1.86-.64c-1.11-1.06-1.89-1.28-2.85-.64a2.31,2.31,0,0,0-.6,2.72,5.61,5.61,0,0,1,.34,1.76,5.23,5.23,0,0,1-.34,1.75c-.26.9-.53,2,.6,2.73s1.73.41,2.85-.63c.72-.65,1.33-1.14,1.86-.64s.51.76-.32,1.93c-1.42,2.11.4,3.24,1.35,4a2.3,2.3,0,0,1,.47.72,2.26,2.26,0,0,1,.17.85,28.84,28.84,0,0,0,1.61-5.71h-.23a1.16,1.16,0,0,1-1.15-1.15,1.15,1.15,0,0,1,.34-.82,1.13,1.13,0,0,1,.81-.34,1.06,1.06,0,0,1,.52.13v-1.43a1.78,1.78,0,0,1-.6.12,1.54,1.54,0,0,1-1.53-1.53,1.51,1.51,0,0,1,.45-1.08,1.5,1.5,0,0,1,1.08-.45,1.47,1.47,0,0,1,.62.13Z" transform="translate(-490.26 -549.55)" style="fill: #fff"></path><path d="M569.49,598.25v10.19a9.74,9.74,0,0,1-1,5.17c-2,3.15-6,3.31-6.81,3.31a9.75,9.75,0,0,1-4.28-1c-3.51-1.81-3.51-5-3.5-7.51V598.25h4.61v11.42a5,5,0,0,0,.33,2.27,3.34,3.34,0,0,0,1.32,1,3.25,3.25,0,0,0,1.63.24c3.1,0,3.1-2.13,3.13-3.54V598.22Z" transform="translate(-490.26 -549.55)" style="fill: #fff"></path><path d="M572.87,598.25h4.44l4,6.73c1.43,2.56,1.89,3.39,2.74,5l-.2-11.72h4.37v18.26h-4.44l-3.41-5.71a62.61,62.61,0,0,1-3.2-5.71l.13,11.42h-4.38Z" transform="translate(-490.26 -549.55)" style="fill: #fff"></path><path d="M596.14,598.25h-4.27v18.26h4.27Z" transform="translate(-490.26 -549.55)" style="fill: #fff"></path><path d="M610.45,598.25h4.85L609,616.51h-4.65l-6.25-18.26h4.87l3.76,13Z" transform="translate(-490.26 -549.55)" style="fill: #fff"></path><path d="M617.08,598.25h13.5v3.56h-8.94v3.29H630v3.47h-8.36v4.35h9.74v3.59h-14.3Z" transform="translate(-490.26 -549.55)" style="fill: #fff"></path><path d="M633.77,598.25H642c1.91,0,4.28,0,6,1.87a6.14,6.14,0,0,1,1.42,4.06,4.88,4.88,0,0,1-3.75,5l4.21,7.3h-5L641.19,610h-2.86v6.51h-4.58Zm4.58,3.41v4.94h3.78a2.43,2.43,0,0,0,1-.08,2.57,2.57,0,0,0,.91-.52,2.46,2.46,0,0,0,.61-.86,2.62,2.62,0,0,0,.18-1c0-2.32-1.69-2.41-2.64-2.44Z" transform="translate(-490.26 -549.55)" style="fill: #fff"></path><path d="M654.05,611a5.85,5.85,0,0,0,1.75,1.42,7.38,7.38,0,0,0,3.53.87c1.81,0,3.35-.84,3.35-2.11s-1.82-1.68-3.18-1.85c-1-.15-2-.27-3-.47s-4.91-1-4.91-5c0-4.71,4.2-6.11,7.35-6.11a11.19,11.19,0,0,1,8.07,3.47l-3.37,2.41a8.92,8.92,0,0,0-1.8-1.43,6.76,6.76,0,0,0-3-.8c-1.81,0-2.71,1-2.71,1.92,0,1.42,1.55,1.61,2.32,1.71a35.25,35.25,0,0,1,5.58,1.08,4.52,4.52,0,0,1,2.34,1.71,4.59,4.59,0,0,1,.82,2.78,6.07,6.07,0,0,1-1.43,3.86,8.82,8.82,0,0,1-6.85,2.46,9.69,9.69,0,0,1-8.33-3.7Z" transform="translate(-490.26 -549.55)" style="fill: #fff"></path><path d="M674.28,598.25H670v18.26h4.26Z" transform="translate(-490.26 -549.55)" style="fill: #fff"></path><path d="M676.41,598.22h14.07v3.63h-4.74v14.66h-4.58V601.85h-4.75Z" transform="translate(-490.26 -549.55)" style="fill: #fff"></path><path d="M690.82,598.25h5.24l3.94,6.27a8.42,8.42,0,0,1,.74-1.43l3.14-4.89h5.19l-6.9,9.62v8.56h-4.5v-8.56Z" transform="translate(-490.26 -549.55)" style="fill: #fff"></path><path d="M555.09,630.24h5v1.21h-6.35V621.17h1.37Z" transform="translate(-490.26 -549.55)" style="fill: #fff"></path><path d="M562.77,626.77v3.49h5.94v1.19h-7.27V621.19h7.1v1.2h-5.77v3.18h5v1.2Z" transform="translate(-490.26 -549.55)" style="fill: #fff"></path><path d="M571.47,621.19H570v10.27h1.43Z" transform="translate(-490.26 -549.55)" style="fill: #fff"></path><path d="M583.23,627.72a5,5,0,0,1-5.06,4c-3.38,0-5-2.55-5-5.41a4.79,4.79,0,0,1,.26-2.09,5,5,0,0,1,1.11-1.79,5,5,0,0,1,1.75-1.18,4.92,4.92,0,0,1,2.08-.33,4.46,4.46,0,0,1,4.67,3.14l-1.43.3a2.86,2.86,0,0,0-.6-1.16,3.37,3.37,0,0,0-1.21-.9,4.12,4.12,0,0,0-3.06,0,3.57,3.57,0,0,0-1.28,1,4.74,4.74,0,0,0-.85,2.94c0,2.55,1.3,4.28,3.66,4.28a3.31,3.31,0,0,0,3.42-3Z" transform="translate(-490.26 -549.55)" style="fill: #fff"></path><path d="M585.8,626.77v3.49h5.93v1.19h-7.25V621.19h7.08v1.2H585.8v3.18h5v1.2Z" transform="translate(-490.26 -549.55)" style="fill: #fff"></path><path d="M596.82,626.71c-1.43-.3-3.66-.8-3.66-2.85a2.6,2.6,0,0,1,.25-1.1,2.43,2.43,0,0,1,.7-.89,4,4,0,0,1,2.74-.88,4.61,4.61,0,0,1,2.77.75,3.64,3.64,0,0,1,.91,1.08,3.42,3.42,0,0,1,.41,1.35l-1.42.09a2.28,2.28,0,0,0-.21-1,2.19,2.19,0,0,0-.62-.76,3.18,3.18,0,0,0-1.83-.48c-1.24,0-2.33.5-2.33,1.61s1.13,1.43,2,1.6l1.14.28a12.85,12.85,0,0,1,1.61.46,2.64,2.64,0,0,1,1.77,2.56,2.87,2.87,0,0,1-1.31,2.49,5,5,0,0,1-2.86.73c-.94,0-4.12-.16-4.28-3.54l1.43-.18a2.64,2.64,0,0,0,.2,1.07,2.82,2.82,0,0,0,.63.9,3.15,3.15,0,0,0,2.11.68c1.43,0,2.55-.71,2.55-2s-.94-1.53-1.94-1.73Z" transform="translate(-490.26 -549.55)" style="fill: #fff"></path><path d="M606.44,622.37v9.08h-1.39v-9.08H602v-1.2h7.54v1.2Z" transform="translate(-490.26 -549.55)" style="fill: #fff"></path><path d="M612.16,626.77v3.49h5.94v1.19h-7.27V621.19h7.1v1.2h-5.77v3.18h5v1.2Z" transform="translate(-490.26 -549.55)" style="fill: #fff"></path><path d="M621,627.08v4.38h-1.34V621.19h3.81a4.72,4.72,0,0,1,3.09.63,2.91,2.91,0,0,1,.82,1,3,3,0,0,1,.25,1.31,2.66,2.66,0,0,1-.63,1.93,2.63,2.63,0,0,1-1.8.93l2.85,4.45h-1.62l-2.79-4.37Zm0-1.13h2.73a4.69,4.69,0,0,0,1.24-.1,1.56,1.56,0,0,0,1-.58,1.59,1.59,0,0,0,.33-1.07,1.73,1.73,0,0,0-.15-.78,1.9,1.9,0,0,0-.47-.65,2.88,2.88,0,0,0-2-.44H621Z" transform="translate(-490.26 -549.55)" style="fill: #fff"></path><path d="M634.56,624.43a1.8,1.8,0,0,1,1.06.31,1.88,1.88,0,0,1,.82,2,1.88,1.88,0,0,1-.52,1,2,2,0,0,1-1,.52,2,2,0,0,1-1.1-.11,2,2,0,0,1-.86-.71,2,2,0,0,1-.31-1.06,1.85,1.85,0,0,1,.56-1.33A1.88,1.88,0,0,1,634.56,624.43Z" transform="translate(-490.26 -549.55)" style="fill: #fff"></path><path d="M642,621.19h4.29a7.51,7.51,0,0,1,1.42.07,2.6,2.6,0,0,1,1.62.85,2.54,2.54,0,0,1,.65,1.7,2.18,2.18,0,0,1-.41,1.38,2.25,2.25,0,0,1-1.16.85,2.46,2.46,0,0,1,1.42.94,2.44,2.44,0,0,1,.48,1.63,2.61,2.61,0,0,1-.28,1.31,2.53,2.53,0,0,1-.89,1,5.13,5.13,0,0,1-3,.53h-4Zm1.3,1.2v3.11h2.13c1.55,0,2.28,0,2.75-.7a1.57,1.57,0,0,0,.26-.92c0-1.42-1.43-1.49-2-1.49Zm0,4.28v3.57h3a4.44,4.44,0,0,0,1.26-.09,1.46,1.46,0,0,0,.92-.59,1.51,1.51,0,0,0,.28-1,1.74,1.74,0,0,0-.25-1,1.66,1.66,0,0,0-.74-.67,5,5,0,0,0-2-.2Z" transform="translate(-490.26 -549.55)" style="fill: #fff"></path><path d="M653.38,626.77v3.49h5.93v1.19h-7.25V621.19h7.08v1.2h-5.76v3.18h5v1.2Z" transform="translate(-490.26 -549.55)" style="fill: #fff"></path><path d="M660.85,621.19h3.21a4.61,4.61,0,0,1,2.12.17,4.82,4.82,0,0,1,1.82,1.08,5.64,5.64,0,0,1,1.29,3.87,5.5,5.5,0,0,1-.31,2.17,5.29,5.29,0,0,1-1.12,1.88,4.75,4.75,0,0,1-3.47,1.09h-3.52Zm1.43,1.2v7.89h1.83a4.46,4.46,0,0,0,2.27-.43,3.69,3.69,0,0,0,1.28-1.54,3.64,3.64,0,0,0,.27-2c0-1.69-.5-3.26-2.14-3.76a6,6,0,0,0-1.88-.18Z" transform="translate(-490.26 -549.55)" style="fill: #fff"></path><path d="M672.52,626.62v4.83h-1.37V621.17h6.57v1.22h-5.2v3h4.85v1.19Z" transform="translate(-490.26 -549.55)" style="fill: #fff"></path><path d="M683.77,631.72a5.42,5.42,0,0,1-5.53-6.3,5.47,5.47,0,0,1,1.4-2.82,5.42,5.42,0,0,1,8.37.61,5.46,5.46,0,0,1,1,3,5.08,5.08,0,0,1-.25,2.12,5,5,0,0,1-2.86,3A5,5,0,0,1,683.77,631.72Zm0-9.69c-2.59,0-3.69,2-3.69,4.28s1,4.28,3.71,4.28,3.68-2.3,3.66-4.41c0-2.48-1.31-4.19-3.68-4.19" transform="translate(-490.26 -549.55)" style="fill: #fff"></path><path d="M692.18,627.08v4.38h-1.34V621.19h3.81a4.66,4.66,0,0,1,3.07.63,2.88,2.88,0,0,1,1.08,2.36,2.56,2.56,0,0,1-.12,1,2.73,2.73,0,0,1-.51.91,2.63,2.63,0,0,1-1.81.92l2.85,4.45h-1.62l-2.86-4.37Zm0-1.13h2.71a4.88,4.88,0,0,0,1.26-.1,1.51,1.51,0,0,0,1-.58,1.54,1.54,0,0,0,.33-1.07,1.86,1.86,0,0,0-.14-.78,1.9,1.9,0,0,0-.47-.65,2.83,2.83,0,0,0-2-.44h-2.64Z" transform="translate(-490.26 -549.55)" style="fill: #fff"></path><path d="M700.54,621.19h3.22a4.58,4.58,0,0,1,2.11.17,4.74,4.74,0,0,1,1.82,1.08,6.91,6.91,0,0,1,1,6,5.46,5.46,0,0,1-1.13,1.88,4.75,4.75,0,0,1-3.47,1.09h-3.52Zm1.43,1.2v7.89h1.81a4.44,4.44,0,0,0,2.27-.43,3.67,3.67,0,0,0,1.56-3.52c0-1.69-.5-3.26-2.14-3.76a6,6,0,0,0-1.89-.18Z" transform="translate(-490.26 -549.55)" style="fill: #fff"></path><path d="M630.44,568.56l1.4,4.33,1.51-4.33h1l-2.14,5.83h-.87L630,570l-1.42,4.35h-.91l-2-5.83h1.06l1.47,4.33,1.44-4.33Z" transform="translate(-490.26 -549.55)" style="fill: #fff"></path><path d="M639.48,568.56l1.4,4.33,1.51-4.33h1l-2.14,5.83h-.87L639,570l-1.43,4.35h-.9l-2-5.83h1.07l1.47,4.33,1.43-4.33Z" transform="translate(-490.26 -549.55)" style="fill: #fff"></path><path d="M648.51,568.56l1.4,4.33,1.51-4.33h1.05l-2.15,5.83h-.87L648.06,570l-1.43,4.35h-.9l-2-5.83h1.07l1.47,4.33,1.43-4.33Z" transform="translate(-490.26 -549.55)" style="fill: #fff"></path><path d="M661.59,565.63v8.75h-1v-.76a2.29,2.29,0,0,1-.89.71,2.39,2.39,0,0,1-1.12.22c-1.68,0-2.67-1.27-2.67-3.13a2.7,2.7,0,0,1,.09-1.13,2.59,2.59,0,0,1,.55-1,2.68,2.68,0,0,1,.91-.69,2.61,2.61,0,0,1,1.11-.24,2.53,2.53,0,0,1,1.12.23,2.61,2.61,0,0,1,.9.71v-3.68ZM657,571.48c0,1.2.56,2.2,1.81,2.2s1.84-.84,1.84-2.24c0-1.66-1-2.17-1.8-2.19S657,569.7,657,571.48Z" transform="translate(-490.26 -549.55)" style="fill: #fff"></path><path d="M664.12,568.56v.77a2.28,2.28,0,0,1,.76-.69,2.25,2.25,0,0,1,1-.27,1.7,1.7,0,0,1,1,.3,1.75,1.75,0,0,1,.63.77,2.86,2.86,0,0,1,.86-.73,2.9,2.9,0,0,1,1.08-.34,1.75,1.75,0,0,1,1,.27,1.79,1.79,0,0,1,.65.74,3.22,3.22,0,0,1,.17,1.34v3.66h-1V571a4.71,4.71,0,0,0,0-.92,1,1,0,0,0-.39-.55,1,1,0,0,0-.64-.18,1.73,1.73,0,0,0-1.14.48c-.31.35-.34.62-.34,1.32v3.28h-1v-3.76a1.43,1.43,0,0,0-.23-.92,1,1,0,0,0-.38-.3,1,1,0,0,0-.47-.1,1.7,1.7,0,0,0-1.09.43,1.38,1.38,0,0,0-.34.54,1.27,1.27,0,0,0,0,.64v3.47h-1v-5.82Z" transform="translate(-490.26 -549.55)" style="fill: #fff"></path><path d="M672.76,568.56h1v3.32a3.66,3.66,0,0,0,0,.81,1,1,0,0,0,.12.39,1.18,1.18,0,0,0,.27.32,1.16,1.16,0,0,0,.37.18.94.94,0,0,0,.41,0,1.73,1.73,0,0,0,.71-.14,1.67,1.67,0,0,0,.6-.42,2.24,2.24,0,0,0,.36-1.57v-2.92h1v5.82h-1v-.89a2.44,2.44,0,0,1-2,1,1.72,1.72,0,0,1-.78-.14,1.75,1.75,0,0,1-.65-.46c-.41-.49-.41-1-.41-2Z" transform="translate(-490.26 -549.55)" style="fill: #fff"></path><path d="M685.53,570.9v-.16c0-.6,0-1.61-1.31-1.61S683,570,683,570.35h-1a2.51,2.51,0,0,1,.24-.88,2.23,2.23,0,0,1,.86-.81,2.2,2.2,0,0,1,1.15-.22,2.92,2.92,0,0,1,1.72.49,2.15,2.15,0,0,1,.62,2v1.89c0,.56,0,.85.43.85h.32v.85a2.59,2.59,0,0,1-.62.1.93.93,0,0,1-.37,0,.92.92,0,0,1-.32-.18.86.86,0,0,1-.23-.3,1.06,1.06,0,0,1-.09-.36,2.67,2.67,0,0,1-2,1,1.75,1.75,0,0,1-.72-.07,1.68,1.68,0,0,1-.63-.34,1.78,1.78,0,0,1-.45-.57,1.82,1.82,0,0,1-.19-.69,1.65,1.65,0,0,1,.26-.89c.34-.5,1-.9,2.71-1Zm-1.53.9c-1.08.22-1.28.64-1.28,1.05s.38.87,1.11.87a1.55,1.55,0,0,0,1.54-.88c.16-.33.17-.46.17-1.32A9.67,9.67,0,0,0,684,571.8Z" transform="translate(-490.26 -549.55)" style="fill: #fff"></path><path d="M693.55,572.28a2.89,2.89,0,0,1-.33,1,2.51,2.51,0,0,1-2.4,1.29,2.8,2.8,0,0,1-1.14-.23,2.74,2.74,0,0,1-.95-.67,2.86,2.86,0,0,1-.6-1,4.91,4.91,0,0,1,0-2.33,3,3,0,0,1,.6-1,2.86,2.86,0,0,1,1-.7,3,3,0,0,1,1.17-.24,2.52,2.52,0,0,1,1.72.47,2.58,2.58,0,0,1,1,1.49l-1.09.1a1.49,1.49,0,0,0-.14-.56,1.56,1.56,0,0,0-.35-.45,1.41,1.41,0,0,0-.51-.28,1.36,1.36,0,0,0-.57-.06c-1.7,0-1.77,1.84-1.77,2.37a2.87,2.87,0,0,0,.39,1.57,1.64,1.64,0,0,0,.61.59,1.77,1.77,0,0,0,.82.2,1.53,1.53,0,0,0,.63-.11,1.62,1.62,0,0,0,.54-.35,1.42,1.42,0,0,0,.36-.54,1.36,1.36,0,0,0,.12-.63Z" transform="translate(-490.26 -549.55)" style="fill: #fff"></path><path d="M697.53,568.56h1v3.32a3.66,3.66,0,0,0,0,.81,1.06,1.06,0,0,0,.13.39,1.14,1.14,0,0,0,.26.32,1.27,1.27,0,0,0,.37.18.94.94,0,0,0,.41,0,1.72,1.72,0,0,0,1.31-.56,2.19,2.19,0,0,0,.36-1.57v-2.92h1v5.82h-1v-.89a2.3,2.3,0,0,1-.87.77,2.49,2.49,0,0,1-1.13.28,1.89,1.89,0,0,1-.78-.14,1.75,1.75,0,0,1-.64-.46c-.42-.49-.42-1-.42-2Z" transform="translate(-490.26 -549.55)" style="fill: #fff"></path><path d="M704,565.64v8.75h1v-2l.71-.74,2.09,2.79H709l-2.67-3.54,2.18-2.29h-1.22L705,571v-5.38Z" transform="translate(-490.26 -549.55)" style="fill: #fff"></path><path d="M553.88,579.06h4.88c1.82,0,4.61.07,6.53,1.78a7.39,7.39,0,0,1,2.16,5.71,10.61,10.61,0,0,1-.39,2.86c-1.42,4.66-5.59,4.73-7.13,4.76H554Zm3.79,3.18v8.86h1.16c2,0,4.78-.14,4.78-4.48a4.83,4.83,0,0,0-.79-3,3.94,3.94,0,0,0-1.63-1.19,4.05,4.05,0,0,0-2-.24Z" transform="translate(-490.26 -549.55)" style="fill: #fff"></path><path d="M569.46,579.06h11.15V582h-7.39v2.74h6.9v2.87h-6.9v3.59h8.06v3H569.46Z" transform="translate(-490.26 -549.55)" style="fill: #fff"></path><path d="M605.72,579.06v15.08h-3.61l.23-10.74v-1.52l-.13.53c-.18.86-.21,1-.38,1.62L599,594.14h-3.11L593,584.45l-.66-2.69a22.66,22.66,0,0,0,.13,2.85l.19,9.51H589V579.06h5.51l2.31,8.46.53,2.41c.22-1,.24-1.15.42-1.85l2.41-9Z" transform="translate(-490.26 -549.55)" style="fill: #fff"></path><path d="M615.58,594.57c-4.78,0-7.49-3.67-7.49-8,0-4.08,2.58-7.95,7.44-7.95a8.06,8.06,0,0,1,2.75.46c4.61,1.59,4.91,6.62,4.91,7.64a8.19,8.19,0,0,1-2.85,6.3,7.29,7.29,0,0,1-4.74,1.58Zm2.63-11.73A4,4,0,0,0,617,582a3.78,3.78,0,0,0-1.45-.28c-2.28,0-3.73,2-3.73,4.75,0,3.58,2,4.91,3.78,4.91s3.72-1.28,3.82-4.44A6,6,0,0,0,618.21,582.84Z" transform="translate(-490.26 -549.55)" style="fill: #fff"></path><path d="M625.55,579.06h3.69l3.26,5.55c1.2,2.13,1.57,2.85,2.27,4.13l-.17-9.68h3.61v15.08h-3.7l-2.85-4.76a42.26,42.26,0,0,1-2.66-4.71l.1,9.47h-3.59Z" transform="translate(-490.26 -549.55)" style="fill: #fff"></path><path d="M639.83,579h11.62v3h-3.91v12.11h-3.78V582h-3.93Z" transform="translate(-490.26 -549.55)" style="fill: #fff"></path><path d="M664.69,579.06V582h-7.82v3.15h7.19v2.94h-7.19v6.08h-3.75V579.06Z" transform="translate(-490.26 -549.55)" style="fill: #fff"></path><path d="M673.43,594.57c-4.78,0-7.5-3.67-7.5-8,0-4.08,2.59-7.95,7.44-7.95a8,8,0,0,1,2.75.45c4.61,1.6,4.91,6.63,4.91,7.65a8,8,0,0,1-.73,3.47,8.17,8.17,0,0,1-2.12,2.83A7.3,7.3,0,0,1,673.43,594.57ZM676,582.84a3.94,3.94,0,0,0-1.22-.83,3.7,3.7,0,0,0-1.44-.28c-2.28,0-3.72,2-3.72,4.75,0,3.58,2,4.91,3.77,4.91s3.72-1.29,3.82-4.44A5.86,5.86,0,0,0,676,582.84Z" transform="translate(-490.26 -549.55)" style="fill: #fff"></path><path d="M683.39,579.06h6.79a6.42,6.42,0,0,1,4.94,1.54,5.09,5.09,0,0,1,1.2,3.35,4.06,4.06,0,0,1-3.1,4.17l3.47,6h-4.15l-3-5.38H687.2v5.38h-3.78Zm3.78,2.85V586h3.11a1.92,1.92,0,0,0,.86-.07,2.2,2.2,0,0,0,.76-.43,2.06,2.06,0,0,0,.49-.71,1.92,1.92,0,0,0,.16-.85c0-1.93-1.43-2-2.17-2Z" transform="translate(-490.26 -549.55)" style="fill: #fff"></path><path d="M697.22,579v3h3.93v12.11h3.79V582h3.91v-3Z" transform="translate(-490.26 -549.55)" style="fill: #fff"></path><path d="M654.26,573.14H653v1.25h1.25Z" transform="translate(-490.26 -549.55)" style="fill: #fff"></path><path d="M680.34,573.14h-1.26v1.25h1.26Z" transform="translate(-490.26 -549.55)" style="fill: #fff"></path><path d="M696,573.14h-1.26v1.25H696Z" transform="translate(-490.26 -549.55)" style="fill: #fff"></path></svg>