<svg xmlns="http://www.w3.org/2000/svg" xmlns:xlink="http://www.w3.org/1999/xlink" id="Layer_1" data-name="Layer 1" viewBox="0 0 310.9 576.99"><defs><clipPath id="clip-path" transform="translate(-444.21 -311.15)"><rect x="444.21" y="311.19" width="310.91" height="576.99" style="fill: none"></rect></clipPath><clipPath id="clip-path-2" transform="translate(-444.21 -311.15)"><rect x="475.3" y="350.19" width="159" height="15.43" style="fill: none"></rect></clipPath><clipPath id="clip-path-3" transform="translate(-444.21 -311.15)"><rect x="472.3" y="391.19" width="254.24" height="465.59" style="fill: none"></rect></clipPath><clipPath id="clip-path-4" transform="translate(-444.21 -311.15)"><rect x="603.3" y="471.19" width="87" height="56" style="fill: none"></rect></clipPath></defs><g style="clip-path: url(#clip-path)"><g><path d="M755.11,859.14v-519a29,29,0,0,0-29-29H473.21a29,29,0,0,0-29,29v519a29,29,0,0,0,29,29h252.9A29,29,0,0,0,755.11,859.14Z" transform="translate(-444.21 -311.15)" style="fill: #f3f5f6"></path><path d="M746.9,857.62V341.68a22.44,22.44,0,0,0-22.44-22.44H474.85a22.44,22.44,0,0,0-22.44,22.44V857.62a22.44,22.44,0,0,0,22.44,22.44H724.46A22.44,22.44,0,0,0,746.9,857.62Z" transform="translate(-444.21 -311.15)" style="fill: none;stroke: #2e4455;stroke-miterlimit: 10;stroke-width: 1.5px"></path><path d="M693.7,378.15a20.41,20.41,0,1,0-20.4-20.41A20.41,20.41,0,0,0,693.7,378.15Z" transform="translate(-444.21 -311.15)" style="fill: #fc0"></path><path d="M712.66,357.74l-6.92-6.92-6.92,6.92,6.92,6.93Z" transform="translate(-444.21 -311.15)" style="fill: none;stroke: #2a3b4b;stroke-miterlimit: 10;stroke-width: 1.65871000289917px"></path><path d="M705.75,343V331.19" transform="translate(-444.21 -311.15)" style="fill: none;stroke: #2a3b4b;stroke-miterlimit: 10;stroke-width: 1.65871000289917px"></path><path d="M705.75,384.3V372.44" transform="translate(-444.21 -311.15)" style="fill: none;stroke: #2a3b4b;stroke-miterlimit: 10;stroke-width: 1.65871000289917px"></path><path d="M695.35,347.35l-5.48-5.48" transform="translate(-444.21 -311.15)" style="fill: none;stroke: #2a3b4b;stroke-miterlimit: 10;stroke-width: 1.65871000289917px"></path><path d="M721.63,373.62l-5.48-5.48" transform="translate(-444.21 -311.15)" style="fill: none;stroke: #2a3b4b;stroke-miterlimit: 10;stroke-width: 1.65871000289917px"></path><path d="M691,357.75H673.3" transform="translate(-444.21 -311.15)" style="fill: none;stroke: #2a3b4b;stroke-miterlimit: 10;stroke-width: 1.65871000289917px"></path><path d="M732.3,357.75H720.44" transform="translate(-444.21 -311.15)" style="fill: none;stroke: #2a3b4b;stroke-miterlimit: 10;stroke-width: 1.65871000289917px"></path><path d="M695.35,368.14l-5.48,5.48" transform="translate(-444.21 -311.15)" style="fill: none;stroke: #2a3b4b;stroke-miterlimit: 10;stroke-width: 1.65871000289917px"></path><path d="M721.59,341.9l-5.44,5.45" transform="translate(-444.21 -311.15)" style="fill: none;stroke: #2a3b4b;stroke-miterlimit: 10;stroke-width: 1.65871000289917px"></path><g style="clip-path: url(#clip-path-2)"><g><path d="M480.43,351.2h2.91l5.07,14.15h-2.17l-1.13-3.19h-6.53l-1.13,3.19h-2.12Zm4,9.07-2.5-7.11h-.16l-2.53,7.11Z" transform="translate(-444.21 -311.15)" style="fill: #293b4a"></path><path d="M489.21,360.08c0-3.17,2.05-5.55,5-5.55a4.1,4.1,0,0,1,1.94.45,4,4,0,0,1,1.48,1.33h.17v-6.12h2v15.16h-2v-1.46h-.14a4,4,0,0,1-3.36,1.73C491.38,365.62,489.21,363.29,489.21,360.08Zm8.62,0c0-2.35-1.5-3.7-3.31-3.7a3.71,3.71,0,0,0,0,7.38c2,0,3.28-1.66,3.28-3.67Z" transform="translate(-444.21 -311.15)" style="fill: #293b4a"></path><path d="M501.66,354.8h2.12l2.9,8.67h.16l2.88-8.67h2.2l-3.77,10.56h-2.7Z" transform="translate(-444.21 -311.15)" style="fill: #293b4a"></path><path d="M512.85,360.09a5.26,5.26,0,0,1,5.21-5.56c3.22,0,5.11,2.29,5.11,5.44v.63h-8.25a3,3,0,0,0,3.24,3.28,2.91,2.91,0,0,0,2.92-2.05l1.88.47a4.77,4.77,0,0,1-4.8,3.32C514.94,365.62,512.85,363.33,512.85,360.09Zm8.27-1a2.89,2.89,0,0,0-3.06-2.79,3.09,3.09,0,0,0-2.11.79,3,3,0,0,0-1,2Z" transform="translate(-444.21 -311.15)" style="fill: #293b4a"></path><path d="M525.44,354.8h2v1.37h.16a3.27,3.27,0,0,1,3-1.64,3.8,3.8,0,0,1,3.88,4.05v6.77h-2v-6.43a2.37,2.37,0,0,0-.15-.95,2.34,2.34,0,0,0-.52-.82,2.35,2.35,0,0,0-1.76-.73,2.38,2.38,0,0,0-1,.2,2.58,2.58,0,0,0-1.44,1.46,2.7,2.7,0,0,0-.17,1v6.25h-2Z" transform="translate(-444.21 -311.15)" style="fill: #293b4a"></path><path d="M538.35,362.26v-5.72h-1.92V354.8h2v-3h1.89v3h3.12v1.74h-3.12v5.7c0,.95.38,1.35,1.32,1.35h1.68v1.76h-1.71C539.67,365.35,538.35,364.44,538.35,362.26Z" transform="translate(-444.21 -311.15)" style="fill: #293b4a"></path><path d="M545.75,361.57V354.8h2v6.43a2.38,2.38,0,0,0,.16.95,2.29,2.29,0,0,0,.52.82,2.39,2.39,0,0,0,1.75.72,2.82,2.82,0,0,0,1-.2,2.51,2.51,0,0,0,.86-.58,2.58,2.58,0,0,0,.75-1.9V354.8h2v10.56h-2V364h-.16a3.27,3.27,0,0,1-3,1.64A3.79,3.79,0,0,1,545.75,361.57Z" transform="translate(-444.21 -311.15)" style="fill: #293b4a"></path><path d="M557,362.38l1.87-.42a2.14,2.14,0,0,0,2.41,1.88c1.35,0,2.09-.59,2.09-1.48,0-2.54-6-.52-6-4.75,0-1.8,1.56-3.07,3.88-3.07a3.69,3.69,0,0,1,3.93,2.93l-1.76.51a2,2,0,0,0-2.23-1.66c-1.2,0-1.88.54-1.88,1.31,0,2.31,6.11.26,6.11,4.58,0,2-1.66,3.41-4.19,3.41C558.86,365.62,557.27,364.42,557,362.38Z" transform="translate(-444.21 -311.15)" style="fill: #293b4a"></path><path d="M584.78,353.93a5.68,5.68,0,0,0-1.24-2,6.9,6.9,0,0,0-5.18-1.79h-7l-.67,3.75h1.59l-.14.8-1.25,7.07-.67,3.82H576a10,10,0,0,0,4.82-1.13,8.25,8.25,0,0,0,2.95-2.68c.11-.17.21-.35.31-.51a9.12,9.12,0,0,0,1.16-4.62A7.37,7.37,0,0,0,584.78,353.93Zm-4.33,5.6a3.81,3.81,0,0,1-1.57,1.66,5.31,5.31,0,0,1-2.62.6H575l1.39-7.82h1.45a3.4,3.4,0,0,1,2.42.71,2.93,2.93,0,0,1,.7,2.19,5.85,5.85,0,0,1-.55,2.67Z" transform="translate(-444.21 -311.15)" style="fill: #293b4a"></path><path d="M627.78,354.27l-.27,1.53h5.2l-.7,4H626.8l-.31,1.72h5.8l-.74,4.07H621.13l2.74-15.42H634.3l-.76,4.08Z" transform="translate(-444.21 -311.15)" style="fill: #293b4a"></path><path d="M606.72,350.19l-.67,3.76-.14.79-1.25,7.06-.68,3.81h-4.63l.68-3.81,1.25-7.06.14-.79h-1.34l.67-3.76h6Z" transform="translate(-444.21 -311.15)" style="fill: #293b4a"></path><path d="M598.11,358.13a5.17,5.17,0,0,0,1.14-3.37,4.28,4.28,0,0,0-.07-.81,4.4,4.4,0,0,0-.51-1.45,4.34,4.34,0,0,0-1.8-1.7,6,6,0,0,0-2.82-.61H586.6l-.67,3.75h1.15l-.13.79-1.25,7.06-.67,3.82h4.63l.68-3.82.25-1.41h1l.41,1.41,1.13,3.82h4.94l-1.22-3.82-.7-2.17A5.67,5.67,0,0,0,598.11,358.13Zm-3.64-1.76a2.31,2.31,0,0,1-1.6.5h-2.12l.52-2.92h2.34a1.69,1.69,0,0,1,1.11.28,1.1,1.1,0,0,1,.23.37,1,1,0,0,1,.06.42,1.58,1.58,0,0,1-.11.74A1.62,1.62,0,0,1,594.47,356.37Z" transform="translate(-444.21 -311.15)" style="fill: #293b4a"></path><path d="M623.48,350.19,621.43,354l-4.27,7.85-2.08,3.81h-4.52l-.72-3.81-1.34-7.06-.15-.79H607l.66-3.71v-.05h4.82l.64,3.76.82,4.75,2.5-4.75,2-3.76Z" transform="translate(-444.21 -311.15)" style="fill: #293b4a"></path></g></g></g></g></svg>