<svg xmlns="http://www.w3.org/2000/svg" id="Layer_1" data-name="Layer 1" viewBox="0 0 138 175.37"><path d="M658.67,512h-118a10,10,0,0,0-10,10V677.35a10,10,0,0,0,10,10h118a10,10,0,0,0,10-10V522A10,10,0,0,0,658.67,512Z" transform="translate(-530.67 -511.98)" style="fill: #fff"></path><path d="M657.07,647.31h-36.2a2.43,2.43,0,0,0-1.86.63,2.39,2.39,0,0,0-.59.81,2.43,2.43,0,0,0,.59,2.78,2.48,2.48,0,0,0,1.86.62h36.2a2.39,2.39,0,0,0,1-.12,2.44,2.44,0,0,0,.87-.5,2.65,2.65,0,0,0,.58-.82,2.39,2.39,0,0,0,0-2,2.5,2.5,0,0,0-.58-.81,2.47,2.47,0,0,0-.87-.51A2.39,2.39,0,0,0,657.07,647.31Z" transform="translate(-530.67 -511.98)" style="fill: #19ad4a"></path><path d="M576.88,636.67H544.4a4.78,4.78,0,0,0-4.78,4.78v28.18a4.78,4.78,0,0,0,4.78,4.78h32.48a4.78,4.78,0,0,0,4.78-4.78V641.45A4.78,4.78,0,0,0,576.88,636.67Z" transform="translate(-530.67 -511.98)" style="fill: #19ad4a"></path><path d="M564.42,648.6v-2.31l-7.66-.07v2.32a.63.63,0,0,1-.06.27.91.91,0,0,1-.15.23.78.78,0,0,1-.24.16.86.86,0,0,1-.27,0h-3v4.83c-.06,6.82,7.46,10.51,7.46,10.51s7.57-3.56,7.63-10.39v-4.83h-3a.75.75,0,0,1-.51-.21.74.74,0,0,1-.2-.51Z" transform="translate(-530.67 -511.98)" style="fill: none;stroke: #f1f3f5;stroke-miterlimit: 10;stroke-width: 1.5px"></path><path d="M557.36,656.16h6.41" transform="translate(-530.67 -511.98)" style="fill: none;stroke: #f1f3f5;stroke-miterlimit: 10;stroke-width: 1.5px"></path><path d="M557.36,652.94h6.41" transform="translate(-530.67 -511.98)" style="fill: none;stroke: #f1f3f5;stroke-miterlimit: 10;stroke-width: 1.5px"></path><path d="M553.84,664.83h13.45" transform="translate(-530.67 -511.98)" style="fill: none;stroke: #f1f3f5;stroke-miterlimit: 10;stroke-width: 1.5px"></path><path d="M590.26,652.35V642.22h2.2l3.23,6.43,3.19-6.43h2.2v10.13h-1.86v-7l-2.82,5.55h-1.46l-2.82-5.55v7Zm13.64,3.19,1.66-3.66h-.43l-2.8-6.71h2l2,5.06,2.1-5.06h2l-4.56,10.37Zm-9.77,14a4.45,4.45,0,0,1-2-.43,3.47,3.47,0,0,1-1.44-1.35,4.39,4.39,0,0,1-.52-2.27v-6.25H592v6.26a2,2,0,0,0,2.15,2.35,2.45,2.45,0,0,0,1.59-.58,2.4,2.4,0,0,0,.47-.82,2.56,2.56,0,0,0,.11-1v-6.26h1.85v6.24a4.29,4.29,0,0,1-.55,2.27,3.44,3.44,0,0,1-1.48,1.35,4.61,4.61,0,0,1-2,.47Zm5.9-.17v-7.18h1.64l.14,1.21a2.53,2.53,0,0,1,1-1,2.88,2.88,0,0,1,1.49-.38,2.59,2.59,0,0,1,1.13.19,2.56,2.56,0,0,1,.94.65,3.67,3.67,0,0,1,.74,2.47v4h-1.86v-3.9a2.37,2.37,0,0,0-.37-1.42,1.55,1.55,0,0,0-.53-.39,1.46,1.46,0,0,0-.65-.1,1.68,1.68,0,0,0-.7.13,1.63,1.63,0,0,0-.58.42,2.24,2.24,0,0,0-.5,1.53v3.71Zm9.81-8.3a1.18,1.18,0,0,1-.84-.3,1.07,1.07,0,0,1-.25-.35,1,1,0,0,1-.07-.42,1,1,0,0,1,.07-.41.94.94,0,0,1,.25-.34,1.22,1.22,0,0,1,.84-.3,1.13,1.13,0,0,1,1.07.64,1,1,0,0,1,.09.41,1,1,0,0,1-.09.42.9.9,0,0,1-.25.35,1.19,1.19,0,0,1-.38.25,1.11,1.11,0,0,1-.44.08Zm-.93,8.3v-7.18h1.85v7.18Zm5.73,0L612,662.19h1.94l1.83,5.43,1.82-5.43h1.94l-2.65,7.18Zm9.2.17a3.82,3.82,0,0,1-1.93-.46,3.3,3.3,0,0,1-1.32-1.3,3.74,3.74,0,0,1-.47-1.94,4.11,4.11,0,0,1,.46-2,3.42,3.42,0,0,1,1.3-1.34,3.79,3.79,0,0,1,2-.5,3.71,3.71,0,0,1,1.87.47,3.34,3.34,0,0,1,1.26,1.27,3.48,3.48,0,0,1,.46,1.78v.7H622a2,2,0,0,0,.14.71,1.84,1.84,0,0,0,.41.59,1.79,1.79,0,0,0,1.32.49,1.74,1.74,0,0,0,.94-.24,1.64,1.64,0,0,0,.58-.67h1.88a3.46,3.46,0,0,1-.68,1.25,3.34,3.34,0,0,1-1.15.86,3.48,3.48,0,0,1-1.61.36Zm0-6a2,2,0,0,0-1.2.39,1.74,1.74,0,0,0-.67,1.16h3.64a1.71,1.71,0,0,0-.15-.62,1.55,1.55,0,0,0-.37-.51,1.76,1.76,0,0,0-1.24-.41Zm5.15,5.85v-7.18h1.62l.17,1.34a2.94,2.94,0,0,1,1.06-1.1,3.05,3.05,0,0,1,1.59-.42v2h-.52a2.83,2.83,0,0,0-1.08.19,1.51,1.51,0,0,0-.76.65,2.74,2.74,0,0,0-.26,1.29v3.27Zm8.71.17a4.35,4.35,0,0,1-1.68-.3,2.94,2.94,0,0,1-1.16-.87,2.46,2.46,0,0,1-.52-1.27h1.87a1.17,1.17,0,0,0,.46.72,1.61,1.61,0,0,0,1,.29,1.27,1.27,0,0,0,.88-.25.74.74,0,0,0,.21-.25.79.79,0,0,0,.08-.31.59.59,0,0,0-.1-.38.64.64,0,0,0-.3-.24,6.65,6.65,0,0,0-1.13-.34c-.31-.06-.63-.15-.94-.24a4.61,4.61,0,0,1-.89-.36,2,2,0,0,1-.63-.58,1.47,1.47,0,0,1-.25-.89,2,2,0,0,1,.19-.89,2,2,0,0,1,.56-.71,3.73,3.73,0,0,1,4.15-.06,2.52,2.52,0,0,1,.62.72,2.43,2.43,0,0,1,.29.91h-1.75c-.1-.53-.5-.79-1.2-.79a1.5,1.5,0,0,0-.81.2.63.63,0,0,0-.21.22.59.59,0,0,0-.07.29c0,.21.14.38.42.5a5.4,5.4,0,0,0,1.12.35,12.3,12.3,0,0,1,1.37.39,2.34,2.34,0,0,1,1,.63,1.66,1.66,0,0,1,.37,1.17,2,2,0,0,1-.34,1.2,2.4,2.4,0,0,1-1,.84,3.84,3.84,0,0,1-1.6.31Zm5.64-8.47a1.18,1.18,0,0,1-.84-.3,1.07,1.07,0,0,1-.25-.35,1,1,0,0,1-.07-.42,1,1,0,0,1,.07-.41.94.94,0,0,1,.25-.34,1.22,1.22,0,0,1,.84-.3,1.19,1.19,0,0,1,.82.3.94.94,0,0,1,.25.34,1,1,0,0,1,.08.41,1.16,1.16,0,0,1-.08.42,1.13,1.13,0,0,1-1.06.66Zm-.93,8.3v-7.18h1.85v7.18Zm7,0a2.74,2.74,0,0,1-1.81-.55,2.4,2.4,0,0,1-.58-.92,2.48,2.48,0,0,1-.1-1.08v-3.12h-1.24v-1.55h1.24l.21-1.93h1.64v1.93h1.94v1.55h-1.94v3.14a.81.81,0,0,0,0,.38.88.88,0,0,0,.19.34,1.19,1.19,0,0,0,.78.19h.9v1.58Zm3.79,3.18,1.66-3.66h-.43l-2.8-6.7h2l2,5,2.1-5h2l-4.56,10.36Z" transform="translate(-530.67 -511.98)" style="fill: #293b4a"></path><path d="M595.59,612.56a34.7,34.7,0,1,0-34.7-34.7A34.7,34.7,0,0,0,595.59,612.56Z" transform="translate(-530.67 -511.98)" style="fill: #19ad4a"></path><path d="M626.67,544.61,557.06,616l2,2,69.61-71.36Z" transform="translate(-530.67 -511.98)" style="fill: #263441"></path><path d="M639.38,571.6l-.09-37.79-37.84.13v-2.81l40.65-.13.1,40.59Z" transform="translate(-530.67 -511.98)" style="fill: #263441"></path></svg>