<svg xmlns="http://www.w3.org/2000/svg" id="Layer_1" data-name="Layer 1" viewBox="0 0 216.27 43.23"><path d="M575.49,588.48h.14v1.1l-.87.11c-1.45.21-1.45.48-1.45,3.75v11.87c0,3.29,0,3.54,1.44,3.76l.88.11v1.09H566.5v-1.15h.1l.67-.08h.12c1.35-.21,1.35-.47,1.35-3.75v-5.55h-9.59v5.57c0,3.26,0,3.52,1.35,3.73l.89.11v1.1h-9v-1.13h.9c1.43-.21,1.43-.47,1.43-3.72V593.49c0-3.26,0-3.53-1.35-3.75l-.91-.11v-1.09h9.13v1.09h-.1l-.73.1c-1.35.21-1.35.48-1.35,3.72v4.64H569v-4.61c0-3.27,0-3.54-1.35-3.75l-.9-.11v-1.1Z" transform="translate(-491.62 -577.94)" style="fill: #fff"></path><path d="M611.71,588.5a7.33,7.33,0,0,1,1.61-.21h.13l8.65,16.13,8.11-15.95a5.48,5.48,0,0,1,1.66-.2H632l1,17.89c.14,2.49.57,2.71,1.46,2.81l1.09.19v1.08h-9.45v-1.08l1.17-.19c1.25-.21,1.57-.27,1.57-1.87v-.53l-.4-10.81-6.65,14.08a5.46,5.46,0,0,1-1.26.34h-.09l-7.26-14.54-.37,10.81v.69c0,1.35.33,1.47,1.56,1.71l1.19.19v1.08h-7.36V609l1-.19c.87-.17,1.35-.36,1.47-2.52,0,0,1.08-17.56,1.11-18h.09" transform="translate(-491.62 -577.94)" style="fill: #fff"></path><path d="M679.67,588.48h.09a.21.21,0,0,1,0,.11,24.24,24.24,0,0,1,.4,5.31V594l-1.36.2a.24.24,0,0,0,0-.12C678,590,677,590,673.59,590h-2.23v8.1h2.07c2.93,0,3.25,0,3.43-1.35,0,0,.18-1.22.18-1.26h1.09v6.76H677l-.18-1.16c-.22-1.35-.57-1.35-3.3-1.35h-2.23v8.48a13.63,13.63,0,0,0,3.17.46c4.51,0,5.07-2.16,5.67-4.45l.13-.54,1.36.29v.11a22.68,22.68,0,0,1-1.09,6,.17.17,0,0,1,0,.1H664.5v-1.1l.88-.1h.12c1.35-.26,1.35-.26,1.35-3.75V593.4c0-3.43,0-3.42-1.26-3.72h-.17l-.89-.12v-1.09Z" transform="translate(-491.62 -577.94)" style="fill: #fff"></path><path d="M596.68,588.48h7.47v1.1l-.73.21c-.87.23-1.35.45-1.35,2.61l-.21,8v1.52c-.31,5.87-3.18,8.84-8.59,8.84-6.75,0-10-3.06-10-9.31v-8.1c0-3.25,0-3.5-1.35-3.72l-.91-.11v-1.09h9.14v1.09l-.9.11c-1.35.22-1.35.47-1.35,3.72v9.74a5.62,5.62,0,0,0,6,5.84,5.4,5.4,0,0,0,5.48-5.17,27,27,0,0,0,.18-3.36l-.14-8.46c0-2.09-.24-2.12-1.68-2.32l-1-.11Z" transform="translate(-491.62 -577.94)" style="fill: #fff"></path><path d="M649.87,608.77a7.12,7.12,0,0,1-2.5-.48v-8.81h1.27c4.05,0,5.4,2.58,5.4,5C654,607.25,652.57,608.77,649.87,608.77Zm-2.52-18.56a6.12,6.12,0,0,1,1.53-.2,3.81,3.81,0,0,1,1.57.21,3.73,3.73,0,0,1,1.34.83,3.77,3.77,0,0,1,1.14,2.88c0,3.62-2.44,4.05-4.56,4.05h-1.08Zm6,8.11c2.76-1,4.17-2.7,4.17-5.2,0-3.07-2.39-4.64-7.11-4.64h-9.84v1.1l.89.11h.11c1.35.24,1.35.24,1.35,3.66v11.94c0,3.46,0,3.46-1.29,3.73h-.15l-.87.1v1.1h8.52c6.15,0,9.46-2.16,9.46-6.27,0-4.31-4.06-5.4-5.22-5.65" transform="translate(-491.62 -577.94)" style="fill: #fff"></path><path d="M695.62,599.44h-1.47v-9.23a6.28,6.28,0,0,1,1.55-.2,4.16,4.16,0,0,1,1.78.28,4.27,4.27,0,0,1,1.5,1,4.16,4.16,0,0,1,.95,1.52,4.09,4.09,0,0,1,.24,1.77c0,1.22,0,4.89-4.56,4.89Zm12,9.75a2.49,2.49,0,0,1-1-.22,2.44,2.44,0,0,1-.87-.62,49.9,49.9,0,0,1-5.14-8.6c1.23-.58,4.05-2.31,4.05-5.62,0-5-4.17-5.58-7.82-5.58h-9.45v1.09l.86.11c1.45.22,1.45.42,1.45,3.73v11.9c0,3.28,0,3.54-1.35,3.76h-.89v1.09h9.13v-1.11l-.91-.1c-1.42-.22-1.42-.48-1.42-3.73v-4.41h.92c1.57,0,1.91.73,2.58,2.15l.57,1.18,1.24,2.41a5.62,5.62,0,0,0,5.41,3.6h3v-1.1h-.21" transform="translate(-491.62 -577.94)" style="fill: #fff"></path><path d="M540,585.59a3.08,3.08,0,0,1-5.29,2.15,3.15,3.15,0,0,1-.82-1.6,3,3,0,0,1,.21-1.78,3.06,3.06,0,0,1,1.17-1.37,3.12,3.12,0,0,1,1.73-.48,3.09,3.09,0,0,1,3.07,3.08" transform="translate(-491.62 -577.94)" style="fill: #fff"></path><path d="M501.74,605.37V588.93h4.79v12.16a82.24,82.24,0,0,1,10.81-7.53V583.17h4.79V591a74.29,74.29,0,0,1,9.06-3.83,21.77,21.77,0,0,0-22.62-8.64A21.78,21.78,0,0,0,495,588.13a21.8,21.8,0,0,0,.67,24.21,65.27,65.27,0,0,1,6.13-6.94" transform="translate(-491.62 -577.94)" style="fill: #fff"></path><path d="M531.59,587.73a50.55,50.55,0,0,0-9.45,5.2v22.69h-4.8v-19a60.12,60.12,0,0,0-16.09,21,21.8,21.8,0,0,0,30.34-29.9Z" transform="translate(-491.62 -577.94)" style="fill: #fff"></path></svg>