<svg xmlns="http://www.w3.org/2000/svg" id="Layer_1" data-name="Layer 1" viewBox="0 0 138 175.37"><path d="M658.67,512h-118a10,10,0,0,0-10,10V677.35a10,10,0,0,0,10,10h118a10,10,0,0,0,10-10V522A10,10,0,0,0,658.67,512Z" transform="translate(-530.67 -511.98)" style="fill: #fff"></path><path d="M648.11,669.64a7.09,7.09,0,1,0-7.09-7.09A7.09,7.09,0,0,0,648.11,669.64Z" transform="translate(-530.67 -511.98)" style="fill: #fc0;stroke: #293b4a;stroke-miterlimit: 10;stroke-width: 1.8899999856948853px"></path><path d="M641,662.55H581" transform="translate(-530.67 -511.98)" style="fill: none;stroke: #293b4a;stroke-miterlimit: 10;stroke-width: 1.8899999856948853px"></path><path d="M625.53,655.81a7.09,7.09,0,1,0-7.09-7.09A7.09,7.09,0,0,0,625.53,655.81Z" transform="translate(-530.67 -511.98)" style="fill: #fc0;stroke: #293b4a;stroke-miterlimit: 10;stroke-width: 1.8899999856948853px"></path><path d="M618.44,648.72H581" transform="translate(-530.67 -511.98)" style="fill: none;stroke: #293b4a;stroke-miterlimit: 10;stroke-width: 1.8899999856948853px"></path><path d="M579.12,637.1h-27a5.14,5.14,0,0,0-5.14,5.14v27a5.14,5.14,0,0,0,5.14,5.14h27a5.14,5.14,0,0,0,5.14-5.14v-27A5.14,5.14,0,0,0,579.12,637.1Z" transform="translate(-530.67 -511.98)" style="fill: #fc0"></path><path d="M591.23,610.76a34.7,34.7,0,1,0-34.7-34.7A34.7,34.7,0,0,0,591.23,610.76Z" transform="translate(-530.67 -511.98)" style="fill: #fc0"></path><path d="M611.75,589.81,598,576.06l13.75-13.75,13.75,13.75ZM602,576.06l9.78,9.78,9.78-9.78-9.78-9.78Z" transform="translate(-530.67 -511.98)" style="fill: #263441"></path><path d="M613.12,530.89h-2.81v20.16h2.81Z" transform="translate(-530.67 -511.98)" style="fill: #263441"></path><path d="M613.12,601.07h-2.81v20.16h2.81Z" transform="translate(-530.67 -511.98)" style="fill: #263441"></path><path d="M585.55,548.38l-2,2,9.32,9.32,2-2Z" transform="translate(-530.67 -511.98)" style="fill: #263441"></path><path d="M630.39,592.74l-2,2,9.32,9.32,2-2Z" transform="translate(-530.67 -511.98)" style="fill: #263441"></path><path d="M586.71,574.65H556.54v2.81h30.17Z" transform="translate(-530.67 -511.98)" style="fill: #263441"></path><path d="M656.88,574.65H636.72v2.81h20.16Z" transform="translate(-530.67 -511.98)" style="fill: #263441"></path><path d="M593,592.75l-9.32,9.32,2,2,9.32-9.32Z" transform="translate(-530.67 -511.98)" style="fill: #263441"></path><path d="M637.67,548.11l-9.27,9.27,2,2,9.27-9.27Z" transform="translate(-530.67 -511.98)" style="fill: #263441"></path><path d="M565.6,662.85a7.09,7.09,0,1,0-7.09-7.09A7.09,7.09,0,0,0,565.6,662.85Z" transform="translate(-530.67 -511.98)" style="fill: #fc0;stroke: #293b4a;stroke-miterlimit: 10;stroke-width: 1.8899999856948853px"></path></svg>