<svg xmlns="http://www.w3.org/2000/svg" id="Layer_1" data-name="Layer 1" viewBox="0 0 325 664.07"><path d="M762.17,300.67h-325v631h325Z" transform="translate(-437.17 -267.63)" style="fill: #fff"></path><path d="M601.94,276a8.35,8.35,0,0,1,8.36-8.35h71.64v33h-80Z" transform="translate(-437.17 -267.63)" style="fill: #e7e7e7"></path><path d="M625.76,281.63v-7h1.52l2.23,4.44,2.2-4.44h1.52v7H632V276.8l-2,3.83h-1l-2-3.83v4.83Zm10.51.12a2.49,2.49,0,0,1-1-.2,1.41,1.41,0,0,1-.81-1.3,1.37,1.37,0,0,1,.54-1.12,2.55,2.55,0,0,1,1.62-.43h1.26v-.12a.9.9,0,0,0-.29-.75,1.08,1.08,0,0,0-.72-.24,1.2,1.2,0,0,0-.68.19.8.8,0,0,0-.36.54h-1.25a1.89,1.89,0,0,1,.36-.94,2.08,2.08,0,0,1,.82-.61,2.73,2.73,0,0,1,1.12-.22,2.46,2.46,0,0,1,1.67.53,1.86,1.86,0,0,1,.61,1.5v3.05H638l-.12-.8a1.7,1.7,0,0,1-.62.66A1.8,1.8,0,0,1,636.27,281.75Zm.29-1a1,1,0,0,0,.85-.36,1.68,1.68,0,0,0,.39-.89h-1.09a1.1,1.1,0,0,0-.73.19.58.58,0,0,0-.22.45.55.55,0,0,0,.22.45A1,1,0,0,0,636.56,280.75Zm5.82,1a3,3,0,0,1-1.16-.21,2.14,2.14,0,0,1-.8-.6,1.72,1.72,0,0,1-.36-.88h1.29a.89.89,0,0,0,.32.5,1.15,1.15,0,0,0,.69.2.91.91,0,0,0,.61-.17.47.47,0,0,0,.2-.39.42.42,0,0,0-.28-.43,4,4,0,0,0-.78-.23c-.21-.05-.43-.1-.65-.17a3.71,3.71,0,0,1-.61-.25,1.54,1.54,0,0,1-.44-.4,1.09,1.09,0,0,1-.17-.61,1.43,1.43,0,0,1,.52-1.11,2.24,2.24,0,0,1,1.48-.45,2.2,2.2,0,0,1,1.4.41,1.6,1.6,0,0,1,.63,1.13h-1.21c-.07-.37-.35-.55-.83-.55a1,1,0,0,0-.56.14.43.43,0,0,0-.19.35c0,.15.1.26.29.35a3.93,3.93,0,0,0,.77.24,8.46,8.46,0,0,1,1,.27,1.49,1.49,0,0,1,.7.43,1.13,1.13,0,0,1,.26.81,1.35,1.35,0,0,1-.24.83,1.56,1.56,0,0,1-.72.58A2.68,2.68,0,0,1,642.38,281.75Zm5.26-.12a1.94,1.94,0,0,1-1.25-.38,1.65,1.65,0,0,1-.47-1.35v-2.16h-.85v-1.07h.85l.15-1.33h1.13v1.33h1.34v1.07H647.2v2.17a.66.66,0,0,0,.15.5.86.86,0,0,0,.54.13h.62v1.09Zm4.28.12a2.75,2.75,0,0,1-1.33-.32,2.32,2.32,0,0,1-.91-.9,2.66,2.66,0,0,1-.33-1.34,2.91,2.91,0,0,1,.32-1.37,2.37,2.37,0,0,1,.9-.93,2.62,2.62,0,0,1,1.36-.34,2.57,2.57,0,0,1,1.29.32,2.17,2.17,0,0,1,.87.88,2.35,2.35,0,0,1,.32,1.23,1.85,1.85,0,0,1,0,.23,2.18,2.18,0,0,1,0,.25h-3.77a1.25,1.25,0,0,0,1.29,1.24,1.18,1.18,0,0,0,.65-.17,1,1,0,0,0,.4-.46h1.3a2.34,2.34,0,0,1-.47.86,2.31,2.31,0,0,1-.8.6A2.44,2.44,0,0,1,651.92,281.75Zm0-4.16a1.35,1.35,0,0,0-.83.27,1.21,1.21,0,0,0-.46.8h2.47a1.07,1.07,0,0,0-.36-.78A1.21,1.21,0,0,0,651.93,277.59Zm3.56,4v-5h1.14l.12.93a2,2,0,0,1,.73-.76,2.07,2.07,0,0,1,1.1-.29v1.35h-.36a2,2,0,0,0-.75.13,1.08,1.08,0,0,0-.52.45,1.82,1.82,0,0,0-.18.89v2.26Zm-30.33,11,2.56-7h1.44l2.56,7h-1.36L629.8,291h-2.73l-.57,1.62Zm2.26-2.62h2l-1-2.91Zm7.27,1.14a2.86,2.86,0,0,1-.67-.08l-.37.37a1.77,1.77,0,0,0,.46.15c.19,0,.51.08.94.12a2.62,2.62,0,0,1,1.44.47,1.29,1.29,0,0,1,.45,1.05,1.57,1.57,0,0,1-.24.83,1.67,1.67,0,0,1-.74.64,2.81,2.81,0,0,1-1.28.25,3.18,3.18,0,0,1-1.71-.4,1.29,1.29,0,0,1-.65-1.18,1.44,1.44,0,0,1,.65-1.16,2.29,2.29,0,0,1-.35-.19,2.76,2.76,0,0,1-.25-.21v-.23l.87-.92a1.66,1.66,0,0,1-.58-1.31,1.77,1.77,0,0,1,.24-.91,1.83,1.83,0,0,1,.7-.65,2.28,2.28,0,0,1,1.09-.24,2.45,2.45,0,0,1,.78.12h1.88v.78l-.85.06a1.8,1.8,0,0,1,.2.84,1.77,1.77,0,0,1-.24.91,1.7,1.7,0,0,1-.7.65A2.25,2.25,0,0,1,634.69,291.15Zm0-1a1,1,0,0,0,.64-.21.82.82,0,0,0,0-1.2,1,1,0,0,0-.64-.21,1,1,0,0,0-.66.21.84.84,0,0,0,0,1.2A1,1,0,0,0,634.69,290.17Zm-1.2,3.07a.58.58,0,0,0,.34.55,1.72,1.72,0,0,0,.85.19,1.41,1.41,0,0,0,.78-.2.6.6,0,0,0,.1-1,1.33,1.33,0,0,0-.77-.22c-.27,0-.53,0-.76-.09a1.26,1.26,0,0,0-.42.35A.74.74,0,0,0,633.49,293.24Zm7-.49a2.73,2.73,0,0,1-1.33-.32,2.25,2.25,0,0,1-.91-.9,2.66,2.66,0,0,1-.33-1.34,2.8,2.8,0,0,1,.32-1.37,2.37,2.37,0,0,1,.9-.93,2.59,2.59,0,0,1,1.36-.34,2.62,2.62,0,0,1,1.29.32,2.3,2.3,0,0,1,.87.88A2.45,2.45,0,0,1,643,290c0,.07,0,.15,0,.23s0,.16,0,.25H639.2a1.25,1.25,0,0,0,1.29,1.24,1.21,1.21,0,0,0,.65-.17,1.11,1.11,0,0,0,.4-.46h1.3a2.5,2.5,0,0,1-.47.86,2.41,2.41,0,0,1-.8.6A2.47,2.47,0,0,1,640.5,292.75Zm0-4.16a1.33,1.33,0,0,0-.83.27,1.18,1.18,0,0,0-.46.8h2.47a1.07,1.07,0,0,0-.36-.78A1.23,1.23,0,0,0,640.51,288.59Zm3.55,4v-5h1.13l.1.84a1.85,1.85,0,0,1,.66-.7,2,2,0,0,1,1-.26,1.78,1.78,0,0,1,1.43.58,2.5,2.5,0,0,1,.51,1.7v2.8h-1.28V290a1.55,1.55,0,0,0-.26-1,.94.94,0,0,0-.81-.34,1.18,1.18,0,0,0-.89.38,1.57,1.57,0,0,0-.34,1.06v2.56Zm8.3,0a1.94,1.94,0,0,1-1.25-.38,1.62,1.62,0,0,1-.47-1.35v-2.16h-.85v-1.07h.85l.15-1.33h1.13v1.33h1.34v1.07h-1.34v2.17a.66.66,0,0,0,.15.5.82.82,0,0,0,.54.13h.62v1.09Zm4,.12a3,3,0,0,1-1.16-.21,2.06,2.06,0,0,1-.8-.6,1.72,1.72,0,0,1-.36-.88h1.29a.84.84,0,0,0,.32.5,1.15,1.15,0,0,0,.69.2.93.93,0,0,0,.61-.17.5.5,0,0,0,.2-.39.43.43,0,0,0-.28-.43,4.43,4.43,0,0,0-.78-.23c-.22-.05-.43-.1-.65-.17a3.38,3.38,0,0,1-.61-.25,1.42,1.42,0,0,1-.44-.4,1,1,0,0,1-.17-.61,1.4,1.4,0,0,1,.52-1.11,2.2,2.2,0,0,1,1.48-.45,2.24,2.24,0,0,1,1.4.41,1.67,1.67,0,0,1,.63,1.13h-1.21c-.08-.37-.35-.55-.83-.55a1,1,0,0,0-.56.14.41.41,0,0,0-.19.35c0,.15.09.26.29.35a3.72,3.72,0,0,0,.77.24,9.88,9.88,0,0,1,.95.27,1.6,1.6,0,0,1,.7.43,1.18,1.18,0,0,1,.26.81,1.49,1.49,0,0,1-.24.83,1.67,1.67,0,0,1-.72.58A2.75,2.75,0,0,1,656.41,292.75Z" transform="translate(-437.17 -267.63)" style="fill: #293b4a"></path><path d="M682.17,267.63h71.64a8.35,8.35,0,0,1,8.36,8.35v24.65h-80Z" transform="translate(-437.17 -267.63)" style="fill: #19ad4a"></path><path d="M437.17,300.67h325v78.88h-325Z" transform="translate(-437.17 -267.63)" style="fill: #fff"></path><path d="M681.94,316v48.26" transform="translate(-437.17 -267.63)" style="fill: none;stroke: #f1f3f5"></path><path d="M719.65,338.42l2.92,2.84.6.59.7.68,11.91-11.61" transform="translate(-437.17 -267.63)" style="fill: none;stroke: #19ad4a;stroke-miterlimit: 10"></path><path d="M731.67,334.32a11.07,11.07,0,0,1,.79,1.53,10,10,0,0,1-10.94,13.64A10,10,0,0,1,715.71,333a10,10,0,0,1,12.9-1.78" transform="translate(-437.17 -267.63)" style="fill: none;stroke: #19ad4a;stroke-miterlimit: 10"></path><path d="M637.1,338.42l2.93,2.84.59.59.71.68,11.9-11.61" transform="translate(-437.17 -267.63)" style="fill: none;stroke: #19ad4a;stroke-miterlimit: 10"></path><path d="M649.12,334.32a9.94,9.94,0,0,1,1,8.47,10,10,0,1,1-4.07-11.57" transform="translate(-437.17 -267.63)" style="fill: none;stroke: #19ad4a;stroke-miterlimit: 10"></path><path d="M460.61,334.63v-8.4h2.94a3.43,3.43,0,0,1,1.63.34,2.1,2.1,0,0,1,1,.9,2.46,2.46,0,0,1,.33,1.28,2.56,2.56,0,0,1-.32,1.26,2.11,2.11,0,0,1-.94.9,3.55,3.55,0,0,1-1.66.34h-1.67v3.38Zm1.27-4.43h1.61a1.73,1.73,0,0,0,1.28-.38,1.64,1.64,0,0,0,0-2.15,1.73,1.73,0,0,0-1.28-.39h-1.61Zm5.8,4.43v-5.95h1.14l.1,1.13a2.43,2.43,0,0,1,.87-.93,2.53,2.53,0,0,1,1.35-.34v1.33h-.34a2.37,2.37,0,0,0-.95.18,1.39,1.39,0,0,0-.66.59,2.25,2.25,0,0,0-.24,1.14v2.85Zm7.17.15a3,3,0,0,1-1.53-.39,2.87,2.87,0,0,1-1.07-1.09,3.56,3.56,0,0,1,0-3.28,2.92,2.92,0,0,1,1.09-1.09,3.06,3.06,0,0,1,1.53-.39,3,3,0,0,1,1.52.39,2.76,2.76,0,0,1,1.08,1.09,3.49,3.49,0,0,1,0,3.28,2.83,2.83,0,0,1-1.08,1.09A3.07,3.07,0,0,1,474.85,334.78Zm0-1.1a1.6,1.6,0,0,0,.84-.22,1.68,1.68,0,0,0,.64-.68,2.38,2.38,0,0,0,.24-1.12,2.35,2.35,0,0,0-.24-1.12,1.58,1.58,0,0,0-.62-.68,1.56,1.56,0,0,0-.84-.23,1.63,1.63,0,0,0-.86.23,1.71,1.71,0,0,0-.62.68,2.35,2.35,0,0,0-.24,1.12,2.38,2.38,0,0,0,.24,1.12,1.78,1.78,0,0,0,.62.68A1.65,1.65,0,0,0,474.85,333.68Zm7.22,1.1a3.19,3.19,0,0,1-1.57-.4,3,3,0,0,1-1.08-1.09,3.44,3.44,0,0,1-.38-1.63,3.34,3.34,0,0,1,.38-1.62,3,3,0,0,1,1.08-1.11,3.18,3.18,0,0,1,1.57-.39,2.94,2.94,0,0,1,1.85.57,2.58,2.58,0,0,1,1,1.56h-1.33a1.24,1.24,0,0,0-.53-.77,1.69,1.69,0,0,0-1-.27,1.62,1.62,0,0,0-.86.24,1.69,1.69,0,0,0-.64.68,2.69,2.69,0,0,0,0,2.22,1.78,1.78,0,0,0,.64.69,1.62,1.62,0,0,0,.86.24,1.7,1.7,0,0,0,1-.28,1.21,1.21,0,0,0,.53-.78h1.33a2.52,2.52,0,0,1-1,1.55A2.94,2.94,0,0,1,482.07,334.78Zm7,0a3.06,3.06,0,0,1-1.56-.39,2.85,2.85,0,0,1-1.06-1.09,3.34,3.34,0,0,1-.38-1.62,3.45,3.45,0,0,1,.37-1.64,2.83,2.83,0,0,1,1.06-1.11,3.11,3.11,0,0,1,1.58-.39,2.89,2.89,0,0,1,1.52.39,2.7,2.7,0,0,1,1,1,2.92,2.92,0,0,1,.36,1.43,2.62,2.62,0,0,1,0,.27c0,.08,0,.18,0,.3h-4.63a1.88,1.88,0,0,0,.56,1.32,1.79,1.79,0,0,0,1.19.44,1.59,1.59,0,0,0,.9-.24,1.5,1.5,0,0,0,.55-.67h1.27a2.66,2.66,0,0,1-1,1.4A2.72,2.72,0,0,1,489.06,334.78Zm0-5.2a1.81,1.81,0,0,0-1.13.38,1.63,1.63,0,0,0-.6,1.13h3.36a1.51,1.51,0,0,0-.49-1.1A1.68,1.68,0,0,0,489.06,329.58Zm6.6,5.2a3,3,0,0,1-1.86-.56,2,2,0,0,1-.84-1.46h1.28a1.35,1.35,0,0,0,.46.71,1.48,1.48,0,0,0,.95.29,1.24,1.24,0,0,0,.84-.24.76.76,0,0,0,.26-.56.6.6,0,0,0-.37-.61,5,5,0,0,0-1-.3,7.67,7.67,0,0,1-1-.29,2.3,2.3,0,0,1-.83-.5,1.25,1.25,0,0,1-.32-.9,1.65,1.65,0,0,1,.6-1.3,2.47,2.47,0,0,1,1.68-.52,2.55,2.55,0,0,1,1.61.48,1.93,1.93,0,0,1,.73,1.35h-1.22a.9.9,0,0,0-.36-.6,1.33,1.33,0,0,0-.78-.21,1.19,1.19,0,0,0-.75.2.61.61,0,0,0-.26.5.56.56,0,0,0,.36.5,5.23,5.23,0,0,0,1,.32,9.09,9.09,0,0,1,1.1.31,1.83,1.83,0,0,1,.83.51,1.37,1.37,0,0,1,.31,1,1.67,1.67,0,0,1-.63,1.36A2.62,2.62,0,0,1,495.66,334.78Zm6.14,0a3,3,0,0,1-1.86-.56,2,2,0,0,1-.84-1.46h1.28a1.35,1.35,0,0,0,.46.71,1.48,1.48,0,0,0,1,.29,1.24,1.24,0,0,0,.84-.24.76.76,0,0,0,.26-.56.6.6,0,0,0-.37-.61,5,5,0,0,0-1-.3,7.67,7.67,0,0,1-1-.29,2.3,2.3,0,0,1-.83-.5,1.25,1.25,0,0,1-.32-.9,1.65,1.65,0,0,1,.6-1.3,2.47,2.47,0,0,1,1.68-.52,2.55,2.55,0,0,1,1.61.48,1.93,1.93,0,0,1,.73,1.35h-1.22a.9.9,0,0,0-.36-.6,1.33,1.33,0,0,0-.78-.21,1.19,1.19,0,0,0-.75.2.61.61,0,0,0-.26.5.56.56,0,0,0,.36.5,5.23,5.23,0,0,0,1,.32,9.09,9.09,0,0,1,1.1.31,1.83,1.83,0,0,1,.83.51,1.37,1.37,0,0,1,.31,1,1.67,1.67,0,0,1-.63,1.36A2.62,2.62,0,0,1,501.8,334.78Zm-39.22,16a2.7,2.7,0,0,1-1.25-.26,1.63,1.63,0,0,1-.73-.66,1.79,1.79,0,0,1-.24-.91,1.63,1.63,0,0,1,.67-1.37,3.2,3.2,0,0,1,1.92-.5h1.56V347a1.35,1.35,0,0,0-.38-1,1.4,1.4,0,0,0-1-.35,1.65,1.65,0,0,0-.92.26,1.07,1.07,0,0,0-.47.76h-1.27a2,2,0,0,1,.43-1.1,2.41,2.41,0,0,1,1-.71,3.19,3.19,0,0,1,1.29-.25,2.67,2.67,0,0,1,1.93.66,2.34,2.34,0,0,1,.68,1.77v3.66h-1.1l-.11-1a2.23,2.23,0,0,1-.73.83A2.18,2.18,0,0,1,462.58,350.78Zm.25-1a1.48,1.48,0,0,0,.86-.24,1.58,1.58,0,0,0,.56-.66,2.61,2.61,0,0,0,.25-.9h-1.42a1.71,1.71,0,0,0-1.08.27.81.81,0,0,0-.31.66.79.79,0,0,0,.3.65A1.42,1.42,0,0,0,462.83,349.74Zm4.44,3.53v-8.59h1.14l.13.92a2.69,2.69,0,0,1,.79-.74,2.34,2.34,0,0,1,1.3-.32,2.85,2.85,0,0,1,1.52.4,2.92,2.92,0,0,1,1,1.12,3.52,3.52,0,0,1,0,3.22,2.87,2.87,0,0,1-1,1.1,3,3,0,0,1-1.54.4,2.72,2.72,0,0,1-1.23-.28,2.1,2.1,0,0,1-.84-.78v3.55Zm3.13-3.6a1.76,1.76,0,0,0,1.34-.55,2.06,2.06,0,0,0,.53-1.46,2.23,2.23,0,0,0-.24-1.05,1.88,1.88,0,0,0-3-.41,2.34,2.34,0,0,0,0,2.92A1.79,1.79,0,0,0,470.4,349.67Zm4.54,3.6v-8.59h1.14l.13.92a2.87,2.87,0,0,1,.8-.74,2.29,2.29,0,0,1,1.29-.32,2.86,2.86,0,0,1,1.53.4,2.92,2.92,0,0,1,1,1.12,3.6,3.6,0,0,1,0,3.22,2.87,2.87,0,0,1-1,1.1,3,3,0,0,1-1.54.4,2.76,2.76,0,0,1-1.24-.28,2.1,2.1,0,0,1-.84-.78v3.55Zm3.13-3.6a1.77,1.77,0,0,0,1.35-.55,2.06,2.06,0,0,0,.53-1.46,2.23,2.23,0,0,0-.24-1.05,1.81,1.81,0,0,0-.66-.71,1.86,1.86,0,0,0-1-.26,1.77,1.77,0,0,0-1.34.56,2.31,2.31,0,0,0,0,2.92A1.76,1.76,0,0,0,478.07,349.67Zm4.55,1V342h1.27v8.64Zm3.6-7.08a.88.88,0,0,1-.6-.21.79.79,0,0,1-.23-.57.73.73,0,0,1,.23-.55.85.85,0,0,1,.6-.23.81.81,0,0,1,.59.23.71.71,0,0,1,.24.55.76.76,0,0,1-.24.57A.84.84,0,0,1,486.22,343.55Zm-.64,7.08v-5.95h1.28v5.95Zm5.78.15a3.2,3.2,0,0,1-1.58-.4,3,3,0,0,1-1.08-1.09,3.44,3.44,0,0,1-.38-1.63,3.34,3.34,0,0,1,.38-1.62,3,3,0,0,1,1.08-1.11,3.19,3.19,0,0,1,1.58-.39,2.93,2.93,0,0,1,1.84.57,2.64,2.64,0,0,1,1,1.56h-1.34a1.26,1.26,0,0,0-.52-.77,1.74,1.74,0,0,0-1-.27,1.67,1.67,0,0,0-1.5.92,2.69,2.69,0,0,0,0,2.22,1.76,1.76,0,0,0,.63.69,1.65,1.65,0,0,0,.87.24,1.74,1.74,0,0,0,1-.28,1.23,1.23,0,0,0,.52-.78h1.34a2.61,2.61,0,0,1-1,1.55A3,3,0,0,1,491.36,350.78Zm6.21,0a2.72,2.72,0,0,1-1.25-.26,1.63,1.63,0,0,1-.73-.66,1.79,1.79,0,0,1-.24-.91,1.63,1.63,0,0,1,.67-1.37,3.2,3.2,0,0,1,1.92-.5h1.56V347a1.35,1.35,0,0,0-.38-1,1.37,1.37,0,0,0-1-.35,1.69,1.69,0,0,0-.93.26,1.11,1.11,0,0,0-.47.76h-1.27a2,2,0,0,1,.43-1.1,2.41,2.41,0,0,1,1-.71,3.23,3.23,0,0,1,1.29-.25,2.67,2.67,0,0,1,1.93.66,2.3,2.3,0,0,1,.68,1.77v3.66h-1.1l-.11-1a2.23,2.23,0,0,1-.73.83A2.18,2.18,0,0,1,497.57,350.78Zm.25-1a1.51,1.51,0,0,0,.87-.24,1.55,1.55,0,0,0,.55-.66,2.61,2.61,0,0,0,.25-.9h-1.42a1.71,1.71,0,0,0-1.08.27.83.83,0,0,0-.31.66.79.79,0,0,0,.3.65A1.42,1.42,0,0,0,497.82,349.74Zm6.82.89a2.16,2.16,0,0,1-1.4-.42,1.9,1.9,0,0,1-.51-1.52v-2.94h-1v-1.07h1l.15-1.51H504v1.51h1.68v1.07H504v2.94a.94.94,0,0,0,.2.68,1.18,1.18,0,0,0,.74.18h.68v1.08Zm3.07-7.08a.88.88,0,0,1-.6-.21.79.79,0,0,1-.23-.57.73.73,0,0,1,.23-.55.85.85,0,0,1,.6-.23.81.81,0,0,1,.59.23.71.71,0,0,1,.24.55.76.76,0,0,1-.24.57A.84.84,0,0,1,507.71,343.55Zm-.63,7.08v-5.95h1.27v5.95Zm5.73.15a3,3,0,0,1-1.53-.39,2.87,2.87,0,0,1-1.07-1.09,3.56,3.56,0,0,1,0-3.28,2.85,2.85,0,0,1,1.09-1.09,3.18,3.18,0,0,1,3.05,0,2.9,2.9,0,0,1,1.08,1.09,3.49,3.49,0,0,1,0,3.28,3,3,0,0,1-1.08,1.09A3.07,3.07,0,0,1,512.81,350.78Zm0-1.1a1.6,1.6,0,0,0,.84-.22,1.68,1.68,0,0,0,.64-.68,2.38,2.38,0,0,0,.24-1.12,2.35,2.35,0,0,0-.24-1.12,1.54,1.54,0,0,0-.63-.68,1.52,1.52,0,0,0-.84-.23,1.62,1.62,0,0,0-.85.23,1.71,1.71,0,0,0-.62.68,2.35,2.35,0,0,0-.24,1.12,2.38,2.38,0,0,0,.24,1.12,1.78,1.78,0,0,0,.62.68A1.65,1.65,0,0,0,512.81,349.68Zm4.4.95v-5.95h1.13l.1,1a2.07,2.07,0,0,1,.8-.86,2.32,2.32,0,0,1,1.24-.32,2.16,2.16,0,0,1,1.69.67,2.87,2.87,0,0,1,.62,2v3.42h-1.26v-3.29c0-1.15-.47-1.72-1.41-1.72a1.51,1.51,0,0,0-1.18.5,2.11,2.11,0,0,0-.46,1.44v3.07Zm9.46.15a3,3,0,0,1-1.86-.56,2,2,0,0,1-.84-1.46h1.28a1.3,1.3,0,0,0,.46.71,1.47,1.47,0,0,0,.94.29,1.2,1.2,0,0,0,.84-.24.73.73,0,0,0,.27-.56.61.61,0,0,0-.37-.61,5,5,0,0,0-1-.3,7.67,7.67,0,0,1-1-.29,2.3,2.3,0,0,1-.83-.5,1.25,1.25,0,0,1-.32-.9,1.65,1.65,0,0,1,.6-1.3,2.47,2.47,0,0,1,1.68-.52,2.55,2.55,0,0,1,1.61.48,1.93,1.93,0,0,1,.73,1.35h-1.23a.9.9,0,0,0-.36-.6,1.29,1.29,0,0,0-.78-.21,1.16,1.16,0,0,0-.74.2.59.59,0,0,0-.26.5.56.56,0,0,0,.36.5,5,5,0,0,0,1,.32,9.09,9.09,0,0,1,1.1.31,1.83,1.83,0,0,1,.83.51,1.37,1.37,0,0,1,.31,1,1.67,1.67,0,0,1-.63,1.36A2.62,2.62,0,0,1,526.67,350.78Z" transform="translate(-437.17 -267.63)" style="fill: #2d3b49"></path><path d="M437.17,616.18h325v78.88h-325Z" transform="translate(-437.17 -267.63)" style="fill: #fff"></path><path d="M632.29,666.55l19.31-19.31" transform="translate(-437.17 -267.63)" style="fill: none;stroke: #ff340c;stroke-miterlimit: 10"></path><path d="M641.94,656.9l9.66,9.65" transform="translate(-437.17 -267.63)" style="fill: none;stroke: #ff340c;stroke-miterlimit: 10"></path><path d="M632.29,647.24l7.25,7.25" transform="translate(-437.17 -267.63)" style="fill: none;stroke: #ff340c;stroke-miterlimit: 10"></path><path d="M719.65,653.93l2.92,2.85.6.59.7.68,11.91-11.61" transform="translate(-437.17 -267.63)" style="fill: none;stroke: #19ad4a;stroke-miterlimit: 10"></path><path d="M731.67,649.84a11.07,11.07,0,0,1,.79,1.53A10,10,0,0,1,721.52,665a10,10,0,0,1-5.81-16.49,10,10,0,0,1,12.9-1.78" transform="translate(-437.17 -267.63)" style="fill: none;stroke: #19ad4a;stroke-miterlimit: 10"></path><path d="M460.61,650.15v-8.4h1.27v8.4Zm2.93,0V644.2h1.13l.09,1a2.1,2.1,0,0,1,.81-.86,2.31,2.31,0,0,1,1.23-.33,2.19,2.19,0,0,1,1.7.68,2.85,2.85,0,0,1,.62,2v3.42h-1.26v-3.29c0-1.15-.47-1.73-1.42-1.73a1.52,1.52,0,0,0-1.17.51,2,2,0,0,0-.46,1.44v3.07Zm9.57,0a2.15,2.15,0,0,1-1.39-.42,1.92,1.92,0,0,1-.51-1.52v-2.94h-1V644.2h1l.15-1.51h1.12v1.51h1.68v1.07h-1.68v2.94a1,1,0,0,0,.2.68,1.17,1.17,0,0,0,.73.18h.69v1.08Zm5,.14a3.11,3.11,0,0,1-1.56-.38,2.85,2.85,0,0,1-1.06-1.09,3.4,3.4,0,0,1-.38-1.62,3.49,3.49,0,0,1,.37-1.65,2.81,2.81,0,0,1,1.06-1.1,3.12,3.12,0,0,1,1.58-.4,2.93,2.93,0,0,1,1.53.4,2.74,2.74,0,0,1,1,1,2.89,2.89,0,0,1,.36,1.43,2.35,2.35,0,0,1,0,.26c0,.09,0,.19,0,.3h-4.63a1.88,1.88,0,0,0,.56,1.32,1.77,1.77,0,0,0,1.19.45,1.59,1.59,0,0,0,.9-.24,1.5,1.5,0,0,0,.55-.67h1.27a2.73,2.73,0,0,1-2.72,2Zm0-5.19a1.83,1.83,0,0,0-1.13.38,1.63,1.63,0,0,0-.6,1.13h3.36a1.51,1.51,0,0,0-.49-1.1A1.6,1.6,0,0,0,478.1,645.1Zm4.22,5v-8.64h1.28v8.64Zm2.89,0v-8.64h1.27v8.64Zm3.6-7.08a.84.84,0,0,1-.6-.22.77.77,0,0,1-.23-.56.73.73,0,0,1,.23-.55.85.85,0,0,1,.6-.23.81.81,0,0,1,.59.23.71.71,0,0,1,.24.55.74.74,0,0,1-.24.56A.8.8,0,0,1,488.81,643.07Zm-.64,7.08V644.2h1.28v5.95Zm5.39-1.82a3.32,3.32,0,0,1-.86-.11l-.52.5a1.26,1.26,0,0,0,.33.15,3.1,3.1,0,0,0,.54.1c.23,0,.54.07.94.1a2.9,2.9,0,0,1,1.72.58,1.53,1.53,0,0,1,.53,1.22,1.93,1.93,0,0,1-.29,1,1.9,1.9,0,0,1-.88.76,3.3,3.3,0,0,1-1.51.3,3.84,3.84,0,0,1-2-.48,1.54,1.54,0,0,1-.76-1.42,1.61,1.61,0,0,1,.19-.75,2.21,2.21,0,0,1,.63-.68,3.61,3.61,0,0,1-.44-.23l-.32-.26v-.29l1-1.06a2,2,0,0,1-.7-1.57,2.06,2.06,0,0,1,.28-1.07,2,2,0,0,1,.83-.78,2.73,2.73,0,0,1,1.29-.29,2.85,2.85,0,0,1,.94.15h2.22V645l-1.06.06a2.14,2.14,0,0,1,.29,1.09,2.08,2.08,0,0,1-.29,1.08,2,2,0,0,1-.81.77A2.7,2.7,0,0,1,493.56,648.33Zm0-1a1.32,1.32,0,0,0,.89-.29,1.06,1.06,0,0,0,.35-.84,1,1,0,0,0-.35-.84,1.32,1.32,0,0,0-.89-.29,1.4,1.4,0,0,0-.91.29,1.05,1.05,0,0,0-.34.84,1.08,1.08,0,0,0,.34.84A1.4,1.4,0,0,0,493.56,647.33ZM492,650.91a.81.81,0,0,0,.45.76,2.24,2.24,0,0,0,1.14.27,1.83,1.83,0,0,0,1.07-.29.85.85,0,0,0,.41-.74.75.75,0,0,0-.28-.6,1.86,1.86,0,0,0-1-.3c-.39,0-.73-.06-1-.11a1.46,1.46,0,0,0-.58.49A1.06,1.06,0,0,0,492,650.91Zm8.43-.62a3.11,3.11,0,0,1-1.56-.38,2.75,2.75,0,0,1-1-1.09,3.29,3.29,0,0,1-.39-1.62,3.61,3.61,0,0,1,.37-1.65,2.81,2.81,0,0,1,1.06-1.1,3.14,3.14,0,0,1,1.58-.4,2.9,2.9,0,0,1,1.53.4,2.77,2.77,0,0,1,1,1,2.89,2.89,0,0,1,.36,1.43,2.46,2.46,0,0,1,0,.26c0,.09,0,.19,0,.3h-4.63a1.88,1.88,0,0,0,.56,1.32,1.77,1.77,0,0,0,1.19.45,1.59,1.59,0,0,0,.9-.24,1.5,1.5,0,0,0,.55-.67h1.28a2.69,2.69,0,0,1-1,1.4A2.74,2.74,0,0,1,500.4,650.29Zm0-5.19a1.83,1.83,0,0,0-1.13.38,1.71,1.71,0,0,0-.6,1.13H502a1.48,1.48,0,0,0-.49-1.1A1.6,1.6,0,0,0,500.4,645.1Zm4.23,5V644.2h1.12l.1,1a2,2,0,0,1,.8-.86,2.35,2.35,0,0,1,1.24-.33,2.17,2.17,0,0,1,1.69.68,2.81,2.81,0,0,1,.63,2v3.42H509v-3.29c0-1.15-.48-1.73-1.42-1.73a1.55,1.55,0,0,0-1.18.51,2.07,2.07,0,0,0-.45,1.44v3.07Zm9.57,0a2.13,2.13,0,0,1-1.39-.42,1.89,1.89,0,0,1-.52-1.52v-2.94h-1V644.2h1l.16-1.51h1.11v1.51h1.68v1.07h-1.68v2.94a.91.91,0,0,0,.21.68,1.15,1.15,0,0,0,.73.18h.68v1.08Zm8.2.14a3.13,3.13,0,0,1-1.57-.39,2.9,2.9,0,0,1-1.08-1.09,3.37,3.37,0,0,1-.39-1.64,3.29,3.29,0,0,1,.39-1.62,2.79,2.79,0,0,1,1.08-1.1,3.13,3.13,0,0,1,1.57-.4,3,3,0,0,1,1.85.58,2.61,2.61,0,0,1,1,1.56h-1.33a1.28,1.28,0,0,0-.53-.77,1.77,1.77,0,0,0-1.83,0,1.67,1.67,0,0,0-.63.68,2.29,2.29,0,0,0-.24,1.1,2.38,2.38,0,0,0,.24,1.12,1.73,1.73,0,0,0,.63.68,1.77,1.77,0,0,0,1.83,0,1.3,1.3,0,0,0,.53-.78h1.33a2.64,2.64,0,0,1-1,1.55A3,3,0,0,1,522.4,650.29Zm7,0a3,3,0,0,1-1.53-.38,2.87,2.87,0,0,1-1.07-1.09,3.25,3.25,0,0,1-.4-1.65,3.2,3.2,0,0,1,.4-1.63,2.85,2.85,0,0,1,1.09-1.09,3.11,3.11,0,0,1,3,0,2.9,2.9,0,0,1,1.08,1.09,3.21,3.21,0,0,1,.41,1.63,3.26,3.26,0,0,1-.41,1.65,3,3,0,0,1-1.08,1.09A3.06,3.06,0,0,1,529.38,650.29Zm0-1.09a1.52,1.52,0,0,0,.84-.23,1.6,1.6,0,0,0,.64-.67,2.39,2.39,0,0,0,.24-1.13,2.31,2.31,0,0,0-.24-1.11,1.57,1.57,0,0,0-.63-.69,1.6,1.6,0,0,0-.84-.22,1.71,1.71,0,0,0-.85.22,1.74,1.74,0,0,0-.62.69,2.31,2.31,0,0,0-.24,1.11,2.39,2.39,0,0,0,.24,1.13,1.68,1.68,0,0,0,.62.67A1.56,1.56,0,0,0,529.38,649.2Zm6.6,1.09a2.22,2.22,0,0,1-1.71-.67,2.92,2.92,0,0,1-.61-2V644.2h1.27v3.29c0,1.15.48,1.72,1.42,1.72a1.47,1.47,0,0,0,1.16-.5,2.06,2.06,0,0,0,.46-1.44V644.2h1.27v5.95h-1.13l-.09-1a2.15,2.15,0,0,1-.82.87A2.33,2.33,0,0,1,536,650.29Zm4.88-.14V644.2H542l.11,1.13a2.34,2.34,0,0,1,.86-.93,2.57,2.57,0,0,1,1.36-.35v1.34H544a2.4,2.4,0,0,0-1,.18,1.36,1.36,0,0,0-.66.58,2.3,2.3,0,0,0-.24,1.14v2.86Zm6.93.14a3,3,0,0,1-1.86-.55,2.12,2.12,0,0,1-.84-1.46h1.29a1.28,1.28,0,0,0,.45.71,1.49,1.49,0,0,0,.95.28,1.2,1.2,0,0,0,.84-.24.71.71,0,0,0,.27-.55.6.6,0,0,0-.38-.61,4.86,4.86,0,0,0-1-.3,7.25,7.25,0,0,1-1-.29,2.36,2.36,0,0,1-.83-.5,1.24,1.24,0,0,1-.32-.9,1.65,1.65,0,0,1,.6-1.3,2.47,2.47,0,0,1,1.68-.53,2.5,2.5,0,0,1,1.6.48,2,2,0,0,1,.74,1.36h-1.23a.86.86,0,0,0-.36-.6,1.29,1.29,0,0,0-.78-.22,1.14,1.14,0,0,0-.74.21.58.58,0,0,0-.27.5.54.54,0,0,0,.36.49,5.3,5.3,0,0,0,1,.33,9.64,9.64,0,0,1,1.1.31,2,2,0,0,1,.83.5,1.42,1.42,0,0,1,.31,1,1.63,1.63,0,0,1-.64,1.35A2.59,2.59,0,0,1,547.79,650.29Zm6.55,0a3.11,3.11,0,0,1-1.56-.38,2.75,2.75,0,0,1-1-1.09,3.29,3.29,0,0,1-.39-1.62,3.61,3.61,0,0,1,.37-1.65,2.81,2.81,0,0,1,1.06-1.1,3.14,3.14,0,0,1,1.58-.4,2.9,2.9,0,0,1,1.53.4,2.77,2.77,0,0,1,1,1,2.89,2.89,0,0,1,.36,1.43,2.46,2.46,0,0,1,0,.26c0,.09,0,.19,0,.3h-4.63a1.88,1.88,0,0,0,.56,1.32,1.77,1.77,0,0,0,1.19.45,1.59,1.59,0,0,0,.9-.24,1.5,1.5,0,0,0,.55-.67h1.28a2.69,2.69,0,0,1-1,1.4A2.74,2.74,0,0,1,554.34,650.29Zm0-5.19a1.83,1.83,0,0,0-1.13.38,1.71,1.71,0,0,0-.6,1.13H556a1.48,1.48,0,0,0-.49-1.1A1.6,1.6,0,0,0,554.34,645.1Zm-93.78,21V660.2h1.13l.11.84a2,2,0,0,1,.75-.72,2.23,2.23,0,0,1,1.11-.27,2,2,0,0,1,2,1.12,2.34,2.34,0,0,1,.86-.82,2.45,2.45,0,0,1,1.19-.3,2.29,2.29,0,0,1,1.75.68,2.81,2.81,0,0,1,.64,2v3.42h-1.28v-3.29c0-1.15-.44-1.73-1.32-1.73a1.39,1.39,0,0,0-1.1.51,2.17,2.17,0,0,0-.42,1.44v3.07h-1.27v-3.29c0-1.15-.45-1.73-1.33-1.73a1.39,1.39,0,0,0-1.1.51,2.17,2.17,0,0,0-.42,1.44v3.07Zm13,.14a2.73,2.73,0,0,1-1.25-.25,1.75,1.75,0,0,1-.73-.66,1.79,1.79,0,0,1-.24-.91,1.62,1.62,0,0,1,.67-1.37,3.2,3.2,0,0,1,1.92-.5h1.56v-.11a1.35,1.35,0,0,0-.38-1,1.33,1.33,0,0,0-1-.35,1.69,1.69,0,0,0-.93.26,1.11,1.11,0,0,0-.47.76h-1.27a2.1,2.1,0,0,1,.43-1.11,2.49,2.49,0,0,1,1-.7,3.23,3.23,0,0,1,1.29-.26,2.67,2.67,0,0,1,1.93.66,2.34,2.34,0,0,1,.68,1.78v3.66h-1.1l-.11-1a2.31,2.31,0,0,1-.73.83A2.18,2.18,0,0,1,473.57,666.29Zm.25-1a1.51,1.51,0,0,0,.87-.24,1.68,1.68,0,0,0,.55-.66,2.61,2.61,0,0,0,.25-.9h-1.42a1.71,1.71,0,0,0-1.08.27.83.83,0,0,0-.31.66.77.77,0,0,0,.3.64A1.35,1.35,0,0,0,473.82,665.26Zm6.82.89a2.16,2.16,0,0,1-1.4-.42,1.92,1.92,0,0,1-.51-1.52v-2.94h-1V660.2h1l.15-1.51H480v1.51h1.68v1.07H480v2.94a1,1,0,0,0,.2.68,1.18,1.18,0,0,0,.74.18h.68v1.08Zm5,.14a3.15,3.15,0,0,1-1.57-.39,2.9,2.9,0,0,1-1.08-1.09,3.37,3.37,0,0,1-.39-1.64,3.29,3.29,0,0,1,.39-1.62,2.79,2.79,0,0,1,1.08-1.1,3.16,3.16,0,0,1,1.57-.4,3,3,0,0,1,1.85.58,2.56,2.56,0,0,1,1,1.56h-1.33a1.28,1.28,0,0,0-.53-.77,1.69,1.69,0,0,0-1-.27,1.7,1.7,0,0,0-1.5.92,2.29,2.29,0,0,0-.24,1.1,2.38,2.38,0,0,0,.24,1.12,1.68,1.68,0,0,0,.64.68,1.62,1.62,0,0,0,.86.24,1.69,1.69,0,0,0,1-.27,1.3,1.3,0,0,0,.53-.78h1.33a2.64,2.64,0,0,1-1,1.55A2.93,2.93,0,0,1,485.66,666.29Zm4.2-.14v-8.64h1.27v3.65a2.15,2.15,0,0,1,.83-.81,2.42,2.42,0,0,1,1.19-.3,2.16,2.16,0,0,1,1.68.68,2.85,2.85,0,0,1,.61,2v3.42h-1.26v-3.29c0-1.15-.46-1.73-1.38-1.73a1.58,1.58,0,0,0-1.2.51,2,2,0,0,0-.47,1.44v3.07Zm7.8-7.08a.84.84,0,0,1-.6-.22.77.77,0,0,1-.23-.56.73.73,0,0,1,.23-.55.85.85,0,0,1,.6-.23.82.82,0,0,1,.59.23.71.71,0,0,1,.24.55.74.74,0,0,1-.24.56A.82.82,0,0,1,497.66,659.07Zm-.64,7.08V660.2h1.27v5.95Zm3,0V660.2h1.13l.1,1a2,2,0,0,1,.8-.86,2.32,2.32,0,0,1,1.24-.33,2.17,2.17,0,0,1,1.69.68,2.85,2.85,0,0,1,.62,2v3.42h-1.26v-3.29c0-1.15-.47-1.73-1.41-1.73a1.52,1.52,0,0,0-1.18.51,2.07,2.07,0,0,0-.46,1.44v3.07Zm9.52-1.82a3.4,3.4,0,0,1-.87-.11l-.51.5a1.06,1.06,0,0,0,.32.15,3.53,3.53,0,0,0,.54.1c.23,0,.55.07.95.1a2.89,2.89,0,0,1,1.71.58,1.5,1.5,0,0,1,.53,1.22,1.84,1.84,0,0,1-.29,1,1.87,1.87,0,0,1-.87.76,3.33,3.33,0,0,1-1.51.3,3.81,3.81,0,0,1-2-.48,1.55,1.55,0,0,1-.77-1.42,1.61,1.61,0,0,1,.19-.75,2.25,2.25,0,0,1,.64-.68,3.14,3.14,0,0,1-.45-.23l-.32-.26v-.29l1-1.06a2,2,0,0,1-.69-1.57,2.15,2.15,0,0,1,.27-1.07,2,2,0,0,1,.83-.78,2.74,2.74,0,0,1,1.3-.29,2.83,2.83,0,0,1,.93.15h2.22V661l-1.05.06a2.13,2.13,0,0,1,.28,1.09,2.07,2.07,0,0,1-.28,1.08,2,2,0,0,1-.82.77A2.66,2.66,0,0,1,509.49,664.33Zm0-1a1.31,1.31,0,0,0,.88-.29,1,1,0,0,0,.35-.84,1,1,0,0,0-.35-.84,1.31,1.31,0,0,0-.88-.29,1.43,1.43,0,0,0-.92.29,1,1,0,0,0-.33.84,1.08,1.08,0,0,0,.33.84A1.43,1.43,0,0,0,509.49,663.33Zm-1.6,3.58a.8.8,0,0,0,.46.76,2.19,2.19,0,0,0,1.14.27,1.8,1.8,0,0,0,1.06-.29.83.83,0,0,0,.41-.74.77.77,0,0,0-.27-.6,1.93,1.93,0,0,0-1.05-.3c-.38,0-.72-.06-1-.11a1.35,1.35,0,0,0-.57.49A1,1,0,0,0,507.89,666.91Z" transform="translate(-437.17 -267.63)" style="fill: #2d3b49"></path><path d="M437.17,458.43h325v78.88h-325Z" transform="translate(-437.17 -267.63)" style="fill: #fff"></path><path d="M632.29,507.92l19.31-19.31" transform="translate(-437.17 -267.63)" style="fill: none;stroke: #ff340c;stroke-miterlimit: 10"></path><path d="M641.94,498.26l9.66,9.66" transform="translate(-437.17 -267.63)" style="fill: none;stroke: #ff340c;stroke-miterlimit: 10"></path><path d="M632.29,488.61l7.25,7.25" transform="translate(-437.17 -267.63)" style="fill: none;stroke: #ff340c;stroke-miterlimit: 10"></path><path d="M719.65,496.18l2.92,2.84.6.59.7.68,11.91-11.61" transform="translate(-437.17 -267.63)" style="fill: none;stroke: #19ad4a;stroke-miterlimit: 10"></path><path d="M731.67,492.08a11.07,11.07,0,0,1,.79,1.53,10,10,0,0,1-10.94,13.64,10,10,0,0,1-5.81-16.49,10,10,0,0,1,12.9-1.78" transform="translate(-437.17 -267.63)" style="fill: none;stroke: #19ad4a;stroke-miterlimit: 10"></path><path d="M460.61,500.39V492h2.89a3.37,3.37,0,0,1,1.63.34,2.07,2.07,0,0,1,1,.91,2.61,2.61,0,0,1-.1,2.67,2.29,2.29,0,0,1-1.29.92l1.79,3.56H465L463.38,497h-1.5v3.38Zm1.27-4.34h1.55a1.65,1.65,0,0,0,1.26-.42,1.53,1.53,0,0,0,.41-1.1,1.41,1.41,0,0,0-.4-1.06,1.68,1.68,0,0,0-1.28-.41h-1.54Zm8.4,4.48a3.11,3.11,0,0,1-1.56-.38,2.82,2.82,0,0,1-1.05-1.09,3.29,3.29,0,0,1-.39-1.62,3.49,3.49,0,0,1,.38-1.65,2.72,2.72,0,0,1,1-1.1,3.18,3.18,0,0,1,1.59-.4,2.89,2.89,0,0,1,1.52.4,2.77,2.77,0,0,1,1,1,2.89,2.89,0,0,1,.36,1.43c0,.08,0,.17,0,.26s0,.19,0,.3h-4.63a1.85,1.85,0,0,0,.57,1.32,1.74,1.74,0,0,0,1.18.45,1.59,1.59,0,0,0,.9-.24,1.52,1.52,0,0,0,.56-.67H473a2.73,2.73,0,0,1-2.73,2Zm0-5.19a1.78,1.78,0,0,0-1.12.38,1.63,1.63,0,0,0-.6,1.13h3.36a1.52,1.52,0,0,0-.5-1.1A1.6,1.6,0,0,0,470.28,495.34Zm7.05,5.19a3.13,3.13,0,0,1-1.57-.39,2.9,2.9,0,0,1-1.08-1.09,3.37,3.37,0,0,1-.39-1.64,3.29,3.29,0,0,1,.39-1.62,2.79,2.79,0,0,1,1.08-1.1,3.13,3.13,0,0,1,1.57-.4,3,3,0,0,1,1.85.58,2.61,2.61,0,0,1,1,1.56h-1.33a1.28,1.28,0,0,0-.53-.77,1.77,1.77,0,0,0-1.83,0,1.67,1.67,0,0,0-.63.68,2.29,2.29,0,0,0-.24,1.1,2.38,2.38,0,0,0,.24,1.12,1.73,1.73,0,0,0,.63.68,1.77,1.77,0,0,0,1.83,0,1.3,1.3,0,0,0,.53-.78h1.33a2.64,2.64,0,0,1-1,1.55A3,3,0,0,1,477.33,500.53Zm4.2-.14v-5.95h1.14l.11,1.13a2.27,2.27,0,0,1,.86-.93,2.57,2.57,0,0,1,1.36-.35v1.34h-.35a2.4,2.4,0,0,0-.95.18,1.36,1.36,0,0,0-.66.58,2.3,2.3,0,0,0-.24,1.14v2.86Zm6.75.14a2.19,2.19,0,0,1-1.7-.67,2.87,2.87,0,0,1-.61-2v-3.42h1.27v3.29c0,1.15.47,1.72,1.41,1.72a1.49,1.49,0,0,0,1.17-.5,2.11,2.11,0,0,0,.45-1.44v-3.07h1.28v5.95h-1.13l-.1-1a2.06,2.06,0,0,1-.81.87A2.37,2.37,0,0,1,488.28,500.53Zm5.6-7.22a.84.84,0,0,1-.6-.22.76.76,0,0,1-.22-.56.72.72,0,0,1,.22-.55.85.85,0,0,1,.6-.23.81.81,0,0,1,.59.23.71.71,0,0,1,.24.55.74.74,0,0,1-.24.56A.8.8,0,0,1,493.88,493.31Zm-.63,7.08v-5.95h1.27v5.95Zm5.45,0a2.16,2.16,0,0,1-1.4-.42,1.92,1.92,0,0,1-.51-1.52v-2.94h-1v-1.07h1l.15-1.51h1.12v1.51h1.68v1.07h-1.68v2.94a1,1,0,0,0,.2.68,1.18,1.18,0,0,0,.74.18h.68v1.08Zm5,.14a3.11,3.11,0,0,1-1.56-.38,2.75,2.75,0,0,1-1.05-1.09,3.29,3.29,0,0,1-.39-1.62,3.61,3.61,0,0,1,.37-1.65,2.81,2.81,0,0,1,1.06-1.1,3.14,3.14,0,0,1,1.58-.4,2.9,2.9,0,0,1,1.53.4,2.77,2.77,0,0,1,1,1,2.89,2.89,0,0,1,.36,1.43,2.46,2.46,0,0,1,0,.26c0,.09,0,.19,0,.3h-4.63a1.88,1.88,0,0,0,.56,1.32,1.77,1.77,0,0,0,1.19.45,1.59,1.59,0,0,0,.9-.24,1.5,1.5,0,0,0,.55-.67h1.28a2.69,2.69,0,0,1-1,1.4A2.74,2.74,0,0,1,503.68,500.53Zm0-5.19a1.83,1.83,0,0,0-1.13.38,1.71,1.71,0,0,0-.6,1.13h3.36a1.48,1.48,0,0,0-.49-1.1A1.6,1.6,0,0,0,503.68,495.34Zm4.23,5.05v-5.95h1.14l.1,1.13a2.36,2.36,0,0,1,.87-.93,2.53,2.53,0,0,1,1.35-.35v1.34H511a2.37,2.37,0,0,0-.95.18,1.36,1.36,0,0,0-.66.58,2.3,2.3,0,0,0-.24,1.14v2.86Zm9.25,0-2.24-5.95h1.34l1.65,4.74,1.66-4.74h1.32l-2.22,5.95Zm7.25.14a3.11,3.11,0,0,1-1.56-.38,2.82,2.82,0,0,1-1.05-1.09,3.29,3.29,0,0,1-.39-1.62,3.49,3.49,0,0,1,.38-1.65,2.72,2.72,0,0,1,1.05-1.1,3.18,3.18,0,0,1,1.59-.4,2.89,2.89,0,0,1,1.52.4,2.77,2.77,0,0,1,1,1,2.89,2.89,0,0,1,.36,1.43c0,.08,0,.17,0,.26s0,.19,0,.3h-4.63a1.85,1.85,0,0,0,.57,1.32,1.74,1.74,0,0,0,1.18.45,1.59,1.59,0,0,0,.9-.24,1.52,1.52,0,0,0,.56-.67h1.27a2.73,2.73,0,0,1-2.73,2Zm0-5.19a1.78,1.78,0,0,0-1.12.38,1.63,1.63,0,0,0-.6,1.13h3.36a1.52,1.52,0,0,0-.5-1.1A1.6,1.6,0,0,0,524.41,495.34Zm6.57,5.05a2.13,2.13,0,0,1-1.39-.42,1.89,1.89,0,0,1-.52-1.52v-2.94h-1v-1.07h1l.16-1.51h1.11v1.51H532v1.07h-1.68v2.94a.91.91,0,0,0,.21.68,1.15,1.15,0,0,0,.73.18H532v1.08Zm4.85,0a2.13,2.13,0,0,1-1.39-.42,1.92,1.92,0,0,1-.52-1.52v-2.94h-1v-1.07h1l.16-1.51h1.12v1.51h1.68v1.07H535.2v2.94a.91.91,0,0,0,.2.68,1.15,1.15,0,0,0,.73.18h.69v1.08Zm3.08-7.08a.84.84,0,0,1-.6-.22.77.77,0,0,1-.23-.56.73.73,0,0,1,.23-.55.85.85,0,0,1,.6-.23.82.82,0,0,1,.59.23.71.71,0,0,1,.24.55.74.74,0,0,1-.24.56A.82.82,0,0,1,538.91,493.31Zm-.64,7.08v-5.95h1.27v5.95Zm3,0v-5.95h1.13l.1,1a2,2,0,0,1,.8-.86,2.32,2.32,0,0,1,1.24-.33,2.17,2.17,0,0,1,1.69.68,2.85,2.85,0,0,1,.62,2v3.42h-1.26V497.1c0-1.15-.47-1.73-1.41-1.73a1.52,1.52,0,0,0-1.18.51,2.07,2.07,0,0,0-.46,1.44v3.07Zm9.52-1.82a3.4,3.4,0,0,1-.87-.11l-.51.5a1.06,1.06,0,0,0,.32.15,3.53,3.53,0,0,0,.54.1c.23,0,.55.07.95.1a2.89,2.89,0,0,1,1.71.58,1.5,1.5,0,0,1,.53,1.22,1.84,1.84,0,0,1-.29,1,1.87,1.87,0,0,1-.87.76,3.33,3.33,0,0,1-1.51.3,3.81,3.81,0,0,1-2-.48,1.55,1.55,0,0,1-.77-1.42,1.61,1.61,0,0,1,.19-.75,2.25,2.25,0,0,1,.64-.68,3.14,3.14,0,0,1-.45-.23l-.32-.26v-.29l1-1.06a2,2,0,0,1-.69-1.57,2.15,2.15,0,0,1,.27-1.07,2,2,0,0,1,.83-.78,2.74,2.74,0,0,1,1.3-.29,2.83,2.83,0,0,1,.93.15h2.22v.84l-1,.06a2.13,2.13,0,0,1,.28,1.09,2.07,2.07,0,0,1-.28,1.08,2,2,0,0,1-.82.77A2.66,2.66,0,0,1,550.74,498.57Zm0-1a1.31,1.31,0,0,0,.88-.29,1,1,0,0,0,.35-.84,1,1,0,0,0-.35-.84,1.31,1.31,0,0,0-.88-.29,1.43,1.43,0,0,0-.92.29,1,1,0,0,0-.33.84,1.08,1.08,0,0,0,.33.84A1.43,1.43,0,0,0,550.74,497.57Zm-1.6,3.58a.8.8,0,0,0,.46.76,2.19,2.19,0,0,0,1.14.27,1.8,1.8,0,0,0,1.06-.29.83.83,0,0,0,.41-.74.77.77,0,0,0-.27-.6,1.93,1.93,0,0,0-1.05-.3c-.38,0-.72-.06-1-.11a1.35,1.35,0,0,0-.57.49A1,1,0,0,0,549.14,501.15Z" transform="translate(-437.17 -267.63)" style="fill: #2d3b49"></path><path d="M437.17,773.94h325v78.88h-325Z" transform="translate(-437.17 -267.63)" style="fill: #fff"></path><path d="M632.29,825.18l19.31-19.31" transform="translate(-437.17 -267.63)" style="fill: none;stroke: #ff340c;stroke-miterlimit: 10"></path><path d="M641.94,815.53l9.66,9.65" transform="translate(-437.17 -267.63)" style="fill: none;stroke: #ff340c;stroke-miterlimit: 10"></path><path d="M632.29,805.87l7.25,7.25" transform="translate(-437.17 -267.63)" style="fill: none;stroke: #ff340c;stroke-miterlimit: 10"></path><path d="M719.65,811.69l2.92,2.85.6.59.7.68,11.91-11.61" transform="translate(-437.17 -267.63)" style="fill: none;stroke: #19ad4a;stroke-miterlimit: 10"></path><path d="M731.67,807.6a11.07,11.07,0,0,1,.79,1.53,10,10,0,1,1-3.85-4.63" transform="translate(-437.17 -267.63)" style="fill: none;stroke: #19ad4a;stroke-miterlimit: 10"></path><path d="M464.49,808.05a4.22,4.22,0,0,1-2.19-.55,4,4,0,0,1-1.46-1.52,4.78,4.78,0,0,1-.53-2.27,4.69,4.69,0,0,1,.53-2.26,3.84,3.84,0,0,1,1.46-1.53,4.54,4.54,0,0,1,4.37,0,3.75,3.75,0,0,1,1.45,1.53,4.69,4.69,0,0,1,.53,2.26,4.78,4.78,0,0,1-.53,2.27,3.85,3.85,0,0,1-1.45,1.52A4.18,4.18,0,0,1,464.49,808.05Zm0-1.14a2.93,2.93,0,0,0,1.5-.38,2.63,2.63,0,0,0,1-1.11,4.27,4.27,0,0,0,0-3.43,2.55,2.55,0,0,0-1-1.1,2.84,2.84,0,0,0-1.5-.39,2.91,2.91,0,0,0-1.52.39,2.55,2.55,0,0,0-1,1.1,4.38,4.38,0,0,0,0,3.43,2.63,2.63,0,0,0,1,1.11A3,3,0,0,0,464.49,806.91Zm5.53,1V802h1.13l.09,1a2,2,0,0,1,.81-.86,2.31,2.31,0,0,1,1.23-.33,2.22,2.22,0,0,1,1.7.67,2.9,2.9,0,0,1,.62,2v3.42h-1.26v-3.29c0-1.15-.47-1.73-1.42-1.73a1.52,1.52,0,0,0-1.17.51,2,2,0,0,0-.46,1.44v3.07Zm7-2.95v-1.07h4.88V805Zm6.35,5.59V802h1.14l.13.92a2.73,2.73,0,0,1,.8-.74,2.29,2.29,0,0,1,1.29-.33,2.87,2.87,0,0,1,1.53.41,2.79,2.79,0,0,1,1,1.12,3.35,3.35,0,0,1,.38,1.6,3.39,3.39,0,0,1-.38,1.61,2.9,2.9,0,0,1-1,1.11,3,3,0,0,1-1.54.39,2.76,2.76,0,0,1-1.24-.27,2.25,2.25,0,0,1-.84-.78v3.55Zm3.13-3.6a1.81,1.81,0,0,0,1.35-.55,2.09,2.09,0,0,0,.53-1.47,2.19,2.19,0,0,0-.24-1,1.74,1.74,0,0,0-.66-.71,1.77,1.77,0,0,0-1-.26,1.74,1.74,0,0,0-1.34.56,2.09,2.09,0,0,0-.52,1.45,2.13,2.13,0,0,0,.52,1.47A1.8,1.8,0,0,0,486.46,807Zm4.55,1v-8.64h1.27v8.64Zm4.9.14a2.7,2.7,0,0,1-1.25-.25,1.75,1.75,0,0,1-.73-.66,1.79,1.79,0,0,1-.24-.91,1.62,1.62,0,0,1,.67-1.37,3.14,3.14,0,0,1,1.92-.5h1.56v-.11a1.26,1.26,0,0,0-1.36-1.39,1.58,1.58,0,0,0-.92.26,1.07,1.07,0,0,0-.47.76h-1.27a2,2,0,0,1,.43-1.11,2.51,2.51,0,0,1,1-.71,3.36,3.36,0,0,1,1.28-.25,2.68,2.68,0,0,1,1.94.66,2.36,2.36,0,0,1,.68,1.78v3.66H498l-.11-1a2.31,2.31,0,0,1-.73.83A2.18,2.18,0,0,1,495.91,808.05Zm.25-1a1.48,1.48,0,0,0,.86-.24,1.6,1.6,0,0,0,.55-.66,2.61,2.61,0,0,0,.26-.9h-1.42a1.78,1.78,0,0,0-1.08.26.83.83,0,0,0-.31.66.78.78,0,0,0,.3.65A1.42,1.42,0,0,0,496.16,807Zm6.81.89a2.13,2.13,0,0,1-1.39-.42,1.93,1.93,0,0,1-.52-1.53V803h-1V802h1l.16-1.52h1.12V802H504V803h-1.68V806a.92.92,0,0,0,.2.69,1.15,1.15,0,0,0,.73.18H504v1.08Zm2.66,0V803h-.85V802h.85v-.87a1.76,1.76,0,0,1,.48-1.39,2,2,0,0,1,1.38-.43h.62v1.08h-.43a.83.83,0,0,0-.6.18.75.75,0,0,0-.18.57V802h1.37V803H506.9v4.89Zm6.4.14a3.17,3.17,0,0,1-1.54-.38,3,3,0,0,1-1.07-1.09,3.38,3.38,0,0,1-.39-1.65,3.28,3.28,0,0,1,.39-1.63,2.85,2.85,0,0,1,1.09-1.09,3,3,0,0,1,1.53-.4,2.88,2.88,0,0,1,1.52.4,2.7,2.7,0,0,1,1.08,1.09,3.18,3.18,0,0,1,.41,1.63,3.28,3.28,0,0,1-.41,1.65,2.9,2.9,0,0,1-1.08,1.09A3.13,3.13,0,0,1,512,808.05Zm0-1.09a1.66,1.66,0,0,0,.84-.23,1.64,1.64,0,0,0,.63-.67,2.39,2.39,0,0,0,.24-1.13,2.28,2.28,0,0,0-.24-1.11,1.55,1.55,0,0,0-.62-.69,1.67,1.67,0,0,0-1.69,0,1.63,1.63,0,0,0-.63.69,2.28,2.28,0,0,0-.24,1.11,2.39,2.39,0,0,0,.24,1.13,1.64,1.64,0,0,0,.63.67A1.6,1.6,0,0,0,512,807Zm4.4.95V802h1.14l.1,1.12a2.34,2.34,0,0,1,.87-.92,2.53,2.53,0,0,1,1.35-.35v1.33h-.34a2.37,2.37,0,0,0-.95.18,1.44,1.44,0,0,0-.66.59,2.25,2.25,0,0,0-.24,1.14v2.86Zm4.55,0V802h1.13l.11.84a2,2,0,0,1,.76-.72,2.19,2.19,0,0,1,1.1-.27,2,2,0,0,1,2,1.12,2.26,2.26,0,0,1,.86-.82,2.47,2.47,0,0,1,1.19-.3,2.32,2.32,0,0,1,1.75.67,2.81,2.81,0,0,1,.64,2v3.42h-1.27v-3.29c0-1.15-.44-1.73-1.32-1.73a1.39,1.39,0,0,0-1.11.51,2.17,2.17,0,0,0-.42,1.44v3.07H525.1v-3.29c0-1.15-.44-1.73-1.33-1.73a1.36,1.36,0,0,0-1.09.51,2.17,2.17,0,0,0-.42,1.44v3.07Zm14,0V802h1.13l.11.84a2,2,0,0,1,.75-.72,2.23,2.23,0,0,1,1.11-.27,2,2,0,0,1,2,1.12,2.36,2.36,0,0,1,.87-.82,2.45,2.45,0,0,1,1.19-.3,2.34,2.34,0,0,1,1.75.67,2.85,2.85,0,0,1,.63,2v3.42h-1.27v-3.29c0-1.15-.44-1.73-1.32-1.73a1.37,1.37,0,0,0-1.1.51,2.17,2.17,0,0,0-.42,1.44v3.07h-1.27v-3.29c0-1.15-.45-1.73-1.34-1.73a1.37,1.37,0,0,0-1.09.51,2.17,2.17,0,0,0-.42,1.44v3.07Zm13,.14a2.7,2.7,0,0,1-1.25-.25,1.75,1.75,0,0,1-.73-.66,1.79,1.79,0,0,1-.24-.91,1.62,1.62,0,0,1,.67-1.37,3.14,3.14,0,0,1,1.92-.5h1.56v-.11a1.38,1.38,0,0,0-.38-1,1.39,1.39,0,0,0-1-.34,1.58,1.58,0,0,0-.92.26,1.07,1.07,0,0,0-.47.76h-1.27a2,2,0,0,1,.43-1.11,2.51,2.51,0,0,1,1-.71,3.37,3.37,0,0,1,1.29-.25,2.67,2.67,0,0,1,1.93.66,2.36,2.36,0,0,1,.68,1.78v3.66h-1.1l-.11-1a2.31,2.31,0,0,1-.73.83A2.18,2.18,0,0,1,548,808.05Zm.25-1a1.48,1.48,0,0,0,.86-.24,1.71,1.71,0,0,0,.56-.66,2.61,2.61,0,0,0,.25-.9h-1.42a1.78,1.78,0,0,0-1.08.26.83.83,0,0,0-.31.66.78.78,0,0,0,.3.65A1.42,1.42,0,0,0,548.26,807Zm4.44.89V802h1.14l.1,1.12a2.34,2.34,0,0,1,.87-.92,2.53,2.53,0,0,1,1.35-.35v1.33h-.34a2.37,2.37,0,0,0-1,.18,1.44,1.44,0,0,0-.66.59,2.25,2.25,0,0,0-.24,1.14v2.86Zm4.55,0v-8.64h1.28v5.15l2.28-2.46h1.52l-2.53,2.7,2.9,3.25h-1.61l-2.56-3v3Zm8.76.14a3.22,3.22,0,0,1-1.56-.38,2.89,2.89,0,0,1-1.05-1.09A3.29,3.29,0,0,1,563,805a3.46,3.46,0,0,1,.38-1.65,2.72,2.72,0,0,1,1.05-1.1,3.08,3.08,0,0,1,1.59-.4,2.8,2.8,0,0,1,1.52.4,2.7,2.7,0,0,1,1,1,2.89,2.89,0,0,1,.36,1.43c0,.08,0,.17,0,.26s0,.19,0,.3h-4.63a1.85,1.85,0,0,0,.57,1.32A1.74,1.74,0,0,0,566,807a1.59,1.59,0,0,0,.9-.24,1.55,1.55,0,0,0,.56-.68h1.27a2.72,2.72,0,0,1-1,1.41A2.78,2.78,0,0,1,566,808.05Zm0-5.19a1.73,1.73,0,0,0-1.12.38,1.61,1.61,0,0,0-.6,1.13h3.36a1.54,1.54,0,0,0-.5-1.11A1.64,1.64,0,0,0,566,802.86Zm6.57,5a2.13,2.13,0,0,1-1.39-.42,1.93,1.93,0,0,1-.52-1.53V803h-1V802h1l.16-1.52H572V802h1.68V803H572V806a.92.92,0,0,0,.2.69,1.15,1.15,0,0,0,.73.18h.69v1.08Zm3.08-7.08a.84.84,0,0,1-.6-.22.77.77,0,0,1-.23-.56.72.72,0,0,1,.23-.55.81.81,0,0,1,.6-.23.78.78,0,0,1,.59.23.69.69,0,0,1,.24.55.74.74,0,0,1-.24.56A.82.82,0,0,1,575.66,800.83Zm-.64,7.08V802h1.27v5.95Zm3,0V802h1.13l.1,1a2,2,0,0,1,.8-.86,2.32,2.32,0,0,1,1.24-.33,2.2,2.2,0,0,1,1.69.67,2.9,2.9,0,0,1,.62,2v3.42h-1.26v-3.29c0-1.15-.47-1.73-1.41-1.73a1.52,1.52,0,0,0-1.18.51,2.07,2.07,0,0,0-.46,1.44v3.07Zm9.52-1.83a3.41,3.41,0,0,1-.87-.1l-.51.5a1.06,1.06,0,0,0,.32.14,3.35,3.35,0,0,0,.54.11c.23,0,.55.07.95.1a3,3,0,0,1,1.71.57,1.54,1.54,0,0,1,.53,1.23,1.78,1.78,0,0,1-.29,1,1.89,1.89,0,0,1-.87.77,3.33,3.33,0,0,1-1.51.3,3.81,3.81,0,0,1-2-.48,1.57,1.57,0,0,1-.77-1.43,1.6,1.6,0,0,1,.19-.74,2.25,2.25,0,0,1,.64-.68,4.67,4.67,0,0,1-.45-.23c-.12-.09-.22-.18-.32-.27v-.28l1-1.06a2,2,0,0,1-.69-1.57,2.15,2.15,0,0,1,.27-1.07,2,2,0,0,1,.83-.78,2.74,2.74,0,0,1,1.3-.29,2.83,2.83,0,0,1,.93.15h2.22v.84l-1,.06a2.11,2.11,0,0,1,.28,1.09,2.07,2.07,0,0,1-.28,1.08,2.11,2.11,0,0,1-.82.77A2.66,2.66,0,0,1,587.49,806.08Zm0-1a1.31,1.31,0,0,0,.88-.29,1,1,0,0,0,.35-.84,1,1,0,0,0-.35-.84,1.31,1.31,0,0,0-.88-.29,1.43,1.43,0,0,0-.92.29,1,1,0,0,0-.33.84,1.08,1.08,0,0,0,.33.84A1.43,1.43,0,0,0,587.49,805.09Zm-1.6,3.57a.82.82,0,0,0,.46.77,2.19,2.19,0,0,0,1.14.27,1.8,1.8,0,0,0,1.06-.29.85.85,0,0,0,.41-.75.8.8,0,0,0-.27-.6,1.93,1.93,0,0,0-1.05-.3c-.38,0-.72-.06-1-.1a1.35,1.35,0,0,0-.57.49A1,1,0,0,0,585.89,808.66ZM463.2,824.05a3.67,3.67,0,0,1-1.57-.31,2.59,2.59,0,0,1-1-.9,2.39,2.39,0,0,1-.37-1.34,2.54,2.54,0,0,1,.46-1.5,3.25,3.25,0,0,1,1.41-1.06,3,3,0,0,1-.55-.82,1.91,1.91,0,0,1-.17-.84,1.75,1.75,0,0,1,.6-1.36,2.36,2.36,0,0,1,1.67-.56,2.53,2.53,0,0,1,1.2.27,1.8,1.8,0,0,1,.76.71,1.87,1.87,0,0,1,.26,1h-1.24a.84.84,0,0,0-.3-.73,1.14,1.14,0,0,0-1.44,0,.87.87,0,0,0-.28.65,1.4,1.4,0,0,0,.2.69,4.37,4.37,0,0,0,.61.75l2.49,2.51c.2-.3.42-.66.65-1.08l.31-.59h1.32l-.48.88a11.38,11.38,0,0,1-1,1.61l1.87,1.87h-1.56l-1-1a4.08,4.08,0,0,1-1.3.89A4.17,4.17,0,0,1,463.2,824.05Zm-1.74-2.63a1.47,1.47,0,0,0,.48,1.12,1.84,1.84,0,0,0,1.29.44,2.6,2.6,0,0,0,1.06-.2,3,3,0,0,0,.94-.7l-2.39-2.38a2.45,2.45,0,0,0-1,.73A1.55,1.55,0,0,0,461.46,821.42Zm13.93,2.63a3.22,3.22,0,0,1-1.56-.38,2.89,2.89,0,0,1-1.05-1.09,3.29,3.29,0,0,1-.39-1.62,3.46,3.46,0,0,1,.38-1.65,2.72,2.72,0,0,1,1.05-1.1,3.08,3.08,0,0,1,1.59-.4,2.8,2.8,0,0,1,1.52.4,2.7,2.7,0,0,1,1,1,2.89,2.89,0,0,1,.36,1.43c0,.08,0,.17,0,.26s0,.19,0,.3h-4.63a1.85,1.85,0,0,0,.57,1.32,1.74,1.74,0,0,0,1.18.45,1.59,1.59,0,0,0,.9-.24,1.55,1.55,0,0,0,.56-.68h1.27a2.72,2.72,0,0,1-1,1.41A2.78,2.78,0,0,1,475.39,824.05Zm0-5.19a1.73,1.73,0,0,0-1.12.38,1.61,1.61,0,0,0-.6,1.13H477a1.54,1.54,0,0,0-.5-1.11A1.64,1.64,0,0,0,475.39,818.86Zm4.23,5V818h1.13l.09,1a2,2,0,0,1,.81-.86,2.31,2.31,0,0,1,1.23-.33,2.18,2.18,0,0,1,1.69.67,2.85,2.85,0,0,1,.63,2v3.42h-1.26v-3.29c0-1.15-.47-1.73-1.42-1.73a1.52,1.52,0,0,0-1.17.51,2,2,0,0,0-.46,1.44v3.07Zm9.51-1.83a3.33,3.33,0,0,1-.86-.1l-.52.5a1.26,1.26,0,0,0,.33.14,2.93,2.93,0,0,0,.54.11c.23,0,.54.07.94.1a3,3,0,0,1,1.72.57,1.57,1.57,0,0,1,.53,1.23,1.87,1.87,0,0,1-.29,1,1.92,1.92,0,0,1-.88.77,3.3,3.3,0,0,1-1.51.3,3.84,3.84,0,0,1-2-.48,1.56,1.56,0,0,1-.76-1.43,1.6,1.6,0,0,1,.19-.74,2.21,2.21,0,0,1,.63-.68c-.16-.08-.31-.15-.44-.23a3,3,0,0,1-.32-.27v-.28l1-1.06a2,2,0,0,1-.7-1.57,2.06,2.06,0,0,1,.28-1.07,2,2,0,0,1,.83-.78,2.73,2.73,0,0,1,1.29-.29,2.85,2.85,0,0,1,.94.15h2.22v.84l-1.06.06a2.11,2.11,0,0,1,.29,1.09,2.08,2.08,0,0,1-.29,1.08,2,2,0,0,1-.81.77A2.7,2.7,0,0,1,489.13,822.08Zm0-1a1.32,1.32,0,0,0,.89-.29,1.06,1.06,0,0,0,.35-.84,1,1,0,0,0-.35-.84,1.32,1.32,0,0,0-.89-.29,1.4,1.4,0,0,0-.91.29,1.05,1.05,0,0,0-.34.84,1.08,1.08,0,0,0,.34.84A1.4,1.4,0,0,0,489.13,821.09Zm-1.59,3.57a.82.82,0,0,0,.45.77,2.24,2.24,0,0,0,1.14.27,1.83,1.83,0,0,0,1.07-.29.87.87,0,0,0,.41-.75.78.78,0,0,0-.28-.6,1.86,1.86,0,0,0-1-.3c-.39,0-.73-.06-1-.1a1.46,1.46,0,0,0-.58.49A1,1,0,0,0,487.54,824.66Zm7.9-.61a2.7,2.7,0,0,1-1.25-.25,1.75,1.75,0,0,1-.73-.66,1.79,1.79,0,0,1-.24-.91,1.62,1.62,0,0,1,.67-1.37,3.14,3.14,0,0,1,1.92-.5h1.56v-.11a1.38,1.38,0,0,0-.38-1,1.39,1.39,0,0,0-1-.34,1.58,1.58,0,0,0-.92.26,1.07,1.07,0,0,0-.47.76h-1.27a2,2,0,0,1,.43-1.11,2.51,2.51,0,0,1,1-.71,3.37,3.37,0,0,1,1.29-.25,2.67,2.67,0,0,1,1.93.66,2.36,2.36,0,0,1,.68,1.78v3.66h-1.1l-.11-1a2.31,2.31,0,0,1-.73.83A2.18,2.18,0,0,1,495.44,824.05Zm.25-1a1.48,1.48,0,0,0,.86-.24,1.71,1.71,0,0,0,.56-.66,2.61,2.61,0,0,0,.25-.9h-1.42a1.78,1.78,0,0,0-1.08.26.83.83,0,0,0-.31.66.78.78,0,0,0,.3.65A1.42,1.42,0,0,0,495.69,823Zm6.81,1a3,3,0,0,1-1.86-.55,2.07,2.07,0,0,1-.84-1.46h1.29a1.25,1.25,0,0,0,.45.7,1.44,1.44,0,0,0,.95.29,1.24,1.24,0,0,0,.84-.24.7.7,0,0,0,.26-.55.59.59,0,0,0-.37-.61,4.79,4.79,0,0,0-1-.3,7.53,7.53,0,0,1-1-.29,2.36,2.36,0,0,1-.83-.5,1.25,1.25,0,0,1-.33-.9,1.64,1.64,0,0,1,.6-1.3,2.47,2.47,0,0,1,1.68-.53,2.53,2.53,0,0,1,1.61.48,1.9,1.9,0,0,1,.73,1.36h-1.22a.86.86,0,0,0-.36-.6,1.23,1.23,0,0,0-.78-.22,1.14,1.14,0,0,0-.74.21.57.57,0,0,0-.27.5.54.54,0,0,0,.36.49,5.17,5.17,0,0,0,1,.33,8.1,8.1,0,0,1,1.11.31,2,2,0,0,1,.83.5,1.45,1.45,0,0,1,.31,1,1.66,1.66,0,0,1-.64,1.35A2.59,2.59,0,0,1,502.5,824.05Zm6.2-2a3.33,3.33,0,0,1-.86-.1l-.52.5a1.26,1.26,0,0,0,.33.14,2.93,2.93,0,0,0,.54.11c.23,0,.54.07.94.1a3,3,0,0,1,1.72.57,1.57,1.57,0,0,1,.53,1.23,1.87,1.87,0,0,1-.29,1,1.92,1.92,0,0,1-.88.77,3.3,3.3,0,0,1-1.51.3,3.84,3.84,0,0,1-2-.48,1.56,1.56,0,0,1-.76-1.43,1.6,1.6,0,0,1,.19-.74,2.21,2.21,0,0,1,.63-.68c-.16-.08-.31-.15-.44-.23a3,3,0,0,1-.32-.27v-.28l1-1.06a2,2,0,0,1-.7-1.57,2.06,2.06,0,0,1,.28-1.07,2,2,0,0,1,.83-.78,2.73,2.73,0,0,1,1.29-.29,2.85,2.85,0,0,1,.94.15h2.22v.84l-1.06.06a2.11,2.11,0,0,1,.29,1.09,2.08,2.08,0,0,1-.29,1.08,2,2,0,0,1-.81.77A2.7,2.7,0,0,1,508.7,822.08Zm0-1a1.32,1.32,0,0,0,.89-.29,1.06,1.06,0,0,0,.35-.84,1,1,0,0,0-.35-.84,1.32,1.32,0,0,0-.89-.29,1.4,1.4,0,0,0-.91.29,1.05,1.05,0,0,0-.34.84,1.08,1.08,0,0,0,.34.84A1.4,1.4,0,0,0,508.7,821.09Zm-1.59,3.57a.82.82,0,0,0,.45.77,2.24,2.24,0,0,0,1.14.27,1.83,1.83,0,0,0,1.07-.29.87.87,0,0,0,.41-.75.78.78,0,0,0-.28-.6,1.86,1.86,0,0,0-1-.3c-.39,0-.73-.06-1-.1a1.46,1.46,0,0,0-.58.49A1,1,0,0,0,507.11,824.66Zm8.43-.61a3.22,3.22,0,0,1-1.56-.38,2.82,2.82,0,0,1-1.05-1.09,3.29,3.29,0,0,1-.39-1.62,3.58,3.58,0,0,1,.37-1.65,2.81,2.81,0,0,1,1.06-1.1,3,3,0,0,1,1.58-.4,2.82,2.82,0,0,1,1.53.4,2.7,2.7,0,0,1,1,1,2.89,2.89,0,0,1,.36,1.43,2.46,2.46,0,0,1,0,.26c0,.09,0,.19,0,.3h-4.63a1.88,1.88,0,0,0,.56,1.32,1.77,1.77,0,0,0,1.19.45,1.59,1.59,0,0,0,.9-.24,1.53,1.53,0,0,0,.55-.68h1.28a2.72,2.72,0,0,1-1,1.41A2.8,2.8,0,0,1,515.54,824.05Zm0-5.19a1.77,1.77,0,0,0-1.13.38,1.69,1.69,0,0,0-.6,1.13h3.36a1.5,1.5,0,0,0-.49-1.11A1.64,1.64,0,0,0,515.54,818.86Zm4.23,5V818h1.12l.11.84a2,2,0,0,1,.76-.72,2.21,2.21,0,0,1,1.1-.27,2,2,0,0,1,2,1.12,2.33,2.33,0,0,1,.86-.82,2.47,2.47,0,0,1,1.19-.3,2.3,2.3,0,0,1,1.75.67,2.81,2.81,0,0,1,.64,2v3.42H528v-3.29c0-1.15-.44-1.73-1.32-1.73a1.39,1.39,0,0,0-1.11.51,2.17,2.17,0,0,0-.42,1.44v3.07h-1.27v-3.29c0-1.15-.44-1.73-1.33-1.73a1.37,1.37,0,0,0-1.09.51,2.17,2.17,0,0,0-.42,1.44v3.07Zm13.77.14a3.22,3.22,0,0,1-1.56-.38,2.82,2.82,0,0,1-1.05-1.09,3.29,3.29,0,0,1-.39-1.62,3.58,3.58,0,0,1,.37-1.65,2.81,2.81,0,0,1,1.06-1.1,3,3,0,0,1,1.58-.4,2.82,2.82,0,0,1,1.53.4,2.7,2.7,0,0,1,1,1,2.89,2.89,0,0,1,.36,1.43,2.46,2.46,0,0,1,0,.26c0,.09,0,.19,0,.3h-4.63a1.88,1.88,0,0,0,.56,1.32,1.77,1.77,0,0,0,1.19.45,1.59,1.59,0,0,0,.9-.24,1.53,1.53,0,0,0,.55-.68h1.28a2.72,2.72,0,0,1-1,1.41A2.8,2.8,0,0,1,533.54,824.05Zm0-5.19a1.77,1.77,0,0,0-1.13.38,1.69,1.69,0,0,0-.6,1.13h3.36a1.5,1.5,0,0,0-.49-1.11A1.64,1.64,0,0,0,533.54,818.86Zm4.23,5V818h1.12l.1,1a2,2,0,0,1,.8-.86,2.35,2.35,0,0,1,1.24-.33,2.2,2.2,0,0,1,1.69.67,2.85,2.85,0,0,1,.63,2v3.42h-1.26v-3.29c0-1.15-.48-1.73-1.42-1.73a1.55,1.55,0,0,0-1.18.51,2.07,2.07,0,0,0-.45,1.44v3.07Zm9.57,0a2.13,2.13,0,0,1-1.39-.42,1.9,1.9,0,0,1-.52-1.53V819h-1V818h1l.16-1.52h1.11V818h1.68V819H546.7V822a.92.92,0,0,0,.21.69,1.15,1.15,0,0,0,.73.18h.68v1.08Zm7.87,0a2.15,2.15,0,0,1-1.39-.42,1.93,1.93,0,0,1-.51-1.53V819h-1V818h1l.15-1.52h1.12V818h1.68V819h-1.68V822a1,1,0,0,0,.2.69,1.17,1.17,0,0,0,.73.18h.69v1.08Zm5,.14a3.1,3.1,0,0,1-1.53-.38,2.94,2.94,0,0,1-1.07-1.09,3.28,3.28,0,0,1-.4-1.65,3.18,3.18,0,0,1,.4-1.63,2.79,2.79,0,0,1,1.09-1.09,3.11,3.11,0,0,1,3,0,2.83,2.83,0,0,1,1.08,1.09,3.18,3.18,0,0,1,.41,1.63,3.28,3.28,0,0,1-.41,1.65,3,3,0,0,1-1.08,1.09A3.17,3.17,0,0,1,560.2,824.05Zm0-1.09a1.68,1.68,0,0,0,1.48-.9,2.39,2.39,0,0,0,.24-1.13,2.28,2.28,0,0,0-.24-1.11,1.52,1.52,0,0,0-.63-.69,1.6,1.6,0,0,0-.84-.23,1.72,1.72,0,0,0-.85.23,1.68,1.68,0,0,0-.62.69,2.28,2.28,0,0,0-.24,1.11,2.39,2.39,0,0,0,.24,1.13,1.68,1.68,0,0,0,.62.67A1.66,1.66,0,0,0,560.2,823Zm7.19,1.09a3.17,3.17,0,0,1-1.54-.38,3,3,0,0,1-1.07-1.09,3.38,3.38,0,0,1-.39-1.65,3.28,3.28,0,0,1,.39-1.63,2.85,2.85,0,0,1,1.09-1.09,3,3,0,0,1,1.53-.4,2.88,2.88,0,0,1,1.52.4A2.7,2.7,0,0,1,570,819.3a3.18,3.18,0,0,1,.41,1.63,3.28,3.28,0,0,1-.41,1.65,2.9,2.9,0,0,1-1.08,1.09A3.13,3.13,0,0,1,567.39,824.05Zm0-1.09a1.66,1.66,0,0,0,.84-.23,1.64,1.64,0,0,0,.63-.67,2.39,2.39,0,0,0,.24-1.13,2.28,2.28,0,0,0-.24-1.11,1.55,1.55,0,0,0-.62-.69,1.67,1.67,0,0,0-1.69,0,1.63,1.63,0,0,0-.63.69,2.28,2.28,0,0,0-.24,1.11,2.39,2.39,0,0,0,.24,1.13,1.64,1.64,0,0,0,.63.67A1.6,1.6,0,0,0,567.39,823Zm4.4.95v-8.64h1.27v8.64Zm5.25.14a3,3,0,0,1-1.86-.55,2.14,2.14,0,0,1-.84-1.46h1.29a1.25,1.25,0,0,0,.45.7,1.44,1.44,0,0,0,.95.29,1.2,1.2,0,0,0,.84-.24.71.71,0,0,0,.27-.55.6.6,0,0,0-.38-.61,4.86,4.86,0,0,0-1-.3,7.25,7.25,0,0,1-1-.29,2.36,2.36,0,0,1-.83-.5,1.24,1.24,0,0,1-.32-.9,1.64,1.64,0,0,1,.6-1.3,2.47,2.47,0,0,1,1.68-.53,2.5,2.5,0,0,1,1.6.48,2,2,0,0,1,.74,1.36H578a.86.86,0,0,0-.36-.6,1.23,1.23,0,0,0-.78-.22,1.14,1.14,0,0,0-.74.21.57.57,0,0,0-.27.5.54.54,0,0,0,.36.49,5.3,5.3,0,0,0,1,.33,8,8,0,0,1,1.1.31,2,2,0,0,1,.83.5,1.4,1.4,0,0,1,.31,1,1.63,1.63,0,0,1-.64,1.35A2.59,2.59,0,0,1,577,824.05Z" transform="translate(-437.17 -267.63)" style="fill: #2d3b49"></path><path d="M437.17,379.55h325v78.88h-325Z" transform="translate(-437.17 -267.63)" style="fill: #f1f3f5"></path><path d="M632.29,428.61l19.31-19.32" transform="translate(-437.17 -267.63)" style="fill: none;stroke: #ff340c;stroke-miterlimit: 10"></path><path d="M641.94,419l9.66,9.66" transform="translate(-437.17 -267.63)" style="fill: none;stroke: #ff340c;stroke-miterlimit: 10"></path><path d="M632.29,409.29l7.25,7.26" transform="translate(-437.17 -267.63)" style="fill: none;stroke: #ff340c;stroke-miterlimit: 10"></path><path d="M719.65,417.3l2.92,2.84.6.59.7.68,11.91-11.61" transform="translate(-437.17 -267.63)" style="fill: none;stroke: #19ad4a;stroke-miterlimit: 10"></path><path d="M731.67,413.2a11.07,11.07,0,0,1,.79,1.53,10,10,0,0,1-10.94,13.64,10,10,0,0,1-5.81-16.49,10,10,0,0,1,12.9-1.78" transform="translate(-437.17 -267.63)" style="fill: none;stroke: #19ad4a;stroke-miterlimit: 10"></path><path d="M464.49,414.65a4.22,4.22,0,0,1-2.19-.55,3.88,3.88,0,0,1-1.46-1.52,4.75,4.75,0,0,1-.53-2.27,4.69,4.69,0,0,1,.53-2.26,3.91,3.91,0,0,1,1.46-1.53,4.62,4.62,0,0,1,4.37,0,3.82,3.82,0,0,1,1.45,1.53,4.69,4.69,0,0,1,.53,2.26,4.75,4.75,0,0,1-.49,2.2,3.73,3.73,0,0,1-1.35,1.51l2,2.06h-1.61l-1.5-1.58A5,5,0,0,1,464.49,414.65Zm0-1.14a2.84,2.84,0,0,0,1.5-.38,2.61,2.61,0,0,0,1-1.1,4.29,4.29,0,0,0,0-3.44,2.61,2.61,0,0,0-1-1.1,2.84,2.84,0,0,0-1.5-.38,2.91,2.91,0,0,0-1.52.38,2.61,2.61,0,0,0-1,1.1,4.4,4.4,0,0,0,0,3.44,2.61,2.61,0,0,0,1,1.1A2.91,2.91,0,0,0,464.49,413.51Zm7.82,1.14a2.19,2.19,0,0,1-1.7-.67,2.87,2.87,0,0,1-.62-2v-3.42h1.28v3.29c0,1.15.47,1.72,1.41,1.72a1.51,1.51,0,0,0,1.17-.5,2.11,2.11,0,0,0,.45-1.44v-3.07h1.27v5.95h-1.12l-.1-1a2.08,2.08,0,0,1-.82.87A2.33,2.33,0,0,1,472.31,414.65Zm6.9,0a2.7,2.7,0,0,1-1.25-.25,1.75,1.75,0,0,1-.73-.66,1.79,1.79,0,0,1-.24-.91,1.62,1.62,0,0,1,.67-1.37,3.2,3.2,0,0,1,1.92-.5h1.56v-.11a1.26,1.26,0,0,0-1.36-1.39,1.65,1.65,0,0,0-.92.26,1.07,1.07,0,0,0-.47.76h-1.27a2,2,0,0,1,.43-1.11,2.49,2.49,0,0,1,1-.7,3.2,3.2,0,0,1,1.29-.26,2.67,2.67,0,0,1,1.93.66,2.37,2.37,0,0,1,.68,1.78v3.66h-1.1l-.11-1a2.31,2.31,0,0,1-.73.83A2.18,2.18,0,0,1,479.21,414.65Zm.25-1a1.48,1.48,0,0,0,.86-.24,1.71,1.71,0,0,0,.56-.66,2.61,2.61,0,0,0,.25-.9h-1.42a1.71,1.71,0,0,0-1.08.27.81.81,0,0,0-.31.66.77.77,0,0,0,.3.64A1.35,1.35,0,0,0,479.46,413.62Zm4.43.89v-8.64h1.28v8.64Zm3.61-7.08a.84.84,0,0,1-.6-.22.77.77,0,0,1-.23-.56.73.73,0,0,1,.23-.55.85.85,0,0,1,.6-.23.82.82,0,0,1,.59.23.71.71,0,0,1,.24.55.74.74,0,0,1-.24.56A.82.82,0,0,1,487.5,407.43Zm-.64,7.08v-5.95h1.27v5.95Zm5.45,0a2.12,2.12,0,0,1-1.39-.42,1.89,1.89,0,0,1-.52-1.52v-2.94h-1v-1.07h1l.16-1.51h1.11v1.51h1.68v1.07h-1.68v2.94a.91.91,0,0,0,.21.68,1.13,1.13,0,0,0,.73.18h.68v1.08Zm3.05,2.64,1.43-3.13h-.35l-2.35-5.46h1.38l1.82,4.4,1.91-4.4h1.34l-3.84,8.59Zm11.27-2.5a2.73,2.73,0,0,1-1.25-.25,1.75,1.75,0,0,1-.73-.66,1.79,1.79,0,0,1-.24-.91,1.62,1.62,0,0,1,.67-1.37A3.2,3.2,0,0,1,507,411h1.56v-.11a1.35,1.35,0,0,0-.38-1,1.33,1.33,0,0,0-1-.35,1.69,1.69,0,0,0-.93.26,1.11,1.11,0,0,0-.47.76h-1.27a2.1,2.1,0,0,1,.43-1.11,2.49,2.49,0,0,1,1-.7,3.23,3.23,0,0,1,1.29-.26,2.67,2.67,0,0,1,1.93.66,2.34,2.34,0,0,1,.68,1.78v3.66h-1.1l-.11-1a2.31,2.31,0,0,1-.73.83A2.18,2.18,0,0,1,506.63,414.65Zm.25-1a1.51,1.51,0,0,0,.87-.24,1.68,1.68,0,0,0,.55-.66,2.61,2.61,0,0,0,.25-.9h-1.42a1.71,1.71,0,0,0-1.08.27.83.83,0,0,0-.31.66.77.77,0,0,0,.3.64A1.35,1.35,0,0,0,506.88,413.62Zm6.81,1a3,3,0,0,1-1.86-.55,2,2,0,0,1-.84-1.46h1.29a1.28,1.28,0,0,0,.45.71,1.49,1.49,0,0,0,.95.28,1.24,1.24,0,0,0,.84-.24.7.7,0,0,0,.26-.55.59.59,0,0,0-.37-.61,4.79,4.79,0,0,0-1-.3,7.53,7.53,0,0,1-1-.29,2.36,2.36,0,0,1-.83-.5,1.25,1.25,0,0,1-.33-.9,1.65,1.65,0,0,1,.6-1.3,2.47,2.47,0,0,1,1.68-.53,2.53,2.53,0,0,1,1.61.48,1.92,1.92,0,0,1,.73,1.36h-1.22a.86.86,0,0,0-.36-.6,1.29,1.29,0,0,0-.78-.22,1.14,1.14,0,0,0-.74.21.58.58,0,0,0-.27.5.54.54,0,0,0,.36.49,5.17,5.17,0,0,0,1,.33,9.83,9.83,0,0,1,1.11.31,2,2,0,0,1,.83.5,1.47,1.47,0,0,1,.31,1,1.66,1.66,0,0,1-.64,1.35A2.59,2.59,0,0,1,513.69,414.65Zm6.14,0a3,3,0,0,1-1.86-.55,2.12,2.12,0,0,1-.84-1.46h1.29a1.28,1.28,0,0,0,.45.71,1.49,1.49,0,0,0,1,.28,1.2,1.2,0,0,0,.84-.24.71.71,0,0,0,.27-.55.6.6,0,0,0-.38-.61,4.86,4.86,0,0,0-1-.3,7.25,7.25,0,0,1-1-.29,2.36,2.36,0,0,1-.83-.5,1.24,1.24,0,0,1-.32-.9,1.65,1.65,0,0,1,.6-1.3,2.47,2.47,0,0,1,1.68-.53,2.5,2.5,0,0,1,1.6.48,2,2,0,0,1,.74,1.36h-1.23a.86.86,0,0,0-.36-.6,1.29,1.29,0,0,0-.78-.22,1.14,1.14,0,0,0-.74.21.58.58,0,0,0-.27.5.54.54,0,0,0,.36.49,5.3,5.3,0,0,0,1,.33,9.64,9.64,0,0,1,1.1.31,2,2,0,0,1,.83.5,1.42,1.42,0,0,1,.31,1,1.63,1.63,0,0,1-.64,1.35A2.59,2.59,0,0,1,519.83,414.65Zm6,0a2.2,2.2,0,0,1-1.7-.67,2.87,2.87,0,0,1-.61-2v-3.42h1.27v3.29c0,1.15.47,1.72,1.42,1.72a1.47,1.47,0,0,0,1.16-.5,2.11,2.11,0,0,0,.46-1.44v-3.07h1.27v5.95h-1.13l-.1-1a2.06,2.06,0,0,1-.81.87A2.34,2.34,0,0,1,525.79,414.65Zm4.89-.14v-5.95h1.14l.1,1.13a2.36,2.36,0,0,1,.87-.93,2.53,2.53,0,0,1,1.35-.35v1.34h-.34a2.37,2.37,0,0,0-.95.18,1.36,1.36,0,0,0-.66.58,2.3,2.3,0,0,0-.24,1.14v2.86Zm6.57.14a2.73,2.73,0,0,1-1.25-.25,1.75,1.75,0,0,1-.73-.66,1.79,1.79,0,0,1-.24-.91,1.62,1.62,0,0,1,.67-1.37,3.2,3.2,0,0,1,1.92-.5h1.56v-.11a1.35,1.35,0,0,0-.38-1,1.33,1.33,0,0,0-1-.35,1.69,1.69,0,0,0-.93.26,1.11,1.11,0,0,0-.47.76h-1.27a2.1,2.1,0,0,1,.43-1.11,2.49,2.49,0,0,1,1-.7,3.23,3.23,0,0,1,1.29-.26,2.67,2.67,0,0,1,1.93.66,2.34,2.34,0,0,1,.68,1.78v3.66h-1.1l-.11-1a2.31,2.31,0,0,1-.73.83A2.18,2.18,0,0,1,537.25,414.65Zm.25-1a1.51,1.51,0,0,0,.87-.24,1.68,1.68,0,0,0,.55-.66,2.61,2.61,0,0,0,.25-.9h-1.42a1.71,1.71,0,0,0-1.08.27.83.83,0,0,0-.31.66.77.77,0,0,0,.3.64A1.35,1.35,0,0,0,537.5,413.62Zm4.44.89v-5.95h1.13l.09,1a2,2,0,0,1,.81-.86,2.31,2.31,0,0,1,1.23-.33,2.16,2.16,0,0,1,1.69.68,2.81,2.81,0,0,1,.63,2v3.42h-1.26v-3.29c0-1.15-.47-1.73-1.42-1.73a1.52,1.52,0,0,0-1.17.51,2,2,0,0,0-.46,1.44v3.07Zm9.9.14a3.19,3.19,0,0,1-1.58-.39,3,3,0,0,1-1.08-1.09,3.48,3.48,0,0,1-.38-1.64,3.4,3.4,0,0,1,.38-1.62,2.93,2.93,0,0,1,1.08-1.1,3.2,3.2,0,0,1,1.58-.4,2.93,2.93,0,0,1,1.84.58,2.58,2.58,0,0,1,1,1.56h-1.34a1.26,1.26,0,0,0-.52-.77,1.74,1.74,0,0,0-1-.27,1.67,1.67,0,0,0-1.5.92,2.29,2.29,0,0,0-.24,1.1,2.38,2.38,0,0,0,.24,1.12,1.73,1.73,0,0,0,.63.68,1.65,1.65,0,0,0,.87.24,1.74,1.74,0,0,0,1-.27,1.29,1.29,0,0,0,.52-.78h1.34a2.64,2.64,0,0,1-1,1.55A3,3,0,0,1,551.84,414.65Zm7,0a3.11,3.11,0,0,1-1.56-.38,2.85,2.85,0,0,1-1.06-1.09,3.4,3.4,0,0,1-.38-1.62,3.49,3.49,0,0,1,.37-1.65,2.81,2.81,0,0,1,1.06-1.1,3.12,3.12,0,0,1,1.58-.4,2.93,2.93,0,0,1,1.53.4,2.74,2.74,0,0,1,1,1,2.89,2.89,0,0,1,.36,1.43,2.35,2.35,0,0,1,0,.26c0,.09,0,.19,0,.3h-4.63a1.88,1.88,0,0,0,.56,1.32,1.77,1.77,0,0,0,1.19.45,1.59,1.59,0,0,0,.9-.24,1.5,1.5,0,0,0,.55-.67h1.27a2.73,2.73,0,0,1-2.72,2Zm0-5.19a1.83,1.83,0,0,0-1.13.38,1.63,1.63,0,0,0-.6,1.13h3.36a1.51,1.51,0,0,0-.49-1.1A1.6,1.6,0,0,0,558.82,409.46ZM462.24,434a7,7,0,0,1-1-1.24,6.53,6.53,0,0,1-.74-1.6,6.74,6.74,0,0,1-.27-1.94,6.62,6.62,0,0,1,.27-1.93,6.43,6.43,0,0,1,.74-1.61,7,7,0,0,1,1-1.24h.86v.08a7,7,0,0,0-1.48,2.11,6.08,6.08,0,0,0-.55,2.59,6.16,6.16,0,0,0,.56,2.6,7.09,7.09,0,0,0,1.47,2.1V434Zm3.17-1.33a2.25,2.25,0,0,1-1-.21,1.45,1.45,0,0,1-.61-.56,1.54,1.54,0,0,1-.2-.76,1.33,1.33,0,0,1,.58-1.17,2.72,2.72,0,0,1,1.58-.41h1.34v-.06a1.3,1.3,0,0,0-.34-1,1.22,1.22,0,0,0-.91-.34,1.42,1.42,0,0,0-.85.25,1.08,1.08,0,0,0-.44.71h-.86a1.57,1.57,0,0,1,.36-.91,2,2,0,0,1,.79-.56,2.59,2.59,0,0,1,1-.2,1.89,1.89,0,0,1,2.09,2v3.05h-.75l-.05-.89a2,2,0,0,1-.62.72A1.84,1.84,0,0,1,465.41,432.63Zm.13-.71a1.33,1.33,0,0,0,.82-.25,1.61,1.61,0,0,0,.53-.65,2,2,0,0,0,.18-.84H465.8a1.68,1.68,0,0,0-1.05.26.8.8,0,0,0-.3.63.78.78,0,0,0,.28.63A1.28,1.28,0,0,0,465.54,431.92Zm3.63,2.79v-7.16h.76l.08.82a2.36,2.36,0,0,1,.68-.65,2.1,2.1,0,0,1,1.14-.29,2.39,2.39,0,0,1,1.29.34,2.31,2.31,0,0,1,.85.93,3.05,3.05,0,0,1,0,2.68,2.31,2.31,0,0,1-.86.92,2.48,2.48,0,0,1-1.29.33,2.28,2.28,0,0,1-1.09-.25,1.8,1.8,0,0,1-.72-.7v3Zm2.56-2.81a1.7,1.7,0,0,0,.88-.23,1.74,1.74,0,0,0,.6-.66,2.29,2.29,0,0,0,0-2,1.64,1.64,0,0,0-.6-.65,1.73,1.73,0,0,0-1.76,0,1.64,1.64,0,0,0-.6.65,2.29,2.29,0,0,0,0,2,1.74,1.74,0,0,0,.6.66A1.7,1.7,0,0,0,471.73,431.9Zm3.72,2.81v-7.16h.76l.08.82a2.36,2.36,0,0,1,.68-.65,2.1,2.1,0,0,1,1.14-.29,2.39,2.39,0,0,1,1.29.34,2.31,2.31,0,0,1,.85.93,3.05,3.05,0,0,1,0,2.68,2.31,2.31,0,0,1-.86.92,2.48,2.48,0,0,1-1.29.33,2.28,2.28,0,0,1-1.09-.25,1.8,1.8,0,0,1-.72-.7v3ZM478,431.9a1.7,1.7,0,0,0,.88-.23,1.74,1.74,0,0,0,.6-.66,2.29,2.29,0,0,0,0-2,1.64,1.64,0,0,0-.6-.65,1.73,1.73,0,0,0-1.76,0,1.64,1.64,0,0,0-.6.65,2.29,2.29,0,0,0,0,2,1.74,1.74,0,0,0,.6.66A1.7,1.7,0,0,0,478,431.9Zm3.72.61v-7.2h.84v7.2Zm2.72-6.06a.6.6,0,0,1-.42-.16.61.61,0,0,1-.16-.42.58.58,0,0,1,.16-.4.6.6,0,0,1,.42-.16.56.56,0,0,1,.41.16.51.51,0,0,1,.17.4.54.54,0,0,1-.17.42A.56.56,0,0,1,484.45,426.45Zm-.42,6.06v-5h.84v5Zm4.59.12a2.59,2.59,0,0,1-1.28-.32,2.36,2.36,0,0,1-.89-.91,2.75,2.75,0,0,1-.32-1.37,2.71,2.71,0,0,1,.32-1.36,2.29,2.29,0,0,1,.89-.91,2.49,2.49,0,0,1,1.28-.33,2.35,2.35,0,0,1,1.48.46,2.06,2.06,0,0,1,.77,1.23H490a1.1,1.1,0,0,0-.49-.71,1.64,1.64,0,0,0-.91-.26,1.56,1.56,0,0,0-.79.21,1.52,1.52,0,0,0-.6.63,2.47,2.47,0,0,0,0,2.08,1.61,1.61,0,0,0,.6.64,1.56,1.56,0,0,0,.79.21,1.64,1.64,0,0,0,.91-.25,1.14,1.14,0,0,0,.49-.73h.86a2,2,0,0,1-.76,1.22A2.41,2.41,0,0,1,488.62,432.63Zm5.07,0a2.25,2.25,0,0,1-1-.21,1.45,1.45,0,0,1-.61-.56,1.54,1.54,0,0,1-.2-.76,1.33,1.33,0,0,1,.58-1.17,2.72,2.72,0,0,1,1.58-.41h1.34v-.06a1.3,1.3,0,0,0-.34-1,1.22,1.22,0,0,0-.91-.34,1.42,1.42,0,0,0-.85.25,1.08,1.08,0,0,0-.44.71H492a1.57,1.57,0,0,1,.36-.91,2,2,0,0,1,.79-.56,2.59,2.59,0,0,1,1-.2,1.89,1.89,0,0,1,2.09,2v3.05h-.75l-.05-.89a2,2,0,0,1-.62.72A1.84,1.84,0,0,1,493.69,432.63Zm.13-.71a1.33,1.33,0,0,0,.82-.25,1.61,1.61,0,0,0,.53-.65,2,2,0,0,0,.18-.84h-1.27a1.68,1.68,0,0,0-1.05.26.8.8,0,0,0-.3.63.78.78,0,0,0,.28.63A1.28,1.28,0,0,0,493.82,431.92Zm5.45.59a1.61,1.61,0,0,1-1.07-.33,1.5,1.5,0,0,1-.39-1.19v-2.73H497v-.71h.86l.11-1.19h.73v1.19h1.46v.71h-1.46V431a.87.87,0,0,0,.19.64,1,1,0,0,0,.67.16H500v.72Zm2.42-6.06a.55.55,0,0,1-.58-.58.54.54,0,0,1,.16-.4.57.57,0,0,1,.42-.16.56.56,0,0,1,.41.16.54.54,0,0,1,.17.4.57.57,0,0,1-.17.42A.56.56,0,0,1,501.69,426.45Zm-.42,6.06v-5h.84v5Zm4.56.12a2.56,2.56,0,0,1-1.26-.32,2.33,2.33,0,0,1-.89-.9,2.87,2.87,0,0,1-.32-1.38,2.72,2.72,0,0,1,.33-1.37,2.36,2.36,0,0,1,.89-.91,2.6,2.6,0,0,1,1.27-.32,2.51,2.51,0,0,1,1.26.32,2.21,2.21,0,0,1,.88.91,2.72,2.72,0,0,1,.33,1.37,2.76,2.76,0,0,1-.33,1.38,2.29,2.29,0,0,1-.9.9A2.51,2.51,0,0,1,505.83,432.63Zm0-.72a1.57,1.57,0,0,0,.8-.21,1.52,1.52,0,0,0,.6-.63,2.47,2.47,0,0,0,0-2.08,1.44,1.44,0,0,0-.59-.63,1.56,1.56,0,0,0-.79-.21,1.62,1.62,0,0,0-.8.21,1.66,1.66,0,0,0-.6.63,2.47,2.47,0,0,0,0,2.08,1.64,1.64,0,0,0,.59.63A1.58,1.58,0,0,0,505.83,431.91Zm3.66.6v-5h.76l.05.89a1.82,1.82,0,0,1,.69-.74,1.94,1.94,0,0,1,1-.27,1.85,1.85,0,0,1,1.4.54,2.24,2.24,0,0,1,.53,1.64v2.9h-.84V429.7c0-1-.43-1.55-1.28-1.55a1.4,1.4,0,0,0-1.07.47,1.9,1.9,0,0,0-.42,1.32v2.57Zm10.65.12a2.61,2.61,0,0,1-1.28-.32,2.43,2.43,0,0,1-.89-.91,2.86,2.86,0,0,1-.32-1.37,2.82,2.82,0,0,1,.32-1.36,2.36,2.36,0,0,1,.89-.91,2.52,2.52,0,0,1,1.28-.33,2.33,2.33,0,0,1,1.48.46,2,2,0,0,1,.77,1.23h-.86a1.1,1.1,0,0,0-.49-.71,1.62,1.62,0,0,0-.91-.26,1.58,1.58,0,0,0-.79.21,1.52,1.52,0,0,0-.6.63,2.47,2.47,0,0,0,0,2.08,1.61,1.61,0,0,0,.6.64,1.58,1.58,0,0,0,.79.21,1.61,1.61,0,0,0,.91-.25,1.14,1.14,0,0,0,.49-.73h.86a2,2,0,0,1-.76,1.22A2.39,2.39,0,0,1,520.14,432.63Zm3.42-.12v-7.2h.84v3.09a1.8,1.8,0,0,1,.71-.71,2,2,0,0,1,1-.26,1.81,1.81,0,0,1,1.38.54,2.24,2.24,0,0,1,.52,1.64v2.9h-.83V429.7c0-1-.41-1.55-1.25-1.55a1.46,1.46,0,0,0-1.09.47,1.86,1.86,0,0,0-.44,1.32v2.57Zm8,.12a2.46,2.46,0,0,1-1.26-.32,2.31,2.31,0,0,1-.87-.91,3.16,3.16,0,0,1,0-2.73,2.16,2.16,0,0,1,.86-.91,2.48,2.48,0,0,1,1.29-.33,2.27,2.27,0,0,1,1.24.33,2.2,2.2,0,0,1,.81.85,2.46,2.46,0,0,1,.28,1.14c0,.07,0,.15,0,.22v.25h-4a1.93,1.93,0,0,0,.26.95,1.58,1.58,0,0,0,.59.56,1.56,1.56,0,0,0,.76.19,1.53,1.53,0,0,0,.87-.24,1.43,1.43,0,0,0,.51-.65h.83a2.31,2.31,0,0,1-.77,1.15A2.25,2.25,0,0,1,531.52,432.63Zm0-4.49a1.66,1.66,0,0,0-1.07.37,1.42,1.42,0,0,0-.53,1.06H533a1.43,1.43,0,0,0-.46-1.05A1.57,1.57,0,0,0,531.52,428.14Zm5.74,4.49a2.61,2.61,0,0,1-1.28-.32,2.43,2.43,0,0,1-.89-.91,2.86,2.86,0,0,1-.32-1.37,2.82,2.82,0,0,1,.32-1.36,2.36,2.36,0,0,1,.89-.91,2.52,2.52,0,0,1,1.28-.33,2.33,2.33,0,0,1,1.48.46,2,2,0,0,1,.77,1.23h-.86a1.1,1.1,0,0,0-.49-.71,1.62,1.62,0,0,0-.91-.26,1.58,1.58,0,0,0-.79.21,1.52,1.52,0,0,0-.6.63,2.47,2.47,0,0,0,0,2.08,1.61,1.61,0,0,0,.6.64,1.58,1.58,0,0,0,.79.21,1.61,1.61,0,0,0,.91-.25,1.14,1.14,0,0,0,.49-.73h.86a2,2,0,0,1-.76,1.22A2.39,2.39,0,0,1,537.26,432.63Zm3.42-.12v-7.2h.84v4.33l2-2.09h1l-2.2,2.24,2.48,2.72h-1.07l-2.27-2.57v2.57Zm5.55-6.06a.6.6,0,0,1-.42-.16.61.61,0,0,1-.16-.42.58.58,0,0,1,.16-.4.6.6,0,0,1,.42-.16.56.56,0,0,1,.41.16.51.51,0,0,1,.17.4.54.54,0,0,1-.17.42A.56.56,0,0,1,546.23,426.45Zm-.42,6.06v-5h.84v5Zm2.3,0v-5h.76l0,.89a1.82,1.82,0,0,1,.69-.74,1.94,1.94,0,0,1,1-.27,1.84,1.84,0,0,1,1.4.54,2.2,2.2,0,0,1,.53,1.64v2.9h-.84V429.7c0-1-.42-1.55-1.28-1.55a1.42,1.42,0,0,0-1.07.47,1.9,1.9,0,0,0-.42,1.32v2.57ZM555.8,431a2.65,2.65,0,0,1-.77-.11l-.5.47a1.13,1.13,0,0,0,.27.14,3.84,3.84,0,0,0,.48.1l.87.09a2.41,2.41,0,0,1,1.43.46,1.33,1.33,0,0,1,.43,1,1.53,1.53,0,0,1-.24.82,1.81,1.81,0,0,1-.72.64,2.66,2.66,0,0,1-1.24.25,3.59,3.59,0,0,1-1.19-.18,1.62,1.62,0,0,1-.81-.53,1.31,1.31,0,0,1-.29-.89,1.47,1.47,0,0,1,.15-.61,1.58,1.58,0,0,1,.56-.61,1.92,1.92,0,0,1-.38-.19,1.61,1.61,0,0,1-.28-.24v-.23l.85-.84a1.62,1.62,0,0,1-.59-1.32,1.69,1.69,0,0,1,.23-.89,1.52,1.52,0,0,1,.67-.63,2.2,2.2,0,0,1,1.07-.24,2.45,2.45,0,0,1,.78.12h1.83v.63l-.93,0a1.77,1.77,0,0,1,0,1.86,1.72,1.72,0,0,1-.67.64A2.27,2.27,0,0,1,555.8,431Zm0-.69a1.25,1.25,0,0,0,.84-.27,1,1,0,0,0,.32-.8,1,1,0,0,0-.32-.78,1.2,1.2,0,0,0-.84-.28,1.24,1.24,0,0,0-.86.28,1,1,0,0,0-.31.78,1,1,0,0,0,.31.8A1.28,1.28,0,0,0,555.8,430.26Zm-1.46,2.89a.8.8,0,0,0,.42.74,2,2,0,0,0,1,.25,1.66,1.66,0,0,0,1-.27.85.85,0,0,0,.38-.72.76.76,0,0,0-.26-.56,1.72,1.72,0,0,0-1-.27c-.37,0-.69-.06-1-.1a1.17,1.17,0,0,0-.54.47A1,1,0,0,0,554.34,433.15Zm4.7.81v-.08a7.09,7.09,0,0,0,1.47-2.1,6,6,0,0,0,.57-2.6,5.94,5.94,0,0,0-.56-2.59,7,7,0,0,0-1.47-2.11v-.08h.85a6.24,6.24,0,0,1,1,1.24,6.08,6.08,0,0,1,.73,1.61,6.3,6.3,0,0,1,.28,1.93,6.41,6.41,0,0,1-.28,1.94,6.16,6.16,0,0,1-.73,1.6,6.24,6.24,0,0,1-1,1.24Z" transform="translate(-437.17 -267.63)" style="fill: #2d3b49"></path><path d="M437.17,695.06h325v78.88h-325Z" transform="translate(-437.17 -267.63)" style="fill: #f1f3f5"></path><path d="M632.29,745.87l19.31-19.32" transform="translate(-437.17 -267.63)" style="fill: none;stroke: #ff340c;stroke-miterlimit: 10"></path><path d="M641.94,736.21l9.66,9.66" transform="translate(-437.17 -267.63)" style="fill: none;stroke: #ff340c;stroke-miterlimit: 10"></path><path d="M632.29,726.55l7.25,7.26" transform="translate(-437.17 -267.63)" style="fill: none;stroke: #ff340c;stroke-miterlimit: 10"></path><path d="M719.65,732.81l2.92,2.85.6.59.7.68,11.91-11.61" transform="translate(-437.17 -267.63)" style="fill: none;stroke: #19ad4a;stroke-miterlimit: 10"></path><path d="M731.67,728.72a11.07,11.07,0,0,1,.79,1.53,10,10,0,0,1-10.94,13.64,10,10,0,0,1-5.81-16.49,10,10,0,0,1,12.9-1.78" transform="translate(-437.17 -267.63)" style="fill: none;stroke: #19ad4a;stroke-miterlimit: 10"></path><path d="M460.61,729v-8.4h1.27v3.6l3.31-3.6h1.58L463.66,724l3.18,5h-1.55L462.75,725l-.87.93V729Zm9.63.14a3.16,3.16,0,0,1-1.56-.38,2.92,2.92,0,0,1-1.06-1.09,3.4,3.4,0,0,1-.38-1.62,3.46,3.46,0,0,1,.37-1.65,2.81,2.81,0,0,1,1.06-1.1,3,3,0,0,1,1.58-.4,2.8,2.8,0,0,1,1.52.4,2.63,2.63,0,0,1,1,1,2.89,2.89,0,0,1,.36,1.43,2.35,2.35,0,0,1,0,.26c0,.09,0,.19,0,.3h-4.63a1.84,1.84,0,0,0,.56,1.32,1.75,1.75,0,0,0,1.19.45,1.59,1.59,0,0,0,.9-.24,1.53,1.53,0,0,0,.55-.68H473a2.72,2.72,0,0,1-1,1.41A2.77,2.77,0,0,1,470.24,729.17Zm0-5.19a1.75,1.75,0,0,0-1.13.38,1.61,1.61,0,0,0-.6,1.13h3.36a1.53,1.53,0,0,0-.49-1.11A1.67,1.67,0,0,0,470.24,724Zm4.65,7.69,1.43-3.13H476l-2.35-5.46H475l1.82,4.4,1.91-4.4h1.34l-3.84,8.59Zm11.27-2.5a2.7,2.7,0,0,1-1.25-.25,1.75,1.75,0,0,1-.73-.66,1.79,1.79,0,0,1-.24-.91,1.62,1.62,0,0,1,.67-1.37,3.14,3.14,0,0,1,1.92-.5h1.56v-.11a1.26,1.26,0,0,0-1.36-1.39,1.58,1.58,0,0,0-.92.26,1.07,1.07,0,0,0-.47.76h-1.27a2,2,0,0,1,.43-1.11,2.51,2.51,0,0,1,1-.71,3.36,3.36,0,0,1,1.28-.25,2.68,2.68,0,0,1,1.94.66,2.36,2.36,0,0,1,.68,1.78V729h-1.1l-.11-1a2.31,2.31,0,0,1-.73.83A2.18,2.18,0,0,1,486.16,729.17Zm.25-1a1.48,1.48,0,0,0,.86-.24,1.6,1.6,0,0,0,.55-.66,2.61,2.61,0,0,0,.26-.9h-1.42a1.78,1.78,0,0,0-1.08.26.83.83,0,0,0-.31.66.78.78,0,0,0,.3.65A1.42,1.42,0,0,0,486.41,728.14Zm4.43.89v-5.95H492l.1,1a2,2,0,0,1,.8-.86,2.32,2.32,0,0,1,1.24-.33,2.2,2.2,0,0,1,1.69.67,2.85,2.85,0,0,1,.62,2V729h-1.26v-3.29c0-1.15-.47-1.73-1.41-1.73a1.54,1.54,0,0,0-1.18.51,2.07,2.07,0,0,0-.45,1.44V729Zm9.79.14a2.77,2.77,0,0,1-1.52-.41,2.83,2.83,0,0,1-1-1.11,3.38,3.38,0,0,1-.37-1.61,3.34,3.34,0,0,1,.37-1.6,2.73,2.73,0,0,1,1-1.1,2.93,2.93,0,0,1,1.54-.41,2.54,2.54,0,0,1,1.23.28,2,2,0,0,1,.84.78v-3.6H504V729h-1.14l-.13-.93a2.72,2.72,0,0,1-.79.75A2.43,2.43,0,0,1,500.63,729.17Zm.23-1.1a1.7,1.7,0,0,0,1.33-.57,2.25,2.25,0,0,0,0-2.9,1.69,1.69,0,0,0-1.33-.56,1.74,1.74,0,0,0-1.34.56,2,2,0,0,0-.53,1.45,2.26,2.26,0,0,0,.24,1.05,1.91,1.91,0,0,0,.66.72A2,2,0,0,0,500.86,728.07Zm10.55,1.1a3.16,3.16,0,0,1-1.56-.38,2.92,2.92,0,0,1-1.06-1.09,3.29,3.29,0,0,1-.38-1.62,3.46,3.46,0,0,1,.37-1.65,2.78,2.78,0,0,1,1.05-1.1,3.08,3.08,0,0,1,1.59-.4,2.8,2.8,0,0,1,1.52.4,2.7,2.7,0,0,1,1,1,2.89,2.89,0,0,1,.36,1.43,2.35,2.35,0,0,1,0,.26c0,.09,0,.19,0,.3h-4.64a1.85,1.85,0,0,0,.57,1.32,1.75,1.75,0,0,0,1.19.45,1.46,1.46,0,0,0,1.45-.92h1.27a2.72,2.72,0,0,1-1,1.41A2.77,2.77,0,0,1,511.41,729.17Zm0-5.19a1.75,1.75,0,0,0-1.13.38,1.61,1.61,0,0,0-.6,1.13H513a1.57,1.57,0,0,0-.49-1.11A1.67,1.67,0,0,0,511.41,724Zm4.22,5v-5.95h1.13l.11.84a2,2,0,0,1,.75-.72,2.23,2.23,0,0,1,1.11-.27,2,2,0,0,1,2,1.12,2.36,2.36,0,0,1,.87-.82,2.45,2.45,0,0,1,1.19-.3,2.34,2.34,0,0,1,1.75.67,2.85,2.85,0,0,1,.63,2V729h-1.27v-3.29c0-1.15-.44-1.73-1.32-1.73a1.37,1.37,0,0,0-1.1.51A2.17,2.17,0,0,0,521,726V729h-1.27v-3.29c0-1.15-.45-1.73-1.34-1.73a1.37,1.37,0,0,0-1.09.51,2.17,2.17,0,0,0-.42,1.44V729Zm13.78.14a3.16,3.16,0,0,1-1.56-.38,2.92,2.92,0,0,1-1.06-1.09,3.29,3.29,0,0,1-.38-1.62,3.46,3.46,0,0,1,.37-1.65,2.78,2.78,0,0,1,1.05-1.1,3.08,3.08,0,0,1,1.59-.4,2.8,2.8,0,0,1,1.52.4,2.7,2.7,0,0,1,1,1,2.89,2.89,0,0,1,.36,1.43,2.35,2.35,0,0,1,0,.26c0,.09,0,.19,0,.3h-4.64a1.85,1.85,0,0,0,.57,1.32,1.75,1.75,0,0,0,1.19.45,1.46,1.46,0,0,0,1.45-.92h1.27a2.72,2.72,0,0,1-1,1.41A2.77,2.77,0,0,1,529.41,729.17Zm0-5.19a1.75,1.75,0,0,0-1.13.38,1.61,1.61,0,0,0-.6,1.13H531a1.57,1.57,0,0,0-.49-1.11A1.67,1.67,0,0,0,529.41,724Zm4.22,5v-5.95h1.14l.11,1.12a2.31,2.31,0,0,1,.86-.92,2.57,2.57,0,0,1,1.36-.35v1.33h-.35a2.4,2.4,0,0,0-1,.18,1.44,1.44,0,0,0-.66.59,2.25,2.25,0,0,0-.24,1.14V729Zm6.85-1.83a3.33,3.33,0,0,1-.86-.1l-.52.5a1.26,1.26,0,0,0,.33.14,3.35,3.35,0,0,0,.54.11c.23,0,.55.07.95.1a3,3,0,0,1,1.71.57,1.57,1.57,0,0,1,.53,1.23,1.87,1.87,0,0,1-.29,1,1.89,1.89,0,0,1-.87.77,3.37,3.37,0,0,1-1.52.3,3.8,3.8,0,0,1-2-.48,1.55,1.55,0,0,1-.77-1.43,1.6,1.6,0,0,1,.19-.74,2.25,2.25,0,0,1,.64-.68,4.67,4.67,0,0,1-.45-.23,3,3,0,0,1-.32-.27v-.28l1-1.06a2,2,0,0,1-.7-1.57,2.16,2.16,0,0,1,.28-1.07,2,2,0,0,1,.83-.78,2.73,2.73,0,0,1,1.29-.29,2.85,2.85,0,0,1,.94.15h2.22v.84l-1.06.06a2,2,0,0,1,.29,1.09,2,2,0,0,1-.29,1.08,2,2,0,0,1-.81.77A2.67,2.67,0,0,1,540.48,727.2Zm0-1a1.32,1.32,0,0,0,.89-.29,1.06,1.06,0,0,0,.35-.84,1,1,0,0,0-.35-.84,1.32,1.32,0,0,0-.89-.29,1.4,1.4,0,0,0-.91.29,1,1,0,0,0-.33.84,1.08,1.08,0,0,0,.33.84A1.4,1.4,0,0,0,540.48,726.21Zm-1.59,3.57a.82.82,0,0,0,.45.77,2.24,2.24,0,0,0,1.14.27,1.83,1.83,0,0,0,1.07-.29.87.87,0,0,0,.41-.75.78.78,0,0,0-.28-.6,1.86,1.86,0,0,0-1-.3c-.38,0-.72-.06-1-.1a1.46,1.46,0,0,0-.58.49A1,1,0,0,0,538.89,729.78Zm6.6-7.83a.84.84,0,0,1-.6-.22.76.76,0,0,1-.22-.56.71.71,0,0,1,.22-.55.81.81,0,0,1,.6-.23.77.77,0,0,1,.59.23.69.69,0,0,1,.24.55.74.74,0,0,1-.24.56A.8.8,0,0,1,545.49,722Zm-.63,7.08v-5.95h1.27V729Zm2.95,0v-5.95h1.13l.09,1a2,2,0,0,1,.81-.86,2.31,2.31,0,0,1,1.23-.33,2.18,2.18,0,0,1,1.69.67,2.85,2.85,0,0,1,.63,2V729h-1.26v-3.29c0-1.15-.47-1.73-1.42-1.73a1.52,1.52,0,0,0-1.17.51,2,2,0,0,0-.46,1.44V729ZM466,745.17a3,3,0,0,1-1.86-.55,2.07,2.07,0,0,1-.84-1.46h1.29a1.25,1.25,0,0,0,.45.7,1.44,1.44,0,0,0,.95.29,1.24,1.24,0,0,0,.84-.24.7.7,0,0,0,.26-.55.59.59,0,0,0-.37-.61,4.79,4.79,0,0,0-1-.3,7.53,7.53,0,0,1-1-.29,2.36,2.36,0,0,1-.83-.5,1.25,1.25,0,0,1-.33-.9,1.64,1.64,0,0,1,.6-1.3,2.47,2.47,0,0,1,1.68-.53,2.53,2.53,0,0,1,1.61.48,1.9,1.9,0,0,1,.73,1.36h-1.22a.86.86,0,0,0-.36-.6,1.23,1.23,0,0,0-.78-.22,1.14,1.14,0,0,0-.74.21.57.57,0,0,0-.27.5.54.54,0,0,0,.36.49,5.17,5.17,0,0,0,1,.33,8.1,8.1,0,0,1,1.11.31,2,2,0,0,1,.83.5,1.45,1.45,0,0,1,.31,1,1.66,1.66,0,0,1-.64,1.35A2.59,2.59,0,0,1,466,745.17Zm6.55,0a3.17,3.17,0,0,1-1.54-.38,3,3,0,0,1-1.06-1.09,3.28,3.28,0,0,1-.4-1.65,3.18,3.18,0,0,1,.4-1.63,2.79,2.79,0,0,1,1.09-1.09,3.11,3.11,0,0,1,3.05,0,2.83,2.83,0,0,1,1.08,1.09,3.18,3.18,0,0,1,.4,1.63,3.28,3.28,0,0,1-.4,1.65,3,3,0,0,1-1.08,1.09A3.17,3.17,0,0,1,472.51,745.17Zm0-1.09a1.68,1.68,0,0,0,1.48-.9,2.39,2.39,0,0,0,.24-1.13,2.28,2.28,0,0,0-.24-1.11,1.57,1.57,0,0,0-.63-.69,1.6,1.6,0,0,0-.84-.23,1.69,1.69,0,0,0-.85.23,1.61,1.61,0,0,0-.62.69,2.28,2.28,0,0,0-.24,1.11,2.39,2.39,0,0,0,.24,1.13,1.62,1.62,0,0,0,.62.67A1.66,1.66,0,0,0,472.51,744.08Zm6.6,1.09a2.22,2.22,0,0,1-1.71-.67,2.88,2.88,0,0,1-.61-2v-3.42h1.27v3.28c0,1.16.47,1.73,1.42,1.73a1.51,1.51,0,0,0,1.16-.5,2.06,2.06,0,0,0,.46-1.44v-3.07h1.27V745h-1.13l-.09-1a2.17,2.17,0,0,1-.82.88A2.33,2.33,0,0,1,479.11,745.17ZM484,745v-5.95h1.14l.11,1.12a2.25,2.25,0,0,1,.86-.92,2.57,2.57,0,0,1,1.36-.35v1.33h-.35a2.4,2.4,0,0,0-.95.18,1.44,1.44,0,0,0-.66.59,2.25,2.25,0,0,0-.24,1.14V745Zm7.21.14a3.15,3.15,0,0,1-1.57-.39,2.85,2.85,0,0,1-1.08-1.1,3.66,3.66,0,0,1,0-3.25,2.79,2.79,0,0,1,1.08-1.1,3.06,3.06,0,0,1,1.57-.4,2.9,2.9,0,0,1,1.85.58,2.56,2.56,0,0,1,1,1.56h-1.33a1.25,1.25,0,0,0-.53-.77,1.7,1.7,0,0,0-1-.28,1.62,1.62,0,0,0-.86.24,1.65,1.65,0,0,0-.64.69,2.27,2.27,0,0,0-.24,1.1,2.41,2.41,0,0,0,.24,1.12,1.75,1.75,0,0,0,.64.68,1.62,1.62,0,0,0,.86.24,1.69,1.69,0,0,0,1-.27,1.3,1.3,0,0,0,.53-.78H494a2.5,2.5,0,0,1-1,1.54A2.88,2.88,0,0,1,491.2,745.17Zm7,0a3.16,3.16,0,0,1-1.56-.38,2.92,2.92,0,0,1-1.06-1.09,3.29,3.29,0,0,1-.38-1.62,3.46,3.46,0,0,1,.37-1.65,2.78,2.78,0,0,1,1.05-1.1,3.08,3.08,0,0,1,1.59-.4,2.8,2.8,0,0,1,1.52.4,2.7,2.7,0,0,1,1,1,2.89,2.89,0,0,1,.36,1.43,2.35,2.35,0,0,1,0,.26c0,.09,0,.19,0,.3h-4.64a1.85,1.85,0,0,0,.57,1.32,1.75,1.75,0,0,0,1.19.45,1.46,1.46,0,0,0,1.45-.92h1.27a2.72,2.72,0,0,1-1,1.41A2.77,2.77,0,0,1,498.19,745.17Zm0-5.19a1.75,1.75,0,0,0-1.13.38,1.61,1.61,0,0,0-.6,1.13h3.36a1.57,1.57,0,0,0-.49-1.11A1.67,1.67,0,0,0,498.19,740Zm7.24,5v-5.95h1.13l.11.84a2,2,0,0,1,.76-.72,2.19,2.19,0,0,1,1.1-.27,2,2,0,0,1,2,1.12,2.26,2.26,0,0,1,.86-.82,2.47,2.47,0,0,1,1.19-.3,2.32,2.32,0,0,1,1.75.67,2.81,2.81,0,0,1,.64,2V745h-1.27v-3.29c0-1.15-.44-1.73-1.32-1.73a1.39,1.39,0,0,0-1.11.51,2.17,2.17,0,0,0-.42,1.44V745h-1.27v-3.29c0-1.15-.44-1.73-1.33-1.73a1.36,1.36,0,0,0-1.09.51,2.17,2.17,0,0,0-.42,1.44V745Zm13,.14a2.73,2.73,0,0,1-1.25-.25,1.69,1.69,0,0,1-1-1.57,1.64,1.64,0,0,1,.67-1.37,3.14,3.14,0,0,1,1.92-.5h1.56v-.11a1.34,1.34,0,0,0-.38-1,1.37,1.37,0,0,0-1-.34,1.63,1.63,0,0,0-.93.26,1.06,1.06,0,0,0-.46.76h-1.28a2,2,0,0,1,.44-1.11,2.37,2.37,0,0,1,1-.71,3.36,3.36,0,0,1,1.28-.25,2.66,2.66,0,0,1,1.93.66,2.33,2.33,0,0,1,.69,1.78V745h-1.11l-.11-1a2.22,2.22,0,0,1-.73.83A2.18,2.18,0,0,1,518.44,745.17Zm.25-1a1.49,1.49,0,0,0,.87-.24,1.68,1.68,0,0,0,.55-.66,2.4,2.4,0,0,0,.25-.9H519a1.74,1.74,0,0,0-1.08.26.84.84,0,0,0-.32.66.78.78,0,0,0,.3.65A1.42,1.42,0,0,0,518.69,744.14Zm4.44.89v-5.95h1.14l.11,1.12a2.31,2.31,0,0,1,.86-.92,2.57,2.57,0,0,1,1.36-.35v1.33h-.35a2.4,2.4,0,0,0-1,.18,1.44,1.44,0,0,0-.66.59,2.25,2.25,0,0,0-.24,1.14V745Zm4.56,0v-8.64H529v5.15l2.28-2.46h1.52l-2.53,2.7,2.91,3.25h-1.61L529,742v3Zm8.76.14a3.16,3.16,0,0,1-1.56-.38,2.92,2.92,0,0,1-1.06-1.09,3.4,3.4,0,0,1-.38-1.62,3.46,3.46,0,0,1,.37-1.65,2.81,2.81,0,0,1,1.06-1.1,3,3,0,0,1,1.58-.4,2.8,2.8,0,0,1,1.52.4,2.63,2.63,0,0,1,1,1,2.89,2.89,0,0,1,.36,1.43,2.35,2.35,0,0,1,0,.26c0,.09,0,.19,0,.3H534.7a1.84,1.84,0,0,0,.56,1.32,1.75,1.75,0,0,0,1.19.45,1.59,1.59,0,0,0,.9-.24,1.53,1.53,0,0,0,.55-.68h1.27a2.72,2.72,0,0,1-1,1.41A2.77,2.77,0,0,1,536.45,745.17Zm0-5.19a1.75,1.75,0,0,0-1.13.38,1.61,1.61,0,0,0-.6,1.13h3.36a1.53,1.53,0,0,0-.49-1.11A1.67,1.67,0,0,0,536.45,740Zm6.57,5a2.16,2.16,0,0,1-1.4-.42,1.93,1.93,0,0,1-.51-1.53v-2.94h-1v-1.06h1l.15-1.52h1.12v1.52h1.68v1.06h-1.68v2.94a1,1,0,0,0,.2.69,1.18,1.18,0,0,0,.74.18H544V745Zm4.73.14a3,3,0,0,1-1.86-.55,2.07,2.07,0,0,1-.84-1.46h1.28a1.33,1.33,0,0,0,.46.7,1.42,1.42,0,0,0,1,.29,1.24,1.24,0,0,0,.84-.24.74.74,0,0,0,.26-.55.59.59,0,0,0-.37-.61,5,5,0,0,0-1-.3,7.67,7.67,0,0,1-1-.29,2.45,2.45,0,0,1-.83-.5,1.29,1.29,0,0,1-.32-.9,1.64,1.64,0,0,1,.6-1.3,2.47,2.47,0,0,1,1.68-.53,2.55,2.55,0,0,1,1.61.48,1.94,1.94,0,0,1,.73,1.36H548.7a.86.86,0,0,0-.36-.6,1.26,1.26,0,0,0-.78-.22,1.19,1.19,0,0,0-.75.21.59.59,0,0,0-.26.5.54.54,0,0,0,.36.49,5.17,5.17,0,0,0,1,.33,7.57,7.57,0,0,1,1.1.31,1.91,1.91,0,0,1,.83.5,1.4,1.4,0,0,1,.31,1,1.65,1.65,0,0,1-.63,1.35A2.62,2.62,0,0,1,547.75,745.17Z" transform="translate(-437.17 -267.63)" style="fill: #2d3b49"></path><path d="M437.17,537.31h325v78.87h-325Z" transform="translate(-437.17 -267.63)" style="fill: #f1f3f5"></path><path d="M632.29,587.24l19.31-19.32" transform="translate(-437.17 -267.63)" style="fill: none;stroke: #ff340c;stroke-miterlimit: 10"></path><path d="M641.94,577.58l9.66,9.66" transform="translate(-437.17 -267.63)" style="fill: none;stroke: #ff340c;stroke-miterlimit: 10"></path><path d="M632.29,567.92l7.25,7.26" transform="translate(-437.17 -267.63)" style="fill: none;stroke: #ff340c;stroke-miterlimit: 10"></path><path d="M719.65,575.06l2.92,2.84.6.59.7.68,11.91-11.61" transform="translate(-437.17 -267.63)" style="fill: none;stroke: #19ad4a;stroke-miterlimit: 10"></path><path d="M731.67,571a11.07,11.07,0,0,1,.79,1.53,10,10,0,0,1-10.94,13.64,10,10,0,0,1-5.81-16.49,10,10,0,0,1,12.9-1.78" transform="translate(-437.17 -267.63)" style="fill: none;stroke: #19ad4a;stroke-miterlimit: 10"></path><path d="M460.61,571.27v-8.4h2.94a3.43,3.43,0,0,1,1.63.34,2.1,2.1,0,0,1,1,.9,2.46,2.46,0,0,1,.33,1.28,2.56,2.56,0,0,1-.32,1.26,2.11,2.11,0,0,1-.94.9,3.68,3.68,0,0,1-1.66.34h-1.67v3.38Zm1.27-4.43h1.61a1.78,1.78,0,0,0,1.28-.38,1.64,1.64,0,0,0,0-2.15,1.73,1.73,0,0,0-1.28-.4h-1.61Zm7.48,4.57a2.66,2.66,0,0,1-1.24-.25,1.68,1.68,0,0,1-1-1.57,1.63,1.63,0,0,1,.68-1.37,3.16,3.16,0,0,1,1.92-.5h1.56v-.11a1.28,1.28,0,0,0-1.36-1.39,1.65,1.65,0,0,0-.92.26,1,1,0,0,0-.47.76h-1.27a2,2,0,0,1,.43-1.11,2.35,2.35,0,0,1,1-.7,3.18,3.18,0,0,1,1.28-.26,2.66,2.66,0,0,1,1.93.66,2.34,2.34,0,0,1,.69,1.78v3.66h-1.11l-.1-1a2.34,2.34,0,0,1-.74.83A2.18,2.18,0,0,1,469.36,571.41Zm.26-1a1.48,1.48,0,0,0,.86-.24,1.68,1.68,0,0,0,.55-.66,2.4,2.4,0,0,0,.25-.9h-1.41a1.67,1.67,0,0,0-1.08.27.81.81,0,0,0-.31.66.77.77,0,0,0,.3.64A1.31,1.31,0,0,0,469.62,570.38Zm6.81,1a3,3,0,0,1-1.86-.55,2,2,0,0,1-.84-1.46H475a1.3,1.3,0,0,0,.46.71,1.46,1.46,0,0,0,.94.28,1.2,1.2,0,0,0,.84-.24.71.71,0,0,0,.27-.55.61.61,0,0,0-.37-.61,5,5,0,0,0-1-.3,7.67,7.67,0,0,1-1-.29,2.45,2.45,0,0,1-.83-.5,1.29,1.29,0,0,1-.32-.9,1.65,1.65,0,0,1,.6-1.3,2.47,2.47,0,0,1,1.68-.53,2.55,2.55,0,0,1,1.61.48,2,2,0,0,1,.73,1.36h-1.23a.86.86,0,0,0-.36-.6,1.29,1.29,0,0,0-.78-.22,1.16,1.16,0,0,0-.74.21.58.58,0,0,0-.26.5.54.54,0,0,0,.36.49,4.92,4.92,0,0,0,1,.33,9.09,9.09,0,0,1,1.1.31,1.91,1.91,0,0,1,.83.5,1.42,1.42,0,0,1,.31,1,1.65,1.65,0,0,1-.63,1.35A2.62,2.62,0,0,1,476.43,571.41Zm6.14,0a3,3,0,0,1-1.86-.55,2,2,0,0,1-.84-1.46h1.28a1.35,1.35,0,0,0,.46.71,1.47,1.47,0,0,0,.95.28,1.24,1.24,0,0,0,.84-.24.74.74,0,0,0,.26-.55.59.59,0,0,0-.37-.61,5,5,0,0,0-1-.3,7.67,7.67,0,0,1-1-.29,2.45,2.45,0,0,1-.83-.5,1.29,1.29,0,0,1-.32-.9,1.65,1.65,0,0,1,.6-1.3,2.47,2.47,0,0,1,1.68-.53,2.55,2.55,0,0,1,1.61.48,2,2,0,0,1,.73,1.36h-1.22a.86.86,0,0,0-.36-.6,1.33,1.33,0,0,0-.78-.22,1.19,1.19,0,0,0-.75.21.6.6,0,0,0-.26.5.54.54,0,0,0,.36.49,5.17,5.17,0,0,0,1,.33,9.09,9.09,0,0,1,1.1.31,1.91,1.91,0,0,1,.83.5,1.42,1.42,0,0,1,.31,1,1.65,1.65,0,0,1-.63,1.35A2.62,2.62,0,0,1,482.57,571.41Zm9.57,0a3.06,3.06,0,0,1-1.54-.38,2.92,2.92,0,0,1-1.06-1.09,3.25,3.25,0,0,1-.4-1.65,3.2,3.2,0,0,1,.4-1.63,2.85,2.85,0,0,1,1.09-1.09,3.11,3.11,0,0,1,3.05,0,2.9,2.9,0,0,1,1.08,1.09,3.2,3.2,0,0,1,.4,1.63,3.25,3.25,0,0,1-.4,1.65,3,3,0,0,1-1.08,1.09A3.06,3.06,0,0,1,492.14,571.41Zm0-1.09a1.56,1.56,0,0,0,.84-.23,1.66,1.66,0,0,0,.64-.67,2.39,2.39,0,0,0,.24-1.13,2.31,2.31,0,0,0-.24-1.11,1.63,1.63,0,0,0-.63-.69,1.6,1.6,0,0,0-.84-.22,1.56,1.56,0,0,0-1.47.91,2.31,2.31,0,0,0-.24,1.11,2.39,2.39,0,0,0,.24,1.13,1.62,1.62,0,0,0,.62.67A1.56,1.56,0,0,0,492.14,570.32Zm4.4.95v-5.95h1.13l.09,1a2.1,2.1,0,0,1,.81-.86,2.31,2.31,0,0,1,1.23-.33,2.19,2.19,0,0,1,1.7.68,2.85,2.85,0,0,1,.62,2v3.42h-1.26V568c0-1.15-.47-1.73-1.42-1.73a1.52,1.52,0,0,0-1.17.51,2,2,0,0,0-.46,1.44v3.07Zm11,0v-7l-1.35.31v-.93l1.86-.82h.81v8.4Zm6.39.14a3.52,3.52,0,0,1-2-.54,3.58,3.58,0,0,1-1.26-1.52,5.62,5.62,0,0,1-.43-2.28,5.54,5.54,0,0,1,.43-2.27,3.58,3.58,0,0,1,1.26-1.52,3.79,3.79,0,0,1,3.93,0,3.4,3.4,0,0,1,1.24,1.52,5.38,5.38,0,0,1,.45,2.27,5.46,5.46,0,0,1-.45,2.28,3.4,3.4,0,0,1-1.24,1.52A3.49,3.49,0,0,1,513.94,571.41Zm0-1.14a2,2,0,0,0,1.21-.38,2.49,2.49,0,0,0,.84-1.1,5.08,5.08,0,0,0,0-3.44,2.49,2.49,0,0,0-.84-1.1,2,2,0,0,0-1.21-.38,2,2,0,0,0-1.22.38,2.48,2.48,0,0,0-.83,1.1,5.08,5.08,0,0,0,0,3.44,2.48,2.48,0,0,0,.83,1.1A2,2,0,0,0,513.94,570.27Zm8.43,1.14a3.52,3.52,0,0,1-2-.54,3.44,3.44,0,0,1-1.26-1.52,5.62,5.62,0,0,1-.43-2.28,5.54,5.54,0,0,1,.43-2.27,3.37,3.37,0,0,1,3.23-2.07,3.36,3.36,0,0,1,2,.55,3.42,3.42,0,0,1,1.25,1.52,5.38,5.38,0,0,1,.44,2.27,5.46,5.46,0,0,1-.44,2.28,3.31,3.31,0,0,1-3.2,2.06Zm0-1.14a2,2,0,0,0,1.21-.38,2.49,2.49,0,0,0,.84-1.1,5.08,5.08,0,0,0,0-3.44,2.49,2.49,0,0,0-.84-1.1,2.15,2.15,0,0,0-2.44,0,2.55,2.55,0,0,0-.83,1.1,5.08,5.08,0,0,0,0,3.44,2.55,2.55,0,0,0,.83,1.1A2,2,0,0,0,522.37,570.27Zm6.68-3.39a2.14,2.14,0,0,1-1-.25,1.93,1.93,0,0,1-.71-.71,2.32,2.32,0,0,1-.26-1.12,2.2,2.2,0,0,1,.26-1.09A1.91,1.91,0,0,1,528,563a2.08,2.08,0,0,1,1-.25,2,2,0,0,1,1,.25,1.91,1.91,0,0,1,.72.72,2.2,2.2,0,0,1,.26,1.09,2.32,2.32,0,0,1-.26,1.12,2,2,0,0,1-.72.71A2.1,2.1,0,0,1,529.05,566.88Zm-.6,4.39,4.81-8.4h1.25l-4.8,8.4Zm.6-5.3a.88.88,0,0,0,.66-.29,1.23,1.23,0,0,0,.29-.88,1.17,1.17,0,0,0-.28-.86.87.87,0,0,0-.67-.3.89.89,0,0,0-.67.3,1.18,1.18,0,0,0-.29.86,1.22,1.22,0,0,0,.28.88A.94.94,0,0,0,529.05,566Zm4.93,5.44a2.08,2.08,0,0,1-1-.25,1.93,1.93,0,0,1-.71-.71,2.28,2.28,0,0,1-.26-1.11,2.3,2.3,0,0,1,.26-1.11,1.91,1.91,0,0,1,.72-.72,2.2,2.2,0,0,1,1-.25,2.09,2.09,0,0,1,1,.25,1.91,1.91,0,0,1,.72.72,2.2,2.2,0,0,1,.26,1.11,2.17,2.17,0,0,1-.26,1.11,1.89,1.89,0,0,1-.72.71A2,2,0,0,1,534,571.41Zm0-.92a.88.88,0,0,0,.66-.29,1.18,1.18,0,0,0,.29-.86,1.2,1.2,0,0,0-.28-.87.86.86,0,0,0-.67-.3.91.91,0,0,0-.67.3,1.2,1.2,0,0,0-.29.87,1.17,1.17,0,0,0,.28.86A.94.94,0,0,0,534,570.49Zm-70.6,16.92a3.15,3.15,0,0,1-1.57-.39,2.9,2.9,0,0,1-1.08-1.09,3.37,3.37,0,0,1-.38-1.64,3.29,3.29,0,0,1,.38-1.62,2.79,2.79,0,0,1,1.08-1.1,3.16,3.16,0,0,1,1.57-.4,3,3,0,0,1,1.85.58,2.56,2.56,0,0,1,1,1.56h-1.33a1.28,1.28,0,0,0-.53-.77,1.69,1.69,0,0,0-1-.27,1.7,1.7,0,0,0-1.5.92,2.29,2.29,0,0,0-.24,1.1,2.38,2.38,0,0,0,.24,1.12,1.68,1.68,0,0,0,.64.68,1.62,1.62,0,0,0,.86.24,1.69,1.69,0,0,0,1-.27,1.3,1.3,0,0,0,.53-.78h1.33a2.55,2.55,0,0,1-1,1.55A2.93,2.93,0,0,1,463.38,587.41Zm7,0a3.06,3.06,0,0,1-1.54-.38,3,3,0,0,1-1.07-1.09,3.35,3.35,0,0,1-.39-1.65,3.3,3.3,0,0,1,.39-1.63,2.92,2.92,0,0,1,1.09-1.09,3.06,3.06,0,0,1,1.53-.4,3,3,0,0,1,1.52.4,2.76,2.76,0,0,1,1.08,1.09,3.21,3.21,0,0,1,.41,1.63,3.26,3.26,0,0,1-.41,1.65A2.83,2.83,0,0,1,471.9,587,3,3,0,0,1,470.37,587.41Zm0-1.09a1.56,1.56,0,0,0,.84-.23,1.64,1.64,0,0,0,.63-.67,2.39,2.39,0,0,0,.24-1.13,2.31,2.31,0,0,0-.24-1.11,1.61,1.61,0,0,0-.62-.69,1.73,1.73,0,0,0-1.69,0,1.69,1.69,0,0,0-.63.69,2.31,2.31,0,0,0-.24,1.11,2.39,2.39,0,0,0,.24,1.13,1.64,1.64,0,0,0,.63.67A1.52,1.52,0,0,0,470.37,586.32Zm4.4.95v-5.95h1.12l.11.84a2,2,0,0,1,.76-.72,2.21,2.21,0,0,1,1.1-.27,2,2,0,0,1,2,1.12,2.41,2.41,0,0,1,.86-.82,2.47,2.47,0,0,1,1.19-.3,2.27,2.27,0,0,1,1.75.68,2.76,2.76,0,0,1,.64,2v3.42H483V584c0-1.15-.44-1.73-1.32-1.73a1.39,1.39,0,0,0-1.11.51,2.17,2.17,0,0,0-.42,1.44v3.07h-1.27V584c0-1.15-.44-1.73-1.33-1.73a1.37,1.37,0,0,0-1.09.51,2.17,2.17,0,0,0-.42,1.44v3.07Zm11,0v-5.95h1.13l.1.84a2.09,2.09,0,0,1,.76-.72,2.21,2.21,0,0,1,1.1-.27,2,2,0,0,1,2,1.12,2.44,2.44,0,0,1,.87-.82,2.41,2.41,0,0,1,1.18-.3,2.31,2.31,0,0,1,1.76.68,2.81,2.81,0,0,1,.63,2v3.42H494V584c0-1.15-.44-1.73-1.32-1.73a1.36,1.36,0,0,0-1.1.51,2.17,2.17,0,0,0-.42,1.44v3.07h-1.28V584c0-1.15-.44-1.73-1.33-1.73a1.37,1.37,0,0,0-1.09.51,2.17,2.17,0,0,0-.42,1.44v3.07Zm11.71-7.08a.84.84,0,0,1-.6-.22.77.77,0,0,1-.23-.56.73.73,0,0,1,.23-.55.85.85,0,0,1,.6-.23.81.81,0,0,1,.59.23.71.71,0,0,1,.24.55.74.74,0,0,1-.24.56A.8.8,0,0,1,497.47,580.19Zm-.64,7.08v-5.95h1.28v5.95Zm5.33.14a3,3,0,0,1-1.86-.55,2,2,0,0,1-.84-1.46h1.29a1.28,1.28,0,0,0,.45.71,1.49,1.49,0,0,0,.95.28,1.24,1.24,0,0,0,.84-.24.7.7,0,0,0,.26-.55.59.59,0,0,0-.37-.61,4.79,4.79,0,0,0-1-.3,7.53,7.53,0,0,1-1-.29,2.36,2.36,0,0,1-.83-.5,1.25,1.25,0,0,1-.33-.9,1.65,1.65,0,0,1,.6-1.3,2.47,2.47,0,0,1,1.68-.53,2.53,2.53,0,0,1,1.61.48,1.92,1.92,0,0,1,.73,1.36h-1.22a.86.86,0,0,0-.36-.6,1.29,1.29,0,0,0-.78-.22,1.14,1.14,0,0,0-.74.21.58.58,0,0,0-.27.5.54.54,0,0,0,.36.49,5.17,5.17,0,0,0,1,.33,9.83,9.83,0,0,1,1.11.31,2,2,0,0,1,.83.5,1.47,1.47,0,0,1,.31,1,1.66,1.66,0,0,1-.64,1.35A2.59,2.59,0,0,1,502.16,587.41Zm6.14,0a3,3,0,0,1-1.86-.55,2,2,0,0,1-.84-1.46h1.29a1.28,1.28,0,0,0,.45.71,1.49,1.49,0,0,0,1,.28,1.24,1.24,0,0,0,.84-.24.7.7,0,0,0,.26-.55A.59.59,0,0,0,509,585a4.79,4.79,0,0,0-1-.3,7.53,7.53,0,0,1-1-.29,2.36,2.36,0,0,1-.83-.5,1.25,1.25,0,0,1-.33-.9,1.65,1.65,0,0,1,.6-1.3,2.47,2.47,0,0,1,1.68-.53,2.53,2.53,0,0,1,1.61.48,1.92,1.92,0,0,1,.73,1.36h-1.22a.86.86,0,0,0-.36-.6,1.29,1.29,0,0,0-.78-.22,1.14,1.14,0,0,0-.74.21.58.58,0,0,0-.27.5.54.54,0,0,0,.36.49,5.17,5.17,0,0,0,1,.33,9.83,9.83,0,0,1,1.11.31,2,2,0,0,1,.83.5,1.47,1.47,0,0,1,.31,1,1.66,1.66,0,0,1-.64,1.35A2.59,2.59,0,0,1,508.3,587.41Zm4.49-7.22a.84.84,0,0,1-.6-.22.73.73,0,0,1-.23-.56.7.7,0,0,1,.23-.55.85.85,0,0,1,.6-.23.78.78,0,0,1,.58.23.71.71,0,0,1,.24.55.74.74,0,0,1-.24.56A.78.78,0,0,1,512.79,580.19Zm-.64,7.08v-5.95h1.27v5.95Zm5.74.14a3.06,3.06,0,0,1-1.54-.38,3,3,0,0,1-1.07-1.09,3.35,3.35,0,0,1-.39-1.65,3.3,3.3,0,0,1,.39-1.63,2.92,2.92,0,0,1,1.09-1.09,3.06,3.06,0,0,1,1.53-.4,3,3,0,0,1,1.52.4,2.76,2.76,0,0,1,1.08,1.09,3.21,3.21,0,0,1,.41,1.63,3.26,3.26,0,0,1-.41,1.65,2.83,2.83,0,0,1-1.08,1.09A3,3,0,0,1,517.89,587.41Zm0-1.09a1.56,1.56,0,0,0,.84-.23,1.64,1.64,0,0,0,.63-.67,2.39,2.39,0,0,0,.24-1.13,2.31,2.31,0,0,0-.24-1.11,1.61,1.61,0,0,0-.62-.69,1.73,1.73,0,0,0-1.69,0,1.69,1.69,0,0,0-.63.69,2.31,2.31,0,0,0-.24,1.11,2.39,2.39,0,0,0,.24,1.13,1.64,1.64,0,0,0,.63.67A1.52,1.52,0,0,0,517.89,586.32Zm4.4.95v-5.95h1.12l.1,1a2,2,0,0,1,.8-.86,2.35,2.35,0,0,1,1.24-.33,2.17,2.17,0,0,1,1.69.68,2.81,2.81,0,0,1,.63,2v3.42h-1.26V584c0-1.15-.48-1.73-1.42-1.73a1.55,1.55,0,0,0-1.18.51,2.07,2.07,0,0,0-.45,1.44v3.07Z" transform="translate(-437.17 -267.63)" style="fill: #2d3b49"></path><path d="M437.17,852.82h325V931.7h-325Z" transform="translate(-437.17 -267.63)" style="fill: #f1f3f5"></path><path d="M632.29,904.5l19.31-19.32" transform="translate(-437.17 -267.63)" style="fill: none;stroke: #ff340c;stroke-miterlimit: 10"></path><path d="M641.94,894.84l9.66,9.66" transform="translate(-437.17 -267.63)" style="fill: none;stroke: #ff340c;stroke-miterlimit: 10"></path><path d="M632.29,885.18l7.25,7.26" transform="translate(-437.17 -267.63)" style="fill: none;stroke: #ff340c;stroke-miterlimit: 10"></path><path d="M719.65,890.57l2.92,2.85.6.59.7.68,11.91-11.61" transform="translate(-437.17 -267.63)" style="fill: none;stroke: #19ad4a;stroke-miterlimit: 10"></path><path d="M731.67,886.48a10.53,10.53,0,0,1,.79,1.53,10,10,0,1,1-3.85-4.63" transform="translate(-437.17 -267.63)" style="fill: none;stroke: #19ad4a;stroke-miterlimit: 10"></path><path d="M460.61,886.79v-8.4h2.72a5.09,5.09,0,0,1,2.43.51,3.23,3.23,0,0,1,1.41,1.47,5.53,5.53,0,0,1,0,4.46,3.14,3.14,0,0,1-1.41,1.45,5.09,5.09,0,0,1-2.43.51Zm1.27-1.08h1.41a3.77,3.77,0,0,0,1.8-.37,2.22,2.22,0,0,0,1-1.07,4.22,4.22,0,0,0,.3-1.67,4.27,4.27,0,0,0-.3-1.68,2.2,2.2,0,0,0-1-1.08,3.54,3.54,0,0,0-1.8-.38h-1.41Zm9.9,1.22a3.22,3.22,0,0,1-1.56-.38,2.89,2.89,0,0,1-1.05-1.09,3.29,3.29,0,0,1-.39-1.62,3.46,3.46,0,0,1,.38-1.65,2.72,2.72,0,0,1,1-1.1,3.08,3.08,0,0,1,1.59-.4,2.8,2.8,0,0,1,1.52.4,2.7,2.7,0,0,1,1,1,2.89,2.89,0,0,1,.36,1.43c0,.08,0,.17,0,.26s0,.19,0,.3H470a1.85,1.85,0,0,0,.57,1.32,1.74,1.74,0,0,0,1.18.45,1.59,1.59,0,0,0,.9-.24,1.55,1.55,0,0,0,.56-.68h1.27a2.72,2.72,0,0,1-1,1.41A2.78,2.78,0,0,1,471.78,886.93Zm0-5.19a1.73,1.73,0,0,0-1.12.38,1.61,1.61,0,0,0-.6,1.13h3.36a1.54,1.54,0,0,0-.5-1.11A1.64,1.64,0,0,0,471.78,881.74Zm7,5.19a3.22,3.22,0,0,1-1.56-.38,2.82,2.82,0,0,1-1.05-1.09,3.29,3.29,0,0,1-.39-1.62,3.58,3.58,0,0,1,.37-1.65,2.81,2.81,0,0,1,1.06-1.1,3,3,0,0,1,1.58-.4,2.82,2.82,0,0,1,1.53.4,2.7,2.7,0,0,1,1,1,2.89,2.89,0,0,1,.36,1.43,2.46,2.46,0,0,1,0,.26c0,.09,0,.19,0,.3H477a1.88,1.88,0,0,0,.56,1.32,1.77,1.77,0,0,0,1.19.45,1.59,1.59,0,0,0,.9-.24,1.53,1.53,0,0,0,.55-.68h1.28a2.72,2.72,0,0,1-1,1.41A2.8,2.8,0,0,1,478.79,886.93Zm0-5.19a1.77,1.77,0,0,0-1.13.38,1.69,1.69,0,0,0-.6,1.13h3.36a1.5,1.5,0,0,0-.49-1.11A1.64,1.64,0,0,0,478.79,881.74Zm4.23,7.69v-8.59h1.14l.13.92a2.57,2.57,0,0,1,.79-.74,2.34,2.34,0,0,1,1.3-.33,2.86,2.86,0,0,1,1.52.41,2.79,2.79,0,0,1,1,1.12,3.24,3.24,0,0,1,.39,1.6,3.28,3.28,0,0,1-.39,1.61,2.9,2.9,0,0,1-1,1.11,3,3,0,0,1-1.54.39,2.71,2.71,0,0,1-1.23-.27,2.25,2.25,0,0,1-.84-.78v3.55Zm3.13-3.6a1.8,1.8,0,0,0,1.34-.55,2.09,2.09,0,0,0,.53-1.47,2.19,2.19,0,0,0-.24-1,1.88,1.88,0,0,0-3-.41,2.09,2.09,0,0,0-.51,1.45,2.12,2.12,0,0,0,.51,1.47A1.82,1.82,0,0,0,486.15,885.83Zm8.29-6.12a.84.84,0,0,1-.6-.22.73.73,0,0,1-.23-.56.68.68,0,0,1,.23-.55.81.81,0,0,1,.6-.23.75.75,0,0,1,.58.23.69.69,0,0,1,.24.55.74.74,0,0,1-.24.56A.78.78,0,0,1,494.44,879.71Zm-.64,7.08v-5.95h1.27v5.95Zm2.95,0v-5.95h1.13l.09,1a2,2,0,0,1,.81-.86,2.31,2.31,0,0,1,1.23-.33,2.22,2.22,0,0,1,1.7.67,2.9,2.9,0,0,1,.62,2v3.42h-1.26V883.5c0-1.15-.47-1.73-1.42-1.73a1.52,1.52,0,0,0-1.17.51,2,2,0,0,0-.46,1.44v3.07Zm9.45.14a3,3,0,0,1-1.86-.55,2.14,2.14,0,0,1-.84-1.46h1.29a1.25,1.25,0,0,0,.45.7,1.44,1.44,0,0,0,.95.29,1.2,1.2,0,0,0,.84-.24.71.71,0,0,0,.27-.55.6.6,0,0,0-.38-.61,4.86,4.86,0,0,0-1-.3,7.25,7.25,0,0,1-1-.29,2.36,2.36,0,0,1-.83-.5,1.24,1.24,0,0,1-.32-.9,1.64,1.64,0,0,1,.6-1.3,2.47,2.47,0,0,1,1.68-.53,2.5,2.5,0,0,1,1.6.48,2,2,0,0,1,.74,1.36h-1.23a.86.86,0,0,0-.36-.6,1.23,1.23,0,0,0-.78-.22,1.14,1.14,0,0,0-.74.21.57.57,0,0,0-.27.5.54.54,0,0,0,.36.49,5.3,5.3,0,0,0,1,.33,8,8,0,0,1,1.1.31,2,2,0,0,1,.83.5,1.4,1.4,0,0,1,.31,1,1.63,1.63,0,0,1-.64,1.35A2.59,2.59,0,0,1,506.2,886.93Zm6-.14a2.13,2.13,0,0,1-1.39-.42,1.93,1.93,0,0,1-.52-1.53V881.9h-1v-1.06h1l.16-1.52h1.12v1.52h1.68v1.06h-1.68v2.94a.92.92,0,0,0,.2.69,1.15,1.15,0,0,0,.73.18h.69v1.08Zm3.08-7.08a.84.84,0,0,1-.6-.22.77.77,0,0,1-.23-.56.72.72,0,0,1,.23-.55.81.81,0,0,1,.6-.23.78.78,0,0,1,.59.23.69.69,0,0,1,.24.55.74.74,0,0,1-.24.56A.82.82,0,0,1,515.32,879.71Zm-.64,7.08v-5.95H516v5.95Zm5.45,0a2.12,2.12,0,0,1-1.39-.42,1.9,1.9,0,0,1-.52-1.53V881.9h-1v-1.06h1l.16-1.52h1.11v1.52h1.68v1.06h-1.68v2.94a.92.92,0,0,0,.21.69,1.13,1.13,0,0,0,.73.18h.68v1.08Zm4.55.14a2.19,2.19,0,0,1-1.7-.67,2.89,2.89,0,0,1-.62-2v-3.42h1.28v3.28c0,1.16.47,1.73,1.41,1.73a1.54,1.54,0,0,0,1.17-.5,2.11,2.11,0,0,0,.45-1.44v-3.07h1.27v5.95h-1.12l-.1-1a2.11,2.11,0,0,1-.82.88A2.33,2.33,0,0,1,524.68,886.93Zm7.38-.14a2.12,2.12,0,0,1-1.39-.42,1.9,1.9,0,0,1-.52-1.53V881.9h-1v-1.06h1l.16-1.52h1.11v1.52h1.68v1.06h-1.68v2.94a.92.92,0,0,0,.21.69,1.13,1.13,0,0,0,.73.18H533v1.08Zm3.07-7.08a.84.84,0,0,1-.6-.22.76.76,0,0,1-.22-.56.71.71,0,0,1,.22-.55.81.81,0,0,1,.6-.23.77.77,0,0,1,.59.23.69.69,0,0,1,.24.55.74.74,0,0,1-.24.56A.8.8,0,0,1,535.13,879.71Zm-.63,7.08v-5.95h1.27v5.95Zm5.73.14a3.13,3.13,0,0,1-1.53-.38,2.94,2.94,0,0,1-1.07-1.09,3.39,3.39,0,0,1-.4-1.65,3.28,3.28,0,0,1,.4-1.63,2.85,2.85,0,0,1,1.09-1.09,3,3,0,0,1,1.53-.4,2.9,2.9,0,0,1,1.52.4,2.7,2.7,0,0,1,1.08,1.09,3.18,3.18,0,0,1,.41,1.63,3.28,3.28,0,0,1-.41,1.65,2.9,2.9,0,0,1-1.08,1.09A3.17,3.17,0,0,1,540.23,886.93Zm0-1.09a1.68,1.68,0,0,0,1.48-.9,2.39,2.39,0,0,0,.24-1.13,2.28,2.28,0,0,0-.24-1.11,1.55,1.55,0,0,0-.62-.69,1.66,1.66,0,0,0-.84-.23,1.73,1.73,0,0,0-.86.23,1.68,1.68,0,0,0-.62.69,2.28,2.28,0,0,0-.24,1.11,2.39,2.39,0,0,0,.24,1.13,1.68,1.68,0,0,0,.62.67A1.66,1.66,0,0,0,540.23,885.84Zm4.4.95v-5.95h1.13l.1,1a2,2,0,0,1,.8-.86,2.32,2.32,0,0,1,1.24-.33,2.2,2.2,0,0,1,1.69.67,2.9,2.9,0,0,1,.62,2v3.42H549V883.5c0-1.15-.47-1.73-1.41-1.73a1.52,1.52,0,0,0-1.18.51,2.07,2.07,0,0,0-.46,1.44v3.07Zm-81.28,16.14a3.16,3.16,0,0,1-1.56-.38,2.92,2.92,0,0,1-1.06-1.09,3.29,3.29,0,0,1-.38-1.62,3.46,3.46,0,0,1,.37-1.65,2.78,2.78,0,0,1,1-1.1,3.08,3.08,0,0,1,1.59-.4,2.8,2.8,0,0,1,1.52.4,2.7,2.7,0,0,1,1,1,2.89,2.89,0,0,1,.36,1.43,2.35,2.35,0,0,1,0,.26c0,.09,0,.19,0,.3h-4.64a1.85,1.85,0,0,0,.57,1.32,1.75,1.75,0,0,0,1.19.45,1.46,1.46,0,0,0,1.45-.92h1.27a2.72,2.72,0,0,1-1,1.41A2.77,2.77,0,0,1,463.35,902.93Zm0-5.19a1.75,1.75,0,0,0-1.13.38,1.61,1.61,0,0,0-.6,1.13H465a1.57,1.57,0,0,0-.49-1.11A1.67,1.67,0,0,0,463.35,897.74Zm3.29,5,2.11-3-2.11-3H468l1.59,2.28,1.59-2.28h1.37l-2.12,3,2.12,3h-1.37l-1.59-2.28L468,902.79Zm6.94,2.64v-8.59h1.14l.13.92a2.73,2.73,0,0,1,.8-.74,2.29,2.29,0,0,1,1.29-.33,2.87,2.87,0,0,1,1.53.41,2.79,2.79,0,0,1,1,1.12,3.35,3.35,0,0,1,.38,1.6,3.39,3.39,0,0,1-.38,1.61,2.9,2.9,0,0,1-1,1.11,3,3,0,0,1-1.54.39,2.76,2.76,0,0,1-1.24-.27,2.25,2.25,0,0,1-.84-.78v3.55Zm3.13-3.6a1.81,1.81,0,0,0,1.35-.55,2.09,2.09,0,0,0,.53-1.47,2.19,2.19,0,0,0-.24-1,1.74,1.74,0,0,0-.66-.71,1.77,1.77,0,0,0-1-.26,1.74,1.74,0,0,0-1.34.56,2.09,2.09,0,0,0-.52,1.45,2.13,2.13,0,0,0,.52,1.47A1.8,1.8,0,0,0,476.71,901.83Zm7.33,1.1a3.22,3.22,0,0,1-1.56-.38,2.82,2.82,0,0,1-1.05-1.09,3.29,3.29,0,0,1-.39-1.62,3.58,3.58,0,0,1,.37-1.65,2.81,2.81,0,0,1,1.06-1.1,3,3,0,0,1,1.58-.4,2.82,2.82,0,0,1,1.53.4,2.7,2.7,0,0,1,1,1,2.89,2.89,0,0,1,.36,1.43,2.46,2.46,0,0,1,0,.26c0,.09,0,.19,0,.3h-4.63a1.88,1.88,0,0,0,.56,1.32,1.77,1.77,0,0,0,1.19.45,1.59,1.59,0,0,0,.9-.24,1.53,1.53,0,0,0,.55-.68h1.28a2.72,2.72,0,0,1-1,1.41A2.8,2.8,0,0,1,484,902.93Zm0-5.19a1.77,1.77,0,0,0-1.13.38,1.69,1.69,0,0,0-.6,1.13h3.36a1.5,1.5,0,0,0-.49-1.11A1.64,1.64,0,0,0,484,897.74Zm4.23,5v-5.95h1.14l.1,1.12a2.34,2.34,0,0,1,.87-.92,2.53,2.53,0,0,1,1.35-.35V898h-.34a2.37,2.37,0,0,0-.95.18,1.44,1.44,0,0,0-.66.59,2.25,2.25,0,0,0-.24,1.14v2.86Zm7.05,0a2.13,2.13,0,0,1-1.39-.42,1.9,1.9,0,0,1-.52-1.53V897.9h-1v-1.06h1l.16-1.52h1.11v1.52h1.68v1.06h-1.68v2.94a.92.92,0,0,0,.21.69,1.15,1.15,0,0,0,.73.18h.68v1.08Zm3.08-7.08a.84.84,0,0,1-.6-.22.73.73,0,0,1-.23-.56.68.68,0,0,1,.23-.55.81.81,0,0,1,.6-.23.75.75,0,0,1,.58.23.69.69,0,0,1,.24.55.74.74,0,0,1-.24.56A.78.78,0,0,1,498.4,895.71Zm-.64,7.08v-5.95H499v5.95Zm5.33.14a3,3,0,0,1-1.86-.55,2.07,2.07,0,0,1-.84-1.46h1.28a1.33,1.33,0,0,0,.46.7,1.42,1.42,0,0,0,.95.29,1.24,1.24,0,0,0,.84-.24.74.74,0,0,0,.26-.55.59.59,0,0,0-.37-.61,5,5,0,0,0-1-.3,7.67,7.67,0,0,1-1-.29,2.45,2.45,0,0,1-.83-.5,1.29,1.29,0,0,1-.32-.9,1.64,1.64,0,0,1,.6-1.3,2.47,2.47,0,0,1,1.68-.53,2.55,2.55,0,0,1,1.61.48,1.94,1.94,0,0,1,.73,1.36H504a.86.86,0,0,0-.36-.6,1.26,1.26,0,0,0-.78-.22,1.19,1.19,0,0,0-.75.21.59.59,0,0,0-.26.5.54.54,0,0,0,.36.49,5.17,5.17,0,0,0,1,.33,7.57,7.57,0,0,1,1.1.31,1.91,1.91,0,0,1,.83.5,1.4,1.4,0,0,1,.31,1,1.65,1.65,0,0,1-.63,1.35A2.62,2.62,0,0,1,503.09,902.93Zm6.55,0a3.16,3.16,0,0,1-1.56-.38,2.92,2.92,0,0,1-1.06-1.09,3.29,3.29,0,0,1-.38-1.62,3.46,3.46,0,0,1,.37-1.65,2.78,2.78,0,0,1,1.05-1.1,3.08,3.08,0,0,1,1.59-.4,2.8,2.8,0,0,1,1.52.4,2.7,2.7,0,0,1,1,1,2.89,2.89,0,0,1,.36,1.43,2.35,2.35,0,0,1,0,.26c0,.09,0,.19,0,.3h-4.64a1.85,1.85,0,0,0,.57,1.32,1.75,1.75,0,0,0,1.19.45,1.46,1.46,0,0,0,1.45-.92h1.27a2.72,2.72,0,0,1-1,1.41A2.77,2.77,0,0,1,509.64,902.93Zm0-5.19a1.75,1.75,0,0,0-1.13.38,1.61,1.61,0,0,0-.6,1.13h3.36a1.57,1.57,0,0,0-.49-1.11A1.67,1.67,0,0,0,509.64,897.74Z" transform="translate(-437.17 -267.63)" style="fill: #2d3b49"></path><path d="M681.94,394.86v48.26" transform="translate(-437.17 -267.63)" style="fill: none;stroke: #fff"></path><path d="M681.94,473.73V522" transform="translate(-437.17 -267.63)" style="fill: none;stroke: #f1f3f5"></path><path d="M681.94,552.62v48.26" transform="translate(-437.17 -267.63)" style="fill: none;stroke: #fff"></path><path d="M681.94,634.3v48.26" transform="translate(-437.17 -267.63)" style="fill: none;stroke: #f1f3f5"></path><path d="M681.94,713.19v48.26" transform="translate(-437.17 -267.63)" style="fill: none;stroke: #fff"></path><path d="M681.94,792.06v48.27" transform="translate(-437.17 -267.63)" style="fill: none;stroke: #f1f3f5"></path><path d="M681.94,871v48.26" transform="translate(-437.17 -267.63)" style="fill: none;stroke: #fff"></path><path d="M733.27,285.22l-2.2,1.08v2.17l-6.58,3.26-6.58-3.26V282l-2.2-1.08,8.78-4.35,4.39,2.17,4.39,2.18-8.78,4.34-3-1.51v2.18l3,1.49,13.16-6.5-8.77-4.35-4.39-2.17-13.17,6.52,4.39,2.17v6.5l8.78,4.35,8.78-4.35v-4.33Z" transform="translate(-437.17 -267.63)" style="fill: #fff"></path></svg>