<svg xmlns="http://www.w3.org/2000/svg" xmlns:xlink="http://www.w3.org/1999/xlink" id="Layer_1" data-name="Layer 1" viewBox="0 0 216.29 76.08"><defs><clipPath id="clip-path" transform="translate(-491.74 -561.6)"><rect x="491.75" y="561.6" width="216.27" height="76.13" style="fill: none"></rect></clipPath></defs><g style="clip-path: url(#clip-path)"><g><path d="M566.7,581.57c0-.28,0-.33-.25-.33h-.69c-.82,0-1,.44-1.43,1.26l-.11,0h-.12a.22.22,0,0,1-.11,0l-.08-.08a11.16,11.16,0,0,0,.37-1.88.22.22,0,0,1,.16,0h.15c0,.19.1.23.93.23h4.12c.74,0,.9,0,1-.24l.07,0,.07,0a.25.25,0,0,1,.17,0,9.27,9.27,0,0,0-.17,1.9c0,.1-.34.13-.4,0-.19-.72-.34-1.25-1.19-1.25h-.66c-.27,0-.28,0-.28.33v4.9c0,1,0,1.11.57,1.19h.44a.29.29,0,0,1,0,.38H565.6a.33.33,0,0,1,0-.38h.5c.5,0,.59-.16.59-1.19v-4.82Z" transform="translate(-491.74 -561.6)" style="fill: #fff"></path><path d="M576.45,584.54c-.46,0-.48,0-.48.32v1.58c0,1,0,1.12.59,1.21h.34a.27.27,0,0,1,0,.38h-3.33a.29.29,0,0,1,0-.38h.26c.5-.1.58-.19.58-1.22v-4.12c0-1,0-1.1-.58-1.2h-.26a.3.3,0,0,1-.08-.2.27.27,0,0,1,.08-.19h3.19a.33.33,0,0,1,.06.19.36.36,0,0,1-.06.2h-.23c-.48.1-.54.18-.54,1.2v1.3c0,.32,0,.33.46.33h2.31c.46,0,.46,0,.46-.33v-1.3c0-1,0-1.1-.57-1.19h-.29a.29.29,0,0,1,0-.38h3.25a.29.29,0,0,1,0,.38h-.23c-.51.1-.57.19-.57,1.2v4.14c0,1,.07,1.12.57,1.2h.27a.28.28,0,0,1,.07.19.31.31,0,0,1-.07.2h-3.24a.31.31,0,0,1-.07-.2.28.28,0,0,1,.07-.19h.24c.52-.1.59-.19.59-1.22v-1.57c0-.31,0-.31-.48-.31h-2.31Z" transform="translate(-491.74 -561.6)" style="fill: #fff"></path><path d="M587,583.63c0,.3,0,.32.3.32h.78c.57,0,.7,0,.81-.61v-.29c0-.08.34-.08.4,0v2.36a.32.32,0,0,1-.4,0v-.3c-.13-.53-.24-.61-.81-.61h-.78c-.28,0-.3,0-.3.34v1.33a2,2,0,0,0,.17,1.05c.15.2.36.3,1.16.3s1.35,0,1.95-1.3a.27.27,0,0,1,.19-.08.32.32,0,0,1,.2.08h0a7.21,7.21,0,0,1-.46,1.77H584.3a.33.33,0,0,1-.06-.19.36.36,0,0,1,.06-.2h.53c.5,0,.58-.14.58-1.16v-4.12c0-1,0-1.08-.58-1.17h-.28a.27.27,0,0,1-.08-.19.32.32,0,0,1,.08-.2H590a9.1,9.1,0,0,1,.16,1.72c0,.13-.3.16-.41,0a2.78,2.78,0,0,0-.43-.86,1.65,1.65,0,0,0-.5-.28,1.42,1.42,0,0,0-.58-.06h-.9c-.35,0-.35,0-.35.43v1.93Z" transform="translate(-491.74 -561.6)" style="fill: #fff"></path><path d="M599,582.32c0-1,0-1.1-.57-1.18h-.29a.29.29,0,0,1,0-.38h3.25a.31.31,0,0,1,.07.2.28.28,0,0,1-.07.19h-.26c-.5.09-.58.17-.58,1.2v2.56c0,1.31.14,2.74,1.83,2.74,1.43,0,1.86-1.25,1.86-2.76v-1.35a7.21,7.21,0,0,0-.17-2c-.1-.23-.35-.28-.65-.34h-.28a.32.32,0,0,1-.07-.19.31.31,0,0,1,.07-.18h2.67a.3.3,0,0,1,.06.18.33.33,0,0,1-.06.19h-.21a.59.59,0,0,0-.59.36,7.17,7.17,0,0,0-.17,2v1.25a3.93,3.93,0,0,1-.7,2.68,3,3,0,0,1-1,.62,3,3,0,0,1-1.18.18,3.23,3.23,0,0,1-2.19-.63,3,3,0,0,1-.7-1.16,3.08,3.08,0,0,1-.12-1.35v-2.76Z" transform="translate(-491.74 -561.6)" style="fill: #fff"></path><path d="M615.35,586.17V588a.75.75,0,0,1-.3.2,1.09,1.09,0,0,1-.36.06c-.28-.42-.58-.83-.9-1.22l-2.56-3.16a14.89,14.89,0,0,0-1.2-1.43,1.75,1.75,0,0,0,0,.72v2.17a8.15,8.15,0,0,0,.16,2c.1.23.35.29.64.35h.31a.29.29,0,0,1,0,.38h-2.67a.33.33,0,0,1-.06-.19.31.31,0,0,1,.06-.19h.18a.63.63,0,0,0,.62-.38,8,8,0,0,0,.16-2v-2.87c0-.61,0-.8-.09-.94a.85.85,0,0,0-.63-.37h-.31v-.4h1.53a7.22,7.22,0,0,0,.93,0,9.14,9.14,0,0,0,1.83,2.53l.93,1.1c.5.57.82,1,1.07,1.22a2.09,2.09,0,0,0,0-.5v-1.53a7.35,7.35,0,0,0-.17-2c-.1-.23-.34-.28-.64-.34h-.29a.36.36,0,0,1,0-.4H615c.42,0,.83,0,1.25,0a.42.42,0,0,1,0,.4h-.2a.59.59,0,0,0-.6.37,7.61,7.61,0,0,0-.18,2v2.65Z" transform="translate(-491.74 -561.6)" style="fill: #fff"></path><path d="M621.36,586.43c0,1.05,0,1.13.59,1.22h.3a.29.29,0,0,1,0,.38H618.9a.29.29,0,0,1,0-.38h.32c.51-.09.58-.16.58-1.22v-4c0-1.05,0-1.13-.58-1.22h-.32a.36.36,0,0,1,0-.4h3.36a.32.32,0,0,1,.08.2.28.28,0,0,1-.08.2H622c-.51.1-.58.17-.58,1.22Z" transform="translate(-491.74 -561.6)" style="fill: #fff"></path><path d="M629.76,585.3c-.57,1.35-.87,2.22-1.13,2.86a.63.63,0,0,1-.38.09.48.48,0,0,1-.29-.09c-.11-.28-.31-.89-.46-1.26l-1.74-4.46c-.46-1.13-.43-1.07-1-1.22l-.31-.07a.31.31,0,0,1-.06-.19.3.3,0,0,1,.06-.18h3.18c.08,0,0,.28,0,.37l-.33.07c-.2,0-.29.1-.29.2a10.43,10.43,0,0,0,.44,1.22l1,2.5.34.86c.09-.18.23-.49.36-.81l.41-1.05c.29-.7.73-1.93.86-2.3a1.42,1.42,0,0,0,.12-.4s0-.13-.29-.19h-.33a.35.35,0,0,1,0-.39h1.43a5.9,5.9,0,0,0,1,0c.09,0,.1.32,0,.39h-.28a.92.92,0,0,0-.36.13,1,1,0,0,0-.26.27,14.6,14.6,0,0,0-.92,1.86Z" transform="translate(-491.74 -561.6)" style="fill: #fff"></path><path d="M636.79,583.63c0,.3,0,.32.31.32h.76c.59,0,.7,0,.82-.61v-.29c.08-.08.36-.08.41,0v2.36a.31.31,0,0,1-.2.07.31.31,0,0,1-.21-.07v-.3c-.12-.53-.23-.61-.82-.61h-.76c-.28,0-.3,0-.3.34v1.33a2.22,2.22,0,0,0,.17,1.05c.15.2.36.3,1.16.3s1.35,0,2-1.3a.23.23,0,0,1,.18-.08.27.27,0,0,1,.19.08A6.79,6.79,0,0,1,640,588h-5.93a.33.33,0,0,1-.06-.19.36.36,0,0,1,.06-.2h.53c.5,0,.58-.14.58-1.16v-4.12c0-1,0-1.08-.58-1.17h-.28a.27.27,0,0,1-.08-.19.32.32,0,0,1,.08-.2h5.38a13,13,0,0,1,.16,1.72l-.1.07-.11,0-.11,0-.1-.07a2.57,2.57,0,0,0-.43-.86,1.47,1.47,0,0,0-1.09-.34h-.73c-.35,0-.35,0-.35.43v1.93Z" transform="translate(-491.74 -561.6)" style="fill: #fff"></path><path d="M645.4,583.94c0,.39,0,.42.69.42a1.22,1.22,0,0,0,.46-.06,1.58,1.58,0,0,0,.39-.24,1.77,1.77,0,0,0,.4-1.21,1.58,1.58,0,0,0,0-.61,1.44,1.44,0,0,0-.3-.54,1.48,1.48,0,0,0-.49-.37,1.57,1.57,0,0,0-.6-.12c-.46,0-.46,0-.48.57Zm-1.51-1.43c0-1.1,0-1.23-.49-1.29h-.29A.29.29,0,0,1,643,581a.31.31,0,0,1,.07-.18h0c.83,0,1.71-.1,2.75-.1a4.85,4.85,0,0,1,2.19.4,1.84,1.84,0,0,1,.72.69,1.79,1.79,0,0,1,.25,1,1.77,1.77,0,0,1-.33,1,1.8,1.8,0,0,1-.85.64c-.1,0-.1.13,0,.24a8.28,8.28,0,0,0,1.73,2.78,1.29,1.29,0,0,0,.74.31.2.2,0,0,1,.06.15.2.2,0,0,1-.06.14,2.78,2.78,0,0,1-.86.1,2.33,2.33,0,0,1-2.16-1.16,13.27,13.27,0,0,1-.86-1.73.58.58,0,0,0-.22-.29.68.68,0,0,0-.36-.1c-.39,0-.4,0-.4.25v1.43c0,1,0,1.09.57,1.17h.29a.35.35,0,0,1,.06.19.36.36,0,0,1-.06.2h-3.25a.31.31,0,0,1,0-.39h.28c.51-.08.59-.16.59-1.17v-4Z" transform="translate(-491.74 -561.6)" style="fill: #fff"></path><path d="M654.58,588.23a3.86,3.86,0,0,1-1.89-.43,3.44,3.44,0,0,1-.36-1.78.29.29,0,0,1,.21-.09.27.27,0,0,1,.2.09c.22.73,1,1.73,1.91,1.73a1.06,1.06,0,0,0,.43,0,1,1,0,0,0,.38-.21,1,1,0,0,0,.27-.34,1,1,0,0,0,.12-.42v-.1c0-.9-.84-1.43-1.52-1.76a2.64,2.64,0,0,1-1.14-.84,2.56,2.56,0,0,1-.53-1.32c0-1.26,1-2.13,2.58-2.13a4.39,4.39,0,0,1,1.25.18,1.62,1.62,0,0,0,.38.09,5.69,5.69,0,0,1,.2,1.59c0,.13-.33.14-.43,0-.19-.59-.66-1.43-1.43-1.43a1,1,0,0,0-.76.22,1,1,0,0,0-.37.69V582a1.63,1.63,0,0,0,.33.76,1.59,1.59,0,0,0,.68.5l.73.4a2.51,2.51,0,0,1,1.58,2.23c0,1.36-1.13,2.25-2.87,2.25" transform="translate(-491.74 -561.6)" style="fill: #fff"></path><path d="M662.65,586.43c0,1.05,0,1.13.57,1.22h.31a.29.29,0,0,1,0,.38h-3.35a.33.33,0,0,1,0-.38h.32c.52-.09.57-.16.57-1.22v-4c0-1.05-.07-1.13-.57-1.22h-.32a.36.36,0,0,1,0-.4h3.37a.36.36,0,0,1,0,.4h-.32c-.51.1-.57.17-.57,1.22Z" transform="translate(-491.74 -561.6)" style="fill: #fff"></path><path d="M668.83,581.57c0-.28,0-.33-.26-.33h-.69c-.81,0-1,.44-1.43,1.26l-.11,0h-.12a.24.24,0,0,1-.1,0l-.08-.08a13.58,13.58,0,0,0,.37-1.88h.14l.08,0,.08,0c0,.19.09.23.93.23h4.12c.75,0,.9,0,1-.24l.07,0,.08,0a.25.25,0,0,1,.17,0,7.32,7.32,0,0,0-.1,1.93c0,.1-.36.13-.4,0-.19-.72-.36-1.25-1.19-1.25h-.66c-.27,0-.3,0-.3.33v4.9c0,1,0,1.11.59,1.18h.44a.36.36,0,0,1,.06.2.33.33,0,0,1-.06.19H667.8a.26.26,0,0,1-.07-.19.31.31,0,0,1,.07-.2h.5c.5,0,.57-.15.57-1.18v-4.9Z" transform="translate(-491.74 -561.6)" style="fill: #fff"></path><path d="M679.52,586.46c0,1,0,1.1.57,1.19h.44a.32.32,0,0,1,0,.4H677a.36.36,0,0,1,0-.4h.37c.5-.09.58-.16.58-1.19v-.56a2.25,2.25,0,0,0-.29-1.32l-1.32-2.73c-.21-.46-.31-.63-.7-.7l-.37-.07c-.1-.09-.1-.34,0-.39h3.19a.31.31,0,0,1,.07.2.28.28,0,0,1-.07.19l-.37.1a.61.61,0,0,0-.27.08,2.44,2.44,0,0,0,.3.79l.51,1.18c.17.37.38.81.52,1.08.31-.53.63-1.17.93-1.74a5.13,5.13,0,0,0,.57-1.29c0-.07-.11-.12-.37-.16H680c-.08,0-.1-.33,0-.38h2.33c.33,0,.13.31,0,.38h-.28a1,1,0,0,0-.55.26,13.49,13.49,0,0,0-1,1.59l-.7,1.26a2.41,2.41,0,0,0-.4,1.43v.78Z" transform="translate(-491.74 -561.6)" style="fill: #fff"></path><path d="M693.21,581c-1.43,0-2.09,1.27-2.09,3.12,0,1.36.47,3.53,2.28,3.53,1.43,0,2-1.43,2-3.22S694.6,581,693.21,581Zm4,3.29a3.66,3.66,0,0,1-1.11,2.86,3.57,3.57,0,0,1-1.34.82,3.73,3.73,0,0,1-1.55.2,3.83,3.83,0,0,1-1.5-.22,3.67,3.67,0,0,1-2.11-2.07,3.62,3.62,0,0,1-.24-1.49,3.76,3.76,0,0,1,.28-1.52,3.84,3.84,0,0,1,.86-1.29,3.88,3.88,0,0,1,1.3-.84,3.75,3.75,0,0,1,1.52-.26,3.66,3.66,0,0,1,1.5.23,3.6,3.6,0,0,1,2.13,2.08A3.68,3.68,0,0,1,697.2,584.3Z" transform="translate(-491.74 -561.6)" style="fill: #fff"></path><path d="M702.58,583.7c0,.28,0,.34.32.34h.87c.57,0,.7-.09.81-.63v-.26a.4.4,0,0,1,.21-.07.38.38,0,0,1,.21.07v2.34a.38.38,0,0,1-.21.07.4.4,0,0,1-.21-.07v-.26c-.12-.55-.24-.63-.83-.63h-.85c-.29,0-.32,0-.32.33v1.43c0,1,0,1.1.57,1.19h.42a.38.38,0,0,1,0,.19.41.41,0,0,1,0,.19h-3.49a.27.27,0,0,1,0-.38h.36c.5-.09.57-.16.57-1.19v-4.12c0-1,0-1.1-.57-1.2h-.22c-.1,0-.1-.36,0-.41h3.89a11.37,11.37,0,0,0,1.43,0v1.74c0,.13-.28.14-.41,0a3,3,0,0,0-.32-.86,1.24,1.24,0,0,0-.5-.31,1.15,1.15,0,0,0-.58-.06H703c-.38,0-.38,0-.38.45Z" transform="translate(-491.74 -561.6)" style="fill: #fff"></path><path d="M579.31,618.21c-2.12,0-3.65-.11-5.08-.11s-3,0-5.35.11a.71.71,0,0,1-.23-.26.69.69,0,0,1-.09-.34.93.93,0,0,1,0-.37.83.83,0,0,1,.2-.32l1.43-.18c1.53-.13,1.81-.16,1.81-3.89V597.36c0-1.43,0-1.43-.79-1.43h-1.93c-3.08,0-4,.32-5.27,3.21a.74.74,0,0,1-.51.2.94.94,0,0,1-.5-.11.87.87,0,0,1-.36-.35h0c.53-1.77,1-3.57,1.34-5.38a.66.66,0,0,1,.23-.21.52.52,0,0,1,.3-.06.47.47,0,0,1,.26,0,.42.42,0,0,1,.21.16c.18.82.52.87,2.87.87H582c1.66,0,2.12-.1,2.49-.84a1.18,1.18,0,0,1,.49-.16.69.69,0,0,1,.31.06.61.61,0,0,1,.26.19,26.58,26.58,0,0,0-.52,5.63v.09a.86.86,0,0,1-.31.26.8.8,0,0,1-.4.08,1,1,0,0,1-.59-.18h0c-.43-2.66-.93-3.35-4.65-3.35h-1.94c-.79,0-.79,0-.79,1.43V613c0,3.74.28,3.77,1.8,3.94l1.3.16a.85.85,0,0,1,.18.37,1,1,0,0,1,0,.41.75.75,0,0,1-.09.29.57.57,0,0,1-.2.21h0Z" transform="translate(-491.74 -561.6)" style="fill: #fff"></path><path d="M597.75,595.32c-3.4,0-7.06,2.64-7.06,10.08,0,9.09,4.9,11.45,7.78,11.45,4.44,0,7-3.68,7-10.1,0-5.54-2.39-11.45-7.69-11.45Zm.4,23.31c-6.18,0-12.44-4.2-12.44-12.21,0-7.44,5.25-12.88,12.52-12.88,8.4,0,12.23,6.54,12.23,12.61A12.12,12.12,0,0,1,607,615a11.85,11.85,0,0,1-4,2.7,12,12,0,0,1-4.78.9" transform="translate(-491.74 -561.6)" style="fill: #fff"></path><path d="M629.68,618.21c-1.44,0-4.3-.11-8.29-.11H617.8c-1.79,0-3.49,0-4.94.11a.86.86,0,0,1-.26-.31.82.82,0,0,1-.08-.4.53.53,0,0,1,.05-.33.67.67,0,0,1,.22-.25l1.09-.2c1.53-.2,1.8-.24,1.8-3.89V599.51c0-3.65-.29-3.69-1.8-3.94l-1-.14a1,1,0,0,1-.2-.34.91.91,0,0,1,0-.4.67.67,0,0,1,.1-.32.76.76,0,0,1,.23-.24h0c1.78.07,3.32.11,4.87.11s3.08,0,4.59-.11a.67.67,0,0,1,.33.61.7.7,0,0,1,0,.38.72.72,0,0,1-.2.31l-.82.16c-1.53.24-1.8.28-1.8,3.93v12.57a6.64,6.64,0,0,0,.56,3.6c.34.43.81.73,3.62.73,3.73,0,4.29-.14,5.82-3.77a1.22,1.22,0,0,1,.92,0,1,1,0,0,1,.35.29,32.69,32.69,0,0,1-1.43,5.21v.1Z" transform="translate(-491.74 -561.6)" style="fill: #fff"></path><path d="M651.59,618.21c-1.43,0-4.44-.11-8.59-.11h-3.94c-1.43,0-3.56,0-5.16.11h-.09a.58.58,0,0,1-.2-.21.53.53,0,0,1-.08-.27.75.75,0,0,1,0-.42.85.85,0,0,1,.18-.37h0l1.33-.16c1.53-.16,1.81-.2,1.81-3.92V599.55c0-3.73-.29-3.78-1.81-4h-.61a.89.89,0,0,1-.18-.38.94.94,0,0,1,0-.41.62.62,0,0,1,.09-.27.7.7,0,0,1,.2-.22h.08c1.24,0,2.87.1,4.44.1h6.74a44.15,44.15,0,0,0,4.64-.1h.12v.15c.09.34.19,1.28.31,2.38s.17,1.89.28,2.61c-.11.27-.5.36-.77.36a.92.92,0,0,1-.56-.16h0c-.57-2.12-1.07-2.86-2.07-3.13a8.84,8.84,0,0,0-2.75-.35h-2.32c-1.33,0-1.33,0-1.33,2v5.81c0,.82,0,.82.67.82h1.68c3.06,0,3.46,0,3.69-1.43l.24-1.26a1,1,0,0,1,.68-.22.74.74,0,0,1,.36.06.66.66,0,0,1,.29.23v.74c0,.86-.08,1.86-.08,2.87s0,1.87.07,2.74v1.06a.83.83,0,0,1-.3.2,1.19,1.19,0,0,1-1-.13h0l-.24-1.43c-.23-1.43-.67-1.43-3.69-1.43H642c-.68,0-.68,0-.68.82v4.55a6.86,6.86,0,0,0,.55,3.63c.36.43.84.73,3.79.73h.41c3.88,0,4.64-1,5.81-3.78a.87.87,0,0,1,.52-.17.91.91,0,0,1,.46.1.81.81,0,0,1,.34.32h0a23.08,23.08,0,0,1-1.43,5.22v.1Z" transform="translate(-491.74 -561.6)" style="fill: #fff"></path><path d="M666.18,595.82a5.7,5.7,0,0,0-2.7.46,6.75,6.75,0,0,0-.23,2.53v12.6c0,3.41.17,5.2,3.75,5.2,5.56,0,8.75-3.79,8.75-10.42s-3.49-10.37-9.57-10.37Zm-.31,22.51c-1.21,0-2.22-.08-3.14-.13s-1.33-.09-1.89-.09c-1.34,0-2.86,0-4.38.12a.8.8,0,0,1-.2-.21.57.57,0,0,1-.08-.28.94.94,0,0,1,0-.41,1.21,1.21,0,0,1,.18-.38h0l.82-.11c1.53-.2,1.8-.23,1.8-4V599.78c0-3.46,0-3.73-1.53-3.93l-.77-.08a.81.81,0,0,1-.19-.29.82.82,0,0,1,0-.35.67.67,0,0,1,.07-.34.68.68,0,0,1,.22-.26h0c2.53-.21,5.29-.33,8.58-.33a22.18,22.18,0,0,1,8.2,1.23,11.12,11.12,0,0,1,7.16,10.85,11.62,11.62,0,0,1-6.27,10.43,18.33,18.33,0,0,1-8.59,1.75" transform="translate(-491.74 -561.6)" style="fill: #fff"></path><path d="M695.33,595.32c-3.42,0-7.07,2.64-7.07,10.08,0,9.09,4.91,11.45,7.79,11.45,4.43,0,7-3.68,7-10.1,0-5.54-2.4-11.45-7.68-11.45Zm.37,23.31c-6.18,0-12.45-4.2-12.45-12.21a12.3,12.3,0,0,1,12.52-12.88c8.42,0,12.25,6.54,12.25,12.61A12.11,12.11,0,0,1,695.7,618.6" transform="translate(-491.74 -561.6)" style="fill: #fff"></path><path d="M544.9,592h-1.08a6.3,6.3,0,0,0-.51-1.33,9.63,9.63,0,0,0-.82-1.43,6.92,6.92,0,0,0-1-1.26,2,2,0,0,0-1.07-.62c-.41,0-.82-.08-1.23-.1h-2.35v17.79a2.14,2.14,0,0,0,.22,1,1.53,1.53,0,0,0,.76.66A7.79,7.79,0,0,0,539,607a6.94,6.94,0,0,0,1.43.2v1H529.89v-1.12l1.34-.13a4.92,4.92,0,0,0,1.25-.23,1.56,1.56,0,0,0,.75-.59,1.94,1.94,0,0,0,.25-1V587.23h-2.12a5.88,5.88,0,0,0-1.43.12,1.76,1.76,0,0,0-1.06.61,7.77,7.77,0,0,0-1,1.26,9.61,9.61,0,0,0-1.33,2.73h-1.12v-6h19.39Zm-19.31-10.12a11.5,11.5,0,0,0-1.31.2,3.8,3.8,0,0,0-1.43.53,2.23,2.23,0,0,0-.53.69,2.18,2.18,0,0,0-.22.83,15.18,15.18,0,0,0-.21,2.86v9.86a6.5,6.5,0,0,1-.79,3.28,6.82,6.82,0,0,1-2.05,2.29,8.24,8.24,0,0,1-2.67,1.24,9.69,9.69,0,0,1-2.68.37,10.9,10.9,0,0,1-3.63-.53,7.8,7.8,0,0,1-2.68-1.43,5.81,5.81,0,0,1-1.59-2,5.73,5.73,0,0,1-.57-2.51V584.16a2.2,2.2,0,0,0-.18-.95,1.81,1.81,0,0,0-.76-.69,3.51,3.51,0,0,0-1.05-.35,6,6,0,0,0-1-.18v-1.13h9.46V582a7.17,7.17,0,0,0-1.12.15,8.24,8.24,0,0,0-1,.24,1.26,1.26,0,0,0-.44.24,1,1,0,0,0-.29.4,2.53,2.53,0,0,0-.17,1v12.53a8.82,8.82,0,0,0,.2,1.92,5,5,0,0,0,.78,1.85,4.84,4.84,0,0,0,1.71,1.43,6.34,6.34,0,0,0,2.94.57,7.05,7.05,0,0,0,3-.57,5,5,0,0,0,1.88-1.43,5.37,5.37,0,0,0,.93-1.81,7.22,7.22,0,0,0,.28-1.9v-9.32a14.49,14.49,0,0,0-.26-2.86,2.56,2.56,0,0,0-.75-1.43,4.58,4.58,0,0,0-1.53-.63,13.82,13.82,0,0,0-1.43-.26V581h9.2Zm-5.93,32.77a5.34,5.34,0,0,1,3.13.82,1.78,1.78,0,0,1,1.07.1,1.89,1.89,0,0,1,.83.7,1.86,1.86,0,0,1,.27,1.05,1.83,1.83,0,0,1-.37,1,1.85,1.85,0,0,1-.89.62,1.81,1.81,0,0,1-1.08,0,1.8,1.8,0,0,1-1.26-1.62,4,4,0,0,1-1.11-1.17,4.07,4.07,0,0,1-.57-1.51Zm3.93-1.94a8.76,8.76,0,0,1,1.56-4.3,8.78,8.78,0,0,1,1.57,4.3,2.33,2.33,0,0,1,.74,1.2,2.37,2.37,0,0,1-.08,1.42,2.32,2.32,0,0,1-.87,1.11,2.35,2.35,0,0,1-1.35.43,2.31,2.31,0,0,1-1.35-.43,2.34,2.34,0,0,1-.88-1.11,2.45,2.45,0,0,1-.08-1.42,2.39,2.39,0,0,1,.74-1.2Zm1.93,5.3a6.36,6.36,0,0,1,2-2.54,5.46,5.46,0,0,1,3.15-.82,4.06,4.06,0,0,1-.56,1.51,4.13,4.13,0,0,1-1.11,1.17,6.4,6.4,0,0,1-3.44.68Zm24.21-20.82a83.56,83.56,0,0,0,3.37-23.62,56.49,56.49,0,0,1-14.69-.62,58.6,58.6,0,0,1-13.3-4.63A56.87,56.87,0,0,1,511.89,573a55.63,55.63,0,0,1-14.69.62,83.56,83.56,0,0,0,3.37,23.62c5.63,20,22,32,24.54,33.72,2.53-1.73,19-13.64,24.62-33.72Zm1.16.33c-6.19,22.13-25.27,34.5-25.45,34.63l-.33.2-.32-.21c-.2-.13-19.17-12.51-25.38-34.62A81.51,81.51,0,0,1,496,572.92v-.63l.62.07a58.48,58.48,0,0,0,14.95-.54,54.47,54.47,0,0,0,13.18-4.68l.29-.14.28.16a56.72,56.72,0,0,0,13.27,4.66,57.51,57.51,0,0,0,14.94.54h.61V573a81.82,81.82,0,0,1-3.37,24.64Zm7.5-30c-20.35,4.41-33.33-6-33.33-6s-13,10.38-33.32,6c0,16.61-.47,46.85,33.34,70.12C558.89,614.38,558.39,584.16,558.39,567.57Z" transform="translate(-491.74 -561.6)" style="fill: #fff"></path></g></g></svg>