<svg width="49" height="31" viewBox="0 0 49 31" fill="none" xmlns="http://www.w3.org/2000/svg">
<path d="M26.8419 24.7787V18.043H29.8155V24.7787" stroke="white" stroke-width="0.998307" stroke-miterlimit="10"/>
<path d="M16.2281 24.7787V18.043H19.2017V24.7787" stroke="white" stroke-width="0.998307" stroke-miterlimit="10"/>
<path d="M36.9599 12.5977H9.08716V15.7413H36.9599V12.5977Z" stroke="white" stroke-width="0.998307" stroke-miterlimit="10"/>
<path d="M0 29.9492H46.1845" stroke="white" stroke-width="0.998307" stroke-miterlimit="10"/>
<path d="M9.08716 28.307V26.7695H36.9599V28.307" stroke="white" stroke-width="0.998307" stroke-miterlimit="10"/>
<path d="M24.3276 15.7383H21.7194V26.768H24.3276V15.7383Z" stroke="white" stroke-width="0.998307" stroke-miterlimit="10"/>
<path d="M13.5295 15.7422H10.9213V26.7719H13.5295V15.7422Z" stroke="white" stroke-width="0.998307" stroke-miterlimit="10"/>
<path d="M35.1259 15.7422H32.5177V26.7719H35.1259V15.7422Z" stroke="white" stroke-width="0.998307" stroke-miterlimit="10"/>
<path d="M23.0217 8.76114C23.9967 8.76114 24.787 7.97077 24.787 6.99581C24.787 6.02084 23.9967 5.23047 23.0217 5.23047C22.0467 5.23047 21.2563 6.02084 21.2563 6.99581C21.2563 7.97077 22.0467 8.76114 23.0217 8.76114Z" stroke="white" stroke-width="0.998307" stroke-miterlimit="10"/>
<path d="M33.8199 7.49544V0" stroke="white" stroke-width="0.998307" stroke-miterlimit="10"/>
<path d="M38.9821 4.10811C37.2602 2.66474 35.5419 5.55149 33.8199 4.10811V1.22136C35.5419 2.66473 37.2602 -0.222024 38.9821 1.22136V4.10811Z" stroke="white" stroke-width="0.998307" stroke-miterlimit="10"/>
<path d="M43.5763 28.3055V20.0938" stroke="white" stroke-width="0.998307" stroke-miterlimit="10"/>
<path d="M41.5252 24.775C40.2265 24.0515 39.3439 22.666 39.3439 21.0707C39.3439 19.678 40.0203 18.4408 41.0658 17.6702C40.6606 17.1421 40.4219 16.4801 40.4219 15.7638C40.4219 14.0202 41.8327 12.6094 43.5727 12.6094C45.3127 12.6094 46.7272 14.0202 46.7272 15.7638C46.7272 16.4801 46.4848 17.1421 46.0796 17.6702C47.1215 18.4408 47.8052 19.678 47.8052 21.0707C47.8052 22.6624 46.9261 24.0515 45.6238 24.7714" stroke="white" stroke-width="0.998307" stroke-miterlimit="10"/>
<path d="M3.5199 28.3099V22.7969" stroke="white" stroke-width="0.998307" stroke-miterlimit="10"/>
<path d="M2.14514 25.9381C1.27332 25.4534 0.680054 24.5201 0.680054 23.4529C0.680054 22.516 1.13586 21.6876 1.83403 21.1703C1.56272 20.8157 1.40355 20.3708 1.40355 19.8897C1.40355 18.7212 2.35134 17.7734 3.51979 17.7734C4.68824 17.7734 5.63602 18.7212 5.63602 19.8897C5.63602 20.3708 5.47323 20.8157 5.20192 21.1703C5.90371 21.6876 6.35952 22.516 6.35952 23.4529C6.35952 24.5237 5.76986 25.4534 4.89443 25.9381" stroke="white" stroke-width="0.998307" stroke-miterlimit="10"/>
<path d="M10.9213 11.2164V9.2666H13.6452L23.0218 1.54688L32.3983 9.2666H35.1223V11.2164" stroke="white" stroke-width="0.998307" stroke-miterlimit="10"/>
<path d="M20.7716 10.3008H25.2718" stroke="white" stroke-width="0.998307" stroke-miterlimit="10"/>
</svg>
