<svg width="36" height="45" viewBox="0 0 36 45" fill="none" xmlns="http://www.w3.org/2000/svg">
<path d="M23.7635 6.10156V12.6977L34.4677 37.5493C35.2673 39.4039 34.8675 41.5738 33.4621 43.008C32.5595 43.9291 31.3297 44.4485 30.0515 44.4485H5.32347C4.04526 44.4485 2.81552 43.9291 1.91291 43.008C0.507488 41.5738 0.107669 39.4039 0.907303 37.5493L11.6115 12.6977V6.10156" stroke="white" stroke-miterlimit="10"/>
<path d="M9.48535 0.695312H25.9203" stroke="white" stroke-miterlimit="10"/>
<path d="M5.14795 27.6196C6.38375 28.4542 7.52868 29.0662 8.59486 29.499C10.394 30.2284 11.9872 30.451 13.4411 30.3521C19.081 29.9626 22.7884 24.7698 29.4762 25.6414" stroke="white" stroke-miterlimit="10"/>
<path d="M9.48535 6.45312H25.9203" stroke="white" stroke-miterlimit="10"/>
</svg>
