<svg width="12" height="12" viewBox="0 0 12 12" fill="none" xmlns="http://www.w3.org/2000/svg">
<g id="Search">
<path id="icon" fill-rule="evenodd" clip-rule="evenodd" d="M8.01156 8.80933C7.24932 9.40206 6.29149 9.75503 5.25126 9.75503C2.76528 9.75503 0.75 7.73918 0.75 5.25251C0.75 2.76584 2.76528 0.75 5.25126 0.75C7.73723 0.75 9.75251 2.76584 9.75251 5.25251C9.75251 6.29294 9.39971 7.25095 8.80725 8.01337L11.085 10.289C11.3048 10.5086 11.305 10.865 11.0854 11.0849C10.8658 11.3048 10.5096 11.3051 10.2897 11.0854L8.01156 8.80933ZM8.6272 5.25251C8.6272 7.11751 7.11574 8.6294 5.25126 8.6294C3.38677 8.6294 1.87531 7.11751 1.87531 5.25251C1.87531 3.38751 3.38677 1.87563 5.25126 1.87563C7.11574 1.87563 8.6272 3.38751 8.6272 5.25251Z" fill="#293B4A"/>
</g>
</svg>
