<svg xmlns="http://www.w3.org/2000/svg" xmlns:xlink="http://www.w3.org/1999/xlink" id="Layer_1" data-name="Layer 1" viewBox="0 0 617.23 381.14"><defs><clipPath id="clip-path" transform="translate(-42.31 -89.83)"><rect x="42.42" y="89.83" width="617" height="381" style="fill:none"></rect></clipPath></defs><g style="clip-path:url(#clip-path)"><path d="M479.35,403.87s44.47-74.68,109.39-12.95a37.89,37.89,0,0,1,17.45-4.26c19.4,0,35.07,14.28,35.07,31.84,0,.44-.09.8-.09,1.24h.45c9.3,0,16.91,6.83,16.91,15.35s-7.52,15.34-16.91,15.34H468.72" transform="translate(-42.31 -89.83)" style="fill:#19ad4a"></path><path d="M479.35,403.87s44.47-74.68,109.39-12.95a37.89,37.89,0,0,1,17.45-4.26c19.4,0,35.07,14.28,35.07,31.84,0,.44-.09.8-.09,1.24h.45c9.3,0,16.91,6.83,16.91,15.35s-7.52,15.34-16.91,15.34H468.72" transform="translate(-42.31 -89.83)" style="fill:none;stroke:#2a3b4a;stroke-linecap:round;stroke-linejoin:round;stroke-width:2px"></path><path d="M567.39,407.33c12.93-7.45,30.12-4.08,38.36,7.71Z" transform="translate(-42.31 -89.83)" style="fill:#19ad4a"></path><path d="M567.39,407.33c12.93-7.45,30.12-4.08,38.36,7.71" transform="translate(-42.31 -89.83)" style="fill:none;stroke:#2a3b4a;stroke-linecap:round;stroke-linejoin:round;stroke-width:2px"></path><path d="M348.53,286.09c7.62-3.64,15.5-7.27,23.29-10.46,5.41-2.13,11-4.7,16.83-7.45" transform="translate(-42.31 -89.83)" style="fill:none;stroke:#293b4a;stroke-miterlimit:10;stroke-width:2px"></path><path d="M245.87,289.64c7.27,11,15.59,17,24.8,19.33a37.94,37.94,0,0,0,6.91,1.16c13.91,1.06,29.5-4.53,46.15-12.15" transform="translate(-42.31 -89.83)" style="fill:none;stroke:#293b4a;stroke-miterlimit:10;stroke-width:2px"></path><path d="M412.39,255.76c4.61-2.57,9.12-5.23,13.37-7.89.18-.09.45-.27.62-.36" transform="translate(-42.31 -89.83)" style="fill:none;stroke:#293b4a;stroke-miterlimit:10;stroke-width:2px"></path><path d="M235.33,253.28a30.55,30.55,0,0,0,7.8,8.24" transform="translate(-42.31 -89.83)" style="fill:none;stroke:#293b4a;stroke-miterlimit:10;stroke-width:2px"></path><path d="M89.19,170.89c1.77.79,19.13,11,48.27,44.16" transform="translate(-42.31 -89.83)" style="fill:none;stroke:#293b4a;stroke-miterlimit:10;stroke-width:2px"></path><path d="M148.89,229.24a122.84,122.84,0,0,1-20.64-5.85S96,199.27,85.82,174.88a33,33,0,0,0-10.18-1.33,26.41,26.41,0,0,1-6.47-.71c-2.75-.71-5.76-1.86-5.85-3.82" transform="translate(-42.31 -89.83)" style="fill:none;stroke:#293b4a;stroke-miterlimit:10;stroke-width:2px"></path><path d="M151.28,209.55c-4,10.29-.71,25.81-.71,25.81s25.51-4.52,40.39,0l1,.45,6.56,3.37c3.72,2.12,7.35,4.43,10.89,6.82a178.5,178.5,0,0,1,23.83,19,27.13,27.13,0,0,1,2.48,2.84" transform="translate(-42.31 -89.83)" style="fill:none;stroke:#293b4a;stroke-miterlimit:10;stroke-width:2px"></path><path d="M250,253.9a103,103,0,0,1-9.57,10" transform="translate(-42.31 -89.83)" style="fill:none;stroke:#293b4a;stroke-miterlimit:10;stroke-width:2px"></path><path d="M216.47,224.19c7.7-13.84,15.67-18.36,15.67-18.36" transform="translate(-42.31 -89.83)" style="fill:none;stroke:#293b4a;stroke-miterlimit:10;stroke-width:2px"></path><path d="M493.08,334.69a7.66,7.66,0,0,0-2.21-2.22C422,286,425.06,239.18,425.06,239.18" transform="translate(-42.31 -89.83)" style="fill:none;stroke:#293b4a;stroke-miterlimit:10;stroke-width:2px"></path><path d="M427.8,218.33h.44a16.16,16.16,0,0,1,15.15,8l2.75,4.79" transform="translate(-42.31 -89.83)" style="fill:none;stroke:#293b4a;stroke-miterlimit:10;stroke-width:2px"></path><path d="M457.92,251.68,488.39,305l9.74,17,2.39,4.26" transform="translate(-42.31 -89.83)" style="fill:none;stroke:#293b4a;stroke-miterlimit:10;stroke-width:2px"></path><path d="M317.26,245.56c24.63-9.84,35.34-13.3,38.62-14.37,1.06-.26,2-.62,3.1-1,.09,0,.18-.09.27-.09" transform="translate(-42.31 -89.83)" style="fill:none;stroke:#293b4a;stroke-miterlimit:10;stroke-width:2px"></path><path d="M266.51,266.58c9.3-4,17.71-7.54,25.33-10.64" transform="translate(-42.31 -89.83)" style="fill:none;stroke:#293b4a;stroke-miterlimit:10;stroke-width:2px"></path><path d="M406.63,220.46c-7.7,1-16.21,2.22-24.44,3.82" transform="translate(-42.31 -89.83)" style="fill:none;stroke:#293b4a;stroke-miterlimit:10;stroke-width:2px"></path><path d="M268.46,239.89c.09,0,.18.08.26.08A94.26,94.26,0,0,0,290,249.64a98.68,98.68,0,0,0,10.28,2.75" transform="translate(-42.31 -89.83)" style="fill:none;stroke:#293b4a;stroke-miterlimit:10;stroke-width:2px"></path><path d="M223.29,193.15c5.49-.36,17.45-3.2,19.57,8.16.71,3.63-.71,5.67.71,9.22,6.38,16.23,17.71,28.91,17.71,28.91" transform="translate(-42.31 -89.83)" style="fill:none;stroke:#293b4a;stroke-miterlimit:10;stroke-width:2px"></path><path d="M475.54,321.3c12.93-1,17.63-9.05,17.63-9.05" transform="translate(-42.31 -89.83)" style="fill:none;stroke:#293b4a;stroke-miterlimit:10;stroke-width:2px"></path><path d="M415.05,428.43c13.73-1.33,16.83-6.65,16.83-6.65" transform="translate(-42.31 -89.83)" style="fill:none;stroke:#293b4a;stroke-miterlimit:10;stroke-width:2px"></path><path d="M237.46,273.67a4.41,4.41,0,0,0-.71.36" transform="translate(-42.31 -89.83)" style="fill:none;stroke:#293b4a;stroke-miterlimit:10;stroke-width:2px"></path><path d="M256.5,256.29a66,66,0,0,1-9.3,10.47" transform="translate(-42.31 -89.83)" style="fill:none;stroke:#293b4a;stroke-miterlimit:10;stroke-width:2px"></path><path d="M177.76,172.31a1.33,1.33,0,1,0-1.33-1.33A1.34,1.34,0,0,0,177.76,172.31Z" transform="translate(-42.31 -89.83)" style="fill:#293b4a"></path><path d="M170.5,163.08c.62,3.82-1.15,13.75-1.86,16.23a.58.58,0,0,0,.71.71l2-.53c1.42,14.81,7.27,9.84,11.78,9.13,4.43,6.74,4.17,13.48,1.51,16.77" transform="translate(-42.31 -89.83)" style="fill:none;stroke:#293b4a;stroke-linejoin:round;stroke-width:2px"></path><path d="M181,179.13c-.53,3.11-3.81,3.91-5.67,3.46" transform="translate(-42.31 -89.83)" style="fill:none;stroke:#293b4a;stroke-linejoin:round;stroke-width:2px"></path><path d="M192.55,179.22c-.26,3.28-.35,11.8,11.43,9.49,6.38,4.26,5.31,12.6-15.15,16a19.19,19.19,0,0,0-2.21.44,154.54,154.54,0,0,1-31.8,4.26,104.67,104.67,0,0,0-20.28,2.3" transform="translate(-42.31 -89.83)" style="fill:none;stroke:#293b4a;stroke-miterlimit:10;stroke-width:2px"></path><path d="M270,157.05c-.44.18-.35.71.09.71,2.48-.09,1.51.62-2.12,2-1.15.44-2.22.89-3.19,1.24-1.95.8,2.12.53,3.28.62,9.21,1.16-6.82,12.15-37.47,14.55-10.36.8-29.41,2.84-35,11.08-1.5,2.22-3.27-1-4.34-3.54-2.12-5.15-.62-8.61-.35-11.62.53-6.92-7.8-6.92-15.59-7.72-6.29-.62-10.1-.35-9.12-7,.79-5.24,3.45-11.09,13.81-11.09,19.67,0,19.14,5.59,34.81,4.79,13.73-.62,24.89-4,40-6.65,40.12-6.48,13.64,2.48,4.25,6.12-2.3.88-4.34,1.77-5.93,2.48-1.95,1.69,14.26-4.61,18.68-2.84,1.86.71-.35,1.87-4.16,3a.36.36,0,0,0,.09.71C273.6,154.12,274.66,155.37,270,157.05Z" transform="translate(-42.31 -89.83)" style="fill:#293b4a;fill-rule:evenodd"></path><path d="M204,188.71c15.5-4.43,42.87-2.3,42.87-2.3,12.31,6.74,10.71,20,10.71,20s-9.3-.35-14.61,2.31" transform="translate(-42.31 -89.83)" style="fill:none;stroke:#293b4a;stroke-miterlimit:10;stroke-width:2px"></path><path d="M327.27,186.41c-17.36,13.39-50.66,17.38-50.66,17.38s-8.42.89-19,1" transform="translate(-42.31 -89.83)" style="fill:none;stroke:#293b4a;stroke-miterlimit:10;stroke-width:2px"></path><path d="M363.76,311.54c.8,1,1.6,1.87,2.39,2.84a166.56,166.56,0,0,1,11.61,16.68" transform="translate(-42.31 -89.83)" style="fill:none;stroke:#293b4a;stroke-miterlimit:10;stroke-width:2px"></path><path d="M390.34,349.41c3.1,4.88,6.11,9.67,9,14.46,10.89,18,20.46,35.12,27.72,48.78,3.19,5.94,5.94,11.26,8.24,15.7" transform="translate(-42.31 -89.83)" style="fill:none;stroke:#293b4a;stroke-miterlimit:10;stroke-width:2px"></path><path d="M345.78,291.94c-1-1-2-2-3-3" transform="translate(-42.31 -89.83)" style="fill:none;stroke:#293b4a;stroke-miterlimit:10;stroke-width:2px"></path><path d="M432,426c1.16,2.22,10.19,15,10.72,16.23" transform="translate(-42.31 -89.83)" style="fill:none;stroke:#293b4a;stroke-miterlimit:10;stroke-width:2px"></path><path d="M434.8,450.52c-.89-1.78-2.92-8.78-7.8-11.89l-4.69-4c-2.57-2.13-5-4.25-7.26-6.29-30-26.52-42.34-45.5-47.12-57.56a43.48,43.48,0,0,1-2.75-9.85" transform="translate(-42.31 -89.83)" style="fill:none;stroke:#293b4a;stroke-miterlimit:10;stroke-width:2px"></path><path d="M330.37,338.24c1.68.8,3,1.42,4.16,1.95,2.93,1.33,5.76,2.75,8.6,4.17s5.75,2.93,8.32,4.17" transform="translate(-42.31 -89.83)" style="fill:none;stroke:#293b4a;stroke-miterlimit:10;stroke-width:2px"></path><path d="M306.9,324.49c-5.85-3.9-12.49-8.6-19.93-14.19" transform="translate(-42.31 -89.83)" style="fill:none;stroke:#293b4a;stroke-miterlimit:10;stroke-width:2px"></path><path d="M237.46,428.43H89.81S143.75,384,196.09,417.17" transform="translate(-42.31 -89.83)" style="fill:none;stroke:#2a3b4a;stroke-linecap:round;stroke-linejoin:round;stroke-width:2px"></path><path d="M261.2,428.35h78.12" transform="translate(-42.31 -89.83)" style="fill:none;stroke:#2a3b4a;stroke-linecap:round;stroke-linejoin:round;stroke-width:2px"></path><path d="M195.3,368.3A95.24,95.24,0,0,1,344.81,368c.71-.36,1.5-.8,2.21-1.15a68.85,68.85,0,0,1,18.07-5.95,57.19,57.19,0,0,1,7.89-.88c1.24-.09,2.56-.09,3.89-.09a66.13,66.13,0,0,1,22.59,3.9,67.89,67.89,0,0,1,19.22,10.64,56.45,56.45,0,0,1,4.87,4.26A66.66,66.66,0,0,1,435,393.23a35.56,35.56,0,0,1,9.3-1.25,34.84,34.84,0,0,1,11.42,1.87,36.3,36.3,0,0,1,24.8,34.41H345.87" transform="translate(-42.31 -89.83)" style="fill:#19ad4a"></path><path d="M195.3,368.3A95.24,95.24,0,0,1,344.81,368c.71-.36,1.5-.8,2.21-1.15a68.85,68.85,0,0,1,18.07-5.95,57.19,57.19,0,0,1,7.89-.88c1.24-.09,2.56-.09,3.89-.09a66.13,66.13,0,0,1,22.59,3.9,67.89,67.89,0,0,1,19.22,10.64,56.45,56.45,0,0,1,4.87,4.26A66.66,66.66,0,0,1,435,393.23a35.56,35.56,0,0,1,9.3-1.25,34.84,34.84,0,0,1,11.42,1.87,36.3,36.3,0,0,1,24.8,34.41H345.87" transform="translate(-42.31 -89.83)" style="fill:none;stroke:#2a3b4a;stroke-linecap:round;stroke-linejoin:round;stroke-width:2px"></path><path d="M464.38,295.58a39,39,0,0,1,65.37,8.34,19.1,19.1,0,0,1,10.19-2.84,19.71,19.71,0,0,1,16.2,8.6,19.37,19.37,0,0,1,3.37,10.91H401.23" transform="translate(-42.31 -89.83)" style="fill:#19ad4a"></path><path d="M464.38,295.58a39,39,0,0,1,65.37,8.34,19.1,19.1,0,0,1,10.19-2.84,19.71,19.71,0,0,1,16.2,8.6,19.37,19.37,0,0,1,3.37,10.91H401.23" transform="translate(-42.31 -89.83)" style="fill:none;stroke:#2a3b4a;stroke-linecap:round;stroke-linejoin:round;stroke-width:2px"></path><path d="M439.49,307.11a24.68,24.68,0,0,1,21-11.88,18.47,18.47,0,0,1,3.89.35" transform="translate(-42.31 -89.83)" style="fill:#19ad4a"></path><path d="M439.49,307.11a24.68,24.68,0,0,1,21-11.88,18.47,18.47,0,0,1,3.89.35" transform="translate(-42.31 -89.83)" style="fill:none;stroke:#2a3b4a;stroke-linecap:round;stroke-linejoin:round;stroke-width:2px"></path><path d="M465.27,309.15a13.4,13.4,0,0,1,17.8-6.74Z" transform="translate(-42.31 -89.83)" style="fill:#19ad4a"></path><path d="M465.27,309.15a13.4,13.4,0,0,1,17.8-6.74" transform="translate(-42.31 -89.83)" style="fill:none;stroke:#2a3b4a;stroke-linecap:round;stroke-linejoin:round;stroke-width:2px"></path><path d="M203.36,333.63H53.76S60.05,312,84.23,319.08c0,0,41.71-70.59,88.92,6.3" transform="translate(-42.31 -89.83)" style="fill:none;stroke:#2a3b4a;stroke-linecap:round;stroke-linejoin:round;stroke-width:2px"></path><path d="M128.51,318.37a15.18,15.18,0,0,1,21,4.62" transform="translate(-42.31 -89.83)" style="fill:none;stroke:#2a3b4a;stroke-linecap:round;stroke-linejoin:round;stroke-width:2px"></path><path d="M79.71,97v4.26" transform="translate(-42.31 -89.83)" style="fill:none;stroke:#2a3b4a;stroke-miterlimit:10;stroke-width:2px"></path><path d="M79.71,89.83v3.63" transform="translate(-42.31 -89.83)" style="fill:none;stroke:#2a3b4a;stroke-miterlimit:10;stroke-width:2px"></path><path d="M66.07,93.46,70.94,102" transform="translate(-42.31 -89.83)" style="fill:none;stroke:#2a3b4a;stroke-miterlimit:10;stroke-width:2px"></path><path d="M63.41,107.74l2.48,1.42" transform="translate(-42.31 -89.83)" style="fill:none;stroke:#2a3b4a;stroke-miterlimit:10;stroke-width:2px"></path><path d="M57.12,104.11l2.93,1.68" transform="translate(-42.31 -89.83)" style="fill:none;stroke:#2a3b4a;stroke-miterlimit:10;stroke-width:2px"></path><path d="M101,129.47l2.39,1.33" transform="translate(-42.31 -89.83)" style="fill:none;stroke:#2a3b4a;stroke-miterlimit:10;stroke-width:2px"></path><path d="M93.53,125.12l6.11,3.55" transform="translate(-42.31 -89.83)" style="fill:none;stroke:#2a3b4a;stroke-miterlimit:10;stroke-width:2px"></path><path d="M54,117.14h9.75" transform="translate(-42.31 -89.83)" style="fill:none;stroke:#2a3b4a;stroke-miterlimit:10;stroke-width:2px"></path><path d="M95.65,117.14h9.57" transform="translate(-42.31 -89.83)" style="fill:none;stroke:#2a3b4a;stroke-miterlimit:10;stroke-width:2px"></path><path d="M56.06,130.8l5.32-3" transform="translate(-42.31 -89.83)" style="fill:none;stroke:#2a3b4a;stroke-miterlimit:10;stroke-width:2px"></path><path d="M93.53,109.16l7.79-4.52" transform="translate(-42.31 -89.83)" style="fill:none;stroke:#2a3b4a;stroke-miterlimit:10;stroke-width:2px"></path><path d="M88.92,101.27l4.43-7.81" transform="translate(-42.31 -89.83)" style="fill:none;stroke:#2a3b4a;stroke-miterlimit:10;stroke-width:2px"></path><path d="M91.14,116.79a11.35,11.35,0,0,1-2.57,7.54,13.92,13.92,0,0,0-3,8.86v1.69h-11v-1a15.07,15.07,0,0,0-3.63-9.49,11.19,11.19,0,0,1-2.66-7.36,11.41,11.41,0,0,1,11.87-11.44A11.72,11.72,0,0,1,91.14,116.79Z" transform="translate(-42.31 -89.83)" style="fill:none;stroke:#2a3b4a;stroke-miterlimit:10;stroke-width:2px"></path><path d="M74.31,139.85h12v4.34h-12v4.88h12" transform="translate(-42.31 -89.83)" style="fill:none;stroke:#2a3b4a;stroke-miterlimit:10;stroke-width:2px"></path><path d="M500.52,333.45c.09,3.46-5.4,1.51-7.17,1.95a.8.8,0,0,0-.54,1.15,7.62,7.62,0,0,1,.54,5.24v.09a2.88,2.88,0,0,0,2.92,3.54l37.82-1.5a1.15,1.15,0,0,0,1.15-.8,2,2,0,0,0-.18-1.42c-3.54-10.38-11.07-12-29-13.66a5,5,0,0,1-2.57-1,3.06,3.06,0,0,0-3.63-.08h-.09C498.84,327.77,500.52,332.21,500.52,333.45Z" transform="translate(-42.31 -89.83)" style="fill:none;stroke:#293b4a;stroke-miterlimit:10;stroke-width:2px"></path><path d="M512.48,328.75l-12.4,12.42" transform="translate(-42.31 -89.83)" style="fill:none;stroke:#293b4a;stroke-miterlimit:10;stroke-width:2px"></path><path d="M517.88,329.55l-10.72,10.82" transform="translate(-42.31 -89.83)" style="fill:none;stroke:#293b4a;stroke-miterlimit:10;stroke-width:2px"></path><path d="M522.66,330.26l-8.85,8.87" transform="translate(-42.31 -89.83)" style="fill:none;stroke:#293b4a;stroke-miterlimit:10;stroke-width:2px"></path><path d="M441.53,450.52c-.88,3.28-5.58-.09-7.44-.09a.8.8,0,0,0-.8,1,7.89,7.89,0,0,1-1,5.24.09.09,0,0,1-.09.09,2.78,2.78,0,0,0,1.86,4.16l36.76,9.05a1.33,1.33,0,0,0,1.33-.44c.35-.36.26-.89.17-1.42-.53-11-7.26-14.55-24-21.2-.88-.35-.35-3.9-.88-4.61a3,3,0,0,0-5.23.71C441.18,443.33,441.8,449.28,441.53,450.52Z" transform="translate(-42.31 -89.83)" style="fill:none;stroke:#293b4a;stroke-miterlimit:10;stroke-width:2px"></path><path d="M454.37,449.36,439,457.79" transform="translate(-42.31 -89.83)" style="fill:none;stroke:#293b4a;stroke-miterlimit:10;stroke-width:2px"></path><path d="M459.33,451.58,446,458.94" transform="translate(-42.31 -89.83)" style="fill:none;stroke:#293b4a;stroke-miterlimit:10;stroke-width:2px"></path><path d="M463.67,453.62l-11,6" transform="translate(-42.31 -89.83)" style="fill:none;stroke:#293b4a;stroke-miterlimit:10;stroke-width:2px"></path><path d="M252.43,280a13.83,13.83,0,0,1-6.47,9.58,96.72,96.72,0,0,1-8.24-15.79l-.17-.17a52,52,0,0,0,9.74-6.92A14.34,14.34,0,0,1,252.43,280Z" transform="translate(-42.31 -89.83)" style="fill:#2a3b4a;stroke:#2a3b4a;stroke-miterlimit:10;stroke-width:2px"></path><path d="M247.2,266.76a49.14,49.14,0,0,1-9.74,6.92,6.24,6.24,0,0,1-1.86-5.86,59,59,0,0,0,4.78-3.81c.18,0,.36.09.53.09A13.8,13.8,0,0,1,247.2,266.76Z" transform="translate(-42.31 -89.83)" style="fill:#2a3b4a;stroke:#2a3b4a;stroke-miterlimit:10;stroke-width:2px"></path><path d="M268.28,243.08a13.91,13.91,0,0,1-15.94,11.44,12.19,12.19,0,0,1-2.39-.62,158.11,158.11,0,0,0,10.89-14.55,8.65,8.65,0,0,1,7.53.54A9.51,9.51,0,0,1,268.28,243.08Z" transform="translate(-42.31 -89.83)" style="fill:#2a3b4a;stroke:#2a3b4a;stroke-miterlimit:10;stroke-width:2px"></path><path d="M301.59,288.13a13.87,13.87,0,1,1-11.43-16A13.92,13.92,0,0,1,301.59,288.13Z" transform="translate(-42.31 -89.83)" style="fill:#2a3b4a"></path><path d="M317.53,251.24a13.87,13.87,0,0,1-25.69,4.7c2.93-1.24,5.76-2.4,8.42-3.46q9.44-3.85,17-6.92A15.15,15.15,0,0,1,317.53,251.24Z" transform="translate(-42.31 -89.83)" style="fill:#2a3b4a;stroke:#2a3b4a;stroke-miterlimit:10;stroke-width:2px"></path><path d="M348.53,286.09c-8.42,4.08-16.74,8.16-24.71,11.8a13.36,13.36,0,0,1-.36-6.21,13.92,13.92,0,0,1,16-11.44A14.41,14.41,0,0,1,348.53,286.09Z" transform="translate(-42.31 -89.83)" style="fill:#2a3b4a;stroke:#2a3b4a;stroke-miterlimit:10;stroke-width:2px"></path><path d="M366.69,259.31a13.87,13.87,0,1,1-11.43-16A13.92,13.92,0,0,1,366.69,259.31Z" transform="translate(-42.31 -89.83)" style="fill:#2a3b4a"></path><path d="M330.81,337.62c-.17.18-.35.44-.53.62a219.4,219.4,0,0,1-23.47-13.84,15.33,15.33,0,0,1,2.22-4.08,13.91,13.91,0,0,1,21.78,17.3Z" transform="translate(-42.31 -89.83)" style="fill:#2a3b4a;stroke:#2a3b4a;stroke-miterlimit:10;stroke-width:2px"></path><path d="M382.19,224.36a13.92,13.92,0,0,1-22.94,5.86A165.88,165.88,0,0,1,382.19,224.36Z" transform="translate(-42.31 -89.83)" style="fill:#2a3b4a;stroke:#2a3b4a;stroke-miterlimit:10;stroke-width:2px"></path><path d="M412.39,255.76c-7.79,4.43-15.85,8.6-23.74,12.42a12.74,12.74,0,0,1-.09-5.15,13.92,13.92,0,0,1,15.95-11.44A13.25,13.25,0,0,1,412.39,255.76Z" transform="translate(-42.31 -89.83)" style="fill:#2a3b4a;stroke:#2a3b4a;stroke-miterlimit:10;stroke-width:2px"></path><path d="M363.76,311.54c-.35.54-.7,1.07-1.06,1.6a13.87,13.87,0,1,1-16.83-21.2C353,299.13,358.63,305.42,363.76,311.54Z" transform="translate(-42.31 -89.83)" style="fill:#2a3b4a;stroke:#2a3b4a;stroke-miterlimit:10;stroke-width:2px"></path><path d="M373,360.06a75.54,75.54,0,0,0-7.89.88c-.62-4.34.09-6.47.09-6.47s-5.58-2.13-13.82-6a13.71,13.71,0,0,1,16.3.71A14,14,0,0,1,373,360.06Z" transform="translate(-42.31 -89.83)" style="fill:#2a3b4a;stroke:#2a3b4a;stroke-miterlimit:10;stroke-width:2px"></path><path d="M431.79,230.57a13.65,13.65,0,0,1-6.82,9.76,13.82,13.82,0,0,1-20.55-14.28,15.41,15.41,0,0,1,2.21-5.59c8.24-1,15.59-1.68,21.17-2.13A14,14,0,0,1,431.79,230.57Z" transform="translate(-42.31 -89.83)" style="fill:#2a3b4a;stroke:#2a3b4a;stroke-miterlimit:10;stroke-width:2px"></path><path d="M451.45,287.24a13.92,13.92,0,1,0-13.9-13.92A13.92,13.92,0,0,0,451.45,287.24Z" transform="translate(-42.31 -89.83)" style="fill:#2a3b4a"></path><path d="M390.34,349.41a13.9,13.9,0,0,1-12.67-18.35,103.92,103.92,0,0,0,7.44,10.28C387,344,388.65,346.66,390.34,349.41Z" transform="translate(-42.31 -89.83)" style="fill:#2a3b4a;stroke:#2a3b4a;stroke-miterlimit:10;stroke-width:2px"></path><path d="M457.92,251.68a14.28,14.28,0,0,1-1.95-.18,13.92,13.92,0,0,1-11.43-16,13.1,13.1,0,0,1,1.6-4.52Z" transform="translate(-42.31 -89.83)" style="fill:#2a3b4a;stroke:#2a3b4a;stroke-miterlimit:10;stroke-width:2px"></path><path d="M439.05,435.88a14.1,14.1,0,0,1-10.45-2.83,14.4,14.4,0,0,1-3.81-4.62h10.45C436.75,431.27,438,433.76,439.05,435.88Z" transform="translate(-42.31 -89.83)" style="fill:#2a3b4a"></path><path d="M68.55,159.53A28.75,28.75,0,0,0,76,162.46a19.72,19.72,0,0,0,15.59-2.75A31.75,31.75,0,0,1,96.89,157c8.06-3.46-4.34,5.5-5.31,10.56" transform="translate(-42.31 -89.83)" style="fill:none;stroke:#293b4a;stroke-miterlimit:10;stroke-width:2px"></path><path d="M65.54,159.71C62,164.41,78,166.63,78,166.63" transform="translate(-42.31 -89.83)" style="fill:none;stroke:#293b4a;stroke-miterlimit:10;stroke-width:2px"></path><path d="M62.88,163.26c-1.77,5.14,12.4,6.65,12.4,6.65" transform="translate(-42.31 -89.83)" style="fill:none;stroke:#293b4a;stroke-miterlimit:10;stroke-width:2px"></path><path d="M339.32,185.25c8.68,2.75,4.25,5.41,4.25,5.41-6.47-3.9-8,.09-13.2-3.9" transform="translate(-42.31 -89.83)" style="fill:none;stroke:#2a3b4a;stroke-miterlimit:10;stroke-width:2px"></path><path d="M351.81,184.46c4.78-4.44-9.92-6.21-20.46-3.82l-1.86.53h-.09a17.4,17.4,0,0,1-5.23,1c-5.67.18-21,1.77-47.65,10.64a5.59,5.59,0,0,1-4.61-.35c-3.1-1.6-13-4.35-23.2-4.88" transform="translate(-42.31 -89.83)" style="fill:none;stroke:#2a3b4a;stroke-miterlimit:10;stroke-width:2px"></path><path d="M347.11,187.29c7.53,1.51,6.73-.44,6.73-.44s-.62-4.7-17.89-4" transform="translate(-42.31 -89.83)" style="fill:none;stroke:#2a3b4a;stroke-miterlimit:10;stroke-width:2px"></path><path d="M425,450.25H319.39" transform="translate(-42.31 -89.83)" style="fill:none;stroke:#2a3b4a;stroke-linecap:round;stroke-linejoin:round;stroke-width:2px"></path><path d="M304.07,450.25H281" transform="translate(-42.31 -89.83)" style="fill:none;stroke:#2a3b4a;stroke-linecap:round;stroke-linejoin:round;stroke-width:2px"></path><path d="M74,428.35H43.31" transform="translate(-42.31 -89.83)" style="fill:none;stroke:#2a3b4a;stroke-linecap:round;stroke-linejoin:round;stroke-width:2px"></path><path d="M611.33,320.59H580.68" transform="translate(-42.31 -89.83)" style="fill:none;stroke:#2a3b4a;stroke-linecap:round;stroke-linejoin:round;stroke-width:2px"></path><path d="M544.28,257.62h79.89s-4.78-21.81-21.08-15.43c0,0-14.88-40.88-49.16-9.58,0,0-33.13-26.16-41.45,16.06" transform="translate(-42.31 -89.83)" style="fill:#19ad4a"></path><path d="M544.28,257.62h79.89s-4.78-21.81-21.08-15.43c0,0-14.88-40.88-49.16-9.58,0,0-33.13-26.16-41.45,16.06" transform="translate(-42.31 -89.83)" style="fill:none;stroke:#2a3b4a;stroke-linecap:round;stroke-linejoin:round;stroke-width:2px"></path><path d="M461.9,257.62h73.7" transform="translate(-42.31 -89.83)" style="fill:none;stroke:#2a3b4a;stroke-linecap:round;stroke-linejoin:round;stroke-width:2px"></path><path d="M444.19,449s3.72.09,4.16-2.13" transform="translate(-42.31 -89.83)" style="fill:none;stroke:#293b4a;stroke-miterlimit:10;stroke-width:2px"></path><path d="M165.89,380.19s25.86-25.1,62.09-3.46Z" transform="translate(-42.31 -89.83)" style="fill:#19ad4a"></path><path d="M165.89,380.19s25.86-25.1,62.09-3.46" transform="translate(-42.31 -89.83)" style="fill:none;stroke:#2a3b4a;stroke-linecap:round;stroke-linejoin:round;stroke-width:2px"></path></g></svg>