<?xml version="1.0" encoding="utf-8"?>
<!-- Generator: Adobe Illustrator 24.1.0, SVG Export Plug-In . SVG Version: 6.00 Build 0)  -->
<svg version="1.1" id="Layer_1" xmlns="http://www.w3.org/2000/svg" xmlns:xlink="http://www.w3.org/1999/xlink" x="0px" y="0px"
	 viewBox="0 0 94.7 116" style="enable-background:new 0 0 94.7 116;" xml:space="preserve">
<style type="text/css">
	.st0{fill:#293B4A;}
	.st1{fill:#FFFFFF;stroke:#293B4A;stroke-width:4;stroke-miterlimit:10;}
	.st2{fill:none;stroke:#293B4A;stroke-width:2;stroke-miterlimit:10;}
</style>
<path class="st0" d="M2,105h90c1.1,0,2,0.9,2,2l0,0c0,1.1-0.9,2-2,2H2c-1.1,0-2-0.9-2-2l0,0C0,105.9,0.9,105,2,105z"/>
<path class="st0" d="M21,112h52c1.1,0,2,0.9,2,2l0,0c0,1.1-0.9,2-2,2H21c-1.1,0-2-0.9-2-2l0,0C19,112.9,19.9,112,21,112z"/>
<path class="st1" d="M92.6,47.3c0,4.2-0.6,8.4-1.7,12.4C84.2,83.8,59.1,97.8,35,91c-24.1-6.8-38.2-31.9-31.4-56s31.9-38.2,56-31.4
	C79.1,9.2,92.6,27,92.6,47.3z"/>
<path class="st0" d="M61,30.1c0.3-2.8-2.9-5.4-7.2-5.9s-8,1.4-8.3,4.2s2.9,5.4,7.2,5.9S60.7,32.9,61,30.1z"/>
<path class="st0" d="M48.1,37.3c0.3-2.8-2.9-5.4-7.2-5.9s-8,1.4-8.3,4.2s2.9,5.4,7.2,5.9S47.8,40,48.1,37.3z"/>
<path class="st0" d="M35.5,41.5c2.2-1.8,1.7-5.9-1-9.2s-6.6-4.7-8.8-2.9s-1.7,5.9,1,9.2S33.4,43.3,35.5,41.5z"/>
<path class="st0" d="M33.9,32.6c2.3-1.7,2.8-4.9,1.1-7.2c-1.7-2.3-4.9-2.8-7.2-1.1c-2.3,1.7-2.8,4.9-1.1,7.2
	c0.1,0.1,0.1,0.1,0.2,0.2C28.5,33.8,31.6,34.3,33.9,32.6C33.9,32.6,33.9,32.6,33.9,32.6z"/>
<path class="st0" d="M40.9,33.3c3.2-2.3,3.9-6.8,1.5-10s-6.8-3.9-10-1.5c-3.2,2.3-3.9,6.8-1.5,10c0.1,0.1,0.1,0.2,0.2,0.3
	C33.4,35,37.8,35.6,40.9,33.3C40.9,33.3,40.9,33.3,40.9,33.3z"/>
<path class="st0" d="M52.9,31.9c3.5-2.5,4.3-7.4,1.8-10.9c-2.5-3.5-7.4-4.3-10.9-1.8c-3.5,2.5-4.3,7.4-1.8,10.9
	c0.1,0.1,0.2,0.2,0.3,0.4C44.8,33.7,49.5,34.4,52.9,31.9z"/>
<path class="st0" d="M52.5,35.9c1.9-2,0.8-6.1-2.4-9s-7.3-3.6-9.2-1.6s-0.8,6.1,2.4,9S50.6,38,52.5,35.9z"/>
<path class="st0" d="M56,30.1c3.6-2.4,5.2-6.2,3.7-8.5s-5.7-2.2-9.3,0.2s-5.2,6.2-3.7,8.5S52.4,32.5,56,30.1z"/>
<path class="st0" d="M31.8,39.3c2.4-1.6,3.6-4.3,2.5-5.9s-3.9-1.5-6.4,0.1s-3.6,4.3-2.5,5.9S29.4,41,31.8,39.3z"/>
<path class="st0" d="M33.6,45.4c2.4-1.6,3.6-4.3,2.5-5.9s-3.9-1.5-6.4,0.1s-3.6,4.3-2.5,5.9S31.1,47.1,33.6,45.4z"/>
<path class="st0" d="M30.8,43.2c2.5-1.6,3.6-4.3,2.5-5.9s-3.9-1.5-6.4,0.1s-3.6,4.3-2.5,5.9S28.3,44.8,30.8,43.2z"/>
<path class="st0" d="M29,38.6c2.4-1.6,3.6-4.3,2.5-5.9s-3.9-1.5-6.4,0.1s-3.6,4.3-2.5,5.9S26.6,40.3,29,38.6z"/>
<path class="st0" d="M44.4,33c2.6-1,3.3-5.1,1.7-9.1s-5.1-6.4-7.6-5.3s-3.3,5.1-1.7,9.1S41.9,34.1,44.4,33z"/>
<path class="st0" d="M56.1,49c0.8,0,1.4-0.6,1.4-1.5c0-0.8-0.6-1.4-1.4-1.4c-0.8,0-1.4,0.6-1.4,1.4C54.6,48.3,55.3,49,56.1,49
	C56.1,49,56.1,49,56.1,49z"/>
<path class="st0" d="M38.3,59.1c0,0,1.4-5.3,4-6.4c0,0-6.5-5.9,0-15.7s-11.6,3-11.6,3S27.2,50.4,38.3,59.1z"/>
<path class="st0" d="M45.4,47.3c-4.7-4.5-6.6-1.8-5.7,1.1s-6-0.9-6-0.9l1-8.8l6.6-3.9l7,9.1C48.3,46.6,47.3,47.8,45.4,47.3z"/>
<path class="st2" d="M52.4,56.1c0.6,1.8,2.4,2.8,4.3,2.5"/>
<path class="st2" d="M59.7,73.8c8.6,0.4,13,11,13,11"/>
<path class="st2" d="M39.2,83.2c1.9,3.3,1.3,8.9,1.3,8.9"/>
<path class="st2" d="M17.7,81.3c5.1-9.8,15.5-8.3,15.5-8.3c18.4,12.9,32.7,9,26.5,0.8c-0.1-0.1,0.1-0.2-0.1-0.2
	c-1.7-0.1-7.6-0.9-7.6-9.4h8.6V53.7h0.8c1.4,0,2.5-1.1,2.5-2.4c0-0.4-0.1-0.8-0.2-1.1c-0.4-0.9-0.9-1.8-1.5-2.6
	c-1.3-1.9-2.1-4-2.2-6.3c-0.5-2.3-1.1-4.6-2-6.9c-3.2-8-16.8-10.5-23.3-3.2c-12.8,14.2,5,29.2,5,29.2s-1.2,9.5-6.4,12.6"/>
</svg>
