<?xml version="1.0" encoding="utf-8"?>
<!-- Generator: Adobe Illustrator 24.1.0, SVG Export Plug-In . SVG Version: 6.00 Build 0)  -->
<svg version="1.1" id="Layer_1" xmlns="http://www.w3.org/2000/svg" xmlns:xlink="http://www.w3.org/1999/xlink" x="0px" y="0px"
	 viewBox="0 0 94.7 116" style="enable-background:new 0 0 94.7 116;" xml:space="preserve">
<style type="text/css">
	.st0{fill:#293B4A;}
	.st1{fill:#FFFFFF;stroke:#293B4A;stroke-width:4;stroke-miterlimit:10;}
	.st2{fill:none;stroke:#293B4A;stroke-width:2;stroke-linejoin:round;}
	.st3{fill:none;stroke:#293B4A;stroke-width:2;stroke-miterlimit:10;}
</style>
<path class="st0" d="M2,105h90c1.1,0,2,0.9,2,2l0,0c0,1.1-0.9,2-2,2H2c-1.1,0-2-0.9-2-2l0,0C0,105.9,0.9,105,2,105z"/>
<path class="st0" d="M21,112h52c1.1,0,2,0.9,2,2l0,0c0,1.1-0.9,2-2,2H21c-1.1,0-2-0.9-2-2l0,0C19,112.9,19.9,112,21,112z"/>
<path class="st1" d="M92.6,47.3c0,4.2-0.6,8.4-1.7,12.4C84.2,83.8,59.1,97.8,35,91c-24.1-6.8-38.2-31.9-31.4-56s31.9-38.2,56-31.4
	C79.1,9.2,92.6,27,92.6,47.3z"/>
<path class="st0" d="M63.3,35.6c0,1.8-11,2.2-14.6,1.6s-4.2,1.8-3.6,5s-1.4,4.2-1.4,4.2L42,45.6c-0.6-0.3-1.4-0.1-1.8,0.4
	c-0.8,1.1,0.1,3,1,4.3l0.1,0.1c0.3,0.6,0.7,1.1,1.2,1.6v0.1c0.1,0.5,0.1,1,0,1.5c-0.4,5.5-6.5,5.1-6.5,5.1c-1.9-1.6-3.6-3.5-4.9-5.7
	v-2.7l-0.3,2.2c-1.8-2.8-3.3-5.9-3.6-8.2c-0.1-0.5-0.1-1.1-0.2-1.8v-0.4c0-0.3,0-0.5-0.1-0.8v-0.2c-0.1-5.9,1.6-15,11.5-18.6
	C51.8,17.6,63.3,25.8,63.3,35.6z"/>
<path class="st2" d="M58.6,41.1c0.5,4.1,1.9,8.1,4.3,11.5c0.6,0.9,0.4,2-0.5,2.6c-0.2,0.1-0.5,0.2-0.7,0.3L59.2,56"/>
<path class="st3" d="M50,57.9c2.1,1.6,4.8,2.1,7.3,1.1"/>
<path class="st3" d="M44.7,63.8C55.3,68.4,61,64.5,61,64.5v-8.8"/>
<path class="st3" d="M56.7,43c0.1,4.3-5.5,8.2-7.7-1.6l14.2-1.5c0,0,1.1,5.9-3.5,6.5"/>
<path class="st3" d="M34.6,54.6c4.9,6,0,12.5,0,12.5L18.1,74c-0.3,0.1-0.5,0.3-0.6,0.5c-0.7,2.1-1.1,3.8-1.4,5.1"/>
<path class="st3" d="M38.9,64.4c4.7,2.6,10,3.8,15.4,3.5l0.1,0.1c0.5,0.6,0.8,1.5,0.6,2.3c-0.2,0.9-0.7,1.6-1.4,2l-0.7,0.4
	c0,0-8.3,3.5-17.2-3.8"/>
<path class="st3" d="M40.6,67.1c0,1.5-0.6,3-1.7,4.1"/>
<path class="st3" d="M47.8,68.7c0.5,1.7,0.1,3.5-1.1,4.8"/>
<path class="st3" d="M55.1,70l15.9,4c0.1,0.1,0.3,0.2,0.4,0.3c3.4,4.9,3.2,6.6,3.6,9.1"/>
<path class="st3" d="M29.1,79.3c2.1,3.1,1.5,7.9,1.2,9.8"/>
<path class="st3" d="M64.9,80.4c2.2,3.9,1.8,5.5,2.6,7.1"/>
<path class="st0" d="M31.3,50.4L31,52.6l-0.9,5.9c-0.8-0.2-1.5-0.4-2.2-0.6c0,0-0.6-11.2-0.8-15.3v-0.4c0-0.3,0-0.5-0.1-0.8v-0.2
	c0.1-0.4,6.3-1.2,6.3-1.2l8,10.4l0.1,0.1l1.2,1.6v1.6l0.1,7.2c0,0-6.4-1-11.5-2.1L31.3,50.4L31.3,50.4z"/>
</svg>
