<?xml version="1.0" encoding="utf-8"?>
<!-- Generator: Adobe Illustrator 24.1.0, SVG Export Plug-In . SVG Version: 6.00 Build 0)  -->
<svg version="1.1" id="Layer_1" xmlns="http://www.w3.org/2000/svg" xmlns:xlink="http://www.w3.org/1999/xlink" x="0px" y="0px"
	 viewBox="0 0 94.7 116" style="enable-background:new 0 0 94.7 116;" xml:space="preserve">
<style type="text/css">
	.st0{fill:#293B4A;}
	.st1{fill:#FFFFFF;stroke:#19AD4A;stroke-width:4;stroke-miterlimit:10;}
	.st2{fill:none;stroke:#293B4A;stroke-width:2;stroke-linejoin:round;}
	.st3{fill:none;stroke:#293B4A;stroke-width:2;stroke-miterlimit:10;}
	.st4{fill:none;stroke:#293B4A;stroke-width:4;stroke-miterlimit:10;}
</style>
<path class="st0" d="M2,105h90c1.1,0,2,0.9,2,2l0,0c0,1.1-0.9,2-2,2H2c-1.1,0-2-0.9-2-2l0,0C0,105.9,0.9,105,2,105z"/>
<path class="st0" d="M21,112h52c1.1,0,2,0.9,2,2l0,0c0,1.1-0.9,2-2,2H21c-1.1,0-2-0.9-2-2l0,0C19,112.9,19.9,112,21,112z"/>
<path class="st1" d="M92.6,47.3c0,4.2-0.6,8.4-1.7,12.4C84.2,83.8,59.1,97.8,35,91c-24.1-6.8-38.2-31.9-31.4-56s31.9-38.2,56-31.4
	C79.1,9.2,92.6,27,92.6,47.3z"/>
<path class="st2" d="M61.4,52.9c-2.3,3.2-5.2,6.1-8.2,6.7c-7.3,1.6-6.7-14.5-6.7-14.5l-3.8-0.6l0.3-5.5c0.4-6-1.8-7.2-1.8-7.2"/>
<path class="st2" d="M49.3,51.4c2.4-0.1,4.6-1.1,6.4-2.6"/>
<path class="st0" d="M52.6,13.5c-6.3-7-12.5,2.5-10.8,4.4c-2.9,1.5-4.4,4.8-3.6,7.9c0,0-7.4,11.1,4.7,9c0,0,1.6-5.4,11.2-3
	c3.2,0.9,6.6,1,9.9,0.3c0,0,0.4,3.3-1.9,4.7c0,0-0.6,9.2,1.3,9c0,0,4.4-2.1,5.9-0.5s4.7-5.9,0.3-10c0,0,5.4-4.4,0.9-7.5
	c0,0,2.9-9.3-5.7-6.3c0,0,1.4-8.3-7-5.8C57.8,15.8,56.9,12.3,52.6,13.5z"/>
<path class="st0" d="M51.3,39.3c0.7,0,1.3-0.6,1.3-1.3c0-0.7-0.6-1.3-1.3-1.3S50,37.3,50,38C50,38.7,50.6,39.3,51.3,39.3
	C51.3,39.3,51.3,39.3,51.3,39.3z"/>
<path class="st3" d="M65.3,32.7c-1.9,17.6,8.3,21.1,8.3,21.1s7.2-0.1,17.4,5.8"/>
<path class="st3" d="M47.6,55c-14.2,4.3-23.2,15.6-28.8,28.1"/>
<path class="st3" d="M37.2,81.8c-0.9,2.8-1.6,5.7-2.1,8.6"/>
<path class="st0" d="M55.8,31c3,0.8-1.5,11.9,1.6,10.6s2.5-3.2,5.3-4.5s1.9-10.5,1.9-10.5L57.5,31L55.8,31z"/>
<path class="st3" d="M77.4,54.3C46.6,90.1,40.6,69.9,47.6,55"/>
<path class="st4" d="M92.6,47.3c0,4.2-0.6,8.4-1.7,12.4C84.2,83.8,59.1,97.8,35,91c-24.1-6.8-38.2-31.9-31.4-56s31.9-38.2,56-31.4
	C79.1,9.2,92.6,27,92.6,47.3z"/>
</svg>
