<?xml version="1.0" encoding="utf-8"?>
<!-- Generator: Adobe Illustrator 24.1.0, SVG Export Plug-In . SVG Version: 6.00 Build 0)  -->
<svg version="1.1" id="Layer_1" xmlns="http://www.w3.org/2000/svg" xmlns:xlink="http://www.w3.org/1999/xlink" x="0px" y="0px"
	 viewBox="0 0 94.7 116" style="enable-background:new 0 0 94.7 116;" xml:space="preserve">
<style type="text/css">
	.st0{fill:#293B4A;}
	.st1{fill:#FFFFFF;stroke:#293B4A;stroke-width:4;stroke-miterlimit:10;}
	.st2{fill:none;stroke:#293B4A;stroke-width:2;stroke-linejoin:round;}
	.st3{fill:#293B4A;stroke:#293B4A;stroke-width:2;stroke-linejoin:round;}
	.st4{fill:none;stroke:#293B4A;stroke-width:2;stroke-miterlimit:10;}
</style>
<path class="st0" d="M2,105h90c1.1,0,2,0.9,2,2l0,0c0,1.1-0.9,2-2,2H2c-1.1,0-2-0.9-2-2l0,0C0,105.9,0.9,105,2,105z"/>
<path class="st0" d="M21,112h52c1.1,0,2,0.9,2,2l0,0c0,1.1-0.9,2-2,2H21c-1.1,0-2-0.9-2-2l0,0C19,112.9,19.9,112,21,112z"/>
<path class="st1" d="M92.6,47.3c0,4.2-0.6,8.4-1.7,12.4C84.2,83.8,59.1,97.8,35,91c-24.1-6.8-38.2-31.9-31.4-56s31.9-38.2,56-31.4
	C79.1,9.2,92.6,27,92.6,47.3z"/>
<path class="st0" d="M42.2,48.8c0.6,0,1.1-0.5,1.1-1.1c0-0.6-0.5-1.1-1.1-1.1S41,47,41,47.6c0,0,0,0,0,0
	C41,48.3,41.5,48.8,42.2,48.8z"/>
<path class="st2" d="M38.1,39.8c-0.4,3.1-4,10.6-5,12.4c-0.1,0.2-0.1,0.5,0.2,0.6c0.1,0,0.1,0.1,0.2,0.1h1.8
	c-2.1,12,3.6,9.4,7.3,9.8c1.9,6.2,0.1,10-1,12.8c-0.3,0.8-0.8,1.5-1.3,2.1c-3.2,3.8-5.8,8.1-7.7,12.7"/>
<path class="st2" d="M42.9,54.8c-1,1.8-3.2,2.5-5,1.5c-0.1,0-0.1-0.1-0.2-0.1"/>
<path class="st3" d="M50.2,61.2c1.6-2.8,0.4-9.3,0.4-9.3c3.1-5.6-3-4.2-3-4.2s0.3-12.2-9.6-7.8c0,0-2-0.5-0.4-5.7
	c1.4-4.8,7.4-6.6,13.3-5.1c2.4,1.3,8.5,5,10.5,8.6c0.5,1,0.8,2,1.1,3.1C68,63,50.2,61.2,50.2,61.2z"/>
<path class="st3" d="M64.1,36.4c-2-4.9-5.8-8.9-10.6-11.1c-7.2-19.8,13.9-15.2,23.9,4.4C85.2,44.8,72,40.1,64.1,36.4z"/>
<path class="st2" d="M64.1,36.4l-2.6,1.2c-2-3.6-8.1-7.2-10.5-8.6l-1-0.5c0,0-0.3-0.9,3.2-3.3l0.3,0.1
	C58.3,27.5,62.1,31.4,64.1,36.4z"/>
<path class="st2" d="M47.3,81c-4.1,4.2-2.9,11.3-2.9,11.3"/>
<path class="st4" d="M61.4,90.3c0.2-5-3.1-9.6-5.6-12.3c-2-2.2-3.3-4.9-3.8-7.8c-0.5-3-0.8-6.5,0.3-9.1"/>
<path class="st4" d="M54.4,76.4c-3.9-0.5-11.7,6.5-16.8,4.7"/>
</svg>
