<?xml version="1.0" encoding="utf-8"?>
<!-- Generator: Adobe Illustrator 24.1.0, SVG Export Plug-In . SVG Version: 6.00 Build 0)  -->
<svg version="1.1" id="Layer_1" xmlns="http://www.w3.org/2000/svg" xmlns:xlink="http://www.w3.org/1999/xlink" x="0px" y="0px"
	 viewBox="0 0 94.7 116" style="enable-background:new 0 0 94.7 116;" xml:space="preserve">
<style type="text/css">
	.st0{fill:#293B4A;}
	.st1{fill:#FFFFFF;stroke:#293B4A;stroke-width:4;stroke-miterlimit:10;}
	.st2{fill:none;stroke:#293B4A;stroke-width:2;stroke-linejoin:round;}
	.st3{fill:none;stroke:#293B4A;stroke-width:2;stroke-miterlimit:10;}
</style>
<path class="st0" d="M2,105h90c1.1,0,2,0.9,2,2l0,0c0,1.1-0.9,2-2,2H2c-1.1,0-2-0.9-2-2l0,0C0,105.9,0.9,105,2,105z"/>
<path class="st0" d="M21,112h52c1.1,0,2,0.9,2,2l0,0c0,1.1-0.9,2-2,2H21c-1.1,0-2-0.9-2-2l0,0C19,112.9,19.9,112,21,112z"/>
<path class="st1" d="M92.6,47.3c0,4.2-0.6,8.4-1.7,12.4c-6.8,24.1-31.9,38.2-56,31.4c-24.1-6.8-38.2-31.9-31.4-56s31.9-38.2,56-31.4
	C79.1,9.2,92.6,27,92.6,47.3z"/>
<path class="st2" d="M53.2,55.6c1.4,3,5,2.9,6.7,1.9"/>
<path class="st3" d="M56.6,51.1c1.9,0,3.5-1.6,3.5-3.5s-1.6-3.5-3.5-3.5s-3.5,1.6-3.5,3.5c0,0,0,0,0,0
	C53.1,49.5,54.7,51.1,56.6,51.1z"/>
<path class="st3" d="M63.5,50.1c1.3-1.4,1.3-3.7-0.2-5c-0.6-0.6-1.5-0.9-2.4-1"/>
<path class="st3" d="M61.6,46.8h-1.3"/>
<path class="st3" d="M52.8,48h-7.9"/>
<path class="st3" d="M57.5,48.2l-3.1-3"/>
<path class="st0" d="M60.2,42H60c-1.9,0.1-16.3,0.5-12.2,6c0.1,0.1,0.2,0.3,0.3,0.4c7.5,8.6-2,12.3-2,12.3c-0.1,1.3-0.1,2.6,0,3.8
	c0.3,1.6-0.6,7.7-1.1,10.1c-1.1,5.1-8.4,6.4-8.4,6.4c-2-0.4-4.2-0.4-6.2,0.2c-1.5,0.6-3,1.3-4.4,2.1c-1,0.6-1.8,1.5-2.4,2.5
	C14.8,80.4,7.9,72.2,4.2,62.5c2.5-1.6,5.4-2.3,8.4-2c-8.8-22.7,19.3-26,19.3-26s-5.2-24.2,18-22.3S70,37.6,60.2,42z"/>
<path class="st2" d="M56.3,76.4c-1.3-2.9-1-6.7,1-13.1c3.7-0.4,7.2,2.1,5.2-9.8h1.8c0.2,0,0.4-0.2,0.5-0.4c0-0.1,0-0.2-0.1-0.3
	c-1.1-1.8-4.7-9.3-5-12.4"/>
<path class="st2" d="M67.5,88.2c-1.1-4-5.5-6.5-5.5-6.5c-1.2-0.7-2.3-1.5-3.3-2.4"/>
<path class="st2" d="M43.9,79.7c0.9,0,1.7-0.8,1.7-1.7c0-0.9-0.8-1.7-1.7-1.7c-0.9,0-1.7,0.8-1.7,1.7S43,79.7,43.9,79.7
	C43.9,79.7,43.9,79.7,43.9,79.7z"/>
<path class="st2" d="M47.3,80.6c0.9,0,1.7-0.8,1.7-1.7c0-0.9-0.8-1.7-1.7-1.7c-0.9,0-1.7,0.8-1.7,1.7S46.4,80.6,47.3,80.6
	C47.3,80.6,47.3,80.6,47.3,80.6z"/>
<path class="st2" d="M50.7,80.9c0.9,0,1.7-0.8,1.7-1.7c0-0.9-0.8-1.7-1.7-1.7c-0.9,0-1.7,0.8-1.7,1.7c0,0,0,0,0,0
	C49,80.1,49.8,80.9,50.7,80.9z"/>
<path class="st2" d="M54.2,80.6c0.9,0,1.7-0.8,1.7-1.7c0-0.9-0.8-1.7-1.7-1.7c-0.9,0-1.7,0.8-1.7,1.7S53.3,80.6,54.2,80.6
	C54.2,80.6,54.2,80.6,54.2,80.6z"/>
<path class="st2" d="M57.5,79.5c0.9,0,1.7-0.8,1.7-1.7c0-0.9-0.8-1.7-1.7-1.7c-0.9,0-1.7,0.8-1.7,1.7c0,0,0,0,0,0
	C55.8,78.7,56.6,79.5,57.5,79.5z"/>
<path class="st3" d="M32,80c14.8,0.9,18,6.9,23.6,5.3s4.7-4.7,4.7-4.7"/>
</svg>
