<svg xmlns="http://www.w3.org/2000/svg" id="Layer_1" data-name="Layer 1" viewBox="0 0 475.75 280.73"><path d="M349.53,221.28h92.88s-3.36-15-14.49-10.64c0,0-10.21-28.13-33.84-6.57,0,0-22.78-18-28.49,11" transform="translate(-7.28 -140.03)" style="fill:none;stroke:#1d3b4e;stroke-miterlimit:10;stroke-width:1.8907500505447388px"></path><path d="M321.12,221.28H343.6" transform="translate(-7.28 -140.03)" style="fill:none;stroke:#1d3b4e;stroke-miterlimit:10;stroke-width:1.8907500505447388px"></path><path d="M173.69,258a16,16,0,1,0-16-16A16,16,0,0,0,173.69,258Z" transform="translate(-7.28 -140.03)" style="fill:none;stroke:#ffcd00;stroke-miterlimit:10;stroke-width:1.8907500505447388px"></path><path d="M173.69,205.36v7.71" transform="translate(-7.28 -140.03)" style="fill:none;stroke:#ffcd00;stroke-miterlimit:10;stroke-width:1.8907500505447388px"></path><path d="M173.69,192.36V199" transform="translate(-7.28 -140.03)" style="fill:none;stroke:#ffcd00;stroke-miterlimit:10;stroke-width:1.8907500505447388px"></path><path d="M173.69,271.11v20.7" transform="translate(-7.28 -140.03)" style="fill:none;stroke:#ffcd00;stroke-miterlimit:10;stroke-width:1.8907500505447388px"></path><path d="M148.78,199l8.92,15.42" transform="translate(-7.28 -140.03)" style="fill:none;stroke:#ffcd00;stroke-miterlimit:10;stroke-width:1.8907500505447388px"></path><path d="M190.4,271.11l8.14,14.06" transform="translate(-7.28 -140.03)" style="fill:none;stroke:#ffcd00;stroke-miterlimit:10;stroke-width:1.8907500505447388px"></path><path d="M143.92,224.92l4.64,2.64" transform="translate(-7.28 -140.03)" style="fill:none;stroke:#ffcd00;stroke-miterlimit:10;stroke-width:1.8907500505447388px"></path><path d="M132.57,218.35l5.35,3.07" transform="translate(-7.28 -140.03)" style="fill:none;stroke:#ffcd00;stroke-miterlimit:10;stroke-width:1.8907500505447388px"></path><path d="M212.39,264.4l4.35,2.57" transform="translate(-7.28 -140.03)" style="fill:none;stroke:#ffcd00;stroke-miterlimit:10;stroke-width:1.8907500505447388px"></path><path d="M198.75,256.55,210,263.11" transform="translate(-7.28 -140.03)" style="fill:none;stroke:#ffcd00;stroke-miterlimit:10;stroke-width:1.8907500505447388px"></path><path d="M126.79,242.05h17.85" transform="translate(-7.28 -140.03)" style="fill:none;stroke:#ffcd00;stroke-miterlimit:10;stroke-width:1.8907500505447388px"></path><path d="M202.68,242.05h17.56" transform="translate(-7.28 -140.03)" style="fill:none;stroke:#ffcd00;stroke-miterlimit:10;stroke-width:1.8907500505447388px"></path><path d="M130.57,267l9.64-5.57" transform="translate(-7.28 -140.03)" style="fill:none;stroke:#ffcd00;stroke-miterlimit:10;stroke-width:1.8907500505447388px"></path><path d="M198.75,227.56,213,219.35" transform="translate(-7.28 -140.03)" style="fill:none;stroke:#ffcd00;stroke-miterlimit:10;stroke-width:1.8907500505447388px"></path><path d="M157.7,269.75l1.5-2.57" transform="translate(-7.28 -140.03)" style="fill:none;stroke:#ffcd00;stroke-miterlimit:10;stroke-width:1.8907500505447388px"></path><path d="M148.78,285.17l6.56-11.35" transform="translate(-7.28 -140.03)" style="fill:none;stroke:#ffcd00;stroke-miterlimit:10;stroke-width:1.8907500505447388px"></path><path d="M190.4,213.07,198.54,199" transform="translate(-7.28 -140.03)" style="fill:none;stroke:#ffcd00;stroke-miterlimit:10;stroke-width:1.8907500505447388px"></path><path d="M299.91,328.22V315.3h-56V419.82" transform="translate(-7.28 -140.03)" style="fill:none;stroke:#1d3b4e;stroke-miterlimit:10;stroke-width:1.8907500505447388px"></path><path d="M299.91,419.82V370.34" transform="translate(-7.28 -140.03)" style="fill:none;stroke:#1d3b4e;stroke-miterlimit:10;stroke-width:1.8907500505447388px"></path><path d="M303.62,258V245.91H240.16V315.3h63.46V297.74" transform="translate(-7.28 -140.03)" style="fill:none;stroke:#1d3b4e;stroke-miterlimit:10;stroke-width:1.8907500505447388px"></path><path d="M245.51,245.91V235.56l10-11.43h32.77v-16.7H255.15v12.78" transform="translate(-7.28 -140.03)" style="fill:none;stroke:#1d3b4e;stroke-miterlimit:10;stroke-width:1.8907500505447388px"></path><path d="M298.34,245.91V235.56l-10.06-11.43" transform="translate(-7.28 -140.03)" style="fill:none;stroke:#1d3b4e;stroke-miterlimit:10;stroke-width:1.8907500505447388px"></path><path d="M256.79,203l14.85-42.33L286.13,203h-24" transform="translate(-7.28 -140.03)" style="fill:none;stroke:#1d3b4e;stroke-miterlimit:10;stroke-width:1.8907500505447388px"></path><path d="M272.21,140v20.64" transform="translate(-7.28 -140.03)" style="fill:none;stroke:#1d3b4e;stroke-miterlimit:10;stroke-width:1.8907500505447388px"></path><path d="M271.64,174.52l-8.07,24.56h14.07" transform="translate(-7.28 -140.03)" style="fill:none;stroke:#1d3b4e;stroke-miterlimit:10;stroke-width:1.8907500505447388px"></path><path d="M293.42,290.24a24.08,24.08,0,1,1-21.56-34.84,24.64,24.64,0,0,1,8,1.36" transform="translate(-7.28 -140.03)" style="fill:none;stroke:#1d3b4e;stroke-miterlimit:10;stroke-width:1.8907500505447388px"></path><path d="M240.16,236.84v9.07" transform="translate(-7.28 -140.03)" style="fill:none;stroke:#1d3b4e;stroke-miterlimit:10;stroke-width:1.8907500505447388px"></path><path d="M249.22,236.84v9.07" transform="translate(-7.28 -140.03)" style="fill:none;stroke:#1d3b4e;stroke-miterlimit:10;stroke-width:1.8907500505447388px"></path><path d="M258.29,236.84v9.07" transform="translate(-7.28 -140.03)" style="fill:none;stroke:#1d3b4e;stroke-miterlimit:10;stroke-width:1.8907500505447388px"></path><path d="M267.36,236.84v9.07" transform="translate(-7.28 -140.03)" style="fill:none;stroke:#1d3b4e;stroke-miterlimit:10;stroke-width:1.8907500505447388px"></path><path d="M276.42,236.84v9.07" transform="translate(-7.28 -140.03)" style="fill:none;stroke:#1d3b4e;stroke-miterlimit:10;stroke-width:1.8907500505447388px"></path><path d="M285.49,236.84v9.07" transform="translate(-7.28 -140.03)" style="fill:none;stroke:#1d3b4e;stroke-miterlimit:10;stroke-width:1.8907500505447388px"></path><path d="M294.56,236.84v9.07" transform="translate(-7.28 -140.03)" style="fill:none;stroke:#1d3b4e;stroke-miterlimit:10;stroke-width:1.8907500505447388px"></path><path d="M303.62,236.84v9.07" transform="translate(-7.28 -140.03)" style="fill:none;stroke:#1d3b4e;stroke-miterlimit:10;stroke-width:1.8907500505447388px"></path><path d="M251.79,323.15v19.14H256" transform="translate(-7.28 -140.03)" style="fill:none;stroke:#1d3b4e;stroke-miterlimit:10;stroke-width:1.8907500505447388px"></path><path d="M264.43,323.15v19.14h4.14" transform="translate(-7.28 -140.03)" style="fill:none;stroke:#1d3b4e;stroke-miterlimit:10;stroke-width:1.8907500505447388px"></path><path d="M277,323.15v19.14h4.21" transform="translate(-7.28 -140.03)" style="fill:none;stroke:#1d3b4e;stroke-miterlimit:10;stroke-width:1.8907500505447388px"></path><path d="M289.56,323.15v12.5" transform="translate(-7.28 -140.03)" style="fill:none;stroke:#1d3b4e;stroke-miterlimit:10;stroke-width:1.8907500505447388px"></path><path d="M251.79,350.14v19.2H256" transform="translate(-7.28 -140.03)" style="fill:none;stroke:#1d3b4e;stroke-miterlimit:10;stroke-width:1.8907500505447388px"></path><path d="M264.43,350.14v19.2h4.14" transform="translate(-7.28 -140.03)" style="fill:none;stroke:#1d3b4e;stroke-miterlimit:10;stroke-width:1.8907500505447388px"></path><path d="M277,350.14v19.2h4.21" transform="translate(-7.28 -140.03)" style="fill:none;stroke:#1d3b4e;stroke-miterlimit:10;stroke-width:1.8907500505447388px"></path><path d="M251.79,377.13v19.2H256" transform="translate(-7.28 -140.03)" style="fill:none;stroke:#1d3b4e;stroke-miterlimit:10;stroke-width:1.8907500505447388px"></path><path d="M264.43,377.13v19.2h4.14" transform="translate(-7.28 -140.03)" style="fill:none;stroke:#1d3b4e;stroke-miterlimit:10;stroke-width:1.8907500505447388px"></path><path d="M277,377.13v19.2h4.21" transform="translate(-7.28 -140.03)" style="fill:none;stroke:#1d3b4e;stroke-miterlimit:10;stroke-width:1.8907500505447388px"></path><path d="M289.56,377.13v19.2h4.21" transform="translate(-7.28 -140.03)" style="fill:none;stroke:#1d3b4e;stroke-miterlimit:10;stroke-width:1.8907500505447388px"></path><path d="M251.79,404.11v15.71" transform="translate(-7.28 -140.03)" style="fill:none;stroke:#1d3b4e;stroke-miterlimit:10;stroke-width:1.8907500505447388px"></path><path d="M264.43,404.11v15.71" transform="translate(-7.28 -140.03)" style="fill:none;stroke:#1d3b4e;stroke-miterlimit:10;stroke-width:1.8907500505447388px"></path><path d="M277,404.11v15.71" transform="translate(-7.28 -140.03)" style="fill:none;stroke:#1d3b4e;stroke-miterlimit:10;stroke-width:1.8907500505447388px"></path><path d="M289.56,404.11v15.71" transform="translate(-7.28 -140.03)" style="fill:none;stroke:#1d3b4e;stroke-miterlimit:10;stroke-width:1.8907500505447388px"></path><path d="M271.93,263.18a2.07,2.07,0,1,0-2.07-2.07A2.07,2.07,0,0,0,271.93,263.18Z" transform="translate(-7.28 -140.03)" style="fill:#1d3b4e"></path><path d="M271.93,299.38a2.07,2.07,0,1,0-2.07-2.07A2.07,2.07,0,0,0,271.93,299.38Z" transform="translate(-7.28 -140.03)" style="fill:#1d3b4e"></path><path d="M259.15,268.47a2.07,2.07,0,1,0-2.07-2.07A2.07,2.07,0,0,0,259.15,268.47Z" transform="translate(-7.28 -140.03)" style="fill:#1d3b4e"></path><path d="M284.71,294.1a2.07,2.07,0,1,0-2.07-2.07A2.07,2.07,0,0,0,284.71,294.1Z" transform="translate(-7.28 -140.03)" style="fill:#1d3b4e"></path><path d="M253.79,281.25a2.07,2.07,0,1,0-2.07-2.07A2.07,2.07,0,0,0,253.79,281.25Z" transform="translate(-7.28 -140.03)" style="fill:#1d3b4e"></path><path d="M290,281.25a2.07,2.07,0,1,0-2.07-2.07A2.07,2.07,0,0,0,290,281.25Z" transform="translate(-7.28 -140.03)" style="fill:#1d3b4e"></path><path d="M259.15,294.1a2.07,2.07,0,1,0-2.07-2.07A2.07,2.07,0,0,0,259.15,294.1Z" transform="translate(-7.28 -140.03)" style="fill:#1d3b4e"></path><path d="M285.85,268.54a2.11,2.11,0,1,1-2-3.71" transform="translate(-7.28 -140.03)" style="fill:#1d3b4e"></path><path d="M271.93,281.53a2.07,2.07,0,1,0-2.07-2.07A2.07,2.07,0,0,0,271.93,281.53Z" transform="translate(-7.28 -140.03)" style="fill:#1d3b4e"></path><path d="M271.93,265.9l-2.07,13.56H274Z" transform="translate(-7.28 -140.03)" style="fill:#1d3b4e"></path><path d="M284.71,279.46l-12.93-2.07v4.14Z" transform="translate(-7.28 -140.03)" style="fill:#1d3b4e"></path><path d="M7.28,419.82H483" transform="translate(-7.28 -140.03)" style="fill:none;stroke:#1d3b4e;stroke-miterlimit:10;stroke-width:1.8907500505447388px"></path><path d="M426.27,305.88a35.86,35.86,0,0,1,.5,30.34,5,5,0,0,1-5.42,2.93c-5.43-.79-9.71-3-15.06-3.43-1-.07-2.08-.57-3-.29-14.85,4.57-31,3.79-46.27.5-1.42-.28-2.92.29-4.35.43-3.5.36-6.92,2.21-10.42,2.79a5.09,5.09,0,0,1-5.36-2.79c-2.35-4.71-5.49-14.42-2-29.56a5.25,5.25,0,0,1,4.36-4c4.92-.65,11.28,1,16.2.57a14.22,14.22,0,0,0,2.57-.22c13.71-3.21,29.2-3.92,44.12-.07a29.14,29.14,0,0,0,4.36.36c5.28.43,10.57-1.36,15.85-.57A5.75,5.75,0,0,1,426.27,305.88Z" transform="translate(-7.28 -140.03)" style="fill:none;stroke:#1d3b4e;stroke-miterlimit:10;stroke-width:1.8907500505447388px"></path><path d="M351.6,303.45c-2.86,6.35-6.78,16.35-.79,32.77" transform="translate(-7.28 -140.03)" style="fill:none;stroke:#1d3b4e;stroke-miterlimit:10;stroke-width:1.8907500505447388px"></path><path d="M357.88,303.45c-2.85,6.35-6.78,16.35-.78,32.77" transform="translate(-7.28 -140.03)" style="fill:none;stroke:#1d3b4e;stroke-miterlimit:10;stroke-width:1.8907500505447388px"></path><path d="M408.36,303.45c2.85,6.35,6.78,16.35.78,32.77" transform="translate(-7.28 -140.03)" style="fill:none;stroke:#1d3b4e;stroke-miterlimit:10;stroke-width:1.8907500505447388px"></path><path d="M402.07,303.45c2.86,6.35,6.79,16.35.79,32.77" transform="translate(-7.28 -140.03)" style="fill:none;stroke:#1d3b4e;stroke-miterlimit:10;stroke-width:1.8907500505447388px"></path><path d="M415.42,337.79c12.21,36.84-.92,69-.92,69-42.77,10.5-66.9,0-66.9,0S335.18,390.9,342,349.57c.57-3.43,1.29-7.07,2.14-10.85" transform="translate(-7.28 -140.03)" style="fill:none;stroke:#1d3b4e;stroke-miterlimit:10;stroke-width:1.8907500505447388px"></path><path d="M350.74,358c-1.64,5.64-1.14,13.64-1.14,13.64h61.33s-.5-12.14-1.72-13.64" transform="translate(-7.28 -140.03)" style="fill:none;stroke:#1d3b4e;stroke-miterlimit:10;stroke-width:1.8907500505447388px"></path><path d="M353.88,371.63l-2.28,7.57h5.78l-.78-7.57" transform="translate(-7.28 -140.03)" style="fill:none;stroke:#1d3b4e;stroke-miterlimit:10;stroke-width:1.8907500505447388px"></path><path d="M312.12,315.87l-26.06-55,56.47-6.85,72.25,2.35H461.9l-13.85,58.12" transform="translate(-7.28 -140.03)" style="fill:none;stroke:#1d3b4e;stroke-miterlimit:10;stroke-width:1.8907500505447388px"></path><path d="M413.85,263.76,403.22,304" transform="translate(-7.28 -140.03)" style="fill:none;stroke:#1d3b4e;stroke-miterlimit:10;stroke-width:1.8907500505447388px"></path><path d="M341.75,261.83l8.42,41.62" transform="translate(-7.28 -140.03)" style="fill:none;stroke:#1d3b4e;stroke-miterlimit:10;stroke-width:1.8907500505447388px"></path><path d="M333.25,344.29A131.69,131.69,0,0,0,340,368.63" transform="translate(-7.28 -140.03)" style="fill:none;stroke:#1d3b4e;stroke-miterlimit:10;stroke-width:1.8907500505447388px"></path><path d="M333.25,318.66c-8.92,4.35-17.49,16.7-18.49,23.13" transform="translate(-7.28 -140.03)" style="fill:none;stroke:#1d3b4e;stroke-miterlimit:10;stroke-width:1.8907500505447388px"></path><path d="M427.35,344.29a131.28,131.28,0,0,1-6.72,24.34" transform="translate(-7.28 -140.03)" style="fill:none;stroke:#1d3b4e;stroke-miterlimit:10;stroke-width:1.8907500505447388px"></path><path d="M347,419.82c1.5-5.29,2.78-9.57,2.57-12.28" transform="translate(-7.28 -140.03)" style="fill:none;stroke:#1d3b4e;stroke-miterlimit:10;stroke-width:1.8907500505447388px"></path><path d="M412.28,406.54a66.14,66.14,0,0,0,4.21,12.63" transform="translate(-7.28 -140.03)" style="fill:none;stroke:#1d3b4e;stroke-miterlimit:10;stroke-width:1.8907500505447388px"></path><path d="M373.36,265.35c4.23-.46,7.42-3.05,7.12-5.8s-4-4.59-8.2-4.13-7.43,3.05-7.13,5.8S369.12,265.81,373.36,265.35Z" transform="translate(-7.28 -140.03)" style="fill:#293b4a"></path><path d="M386.07,272.5c4.23-.46,7.42-3.06,7.12-5.8s-4-4.6-8.2-4.14-7.43,3.06-7.13,5.8S381.83,273,386.07,272.5Z" transform="translate(-7.28 -140.03)" style="fill:#293b4a"></path><path d="M399.05,269.67c2.67-3.31,3.09-7.41.94-9.14s-6.06-.44-8.73,2.88-3.08,7.41-.93,9.14S396.38,273,399.05,269.67Z" transform="translate(-7.28 -140.03)" style="fill:#293b4a"></path><path d="M398.92,262.74a4.86,4.86,0,1,0-7,1A5,5,0,0,0,398.92,262.74Z" transform="translate(-7.28 -140.03)" style="fill:#293b4a"></path><path d="M394.69,263.09a6.79,6.79,0,1,0-9.76,1.32A7,7,0,0,0,394.69,263.09Z" transform="translate(-7.28 -140.03)" style="fill:#293b4a"></path><path d="M383.72,261.57a7.36,7.36,0,1,0-10.56,1.4A7.52,7.52,0,0,0,383.72,261.57Z" transform="translate(-7.28 -140.03)" style="fill:#293b4a"></path><path d="M382.52,265.45c3.14-2.88,4.17-6.86,2.31-8.89s-5.93-1.35-9.06,1.53S371.6,265,373.46,267,379.38,268.33,382.52,265.45Z" transform="translate(-7.28 -140.03)" style="fill:#293b4a"></path><path d="M379.2,261.37c1.54-2.3-.09-6.08-3.62-8.44s-7.66-2.43-9.19-.14.09,6.08,3.63,8.44S377.67,263.66,379.2,261.37Z" transform="translate(-7.28 -140.03)" style="fill:#293b4a"></path><path d="M400.3,270.47c1.05-1.57-.06-4.16-2.49-5.79s-5.24-1.66-6.29-.09.06,4.17,2.48,5.79S399.25,272,400.3,270.47Z" transform="translate(-7.28 -140.03)" style="fill:#293b4a"></path><path d="M398.52,276.58c1.05-1.58-.06-4.17-2.48-5.79s-5.25-1.66-6.3-.09.06,4.16,2.48,5.79S397.47,278.15,398.52,276.58Z" transform="translate(-7.28 -140.03)" style="fill:#293b4a"></path><path d="M401.26,274.35c1.05-1.57-.06-4.16-2.49-5.78s-5.24-1.67-6.29-.09.06,4.16,2.48,5.78S400.21,275.92,401.26,274.35Z" transform="translate(-7.28 -140.03)" style="fill:#293b4a"></path><path d="M403.09,269.8c1.06-1.57-.06-4.16-2.48-5.78s-5.25-1.66-6.3-.09.06,4.16,2.49,5.78S402,271.38,403.09,269.8Z" transform="translate(-7.28 -140.03)" style="fill:#293b4a"></path><path d="M389,258.91c1.61-3.94.85-8-1.7-9s-5.93,1.3-7.55,5.24-.85,8,1.7,9S387.39,262.85,389,258.91Z" transform="translate(-7.28 -140.03)" style="fill:#293b4a"></path><path d="M370,279.25a1.43,1.43,0,1,0-1.43-1.43A1.42,1.42,0,0,0,370,279.25Z" transform="translate(-7.28 -140.03)" style="fill:#293b4a"></path><path d="M372.87,300.59a14.05,14.05,0,0,0,1.07-5.49h-8.49V284.67h-.79a2.5,2.5,0,0,1-2.28-3.57,16.16,16.16,0,0,1,1.43-2.57,12.68,12.68,0,0,0,2.28-6.35,42.06,42.06,0,0,1,2-6.78c3.21-7.93,16.63-10.35,23.13-3.21,12.71,14.13-4.92,29.05-4.92,29.05a27.07,27.07,0,0,0,1.42,9.28" transform="translate(-7.28 -140.03)" style="fill:none;stroke:#1d3b4e;stroke-miterlimit:10;stroke-width:1.8907500505447388px"></path><path d="M387.79,289.89s-1.57-5.07-4.14-6.14c0,0,6.43-5.86,0-15.64s11.5,3,11.5,3S398.79,281.18,387.79,289.89Z" transform="translate(-7.28 -140.03)" style="fill:#293b4a"></path><path d="M380.51,278.32c4.57-4.43,6.5-1.79,5.64,1.14s6-.85,6-.85l-1-8.79-6.5-3.78-6.92,9.07C377.66,277.61,378.59,278.82,380.51,278.32Z" transform="translate(-7.28 -140.03)" style="fill:#293b4a"></path><path d="M353.88,318.66l6.79-1.79" transform="translate(-7.28 -140.03)" style="fill:none;stroke:#1d3b4e;stroke-miterlimit:10;stroke-width:1.8907500505447388px"></path><path d="M347.6,319.44l-5.14-.78" transform="translate(-7.28 -140.03)" style="fill:none;stroke:#1d3b4e;stroke-miterlimit:10;stroke-width:1.8907500505447388px"></path><path d="M342.46,324l5.14-1" transform="translate(-7.28 -140.03)" style="fill:none;stroke:#1d3b4e;stroke-miterlimit:10;stroke-width:1.8907500505447388px"></path><path d="M353.88,323l4,1" transform="translate(-7.28 -140.03)" style="fill:none;stroke:#1d3b4e;stroke-miterlimit:10;stroke-width:1.8907500505447388px"></path><path d="M406,318.66l-11.85-1.22" transform="translate(-7.28 -140.03)" style="fill:none;stroke:#1d3b4e;stroke-miterlimit:10;stroke-width:1.8907500505447388px"></path><path d="M405.93,323l-3.86.5" transform="translate(-7.28 -140.03)" style="fill:none;stroke:#1d3b4e;stroke-miterlimit:10;stroke-width:1.8907500505447388px"></path><path d="M412.92,319.44l3.57-1.43" transform="translate(-7.28 -140.03)" style="fill:none;stroke:#1d3b4e;stroke-miterlimit:10;stroke-width:1.8907500505447388px"></path><path d="M412.42,323.08l4.86,2.22" transform="translate(-7.28 -140.03)" style="fill:none;stroke:#1d3b4e;stroke-miterlimit:10;stroke-width:1.8907500505447388px"></path><path d="M374,285.53a3.06,3.06,0,0,1-1.57,3.93,2.93,2.93,0,0,1-3.93-1.5" transform="translate(-7.28 -140.03)" style="fill:none;stroke:#1d3b4e;stroke-miterlimit:10;stroke-width:1.8907500505447388px"></path><path d="M349.6,265.47h13.49" transform="translate(-7.28 -140.03)" style="fill:none;stroke:#1d3b4e;stroke-miterlimit:10;stroke-width:1.8907500505447388px"></path><path d="M350.53,271.39h11.64" transform="translate(-7.28 -140.03)" style="fill:none;stroke:#1d3b4e;stroke-miterlimit:10;stroke-width:1.8907500505447388px"></path><path d="M350.53,277.18h8.07" transform="translate(-7.28 -140.03)" style="fill:none;stroke:#1d3b4e;stroke-miterlimit:10;stroke-width:1.8907500505447388px"></path><path d="M438.05,269.54l10,1.93" transform="translate(-7.28 -140.03)" style="fill:none;stroke:#1d3b4e;stroke-miterlimit:10;stroke-width:1.8907500505447388px"></path><path d="M438.05,275.54l8.64,1.64" transform="translate(-7.28 -140.03)" style="fill:none;stroke:#1d3b4e;stroke-miterlimit:10;stroke-width:1.8907500505447388px"></path><path d="M436.34,280.6l5.93,1.15" transform="translate(-7.28 -140.03)" style="fill:none;stroke:#1d3b4e;stroke-miterlimit:10;stroke-width:1.8907500505447388px"></path><path d="M299.13,268.9l33.34-5.14,4.14,18.91-26.92,9.21Z" transform="translate(-7.28 -140.03)" style="fill:none;stroke:#1d3b4e;stroke-miterlimit:10;stroke-width:1.8907500505447388px"></path><path d="M311.26,296.52,322.33,293" transform="translate(-7.28 -140.03)" style="fill:none;stroke:#1d3b4e;stroke-miterlimit:10;stroke-width:1.8907500505447388px"></path><path d="M313.48,300.52,324,297.74" transform="translate(-7.28 -140.03)" style="fill:none;stroke:#1d3b4e;stroke-miterlimit:10;stroke-width:1.8907500505447388px"></path><path d="M433.47,278.11c1.23-6.38-1.29-12.24-5.62-13.08s-8.85,3.67-10.08,10.06,1.28,12.24,5.62,13.08S432.24,284.5,433.47,278.11Z" transform="translate(-7.28 -140.03)" style="fill:none;stroke:#1d3b4e;stroke-miterlimit:10;stroke-width:1.8907500505447388px"></path><path d="M313.48,323.22c-3.14,8.29,2.57,14.57,2.57,14.57" transform="translate(-7.28 -140.03)" style="fill:none;stroke:#1d3b4e;stroke-miterlimit:10;stroke-width:1.8907500505447388px"></path><path d="M307.48,306.16c-1.64,7.64.5,11.28.5,11.28l-5.57,7.36A96.35,96.35,0,0,0,290,346.36c-5.36,13.13-6.71,31.69,16,22.13a50.2,50.2,0,0,0,6.93-3.64c4.92-3,15.34-10,21.2-16.07" transform="translate(-7.28 -140.03)" style="fill:none;stroke:#1d3b4e;stroke-miterlimit:10;stroke-width:1.8907500505447388px"></path><path d="M309.48,323a6.4,6.4,0,0,0,4.78-.07,6.52,6.52,0,0,0,3.5-3.78,22.36,22.36,0,0,1,2.36-4.64" transform="translate(-7.28 -140.03)" style="fill:none;stroke:#1d3b4e;stroke-miterlimit:10;stroke-width:1.8907500505447388px"></path><path d="M429.84,318.73c8.93,4.35,15.78,15.77,16.78,22.2" transform="translate(-7.28 -140.03)" style="fill:none;stroke:#1d3b4e;stroke-miterlimit:10;stroke-width:1.8907500505447388px"></path><path d="M448,322.44c3.14,8.28-2.57,14.56-2.57,14.56" transform="translate(-7.28 -140.03)" style="fill:none;stroke:#1d3b4e;stroke-miterlimit:10;stroke-width:1.8907500505447388px"></path><path d="M452,303.45c3.92,6.07,1.57,13.14,1.57,13.14l5.56,7.35a96.61,96.61,0,0,1,12.43,21.56c5.35,13.13,6.71,31.7-16,22.13a48.59,48.59,0,0,1-6.93-3.64c-4.93-3-15.35-10-21.2-16.06" transform="translate(-7.28 -140.03)" style="fill:none;stroke:#1d3b4e;stroke-miterlimit:10;stroke-width:1.8907500505447388px"></path><path d="M452,322.15a6.38,6.38,0,0,1-4.79-.07,6.56,6.56,0,0,1-3.5-3.78,23.42,23.42,0,0,0-2.35-4.64" transform="translate(-7.28 -140.03)" style="fill:none;stroke:#1d3b4e;stroke-miterlimit:10;stroke-width:1.8907500505447388px"></path><path d="M313.48,333.43c-17.14.36-19.49,4.43-19.49,4.43" transform="translate(-7.28 -140.03)" style="fill:none;stroke:#1d3b4e;stroke-miterlimit:10;stroke-width:1.8907500505447388px"></path><path d="M447.69,333.43c13.64-1.21,20.21,4.43,20.21,4.43" transform="translate(-7.28 -140.03)" style="fill:none;stroke:#1d3b4e;stroke-miterlimit:10;stroke-width:1.8907500505447388px"></path><path d="M104.94,419.67v-20L76.67,391.4V377.63H48.19v30.48h-12v11.56" transform="translate(-7.28 -140.03)" style="fill:none;stroke:#1d3b4e;stroke-linejoin:round;stroke-width:1.8907500505447388px"></path><path d="M71.6,383.12h-19v4.93h19Z" transform="translate(-7.28 -140.03)" style="fill:none;stroke:#1d3b4e;stroke-linejoin:round;stroke-width:1.8907500505447388px"></path><path d="M71.6,392.83h-19v4.93h19Z" transform="translate(-7.28 -140.03)" style="fill:none;stroke:#1d3b4e;stroke-linejoin:round;stroke-width:1.8907500505447388px"></path><path d="M71.6,402.54h-19v4.93h19Z" transform="translate(-7.28 -140.03)" style="fill:none;stroke:#1d3b4e;stroke-linejoin:round;stroke-width:1.8907500505447388px"></path><path d="M108.73,402H151v9" transform="translate(-7.28 -140.03)" style="fill:none;stroke:#1d3b4e;stroke-linejoin:round;stroke-width:1.8907500505447388px"></path><path d="M92.52,391.83V359.56h8.07v36" transform="translate(-7.28 -140.03)" style="fill:none;stroke:#1d3b4e;stroke-linejoin:round;stroke-width:1.8907500505447388px"></path><path d="M142.92,393.12V359.56H151v33.56" transform="translate(-7.28 -140.03)" style="fill:none;stroke:#1d3b4e;stroke-linejoin:round;stroke-width:1.8907500505447388px"></path><path d="M92.52,326.58h58.33" transform="translate(-7.28 -140.03)" style="fill:none;stroke:#1d3b4e;stroke-linejoin:round;stroke-width:1.8907500505447388px"></path><path d="M121.72,356.42A12.42,12.42,0,1,0,109.3,344,12.42,12.42,0,0,0,121.72,356.42Z" transform="translate(-7.28 -140.03)" style="fill:none;stroke:#1d3b4e;stroke-linejoin:round;stroke-width:1.8907500505447388px"></path><path d="M92.52,321.8V309.87h8.07v7.07h42.33v-7.07H151V321.8" transform="translate(-7.28 -140.03)" style="fill:none;stroke:#1d3b4e;stroke-linejoin:round;stroke-width:1.8907500505447388px"></path><path d="M103.37,326.58H97.8v13.85h5.57Z" transform="translate(-7.28 -140.03)" style="fill:none;stroke:#1d3b4e;stroke-linejoin:round;stroke-width:1.8907500505447388px"></path><path d="M103.37,340.43H97.8v13.85h5.57Z" transform="translate(-7.28 -140.03)" style="fill:none;stroke:#1d3b4e;stroke-linejoin:round;stroke-width:1.8907500505447388px"></path><path d="M145.64,326.58h-5.57v13.85h5.57Z" transform="translate(-7.28 -140.03)" style="fill:none;stroke:#1d3b4e;stroke-linejoin:round;stroke-width:1.8907500505447388px"></path><path d="M145.64,340.43h-5.57v13.85h5.57Z" transform="translate(-7.28 -140.03)" style="fill:none;stroke:#1d3b4e;stroke-linejoin:round;stroke-width:1.8907500505447388px"></path><path d="M117.79,350.21l3.93-6.21v-7.21" transform="translate(-7.28 -140.03)" style="fill:none;stroke:#1d3b4e;stroke-linejoin:round;stroke-width:1.8907500505447388px"></path><path d="M128.64,411h71.25" transform="translate(-7.28 -140.03)" style="fill:none;stroke:#1d3b4e;stroke-linejoin:round;stroke-width:1.8907500505447388px"></path><path d="M158.84,406.47v-63H222v43.19h21.92" transform="translate(-7.28 -140.03)" style="fill:none;stroke:#1d3b4e;stroke-linejoin:round;stroke-width:1.8907500505447388px"></path><path d="M215.6,357.64H165.2v9.49h50.4Z" transform="translate(-7.28 -140.03)" style="fill:none;stroke:#1d3b4e;stroke-linejoin:round;stroke-width:1.8907500505447388px"></path><path d="M215.6,376.13H165.2v9.49h50.4Z" transform="translate(-7.28 -140.03)" style="fill:none;stroke:#1d3b4e;stroke-linejoin:round;stroke-width:1.8907500505447388px"></path><path d="M215.6,394.69H165.2v9.49h50.4Z" transform="translate(-7.28 -140.03)" style="fill:none;stroke:#1d3b4e;stroke-linejoin:round;stroke-width:1.8907500505447388px"></path><path d="M105.94,316.87v-7h7.64v7.07" transform="translate(-7.28 -140.03)" style="fill:none;stroke:#1d3b4e;stroke-linejoin:round;stroke-width:1.8907500505447388px"></path><path d="M118.43,316.87v-7h7.64v7.07" transform="translate(-7.28 -140.03)" style="fill:none;stroke:#1d3b4e;stroke-linejoin:round;stroke-width:1.8907500505447388px"></path><path d="M130.93,316.87v-7h7.64v7.07" transform="translate(-7.28 -140.03)" style="fill:none;stroke:#1d3b4e;stroke-linejoin:round;stroke-width:1.8907500505447388px"></path><path d="M134.43,382.77H109V393h25.42Z" transform="translate(-7.28 -140.03)" style="fill:none;stroke:#1d3b4e;stroke-linejoin:round;stroke-width:1.8907500505447388px"></path><path d="M134.43,363.49H109V373.7h25.42Z" transform="translate(-7.28 -140.03)" style="fill:none;stroke:#1d3b4e;stroke-linejoin:round;stroke-width:1.8907500505447388px"></path><path d="M88.24,366.35H62.11v7.06" transform="translate(-7.28 -140.03)" style="fill:none;stroke:#1d3b4e;stroke-linejoin:round;stroke-width:1.8907500505447388px"></path><path d="M190.4,341.07v-10h23.77v10" transform="translate(-7.28 -140.03)" style="fill:none;stroke:#1d3b4e;stroke-linejoin:round;stroke-width:1.8907500505447388px"></path><path d="M195,341.07v-5.85h6.78v5.85" transform="translate(-7.28 -140.03)" style="fill:none;stroke:#1d3b4e;stroke-linejoin:round;stroke-width:1.8907500505447388px"></path><path d="M195,321.23v9.85" transform="translate(-7.28 -140.03)" style="fill:none;stroke:#1d3b4e;stroke-linejoin:round;stroke-width:1.8907500505447388px"></path><path d="M165.2,349.64h50.33" transform="translate(-7.28 -140.03)" style="fill:none;stroke:#1d3b4e;stroke-linejoin:round;stroke-width:1.8907500505447388px"></path><path d="M306.69,405.32H330v12.43" transform="translate(-7.28 -140.03)" style="fill:none;stroke:#1d3b4e;stroke-linejoin:round;stroke-width:1.8907500505447388px"></path><path d="M245.44,405.32H228.66v12.43" transform="translate(-7.28 -140.03)" style="fill:none;stroke:#1d3b4e;stroke-linejoin:round;stroke-width:1.8907500505447388px"></path><path d="M306.69,393.62h13.57V406" transform="translate(-7.28 -140.03)" style="fill:none;stroke:#1d3b4e;stroke-linejoin:round;stroke-width:1.8907500505447388px"></path></svg>