<svg xmlns="http://www.w3.org/2000/svg" id="Layer_1" data-name="Layer 1" viewBox="0 0 478.18 269.83"><path d="M164.52,268.68c3.35,4.57,7.49,8.79,11.85,9.79,10.56,2.35,9.78-21.07,9.78-21.07l5.42-.78-.35-7.92c-.5-8.64,2.5-10.5,2.5-10.5" transform="translate(-6.38 -139.72)" style="fill:none;stroke:#293b4a;stroke-linejoin:round;stroke-width:1.8907500505447388px"></path><path d="M181.94,266.33a15.56,15.56,0,0,1-9.28-3.86" transform="translate(-6.38 -139.72)" style="fill:none;stroke:#293b4a;stroke-linejoin:round;stroke-width:1.8907500505447388px"></path><path d="M179.08,248.84a1.86,1.86,0,1,0-1.86-1.86A1.86,1.86,0,0,0,179.08,248.84Z" transform="translate(-6.38 -139.72)" style="fill:#293b4a"></path><path d="M124.32,400.4c13.07,5.21,30,6.57,46.19,8.21" transform="translate(-6.38 -139.72)" style="fill:none;stroke:#293b4a;stroke-miterlimit:10;stroke-width:1.8907500505447388px"></path><path d="M81.13,382.63c7.78,11.49,22.7,20.13,47.62,25.2" transform="translate(-6.38 -139.72)" style="fill:none;stroke:#293b4a;stroke-miterlimit:10;stroke-width:1.8907500505447388px"></path><path d="M74.28,353.85a50.88,50.88,0,0,0,2.57,20.35" transform="translate(-6.38 -139.72)" style="fill:none;stroke:#293b4a;stroke-miterlimit:10;stroke-width:1.8907500505447388px"></path><path d="M130.53,273.82c-14.92,5.15-36.41,17.07-48.11,43.84" transform="translate(-6.38 -139.72)" style="fill:none;stroke:#293b4a;stroke-miterlimit:10;stroke-width:1.8907500505447388px"></path><path d="M158.81,239.34c2.71,25.42-12,30.63-12,30.63a2.92,2.92,0,0,0-1.85,4.85c39,38.56,47.61,12.85,39.47-3.21" transform="translate(-6.38 -139.72)" style="fill:none;stroke:#293b4a;stroke-miterlimit:10;stroke-width:1.8907500505447388px"></path><path d="M216,388.62c6.21,2.29,13.71,5.21,20.35,7.86,0,0,30.27-11,48.61,12.13" transform="translate(-6.38 -139.72)" style="fill:none;stroke:#293b4a;stroke-miterlimit:10;stroke-width:1.8907500505447388px"></path><path d="M126.89,316c-4.14,36.83-12,44.47-12,44.47s32.41,4.71,86,23.06" transform="translate(-6.38 -139.72)" style="fill:none;stroke:#293b4a;stroke-miterlimit:10;stroke-width:1.8907500505447388px"></path><path d="M205.28,310.52c15.28,28.2-15.78,69.75-15.78,69.75" transform="translate(-6.38 -139.72)" style="fill:none;stroke:#293b4a;stroke-miterlimit:10;stroke-width:1.8907500505447388px"></path><path d="M374.69,230.85l88.67-17.07V336.44l-131-6.93V239l32.69-6.29" transform="translate(-6.38 -139.72)" style="fill:none;stroke:#293b4a;stroke-miterlimit:10;stroke-width:1.8907500505447388px"></path><path d="M453.37,224.78v58.11" transform="translate(-6.38 -139.72)" style="fill:none;stroke:#293b4a;stroke-miterlimit:10;stroke-width:1.8907500505447388px"></path><path d="M396.61,345l-3.5-12.56" transform="translate(-6.38 -139.72)" style="fill:none;stroke:#293b4a;stroke-miterlimit:10;stroke-width:1.8907500505447388px"></path><path d="M414.81,333.51l23.35,19.77" transform="translate(-6.38 -139.72)" style="fill:none;stroke:#293b4a;stroke-miterlimit:10;stroke-width:1.8907500505447388px"></path><path d="M455.08,353.28H383.19V363" transform="translate(-6.38 -139.72)" style="fill:none;stroke:#293b4a;stroke-miterlimit:10;stroke-width:1.8907500505447388px"></path><path d="M304.3,371.2v-107H185.79" transform="translate(-6.38 -139.72)" style="fill:none;stroke:#293b4a;stroke-miterlimit:10;stroke-width:1.8907500505447388px"></path><path d="M153.81,264.19H99.19" transform="translate(-6.38 -139.72)" style="fill:none;stroke:#293b4a;stroke-linejoin:round;stroke-width:1.8907500505447388px"></path><path d="M484.56,408.61H66.85" transform="translate(-6.38 -139.72)" style="fill:none;stroke:#293b4a;stroke-linejoin:round;stroke-width:1.8907500505447388px"></path><path d="M59.36,408.61h-53" transform="translate(-6.38 -139.72)" style="fill:none;stroke:#293b4a;stroke-linejoin:round;stroke-width:1.8907500505447388px"></path><path d="M232.77,381.7a82.18,82.18,0,0,0,14.42,11.63" transform="translate(-6.38 -139.72)" style="fill:none;stroke:#293b4a;stroke-miterlimit:10;stroke-width:1.8907500505447388px"></path><path d="M390.18,380.27v28.34" transform="translate(-6.38 -139.72)" style="fill:none;stroke:#293b4a;stroke-miterlimit:10;stroke-width:1.8907500505447388px"></path><path d="M359,382.41v26.2" transform="translate(-6.38 -139.72)" style="fill:none;stroke:#293b4a;stroke-miterlimit:10;stroke-width:1.8907500505447388px"></path><path d="M398.25,366.06H352.49v14.21h45.76Z" transform="translate(-6.38 -139.72)" style="fill:none;stroke:#293b4a;stroke-miterlimit:10;stroke-width:1.8907500505447388px"></path><path d="M306.37,408.61V397l46.12-30.92" transform="translate(-6.38 -139.72)" style="fill:none;stroke:#293b4a;stroke-miterlimit:10;stroke-width:1.8907500505447388px"></path><path d="M352.49,358.14c5.28,2.21,4,7.92,4,7.92" transform="translate(-6.38 -139.72)" style="fill:none;stroke:#293b4a;stroke-miterlimit:10;stroke-width:1.8907500505447388px"></path><path d="M373.19,366.06s1.15-6.35-5.56-11.56a5.88,5.88,0,0,0-3.72-1.29H350.49a5.62,5.62,0,0,0-2.85.72c-7.29,3.85-40.91,22.84-39.06,41.47" transform="translate(-6.38 -139.72)" style="fill:none;stroke:#293b4a;stroke-miterlimit:10;stroke-width:1.8907500505447388px"></path><path d="M201.93,358.71c7.56,22.27,29.91,33.05,29.91,33.05" transform="translate(-6.38 -139.72)" style="fill:none;stroke:#293b4a;stroke-miterlimit:10;stroke-width:1.8907500505447388px"></path><path d="M277,390.26c-16.64-27.27-40.55-44.9-40.55-44.9-4.29-30.41-25.27-59-42.34-68.54" transform="translate(-6.38 -139.72)" style="fill:none;stroke:#293b4a;stroke-miterlimit:10;stroke-width:1.8907500505447388px"></path><path d="M253.26,360.42c-27.63,18.92-26.35,41.48-14.35,26.92" transform="translate(-6.38 -139.72)" style="fill:none;stroke:#293b4a;stroke-miterlimit:10;stroke-width:1.8907500505447388px"></path><path d="M147.24,367.28c-26.56,6.56-32.27,54.18-6.07,37.69" transform="translate(-6.38 -139.72)" style="fill:none;stroke:#293b4a;stroke-miterlimit:10;stroke-width:1.8907500505447388px"></path><path d="M216.84,391.11c.4-3.21-5.14-6.54-12.38-7.45s-13.43,1-13.83,4.17,5.14,6.55,12.38,7.45S216.44,394.32,216.84,391.11Z" transform="translate(-6.38 -139.72)" style="fill:none;stroke:#293b4a;stroke-miterlimit:10;stroke-width:1.8907500505447388px"></path><path d="M195.79,393.33c-8.43,8.57-7.57,14.5-7.57,14.5" transform="translate(-6.38 -139.72)" style="fill:none;stroke:#293b4a;stroke-miterlimit:10;stroke-width:1.8907500505447388px"></path><path d="M205.64,395.48C199.21,402,201,408.54,201,408.54" transform="translate(-6.38 -139.72)" style="fill:none;stroke:#293b4a;stroke-miterlimit:10;stroke-width:1.8907500505447388px"></path><path d="M273.75,391.76c17.56-6.21,31.91,12.71,31.91,12.71" transform="translate(-6.38 -139.72)" style="fill:none;stroke:#293b4a;stroke-miterlimit:10;stroke-width:1.8907500505447388px"></path><path d="M141.1,268.76c.43,3.92,5.64,8.06,5.64,8.06" transform="translate(-6.38 -139.72)" style="fill:none;stroke:#293b4a;stroke-miterlimit:10;stroke-width:1.8907500505447388px"></path><path d="M185,269.47c5.71,1.28,9,7.35,9,7.35a39.32,39.32,0,0,1-3.43,35.06c-2.64-6.21-11.49-16.92-11.49-16.92-4.28.35-14.56,18.77-14.56,18.77s-31.84-28.13-34-39.83l6.14-5.86A11.49,11.49,0,0,1,143.6,265c3.21-.21,7.42-.35,9.35.36" transform="translate(-6.38 -139.72)" style="fill:none;stroke:#293b4a;stroke-miterlimit:10;stroke-width:1.8907500505447388px"></path><path d="M187.15,304.88c-6.36,6.07-16.42,1.71-17.78,0" transform="translate(-6.38 -139.72)" style="fill:none;stroke:#293b4a;stroke-miterlimit:10;stroke-width:1.8907500505447388px"></path><path d="M48.15,326.37c-48.41-6.93-28.56-39.2-28.56-39.2s35.63,12.5,31.49,34.49" transform="translate(-6.38 -139.72)" style="fill:none;stroke:#19ad4a;stroke-linecap:round;stroke-linejoin:round;stroke-width:1.8907500505447388px"></path><path d="M45,362.35c5.07-24.63,44.05-10.78,46.76-26.27" transform="translate(-6.38 -139.72)" style="fill:none;stroke:#293b4a;stroke-linecap:round;stroke-linejoin:round;stroke-width:1.8907500505447388px"></path><path d="M68.71,340.29s6.57-19.13,31.34-26.63c0,0,22.35,48.33-38,33.7" transform="translate(-6.38 -139.72)" style="fill:none;stroke:#19ad4a;stroke-linecap:round;stroke-linejoin:round;stroke-width:1.8907500505447388px"></path><path d="M27.09,306.31c5.85,12.85,29.34,8.92,20.06,33.12" transform="translate(-6.38 -139.72)" style="fill:none;stroke:#293b4a;stroke-linecap:round;stroke-linejoin:round;stroke-width:1.8907500505447388px"></path><path d="M55,382.63H51.5" transform="translate(-6.38 -139.72)" style="fill:none;stroke:#293b4a;stroke-linecap:round;stroke-linejoin:round;stroke-width:1.8907500505447388px"></path><path d="M36.94,382.63H31.09v-8.36H86.27v8.36H63.78" transform="translate(-6.38 -139.72)" style="fill:none;stroke:#293b4a;stroke-linecap:round;stroke-linejoin:round;stroke-width:1.8907500505447388px"></path><path d="M45.15,382.63h-4" transform="translate(-6.38 -139.72)" style="fill:none;stroke:#293b4a;stroke-linecap:round;stroke-linejoin:round;stroke-width:1.8907500505447388px"></path><path d="M39.22,396.26l-1.07-5.42v-.08" transform="translate(-6.38 -139.72)" style="fill:none;stroke:#293b4a;stroke-linecap:round;stroke-linejoin:round;stroke-width:1.8907500505447388px"></path><path d="M40.87,404.83l.71,3.78h29" transform="translate(-6.38 -139.72)" style="fill:none;stroke:#293b4a;stroke-linecap:round;stroke-linejoin:round;stroke-width:1.8907500505447388px"></path><path d="M78.56,394l-2.71,13.78" transform="translate(-6.38 -139.72)" style="fill:none;stroke:#293b4a;stroke-linecap:round;stroke-linejoin:round;stroke-width:1.8907500505447388px"></path><path d="M8.53,408.61H34.66" transform="translate(-6.38 -139.72)" style="fill:none;stroke:#293b4a;stroke-linecap:round;stroke-linejoin:round;stroke-width:1.8907500505447388px"></path><path d="M49.29,374.27s-13.35-10.85,7-34.84,15-41.9,9.06-52.18" transform="translate(-6.38 -139.72)" style="fill:none;stroke:#293b4a;stroke-linecap:round;stroke-linejoin:round;stroke-width:1.8907500505447388px"></path><path d="M90.48,262.83c1.5,11-10.35,21.77-26.63,24S33.23,282,31.66,271" transform="translate(-6.38 -139.72)" style="fill:none;stroke:#19ad4a;stroke-linecap:round;stroke-linejoin:round;stroke-width:1.8907500505447388px"></path><path d="M90.48,262.83a30.84,30.84,0,0,0-20.63,18.71,22.44,22.44,0,0,0-4.71-19.64s-10.5,7.43-5.5,21.28c0,0-9.56-12.07-27.91-12.21" transform="translate(-6.38 -139.72)" style="fill:none;stroke:#19ad4a;stroke-linecap:round;stroke-linejoin:round;stroke-width:1.8907500505447388px"></path><path d="M78.49,265.69a18.49,18.49,0,0,0-16.71-10.43,18.68,18.68,0,0,0-18.27,14.85" transform="translate(-6.38 -139.72)" style="fill:none;stroke:#293b4a;stroke-linecap:round;stroke-linejoin:round;stroke-width:1.8907500505447388px"></path><path d="M192,240.84c5.21-3.78-14.7-6.85-14.7-6.85a14.63,14.63,0,0,1-5.5-5.21c1.21,3.57,1.57,11.42-4.57,15.49-6.14-12.85-7.07,5-7.07,5-15.78-20.14,3.43-37.63,7.85-32.92,4.43-4.85,24.06-4.64,30.49,12.57C204.21,244.41,192,240.84,192,240.84Z" transform="translate(-6.38 -139.72)" style="fill:#293b4a"></path><path d="M247.19,290.46h34.69s-5.21,23.2,8.57,25.56h-27a14.67,14.67,0,0,1-13.92-9.93A50.52,50.52,0,0,1,247.19,290.46Z" transform="translate(-6.38 -139.72)" style="fill:none;stroke:#293b4a;stroke-miterlimit:10;stroke-width:1.8907500505447388px"></path><path d="M254.26,307.45s6.63.07,8.42-2.64c0,0,3.78,5,.43,8.35" transform="translate(-6.38 -139.72)" style="fill:none;stroke:#293b4a;stroke-miterlimit:10;stroke-width:1.8907500505447388px"></path><path d="M345.28,299.74l51.33-.71" transform="translate(-6.38 -139.72)" style="fill:none;stroke:#293b4a;stroke-linejoin:round;stroke-width:1.8907500505447388px"></path><path d="M345.28,308l51.33.71" transform="translate(-6.38 -139.72)" style="fill:none;stroke:#293b4a;stroke-linejoin:round;stroke-width:1.8907500505447388px"></path><path d="M345.28,316.16l51.33,1.5" transform="translate(-6.38 -139.72)" style="fill:none;stroke:#293b4a;stroke-linejoin:round;stroke-width:1.8907500505447388px"></path><path d="M378.41,251.62l9.78-1.35v30.84l-41.55,1.42V256.12l19.63-2.71" transform="translate(-6.38 -139.72)" style="fill:none;stroke:#293b4a;stroke-linejoin:round;stroke-width:1.8907500505447388px"></path><path d="M229.13,150.17v59.47h129l16.56,55.19V150.17Z" transform="translate(-6.38 -139.72)" style="fill:none;stroke:#293b4a;stroke-linejoin:round;stroke-width:1.8907500505447388px"></path><path d="M337.43,161.24a8.16,8.16,0,0,1-1.5,4.21,9.81,9.81,0,0,0-1,1.72,1.66,1.66,0,0,0,1.5,2.35h.5v6.93h5.64c0,9.42-10.28,12.35-10.28,12.35s.64,8.49,15.49,8.49" transform="translate(-6.38 -139.72)" style="fill:none;stroke:#293b4a;stroke-miterlimit:10;stroke-width:1.8907500505447388px"></path><path d="M339.93,166.38a.93.93,0,1,0-.93-.93A.92.92,0,0,0,339.93,166.38Z" transform="translate(-6.38 -139.72)" style="fill:#293b4a"></path><path d="M355.2,192c-6.92-5.71-4.42-20.2-4.42-20.2" transform="translate(-6.38 -139.72)" style="fill:none;stroke:#293b4a;stroke-miterlimit:10;stroke-width:1.8907500505447388px"></path><path d="M343.42,161c4.73,0,8.57-2.46,8.57-5.49s-3.84-5.5-8.57-5.5-8.56,2.46-8.56,5.5S338.69,161,343.42,161Z" transform="translate(-6.38 -139.72)" style="fill:#293b4a"></path><path d="M351.61,165c1.29-1.29.7-4-1.31-6s-4.67-2.59-6-1.31-.69,3.95,1.32,5.95S350.33,166.3,351.61,165Z" transform="translate(-6.38 -139.72)" style="fill:#293b4a"></path><path d="M354.31,167.37c2-2,2.59-4.67,1.31-6s-3.95-.69-5.95,1.32-2.6,4.67-1.32,6S352.3,169.38,354.31,167.37Z" transform="translate(-6.38 -139.72)" style="fill:#293b4a"></path><path d="M356,170.54c2-2,2.59-4.68,1.31-6s-3.95-.69-5.95,1.31-2.6,4.68-1.32,6S354,172.54,356,170.54Z" transform="translate(-6.38 -139.72)" style="fill:#293b4a"></path><path d="M354,176.73c1.81,0,3.28-2.3,3.28-5.14s-1.47-5.14-3.28-5.14-3.28,2.3-3.28,5.14S352.18,176.73,354,176.73Z" transform="translate(-6.38 -139.72)" style="fill:#293b4a"></path><path d="M343.92,161.6c1.82,0,3.29-2.3,3.29-5.14s-1.47-5.14-3.29-5.14-3.28,2.3-3.28,5.14S342.11,161.6,343.92,161.6Z" transform="translate(-6.38 -139.72)" style="fill:#293b4a"></path><path d="M336.14,162.24c1.82,0,3.29-2.3,3.29-5.14S338,152,336.14,152s-3.28,2.3-3.28,5.14S334.33,162.24,336.14,162.24Z" transform="translate(-6.38 -139.72)" style="fill:#293b4a"></path><path d="M336.85,154.6c2.25-1.73,3.17-4.3,2.07-5.74s-3.83-1.2-6.08.53-3.18,4.3-2.07,5.74S334.6,156.33,336.85,154.6Z" transform="translate(-6.38 -139.72)" style="fill:#293b4a"></path><path d="M342.58,152.59c2.25-1.73,3.18-4.3,2.07-5.74s-3.82-1.2-6.07.53-3.18,4.3-2.07,5.74S340.33,154.32,342.58,152.59Z" transform="translate(-6.38 -139.72)" style="fill:#293b4a"></path><path d="M348.14,152.57c2.25-1.73,3.18-4.3,2.07-5.74s-3.82-1.2-6.07.53-3.18,4.3-2.07,5.74S345.89,154.3,348.14,152.57Z" transform="translate(-6.38 -139.72)" style="fill:#293b4a"></path><path d="M355.13,157.58c2.25-1.73,3.18-4.3,2.07-5.74s-3.83-1.2-6.08.53-3.17,4.3-2.07,5.74S352.88,159.31,355.13,157.58Z" transform="translate(-6.38 -139.72)" style="fill:#293b4a"></path><path d="M361.3,172.44c2.25-1.73,3.17-4.3,2.07-5.74s-3.83-1.2-6.08.53-3.18,4.3-2.07,5.74S359.05,174.17,361.3,172.44Z" transform="translate(-6.38 -139.72)" style="fill:#293b4a"></path><path d="M358.42,167.45c2.83,0,5.14-1.95,5.14-4.35s-2.31-4.36-5.14-4.36-5.14,1.95-5.14,4.36S355.58,167.45,358.42,167.45Z" transform="translate(-6.38 -139.72)" style="fill:#293b4a"></path><path d="M361.2,161.31a3.29,3.29,0,1,0-3.28-3.28A3.28,3.28,0,0,0,361.2,161.31Z" transform="translate(-6.38 -139.72)" style="fill:#293b4a"></path><path d="M356.45,161.5c2.71-2.09,3.83-5.21,2.48-7s-4.64-1.47-7.36.62-3.83,5.21-2.48,7S353.73,163.59,356.45,161.5Z" transform="translate(-6.38 -139.72)" style="fill:#293b4a"></path><path d="M358.42,158a5.14,5.14,0,1,0-5.14-5.14A5.14,5.14,0,0,0,358.42,158Z" transform="translate(-6.38 -139.72)" style="fill:#293b4a"></path><path d="M352.69,151.71c2.25-1.73,3.18-4.3,2.07-5.74s-3.82-1.2-6.07.53-3.18,4.3-2.08,5.74S350.44,153.44,352.69,151.71Z" transform="translate(-6.38 -139.72)" style="fill:#293b4a"></path><path d="M355.15,147.84a4.64,4.64,0,1,0-6.16,1.95A4.57,4.57,0,0,0,355.15,147.84Z" transform="translate(-6.38 -139.72)" style="fill:#293b4a"></path><path d="M356.76,151.71c2.25-1.73,3.18-4.3,2.07-5.74s-3.82-1.2-6.07.53-3.18,4.3-2.08,5.74S354.51,153.44,356.76,151.71Z" transform="translate(-6.38 -139.72)" style="fill:#293b4a"></path><path d="M346.49,150.23c2.25-1.74,3.18-4.3,2.07-5.74s-3.82-1.2-6.07.53-3.18,4.3-2.07,5.74S344.24,152,346.49,150.23Z" transform="translate(-6.38 -139.72)" style="fill:#293b4a"></path><path d="M341.53,149.89c2.25-1.73,2.85-4.73,1.33-6.7s-4.56-2.16-6.81-.43-2.85,4.73-1.34,6.7S339.28,151.62,341.53,149.89Z" transform="translate(-6.38 -139.72)" style="fill:#293b4a"></path><path d="M346.91,145.86c1.72-1.32,2.22-3.56,1.11-5s-3.39-1.53-5.11-.21-2.22,3.56-1.11,5S345.19,147.19,346.91,145.86Z" transform="translate(-6.38 -139.72)" style="fill:#293b4a"></path><path d="M239.83,179.37h66.54" transform="translate(-6.38 -139.72)" style="fill:none;stroke:#19ad4a;stroke-linecap:round;stroke-linejoin:round;stroke-width:1.8907500505447388px"></path><path d="M239.83,189.08h66.54" transform="translate(-6.38 -139.72)" style="fill:none;stroke:#19ad4a;stroke-linecap:round;stroke-linejoin:round;stroke-width:1.8907500505447388px"></path><path d="M239.83,198.79h66.54" transform="translate(-6.38 -139.72)" style="fill:none;stroke:#19ad4a;stroke-linecap:round;stroke-linejoin:round;stroke-width:1.8907500505447388px"></path><path d="M262.54,160.6H239.83v9.28h22.71Z" transform="translate(-6.38 -139.72)" style="fill:none;stroke:#19ad4a;stroke-linecap:round;stroke-linejoin:round;stroke-width:1.8907500505447388px"></path><path d="M292.59,160.6h-22.7v9.28h22.7Z" transform="translate(-6.38 -139.72)" style="fill:none;stroke:#19ad4a;stroke-linecap:round;stroke-linejoin:round;stroke-width:1.8907500505447388px"></path><path d="M419,407.83V397.47h28.7v10.36" transform="translate(-6.38 -139.72)" style="fill:none;stroke:#293b4a;stroke-miterlimit:10;stroke-width:1.8907500505447388px"></path><path d="M422.6,396.69V378.77h21.63v17.92" transform="translate(-6.38 -139.72)" style="fill:none;stroke:#293b4a;stroke-miterlimit:10;stroke-width:1.8907500505447388px"></path><path d="M423.74,365.49,428,378.77" transform="translate(-6.38 -139.72)" style="fill:none;stroke:#293b4a;stroke-miterlimit:10;stroke-width:1.8907500505447388px"></path><path d="M430.24,361.78l2.07,17" transform="translate(-6.38 -139.72)" style="fill:none;stroke:#293b4a;stroke-miterlimit:10;stroke-width:1.8907500505447388px"></path><path d="M436.37,361.78l-.14,17" transform="translate(-6.38 -139.72)" style="fill:none;stroke:#293b4a;stroke-miterlimit:10;stroke-width:1.8907500505447388px"></path><path d="M45,400.47a4.45,4.45,0,0,1-4.14,4.43l-1.65-8.57a4.71,4.71,0,0,1,1.43-.21A4.28,4.28,0,0,1,45,400.47Z" transform="translate(-6.38 -139.72)" style="fill:#293b4a;stroke:#293b4a;stroke-linecap:round;stroke-linejoin:round;stroke-width:1.8907500505447388px"></path><path d="M49.43,396.05A4.43,4.43,0,1,0,45,391.62,4.43,4.43,0,0,0,49.43,396.05Z" transform="translate(-6.38 -139.72)" style="fill:#293b4a;stroke:#293b4a;stroke-linecap:round;stroke-linejoin:round;stroke-width:1.8907500505447388px"></path><path d="M43.51,386.48a4.45,4.45,0,0,1-4.43,4.43c-.36,0-.64-.07-.93-.07l-1.57-8c.15-.07.22-.14.36-.21h4.21A4.35,4.35,0,0,1,43.51,386.48Z" transform="translate(-6.38 -139.72)" style="fill:#293b4a;stroke:#293b4a;stroke-linecap:round;stroke-linejoin:round;stroke-width:1.8907500505447388px"></path><path d="M51.65,408.61a4.43,4.43,0,1,0-4.43-4.42A4.42,4.42,0,0,0,51.65,408.61Z" transform="translate(-6.38 -139.72)" style="fill:#293b4a;stroke:#293b4a;stroke-linecap:round;stroke-linejoin:round;stroke-width:1.8907500505447388px"></path><path d="M60.5,399.76a4.43,4.43,0,1,0-4.43-4.43A4.43,4.43,0,0,0,60.5,399.76Z" transform="translate(-6.38 -139.72)" style="fill:#293b4a;stroke:#293b4a;stroke-linecap:round;stroke-linejoin:round;stroke-width:1.8907500505447388px"></path><path d="M71.56,403.47a4.43,4.43,0,1,0-4.42-4.42A4.42,4.42,0,0,0,71.56,403.47Z" transform="translate(-6.38 -139.72)" style="fill:#293b4a;stroke:#293b4a;stroke-linecap:round;stroke-linejoin:round;stroke-width:1.8907500505447388px"></path><path d="M75.92,407.76l-.14.85H70.64a4.3,4.3,0,0,1,3.21-1.35A3.49,3.49,0,0,1,75.92,407.76Z" transform="translate(-6.38 -139.72)" style="fill:#293b4a;stroke:#293b4a;stroke-linecap:round;stroke-linejoin:round;stroke-width:1.8907500505447388px"></path><path d="M51.5,382.63a4.49,4.49,0,0,1-6.42,0Z" transform="translate(-6.38 -139.72)" style="fill:none;stroke:#293b4a;stroke-linecap:round;stroke-linejoin:round;stroke-width:1.8907500505447388px"></path><path d="M63.78,383.27a4.43,4.43,0,0,1-8.85,0,2.77,2.77,0,0,1,.07-.72h8.71A2.77,2.77,0,0,1,63.78,383.27Z" transform="translate(-6.38 -139.72)" style="fill:#293b4a;stroke:#293b4a;stroke-linecap:round;stroke-linejoin:round;stroke-width:1.8907500505447388px"></path><path d="M70.49,391.41A4.43,4.43,0,1,0,66.07,387,4.43,4.43,0,0,0,70.49,391.41Z" transform="translate(-6.38 -139.72)" style="fill:#293b4a;stroke:#293b4a;stroke-linecap:round;stroke-linejoin:round;stroke-width:1.8907500505447388px"></path><path d="M80,386.55,78.56,394A4.45,4.45,0,0,1,80,386.55Z" transform="translate(-6.38 -139.72)" style="fill:#293b4a;stroke:#293b4a;stroke-linecap:round;stroke-linejoin:round;stroke-width:1.8907500505447388px"></path><path d="M67.5,406.26a4.06,4.06,0,0,1-.65,2.28H59.29a4.23,4.23,0,0,1-.65-2.28,4.43,4.43,0,0,1,8.86,0Z" transform="translate(-6.38 -139.72)" style="fill:#293b4a;stroke:#293b4a;stroke-linecap:round;stroke-linejoin:round;stroke-width:1.8907500505447388px"></path></svg>