<svg xmlns="http://www.w3.org/2000/svg" xmlns:xlink="http://www.w3.org/1999/xlink" id="Layer_1" data-name="Layer 1" viewBox="0 0 525.36 344.4"><defs><clipPath id="clip-path" transform="translate(-144.07 -110.98)"><rect x="144.28" y="111.17" width="525" height="344" style="fill:none"></rect></clipPath></defs><g style="clip-path:url(#clip-path)"><path d="M419.31,287.24a121.83,121.83,0,0,0-6.49,17.43c-.81,2.65-1.62,5.61-2.43,8.78a169.88,169.88,0,0,0-4.94,32.13c-.15,2.44-.22,4.95-.22,7.46s-.15,5-.3,7.6a228.42,228.42,0,0,1-3.61,27.85c-1.18,6.35-2.5,12.55-3.91,18.31-3.39,14.4-7,26.22-8.69,31.54-.59,1.92-1,3-1,3h-9.44c-.37-9.9-.37-19.94-.22-30.06.22-11.74.66-23.48,1.4-35,.3-4.43.59-8.79,1-13.15.81-10.12,1.7-20,2.73-29.54.51-4.8,1-9.53,1.62-14.1q1.44-11.54,2.87-21.94c.67-4.72,1.33-9.23,2-13.44,2.14-13.81,4.13-25.18,5.53-33,1.4-7.61,2.29-11.89,2.29-11.89" transform="translate(-144.07 -110.98)" style="fill:none;stroke:#293b4a;stroke-miterlimit:10;stroke-width:1.8907500505447388px"></path><path d="M412.08,260.13s.08.37.23,1c.51,2.07,1.91,7.31,3.9,15,.89,3.33,1.92,7,3,11.16.52,1.92,1.11,4,1.63,6.13.66,2.43,1.32,5,2.06,7.68s1.55,5.61,2.36,8.56c2.14,7.68,4.42,16,6.85,24.6,2.36,8.34,4.87,17.06,7.45,25.84l3.54,12c3.46,11.67,7.07,23.41,10.69,34.78,1.18,3.69,2.36,7.39,3.54,11,2.58,8,5.23,15.73,7.81,23,.07.14.07.29.15.44h9.21s-.07-1.62-.15-4.43c-.29-6.43-1.1-19.05-2.95-33.16-1-7.83-2.43-16-4.27-24a132.39,132.39,0,0,0-6.86-21.79c-.07-.15-.07-.22-.14-.37a95.12,95.12,0,0,1-4.35-12.48,143.62,143.62,0,0,1-4-20.75c-.81-6.35-1.26-12.7-1.55-18.91-.3-7.31-.37-14.32-.37-20.82V274.9c0-4.87,0-9.23-.15-12.85-.29-7.31-2.43-12.11-4.94-15.28-3.61-4.73-6.34-6-6.34-6s-4.86-14.32,0-21.34C449.9,202.9,447,195.66,447,195.66" transform="translate(-144.07 -110.98)" style="fill:none;stroke:#293b4a;stroke-miterlimit:10;stroke-width:1.8907500505447388px"></path><path d="M379.87,441.29v4.06h6.63l1.26-4.06" transform="translate(-144.07 -110.98)" style="fill:none;stroke:#293b4a;stroke-miterlimit:10;stroke-width:1.8907500505447388px"></path><path d="M363.51,451.92l16.29-6.57h6.63a4.09,4.09,0,0,1,1.33,5.25,4.68,4.68,0,0,1,.44,3.47l-24.18.37A1.31,1.31,0,0,1,363.51,451.92Z" transform="translate(-144.07 -110.98)" style="fill:none;stroke:#293b4a;stroke-miterlimit:10;stroke-width:1.8907500505447388px"></path><path d="M368.59,449.93s13.49.59,16.88.59" transform="translate(-144.07 -110.98)" style="fill:none;stroke:#293b4a;stroke-miterlimit:10;stroke-width:1.8907500505447388px"></path><path d="M466.34,441.29l1.69,4.06h6.64l-.37-4.06" transform="translate(-144.07 -110.98)" style="fill:none;stroke:#293b4a;stroke-miterlimit:10;stroke-width:1.8907500505447388px"></path><path d="M451.67,451.92,468,445.35h6.63a4.09,4.09,0,0,1,1.33,5.25,4.68,4.68,0,0,1,.44,3.47l-24.17.37A1.31,1.31,0,0,1,451.67,451.92Z" transform="translate(-144.07 -110.98)" style="fill:none;stroke:#293b4a;stroke-miterlimit:10;stroke-width:1.8907500505447388px"></path><path d="M456.68,449.93s13.49.59,16.88.59" transform="translate(-144.07 -110.98)" style="fill:none;stroke:#293b4a;stroke-miterlimit:10;stroke-width:1.8907500505447388px"></path><path d="M459,186.21s17.61,11.22,20.12,15.21c8.77,14-33.83,26.74-33.39,35.67a4.55,4.55,0,0,0,4.42-1.18c1.25-1.18,4-.44,1.33,2.81" transform="translate(-144.07 -110.98)" style="fill:none;stroke:#293b4a;stroke-miterlimit:10;stroke-width:1.8907500505447388px"></path><path d="M452.77,240.78c3-1.4,3.17-5.76,1-3.54a11,11,0,0,1-7.74,2.44" transform="translate(-144.07 -110.98)" style="fill:none;stroke:#293b4a;stroke-miterlimit:10;stroke-width:1.8907500505447388px"></path><path d="M471.57,200.83c-22.19,11.59-33,33-33,33-1.4,11.23,9.73,13,13.12,12.93,6-.08,9.73-4.21,6.56-3.4a12.93,12.93,0,0,1-6.56-.22c7.44-1.26,7-3.25,4-2.81-5.09.67-5.53,1.26-7.15,1.18a3.56,3.56,0,0,1-2.8-4.43" transform="translate(-144.07 -110.98)" style="fill:none;stroke:#293b4a;stroke-miterlimit:10;stroke-width:1.8907500505447388px"></path><path d="M454,406.73c-3.61-11.38-7.22-23.12-10.68-34.79,6.63.3,12.67,8.35,13.78,18.76C457.64,397,456.39,402.81,454,406.73Z" transform="translate(-144.07 -110.98)" style="fill:#293b4a"></path><path d="M474.37,436.86a15.94,15.94,0,0,1-9.06,4c-2.58-7.31-5.16-15.07-7.82-23a19.69,19.69,0,0,1,.89-1.78c3.24-6.27,8.18-10.78,13-12.33C473.27,417.81,474.08,430.43,474.37,436.86Z" transform="translate(-144.07 -110.98)" style="fill:#293b4a"></path><path d="M455.72,345a27.07,27.07,0,0,1-2.21,4.06c-3.76,5.83-8.92,9.75-13.78,11-2.58-8.78-5.09-17.5-7.45-25.84,5.46-8,13.64-12,19.46-10A146.65,146.65,0,0,0,455.72,345Z" transform="translate(-144.07 -110.98)" style="fill:#293b4a"></path><path d="M467.08,379.62a25,25,0,0,1-1.92-2.29c-5-6.64-6.71-14.25-4.94-19.49A135.74,135.74,0,0,1,467.08,379.62Z" transform="translate(-144.07 -110.98)" style="fill:#293b4a"></path><path d="M450.19,305.33a27.53,27.53,0,0,1-8.47,4.21c-6.05,1.85-11.94,1.77-16.37.07-.81-2.95-1.62-5.76-2.36-8.56s-1.4-5.25-2.06-7.68A26.23,26.23,0,0,1,434,284.73a25.87,25.87,0,0,1,15.85-.3C449.83,290.93,449.9,298,450.19,305.33Z" transform="translate(-144.07 -110.98)" style="fill:#293b4a"></path><path d="M449.83,274.83c-4.06,1.25-8,1-10.69-1.33-5.53-4.58-4.2-15.21,2.87-23.85a37.75,37.75,0,0,1,2.8-3c2.44,3.18,4.57,8,4.94,15.29C449.83,265.6,449.83,270,449.83,274.83Z" transform="translate(-144.07 -110.98)" style="fill:#293b4a"></path><path d="M387.83,393.51c0,8.93-4.2,16.39-9.73,17.72.22-11.74.66-23.48,1.4-35C384.37,378.44,387.83,385.38,387.83,393.51Z" transform="translate(-144.07 -110.98)" style="fill:#293b4a"></path><path d="M397.41,406.8c-3.39,14.4-7,26.22-8.69,31.54a6.53,6.53,0,0,1-2.29-1c-5.31-3.54-5.23-13.07.22-21.34A23.57,23.57,0,0,1,397.41,406.8Z" transform="translate(-144.07 -110.98)" style="fill:#293b4a"></path><path d="M388.64,356.36a25.72,25.72,0,0,1-8.18,6.8c.81-10.12,1.7-20,2.73-29.55a9,9,0,0,1,7.66,1.56C395.87,339.08,394.91,348.61,388.64,356.36Z" transform="translate(-144.07 -110.98)" style="fill:#293b4a"></path><path d="M419.31,287.31a121.83,121.83,0,0,0-6.49,17.43A8,8,0,0,1,408,303c-4.94-4-4-13.52,2.21-21.2a26.88,26.88,0,0,1,6.12-5.61" transform="translate(-144.07 -110.98)" style="fill:#293b4a"></path><path d="M404.93,360.64a228.42,228.42,0,0,1-3.61,27.85,27.58,27.58,0,0,1-5-6.06c-5.09-8.49-4.87-18,.59-21.34A9.72,9.72,0,0,1,404.93,360.64Z" transform="translate(-144.07 -110.98)" style="fill:#293b4a"></path><path d="M384.88,319.51q1.44-11.52,2.88-21.93c5,1.1,8.77,3.91,9.51,7.82C398.37,311,393,316.92,384.88,319.51Z" transform="translate(-144.07 -110.98)" style="fill:#293b4a"></path><path d="M410.39,313.45a169.88,169.88,0,0,0-4.94,32.13A23.21,23.21,0,0,1,399.63,333c-1.55-9.82,2.28-18.53,8.62-19.49A6.9,6.9,0,0,1,410.39,313.45Z" transform="translate(-144.07 -110.98)" style="fill:#293b4a"></path><path d="M394.17,284.73a8.51,8.51,0,0,1-4.5-.6c2.14-13.81,4.13-25.18,5.53-33,3.62,2.66,6.56,7.83,7.6,14.11C404.34,275,400.51,283.77,394.17,284.73Z" transform="translate(-144.07 -110.98)" style="fill:#293b4a"></path><path d="M435.89,241.52a24.29,24.29,0,0,1-3.17,10.64c-4.79,8.71-13.19,13.22-18.72,10.11a7.62,7.62,0,0,1-1.62-1.18c-3.32-3.17-4-9.38-1.77-15.73C417.24,247,426.09,247,435.89,241.52Z" transform="translate(-144.07 -110.98)" style="fill:#293b4a"></path><path d="M292.08,454.44H536.81" transform="translate(-144.07 -110.98)" style="fill:none;stroke:#293b4a;stroke-linecap:round;stroke-linejoin:round;stroke-width:1.8907500505447388px"></path><path d="M190.86,422.61h178.4" transform="translate(-144.07 -110.98)" style="fill:none;stroke:#293b4a;stroke-linecap:round;stroke-linejoin:round;stroke-width:1.8907500505447388px"></path><path d="M491.11,422.61H644" transform="translate(-144.07 -110.98)" style="fill:none;stroke:#293b4a;stroke-linecap:round;stroke-linejoin:round;stroke-width:1.8907500505447388px"></path><path d="M404.2,422.61H463" transform="translate(-144.07 -110.98)" style="fill:none;stroke:#293b4a;stroke-linecap:round;stroke-linejoin:round;stroke-width:1.8907500505447388px"></path><path d="M449.83,193.3s7.29,7.16,16.73,10.12" transform="translate(-144.07 -110.98)" style="fill:none;stroke:#293b4a;stroke-miterlimit:10;stroke-width:1.8907500505447388px"></path><path d="M462.8,187.76c5-7.53-11.5-.22-13.56,6.87-1.55,5.46,4.94,2.21,4.94,2.21" transform="translate(-144.07 -110.98)" style="fill:none;stroke:#293b4a;stroke-miterlimit:10;stroke-width:1.8907500505447388px"></path><path d="M435.89,186.21s8.63,8.27,13.72,11.3" transform="translate(-144.07 -110.98)" style="fill:none;stroke:#293b4a;stroke-miterlimit:10;stroke-width:1.8907500505447388px"></path><path d="M463.76,184.58s-15.41-13.29-31-14.62" transform="translate(-144.07 -110.98)" style="fill:none;stroke:#293b4a;stroke-miterlimit:10;stroke-width:1.8907500505447388px"></path><path d="M438.4,240.78c-24.77,11.82-40.84-1.55-40.84-1.55s5.09-18.76,5.6-32.79" transform="translate(-144.07 -110.98)" style="fill:none;stroke:#293b4a;stroke-miterlimit:10;stroke-width:1.8907500505447388px"></path><path d="M410.31,177.12c-.44,7.68-5.89,12.34-9.73,20.76-2.13,4.72-.14,11.37,10.47,9.67" transform="translate(-144.07 -110.98)" style="fill:none;stroke:#293b4a;stroke-miterlimit:10;stroke-width:1.8907500505447388px"></path><path d="M422.55,169.3c-17.17-3.4-25.06,10.93-25.06,10.93s1.69,4.35,9.43,6.72" transform="translate(-144.07 -110.98)" style="fill:none;stroke:#293b4a;stroke-miterlimit:10;stroke-width:1.8907500505447388px"></path><path d="M436.78,207.18c-5.16,5.24-13.2,2.59-15.19,0" transform="translate(-144.07 -110.98)" style="fill:none;stroke:#293b4a;stroke-miterlimit:10;stroke-width:1.8907500505447388px"></path><path d="M398.45,181.7c-3.69,3.18-13.86,15.07-13.86,15.07-8,9.67,9.14,21.12,15.26,32.57" transform="translate(-144.07 -110.98)" style="fill:none;stroke:#293b4a;stroke-miterlimit:10;stroke-width:1.8907500505447388px"></path><path d="M421.52,147.58a1,1,0,1,0-1-1A1,1,0,0,0,421.52,147.58Z" transform="translate(-144.07 -110.98)" style="fill:#293b4a"></path><path d="M432.06,157.63c-1.55,4.13.3,11,1,13.22,0,0,7.22,9.75-15.85,12,0,0,2.88-7.09,4.35-10.63s1.77-4.8-.37-11.6c-3.39-.37-6.63,3.55-4.72-7.38l-1.62-.82a.44.44,0,0,1-.37-.66c1-1.7,4.28-10.86,4.65-13.74" transform="translate(-144.07 -110.98)" style="fill:none;stroke:#293b4a;stroke-miterlimit:10;stroke-width:1.8907500505447388px"></path><path d="M424.84,152.61c-.74,2.43-2.36,3.24-5.61,2.65" transform="translate(-144.07 -110.98)" style="fill:none;stroke:#293b4a;stroke-miterlimit:10;stroke-width:1.8907500505447388px"></path><path d="M430.88,128.09c-5.31-1.41-10.83.29-12.16,4.65-1.4,4.8.37,5.24.37,5.24,9.06-4.06,8.77,7.17,8.77,7.17s5.53-1.26,2.73,3.91c0,0,2.87,6,1.4,8.57,0,0,14.45,1.62,9.51-18.83a13.6,13.6,0,0,0-1-2.81" transform="translate(-144.07 -110.98)" style="fill:#293b4a"></path><path d="M430.88,128.09c-5.31-1.41-10.83.29-12.16,4.65-1.4,4.8.37,5.24.37,5.24,9.06-4.06,8.77,7.17,8.77,7.17s5.53-1.26,2.73,3.91c0,0,2.87,6,1.4,8.57,0,0,14.45,1.62,9.51-18.83a13.6,13.6,0,0,0-1-2.81" transform="translate(-144.07 -110.98)" style="fill:none;stroke:#293b4a;stroke-miterlimit:10;stroke-width:1.8907500505447388px"></path><path d="M433,123.66c-6.64-18.25,12.75-13.89,21.89,4,7.08,13.89-4.94,9.6-12.16,6.21C442.68,133.85,443.34,128.38,433,123.66Z" transform="translate(-144.07 -110.98)" style="fill:#293b4a;stroke:#293b4a;stroke-miterlimit:10;stroke-width:1.8907500505447388px"></path><path d="M443,134.88a18.81,18.81,0,0,0-10-10.26c-3.24,2.21-2.95,3-2.95,3s8.18,4.21,10.54,8.35Z" transform="translate(-144.07 -110.98)" style="fill:none;stroke:#293b4a;stroke-miterlimit:10;stroke-width:1.8907500505447388px"></path><path d="M285.29,396.61l-5-34.56" transform="translate(-144.07 -110.98)" style="fill:none;stroke:#243b4c;stroke-miterlimit:10;stroke-width:1.8907500505447388px"></path><path d="M271.88,373.35l-2.36,25.85" transform="translate(-144.07 -110.98)" style="fill:none;stroke:#243b4c;stroke-miterlimit:10;stroke-width:1.8907500505447388px"></path><path d="M267.75,378.59a84,84,0,0,1-9.95,20.61" transform="translate(-144.07 -110.98)" style="fill:none;stroke:#243b4c;stroke-miterlimit:10;stroke-width:1.8907500505447388px"></path><path d="M303.43,354.81l2.87-4.87-12.16-6.06L283.89,363" transform="translate(-144.07 -110.98)" style="fill:none;stroke:#243b4c;stroke-miterlimit:10;stroke-width:1.8907500505447388px"></path><path d="M288.83,373.86l2.88.89,7-11.89" transform="translate(-144.07 -110.98)" style="fill:none;stroke:#243b4c;stroke-miterlimit:10;stroke-width:1.8907500505447388px"></path><path d="M260.16,312.79h6.12v4.58" transform="translate(-144.07 -110.98)" style="fill:none;stroke:#243b4c;stroke-miterlimit:10;stroke-width:1.8907500505447388px"></path><path d="M263.7,319h5.16" transform="translate(-144.07 -110.98)" style="fill:none;stroke:#243b4c;stroke-miterlimit:10;stroke-width:1.8907500505447388px"></path><path d="M257.8,311.61a26.35,26.35,0,0,0,8-4.88s2.06,2.51,8.55,4.88c0,0,.3,6.5,1.55,8.12l-2.21,1.55L276.3,329s6.12,0,11.21,18l3.61,2.51" transform="translate(-144.07 -110.98)" style="fill:none;stroke:#243b4c;stroke-miterlimit:10;stroke-width:1.8907500505447388px"></path><path d="M276.3,306.44c-5.6-8.57-15.7-8.35-21.6,0l2,3.17c4.79-5.46,13.05-5.61,17.62,0Z" transform="translate(-144.07 -110.98)" style="fill:none;stroke:#243b4c;stroke-miterlimit:10;stroke-width:1.8907500505447388px"></path><path d="M230.89,259.17H245v3.7" transform="translate(-144.07 -110.98)" style="fill:none;stroke:#243b4c;stroke-miterlimit:10;stroke-width:1.8907500505447388px"></path><path d="M229.34,262.72h17.92v2.43H229.34" transform="translate(-144.07 -110.98)" style="fill:none;stroke:#243b4c;stroke-miterlimit:10;stroke-width:1.8907500505447388px"></path><path d="M280.06,340.26a47.48,47.48,0,0,0,6.49,27.92" transform="translate(-144.07 -110.98)" style="fill:none;stroke:#243b4c;stroke-miterlimit:10;stroke-width:1.8907500505447388px"></path><path d="M241.8,310.13c-13.78,22.52,1.55,22.38,8.77,8.86" transform="translate(-144.07 -110.98)" style="fill:none;stroke:#243b4c;stroke-miterlimit:10;stroke-width:1.8907500505447388px"></path><path d="M249.62,326.75c-7.52,12.55-9.29,13.59-9.29,13.59s1.55,2.36,2.72,2.51" transform="translate(-144.07 -110.98)" style="fill:none;stroke:#243b4c;stroke-miterlimit:10;stroke-width:1.8907500505447388px"></path><path d="M250.57,330.59c-9.06,15.43-9.36,14.69-9.36,14.69s1.92,5.54,5.31,7" transform="translate(-144.07 -110.98)" style="fill:none;stroke:#243b4c;stroke-miterlimit:10;stroke-width:1.8907500505447388px"></path><path d="M248.66,344.84c-5.83,19.42-8.41,23.34-8.41,23.34a11.18,11.18,0,0,0,5.61,3.25" transform="translate(-144.07 -110.98)" style="fill:none;stroke:#243b4c;stroke-miterlimit:10;stroke-width:1.8907500505447388px"></path><path d="M261.41,348.31C240.25,368.25,242,390.7,242,390.7l4.94,1.7" transform="translate(-144.07 -110.98)" style="fill:none;stroke:#243b4c;stroke-miterlimit:10;stroke-width:1.8907500505447388px"></path><path d="M251.31,315.08c6.64,2.73,8.63,16.54,21.53,14.62" transform="translate(-144.07 -110.98)" style="fill:none;stroke:#243b4c;stroke-miterlimit:10;stroke-width:1.8907500505447388px"></path><path d="M244.46,282.29c5.16,10.78,4.2,19.27,4.2,19.27a69.62,69.62,0,0,1,1.4,7.54s-4.06,11.52-8.92,9.38" transform="translate(-144.07 -110.98)" style="fill:none;stroke:#243b4c;stroke-miterlimit:10;stroke-width:1.8907500505447388px"></path><path d="M235,265.15v7.17" transform="translate(-144.07 -110.98)" style="fill:none;stroke:#243b4c;stroke-miterlimit:10;stroke-width:1.8907500505447388px"></path><path d="M258.46,315.6l2.21,3.84a6,6,0,0,0,5.24,3,6.19,6.19,0,0,0,5.53-3.54l1.54-3.4" transform="translate(-144.07 -110.98)" style="fill:none;stroke:#243b4c;stroke-miterlimit:10;stroke-width:1.8907500505447388px"></path><path d="M265.54,289.67v10.42" transform="translate(-144.07 -110.98)" style="fill:none;stroke:#243b4c;stroke-miterlimit:10;stroke-width:1.8907500505447388px"></path><path d="M285,308.73h-9.81" transform="translate(-144.07 -110.98)" style="fill:none;stroke:#243b4c;stroke-miterlimit:10;stroke-width:1.8907500505447388px"></path><path d="M256.4,308.73h-6.27" transform="translate(-144.07 -110.98)" style="fill:none;stroke:#243b4c;stroke-miterlimit:10;stroke-width:1.8907500505447388px"></path><path d="M278.07,294.25l-6.78,7" transform="translate(-144.07 -110.98)" style="fill:none;stroke:#243b4c;stroke-miterlimit:10;stroke-width:1.8907500505447388px"></path><path d="M259.27,301.78l-7.66-7.45" transform="translate(-144.07 -110.98)" style="fill:none;stroke:#243b4c;stroke-miterlimit:10;stroke-width:1.8907500505447388px"></path><path d="M283.08,301.49l-8.18,3" transform="translate(-144.07 -110.98)" style="fill:none;stroke:#243b4c;stroke-miterlimit:10;stroke-width:1.8907500505447388px"></path><path d="M248.8,301.49l7.16,3.32" transform="translate(-144.07 -110.98)" style="fill:none;stroke:#243b4c;stroke-miterlimit:10;stroke-width:1.8907500505447388px"></path><path d="M240,284.13c-1.62,16,2,19.43,2,19.43s-1.4,8.05,1.47,15" transform="translate(-144.07 -110.98)" style="fill:none;stroke:#243b4c;stroke-miterlimit:10;stroke-width:1.8907500505447388px"></path><path d="M237.45,271.51c-4.94.29-2.5,2.65-2.5,2.65v3.62" transform="translate(-144.07 -110.98)" style="fill:none;stroke:#243b4c;stroke-miterlimit:10;stroke-width:1.8907500505447388px"></path><path d="M240.25,273.65v-8.5" transform="translate(-144.07 -110.98)" style="fill:none;stroke:#243b4c;stroke-miterlimit:10;stroke-width:1.8907500505447388px"></path><path d="M237.75,277.49c-4.57-.3-2.8,1.92-2.8,1.92v4.72h5.3v-8.56" transform="translate(-144.07 -110.98)" style="fill:none;stroke:#243b4c;stroke-miterlimit:10;stroke-width:1.8907500505447388px"></path><path d="M243.5,283c1.69-1.25,1.32-5.17-.89-6.94s-3.39-3.84-3.46-4.58" transform="translate(-144.07 -110.98)" style="fill:none;stroke:#243b4c;stroke-miterlimit:10;stroke-width:1.8907500505447388px"></path><path d="M241.21,259.17C248.8,248.17,235,242,235,242c6.34,9.23-9,9.67-.59,17.13" transform="translate(-144.07 -110.98)" style="fill:none;stroke:#243b4c;stroke-miterlimit:10;stroke-width:1.8907500505447388px"></path><path d="M300.11,352.89c6.19,2.07,4.28,6.43,4.28,6.43l-3.32,6.57s-1.48,2-4.72,1" transform="translate(-144.07 -110.98)" style="fill:none;stroke:#243b4c;stroke-miterlimit:10;stroke-width:1.8907500505447388px"></path><path d="M298.93,355.84a4.73,4.73,0,0,1,3.76,3.25" transform="translate(-144.07 -110.98)" style="fill:none;stroke:#243b4c;stroke-miterlimit:10;stroke-width:1.8907500505447388px"></path><path d="M297.46,358.43c2.87.29,3.76,3.25,3.76,3.25" transform="translate(-144.07 -110.98)" style="fill:none;stroke:#243b4c;stroke-miterlimit:10;stroke-width:1.8907500505447388px"></path><path d="M295.61,360.87a4.71,4.71,0,0,1,3.76,3.25" transform="translate(-144.07 -110.98)" style="fill:none;stroke:#243b4c;stroke-miterlimit:10;stroke-width:1.8907500505447388px"></path><path d="M236.42,325.79c1.77,10.63,5.53,12,5.53,12" transform="translate(-144.07 -110.98)" style="fill:none;stroke:#243b4c;stroke-miterlimit:10;stroke-width:1.8907500505447388px"></path><path d="M331.22,341l5.75,5.69,1.18,1.18,1.4,1.4,23.29-23.41" transform="translate(-144.07 -110.98)" style="fill:none;stroke:#19ad4a;stroke-miterlimit:10;stroke-width:1.8907500505447388px"></path><path d="M355.18,333.54a21.86,21.86,0,0,1,1.54,3,18.63,18.63,0,0,1,1.4,7.31,19.39,19.39,0,1,1-19.38-19.43,19.17,19.17,0,0,1,10.54,3.11" transform="translate(-144.07 -110.98)" style="fill:none;stroke:#2a3b4a;stroke-miterlimit:10;stroke-width:1.8907500505447388px"></path><path d="M314.34,212.35H278.81a3.15,3.15,0,0,0-3.17,3.18v40.39a3.15,3.15,0,0,0,3.17,3.18h35.53a3.15,3.15,0,0,0,3.17-3.18V215.45A3.13,3.13,0,0,0,314.34,212.35Zm-24.55,18c.88-3.18,3.17-5.47,6.78-5.47a6.55,6.55,0,0,0,6.49,4.43,9.79,9.79,0,0,1,.74,4,11.81,11.81,0,0,1-.3,2.81" transform="translate(-144.07 -110.98)" style="fill:#fff"></path><path d="M289.79,230.3c.88-3.18,3.17-5.47,6.78-5.47a6.55,6.55,0,0,0,6.49,4.43,9.79,9.79,0,0,1,.74,4,11.81,11.81,0,0,1-.3,2.81m10.84-23.71H278.81a3.15,3.15,0,0,0-3.17,3.18v40.39a3.15,3.15,0,0,0,3.17,3.18h35.53a3.15,3.15,0,0,0,3.17-3.18V215.45A3.13,3.13,0,0,0,314.34,212.35Z" transform="translate(-144.07 -110.98)" style="fill:none;stroke:#2a3b4a;stroke-miterlimit:10;stroke-width:1.8907500505447388px"></path><path d="M302.91,241.67c6,1.11,9.14,4.14,9.14,10.78" transform="translate(-144.07 -110.98)" style="fill:none;stroke:#2a3b4a;stroke-miterlimit:10;stroke-width:1.8907500505447388px"></path><path d="M281.09,252.45c0-6.64,3.17-9.67,9.14-10.78" transform="translate(-144.07 -110.98)" style="fill:none;stroke:#2a3b4a;stroke-miterlimit:10;stroke-width:1.8907500505447388px"></path><path d="M301,242.7a4.43,4.43,0,1,1-8.85,0" transform="translate(-144.07 -110.98)" style="fill:none;stroke:#2a3b4a;stroke-miterlimit:10;stroke-width:1.8907500505447388px"></path><path d="M293.77,235.69a3.05,3.05,0,0,0,5.6,0" transform="translate(-144.07 -110.98)" style="fill:none;stroke:#2a3b4a;stroke-miterlimit:10;stroke-width:1.8907500505447388px"></path><path d="M294.14,231.26v1.84" transform="translate(-144.07 -110.98)" style="fill:none;stroke:#2a3b4a;stroke-miterlimit:10;stroke-width:1.8907500505447388px"></path><path d="M299.08,231.26v1.84" transform="translate(-144.07 -110.98)" style="fill:none;stroke:#2a3b4a;stroke-miterlimit:10;stroke-width:1.8907500505447388px"></path><path d="M289.79,230.3a13,13,0,0,0-.37,2.95c0,4.65,2.58,8.42,7.23,8.42,3.68,0,6-2.36,6.85-5.69" transform="translate(-144.07 -110.98)" style="fill:none;stroke:#2a3b4a;stroke-miterlimit:10;stroke-width:1.8907500505447388px"></path><path d="M287.65,234.8a10,10,0,0,1-1.25-4.87,10.21,10.21,0,1,1,19.17,4.87" transform="translate(-144.07 -110.98)" style="fill:none;stroke:#2a3b4a;stroke-miterlimit:10;stroke-width:1.8907500505447388px"></path><path d="M317.51,245.14a87.94,87.94,0,0,1,19.38,21.71" transform="translate(-144.07 -110.98)" style="fill:none;stroke:#243b4c;stroke-miterlimit:10;stroke-width:1.8907500505447388px"></path><path d="M177.3,310.87a86.42,86.42,0,0,1,86.4-84.56,90.46,90.46,0,0,1,11.94.81" transform="translate(-144.07 -110.98)" style="fill:none;stroke:#243b4c;stroke-miterlimit:10;stroke-width:1.8907500505447388px"></path><path d="M334.24,362.71a86.61,86.61,0,0,1-48.95,33.9,79.21,79.21,0,0,1-15.84,2.51c-1.92.15-3.84.22-5.83.22s-3.91-.07-5.9-.22a86.48,86.48,0,0,1-77.54-63.81" transform="translate(-144.07 -110.98)" style="fill:none;stroke:#243b4c;stroke-miterlimit:10;stroke-width:1.8907500505447388px"></path><path d="M349,299.13a83,83,0,0,1,1.11,13.66,93,93,0,0,1-1.18,14.47" transform="translate(-144.07 -110.98)" style="fill:none;stroke:#243b4c;stroke-miterlimit:10;stroke-width:1.8907500505447388px"></path><path d="M145,335.39h87.72s-6.11-16.84-27.27-8.13c0,0-19-41.06-48.21,1.92" transform="translate(-144.07 -110.98)" style="fill:none;stroke:#2a3b4a;stroke-linecap:round;stroke-linejoin:round;stroke-width:1.8907500505447388px"></path><path d="M370.58,289.45a9.73,9.73,0,0,0-9.73-9.75,9.89,9.89,0,0,0-5.23,1.55s-15.56-28.87-38.26-5A12.27,12.27,0,0,0,299,286.87v.44h-.14a5.91,5.91,0,0,0,0,11.82h87.5" transform="translate(-144.07 -110.98)" style="fill:none;stroke:#2a3b4a;stroke-linecap:round;stroke-linejoin:round;stroke-width:1.8907500505447388px"></path><path d="M320.68,284.8a9.75,9.75,0,0,0-13.42,2.95" transform="translate(-144.07 -110.98)" style="fill:none;stroke:#2a3b4a;stroke-linecap:round;stroke-linejoin:round;stroke-width:1.8907500505447388px"></path><path d="M182.24,295.43a21,21,0,1,0-21-21A21,21,0,0,0,182.24,295.43Z" transform="translate(-144.07 -110.98)" style="fill:#fff;stroke:#293b4a;stroke-linejoin:round;stroke-width:1.8907500505447388px"></path><path d="M188.43,265.67a.59.59,0,0,0,0-1.18.59.59,0,0,0,0,1.18Z" transform="translate(-144.07 -110.98)" style="fill:#293b4a"></path><path d="M182.76,279.26a22,22,0,0,0,.59-5.46,8.72,8.72,0,0,1,0-2.07s5.08-2,1.1-6.58c-2.95-3.32,6.49-3.47,6.49-3.47,5.31-2.29,6.85-15.14-5.53-16-8.33-.52-9.66,12-9.66,12C147.3,284.28,182.76,279.26,182.76,279.26Z" transform="translate(-144.07 -110.98)" style="fill:#293b4a"></path><path d="M187.25,268.92a2.61,2.61,0,0,0,3.61,1" transform="translate(-144.07 -110.98)" style="fill:none;stroke:#293b4a;stroke-linejoin:round;stroke-width:1.8907500505447388px"></path><path d="M193.37,285.17c-9.88,8.93-19.46-1.11-19.46-1.11s-1.55-.74,2.06-2.21c0,0,6,7.31,16,1.18a11.11,11.11,0,0,1-2.65-2.14c-1-1.7-1-3.7.22-7.69,2-.22,3.9,1.19,2.72-5.24h1a.25.25,0,0,0,.22-.37,27.75,27.75,0,0,1-2.72-6.64" transform="translate(-144.07 -110.98)" style="fill:none;stroke:#293b4a;stroke-linejoin:round;stroke-width:1.8907500505447388px"></path><path d="M588,280.52V238.94H551.48v41.58" transform="translate(-144.07 -110.98)" style="fill:none;stroke:#243b4c;stroke-miterlimit:10;stroke-width:1.8907500505447388px"></path><path d="M590.4,193.59H549.05v45.35H590.4Z" transform="translate(-144.07 -110.98)" style="fill:none;stroke:#243b4c;stroke-miterlimit:10;stroke-width:1.8907500505447388px"></path><path d="M552.51,193.59V186.8l6.49-7.39h21.38V168.48h-21.6v8.35" transform="translate(-144.07 -110.98)" style="fill:none;stroke:#243b4c;stroke-miterlimit:10;stroke-width:1.8907500505447388px"></path><path d="M586.94,193.59V186.8l-6.56-7.39" transform="translate(-144.07 -110.98)" style="fill:none;stroke:#243b4c;stroke-miterlimit:10;stroke-width:1.8907500505447388px"></path><path d="M559.88,165.53l9.66-27.62L579,165.53H563.35" transform="translate(-144.07 -110.98)" style="fill:none;stroke:#243b4c;stroke-miterlimit:10;stroke-width:1.8907500505447388px"></path><path d="M569.91,124.47v13.44" transform="translate(-144.07 -110.98)" style="fill:none;stroke:#243b4c;stroke-miterlimit:10;stroke-width:1.8907500505447388px"></path><path d="M569.54,147l-5.31,16h9.22" transform="translate(-144.07 -110.98)" style="fill:none;stroke:#243b4c;stroke-miterlimit:10;stroke-width:1.8907500505447388px"></path><path d="M569.69,231.26A15.73,15.73,0,1,0,554,215.53,15.72,15.72,0,0,0,569.69,231.26Z" transform="translate(-144.07 -110.98)" style="fill:none;stroke:#243b4c;stroke-miterlimit:10;stroke-width:1.8907500505447388px"></path><path d="M549.05,187.68v5.91" transform="translate(-144.07 -110.98)" style="fill:none;stroke:#243b4c;stroke-miterlimit:10;stroke-width:1.8907500505447388px"></path><path d="M554.94,187.68v5.91" transform="translate(-144.07 -110.98)" style="fill:none;stroke:#243b4c;stroke-miterlimit:10;stroke-width:1.8907500505447388px"></path><path d="M560.84,187.68v5.91" transform="translate(-144.07 -110.98)" style="fill:none;stroke:#243b4c;stroke-miterlimit:10;stroke-width:1.8907500505447388px"></path><path d="M566.74,187.68v5.91" transform="translate(-144.07 -110.98)" style="fill:none;stroke:#243b4c;stroke-miterlimit:10;stroke-width:1.8907500505447388px"></path><path d="M572.64,187.68v5.91" transform="translate(-144.07 -110.98)" style="fill:none;stroke:#243b4c;stroke-miterlimit:10;stroke-width:1.8907500505447388px"></path><path d="M578.61,187.68v5.91" transform="translate(-144.07 -110.98)" style="fill:none;stroke:#243b4c;stroke-miterlimit:10;stroke-width:1.8907500505447388px"></path><path d="M584.5,187.68v5.91" transform="translate(-144.07 -110.98)" style="fill:none;stroke:#243b4c;stroke-miterlimit:10;stroke-width:1.8907500505447388px"></path><path d="M590.4,187.68v5.91" transform="translate(-144.07 -110.98)" style="fill:none;stroke:#243b4c;stroke-miterlimit:10;stroke-width:1.8907500505447388px"></path><path d="M555,244v7.46h2.8" transform="translate(-144.07 -110.98)" style="fill:none;stroke:#243b4c;stroke-miterlimit:10;stroke-width:1.8907500505447388px"></path><path d="M561.73,244v7.46h2.72" transform="translate(-144.07 -110.98)" style="fill:none;stroke:#243b4c;stroke-miterlimit:10;stroke-width:1.8907500505447388px"></path><path d="M568.36,244v7.46h2.73" transform="translate(-144.07 -110.98)" style="fill:none;stroke:#243b4c;stroke-miterlimit:10;stroke-width:1.8907500505447388px"></path><path d="M575,244v7.46h2.73" transform="translate(-144.07 -110.98)" style="fill:none;stroke:#243b4c;stroke-miterlimit:10;stroke-width:1.8907500505447388px"></path><path d="M581.63,244v7.46h2.73" transform="translate(-144.07 -110.98)" style="fill:none;stroke:#243b4c;stroke-miterlimit:10;stroke-width:1.8907500505447388px"></path><path d="M555,257.1v7.39h2.8" transform="translate(-144.07 -110.98)" style="fill:none;stroke:#243b4c;stroke-miterlimit:10;stroke-width:1.8907500505447388px"></path><path d="M561.73,257.1v7.39h2.72" transform="translate(-144.07 -110.98)" style="fill:none;stroke:#243b4c;stroke-miterlimit:10;stroke-width:1.8907500505447388px"></path><path d="M568.36,257.1v7.39h2.73" transform="translate(-144.07 -110.98)" style="fill:none;stroke:#243b4c;stroke-miterlimit:10;stroke-width:1.8907500505447388px"></path><path d="M575,257.1v7.39h2.73" transform="translate(-144.07 -110.98)" style="fill:none;stroke:#243b4c;stroke-miterlimit:10;stroke-width:1.8907500505447388px"></path><path d="M581.63,257.1v7.39h2.73" transform="translate(-144.07 -110.98)" style="fill:none;stroke:#243b4c;stroke-miterlimit:10;stroke-width:1.8907500505447388px"></path><path d="M555,270.1v7.46h2.8" transform="translate(-144.07 -110.98)" style="fill:none;stroke:#243b4c;stroke-miterlimit:10;stroke-width:1.8907500505447388px"></path><path d="M561.73,270.1v7.46h2.72" transform="translate(-144.07 -110.98)" style="fill:none;stroke:#243b4c;stroke-miterlimit:10;stroke-width:1.8907500505447388px"></path><path d="M568.36,270.1v7.46h2.73" transform="translate(-144.07 -110.98)" style="fill:none;stroke:#243b4c;stroke-miterlimit:10;stroke-width:1.8907500505447388px"></path><path d="M575,270.1v7.46h2.73" transform="translate(-144.07 -110.98)" style="fill:none;stroke:#243b4c;stroke-miterlimit:10;stroke-width:1.8907500505447388px"></path><path d="M581.63,270.1v7.46h2.73" transform="translate(-144.07 -110.98)" style="fill:none;stroke:#243b4c;stroke-miterlimit:10;stroke-width:1.8907500505447388px"></path><path d="M569.69,204.89a1.4,1.4,0,1,0-1.4-1.4A1.4,1.4,0,0,0,569.69,204.89Z" transform="translate(-144.07 -110.98)" style="fill:#243b4c"></path><path d="M569.69,228.6a1.41,1.41,0,1,0-1.4-1.4A1.4,1.4,0,0,0,569.69,228.6Z" transform="translate(-144.07 -110.98)" style="fill:#243b4c"></path><path d="M561.36,208.36A1.4,1.4,0,1,0,560,207,1.4,1.4,0,0,0,561.36,208.36Z" transform="translate(-144.07 -110.98)" style="fill:#243b4c"></path><path d="M578.09,225.13a1.41,1.41,0,1,0-1.4-1.41A1.41,1.41,0,0,0,578.09,225.13Z" transform="translate(-144.07 -110.98)" style="fill:#243b4c"></path><path d="M557.89,216.71a1.41,1.41,0,1,0-1.4-1.41A1.4,1.4,0,0,0,557.89,216.71Z" transform="translate(-144.07 -110.98)" style="fill:#243b4c"></path><path d="M581.48,216.71a1.41,1.41,0,1,0-1.4-1.41A1.4,1.4,0,0,0,581.48,216.71Z" transform="translate(-144.07 -110.98)" style="fill:#243b4c"></path><path d="M561.36,225.13a1.41,1.41,0,1,0-1.4-1.41A1.41,1.41,0,0,0,561.36,225.13Z" transform="translate(-144.07 -110.98)" style="fill:#243b4c"></path><path d="M578.09,208.36a1.4,1.4,0,1,0-1.4-1.4A1.4,1.4,0,0,0,578.09,208.36Z" transform="translate(-144.07 -110.98)" style="fill:#243b4c"></path><path d="M569.69,216.93a1.41,1.41,0,1,0-1.4-1.4A1.4,1.4,0,0,0,569.69,216.93Z" transform="translate(-144.07 -110.98)" style="fill:#243b4c"></path><path d="M569.69,206.66l-1.33,8.87h2.73Z" transform="translate(-144.07 -110.98)" style="fill:#243b4c"></path><path d="M578.09,215.53l-8.48-1.41v2.74Z" transform="translate(-144.07 -110.98)" style="fill:#243b4c"></path><path d="M563.72,154.53a64.3,64.3,0,0,0-12.24,125.54,63.53,63.53,0,0,0,36.41.15,64.35,64.35,0,0,0-12.75-125.84" transform="translate(-144.07 -110.98)" style="fill:none;stroke:#293b4a;stroke-miterlimit:10;stroke-width:1.8907500505447388px"></path><path d="M631.09,212.2a24.74,24.74,0,1,0-24.69-24.74A24.72,24.72,0,0,0,631.09,212.2Z" transform="translate(-144.07 -110.98)" style="fill:#fff;stroke:#293b4a;stroke-linejoin:round;stroke-width:1.8907500505447388px"></path><path d="M635.07,173.73a6.69,6.69,0,0,0,1.26,3.47,14.4,14.4,0,0,1,.81,1.4,1.34,1.34,0,0,1-1.26,1.92h-.44v6.28H630.8c0,7.75,13.19,11.3,13.19,11.3" transform="translate(-144.07 -110.98)" style="fill:none;stroke:#293b4a;stroke-miterlimit:10;stroke-width:1.8907500505447388px"></path><path d="M633,177.94a.74.74,0,1,0-.74-.74A.74.74,0,0,0,633,177.94Z" transform="translate(-144.07 -110.98)" style="fill:#293b4a"></path><path d="M620.48,199c5.67-4.72,3.61-16.61,3.61-16.61" transform="translate(-144.07 -110.98)" style="fill:none;stroke:#293b4a;stroke-miterlimit:10;stroke-width:1.8907500505447388px"></path><path d="M630.13,173.51c3.87,0,7-2,7-4.51s-3.14-4.5-7-4.5-7,2-7,4.5S626.27,173.51,630.13,173.51Z" transform="translate(-144.07 -110.98)" style="fill:#293b4a"></path><path d="M628.33,175.83c1.64-1.65,2.11-3.85,1-4.91s-3.26-.6-4.9,1-2.11,3.84-1,4.91S626.69,177.47,628.33,175.83Z" transform="translate(-144.07 -110.98)" style="fill:#293b4a"></path><path d="M626.08,179.79c1.07-1.07.6-3.27-1-4.91s-3.83-2.11-4.9-1-.6,3.26,1,4.9S625,180.86,626.08,179.79Z" transform="translate(-144.07 -110.98)" style="fill:#293b4a"></path><path d="M624.75,182.4c1.06-1.07.59-3.27-1-4.91s-3.83-2.11-4.9-1-.59,3.26,1.05,4.9S623.68,183.47,624.75,182.4Z" transform="translate(-144.07 -110.98)" style="fill:#293b4a"></path><path d="M621.51,186.43c1.51,0,2.73-1.89,2.73-4.21S623,178,621.51,178s-2.73,1.89-2.73,4.21S620,186.43,621.51,186.43Z" transform="translate(-144.07 -110.98)" style="fill:#293b4a"></path><path d="M629.77,174c1.5,0,2.72-1.88,2.72-4.21s-1.22-4.21-2.72-4.21-2.73,1.89-2.73,4.21S628.26,174,629.77,174Z" transform="translate(-144.07 -110.98)" style="fill:#293b4a"></path><path d="M636.1,174.54c1.51,0,2.73-1.89,2.73-4.21s-1.22-4.21-2.73-4.21-2.72,1.88-2.72,4.21S634.6,174.54,636.1,174.54Z" transform="translate(-144.07 -110.98)" style="fill:#293b4a"></path><path d="M640.45,168.69c.92-1.19.17-3.31-1.67-4.73s-4.07-1.6-5-.4-.17,3.32,1.67,4.73S639.53,169.89,640.45,168.69Z" transform="translate(-144.07 -110.98)" style="fill:#293b4a"></path><path d="M635.77,167c.92-1.19.17-3.31-1.67-4.73s-4.07-1.59-5-.4-.17,3.32,1.67,4.73S634.85,168.17,635.77,167Z" transform="translate(-144.07 -110.98)" style="fill:#293b4a"></path><path d="M631.22,167c.91-1.19.17-3.31-1.67-4.73s-4.08-1.6-5-.4-.18,3.32,1.66,4.73S630.3,168.2,631.22,167Z" transform="translate(-144.07 -110.98)" style="fill:#293b4a"></path><path d="M625.48,171.14c.92-1.2.17-3.32-1.67-4.74s-4.07-1.59-5-.4-.17,3.32,1.67,4.74S624.56,172.33,625.48,171.14Z" transform="translate(-144.07 -110.98)" style="fill:#293b4a"></path><path d="M620.46,183.28c.92-1.2.18-3.32-1.66-4.73s-4.08-1.6-5-.41-.17,3.32,1.67,4.74S619.55,184.47,620.46,183.28Z" transform="translate(-144.07 -110.98)" style="fill:#293b4a"></path><path d="M617.9,178.82a3.66,3.66,0,1,0-4.2-3.62A3.94,3.94,0,0,0,617.9,178.82Z" transform="translate(-144.07 -110.98)" style="fill:#293b4a"></path><path d="M615.54,173.87a2.73,2.73,0,1,0-2.73-2.73A2.73,2.73,0,0,0,615.54,173.87Z" transform="translate(-144.07 -110.98)" style="fill:#293b4a"></path><path d="M625.5,174.37c1.1-1.42.18-4-2-5.68s-4.92-2-6-.54-.17,4,2,5.69S624.41,175.79,625.5,174.37Z" transform="translate(-144.07 -110.98)" style="fill:#293b4a"></path><path d="M617.82,171a4.21,4.21,0,1,0-4.2-4.21A4.2,4.2,0,0,0,617.82,171Z" transform="translate(-144.07 -110.98)" style="fill:#293b4a"></path><path d="M627.52,166.3c.92-1.2.18-3.32-1.66-4.74s-4.08-1.59-5-.4-.17,3.32,1.67,4.74S626.6,167.49,627.52,166.3Z" transform="translate(-144.07 -110.98)" style="fill:#293b4a"></path><path d="M625.6,164.33a3.69,3.69,0,1,0-5.07-1.59A3.77,3.77,0,0,0,625.6,164.33Z" transform="translate(-144.07 -110.98)" style="fill:#293b4a"></path><path d="M624.15,166.34c.92-1.2.17-3.32-1.66-4.73s-4.08-1.6-5-.41-.17,3.32,1.67,4.74S623.23,167.53,624.15,166.34Z" transform="translate(-144.07 -110.98)" style="fill:#293b4a"></path><path d="M632.54,165.09c.92-1.2.18-3.32-1.66-4.73s-4.08-1.6-5-.4-.17,3.31,1.67,4.73S631.63,166.29,632.54,165.09Z" transform="translate(-144.07 -110.98)" style="fill:#293b4a"></path><path d="M637.28,164a4.24,4.24,0,1,0-5.57.36A4,4,0,0,0,637.28,164Z" transform="translate(-144.07 -110.98)" style="fill:#293b4a"></path><path d="M631.43,160.87a3.22,3.22,0,1,0-4.13.17A3,3,0,0,0,631.43,160.87Z" transform="translate(-144.07 -110.98)" style="fill:#293b4a"></path><path d="M629.32,182.29a3.29,3.29,0,0,0,3.54,1" transform="translate(-144.07 -110.98)" style="fill:none;stroke:#293b4a;stroke-miterlimit:10;stroke-width:1.8907500505447388px"></path><path d="M622.47,196.55s6,5.76,10.54,5.24,5.82-5.69,5.82-5.69" transform="translate(-144.07 -110.98)" style="fill:none;stroke:#293b4a;stroke-linejoin:round;stroke-width:1.8907500505447388px"></path><path d="M498.63,405.47S494.87,383.83,484,375c0,0,12.75-1.33,17,1.4" transform="translate(-144.07 -110.98)" style="fill:none;stroke:#293b4a;stroke-miterlimit:10;stroke-width:1.8907500505447388px"></path><path d="M512.85,388.12c-5.45-9.6-12.38-19.35-17.84-22l1.55,9.23" transform="translate(-144.07 -110.98)" style="fill:none;stroke:#293b4a;stroke-miterlimit:10;stroke-width:1.8907500505447388px"></path><path d="M520.52,403.7a129.53,129.53,0,0,0-5.75-12" transform="translate(-144.07 -110.98)" style="fill:none;stroke:#293b4a;stroke-miterlimit:10;stroke-width:1.8907500505447388px"></path><path d="M517.05,374.16c-13-7.68-22-8-22-8" transform="translate(-144.07 -110.98)" style="fill:none;stroke:#293b4a;stroke-miterlimit:10;stroke-width:1.8907500505447388px"></path><path d="M520,366.85c6,8.56,12.9,21.27,14.82,36.85" transform="translate(-144.07 -110.98)" style="fill:none;stroke:#293b4a;stroke-miterlimit:10;stroke-width:1.8907500505447388px"></path><path d="M511.89,369.43,509.83,355a69.54,69.54,0,0,1,8,8.93" transform="translate(-144.07 -110.98)" style="fill:none;stroke:#293b4a;stroke-miterlimit:10;stroke-width:1.8907500505447388px"></path><path d="M547.65,383.46c13.49-6.42,22.77-2.73,22.77-2.73s2.81,8-1.76,23" transform="translate(-144.07 -110.98)" style="fill:none;stroke:#293b4a;stroke-miterlimit:10;stroke-width:1.8907500505447388px"></path><path d="M509.83,354.88c12.09,2.15,26.24,11.75,35.09,29.91" transform="translate(-144.07 -110.98)" style="fill:none;stroke:#293b4a;stroke-miterlimit:10;stroke-width:1.8907500505447388px"></path><path d="M543.74,389.89a20,20,0,0,0,1.18-5.1" transform="translate(-144.07 -110.98)" style="fill:none;stroke:#293b4a;stroke-miterlimit:10;stroke-width:1.8907500505447388px"></path><path d="M536.81,403.7a58.31,58.31,0,0,0,6-11.45" transform="translate(-144.07 -110.98)" style="fill:none;stroke:#293b4a;stroke-miterlimit:10;stroke-width:1.8907500505447388px"></path><path d="M544.92,384.87c13.64,4.43,22.48,18.9,22.48,18.9" transform="translate(-144.07 -110.98)" style="fill:none;stroke:#293b4a;stroke-miterlimit:10;stroke-width:1.8907500505447388px"></path><path d="M590.77,403.85c-11.06-10.12-16.36-14.18-16.36-14.18" transform="translate(-144.07 -110.98)" style="fill:none;stroke:#293b4a;stroke-miterlimit:10;stroke-width:1.8907500505447388px"></path><path d="M579.57,403.85l-5.16-14.18c5.6-.3,13.34,3.17,13.34,3.17a31.2,31.2,0,0,1,20.12-3.47l-6,14.48" transform="translate(-144.07 -110.98)" style="fill:none;stroke:#293b4a;stroke-miterlimit:10;stroke-width:1.8907500505447388px"></path><path d="M527.45,406.51h35.46" transform="translate(-144.07 -110.98)" style="fill:none;stroke:#293b4a;stroke-miterlimit:10;stroke-width:1.8907500505447388px"></path><path d="M593.28,403.85h30.15" transform="translate(-144.07 -110.98)" style="fill:none;stroke:#293b4a;stroke-miterlimit:10;stroke-width:1.8907500505447388px"></path><path d="M552.29,363.67h27.2" transform="translate(-144.07 -110.98)" style="fill:none;stroke:#2a3b4a;stroke-linecap:round;stroke-linejoin:round;stroke-width:1.8907500505447388px"></path><path d="M584.5,362.93h15" transform="translate(-144.07 -110.98)" style="fill:none;stroke:#2a3b4a;stroke-linecap:round;stroke-linejoin:round;stroke-width:1.8907500505447388px"></path><path d="M603.08,362.93h23.59a6.93,6.93,0,0,0-6.93-6.94,7.66,7.66,0,0,0-1.77.22,13,13,0,0,0-11.2-6.42,13.52,13.52,0,0,0-6.2,1.55,18.41,18.41,0,0,0-14.37-6.94,18.18,18.18,0,0,0-14.38,7" transform="translate(-144.07 -110.98)" style="fill:none;stroke:#2a3b4a;stroke-linecap:round;stroke-linejoin:round;stroke-width:1.8907500505447388px"></path><path d="M563.13,369.29a24.75,24.75,0,1,0-24.7-24.75A24.72,24.72,0,0,0,563.13,369.29Z" transform="translate(-144.07 -110.98)" style="fill:#fff;stroke:#293b4a;stroke-linejoin:round;stroke-width:1.8907500505447388px"></path><path d="M565.78,344.54s.74-3,0-4.06a.71.71,0,0,0-1-.22l-1,.44a2,2,0,0,1-.73-2.28c.37-1.78,0-3-1.92-2.74s-8,.08-8-.88c0-5.32,6.26-9.83,13.56-7.17,6.56,2.44,6.56,9.38,6.12,12s-3.46,7-4.79,7.83C568.07,347.43,567.33,344.84,565.78,344.54Z" transform="translate(-144.07 -110.98)" style="fill:#293b4a"></path><path d="M555.68,336.64a21.44,21.44,0,0,1-2.87,8.27,1.16,1.16,0,0,0,.73,1.78l2.14.29" transform="translate(-144.07 -110.98)" style="fill:none;stroke:#293b4a;stroke-linejoin:round;stroke-width:1.8907500505447388px"></path><path d="M560.69,348.16a4.59,4.59,0,0,1-4.49.67" transform="translate(-144.07 -110.98)" style="fill:none;stroke:#293b4a;stroke-miterlimit:10;stroke-width:1.8907500505447388px"></path><path d="M563.94,351.78c-6.49,2.81-10,.37-10,.37v-5.39" transform="translate(-144.07 -110.98)" style="fill:none;stroke:#293b4a;stroke-miterlimit:10;stroke-width:1.8907500505447388px"></path><path d="M556.27,340.34c0,2.65,3.76,5.46,5.09-.52l-9.29-1.55s-.52,3.47,2.28,3.91" transform="translate(-144.07 -110.98)" style="fill:none;stroke:#293b4a;stroke-miterlimit:10;stroke-width:1.8907500505447388px"></path><path d="M556.64,357.91c1.33,3.84,9.58,4.51,12.24.81s-1.33-6.86-.89-14.69" transform="translate(-144.07 -110.98)" style="fill:none;stroke:#293b4a;stroke-linejoin:round;stroke-width:1.8907500505447388px"></path><path d="M481.6,405.4h25.06" transform="translate(-144.07 -110.98)" style="fill:none;stroke:#293b4a;stroke-miterlimit:10;stroke-width:1.8907500505447388px"></path><path d="M528.48,266.19a24.7,24.7,0,1,1-24.69-24.74A24.52,24.52,0,0,1,528.48,266.19Z" transform="translate(-144.07 -110.98)" style="fill:#fff;stroke:#293b4a;stroke-linejoin:round;stroke-width:1.8907500505447388px"></path><path d="M501.65,261.24a.74.74,0,1,0-.74-.74A.74.74,0,0,0,501.65,261.24Z" transform="translate(-144.07 -110.98)" style="fill:#293b4a"></path><path d="M495.82,260.5a.74.74,0,1,0-.73-.74A.74.74,0,0,0,495.82,260.5Z" transform="translate(-144.07 -110.98)" style="fill:#293b4a"></path><path d="M499.44,257a26.37,26.37,0,0,0-3.62,8l3.4.51" transform="translate(-144.07 -110.98)" style="fill:none;stroke:#293b4a;stroke-linejoin:round;stroke-width:1.8907500505447388px"></path><path d="M502.9,267.15a3.57,3.57,0,0,1-4,2.07" transform="translate(-144.07 -110.98)" style="fill:none;stroke:#293b4a;stroke-miterlimit:10;stroke-width:1.8907500505447388px"></path><path d="M494.5,254a.28.28,0,0,0,.51.15c1-1.7,3.39-.52,3.39-.52,3.4-3.76,10.32,0,7.74,2.88a.88.88,0,0,0-.22.59v.08a.86.86,0,0,0,1.4.52c1-.89,2.29-1.63,1.26,1.4-1.18,3.4-1.92,3.69-2.21,3.62a.15.15,0,0,0-.15.15l.29,2.58a4.54,4.54,0,0,1,.22,1.4v.3a16.27,16.27,0,0,0,2.58-2.29c5.31-5.61,3.54-11.23,1.4-14.7-2.94-4.72-9.43-6-13.56-2.29A8.57,8.57,0,0,0,494.5,254Z" transform="translate(-144.07 -110.98)" style="fill:#293b4a;fill-rule:evenodd"></path><path d="M496.41,266.93a13.94,13.94,0,0,1-.59,5.46s.82,1.18,3.47,1.11,5.45-1.92,6.93-4.36" transform="translate(-144.07 -110.98)" style="fill:none;stroke:#293b4a;stroke-miterlimit:10;stroke-width:1.8907500505447388px"></path><path d="M508.87,264.19s-.59,7.83.59,10.42-4.49,7.68-8.62,3.76" transform="translate(-144.07 -110.98)" style="fill:none;stroke:#293b4a;stroke-miterlimit:10;stroke-width:1.8907500505447388px"></path><path d="M509.46,274.61s10.84-.15,12.61,8.2" transform="translate(-144.07 -110.98)" style="fill:none;stroke:#293b4a;stroke-linejoin:round;stroke-width:1.8907500505447388px"></path><path d="M496.64,276.31s-9.59,2.29-10.25,7.46" transform="translate(-144.07 -110.98)" style="fill:none;stroke:#293b4a;stroke-linejoin:round;stroke-width:1.8907500505447388px"></path><path d="M649.89,226.83l3.46,3.39.67.74.81.81,13.93-14" transform="translate(-144.07 -110.98)" style="fill:none;stroke:#19ad4a;stroke-miterlimit:10;stroke-width:1.8907500505447388px"></path><path d="M664.19,222.39a10.12,10.12,0,0,1,.88,1.78,12,12,0,0,1,.89,4.35,11.59,11.59,0,1,1-5.31-9.74" transform="translate(-144.07 -110.98)" style="fill:none;stroke:#2a3b4a;stroke-miterlimit:10;stroke-width:1.8907500505447388px"></path><path d="M514.7,330l3.39,3.47.66.66.81.81,13.93-13.88" transform="translate(-144.07 -110.98)" style="fill:none;stroke:#19ad4a;stroke-miterlimit:10;stroke-width:1.8907500505447388px"></path><path d="M528.92,325.64a9.78,9.78,0,0,1,.89,1.77,12.23,12.23,0,0,1,.88,4.36,11.59,11.59,0,1,1-5.31-9.75" transform="translate(-144.07 -110.98)" style="fill:none;stroke:#2a3b4a;stroke-miterlimit:10;stroke-width:1.8907500505447388px"></path></g></svg>