<svg xmlns="http://www.w3.org/2000/svg" xmlns:xlink="http://www.w3.org/1999/xlink" id="Layer_1" data-name="Layer 1" viewBox="0 0 321 287"><defs><clipPath id="clip-path" transform="translate(-291.65 -136.9)"><rect x="374.65" y="160.9" width="161" height="133" style="fill:none"></rect></clipPath></defs><rect width="321" height="287" rx="12.41" style="fill:#fff"></rect><path d="M353.35,360.9V349.7h2l3.79,7.45,3.77-7.45h2v11.2h-1.69v-8.27l-3.43,6.67h-1.31L355,352.64v8.26Zm16.46.19a3.55,3.55,0,0,1-1.66-.34,2.28,2.28,0,0,1-1-.88,2.4,2.4,0,0,1-.32-1.21,2.17,2.17,0,0,1,.9-1.83,4.26,4.26,0,0,1,2.56-.67h2.08V356a1.78,1.78,0,0,0-.51-1.39,1.84,1.84,0,0,0-1.3-.47,2.19,2.19,0,0,0-1.23.35,1.42,1.42,0,0,0-.62,1H367a2.59,2.59,0,0,1,.58-1.47,3.1,3.1,0,0,1,1.28-.94,4.18,4.18,0,0,1,1.71-.34,3.52,3.52,0,0,1,2.57.88,3.12,3.12,0,0,1,.92,2.37v4.88h-1.48l-.14-1.36a2.94,2.94,0,0,1-1,1.1A2.83,2.83,0,0,1,369.81,361.09Zm.34-1.38a1.93,1.93,0,0,0,1.15-.32,2.12,2.12,0,0,0,.74-.88,3.33,3.33,0,0,0,.33-1.2h-1.88a2.23,2.23,0,0,0-1.44.36,1.08,1.08,0,0,0-.42.88,1,1,0,0,0,.4.86A1.88,1.88,0,0,0,370.15,359.71Zm5.91,1.19V353h1.51l.13,1.39a2.7,2.7,0,0,1,1.07-1.15,3.12,3.12,0,0,1,1.65-.43,2.87,2.87,0,0,1,2.25.9,3.75,3.75,0,0,1,.83,2.67v4.56h-1.68v-4.39c0-1.53-.63-2.3-1.88-2.3a2,2,0,0,0-1.57.67,2.75,2.75,0,0,0-.61,1.92v4.1Zm12.13.19a3.6,3.6,0,0,1-1.67-.34,2.25,2.25,0,0,1-1-.88,2.4,2.4,0,0,1-.32-1.21,2.18,2.18,0,0,1,.89-1.83,4.29,4.29,0,0,1,2.56-.67h2.08V356a1.78,1.78,0,0,0-.51-1.39,1.81,1.81,0,0,0-1.29-.47,2.25,2.25,0,0,0-1.24.35,1.45,1.45,0,0,0-.62,1h-1.7a2.74,2.74,0,0,1,.58-1.47,3.17,3.17,0,0,1,1.28-.94,4.18,4.18,0,0,1,1.71-.34,3.56,3.56,0,0,1,2.58.88,3.11,3.11,0,0,1,.91,2.37v4.88H391l-.15-1.36a2.91,2.91,0,0,1-1,1.1A2.88,2.88,0,0,1,388.19,361.09Zm.33-1.38a2,2,0,0,0,1.16-.32,2.1,2.1,0,0,0,.73-.88,3.34,3.34,0,0,0,.34-1.2h-1.89a2.27,2.27,0,0,0-1.44.36,1.08,1.08,0,0,0-.42.88,1.06,1.06,0,0,0,.4.86A1.9,1.9,0,0,0,388.52,359.71Zm9.17-1.24a4.28,4.28,0,0,1-1.16-.15l-.68.67a1.72,1.72,0,0,0,.43.2,4.82,4.82,0,0,0,.72.14c.31,0,.73.09,1.26.13a3.91,3.91,0,0,1,2.29.77,2,2,0,0,1,.7,1.63,2.47,2.47,0,0,1-.38,1.33,2.63,2.63,0,0,1-1.17,1,4.36,4.36,0,0,1-2,.4A5.11,5.11,0,0,1,395,364a2.08,2.08,0,0,1-1-1.9,2.21,2.21,0,0,1,.25-1,3.26,3.26,0,0,1,.85-.91,3.61,3.61,0,0,1-.59-.3c-.16-.12-.3-.24-.43-.35v-.39l1.37-1.41a2.64,2.64,0,0,1-.92-2.09,2.89,2.89,0,0,1,.36-1.43,2.86,2.86,0,0,1,1.11-1,3.68,3.68,0,0,1,1.73-.38,3.84,3.84,0,0,1,1.24.19h3v1.12l-1.4.08a2.92,2.92,0,0,1,.38,1.46,2.82,2.82,0,0,1-.38,1.44,2.63,2.63,0,0,1-1.09,1A3.49,3.49,0,0,1,397.69,358.47Zm0-1.33a1.73,1.73,0,0,0,1.18-.39,1.59,1.59,0,0,0,0-2.24,1.78,1.78,0,0,0-1.18-.38,1.87,1.87,0,0,0-1.22.38,1.62,1.62,0,0,0,0,2.24A1.82,1.82,0,0,0,397.69,357.14Zm-2.13,4.77a1.08,1.08,0,0,0,.61,1,2.92,2.92,0,0,0,1.52.35,2.46,2.46,0,0,0,1.42-.38,1.15,1.15,0,0,0,.54-1,1.05,1.05,0,0,0-.36-.8,2.45,2.45,0,0,0-1.4-.4c-.51,0-1-.08-1.36-.15a1.88,1.88,0,0,0-.76.66A1.32,1.32,0,0,0,395.56,361.91Zm11.25-.82a4.16,4.16,0,0,1-2.08-.51,3.74,3.74,0,0,1-1.41-1.46,4.42,4.42,0,0,1-.51-2.16,4.65,4.65,0,0,1,.49-2.19,3.7,3.7,0,0,1,1.41-1.47,4.16,4.16,0,0,1,2.11-.53,3.81,3.81,0,0,1,2,.53,3.62,3.62,0,0,1,1.35,1.37,3.9,3.9,0,0,1,.48,1.91c0,.11,0,.22,0,.35s0,.25,0,.4h-6.18a2.46,2.46,0,0,0,.75,1.76,2.34,2.34,0,0,0,1.59.59,2.07,2.07,0,0,0,1.2-.32,2,2,0,0,0,.73-.89h1.7a3.58,3.58,0,0,1-1.28,1.87A3.66,3.66,0,0,1,406.81,361.09Zm0-6.93a2.4,2.4,0,0,0-1.51.51,2.26,2.26,0,0,0-.8,1.51H409a2,2,0,0,0-.65-1.47A2.19,2.19,0,0,0,406.81,354.16Zm12.35,6.93a3.6,3.6,0,0,1-1.67-.34,2.25,2.25,0,0,1-1-.88,2.31,2.31,0,0,1-.32-1.21,2.18,2.18,0,0,1,.89-1.83,4.26,4.26,0,0,1,2.56-.67h2.08V356a1.78,1.78,0,0,0-.51-1.39,1.81,1.81,0,0,0-1.29-.47,2.25,2.25,0,0,0-1.24.35,1.42,1.42,0,0,0-.62,1h-1.7a2.74,2.74,0,0,1,.58-1.47,3.17,3.17,0,0,1,1.28-.94,4.18,4.18,0,0,1,1.71-.34,3.56,3.56,0,0,1,2.58.88,3.11,3.11,0,0,1,.91,2.37v4.88H422l-.15-1.36a3,3,0,0,1-1,1.1A2.88,2.88,0,0,1,419.16,361.09Zm.33-1.38a2,2,0,0,0,1.16-.32,2.1,2.1,0,0,0,.73-.88,3.56,3.56,0,0,0,.34-1.2h-1.89a2.27,2.27,0,0,0-1.44.36,1.08,1.08,0,0,0-.42.88,1.06,1.06,0,0,0,.4.86A1.88,1.88,0,0,0,419.49,359.71Zm5.92,1.19V349.38h1.69V360.9Zm3.84,0V349.38H431V360.9Zm10.8.19a3,3,0,0,1-2.27-.9,3.84,3.84,0,0,1-.81-2.67V353h1.69v4.39c0,1.53.63,2.3,1.89,2.3a2,2,0,0,0,1.55-.67,2.75,2.75,0,0,0,.61-1.92V353h1.7v7.94H442.9l-.13-1.39a2.69,2.69,0,0,1-1.08,1.16A3.15,3.15,0,0,1,440.05,361.09Zm9.68,0a4,4,0,0,1-2.48-.74,2.77,2.77,0,0,1-1.12-2h1.71a1.76,1.76,0,0,0,.61,1,2,2,0,0,0,1.27.38,1.66,1.66,0,0,0,1.12-.32,1,1,0,0,0,.35-.74.8.8,0,0,0-.5-.81,6.42,6.42,0,0,0-1.34-.4,11.43,11.43,0,0,1-1.35-.39,3.13,3.13,0,0,1-1.1-.67,1.65,1.65,0,0,1-.43-1.2,2.17,2.17,0,0,1,.8-1.73,3.92,3.92,0,0,1,4.38-.06,2.58,2.58,0,0,1,1,1.81H451a1.21,1.21,0,0,0-.48-.8,1.73,1.73,0,0,0-1-.29,1.63,1.63,0,0,0-1,.27.81.81,0,0,0-.35.67.73.73,0,0,0,.48.66,6.56,6.56,0,0,0,1.3.43,12.89,12.89,0,0,1,1.47.42,2.47,2.47,0,0,1,1.1.67,1.86,1.86,0,0,1,.42,1.31,2.2,2.2,0,0,1-.85,1.81A3.46,3.46,0,0,1,449.73,361.09Zm8.73,0a4.19,4.19,0,0,1-2.08-.51,3.88,3.88,0,0,1-1.41-1.46,4.42,4.42,0,0,1-.51-2.16,4.65,4.65,0,0,1,.5-2.19,3.7,3.7,0,0,1,1.41-1.47,4.13,4.13,0,0,1,2.11-.53,3.84,3.84,0,0,1,2,.53,3.6,3.6,0,0,1,1.34,1.37,3.9,3.9,0,0,1,.48,1.91c0,.11,0,.22,0,.35s0,.25,0,.4h-6.17a2.46,2.46,0,0,0,.75,1.76,2.34,2.34,0,0,0,1.58.59,2.07,2.07,0,0,0,1.2-.32,2,2,0,0,0,.74-.89h1.69a3.58,3.58,0,0,1-1.28,1.87A3.64,3.64,0,0,1,458.46,361.09Zm0-6.93a2.39,2.39,0,0,0-1.5.51,2.18,2.18,0,0,0-.8,1.51h4.48a2,2,0,0,0-.66-1.47A2.15,2.15,0,0,0,458.46,354.16Zm5.63,6.74V353h1.52l.15,1.51a3.13,3.13,0,0,1,1.15-1.24,3.45,3.45,0,0,1,1.81-.46v1.78h-.47a3.18,3.18,0,0,0-1.26.24,1.84,1.84,0,0,0-.88.78,3,3,0,0,0-.32,1.52v3.81Zm9.25.19a4,4,0,0,1-2.48-.74,2.77,2.77,0,0,1-1.12-2h1.71a1.76,1.76,0,0,0,.61,1,2,2,0,0,0,1.26.38,1.63,1.63,0,0,0,1.12-.32,1,1,0,0,0,.36-.74.8.8,0,0,0-.5-.81,6.42,6.42,0,0,0-1.34-.4,11.43,11.43,0,0,1-1.35-.39,3.13,3.13,0,0,1-1.1-.67,1.65,1.65,0,0,1-.43-1.2,2.17,2.17,0,0,1,.8-1.73,3.92,3.92,0,0,1,4.38-.06,2.58,2.58,0,0,1,1,1.81H474.6a1.14,1.14,0,0,0-.48-.8,1.69,1.69,0,0,0-1-.29,1.62,1.62,0,0,0-1,.27.81.81,0,0,0-.35.67.73.73,0,0,0,.48.66,6.56,6.56,0,0,0,1.3.43,12.89,12.89,0,0,1,1.47.42,2.47,2.47,0,0,1,1.1.67,1.86,1.86,0,0,1,.42,1.31,2.2,2.2,0,0,1-.85,1.81A3.46,3.46,0,0,1,473.34,361.09Zm11.74,0a3.53,3.53,0,0,1-1.66-.34,2.23,2.23,0,0,1-1-.88,2.4,2.4,0,0,1-.32-1.21,2.17,2.17,0,0,1,.9-1.83,4.24,4.24,0,0,1,2.56-.67h2.08V356a1.79,1.79,0,0,0-.52-1.39,1.81,1.81,0,0,0-1.29-.47,2.19,2.19,0,0,0-1.23.35,1.43,1.43,0,0,0-.63,1H482.3a2.66,2.66,0,0,1,.57-1.47,3.17,3.17,0,0,1,1.28-.94,4.18,4.18,0,0,1,1.71-.34,3.56,3.56,0,0,1,2.58.88,3.11,3.11,0,0,1,.91,2.37v4.88h-1.47l-.14-1.36a3,3,0,0,1-1,1.1A2.88,2.88,0,0,1,485.08,361.09Zm.34-1.38a2,2,0,0,0,1.15-.32,2.1,2.1,0,0,0,.73-.88,3.34,3.34,0,0,0,.34-1.2h-1.89a2.27,2.27,0,0,0-1.44.36,1.08,1.08,0,0,0-.41.88,1,1,0,0,0,.4.86A1.86,1.86,0,0,0,485.42,359.71Zm5.91,1.19V353h1.5l.13,1.39A2.76,2.76,0,0,1,494,353.2a3.12,3.12,0,0,1,1.65-.43,2.91,2.91,0,0,1,2.26.9,3.8,3.8,0,0,1,.83,2.67v4.56h-1.68v-4.39c0-1.53-.63-2.3-1.89-2.3a2,2,0,0,0-1.57.67,2.8,2.8,0,0,0-.61,1.92v4.1Zm13.05.19a3.8,3.8,0,0,1-2-.54,3.89,3.89,0,0,1-1.38-1.49,4.57,4.57,0,0,1-.49-2.15,4.42,4.42,0,0,1,.49-2.12,3.79,3.79,0,0,1,1.38-1.48,3.9,3.9,0,0,1,2-.54,3.46,3.46,0,0,1,1.65.37,2.68,2.68,0,0,1,1.12,1v-4.8h1.69V360.9h-1.52l-.17-1.23a3.76,3.76,0,0,1-1.06,1A3.13,3.13,0,0,1,504.38,361.09Zm.31-1.47a2.3,2.3,0,0,0,1.77-.75,3,3,0,0,0,0-3.88,2.3,2.3,0,0,0-1.77-.75,2.36,2.36,0,0,0-1.8.75,2.75,2.75,0,0,0-.7,1.94,3,3,0,0,0,.32,1.39,2.4,2.4,0,0,0,.88,1A2.47,2.47,0,0,0,504.69,359.62Zm12.57,1.28-3-7.94h1.78l2.2,6.32,2.21-6.32h1.76l-3,7.94Zm7.33-9.44a1.16,1.16,0,0,1-.8-.29,1,1,0,0,1-.31-.75,1,1,0,0,1,.31-.74,1.12,1.12,0,0,1,.8-.3,1.06,1.06,0,0,1,.78.3,1,1,0,0,1,.32.74,1,1,0,0,1-.32.75A1.09,1.09,0,0,1,524.59,351.46Zm-.85,9.44V353h1.69v7.94Zm7.64.19a4.22,4.22,0,0,1-2.08-.51,3.78,3.78,0,0,1-1.4-1.46,4.42,4.42,0,0,1-.52-2.16,4.65,4.65,0,0,1,.5-2.19,3.7,3.7,0,0,1,1.41-1.47,4.16,4.16,0,0,1,2.11-.53,3.81,3.81,0,0,1,2,.53,3.62,3.62,0,0,1,1.35,1.37,3.9,3.9,0,0,1,.48,1.91c0,.11,0,.22,0,.35a2.89,2.89,0,0,1,0,.4h-6.17a2.46,2.46,0,0,0,.75,1.76,2.34,2.34,0,0,0,1.58.59,2.07,2.07,0,0,0,1.2-.32,2,2,0,0,0,.74-.89H535a3.64,3.64,0,0,1-1.28,1.87A3.68,3.68,0,0,1,531.38,361.09Zm0-6.93a2.39,2.39,0,0,0-1.5.51,2.22,2.22,0,0,0-.8,1.51h4.48a2,2,0,0,0-.66-1.47A2.15,2.15,0,0,0,531.38,354.16Zm6.91,6.74L536,353h1.7l1.53,6,1.73-6h1.89l1.73,6,1.53-6h1.7l-2.34,7.94h-1.74l-1.82-6.24L540,360.9ZM405,386.09a4.2,4.2,0,0,1-2.1-.53,3.78,3.78,0,0,1-1.44-1.45,4.53,4.53,0,0,1-.51-2.18,4.42,4.42,0,0,1,.51-2.16,3.77,3.77,0,0,1,1.44-1.47,4.2,4.2,0,0,1,2.1-.53,3.91,3.91,0,0,1,2.46.77,3.44,3.44,0,0,1,1.3,2.08H407a1.67,1.67,0,0,0-.7-1,2.26,2.26,0,0,0-1.28-.36,2.25,2.25,0,0,0-2,1.23,3.08,3.08,0,0,0-.32,1.47,3.22,3.22,0,0,0,.32,1.49,2.27,2.27,0,0,0,.85.91,2.31,2.31,0,0,0,2.43-.05,1.64,1.64,0,0,0,.7-1h1.78a3.46,3.46,0,0,1-1.28,2.07A3.93,3.93,0,0,1,405,386.09Zm9.31,0a4.13,4.13,0,0,1-2.05-.51,3.83,3.83,0,0,1-1.42-1.46,4.44,4.44,0,0,1-.53-2.19,4.37,4.37,0,0,1,.53-2.18,3.88,3.88,0,0,1,1.45-1.45,4,4,0,0,1,2-.53,4,4,0,0,1,2,.53,3.72,3.72,0,0,1,1.44,1.45,4.27,4.27,0,0,1,.54,2.18,4.34,4.34,0,0,1-.54,2.19,3.81,3.81,0,0,1-1.44,1.46A4.13,4.13,0,0,1,414.33,386.09Zm0-1.46a2.16,2.16,0,0,0,1.12-.3,2.24,2.24,0,0,0,.85-.9,3.2,3.2,0,0,0,.32-1.5,3.16,3.16,0,0,0-.32-1.49,2.1,2.1,0,0,0-.83-.91,2.21,2.21,0,0,0-1.12-.3,2.26,2.26,0,0,0-1.14.3,2.23,2.23,0,0,0-.83.91,3,3,0,0,0-.32,1.49,3.08,3.08,0,0,0,.32,1.5,2.2,2.2,0,0,0,.83.9A2.16,2.16,0,0,0,414.33,384.63Zm5.87,1.27V378h1.5l.14,1.12a3,3,0,0,1,1-1,3.07,3.07,0,0,1,1.47-.35,2.68,2.68,0,0,1,2.63,1.49,3.17,3.17,0,0,1,1.15-1.09,3.23,3.23,0,0,1,1.58-.4,3.06,3.06,0,0,1,2.34.9,3.71,3.71,0,0,1,.85,2.67v4.56h-1.7v-4.39c0-1.53-.58-2.3-1.76-2.3a1.83,1.83,0,0,0-1.47.67,3,3,0,0,0-.56,1.92v4.1h-1.7v-4.39c0-1.53-.59-2.3-1.77-2.3a1.84,1.84,0,0,0-1.46.67,3,3,0,0,0-.56,1.92v4.1Zm14.65,0V378h1.51l.14,1.12a2.9,2.9,0,0,1,1-1,3,3,0,0,1,1.47-.35,2.67,2.67,0,0,1,2.62,1.49,3.22,3.22,0,0,1,2.74-1.49,3.07,3.07,0,0,1,2.34.9,3.75,3.75,0,0,1,.84,2.67v4.56h-1.69v-4.39c0-1.53-.59-2.3-1.76-2.3a1.83,1.83,0,0,0-1.47.67,2.89,2.89,0,0,0-.56,1.92v4.1h-1.7v-4.39c0-1.53-.59-2.3-1.78-2.3a1.82,1.82,0,0,0-1.45.67,2.89,2.89,0,0,0-.56,1.92v4.1Zm15.62-9.44a1.16,1.16,0,0,1-.8-.29,1,1,0,0,1-.31-.75,1,1,0,0,1,.31-.74,1.12,1.12,0,0,1,.8-.3,1.06,1.06,0,0,1,.78.3.93.93,0,0,1,.32.74,1,1,0,0,1-.32.75A1.09,1.09,0,0,1,450.47,376.46Zm-.85,9.44V378h1.7v7.94Zm7.1.19a4,4,0,0,1-2.48-.74,2.77,2.77,0,0,1-1.12-2h1.72a1.69,1.69,0,0,0,.6,1,2,2,0,0,0,1.27.38,1.66,1.66,0,0,0,1.12-.32,1,1,0,0,0,.35-.74.8.8,0,0,0-.5-.81,6.24,6.24,0,0,0-1.34-.4,10.76,10.76,0,0,1-1.34-.39,3.08,3.08,0,0,1-1.11-.67,1.65,1.65,0,0,1-.43-1.2,2.2,2.2,0,0,1,.8-1.73,3.92,3.92,0,0,1,4.38-.06,2.58,2.58,0,0,1,1,1.81H458a1.21,1.21,0,0,0-.48-.8,1.73,1.73,0,0,0-1-.29,1.58,1.58,0,0,0-1,.27.79.79,0,0,0-.36.67.73.73,0,0,0,.48.66,6.8,6.8,0,0,0,1.3.43,12.89,12.89,0,0,1,1.47.42,2.57,2.57,0,0,1,1.11.67,1.9,1.9,0,0,1,.41,1.31,2.2,2.2,0,0,1-.85,1.81A3.46,3.46,0,0,1,456.72,386.09Zm8.19,0a4,4,0,0,1-2.48-.74,2.77,2.77,0,0,1-1.12-2H463a1.76,1.76,0,0,0,.61,1,2,2,0,0,0,1.26.38,1.63,1.63,0,0,0,1.12-.32,1,1,0,0,0,.36-.74.8.8,0,0,0-.5-.81,6.42,6.42,0,0,0-1.34-.4,11.43,11.43,0,0,1-1.35-.39,3.13,3.13,0,0,1-1.1-.67,1.65,1.65,0,0,1-.43-1.2,2.17,2.17,0,0,1,.8-1.73,3.92,3.92,0,0,1,4.38-.06,2.58,2.58,0,0,1,1,1.81h-1.64a1.14,1.14,0,0,0-.48-.8,1.69,1.69,0,0,0-1-.29,1.62,1.62,0,0,0-1,.27.81.81,0,0,0-.35.67.73.73,0,0,0,.48.66,6.56,6.56,0,0,0,1.3.43,12.89,12.89,0,0,1,1.47.42,2.47,2.47,0,0,1,1.1.67,1.86,1.86,0,0,1,.42,1.31,2.2,2.2,0,0,1-.85,1.81A3.46,3.46,0,0,1,464.91,386.09Zm6-9.63a1.16,1.16,0,0,1-.8-.29,1,1,0,0,1-.3-.75,1,1,0,0,1,.3-.74,1.12,1.12,0,0,1,.8-.3,1.06,1.06,0,0,1,.78.3.93.93,0,0,1,.32.74,1,1,0,0,1-.32.75A1.09,1.09,0,0,1,470.89,376.46ZM470,385.9V378h1.7v7.94Zm7.65.19a4.13,4.13,0,0,1-2.05-.51,3.83,3.83,0,0,1-1.42-1.46,4.44,4.44,0,0,1-.53-2.19,4.37,4.37,0,0,1,.53-2.18,3.88,3.88,0,0,1,1.45-1.45,4,4,0,0,1,2-.53,4,4,0,0,1,2,.53,3.72,3.72,0,0,1,1.44,1.45,4.27,4.27,0,0,1,.54,2.18,4.34,4.34,0,0,1-.54,2.19,3.81,3.81,0,0,1-1.44,1.46A4.13,4.13,0,0,1,477.69,386.09Zm0-1.46a2.19,2.19,0,0,0,1.12-.3,2.24,2.24,0,0,0,.85-.9,3.2,3.2,0,0,0,.32-1.5,3.16,3.16,0,0,0-.32-1.49,2.17,2.17,0,0,0-.83-.91,2.21,2.21,0,0,0-1.12-.3,2.26,2.26,0,0,0-1.14.3,2.23,2.23,0,0,0-.83.91,3,3,0,0,0-.32,1.49,3.08,3.08,0,0,0,.32,1.5,2.2,2.2,0,0,0,.83.9A2.16,2.16,0,0,0,477.69,384.63Zm5.87,1.27V378h1.5l.13,1.39a2.7,2.7,0,0,1,1.07-1.15,3.12,3.12,0,0,1,1.65-.43,2.87,2.87,0,0,1,2.25.9,3.75,3.75,0,0,1,.84,2.67v4.56h-1.68v-4.39c0-1.53-.63-2.3-1.89-2.3a2,2,0,0,0-1.57.67,2.75,2.75,0,0,0-.61,1.92v4.1Zm12.6.19a4,4,0,0,1-2.48-.74,2.77,2.77,0,0,1-1.12-2h1.71a1.76,1.76,0,0,0,.61,1,2,2,0,0,0,1.26.38,1.63,1.63,0,0,0,1.12-.32,1,1,0,0,0,.36-.74.8.8,0,0,0-.5-.81,6.42,6.42,0,0,0-1.34-.4,11.43,11.43,0,0,1-1.35-.39,3.13,3.13,0,0,1-1.1-.67,1.65,1.65,0,0,1-.43-1.2,2.17,2.17,0,0,1,.8-1.73,3.92,3.92,0,0,1,4.38-.06,2.58,2.58,0,0,1,1,1.81h-1.64a1.14,1.14,0,0,0-.48-.8,1.69,1.69,0,0,0-1-.29,1.62,1.62,0,0,0-1,.27.81.81,0,0,0-.35.67.73.73,0,0,0,.48.66,6.56,6.56,0,0,0,1.3.43,12.89,12.89,0,0,1,1.47.42,2.47,2.47,0,0,1,1.1.67,1.86,1.86,0,0,1,.42,1.31,2.2,2.2,0,0,1-.85,1.81A3.46,3.46,0,0,1,496.16,386.09Z" transform="translate(-291.65 -136.9)" style="fill:#293b4a"></path><path d="M373.56,326.9v-14h5.62a4.83,4.83,0,0,1,3.32,1,3.27,3.27,0,0,1,1.16,2.58,3,3,0,0,1-.72,2.12,3.55,3.55,0,0,1-1.72,1.06,3.46,3.46,0,0,1,2.76,3.4,3.52,3.52,0,0,1-1.2,2.74,4.92,4.92,0,0,1-3.4,1.08Zm2.56-8.12h2.68a2.49,2.49,0,0,0,1.66-.5,1.79,1.79,0,0,0,.58-1.42,1.74,1.74,0,0,0-.58-1.38,2.42,2.42,0,0,0-1.7-.52h-2.64Zm0,6H379a2.66,2.66,0,0,0,1.76-.52,1.88,1.88,0,0,0,.64-1.5,1.91,1.91,0,0,0-.66-1.54,2.69,2.69,0,0,0-1.78-.56h-2.82Zm13.72,2.32A3.64,3.64,0,0,1,387,326a5.06,5.06,0,0,1-1-3.4V317h2.54v5.36a3.16,3.16,0,0,0,.52,2,1.93,1.93,0,0,0,1.64.68,2.24,2.24,0,0,0,1.74-.76,3,3,0,0,0,.7-2.12V317h2.56v9.92H393.4l-.2-1.68a3.54,3.54,0,0,1-1.34,1.4A3.82,3.82,0,0,1,389.84,327.14Zm12.54,0a6,6,0,0,1-2.32-.42,4.08,4.08,0,0,1-1.6-1.2,3.45,3.45,0,0,1-.72-1.76h2.58a1.74,1.74,0,0,0,.64,1,2.24,2.24,0,0,0,1.38.4,1.78,1.78,0,0,0,1.22-.34,1,1,0,0,0,.4-.78.83.83,0,0,0-.56-.86,9.19,9.19,0,0,0-1.56-.46c-.42-.09-.86-.21-1.3-.34a6.64,6.64,0,0,1-1.22-.5,2.82,2.82,0,0,1-.88-.8,2.16,2.16,0,0,1-.34-1.22,2.83,2.83,0,0,1,1-2.22,4.45,4.45,0,0,1,3-.9,4.36,4.36,0,0,1,2.8.82,3.29,3.29,0,0,1,1.26,2.26h-2.42c-.14-.73-.7-1.1-1.66-1.1A1.91,1.91,0,0,0,401,319a.85.85,0,0,0-.38.7c0,.29.2.53.58.7a9.19,9.19,0,0,0,1.54.48,17.55,17.55,0,0,1,1.9.54,3,3,0,0,1,1.4.86,2.27,2.27,0,0,1,.52,1.62,2.7,2.7,0,0,1-.48,1.66,3.3,3.3,0,0,1-1.44,1.16A5.36,5.36,0,0,1,402.38,327.14Zm7.79-11.7A1.65,1.65,0,0,1,409,315a1.41,1.41,0,0,1-.44-1.06,1.35,1.35,0,0,1,.44-1,1.65,1.65,0,0,1,1.16-.42,1.57,1.57,0,0,1,1.14.42,1.3,1.3,0,0,1,.46,1,1.36,1.36,0,0,1-.46,1.06A1.57,1.57,0,0,1,410.17,315.44Zm-1.28,11.46V317h2.56v9.92Zm5.23,0V317h2.26l.2,1.68a3.55,3.55,0,0,1,1.32-1.4,4,4,0,0,1,2.06-.52,3.61,3.61,0,0,1,2.86,1.16,5,5,0,0,1,1,3.4v5.6h-2.56v-5.36a3.16,3.16,0,0,0-.52-2,1.9,1.9,0,0,0-1.62-.68,2.31,2.31,0,0,0-1.78.76,3.08,3.08,0,0,0-.68,2.12v5.12Zm17,.24a5.37,5.37,0,0,1-2.66-.64,4.7,4.7,0,0,1-1.82-1.8A5.32,5.32,0,0,1,426,322a5.68,5.68,0,0,1,.64-2.74,4.74,4.74,0,0,1,1.8-1.86,5.3,5.3,0,0,1,2.72-.68,5.09,5.09,0,0,1,2.58.64,4.46,4.46,0,0,1,1.74,1.76,4.75,4.75,0,0,1,.64,2.46c0,.15,0,.3,0,.46s0,.33,0,.5h-7.54a2.49,2.49,0,0,0,2.58,2.48,2.31,2.31,0,0,0,1.3-.34,2.21,2.21,0,0,0,.8-.92h2.6a4.76,4.76,0,0,1-.94,1.72,4.47,4.47,0,0,1-1.6,1.2A5.05,5.05,0,0,1,431.11,327.14Zm0-8.32a2.69,2.69,0,0,0-1.66.54,2.41,2.41,0,0,0-.92,1.6h4.94a2.17,2.17,0,0,0-.72-1.56A2.38,2.38,0,0,0,431.13,318.82Zm11.21,8.32a6,6,0,0,1-2.32-.42,4.08,4.08,0,0,1-1.6-1.2,3.45,3.45,0,0,1-.72-1.76h2.58a1.74,1.74,0,0,0,.64,1,2.24,2.24,0,0,0,1.38.4,1.78,1.78,0,0,0,1.22-.34,1,1,0,0,0,.4-.78.83.83,0,0,0-.56-.86,9.19,9.19,0,0,0-1.56-.46c-.42-.09-.86-.21-1.3-.34a6.64,6.64,0,0,1-1.22-.5,2.82,2.82,0,0,1-.88-.8,2.16,2.16,0,0,1-.34-1.22,2.83,2.83,0,0,1,1-2.22,4.45,4.45,0,0,1,3-.9,4.36,4.36,0,0,1,2.8.82,3.29,3.29,0,0,1,1.26,2.26H443.7c-.14-.73-.7-1.1-1.66-1.1a1.91,1.91,0,0,0-1.12.28.85.85,0,0,0-.38.7c0,.29.2.53.58.7a9.19,9.19,0,0,0,1.54.48,17.55,17.55,0,0,1,1.9.54,3,3,0,0,1,1.4.86,2.27,2.27,0,0,1,.52,1.62,2.7,2.7,0,0,1-.48,1.66,3.3,3.3,0,0,1-1.44,1.16A5.36,5.36,0,0,1,442.34,327.14Zm10.51,0a6,6,0,0,1-2.32-.42,4.08,4.08,0,0,1-1.6-1.2,3.45,3.45,0,0,1-.72-1.76h2.58a1.74,1.74,0,0,0,.64,1,2.24,2.24,0,0,0,1.38.4,1.78,1.78,0,0,0,1.22-.34,1,1,0,0,0,.4-.78.83.83,0,0,0-.56-.86,9.19,9.19,0,0,0-1.56-.46c-.42-.09-.86-.21-1.3-.34a6.64,6.64,0,0,1-1.22-.5,2.82,2.82,0,0,1-.88-.8,2.16,2.16,0,0,1-.34-1.22,2.83,2.83,0,0,1,1-2.22,4.45,4.45,0,0,1,3-.9,4.36,4.36,0,0,1,2.8.82,3.29,3.29,0,0,1,1.26,2.26h-2.42c-.14-.73-.7-1.1-1.66-1.1a1.91,1.91,0,0,0-1.12.28.85.85,0,0,0-.38.7c0,.29.2.53.58.7a9.19,9.19,0,0,0,1.54.48,17.55,17.55,0,0,1,1.9.54,3,3,0,0,1,1.4.86,2.27,2.27,0,0,1,.52,1.62,2.7,2.7,0,0,1-.48,1.66,3.3,3.3,0,0,1-1.44,1.16A5.36,5.36,0,0,1,452.85,327.14Zm15.94,0a5.16,5.16,0,0,1-2.6-.66,5,5,0,0,1-1.82-1.82,5.48,5.48,0,0,1-.66-2.72,5.16,5.16,0,0,1,.68-2.7,4.87,4.87,0,0,1,1.82-1.84,5.16,5.16,0,0,1,2.6-.66,5,5,0,0,1,2.56.66,4.73,4.73,0,0,1,1.82,1.84,5.26,5.26,0,0,1,.68,2.7,5.38,5.38,0,0,1-.68,2.72,4.82,4.82,0,0,1-1.82,1.82A5.16,5.16,0,0,1,468.79,327.14Zm0-2.22a2.42,2.42,0,0,0,1.74-.74,3.1,3.1,0,0,0,.74-2.24,3,3,0,0,0-.74-2.22,2.37,2.37,0,0,0-3.48,0,3.06,3.06,0,0,0-.72,2.22,3.14,3.14,0,0,0,.72,2.24A2.38,2.38,0,0,0,468.79,324.92Zm8.95,2-2.9-9.92h2.54l1.72,7.14,2-7.14h2.84l2,7.14,1.74-7.14h2.54l-2.92,9.92h-2.66l-2.12-7.42-2.12,7.42Zm14.1,0V317h2.26l.2,1.68a3.42,3.42,0,0,1,1.32-1.4,3.92,3.92,0,0,1,2.06-.52,3.63,3.63,0,0,1,2.86,1.16,5,5,0,0,1,1,3.4v5.6H499v-5.36a3.22,3.22,0,0,0-.52-2,1.93,1.93,0,0,0-1.62-.68,2.29,2.29,0,0,0-1.78.76,3,3,0,0,0-.68,2.12v5.12Zm17,.24a5.37,5.37,0,0,1-2.66-.64,4.63,4.63,0,0,1-1.82-1.8,5.32,5.32,0,0,1-.66-2.68,5.68,5.68,0,0,1,.64-2.74,4.74,4.74,0,0,1,1.8-1.86,5.3,5.3,0,0,1,2.72-.68,5.09,5.09,0,0,1,2.58.64,4.6,4.6,0,0,1,1.74,1.76,4.85,4.85,0,0,1,.64,2.46c0,.15,0,.3,0,.46s0,.33,0,.5h-7.54a2.6,2.6,0,0,0,.8,1.82,2.56,2.56,0,0,0,1.78.66,2.31,2.31,0,0,0,1.3-.34,2.28,2.28,0,0,0,.8-.92h2.6a4.76,4.76,0,0,1-.94,1.72,4.47,4.47,0,0,1-1.6,1.2A5.05,5.05,0,0,1,508.83,327.14Zm0-8.32a2.69,2.69,0,0,0-1.66.54,2.41,2.41,0,0,0-.92,1.6h4.94a2.17,2.17,0,0,0-.72-1.56A2.38,2.38,0,0,0,508.85,318.82ZM516,326.9V317h2.28l.24,1.86a4.05,4.05,0,0,1,3.66-2.1v2.7h-.72a4.14,4.14,0,0,0-1.5.26,2,2,0,0,0-1,.9,3.67,3.67,0,0,0-.36,1.78v4.52Zm12,.24a6,6,0,0,1-2.32-.42,4,4,0,0,1-1.6-1.2,3.45,3.45,0,0,1-.72-1.76h2.58a1.69,1.69,0,0,0,.64,1,2.24,2.24,0,0,0,1.38.4,1.78,1.78,0,0,0,1.22-.34,1,1,0,0,0,.4-.78.84.84,0,0,0-.56-.86,9.19,9.19,0,0,0-1.56-.46c-.43-.09-.86-.21-1.3-.34a6.36,6.36,0,0,1-1.22-.5,2.82,2.82,0,0,1-.88-.8,2.09,2.09,0,0,1-.34-1.22,2.83,2.83,0,0,1,1-2.22,4.44,4.44,0,0,1,3-.9,4.38,4.38,0,0,1,2.8.82,3.29,3.29,0,0,1,1.26,2.26h-2.42c-.15-.73-.7-1.1-1.66-1.1a1.91,1.91,0,0,0-1.12.28.85.85,0,0,0-.38.7c0,.29.19.53.58.7a9.19,9.19,0,0,0,1.54.48,18.23,18.23,0,0,1,1.9.54,3.09,3.09,0,0,1,1.4.86,2.27,2.27,0,0,1,.52,1.62,2.83,2.83,0,0,1-.48,1.66,3.3,3.3,0,0,1-1.44,1.16A5.43,5.43,0,0,1,528,327.14Z" transform="translate(-291.65 -136.9)" style="fill:#19ad4a"></path><g style="clip-path:url(#clip-path)"><path d="M391.57,237.09a124.75,124.75,0,0,1,2.33,15.72,136.81,136.81,0,0,1-1.82,34.55" transform="translate(-291.65 -136.9)" style="fill:none;stroke:#293b4a;stroke-miterlimit:10;stroke-width:1.1939899921417236px"></path><path d="M414,197.07a11.23,11.23,0,0,1,8.88,10.72,16.42,16.42,0,0,1-1.05,6.41,39,39,0,0,0-5.84-5.76,1.14,1.14,0,0,0-1.65.17c-1.74,2.34-3.73,8.84-3.73,8.84s-16.5-9.4-18.57-14.35l2.11-3.16a4.87,4.87,0,0,1,2.75-2,13.69,13.69,0,0,1,4.15-.73" transform="translate(-291.65 -136.9)" style="fill:none;stroke:#293b4a;stroke-miterlimit:10;stroke-width:1.1939899921417236px"></path><path d="M419.67,211.42c.13,3.76-1.23,5-2.92,4.92s-3.68-1.58-4.87-3.25" transform="translate(-291.65 -136.9)" style="fill:none;stroke:#293b4a;stroke-miterlimit:10;stroke-width:1.1939899921417236px"></path><path d="M407.61,175.93a.94.94,0,1,0-.93-.94A.94.94,0,0,0,407.61,175.93Z" transform="translate(-291.65 -136.9)" style="fill:#293b4a"></path><path d="M417.34,175.38a.94.94,0,1,0-.93-.94A.93.93,0,0,0,417.34,175.38Z" transform="translate(-291.65 -136.9)" style="fill:#293b4a"></path><path d="M413.24,172.3a32.11,32.11,0,0,1,4.57,10.42l-4.11.73" transform="translate(-291.65 -136.9)" style="fill:none;stroke:#293b4a;stroke-linejoin:round;stroke-width:1.1939899921417236px"></path><path d="M409.34,187.38a4.21,4.21,0,0,0,5.42.85" transform="translate(-291.65 -136.9)" style="fill:none;stroke:#293b4a;stroke-miterlimit:10;stroke-width:1.1939899921417236px"></path><path d="M417.13,183.15a48.8,48.8,0,0,0,.93,8.63,13.84,13.84,0,0,1-14.68-2" transform="translate(-291.65 -136.9)" style="fill:none;stroke:#293b4a;stroke-miterlimit:10;stroke-width:1.1939899921417236px"></path><path d="M399,165.6a32,32,0,0,0,14.26-2.27" transform="translate(-291.65 -136.9)" style="fill:none;stroke:#293b4a;stroke-miterlimit:10;stroke-width:1.1939899921417236px"></path><path d="M399.4,162.27a68.86,68.86,0,0,1,16.71-1.33,1.32,1.32,0,0,1,1.19,1.71c-.76,2.52-.42,8.07-.42,8.07-2.12-3.84-3.64.3-3.64.3s-4.11-4.53-8.72-1.37a7.6,7.6,0,0,0-2.83,3.68c-.51,1.24-.81,2.82-.05,4,0,0-4.06-2.9-3.21,2.6.55,3.55,2.75,3.25,2.75,3.25l-1,5s-8.08-4.49-6.85-13.63a25.57,25.57,0,0,1,3.13-10.16A4.44,4.44,0,0,1,399.4,162.27Z" transform="translate(-291.65 -136.9)" style="fill:#293b4a;fill-rule:evenodd"></path><path d="M398.85,200.83s5.71-1.75.93-14.73" transform="translate(-291.65 -136.9)" style="fill:none;stroke:#293b4a;stroke-miterlimit:10;stroke-width:1.1939899921417236px"></path><path d="M413.53,193.06c-.12,3,.05,5.59,1.53,7.64,6.72,3.93,1.77,15.34-17.65-1.06" transform="translate(-291.65 -136.9)" style="fill:none;stroke:#293b4a;stroke-miterlimit:10;stroke-width:1.1939899921417236px"></path><path d="M414.29,252.55c2.37-6.87,2.92-32.28,3-35.74a.11.11,0,0,1,.21-.05c10.7,17.43,6.94,38.87,6.94,38.87l-6.73,7Z" transform="translate(-291.65 -136.9)" style="fill:none;stroke:#293b4a;stroke-miterlimit:10;stroke-width:1.1939899921417236px"></path><path d="M393.14,222.06c0,10.29-3.18,22.29-3.18,22.29" transform="translate(-291.65 -136.9)" style="fill:none;stroke:#293b4a;stroke-miterlimit:10;stroke-width:1.1939899921417236px"></path><path d="M388.15,241.92c2.32,2.18,5.5,9.65,5.5,9.65" transform="translate(-291.65 -136.9)" style="fill:none;stroke:#293b4a;stroke-miterlimit:10;stroke-width:1.1939899921417236px"></path><path d="M394.28,268c-16-8.67-16-22.68-16-22.68a73.52,73.52,0,0,1-.51-11.83" transform="translate(-291.65 -136.9)" style="fill:none;stroke:#293b4a;stroke-miterlimit:10;stroke-width:1.1939899921417236px"></path><path d="M435.62,225.82a48.64,48.64,0,0,1-1.1,14.52" transform="translate(-291.65 -136.9)" style="fill:none;stroke:#293b4a;stroke-miterlimit:10;stroke-width:1.1939899921417236px"></path><path d="M410.74,225.05h-9v3.54h9Z" transform="translate(-291.65 -136.9)" style="fill:none;stroke:#293b4a;stroke-miterlimit:10;stroke-width:1.1939899921417236px"></path><path d="M416.2,258.24l8.71-8.8" transform="translate(-291.65 -136.9)" style="fill:none;stroke:#293b4a;stroke-linecap:round;stroke-miterlimit:10;stroke-width:1.1939899921417236px"></path><path d="M415,254l9.94-10" transform="translate(-291.65 -136.9)" style="fill:none;stroke:#293b4a;stroke-linecap:round;stroke-miterlimit:10;stroke-width:1.1939899921417236px"></path><path d="M415.56,247.94l8.8-8.84" transform="translate(-291.65 -136.9)" style="fill:none;stroke:#293b4a;stroke-linecap:round;stroke-miterlimit:10;stroke-width:1.1939899921417236px"></path><path d="M416.2,241.83l7.74-7.77" transform="translate(-291.65 -136.9)" style="fill:none;stroke:#293b4a;stroke-linecap:round;stroke-miterlimit:10;stroke-width:1.1939899921417236px"></path><path d="M417,235.56l5.8-5.86" transform="translate(-291.65 -136.9)" style="fill:none;stroke:#293b4a;stroke-linecap:round;stroke-miterlimit:10;stroke-width:1.1939899921417236px"></path><path d="M417,230.09l4.53-4.53" transform="translate(-291.65 -136.9)" style="fill:none;stroke:#293b4a;stroke-linecap:round;stroke-miterlimit:10;stroke-width:1.1939899921417236px"></path><path d="M417,224.66l2.92-2.94" transform="translate(-291.65 -136.9)" style="fill:none;stroke:#293b4a;stroke-linecap:round;stroke-miterlimit:10;stroke-width:1.1939899921417236px"></path><path d="M403,226.8h6.39" transform="translate(-291.65 -136.9)" style="fill:none;stroke:#293b4a;stroke-miterlimit:10;stroke-width:1.1939899921417236px"></path><path d="M422.63,257.51c6.09-1,11-3.37,12.27-7.3v-.6a98.3,98.3,0,0,0-2.5-22.77,51.71,51.71,0,0,0-3.89-10.72" transform="translate(-291.65 -136.9)" style="fill:none;stroke:#293b4a;stroke-miterlimit:10;stroke-width:1.1939899921417236px"></path><path d="M394.28,253.32c5,3.21,13.79,4.92,21.92,4.79" transform="translate(-291.65 -136.9)" style="fill:none;stroke:#293b4a;stroke-miterlimit:10;stroke-width:1.1939899921417236px"></path><path d="M435.62,287.36c3.26-19.13-.72-37.15-.72-37.15" transform="translate(-291.65 -136.9)" style="fill:none;stroke:#293b4a;stroke-miterlimit:10;stroke-width:1.1939899921417236px"></path><path d="M419.29,271.86c1.35,5.38-1.23,15.5-1.23,15.5" transform="translate(-291.65 -136.9)" style="fill:none;stroke:#293b4a;stroke-miterlimit:10;stroke-width:1.1939899921417236px"></path><path d="M424.91,266.65c-2,3.8-6.3,6.45-8.71,6.41" transform="translate(-291.65 -136.9)" style="fill:none;stroke:#293b4a;stroke-miterlimit:10;stroke-width:1.1939899921417236px"></path><path d="M391.57,237.09a16.59,16.59,0,0,0-14.89-3,1.3,1.3,0,0,1-1.61-1.41c3.47-25.54,17-29.51,17-29.51" transform="translate(-291.65 -136.9)" style="fill:none;stroke:#293b4a;stroke-miterlimit:10;stroke-width:1.1939899921417236px"></path><path d="M421.74,203.14c8.46,3.42,13.84,12.09,15.15,22-1.4,1.16-4.53,1.75-4.53,1.75" transform="translate(-291.65 -136.9)" style="fill:none;stroke:#293b4a;stroke-miterlimit:10;stroke-width:1.1939899921417236px"></path><path d="M375.07,287.36H528.84" transform="translate(-291.65 -136.9)" style="fill:none;stroke:#293b4a;stroke-miterlimit:10;stroke-width:1.1939899921417236px"></path><path d="M489.61,293.47H414.29" transform="translate(-291.65 -136.9)" style="fill:none;stroke:#293b4a;stroke-miterlimit:10;stroke-width:1.1939899921417236px"></path><path d="M436.89,183.15h92v62.61H458.6" transform="translate(-291.65 -136.9)" style="fill:none;stroke:#293b4a;stroke-miterlimit:10;stroke-width:1.1939899921417236px"></path><path d="M426.65,176.19H535.22v76.54h-35" transform="translate(-291.65 -136.9)" style="fill:none;stroke:#293b4a;stroke-miterlimit:10;stroke-width:1.1939899921417236px"></path><path d="M452,226.8,465.66,213l11.51,11.62,26.95-27.21,8.34,8.37,7.36-7.43" transform="translate(-291.65 -136.9)" style="fill:none;stroke:#293b4a;stroke-miterlimit:10;stroke-width:1.1939899921417236px"></path><path d="M485.89,246.49l21.32,40.87" transform="translate(-291.65 -136.9)" style="fill:none;stroke:#293b4a;stroke-miterlimit:10;stroke-width:1.1939899921417236px"></path></g></svg>