<svg xmlns="http://www.w3.org/2000/svg" xmlns:xlink="http://www.w3.org/1999/xlink" id="Layer_1" data-name="Layer 1" viewBox="0 0 321 287"><defs><clipPath id="clip-path" transform="translate(-291.65 -136.9)"><rect x="322.65" y="163.9" width="231" height="127" style="fill:none"></rect></clipPath></defs><rect width="321" height="287" rx="12.41" style="fill:#fff"></rect><path d="M369.31,360.9l-4.15-11.2H367l3.36,9.44,3.38-9.44h1.79l-4.15,11.2Zm8.52-9.44a1.16,1.16,0,0,1-.8-.29,1,1,0,0,1-.31-.75,1,1,0,0,1,.31-.74,1.12,1.12,0,0,1,.8-.3,1.06,1.06,0,0,1,.78.3.93.93,0,0,1,.32.74,1,1,0,0,1-.32.75A1.09,1.09,0,0,1,377.83,351.46ZM377,360.9V353h1.7v7.94Zm7.65.19a4.16,4.16,0,0,1-2.08-.51,3.74,3.74,0,0,1-1.41-1.46,4.42,4.42,0,0,1-.51-2.16,4.65,4.65,0,0,1,.49-2.19,3.7,3.7,0,0,1,1.41-1.47,4.16,4.16,0,0,1,2.11-.53,3.81,3.81,0,0,1,2,.53,3.62,3.62,0,0,1,1.35,1.37,3.9,3.9,0,0,1,.48,1.91c0,.11,0,.22,0,.35s0,.25,0,.4h-6.18a2.46,2.46,0,0,0,.75,1.76,2.34,2.34,0,0,0,1.59.59,2.07,2.07,0,0,0,1.2-.32,2,2,0,0,0,.73-.89h1.7a3.58,3.58,0,0,1-1.28,1.87A3.66,3.66,0,0,1,384.63,361.09Zm0-6.93a2.4,2.4,0,0,0-1.51.51,2.26,2.26,0,0,0-.8,1.51h4.48a2,2,0,0,0-.65-1.47A2.19,2.19,0,0,0,384.63,354.16Zm6.9,6.74L389.19,353h1.7l1.54,6,1.72-6H396l1.73,6,1.54-6H401l-2.33,7.94h-1.75l-1.82-6.24-1.83,6.24Zm17.59.19a3.6,3.6,0,0,1-1.67-.34,2.25,2.25,0,0,1-1-.88,2.4,2.4,0,0,1-.32-1.21,2.18,2.18,0,0,1,.89-1.83,4.29,4.29,0,0,1,2.56-.67h2.08V356a1.78,1.78,0,0,0-.51-1.39,1.81,1.81,0,0,0-1.29-.47,2.25,2.25,0,0,0-1.24.35,1.45,1.45,0,0,0-.62,1h-1.7a2.74,2.74,0,0,1,.58-1.47,3.17,3.17,0,0,1,1.28-.94,4.18,4.18,0,0,1,1.71-.34,3.56,3.56,0,0,1,2.58.88,3.11,3.11,0,0,1,.91,2.37v4.88h-1.47l-.15-1.36a2.91,2.91,0,0,1-1,1.1A2.88,2.88,0,0,1,409.12,361.09Zm.33-1.38a2,2,0,0,0,1.16-.32,2.1,2.1,0,0,0,.73-.88,3.34,3.34,0,0,0,.34-1.2h-1.89a2.27,2.27,0,0,0-1.44.36,1.08,1.08,0,0,0-.42.88,1.06,1.06,0,0,0,.4.86A1.9,1.9,0,0,0,409.45,359.71Zm5.92,1.19V353h1.5l.13,1.39a2.76,2.76,0,0,1,1.07-1.15,3.12,3.12,0,0,1,1.65-.43,2.91,2.91,0,0,1,2.26.9,3.8,3.8,0,0,1,.83,2.67v4.56h-1.68v-4.39c0-1.53-.63-2.3-1.89-2.3a2,2,0,0,0-1.57.67,2.8,2.8,0,0,0-.61,1.92v4.1Zm13.05.19a3.71,3.71,0,0,1-3.41-2,4.57,4.57,0,0,1-.49-2.15,4.42,4.42,0,0,1,.49-2.12,3.72,3.72,0,0,1,1.38-1.48,3.9,3.9,0,0,1,2.05-.54,3.46,3.46,0,0,1,1.65.37,2.68,2.68,0,0,1,1.12,1v-4.8h1.69V360.9h-1.52l-.17-1.23a3.76,3.76,0,0,1-1.06,1A3.13,3.13,0,0,1,428.42,361.09Zm.31-1.47a2.3,2.3,0,0,0,1.77-.75,3,3,0,0,0,0-3.88,2.3,2.3,0,0,0-1.77-.75,2.36,2.36,0,0,0-1.8.75,2.7,2.7,0,0,0-.7,1.94,3,3,0,0,0,.32,1.39,2.4,2.4,0,0,0,.88,1A2.47,2.47,0,0,0,428.73,359.62Zm14,1.47a4.19,4.19,0,0,1-2.08-.51,3.78,3.78,0,0,1-1.4-1.46,4.32,4.32,0,0,1-.52-2.16,4.65,4.65,0,0,1,.5-2.19,3.7,3.7,0,0,1,1.41-1.47,4.16,4.16,0,0,1,2.11-.53,3.81,3.81,0,0,1,2,.53,3.62,3.62,0,0,1,1.35,1.37,3.9,3.9,0,0,1,.48,1.91c0,.11,0,.22,0,.35s0,.25,0,.4h-6.17a2.46,2.46,0,0,0,.75,1.76,2.34,2.34,0,0,0,1.58.59,2.07,2.07,0,0,0,1.2-.32,2,2,0,0,0,.74-.89h1.7a3.64,3.64,0,0,1-1.28,1.87A3.68,3.68,0,0,1,442.78,361.09Zm0-6.93a2.39,2.39,0,0,0-1.5.51,2.22,2.22,0,0,0-.8,1.51H445a2,2,0,0,0-.66-1.47A2.15,2.15,0,0,0,442.78,354.16Zm9.25,6.93a3.71,3.71,0,0,1-3.41-2,4.57,4.57,0,0,1-.49-2.15,4.42,4.42,0,0,1,.49-2.12,3.72,3.72,0,0,1,1.38-1.48,3.9,3.9,0,0,1,2.05-.54,3.39,3.39,0,0,1,1.64.37,2.62,2.62,0,0,1,1.12,1v-4.8h1.7V360.9H455l-.18-1.23a3.58,3.58,0,0,1-1.05,1A3.15,3.15,0,0,1,452,361.09Zm.3-1.47a2.3,2.3,0,0,0,1.78-.75,3,3,0,0,0,0-3.88,2.3,2.3,0,0,0-1.78-.75,2.36,2.36,0,0,0-1.79.75,2.7,2.7,0,0,0-.7,1.94,3,3,0,0,0,.32,1.39,2.4,2.4,0,0,0,.88,1A2.44,2.44,0,0,0,452.33,359.62Zm7.28-8.16a1.16,1.16,0,0,1-.8-.29,1,1,0,0,1-.3-.75,1,1,0,0,1,.3-.74,1.12,1.12,0,0,1,.8-.3,1.06,1.06,0,0,1,.78.3.93.93,0,0,1,.32.74,1,1,0,0,1-.32.75A1.09,1.09,0,0,1,459.61,351.46Zm-.85,9.44V353h1.7v7.94Zm7.26,0a2.87,2.87,0,0,1-1.85-.56,2.54,2.54,0,0,1-.69-2v-3.92h-1.36V353h1.36l.21-2h1.49v2h2.24v1.43h-2.24v3.92a1.24,1.24,0,0,0,.27.91,1.53,1.53,0,0,0,1,.24h.92v1.44Zm10.34.19a4,4,0,0,1-2.48-.74,2.77,2.77,0,0,1-1.12-2h1.72a1.69,1.69,0,0,0,.6,1,2,2,0,0,0,1.27.38,1.66,1.66,0,0,0,1.12-.32,1,1,0,0,0,.35-.74.8.8,0,0,0-.5-.81,6.24,6.24,0,0,0-1.34-.4,10.76,10.76,0,0,1-1.34-.39,3.08,3.08,0,0,1-1.11-.67,1.65,1.65,0,0,1-.43-1.2,2.2,2.2,0,0,1,.8-1.73,3.92,3.92,0,0,1,4.38-.06,2.58,2.58,0,0,1,1,1.81h-1.63a1.21,1.21,0,0,0-.48-.8,1.71,1.71,0,0,0-1-.29,1.58,1.58,0,0,0-1,.27.79.79,0,0,0-.36.67.73.73,0,0,0,.48.66,6.8,6.8,0,0,0,1.3.43,12.89,12.89,0,0,1,1.47.42,2.57,2.57,0,0,1,1.11.67,1.9,1.9,0,0,1,.41,1.31,2.2,2.2,0,0,1-.85,1.81A3.45,3.45,0,0,1,476.36,361.09Zm8.05-.19a2.87,2.87,0,0,1-1.85-.56,2.54,2.54,0,0,1-.69-2v-3.92h-1.36V353h1.36l.21-2h1.49v2h2.24v1.43h-2.24v3.92a1.24,1.24,0,0,0,.27.91,1.53,1.53,0,0,0,1,.24h.92v1.44Zm6.07.19a3,3,0,0,1-2.27-.9,3.84,3.84,0,0,1-.81-2.67V353h1.69v4.39c0,1.53.63,2.3,1.89,2.3a2,2,0,0,0,1.55-.67,2.75,2.75,0,0,0,.61-1.92V353h1.7v7.94h-1.51l-.13-1.39a2.69,2.69,0,0,1-1.08,1.16A3.15,3.15,0,0,1,490.48,361.09Zm10.13,0a3.71,3.71,0,0,1-3.41-2,4.58,4.58,0,0,1-.5-2.15,4.43,4.43,0,0,1,.5-2.12,3.72,3.72,0,0,1,1.38-1.48,3.86,3.86,0,0,1,2-.54,3.46,3.46,0,0,1,1.65.37,2.62,2.62,0,0,1,1.12,1v-4.8h1.7V360.9h-1.52l-.18-1.23a3.71,3.71,0,0,1-1.05,1A3.15,3.15,0,0,1,500.61,361.09Zm.3-1.47a2.3,2.3,0,0,0,1.78-.75,3,3,0,0,0,0-3.88,2.3,2.3,0,0,0-1.78-.75,2.36,2.36,0,0,0-1.79.75,2.7,2.7,0,0,0-.7,1.94,2.85,2.85,0,0,0,.32,1.39,2.34,2.34,0,0,0,.88,1A2.44,2.44,0,0,0,500.91,359.62Zm10,1.47a4.19,4.19,0,0,1-2.08-.51,3.74,3.74,0,0,1-1.41-1.46,4.42,4.42,0,0,1-.51-2.16,4.54,4.54,0,0,1,.5-2.19,3.74,3.74,0,0,1,1.4-1.47,4.2,4.2,0,0,1,2.12-.53,3.86,3.86,0,0,1,2,.53,3.67,3.67,0,0,1,1.34,1.37,3.9,3.9,0,0,1,.48,1.91c0,.11,0,.22,0,.35s0,.25,0,.4H508.6a2.51,2.51,0,0,0,.76,1.76,2.3,2.3,0,0,0,1.58.59,2.07,2.07,0,0,0,1.2-.32,2,2,0,0,0,.74-.89h1.69a3.58,3.58,0,0,1-1.28,1.87A3.66,3.66,0,0,1,510.94,361.09Zm0-6.93a2.35,2.35,0,0,0-1.5.51,2.18,2.18,0,0,0-.8,1.51h4.48a2.07,2.07,0,0,0-.66-1.47A2.17,2.17,0,0,0,510.94,354.16Zm5.63,6.74V353h1.51l.12,1.39a2.78,2.78,0,0,1,1.08-1.15,3.09,3.09,0,0,1,1.64-.43,2.89,2.89,0,0,1,2.26.9,3.8,3.8,0,0,1,.83,2.67v4.56h-1.68v-4.39c0-1.53-.63-2.3-1.89-2.3a2,2,0,0,0-1.56.67,2.75,2.75,0,0,0-.61,1.92v4.1Zm12.77,0a2.88,2.88,0,0,1-1.86-.56,2.54,2.54,0,0,1-.69-2v-3.92h-1.36V353h1.36l.21-2h1.49v2h2.24v1.43h-2.24v3.92a1.24,1.24,0,0,0,.27.91,1.55,1.55,0,0,0,1,.24h.91v1.44ZM422,385.9V378h1.52l.14,1.51a3.13,3.13,0,0,1,1.15-1.24,3.5,3.5,0,0,1,1.81-.46v1.78h-.46a3.23,3.23,0,0,0-1.27.24,1.88,1.88,0,0,0-.88.78,3,3,0,0,0-.32,1.52v3.81Zm9.57.19a4.19,4.19,0,0,1-2.08-.51,3.74,3.74,0,0,1-1.41-1.46,4.42,4.42,0,0,1-.51-2.16,4.65,4.65,0,0,1,.5-2.19,3.74,3.74,0,0,1,1.4-1.47,4.2,4.2,0,0,1,2.12-.53,3.86,3.86,0,0,1,2,.53,3.67,3.67,0,0,1,1.34,1.37,3.9,3.9,0,0,1,.48,1.91c0,.11,0,.22,0,.35s0,.25,0,.4h-6.18a2.51,2.51,0,0,0,.76,1.76,2.3,2.3,0,0,0,1.58.59,2.07,2.07,0,0,0,1.2-.32,2,2,0,0,0,.74-.89h1.69a3.58,3.58,0,0,1-1.28,1.87A3.66,3.66,0,0,1,431.58,386.09Zm0-6.93a2.35,2.35,0,0,0-1.5.51,2.18,2.18,0,0,0-.8,1.51h4.48a2,2,0,0,0-.66-1.47A2.17,2.17,0,0,0,431.58,379.16Zm9.39,6.93a4.14,4.14,0,0,1-2.09-.53,3.78,3.78,0,0,1-1.44-1.45,4.42,4.42,0,0,1-.52-2.18,4.32,4.32,0,0,1,.52-2.16,3.77,3.77,0,0,1,1.44-1.47,4.14,4.14,0,0,1,2.09-.53,4,4,0,0,1,2.47.77,3.42,3.42,0,0,1,1.29,2.08H443a1.72,1.72,0,0,0-.71-1,2.26,2.26,0,0,0-1.28-.36,2.13,2.13,0,0,0-1.15.32,2.21,2.21,0,0,0-.85.91,3.08,3.08,0,0,0-.32,1.47,3.22,3.22,0,0,0,.32,1.49,2.41,2.41,0,0,0,.85.91,2.22,2.22,0,0,0,1.15.32,2.19,2.19,0,0,0,1.28-.37,1.69,1.69,0,0,0,.71-1h1.77a3.46,3.46,0,0,1-1.28,2.07A3.93,3.93,0,0,1,441,386.09Zm9.31,0a4.09,4.09,0,0,1-2-.51,3.86,3.86,0,0,1-1.43-1.46,4.44,4.44,0,0,1-.53-2.19,4.37,4.37,0,0,1,.53-2.18,3.84,3.84,0,0,1,1.46-1.45,4,4,0,0,1,2-.53,3.94,3.94,0,0,1,2,.53,3.72,3.72,0,0,1,1.44,1.45,4.28,4.28,0,0,1,.55,2.18,4.34,4.34,0,0,1-.55,2.19,3.81,3.81,0,0,1-1.44,1.46A4.13,4.13,0,0,1,450.28,386.09Zm0-1.46a2.16,2.16,0,0,0,1.12-.3,2.12,2.12,0,0,0,.85-.9,3.2,3.2,0,0,0,.32-1.5,3.16,3.16,0,0,0-.32-1.49,2.1,2.1,0,0,0-.83-.91,2.19,2.19,0,0,0-1.12-.3,2.29,2.29,0,0,0-1.14.3,2.23,2.23,0,0,0-.83.91,3.16,3.16,0,0,0-.32,1.49,3.2,3.2,0,0,0,.32,1.5,2.14,2.14,0,0,0,1.95,1.2Zm5.87,1.27V378h1.52l.14,1.51a3.08,3.08,0,0,1,1.16-1.24,3.44,3.44,0,0,1,1.8-.46v1.78h-.46a3.15,3.15,0,0,0-1.26.24,1.79,1.79,0,0,0-.88.78,2.94,2.94,0,0,0-.32,1.52v3.81Zm9.47.19a3.68,3.68,0,0,1-3.4-2,4.58,4.58,0,0,1-.5-2.15,4.43,4.43,0,0,1,.5-2.12,3.76,3.76,0,0,1,1.37-1.48,3.9,3.9,0,0,1,2.05-.54,3.46,3.46,0,0,1,1.65.37,2.68,2.68,0,0,1,1.12,1v-4.8h1.69V385.9h-1.52l-.17-1.23a3.76,3.76,0,0,1-1.06,1A3.13,3.13,0,0,1,465.62,386.09Zm.31-1.47a2.28,2.28,0,0,0,1.77-.75,3,3,0,0,0,0-3.88,2.28,2.28,0,0,0-1.77-.75,2.34,2.34,0,0,0-1.79.75,2.71,2.71,0,0,0-.71,1.94,3,3,0,0,0,.32,1.39,2.34,2.34,0,0,0,2.18,1.3Zm9.48,1.47a4,4,0,0,1-2.48-.74,2.77,2.77,0,0,1-1.12-2h1.71a1.76,1.76,0,0,0,.61,1,2,2,0,0,0,1.26.38,1.63,1.63,0,0,0,1.12-.32,1,1,0,0,0,.36-.74.8.8,0,0,0-.5-.81,6.42,6.42,0,0,0-1.34-.4,11.43,11.43,0,0,1-1.35-.39,3.13,3.13,0,0,1-1.1-.67,1.65,1.65,0,0,1-.43-1.2,2.17,2.17,0,0,1,.8-1.73,3.92,3.92,0,0,1,4.38-.06,2.58,2.58,0,0,1,1,1.81h-1.64a1.14,1.14,0,0,0-.48-.8,1.69,1.69,0,0,0-1-.29,1.62,1.62,0,0,0-1,.27.81.81,0,0,0-.35.67.73.73,0,0,0,.48.66,6.56,6.56,0,0,0,1.3.43,12.89,12.89,0,0,1,1.47.42,2.47,2.47,0,0,1,1.1.67,1.86,1.86,0,0,1,.42,1.31,2.2,2.2,0,0,1-.85,1.81A3.46,3.46,0,0,1,475.41,386.09Z" transform="translate(-291.65 -136.9)" style="fill:#293b4a"></path><path d="M402.55,327.14a7,7,0,0,1-3.64-.9,6.18,6.18,0,0,1-2.34-2.54,9.12,9.12,0,0,1,0-7.56,6.17,6.17,0,0,1,2.34-2.56,7,7,0,0,1,3.64-.92,6.45,6.45,0,0,1,4.12,1.26,5.38,5.38,0,0,1,2,3.5h-2.82a2.92,2.92,0,0,0-1.12-1.78,3.51,3.51,0,0,0-2.24-.66,3.76,3.76,0,0,0-3,1.32,6.51,6.51,0,0,0,0,7.24,4.31,4.31,0,0,0,5.28.7,2.79,2.79,0,0,0,1.12-1.7h2.82a5.22,5.22,0,0,1-2,3.38A6.61,6.61,0,0,1,402.55,327.14Zm13.11,0a5.16,5.16,0,0,1-2.6-.66,5,5,0,0,1-1.82-1.82,5.48,5.48,0,0,1-.66-2.72,5.26,5.26,0,0,1,.68-2.7,4.87,4.87,0,0,1,1.82-1.84,5.16,5.16,0,0,1,2.6-.66,5,5,0,0,1,2.56.66,4.73,4.73,0,0,1,1.82,1.84,5.26,5.26,0,0,1,.68,2.7,5.38,5.38,0,0,1-.68,2.72,4.82,4.82,0,0,1-1.82,1.82A5.11,5.11,0,0,1,415.66,327.14Zm0-2.22a2.38,2.38,0,0,0,1.74-.74,3.1,3.1,0,0,0,.74-2.24,3,3,0,0,0-.74-2.22,2.32,2.32,0,0,0-1.72-.76,2.36,2.36,0,0,0-1.76.76,3.06,3.06,0,0,0-.72,2.22,3.14,3.14,0,0,0,.72,2.24A2.38,2.38,0,0,0,415.66,324.92Zm11.09,2.22a3.64,3.64,0,0,1-2.88-1.16,5.06,5.06,0,0,1-1-3.4V317h2.54v5.36a3.16,3.16,0,0,0,.52,2,1.93,1.93,0,0,0,1.64.68,2.24,2.24,0,0,0,1.74-.76,3,3,0,0,0,.7-2.12V317h2.56v9.92h-2.26l-.2-1.68a3.54,3.54,0,0,1-1.34,1.4A3.82,3.82,0,0,1,426.75,327.14Zm8.45-.24V317h2.26l.2,1.68a3.42,3.42,0,0,1,1.32-1.4,3.92,3.92,0,0,1,2.06-.52,3.63,3.63,0,0,1,2.86,1.16,5,5,0,0,1,1,3.4v5.6h-2.56v-5.36a3.22,3.22,0,0,0-.52-2,1.93,1.93,0,0,0-1.62-.68,2.29,2.29,0,0,0-1.78.76,3,3,0,0,0-.68,2.12v5.12Zm16.26.24a6,6,0,0,1-2.32-.42,4.08,4.08,0,0,1-1.6-1.2,3.45,3.45,0,0,1-.72-1.76h2.58a1.74,1.74,0,0,0,.64,1,2.24,2.24,0,0,0,1.38.4,1.78,1.78,0,0,0,1.22-.34,1,1,0,0,0,.4-.78.83.83,0,0,0-.56-.86,9.19,9.19,0,0,0-1.56-.46c-.42-.09-.86-.21-1.3-.34a6.64,6.64,0,0,1-1.22-.5,2.82,2.82,0,0,1-.88-.8,2.16,2.16,0,0,1-.34-1.22,2.83,2.83,0,0,1,1-2.22,4.45,4.45,0,0,1,3-.9,4.36,4.36,0,0,1,2.8.82,3.29,3.29,0,0,1,1.26,2.26h-2.42c-.14-.73-.7-1.1-1.66-1.1A1.91,1.91,0,0,0,450,319a.85.85,0,0,0-.38.7c0,.29.2.53.58.7a9.19,9.19,0,0,0,1.54.48,17.55,17.55,0,0,1,1.9.54,3,3,0,0,1,1.4.86,2.27,2.27,0,0,1,.52,1.62,2.7,2.7,0,0,1-.48,1.66,3.3,3.3,0,0,1-1.44,1.16A5.36,5.36,0,0,1,451.46,327.14Zm11.23,0a5.37,5.37,0,0,1-2.66-.64,4.7,4.7,0,0,1-1.82-1.8,5.32,5.32,0,0,1-.66-2.68,5.68,5.68,0,0,1,.64-2.74,4.74,4.74,0,0,1,1.8-1.86,5.3,5.3,0,0,1,2.72-.68,5.09,5.09,0,0,1,2.58.64,4.46,4.46,0,0,1,1.74,1.76,4.75,4.75,0,0,1,.64,2.46c0,.15,0,.3,0,.46s0,.33,0,.5h-7.54a2.49,2.49,0,0,0,2.58,2.48,2.31,2.31,0,0,0,1.3-.34,2.21,2.21,0,0,0,.8-.92h2.6a4.76,4.76,0,0,1-.94,1.72,4.47,4.47,0,0,1-1.6,1.2A5.05,5.05,0,0,1,462.69,327.14Zm0-8.32a2.69,2.69,0,0,0-1.66.54,2.41,2.41,0,0,0-.92,1.6h4.94a2.17,2.17,0,0,0-.72-1.56A2.38,2.38,0,0,0,462.71,318.82Zm7.11,8.08V312.5h2.56v14.4Zm5.18,0V312.5h2.56v14.4Zm9.94.24a5.16,5.16,0,0,1-2.6-.66,5,5,0,0,1-1.82-1.82,5.48,5.48,0,0,1-.66-2.72,5.16,5.16,0,0,1,.68-2.7,4.87,4.87,0,0,1,1.82-1.84,5.16,5.16,0,0,1,2.6-.66,5,5,0,0,1,2.56.66,4.73,4.73,0,0,1,1.82,1.84,5.26,5.26,0,0,1,.68,2.7,5.38,5.38,0,0,1-.68,2.72,4.82,4.82,0,0,1-1.82,1.82A5.16,5.16,0,0,1,484.94,327.14Zm0-2.22a2.42,2.42,0,0,0,1.74-.74,3.1,3.1,0,0,0,.74-2.24,3,3,0,0,0-.74-2.22,2.37,2.37,0,0,0-3.48,0,3.06,3.06,0,0,0-.72,2.22,3.14,3.14,0,0,0,.72,2.24A2.38,2.38,0,0,0,484.94,324.92Zm7.36,2V317h2.28l.24,1.86a4.05,4.05,0,0,1,3.66-2.1v2.7h-.72a4.14,4.14,0,0,0-1.5.26,2.06,2.06,0,0,0-1,.9,3.67,3.67,0,0,0-.36,1.78v4.52Zm12,.24a6,6,0,0,1-2.32-.42,4.08,4.08,0,0,1-1.6-1.2,3.45,3.45,0,0,1-.72-1.76h2.58a1.74,1.74,0,0,0,.64,1,2.24,2.24,0,0,0,1.38.4,1.78,1.78,0,0,0,1.22-.34,1,1,0,0,0,.4-.78.83.83,0,0,0-.56-.86,9.19,9.19,0,0,0-1.56-.46c-.42-.09-.86-.21-1.3-.34a6.64,6.64,0,0,1-1.22-.5,2.82,2.82,0,0,1-.88-.8,2.16,2.16,0,0,1-.34-1.22,2.83,2.83,0,0,1,1-2.22,4.45,4.45,0,0,1,3-.9,4.36,4.36,0,0,1,2.8.82,3.29,3.29,0,0,1,1.26,2.26h-2.42c-.14-.73-.7-1.1-1.66-1.1a1.91,1.91,0,0,0-1.12.28.85.85,0,0,0-.38.7c0,.29.2.53.58.7a9.19,9.19,0,0,0,1.54.48,17.55,17.55,0,0,1,1.9.54,3,3,0,0,1,1.4.86,2.27,2.27,0,0,1,.52,1.62,2.7,2.7,0,0,1-.48,1.66,3.3,3.3,0,0,1-1.44,1.16A5.36,5.36,0,0,1,504.33,327.14Z" transform="translate(-291.65 -136.9)" style="fill:#19ad4a"></path><g style="clip-path:url(#clip-path)"><path d="M443.37,219.25c-.59,6-3.86,12-5.9,14.72A7.8,7.8,0,0,0,441,246a2.67,2.67,0,0,1,.26.09s-2.13,15.1-5.57,30.55" transform="translate(-291.65 -136.9)" style="fill:none;stroke:#293b4a;stroke-miterlimit:10;stroke-width:1.1939899921417236px"></path><path d="M485.6,246.31A137.32,137.32,0,0,1,481.52,266" transform="translate(-291.65 -136.9)" style="fill:none;stroke:#293b4a;stroke-miterlimit:10;stroke-width:1.1939899921417236px"></path><path d="M481.52,230.06a96.93,96.93,0,0,1,4.42,19.74s10,1.83,17-6.21" transform="translate(-291.65 -136.9)" style="fill:none;stroke:#293b4a;stroke-miterlimit:10;stroke-width:1.1939899921417236px"></path><path d="M487.85,249.93c2.46,6.12,5.94,12.68,5.94,12.68" transform="translate(-291.65 -136.9)" style="fill:none;stroke:#293b4a;stroke-miterlimit:10;stroke-width:1.1939899921417236px"></path><path d="M456.46,180.19a.94.94,0,1,0-.94-.93A.93.93,0,0,0,456.46,180.19Z" transform="translate(-291.65 -136.9)" style="fill:#293b4a"></path><path d="M458.66,186.24a3.19,3.19,0,0,1-4.46,1.23" transform="translate(-291.65 -136.9)" style="fill:none;stroke:#293b4a;stroke-linejoin:round;stroke-width:1.1939899921417236px"></path><path d="M454.2,205.17c-16.56,4.13-23.78,28.38-24.63,35.35,0,0,4.58.43,6.67,1.75" transform="translate(-291.65 -136.9)" style="fill:none;stroke:#293b4a;stroke-miterlimit:10;stroke-width:1.1939899921417236px"></path><path d="M441.25,284c6.12-12.51,23.45-11.28,23.45-11.28s27.06-11.83,33.89-10.29" transform="translate(-291.65 -136.9)" style="fill:none;stroke:#293b4a;stroke-miterlimit:10;stroke-width:1.1939899921417236px"></path><path d="M446.9,284c5.52-5.91,10.32-5.14,10.32-5.14" transform="translate(-291.65 -136.9)" style="fill:none;stroke:#293b4a;stroke-miterlimit:10;stroke-width:1.1939899921417236px"></path><path d="M455.48,284c9.51.17,10.87-4.21,10.87-4.21,37.55-3.32,42.18-11.87,42.18-11.87s-4.24-32.55-20-54.84c-2.93-4.17-10.49-6.89-17.29-7.62-7.39,14.89-10.49,3.83-10.49,3.83s-9.65,10.09-6.59-4.08c4.59-1.41,4.25-6.38,2.21-12.72-3.18-.39-7.77,1.61-5.95-8.64h-1.48a.4.4,0,0,1-.34-.6c.93-1.57,4-7.91,4.33-10.63" transform="translate(-291.65 -136.9)" style="fill:none;stroke:#293b4a;stroke-linejoin:round;stroke-width:1.1939899921417236px"></path><path d="M409.64,277.67c21.92-3,28.89-15.06,28.89-15.06" transform="translate(-291.65 -136.9)" style="fill:none;stroke:#293b4a;stroke-linejoin:round;stroke-width:1.1939899921417236px"></path><path d="M432,240.52a146.16,146.16,0,0,0-4.8,18.6c-6.55.08-14.87,6.42-20.95,8.68" transform="translate(-291.65 -136.9)" style="fill:none;stroke:#293b4a;stroke-miterlimit:10;stroke-width:1.1939899921417236px"></path><path d="M445.75,246.31a56.93,56.93,0,0,1,10.37,1.62" transform="translate(-291.65 -136.9)" style="fill:none;stroke:#293b4a;stroke-miterlimit:10;stroke-width:1.1939899921417236px"></path><path d="M347.24,245.12,357.48,284h80.16v-3.91H409.39l-9-34.93Z" transform="translate(-291.65 -136.9)" style="fill:none;stroke:#293b4a;stroke-miterlimit:10;stroke-width:1.1939899921417236px"></path><path d="M377.79,268.51c1.67-.37,2.63-2.52,2.13-4.82s-2.25-3.86-3.92-3.5-2.63,2.52-2.14,4.81S376.11,268.87,377.79,268.51Z" transform="translate(-291.65 -136.9)" style="fill:none;stroke:#293b4a;stroke-miterlimit:10;stroke-width:1.1939899921417236px"></path><path d="M437.64,284h72.93" transform="translate(-291.65 -136.9)" style="fill:none;stroke:#293b4a;stroke-miterlimit:10;stroke-width:1.1939899921417236px"></path><path d="M478.59,278.13c-1.15,4.81-1.49,5.88-1.49,5.88" transform="translate(-291.65 -136.9)" style="fill:none;stroke:#293b4a;stroke-miterlimit:10;stroke-width:1.1939899921417236px"></path><path d="M468,202c-4.12,5.36-9.77,2.59-10.49,0" transform="translate(-291.65 -136.9)" style="fill:none;stroke:#293b4a;stroke-linejoin:round;stroke-width:1.1939899921417236px"></path><path d="M501.78,240c-3.69-4-4,3.7-4,3.7s-5.74-7.78-5.53,1.41c0,0-5.18-7.36-6.62,1.19" transform="translate(-291.65 -136.9)" style="fill:none;stroke:#293b4a;stroke-linejoin:round;stroke-width:1.1939899921417236px"></path><path d="M528.16,222.14a2.89,2.89,0,1,0-2.89-2.89A2.89,2.89,0,0,0,528.16,222.14Z" transform="translate(-291.65 -136.9)" style="fill:none;stroke:#293b4a;stroke-miterlimit:10;stroke-width:1.1939899921417236px"></path><path d="M515.5,273.5l2.76,8.29a3.3,3.3,0,0,0,3.1,2.22h13a3.31,3.31,0,0,0,3.11-2.22l2.76-8.29Z" transform="translate(-291.65 -136.9)" style="fill:none;stroke:#293b4a;stroke-miterlimit:10;stroke-width:1.1939899921417236px"></path><path d="M527.91,271.58V233.72" transform="translate(-291.65 -136.9)" style="fill:none;stroke:#293b4a;stroke-miterlimit:10;stroke-width:1.1939899921417236px"></path><path d="M515.08,249.71s1.36,13.62,12.49,15.75C527.52,265.5,528.08,255.33,515.08,249.71Z" transform="translate(-291.65 -136.9)" style="fill:none;stroke:#293b4a;stroke-miterlimit:10;stroke-width:1.1939899921417236px"></path><path d="M542.73,245.8s-13.42,2.51-14.61,13.78C528.08,259.58,538.23,259.24,542.73,245.8Z" transform="translate(-291.65 -136.9)" style="fill:none;stroke:#293b4a;stroke-miterlimit:10;stroke-width:1.1939899921417236px"></path><path d="M515.93,238.48s3,10,11.59,10C527.52,248.44,526.46,240.78,515.93,238.48Z" transform="translate(-291.65 -136.9)" style="fill:none;stroke:#293b4a;stroke-miterlimit:10;stroke-width:1.1939899921417236px"></path><path d="M540.31,236.82s-8.84-1.61-12.23,5C528.08,241.84,534.4,244,540.31,236.82Z" transform="translate(-291.65 -136.9)" style="fill:none;stroke:#293b4a;stroke-miterlimit:10;stroke-width:1.1939899921417236px"></path><path d="M530.84,212.1c-.22-3.06-1.45-5.4-2.93-5.4s-2.77,2.34-2.94,5.4c-2.29-2-4.84-2.8-5.9-1.74s-.3,3.62,1.74,5.91" transform="translate(-291.65 -136.9)" style="fill:none;stroke:#293b4a;stroke-miterlimit:10;stroke-width:1.1939899921417236px"></path><path d="M532.54,227.59c1.74,1.06,3.39,1.32,4.2.51,1.06-1.06.3-3.62-1.74-5.91,3.06-.22,5.39-1.45,5.39-2.94s-2.33-2.76-5.39-2.93c2-2.3,2.8-4.86,1.74-5.92-.76-.76-2.25-.59-3.86.3" transform="translate(-291.65 -136.9)" style="fill:none;stroke:#293b4a;stroke-miterlimit:10;stroke-width:1.1939899921417236px"></path><path d="M518,216.83c-1.57.55-2.59,1.4-2.59,2.42,0,1.49,2.33,2.77,5.39,2.94-2,2.29-2.8,4.85-1.74,5.91s3.61.3,5.9-1.74c.22,3.06,1.45,5.4,2.94,5.4s2.76-2.34,2.93-5.4" transform="translate(-291.65 -136.9)" style="fill:none;stroke:#293b4a;stroke-miterlimit:10;stroke-width:1.1939899921417236px"></path><path d="M505,284h11" transform="translate(-291.65 -136.9)" style="fill:none;stroke:#293b4a;stroke-miterlimit:10;stroke-width:1.1939899921417236px"></path><path d="M530.11,284h23.54" transform="translate(-291.65 -136.9)" style="fill:none;stroke:#293b4a;stroke-miterlimit:10;stroke-width:1.1939899921417236px"></path><path d="M471.28,205.42c-4.29-1.95-7.69-10.68-6.24-14.55a6.92,6.92,0,0,0-1-5.83.93.93,0,0,1,.55-1.36c.68-.21,1.36-1.1,1.74-3.44.81-5.41-4.59-1.92-4.59-1.92v-7.19c-1.74,1.19-1.53,5.15-1.53,5.15-3.65-4.43-10.74-2.81-10.74-2.81s2.29-12.85,12.32-8.76c0,0,17.71-2.26,13.67,24.72-1.74,11.7,2.13,16.76,7.1,18.72Z" transform="translate(-291.65 -136.9)" style="fill:#293b4a"></path><path d="M452.8,192.28c-4.8,6.21-2.21,10.8-6.16,16.67,0,0,12-3.53,11.18-10a32.09,32.09,0,0,0-1.41-6.46Z" transform="translate(-291.65 -136.9)" style="fill:#293b4a"></path><path d="M384.11,217.25c0-6-13.67-10.81-30.5-10.81s-30.54,4.81-30.54,10.81,13.68,10.81,30.5,10.81a79,79,0,0,0,11.77-.85.66.66,0,0,1,.38.08L377,233.72a.61.61,0,0,0,.81-.85l-4.17-6.73a.6.6,0,0,1,.34-.89C380.21,223.34,384.11,220.44,384.11,217.25Z" transform="translate(-291.65 -136.9)" style="fill:none;stroke:#293b4a;stroke-miterlimit:10;stroke-width:1.1939899921417236px"></path><path d="M361.94,184.49c0-6,13.68-10.81,30.5-10.81s30.5,4.85,30.5,10.81-13.64,10.85-30.5,10.85a84.16,84.16,0,0,1-11.72-.81.42.42,0,0,0-.43.13l-8.37,6.47a.59.59,0,0,1-.93-.6l1.7-7.19a.64.64,0,0,0-.43-.72C365.93,190.62,361.94,187.72,361.94,184.49Z" transform="translate(-291.65 -136.9)" style="fill:none;stroke:#293b4a;stroke-miterlimit:10;stroke-width:1.1939899921417236px"></path><path d="M339.51,212.49h26.3" transform="translate(-291.65 -136.9)" style="fill:none;stroke:#293b4a;stroke-miterlimit:10;stroke-width:1.1939899921417236px"></path><path d="M336.54,216.7h32.24" transform="translate(-291.65 -136.9)" style="fill:none;stroke:#293b4a;stroke-miterlimit:10;stroke-width:1.1939899921417236px"></path><path d="M342.31,221.17H363" transform="translate(-291.65 -136.9)" style="fill:none;stroke:#293b4a;stroke-miterlimit:10;stroke-width:1.1939899921417236px"></path><path d="M383.05,186.49a2.26,2.26,0,1,0-2.25-2.25A2.25,2.25,0,0,0,383.05,186.49Z" transform="translate(-291.65 -136.9)" style="fill:none;stroke:#293b4a;stroke-miterlimit:10;stroke-width:1.1939899921417236px"></path><path d="M392.1,186.49a2.26,2.26,0,1,0-2.25-2.25A2.25,2.25,0,0,0,392.1,186.49Z" transform="translate(-291.65 -136.9)" style="fill:none;stroke:#293b4a;stroke-miterlimit:10;stroke-width:1.1939899921417236px"></path><path d="M401.19,186.49a2.26,2.26,0,1,0-2.25-2.25A2.25,2.25,0,0,0,401.19,186.49Z" transform="translate(-291.65 -136.9)" style="fill:none;stroke:#293b4a;stroke-miterlimit:10;stroke-width:1.1939899921417236px"></path><path d="M548.51,290.47H461.43" transform="translate(-291.65 -136.9)" style="fill:none;stroke:#293b4a;stroke-miterlimit:10;stroke-width:1.1939899921417236px"></path><path d="M432,231.08s1.82.34,1.31,4.72c0,.13.17.21.21.09.68-1.19,2.47-3.71,4.72-3" transform="translate(-291.65 -136.9)" style="fill:none;stroke:#293b4a;stroke-linecap:round;stroke-miterlimit:10;stroke-width:1.1939899921417236px"></path></g></svg>