<svg xmlns="http://www.w3.org/2000/svg" xmlns:xlink="http://www.w3.org/1999/xlink" id="Layer_1" data-name="Layer 1" viewBox="0 0 321 287"><defs><clipPath id="clip-path" transform="translate(-291.65 -136.9)"><rect x="336.65" y="167.9" width="231" height="130" style="fill:none"></rect></clipPath></defs><rect width="321" height="287" rx="12.41" style="fill:#fff"></rect><path d="M343,360.9l4.13-11.2H349l4.1,11.2h-1.79l-1-2.74h-4.58l-1,2.74Zm3.23-4.08h3.62L348,351.71ZM359,361.09a3.52,3.52,0,0,1-1.65-.37,2.8,2.8,0,0,1-1.12-1l-.17,1.22h-1.52V349.38h1.69v4.81a3.76,3.76,0,0,1,1.06-1,3.13,3.13,0,0,1,1.73-.43,3.68,3.68,0,0,1,3.4,2,4.68,4.68,0,0,1,0,4.29,3.8,3.8,0,0,1-1.37,1.47A3.94,3.94,0,0,1,359,361.09Zm-.29-1.47a2.37,2.37,0,0,0,1.79-.74,2.73,2.73,0,0,0,.71-1.95,3,3,0,0,0-.32-1.39,2.39,2.39,0,0,0-2.18-1.3,2.36,2.36,0,0,0-1.79.75,3.09,3.09,0,0,0,0,3.89A2.38,2.38,0,0,0,358.73,359.62Zm7-8.16a1.16,1.16,0,0,1-.8-.29,1,1,0,0,1-.3-.75,1,1,0,0,1,.3-.74,1.12,1.12,0,0,1,.8-.3,1.06,1.06,0,0,1,.78.3.93.93,0,0,1,.32.74,1,1,0,0,1-.32.75A1.09,1.09,0,0,1,365.75,351.46Zm-.85,9.44V353h1.7v7.94Zm3.94,0V349.38h1.69V360.9Zm4.8-9.44a1.16,1.16,0,0,1-.8-.29,1,1,0,0,1-.3-.75,1,1,0,0,1,.3-.74,1.12,1.12,0,0,1,.8-.3,1.06,1.06,0,0,1,.78.3.93.93,0,0,1,.32.74,1,1,0,0,1-.32.75A1.09,1.09,0,0,1,373.64,351.46Zm-.85,9.44V353h1.7v7.94Zm7.27,0a2.88,2.88,0,0,1-1.86-.56,2.54,2.54,0,0,1-.69-2v-3.92h-1.36V353h1.36l.21-2h1.49v2h2.24v1.43h-2.24v3.92a1.24,1.24,0,0,0,.27.91,1.55,1.55,0,0,0,1,.24h.91v1.44Zm4.06,3.52,1.91-4.18h-.47L382.43,353h1.84l2.43,5.87,2.54-5.87H391l-5.12,11.46Zm15.67-3.52a2.88,2.88,0,0,1-1.86-.56,2.57,2.57,0,0,1-.68-2v-3.92h-1.36V353h1.36l.2-2h1.49v2h2.24v1.43h-2.24v3.92a1.24,1.24,0,0,0,.27.91,1.57,1.57,0,0,0,1,.24h.91v1.44Zm6.65.19a4.13,4.13,0,0,1-2.05-.51,3.83,3.83,0,0,1-1.42-1.46,4.44,4.44,0,0,1-.53-2.19,4.37,4.37,0,0,1,.53-2.18,3.88,3.88,0,0,1,1.45-1.45,4,4,0,0,1,2-.53,4,4,0,0,1,2,.53,3.72,3.72,0,0,1,1.44,1.45,4.27,4.27,0,0,1,.54,2.18,4.34,4.34,0,0,1-.54,2.19,3.81,3.81,0,0,1-1.44,1.46A4.13,4.13,0,0,1,406.44,361.09Zm0-1.46a2.19,2.19,0,0,0,1.12-.3,2.24,2.24,0,0,0,.85-.9,3.2,3.2,0,0,0,.32-1.5,3.16,3.16,0,0,0-.32-1.49,2.17,2.17,0,0,0-.83-.91,2.21,2.21,0,0,0-1.12-.3,2.26,2.26,0,0,0-1.14.3,2.23,2.23,0,0,0-.83.91,3,3,0,0,0-.32,1.49,3.08,3.08,0,0,0,.32,1.5,2.2,2.2,0,0,0,.83.9A2.16,2.16,0,0,0,406.44,359.63ZM419,361.09a3.55,3.55,0,0,1-1.66-.34,2.28,2.28,0,0,1-1-.88,2.4,2.4,0,0,1-.32-1.21,2.17,2.17,0,0,1,.9-1.83,4.26,4.26,0,0,1,2.56-.67h2.08V356a1.78,1.78,0,0,0-.51-1.39,1.82,1.82,0,0,0-1.3-.47,2.19,2.19,0,0,0-1.23.35,1.42,1.42,0,0,0-.62,1h-1.7a2.67,2.67,0,0,1,.58-1.47,3.1,3.1,0,0,1,1.28-.94,4.18,4.18,0,0,1,1.71-.34,3.52,3.52,0,0,1,2.57.88,3.12,3.12,0,0,1,.92,2.37v4.88h-1.48l-.14-1.36a2.94,2.94,0,0,1-1,1.1A2.83,2.83,0,0,1,419,361.09Zm.34-1.38a1.93,1.93,0,0,0,1.15-.32,2.12,2.12,0,0,0,.74-.88,3.33,3.33,0,0,0,.33-1.2H419.7a2.23,2.23,0,0,0-1.44.36,1.08,1.08,0,0,0-.42.88,1,1,0,0,0,.4.86A1.88,1.88,0,0,0,419.36,359.71Zm9.53,1.38a3.71,3.71,0,0,1-3.41-2,4.57,4.57,0,0,1-.49-2.15,4.42,4.42,0,0,1,.49-2.12,3.72,3.72,0,0,1,1.38-1.48,3.9,3.9,0,0,1,2.05-.54,3.42,3.42,0,0,1,1.64.37,2.62,2.62,0,0,1,1.12,1v-4.8h1.7V360.9h-1.52l-.18-1.23a3.58,3.58,0,0,1-1.05,1A3.15,3.15,0,0,1,428.89,361.09Zm.3-1.47a2.3,2.3,0,0,0,1.78-.75,3,3,0,0,0,0-3.88,2.3,2.3,0,0,0-1.78-.75,2.36,2.36,0,0,0-1.79.75,2.7,2.7,0,0,0-.7,1.94,2.85,2.85,0,0,0,.32,1.39,2.34,2.34,0,0,0,.88,1A2.44,2.44,0,0,0,429.19,359.62Zm7.33-8.16a1.16,1.16,0,0,1-.8-.29,1,1,0,0,1-.31-.75,1,1,0,0,1,.31-.74,1.12,1.12,0,0,1,.8-.3,1.06,1.06,0,0,1,.78.3,1,1,0,0,1,.32.74,1,1,0,0,1-.32.75A1.09,1.09,0,0,1,436.52,351.46Zm-2.53,13V363h.62a1.09,1.09,0,0,0,.8-.24,1,1,0,0,0,.24-.77v-9h1.7v9a2.3,2.3,0,0,1-.66,1.85,2.62,2.62,0,0,1-1.82.58Zm8.52-3.33a3,3,0,0,1-2.27-.9,3.84,3.84,0,0,1-.81-2.67V353h1.69v4.39c0,1.53.63,2.3,1.89,2.3a2,2,0,0,0,1.55-.67,2.75,2.75,0,0,0,.61-1.92V353h1.7v7.94h-1.51l-.13-1.39a2.69,2.69,0,0,1-1.08,1.16A3.15,3.15,0,0,1,442.51,361.09Zm9.68,0a4,4,0,0,1-2.48-.74,2.77,2.77,0,0,1-1.12-2h1.71a1.76,1.76,0,0,0,.61,1,2,2,0,0,0,1.27.38,1.66,1.66,0,0,0,1.12-.32,1,1,0,0,0,.35-.74.8.8,0,0,0-.5-.81,6.42,6.42,0,0,0-1.34-.4,11.43,11.43,0,0,1-1.35-.39,3.13,3.13,0,0,1-1.1-.67,1.65,1.65,0,0,1-.43-1.2,2.17,2.17,0,0,1,.8-1.73,3.92,3.92,0,0,1,4.38-.06,2.58,2.58,0,0,1,1,1.81h-1.63a1.21,1.21,0,0,0-.48-.8,1.73,1.73,0,0,0-1-.29,1.63,1.63,0,0,0-1,.27.81.81,0,0,0-.35.67.73.73,0,0,0,.48.66,6.56,6.56,0,0,0,1.3.43,12.89,12.89,0,0,1,1.47.42,2.47,2.47,0,0,1,1.1.67,1.86,1.86,0,0,1,.42,1.31,2.2,2.2,0,0,1-.85,1.81A3.46,3.46,0,0,1,452.19,361.09Zm8.05-.19a2.86,2.86,0,0,1-1.85-.56,2.54,2.54,0,0,1-.69-2v-3.92h-1.36V353h1.36l.21-2h1.48v2h2.24v1.43h-2.24v3.92a1.24,1.24,0,0,0,.28.91,1.51,1.51,0,0,0,1,.24h.91v1.44Zm9.4,0-3-7.94h1.78l2.21,6.32,2.2-6.32h1.76l-3,7.94Zm7.33-9.44a1.16,1.16,0,0,1-.8-.29,1,1,0,0,1-.31-.75,1,1,0,0,1,.31-.74,1.12,1.12,0,0,1,.8-.3,1.06,1.06,0,0,1,.78.3.93.93,0,0,1,.32.74,1,1,0,0,1-.32.75A1.09,1.09,0,0,1,477,351.46Zm-.85,9.44V353h1.7v7.94Zm7.1.19a4,4,0,0,1-2.48-.74,2.77,2.77,0,0,1-1.12-2h1.72a1.69,1.69,0,0,0,.6,1,2,2,0,0,0,1.27.38,1.66,1.66,0,0,0,1.12-.32,1,1,0,0,0,.35-.74.8.8,0,0,0-.5-.81,6.24,6.24,0,0,0-1.34-.4,10.76,10.76,0,0,1-1.34-.39,3.08,3.08,0,0,1-1.11-.67,1.65,1.65,0,0,1-.43-1.2,2.2,2.2,0,0,1,.8-1.73,3.92,3.92,0,0,1,4.38-.06,2.58,2.58,0,0,1,1,1.81h-1.63a1.21,1.21,0,0,0-.48-.8,1.73,1.73,0,0,0-1-.29,1.58,1.58,0,0,0-1,.27.79.79,0,0,0-.36.67.73.73,0,0,0,.48.66,6.8,6.8,0,0,0,1.3.43,12.89,12.89,0,0,1,1.47.42,2.57,2.57,0,0,1,1.11.67,1.9,1.9,0,0,1,.41,1.31,2.2,2.2,0,0,1-.85,1.81A3.46,3.46,0,0,1,483.22,361.09Zm6-9.63a1.17,1.17,0,0,1-.8-.29,1,1,0,0,1-.3-.75,1,1,0,0,1,.3-.74,1.14,1.14,0,0,1,.8-.3,1.09,1.09,0,0,1,.79.3,1,1,0,0,1,.32.74,1,1,0,0,1-.32.75A1.13,1.13,0,0,1,489.2,351.46Zm-.85,9.44V353h1.7v7.94Zm8.4.19a3.51,3.51,0,0,1-1.64-.37,2.74,2.74,0,0,1-1.12-1l-.18,1.22h-1.52V349.38H494v4.81a3.58,3.58,0,0,1,1.05-1,3.15,3.15,0,0,1,1.73-.43,3.71,3.71,0,0,1,3.41,2,4.77,4.77,0,0,1,0,4.29,3.76,3.76,0,0,1-1.38,1.47A3.91,3.91,0,0,1,496.75,361.09Zm-.28-1.47a2.38,2.38,0,0,0,1.79-.74,2.73,2.73,0,0,0,.7-1.95,2.85,2.85,0,0,0-.32-1.39,2.31,2.31,0,0,0-.88-1,2.4,2.4,0,0,0-1.29-.35,2.36,2.36,0,0,0-1.8.75,3.12,3.12,0,0,0,0,3.89A2.39,2.39,0,0,0,496.47,359.62Zm7-8.16a1.17,1.17,0,0,1-.8-.29,1,1,0,0,1-.3-.75,1,1,0,0,1,.3-.74,1.14,1.14,0,0,1,.8-.3,1.08,1.08,0,0,1,.79.3,1,1,0,0,1,.32.74,1,1,0,0,1-.32.75A1.11,1.11,0,0,1,503.48,351.46Zm-.84,9.44V353h1.69v7.94Zm3.93,0V349.38h1.7V360.9Zm4.8-9.44a1.17,1.17,0,0,1-.8-.29,1,1,0,0,1-.3-.75,1,1,0,0,1,.3-.74,1.14,1.14,0,0,1,.8-.3,1.08,1.08,0,0,1,.79.3,1,1,0,0,1,.32.74,1,1,0,0,1-.32.75A1.11,1.11,0,0,1,511.37,351.46Zm-.84,9.44V353h1.69v7.94Zm7.26,0a2.88,2.88,0,0,1-1.86-.56,2.57,2.57,0,0,1-.68-2v-3.92h-1.36V353h1.36l.2-2h1.49v2h2.24v1.43h-2.24v3.92a1.24,1.24,0,0,0,.27.91,1.57,1.57,0,0,0,1,.24h.91v1.44Zm4.07,3.52,1.9-4.18h-.46L520.16,353H522l2.43,5.87L527,353h1.79l-5.12,11.46Zm15-3.33a3.55,3.55,0,0,1-1.66-.34,2.28,2.28,0,0,1-1-.88,2.4,2.4,0,0,1-.32-1.21,2.17,2.17,0,0,1,.9-1.83,4.26,4.26,0,0,1,2.56-.67h2.08V356a1.78,1.78,0,0,0-.51-1.39,1.82,1.82,0,0,0-1.3-.47,2.19,2.19,0,0,0-1.23.35,1.42,1.42,0,0,0-.62,1h-1.7a2.67,2.67,0,0,1,.58-1.47,3.1,3.1,0,0,1,1.28-.94,4.18,4.18,0,0,1,1.71-.34,3.52,3.52,0,0,1,2.57.88,3.12,3.12,0,0,1,.92,2.37v4.88h-1.48l-.14-1.36a2.94,2.94,0,0,1-1,1.1A2.83,2.83,0,0,1,536.88,361.09Zm.34-1.38a1.93,1.93,0,0,0,1.15-.32,2.12,2.12,0,0,0,.74-.88,3.33,3.33,0,0,0,.33-1.2h-1.88a2.23,2.23,0,0,0-1.44.36,1.08,1.08,0,0,0-.42.88,1,1,0,0,0,.4.86A1.88,1.88,0,0,0,537.22,359.71Zm5.91,1.19V353h1.51l.13,1.39a2.7,2.7,0,0,1,1.07-1.15,3.12,3.12,0,0,1,1.65-.43,2.87,2.87,0,0,1,2.25.9,3.75,3.75,0,0,1,.83,2.67v4.56h-1.68v-4.39c0-1.53-.63-2.3-1.88-2.3a2,2,0,0,0-1.57.67,2.75,2.75,0,0,0-.61,1.92v4.1Zm13.06.19a3.71,3.71,0,0,1-3.41-2,4.58,4.58,0,0,1-.5-2.15,4.43,4.43,0,0,1,.5-2.12,3.72,3.72,0,0,1,1.38-1.48,3.86,3.86,0,0,1,2-.54,3.46,3.46,0,0,1,1.65.37,2.68,2.68,0,0,1,1.12,1v-4.8h1.7V360.9h-1.52l-.18-1.23a3.71,3.71,0,0,1-1.05,1A3.15,3.15,0,0,1,556.19,361.09Zm.3-1.47a2.3,2.3,0,0,0,1.78-.75,3,3,0,0,0,0-3.88,2.3,2.3,0,0,0-1.78-.75,2.36,2.36,0,0,0-1.79.75,2.7,2.7,0,0,0-.7,1.94,2.85,2.85,0,0,0,.32,1.39,2.34,2.34,0,0,0,.88,1A2.44,2.44,0,0,0,556.49,359.62ZM350.41,386.09a4.19,4.19,0,0,1-2.08-.51,3.74,3.74,0,0,1-1.41-1.46,4.42,4.42,0,0,1-.51-2.16,4.65,4.65,0,0,1,.49-2.19,3.77,3.77,0,0,1,1.41-1.47,4.16,4.16,0,0,1,2.11-.53,3.87,3.87,0,0,1,2,.53,3.67,3.67,0,0,1,1.34,1.37,3.9,3.9,0,0,1,.48,1.91c0,.11,0,.22,0,.35s0,.25,0,.4h-6.18a2.55,2.55,0,0,0,.75,1.76,2.34,2.34,0,0,0,1.59.59,2.07,2.07,0,0,0,1.2-.32,2,2,0,0,0,.73-.89H354a3.58,3.58,0,0,1-1.28,1.87A3.66,3.66,0,0,1,350.41,386.09Zm0-6.93a2.4,2.4,0,0,0-1.51.51,2.26,2.26,0,0,0-.8,1.51h4.48a2,2,0,0,0-.65-1.47A2.17,2.17,0,0,0,350.41,379.16Zm9.25,6.93a3.69,3.69,0,0,1-3.41-2,4.58,4.58,0,0,1-.5-2.15,4.43,4.43,0,0,1,.5-2.12,3.76,3.76,0,0,1,1.37-1.48,3.9,3.9,0,0,1,2.05-.54,3.46,3.46,0,0,1,1.65.37,2.68,2.68,0,0,1,1.12,1v-4.8h1.7V385.9h-1.52l-.18-1.23a3.76,3.76,0,0,1-1.06,1A3.09,3.09,0,0,1,359.66,386.09Zm.3-1.47a2.32,2.32,0,0,0,1.78-.75,3,3,0,0,0,0-3.88,2.5,2.5,0,0,0-3.57,0,2.71,2.71,0,0,0-.71,1.94,3,3,0,0,0,.32,1.39,2.34,2.34,0,0,0,2.18,1.3Zm7.27-8.16a1.17,1.17,0,0,1-.8-.29,1,1,0,0,1-.3-.75,1,1,0,0,1,.3-.74,1.14,1.14,0,0,1,.8-.3,1.08,1.08,0,0,1,.79.3,1,1,0,0,1,.32.74,1,1,0,0,1-.32.75A1.11,1.11,0,0,1,367.23,376.46Zm-.84,9.44V378h1.69v7.94Zm7.26,0a2.88,2.88,0,0,1-1.86-.56,2.54,2.54,0,0,1-.69-2v-3.92h-1.36V378h1.36l.21-2h1.49v2H375v1.43H372.8v3.92a1.24,1.24,0,0,0,.27.91,1.57,1.57,0,0,0,1,.24H375v1.44Zm4.1-9.44a1.16,1.16,0,0,1-.8-.29,1,1,0,0,1-.3-.75,1,1,0,0,1,.3-.74,1.12,1.12,0,0,1,.8-.3,1.06,1.06,0,0,1,.78.3.93.93,0,0,1,.32.74,1,1,0,0,1-.32.75A1.09,1.09,0,0,1,377.75,376.46Zm-.85,9.44V378h1.7v7.94Zm3.94,0V378h1.5l.13,1.39a2.7,2.7,0,0,1,1.07-1.15,3.12,3.12,0,0,1,1.65-.43,2.87,2.87,0,0,1,2.25.9,3.75,3.75,0,0,1,.84,2.67v4.56H386.6v-4.39c0-1.53-.63-2.3-1.89-2.3a2,2,0,0,0-1.57.67,2.8,2.8,0,0,0-.61,1.92v4.1Zm12.68-2.43a4.21,4.21,0,0,1-1.15-.15l-.69.67a1.91,1.91,0,0,0,.43.2,4.82,4.82,0,0,0,.72.14c.31,0,.73.09,1.27.13a3.93,3.93,0,0,1,2.29.77,2,2,0,0,1,.7,1.63,2.56,2.56,0,0,1-.38,1.33,2.69,2.69,0,0,1-1.17,1,4.4,4.4,0,0,1-2,.4,5,5,0,0,1-2.7-.64,2.09,2.09,0,0,1-1-1.9,2.22,2.22,0,0,1,.26-1,3,3,0,0,1,.85-.91,3.24,3.24,0,0,1-.59-.3l-.44-.35v-.39l1.38-1.41a2.62,2.62,0,0,1-.93-2.09,2.8,2.8,0,0,1,.37-1.43,2.83,2.83,0,0,1,1.1-1,3.71,3.71,0,0,1,1.73-.38,3.86,3.86,0,0,1,1.25.19h3v1.12l-1.41.08a2.83,2.83,0,0,1,.39,1.46,2.73,2.73,0,0,1-.39,1.44,2.57,2.57,0,0,1-1.09,1A3.49,3.49,0,0,1,393.52,383.47Zm0-1.33a1.76,1.76,0,0,0,1.19-.39,1.59,1.59,0,0,0,0-2.24,1.81,1.81,0,0,0-1.19-.38,1.86,1.86,0,0,0-1.21.38,1.62,1.62,0,0,0,0,2.24A1.81,1.81,0,0,0,393.52,382.14Zm-2.13,4.77a1.1,1.1,0,0,0,.61,1,3,3,0,0,0,1.52.35,2.49,2.49,0,0,0,1.43-.38,1.15,1.15,0,0,0,.54-1,1,1,0,0,0-.37-.8,2.41,2.41,0,0,0-1.39-.4c-.51,0-1-.08-1.36-.15a2,2,0,0,0-.77.66A1.32,1.32,0,0,0,391.39,386.91Zm14.57-.82a3.55,3.55,0,0,1-1.66-.34,2.28,2.28,0,0,1-1-.88,2.4,2.4,0,0,1-.32-1.21,2.17,2.17,0,0,1,.9-1.83,4.26,4.26,0,0,1,2.56-.67h2.08V381a1.78,1.78,0,0,0-.51-1.39,1.84,1.84,0,0,0-1.3-.47,2.19,2.19,0,0,0-1.23.35,1.46,1.46,0,0,0-.63,1h-1.69a2.66,2.66,0,0,1,.57-1.47,3.23,3.23,0,0,1,1.28-.94,4.26,4.26,0,0,1,1.72-.34,3.53,3.53,0,0,1,2.57.88,3.11,3.11,0,0,1,.91,2.37v4.88h-1.47l-.14-1.36a3,3,0,0,1-1,1.1A2.83,2.83,0,0,1,406,386.09Zm.34-1.38a1.93,1.93,0,0,0,1.15-.32,2.12,2.12,0,0,0,.74-.88,3.33,3.33,0,0,0,.33-1.2h-1.89a2.27,2.27,0,0,0-1.44.36,1.1,1.1,0,0,0-.41.88,1,1,0,0,0,.4.86A1.88,1.88,0,0,0,406.3,384.71Zm9.67,1.38a4.14,4.14,0,0,1-2.09-.53,3.78,3.78,0,0,1-1.44-1.45,4.42,4.42,0,0,1-.52-2.18,4.32,4.32,0,0,1,.52-2.16,3.77,3.77,0,0,1,1.44-1.47,4.14,4.14,0,0,1,2.09-.53,4,4,0,0,1,2.47.77,3.42,3.42,0,0,1,1.29,2.08H418a1.72,1.72,0,0,0-.71-1,2.26,2.26,0,0,0-1.28-.36,2.13,2.13,0,0,0-1.15.32,2.21,2.21,0,0,0-.85.91,3.08,3.08,0,0,0-.32,1.47,3.22,3.22,0,0,0,.32,1.49,2.41,2.41,0,0,0,.85.91,2.22,2.22,0,0,0,1.15.32,2.19,2.19,0,0,0,1.28-.37,1.69,1.69,0,0,0,.71-1h1.77a3.46,3.46,0,0,1-1.28,2.07A3.93,3.93,0,0,1,416,386.09Zm9.36,0a4.14,4.14,0,0,1-2.09-.53,3.78,3.78,0,0,1-1.44-1.45,4.42,4.42,0,0,1-.52-2.18,4.32,4.32,0,0,1,.52-2.16,3.77,3.77,0,0,1,1.44-1.47,4.14,4.14,0,0,1,2.09-.53,4,4,0,0,1,2.47.77,3.42,3.42,0,0,1,1.29,2.08h-1.77a1.72,1.72,0,0,0-.71-1,2.26,2.26,0,0,0-1.28-.36,2.13,2.13,0,0,0-1.15.32,2.15,2.15,0,0,0-.85.91,3.08,3.08,0,0,0-.32,1.47,3.22,3.22,0,0,0,.32,1.49,2.34,2.34,0,0,0,.85.91,2.22,2.22,0,0,0,1.15.32,2.19,2.19,0,0,0,1.28-.37,1.69,1.69,0,0,0,.71-1h1.77a3.46,3.46,0,0,1-1.28,2.07A3.93,3.93,0,0,1,425.33,386.09Zm9.31,0a4.19,4.19,0,0,1-2.08-.51,3.88,3.88,0,0,1-1.41-1.46,4.42,4.42,0,0,1-.51-2.16,4.65,4.65,0,0,1,.5-2.19,3.7,3.7,0,0,1,1.41-1.47,4.13,4.13,0,0,1,2.11-.53,3.84,3.84,0,0,1,2,.53,3.6,3.6,0,0,1,1.34,1.37,3.9,3.9,0,0,1,.48,1.91c0,.11,0,.22,0,.35s0,.25,0,.4h-6.17a2.46,2.46,0,0,0,.75,1.76,2.34,2.34,0,0,0,1.58.59,2.07,2.07,0,0,0,1.2-.32,2,2,0,0,0,.74-.89h1.69a3.58,3.58,0,0,1-1.28,1.87A3.64,3.64,0,0,1,434.64,386.09Zm0-6.93a2.39,2.39,0,0,0-1.5.51,2.18,2.18,0,0,0-.8,1.51h4.48a2,2,0,0,0-.66-1.47A2.15,2.15,0,0,0,434.64,379.16Zm8.8,6.93a4,4,0,0,1-2.48-.74,2.77,2.77,0,0,1-1.12-2h1.71a1.76,1.76,0,0,0,.61,1,2,2,0,0,0,1.27.38,1.66,1.66,0,0,0,1.12-.32,1,1,0,0,0,.35-.74.8.8,0,0,0-.5-.81,6.42,6.42,0,0,0-1.34-.4,11.43,11.43,0,0,1-1.35-.39,3.13,3.13,0,0,1-1.1-.67,1.65,1.65,0,0,1-.43-1.2,2.17,2.17,0,0,1,.8-1.73,3.92,3.92,0,0,1,4.38-.06,2.58,2.58,0,0,1,1,1.81h-1.63a1.21,1.21,0,0,0-.48-.8,1.73,1.73,0,0,0-1-.29,1.63,1.63,0,0,0-1,.27.81.81,0,0,0-.35.67.73.73,0,0,0,.48.66,6.56,6.56,0,0,0,1.3.43,12.89,12.89,0,0,1,1.47.42,2.47,2.47,0,0,1,1.1.67,1.86,1.86,0,0,1,.42,1.31,2.2,2.2,0,0,1-.85,1.81A3.46,3.46,0,0,1,443.44,386.09Zm8.19,0a4,4,0,0,1-2.48-.74,2.77,2.77,0,0,1-1.12-2h1.71a1.76,1.76,0,0,0,.61,1,2,2,0,0,0,1.26.38,1.63,1.63,0,0,0,1.12-.32,1,1,0,0,0,.36-.74.8.8,0,0,0-.5-.81,6.42,6.42,0,0,0-1.34-.4,11.43,11.43,0,0,1-1.35-.39,3,3,0,0,1-1.1-.67,1.65,1.65,0,0,1-.43-1.2,2.17,2.17,0,0,1,.8-1.73,3.92,3.92,0,0,1,4.38-.06,2.61,2.61,0,0,1,1,1.81h-1.64a1.14,1.14,0,0,0-.48-.8,1.69,1.69,0,0,0-1-.29,1.62,1.62,0,0,0-1,.27.81.81,0,0,0-.35.67.73.73,0,0,0,.48.66,6.56,6.56,0,0,0,1.3.43,12.89,12.89,0,0,1,1.47.42,2.53,2.53,0,0,1,1.1.67,1.86,1.86,0,0,1,.42,1.31,2.2,2.2,0,0,1-.85,1.81A3.48,3.48,0,0,1,451.63,386.09Zm9.45-.19v-6.51h-1.14V378h1.14v-1.15a2.37,2.37,0,0,1,.64-1.86,2.72,2.72,0,0,1,1.84-.57h.83v1.44h-.57a1.09,1.09,0,0,0-.8.24,1,1,0,0,0-.24.77V378h1.82v1.43h-1.82v6.51Zm8.53.19a4.13,4.13,0,0,1-2.05-.51,3.9,3.9,0,0,1-1.42-1.46,4.44,4.44,0,0,1-.53-2.19,4.37,4.37,0,0,1,.53-2.18,3.84,3.84,0,0,1,1.46-1.45,4.15,4.15,0,0,1,4.06,0,3.72,3.72,0,0,1,1.44,1.45,4.27,4.27,0,0,1,.54,2.18,4.34,4.34,0,0,1-.54,2.19,3.81,3.81,0,0,1-1.44,1.46A4.13,4.13,0,0,1,469.61,386.09Zm0-1.46a2.2,2.2,0,0,0,2-1.2,3.2,3.2,0,0,0,.32-1.5,3.16,3.16,0,0,0-.32-1.49,2.1,2.1,0,0,0-.83-.91,2.19,2.19,0,0,0-1.12-.3,2.26,2.26,0,0,0-1.14.3,2.23,2.23,0,0,0-.83.91,3.16,3.16,0,0,0-.32,1.49,3.2,3.2,0,0,0,.32,1.5,2.14,2.14,0,0,0,1.95,1.2Zm5.87,1.27V378H477l.14,1.51a3.13,3.13,0,0,1,1.15-1.24,3.48,3.48,0,0,1,1.81-.46v1.78h-.46a3.23,3.23,0,0,0-1.27.24,1.88,1.88,0,0,0-.88.78,3,3,0,0,0-.32,1.52v3.81Zm13.82.19a4.19,4.19,0,0,1-2.08-.51,3.74,3.74,0,0,1-1.41-1.46,4.42,4.42,0,0,1-.51-2.16,4.65,4.65,0,0,1,.49-2.19,3.84,3.84,0,0,1,1.41-1.47,4.16,4.16,0,0,1,2.11-.53,3.87,3.87,0,0,1,2,.53,3.67,3.67,0,0,1,1.34,1.37,3.9,3.9,0,0,1,.48,1.91,2.18,2.18,0,0,1,0,.35c0,.12,0,.25,0,.4H487a2.55,2.55,0,0,0,.75,1.76,2.34,2.34,0,0,0,1.59.59,2.07,2.07,0,0,0,1.2-.32,2,2,0,0,0,.73-.89h1.7a3.58,3.58,0,0,1-1.28,1.87A3.66,3.66,0,0,1,489.3,386.09Zm0-6.93a2.4,2.4,0,0,0-1.51.51,2.26,2.26,0,0,0-.8,1.51h4.48a2,2,0,0,0-.65-1.47A2.17,2.17,0,0,0,489.3,379.16Zm8.32,6.93a3.6,3.6,0,0,1-1.67-.34,2.25,2.25,0,0,1-1-.88,2.4,2.4,0,0,1-.32-1.21,2.18,2.18,0,0,1,.89-1.83,4.29,4.29,0,0,1,2.56-.67h2.08V381a1.78,1.78,0,0,0-.51-1.39,1.81,1.81,0,0,0-1.29-.47,2.25,2.25,0,0,0-1.24.35,1.45,1.45,0,0,0-.62,1h-1.7a2.74,2.74,0,0,1,.58-1.47,3.17,3.17,0,0,1,1.28-.94,4.18,4.18,0,0,1,1.71-.34,3.56,3.56,0,0,1,2.58.88,3.11,3.11,0,0,1,.91,2.37v4.88h-1.47l-.15-1.36a2.91,2.91,0,0,1-1,1.1A2.88,2.88,0,0,1,497.62,386.09Zm.33-1.38a2,2,0,0,0,1.16-.32,2.1,2.1,0,0,0,.73-.88,3.34,3.34,0,0,0,.34-1.2h-1.89a2.27,2.27,0,0,0-1.44.36,1.08,1.08,0,0,0-.42.88,1.06,1.06,0,0,0,.4.86A1.9,1.9,0,0,0,498,384.71Zm9.68,1.38a4.2,4.2,0,0,1-2.1-.53,3.78,3.78,0,0,1-1.44-1.45,4.53,4.53,0,0,1-.51-2.18,4.42,4.42,0,0,1,.51-2.16,3.77,3.77,0,0,1,1.44-1.47,4.2,4.2,0,0,1,2.1-.53,3.91,3.91,0,0,1,2.46.77,3.44,3.44,0,0,1,1.3,2.08h-1.78a1.67,1.67,0,0,0-.7-1,2.26,2.26,0,0,0-1.28-.36,2.25,2.25,0,0,0-2,1.23,3,3,0,0,0-.32,1.47,3.1,3.1,0,0,0,.32,1.49,2.27,2.27,0,0,0,.85.91,2.31,2.31,0,0,0,2.43-.05,1.64,1.64,0,0,0,.7-1h1.78a3.46,3.46,0,0,1-1.28,2.07A3.93,3.93,0,0,1,507.63,386.09Zm5.6-.19V374.38h1.69v4.86a2.85,2.85,0,0,1,1.11-1.07,3.17,3.17,0,0,1,1.58-.4,2.86,2.86,0,0,1,2.24.9,3.79,3.79,0,0,1,.82,2.67v4.56H519v-4.39c0-1.53-.62-2.3-1.84-2.3a2.1,2.1,0,0,0-1.6.67,2.71,2.71,0,0,0-.63,1.92v4.1Zm16.39.19a3,3,0,0,1-2.27-.9,3.84,3.84,0,0,1-.81-2.67V378h1.69v4.39c0,1.53.63,2.3,1.89,2.3a2,2,0,0,0,1.55-.67,2.75,2.75,0,0,0,.61-1.92V378H534v7.94h-1.51l-.13-1.39a2.69,2.69,0,0,1-1.08,1.16A3.15,3.15,0,0,1,529.62,386.09Zm9.68,0a4,4,0,0,1-2.48-.74,2.77,2.77,0,0,1-1.12-2h1.71a1.76,1.76,0,0,0,.61,1,2,2,0,0,0,1.27.38,1.66,1.66,0,0,0,1.12-.32,1,1,0,0,0,.35-.74.8.8,0,0,0-.5-.81,6.42,6.42,0,0,0-1.34-.4,11.43,11.43,0,0,1-1.35-.39,3.13,3.13,0,0,1-1.1-.67,1.65,1.65,0,0,1-.43-1.2,2.17,2.17,0,0,1,.8-1.73,3.92,3.92,0,0,1,4.38-.06,2.58,2.58,0,0,1,1,1.81h-1.63a1.21,1.21,0,0,0-.48-.8,1.73,1.73,0,0,0-1-.29,1.63,1.63,0,0,0-1,.27.81.81,0,0,0-.35.67.73.73,0,0,0,.48.66,6.56,6.56,0,0,0,1.3.43,12.89,12.89,0,0,1,1.47.42,2.47,2.47,0,0,1,1.1.67,1.86,1.86,0,0,1,.42,1.31,2.2,2.2,0,0,1-.85,1.81A3.46,3.46,0,0,1,539.3,386.09Zm8.73,0a4.19,4.19,0,0,1-2.08-.51,3.78,3.78,0,0,1-1.4-1.46A4.32,4.32,0,0,1,544,382a4.65,4.65,0,0,1,.5-2.19,3.7,3.7,0,0,1,1.41-1.47,4.16,4.16,0,0,1,2.11-.53,3.81,3.81,0,0,1,2,.53,3.62,3.62,0,0,1,1.35,1.37,3.9,3.9,0,0,1,.48,1.91c0,.11,0,.22,0,.35s0,.25,0,.4H545.7a2.46,2.46,0,0,0,.75,1.76,2.34,2.34,0,0,0,1.58.59,2.07,2.07,0,0,0,1.2-.32,2,2,0,0,0,.74-.89h1.7a3.64,3.64,0,0,1-1.28,1.87A3.68,3.68,0,0,1,548,386.09Zm0-6.93a2.39,2.39,0,0,0-1.5.51,2.22,2.22,0,0,0-.8,1.51h4.48a2,2,0,0,0-.66-1.47A2.15,2.15,0,0,0,548,379.16Zm5.63,6.74V378h1.52l.15,1.51a3.13,3.13,0,0,1,1.15-1.24,3.45,3.45,0,0,1,1.81-.46v1.78h-.47a3.18,3.18,0,0,0-1.26.24,1.84,1.84,0,0,0-.88.78,3,3,0,0,0-.32,1.52v3.81Z" transform="translate(-291.65 -136.9)" style="fill:#293b4a"></path><path d="M354.32,326.9v-14h9V315h-6.48v3.92h5.24v2h-5.24v6Zm14.68.24a3.64,3.64,0,0,1-2.88-1.16,5.06,5.06,0,0,1-1-3.4V317h2.54v5.36a3.16,3.16,0,0,0,.52,2,1.93,1.93,0,0,0,1.64.68,2.24,2.24,0,0,0,1.74-.76,3,3,0,0,0,.7-2.12V317h2.56v9.92h-2.26l-.2-1.68a3.54,3.54,0,0,1-1.34,1.4A3.82,3.82,0,0,1,369,327.14Zm8.44-.24V312.5H380v14.4Zm5.18,0V312.5h2.56v14.4Zm14.7.24a5.16,5.16,0,0,1-2.6-.66,5,5,0,0,1-1.82-1.82,5.48,5.48,0,0,1-.66-2.72,5.26,5.26,0,0,1,.68-2.7,4.87,4.87,0,0,1,1.82-1.84,5.16,5.16,0,0,1,2.6-.66,5,5,0,0,1,2.56.66,4.73,4.73,0,0,1,1.82,1.84,5.26,5.26,0,0,1,.68,2.7,5.38,5.38,0,0,1-.68,2.72,4.82,4.82,0,0,1-1.82,1.82A5.11,5.11,0,0,1,397.32,327.14Zm0-2.22a2.38,2.38,0,0,0,1.74-.74,3.1,3.1,0,0,0,.74-2.24,3,3,0,0,0-.74-2.22,2.32,2.32,0,0,0-1.72-.76,2.36,2.36,0,0,0-1.76.76,3.06,3.06,0,0,0-.72,2.22,3.14,3.14,0,0,0,.72,2.24A2.38,2.38,0,0,0,397.32,324.92Zm7.37,2V317H407l.24,1.86a4.05,4.05,0,0,1,3.66-2.1v2.7h-.72a4.14,4.14,0,0,0-1.5.26,2,2,0,0,0-1,.9,3.67,3.67,0,0,0-.36,1.78v4.52Zm12.7,4.4V317h2.28l.28,1.42a4.55,4.55,0,0,1,1.26-1.16,3.85,3.85,0,0,1,2.06-.5,4.71,4.71,0,0,1,2.5.68,4.87,4.87,0,0,1,1.74,1.86,5.93,5.93,0,0,1,0,5.36,5,5,0,0,1-1.74,1.84,4.79,4.79,0,0,1-2.5.66,4.32,4.32,0,0,1-2-.42,3.46,3.46,0,0,1-1.36-1.18v5.76Zm5.34-6.4a2.71,2.71,0,0,0,2-.82,2.92,2.92,0,0,0,.8-2.12,3,3,0,0,0-.8-2.14,2.87,2.87,0,0,0-4.06,0,3,3,0,0,0-.78,2.12,3,3,0,0,0,.78,2.14A2.7,2.7,0,0,0,422.73,324.9Zm11.12,2.24a4.77,4.77,0,0,1-2.1-.4,3,3,0,0,1-1.22-1.1,3,3,0,0,1-.4-1.5,2.72,2.72,0,0,1,1.08-2.24,5.16,5.16,0,0,1,3.24-.86H437v-.24a1.83,1.83,0,0,0-.58-1.5,2.16,2.16,0,0,0-1.44-.48,2.46,2.46,0,0,0-1.36.38,1.6,1.6,0,0,0-.72,1.08h-2.5a3.58,3.58,0,0,1,.72-1.88,4.18,4.18,0,0,1,1.64-1.22,5.6,5.6,0,0,1,2.24-.44,4.89,4.89,0,0,1,3.34,1.06,3.75,3.75,0,0,1,1.22,3v6.1h-2.18l-.24-1.6a3.64,3.64,0,0,1-1.24,1.32A3.54,3.54,0,0,1,433.85,327.14Zm.58-2a2.08,2.08,0,0,0,1.7-.72,3.34,3.34,0,0,0,.78-1.78h-2.18a2.26,2.26,0,0,0-1.46.38,1.13,1.13,0,0,0-.44.9,1,1,0,0,0,.44.9A2,2,0,0,0,434.43,325.14ZM442,326.9V317h2.28l.24,1.86a4.05,4.05,0,0,1,3.66-2.1v2.7h-.72a4.14,4.14,0,0,0-1.5.26,2.06,2.06,0,0,0-1,.9,3.67,3.67,0,0,0-.36,1.78v4.52Zm12.35,0a3.84,3.84,0,0,1-2.5-.76,3.34,3.34,0,0,1-.94-2.7v-4.32h-1.7V317h1.7l.3-2.66h2.26V317h2.68v2.14h-2.68v4.34a1.34,1.34,0,0,0,.3,1,1.78,1.78,0,0,0,1.08.26h1.24v2.18Zm5.38-11.46a1.67,1.67,0,0,1-1.16-.42,1.41,1.41,0,0,1-.44-1.06,1.35,1.35,0,0,1,.44-1,1.67,1.67,0,0,1,1.16-.42,1.57,1.57,0,0,1,1.14.42,1.3,1.3,0,0,1,.46,1,1.36,1.36,0,0,1-.46,1.06A1.57,1.57,0,0,1,459.7,315.44Zm-1.28,11.46V317H461v9.92Zm8.65.24a4.77,4.77,0,0,1-2.1-.4,3,3,0,0,1-1.22-1.1,3,3,0,0,1-.4-1.5,2.72,2.72,0,0,1,1.08-2.24,5.16,5.16,0,0,1,3.24-.86h2.52v-.24a1.83,1.83,0,0,0-.58-1.5,2.16,2.16,0,0,0-1.44-.48,2.46,2.46,0,0,0-1.36.38,1.6,1.6,0,0,0-.72,1.08h-2.5a3.58,3.58,0,0,1,.72-1.88,4.18,4.18,0,0,1,1.64-1.22,5.6,5.6,0,0,1,2.24-.44,4.89,4.89,0,0,1,3.34,1.06,3.75,3.75,0,0,1,1.22,3v6.1h-2.18l-.24-1.6a3.64,3.64,0,0,1-1.24,1.32A3.54,3.54,0,0,1,467.07,327.14Zm.58-2a2.08,2.08,0,0,0,1.7-.72,3.34,3.34,0,0,0,.78-1.78H468a2.26,2.26,0,0,0-1.46.38,1.13,1.13,0,0,0-.44.9,1,1,0,0,0,.44.9A2,2,0,0,0,467.65,325.14Zm7.55,1.76V312.5h2.56v14.4Zm13.36.24a4.77,4.77,0,0,1-2.1-.4,2.92,2.92,0,0,1-1.22-1.1,2.86,2.86,0,0,1-.4-1.5,2.72,2.72,0,0,1,1.08-2.24,5.16,5.16,0,0,1,3.24-.86h2.52v-.24a1.83,1.83,0,0,0-.58-1.5,2.2,2.2,0,0,0-1.44-.48,2.46,2.46,0,0,0-1.36.38,1.54,1.54,0,0,0-.72,1.08h-2.5a3.58,3.58,0,0,1,.72-1.88,4.11,4.11,0,0,1,1.64-1.22,5.56,5.56,0,0,1,2.24-.44A4.9,4.9,0,0,1,493,317.8a3.78,3.78,0,0,1,1.22,3v6.1h-2.18l-.24-1.6a3.72,3.72,0,0,1-1.24,1.32A3.54,3.54,0,0,1,488.56,327.14Zm.58-2a2.09,2.09,0,0,0,1.7-.72,3.49,3.49,0,0,0,.78-1.78h-2.18A2.24,2.24,0,0,0,488,323a1.13,1.13,0,0,0-.44.9,1,1,0,0,0,.44.9A1.94,1.94,0,0,0,489.14,325.14Zm12.4,2a5.35,5.35,0,0,1-2.68-.66,4.92,4.92,0,0,1-1.84-1.84,5.85,5.85,0,0,1,0-5.4,4.92,4.92,0,0,1,1.84-1.84,5.35,5.35,0,0,1,2.68-.66,5.05,5.05,0,0,1,3.2,1,4.36,4.36,0,0,1,1.66,2.72h-2.7a1.91,1.91,0,0,0-.8-1.12,2.26,2.26,0,0,0-1.38-.42,2.39,2.39,0,0,0-1.8.8,3.7,3.7,0,0,0,0,4.44,2.39,2.39,0,0,0,1.8.8,2.32,2.32,0,0,0,1.38-.4,1.93,1.93,0,0,0,.8-1.14h2.7a4.51,4.51,0,0,1-1.66,2.7A5,5,0,0,1,501.54,327.14Zm12,0a5.35,5.35,0,0,1-2.68-.66,4.92,4.92,0,0,1-1.84-1.84,5.85,5.85,0,0,1,0-5.4,4.92,4.92,0,0,1,1.84-1.84,5.35,5.35,0,0,1,2.68-.66,5.05,5.05,0,0,1,3.2,1,4.36,4.36,0,0,1,1.66,2.72h-2.7a1.91,1.91,0,0,0-.8-1.12,2.26,2.26,0,0,0-1.38-.42,2.39,2.39,0,0,0-1.8.8,3.7,3.7,0,0,0,0,4.44,2.39,2.39,0,0,0,1.8.8,2.32,2.32,0,0,0,1.38-.4,1.93,1.93,0,0,0,.8-1.14h2.7a4.51,4.51,0,0,1-1.66,2.7A5,5,0,0,1,513.53,327.14Zm12,0a5.37,5.37,0,0,1-2.66-.64,4.63,4.63,0,0,1-1.82-1.8,5.32,5.32,0,0,1-.66-2.68,5.68,5.68,0,0,1,.64-2.74,4.74,4.74,0,0,1,1.8-1.86,5.3,5.3,0,0,1,2.72-.68,5.09,5.09,0,0,1,2.58.64,4.6,4.6,0,0,1,1.74,1.76,4.85,4.85,0,0,1,.64,2.46c0,.15,0,.3,0,.46s0,.33,0,.5h-7.54a2.6,2.6,0,0,0,.8,1.82,2.56,2.56,0,0,0,1.78.66,2.31,2.31,0,0,0,1.3-.34,2.28,2.28,0,0,0,.8-.92h2.6a4.76,4.76,0,0,1-.94,1.72,4.47,4.47,0,0,1-1.6,1.2A5.05,5.05,0,0,1,525.49,327.14Zm0-8.32a2.69,2.69,0,0,0-1.66.54,2.41,2.41,0,0,0-.92,1.6h4.94a2.17,2.17,0,0,0-.72-1.56A2.38,2.38,0,0,0,525.51,318.82Zm11.21,8.32a6,6,0,0,1-2.32-.42,4,4,0,0,1-1.6-1.2,3.45,3.45,0,0,1-.72-1.76h2.58a1.69,1.69,0,0,0,.64,1,2.24,2.24,0,0,0,1.38.4,1.78,1.78,0,0,0,1.22-.34,1,1,0,0,0,.4-.78.84.84,0,0,0-.56-.86,9.19,9.19,0,0,0-1.56-.46c-.43-.09-.86-.21-1.3-.34a6.36,6.36,0,0,1-1.22-.5,2.82,2.82,0,0,1-.88-.8,2.09,2.09,0,0,1-.34-1.22,2.83,2.83,0,0,1,1-2.22,4.44,4.44,0,0,1,3-.9,4.38,4.38,0,0,1,2.8.82,3.29,3.29,0,0,1,1.26,2.26h-2.42c-.15-.73-.7-1.1-1.66-1.1a1.91,1.91,0,0,0-1.12.28.85.85,0,0,0-.38.7c0,.29.19.53.58.7a9.19,9.19,0,0,0,1.54.48,18.23,18.23,0,0,1,1.9.54,3.09,3.09,0,0,1,1.4.86,2.27,2.27,0,0,1,.52,1.62,2.83,2.83,0,0,1-.48,1.66,3.3,3.3,0,0,1-1.44,1.16A5.43,5.43,0,0,1,536.72,327.14Zm10.51,0a5.93,5.93,0,0,1-2.32-.42,4,4,0,0,1-1.6-1.2,3.45,3.45,0,0,1-.72-1.76h2.58a1.69,1.69,0,0,0,.64,1,2.24,2.24,0,0,0,1.38.4,1.8,1.8,0,0,0,1.22-.34,1,1,0,0,0,.4-.78.84.84,0,0,0-.56-.86,9.8,9.8,0,0,0-1.56-.46c-.43-.09-.86-.21-1.3-.34a6.36,6.36,0,0,1-1.22-.5,2.72,2.72,0,0,1-.88-.8,2.09,2.09,0,0,1-.34-1.22,2.8,2.8,0,0,1,1-2.22,5.26,5.26,0,0,1,5.76-.08,3.37,3.37,0,0,1,1.26,2.26h-2.42c-.15-.73-.7-1.1-1.66-1.1a1.89,1.89,0,0,0-1.12.28.83.83,0,0,0-.38.7c0,.29.19.53.58.7a8.9,8.9,0,0,0,1.54.48,19,19,0,0,1,1.9.54,3.14,3.14,0,0,1,1.4.86,2.32,2.32,0,0,1,.52,1.62,2.83,2.83,0,0,1-.48,1.66,3.42,3.42,0,0,1-1.44,1.16A5.43,5.43,0,0,1,547.23,327.14Z" transform="translate(-291.65 -136.9)" style="fill:#19ad4a"></path><g style="clip-path:url(#clip-path)"><path d="M387.09,215.13c-1.95,2.67-4.37,5.12-6.87,5.67-6.15,1.36-5.69-12.24-5.69-12.24l-3.14-.42.21-4.62c.3-5-1.48-6.1-1.48-6.1" transform="translate(-291.65 -136.9)" style="fill:none;stroke:#293b4a;stroke-linejoin:round;stroke-width:1.1939899921417236px"></path><path d="M377,213.77a9.16,9.16,0,0,0,5.43-2.24" transform="translate(-291.65 -136.9)" style="fill:none;stroke:#293b4a;stroke-linejoin:round;stroke-width:1.1939899921417236px"></path><path d="M379.67,182c-5.31-5.88-10.48,2.12-9.08,3.69a6,6,0,0,0-3.1,6.69s-6.19,9.36,3.9,7.58c0,0,1.4-4.53,9.46-2.58a17.24,17.24,0,0,0,8.32.25s.34,2.8-1.57,3.9c0,0-.51,7.71,1.1,7.58,0,0,3.69-1.73,4.92-.38s3.91-4.95.3-8.38c0,0,4.5-3.69.81-6.32,0,0,2.41-7.83-4.8-5.29,0,0,1.19-7-5.85-4.87C384.08,183.91,383.36,180.9,379.67,182Z" transform="translate(-291.65 -136.9)" style="fill:#293b4a"></path><path d="M378.61,203.61a1.06,1.06,0,1,0-1.07-1.06A1.07,1.07,0,0,0,378.61,203.61Z" transform="translate(-291.65 -136.9)" style="fill:#293b4a"></path><path d="M390.44,198.1c-1.57,14.74,7,17.79,7,17.79s6.11,0,14.64,4.91" transform="translate(-291.65 -136.9)" style="fill:none;stroke:#293b4a;stroke-miterlimit:10;stroke-width:1.1939899921417236px"></path><path d="M375.51,216.87C363.59,220.47,356,230,351.2,240.5" transform="translate(-291.65 -136.9)" style="fill:none;stroke:#293b4a;stroke-miterlimit:10;stroke-width:1.1939899921417236px"></path><path d="M366.77,239.44a49,49,0,0,0-1.74,7.25" transform="translate(-291.65 -136.9)" style="fill:none;stroke:#293b4a;stroke-miterlimit:10;stroke-width:1.1939899921417236px"></path><path d="M382.38,196.62c2.55.72-1.27,10,1.4,8.89s2.12-2.67,4.46-3.77,1.57-8.85,1.57-8.85l-6,3.81Z" transform="translate(-291.65 -136.9)" style="fill:#293b4a"></path><path d="M400.67,216.27c-26,30.12-31,13.18-25.16.6" transform="translate(-291.65 -136.9)" style="fill:none;stroke:#293b4a;stroke-miterlimit:10;stroke-width:1.1939899921417236px"></path><path d="M413.48,210.38a38.21,38.21,0,1,1-38.18-38.16A38.45,38.45,0,0,1,413.48,210.38Z" transform="translate(-291.65 -136.9)" style="fill:none;stroke:#293b4a;stroke-miterlimit:10;stroke-width:1.1939899921417236px"></path><path d="M356,260a3.22,3.22,0,1,0-3.22-3.22A3.22,3.22,0,0,0,356,260Z" transform="translate(-291.65 -136.9)" style="fill:#00b139;stroke:#293b4a;stroke-miterlimit:10;stroke-width:1.1939899921417236px"></path><path d="M365.62,260a3.22,3.22,0,1,0-3.22-3.22A3.23,3.23,0,0,0,365.62,260Z" transform="translate(-291.65 -136.9)" style="fill:#00b139;stroke:#293b4a;stroke-miterlimit:10;stroke-width:1.1939899921417236px"></path><path d="M375.3,260a3.22,3.22,0,1,0-3.23-3.22A3.22,3.22,0,0,0,375.3,260Z" transform="translate(-291.65 -136.9)" style="fill:none;stroke:#293b4a;stroke-miterlimit:10;stroke-width:1.1939899921417236px"></path><path d="M384.93,260a3.22,3.22,0,1,0-3.23-3.22A3.22,3.22,0,0,0,384.93,260Z" transform="translate(-291.65 -136.9)" style="fill:none;stroke:#293b4a;stroke-miterlimit:10;stroke-width:1.1939899921417236px"></path><path d="M394.6,260a3.22,3.22,0,1,0-3.23-3.22A3.22,3.22,0,0,0,394.6,260Z" transform="translate(-291.65 -136.9)" style="fill:none;stroke:#293b4a;stroke-miterlimit:10;stroke-width:1.1939899921417236px"></path><path d="M509.7,260a3.22,3.22,0,1,0-3.23-3.22A3.22,3.22,0,0,0,509.7,260Z" transform="translate(-291.65 -136.9)" style="fill:#00b139;stroke:#293b4a;stroke-miterlimit:10;stroke-width:1.1939899921417236px"></path><path d="M519.37,260a3.22,3.22,0,1,0-3.23-3.22A3.22,3.22,0,0,0,519.37,260Z" transform="translate(-291.65 -136.9)" style="fill:none;stroke:#293b4a;stroke-miterlimit:10;stroke-width:1.1939899921417236px"></path><path d="M529,260a3.22,3.22,0,1,0-3.22-3.22A3.23,3.23,0,0,0,529,260Z" transform="translate(-291.65 -136.9)" style="fill:none;stroke:#293b4a;stroke-miterlimit:10;stroke-width:1.1939899921417236px"></path><path d="M538.67,260a3.22,3.22,0,1,0-3.22-3.22A3.23,3.23,0,0,0,538.67,260Z" transform="translate(-291.65 -136.9)" style="fill:none;stroke:#293b4a;stroke-miterlimit:10;stroke-width:1.1939899921417236px"></path><path d="M548.34,260a3.22,3.22,0,1,0-3.22-3.22A3.22,3.22,0,0,0,548.34,260Z" transform="translate(-291.65 -136.9)" style="fill:none;stroke:#293b4a;stroke-miterlimit:10;stroke-width:1.1939899921417236px"></path><path d="M523.48,191.58c-4.54,1-5.77,7.45-5.77,7.45" transform="translate(-291.65 -136.9)" style="fill:none;stroke:#293b4a;stroke-miterlimit:10;stroke-width:1.1939899921417236px"></path><path d="M567.22,206.49A38.23,38.23,0,1,1,529,168.32,38.13,38.13,0,0,1,567.22,206.49Z" transform="translate(-291.65 -136.9)" style="fill:none;stroke:#293b4a;stroke-miterlimit:10;stroke-width:1.1939899921417236px"></path><path d="M525.35,190.31c3.39,9.53,5.3,16,7.76,14,0,0,2.08-1.23,3.19.63a4.17,4.17,0,0,1,.08,3.73c3.65,8.34-3.65,20.8-1.19,22.32s12.86,4.53,14-6.35.51-38.76-20-37.28C524.54,187.72,525.35,190.31,525.35,190.31Z" transform="translate(-291.65 -136.9)" style="fill:#293b4a;stroke:#293b4a;stroke-miterlimit:10;stroke-width:1.1939899921417236px;fill-rule:evenodd"></path><path d="M526.24,215.68a7.16,7.16,0,0,1-7,1.06" transform="translate(-291.65 -136.9)" style="fill:none;stroke:#293b4a;stroke-miterlimit:10;stroke-width:1.1939899921417236px"></path><path d="M522.38,206.19c1.59,0,2.89-1.71,2.89-3.81s-1.3-3.81-2.89-3.81-2.88,1.7-2.88,3.81S520.79,206.19,522.38,206.19Z" transform="translate(-291.65 -136.9)" style="fill:none;stroke:#293b4a;stroke-miterlimit:10;stroke-width:1.1939899921417236px"></path><path d="M516.36,206.19c-1.62,0-2.89-1.69-2.89-3.81s1.32-3.81,2.89-3.81a2.83,2.83,0,0,1,1.14.29l.26.21a27.81,27.81,0,0,1-4.08,11.65,1.74,1.74,0,0,0,1.15,2.71l2.33.34-.38,8.18s5.39,3.77,15.49-.64" transform="translate(-291.65 -136.9)" style="fill:none;stroke:#293b4a;stroke-miterlimit:10;stroke-width:1.1939899921417236px"></path><path d="M522.08,202.38l2.55-2.46" transform="translate(-291.65 -136.9)" style="fill:none;stroke:#293b4a;stroke-miterlimit:10;stroke-width:1.1939899921417236px"></path><path d="M516.7,204a5.86,5.86,0,0,1,3.43.21" transform="translate(-291.65 -136.9)" style="fill:none;stroke:#293b4a;stroke-miterlimit:10;stroke-width:1.1939899921417236px"></path><path d="M519.28,223c-3.47,8.09-7.59,9.23.22,8.72s6.74-8.6,6.74-8.6A16,16,0,0,1,519.28,223Z" transform="translate(-291.65 -136.9)" style="fill:#293b4a;fill-rule:evenodd"></path><path d="M508.59,236.48c4.2-4.92,11-5.47,11-5.47" transform="translate(-291.65 -136.9)" style="fill:none;stroke:#293b4a;stroke-miterlimit:10;stroke-width:1.1939899921417236px"></path><path d="M525.31,225.21c5,4.53,10,1.1,10.22,0" transform="translate(-291.65 -136.9)" style="fill:none;stroke:#293b4a;stroke-miterlimit:10;stroke-width:1.1939899921417236px"></path><path d="M550.21,218.86c.47,5.16,2.38,17.66,2.38,17.66l-4.75,3.18a14.54,14.54,0,0,0-9.72-6.91Z" transform="translate(-291.65 -136.9)" style="fill:#293b4a;fill-rule:evenodd"></path><path d="M433.93,297.47a3.22,3.22,0,1,0-3.23-3.21A3.22,3.22,0,0,0,433.93,297.47Z" transform="translate(-291.65 -136.9)" style="fill:#00b139;stroke:#293b4a;stroke-miterlimit:10;stroke-width:1.1939899921417236px"></path><path d="M443.6,297.47a3.22,3.22,0,1,0-3.23-3.21A3.22,3.22,0,0,0,443.6,297.47Z" transform="translate(-291.65 -136.9)" style="fill:#00b139;stroke:#293b4a;stroke-miterlimit:10;stroke-width:1.1939899921417236px"></path><path d="M453.23,297.47a3.22,3.22,0,1,0-3.22-3.21A3.22,3.22,0,0,0,453.23,297.47Z" transform="translate(-291.65 -136.9)" style="fill:#00b139;stroke:#293b4a;stroke-miterlimit:10;stroke-width:1.1939899921417236px"></path><path d="M462.9,297.47a3.22,3.22,0,1,0-3.22-3.21A3.22,3.22,0,0,0,462.9,297.47Z" transform="translate(-291.65 -136.9)" style="fill:#00b139;stroke:#293b4a;stroke-miterlimit:10;stroke-width:1.1939899921417236px"></path><path d="M472.57,297.47a3.22,3.22,0,1,0-3.22-3.21A3.22,3.22,0,0,0,472.57,297.47Z" transform="translate(-291.65 -136.9)" style="fill:none;stroke:#293b4a;stroke-miterlimit:10;stroke-width:1.1939899921417236px"></path><path d="M491.45,244.91a38.22,38.22,0,0,1-76.44,0,38.22,38.22,0,0,1,76.44,0Z" transform="translate(-291.65 -136.9)" style="fill:none;stroke:#293b4a;stroke-miterlimit:10;stroke-width:1.1939899921417236px"></path><path d="M428.37,273.88a100.06,100.06,0,0,1,14.17-4.32" transform="translate(-291.65 -136.9)" style="fill:none;stroke:#293b4a;stroke-linejoin:round;stroke-width:1.1939899921417236px"></path><path d="M473.13,277.52a73.3,73.3,0,0,0-11.59-9.23c-1.78,16-11.41-1.36-11.41-1.36" transform="translate(-291.65 -136.9)" style="fill:none;stroke:#293b4a;stroke-linejoin:round;stroke-width:1.1939899921417236px"></path><path d="M463.54,236.44c.34,2.58,3.35,9.7,4.24,11.18a.39.39,0,0,1-.34.59l-1.36.26c.17,1.05.34,2.2.47,3" transform="translate(-291.65 -136.9)" style="fill:none;stroke:#293b4a;stroke-linejoin:round;stroke-width:1.1939899921417236px"></path><path d="M461.54,268.29c-1.61-2.54-1.61-5.68.3-11.78,2.72,1,4.8,1.27,4.8-3.09" transform="translate(-291.65 -136.9)" style="fill:none;stroke:#293b4a;stroke-linejoin:round;stroke-width:1.1939899921417236px"></path><path d="M451.53,247.24c.64,6.52,2.46,14.44-1.4,19.69l-7.59,2.63c4.79,2.2,5,7.41,3.1,12.75" transform="translate(-291.65 -136.9)" style="fill:none;stroke:#293b4a;stroke-linejoin:round;stroke-width:1.1939899921417236px"></path><path d="M466.68,253.46c-1.83.81-4.37.39-5.77-2.5a9,9,0,0,0,5.64.56C466.21,252.32,466.13,253,466.68,253.46Z" transform="translate(-291.65 -136.9)" style="fill:none;stroke:#293b4a;stroke-linejoin:round;stroke-width:1.1939899921417236px"></path><path d="M460.91,245.46a1.19,1.19,0,1,0-1.19-1.19A1.19,1.19,0,0,0,460.91,245.46Z" transform="translate(-291.65 -136.9)" style="fill:#293b4a"></path><path d="M453.19,226.78c-22.83-4.66-23.63,13.85-15.62,17.15l19.86-7.66Z" transform="translate(-291.65 -136.9)" style="fill:#293b4a"></path><path d="M460.23,225.93c-14.47-9.32-20,3.22-15.4,7.67l15.74,0Z" transform="translate(-291.65 -136.9)" style="fill:#293b4a"></path><path d="M445.17,235.08c-14.89,13.94-13,24-1.91,24s20.66,1.48,11.24-10S460,237.28,460,237.28c24,4.15,1.57-29.86-3-5.72" transform="translate(-291.65 -136.9)" style="fill:#293b4a"></path><path d="M459.38,236.44c-6.41,5.63-.51,10.29-3.48,9.53s-4,1.31-4,1.31l-6.7-6,6.7-6.82Z" transform="translate(-291.65 -136.9)" style="fill:#293b4a"></path></g></svg>