<svg xmlns="http://www.w3.org/2000/svg" id="Layer_1" data-name="Layer 1" viewBox="0 0 723 256.85"><circle cx="82.5" cy="142.5" r="82.5" style="fill:#fff"></circle><circle cx="82.5" cy="142.5" r="82" style="fill:none;stroke:#ffcd00"></circle><path d="M186.31,356.93l.05-4.74L161.07,352l0,4.75a2.36,2.36,0,0,1-2.35,2.31l-9.9-.08-.13,15.7c-.19,22.18,24.6,34.17,24.6,34.17s25-11.59,25.17-33.75l.13-15.7-9.91-.08A2.38,2.38,0,0,1,186.31,356.93Z" transform="translate(-90.65 -151.97)" style="fill:#ffcd00"></path><path d="M183.85,369.55H163.07v18.53h20.78Z" transform="translate(-90.65 -151.97)" style="fill:#293b4a"></path><path d="M179.59,369.55v-2.78a6.13,6.13,0,0,0-12.25,0v2.78" transform="translate(-90.65 -151.97)" style="fill:none;stroke:#293b4a;stroke-miterlimit:10;stroke-width:1.9176199436187744px"></path><circle cx="268.5" cy="82.5" r="82.5" style="fill:#fff"></circle><circle cx="268.5" cy="82.5" r="82" style="fill:none;stroke:#ffcd00"></circle><path d="M372.31,296.93l.05-4.74L347.08,292l-.05,4.75a2.36,2.36,0,0,1-2.35,2.31l-9.9-.08-.13,15.7c-.19,22.18,24.6,34.17,24.6,34.17s25-11.59,25.17-33.75l.13-15.7-9.91-.08A2.38,2.38,0,0,1,372.31,296.93Z" transform="translate(-90.65 -151.97)" style="fill:#ffcd00"></path><path d="M369.85,309.55H349.07v18.53h20.78Z" transform="translate(-90.65 -151.97)" style="fill:#293b4a"></path><path d="M365.59,309.55v-2.78a6.13,6.13,0,0,0-12.25,0v2.78" transform="translate(-90.65 -151.97)" style="fill:none;stroke:#293b4a;stroke-miterlimit:10;stroke-width:1.9176199436187744px"></path><circle cx="454.5" cy="82.5" r="82.5" style="fill:#fff"></circle><circle cx="454.5" cy="82.5" r="82" style="fill:none;stroke:#ffcd00"></circle><path d="M558.31,296.93l.05-4.74L533.08,292l-.05,4.75a2.36,2.36,0,0,1-2.35,2.31l-9.9-.08-.13,15.7c-.19,22.18,24.6,34.17,24.6,34.17s25-11.59,25.17-33.75l.13-15.7-9.91-.08A2.38,2.38,0,0,1,558.31,296.93Z" transform="translate(-90.65 -151.97)" style="fill:#ffcd00"></path><path d="M555.85,309.55H535.07v18.53h20.78Z" transform="translate(-90.65 -151.97)" style="fill:#293b4a"></path><path d="M551.59,309.55v-2.78a6.13,6.13,0,0,0-12.25,0v2.78" transform="translate(-90.65 -151.97)" style="fill:none;stroke:#293b4a;stroke-miterlimit:10;stroke-width:1.9176199436187744px"></path><circle cx="640.5" cy="142.5" r="82.5" style="fill:#fff"></circle><circle cx="640.5" cy="142.5" r="82" style="fill:none;stroke:#ffcd00"></circle><path d="M744.31,356.93l.05-4.74L719.08,352l-.05,4.75a2.36,2.36,0,0,1-2.35,2.31l-9.9-.08-.13,15.7c-.19,22.18,24.6,34.17,24.6,34.17s25-11.59,25.17-33.75l.13-15.7-9.91-.08A2.38,2.38,0,0,1,744.31,356.93Z" transform="translate(-90.65 -151.97)" style="fill:#ffcd00"></path><path d="M741.85,369.55H721.07v18.53h20.78Z" transform="translate(-90.65 -151.97)" style="fill:#293b4a"></path><path d="M737.59,369.55v-2.78a6.13,6.13,0,0,0-12.25,0v2.78" transform="translate(-90.65 -151.97)" style="fill:none;stroke:#293b4a;stroke-miterlimit:10;stroke-width:1.9176199436187744px"></path><path d="M183.6,285.18a1.53,1.53,0,1,0-1.53-1.53A1.53,1.53,0,0,0,183.6,285.18Z" transform="translate(-90.65 -151.97)" style="fill:#293b4a"></path><path d="M168.06,300c2.29,6.11-.43,16.3-1.44,19.52,0,0-2.89,9.6,27.42,12.82" transform="translate(-90.65 -151.97)" style="fill:none;stroke:#293b4a;stroke-miterlimit:10;stroke-width:2px"></path><path d="M194,332.47c-3.23-1.78-10.53-10.87-10.53-10.87-2.63-4.24-2.63-7.05.51-17.06,5-.6,9.85,5.26,7-11l2.38-1.19a.59.59,0,0,0,.51-.93c-1.53-2.46-6.37-16-6.88-20.29" transform="translate(-90.65 -151.97)" style="fill:none;stroke:#293b4a;stroke-linejoin:round;stroke-width:2px"></path><path d="M178.67,292.65c1.11,3.57,3.57,6.28,8.32,3.9" transform="translate(-90.65 -151.97)" style="fill:none;stroke:#293b4a;stroke-linejoin:round;stroke-width:2px"></path><path d="M187.08,271.08c-13.42-6-13,10.62-13,10.62s-8.15-1.87-4,5.77c0,0-4.25,8.83-2,12.65,0,0-21.48,2.46-14.1-27.85,4.59-19.18,30.15-21.14,33.71-9C189.71,270.41,187.08,271.08,187.08,271.08Z" transform="translate(-90.65 -151.97)" style="fill:#293b4a;stroke:#293b4a;stroke-linejoin:round;stroke-width:2px"></path><path d="M163.39,257.84c17.06-34.3-15-29-29.55-.68S159,262.68,159,262.68Z" transform="translate(-90.65 -151.97)" style="fill:#293b4a;stroke:#293b4a;stroke-linejoin:round;stroke-width:2px"></path><path d="M151.84,266.41a28,28,0,0,1,14.78-15.19c4.75,3.31,4.33,4.5,4.33,4.5S158.8,262,155.41,268Z" transform="translate(-90.65 -151.97)" style="fill:#fff;stroke:#293b4a;stroke-linejoin:round;stroke-width:2px"></path><path d="M145.22,338.67s6.37-16,21.4-19.11" transform="translate(-90.65 -151.97)" style="fill:none;stroke:#293b4a;stroke-linejoin:round;stroke-width:2px"></path><path d="M365.4,226.82s1.44-5.94,0-8.15a1.6,1.6,0,0,0-2-.51l-1.95.85s-2.21-1.1-1.53-4.67,0-6.2-3.9-5.52S340,209,340,207c0-10.69,12.74-19.69,27.34-14.43,13.24,4.84,13.16,18.85,12.39,24.2s-7,14.09-9.76,15.87C370.07,232.68,368.54,227.41,365.4,226.82Z" transform="translate(-90.65 -151.97)" style="fill:#293b4a"></path><path d="M345.1,210.94c-.76,6.63-3.82,13.93-5.77,16.73a2.32,2.32,0,0,0,1.44,3.57l4.25.5" transform="translate(-90.65 -151.97)" style="fill:none;stroke:#293b4a;stroke-linejoin:round;stroke-width:2px"></path><path d="M355.21,234.21a9.28,9.28,0,0,1-9,1.36" transform="translate(-90.65 -151.97)" style="fill:none;stroke:#293b4a;stroke-miterlimit:10;stroke-width:2px"></path><path d="M361.75,241.51c-13.08,5.69-20.13.85-20.13.85v-11" transform="translate(-90.65 -151.97)" style="fill:none;stroke:#293b4a;stroke-miterlimit:10;stroke-width:2px"></path><path d="M346.21,218.42c-.09,5.26,7.55,11,10.27-1l-18.76-3.15s-1,7.05,4.67,7.82" transform="translate(-90.65 -151.97)" style="fill:none;stroke:#293b4a;stroke-miterlimit:10;stroke-width:2px"></path><path d="M347.06,253.9c2.63,7.64,19.35,9.09,24.7,1.62s-2.71-13.84-1.78-29.63" transform="translate(-90.65 -151.97)" style="fill:none;stroke:#293b4a;stroke-linejoin:round;stroke-width:2px"></path><path d="M560.14,222.22a1.45,1.45,0,1,0-1.44-1.45A1.45,1.45,0,0,0,560.14,222.22Z" transform="translate(-90.65 -151.97)" style="fill:#293b4a"></path><path d="M546.64,254.39c.94-3,1.7-10.95,1.36-12.9a28.44,28.44,0,0,1,0-4.84s12.14-4.75,2.55-15.62c-7-8,15.37-8.15,15.37-8.15C578.48,207.36,582.3,177,552.76,175c-19.79-1.27-22.93,28.44-22.93,28.44C462.34,266.28,546.64,254.39,546.64,254.39Z" transform="translate(-90.65 -151.97)" style="fill:#293b4a"></path><path d="M557.26,229.94c1.86,3.82,6.28,3.74,8.57,2.38" transform="translate(-90.65 -151.97)" style="fill:none;stroke:#293b4a;stroke-linejoin:round;stroke-width:2px"></path><path d="M571.77,268.4c-23.51,21.23-46.27-2.63-46.27-2.63s-3.65-1.87,4.84-5.26c0,0,14.1,17.4,37.95,2.88a34.31,34.31,0,0,1-6.37-5.09c-2.46-4-2.46-8.83.51-18.25,4.76-.51,9.26,2.8,6.54-12.48h2.21a.63.63,0,0,0,.51-.94c-1.44-2.29-5.94-11.8-6.45-15.79" transform="translate(-90.65 -151.97)" style="fill:none;stroke:#293b4a;stroke-linejoin:round;stroke-width:2px"></path><path d="M730.17,287.17a1.53,1.53,0,1,0-1.53-1.53A1.52,1.52,0,0,0,730.17,287.17Z" transform="translate(-90.65 -151.97)" style="fill:#293b4a"></path><path d="M718.45,285.56a1.53,1.53,0,1,0-1.53-1.53A1.53,1.53,0,0,0,718.45,285.56Z" transform="translate(-90.65 -151.97)" style="fill:#293b4a"></path><path d="M725.67,278.6c-5.86,9.34-7.31,16.13-7.31,16.13l6.88,1.1" transform="translate(-90.65 -151.97)" style="fill:none;stroke:#293b4a;stroke-linejoin:round;stroke-width:2px"></path><path d="M732.54,299.06c-2.88,5.69-8.15,4.07-8.15,4.07" transform="translate(-90.65 -151.97)" style="fill:none;stroke:#293b4a;stroke-miterlimit:10;stroke-width:2px"></path><path d="M715.65,272.48a.54.54,0,0,0,1,.26c2-3.4,6.87-1.1,6.87-1.1,6.8-7.56,20.89,0,15.71,5.85a1.68,1.68,0,0,0-.42,1.28v.17a1.75,1.75,0,0,0,2.8,1c2.12-1.79,4.67-3.23,2.54,2.8-2.37,6.79-3.82,7.47-4.41,7.38-.17,0-.34.09-.26.26l.6,5.18a16.66,16.66,0,0,1,.51,2.88v.68a34.16,34.16,0,0,0,5.18-4.58c10.7-11.29,7.13-22.58,2.8-29.63-5.86-9.51-19-12.06-27.42-4.67A16.37,16.37,0,0,0,715.65,272.48Z" transform="translate(-90.65 -151.97)" style="fill:#293b4a;fill-rule:evenodd"></path><path d="M719.64,298.63a28.06,28.06,0,0,1-1.19,11s1.61,2.29,7,2.29c5.6-.09,11-3.82,13.92-8.83" transform="translate(-90.65 -151.97)" style="fill:none;stroke:#293b4a;stroke-miterlimit:10;stroke-width:2px"></path><path d="M744.68,293s-1.19,15.79,1.19,21-9.17,15.54-17.32,7.56" transform="translate(-90.65 -151.97)" style="fill:none;stroke:#293b4a;stroke-miterlimit:10;stroke-width:2px"></path></svg>