<svg xmlns="http://www.w3.org/2000/svg" id="Layer_1" data-name="Layer 1" viewBox="0 0 579.34 347.51"><path d="M506.88,453.43h122" transform="translate(-49.6 -106.65)" style="fill:none;stroke:#293b4a;stroke-miterlimit:10;stroke-width:1.4421099424362183px"></path><path d="M49.6,453.43h433" transform="translate(-49.6 -106.65)" style="fill:none;stroke:#293b4a;stroke-miterlimit:10;stroke-width:1.4421099424362183px"></path><path d="M328.28,313c-5-12.31-34.59-17.8-64.94-17,0,0-36.16,6.2-46.12-7.69" transform="translate(-49.6 -106.65)" style="fill:none;stroke:#293b4a;stroke-linejoin:round;stroke-width:1.4421099424362183px"></path><path d="M218,284.56c-2.12,10.11-2.2,10.27-2.2,10.27,0,.32.08-.47,0,0-.39,3.37-1.17,9.73-1.72,14.36a56.8,56.8,0,0,0,.55,18.27c.15.71.31,1.49.47,2.2a9.27,9.27,0,0,0,.39,1.41c2.2,7.53,6.75,18.59,14.28,18.59" transform="translate(-49.6 -106.65)" style="fill:none;stroke:#293b4a;stroke-linejoin:round;stroke-width:1.4421099424362183px"></path><path d="M226.94,228.87a362.07,362.07,0,0,1-4.86,42.43" transform="translate(-49.6 -106.65)" style="fill:none;stroke:#293b4a;stroke-linejoin:round;stroke-width:1.4421099424362183px"></path><path d="M372.29,415.94s-6.59-19.69-7-28.79" transform="translate(-49.6 -106.65)" style="fill:none;stroke:#293b4a;stroke-linejoin:round;stroke-width:1.4421099424362183px"></path><path d="M337.38,404.09c4.47,8.87,11.37,12.71,14.59,21.65" transform="translate(-49.6 -106.65)" style="fill:none;stroke:#293b4a;stroke-linejoin:round;stroke-width:1.4421099424362183px"></path><path d="M361.62,419.55c7.61-.16,9.41-2.59,11.84-4.71.32.31,5.57,6.12,12,1.88h0a4.3,4.3,0,0,1,5.49,2.43,4.4,4.4,0,0,1-1.8,5.81l-15.06,5.49" transform="translate(-49.6 -106.65)" style="fill:none;stroke:#293b4a;stroke-linejoin:round;stroke-width:1.4421099424362183px"></path><path d="M370.64,428.57c-3.92-.08-6.2-2.59-7.53-5.1a.29.29,0,0,1-.08-.24c-3.61,3.22-8.55,3.06-12.47,2.28l-.55,9.72-.08,2.36,20.16-.08A4.68,4.68,0,0,0,374.8,433v-.71A4.18,4.18,0,0,0,370.64,428.57Z" transform="translate(-49.6 -106.65)" style="fill:none;stroke:#293b4a;stroke-linejoin:round;stroke-width:1.4421099424362183px"></path><path d="M352.21,390.45s12.47-1.1,22.82-8.63c0,0-8.47-10.67-12.78-18.36a104,104,0,0,1-6.75-14.82A87.16,87.16,0,0,0,337.07,319c-12.47-13.41-49.1-13.88-66.36-12.47-5.41.39-11.77,1.41-11.77,1.41-3.68.55-5.88,1-5.88,1" transform="translate(-49.6 -106.65)" style="fill:none;stroke:#293b4a;stroke-linejoin:round;stroke-width:1.4421099424362183px"></path><path d="M307.18,341.34c.71,12.87,10.51,33.26,15.06,42a80.34,80.34,0,0,1,3.45,7.53c4.87,12.39,4.32,14.51,4.32,14.51s19.76-2.2,25.41-9.33c0,0-28.71-44.79-30.35-57.81,0,0-23.06,3.45-51.54,10.66a20.05,20.05,0,0,1-7,.87" transform="translate(-49.6 -106.65)" style="fill:none;stroke:#293b4a;stroke-linejoin:round;stroke-width:1.4421099424362183px"></path><path d="M362.17,424.1,351.34,399" transform="translate(-49.6 -106.65)" style="fill:none;stroke:#293b4a;stroke-linejoin:round;stroke-width:1.4421099424362183px"></path><path d="M364.36,419.39c-4.47-10.67-6.43-9.41-11.76-21.1" transform="translate(-49.6 -106.65)" style="fill:none;stroke:#293b4a;stroke-linejoin:round;stroke-width:1.4421099424362183px"></path><path d="M372.6,423.15c-7.37,9.81-5.73,1.5-2.75.24S372.6,423.15,372.6,423.15Z" transform="translate(-49.6 -106.65)" style="fill:none;stroke:#293b4a;stroke-linejoin:round;stroke-width:1.4421099424362183px"></path><path d="M366.72,427.16c-3.06-11.85,2.43-5.42,1.57-2.28" transform="translate(-49.6 -106.65)" style="fill:none;stroke:#293b4a;stroke-linejoin:round;stroke-width:1.4421099424362183px"></path><path d="M382.72,411.78c-4.47,11.45-5.1,3-2.59.94S382.72,411.78,382.72,411.78Z" transform="translate(-49.6 -106.65)" style="fill:none;stroke:#293b4a;stroke-linejoin:round;stroke-width:1.4421099424362183px"></path><path d="M378.17,417.12c-6.2-10.59.86-5.81.86-2.67" transform="translate(-49.6 -106.65)" style="fill:none;stroke:#293b4a;stroke-linejoin:round;stroke-width:1.4421099424362183px"></path><path d="M349.93,434h24.71" transform="translate(-49.6 -106.65)" style="fill:none;stroke:#293b4a;stroke-linejoin:round;stroke-width:1.4421099424362183px"></path><path d="M391.42,420.33l-20.78,8.24" transform="translate(-49.6 -106.65)" style="fill:none;stroke:#293b4a;stroke-linejoin:round;stroke-width:1.4421099424362183px"></path><path d="M344.6,414.53c11.29,1.25,11.68-4.47,11.68-4.47" transform="translate(-49.6 -106.65)" style="fill:none;stroke:#293b4a;stroke-linejoin:round;stroke-width:1.4421099424362183px"></path><path d="M346.79,417.12c10.28,1.09,10.59-4.08,10.59-4.08" transform="translate(-49.6 -106.65)" style="fill:none;stroke:#293b4a;stroke-linejoin:round;stroke-width:1.4421099424362183px"></path><path d="M359.74,410.29c8.7,1.33,9.17-4.71,9.17-4.71" transform="translate(-49.6 -106.65)" style="fill:none;stroke:#293b4a;stroke-linejoin:round;stroke-width:1.4421099424362183px"></path><path d="M361.15,412.8c8.39,1.26,8.86-4.55,8.86-4.55" transform="translate(-49.6 -106.65)" style="fill:none;stroke:#293b4a;stroke-linejoin:round;stroke-width:1.4421099424362183px"></path><path d="M263.34,295.93a48.35,48.35,0,0,1,0-11.77" transform="translate(-49.6 -106.65)" style="fill:none;stroke:#293b4a;stroke-linejoin:round;stroke-width:1.4421099424362183px"></path><path d="M247.34,218c5,10.12,13.64,41,13.64,41s11.53-.79,41.26,6.19c0,0,11.3-7.06,21,1.88" transform="translate(-49.6 -106.65)" style="fill:none;stroke:#293b4a;stroke-linejoin:round;stroke-width:1.4421099424362183px"></path><path d="M320,264.4s9.18-3.3,16.55,2.43" transform="translate(-49.6 -106.65)" style="fill:none;stroke:#293b4a;stroke-linejoin:round;stroke-width:1.4421099424362183px"></path><path d="M267.73,224.55c12.94,28.16-4.79,28.32-4.79,28.32" transform="translate(-49.6 -106.65)" style="fill:none;stroke:#293b4a;stroke-linejoin:round;stroke-width:1.4421099424362183px"></path><path d="M170.39,271.54H553.87" transform="translate(-49.6 -106.65)" style="fill:none;stroke:#293b4a;stroke-linejoin:round;stroke-width:1.4421099424362183px"></path><path d="M169,284.16H556.06" transform="translate(-49.6 -106.65)" style="fill:none;stroke:#293b4a;stroke-linejoin:round;stroke-width:1.4421099424362183px"></path><path d="M266.16,252.08a63.45,63.45,0,0,0-.39,6.83" transform="translate(-49.6 -106.65)" style="fill:none;stroke:#293b4a;stroke-linejoin:round;stroke-width:1.4421099424362183px"></path><path d="M253.77,271.54c-14.91.39-26.75-27.07-27.22-47.54-.24-8.47,8.16-15.53,15.84-16.23l5.18-.32c20.32,17.89,20.47,15.93,12.79.24,18.27,12.7,30.59,55,30.59,55" transform="translate(-49.6 -106.65)" style="fill:none;stroke:#293b4a;stroke-linejoin:round;stroke-width:1.4421099424362183px"></path><path d="M279.1,260.55c-8.55,8.24-6,10.83-6,10.83" transform="translate(-49.6 -106.65)" style="fill:none;stroke:#293b4a;stroke-linejoin:round;stroke-width:1.4421099424362183px"></path><path d="M270.24,250l4.86,10" transform="translate(-49.6 -106.65)" style="fill:none;stroke:#293b4a;stroke-linejoin:round;stroke-width:1.4421099424362183px"></path><path d="M277.53,349.74H225.06v5h52.47Z" transform="translate(-49.6 -106.65)" style="fill:#293b4a;stroke:#293b4a;stroke-linejoin:round;stroke-width:1.4421099424362183px"></path><path d="M229.61,354.76l-15.53,82,19.92-82" transform="translate(-49.6 -106.65)" style="fill:none;stroke:#293b4a;stroke-linejoin:round;stroke-width:1.4421099424362183px"></path><path d="M272,354.76l15.54,82-19.93-82" transform="translate(-49.6 -106.65)" style="fill:none;stroke:#293b4a;stroke-linejoin:round;stroke-width:1.4421099424362183px"></path><path d="M251.73,354.76l-.47,67.14L248,354.76" transform="translate(-49.6 -106.65)" style="fill:none;stroke:#293b4a;stroke-linejoin:round;stroke-width:1.4421099424362183px"></path><path d="M194.94,301.73a17.25,17.25,0,0,1-17.26-17.25" transform="translate(-49.6 -106.65)" style="fill:none;stroke:#293b4a;stroke-linejoin:round;stroke-width:1.4421099424362183px"></path><path d="M191.88,296.24a9.4,9.4,0,0,1-2.67-.39,8.62,8.62,0,0,1-6-8.16" transform="translate(-49.6 -106.65)" style="fill:none;stroke:#293b4a;stroke-linejoin:round;stroke-width:1.4421099424362183px"></path><path d="M194.94,284.48V444" transform="translate(-49.6 -106.65)" style="fill:none;stroke:#293b4a;stroke-linejoin:round;stroke-width:1.4421099424362183px"></path><path d="M205.92,284.48,199.1,444" transform="translate(-49.6 -106.65)" style="fill:none;stroke:#293b4a;stroke-linejoin:round;stroke-width:1.4421099424362183px"></path><path d="M198.55,284.16v42.36" transform="translate(-49.6 -106.65)" style="fill:none;stroke:#293b4a;stroke-linejoin:round;stroke-width:1.4421099424362183px"></path><path d="M420.76,301.89A17.26,17.26,0,0,0,438,284.63" transform="translate(-49.6 -106.65)" style="fill:none;stroke:#293b4a;stroke-linejoin:round;stroke-width:1.4421099424362183px"></path><path d="M423.9,296.4a9.64,9.64,0,0,0,2.66-.39,8.62,8.62,0,0,0,6-8.16" transform="translate(-49.6 -106.65)" style="fill:none;stroke:#293b4a;stroke-linejoin:round;stroke-width:1.4421099424362183px"></path><path d="M420.76,284.71V444" transform="translate(-49.6 -106.65)" style="fill:none;stroke:#293b4a;stroke-linejoin:round;stroke-width:1.4421099424362183px"></path><path d="M409.78,284.71,416.6,444" transform="translate(-49.6 -106.65)" style="fill:none;stroke:#293b4a;stroke-linejoin:round;stroke-width:1.4421099424362183px"></path><path d="M417.15,284.32v42.44" transform="translate(-49.6 -106.65)" style="fill:none;stroke:#293b4a;stroke-linejoin:round;stroke-width:1.4421099424362183px"></path><path d="M532.61,299.62a15,15,0,0,0,15-15" transform="translate(-49.6 -106.65)" style="fill:none;stroke:#293b4a;stroke-linejoin:round;stroke-width:1.4421099424362183px"></path><path d="M535.28,294.83a8.38,8.38,0,0,0,2.35-.39,7.55,7.55,0,0,0,5.18-7.14" transform="translate(-49.6 -106.65)" style="fill:none;stroke:#293b4a;stroke-linejoin:round;stroke-width:1.4421099424362183px"></path><path d="M532.61,284.63v101.5" transform="translate(-49.6 -106.65)" style="fill:none;stroke:#293b4a;stroke-linejoin:round;stroke-width:1.4421099424362183px"></path><path d="M523,284.63l4.39,101.5" transform="translate(-49.6 -106.65)" style="fill:none;stroke:#293b4a;stroke-linejoin:round;stroke-width:1.4421099424362183px"></path><path d="M529.47,284.32v36.79" transform="translate(-49.6 -106.65)" style="fill:none;stroke:#293b4a;stroke-linejoin:round;stroke-width:1.4421099424362183px"></path><path d="M255.73,422.76h-8.87" transform="translate(-49.6 -106.65)" style="fill:none;stroke:#293b4a;stroke-linejoin:round;stroke-width:1.4421099424362183px"></path><path d="M218.71,436.72h-9.18" transform="translate(-49.6 -106.65)" style="fill:none;stroke:#293b4a;stroke-linejoin:round;stroke-width:1.4421099424362183px"></path><path d="M292.28,436.72h-9.57" transform="translate(-49.6 -106.65)" style="fill:none;stroke:#293b4a;stroke-linejoin:round;stroke-width:1.4421099424362183px"></path><path d="M410.8,437.59H318" transform="translate(-49.6 -106.65)" style="fill:none;stroke:#293b4a;stroke-linejoin:round;stroke-width:1.4421099424362183px"></path><path d="M345.07,271.54h66a2.1,2.1,0,0,0,2-1.65L422,225.18a2.12,2.12,0,0,0-2-2.51H354a2,2,0,0,0-2,1.65L343.89,265l-.39,2-.39,2.12A2,2,0,0,0,345.07,271.54Z" transform="translate(-49.6 -106.65)" style="fill:none;stroke:#243b4c;stroke-linejoin:round;stroke-width:1.4421099424362183px"></path><path d="M387.61,247.94c.74-3.34-.59-6.47-3-7s-4.88,1.76-5.62,5.11.6,6.47,3,7S386.88,251.28,387.61,247.94Z" transform="translate(-49.6 -106.65)" style="fill:none;stroke:#293b4a;stroke-linejoin:round;stroke-width:1.4421099424362183px"></path><path d="M308.05,266.91v4.55h37a2.08,2.08,0,0,1-2-2.51l.39-2.12H308.05Z" transform="translate(-49.6 -106.65)" style="fill:none;stroke:#293b4a;stroke-linejoin:round;stroke-width:1.4421099424362183px"></path><path d="M482.73,403.47c19.21-2.36,30,3.45,38.35,15.45,0,0,3.92,7,7.22,8.39" transform="translate(-49.6 -106.65)" style="fill:none;stroke:#293b4a;stroke-miterlimit:10;stroke-width:1.4421099424362183px"></path><path d="M462,418.53c-4.94,6.43-1.18,16.23,31.61,16.08a2.86,2.86,0,0,1,2.9,2,2.54,2.54,0,0,1-2.59,2.9c-11.37.86-48.86,2-46.12-21.73,3.22-27.92,39.06-29.8,49.18-30.82s35.93-1.1,47.93,1.25,20.78,12.63,20.78,12.63" transform="translate(-49.6 -106.65)" style="fill:none;stroke:#293b4a;stroke-miterlimit:10;stroke-width:1.4421099424362183px"></path><path d="M485.16,434.37c18.9-6,16.23-9.72,26.51-8.78s7.06,10.11,17.65,13.17a21.2,21.2,0,0,0,8,.63" transform="translate(-49.6 -106.65)" style="fill:none;stroke:#293b4a;stroke-miterlimit:10;stroke-width:1.4421099424362183px"></path><path d="M532.38,401.11a19.69,19.69,0,0,0-.71,18s-4.94,9.88-2,13.8,13.73,3.22,19.53-3.92c5.49-6.75,9.73-3.22,12.55-9.88,2.12-5,.79-8.63.79-8.63,3.21-1.73,2.74.23,2.74.23" transform="translate(-49.6 -106.65)" style="fill:none;stroke:#293b4a;stroke-miterlimit:10;stroke-width:1.4421099424362183px"></path><path d="M530.42,406.06s-1.49,2.35-5.5,7.76c-3.37,4.63-3.52-6.9-.15-13.57a7,7,0,0,1,5.1-3.37c3.13-.47,8-1.34,10.51-2.75,3.84-2.11,16.55.16,20.55,3.85,2.66,2.43,5.72,2.51,7.37,2.9a5.08,5.08,0,0,1,4,3.69c.55,2.66.63,7-1.33,13.33,0,0-7.22-6.82-5.73-11.84" transform="translate(-49.6 -106.65)" style="fill:none;stroke:#293b4a;stroke-miterlimit:10;stroke-width:1.4421099424362183px"></path><path d="M532.06,427.23c7.3-2,6.83,3.53,5.1,5.65" transform="translate(-49.6 -106.65)" style="fill:none;stroke:#293b4a;stroke-miterlimit:10;stroke-width:1.4421099424362183px"></path><path d="M494.73,434.76c19.53-.15,26.59-1.88,26.59-1.88" transform="translate(-49.6 -106.65)" style="fill:none;stroke:#293b4a;stroke-miterlimit:10;stroke-width:1.4421099424362183px"></path><path d="M571.83,415.08c6.2,0,8.31,2,10.12,3.29s5,6.51,8.63,7.61,11.84,5.8,7.13,8.16-12.86-.47-12.23-3.22-9.65-5.73-17.57-6.51" transform="translate(-49.6 -106.65)" style="fill:none;stroke:#293b4a;stroke-miterlimit:10;stroke-width:1.4421099424362183px"></path><path d="M562,418.37c6,2.75,7.6,8.24,5.17,11.14s-15.76,13.1-21.33,12.94-13.18-2-6.83-7.45" transform="translate(-49.6 -106.65)" style="fill:none;stroke:#293b4a;stroke-miterlimit:10;stroke-width:1.4421099424362183px"></path><path d="M428.13,422.68h19.46" transform="translate(-49.6 -106.65)" style="fill:none;stroke:#293b4a;stroke-linejoin:round;stroke-width:1.4421099424362183px"></path><path d="M398.88,422.53h17" transform="translate(-49.6 -106.65)" style="fill:none;stroke:#293b4a;stroke-linejoin:round;stroke-width:1.4421099424362183px"></path><path d="M585.87,422.68h19.45" transform="translate(-49.6 -106.65)" style="fill:none;stroke:#293b4a;stroke-linejoin:round;stroke-width:1.4421099424362183px"></path><path d="M534.26,411.31c5.1-.63,6.12.86,6.12.86" transform="translate(-49.6 -106.65)" style="fill:none;stroke:#293b4a;stroke-miterlimit:10;stroke-width:1.4421099424362183px"></path><path d="M553.87,413.82c-4.71-2.12-6-1-6-1" transform="translate(-49.6 -106.65)" style="fill:none;stroke:#293b4a;stroke-miterlimit:10;stroke-width:1.4421099424362183px"></path><path d="M361.93,160h39.85c19.92,16.55-19.92,33.1,0,49.65H361.93C342,193.1,381.86,176.55,361.93,160Z" transform="translate(-49.6 -106.65)" style="fill:none;stroke:#293b4a;stroke-linejoin:round;stroke-width:1.4421099424362183px"></path><path d="M398.72,125.8h19.69c9.88,8.16-9.89,16.39,0,24.55H398.72C388.84,142.11,408.6,134,398.72,125.8Z" transform="translate(-49.6 -106.65)" style="fill:none;stroke:#293b4a;stroke-linejoin:round;stroke-width:1.4421099424362183px"></path><path d="M365.7,107.37h19.68c9.89,8.15-9.88,16.39,0,24.55H365.7C355.81,123.76,375.58,115.52,365.7,107.37Z" transform="translate(-49.6 -106.65)" style="fill:none;stroke:#293b4a;stroke-linejoin:round;stroke-width:1.4421099424362183px"></path><path d="M372.68,167.76h5.57" transform="translate(-49.6 -106.65)" style="fill:none;stroke:#293b4a;stroke-linejoin:round;stroke-width:1.4421099424362183px"></path><path d="M363.11,195.29h17.65" transform="translate(-49.6 -106.65)" style="fill:none;stroke:#293b4a;stroke-linejoin:round;stroke-width:1.4421099424362183px"></path><path d="M361.23,200.63h24" transform="translate(-49.6 -106.65)" style="fill:none;stroke:#293b4a;stroke-linejoin:round;stroke-width:1.4421099424362183px"></path><path d="M399.9,145.17h8.15" transform="translate(-49.6 -106.65)" style="fill:none;stroke:#293b4a;stroke-linejoin:round;stroke-width:1.4421099424362183px"></path><path d="M367.42,126.58h8.16" transform="translate(-49.6 -106.65)" style="fill:none;stroke:#293b4a;stroke-linejoin:round;stroke-width:1.4421099424362183px"></path><path d="M424.29,284.71l-.39-13.17" transform="translate(-49.6 -106.65)" style="fill:none;stroke:#293b4a;stroke-linejoin:round;stroke-width:1.4421099424362183px"></path><path d="M186.31,444H206.7" transform="translate(-49.6 -106.65)" style="fill:none;stroke:#293b4a;stroke-miterlimit:10;stroke-width:1.4421099424362183px"></path><path d="M409.07,444h20.32" transform="translate(-49.6 -106.65)" style="fill:none;stroke:#293b4a;stroke-miterlimit:10;stroke-width:1.4421099424362183px"></path><path d="M129.37,408.8s-22.75-26.75,20.47-51.14c15.29-8.63,11.76-28.32-.71-43.45" transform="translate(-49.6 -106.65)" style="fill:none;stroke:#243b4c;stroke-linecap:round;stroke-linejoin:round;stroke-width:1.4421099424362183px"></path><path d="M158.7,333.34c-50-18.74-31.45-53.33-31.45-53.33s35.69,8.94,31.92,44.16" transform="translate(-49.6 -106.65)" style="fill:none;stroke:#243b4c;stroke-linecap:round;stroke-linejoin:round;stroke-width:1.4421099424362183px"></path><path d="M126.7,366.68c-42.59-6-25.1-34.43-25.1-34.43s31.3,11,27.69,30.35" transform="translate(-49.6 -106.65)" style="fill:none;stroke:#243b4c;stroke-linecap:round;stroke-linejoin:round;stroke-width:1.4421099424362183px"></path><path d="M139,337.19s14.51,14.35-1.17,28.63" transform="translate(-49.6 -106.65)" style="fill:none;stroke:#243b4c;stroke-linecap:round;stroke-linejoin:round;stroke-width:1.4421099424362183px"></path><path d="M123.88,396.72c-1.26-20.08,38.9-7.84,41.25-21.49" transform="translate(-49.6 -106.65)" style="fill:none;stroke:#243b4c;stroke-linecap:round;stroke-linejoin:round;stroke-width:1.4421099424362183px"></path><path d="M148.74,379s1.88-16.78,23.69-23.37c0,0,15.45,47.38-35.3,28.87" transform="translate(-49.6 -106.65)" style="fill:none;stroke:#243b4c;stroke-linecap:round;stroke-linejoin:round;stroke-width:1.4421099424362183px"></path><path d="M108.19,349c5.17,11.3,26,9.65,17.88,30.91" transform="translate(-49.6 -106.65)" style="fill:none;stroke:#243b4c;stroke-linecap:round;stroke-linejoin:round;stroke-width:1.4421099424362183px"></path><path d="M155.25,411.7H104.89v4.4h50.36Z" transform="translate(-49.6 -106.65)" style="fill:none;stroke:#243b4c;stroke-linecap:round;stroke-linejoin:round;stroke-width:1.4421099424362183px"></path><path d="M151,420.17,148.5,439H111.56l-2.51-18.83" transform="translate(-49.6 -106.65)" style="fill:none;stroke:#243b4c;stroke-linecap:round;stroke-linejoin:round;stroke-width:1.4421099424362183px"></path><path d="M89.21,439h15.68" transform="translate(-49.6 -106.65)" style="fill:none;stroke:#243b4c;stroke-linecap:round;stroke-linejoin:round;stroke-width:1.4421099424362183px"></path><path d="M147.33,439H168.9" transform="translate(-49.6 -106.65)" style="fill:none;stroke:#243b4c;stroke-linecap:round;stroke-linejoin:round;stroke-width:1.4421099424362183px"></path><path d="M477.78,219.45c-59.84-.31-41.25-53.8-41.25-53.8s45.25,11.6,44,46" transform="translate(-49.6 -106.65)" style="fill:none;stroke:#243b4c;stroke-linecap:round;stroke-linejoin:round;stroke-width:1.4421099424362183px"></path><path d="M478.8,239.38c1.34-25.42,28.87-18.67,32.87-33.73" transform="translate(-49.6 -106.65)" style="fill:none;stroke:#243b4c;stroke-linecap:round;stroke-linejoin:round;stroke-width:1.4421099424362183px"></path><path d="M488.92,213.18s11.77-29.18,36.87-28.55c0,0,5.64,63.53-40.55,39.69" transform="translate(-49.6 -106.65)" style="fill:none;stroke:#243b4c;stroke-linecap:round;stroke-linejoin:round;stroke-width:1.4421099424362183px"></path><path d="M448.84,193.26c9.26,18.43,37.1,7.45,30,46.27" transform="translate(-49.6 -106.65)" style="fill:none;stroke:#243b4c;stroke-linecap:round;stroke-linejoin:round;stroke-width:1.4421099424362183px"></path><path d="M506.34,240.08H456v5.1h50.36Z" transform="translate(-49.6 -106.65)" style="fill:none;stroke:#243b4c;stroke-linecap:round;stroke-linejoin:round;stroke-width:1.4421099424362183px"></path><path d="M501.79,249.81l-5,21.73h-31.3l-5-21.73" transform="translate(-49.6 -106.65)" style="fill:none;stroke:#243b4c;stroke-linecap:round;stroke-linejoin:round;stroke-width:1.4421099424362183px"></path><path d="M239.41,193.26a13.23,13.23,0,0,1-.55-1.81c-1.64-9.25-6.66-6.2-3.84-14.35,2.9-8.4,6.28-3.22,6.12-11.93s3.61-10.11,7.61-9.41,2.19,3.61,8.08,1.49c8.47-3.06,9.88-2.12,12.15,1.88s3.06,2,7.69,7.38c2.59,2.9,2.9,11.06-3,11s-5.1-3.45-10.51-3.92-9.73,1.25-9.41,5.88-3.14,1.41-6.2.86-4.31,5.81-1.25,7.38C249.3,188.94,242.24,199.06,239.41,193.26Z" transform="translate(-49.6 -106.65)" style="fill:#293b4a"></path><path d="M250.16,139.76c-5.1-11.76-31.3-7.45-28.55,11.45S219,168.08,218,171.53c-3.14,10,6,22,6.59,14.27.63-8,.63-8,12.08-16.55,4.23-3.13-3.61-12.31,2.74-15.68a19.76,19.76,0,0,1,4.63-1.81,8.74,8.74,0,0,0,6.51-9.49Z" transform="translate(-49.6 -106.65)" style="fill:#293b4a"></path><path d="M251,156.94c.86-.71,1.1-6.12-1-8.94-3.21-4.16-13.72,2.35-9.88,6.51s1.1,3.84,6,3.13Z" transform="translate(-49.6 -106.65)" style="fill:#19ad4a;stroke:#293b4a;stroke-miterlimit:10;stroke-width:1.4421099424362183px"></path><path d="M259.57,187.92c1,3.22,4.55,3.53,6.43,2.75" transform="translate(-49.6 -106.65)" style="fill:none;stroke:#293b4a;stroke-linejoin:round;stroke-width:1.4421099424362183px"></path><path d="M264.28,183.14a1.42,1.42,0,1,0-1.41-1.42A1.42,1.42,0,0,0,264.28,183.14Z" transform="translate(-49.6 -106.65)" style="fill:#293b4a"></path><path d="M260.36,207.37c-.87-3.92-.79-8.08.39-11.06,3.76.08,8.86,2.91,8.23-9.33l1.73.24a.43.43,0,0,0,.47-.63c-.86-2-3.45-9.81-3.45-13" transform="translate(-49.6 -106.65)" style="fill:none;stroke:#293b4a;stroke-linecap:round;stroke-linejoin:round;stroke-width:1.4421099424362183px"></path><path d="M245.53,191.45s5.81,8.71,2,16" transform="translate(-49.6 -106.65)" style="fill:none;stroke:#293b4a;stroke-linecap:round;stroke-linejoin:round;stroke-width:1.4421099424362183px"></path></svg>