<svg xmlns="http://www.w3.org/2000/svg" id="Layer_1" data-name="Layer 1" viewBox="0 0 620.54 336.21"><path d="M385.92,447.79H649.53" transform="translate(-28.99 -112.31)" style="fill:none;stroke:#293b4a;stroke-miterlimit:10;stroke-width:1.4421099424362183px"></path><path d="M82.14,447.79H370.49" transform="translate(-28.99 -112.31)" style="fill:none;stroke:#293b4a;stroke-miterlimit:10;stroke-width:1.4421099424362183px"></path><path d="M29,447.79H69.88" transform="translate(-28.99 -112.31)" style="fill:none;stroke:#293b4a;stroke-miterlimit:10;stroke-width:1.4421099424362183px"></path><path d="M571.44,437.7V193.55c0-37.64-38.72-62.88-73.18-47.59l-24.59,10.89" transform="translate(-28.99 -112.31)" style="fill:none;stroke:#293b4a;stroke-miterlimit:10;stroke-width:1.4421099424362183px"></path><path d="M328.23,377.49H267V316.78" transform="translate(-28.99 -112.31)" style="fill:none;stroke:#293b4a;stroke-miterlimit:10;stroke-width:1.4421099424362183px"></path><path d="M424,356.22v21.27H388.44" transform="translate(-28.99 -112.31)" style="fill:none;stroke:#293b4a;stroke-miterlimit:10;stroke-width:1.4421099424362183px"></path><path d="M267,291.9V256H424v79.39" transform="translate(-28.99 -112.31)" style="fill:none;stroke:#293b4a;stroke-miterlimit:10;stroke-width:1.4421099424362183px"></path><path d="M424.49,318.87H319.36" transform="translate(-28.99 -112.31)" style="fill:none;stroke:#293b4a;stroke-miterlimit:10;stroke-width:1.4421099424362183px"></path><path d="M318.86,325.28H412.6" transform="translate(-28.99 -112.31)" style="fill:none;stroke:#293b4a;stroke-miterlimit:10;stroke-width:1.4421099424362183px"></path><path d="M379.64,318.58V284.11h4.83v34.18" transform="translate(-28.99 -112.31)" style="fill:none;stroke:#293b4a;stroke-miterlimit:10;stroke-width:1.4421099424362183px"></path><path d="M384.69,313.75l9-23,3.75,1.44-10.24,26.53" transform="translate(-28.99 -112.31)" style="fill:none;stroke:#293b4a;stroke-miterlimit:10;stroke-width:1.4421099424362183px"></path><path d="M398,318.58V284.11h7.14v34.18" transform="translate(-28.99 -112.31)" style="fill:none;stroke:#293b4a;stroke-miterlimit:10;stroke-width:1.4421099424362183px"></path><path d="M405.17,318.58V277.69h7.14v40.6" transform="translate(-28.99 -112.31)" style="fill:none;stroke:#293b4a;stroke-miterlimit:10;stroke-width:1.4421099424362183px"></path><path d="M355.2,318.58A12.62,12.62,0,1,0,342.58,306,12.62,12.62,0,0,0,355.2,318.58Z" transform="translate(-28.99 -112.31)" style="fill:none;stroke:#293b4a;stroke-miterlimit:10;stroke-width:1.4421099424362183px"></path><path d="M354.91,302.5a3.68,3.68,0,1,1,3.68,3.68" transform="translate(-28.99 -112.31)" style="fill:none;stroke:#293b4a;stroke-miterlimit:10;stroke-width:1.4421099424362183px"></path><path d="M363.92,266.88H278.05v21.34" transform="translate(-28.99 -112.31)" style="fill:none;stroke:#293b4a;stroke-miterlimit:10;stroke-width:1.4421099424362183px"></path><path d="M424.57,315.55h55.66" transform="translate(-28.99 -112.31)" style="fill:none;stroke:#293b4a;stroke-miterlimit:10;stroke-width:1.4421099424362183px"></path><path d="M175.08,140.69H392.84V255.34" transform="translate(-28.99 -112.31)" style="fill:none;stroke:#293b4a;stroke-miterlimit:10;stroke-width:1.4421099424362183px"></path><path d="M267.09,276.25h-52.5" transform="translate(-28.99 -112.31)" style="fill:none;stroke:#293b4a;stroke-miterlimit:10;stroke-width:1.4421099424362183px"></path><path d="M372.51,255.34v-85h-53v85" transform="translate(-28.99 -112.31)" style="fill:none;stroke:#293b4a;stroke-miterlimit:10;stroke-width:1.4421099424362183px"></path><path d="M319.07,214.75H285.4v21.92H251.87v21.41H204.72" transform="translate(-28.99 -112.31)" style="fill:none;stroke:#293b4a;stroke-miterlimit:10;stroke-width:1.4421099424362183px"></path><path d="M319.36,182.66H303.43V214.6" transform="translate(-28.99 -112.31)" style="fill:none;stroke:#293b4a;stroke-miterlimit:10;stroke-width:1.4421099424362183px"></path><path d="M337.68,184.68h-7.36V189h7.36" transform="translate(-28.99 -112.31)" style="fill:none;stroke:#293b4a;stroke-miterlimit:10;stroke-width:1.4421099424362183px"></path><path d="M350.15,184.68H342.8V189h7.35" transform="translate(-28.99 -112.31)" style="fill:none;stroke:#293b4a;stroke-miterlimit:10;stroke-width:1.4421099424362183px"></path><path d="M362.63,184.68H355.2V189h7.43" transform="translate(-28.99 -112.31)" style="fill:none;stroke:#293b4a;stroke-miterlimit:10;stroke-width:1.4421099424362183px"></path><path d="M337.68,197.8h-7.36v4.4h7.36" transform="translate(-28.99 -112.31)" style="fill:none;stroke:#293b4a;stroke-miterlimit:10;stroke-width:1.4421099424362183px"></path><path d="M350.15,197.8H342.8v4.4h7.35" transform="translate(-28.99 -112.31)" style="fill:none;stroke:#293b4a;stroke-miterlimit:10;stroke-width:1.4421099424362183px"></path><path d="M362.63,197.8H355.2v4.4h7.43" transform="translate(-28.99 -112.31)" style="fill:none;stroke:#293b4a;stroke-miterlimit:10;stroke-width:1.4421099424362183px"></path><path d="M337.68,211h-7.36v4.32h7.36" transform="translate(-28.99 -112.31)" style="fill:none;stroke:#293b4a;stroke-miterlimit:10;stroke-width:1.4421099424362183px"></path><path d="M350.15,211H342.8v4.32h7.35" transform="translate(-28.99 -112.31)" style="fill:none;stroke:#293b4a;stroke-miterlimit:10;stroke-width:1.4421099424362183px"></path><path d="M362.63,211H355.2v4.32h7.43" transform="translate(-28.99 -112.31)" style="fill:none;stroke:#293b4a;stroke-miterlimit:10;stroke-width:1.4421099424362183px"></path><path d="M337.68,224.12h-7.36v4.4h7.36" transform="translate(-28.99 -112.31)" style="fill:none;stroke:#293b4a;stroke-miterlimit:10;stroke-width:1.4421099424362183px"></path><path d="M350.15,224.12H342.8v4.4h7.35" transform="translate(-28.99 -112.31)" style="fill:none;stroke:#293b4a;stroke-miterlimit:10;stroke-width:1.4421099424362183px"></path><path d="M362.63,224.12H355.2v4.4h7.43" transform="translate(-28.99 -112.31)" style="fill:none;stroke:#293b4a;stroke-miterlimit:10;stroke-width:1.4421099424362183px"></path><path d="M337.68,237.32h-7.36v4.32h7.36" transform="translate(-28.99 -112.31)" style="fill:none;stroke:#293b4a;stroke-miterlimit:10;stroke-width:1.4421099424362183px"></path><path d="M350.15,237.32H342.8v4.32h7.35" transform="translate(-28.99 -112.31)" style="fill:none;stroke:#293b4a;stroke-miterlimit:10;stroke-width:1.4421099424362183px"></path><path d="M362.63,237.32H355.2v4.32h7.43" transform="translate(-28.99 -112.31)" style="fill:none;stroke:#293b4a;stroke-miterlimit:10;stroke-width:1.4421099424362183px"></path><path d="M292.47,221v7.57" transform="translate(-28.99 -112.31)" style="fill:none;stroke:#293b4a;stroke-miterlimit:10;stroke-width:1.4421099424362183px"></path><path d="M303.79,221v7.57" transform="translate(-28.99 -112.31)" style="fill:none;stroke:#293b4a;stroke-miterlimit:10;stroke-width:1.4421099424362183px"></path><path d="M315.11,221v7.57" transform="translate(-28.99 -112.31)" style="fill:none;stroke:#293b4a;stroke-miterlimit:10;stroke-width:1.4421099424362183px"></path><path d="M292.47,231.62v7.57" transform="translate(-28.99 -112.31)" style="fill:none;stroke:#293b4a;stroke-miterlimit:10;stroke-width:1.4421099424362183px"></path><path d="M303.79,231.62v7.57" transform="translate(-28.99 -112.31)" style="fill:none;stroke:#293b4a;stroke-miterlimit:10;stroke-width:1.4421099424362183px"></path><path d="M315.11,231.62v7.57" transform="translate(-28.99 -112.31)" style="fill:none;stroke:#293b4a;stroke-miterlimit:10;stroke-width:1.4421099424362183px"></path><path d="M292.47,242.22v7.64" transform="translate(-28.99 -112.31)" style="fill:none;stroke:#293b4a;stroke-miterlimit:10;stroke-width:1.4421099424362183px"></path><path d="M263.05,241.64h-7.57" transform="translate(-28.99 -112.31)" style="fill:none;stroke:#293b4a;stroke-miterlimit:10;stroke-width:1.4421099424362183px"></path><path d="M263.05,246h-7.57" transform="translate(-28.99 -112.31)" style="fill:none;stroke:#293b4a;stroke-miterlimit:10;stroke-width:1.4421099424362183px"></path><path d="M263.05,250.44h-7.57" transform="translate(-28.99 -112.31)" style="fill:none;stroke:#293b4a;stroke-miterlimit:10;stroke-width:1.4421099424362183px"></path><path d="M263.05,254.77h-7.57" transform="translate(-28.99 -112.31)" style="fill:none;stroke:#293b4a;stroke-miterlimit:10;stroke-width:1.4421099424362183px"></path><path d="M303.79,242.22v7.64" transform="translate(-28.99 -112.31)" style="fill:none;stroke:#293b4a;stroke-miterlimit:10;stroke-width:1.4421099424362183px"></path><path d="M315.11,242.22v7.64" transform="translate(-28.99 -112.31)" style="fill:none;stroke:#293b4a;stroke-miterlimit:10;stroke-width:1.4421099424362183px"></path><path d="M315.11,189.37h-5.55v17" transform="translate(-28.99 -112.31)" style="fill:none;stroke:#293b4a;stroke-miterlimit:10;stroke-width:1.4421099424362183px"></path><path d="M210.7,182.37h69.65s-8.58-17.88-23.86-7.86" transform="translate(-28.99 -112.31)" style="fill:none;stroke:#293b4a;stroke-miterlimit:10;stroke-width:1.4421099424362183px"></path><path d="M226,176.6a34.24,34.24,0,0,1,9.08-9.73c5.63-3.82,11.32-5.05,18-3.53,9.73,2.23,11.75,8.22,11.75,8.22" transform="translate(-28.99 -112.31)" style="fill:none;stroke:#293b4a;stroke-miterlimit:10;stroke-width:1.4421099424362183px"></path><path d="M526.38,340.64H560.2V330.55H526v-6.92h37.27v6.92h-3.46" transform="translate(-28.99 -112.31)" style="fill:none;stroke:#293b4a;stroke-miterlimit:10;stroke-width:1.4421099424362183px"></path><path d="M564.74,359.1v-9.3H526.38" transform="translate(-28.99 -112.31)" style="fill:none;stroke:#293b4a;stroke-miterlimit:10;stroke-width:1.4421099424362183px"></path><path d="M559.84,340.64v9" transform="translate(-28.99 -112.31)" style="fill:none;stroke:#293b4a;stroke-miterlimit:10;stroke-width:1.4421099424362183px"></path><path d="M528.33,340.64v-5.33h16.22" transform="translate(-28.99 -112.31)" style="fill:none;stroke:#293b4a;stroke-miterlimit:10;stroke-width:1.4421099424362183px"></path><path d="M469.27,377.78s7.93.36,6.49-7.36" transform="translate(-28.99 -112.31)" style="fill:none;stroke:#293b4a;stroke-miterlimit:10;stroke-width:1.4421099424362183px"></path><path d="M577,358.6h12V440" transform="translate(-28.99 -112.31)" style="fill:none;stroke:#293b4a;stroke-miterlimit:10;stroke-width:1.4421099424362183px"></path><path d="M480.23,446.71l.07-88.11h91.14" transform="translate(-28.99 -112.31)" style="fill:none;stroke:#293b4a;stroke-miterlimit:10;stroke-width:1.4421099424362183px"></path><path d="M497.9,286.42l-12.33,65.4" transform="translate(-28.99 -112.31)" style="fill:none;stroke:#293b4a;stroke-miterlimit:10;stroke-width:1.4421099424362183px"></path><path d="M480.23,368.19c-13.7-12.48,5.34-16.37,5.34-16.37" transform="translate(-28.99 -112.31)" style="fill:none;stroke:#293b4a;stroke-miterlimit:10;stroke-width:1.4421099424362183px"></path><path d="M488.88,358.6c8.44-4.18,4.19-11.76,4.19-11.76s20.26-45.21,20.26-57.1" transform="translate(-28.99 -112.31)" style="fill:none;stroke:#293b4a;stroke-miterlimit:10;stroke-width:1.4421099424362183px"></path><path d="M488,325.21c-59.06,8.66-89.2,12.12-78.82,21.63,7.43,6.78,34.62,19.4,49.54,26.11,6,2.66,10,4.39,10,4.39s4.19,20.7,11.54,19.19V371.65l-4.18-.87s-2.67-3.75-6-7.93-7.57-9.23-10.23-11c-13.13-8.72-31.23-6-31.23-6" transform="translate(-28.99 -112.31)" style="fill:none;stroke:#293b4a;stroke-miterlimit:10;stroke-width:1.4421099424362183px"></path><path d="M515.78,323.77c14.49,18-.79,34.47-.79,34.47" transform="translate(-28.99 -112.31)" style="fill:none;stroke:#293b4a;stroke-miterlimit:10;stroke-width:1.4421099424362183px"></path><path d="M446.05,367.18s21.85,50.69,25,65.18a17.19,17.19,0,0,1,.08,4.26" transform="translate(-28.99 -112.31)" style="fill:none;stroke:#293b4a;stroke-miterlimit:10;stroke-width:1.4421099424362183px"></path><path d="M513.62,290s-2.46,18.46,2.16,33.82c0,0-.72,8.36-14.71,4.25" transform="translate(-28.99 -112.31)" style="fill:none;stroke:#293b4a;stroke-miterlimit:10;stroke-width:1.4421099424362183px"></path><path d="M488,325.21c5-8.94-2.24-26.46-3.61-29.06-.07-.21-.22-.36-.36-.36-3.82-.65-5.84-4.18-3.89-8.94,1.08-2.67,4.47-5.19,5.33-10.53" transform="translate(-28.99 -112.31)" style="fill:none;stroke:#293b4a;stroke-miterlimit:10;stroke-width:1.4421099424362183px"></path><path d="M471.22,435.68s-21,4.47-19.47,11.82H480.3v-7.86C480.3,439.57,471.29,441.59,471.22,435.68Z" transform="translate(-28.99 -112.31)" style="fill:none;stroke:#293b4a;stroke-miterlimit:10;stroke-width:1.4421099424362183px"></path><path d="M517.15,231.91c12.18-3.39,17.88,7.35,17.81,23-.15,23.79,12,53.57,12,53.57C498.91,292.62,522.27,241,517.15,231.91Z" transform="translate(-28.99 -112.31)" style="fill:#293b4a"></path><path d="M490.83,226.86c-5.55,1.37-8.51,9.88-8.65,11.47-.07.79,1.51.72,2.31.93.57.22.64-.14,1.44.22s8.79.14,9.08-.72-6.13-3.46-4.9-2.67c2.38,1.66,2.16,8.08,2.16,8.08s.65-1.88,2.17-1.52.72,9.95.72,9.95,7.64,1.59,10.67-1.73C520.11,235.22,503.38,223.69,490.83,226.86Z" transform="translate(-28.99 -112.31)" style="fill:#293b4a"></path><path d="M514.12,240a4,4,0,1,0-4-4A4,4,0,0,0,514.12,240Z" transform="translate(-28.99 -112.31)" style="fill:none;stroke:#293b4a;stroke-linejoin:round;stroke-width:1.4421099424362183px"></path><path d="M502.66,288.08s5-1.16,8.86.21a7,7,0,0,1,2.53,1.52s1.37-11.11-4.11-19.4a18.64,18.64,0,0,0-9.3-7.28c-1.3-4-1.16-7.64-.65-12.76" transform="translate(-28.99 -112.31)" style="fill:none;stroke:#293b4a;stroke-linejoin:round;stroke-width:1.4421099424362183px"></path><path d="M491.19,249.07a3.36,3.36,0,0,1-4.69,1.3" transform="translate(-28.99 -112.31)" style="fill:none;stroke:#293b4a;stroke-linejoin:round;stroke-width:1.4421099424362183px"></path><path d="M487.8,244a1.23,1.23,0,1,0-1.22-1.22A1.23,1.23,0,0,0,487.8,244Z" transform="translate(-28.99 -112.31)" style="fill:#293b4a"></path><path d="M497.75,278.49c.22,6,.15,7.93.15,7.93" transform="translate(-28.99 -112.31)" style="fill:none;stroke:#293b4a;stroke-miterlimit:10;stroke-width:1.4421099424362183px"></path><path d="M500.42,262.91c-14.2,15.07-12.69,4.26-11.54-.14a11.88,11.88,0,0,0,.22-7.14c-3.17-.36-7.79,1.51-6-8.8l-2.46-.57a.46.46,0,0,1-.36-.65c.94-1.59,5-7.36,5.34-10.1" transform="translate(-28.99 -112.31)" style="fill:none;stroke:#293b4a;stroke-linejoin:round;stroke-width:1.4421099424362183px"></path><path d="M488.74,263.56c-14.64,10-18.68,16.8-18.68,16.8l9.09,6.93" transform="translate(-28.99 -112.31)" style="fill:none;stroke:#293b4a;stroke-miterlimit:10;stroke-width:1.4421099424362183px"></path><path d="M470.06,280.36c-2.88,4.11-5.84,9.45-5.84,9.45" transform="translate(-28.99 -112.31)" style="fill:none;stroke:#293b4a;stroke-miterlimit:10;stroke-width:1.4421099424362183px"></path><path d="M439.06,262.19c2.38,7.36,18.75,35.41,24.08,39.08,1.66,1.16,13-6.85,16.15-11.46" transform="translate(-28.99 -112.31)" style="fill:none;stroke:#293b4a;stroke-miterlimit:10;stroke-width:1.4421099424362183px"></path><path d="M441.44,254.33c.79-2.67,5-7.35,6-6.56s-2.52,6.35-2.88,7.36c-.07.28-.22.57-.29.79a3.18,3.18,0,0,0-.29,1.44,3.27,3.27,0,0,0,.72,1.95c1.23,1.66,18,21.41,21.35,27.4" transform="translate(-28.99 -112.31)" style="fill:none;stroke:#293b4a;stroke-miterlimit:10;stroke-width:1.4421099424362183px"></path><path d="M442,253.11c-1.8-3.68-4-1.37-5.62.65-.36.5-4.33,7.49-2.45,8.5,6.06,3.32,6.13-2.95,6.13-2.95" transform="translate(-28.99 -112.31)" style="fill:none;stroke:#293b4a;stroke-miterlimit:10;stroke-width:1.4421099424362183px"></path><path d="M514.05,289.88s1.37-11.1-4.11-19.4c1.37-17.16,9.66-32.37,8.22-37.78,12.62-.14,15.43,11.68,11.46,26.68-6.13,23,2.74,54.87,2.74,54.87-9.8-6.34-15.72-13.55-19-21.05-.07-.22-.15-.36-.22-.58" transform="translate(-28.99 -112.31)" style="fill:#293b4a"></path><path d="M384.91,393.42H337.39A1.46,1.46,0,0,1,336,392.2L329.53,360a1.47,1.47,0,0,1,1.44-1.8h47.52a1.46,1.46,0,0,1,1.44,1.22l5.84,29.28.29,1.37.29,1.51A1.47,1.47,0,0,1,384.91,393.42Z" transform="translate(-28.99 -112.31)" style="fill:none;stroke:#293b4a;stroke-linejoin:round;stroke-width:1.4421099424362183px"></path><path d="M358.31,380.05c1.71-.38,2.67-2.64,2.14-5.05s-2.34-4.06-4.06-3.69-2.67,2.64-2.14,5.05S356.6,380.42,358.31,380.05Z" transform="translate(-28.99 -112.31)" style="fill:none;stroke:#293b4a;stroke-linejoin:round;stroke-width:1.4421099424362183px"></path><path d="M411.59,388.31l2.74,5.11H384.84c.93,0,1.65-1.29,1.44-2.74l-.29-2.3h25.6Z" transform="translate(-28.99 -112.31)" style="fill:none;stroke:#293b4a;stroke-linejoin:round;stroke-width:1.4421099424362183px"></path><path d="M186.26,206.38c-.22-.07-.51.15-.44.36.36,1.37,1.09,4.91-.57,5.41-10.39,3-10.31-10.53-16.37-10.82" transform="translate(-28.99 -112.31)" style="fill:none;stroke:#293b4a;stroke-miterlimit:10;stroke-width:1.4421099424362183px"></path><path d="M240.05,218.28c-8.51,11.25-33.68,28.34-35.33,28.34-3.18,0-6.13-5.63-6.13-5.63" transform="translate(-28.99 -112.31)" style="fill:none;stroke:#293b4a;stroke-miterlimit:10;stroke-width:1.4421099424362183px"></path><path d="M230.53,216.26c.5,9.09,4.11,8.29,4.11,8.29" transform="translate(-28.99 -112.31)" style="fill:none;stroke:#293b4a;stroke-miterlimit:10;stroke-width:1.4421099424362183px"></path><path d="M174.43,178.55h-.07c-.22.07-.36.07-.58.14a2.55,2.55,0,0,1-.36.08,3.29,3.29,0,0,0-.36.07c-.14.07-.29.07-.43.14a16.94,16.94,0,0,0-3.82,1.66c-.29.14-.51.36-.8.51s-.36.28-.57.43-.15.14-.22.14-.22.22-.29.29a.4.4,0,0,0-.21.36,3.59,3.59,0,0,0-.36,3.32,22.49,22.49,0,0,0,1.15,2.31.81.81,0,0,1-.65,1.22c-.58,0-1,.22-.65.94a5.15,5.15,0,0,0,.29.58l.07.07c.65,1,1.3,1.87,1.73,2.52a2.6,2.6,0,0,1,.07,3c-.07.14-.93-.87-1.08-.72l-1.58.28" transform="translate(-28.99 -112.31)" style="fill:none;stroke:#293b4a;stroke-linecap:round;stroke-miterlimit:10;stroke-width:1.4421099424362183px"></path><path d="M164.84,196.72a18.44,18.44,0,0,1-4.18-3.75,30.1,30.1,0,0,1-5.48-9.66l.07-.07a1.21,1.21,0,0,0,.22-.29,30.11,30.11,0,0,1,9-8.51,15.7,15.7,0,0,1,1.88-.94c.21-.07.5-.21.72-.29a13,13,0,0,1,2.23-.57,5.3,5.3,0,0,1,1.59,0l.79.21a3.51,3.51,0,0,1,.65.36,4.4,4.4,0,0,1,2,3.54l.07,1.8c3,3.39,5.12,5.41,7.57,5.84s-2.23,3-2.23,3l2.16,4a1.9,1.9,0,0,1-.58,2.67c-.72.43-1.66.36-2.66,1" transform="translate(-28.99 -112.31)" style="fill:none;stroke:#293b4a;stroke-linecap:round;stroke-miterlimit:10;stroke-width:1.4421099424362183px"></path><path d="M174.43,178.55h-.07c-.07,0-.29.07-.58.14a2.55,2.55,0,0,1-.36.08c-.14,0-.22.07-.36.07s-.29.07-.43.14a20.67,20.67,0,0,0-3.82,1.66c-.29.14-.51.36-.8.51-.14.07-.29.21-.43.28s-.07.08-.14.08-.15.14-.22.14-.22.22-.29.29-.14.21-.21.36a3.57,3.57,0,0,0-.29,3.32,26.14,26.14,0,0,0,1.15,2.38.81.81,0,0,1-.65,1.22c-.58,0-1,.22-.72.94a3.86,3.86,0,0,0,.29.58l.07.07c.65.93,1.23,1.8,1.73,2.52a2.6,2.6,0,0,1,.07,3,1.71,1.71,0,0,1-.36.43l-.93-.29-.65-.72a6.46,6.46,0,0,0,.57.72,1.92,1.92,0,0,1-2.09,0,31.45,31.45,0,0,1-4.32-3.6,20.14,20.14,0,0,1-5.48-9.67l.07-.07a.9.9,0,0,0,.21-.29,32.32,32.32,0,0,1,9-8.43,14.84,14.84,0,0,1,1.87-.94c.22-.07.51-.22.72-.29a12.51,12.51,0,0,1,2.31-.65,3.72,3.72,0,0,1,1.52.07c.28.08.5.15.79.22a3.27,3.27,0,0,1,.65.36,4.35,4.35,0,0,1,1.94,3.39Z" transform="translate(-28.99 -112.31)" style="fill:#293b4a"></path><path d="M152.08,197.73c.14,6.42.79,11.39,3.1,15.43,12.4,21.56,13.7,50.4,13.7,50.4a.07.07,0,0,0,.07.07c3,4,7.72,5.56,12.76,5.7,8.94.29,18.68-3.6,20.19-4.18a.61.61,0,0,1,.22-.07A64.54,64.54,0,0,1,198.66,253a27.9,27.9,0,0,1,.07-12,35.51,35.51,0,0,0-1.66-22.57" transform="translate(-28.99 -112.31)" style="fill:none;stroke:#293b4a;stroke-miterlimit:10;stroke-width:1.4421099424362183px"></path><path d="M168.37,191.53h0a14.51,14.51,0,0,1-2.23,3.6.15.15,0,0,1-.15.15" transform="translate(-28.99 -112.31)" style="fill:none;stroke:#293b4a;stroke-linecap:round;stroke-miterlimit:10;stroke-width:1.4421099424362183px"></path><path d="M178.61,195s-.21,7.93,3.9,10.67" transform="translate(-28.99 -112.31)" style="fill:none;stroke:#293b4a;stroke-linecap:round;stroke-miterlimit:10;stroke-width:1.4421099424362183px"></path><path d="M178.83,190.37c-2.88,2.31-4,0-4,0" transform="translate(-28.99 -112.31)" style="fill:none;stroke:#293b4a;stroke-miterlimit:10;stroke-width:1.4421099424362183px"></path><path d="M199.09,432.72a10.44,10.44,0,0,0,5-2.74" transform="translate(-28.99 -112.31)" style="fill:none;stroke:#293b4a;stroke-linejoin:round;stroke-width:1.4421099424362183px"></path><path d="M200.68,436.26a10.38,10.38,0,0,0,5-2.74" transform="translate(-28.99 -112.31)" style="fill:none;stroke:#293b4a;stroke-linejoin:round;stroke-width:1.4421099424362183px"></path><path d="M218.42,443.39l-.08.44V444l-.21.72-7.93-.21-3.54-1.09L203.78,442l-12.62-6.27.58-1.73,4.18-12.76.43.5.07.07a5.29,5.29,0,0,0,8.15-.36l-.58,3.1a16.71,16.71,0,0,0-.07,5.48v.07a10.61,10.61,0,0,0,1.3,3.83,6.5,6.5,0,0,0,2.74,2.45c5.41,2.45,9.45,2.45,10.24,4.83A4,4,0,0,1,218.42,443.39Z" transform="translate(-28.99 -112.31)" style="fill:none;stroke:#293b4a;stroke-linejoin:round;stroke-width:1.4421099424362183px"></path><path d="M191.16,435.68l-1.88,4.83,12.7,6.2,5,1.08h11.11l.21-3.82-.21.72" transform="translate(-28.99 -112.31)" style="fill:none;stroke:#293b4a;stroke-linejoin:round;stroke-width:1.4421099424362183px"></path><path d="M60.36,414.26A9,9,0,0,0,65.05,416" transform="translate(-28.99 -112.31)" style="fill:none;stroke:#293b4a;stroke-linejoin:round;stroke-width:1.4421099424362183px"></path><path d="M60,418.3a6.84,6.84,0,0,0,3.75,1.37" transform="translate(-28.99 -112.31)" style="fill:none;stroke:#293b4a;stroke-linejoin:round;stroke-width:1.4421099424362183px"></path><path d="M69.88,410.66l-1.95,1.66a2.28,2.28,0,0,0-.58.5,15.45,15.45,0,0,0-2.09,2.6c-.07.14-.21.36-.29.5a8.13,8.13,0,0,0-.5,7.14c2.31,5.55,3,8.94,2.38,11.1a2.79,2.79,0,0,1-1,1.59l-.14.14-.58.37-.15.07-.43.21-11-26.1,1.3-.72.14-.07,9.16-5.41.22,2.24.07.64a4.05,4.05,0,0,0,3.6,3.68Z" transform="translate(-28.99 -112.31)" style="fill:none;stroke:#293b4a;stroke-linejoin:round;stroke-width:1.4421099424362183px"></path><path d="M65.12,436.33l-4.33,2.3-11-26.17,3.75-1.95,11,26.11Z" transform="translate(-28.99 -112.31)" style="fill:none;stroke:#293b4a;stroke-linejoin:round;stroke-width:1.4421099424362183px"></path><path d="M205.94,418.16c-.72,1.58-1.22,2.66-1.37,3.17" transform="translate(-28.99 -112.31)" style="fill:none;stroke:#293b4a;stroke-linejoin:round;stroke-width:1.4421099424362183px"></path><path d="M68.15,401.07c-.15.14-.36.29-.51.43s-.14.14-.21.14a30.84,30.84,0,0,1-3.32,2.53c-.29.21-.65.43-1,.72" transform="translate(-28.99 -112.31)" style="fill:none;stroke:#293b4a;stroke-linejoin:round;stroke-width:1.4421099424362183px"></path><path d="M69.88,410.66,72.76,409" transform="translate(-28.99 -112.31)" style="fill:none;stroke:#293b4a;stroke-linejoin:round;stroke-width:1.4421099424362183px"></path><path d="M198,414.05c-.51,2.45-1.08,5-1.66,7.57" transform="translate(-28.99 -112.31)" style="fill:none;stroke:#293b4a;stroke-linejoin:round;stroke-width:1.4421099424362183px"></path><path d="M228,218.42c0,6.49,3.1,8.15,3.1,8.15" transform="translate(-28.99 -112.31)" style="fill:none;stroke:#293b4a;stroke-linecap:round;stroke-miterlimit:10;stroke-width:1.4421099424362183px"></path><path d="M195.77,287.14a130.78,130.78,0,0,0-8.29,12.26.07.07,0,0,1-.07.07c-9,14.71-20,35.19-20,35.19-5.12,9.59-14.64,19.47-25.67,28.84-5.41,4.62-11.25,9.09-17.09,13.34-5.27,3.82-10.53,7.35-15.65,10.67-5,3.25-9.73,6.2-14.13,8.87-9.74,5.84-17.38,10-20.55,11.75a6,6,0,0,1-.72.36c-.08.08-.15.08-.22.15s-.07.07-.14.07-.15.07-.22.15-.07,0-.07.07a.83.83,0,0,0-.22.14h-.07a.24.24,0,0,0-.14-.07" transform="translate(-28.99 -112.31)" style="fill:none;stroke:#293b4a;stroke-miterlimit:10;stroke-width:1.4421099424362183px"></path><path d="M72.62,408.86a13.94,13.94,0,0,1-5.12-7.14,22.47,22.47,0,0,1-.94-8.44.07.07,0,0,0,.07-.07c.44-.29,2-1.59,4.47-3.61,2.82-2.23,6.71-5.48,11.25-9.37,5.34-4.47,11.61-9.81,18.1-15.58,13.48-11.89,27.91-25.3,37-35.76a81.1,81.1,0,0,0,5.77-7.35" transform="translate(-28.99 -112.31)" style="fill:none;stroke:#293b4a;stroke-miterlimit:10;stroke-width:1.4421099424362183px"></path><path d="M168.88,263.56c-2.24,10.1-5.12,14.57-5.91,17.24-2,6.56-19.69,40.74-19.69,40.74" transform="translate(-28.99 -112.31)" style="fill:none;stroke:#293b4a;stroke-miterlimit:10;stroke-width:1.4421099424362183px"></path><path d="M187.48,299.47c3.25,4.62,6.85,10.1,8.65,14.06v.07a8.79,8.79,0,0,0,.37.8,7.84,7.84,0,0,1,.72,3.17c-.15,3.6-.36,12-.51,22.35-.21,14.57-.5,33-.65,47.59-.14,11.11-.21,19.9-.21,22.93v1.16c.43.43.79.79,1.22,1.15,5.84,5.41,9,5.33,9,5.33.21-2.09,4.61-19.54,8.79-40.66,1.59-8.15,3.17-16.8,4.4-25.31,2.74-18.82,4.11-36.92,1.3-47.23a24.34,24.34,0,0,0-.94-2.74A194.43,194.43,0,0,0,210,281.23c-.72-1.37-1.52-2.74-2.31-4-.43-.72-1.3-2.88-2.52-5.62-.87-2-1.88-4.33-3-6.64" transform="translate(-28.99 -112.31)" style="fill:none;stroke:#293b4a;stroke-miterlimit:10;stroke-width:1.4421099424362183px"></path><path d="M173.78,186.12a1.3,1.3,0,1,0-1.3-1.3A1.3,1.3,0,0,0,173.78,186.12Z" transform="translate(-28.99 -112.31)" style="fill:#293b4a"></path><path d="M164,115.53a9.59,9.59,0,0,0-.65,2.16c-.08.8.65,2.38,1.44,2.53l2.23.57a2,2,0,0,0,1.88-.5,6.06,6.06,0,0,0,1.37-2.24c1.8,1.37,2.16,4.76-1.8,5.55,0,0-2.31.22-2.6,3.18,0,5.19-.86,22.28-.86,27.61v.08c0,13.12-.15,20-.37,22.13a3.08,3.08,0,0,0,.29,1.59c.94,1.59,2.45,5.7,3.32,11.75.29,2.24.5,4.69.58,7.36l-.08.14h-.07c-4.47,4.54-9.88,6.35-16.37,4.76-.43-2.52-.5-8.65-.43-13.84a127.4,127.4,0,0,0-.43-12.84c-.07-1.3-.22-2.81-.22-4.61v-.08c-.07-8,5.56-34.25,8.73-45.64a14.36,14.36,0,0,0,.5-5.26v-.44a13.06,13.06,0,0,1,.22-3.38,3.41,3.41,0,0,1,1.37-2.6c2.31-1.23,6.63.14,8.44,1.3.64.43.36,1.73-.22,3.39" transform="translate(-28.99 -112.31)" style="fill:#19ad4a"></path><path d="M164,115.53a9.59,9.59,0,0,0-.65,2.16c-.08.8.65,2.38,1.44,2.53l2.23.57a2,2,0,0,0,1.88-.5,6.06,6.06,0,0,0,1.37-2.24c1.8,1.37,2.16,4.76-1.8,5.55,0,0-2.31.22-2.6,3.18,0,5.19-.86,22.28-.86,27.61v.08c0,13.12-.15,20-.37,22.13a3.08,3.08,0,0,0,.29,1.59c.94,1.59,2.45,5.7,3.32,11.75.29,2.24.5,4.69.58,7.36l-.08.14h-.07c-4.47,4.54-9.88,6.35-16.37,4.76-.43-2.52-.5-8.65-.43-13.84a127.4,127.4,0,0,0-.43-12.84c-.07-1.3-.22-2.81-.22-4.61v-.08c-.07-8,5.56-34.25,8.73-45.64a14.36,14.36,0,0,0,.5-5.26v-.44a13.06,13.06,0,0,1,.22-3.38,3.41,3.41,0,0,1,1.37-2.6c2.31-1.23,6.63.14,8.44,1.3.64.43.36,1.73-.22,3.39" transform="translate(-28.99 -112.31)" style="fill:none;stroke:#293b4a;stroke-linejoin:round;stroke-width:1.4421099424362183px"></path><path d="M168.88,196.65l.22,8.07" transform="translate(-28.99 -112.31)" style="fill:none;stroke:#293b4a;stroke-miterlimit:10;stroke-width:1.4421099424362183px"></path><path d="M237.38,204.07l4.33,22.72a16.41,16.41,0,0,0,11.24-.87L252.74,203" transform="translate(-28.99 -112.31)" style="fill:#19ad4a"></path><path d="M237.38,204.07l4.33,22.72a16.41,16.41,0,0,0,11.24-.87L252.74,203" transform="translate(-28.99 -112.31)" style="fill:none;stroke:#293b4a;stroke-miterlimit:10;stroke-width:1.4421099424362183px"></path><path d="M253.67,202.27c.08.94-3.74,2-8.65,2.45s-8.87.08-8.94-.79l1.88-3.68a26.58,26.58,0,0,0,7,0c3.82-.36,4.61-.5,6.78-1.29Z" transform="translate(-28.99 -112.31)" style="fill:#19ad4a;stroke:#293b4a;stroke-linejoin:round;stroke-width:1.4421099424362183px"></path><path d="M206.88,226.72a28.59,28.59,0,0,1,.72,5.69.2.2,0,0,0,.36.15c2-1.95,18.75-14.57,28-18.39,0,0-1.45-3,2-5.62,0,0,1.37.57,5,.07a1.58,1.58,0,0,1,1.45,2.52,20.26,20.26,0,0,1-6,2.74" transform="translate(-28.99 -112.31)" style="fill:#19ad4a"></path><path d="M206.88,226.72a28.59,28.59,0,0,1,.72,5.69.2.2,0,0,0,.36.15c2-1.95,18.75-14.57,28-18.39,0,0-1.45-3,2-5.62,0,0,1.37.57,5,.07a1.58,1.58,0,0,1,1.45,2.52,20.26,20.26,0,0,1-6,2.74" transform="translate(-28.99 -112.31)" style="fill:none;stroke:#293b4a;stroke-miterlimit:10;stroke-width:1.4421099424362183px"></path><path d="M205,271.64c-.07.07-.07.14-.14.21a12.88,12.88,0,0,1-11,6.06,13,13,0,0,1-12.26-8.65v-.07c9.66.28,20.12-4.26,20.12-4.26a.07.07,0,0,0,.07.07.61.61,0,0,1,.22-.07C203.13,267.31,204.14,269.62,205,271.64Z" transform="translate(-28.99 -112.31)" style="fill:#293b4a"></path><path d="M172.05,306a13,13,0,1,0-13-13A13,13,0,0,0,172.05,306Z" transform="translate(-28.99 -112.31)" style="fill:#293b4a"></path><path d="M220.43,305c-.07.07-.21.07-.28.15a13.58,13.58,0,0,1-4.84.93,13,13,0,0,1-13-13,12.86,12.86,0,0,1,7.28-11.61.24.24,0,0,0,.14-.07,178.73,178.73,0,0,1,9.67,20.91A11.2,11.2,0,0,1,220.43,305Z" transform="translate(-28.99 -112.31)" style="fill:#293b4a"></path><path d="M163.4,328.82a13,13,0,0,1-26,0v-.15a87.77,87.77,0,0,0,6-7.57c0-.07.07-.07.07-.14s.86-1.66,2.16-4.26a12.73,12.73,0,0,1,4.69-.86A13,13,0,0,1,163.4,328.82Z" transform="translate(-28.99 -112.31)" style="fill:#293b4a"></path><path d="M211.57,327.16a13,13,0,0,1-13,13,16,16,0,0,1-2-.15.29.29,0,0,1-.22-.07c.15-10.6.36-19.18.51-22.86a6.89,6.89,0,0,0-.58-2.66,10.56,10.56,0,0,1,2.16-.22A13.08,13.08,0,0,1,211.57,327.16Z" transform="translate(-28.99 -112.31)" style="fill:#293b4a"></path><path d="M101.17,368.62a13,13,0,0,1-18.75,11.61c-.07-.07-.14-.07-.21-.15,5.41-4.54,11.68-9.87,18.31-15.71,0,.07.07.14.07.28A14,14,0,0,1,101.17,368.62Z" transform="translate(-28.99 -112.31)" style="fill:#293b4a"></path><path d="M141.77,363.5c-5.41,4.62-11.25,9.09-17.09,13.34-.15-.07-.29-.07-.43-.14A13,13,0,1,1,141.77,363C141.7,363.14,141.77,363.36,141.77,363.5Z" transform="translate(-28.99 -112.31)" style="fill:#293b4a"></path><path d="M219.14,352.18c-1.23,8.51-2.82,17.16-4.4,25.31a1.65,1.65,0,0,1-.58-.07A13,13,0,1,1,218.63,352,.77.77,0,0,0,219.14,352.18Z" transform="translate(-28.99 -112.31)" style="fill:#293b4a"></path><path d="M76.94,400.35a12.57,12.57,0,0,1-2.59,7.71,7.2,7.2,0,0,0-.72.43c-.07.08-.15.08-.22.15s-.07.07-.14.07-.15.07-.22.15-.07,0-.07.07a.83.83,0,0,0-.22.14h-.07a.24.24,0,0,0-.14-.07,15.17,15.17,0,0,1-4.91-7.28,22.34,22.34,0,0,1-1-8.37V393s1.52-1.22,4.18-3.39c.08.08.15.08.22.15A12.09,12.09,0,0,1,76.94,400.35Z" transform="translate(-28.99 -112.31)" style="fill:#293b4a"></path><path d="M109,387.51c-5,3.25-9.73,6.2-14.13,8.87,0-.07.07-.22.07-.29a12.91,12.91,0,0,1,12.26-8.65,9.52,9.52,0,0,1,1.37.07C108.74,387.44,108.89,387.51,109,387.51Z" transform="translate(-28.99 -112.31)" style="fill:#293b4a"></path><path d="M206.66,400.35A13,13,0,0,1,198,412.6a4.8,4.8,0,0,1-1,.29c-.36-.36-.79-.72-1.23-1.15v-1.15l-.21-.22s.07-9.66.21-22.79a.25.25,0,0,1,.22.08A12.86,12.86,0,0,1,206.66,400.35Z" transform="translate(-28.99 -112.31)" style="fill:#293b4a"></path><path d="M199.67,230.32s5.55-1.22,7.86-4.25c0,0-4.69-19.62-21.27-19.62" transform="translate(-28.99 -112.31)" style="fill:none;stroke:#293b4a;stroke-miterlimit:10;stroke-width:1.4421099424362183px"></path><path d="M324.92,342.52l-.51,1.8-8.58,31.73-.36,1.29h-33.1l-3-12.4-5.48-22.42H274a44,44,0,0,0,5.19.72,54.14,54.14,0,0,0,6.85.07,84.73,84.73,0,0,0,9.59-1.08c1.3-.22,2.52-.36,3.75-.58.87-.14,1.73-.21,2.52-.36a67.42,67.42,0,0,1,12.62-.79,36,36,0,0,1,9.66,1.8c.15.07.29.07.44.15S324.84,342.52,324.92,342.52Z" transform="translate(-28.99 -112.31)" style="fill:none;stroke:#293b4a;stroke-miterlimit:10;stroke-width:1.4421099424362183px"></path><path d="M285.83,325.36c-7.49-1.37-14.06-4.33-18.74-8.58a9.53,9.53,0,0,1-1.23-1.23,23.86,23.86,0,0,1-5.33-8.51,24.79,24.79,0,0,1,.21-16.15,40.85,40.85,0,0,1,6.35,1c8.87,2,24.22,8.22,28.41,26.9a45.13,45.13,0,0,1,1,7.35" transform="translate(-28.99 -112.31)" style="fill:none;stroke:#293b4a;stroke-miterlimit:10;stroke-width:1.4421099424362183px"></path><path d="M304.29,330.48a24.57,24.57,0,0,0,13.78-9.59,16.24,16.24,0,0,0,1.29-2c.22-.44.44-.8.65-1.23a33.61,33.61,0,0,0,3.75-12.83c-12-3.82-20.91,2.95-24.51,14.06a37.81,37.81,0,0,0-1.81,12.69" transform="translate(-28.99 -112.31)" style="fill:none;stroke:#293b4a;stroke-miterlimit:10;stroke-width:1.4421099424362183px"></path><path d="M296.43,326.15,298,341.29" transform="translate(-28.99 -112.31)" style="fill:none;stroke:#293b4a;stroke-miterlimit:10;stroke-width:1.4421099424362183px"></path><path d="M283,377.34a3.34,3.34,0,0,0-.21-.57c-.44-1.52-1.66-5.63-2.6-8.8-.36-1.22-.65-2.31-.87-3l-5.48-22.42H274l-.15-.58a46.71,46.71,0,0,0,5.34.72,1.62,1.62,0,0,0,0,.58c1.73,6.42,3,22.71,3.75,33.53A1.42,1.42,0,0,1,283,377.34Z" transform="translate(-28.99 -112.31)" style="fill:#293b4a"></path><path d="M295.71,376.77c0,.21-.07.36-.07.57H287.2c-.07-.21-.07-.36-.14-.57-2.24-11.61-1.95-23.51-.94-33.46,0-.22.07-.36.07-.58a80.13,80.13,0,0,0,9.45-1.08,1.65,1.65,0,0,0,.07.58C296.51,353.12,296.87,366.17,295.71,376.77Z" transform="translate(-28.99 -112.31)" style="fill:#293b4a"></path><path d="M308.33,376.77v.57h-5.41v-.57a266.91,266.91,0,0,0-3.39-35.12,1.26,1.26,0,0,1-.07-.36h9.45C308.84,341.29,307.9,358.45,308.33,376.77Z" transform="translate(-28.99 -112.31)" style="fill:#293b4a"></path><path d="M324.41,344.25l-8.94,33c0-.07-1.73.15-1.8,0-1.08-13.34-.15-26.46.93-36.84,0-.22.08-.36.08-.58a34.94,34.94,0,0,1,9.51,1.8,1.46,1.46,0,0,0,.08.58,10.91,10.91,0,0,1,.07,1.51A1.47,1.47,0,0,1,324.41,344.25Z" transform="translate(-28.99 -112.31)" style="fill:#293b4a"></path><path d="M538.2,447.86c7.21-6.12,19.4-10.16,33.17-10.16s26,4,33.17,10.16" transform="translate(-28.99 -112.31)" style="fill:none;stroke:#293b4a;stroke-miterlimit:10;stroke-width:1.4421099424362183px"></path><path d="M251.87,271.49V258.08" transform="translate(-28.99 -112.31)" style="fill:none;stroke:#293b4a;stroke-miterlimit:10;stroke-width:1.4421099424362183px"></path><path d="M421.61,393.42H301.55v9.81H421.61Z" transform="translate(-28.99 -112.31)" style="fill:none;stroke:#293b4a;stroke-linejoin:round;stroke-width:1.4421099424362183px"></path><path d="M416.49,403.16v6.63H306.74v-6.63" transform="translate(-28.99 -112.31)" style="fill:none;stroke:#293b4a;stroke-linejoin:round;stroke-width:1.4421099424362183px"></path><path d="M306.74,409.79V447.5" transform="translate(-28.99 -112.31)" style="fill:none;stroke:#293b4a;stroke-linejoin:round;stroke-width:1.4421099424362183px"></path><path d="M312.8,409.79V447.5" transform="translate(-28.99 -112.31)" style="fill:none;stroke:#293b4a;stroke-linejoin:round;stroke-width:1.4421099424362183px"></path><path d="M410.43,409.79V447.5" transform="translate(-28.99 -112.31)" style="fill:none;stroke:#293b4a;stroke-linejoin:round;stroke-width:1.4421099424362183px"></path><path d="M416.49,409.79V447.5" transform="translate(-28.99 -112.31)" style="fill:none;stroke:#293b4a;stroke-linejoin:round;stroke-width:1.4421099424362183px"></path><path d="M466.68,152.59l7.71,12.26-9,36.56q-35.81-17.1-37.64-50.77Z" transform="translate(-28.99 -112.31)" style="fill:none;stroke:#293b4a;stroke-miterlimit:10;stroke-width:1.4421099424362183px"></path><path d="M427.67,150.64S461,158.5,465.3,201.41" transform="translate(-28.99 -112.31)" style="fill:none;stroke:#293b4a;stroke-miterlimit:10;stroke-width:1.4421099424362183px"></path><path d="M457.81,175.74a7.17,7.17,0,0,1-10.75-7.14,6.69,6.69,0,0,1,2.38-4.4" transform="translate(-28.99 -112.31)" style="fill:none;stroke:#293b4a;stroke-miterlimit:10;stroke-width:1.4421099424362183px"></path><path d="M248.7,439.36V377.49H267" transform="translate(-28.99 -112.31)" style="fill:none;stroke:#293b4a;stroke-miterlimit:10;stroke-width:1.4421099424362183px"></path><path d="M435.81,259.74s4.26,2.38,4.26-1.08V258" transform="translate(-28.99 -112.31)" style="fill:none;stroke:#293b4a;stroke-miterlimit:10;stroke-width:1.4421099424362183px"></path><path d="M437.11,257.22s4.26,2.38,4.26-1.08" transform="translate(-28.99 -112.31)" style="fill:none;stroke:#293b4a;stroke-miterlimit:10;stroke-width:1.4421099424362183px"></path><path d="M480.23,421.26s-4.33,4.76-12.18,1" transform="translate(-28.99 -112.31)" style="fill:none;stroke:#293b4a;stroke-miterlimit:10;stroke-width:1.4421099424362183px"></path><path d="M471.29,386.29l4.69-4" transform="translate(-28.99 -112.31)" style="fill:none;stroke:#293b4a;stroke-miterlimit:10;stroke-width:1.4421099424362183px"></path><path d="M463.79,442.82l2.89-5.41" transform="translate(-28.99 -112.31)" style="fill:none;stroke:#293b4a;stroke-miterlimit:10;stroke-width:1.4421099424362183px"></path><path d="M460.33,374.1s10.89-1.87,9.73-11.18" transform="translate(-28.99 -112.31)" style="fill:none;stroke:#293b4a;stroke-miterlimit:10;stroke-width:1.4421099424362183px"></path></svg>