<svg xmlns="http://www.w3.org/2000/svg" id="Layer_1" data-name="Layer 1" viewBox="0 0 318.9 400.4"><path d="M243.43,485.6H456" transform="translate(-179.82 -85.92)" style="fill:none;stroke:#293b4a;stroke-miterlimit:10;stroke-width:1.4421099424362183px"></path><path d="M467.44,485.6H498" transform="translate(-179.82 -85.92)" style="fill:none;stroke:#293b4a;stroke-miterlimit:10;stroke-width:1.4421099424362183px"></path><path d="M179.82,485.6h49.64" transform="translate(-179.82 -85.92)" style="fill:none;stroke:#293b4a;stroke-miterlimit:10;stroke-width:1.4421099424362183px"></path><path d="M339.51,152.59a140.64,140.64,0,1,1-140.69,140.6" transform="translate(-179.82 -85.92)" style="fill:none;stroke:#293b4a;stroke-miterlimit:10;stroke-width:1.4421099424362183px"></path><path d="M478.2,216.38a158.51,158.51,0,1,1-280.94,6.94" transform="translate(-179.82 -85.92)" style="fill:none;stroke:#293b4a;stroke-miterlimit:10;stroke-width:1.4421099424362183px"></path><path d="M209.15,199.37a158.6,158.6,0,0,1,252-2.09" transform="translate(-179.82 -85.92)" style="fill:none;stroke:#293b4a;stroke-miterlimit:10;stroke-width:1.4421099424362183px"></path><path d="M272.07,485.6c5.39-11.63,30.55-12.93,30.55-12.93h10.85V485.6Z" transform="translate(-179.82 -85.92)" style="fill:none;stroke:#293b4a;stroke-miterlimit:10;stroke-width:1.4421099424362183px"></path><path d="M412.94,485.6c-5.39-11.63-30.56-12.93-30.56-12.93H371.54V485.6Z" transform="translate(-179.82 -85.92)" style="fill:none;stroke:#293b4a;stroke-miterlimit:10;stroke-width:1.4421099424362183px"></path><path d="M290.56,474.49c-8.59-37-25.52-11.45-2.69.7" transform="translate(-179.82 -85.92)" style="fill:none;stroke:#293b4a;stroke-miterlimit:10;stroke-width:1.4421099424362183px"></path><path d="M292.47,474.15c-1.56-31.08-20-12.85-2.78.52" transform="translate(-179.82 -85.92)" style="fill:none;stroke:#293b4a;stroke-miterlimit:10;stroke-width:1.4421099424362183px"></path><path d="M395.14,474.49c8.6-37,25.52-11.45,2.69.7" transform="translate(-179.82 -85.92)" style="fill:none;stroke:#293b4a;stroke-miterlimit:10;stroke-width:1.4421099424362183px"></path><path d="M393.23,474.23c1.57-31.07,20-12.84,2.78.52" transform="translate(-179.82 -85.92)" style="fill:none;stroke:#293b4a;stroke-miterlimit:10;stroke-width:1.4421099424362183px"></path><path d="M198.22,216.46c-.87-.08-2.35-.69-2.7-1.56-1-2.6,2.26-2.78,2.26-2.78-4.6-4.07,1.22-4.34,1.22-4.34-3.56-6.76,5.2-4.68,5.2-4.68s-6.16-6.51,3.22-4.43c32.28,9.72,0,5.47,0,5.47,31.93,9.11-5.91,4.43-5.91,4.43,31.6,8.15-1.3,4.16-1.3,4.16C221,219.5,203.25,217.16,198.22,216.46Z" transform="translate(-179.82 -85.92)" style="fill:none;stroke:#293b4a;stroke-linejoin:round;stroke-width:1.4421099424362183px"></path><path d="M478.55,216.46a3.59,3.59,0,0,0,2.69-1.56c.95-2.6-2.26-2.78-2.26-2.78,4.6-4.07-1.21-4.34-1.21-4.34,3.56-6.76-5.21-4.68-5.21-4.68s6.16-6.51-3.21-4.43c-32.29,9.72,0,5.47,0,5.47-31.94,9.11,5.9,4.43,5.9,4.43-31.59,8.15,1.3,4.16,1.3,4.16C455.72,219.5,473.43,217.16,478.55,216.46Z" transform="translate(-179.82 -85.92)" style="fill:none;stroke:#293b4a;stroke-linejoin:round;stroke-width:1.4421099424362183px"></path><path d="M331.87,129.41c2.69-2.51,4.69,0,4.69,0" transform="translate(-179.82 -85.92)" style="fill:none;stroke:#293b4a;stroke-miterlimit:10;stroke-width:1.4421099424362183px"></path><path d="M342,129.41c2.69-2.51,4.68,0,4.68,0" transform="translate(-179.82 -85.92)" style="fill:none;stroke:#293b4a;stroke-miterlimit:10;stroke-width:1.4421099424362183px"></path><path d="M358.6,120c-16.92,4.08-17.87-6-30.2-2.43-.09,0-.09.09-.17.18-.35,4-2.09,18.66-5.47,10.76a48.5,48.5,0,0,1-3.39-10.16c-.34-1.91-.6-3.9-1-5.72-.69-2.52-.43-5.21,2.26-7,6.77-4.69,12.5-1.91,35.41-16.5S377.87,115.27,358.6,120Z" transform="translate(-179.82 -85.92)" style="fill:#293b4a"></path><path d="M347.5,118.82c4,10.59,4.6,12.5,5.38.87S347.5,118.82,347.5,118.82Z" transform="translate(-179.82 -85.92)" style="fill:#293b4a"></path><path d="M339.86,131.24a26.39,26.39,0,0,1,1.3,4.77" transform="translate(-179.82 -85.92)" style="fill:none;stroke:#293b4a;stroke-miterlimit:10;stroke-width:1.4421099424362183px"></path><path d="M371.54,482.22c10.15.34,9.54-3,16.83-1.48s9.46,2.69,16.15,2.35l6.68-.35" transform="translate(-179.82 -85.92)" style="fill:none;stroke:#293b4a;stroke-miterlimit:10;stroke-width:1.4421099424362183px"></path><path d="M313.47,482.22c-10.15.34-9.54-3-16.83-1.48s-9.46,2.69-16.15,2.35l-6.68-.35" transform="translate(-179.82 -85.92)" style="fill:none;stroke:#293b4a;stroke-miterlimit:10;stroke-width:1.4421099424362183px"></path><path d="M302.62,472.67l-2.08-15.8A48,48,0,0,0,315.82,459l-2.35,13.63" transform="translate(-179.82 -85.92)" style="fill:none;stroke:#293b4a;stroke-miterlimit:10;stroke-width:1.4421099424362183px"></path><path d="M382.39,472.67l3.73-18.75c-11.2,5-15.8,4.43-15.8,4.43l1.22,14.41" transform="translate(-179.82 -85.92)" style="fill:none;stroke:#293b4a;stroke-miterlimit:10;stroke-width:1.4421099424362183px"></path><path d="M325,129.41l1.12,6.6" transform="translate(-179.82 -85.92)" style="fill:none;stroke:#293b4a;stroke-miterlimit:10;stroke-width:1.4421099424362183px"></path><path d="M352.88,119.69l-2.43,17" transform="translate(-179.82 -85.92)" style="fill:none;stroke:#293b4a;stroke-miterlimit:10;stroke-width:1.4421099424362183px"></path><path d="M340.29,101.73c15.71-5.56,23-14,24.65-8.94C367.28,99.9,340.29,105.81,340.29,101.73Z" transform="translate(-179.82 -85.92)" style="fill:#19ad4a"></path><path d="M400,294.84a8.61,8.61,0,0,0,12.76,4.68A8.62,8.62,0,0,1,425.35,310a8.64,8.64,0,0,0,6.77,11.81A8.62,8.62,0,0,1,435,338a8.56,8.56,0,0,0-2.34,13.37,8.62,8.62,0,0,1-8.16,14.23,8.63,8.63,0,0,0-10.42,8.77c.35,8.33-10.24,12.23-15.44,5.64A8.65,8.65,0,0,0,385,380a8.64,8.64,0,0,1-15.45-5.64,8.66,8.66,0,0,0-10.41-8.77A8.61,8.61,0,0,1,351,351.34,8.62,8.62,0,0,0,348.62,338a8.61,8.61,0,0,1,2.87-16.14A8.61,8.61,0,0,0,358.26,310a8.6,8.6,0,0,1,12.58-10.5,8.61,8.61,0,0,0,12.76-4.68C386.2,286.85,397.49,286.85,400,294.84Z" transform="translate(-179.82 -85.92)" style="fill:none;stroke:#293b4a;stroke-miterlimit:10;stroke-width:1.4421099424362183px"></path><path d="M479.07,275.83a6.48,6.48,0,0,1-2.26.17,5.38,5.38,0,0,0-5.46,7.9,5.37,5.37,0,0,1-7.82,6.94,5.42,5.42,0,0,0-8.5,4.43,5.38,5.38,0,0,1-10.16,2.52,5.35,5.35,0,0,0-9.54,0,5.37,5.37,0,0,1-10.16-2.52,5.34,5.34,0,0,0-8.5-4.43,5.36,5.36,0,0,1-7.81-6.94,5.4,5.4,0,0,0-5.47-7.9,5.39,5.39,0,0,1-3.73-9.81,5.35,5.35,0,0,0-1.13-9.46,5.38,5.38,0,0,1,1.3-10.41,5.36,5.36,0,0,0,3.38-8.94,5.36,5.36,0,0,1,5.91-8.59,5.39,5.39,0,0,0,7.2-6.34c-1.48-5.47,5.55-9.2,9.29-4.86a5.36,5.36,0,0,0,9.28-2.25c1.31-5.56,9.2-5.56,10.42,0a5.34,5.34,0,0,0,9.28,2.25,6.19,6.19,0,0,1,2.35-1.65" transform="translate(-179.82 -85.92)" style="fill:none;stroke:#293b4a;stroke-miterlimit:10;stroke-width:1.4421099424362183px"></path><path d="M328.66,175.41a14.16,14.16,0,0,0,21,7.64c11.62-7.29,25.86,4.6,20.65,17.36a14.14,14.14,0,0,0,11.2,19.35c13.62,1.91,16.83,20.14,4.68,26.56a14.22,14.22,0,0,0-3.9,22c9.2,10.16,0,26.22-13.45,23.35a14.15,14.15,0,0,0-17.1,14.41c.52,13.71-16.93,20.05-25.34,9.2a14.21,14.21,0,0,0-22.4,0c-8.42,10.85-25.86,4.51-25.34-9.2a14.19,14.19,0,0,0-17.1-14.41c-13.45,2.87-22.65-13.1-13.45-23.35a14.21,14.21,0,0,0-3.91-22c-12.15-6.42-8.93-24.65,4.69-26.56a14.19,14.19,0,0,0,11.2-19.35c-5.21-12.76,9-24.65,20.65-17.36a14.16,14.16,0,0,0,21-7.64C305.92,162.31,324.5,162.31,328.66,175.41Z" transform="translate(-179.82 -85.92)" style="fill:none;stroke:#293b4a;stroke-miterlimit:10;stroke-width:1.4421099424362183px"></path><path d="M246.9,241.81A9.4,9.4,0,0,1,250,224.19" transform="translate(-179.82 -85.92)" style="fill:none;stroke:#293b4a;stroke-miterlimit:10;stroke-width:1.4421099424362183px"></path><path d="M300.45,311.59a9.41,9.41,0,0,1-16.83-6.17" transform="translate(-179.82 -85.92)" style="fill:none;stroke:#293b4a;stroke-miterlimit:10;stroke-width:1.4421099424362183px"></path><path d="M380.39,224.19a9.4,9.4,0,0,1,3.12,17.62" transform="translate(-179.82 -85.92)" style="fill:none;stroke:#293b4a;stroke-miterlimit:10;stroke-width:1.4421099424362183px"></path><path d="M306.27,177a9.39,9.39,0,0,1,17.88,0" transform="translate(-179.82 -85.92)" style="fill:none;stroke:#293b4a;stroke-miterlimit:10;stroke-width:1.4421099424362183px"></path><path d="M315.21,262.9a18.06,18.06,0,1,0-18-18.06A18.06,18.06,0,0,0,315.21,262.9Z" transform="translate(-179.82 -85.92)" style="fill:none;stroke:#293b4a;stroke-miterlimit:10;stroke-width:1.4421099424362183px"></path><path d="M315.21,223.32a21.53,21.53,0,1,1-21.53,21.52" transform="translate(-179.82 -85.92)" style="fill:none;stroke:#293b4a;stroke-miterlimit:10;stroke-width:1.4421099424362183px"></path><path d="M391.85,348.47a12.41,12.41,0,1,0-12.42-12.41A12.41,12.41,0,0,0,391.85,348.47Z" transform="translate(-179.82 -85.92)" style="fill:none;stroke:#293b4a;stroke-miterlimit:10;stroke-width:1.4421099424362183px"></path><path d="M400.18,336.5a7.92,7.92,0,0,1-7.9,7.89" transform="translate(-179.82 -85.92)" style="fill:none;stroke:#293b4a;stroke-miterlimit:10;stroke-width:1.4421099424362183px"></path><path d="M449.73,255.87a9.55,9.55,0,1,1-9.54-9.55" transform="translate(-179.82 -85.92)" style="fill:none;stroke:#293b4a;stroke-miterlimit:10;stroke-width:1.4421099424362183px"></path><path d="M416.15,255.87a24,24,0,1,1,24,24" transform="translate(-179.82 -85.92)" style="fill:none;stroke:#293b4a;stroke-miterlimit:10;stroke-width:1.4421099424362183px"></path><path d="M234.84,387.18a2.38,2.38,0,0,1,.7-.95l5.72-4.6a4.85,4.85,0,0,0,.44-7.12l-5-5.29a2.36,2.36,0,0,1,1.05-3.91l6.94-2.26a4.86,4.86,0,0,0,3-6.42l-2.78-6.94a2.39,2.39,0,0,1,2.34-3.3l7.29.43a4.77,4.77,0,0,0,5.12-4.94l-.08-7.29a2.45,2.45,0,0,1,3.38-2.26l6.68,3a4.89,4.89,0,0,0,6.6-2.78l2.52-6.86a2.44,2.44,0,0,1,4-.86l5.12,5.2a4.91,4.91,0,0,0,7.12-.17l4.86-5.47a2.42,2.42,0,0,1,4,.61l2.86,6.77a4.86,4.86,0,0,0,6.69,2.43l6.51-3.39a2.37,2.37,0,0,1,3.47,2.09l.26,7.29a4.88,4.88,0,0,0,5.38,4.68l7.29-.78a2.41,2.41,0,0,1,2.52,3.21l-2.43,7a4.89,4.89,0,0,0,3.29,6.33l7.12,1.91a2.42,2.42,0,0,1,1.22,3.91L343.24,372a4.89,4.89,0,0,0,.87,7.12l5.9,4.34a2.44,2.44,0,0,1-.26,4.08L343.33,391a4.84,4.84,0,0,0-1.74,6.94l4,6.17a2.38,2.38,0,0,1-1.74,3.64l-7.29,1a4.92,4.92,0,0,0-4.17,5.81l1.48,7.2a2.38,2.38,0,0,1-2.95,2.78l-7.12-1.73a4.88,4.88,0,0,0-6,3.9l-1,6.16" transform="translate(-179.82 -85.92)" style="fill:none;stroke:#293b4a;stroke-miterlimit:10;stroke-width:1.4421099424362183px"></path><path d="M300.11,393.26a7.12,7.12,0,1,1-7.12-7.12" transform="translate(-179.82 -85.92)" style="fill:none;stroke:#293b4a;stroke-miterlimit:10;stroke-width:1.4421099424362183px"></path><path d="M292.9,363.14a7.12,7.12,0,1,1-7.11,7.12" transform="translate(-179.82 -85.92)" style="fill:none;stroke:#293b4a;stroke-miterlimit:10;stroke-width:1.4421099424362183px"></path><path d="M304.45,388.92a7.12,7.12,0,1,1,7.11-7.12" transform="translate(-179.82 -85.92)" style="fill:none;stroke:#293b4a;stroke-miterlimit:10;stroke-width:1.4421099424362183px"></path><path d="M274.33,381.8a7.12,7.12,0,1,1,7.12,7.12" transform="translate(-179.82 -85.92)" style="fill:none;stroke:#293b4a;stroke-miterlimit:10;stroke-width:1.4421099424362183px"></path><path d="M267.73,381.8A25.17,25.17,0,1,1,292.9,407" transform="translate(-179.82 -85.92)" style="fill:none;stroke:#293b4a;stroke-miterlimit:10;stroke-width:1.4421099424362183px"></path><path d="M258.53,291.89a12.08,12.08,0,0,1-23.17-4.78" transform="translate(-179.82 -85.92)" style="fill:none;stroke:#293b4a;stroke-miterlimit:10;stroke-width:1.4421099424362183px"></path><path d="M234.84,273.05a18.87,18.87,0,0,1,12.67-4.86h.7" transform="translate(-179.82 -85.92)" style="fill:none;stroke:#293b4a;stroke-miterlimit:10;stroke-width:1.4421099424362183px"></path><path d="M266,291.36a18.9,18.9,0,0,1-18.49,14.76" transform="translate(-179.82 -85.92)" style="fill:none;stroke:#293b4a;stroke-miterlimit:10;stroke-width:1.4421099424362183px"></path><path d="M228.16,305.42a26.64,26.64,0,0,1,19.35-44.95,22.56,22.56,0,0,1,4.17.34" transform="translate(-179.82 -85.92)" style="fill:none;stroke:#293b4a;stroke-miterlimit:10;stroke-width:1.4421099424362183px"></path><path d="M273.2,294.14a26.67,26.67,0,0,1-25.69,19.62,26,26,0,0,1-12.32-3" transform="translate(-179.82 -85.92)" style="fill:none;stroke:#293b4a;stroke-miterlimit:10;stroke-width:1.4421099424362183px"></path><path d="M220.87,266.11a34,34,0,0,1,26.64-12.85c1.13,0,2.17.09,3.21.18" transform="translate(-179.82 -85.92)" style="fill:none;stroke:#293b4a;stroke-miterlimit:10;stroke-width:1.4421099424362183px"></path><path d="M278.24,301.61a34,34,0,0,1-64.66-14.5" transform="translate(-179.82 -85.92)" style="fill:none;stroke:#293b4a;stroke-miterlimit:10;stroke-width:1.4421099424362183px"></path><path d="M291.17,281a44.41,44.41,0,0,1-12.85-13.2c-.78-1.21-1.47-2.51-2.17-3.81a36.23,36.23,0,0,1-1.73-4.17,43.42,43.42,0,0,1,2.43-35.5" transform="translate(-179.82 -85.92)" style="fill:none;stroke:#293b4a;stroke-miterlimit:10;stroke-width:1.4421099424362183px"></path><path d="M344.11,277.3a43.29,43.29,0,0,1-28.9,11,42.5,42.5,0,0,1-12.93-2" transform="translate(-179.82 -85.92)" style="fill:none;stroke:#293b4a;stroke-miterlimit:10;stroke-width:1.4421099424362183px"></path><path d="M358.69,244.84a43.65,43.65,0,0,1-2.95,15.8" transform="translate(-179.82 -85.92)" style="fill:none;stroke:#293b4a;stroke-miterlimit:10;stroke-width:1.4421099424362183px"></path><path d="M280.75,218.37a43.45,43.45,0,0,1,34.46-17A43,43,0,0,1,341,209.87" transform="translate(-179.82 -85.92)" style="fill:none;stroke:#293b4a;stroke-miterlimit:10;stroke-width:1.4421099424362183px"></path><path d="M366,326.78a27.94,27.94,0,0,1,6.16-9.9,22.56,22.56,0,0,1,2-1.91,21.42,21.42,0,0,1,2.26-1.73,27.47,27.47,0,0,1,8.76-3.91,26.76,26.76,0,0,1,13.37.09" transform="translate(-179.82 -85.92)" style="fill:none;stroke:#293b4a;stroke-miterlimit:10;stroke-width:1.4421099424362183px"></path><path d="M376.31,358.71a27.86,27.86,0,0,1-11.89-24.38" transform="translate(-179.82 -85.92)" style="fill:none;stroke:#293b4a;stroke-miterlimit:10;stroke-width:1.4421099424362183px"></path><path d="M398.44,362.71a26.9,26.9,0,0,1-10.15.6" transform="translate(-179.82 -85.92)" style="fill:none;stroke:#293b4a;stroke-miterlimit:10;stroke-width:1.4421099424362183px"></path><path d="M402.87,310.89a27.47,27.47,0,0,1,14.32,35.67" transform="translate(-179.82 -85.92)" style="fill:none;stroke:#293b4a;stroke-miterlimit:10;stroke-width:1.4421099424362183px"></path><path d="M361.56,410a28,28,0,0,1,6.16-9.9,21.15,21.15,0,0,1,2-1.91,24.1,24.1,0,0,1,2.26-1.73,27.42,27.42,0,0,1,8.77-3.91,26.73,26.73,0,0,1,13.36.09" transform="translate(-179.82 -85.92)" style="fill:none;stroke:#293b4a;stroke-miterlimit:10;stroke-width:1.4421099424362183px"></path><path d="M361.29,428a18.08,18.08,0,0,1-.6-2.08,26.51,26.51,0,0,1-.78-8.25" transform="translate(-179.82 -85.92)" style="fill:none;stroke:#293b4a;stroke-miterlimit:10;stroke-width:1.4421099424362183px"></path><path d="M398.44,394.21a27.28,27.28,0,0,1,14.93,16.32,23,23,0,0,1,.69,2.34" transform="translate(-179.82 -85.92)" style="fill:none;stroke:#293b4a;stroke-miterlimit:10;stroke-width:1.4421099424362183px"></path><path d="M436.54,197.37a39.31,39.31,0,0,1-14.4,7.46,27.64,27.64,0,0,1-3.74.78c-1.3.18-2.6.35-4,.44a39,39,0,0,1-13.28-1.56,38.21,38.21,0,0,1-16-9.55" transform="translate(-179.82 -85.92)" style="fill:none;stroke:#293b4a;stroke-miterlimit:10;stroke-width:1.4421099424362183px"></path><path d="M381.08,190.25a38.27,38.27,0,0,1-6.42-30.11c.26-1.13.52-2.17.87-3.3" transform="translate(-179.82 -85.92)" style="fill:none;stroke:#293b4a;stroke-miterlimit:10;stroke-width:1.4421099424362183px"></path><path d="M211.41,336.5a105.28,105.28,0,0,1,39.23-1.57" transform="translate(-179.82 -85.92)" style="fill:none;stroke:#293b4a;stroke-miterlimit:10;stroke-width:1.4421099424362183px"></path><path d="M459.72,328.77a5.12,5.12,0,1,0-5.12-5.12A5.12,5.12,0,0,0,459.72,328.77Z" transform="translate(-179.82 -85.92)" style="fill:none;stroke:#293b4a;stroke-miterlimit:10;stroke-width:1.4421099424362183px"></path><path d="M250.72,211.26a5.12,5.12,0,1,0-5.12-5.12A5.12,5.12,0,0,0,250.72,211.26Z" transform="translate(-179.82 -85.92)" style="fill:none;stroke:#293b4a;stroke-miterlimit:10;stroke-width:1.4421099424362183px"></path><path d="M315.12,326.25a5.12,5.12,0,1,0-5.12-5.12A5.12,5.12,0,0,0,315.12,326.25Z" transform="translate(-179.82 -85.92)" style="fill:none;stroke:#293b4a;stroke-miterlimit:10;stroke-width:1.4421099424362183px"></path><path d="M277.72,166.82a138.34,138.34,0,0,1,30.2-10.68" transform="translate(-179.82 -85.92)" style="fill:none;stroke:#293b4a;stroke-miterlimit:10;stroke-width:1.4421099424362183px"></path><path d="M205.85,249.18a140,140,0,0,1,36.89-58.06" transform="translate(-179.82 -85.92)" style="fill:none;stroke:#293b4a;stroke-miterlimit:10;stroke-width:1.4421099424362183px"></path><path d="M300.54,456.87l-.43-10.06" transform="translate(-179.82 -85.92)" style="fill:none;stroke:#293b4a;stroke-miterlimit:10;stroke-width:1.4421099424362183px"></path><path d="M315.82,459l2.34-8.76" transform="translate(-179.82 -85.92)" style="fill:none;stroke:#293b4a;stroke-miterlimit:10;stroke-width:1.4421099424362183px"></path><path d="M370.32,458.26,369.11,449" transform="translate(-179.82 -85.92)" style="fill:none;stroke:#293b4a;stroke-miterlimit:10;stroke-width:1.4421099424362183px"></path><path d="M386.12,453.84l2.17-9.81" transform="translate(-179.82 -85.92)" style="fill:none;stroke:#293b4a;stroke-miterlimit:10;stroke-width:1.4421099424362183px"></path></svg>