<svg xmlns="http://www.w3.org/2000/svg" id="Layer_1" data-name="Layer 1" viewBox="0 0 525.17 392.69"><path d="M466.36,402.77c-.82,4-2.47,5.77-4.78,5.94a3.18,3.18,0,0,1-3.22-2.31" transform="translate(-64.64 -93.55)" style="fill:none;stroke:#293b4a;stroke-linejoin:round;stroke-width:1.4421099424362183px"></path><path d="M462.49,413.49c1.73-1.73,4.2-3.79,5-10.15" transform="translate(-64.64 -93.55)" style="fill:none;stroke:#293b4a;stroke-linejoin:round;stroke-width:1.4421099424362183px"></path><path d="M471.73,400.62a9.63,9.63,0,0,1-3.88,3.38" transform="translate(-64.64 -93.55)" style="fill:none;stroke:#293b4a;stroke-linejoin:round;stroke-width:1.4421099424362183px"></path><path d="M466.69,400.87l-3.05-.66-1.65.58,2.23.82a10.6,10.6,0,0,1,3.3,2c.16.08.25.25.41.33a7.51,7.51,0,0,1,2.31,6.52c-.74,6.1-.49,9.57.74,11.3a3,3,0,0,0,1.32,1.16l.17.08.58.08.66.08,3.3-28.63-1.41-.24-10.06-1.65.41,2.14Z" transform="translate(-64.64 -93.55)" style="fill:none;stroke:#293b4a;stroke-linejoin:round;stroke-width:1.4421099424362183px"></path><path d="M473.13,423.06l3.13.58,3.3-28.71-2.47-.42-3.3,28.63Z" transform="translate(-64.64 -93.55)" style="fill:none;stroke:#293b4a;stroke-linejoin:round;stroke-width:1.4421099424362183px"></path><path d="M446.07,383.13s1.65,8.83-2.64,13.28L449,398s3.21-4.13,2.55-11.88Z" transform="translate(-64.64 -93.55)" style="fill:#293b4a"></path><path d="M364.47,361.92s-.41-6.76-5-28.79" transform="translate(-64.64 -93.55)" style="fill:none;stroke:#293b4a;stroke-linejoin:round;stroke-width:1.4421099424362183px"></path><path d="M465.62,392.62c-17.41-9.33-87.62-43.81-108.25-27.39" transform="translate(-64.64 -93.55)" style="fill:none;stroke:#293b4a;stroke-linejoin:round;stroke-width:1.4421099424362183px"></path><path d="M464.8,401.28,438,395.75,345.74,381.4c-7-8.42-16.25-25.09-20.54-62" transform="translate(-64.64 -93.55)" style="fill:none;stroke:#293b4a;stroke-linejoin:round;stroke-width:1.4421099424362183px"></path><path d="M328.74,341.13,315.79,350s-3.55-20.29-23-27.39" transform="translate(-64.64 -93.55)" style="fill:none;stroke:#293b4a;stroke-linejoin:round;stroke-width:1.4421099424362183px"></path><path d="M212.08,249.8l-19.8,76.32" transform="translate(-64.64 -93.55)" style="fill:none;stroke:#293b4a;stroke-linejoin:round;stroke-width:1.4421099424362183px"></path><path d="M249.37,106.41,214.31,240.06" transform="translate(-64.64 -93.55)" style="fill:none;stroke:#293b4a;stroke-linejoin:round;stroke-width:1.4421099424362183px"></path><path d="M216.78,247.16l-20.37,79" transform="translate(-64.64 -93.55)" style="fill:none;stroke:#293b4a;stroke-linejoin:round;stroke-width:1.4421099424362183px"></path><path d="M253.09,107.31,217.53,244.52" transform="translate(-64.64 -93.55)" style="fill:none;stroke:#293b4a;stroke-linejoin:round;stroke-width:1.4421099424362183px"></path><path d="M254.41,127.77c35.23,10,149.91-53.21,185.14-27.14-4.62,16.25-9.32,33.74-13.94,52.14-35.23-10-149.5,53.47-184.73,27.4" transform="translate(-64.64 -93.55)" style="fill:none;stroke:#293b4a;stroke-linejoin:round;stroke-width:1.4421099424362183px"></path><path d="M249.79,468c-3.8-1.16-5.53-3-5.53-5.28a3.07,3.07,0,0,1,2.56-3" transform="translate(-64.64 -93.55)" style="fill:none;stroke:#293b4a;stroke-linejoin:round;stroke-width:1.4421099424362183px"></path><path d="M239.47,463.16c1.57,1.9,3.39,4.54,9.57,6" transform="translate(-64.64 -93.55)" style="fill:none;stroke:#293b4a;stroke-linejoin:round;stroke-width:1.4421099424362183px"></path><path d="M251.44,473.56a9.88,9.88,0,0,1-3.06-4.21" transform="translate(-64.64 -93.55)" style="fill:none;stroke:#293b4a;stroke-linejoin:round;stroke-width:1.4421099424362183px"></path><path d="M251.68,468.52l.91-3-.41-1.73L251.11,466A11.88,11.88,0,0,1,248.8,469c-.09.16-.25.24-.42.41a7.53,7.53,0,0,1-6.76,1.73c-5.94-1.24-9.49-1.4-11.3-.33a2.57,2.57,0,0,0-1.24,1.24l-.08.17-.17.57-.17.66,28.22,5.94.33-1.32,2.64-9.9-2.14.17Z" transform="translate(-64.64 -93.55)" style="fill:none;stroke:#293b4a;stroke-linejoin:round;stroke-width:1.4421099424362183px"></path><path d="M228.91,472.81l-.82,3.06,28.21,6,.66-2.48-28.13-5.94Z" transform="translate(-64.64 -93.55)" style="fill:none;stroke:#293b4a;stroke-linejoin:round;stroke-width:1.4421099424362183px"></path><path d="M266.53,448.14s-8.25,3.47-13.53.17l-.41,5.77s4.7,2.31,12.13,0Z" transform="translate(-64.64 -93.55)" style="fill:#293b4a"></path><path d="M314.88,346.58c-11.46,9.4-42.49,23.68-42.49,23.68" transform="translate(-64.64 -93.55)" style="fill:none;stroke:#293b4a;stroke-linejoin:round;stroke-width:1.4421099424362183px"></path><path d="M273.55,421.91c-3.3,13.28-8.17,29-14.36,49.09" transform="translate(-64.64 -93.55)" style="fill:none;stroke:#293b4a;stroke-linejoin:round;stroke-width:1.4421099424362183px"></path><path d="M275.94,368.86c3.55,14.19,3.22,27.22-.33,44.05" transform="translate(-64.64 -93.55)" style="fill:none;stroke:#293b4a;stroke-linejoin:round;stroke-width:1.4421099424362183px"></path><path d="M252.18,464.48c1.24-10.56,2.23-104.21,2.23-104.21,6.1-10.47,28.63-30.69,46.12-43.72a33.36,33.36,0,0,0,12.79-33.5c-3.8-18-14.61-32.18-4.79-51.73,0,0,4.87-4,8.58-4.87,0,0-7.59,22.19,5.94,13.94S339.8,224.8,339.8,224.8s7.67.41,10.64,1.57" transform="translate(-64.64 -93.55)" style="fill:none;stroke:#293b4a;stroke-linejoin:round;stroke-width:1.4421099424362183px"></path><path d="M317.52,294.6c18.32-5.86,31.44-1.07,31.44-1.07,1.57,10.48,13.28,39.52,13.28,39.52-22.94,0-31.85,13.36-31.85,13.36" transform="translate(-64.64 -93.55)" style="fill:none;stroke:#293b4a;stroke-linecap:round;stroke-linejoin:round;stroke-width:1.4421099424362183px"></path><path d="M308.45,231.48c-7.26,7.1-17.25,20.63-33.09,40.18" transform="translate(-64.64 -93.55)" style="fill:none;stroke:#293b4a;stroke-linejoin:round;stroke-width:1.4421099424362183px"></path><path d="M355.64,248.73c1,21.94-6.6,44.8-6.6,44.8" transform="translate(-64.64 -93.55)" style="fill:none;stroke:#293b4a;stroke-linejoin:round;stroke-width:1.4421099424362183px"></path><path d="M320,204.67a1.32,1.32,0,1,0-1.32-1.32A1.32,1.32,0,0,0,320,204.67Z" transform="translate(-64.64 -93.55)" style="fill:#293b4a"></path><path d="M339.8,225c-4.21-1-7.67-6.19-7.76-9.74a7.19,7.19,0,0,1,1.49-3" transform="translate(-64.64 -93.55)" style="fill:none;stroke:#293b4a;stroke-linecap:round;stroke-miterlimit:10;stroke-width:1.4421099424362183px"></path><path d="M322.47,209.54c.5,1.15-2,4.45-5,2.22" transform="translate(-64.64 -93.55)" style="fill:none;stroke:#293b4a;stroke-linecap:round;stroke-linejoin:round;stroke-width:1.4421099424362183px"></path><path d="M315.21,196.25h0c-.33,1.41-.57,2.64-.9,3.72a12.31,12.31,0,0,1-3.63,5.94c-2.23,1.81,4.29,2.31,4.29,2.31l-.42,6.84s2.56.17,5.86.42a1.38,1.38,0,0,1,1.24,1.81,48.65,48.65,0,0,1-4.46,9.33" transform="translate(-64.64 -93.55)" style="fill:none;stroke:#293b4a;stroke-linecap:round;stroke-miterlimit:10;stroke-width:1.4421099424362183px"></path><path d="M366.28,204.5a.87.87,0,0,1-.74.58,61.84,61.84,0,0,1-19.88-3.38,38.22,38.22,0,0,0,14.27,5.11.29.29,0,0,1,.25.09,1.35,1.35,0,0,1,1,1.48,1.49,1.49,0,0,1-1.24,1.32,37.18,37.18,0,0,1-15.51-2,18.26,18.26,0,0,0,7.18,2.39h.16c.5.17.75.75.66,1.49a1.44,1.44,0,0,1-1,1.32,25.64,25.64,0,0,1-14-1.24A47.49,47.49,0,0,0,348.05,216a.53.53,0,0,1,.41.74s0,.09-.08.09a.84.84,0,0,1-.58.33c-7.09-.75-13.45-4.38-16.83-6.27a2.32,2.32,0,0,1-1.15-2.15c.08-1.07.24-2.47.41-4.29.33-3.79-2.89-.08-2.89-.08a19.86,19.86,0,0,0,0-6.27,2.71,2.71,0,0,0-2.14-2.31,19.52,19.52,0,0,0-10,.58,6.7,6.7,0,0,1,3.22-9.16,5.85,5.85,0,0,1,2.39-.41h5.12c5.86.41,16.25,4.78,29,8.74a1,1,0,0,1-.17,2c-2.22.33-5.69.25-10.56-1.24,4.13,2.15,12,6.19,21.29,7.35A.75.75,0,0,1,366.28,204.5Z" transform="translate(-64.64 -93.55)" style="fill:#293b4a;stroke:#293b4a;stroke-linecap:round;stroke-miterlimit:10;stroke-width:1.4421099424362183px"></path><path d="M214.89,254.75a14,14,0,0,1,3.63,2.31c55.44,47.69,68.72,50.82,89.1,7.43" transform="translate(-64.64 -93.55)" style="fill:none;stroke:#293b4a;stroke-linejoin:round;stroke-width:1.4421099424362183px"></path><path d="M215.88,241.71c-1.57-1.65-2.73-2.72-3.63-2.31-2.4,1.24-6.52,5-6.6,8.34a4.42,4.42,0,0,0,2,3,24.38,24.38,0,0,0,3.54,2.31l.5.25" transform="translate(-64.64 -93.55)" style="fill:none;stroke:#293b4a;stroke-linejoin:round;stroke-width:1.4421099424362183px"></path><path d="M209.28,247a10.66,10.66,0,0,0,2,2c.82.58,3,.75,3.54,0l2-2.06a2.36,2.36,0,0,0,.58-2.39,8.26,8.26,0,0,0-1.57-2.89c2.64-1.15,6.27,1.82,5,5.45,0,0-1.81,2.22,1.24,4.37,0,0,42.9,13.53,59.41,23.93" transform="translate(-64.64 -93.55)" style="fill:none;stroke:#293b4a;stroke-linejoin:round;stroke-width:1.4421099424362183px"></path><path d="M199.38,485.52H314.64" transform="translate(-64.64 -93.55)" style="fill:none;stroke:#293b4a;stroke-linejoin:round;stroke-width:1.4421099424362183px"></path><path d="M262.16,421.58h46.7" transform="translate(-64.64 -93.55)" style="fill:none;stroke:#293b4a;stroke-linejoin:round;stroke-width:1.4421099424362183px"></path><path d="M269.67,412.58h14.52" transform="translate(-64.64 -93.55)" style="fill:none;stroke:#293b4a;stroke-linejoin:round;stroke-width:1.4421099424362183px"></path><path d="M355.15,300.38c-1.24.82-1.9,2.39-1.57,3.21.91,2.31,3.3,6.19,6.27,6.52a4.12,4.12,0,0,0,3-1.57,14.07,14.07,0,0,0,2.31-3.05l.25-.41a4.78,4.78,0,0,0,.33-.58,19.91,19.91,0,0,1,7.83-7.18" transform="translate(-64.64 -93.55)" style="fill:none;stroke:#293b4a;stroke-linejoin:round;stroke-width:1.4421099424362183px"></path><path d="M357.87,299.14a6.84,6.84,0,0,0-2.72,1.24c-.83-2.48,2.14-5.53,5.28-4.05,0,0,2,1.82,4-.74,0,0,28.88-32.84,47.77-36.38" transform="translate(-64.64 -93.55)" style="fill:none;stroke:#293b4a;stroke-linejoin:round;stroke-width:1.4421099424362183px"></path><path d="M370.33,300.46a3.47,3.47,0,1,0-3.47-3.47A3.46,3.46,0,0,0,370.33,300.46Z" transform="translate(-64.64 -93.55)" style="fill:none;stroke:#293b4a;stroke-linejoin:round;stroke-width:1.4421099424362183px"></path><path d="M366.86,297l-1.9-2.06" transform="translate(-64.64 -93.55)" style="fill:none;stroke:#293b4a;stroke-linejoin:round;stroke-width:1.4421099424362183px"></path><path d="M370.33,293.53l-2.81-2.15" transform="translate(-64.64 -93.55)" style="fill:none;stroke:#293b4a;stroke-linejoin:round;stroke-width:1.4421099424362183px"></path><path d="M381.8,287.92h46.61" transform="translate(-64.64 -93.55)" style="fill:none;stroke:#293b4a;stroke-linejoin:round;stroke-width:1.4421099424362183px"></path><path d="M393.1,283.38h21" transform="translate(-64.64 -93.55)" style="fill:none;stroke:#293b4a;stroke-linejoin:round;stroke-width:1.4421099424362183px"></path><path d="M405,283.38c51.9-24.42,61-42.66-54-56.68a6.7,6.7,0,0,0-4-.17,7.45,7.45,0,0,0-5.53,8.17c2.06,13.53,27.06,20.13,63.61,27.15" transform="translate(-64.64 -93.55)" style="fill:none;stroke:#293b4a;stroke-linejoin:round;stroke-width:1.4421099424362183px"></path><path d="M373.63,297c7.51-3.05,14.52-6.1,21.12-9" transform="translate(-64.64 -93.55)" style="fill:none;stroke:#293b4a;stroke-linejoin:round;stroke-width:1.4421099424362183px"></path><path d="M451.1,218.78a8.88,8.88,0,0,1-1.65,4.54,14.72,14.72,0,0,0-1.73,3.46.68.68,0,0,0,.66.91h2.14v7.51h6.11a9.79,9.79,0,0,1-6.19,9.24s5.36,3.3,11.47,12.7l5.94-14.27a18.87,18.87,0,0,1,14.27,3.38" transform="translate(-64.64 -93.55)" style="fill:none;stroke:#293b4a;stroke-miterlimit:10;stroke-width:1.4421099424362183px"></path><path d="M450.85,219.19s6.44-1.57,7.1,1.65-.91,11.06,1.15,7.51,4.38-5.12,5-2.89c0,0-1.9,6.77,1.07,7.26,0,0,5-5.53,7.26-8.74,4-5.78,1.57-21.62-11.22-19.64,1,1.65,4.78,3.38,5.44,3.38a10.39,10.39,0,0,1-6.84-3.13c-1.82-1.57-3.22-3.39-4.29-4.29a9.58,9.58,0,0,0-5-2.4C435.09,195.35,446.15,217.38,450.85,219.19Z" transform="translate(-64.64 -93.55)" style="fill:#293b4a;fill-rule:evenodd"></path><path d="M453.82,224.31a1,1,0,1,0-1-1A1,1,0,0,0,453.82,224.31Z" transform="translate(-64.64 -93.55)" style="fill:#293b4a"></path><path d="M477.42,273.4a8.85,8.85,0,0,1-1.65,4.53c-.41.66-.74,1.24-1.07,1.82a1.81,1.81,0,0,0,1.65,2.56h.57v7.5H483c0,10.24-17.41,15.68-17.41,15.68s.66,9.16,16.75,9.16" transform="translate(-64.64 -93.55)" style="fill:none;stroke:#293b4a;stroke-miterlimit:10;stroke-width:1.4421099424362183px"></path><path d="M480.14,278.92a1,1,0,1,0-1-1A1,1,0,0,0,480.14,278.92Z" transform="translate(-64.64 -93.55)" style="fill:#293b4a"></path><path d="M496.64,306.56c-7.51-6.18-4.78-21.86-4.78-21.86" transform="translate(-64.64 -93.55)" style="fill:none;stroke:#293b4a;stroke-miterlimit:10;stroke-width:1.4421099424362183px"></path><path d="M483.94,273.07c5.1,0,9.24-2.66,9.24-5.94s-4.14-5.94-9.24-5.94-9.24,2.66-9.24,5.94S478.83,273.07,483.94,273.07Z" transform="translate(-64.64 -93.55)" style="fill:#293b4a"></path><path d="M492.69,277.41c1.38-1.38.75-4.26-1.4-6.42s-5-2.78-6.42-1.4-.76,4.26,1.4,6.42S491.3,278.8,492.69,277.41Z" transform="translate(-64.64 -93.55)" style="fill:#293b4a"></path><path d="M495.67,280c2.16-2.16,2.79-5,1.4-6.42s-4.26-.76-6.41,1.4-2.79,5-1.41,6.42S493.51,282.11,495.67,280Z" transform="translate(-64.64 -93.55)" style="fill:#293b4a"></path><path d="M497.42,283.4c2.16-2.16,2.79-5,1.4-6.41s-4.26-.76-6.42,1.4-2.78,5-1.4,6.41S495.26,285.56,497.42,283.4Z" transform="translate(-64.64 -93.55)" style="fill:#293b4a"></path><path d="M495.32,290.06c2,0,3.55-2.47,3.55-5.53s-1.59-5.52-3.55-5.52-3.54,2.47-3.54,5.52S493.36,290.06,495.32,290.06Z" transform="translate(-64.64 -93.55)" style="fill:#293b4a"></path><path d="M484.43,273.73c2,0,3.55-2.48,3.55-5.53s-1.59-5.53-3.55-5.53-3.55,2.48-3.55,5.53S482.47,273.73,484.43,273.73Z" transform="translate(-64.64 -93.55)" style="fill:#293b4a"></path><path d="M476,274.47c2,0,3.54-2.48,3.54-5.53s-1.58-5.53-3.54-5.53-3.55,2.48-3.55,5.53S474.06,274.47,476,274.47Z" transform="translate(-64.64 -93.55)" style="fill:#293b4a"></path><path d="M476.77,266.19c2.42-1.86,3.41-4.63,2.22-6.18s-4.13-1.31-6.55.56-3.41,4.62-2.22,6.18S474.35,268.05,476.77,266.19Z" transform="translate(-64.64 -93.55)" style="fill:#293b4a"></path><path d="M482.94,264c2.42-1.86,3.41-4.63,2.22-6.18s-4.13-1.31-6.55.56-3.41,4.62-2.22,6.18S480.52,265.82,482.94,264Z" transform="translate(-64.64 -93.55)" style="fill:#293b4a"></path><path d="M489,263.93c2.42-1.86,3.42-4.63,2.22-6.18s-4.12-1.3-6.54.56-3.42,4.63-2.22,6.18S486.53,265.79,489,263.93Z" transform="translate(-64.64 -93.55)" style="fill:#293b4a"></path><path d="M496.55,269.37c2.42-1.87,3.41-4.63,2.22-6.19s-4.12-1.3-6.54.56-3.42,4.63-2.22,6.18S494.13,271.23,496.55,269.37Z" transform="translate(-64.64 -93.55)" style="fill:#293b4a"></path><path d="M503.16,285.42c2.42-1.86,3.41-4.63,2.22-6.18s-4.13-1.31-6.55.55-3.41,4.63-2.21,6.19S500.74,287.28,503.16,285.42Z" transform="translate(-64.64 -93.55)" style="fill:#293b4a"></path><path d="M500.11,280.08c3.05,0,5.53-2.11,5.53-4.7s-2.48-4.71-5.53-4.71-5.53,2.11-5.53,4.71S497.06,280.08,500.11,280.08Z" transform="translate(-64.64 -93.55)" style="fill:#293b4a"></path><path d="M503.16,273.48a3.55,3.55,0,1,0-3.55-3.55A3.55,3.55,0,0,0,503.16,273.48Z" transform="translate(-64.64 -93.55)" style="fill:#293b4a"></path><path d="M498,273.59c2.92-2.25,4.12-5.59,2.68-7.47s-5-1.58-7.92.67-4.12,5.6-2.68,7.48S495,275.84,498,273.59Z" transform="translate(-64.64 -93.55)" style="fill:#293b4a"></path><path d="M500.11,269.77a5.53,5.53,0,1,0-5.53-5.53A5.54,5.54,0,0,0,500.11,269.77Z" transform="translate(-64.64 -93.55)" style="fill:#293b4a"></path><path d="M493.87,263.13c2.42-1.87,3.42-4.63,2.22-6.19s-4.12-1.3-6.54.56-3.42,4.63-2.22,6.18S491.45,265,493.87,263.13Z" transform="translate(-64.64 -93.55)" style="fill:#293b4a"></path><path d="M496.54,258.9a5,5,0,1,0-6.68,2.12A5,5,0,0,0,496.54,258.9Z" transform="translate(-64.64 -93.55)" style="fill:#293b4a"></path><path d="M498.32,263.1c2.42-1.87,3.41-4.63,2.22-6.19s-4.13-1.3-6.55.56-3.41,4.63-2.22,6.18S495.9,265,498.32,263.1Z" transform="translate(-64.64 -93.55)" style="fill:#293b4a"></path><path d="M487.18,261.48c2.42-1.86,3.41-4.63,2.22-6.18s-4.13-1.3-6.55.56-3.41,4.63-2.21,6.18S484.76,263.34,487.18,261.48Z" transform="translate(-64.64 -93.55)" style="fill:#293b4a"></path><path d="M481.8,261.12c2.42-1.86,3.05-5.1,1.42-7.23s-4.93-2.35-7.35-.49-3.06,5.1-1.42,7.23S479.38,263,481.8,261.12Z" transform="translate(-64.64 -93.55)" style="fill:#293b4a"></path><path d="M487.66,256.75c1.84-1.42,2.37-3.82,1.17-5.38s-3.65-1.66-5.5-.24S481,255,482.16,256.5,485.82,258.17,487.66,256.75Z" transform="translate(-64.64 -93.55)" style="fill:#293b4a"></path><path d="M263.65,222a1,1,0,0,0,0-2,1,1,0,1,0,0,2Z" transform="translate(-64.64 -93.55)" style="fill:#293b4a"></path><path d="M259.19,253.76A11.86,11.86,0,0,0,267,242.13a9.79,9.79,0,0,1-6.19-9.24h6.1v-7.51h.58a1.81,1.81,0,0,0,1.65-2.56A9.75,9.75,0,0,0,268,221a8.88,8.88,0,0,1-1.65-4.54,30,30,0,0,0-1.49-4.87c-2.31-5.69-12-7.51-16.66-2.31-9.16,10.15,3.55,20.87,3.55,20.87s.57,9.82-7.1,11.14" transform="translate(-64.64 -93.55)" style="fill:none;stroke:#293b4a;stroke-miterlimit:10;stroke-width:1.4421099424362183px"></path><path d="M256.22,224.22c-1.81,2.23-2.8-.74-2.72-2.14,0-1-.41-4.79,2.72-2.15l.5-.33a2.51,2.51,0,0,0,1.07-2.64c-1.07-4,1.07-4.12,2.56-3.79a5.52,5.52,0,0,0,3.79-.58c.58-.33.91-.66.91-1.07" transform="translate(-64.64 -93.55)" style="fill:none;stroke:#293b4a;stroke-miterlimit:10;stroke-width:1.4421099424362183px"></path><path d="M251.52,229.92c-.25-2.4.25-4.38,3-4.87" transform="translate(-64.64 -93.55)" style="fill:none;stroke:#293b4a;stroke-miterlimit:10;stroke-width:1.4421099424362183px"></path><path d="M555.22,244.6a.83.83,0,1,0-.82-.82A.83.83,0,0,0,555.22,244.6Z" transform="translate(-64.64 -93.55)" style="fill:#293b4a"></path><path d="M563.31,263.91a30.12,30.12,0,0,1-.83-7.76,14.63,14.63,0,0,0,0-2.88s-7.26-2.81-1.57-9.41c4.21-4.79-9.24-4.87-9.24-4.87-7.5-3.3-9.81-21.53,7.92-22.69,11.89-.74,13.78,17.08,13.78,17.08C613.88,271.09,563.31,263.91,563.31,263.91Z" transform="translate(-64.64 -93.55)" style="fill:none;stroke:#293b4a;stroke-miterlimit:10;stroke-width:1.4421099424362183px"></path><path d="M552.17,237.84c-.33,2.39-3,8.08-3.88,9.48a.37.37,0,0,0,.33.58h1.32c-1.65,9.16,1.07,7.18,4,7.51,1.82,5.69,1.82,8.58.33,11a19.54,19.54,0,0,1-3.79,3.06" transform="translate(-64.64 -93.55)" style="fill:none;stroke:#293b4a;stroke-linejoin:round;stroke-width:1.4421099424362183px"></path><path d="M114.06,240a1,1,0,1,0-1-1A1,1,0,0,0,114.06,240Z" transform="translate(-64.64 -93.55)" style="fill:#293b4a"></path><path d="M103.92,264.65c.66-2.14,2.55-9.07,1-13.2" transform="translate(-64.64 -93.55)" style="fill:none;stroke:#293b4a;stroke-miterlimit:10;stroke-width:1.4421099424362183px"></path><path d="M113.07,300.13c-4.78-12.3-20.79-8.58-20.79-8.58-1-7.1,8.09-22.36,8.09-22.36s4.62,1.9,7.92,3.13c0,0,10.89,3.55,16.5,8,6.6,5.28-9.41-14.28-9.41-14.28-1.81-2.88-1.81-6.35.33-13.11,3.39-.42,6.69,2,4.71-9H122a.4.4,0,0,0,.33-.66c-1-1.65-4.29-8.5-4.62-11.38" transform="translate(-64.64 -93.55)" style="fill:none;stroke:#293b4a;stroke-linejoin:round;stroke-width:1.4421099424362183px"></path><path d="M113.4,245.59c1,2.15,3.55,2.06,4.79,1.32" transform="translate(-64.64 -93.55)" style="fill:none;stroke:#293b4a;stroke-linejoin:round;stroke-width:1.4421099424362183px"></path><path d="M117.78,231.81c-9.08-4-8.83,7.18-8.83,7.18s-5.53-1.24-2.72,3.88c0,0-1.08,6,.41,8.58,0,0-16.34,1.65-11.39-18.81,3.22-12.95,20.55-14.27,22.94-6.11C119.59,231.4,117.78,231.81,117.78,231.81Z" transform="translate(-64.64 -93.55)" style="fill:#293b4a;stroke:#293b4a;stroke-linejoin:round;stroke-width:1.4421099424362183px"></path><path d="M101.77,222.9c11.55-23.18-10.15-19.63-20-.49s17,3.71,17,3.71Z" transform="translate(-64.64 -93.55)" style="fill:#293b4a;stroke:#293b4a;stroke-linejoin:round;stroke-width:1.4421099424362183px"></path><path d="M93.93,228.68a19.2,19.2,0,0,1,10-10.31c3.21,2.22,3,3,3,3s-8.25,4.21-10.56,8.33Z" transform="translate(-64.64 -93.55)" style="fill:#19ad4a;stroke:#293b4a;stroke-linejoin:round;stroke-width:1.4421099424362183px"></path><path d="M178.46,207.15c.23-2.13-2.26-4.15-5.57-4.51s-6.18,1.08-6.41,3.21,2.27,4.14,5.57,4.5S178.23,209.28,178.46,207.15Z" transform="translate(-64.64 -93.55)" style="fill:#293b4a"></path><path d="M168.5,212.66c.23-2.13-2.26-4.14-5.57-4.5s-6.17,1.07-6.41,3.2,2.27,4.15,5.57,4.51S168.27,214.79,168.5,212.66Z" transform="translate(-64.64 -93.55)" style="fill:#293b4a"></path><path d="M158.85,216c1.67-1.34,1.34-4.53-.75-7.12s-5.13-3.61-6.79-2.27-1.34,4.53.75,7.13S157.19,217.29,158.85,216Z" transform="translate(-64.64 -93.55)" style="fill:#293b4a"></path><path d="M157.53,209a4,4,0,1,0-5.44-.71A3.88,3.88,0,0,0,157.53,209Z" transform="translate(-64.64 -93.55)" style="fill:#293b4a"></path><path d="M163,209.55a5.53,5.53,0,1,0-7.58-1A5.4,5.4,0,0,0,163,209.55Z" transform="translate(-64.64 -93.55)" style="fill:#293b4a"></path><path d="M172.22,208.52a6,6,0,1,0-8.21-1.13A5.87,5.87,0,0,0,172.22,208.52Z" transform="translate(-64.64 -93.55)" style="fill:#293b4a"></path><path d="M172,211.62c1.45-1.58.63-4.68-1.82-6.93s-5.61-2.79-7.06-1.22-.63,4.68,1.82,6.93S170.51,213.19,172,211.62Z" transform="translate(-64.64 -93.55)" style="fill:#293b4a"></path><path d="M174.64,207.15c2.76-1.85,4-4.79,2.85-6.57s-4.4-1.73-7.16.12-4,4.8-2.85,6.58S171.87,209,174.64,207.15Z" transform="translate(-64.64 -93.55)" style="fill:#293b4a"></path><path d="M155.93,214.2c1.89-1.27,2.77-3.28,2-4.49s-3-1.17-4.9.1-2.77,3.28-2,4.49S154,215.46,155.93,214.2Z" transform="translate(-64.64 -93.55)" style="fill:#293b4a"></path><path d="M157.28,219c1.9-1.27,2.78-3.28,2-4.49s-3-1.17-4.89.1-2.77,3.27-2,4.49S155.39,220.26,157.28,219Z" transform="translate(-64.64 -93.55)" style="fill:#293b4a"></path><path d="M155.15,217.28c1.9-1.27,2.77-3.28,2-4.49s-3-1.17-4.89.1-2.78,3.28-2,4.49S153.26,218.55,155.15,217.28Z" transform="translate(-64.64 -93.55)" style="fill:#293b4a"></path><path d="M153.73,213.74c1.89-1.27,2.77-3.28,2-4.49s-3-1.17-4.9.1-2.77,3.28-2,4.49S151.83,215,153.73,213.74Z" transform="translate(-64.64 -93.55)" style="fill:#293b4a"></path><path d="M165.7,209.42c2-.81,2.56-4,1.3-7s-3.89-4.92-5.87-4.1-2.57,4-1.31,7S163.72,210.23,165.7,209.42Z" transform="translate(-64.64 -93.55)" style="fill:#293b4a"></path><path d="M174.71,221.67a1.08,1.08,0,1,0-1.08-1.08A1.07,1.07,0,0,0,174.71,221.67Z" transform="translate(-64.64 -93.55)" style="fill:#293b4a"></path><path d="M178.25,243.45a10.56,10.56,0,0,1-6.68-10h6.6v-8.08h.58a1.94,1.94,0,0,0,1.73-2.81,12.65,12.65,0,0,0-1.15-2,10.62,10.62,0,0,1-1.82-5,30.5,30.5,0,0,0-1.57-5.28c-2.47-6.19-12.95-8.08-18-2.47-9.9,11,3.79,22.6,3.79,22.6s.58,10.56-7.59,12c0,0,2.64,11.38,13.2,10.81C178.09,252.69,178.25,243.45,178.25,243.45Z" transform="translate(-64.64 -93.55)" style="fill:none;stroke:#293b4a;stroke-miterlimit:10;stroke-width:1.4421099424362183px"></path><path d="M161.09,228.76s.91-3.3,3-4.12c0,0-5-4.54,0-12.13s-9,2.31-9,2.31S152.51,222,161.09,228.76Z" transform="translate(-64.64 -93.55)" style="fill:#293b4a"></path><path d="M166.46,220.43c-3.55-3.47-5-1.4-4.38.91s-4.62-.66-4.62-.66l.75-6.85,5.11-3,5.45,7.09C168.68,219.85,167.94,220.84,166.46,220.43Z" transform="translate(-64.64 -93.55)" style="fill:#293b4a"></path><path d="M170.5,228.1s.91,2.06,4,1.07" transform="translate(-64.64 -93.55)" style="fill:none;stroke:#293b4a;stroke-miterlimit:10;stroke-width:1.4421099424362183px"></path><path d="M501.43,237.92a.4.4,0,0,1,.58.33c-.09,1.57-.09,5.53,1.81,5.69,11.88.91,8.83-13.61,15.18-15.26" transform="translate(-64.64 -93.55)" style="fill:none;stroke:#293b4a;stroke-miterlimit:10;stroke-width:1.4421099424362183px"></path><path d="M517.52,229.42c-.09,0-.09-.08,0,0" transform="translate(-64.64 -93.55)" style="fill:none;stroke:#293b4a;stroke-linecap:round;stroke-miterlimit:10;stroke-width:1.4421099424362183px"></path><path d="M517.19,207.8c-.09-.16-.25-.24-.33-.33a2,2,0,0,0-.42-.24c-.08-.09-.16-.09-.24-.17a4.49,4.49,0,0,1-.66-.33c-.33-.16-.66-.25-.91-.41l-.66-.25a16,16,0,0,0-3.88-.74,1.06,1.06,0,0,1-.49-.08h-1.49" transform="translate(-64.64 -93.55)" style="fill:none;stroke:#293b4a;stroke-linecap:round;stroke-miterlimit:10;stroke-width:1.4421099424362183px"></path><path d="M517.76,221.83a1.06,1.06,0,0,1-.08-.49" transform="translate(-64.64 -93.55)" style="fill:none;stroke:#293b4a;stroke-linecap:round;stroke-miterlimit:10;stroke-width:1.4421099424362183px"></path><path d="M517.43,198.65a14.37,14.37,0,0,0-1.81-.42c-.25-.08-.58-.08-.83-.16-.82-.08-1.73-.17-2.55-.17a5.44,5.44,0,0,0-1.65.33,4.05,4.05,0,0,0-.83.42c-.25.16-.41.33-.66.49l-.41.41a4.69,4.69,0,0,0-1,3.8l.33,1.9c-2.48,4.29-4.29,6.93-6.85,7.92s3.05,2.72,3.05,2.72l-1.48,4.79a2.1,2.1,0,0,0,1.15,2.72c.91.33,1.9.08,3.14.49" transform="translate(-64.64 -93.55)" style="fill:none;stroke:#293b4a;stroke-linecap:round;stroke-miterlimit:10;stroke-width:1.4421099424362183px"></path><path d="M508.11,205.33h1.49a1.06,1.06,0,0,1,.49.08,21.06,21.06,0,0,1,3.88.74l.66.25a3.16,3.16,0,0,1,.91.41,3.11,3.11,0,0,0,.57.25c.09,0,.09,0,.17.08s.16.09.25.17.24.16.41.25.25.16.33.33a27,27,0,0,1,.91-5,3.18,3.18,0,0,0,0-1.73,20.44,20.44,0,0,1-.66-2.47c-.58-.17-1.24-.33-1.82-.5-.25-.08-.58-.08-.82-.16a13.83,13.83,0,0,0-2.64-.17,3.83,3.83,0,0,0-1.65.41,4.05,4.05,0,0,0-.83.42c-.25.16-.41.33-.66.49l-.41.41a5.07,5.07,0,0,0-1,3.63Z" transform="translate(-64.64 -93.55)" style="fill:#293b4a"></path><path d="M532.7,295.59s-5-31.27,3.63-57.18c1.57-4.86,1.24-10.31,0-17.24" transform="translate(-64.64 -93.55)" style="fill:none;stroke:#293b4a;stroke-miterlimit:10;stroke-width:1.4421099424362183px"></path><path d="M507.12,224.06s2,8.5-1.81,12.29" transform="translate(-64.64 -93.55)" style="fill:none;stroke:#293b4a;stroke-linecap:round;stroke-miterlimit:10;stroke-width:1.4421099424362183px"></path><path d="M505.88,219.11c3.55,1.81,4.29-.91,4.29-.91" transform="translate(-64.64 -93.55)" style="fill:none;stroke:#293b4a;stroke-miterlimit:10;stroke-width:1.4421099424362183px"></path><path d="M510.09,213.41a1.4,1.4,0,1,0-1.4-1.4A1.39,1.39,0,0,0,510.09,213.41Z" transform="translate(-64.64 -93.55)" style="fill:#293b4a"></path><path d="M517.43,198.65a25.15,25.15,0,0,0,.66,2.47,3,3,0,0,1,0,1.73,25,25,0,0,0-.9,5,55.5,55.5,0,0,0-.09,8.41c.09,1.57.25,3.3.5,5.12,0,.16.08.33.08.49.08.75.25,1.57.41,2.4l.09.08c5.77,3.88,12,4.62,18.64,1.48A99.08,99.08,0,0,0,535,214.32c-.25-1.15-.5-2.39-.74-3.46-1-4.62-1.82-9.24-2.4-14-.16-1.4-.41-3-.82-4.95v-.08c-1.65-8.66-13.45-35.64-19.39-47.19a16.5,16.5,0,0,1-1.65-5.53l-.08-.5A18.73,18.73,0,0,0,509,135a3.55,3.55,0,0,0-2.06-2.47c-2.81-.83-7.1,1.57-8.83,3.3-.66.66,0,1.9.91,3.63-1.65,1.9-1.32,5.61,3.21,5.61,0,0,2.48-.25,3.47,2.81,1.15,5.61,5.77,23.84,7,29.45v.08C515.12,188.17,516.53,195,517.43,198.65Z" transform="translate(-64.64 -93.55)" style="fill:none;stroke:#293b4a;stroke-linejoin:round;stroke-width:1.4421099424362183px"></path><path d="M518,223.65l1.49,8.74" transform="translate(-64.64 -93.55)" style="fill:none;stroke:#293b4a;stroke-miterlimit:10;stroke-width:1.4421099424362183px"></path><path d="M482.86,263.74s.75-22.19,18.57-25.82" transform="translate(-64.64 -93.55)" style="fill:none;stroke:#293b4a;stroke-miterlimit:10;stroke-width:1.4421099424362183px"></path><path d="M144.18,313.91h46.7" transform="translate(-64.64 -93.55)" style="fill:none;stroke:#293b4a;stroke-linejoin:round;stroke-width:1.4421099424362183px"></path><path d="M151.69,306.56h14.52" transform="translate(-64.64 -93.55)" style="fill:none;stroke:#293b4a;stroke-linejoin:round;stroke-width:1.4421099424362183px"></path><path d="M531.05,295.43h46.7" transform="translate(-64.64 -93.55)" style="fill:none;stroke:#293b4a;stroke-linejoin:round;stroke-width:1.4421099424362183px"></path><path d="M538.56,288h14.52" transform="translate(-64.64 -93.55)" style="fill:none;stroke:#293b4a;stroke-linejoin:round;stroke-width:1.4421099424362183px"></path><path d="M482.29,314.73H529" transform="translate(-64.64 -93.55)" style="fill:none;stroke:#293b4a;stroke-linejoin:round;stroke-width:1.4421099424362183px"></path><path d="M489.79,322.57h14.53" transform="translate(-64.64 -93.55)" style="fill:none;stroke:#293b4a;stroke-linejoin:round;stroke-width:1.4421099424362183px"></path><path d="M131,272.74s.58-25.33,16.17-28.22" transform="translate(-64.64 -93.55)" style="fill:none;stroke:#293b4a;stroke-miterlimit:10;stroke-width:1.4421099424362183px"></path><path d="M176.69,142.05s-.58-3.8-.91-8.42-2.31-8.41-3.3-4a63.35,63.35,0,0,0,0,14s0,5.11-4,4.62c-8.09-.91-4.95,4.12.49,3.63s5.2,3.22,6.85,6.6c0,0,10.56,28,20.54,37.7,0,0-13.2,39.19-13.53,45.38,0,0,7.67,7.43,10.56,13.7a.91.91,0,0,0,1.73-.25c2.23-12.46,9.74-53.79,10.57-63.53,0,0-18.82-32.34-24.92-38" transform="translate(-64.64 -93.55)" style="fill:none;stroke:#293b4a;stroke-miterlimit:10;stroke-width:1.4421099424362183px"></path><path d="M175.86,146.09a5.78,5.78,0,0,0,2.64,3.14c3.88,2.22,6.77,3.05,6.93-1.08.17-4.7-5.61-6.27-8.66-6.1C174.87,142.13,175.28,144.36,175.86,146.09Z" transform="translate(-64.64 -93.55)" style="fill:none;stroke:#293b4a;stroke-miterlimit:10;stroke-width:1.4421099424362183px"></path><path d="M182.63,150.46a6.27,6.27,0,0,1-4,4.46" transform="translate(-64.64 -93.55)" style="fill:none;stroke:#293b4a;stroke-miterlimit:10;stroke-width:1.4421099424362183px"></path><path d="M364,126.87,363,134l8.75,6.27L382,136.68l.58-4.45" transform="translate(-64.64 -93.55)" style="fill:none;stroke:#293b4a;stroke-miterlimit:10;stroke-width:1.4421099424362183px"></path><path d="M363,134l-1,7.1" transform="translate(-64.64 -93.55)" style="fill:none;stroke:#293b4a;stroke-miterlimit:10;stroke-width:1.4421099424362183px"></path><path d="M372.8,133.14l-12.7-9.08L374.78,119,387.49,128Z" transform="translate(-64.64 -93.55)" style="fill:none;stroke:#293b4a;stroke-miterlimit:10;stroke-width:1.4421099424362183px"></path><path d="M406.05,94.69a47.8,47.8,0,0,1,10.4,57" transform="translate(-64.64 -93.55)" style="fill:none;stroke:#293b4a;stroke-miterlimit:10;stroke-width:1.4421099424362183px"></path><path d="M328.83,113.75A48.26,48.26,0,0,0,326,130a47.67,47.67,0,0,0,19.72,38.7" transform="translate(-64.64 -93.55)" style="fill:none;stroke:#293b4a;stroke-miterlimit:10;stroke-width:1.4421099424362183px"></path><path d="M282.46,126.54a68.63,68.63,0,0,0-1,11.71,70.6,70.6,0,0,0,15.34,44.14" transform="translate(-64.64 -93.55)" style="fill:none;stroke:#293b4a;stroke-miterlimit:10;stroke-width:1.4421099424362183px"></path><path d="M184.61,259.21s2.39,25.16,3.21,47.35" transform="translate(-64.64 -93.55)" style="fill:none;stroke:#293b4a;stroke-miterlimit:10;stroke-width:1.4421099424362183px"></path><path d="M83.29,328.1c-7.84-4.13.17-12.05,0-23.85S73.14,284.2,72,276.86s12.54-18.81,25.16-12.21" transform="translate(-64.64 -93.55)" style="fill:none;stroke:#293b4a;stroke-linejoin:round;stroke-width:1.4421099424362183px"></path><path d="M92.28,291.55s-1.65,22.19,9.49,41.58" transform="translate(-64.64 -93.55)" style="fill:none;stroke:#293b4a;stroke-linejoin:round;stroke-width:1.4421099424362183px"></path><path d="M110.85,329.17s-.66-25.82-3.14-35.56" transform="translate(-64.64 -93.55)" style="fill:none;stroke:#293b4a;stroke-linejoin:round;stroke-width:1.4421099424362183px"></path><path d="M136.26,341.13H263.65" transform="translate(-64.64 -93.55)" style="fill:none;stroke:#293b4a;stroke-linejoin:round;stroke-width:1.4421099424362183px"></path><path d="M64.64,341.13H88.57" transform="translate(-64.64 -93.55)" style="fill:none;stroke:#293b4a;stroke-linejoin:round;stroke-width:1.4421099424362183px"></path><path d="M370.49,341.13H531.3" transform="translate(-64.64 -93.55)" style="fill:none;stroke:#293b4a;stroke-linejoin:round;stroke-width:1.4421099424362183px"></path><path d="M370.49,315.06h82" transform="translate(-64.64 -93.55)" style="fill:none;stroke:#293b4a;stroke-linejoin:round;stroke-width:1.4421099424362183px"></path><path d="M218.6,315.06h57" transform="translate(-64.64 -93.55)" style="fill:none;stroke:#293b4a;stroke-linejoin:round;stroke-width:1.4421099424362183px"></path><path d="M96.33,341.13h32.34" transform="translate(-64.64 -93.55)" style="fill:none;stroke:#293b4a;stroke-linejoin:round;stroke-width:1.4421099424362183px"></path><path d="M539.88,341.13h32.34" transform="translate(-64.64 -93.55)" style="fill:none;stroke:#293b4a;stroke-linejoin:round;stroke-width:1.4421099424362183px"></path><path d="M563.89,284.7s15.92.49,17.24-3.8c0,0,1.4-7.17-8.58-15.92" transform="translate(-64.64 -93.55)" style="fill:none;stroke:#293b4a;stroke-miterlimit:10;stroke-width:1.4421099424362183px"></path><path d="M270.91,243.12s13.28,3.38,17.08,12.7" transform="translate(-64.64 -93.55)" style="fill:none;stroke:#293b4a;stroke-miterlimit:10;stroke-width:1.4421099424362183px"></path><path d="M417.68,231.24c2.15-6.11,2.89-23.44,2.89-23.44s6.11-7.5,3-11.55c-4-5.19-6.27-2.64-7.67,3.22,0,0-7.1,24.84-6.19,30" transform="translate(-64.64 -93.55)" style="fill:none;stroke:#293b4a;stroke-miterlimit:10;stroke-width:1.4421099424362183px"></path><path d="M411.5,194.85a9.51,9.51,0,0,1,3.71,7.1" transform="translate(-64.64 -93.55)" style="fill:none;stroke:#293b4a;stroke-miterlimit:10;stroke-width:1.4421099424362183px"></path><path d="M98,431.06V350" transform="translate(-64.64 -93.55)" style="fill:none;stroke:#293b4a;stroke-miterlimit:10;stroke-width:1.4421099424362183px"></path><path d="M102.6,431.06V350" transform="translate(-64.64 -93.55)" style="fill:none;stroke:#293b4a;stroke-miterlimit:10;stroke-width:1.4421099424362183px"></path><path d="M372.47,431.06V390.88" transform="translate(-64.64 -93.55)" style="fill:none;stroke:#293b4a;stroke-miterlimit:10;stroke-width:1.4421099424362183px"></path><path d="M377.09,431.06V390.88" transform="translate(-64.64 -93.55)" style="fill:none;stroke:#293b4a;stroke-miterlimit:10;stroke-width:1.4421099424362183px"></path><path d="M235.18,431.06V350" transform="translate(-64.64 -93.55)" style="fill:none;stroke:#293b4a;stroke-miterlimit:10;stroke-width:1.4421099424362183px"></path><path d="M239.8,431.06V350" transform="translate(-64.64 -93.55)" style="fill:none;stroke:#293b4a;stroke-miterlimit:10;stroke-width:1.4421099424362183px"></path><path d="M509.68,431.06V350" transform="translate(-64.64 -93.55)" style="fill:none;stroke:#293b4a;stroke-miterlimit:10;stroke-width:1.4421099424362183px"></path><path d="M514.3,431.06V350" transform="translate(-64.64 -93.55)" style="fill:none;stroke:#293b4a;stroke-miterlimit:10;stroke-width:1.4421099424362183px"></path><path d="M84.53,432H184.61" transform="translate(-64.64 -93.55)" style="fill:none;stroke:#293b4a;stroke-miterlimit:10;stroke-width:1.4421099424362183px"></path><path d="M216.78,432h35.48" transform="translate(-64.64 -93.55)" style="fill:none;stroke:#293b4a;stroke-miterlimit:10;stroke-width:1.4421099424362183px"></path><path d="M293.68,432H557" transform="translate(-64.64 -93.55)" style="fill:none;stroke:#293b4a;stroke-miterlimit:10;stroke-width:1.4421099424362183px"></path><path d="M329.57,485.52H353.5" transform="translate(-64.64 -93.55)" style="fill:none;stroke:#293b4a;stroke-linejoin:round;stroke-width:1.4421099424362183px"></path></svg>