<svg xmlns="http://www.w3.org/2000/svg" id="Layer_1" data-name="Layer 1" viewBox="0 0 597.44 318.52"><path d="M37.17,438.94h596" transform="translate(-36.43 -121.14)" style="fill:none;stroke:#293b4a;stroke-miterlimit:10;stroke-width:1.4421099424362183px"></path><path d="M359.61,121.86V168" transform="translate(-36.43 -121.14)" style="fill:none;stroke:#293b4a;stroke-miterlimit:10;stroke-width:1.4421099424362183px"></path><path d="M365.45,168v13a48.67,48.67,0,0,0-5.84-.39,47.55,47.55,0,0,0-5.83.39V168Z" transform="translate(-36.43 -121.14)" style="fill:none;stroke:#293b4a;stroke-miterlimit:10;stroke-width:1.4421099424362183px"></path><path d="M319.49,287.94c5.21-4.35,8.25-9.49,8.25-15.08,0-15.48-23.41-28-52.18-28s-52.17,12.52-52.17,28,23.4,28,52.17,28a86.09,86.09,0,0,0,27.06-4.12l20.76,16Z" transform="translate(-36.43 -121.14)" style="fill:none;stroke:#293b4a;stroke-miterlimit:10;stroke-width:1.4421099424362183px"></path><path d="M340.64,314.69c-3.42-2.88-5.52-6.3-5.52-10,0-10.27,15.55-18.59,34.68-18.59s34.68,8.32,34.68,18.59-15.55,18.58-34.68,18.58a58.11,58.11,0,0,1-18-2.72l-13.76,10.73Z" transform="translate(-36.43 -121.14)" style="fill:none;stroke:#293b4a;stroke-miterlimit:10;stroke-width:1.4421099424362183px"></path><path d="M250.53,266H303" transform="translate(-36.43 -121.14)" style="fill:none;stroke:#293b4a;stroke-miterlimit:10;stroke-width:1.4421099424362183px"></path><path d="M250.53,273.24h35.76" transform="translate(-36.43 -121.14)" style="fill:none;stroke:#293b4a;stroke-miterlimit:10;stroke-width:1.4421099424362183px"></path><path d="M250.53,280.48h48.2" transform="translate(-36.43 -121.14)" style="fill:none;stroke:#293b4a;stroke-miterlimit:10;stroke-width:1.4421099424362183px"></path><path d="M355,301.47h33.59" transform="translate(-36.43 -121.14)" style="fill:none;stroke:#293b4a;stroke-miterlimit:10;stroke-width:1.4421099424362183px"></path><path d="M355,308.62h28.22" transform="translate(-36.43 -121.14)" style="fill:none;stroke:#293b4a;stroke-miterlimit:10;stroke-width:1.4421099424362183px"></path><path d="M604.38,438.94c3.66-12.13,4.51-26.05,3.43-41.21-14.47-5.83-29.86-.62-42.15,1.24" transform="translate(-36.43 -121.14)" style="fill:none;stroke:#293b4a;stroke-miterlimit:10;stroke-width:1.4421099424362183px"></path><path d="M576.39,396.72C562.86,310.33,529,306.45,529,306.45S512.63,355.82,557,368.34" transform="translate(-36.43 -121.14)" style="fill:none;stroke:#293b4a;stroke-linejoin:round;stroke-width:1.4421099424362183px"></path><path d="M596.22,377.05c27.76,2.72,45.88-25.74,32.35-51.63,0,0-47.82,10.65-52.18,71.38" transform="translate(-36.43 -121.14)" style="fill:none;stroke:#293b4a;stroke-linejoin:round;stroke-width:1.4421099424362183px"></path><path d="M363,438.94H260.24a3.25,3.25,0,0,1-3.18-2.57l-13.84-69.59a3.26,3.26,0,0,1,3.18-3.88H349.12a3.26,3.26,0,0,1,3.19,2.56l12.59,63.29.62,3,.63,3.26A3.18,3.18,0,0,1,363,438.94Z" transform="translate(-36.43 -121.14)" style="fill:none;stroke:#293b4a;stroke-linejoin:round;stroke-width:1.4421099424362183px"></path><path d="M305.56,410.17c3.65-.8,5.67-5.7,4.52-10.94s-5-8.84-8.69-8-5.67,5.7-4.52,10.94S301.91,411,305.56,410.17Z" transform="translate(-36.43 -121.14)" style="fill:none;stroke:#293b4a;stroke-linejoin:round;stroke-width:1.4421099424362183px"></path><path d="M420.73,431.79v7.15H363a3.27,3.27,0,0,0,3.18-3.89l-.62-3.26Z" transform="translate(-36.43 -121.14)" style="fill:none;stroke:#293b4a;stroke-linejoin:round;stroke-width:1.4421099424362183px"></path><path d="M478,382.18c11.2,19.2,31.57,29.47,31.57,29.47" transform="translate(-36.43 -121.14)" style="fill:none;stroke:#293b4a;stroke-linecap:round;stroke-miterlimit:10;stroke-width:1.4421099424362183px"></path><path d="M437.83,351.54C402.61,368.26,390,420.12,390,420.12" transform="translate(-36.43 -121.14)" style="fill:none;stroke:#293b4a;stroke-linecap:round;stroke-miterlimit:10;stroke-width:1.4421099424362183px"></path><path d="M393.75,421.83c-13.06-2.17-18.82-1.94-29.32-.46" transform="translate(-36.43 -121.14)" style="fill:none;stroke:#293b4a;stroke-linecap:round;stroke-miterlimit:10;stroke-width:1.4421099424362183px"></path><path d="M415,431.79c-1.48-16.49-1-43.86,11.89-64.77" transform="translate(-36.43 -121.14)" style="fill:none;stroke:#293b4a;stroke-linecap:round;stroke-miterlimit:10;stroke-width:1.4421099424362183px"></path><path d="M434.49,375c18.35,2.17,39.19-22.71,50.54-31.8" transform="translate(-36.43 -121.14)" style="fill:none;stroke:#293b4a;stroke-linecap:round;stroke-miterlimit:10;stroke-width:1.4421099424362183px"></path><path d="M538.68,438.94c14.46-.08,33.51-8.24,33.75-13.3,1-21.61-35.54-50.93-85.07-81.17a82.71,82.71,0,0,0-8.08-4.36l-.62-.31c-57.62,49.3-41.76,17.34-40.75,11.67" transform="translate(-36.43 -121.14)" style="fill:none;stroke:#293b4a;stroke-linecap:round;stroke-miterlimit:10;stroke-width:1.4421099424362183px"></path><path d="M519,410.64c-45.8,4.2-64.38,20.45-81.49,28.3" transform="translate(-36.43 -121.14)" style="fill:none;stroke:#293b4a;stroke-linecap:round;stroke-miterlimit:10;stroke-width:1.4421099424362183px"></path><path d="M506,409.63c15.47-19.29,46.18-18.12,46.18-18.12" transform="translate(-36.43 -121.14)" style="fill:none;stroke:#293b4a;stroke-miterlimit:10;stroke-width:1.4421099424362183px"></path><path d="M414.43,415.77c-13.3-5.13-22.55-2.18-22.55-2.18" transform="translate(-36.43 -121.14)" style="fill:none;stroke:#293b4a;stroke-linecap:round;stroke-miterlimit:10;stroke-width:1.4421099424362183px"></path><path d="M185.6,336.15c-.31,8.47,9.25,27.29,7.93,34.05-2.49,12.37-11.9,23.88-14.15,28.93a24.83,24.83,0,0,0-1.87,14.77c2,10,16.1,25,16.1,25" transform="translate(-36.43 -121.14)" style="fill:none;stroke:#293b4a;stroke-linejoin:round;stroke-width:1.4421099424362183px"></path><path d="M128,438.86c-10.49.23-12.67-7.15-12.67-7.15-32.5-13.14-70.13-23.87-76.82-32.19-2-2.57-1.63-7.78.39-10.34,30.63-39.27,93.23-59,93.23-59" transform="translate(-36.43 -121.14)" style="fill:none;stroke:#293b4a;stroke-linejoin:round;stroke-width:1.4421099424362183px"></path><path d="M122.31,372.23c-.24,8.24,1,13.91,2.49,21.3a71.45,71.45,0,0,1,1.08,7.08l.47,5.13c.55,5.83-.31,12.59-1.4,18.27" transform="translate(-36.43 -121.14)" style="fill:none;stroke:#293b4a;stroke-linejoin:round;stroke-width:1.4421099424362183px"></path><path d="M283.73,332.65c3.26-1.56,1.24-3.89,1.24-3.89-4.43.39-6.69.55-8.24.55a13.92,13.92,0,0,0-8.71,3.11,8,8,0,0,0-1.63,1.63c-18,6.84-40,43.85-40,43.85-21.85-33.9-58.55-53.18-58.55-53.18-.85,30.63-21.84-.78-21.84-.78" transform="translate(-36.43 -121.14)" style="fill:none;stroke:#293b4a;stroke-linejoin:round;stroke-width:1.4421099424362183px"></path><path d="M166.55,264.15c1,4.9,7.85,17.8,9.88,20.52a.74.74,0,0,1-.55,1.17l-2.56.7c.54,1.94.85,3.81,1.16,5.37l-1.48.46" transform="translate(-36.43 -121.14)" style="fill:none;stroke:#293b4a;stroke-linejoin:round;stroke-width:1.4421099424362183px"></path><path d="M167.87,324.8c-3.42-4.59-4-10.5-1.24-22.32,5.29,1.48,9.25,1.63,8.63-6.61" transform="translate(-36.43 -121.14)" style="fill:none;stroke:#293b4a;stroke-linejoin:round;stroke-width:1.4421099424362183px"></path><path d="M145.56,286.54c2.25,12.29,7,27,.46,37.56l-13.91,6.14c20.29,7.46,1,52-10.27,43.54" transform="translate(-36.43 -121.14)" style="fill:none;stroke:#293b4a;stroke-linejoin:round;stroke-width:1.4421099424362183px"></path><path d="M175.18,295.87c-3.34,1.79-8.24,1.4-11.35-3.81,0,0,2.41,2,9.17.31C172.54,293.93,174.09,295,175.18,295.87Z" transform="translate(-36.43 -121.14)" style="fill:none;stroke:#293b4a;stroke-linejoin:round;stroke-width:1.4421099424362183px"></path><path d="M162.82,281.56a2.25,2.25,0,1,0-2.26-2.25A2.25,2.25,0,0,0,162.82,281.56Z" transform="translate(-36.43 -121.14)" style="fill:#293b4a"></path><path d="M327.73,121.86h63.69" transform="translate(-36.43 -121.14)" style="fill:none;stroke:#293b4a;stroke-linecap:round;stroke-miterlimit:10;stroke-width:1.4421099424362183px"></path><path d="M158.39,357.3c17,2.95,20.6-1.71,20.6-1.71" transform="translate(-36.43 -121.14)" style="fill:none;stroke:#293b4a;stroke-linejoin:round;stroke-width:1.4421099424362183px"></path><path d="M141.59,438.86h24V411.65h-24v16.87" transform="translate(-36.43 -121.14)" style="fill:none;stroke:#293b4a;stroke-linecap:round;stroke-miterlimit:10;stroke-width:1.4421099424362183px"></path><path d="M141.59,417.09a8.53,8.53,0,0,0-8.55,8.55" transform="translate(-36.43 -121.14)" style="fill:none;stroke:#293b4a;stroke-linecap:round;stroke-miterlimit:10;stroke-width:1.4421099424362183px"></path><path d="M156.29,382.18c-3.42,4-2.34,6.53,0,9.17a5.5,5.5,0,0,1,0,7.7" transform="translate(-36.43 -121.14)" style="fill:none;stroke:#293b4a;stroke-linecap:round;stroke-miterlimit:10;stroke-width:1.4421099424362183px"></path><path d="M151,390.65c3.58,4,2.41,6.54,0,9.18s-1.87,5.52,0,7.7" transform="translate(-36.43 -121.14)" style="fill:none;stroke:#293b4a;stroke-linecap:round;stroke-miterlimit:10;stroke-width:1.4421099424362183px"></path><path d="M128.37,370.67c-14.77,2.49-54,18.82-54,18.82" transform="translate(-36.43 -121.14)" style="fill:none;stroke:#293b4a;stroke-linejoin:round;stroke-width:1.4421099424362183px"></path><path d="M68,387.08c14.15,5.44,20.29,7.62,34.21,19.82,8.55,7.47,22.78,17.19,22.78,17.19s13,2.64,19.59,5.6c0,0,7.47,5.52,8.95,9.25" transform="translate(-36.43 -121.14)" style="fill:none;stroke:#293b4a;stroke-linecap:round;stroke-miterlimit:10;stroke-width:1.4421099424362183px"></path><path d="M245.86,378.37c-4.28,7.23-7.93,13.68-10.73,18.89-3.27,5.83-11.2,5.21-17,1.95a148.13,148.13,0,0,1-27.29-20.37" transform="translate(-36.43 -121.14)" style="fill:none;stroke:#293b4a;stroke-linejoin:round;stroke-width:1.4421099424362183px"></path><path d="M277.27,333.27c46.5-4.51,23.1,2.88,2.8,4.59l-5.44.78a9.36,9.36,0,0,0-6.38,4c-4.58,6.77-8.94,13.61-13.06,20.22" transform="translate(-36.43 -121.14)" style="fill:none;stroke:#293b4a;stroke-linejoin:round;stroke-width:1.4421099424362183px"></path><path d="M145.48,247.43c-43.93-5.21-42.53,30-26.83,35L155,264.77Z" transform="translate(-36.43 -121.14)" style="fill:#293b4a"></path><path d="M158.62,244.71c-28.85-15.4-37.4,9.25-27.91,17l29.78-2.41Z" transform="translate(-36.43 -121.14)" style="fill:#293b4a"></path><path d="M131.64,264.46c-26,28.77-20.84,47.51.23,45.72s39.27-.47,19.67-20.76S160,266.25,160,266.25c46.11,4.12-1.71-56.84-6.61-10.42" transform="translate(-36.43 -121.14)" style="fill:#293b4a"></path><path d="M158.78,264.77c-11.28,11.66.62,19.59-5.06,18.58s-7.39,3.11-7.39,3.11l-13.68-10.34,11.66-14Z" transform="translate(-36.43 -121.14)" style="fill:#293b4a"></path><path d="M439.78,302.4a2.33,2.33,0,1,0-2.33-2.33A2.33,2.33,0,0,0,439.78,302.4Z" transform="translate(-36.43 -121.14)" style="fill:#293b4a"></path><path d="M478.19,339.8c-7-2-12.67-13.45-13.92-19.44a5.15,5.15,0,0,1,.39-3.57c4.12-7.7,3.42-23.64-3.73-34.37-10.19-15.24-29.47,3.11-29.47,3.11" transform="translate(-36.43 -121.14)" style="fill:none;stroke:#293b4a;stroke-linecap:round;stroke-miterlimit:10;stroke-width:1.4421099424362183px"></path><path d="M446.08,312.28c1.24,1.86-1.87,8.24-7.62,5.44" transform="translate(-36.43 -121.14)" style="fill:none;stroke:#293b4a;stroke-linecap:round;stroke-linejoin:round;stroke-width:1.4421099424362183px"></path><path d="M437.83,351.54c8.79-8.39,8.48-18.35,9.34-24.18a2.43,2.43,0,0,0-2.73-2.72l-10.1,1.4L432.7,311s-11.27,1.32-8-2.49,4.44-7.93,4.59-17.11L418.55,280c13.22-17.81,48.05-4.59,48.05-4.59,9.33,24.34-.62,38.34-.62,38.34l-2.41-.86s-.39-4-1.09-10.5-9-2.41-9-2.41c-.07-6.45-.85-12.83-.85-12.83s-12.36-2.1-23.33,4.12" transform="translate(-36.43 -121.14)" style="fill:none;stroke:#293b4a;stroke-linecap:round;stroke-miterlimit:10;stroke-width:1.4421099424362183px"></path><path d="M466.53,275.42s-36.47-12.75-47.74,4.67l10.41,11.27s13.14-6,23.33-4.12c0,0,1.09,8.71.86,12.83,0,0,8.24-3.65,9,2.18S463.57,313,463.57,313l2.41.85C465.9,313.83,476.09,292.84,466.53,275.42Z" transform="translate(-36.43 -121.14)" style="fill:#293b4a"></path><path d="M405.1,226.13q-9.92,2.2-20.29,3.49a225.57,225.57,0,0,1-52.18-.46c-6.14-.78-12.36-1.71-18.66-3a44,44,0,0,1,1.87-12.83A45.56,45.56,0,0,1,349,181.88a42.88,42.88,0,0,1,4.66-.85,48.67,48.67,0,0,1,5.84-.39,47.55,47.55,0,0,1,5.83.39c1.71.23,3.5.54,5.13.93a45.59,45.59,0,0,1,33,32.27A43.07,43.07,0,0,1,405.1,226.13Z" transform="translate(-36.43 -121.14)" style="fill:none;stroke:#293b4a;stroke-miterlimit:10;stroke-width:1.4421099424362183px"></path><path d="M350.52,190.2a25,25,0,0,1-25,25,25.76,25.76,0,0,1-9.56-1.87,45.54,45.54,0,0,1,33.2-31.49A26.48,26.48,0,0,1,350.52,190.2Z" transform="translate(-36.43 -121.14)" style="fill:#293b4a"></path><path d="M384.88,229.63a226.06,226.06,0,0,1-52.17-.47,26.51,26.51,0,0,1,52.17.47Z" transform="translate(-36.43 -121.14)" style="fill:#293b4a"></path><path d="M403.55,214.23a25.61,25.61,0,0,1-7.31,1,26.55,26.55,0,0,1-26.52-26.51,27.06,27.06,0,0,1,.86-6.77A45.61,45.61,0,0,1,403.55,214.23Z" transform="translate(-36.43 -121.14)" style="fill:#293b4a"></path><path d="M372.52,225.74a12.91,12.91,0,0,1-25.81,0" transform="translate(-36.43 -121.14)" style="fill:none;stroke:#293b4a;stroke-miterlimit:10;stroke-width:1.4421099424362183px"></path><path d="M582.54,273.09V225.58H510.07" transform="translate(-36.43 -121.14)" style="fill:none;stroke:#293b4a;stroke-linecap:round;stroke-miterlimit:10;stroke-width:1.4421099424362183px"></path><path d="M490.79,236.78v51.78h73.94" transform="translate(-36.43 -121.14)" style="fill:none;stroke:#293b4a;stroke-linecap:round;stroke-miterlimit:10;stroke-width:1.4421099424362183px"></path><path d="M590.39,218.35H482.93v77.52H590.39Z" transform="translate(-36.43 -121.14)" style="fill:none;stroke:#293b4a;stroke-linecap:round;stroke-miterlimit:10;stroke-width:1.4421099424362183px"></path><path d="M581.37,238.57a5,5,0,0,0-3.58,1.47,5,5,0,0,0-3.57-1.47,5.77,5.77,0,0,0-2,.39,9,9,0,0,0-18,1,9.16,9.16,0,0,0,1.64,5.21,4.39,4.39,0,0,0-1.56,1,5,5,0,0,0-3.58-1.48,5.21,5.21,0,0,0,0,10.42h14.39a5,5,0,0,0,3.58-1.48,5.06,5.06,0,0,0,7.15,0,5,5,0,0,0,3.58,1.48h3.11" transform="translate(-36.43 -121.14)" style="fill:none;stroke:#293b4a;stroke-linecap:round;stroke-miterlimit:10;stroke-width:1.4421099424362183px"></path><path d="M552.83,251.16a5.18,5.18,0,0,1,3.89-6.22" transform="translate(-36.43 -121.14)" style="fill:none;stroke:#293b4a;stroke-linecap:round;stroke-miterlimit:10;stroke-width:1.4421099424362183px"></path><path d="M566.52,242.3a3.68,3.68,0,1,1,7.15,1.71" transform="translate(-36.43 -121.14)" style="fill:none;stroke:#293b4a;stroke-linecap:round;stroke-miterlimit:10;stroke-width:1.4421099424362183px"></path><path d="M521.65,288.56a23.38,23.38,0,0,1-12-13.29h41.6a23.11,23.11,0,0,1-12.05,13.29" transform="translate(-36.43 -121.14)" style="fill:none;stroke:#293b4a;stroke-linecap:round;stroke-miterlimit:10;stroke-width:1.4421099424362183px"></path><path d="M529.27,255.13,516.37,268h12.9Z" transform="translate(-36.43 -121.14)" style="fill:none;stroke:#293b4a;stroke-linecap:round;stroke-miterlimit:10;stroke-width:1.4421099424362183px"></path><path d="M529.27,268v7.23" transform="translate(-36.43 -121.14)" style="fill:none;stroke:#293b4a;stroke-linecap:round;stroke-miterlimit:10;stroke-width:1.4421099424362183px"></path><path d="M491.87,218.35l44.79-19.44,45.88,19.6" transform="translate(-36.43 -121.14)" style="fill:none;stroke:#293b4a;stroke-linecap:round;stroke-miterlimit:10;stroke-width:1.4421099424362183px"></path><path d="M536.66,205.83a3.11,3.11,0,1,0-3.11-3.11A3.11,3.11,0,0,0,536.66,205.83Z" transform="translate(-36.43 -121.14)" style="fill:none;stroke:#293b4a;stroke-linecap:round;stroke-miterlimit:10;stroke-width:1.4421099424362183px"></path><path d="M543.89,266.09h38.65" transform="translate(-36.43 -121.14)" style="fill:none;stroke:#293b4a;stroke-linecap:round;stroke-miterlimit:10;stroke-width:1.4421099424362183px"></path><path d="M490.71,266.09H509.6" transform="translate(-36.43 -121.14)" style="fill:none;stroke:#293b4a;stroke-linecap:round;stroke-miterlimit:10;stroke-width:1.4421099424362183px"></path><path d="M137.31,431.32a24.74,24.74,0,0,1,10.5,7.54Z" transform="translate(-36.43 -121.14)" style="fill:#fff"></path><path d="M137.31,431.32a24.74,24.74,0,0,1,10.5,7.54" transform="translate(-36.43 -121.14)" style="fill:none;stroke:#293b4a;stroke-linecap:round;stroke-miterlimit:10;stroke-width:1.4421099424362183px"></path><path d="M132.11,433.42s4.58,1.63,6.22,5.44Z" transform="translate(-36.43 -121.14)" style="fill:#fff"></path><path d="M132.11,433.42s4.58,1.63,6.22,5.44" transform="translate(-36.43 -121.14)" style="fill:none;stroke:#293b4a;stroke-linecap:round;stroke-miterlimit:10;stroke-width:1.4421099424362183px"></path></svg>