<svg xmlns="http://www.w3.org/2000/svg" xmlns:xlink="http://www.w3.org/1999/xlink" id="Layer_1" data-name="Layer 1" viewBox="0 0 338 182.18"><defs><clipPath id="clip-path" transform="translate(-40.24 -197.31)"><rect x="40.24" y="181.31" width="338" height="198" style="fill:none"></rect></clipPath></defs><g style="clip-path:url(#clip-path)"><path d="M164.16,313.77l7.59,31.91" transform="translate(-40.24 -197.31)" style="fill:none;stroke:#293b4a;stroke-linejoin:round;stroke-width:1.517240047454834px"></path><path d="M201.06,231.11a1.55,1.55,0,1,0-1.55-1.55A1.56,1.56,0,0,0,201.06,231.11Z" transform="translate(-40.24 -197.31)" style="fill:#293b4a"></path><path d="M196.76,211.32c6.68,10.4,15.46,17.59,18,14.5,0,0,2.27-2,4.12-.06a5.1,5.1,0,0,1,1.07,4.4c6.69,9,.72,25.61,4.18,26.8s17.25,2,15.88-11.29-9.25-48.49-34.45-41.3A17.09,17.09,0,0,0,196.76,211.32Z" transform="translate(-40.24 -197.31)" style="fill:#293b4a;stroke:#293b4a;stroke-miterlimit:10;stroke-width:1.517240047454834px;fill-rule:evenodd"></path><path d="M219.86,230c.06.06.06.12.12.12" transform="translate(-40.24 -197.31)" style="fill:none;stroke:#293b4a;stroke-miterlimit:10;stroke-width:1.517240047454834px"></path><path d="M219.92,230.45a.54.54,0,0,1,.06-.23" transform="translate(-40.24 -197.31)" style="fill:none;stroke:#293b4a;stroke-miterlimit:10;stroke-width:1.517240047454834px"></path><path d="M204.76,247.21c-1.2,6.48-2.15,6.83-.72,7.73a10.42,10.42,0,0,1,2.51,2.37s3.76-6.06,2.27-11Z" transform="translate(-40.24 -197.31)" style="fill:#293b4a;stroke:#293b4a;stroke-miterlimit:10;stroke-width:1.517240047454834px;fill-rule:evenodd"></path><path d="M214,232.71c1.31,4.34,4,3.8,4.48.89.24-1.54.71-.71,1.13-2.26,1.79-6.29-5.19-8.91-6.44-2.37" transform="translate(-40.24 -197.31)" style="fill:none;stroke:#293b4a;stroke-miterlimit:10;stroke-width:1.517240047454834px"></path><path d="M202.55,241.62s4.66,0,4.66-5.46" transform="translate(-40.24 -197.31)" style="fill:none;stroke:#293b4a;stroke-miterlimit:10;stroke-width:1.517240047454834px"></path><path d="M251.62,351.26l14.74,2.14-48.23,19.25-47.34-6.24,35.22-13" transform="translate(-40.24 -197.31)" style="fill:none;stroke:#293b4a;stroke-miterlimit:10;stroke-width:1.517240047454834px"></path><path d="M189.89,364.87l28.24,3.39" transform="translate(-40.24 -197.31)" style="fill:none;stroke:#293b4a;stroke-miterlimit:10;stroke-width:1.517240047454834px"></path><path d="M196.82,362.43l28.23,3.39" transform="translate(-40.24 -197.31)" style="fill:none;stroke:#293b4a;stroke-miterlimit:10;stroke-width:1.517240047454834px"></path><path d="M218.13,361.78l13.79,1.6" transform="translate(-40.24 -197.31)" style="fill:none;stroke:#293b4a;stroke-miterlimit:10;stroke-width:1.517240047454834px"></path><path d="M40.24,345.68h76.41" transform="translate(-40.24 -197.31)" style="fill:none;stroke:#293b4a;stroke-miterlimit:10;stroke-width:1.517240047454834px"></path><path d="M208,345.68H122.85" transform="translate(-40.24 -197.31)" style="fill:none;stroke:#293b4a;stroke-miterlimit:10;stroke-width:1.517240047454834px"></path><path d="M378.24,345.68H254.37" transform="translate(-40.24 -197.31)" style="fill:none;stroke:#293b4a;stroke-miterlimit:10;stroke-width:1.517240047454834px"></path><path d="M243.08,292.85s-3.4,23.83-2,41.77" transform="translate(-40.24 -197.31)" style="fill:none;stroke:#293b4a;stroke-linejoin:round;stroke-width:1.517240047454834px"></path><path d="M183.15,368.26l-13.67,7.37,64.59,3.09,24.53-22.23" transform="translate(-40.24 -197.31)" style="fill:none;stroke:#293b4a;stroke-miterlimit:10;stroke-width:1.517240047454834px"></path><path d="M340,345.5V321.73H302.9V345.5" transform="translate(-40.24 -197.31)" style="fill:none;stroke:#293b4a;stroke-linejoin:round;stroke-width:1.517240047454834px"></path><path d="M302.72,338h25.91" transform="translate(-40.24 -197.31)" style="fill:none;stroke:#293b4a;stroke-linejoin:round;stroke-width:1.517240047454834px"></path><path d="M302.72,324.94H340" transform="translate(-40.24 -197.31)" style="fill:none;stroke:#293b4a;stroke-linejoin:round;stroke-width:1.517240047454834px"></path><path d="M352.09,277.1c4.06-9.92,1.43-22,3.64-32,1-4.63,3.34-9.33,3.52-14.08a6.85,6.85,0,0,0-1.91-5.41c-2.57-2.32-6.27-.65-8.24,1.54-6.14,6.9-10.86,16.58-11.76,25.79-.59,6.3.84,12.72-.83,18.84-.72,2.74-1.14,5.35-2.45,7.85-1.43,2.79-5.13,9.8-.78,12a4.7,4.7,0,0,0,4.54-.65C343.07,287.74,349.82,282.75,352.09,277.1Z" transform="translate(-40.24 -197.31)" style="fill:none;stroke:#293b4a;stroke-linejoin:round;stroke-width:1.517240047454834px"></path><path d="M351.79,234.55a61.9,61.9,0,0,0-4.54,13.2c-2.44,11.88-1.79,23.65-8,34.52-1.49,2.56-3.22,5-4.71,7.55-5.67,9.68-8.18,20.5-9,31.55" transform="translate(-40.24 -197.31)" style="fill:none;stroke:#293b4a;stroke-linejoin:round;stroke-width:1.517240047454834px"></path><path d="M311,235.09c-1-6.54,4.12-12.42,8.77-16.22,3-2.44,6.15-4.76,8.24-8,1.08-1.6,1.91-3.56,1.31-5.41a5.35,5.35,0,0,0-4.29-3.44c-5.44-1-10.39,2.91-13.08,7.31-5.37,8.85-1.91,18.83-.71,28.22,1.13,8.86-1.79,17.71-1.14,26.57s4.84,17.05,5.73,25.73c.42,4,1.38,7.9.84,11.94-.3,2.38-1,6.12,1.67,7.49a3.55,3.55,0,0,0,3.58-.48c4.42-3.27,6-10.63,6.33-15.68.42-6.54-.9-13-2-19.44-1.19-6.59,2.87-13.13,2.57-19.78s-3.29-13.2-4.24-19.73c-.84-5.71-4.6-11.83-2.39-17.47" transform="translate(-40.24 -197.31)" style="fill:none;stroke:#293b4a;stroke-linejoin:round;stroke-width:1.517240047454834px"></path><path d="M316.15,231.64c.48,2.26.84,4.46,1.14,6.72A128,128,0,0,1,318.42,258c-.06,3.5-.06,7,.18,10.51s1.13,6.66,1.61,10c1.13,7.31,2.87,14.2,1.43,21.69-.47,2.55-1.25,5-1.79,7.6a57.11,57.11,0,0,0-1,14.2" transform="translate(-40.24 -197.31)" style="fill:none;stroke:#293b4a;stroke-linejoin:round;stroke-width:1.517240047454834px"></path><path d="M304.27,270.68c-1.73-4.75-4.54-15-7.34-19.43-1.31-2.14-2.93-4.28-5.61-5.29-1.79-.65-4.24-.53-5.37.78s-4.84,4.45.95,9.86a50.59,50.59,0,0,0,9.67,7,26,26,0,0,1,5.79,4.22,8.58,8.58,0,0,1,1.91,2.79,12.19,12.19,0,0,1,.66,3.87,46.45,46.45,0,0,0,2,9.86,24.72,24.72,0,0,0,2.8,5.76c1.32,2,4.6,9,.66,10.64-1.31.54-4.12.71-5.31.06A23.54,23.54,0,0,1,295,290.41c-3.7-7.25-.42-12.12-.72-19.31-.12-2.85.06-6.78-2-10.4" transform="translate(-40.24 -197.31)" style="fill:none;stroke:#293b4a;stroke-linejoin:round;stroke-width:1.517240047454834px"></path><path d="M299.91,273.54c1.79,8.67.66,11.29,5.26,19.25,1.07,1.9,2.39,3.62,3.46,5.52,4.12,7.08,6,15,6.57,23.12" transform="translate(-40.24 -197.31)" style="fill:none;stroke:#293b4a;stroke-linejoin:round;stroke-width:1.517240047454834px"></path><path d="M369.82,285.48a11.17,11.17,0,0,0-5.67-1.13,31.3,31.3,0,0,0-5.91.83,32,32,0,0,0-13.14,6.66c-5.19,4.4-8.29,10.93-11.22,16.93a2.83,2.83,0,0,0,0,2.92,3.66,3.66,0,0,0,1.61,1.06c1.38.42,3.53,1.31,4.78.72a20.75,20.75,0,0,0,5.31-4.34c2.33-2.26,4.54-2.91,6.93-5.11,3.76-3.45,7.34-6.54,12.47-7C372.21,296.35,380.62,291.42,369.82,285.48Z" transform="translate(-40.24 -197.31)" style="fill:none;stroke:#293b4a;stroke-linejoin:round;stroke-width:1.517240047454834px"></path><path d="M365,290.11a29,29,0,0,0-4.89.72c-4.12,1.07-6.57,3.74-9.37,6.65-3.29,3.39-6.51,6.78-9.85,10.11-1.91,1.9-3.88,3.74-5.85,5.58-2.63,2.38-5,4.87-5.56,8.5" transform="translate(-40.24 -197.31)" style="fill:none;stroke:#293b4a;stroke-linejoin:round;stroke-width:1.517240047454834px"></path><path d="M85.9,338.84s-1.91,4.64-1.19,6.84" transform="translate(-40.24 -197.31)" style="fill:none;stroke:#293b4a;stroke-miterlimit:10;stroke-width:1.517240047454834px"></path><path d="M80.35,315.07c-3.52-.77-2.57.95-2.57.95" transform="translate(-40.24 -197.31)" style="fill:none;stroke:#293b4a;stroke-miterlimit:10;stroke-width:1.517240047454834px"></path><path d="M106.74,298a19.4,19.4,0,0,1,5.55,16.93s6.51,7.91,5.79,12.6c-1.67,10.7-17.37,4.28-24.89-.95" transform="translate(-40.24 -197.31)" style="fill:none;stroke:#293b4a;stroke-miterlimit:10;stroke-width:1.517240047454834px"></path><path d="M88.11,295.64c-4.06,1.9-8.12,4.7-9.67,7.13-1.85,3-4.83,4-6.27,4.76a4.92,4.92,0,0,0-2.8,4.57c.12,1.72,2.68,7.13,5.49,12.24,1.55,2.8,3.1,5.53,4.42,7.55,0,0,15.28-16.1-1.08-21.1" transform="translate(-40.24 -197.31)" style="fill:none;stroke:#293b4a;stroke-miterlimit:10;stroke-width:1.517240047454834px"></path><path d="M110,302.18s1.91,6.95,7.22,11.05c4.54,3.45,1.74-12.72-3.4-18.12-1.37-1.49-4.3-1.85-6.51-1.55" transform="translate(-40.24 -197.31)" style="fill:none;stroke:#293b4a;stroke-miterlimit:10;stroke-width:1.517240047454834px"></path><path d="M118.14,325.71c-3.46-4.1-7.58-.24-8.78,4" transform="translate(-40.24 -197.31)" style="fill:none;stroke:#293b4a;stroke-miterlimit:10;stroke-width:1.517240047454834px"></path><path d="M107.69,308.24a4,4,0,0,0-5.61,2.44" transform="translate(-40.24 -197.31)" style="fill:none;stroke:#293b4a;stroke-miterlimit:10;stroke-width:1.517240047454834px"></path><path d="M89.6,316c1.32-4.87,5.56-2.61,5.56-2.61" transform="translate(-40.24 -197.31)" style="fill:none;stroke:#293b4a;stroke-miterlimit:10;stroke-width:1.517240047454834px"></path><path d="M77.66,329.39a39.25,39.25,0,0,0-6.56,16.23" transform="translate(-40.24 -197.31)" style="fill:none;stroke:#293b4a;stroke-miterlimit:10;stroke-width:1.517240047454834px"></path><path d="M117.18,329.69s13.14,1.25,15.35,15.75" transform="translate(-40.24 -197.31)" style="fill:none;stroke:#293b4a;stroke-miterlimit:10;stroke-width:1.517240047454834px"></path><path d="M127.81,304.08c-2.81,5.82-5.85,14.5-3.22,19.79a15.6,15.6,0,0,1,1.61,10" transform="translate(-40.24 -197.31)" style="fill:none;stroke:#293b4a;stroke-miterlimit:10;stroke-width:1.517240047454834px"></path><path d="M129.6,337.53c4.72-3.92,7.16-9.74,8.12-14.2-2-1.72-4.42-1.42-4.84-3.44,0,0,3-.9,5.32-1.67a38.34,38.34,0,0,0-3-12.71" transform="translate(-40.24 -197.31)" style="fill:none;stroke:#293b4a;stroke-miterlimit:10;stroke-width:1.517240047454834px"></path><path d="M112.41,256.42l5.37-19.85h23.58l5.37,19.85Z" transform="translate(-40.24 -197.31)" style="fill:none;stroke:#293b4a;stroke-miterlimit:10;stroke-width:1.517240047454834px"></path><path d="M138.2,256.42a8.66,8.66,0,0,1-17.31,0" transform="translate(-40.24 -197.31)" style="fill:none;stroke:#293b4a;stroke-miterlimit:10;stroke-width:1.517240047454834px"></path><path d="M129.24,197.31v36" transform="translate(-40.24 -197.31)" style="fill:none;stroke:#293b4a;stroke-miterlimit:10;stroke-width:1.517240047454834px"></path><path d="M108.05,353.4h56.11" transform="translate(-40.24 -197.31)" style="fill:none;stroke:#2a3b4a;stroke-miterlimit:10;stroke-width:1.517240047454834px"></path><path d="M279.5,353.4h36.17" transform="translate(-40.24 -197.31)" style="fill:none;stroke:#2a3b4a;stroke-miterlimit:10;stroke-width:1.517240047454834px"></path><path d="M226.85,256.42c2.26,3.57,15.7,6.48,23,8.62s8.71,11.76,8.71,11.76c3.59,18.31,3.59,52.89,3.59,52.89s-8.18,14.68-36.42,24.9c0,0,1,2.61-5,4.16,0,0-5,.71-7.29,3.8" transform="translate(-40.24 -197.31)" style="fill:none;stroke:#293b4a;stroke-miterlimit:10;stroke-width:1.517240047454834px"></path><path d="M218.13,352.63C245.47,331.47,249.47,328,249.47,328s-7.52-37.5-7.16-43.38" transform="translate(-40.24 -197.31)" style="fill:none;stroke:#293b4a;stroke-linejoin:round;stroke-width:1.517240047454834px"></path><path d="M202.55,296.35a34.69,34.69,0,0,1,11.46,0" transform="translate(-40.24 -197.31)" style="fill:none;stroke:#293b4a;stroke-linejoin:round;stroke-width:1.517240047454834px"></path><path d="M192.46,286.13s-13.07,14.92-33.13,22.41c0,0-33.73-3.27-43-9.51" transform="translate(-40.24 -197.31)" style="fill:none;stroke:#293b4a;stroke-linejoin:round;stroke-width:1.517240047454834px"></path><path d="M107.69,296.65a5.06,5.06,0,0,0-2-4.81" transform="translate(-40.24 -197.31)" style="fill:none;stroke:#293b4a;stroke-linejoin:round;stroke-width:1.517240047454834px"></path><path d="M91.87,294.63c-2.8,3.27,1.5,6.24-2.27,6.24,0,0-4.89-5.65,1.8-9,9.61-4.88,25.84,1,25.84,1a193.48,193.48,0,0,1,41,5.11c4.84-8.14,20.66-22.94,25.79-27a41.37,41.37,0,0,1,13.2-6.72A16.43,16.43,0,0,0,209.12,247c-.06-.59-.12-.95-.12-.95l-5.26,1.13a3.82,3.82,0,0,1-4.53-2.91l-1.56-7.25-.83.18A2.72,2.72,0,0,1,193.6,234a20.59,20.59,0,0,1,1-3,13,13,0,0,0,1-7.19s-2-9.63,5.73-13.08" transform="translate(-40.24 -197.31)" style="fill:none;stroke:#293b4a;stroke-linejoin:round;stroke-width:1.517240047454834px"></path><path d="M98.68,294.21c-2.39,5.71.18,7.43-2.87,6.07,0,0-3.4-5.59,1.79-8.44" transform="translate(-40.24 -197.31)" style="fill:none;stroke:#293b4a;stroke-linejoin:round;stroke-width:1.517240047454834px"></path><path d="M104.05,294.93c-1.43,4.28,1.25,7.84-2,5.94,0,0-2.39-1.72.66-8.5" transform="translate(-40.24 -197.31)" style="fill:none;stroke:#293b4a;stroke-linejoin:round;stroke-width:1.517240047454834px"></path><path d="M236.52,261.29c-9.08,47.66,5.55,40.11,5.55,40.11" transform="translate(-40.24 -197.31)" style="fill:none;stroke:#293b4a;stroke-linejoin:round;stroke-width:1.517240047454834px"></path><path d="M204.16,260.22c-3.64,30.31,19.64,23.42,26.33-1.18" transform="translate(-40.24 -197.31)" style="fill:none;stroke:#293b4a;stroke-linejoin:round;stroke-width:1.517240047454834px"></path><path d="M89.6,288c-5.79,2.56-5.13,6.42-5.13,6.42" transform="translate(-40.24 -197.31)" style="fill:none;stroke:#293b4a;stroke-linejoin:round;stroke-width:1.517240047454834px"></path><path d="M88.11,285.54c-6.86,3.09-7,8.44-7,8.44" transform="translate(-40.24 -197.31)" style="fill:none;stroke:#293b4a;stroke-linejoin:round;stroke-width:1.517240047454834px"></path><path d="M108.83,287.32a10.73,10.73,0,0,0-7.29-1.48" transform="translate(-40.24 -197.31)" style="fill:none;stroke:#293b4a;stroke-linejoin:round;stroke-width:1.517240047454834px"></path><path d="M111.33,285.84a12.81,12.81,0,0,0-9.25-3.39" transform="translate(-40.24 -197.31)" style="fill:none;stroke:#293b4a;stroke-linejoin:round;stroke-width:1.517240047454834px"></path><path d="M195.39,220.17c.77,5.41-3.35-3.86,1.85-10.69,1.67-2.2,1.91,1.78,1.91,1.78S195,217.44,195.39,220.17Z" transform="translate(-40.24 -197.31)" style="fill:#293b4a"></path><path d="M209.47,361.48c.84-4.57,6.63-5,6.63-5" transform="translate(-40.24 -197.31)" style="fill:none;stroke:#293b4a;stroke-miterlimit:10;stroke-width:1.517240047454834px"></path><path d="M207.8,358.51c1.2-4.46,8.24-5.05,8.24-5.05" transform="translate(-40.24 -197.31)" style="fill:none;stroke:#293b4a;stroke-miterlimit:10;stroke-width:1.517240047454834px"></path><path d="M215.09,353.46l6.8-16.1-3-1-7.58,18.48" transform="translate(-40.24 -197.31)" style="fill:none;stroke:#293b4a;stroke-miterlimit:10;stroke-width:1.517240047454834px"></path><path d="M208,354.41a7.55,7.55,0,0,1,4.72-3.09" transform="translate(-40.24 -197.31)" style="fill:none;stroke:#293b4a;stroke-miterlimit:10;stroke-width:1.517240047454834px"></path><path d="M219.86,351.26c-.89-1-3.58-.59-3.58-.59" transform="translate(-40.24 -197.31)" style="fill:none;stroke:#293b4a;stroke-miterlimit:10;stroke-width:1.517240047454834px"></path><path d="M188.94,345.56a32.27,32.27,0,0,0,6-25.5c-2.81-16-14.69-5.7-3.05-32.74,5.08-11.71,6.27-15.69,5.14-23" transform="translate(-40.24 -197.31)" style="fill:none;stroke:#293b4a;stroke-linejoin:round;stroke-width:1.517240047454834px"></path></g></svg>