<svg xmlns="http://www.w3.org/2000/svg" id="Layer_1" data-name="Layer 1" viewBox="0 0 533 376"><rect width="533" height="376" rx="30" style="fill:#fff"></rect><rect x="16" y="16" width="501" height="344" rx="15" style="fill:#f5f5f5"></rect><line x1="517" y1="43.5" x2="16" y2="43.5" style="fill:none;stroke:#fff"></line><line x1="521.57" y1="340.05" x2="12.15" y2="340.05" style="fill:none;stroke:#fff"></line><path d="M616.87,184.38V390.1a10.14,10.14,0,0,1-10.21,10.14H206.39a10.13,10.13,0,0,1-10.14-10.14V184.38a10.18,10.18,0,0,1,10.14-10.2H606.66A10.16,10.16,0,0,1,616.87,184.38Z" transform="translate(-140.25 -92.4)" style="fill:#fff"></path><path d="M323.34,302.58c-12.44.56-33.56,4-37.67,20.73" transform="translate(-140.25 -92.4)" style="fill:none;stroke:#293b4a;stroke-miterlimit:10;stroke-width:1.225000023841858px"></path><path d="M304,332.49a75.37,75.37,0,0,1-17.52-3.15" transform="translate(-140.25 -92.4)" style="fill:none;stroke:#293b4a;stroke-miterlimit:10;stroke-width:1.225000023841858px"></path><path d="M285.21,365c2.31-29.91-45.28-29.76-47.54-61.73" transform="translate(-140.25 -92.4)" style="fill:none;stroke:#293b4a;stroke-miterlimit:10;stroke-width:1.225000023841858px"></path><path d="M262.54,333.78s2.93-41.88-23.79-59.1c0,0-38,67.76,38.08,70.19" transform="translate(-140.25 -92.4)" style="fill:none;stroke:#293b4a;stroke-miterlimit:10;stroke-width:1.225000023841858px"></path><path d="M281.51,342.91c1.49-23.78,16.65-17.64,28.42-20.94" transform="translate(-140.25 -92.4)" style="fill:none;stroke:#293b4a;stroke-miterlimit:10;stroke-width:1.225000023841858px"></path><path d="M278.37,305.21c53.14-2.22,41.53-51,41.53-51s-41.07,16.19-39.06,40.9" transform="translate(-140.25 -92.4)" style="fill:none;stroke:#293b4a;stroke-miterlimit:10;stroke-width:1.225000023841858px"></path><path d="M307.87,269.52c-6.37,22.84-37.21,22.54-29.91,50.18" transform="translate(-140.25 -92.4)" style="fill:none;stroke:#293b4a;stroke-miterlimit:10;stroke-width:1.225000023841858px"></path><path d="M284.64,370.6c1.8-11.5-.15-23-7.6-38.89-16.45-35.32-7-54.3-.36-67.4" transform="translate(-140.25 -92.4)" style="fill:none;stroke:#293b4a;stroke-miterlimit:10;stroke-width:1.225000023841858px"></path><path d="M266.55,279.68s-5.81-31.51,19.89-46.11c0,0,12.13,34.3-17.42,51.16" transform="translate(-140.25 -92.4)" style="fill:none;stroke:#293b4a;stroke-miterlimit:10;stroke-width:1.225000023841858px"></path><path d="M372.78,282.82c1.28-2.88,4-9.07,3.9-11.08a25.34,25.34,0,0,1,.21-2.69,9.45,9.45,0,0,1-10-10.67,10.39,10.39,0,0,1,.82-2.89c-4.16-3.82-13.82-13.77-9.45-20.78-8.84.1-29.3,2.94-23.44,26.76,0,0-35.36,2.63-16.29,46.78,0,0,11.51-16.25,28.32-20.32a91.51,91.51,0,0,1,19.78-2.84s-.25-2.47.57-2.42l4.52-.1C372.73,282.62,372.78,282.82,372.78,282.82Z" transform="translate(-140.25 -92.4)" style="fill:#293b4a"></path><path d="M398.11,245.49a.75.75,0,0,1-.25-.06c-2.52-.25-18.56-3.92-17.37,5.52h0c-1.24-.87-1.29-.62-2.88-.82a9.19,9.19,0,0,0-5.45.93c-1.28-1.24-2.41-2.48-3.39-3.61-5.19-6-6.48-10.16-6.37-12.9a5.52,5.52,0,0,1,1.64-4.18,12.66,12.66,0,0,0-1.69.83c.61-8.77,4.47-29.91,27.54-25C418.72,212.32,411.22,241.62,398.11,245.49Z" transform="translate(-140.25 -92.4)" style="fill:#293b4a"></path><path d="M397.65,243.42c0,4.08,3.29,14,4.42,16.56a.58.58,0,0,1-.62.82l-2.21-.26c.78,15.53-3.28,11.71-8.06,11.61-4.17,9-6,15.21-1.7,19" transform="translate(-140.25 -92.4)" style="fill:none;stroke:#293b4a;stroke-linejoin:round;stroke-width:1.225000023841858px"></path><path d="M387.22,261.73c1.33,4,5.81,4.49,8.17,3.46" transform="translate(-140.25 -92.4)" style="fill:none;stroke:#293b4a;stroke-linejoin:round;stroke-width:1.225000023841858px"></path><path d="M392.72,256.57A4.54,4.54,0,1,0,388.2,252,4.53,4.53,0,0,0,392.72,256.57Z" transform="translate(-140.25 -92.4)" style="fill:none;stroke:#293b4a;stroke-miterlimit:10;stroke-width:1.225000023841858px"></path><path d="M400.53,256.26a5.07,5.07,0,0,0-2.47-9" transform="translate(-140.25 -92.4)" style="fill:none;stroke:#293b4a;stroke-miterlimit:10;stroke-width:1.225000023841858px"></path><path d="M399.09,251.88l-1.59-.21" transform="translate(-140.25 -92.4)" style="fill:none;stroke:#293b4a;stroke-miterlimit:10;stroke-width:1.225000023841858px"></path><path d="M387.84,251.93l-15.11-2" transform="translate(-140.25 -92.4)" style="fill:none;stroke:#293b4a;stroke-miterlimit:10;stroke-width:1.225000023841858px"></path><path d="M393.69,252.91l-3.39-4.38" transform="translate(-140.25 -92.4)" style="fill:none;stroke:#293b4a;stroke-miterlimit:10;stroke-width:1.225000023841858px"></path><path d="M368.67,247.45c-5.19-6-6.48-10.16-6.38-12.9a12.93,12.93,0,0,1,1.13-2.94Z" transform="translate(-140.25 -92.4)" style="fill:#293b4a"></path><path d="M374.47,266.78c3.19.42,11.57-1.34,7.25-12.37" transform="translate(-140.25 -92.4)" style="fill:none;stroke:#293b4a;stroke-linejoin:round;stroke-width:1.225000023841858px"></path><path d="M399.35,263.28c10.22,1.91,13.82,6,5.08,6.6" transform="translate(-140.25 -92.4)" style="fill:none;stroke:#293b4a;stroke-linejoin:round;stroke-width:1.225000023841858px"></path><path d="M405.74,272.66a3.09,3.09,0,1,0-4.1-1.48A3.1,3.1,0,0,0,405.74,272.66Z" transform="translate(-140.25 -92.4)" style="fill:#293b4a"></path><path d="M364,230.37a5.77,5.77,0,0,0-1.64,4.18c-.06,2.74,1.18,7,6.37,12.9,1,1.13,2.1,2.32,3.39,3.61.62.61,1.23,1.18,1.9,1.8" transform="translate(-140.25 -92.4)" style="fill:none;stroke:#293b4a;stroke-linejoin:round;stroke-width:1.225000023841858px"></path><path d="M364,230.37c-.62.26-1.18.57-1.75.83a10.3,10.3,0,0,0-3.95,3.51c-4.32,7,5.29,17,9.45,20.78,1.08,1,1.8,1.55,1.8,1.55" transform="translate(-140.25 -92.4)" style="fill:none;stroke:#293b4a;stroke-linejoin:round;stroke-width:1.225000023841858px"></path><path d="M376.43,252.76c-4.47-1.5-8.69,5.72-5.81,9.28" transform="translate(-140.25 -92.4)" style="fill:none;stroke:#293b4a;stroke-linejoin:round;stroke-width:1.225000023841858px"></path><path d="M453.46,233.57l-21.53,4.18v59.93l41.21,2.16" transform="translate(-140.25 -92.4)" style="fill:none;stroke:#293b4a;stroke-miterlimit:10;stroke-width:1.225000023841858px"></path><path d="M473.15,229.81l-13.32,2.58" transform="translate(-140.25 -92.4)" style="fill:none;stroke:#293b4a;stroke-miterlimit:10;stroke-width:1.225000023841858px"></path><path d="M440.46,274.57l25-.46" transform="translate(-140.25 -92.4)" style="fill:none;stroke:#293b4a;stroke-linejoin:round;stroke-width:1.225000023841858px"></path><path d="M440.46,281l25,.51" transform="translate(-140.25 -92.4)" style="fill:none;stroke:#293b4a;stroke-linejoin:round;stroke-width:1.225000023841858px"></path><path d="M440.46,286.43l25,1" transform="translate(-140.25 -92.4)" style="fill:none;stroke:#293b4a;stroke-linejoin:round;stroke-width:1.225000023841858px"></path><path d="M459.83,202.37v39.25l-6.62-20.37H424.48a3.11,3.11,0,0,1-3.09-3.1V187.88a3.11,3.11,0,0,1,3.09-3.1h10" transform="translate(-140.25 -92.4)" style="fill:none;stroke:#293b4a;stroke-linejoin:round;stroke-width:1.225000023841858px"></path><path d="M431,209.33h19.28" transform="translate(-140.25 -92.4)" style="fill:none;stroke:#293b4a;stroke-linecap:round;stroke-linejoin:round;stroke-width:1.225000023841858px"></path><path d="M431,214h19.28" transform="translate(-140.25 -92.4)" style="fill:none;stroke:#293b4a;stroke-linecap:round;stroke-linejoin:round;stroke-width:1.225000023841858px"></path><path d="M435.63,341.46V334h20.71v7.48" transform="translate(-140.25 -92.4)" style="fill:none;stroke:#293b4a;stroke-miterlimit:10;stroke-width:1.225000023841858px"></path><path d="M438.2,333.37v-12.9h15.57v12.9" transform="translate(-140.25 -92.4)" style="fill:none;stroke:#293b4a;stroke-miterlimit:10;stroke-width:1.225000023841858px"></path><path d="M439,310.83l3.08,9.64" transform="translate(-140.25 -92.4)" style="fill:none;stroke:#293b4a;stroke-miterlimit:10;stroke-width:1.225000023841858px"></path><path d="M443.7,308.2l1.49,12.27" transform="translate(-140.25 -92.4)" style="fill:none;stroke:#293b4a;stroke-miterlimit:10;stroke-width:1.225000023841858px"></path><path d="M448.12,308.2l-.05,12.27" transform="translate(-140.25 -92.4)" style="fill:none;stroke:#293b4a;stroke-miterlimit:10;stroke-width:1.225000023841858px"></path><path d="M294.46,370.6s-1.65-20.22,9-37.29,20.56-48,63-48" transform="translate(-140.25 -92.4)" style="fill:none;stroke:#293b4a;stroke-miterlimit:10;stroke-width:1.225000023841858px"></path><path d="M395.39,292.93c7.86,4.9,14.24,15,12.85,25.27-5.55,40.28,12.85,52.45,12.85,52.45" transform="translate(-140.25 -92.4)" style="fill:none;stroke:#293b4a;stroke-miterlimit:10;stroke-width:1.225000023841858px"></path><path d="M354.74,322a28.33,28.33,0,0,0,17.32,4.12" transform="translate(-140.25 -92.4)" style="fill:none;stroke:#293b4a;stroke-miterlimit:10;stroke-width:1.225000023841858px"></path><path d="M338.86,320.37s-6.58,19-19.79,32.9" transform="translate(-140.25 -92.4)" style="fill:none;stroke:#293b4a;stroke-miterlimit:10;stroke-width:1.225000023841858px"></path><path d="M305.1,356c6.11.52,32.42-12.53,76.57,3.2,0,0-9.56,7-10.64,11.5" transform="translate(-140.25 -92.4)" style="fill:none;stroke:#293b4a;stroke-miterlimit:10;stroke-width:1.225000023841858px"></path><path d="M379.36,361s25.74.92,36.69,13.92c8.74,10.37-8.53-2.53-11.56-4.28,0,0,5.44,4.54,6,9.23s-4.57-3.81-9.35-7.68c0,0,4.52,4.18,3.85,8.3s-4.42-5.52-8.17-8.3" transform="translate(-140.25 -92.4)" style="fill:none;stroke:#293b4a;stroke-miterlimit:10;stroke-width:1.225000023841858px"></path><path d="M381.72,359.15a4,4,0,0,1,4.16,2.58" transform="translate(-140.25 -92.4)" style="fill:none;stroke:#293b4a;stroke-miterlimit:10;stroke-width:1.225000023841858px"></path><path d="M272.67,370.6h101.8" transform="translate(-140.25 -92.4)" style="fill:none;stroke:#293b4a;stroke-miterlimit:10;stroke-width:1.225000023841858px"></path><path d="M388.66,362s9.56,1.08,13.36.67,4.88,5.11,4.88,5.11" transform="translate(-140.25 -92.4)" style="fill:none;stroke:#293b4a;stroke-miterlimit:10;stroke-width:1.225000023841858px"></path><path d="M396.88,372.25a16.94,16.94,0,0,1,2.36,5.57c.52,2.84-1.79,4.75-2.31,1.19s-5-7.89-5-7.89c-3.86,1.39-8.23.25-9-1.29a60.62,60.62,0,0,1-8.38.82" transform="translate(-140.25 -92.4)" style="fill:none;stroke:#293b4a;stroke-miterlimit:10;stroke-width:1.225000023841858px"></path><path d="M397.65,315.42c-1,10.57,7.71,19.08,0,28.41s-4.83,18.88-4.83,18.88" transform="translate(-140.25 -92.4)" style="fill:none;stroke:#293b4a;stroke-miterlimit:10;stroke-width:1.225000023841858px"></path><path d="M380.28,315.42s-11.15-9.54-13.87-12.17l4-6.66-8.17-1.8s4.32-8.41,4.52-11,5.61-1.29,5.61-1.29S367.48,298.14,380.28,315.42Z" transform="translate(-140.25 -92.4)" style="fill:none;stroke:#293b4a;stroke-miterlimit:10;stroke-width:1.225000023841858px"></path><path d="M381.93,266.84s-2.68,4.12-11.41.87" transform="translate(-140.25 -92.4)" style="fill:none;stroke:#293b4a;stroke-linejoin:round;stroke-width:1.225000023841858px"></path><path d="M394.82,289.53s-2.31-3-4.77-2.79c0,0-1.75,19.65-9.72,28.68,0,0,9.66-6,12.64-10.52l-2.67-5.26s3.7-.42,5.09.41A90.42,90.42,0,0,0,394.82,289.53Z" transform="translate(-140.25 -92.4)" style="fill:none;stroke:#293b4a;stroke-linejoin:round;stroke-width:1.225000023841858px"></path><path d="M390.05,286.8a7.15,7.15,0,0,0-2.83-1.76" transform="translate(-140.25 -92.4)" style="fill:none;stroke:#293b4a;stroke-linejoin:round;stroke-width:1.225000023841858px"></path><path d="M380.28,315.42s-1.34,6.55.67,12.43" transform="translate(-140.25 -92.4)" style="fill:none;stroke:#293b4a;stroke-linejoin:round;stroke-width:1.225000023841858px"></path><path d="M480.13,207.58V320.94l45.43-17.69V217.43Z" transform="translate(-140.25 -92.4)" style="fill:none;stroke:#293b4a;stroke-miterlimit:10;stroke-width:1.225000023841858px"></path><path d="M480.13,207.58h-7V320.94h7" transform="translate(-140.25 -92.4)" style="fill:none;stroke:#293b4a;stroke-miterlimit:10;stroke-width:1.225000023841858px"></path><path d="M525.56,303.25v29.24h-7.29V306.08" transform="translate(-140.25 -92.4)" style="fill:none;stroke:#293b4a;stroke-miterlimit:10;stroke-width:1.225000023841858px"></path><path d="M513,308.25V328.1h-7.29v-17" transform="translate(-140.25 -92.4)" style="fill:none;stroke:#293b4a;stroke-miterlimit:10;stroke-width:1.225000023841858px"></path><path d="M520.48,285.51v10.62" transform="translate(-140.25 -92.4)" style="fill:none;stroke:#293b4a;stroke-miterlimit:10;stroke-width:1.225000023841858px"></path><path d="M518.21,286.23v10.62" transform="translate(-140.25 -92.4)" style="fill:none;stroke:#293b4a;stroke-miterlimit:10;stroke-width:1.225000023841858px"></path><path d="M516,287v10.62" transform="translate(-140.25 -92.4)" style="fill:none;stroke:#293b4a;stroke-miterlimit:10;stroke-width:1.225000023841858px"></path><path d="M525.56,326.2l31.71,10.36H524.54L492.83,326.2v25.16" transform="translate(-140.25 -92.4)" style="fill:none;stroke:#293b4a;stroke-miterlimit:10;stroke-width:1.225000023841858px"></path><path d="M525.1,341.1V365l-24-10.11" transform="translate(-140.25 -92.4)" style="fill:none;stroke:#293b4a;stroke-miterlimit:10;stroke-width:1.225000023841858px"></path><path d="M557.43,336.56v26.92L525.1,365" transform="translate(-140.25 -92.4)" style="fill:none;stroke:#293b4a;stroke-miterlimit:10;stroke-width:1.225000023841858px"></path><path d="M407.62,341.1l33.56,29.5H411.37" transform="translate(-140.25 -92.4)" style="fill:none;stroke:#293b4a;stroke-miterlimit:10;stroke-width:1.225000023841858px"></path><path d="M459.53,262.56c2.24,0,4.06-3.42,4.06-7.64s-1.82-7.63-4.06-7.63-4.06,3.42-4.06,7.63S457.28,262.56,459.53,262.56Z" transform="translate(-140.25 -92.4)" style="fill:none;stroke:#293b4a;stroke-linejoin:round;stroke-width:1.225000023841858px"></path><path d="M403.72,381.12A46,46,0,0,1,399,380" transform="translate(-140.25 -92.4)" style="fill:none;stroke:#293b4a;stroke-miterlimit:10;stroke-width:1.225000023841858px"></path><path d="M413.94,372.72c4,.36,9.82,5.31,8.43,7.58s-5.19,2.27-8.38,2.27a53.65,53.65,0,0,1-9.4-1.24" transform="translate(-140.25 -92.4)" style="fill:none;stroke:#293b4a;stroke-miterlimit:10;stroke-width:1.225000023841858px"></path><path d="M392.87,372.15c-1.8.26-3.08,2.73-3.44,3.25,0,0,.77,2.11,7.55,4.12" transform="translate(-140.25 -92.4)" style="fill:none;stroke:#293b4a;stroke-miterlimit:10;stroke-width:1.225000023841858px"></path><path d="M466.77,350.75l-29.24,4.69v2.63l25.8,19h35.36v-5.73Z" transform="translate(-140.25 -92.4)" style="fill:none;stroke:#293b4a;stroke-miterlimit:10;stroke-width:1.225000023841858px"></path><path d="M466.21,353.48l28,17.89-27.39,2.74" transform="translate(-140.25 -92.4)" style="fill:none;stroke:#293b4a;stroke-miterlimit:10;stroke-width:1.225000023841858px"></path><path d="M450.89,360.49l10.79,7.69" transform="translate(-140.25 -92.4)" style="fill:none;stroke:#293b4a;stroke-miterlimit:10;stroke-width:1.225000023841858px"></path><path d="M525.56,284.11s18.35.36,12.24,17a89.8,89.8,0,0,0-5.5,31.36" transform="translate(-140.25 -92.4)" style="fill:none;stroke:#293b4a;stroke-miterlimit:10;stroke-width:1.225000023841858px"></path><path d="M529.73,332.49h6" transform="translate(-140.25 -92.4)" style="fill:none;stroke:#293b4a;stroke-miterlimit:10;stroke-width:1.225000023841858px"></path><path d="M426.28,341.46h56.53" transform="translate(-140.25 -92.4)" style="fill:none;stroke:#293b4a;stroke-miterlimit:10;stroke-width:1.225000023841858px"></path><path d="M505.26,370.81h61" transform="translate(-140.25 -92.4)" style="fill:none;stroke:#293b4a;stroke-miterlimit:10;stroke-width:1.225000023841858px"></path><path d="M570.58,370.81H584.1" transform="translate(-140.25 -92.4)" style="fill:none;stroke:#293b4a;stroke-miterlimit:10;stroke-width:1.225000023841858px"></path><path d="M235.82,370.81h29.6" transform="translate(-140.25 -92.4)" style="fill:none;stroke:#293b4a;stroke-miterlimit:10;stroke-width:1.225000023841858px"></path><path d="M459.75,203.4a24.5,24.5,0,1,0-24.5-24.5A24.5,24.5,0,0,0,459.75,203.4Z" transform="translate(-140.25 -92.4)" style="fill:#ffe173"></path><path d="M462.53,167.84c2.56.78,4.34,2.73,4.34,4.91" transform="translate(-140.25 -92.4)" style="fill:none;stroke:#293b4a;stroke-miterlimit:10;stroke-width:1.225000023841858px"></path><path d="M459.89,178c-3.88,0-7.06-2.41-7.06-5.29s3.18-5.3,7.06-5.3" transform="translate(-140.25 -92.4)" style="fill:none;stroke:#293b4a;stroke-miterlimit:10;stroke-width:1.225000023841858px"></path><path d="M457.17,188.24c-2.56-.78-4.34-2.72-4.34-4.9" transform="translate(-140.25 -92.4)" style="fill:none;stroke:#293b4a;stroke-miterlimit:10;stroke-width:1.225000023841858px"></path><path d="M459.89,178c3.88,0,7.06,2.42,7.06,5.3s-3.18,5.29-7.06,5.29" transform="translate(-140.25 -92.4)" style="fill:none;stroke:#293b4a;stroke-miterlimit:10;stroke-width:1.225000023841858px"></path><path d="M459.89,163.25v30.67" transform="translate(-140.25 -92.4)" style="fill:none;stroke:#293b4a;stroke-miterlimit:10;stroke-width:1.225000023841858px"></path></svg>