<svg xmlns="http://www.w3.org/2000/svg" xmlns:xlink="http://www.w3.org/1999/xlink" id="Layer_1" data-name="Layer 1" viewBox="0 0 533 376"><defs><clipPath id="clip-path" transform="translate(-140.25 -92.4)"><rect x="315.25" y="188.4" width="264" height="188.49" style="fill:none"></rect></clipPath></defs><rect width="533" height="376" rx="30" style="fill:#fff"></rect><rect x="16" y="16" width="501" height="344" rx="15" style="fill:#f5f5f5"></rect><line x1="517" y1="43.5" x2="16" y2="43.5" style="fill:none;stroke:#fff"></line><line x1="521.57" y1="340.05" x2="12.15" y2="340.05" style="fill:none;stroke:#fff"></line><path d="M588.56,391.18H279.14a7.89,7.89,0,0,1-7.89-7.89v-159a7.93,7.93,0,0,1,7.89-7.94H588.56a7.89,7.89,0,0,1,7.89,7.89v159A7.9,7.9,0,0,1,588.56,391.18Z" transform="translate(-140.25 -92.4)" style="fill:#fff"></path><path d="M339.05,159.4H203.22a11,11,0,0,0-11,11v97.95a11,11,0,0,0,11,11h67.92l44,20.53V279.3h23.91a11,11,0,0,0,11-11V170.37A11,11,0,0,0,339.05,159.4Z" transform="translate(-140.25 -92.4)" style="fill:#19ad4a"></path><path d="M338.12,276.26H204.25a9.64,9.64,0,0,1-9.65-9.65V171.06a9.64,9.64,0,0,1,9.65-9.65H338.12a9.64,9.64,0,0,1,9.65,9.65v95.6A9.69,9.69,0,0,1,338.12,276.26Z" transform="translate(-140.25 -92.4)" style="fill:#fff"></path><path d="M263.44,184.83H230.91a1.28,1.28,0,1,1,0-2.55h32.53a1.28,1.28,0,1,1,0,2.55Z" transform="translate(-140.25 -92.4)" style="fill:#19ad4a;opacity:0.4000000059604645;isolation:isolate"></path><path d="M249.09,190.51H230.91a1.28,1.28,0,1,1,0-2.55h18.18a1.28,1.28,0,0,1,0,2.55Z" transform="translate(-140.25 -92.4)" style="fill:#19ad4a;opacity:0.4000000059604645;isolation:isolate"></path><path d="M208.31,221.85v-8.39h1.27v7.38h3.81v1Zm8.93.14a3.16,3.16,0,0,1-1.56-.38,2.92,2.92,0,0,1-1.06-1.09,3.4,3.4,0,0,1-.38-1.62,3.45,3.45,0,0,1,.37-1.64,2.9,2.9,0,0,1,1.06-1.11,3.11,3.11,0,0,1,1.58-.39,2.89,2.89,0,0,1,1.52.39,2.73,2.73,0,0,1,1,1,2.86,2.86,0,0,1,.36,1.42c0,.08,0,.17,0,.27s0,.18,0,.3h-4.62a1.84,1.84,0,0,0,.56,1.31,1.75,1.75,0,0,0,1.19.45,1.55,1.55,0,0,0,.89-.24,1.52,1.52,0,0,0,.56-.67H220a2.69,2.69,0,0,1-1,1.4A2.77,2.77,0,0,1,217.24,222Zm0-5.19a1.76,1.76,0,0,0-1.13.39,1.59,1.59,0,0,0-.6,1.12h3.36a1.52,1.52,0,0,0-.5-1.1A1.64,1.64,0,0,0,217.24,216.8Zm6.55,5a2.15,2.15,0,0,1-1.39-.42,1.92,1.92,0,0,1-.51-1.52V217h-1V215.9h1l.16-1.51h1.11v1.51h1.68V217h-1.68v2.94a1,1,0,0,0,.2.68,1.17,1.17,0,0,0,.73.18h.69v1.08Zm5.38,0V215.9h1.12l.11.84a2.1,2.1,0,0,1,.76-.72,2.29,2.29,0,0,1,1.1-.26,2,2,0,0,1,2,1.11,2.43,2.43,0,0,1,2.05-1.11,2.27,2.27,0,0,1,1.75.67,2.8,2.8,0,0,1,.64,2v3.42h-1.27v-3.29c0-1.15-.44-1.72-1.32-1.72a1.38,1.38,0,0,0-1.1.5,2.21,2.21,0,0,0-.42,1.44v3.07h-1.27v-3.29c0-1.15-.45-1.72-1.33-1.72a1.38,1.38,0,0,0-1.09.5,2.21,2.21,0,0,0-.42,1.44v3.07Zm13.75.14a3.15,3.15,0,0,1-1.55-.38,2.92,2.92,0,0,1-1.06-1.09,3.4,3.4,0,0,1-.38-1.62,3.45,3.45,0,0,1,.37-1.64,3,3,0,0,1,1-1.11,3.18,3.18,0,0,1,1.59-.39,2.89,2.89,0,0,1,1.52.39,2.73,2.73,0,0,1,1,1,3,3,0,0,1,.35,1.42,2.62,2.62,0,0,1,0,.27c0,.08,0,.18,0,.3h-4.63a1.84,1.84,0,0,0,.57,1.31,1.74,1.74,0,0,0,1.18.45,1.59,1.59,0,0,0,.9-.24,1.5,1.5,0,0,0,.55-.67h1.27a2.62,2.62,0,0,1-.95,1.4A2.8,2.8,0,0,1,242.92,222Zm0-5.19a1.76,1.76,0,0,0-1.12.39,1.59,1.59,0,0,0-.6,1.12h3.35a1.48,1.48,0,0,0-.49-1.1A1.64,1.64,0,0,0,242.92,216.8Zm7.24,5v-8.63h1.27v3.64a2.13,2.13,0,0,1,.83-.8,2.39,2.39,0,0,1,1.19-.3,2.12,2.12,0,0,1,1.67.67,2.88,2.88,0,0,1,.61,2v3.42h-1.25v-3.29c0-1.15-.46-1.72-1.38-1.72a1.61,1.61,0,0,0-1.2.5,2.06,2.06,0,0,0-.47,1.44v3.07ZM260,222a3.22,3.22,0,0,1-1.56-.38,2.89,2.89,0,0,1-1.05-1.09,3.29,3.29,0,0,1-.38-1.62,3.45,3.45,0,0,1,.37-1.64,2.81,2.81,0,0,1,1.05-1.11,3.14,3.14,0,0,1,1.58-.39,2.93,2.93,0,0,1,1.53.39,2.7,2.7,0,0,1,1,1,2.86,2.86,0,0,1,.36,1.42,2.62,2.62,0,0,1,0,.27c0,.08,0,.18,0,.3h-4.63a1.88,1.88,0,0,0,.56,1.31,1.77,1.77,0,0,0,1.19.45,1.59,1.59,0,0,0,.9-.24,1.5,1.5,0,0,0,.55-.67h1.27a2.69,2.69,0,0,1-1,1.4A2.77,2.77,0,0,1,260,222Zm0-5.19a1.78,1.78,0,0,0-1.13.39,1.62,1.62,0,0,0-.59,1.12h3.35a1.51,1.51,0,0,0-.49-1.1A1.64,1.64,0,0,0,260,216.8Zm4.22,5v-8.63h1.27v8.63Zm2.88,2.63V215.9h1.14l.13.93a2.72,2.72,0,0,1,.79-.75,2.42,2.42,0,0,1,1.29-.32,2.87,2.87,0,0,1,1.53.41,2.83,2.83,0,0,1,1,1.11,3.39,3.39,0,0,1,.38,1.61,3.35,3.35,0,0,1-.38,1.6,2.9,2.9,0,0,1-1,1.11,3,3,0,0,1-1.54.39,2.71,2.71,0,0,1-1.23-.27,2.25,2.25,0,0,1-.84-.78v3.54Zm3.13-3.59a1.8,1.8,0,0,0,1.34-.55,2.08,2.08,0,0,0,.53-1.46,2.23,2.23,0,0,0-.24-1,1.72,1.72,0,0,0-.66-.7,1.88,1.88,0,0,0-2.32.3,2.05,2.05,0,0,0-.51,1.45,2.11,2.11,0,0,0,.51,1.46A1.82,1.82,0,0,0,270.24,220.89Zm8.25,3.59,1.42-3.12h-.34l-2.35-5.46h1.38l1.82,4.4,1.9-4.4h1.35l-3.84,8.58ZM287,222a3.13,3.13,0,0,1-1.53-.38,3,3,0,0,1-1.07-1.09,3.34,3.34,0,0,1-.39-1.64,3.25,3.25,0,0,1,.39-1.63,2.88,2.88,0,0,1,1.09-1.1,3,3,0,0,1,1.52-.39,3,3,0,0,1,1.53.39,2.76,2.76,0,0,1,1.07,1.1,3.06,3.06,0,0,1,.41,1.63,3.15,3.15,0,0,1-.41,1.64,2.94,2.94,0,0,1-1.07,1.09A3.17,3.17,0,0,1,287,222Zm0-1.09a1.6,1.6,0,0,0,.84-.23,1.66,1.66,0,0,0,.64-.67,2.38,2.38,0,0,0,.24-1.12,2.35,2.35,0,0,0-.24-1.12,1.64,1.64,0,0,0-1.47-.91,1.61,1.61,0,0,0-1.47.91,2.35,2.35,0,0,0-.24,1.12,2.38,2.38,0,0,0,.24,1.12,1.68,1.68,0,0,0,.62.67A1.66,1.66,0,0,0,287,220.9Zm6.59,1.09a2.19,2.19,0,0,1-1.7-.67,2.87,2.87,0,0,1-.61-2V215.9h1.27v3.29c0,1.15.47,1.72,1.41,1.72a1.51,1.51,0,0,0,1.16-.5,2.06,2.06,0,0,0,.46-1.44V215.9h1.27v5.95h-1.13l-.09-1a2.17,2.17,0,0,1-.82.88A2.33,2.33,0,0,1,293.54,222Zm9.08-.14-1.75-5.95h1.27l1.15,4.49,1.3-4.49H306l1.29,4.49,1.16-4.49h1.27L308,221.85h-1.31l-1.37-4.68-1.36,4.68Zm8.86-7.07a.89.89,0,0,1-.6-.22.77.77,0,0,1-.23-.56.72.72,0,0,1,.23-.55.81.81,0,0,1,.6-.23.77.77,0,0,1,.59.23.69.69,0,0,1,.24.55.74.74,0,0,1-.24.56A.84.84,0,0,1,311.48,214.78Zm-.63,7.07V215.9h1.27v5.95Zm5.44,0a2.12,2.12,0,0,1-1.39-.42,1.89,1.89,0,0,1-.52-1.52V217h-1V215.9h1l.16-1.51h1.11v1.51h1.68V217h-1.68v2.94a1,1,0,0,0,.2.68,1.18,1.18,0,0,0,.74.18h.68v1.08Zm2.35,0v-8.63h1.27v3.64a2.06,2.06,0,0,1,.83-.8,2.38,2.38,0,0,1,1.18-.3,2.16,2.16,0,0,1,1.68.67,2.88,2.88,0,0,1,.61,2v3.42H323v-3.29c0-1.15-.46-1.72-1.38-1.72a1.6,1.6,0,0,0-1.19.5,2,2,0,0,0-.47,1.44v3.07ZM209,240.48l1.43-3.12H210l-2.35-5.46h1.38l1.82,4.4,1.9-4.4h1.35l-3.84,8.58Zm8.46-2.49a3.13,3.13,0,0,1-1.53-.38,3,3,0,0,1-1.07-1.09,3.34,3.34,0,0,1-.39-1.64,3.25,3.25,0,0,1,.39-1.63,2.88,2.88,0,0,1,1.09-1.1,3,3,0,0,1,1.52-.39,3,3,0,0,1,1.53.39,2.86,2.86,0,0,1,1.08,1.1,3.15,3.15,0,0,1,.4,1.63,3.24,3.24,0,0,1-.4,1.64,3,3,0,0,1-1.08,1.09A3.17,3.17,0,0,1,217.42,238Zm0-1.09a1.68,1.68,0,0,0,1.48-.9,2.38,2.38,0,0,0,.24-1.12,2.35,2.35,0,0,0-.24-1.12,1.54,1.54,0,0,0-.63-.68,1.6,1.6,0,0,0-.84-.23,1.61,1.61,0,0,0-1.47.91,2.35,2.35,0,0,0-.24,1.12A2.38,2.38,0,0,0,216,236a1.68,1.68,0,0,0,.62.67A1.66,1.66,0,0,0,217.42,236.9ZM224,238a2.19,2.19,0,0,1-1.7-.67,2.87,2.87,0,0,1-.61-2V231.9H223v3.29c0,1.15.47,1.72,1.41,1.72a1.51,1.51,0,0,0,1.16-.5A2.06,2.06,0,0,0,226,235V231.9h1.27v5.95h-1.13l-.09-1a2.17,2.17,0,0,1-.82.88A2.33,2.33,0,0,1,224,238Zm4.88-.14V231.9H230l.11,1.13a2.38,2.38,0,0,1,.86-.92,2.57,2.57,0,0,1,1.36-.35v1.33H232a2.4,2.4,0,0,0-.95.18,1.32,1.32,0,0,0-.65.59,2.25,2.25,0,0,0-.24,1.14v2.85Zm7.57,2.63V231.9h1.14l.13.93a2.72,2.72,0,0,1,.79-.75,2.39,2.39,0,0,1,1.29-.32,2.87,2.87,0,0,1,1.53.41,2.9,2.9,0,0,1,1,1.11,3.39,3.39,0,0,1,.38,1.61,3.35,3.35,0,0,1-.38,1.6,2.76,2.76,0,0,1-2.57,1.5,2.71,2.71,0,0,1-1.23-.27,2.25,2.25,0,0,1-.84-.78v3.54Zm3.13-3.59a1.8,1.8,0,0,0,1.34-.55,2.07,2.07,0,0,0,.52-1.46,2.35,2.35,0,0,0-.23-1,1.72,1.72,0,0,0-.66-.7,1.88,1.88,0,0,0-2.32.3,2.05,2.05,0,0,0-.51,1.45,2.11,2.11,0,0,0,.51,1.46A1.81,1.81,0,0,0,239.59,236.89Zm4.53,1v-8.63h1.27v8.63Zm4.9.14a2.7,2.7,0,0,1-1.25-.25,1.75,1.75,0,0,1-.73-.66,1.79,1.79,0,0,1-.24-.91,1.62,1.62,0,0,1,.67-1.37,3.2,3.2,0,0,1,1.92-.5h1.55v-.11a1.32,1.32,0,0,0-.38-1,1.37,1.37,0,0,0-1-.35,1.58,1.58,0,0,0-.92.27,1.05,1.05,0,0,0-.47.75h-1.27a2,2,0,0,1,.43-1.1,2.51,2.51,0,0,1,1-.71,3.18,3.18,0,0,1,1.28-.25,2.66,2.66,0,0,1,1.93.66,2.3,2.3,0,0,1,.69,1.77v3.66h-1.11l-.11-1a2.22,2.22,0,0,1-.73.83A2.17,2.17,0,0,1,249,238Zm.25-1a1.48,1.48,0,0,0,.86-.24,1.68,1.68,0,0,0,.55-.66,2.4,2.4,0,0,0,.25-.9h-1.41a1.71,1.71,0,0,0-1.08.27.81.81,0,0,0-.31.66.77.77,0,0,0,.3.64A1.42,1.42,0,0,0,249.27,237Zm6.8.89a2.15,2.15,0,0,1-1.39-.42,1.92,1.92,0,0,1-.51-1.52V233h-1V231.9h1l.15-1.51h1.12v1.51h1.67V233h-1.67v2.94a.91.91,0,0,0,.2.68,1.15,1.15,0,0,0,.73.18h.68v1.08Zm2.65,0V233h-.85V231.9h.85V231a1.76,1.76,0,0,1,.48-1.39,2,2,0,0,1,1.38-.43h.62v1.08h-.43a.83.83,0,0,0-.6.18.75.75,0,0,0-.18.57v.85h1.37V233H260v4.88Zm6.39.14a3.15,3.15,0,0,1-1.53-.38,3,3,0,0,1-1.07-1.09,3.34,3.34,0,0,1-.39-1.64,3.25,3.25,0,0,1,.39-1.63,2.88,2.88,0,0,1,1.09-1.1,3.06,3.06,0,0,1,1.53-.39,3,3,0,0,1,1.52.39,2.86,2.86,0,0,1,1.08,1.1,3.15,3.15,0,0,1,.4,1.63,3.24,3.24,0,0,1-.4,1.64,3,3,0,0,1-1.08,1.09A3.17,3.17,0,0,1,265.11,238Zm0-1.09a1.68,1.68,0,0,0,1.48-.9,2.38,2.38,0,0,0,.24-1.12,2.35,2.35,0,0,0-.24-1.12,1.54,1.54,0,0,0-.63-.68,1.6,1.6,0,0,0-.83-.23,1.73,1.73,0,0,0-.86.23,1.71,1.71,0,0,0-.62.68,2.35,2.35,0,0,0-.24,1.12,2.38,2.38,0,0,0,.24,1.12,1.68,1.68,0,0,0,.62.67A1.66,1.66,0,0,0,265.11,236.9Zm4.4.95V231.9h1.14l.1,1.13a2.34,2.34,0,0,1,.87-.92,2.51,2.51,0,0,1,1.35-.35v1.33h-.35a2.35,2.35,0,0,0-.94.18,1.39,1.39,0,0,0-.66.59,2.25,2.25,0,0,0-.24,1.14v2.85Zm4.55,0V231.9h1.13l.1.84a2.28,2.28,0,0,1,.76-.72,2.32,2.32,0,0,1,1.1-.26,2,2,0,0,1,2,1.11,2.31,2.31,0,0,1,.86-.81,2.45,2.45,0,0,1,1.19-.3,2.3,2.3,0,0,1,1.75.67,2.84,2.84,0,0,1,.63,2v3.42h-1.27v-3.29c0-1.15-.44-1.72-1.32-1.72a1.41,1.41,0,0,0-1.1.5,2.21,2.21,0,0,0-.42,1.44v3.07h-1.27v-3.29c0-1.15-.44-1.72-1.33-1.72a1.39,1.39,0,0,0-1.09.5,2.21,2.21,0,0,0-.42,1.44v3.07Zm16.78.14a3.16,3.16,0,0,1-1.56-.38,2.92,2.92,0,0,1-1.06-1.09,3.4,3.4,0,0,1-.38-1.62,3.57,3.57,0,0,1,.37-1.64,2.9,2.9,0,0,1,1.06-1.11,3.11,3.11,0,0,1,1.58-.39,2.89,2.89,0,0,1,1.52.39,2.73,2.73,0,0,1,1,1,2.86,2.86,0,0,1,.36,1.42c0,.08,0,.17,0,.27s0,.18,0,.3h-4.62a1.88,1.88,0,0,0,.56,1.31,1.75,1.75,0,0,0,1.19.45,1.59,1.59,0,0,0,.9-.24,1.57,1.57,0,0,0,.55-.67h1.27a2.69,2.69,0,0,1-1,1.4A2.77,2.77,0,0,1,290.84,238Zm0-5.19a1.76,1.76,0,0,0-1.13.39,1.59,1.59,0,0,0-.6,1.12h3.36a1.55,1.55,0,0,0-.49-1.1A1.68,1.68,0,0,0,290.84,232.8Zm4.22,5V231.9h1.12l.1,1a2,2,0,0,1,.8-.87,2.41,2.41,0,0,1,1.24-.32,2.18,2.18,0,0,1,1.69.67,2.89,2.89,0,0,1,.62,2v3.42h-1.26v-3.29c0-1.15-.47-1.72-1.41-1.72a1.55,1.55,0,0,0-1.18.5,2.11,2.11,0,0,0-.45,1.44v3.07Zm11.86,2.63v-3.56a2.85,2.85,0,0,1-.79.75,2.43,2.43,0,0,1-1.3.32,2.77,2.77,0,0,1-1.52-.41,2.83,2.83,0,0,1-1-1.11,3.38,3.38,0,0,1-.37-1.61,3.28,3.28,0,0,1,.37-1.59,2.73,2.73,0,0,1,1-1.1,2.93,2.93,0,0,1,1.54-.41,2.54,2.54,0,0,1,1.23.28,2,2,0,0,1,.84.77l.13-.91h1.14v8.58Zm-1.86-3.59a1.74,1.74,0,0,0,1.33-.56,2.05,2.05,0,0,0,.53-1.45,2,2,0,0,0-.53-1.45,1.71,1.71,0,0,0-1.33-.57,1.75,1.75,0,0,0-1.34.57,2,2,0,0,0-.53,1.45,2.21,2.21,0,0,0,.24,1,1.91,1.91,0,0,0,.66.72A2,2,0,0,0,305.06,236.89ZM312,238a2.2,2.2,0,0,1-1.7-.67,2.87,2.87,0,0,1-.61-2V231.9h1.27v3.29c0,1.15.47,1.72,1.41,1.72a1.53,1.53,0,0,0,1.17-.5A2.11,2.11,0,0,0,314,235V231.9h1.27v5.95h-1.12l-.1-1a2.08,2.08,0,0,1-.81.88A2.37,2.37,0,0,1,312,238Zm5.6-7.21a.89.89,0,0,1-.6-.22.77.77,0,0,1-.23-.56.72.72,0,0,1,.23-.55.81.81,0,0,1,.6-.23.78.78,0,0,1,.59.23.69.69,0,0,1,.24.55.74.74,0,0,1-.24.56A.86.86,0,0,1,317.58,230.78Zm-.64,7.07V231.9h1.27v5.95Zm2.95,0V231.9H321l.11,1.13a2.25,2.25,0,0,1,.86-.92,2.53,2.53,0,0,1,1.35-.35v1.33H323a2.37,2.37,0,0,0-.95.18,1.39,1.39,0,0,0-.66.59,2.25,2.25,0,0,0-.24,1.14v2.85Zm5.25,2.63,1.42-3.12h-.34l-2.35-5.46h1.38l1.82,4.4,1.9-4.4h1.35l-3.84,8.58Z" transform="translate(-140.25 -92.4)" style="fill:#293b4a"></path><path d="M215.57,194.38a8.13,8.13,0,1,0-8.13-8.13A8.14,8.14,0,0,0,215.57,194.38Z" transform="translate(-140.25 -92.4)" style="fill:#19ad4a;opacity:0.4000000059604645;isolation:isolate"></path><path d="M207.44,202.66H335.91" transform="translate(-140.25 -92.4)" style="fill:none;stroke:#f1f3f5;stroke-miterlimit:10;stroke-width:0.489982008934021px"></path><path d="M207.44,260.92H335.91" transform="translate(-140.25 -92.4)" style="fill:none;stroke:#f1f3f5;stroke-miterlimit:10;stroke-width:0.489982008934021px"></path><g style="clip-path:url(#clip-path)"><path d="M504,287a30.21,30.21,0,0,1-5.82,14.79,8.74,8.74,0,0,0,3.93,13.44c.1.05.2.05.3.1s-4.53,26.14-7.72,34.4" transform="translate(-140.25 -92.4)" style="fill:none;stroke:#293b4a;stroke-miterlimit:10;stroke-width:1.491529941558838px"></path><path d="M553.11,315.45a148.65,148.65,0,0,1-4.58,21.91" transform="translate(-140.25 -92.4)" style="fill:none;stroke:#293b4a;stroke-miterlimit:10;stroke-width:1.491529941558838px"></path><path d="M548.58,297.28a105.14,105.14,0,0,1,4.93,22s11.15,2,19-6.92" transform="translate(-140.25 -92.4)" style="fill:none;stroke:#293b4a;stroke-miterlimit:10;stroke-width:1.491529941558838px"></path><path d="M555.6,319.48c2.74,6.82,6.62,14.14,6.62,14.14" transform="translate(-140.25 -92.4)" style="fill:none;stroke:#293b4a;stroke-miterlimit:10;stroke-width:1.491529941558838px"></path><path d="M567.65,333.37C560,331.63,526,346.91,526,346.91s-13.1-6.52-21.56,5.68c0,0-1.59,3.19,2,1.89" transform="translate(-140.25 -92.4)" style="fill:none;stroke:#293b4a;stroke-miterlimit:10;stroke-width:1.491529941558838px"></path><path d="M520.14,349s-6.87-1.15-12.24,6.12c-1.4,1.89-2-.55-.55-2.34a11.71,11.71,0,0,1,4.73-4.13" transform="translate(-140.25 -92.4)" style="fill:none;stroke:#293b4a;stroke-miterlimit:10;stroke-width:1.491529941558838px"></path><path d="M523,351.74s-3.93-2.73-8.91,4c-.85,1.14-4.08.59-2-1.35,1.54-1.44,2.79-2.59,2.79-2.59" transform="translate(-140.25 -92.4)" style="fill:none;stroke:#293b4a;stroke-miterlimit:10;stroke-width:1.491529941558838px"></path><path d="M539.31,270.15c-8,14.53-19.86,19.91-19.86,19.91s-4.78-4.73-1.4-20.51c-14,0-21.81,10.4-27.58,38a18.52,18.52,0,0,1,6.07,2" transform="translate(-140.25 -92.4)" style="fill:none;stroke:#293b4a;stroke-linejoin:round;stroke-width:1.491529941558838px"></path><path d="M537.12,269.85c7.57.79,16,3.83,19.32,8.46,17.63,24.84,22.36,61.14,22.36,61.14s-5.18,9.56-47.1,13.24c0,0-2.69,3.93-13.25,3.63" transform="translate(-140.25 -92.4)" style="fill:none;stroke:#293b4a;stroke-linejoin:round;stroke-width:1.491529941558838px"></path><path d="M470.75,344.87c24.5-3.28,27.78-9.9,27.78-9.9" transform="translate(-140.25 -92.4)" style="fill:none;stroke:#293b4a;stroke-linejoin:round;stroke-width:1.491529941558838px"></path><path d="M493.21,308.08a165,165,0,0,0-5.38,21.61c-3-.7-10.71,1.64-17.53,4.13" transform="translate(-140.25 -92.4)" style="fill:none;stroke:#293b4a;stroke-miterlimit:10;stroke-width:1.491529941558838px"></path><path d="M511,315.45c18.13,1.59,20.82,4,20.82,4" transform="translate(-140.25 -92.4)" style="fill:none;stroke:#293b4a;stroke-miterlimit:10;stroke-width:1.491529941558838px"></path><path d="M517.36,273.33c2.09,16.73,19.76-3.48,19.76-3.48" transform="translate(-140.25 -92.4)" style="fill:none;stroke:#293b4a;stroke-miterlimit:10;stroke-width:1.491529941558838px"></path><path d="M364.34,216.78H457.8v96.38L447,314.8l-45-4.38" transform="translate(-140.25 -92.4)" style="fill:none;stroke:#293b4a;stroke-miterlimit:10;stroke-width:1.491529941558838px"></path><path d="M447,311.57V223.3" transform="translate(-140.25 -92.4)" style="fill:none;stroke:#293b4a;stroke-miterlimit:10;stroke-width:1.491529941558838px"></path><path d="M470.8,347l34.95,3.94" transform="translate(-140.25 -92.4)" style="fill:none;stroke:#293b4a;stroke-miterlimit:10;stroke-width:1.491529941558838px"></path><path d="M470.85,351.3l25.39,2.88" transform="translate(-140.25 -92.4)" style="fill:none;stroke:#293b4a;stroke-miterlimit:10;stroke-width:1.491529941558838px"></path><path d="M470.9,355.53l14.64,1.64" transform="translate(-140.25 -92.4)" style="fill:none;stroke:#293b4a;stroke-miterlimit:10;stroke-width:1.491529941558838px"></path><path d="M470.9,360.51l38.79,5,35.6-6.72" transform="translate(-140.25 -92.4)" style="fill:none;stroke:#293b4a;stroke-miterlimit:10;stroke-width:1.491529941558838px"></path><path d="M316.44,317.09l123.14,14.24,31.07-6.42v52" transform="translate(-140.25 -92.4)" style="fill:none;stroke:#293b4a;stroke-miterlimit:10;stroke-width:1.491529941558838px"></path><path d="M438,320.68l32.66,4.23" transform="translate(-140.25 -92.4)" style="fill:none;stroke:#293b4a;stroke-miterlimit:10;stroke-width:1.491529941558838px"></path><path d="M471,364l39.14,5.08,22.35-4.18" transform="translate(-140.25 -92.4)" style="fill:none;stroke:#293b4a;stroke-miterlimit:10;stroke-width:1.491529941558838px"></path><path d="M530.8,294.14l11.45.9v3.88l-12.1-1.24Z" transform="translate(-140.25 -92.4)" style="fill:#293b4a"></path><path d="M513.27,289.46l12.75,1.1-2.89,18.27-12.45-2.14Z" transform="translate(-140.25 -92.4)" style="fill:none;stroke:#293b4a;stroke-miterlimit:10;stroke-width:1.491529941558838px"></path><path d="M515.12,293.94l6.82.8" transform="translate(-140.25 -92.4)" style="fill:none;stroke:#293b4a;stroke-miterlimit:10;stroke-width:1.491529941558838px"></path><path d="M514.87,296.43l4.18.45" transform="translate(-140.25 -92.4)" style="fill:none;stroke:#293b4a;stroke-miterlimit:10;stroke-width:1.491529941558838px"></path><path d="M439.73,369.12V331.33" transform="translate(-140.25 -92.4)" style="fill:none;stroke:#293b4a;stroke-miterlimit:10;stroke-width:1.491529941558838px"></path><path d="M469.7,216.88,485,206.52" transform="translate(-140.25 -92.4)" style="fill:none;stroke:#293b4a;stroke-miterlimit:10;stroke-width:1.491529941558838px"></path><path d="M469.7,284.53l15.44,5.88" transform="translate(-140.25 -92.4)" style="fill:none;stroke:#293b4a;stroke-miterlimit:10;stroke-width:1.491529941558838px"></path><path d="M469.61,250.13,484.29,249" transform="translate(-140.25 -92.4)" style="fill:none;stroke:#293b4a;stroke-miterlimit:10;stroke-width:1.491529941558838px"></path><path d="M469.85,231.71l7.77-2.14" transform="translate(-140.25 -92.4)" style="fill:none;stroke:#293b4a;stroke-miterlimit:10;stroke-width:1.491529941558838px"></path><path d="M469.75,266.76l7.92,1.34" transform="translate(-140.25 -92.4)" style="fill:none;stroke:#293b4a;stroke-miterlimit:10;stroke-width:1.491529941558838px"></path><path d="M457.9,204.18l5.88-15.43" transform="translate(-140.25 -92.4)" style="fill:none;stroke:#293b4a;stroke-miterlimit:10;stroke-width:1.491529941558838px"></path><path d="M370.57,204.38l-4.63-15.83" transform="translate(-140.25 -92.4)" style="fill:none;stroke:#293b4a;stroke-miterlimit:10;stroke-width:1.491529941558838px"></path><path d="M415.08,204.28,414,189.59" transform="translate(-140.25 -92.4)" style="fill:none;stroke:#293b4a;stroke-miterlimit:10;stroke-width:1.491529941558838px"></path><path d="M392.48,204l-2.14-7.77" transform="translate(-140.25 -92.4)" style="fill:none;stroke:#293b4a;stroke-miterlimit:10;stroke-width:1.491529941558838px"></path><path d="M437,204.13l1.35-7.92" transform="translate(-140.25 -92.4)" style="fill:none;stroke:#293b4a;stroke-miterlimit:10;stroke-width:1.491529941558838px"></path><path d="M376.94,278.36c2.12,0,3.84-3.81,3.84-8.51s-1.72-8.52-3.84-8.52-3.83,3.82-3.83,8.52S374.82,278.36,376.94,278.36Z" transform="translate(-140.25 -92.4)" style="fill:none;stroke:#293b4a;stroke-miterlimit:10;stroke-width:1.491529941558838px"></path><path d="M410.35,323.66c10.76-.64,10-3,10-3l-2.64-1.05c-13-5.18-23.1-13-26.19-26.73,0,0-2.34-12.3-1.39-33.71" transform="translate(-140.25 -92.4)" style="fill:none;stroke:#293b4a;stroke-miterlimit:10;stroke-width:1.491529941558838px"></path><path d="M522.48,245.6a1.15,1.15,0,1,0-1.14-1.14A1.14,1.14,0,0,0,522.48,245.6Z" transform="translate(-140.25 -92.4)" style="fill:#293b4a"></path><path d="M514.57,245.15a.95.95,0,0,0,0-1.89.95.95,0,1,0,0,1.89Z" transform="translate(-140.25 -92.4)" style="fill:#293b4a"></path><path d="M518.3,238.93a17.45,17.45,0,0,1-4.28,10,1,1,0,0,0,.6,1.69l2.94.5" transform="translate(-140.25 -92.4)" style="fill:none;stroke:#293b4a;stroke-linejoin:round;stroke-width:1.491529941558838px"></path><path d="M522.29,253.82a5.18,5.18,0,0,1-6.58,1.29" transform="translate(-140.25 -92.4)" style="fill:none;stroke:#293b4a;stroke-miterlimit:10;stroke-width:1.491529941558838px"></path><path d="M516,250.78a49.62,49.62,0,0,1-.55,6.47c-.39,2.74,0,4.53,2.64,5.23,2.39.6,5.28-.4,7.67-2.79" transform="translate(-140.25 -92.4)" style="fill:none;stroke:#293b4a;stroke-miterlimit:10;stroke-width:1.491529941558838px"></path><path d="M529.21,223.05c-20.12-6.62-16.14,14.14-16.14,14.14a50.29,50.29,0,0,0,16.78-1.35s5.83,8.57-1.19,21.36c0,0,.6,16.08,18.67,3.69C547.28,260.94,551.36,219.61,529.21,223.05Z" transform="translate(-140.25 -92.4)" style="fill:#293b4a;fill-rule:evenodd"></path><path d="M518.05,269.55s5-1.45,5-7.87" transform="translate(-140.25 -92.4)" style="fill:none;stroke:#293b4a;stroke-linejoin:round;stroke-width:1.491529941558838px"></path><path d="M537.12,269.85a8.67,8.67,0,0,1-4.13-8.62" transform="translate(-140.25 -92.4)" style="fill:none;stroke:#293b4a;stroke-linejoin:round;stroke-width:1.491529941558838px"></path><path d="M492.06,311.17s-1-.85-1.59-3.64" transform="translate(-140.25 -92.4)" style="fill:none;stroke:#293b4a;stroke-linejoin:round;stroke-width:1.491529941558838px"></path><path d="M315.35,349.3l74.49,13" transform="translate(-140.25 -92.4)" style="fill:none;stroke:#293b4a;stroke-miterlimit:10;stroke-width:1.491529941558838px"></path></g></svg>