<svg xmlns="http://www.w3.org/2000/svg" id="Layer_1" data-name="Layer 1" viewBox="0 0 305 168"><rect width="305" height="168" rx="11.54" style="fill:#fff"></rect><path d="M524.14,656.55l3.36-9.11h1.87l3.33,9.11h-1.8l-.72-2.11h-3.56l-.74,2.11Zm2.94-3.41h2.64l-1.33-3.78Zm8.07,3.41v-9.11h3.35a4,4,0,0,1,1.81.37,2.41,2.41,0,0,1,1.07,1,2.86,2.86,0,0,1,.35,1.43,2.81,2.81,0,0,1-.34,1.39,2.44,2.44,0,0,1-1.06,1,3.83,3.83,0,0,1-1.83.37h-1.69v3.52Zm1.66-4.88h1.61a1.67,1.67,0,0,0,1.24-.37,1.42,1.42,0,0,0,.4-1.06,1.34,1.34,0,0,0-.4-1,1.68,1.68,0,0,0-1.24-.39h-1.61Zm7.54,4.88v-9.11h3.38a4,4,0,0,1,1.8.37,2.31,2.31,0,0,1,1.07,1,3,3,0,0,1,0,2.82,2.35,2.35,0,0,1-1,1,4,4,0,0,1-1.83.38H546v3.52Zm1.67-4.88h1.6a1.71,1.71,0,0,0,1.25-.37,1.43,1.43,0,0,0,.39-1.06,1.33,1.33,0,0,0-.39-1,1.7,1.7,0,0,0-1.25-.39H546Zm7.54,4.88v-9.11h1.67v7.81h4v1.3Zm8.47,0v-9.11h1.67v9.11Zm8.86.16a4.61,4.61,0,0,1-2.37-.59,4,4,0,0,1-1.52-1.65,5.87,5.87,0,0,1,0-4.92,4,4,0,0,1,1.52-1.66,4.57,4.57,0,0,1,2.37-.6,4.2,4.2,0,0,1,2.68.82,3.45,3.45,0,0,1,1.31,2.27h-1.83a1.88,1.88,0,0,0-.73-1.15,2.35,2.35,0,0,0-1.46-.43,2.48,2.48,0,0,0-2,.86,4.26,4.26,0,0,0,0,4.71,2.82,2.82,0,0,0,3.44.45,1.82,1.82,0,0,0,.73-1.1h1.83a3.33,3.33,0,0,1-1.31,2.19A4.2,4.2,0,0,1,570.89,656.71Zm6.07-.16,3.33-9.11h1.87l3.34,9.11h-1.77l-.73-2.11h-3.56l-.74,2.11Zm2.94-3.41h2.6l-1.33-3.78Zm9.23,3.41v-7.77H586.5v-1.34h7v1.34h-2.67v7.77Zm6.86,0v-9.11h1.67v9.11Zm9,.16a4.73,4.73,0,0,1-2.4-.6,4.3,4.3,0,0,1-1.6-1.65,5.57,5.57,0,0,1,0-4.91,4.32,4.32,0,0,1,1.6-1.66,5.06,5.06,0,0,1,4.78,0,4.12,4.12,0,0,1,1.6,1.66,5.57,5.57,0,0,1,0,4.91,4.16,4.16,0,0,1-1.6,1.65,4.57,4.57,0,0,1-2.37.6Zm0-1.5a2.58,2.58,0,0,0,2.06-.86,3.89,3.89,0,0,0,0-4.71,2.62,2.62,0,0,0-2.06-.86,2.72,2.72,0,0,0-2.09.86,4,4,0,0,0,0,4.71,2.66,2.66,0,0,0,2.1.86Zm7.32,1.34v-9.11H614l4.28,6.42v-6.42h1.67v9.11h-1.67l-4.28-6.4v6.4Zm19.21.16a4.61,4.61,0,0,1-2.37-.59,4,4,0,0,1-1.52-1.65,6,6,0,0,1,0-4.92,4,4,0,0,1,1.52-1.66,4.57,4.57,0,0,1,2.37-.6,4.2,4.2,0,0,1,2.68.82,3.5,3.5,0,0,1,1.32,2.27h-1.84a1.88,1.88,0,0,0-.73-1.15,2.29,2.29,0,0,0-1.46-.43,2.4,2.4,0,0,0-2,.86,4.21,4.21,0,0,0,0,4.71,2.8,2.8,0,0,0,3.43.45,1.82,1.82,0,0,0,.73-1.1h1.85a3.38,3.38,0,0,1-1.32,2.19,4.26,4.26,0,0,1-2.68.8Zm6.77-.16v-9.11H640v3.79H644v-3.79h1.67v9.11H644v-4H640v4Zm10.49,0v-9.11h6v1.34H650.5v2.5h3.89v1.3H650.5v2.63h4.28v1.34Zm13,.16a4.61,4.61,0,0,1-2.37-.59,4,4,0,0,1-1.52-1.65,6,6,0,0,1,0-4.92,4.06,4.06,0,0,1,1.52-1.66,4.57,4.57,0,0,1,2.37-.6,4.2,4.2,0,0,1,2.68.82,3.5,3.5,0,0,1,1.32,2.27H663.9a1.79,1.79,0,0,0-.73-1.15,2.29,2.29,0,0,0-1.46-.43,2.4,2.4,0,0,0-2,.86,4.21,4.21,0,0,0,0,4.71,2.8,2.8,0,0,0,3.43.45,1.74,1.74,0,0,0,.73-1.1h1.84a3.38,3.38,0,0,1-1.32,2.19,4.26,4.26,0,0,1-2.65.8Zm6.77-.16v-9.11h1.67v3.69l3.37-3.69h2l-3.35,3.62,3.45,5.49h-2l-2.6-4.21-.87.95v3.26Z" transform="translate(-447.39 -515.55)" style="fill:#19ad4a"></path><path d="M599.93,615.63a32.54,32.54,0,1,0-32.54-32.54h0A32.54,32.54,0,0,0,599.93,615.63Z" transform="translate(-447.39 -515.55)" style="fill:#293b4a"></path><path d="M599.73,623.34a9.41,9.41,0,1,0-9.4-9.42h0a9.4,9.4,0,0,0,9.39,9.41Z" transform="translate(-447.39 -515.55)" style="fill:#293b4a"></path><path d="M599.82,621.52a7.59,7.59,0,1,0-7.59-7.59,7.59,7.59,0,0,0,7.59,7.59Z" transform="translate(-447.39 -515.55)" style="fill:#19ad4a"></path><path d="M597.25,612.93l-.94.94,2,2,.94-.94Z" transform="translate(-447.39 -515.55)" style="fill:#293b4a"></path><path d="M602.33,611.32,598,615.6l.94.94,4.29-4.28Z" transform="translate(-447.39 -515.55)" style="fill:#293b4a"></path><path d="M609,575.39l3.83,3.88-3.45,3.45-11.93,11.93-11-11,3.88-3.84" transform="translate(-447.39 -515.55)" style="fill:none;stroke:#ffcd00;stroke-miterlimit:10"></path><path d="M612.81,571.58l-11-11-15.39,15.35,11,11Z" transform="translate(-447.39 -515.55)" style="fill:none;stroke:#ffcd00;stroke-miterlimit:10"></path><path d="M609.57,582.51l3.75,3.75-15.38,15.38-11-11,3.2-3.24" transform="translate(-447.39 -515.55)" style="fill:none;stroke:#ffcd00;stroke-miterlimit:10"></path><path d="M598.78,582.05l-7.46-7.5" transform="translate(-447.39 -515.55)" style="fill:none;stroke:#ffcd00;stroke-miterlimit:10"></path><path d="M601,579.81l-7.45-7.5" transform="translate(-447.39 -515.55)" style="fill:none;stroke:#ffcd00;stroke-miterlimit:10"></path><path d="M603.37,577.46l-7.5-7.46" transform="translate(-447.39 -515.55)" style="fill:none;stroke:#ffcd00;stroke-miterlimit:10"></path><path d="M603.75,567.6,601,564.86" transform="translate(-447.39 -515.55)" style="fill:none;stroke:#ffcd00;stroke-miterlimit:10"></path></svg>