<svg xmlns="http://www.w3.org/2000/svg" id="Layer_1" data-name="Layer 1" viewBox="0 0 305 168"><rect width="305" height="168" rx="11.54" style="fill:#fff"></rect><path d="M505.58,656.55v-9.11h3.11a5.42,5.42,0,0,1,2.63.58,3.44,3.44,0,0,1,1.53,1.58,5.93,5.93,0,0,1,0,4.81,3.49,3.49,0,0,1-1.53,1.58,5.32,5.32,0,0,1-2.63.56Zm1.67-1.43h1.36a3.74,3.74,0,0,0,1.81-.36,2.11,2.11,0,0,0,.95-1.07,5,5,0,0,0,0-3.37,2.09,2.09,0,0,0-.95-1.08,3.65,3.65,0,0,0-1.81-.38h-1.36Zm13.15,1.59a4.67,4.67,0,0,1-2.39-.6,4.3,4.3,0,0,1-1.6-1.65,5,5,0,0,1-.58-2.46,5.23,5.23,0,0,1,.58-2.45,4.32,4.32,0,0,1,1.6-1.66,5,5,0,0,1,4.77,0,4.06,4.06,0,0,1,1.6,1.66A5,5,0,0,1,525,652a4.78,4.78,0,0,1-.58,2.46,4.1,4.1,0,0,1-1.6,1.65A4.58,4.58,0,0,1,520.4,656.71Zm0-1.5a2.57,2.57,0,0,0,2.07-.86,4,4,0,0,0,0-4.71,2.64,2.64,0,0,0-2.07-.86,2.7,2.7,0,0,0-2.08.86,4,4,0,0,0,0,4.71A2.63,2.63,0,0,0,520.4,655.21Zm11.45,1.5a4.46,4.46,0,0,1-2.36-.59,4.06,4.06,0,0,1-1.53-1.65,6,6,0,0,1,0-4.92,4.08,4.08,0,0,1,1.53-1.66,4.56,4.56,0,0,1,2.36-.6,4.2,4.2,0,0,1,2.68.82,3.42,3.42,0,0,1,1.32,2.27H534a1.82,1.82,0,0,0-.72-1.15,2.35,2.35,0,0,0-1.46-.43,2.48,2.48,0,0,0-2,.86,4.21,4.21,0,0,0,0,4.71,2.82,2.82,0,0,0,3.44.45,1.77,1.77,0,0,0,.72-1.1h1.84a3.28,3.28,0,0,1-1.32,2.19A4.2,4.2,0,0,1,531.85,656.71Zm10.29,0a4.07,4.07,0,0,1-1.81-.39,3.2,3.2,0,0,1-1.29-1.21,4.15,4.15,0,0,1-.47-2.05v-5.62h1.67v5.64a2.23,2.23,0,0,0,.51,1.59,2.2,2.2,0,0,0,2.85,0,2.15,2.15,0,0,0,.52-1.59v-5.64h1.66v5.62a3.84,3.84,0,0,1-.49,2.05,3,3,0,0,1-1.33,1.21A4.06,4.06,0,0,1,542.14,656.71Zm6.64-.16v-9.11h2l2.9,5.78,2.87-5.78h2v9.11h-1.66v-6.28l-2.54,5H553l-2.54-5v6.28Zm12.79,0v-9.11h5.93v1.34h-4.28v2.5h3.89v1.3h-3.89v2.63h4.28v1.34Zm8.83,0v-9.11h1.66l4.29,6.42v-6.42H578v9.11h-1.66l-4.29-6.4v6.4Zm12.8,0v-7.77h-2.65v-1.34h7v1.34h-2.66v7.77Zm13.91,0-3.33-9.11h1.78l2.58,7.41,2.59-7.41h1.77l-3.33,9.11Zm7.76,0v-9.11h6v1.34H606.5v2.5h3.89v1.3H606.5v2.63h4.28v1.34Zm8.83,0v-9.11H617a3.84,3.84,0,0,1,1.8.38,2.44,2.44,0,0,1,1.06,1,2.81,2.81,0,0,1-.09,2.92,2.35,2.35,0,0,1-1.35,1l1.89,3.81h-1.92L616.74,653h-1.38v3.59Zm1.66-4.81h1.58a1.6,1.6,0,0,0,1.22-.41,1.43,1.43,0,0,0,.39-1.06,1.39,1.39,0,0,0-.39-1,1.68,1.68,0,0,0-1.24-.39h-1.56Zm7.75,4.81v-9.11h1.66v9.11Zm4.73,0v-9.11h5.88v1.34H629.5v2.55h3.41v1.32H629.5v3.9Zm8.47,0v-9.11H638v9.11Zm8.86.16a4.61,4.61,0,0,1-2.37-.59,4.06,4.06,0,0,1-1.53-1.65,6,6,0,0,1,0-4.92,4.08,4.08,0,0,1,1.53-1.66,4.57,4.57,0,0,1,2.37-.6,4.2,4.2,0,0,1,2.68.82,3.45,3.45,0,0,1,1.31,2.27h-1.83a1.9,1.9,0,0,0-.73-1.15,2.35,2.35,0,0,0-1.46-.43,2.48,2.48,0,0,0-2,.86,3.55,3.55,0,0,0-.64,2.34,3.61,3.61,0,0,0,.71,2.36,2.82,2.82,0,0,0,3.44.45,1.88,1.88,0,0,0,.73-1.1h1.83a3.33,3.33,0,0,1-1.31,2.19,4.29,4.29,0,0,1-2.73.81Zm6.07-.16,3.33-9.11h1.87l3.33,9.11H658l-.73-2.11h-3.55l-.74,2.11Zm2.94-3.41h2.64l-1.32-3.78Zm9.22,3.41v-7.77h-2.65v-1.34h7v1.34h-2.67v7.77Zm6.87,0v-9.11h1.67v9.11Zm9,.16a4.67,4.67,0,0,1-2.39-.6,4.3,4.3,0,0,1-1.6-1.65,5.57,5.57,0,0,1,0-4.91,4.32,4.32,0,0,1,1.6-1.66,5,5,0,0,1,4.77,0,4.08,4.08,0,0,1,1.61,1.66,5.57,5.57,0,0,1,0,4.91,4.19,4.19,0,0,1-1.61,1.65,4.58,4.58,0,0,1-2.38.6Zm0-1.5a2.57,2.57,0,0,0,2.07-.86,4,4,0,0,0,0-4.71,2.64,2.64,0,0,0-2.07-.86,2.73,2.73,0,0,0-2.08.86,4,4,0,0,0,0,4.71,2.67,2.67,0,0,0,2.08.86Zm7.33,1.34v-9.11h1.67l4.28,6.42v-6.42h1.66v9.11h-1.66l-4.28-6.4v6.4Z" transform="translate(-447.39 -515.55)" style="fill:#19ad4a"></path><path d="M599.93,615.63a32.54,32.54,0,1,0-32.54-32.54,32.54,32.54,0,0,0,32.54,32.54Z" transform="translate(-447.39 -515.55)" style="fill:#293b4a"></path><path d="M605.09,567.06H586.75V592.6h18.34Z" transform="translate(-447.39 -515.55)" style="fill:none;stroke:#ffcd00;stroke-miterlimit:10;stroke-width:1.0423200130462646px"></path><path d="M605.09,574.19h8v25.54H594.77V592.6" transform="translate(-447.39 -515.55)" style="fill:none;stroke:#ffcd00;stroke-miterlimit:10;stroke-width:1.0423200130462646px"></path><path d="M599.73,623.34a9.41,9.41,0,1,0-9.4-9.42h0a9.4,9.4,0,0,0,9.39,9.41Z" transform="translate(-447.39 -515.55)" style="fill:#293b4a"></path><path d="M599.82,621.52a7.59,7.59,0,1,0-7.59-7.59,7.59,7.59,0,0,0,7.59,7.59Z" transform="translate(-447.39 -515.55)" style="fill:#19ad4a"></path><path d="M597.25,612.93l-.94.94,2,2,.94-.94Z" transform="translate(-447.39 -515.55)" style="fill:#293b4a"></path><path d="M602.33,611.32,598,615.6l.94.94,4.29-4.28Z" transform="translate(-447.39 -515.55)" style="fill:#293b4a"></path></svg>