<svg xmlns="http://www.w3.org/2000/svg" id="Layer_1" data-name="Layer 1" viewBox="0 0 305 168"><rect width="305" height="168" rx="11.54" style="fill:#fff"></rect><path d="M484.71,654.55l-3.34-9.11h1.79l2.57,7.41,2.59-7.41h1.76l-3.33,9.11Zm7.76,0v-9.11h1.66v9.11Zm7.84.16a4.17,4.17,0,0,1-1.77-.34,2.73,2.73,0,0,1-1.67-2.57h1.76a1.7,1.7,0,0,0,.45,1.08,1.73,1.73,0,0,0,1.22.43,1.58,1.58,0,0,0,1.05-.32,1,1,0,0,0,.39-.85,1.13,1.13,0,0,0-.35-.88,2.53,2.53,0,0,0-.91-.5l-1.23-.42a4,4,0,0,1-1.61-.94,2.16,2.16,0,0,1-.55-1.52,2.48,2.48,0,0,1,.38-1.38,2.8,2.8,0,0,1,1.09-.9,4.2,4.2,0,0,1,3.19,0,2.58,2.58,0,0,1,1.1.91,2.51,2.51,0,0,1,.43,1.4H501.5a1.16,1.16,0,0,0-.38-.85,1.27,1.27,0,0,0-1-.38,1.42,1.42,0,0,0-.93.28,1.09,1.09,0,0,0-.08,1.53h0a2.24,2.24,0,0,0,.78.44q.5.2,1.14.39a7.56,7.56,0,0,1,1.23.55,2.48,2.48,0,0,1,.9.83,2.31,2.31,0,0,1,.34,1.3,2.49,2.49,0,0,1-.36,1.33,2.63,2.63,0,0,1-1.09,1A3.6,3.6,0,0,1,500.31,654.71Zm5.37-.16,3.33-9.11h1.87l3.34,9.11H512.5l-.73-2.11h-3.61l-.74,2.11Zm2.94-3.41h2.64l-1.33-3.78Zm15.58,3.57a4.17,4.17,0,0,1-1.77-.34,2.93,2.93,0,0,1-1.21-1,2.9,2.9,0,0,1-.45-1.57h1.73a1.66,1.66,0,0,0,.46,1.08,1.7,1.7,0,0,0,1.21.43,1.56,1.56,0,0,0,1-.32,1,1,0,0,0,.39-.85,1.06,1.06,0,0,0-.35-.88,2.39,2.39,0,0,0-.91-.5l-1.22-.42a4.21,4.21,0,0,1-1.62-.94,2.15,2.15,0,0,1-.54-1.52,2.4,2.4,0,0,1,.38-1.38,2.65,2.65,0,0,1,1.09-.9,4.14,4.14,0,0,1,3.19,0,2.53,2.53,0,0,1,1.52,2.31h-1.71a1.16,1.16,0,0,0-.38-.85,1.31,1.31,0,0,0-1-.38,1.4,1.4,0,0,0-.92.28.93.93,0,0,0-.37.8,1,1,0,0,0,.29.73,2.24,2.24,0,0,0,.78.44c.33.13.71.26,1.13.39a8.64,8.64,0,0,1,1.24.55,2.66,2.66,0,0,1,.9.83,2.31,2.31,0,0,1,.34,1.3,2.49,2.49,0,0,1-.36,1.33,2.54,2.54,0,0,1-1.08,1A3.68,3.68,0,0,1,524.2,654.71Zm9.47,0a4.07,4.07,0,0,1-1.81-.39,3.2,3.2,0,0,1-1.29-1.21,4.17,4.17,0,0,1-.46-2.05v-5.62h1.66v5.64a2.23,2.23,0,0,0,.51,1.59,2.2,2.2,0,0,0,2.85,0,2.15,2.15,0,0,0,.52-1.59v-5.64h1.67v5.62a3.76,3.76,0,0,1-.5,2.05,3,3,0,0,1-1.32,1.21A4.1,4.1,0,0,1,533.67,654.71Zm6.65-.16v-9.11H542v9.11Zm6.85,0v-7.77H544.5v-1.34h7v1.34h-2.66v7.77Zm5.32,0,3.33-9.11h1.87l3.34,9.11h-1.77l-.73-2.11H555l-.74,2.11Zm2.94-3.41h2.64l-1.33-3.78Zm8.07,3.41v-9.11h3.66a3.17,3.17,0,0,1,2.16.67,2.1,2.1,0,0,1,.75,1.68,1.91,1.91,0,0,1-.47,1.37.84.84,0,1,0,.17,1.48,2.1,2.1,0,0,1,.51,1.43,2.26,2.26,0,0,1-.78,1.78,3.2,3.2,0,0,1-2.21.7Zm1.67-5.28h1.74a1.55,1.55,0,0,0,1.08-.33,1.27,1.27,0,0,0,0-1.81h0a1.58,1.58,0,0,0-1.11-.34h-1.71Zm0,3.93H567a1.66,1.66,0,0,0,1.14-.34,1.16,1.16,0,0,0,.42-1,1.24,1.24,0,0,0-.43-1,1.78,1.78,0,0,0-1.16-.36h-1.83Zm7.84,1.35v-9.11h1.67v9.11Zm4.73,0v-9.11h1.67v7.81h4v1.3Zm8.47,0v-9.11h1.67v9.11Zm6.86,0v-7.77h-2.66v-1.34h7v1.34h-2.67v7.77Zm9.22,0v-3.24l-3.06-5.87h1.89l2,4.21,2-4.21H607l-3,5.87v3.24Zm14.4.15a4.23,4.23,0,0,1-1.75-.34,2.84,2.84,0,0,1-1.15-1,2.75,2.75,0,0,1-.41-1.46,2.86,2.86,0,0,1,.5-1.6,3.5,3.5,0,0,1,1.47-1.14,3.64,3.64,0,0,1-.56-.86,2.27,2.27,0,0,1-.17-.86,2.07,2.07,0,0,1,.31-1.11,2.16,2.16,0,0,1,.89-.78,3.2,3.2,0,0,1,1.39-.28,3,3,0,0,1,1.39.3,2,2,0,0,1,1.13,1.94h-1.58a.86.86,0,0,0-.29-.72.88.88,0,0,0-.66-.25,1.06,1.06,0,0,0-.72.25.9.9,0,0,0-.26.64,1.26,1.26,0,0,0,.21.66,5.83,5.83,0,0,0,.61.78l2.55,2.53c.18-.3.37-.64.57-1l.29-.57h1.7l-.45.88a12.46,12.46,0,0,1-1,1.78l2.09,2.07h-2l-1-1a4,4,0,0,1-1.42.88,4.55,4.55,0,0,1-1.68.26ZM615,651.82a1.47,1.47,0,0,0,.46,1.08,1.83,1.83,0,0,0,1.28.43,2.68,2.68,0,0,0,2-.81l-2.4-2.38a2.47,2.47,0,0,0-1,.72,1.67,1.67,0,0,0-.34,1Zm14.5,2.73v-9.11h1.66v7.81h4v1.3Zm11.91.16a4.67,4.67,0,0,1-2.39-.6,4.4,4.4,0,0,1-1.61-1.65,5.57,5.57,0,0,1,0-4.91,4.42,4.42,0,0,1,1.61-1.66,5,5,0,0,1,4.77,0,4.06,4.06,0,0,1,1.6,1.66,5.57,5.57,0,0,1,0,4.91,4.1,4.1,0,0,1-1.6,1.65,4.48,4.48,0,0,1-2.35.6Zm0-1.5a2.57,2.57,0,0,0,2.07-.86,4,4,0,0,0,0-4.71,2.64,2.64,0,0,0-2.07-.86,2.7,2.7,0,0,0-2.08.86,4,4,0,0,0,0,4.71,2.65,2.65,0,0,0,2.11.86Zm7.33,1.34v-9.11h3.11a5.39,5.39,0,0,1,2.65.56,3.44,3.44,0,0,1,1.53,1.58,5.93,5.93,0,0,1,0,4.81A3.51,3.51,0,0,1,654.5,654a5.32,5.32,0,0,1-2.63.56Zm1.66-1.43h1.37a3.74,3.74,0,0,0,1.81-.36,2.11,2.11,0,0,0,.95-1.07,5.12,5.12,0,0,0,0-3.37,2.09,2.09,0,0,0-.95-1.08,3.65,3.65,0,0,0-1.81-.38H650.4Zm12.87,1.59a4.17,4.17,0,0,1-2.25-.59,4,4,0,0,1-1.5-1.62,5.57,5.57,0,0,1-.53-2.45,5.31,5.31,0,0,1,.55-2.47,4.1,4.1,0,0,1,1.57-1.68,4.76,4.76,0,0,1,2.44-.61,4.42,4.42,0,0,1,2.65.76,3.5,3.5,0,0,1,1.37,2.13h-1.86a1.77,1.77,0,0,0-.76-1,2.43,2.43,0,0,0-1.4-.37,2.61,2.61,0,0,0-2.11.87,4.19,4.19,0,0,0,0,4.72,2.61,2.61,0,0,0,2,.82,2.41,2.41,0,0,0,1.86-.67,2.94,2.94,0,0,0,.77-1.77h-2.31v-1.25h4v5h-1.54l-.13-1.19a3.05,3.05,0,0,1-1.11,1,3.47,3.47,0,0,1-1.68.37Zm7.39-.16v-9.11h5.94v1.34h-4.28v2.5h3.89v1.3h-3.89v2.63h4.28v1.34Zm8.82,0v-9.11h2l2.9,5.78,2.86-5.78h2v9.11h-1.66v-6.28l-2.54,5h-1.32l-2.53-5v6.28Zm12.79,0v-9.11h6v1.34h-4.28v2.5h3.89v1.3h-3.89v2.63h4.28v1.34Zm8.83,0v-9.11h1.66l4.28,6.42v-6.42h1.67v9.11H707l-4.28-6.4v6.4Zm12.8,0v-7.77h-2.66v-1.34h7v1.34h-2.67v7.77Z" transform="translate(-447.39 -515.55)" style="fill:#19ad4a"></path><path d="M599.93,612.63a32.54,32.54,0,1,0-32.54-32.54,32.54,32.54,0,0,0,32.54,32.54Z" transform="translate(-447.39 -515.55)" style="fill:#293b4a"></path><path d="M599.8,621.48a9.4,9.4,0,1,0-9.41-9.4,9.39,9.39,0,0,0,9.41,9.4Z" transform="translate(-447.39 -515.55)" style="fill:#293b4a"></path><path d="M599.88,619.67a7.59,7.59,0,1,0-7.59-7.59h0A7.59,7.59,0,0,0,599.88,619.67Z" transform="translate(-447.39 -515.55)" style="fill:#19ad4a"></path><path d="M597.32,611.07l-1,.95,2,2,.94-.94Z" transform="translate(-447.39 -515.55)" style="fill:#293b4a"></path><path d="M602.39,609.46l-4.28,4.29.94.94,4.29-4.29Z" transform="translate(-447.39 -515.55)" style="fill:#293b4a"></path><path d="M612,563.55H588.39v32H612Z" transform="translate(-447.39 -515.55)" style="fill:none;stroke:#ffcd00;stroke-miterlimit:10;stroke-width:1.0423200130462646px"></path><path d="M592.5,569.26h15.56" transform="translate(-447.39 -515.55)" style="fill:none;stroke:#ffcd00;stroke-miterlimit:10;stroke-width:1.0423200130462646px"></path><path d="M600.21,590a7.54,7.54,0,1,0-7.54-7.54,7.53,7.53,0,0,0,7.54,7.54Z" transform="translate(-447.39 -515.55)" style="fill:none;stroke:#ffcd00;stroke-miterlimit:10;stroke-width:1.0423200130462646px"></path><path d="M600.21,590c1.58,0,2.86-3.38,2.86-7.54s-1.28-7.54-2.86-7.54-2.85,3.37-2.85,7.54S598.64,590,600.21,590Z" transform="translate(-447.39 -515.55)" style="fill:none;stroke:#ffcd00;stroke-miterlimit:10;stroke-width:1.0423200130462646px"></path><path d="M592.67,582.44h15.15" transform="translate(-447.39 -515.55)" style="fill:none;stroke:#ffcd00;stroke-miterlimit:10;stroke-width:1.0423200130462646px"></path></svg>