<svg xmlns="http://www.w3.org/2000/svg" id="Layer_1" data-name="Layer 1" viewBox="0 0 305 168"><rect width="305" height="168" rx="11.54" style="fill:#fff"></rect><path d="M503,654.55v-9.11h5.89v1.34h-4.22v2.55H508v1.32h-3.41v3.9Zm8.47,0v-9.11h1.67v9.11Zm4.74,0v-9.11h1.66l4.28,6.42v-6.42h1.67v9.11h-1.67l-4.28-6.4v6.4Zm10.09,0,3.33-9.11h1.91l3.33,9.11h-1.77l-.73-2.11h-3.55l-.75,2.11Zm2.94-3.41h2.64l-1.34-3.78Zm8.07,3.41v-9.11h1.67l4.28,6.42v-6.42h1.66v9.11h-1.66l-4.28-6.4v6.4Zm14.81.16a4.61,4.61,0,0,1-2.37-.59,4,4,0,0,1-1.52-1.65,5.87,5.87,0,0,1,0-4.92,4,4,0,0,1,1.52-1.66,4.57,4.57,0,0,1,2.37-.6,4.2,4.2,0,0,1,2.68.82,3.45,3.45,0,0,1,1.31,2.27h-1.83a1.9,1.9,0,0,0-.73-1.15,2.35,2.35,0,0,0-1.46-.43,2.48,2.48,0,0,0-2,.86,4.26,4.26,0,0,0,0,4.71,2.82,2.82,0,0,0,3.44.45,1.88,1.88,0,0,0,.73-1.1h1.83a3.33,3.33,0,0,1-1.31,2.19A4.2,4.2,0,0,1,552.08,654.71Zm6.77-.16v-9.11h1.65v9.11Zm4.14,0,3.34-9.11h1.87l3.33,9.11h-1.77l-.73-2.11H565.5l-.74,2.11Zm3-3.41h2.64l-1.33-3.78Zm8.07,3.41v-9.11h1.66v7.81h4v1.3Zm12.87,0v-9.11H590a5.42,5.42,0,0,1,2.63.58,3.44,3.44,0,0,1,1.53,1.58,5.93,5.93,0,0,1,0,4.81,3.49,3.49,0,0,1-1.53,1.58,5.32,5.32,0,0,1-2.63.56Zm1.66-1.43h1.37a3.74,3.74,0,0,0,1.81-.36,2.11,2.11,0,0,0,.95-1.07,5.12,5.12,0,0,0,0-3.37,2.09,2.09,0,0,0-.95-1.08,3.65,3.65,0,0,0-1.81-.38H588.5Zm12.4,1.59a4,4,0,0,1-1.8-.39,3.2,3.2,0,0,1-1.29-1.21,4.15,4.15,0,0,1-.47-2.05v-5.62H599v5.64a2.23,2.23,0,0,0,.51,1.59,2,2,0,0,0,1.43.52,1.94,1.94,0,0,0,1.42-.52,2.15,2.15,0,0,0,.52-1.59v-5.64h1.67v5.62a3.76,3.76,0,0,1-.5,2.05,3,3,0,0,1-1.32,1.21A4.1,4.1,0,0,1,600.94,654.71Zm6.65-.16v-9.11h6v1.34h-4.28v2.5h3.89v1.3h-3.89v2.63h4.19v1.34Zm13.23,0v-9.11h3.11a5.42,5.42,0,0,1,2.63.58,3.44,3.44,0,0,1,1.53,1.58,5.93,5.93,0,0,1,0,4.81,3.49,3.49,0,0,1-1.53,1.58,5.32,5.32,0,0,1-2.63.56Zm1.66-1.43h1.37a3.74,3.74,0,0,0,1.81-.36,2.09,2.09,0,0,0,1-1.07,5.12,5.12,0,0,0,0-3.37,2.1,2.1,0,0,0-1-1.08,3.65,3.65,0,0,0-1.81-.38H622.5Zm8.89,1.43v-9.11H633v9.11Zm4.73,0v-9.11h1.67v7.81h4v1.3Zm8.47,0v-9.11h1.67v9.11Zm8.72.16a4.17,4.17,0,0,1-2.25-.59,3.91,3.91,0,0,1-1.5-1.62,5.45,5.45,0,0,1-.54-2.45,5.57,5.57,0,0,1,.55-2.47,4.19,4.19,0,0,1,1.58-1.68,4.7,4.7,0,0,1,2.43-.61,4.35,4.35,0,0,1,2.65.76,3.5,3.5,0,0,1,1.37,2.13h-1.86a1.78,1.78,0,0,0-.75-1,2.49,2.49,0,0,0-1.41-.37,2.69,2.69,0,0,0-2.11.87,3.62,3.62,0,0,0-.74,2.37,3.47,3.47,0,0,0,.73,2.35,2.54,2.54,0,0,0,2,.82,2.41,2.41,0,0,0,1.86-.67,2.94,2.94,0,0,0,.77-1.77h-2.3v-1.25h4v5h-1.54l-.13-1.19a3,3,0,0,1-1.1,1,3.59,3.59,0,0,1-1.71.37Zm7.38-.16v-9.11h6v1.34h-4.28v2.5h3.89v1.3h-3.89v2.63h4.28v1.34Zm8.83,0v-9.11h1.66l4.28,6.42v-6.42h1.67v9.11h-1.67l-4.28-6.4v6.4Zm14.8.16a4.61,4.61,0,0,1-2.37-.59,4,4,0,0,1-1.52-1.65,6,6,0,0,1,0-4.92,4.06,4.06,0,0,1,1.52-1.66,4.57,4.57,0,0,1,2.37-.6,4.2,4.2,0,0,1,2.68.82,3.5,3.5,0,0,1,1.32,2.27h-1.8a1.79,1.79,0,0,0-.73-1.15,2.29,2.29,0,0,0-1.46-.43,2.4,2.4,0,0,0-2,.86,4.21,4.21,0,0,0,0,4.71,2.8,2.8,0,0,0,3.43.45,1.74,1.74,0,0,0,.73-1.1h1.84a3.38,3.38,0,0,1-1.32,2.19,4.23,4.23,0,0,1-2.69.8Zm6.77-.16v-9.11H697v1.34h-4.28v2.5h3.89v1.3h-3.89v2.63H697v1.34Z" transform="translate(-447.39 -515.55)" style="fill:#19ad4a"></path><path d="M599.93,612.63a32.54,32.54,0,1,0-32.54-32.54,32.54,32.54,0,0,0,32.54,32.54Z" transform="translate(-447.39 -515.55)" style="fill:#293b4a"></path><path d="M599.8,621.48a9.4,9.4,0,1,0-9.41-9.4,9.39,9.39,0,0,0,9.41,9.4Z" transform="translate(-447.39 -515.55)" style="fill:#293b4a"></path><path d="M599.88,619.67a7.59,7.59,0,1,0-7.59-7.59h0A7.59,7.59,0,0,0,599.88,619.67Z" transform="translate(-447.39 -515.55)" style="fill:#19ad4a"></path><path d="M597.32,611.07l-1,.95,2,2,.94-.94Z" transform="translate(-447.39 -515.55)" style="fill:#293b4a"></path><path d="M602.39,609.46l-4.28,4.29.94.94,4.29-4.29Z" transform="translate(-447.39 -515.55)" style="fill:#293b4a"></path><path d="M600.22,578c-4.35,0-7.83-2.85-7.83-6.4s3.48-6.41,7.83-6.41S608,568,608,571.6" transform="translate(-447.39 -515.55)" style="fill:none;stroke:#ffcd00;stroke-miterlimit:10"></path><path d="M600.22,578c4.35,0,7.82,2.84,7.82,6.4s-3.47,6.4-7.82,6.4-7.83-2.84-7.83-6.4" transform="translate(-447.39 -515.55)" style="fill:none;stroke:#ffcd00;stroke-miterlimit:10"></path><path d="M600.22,559.55v37.7" transform="translate(-447.39 -515.55)" style="fill:none;stroke:#ffcd00;stroke-miterlimit:10"></path></svg>