<?xml version="1.0" encoding="utf-8"?>
<!-- Generator: Adobe Illustrator 27.0.1, SVG Export Plug-In . SVG Version: 6.00 Build 0)  -->
<svg version="1.1" id="Layer_1" xmlns="http://www.w3.org/2000/svg" xmlns:xlink="http://www.w3.org/1999/xlink" x="0px" y="0px"
	 viewBox="0 0 250 75.1" style="enable-background:new 0 0 250 75.1;" xml:space="preserve">
<style type="text/css">
	.st0{fill:#FFFFFF;}
</style>
<g transform="matrix(1.25 0 0 -1.25 -409.6 832.75)">
	<g>
		<path class="st0" d="M335.3,665.5l-6.9-7l0-9.4l11.3-9.2v-13.3h7.8v6.9l4.8-3.9v-4.6h-16.1v4.6h-7.8l0-5.4l6.9-7h4.4v-10.2h4.9v0
			h19.8c0,0,6.3,6.3,7,7c0,0.6,0,33,0,33l-7,6.9h-24.7v-4l-3.5,2.8v4.8h16.1v-2.1h7.9v3l-7,7L335.3,665.5L335.3,665.5z M347.6,646.2
			h16v-31.3h-16v2.3h5.6l7,7v9.1l-12.6,10.3C347.6,643.7,347.6,646.2,347.6,646.2z"/>
		<path class="st0" d="M477.8,643.2c-2.1,0-3.5-1.5-3.5-3.6c0-2.1,1.5-3.6,3.5-3.6c2,0,3.5,1.5,3.5,3.6c0,1.3-0.5,2.3-1.4,3
			C479.3,642.9,478.5,643.2,477.8,643.2z M438.3,643.2c-1.2,0-2-0.7-2-1.8c0-0.8,0.4-1.2,1.4-1.8l0.9-0.5c1-0.5,1.3-0.8,1.3-1.4
			c0-0.7-0.6-1.2-1.3-1.2c-1,0-1.7,0.6-2,1.9h-0.2v-2.5c0.3,0.3,0.4,0.3,0.6,0.3c0.1,0,0.2,0,0.3-0.1c0.8-0.3,1-0.3,1.4-0.3
			c1.3,0,2.3,0.9,2.3,2.1c0,0.8-0.4,1.4-1.4,1.9l-1.1,0.6c-0.7,0.4-1,0.7-1,1.1c0,0.6,0.4,1,1.1,1c0.5,0,1-0.2,1.3-0.5
			c0.2-0.2,0.3-0.5,0.5-1h0.3v1.8c-0.3-0.1-0.4-0.1-0.6-0.1c-0.1,0-0.2,0-0.6,0.1C438.8,643.1,438.6,643.2,438.3,643.2L438.3,643.2z
			 M426.5,643v-0.3c0.5,0,0.6,0,0.7-0.1c0.1-0.1,0.1-0.2,0.1-1v-4.2c0-0.8,0-0.9-0.1-1c-0.1-0.1-0.2-0.1-0.7-0.1V636h2.6v0.3
			c-0.5,0-0.6,0-0.7,0.1c-0.1,0.1-0.1,0.2-0.1,1v1.5h0.4c0.2,0,0.3,0,0.4-0.1c0.1-0.1,0.1-0.1,0.6-0.7l1.6-2.1h1.6v0.3
			c-0.5,0-0.6,0.1-1,0.6l-1.2,1.6c-0.4,0.5-0.5,0.6-0.6,0.7c0.5,0.1,0.8,0.3,1,0.5c0.4,0.4,0.6,0.9,0.6,1.4c0,0.6-0.2,1-0.6,1.4
			c-0.4,0.3-1,0.5-1.9,0.5C429.3,643,426.5,643,426.5,643z M380.3,643v-0.3c0.5,0,0.6,0,0.7-0.1c0.1-0.1,0.1-0.2,0.1-1v-2.9
			c0-1.2,0.1-1.7,0.5-2.1c0.4-0.5,1.1-0.7,2.1-0.7c1,0,1.7,0.2,2.1,0.7c0.4,0.4,0.5,0.9,0.5,2.1v2.9c0,0.8,0,0.9,0.1,1
			c0.1,0.1,0.2,0.1,0.7,0.1v0.3h-2v-0.3c0.5,0,0.6,0,0.7-0.1c0.1-0.1,0.1-0.2,0.1-1v-2.9c0-0.9-0.1-1.3-0.4-1.6
			c-0.3-0.3-0.8-0.5-1.4-0.5c-0.7,0-1.3,0.3-1.6,0.7c-0.2,0.3-0.3,0.7-0.3,1.9v2.5c0,0.8,0,0.9,0.1,1c0.1,0.1,0.2,0.1,0.7,0.1v0.3
			H380.3z M390.4,643v-0.3c0.4,0,0.4,0,0.6-0.2l0.3-0.3v-4.8c0-0.8,0-0.9-0.1-1c-0.1-0.1-0.2-0.1-0.7-0.1V636h2v0.3
			c-0.5,0-0.6,0-0.7,0.1c-0.1,0.1-0.1,0.2-0.1,1v3.3v0.4v0.4v0.3c0.3-0.3,0.3-0.4,0.4-0.5l0.3-0.4l4-4.9h0.1v5.7c0,0.8,0,0.9,0.1,1
			c0.1,0.1,0.2,0.1,0.7,0.1v0.3h-2v-0.3c0.5,0,0.6,0,0.7-0.1c0.1-0.1,0.1-0.2,0.1-1V639c0-0.1,0-0.5,0-1.1c-0.1,0.2-0.2,0.2-0.3,0.3
			c-0.1,0.1-0.3,0.4-0.5,0.6L392,643C392,643,390.4,643,390.4,643z M401.1,643v-0.3c0.5,0,0.6,0,0.7-0.1c0.1-0.1,0.1-0.2,0.1-1v-4.2
			c0-0.8,0-0.9-0.1-1c-0.1-0.1-0.2-0.1-0.7-0.1V636h2.6v0.3c-0.5,0-0.6,0-0.7,0.1c-0.1,0.1-0.1,0.2-0.1,1v4.2c0,0.8,0,0.9,0.1,1
			c0.1,0.1,0.2,0.1,0.7,0.1v0.3C403.7,643,401.1,643,401.1,643z M407.1,643v-0.3c0.3,0,0.4-0.1,0.5-0.2c0.1-0.1,0.1-0.2,0.5-1
			l2.4-5.8h0.2l2.4,5.8c0.3,0.7,0.3,0.8,0.4,0.9c0.1,0.2,0.2,0.2,0.6,0.2v0.3h-1.9v-0.3c0.6,0,0.7-0.1,0.7-0.3c0-0.1,0-0.2-0.1-0.4
			c0-0.1-0.1-0.3-0.2-0.4l-1.3-3.4c-0.2-0.4-0.2-0.6-0.3-0.8c-0.1,0.2-0.1,0.2-0.1,0.3c-0.1,0.1-0.1,0.3-0.2,0.5l-1.4,3.4
			c-0.2,0.5-0.3,0.7-0.3,0.8c0,0.2,0.2,0.3,0.7,0.3v0.3C409.6,643,407.1,643,407.1,643z M417.3,643v-0.3c0.5,0,0.6,0,0.7-0.1
			c0.1-0.1,0.1-0.2,0.1-1v-4.2c0-0.8,0-0.9-0.1-1c-0.1-0.1-0.2-0.1-0.7-0.1V636h5.1l0.4,1.7l-0.2,0c-0.4-1.1-0.8-1.3-2-1.3h-1.5v3
			h0.9c1.1,0,1.1,0,1.2-0.9h0.2v2.3h-0.2c-0.1-0.8-0.2-0.9-1.2-0.9h-1v2.7h1.1c1.3,0,1.6-0.2,1.9-1.1l0.2,0l-0.1,1.5
			C422.2,643,417.3,643,417.3,643z M444.6,643v-0.3c0.5,0,0.6,0,0.7-0.1c0.1-0.1,0.1-0.2,0.1-1v-4.2c0-0.8,0-0.9-0.1-1
			c-0.1-0.1-0.2-0.1-0.7-0.1V636h2.6v0.3c-0.5,0-0.6,0-0.7,0.1c-0.1,0.1-0.1,0.2-0.1,1v4.2c0,0.8,0,0.9,0.1,1
			c0.1,0.1,0.2,0.1,0.7,0.1v0.3C447.2,643,444.6,643,444.6,643z M450.7,643l-0.1-1.8h0.2c0.2,1.2,0.6,1.4,2.2,1.4v-5.2
			c0-0.8,0-0.9-0.1-1c-0.1-0.1-0.2-0.1-0.7-0.1V636h2.6v0.3c-0.5,0-0.6,0-0.7,0.1c-0.1,0.1-0.1,0.3-0.1,1v5.2h0.2
			c1.5,0,1.7-0.1,1.8-1.4h0.2l0.1,1.8c-0.3,0-1.4,0-1.6,0h-2.2C451.6,643,450.9,643,450.7,643L450.7,643z M458.4,643v-0.3
			c0.6,0,0.7-0.1,1.2-1l1.8-2.6v-1.7c0-0.8,0-0.9-0.1-1c-0.1-0.1-0.2-0.1-0.8-0.1V636h2.8v0.3c-0.6,0-0.7,0-0.8,0.1
			c-0.1,0.1-0.1,0.2-0.1,1v1.9l1.6,2.5c0.6,0.9,0.6,1,1.1,1v0.3h-2v-0.3c0.6,0,0.7,0,0.7-0.2c0-0.1-0.1-0.2-0.3-0.6l-0.9-1.5
			c-0.3-0.5-0.3-0.5-0.5-0.8c-0.1,0.1-0.2,0.3-0.4,0.7l-1,1.5c-0.3,0.5-0.3,0.5-0.3,0.6c0,0.2,0.1,0.2,0.6,0.2v0.3H458.4L458.4,643z
			 M484.1,643v-0.3c0.5,0,0.6,0,0.7-0.1c0.1-0.1,0.1-0.2,0.1-1v-4.2c0-0.8,0-0.9-0.1-1c-0.1-0.1-0.2-0.1-0.7-0.1V636h2.6v0.3
			c-0.5,0-0.6,0-0.7,0.1c-0.1,0.1-0.1,0.2-0.1,1v2h0.9c1.1,0,1.1,0,1.2-0.9h0.3v2.3h-0.3c-0.1-0.8-0.2-0.9-1.2-0.9h-1v2.7h1.2
			c1.2,0,1.4-0.2,1.7-1.2l0.3,0L489,643C489,643,484.1,643,484.1,643z M477.7,642.6c0.8,0,1.3-0.3,1.8-0.9c0.4-0.6,0.6-1.4,0.6-2.3
			c0-1.7-0.9-2.9-2.3-2.9c-1.4,0-2.5,1.5-2.5,3.3C475.4,641.4,476.3,642.6,477.7,642.6L477.7,642.6z M428.4,642.6h0.5
			c1.2,0,1.8-0.6,1.8-1.7c0-1-0.7-1.6-1.8-1.6c-0.2,0-0.3,0-0.5,0C428.4,639.3,428.4,642.6,428.4,642.6z M469.6,631.3l-4.3-10.8
			c-0.7-1.8-0.8-2-1.7-2.1v-0.5h3.3v0.5c-0.9,0.1-1.1,0.2-1.1,0.5c0,0.2,0.1,0.5,0.4,1.3l0.8,2.1h4.6l0.9-2.4c0.3-0.7,0.3-0.8,0.3-1
			c0-0.4-0.2-0.5-1-0.5v-0.5h4.3v0.5c-0.5,0.1-0.7,0.2-0.9,0.4c-0.2,0.2-0.3,0.5-1,2.1l-4.3,10.5C470,631.3,469.6,631.3,469.6,631.3
			z M520.3,631.3l-4.3-10.8c-0.7-1.8-0.9-2-1.7-2.1v-0.5h3.3v0.5c-0.9,0.1-1.1,0.2-1.1,0.5c0,0.2,0.1,0.5,0.4,1.3l0.8,2.1h4.6
			l0.9-2.4c0.3-0.7,0.3-0.8,0.3-1c0-0.4-0.2-0.5-1-0.5v-0.5h4.3v0.5c-0.5,0.1-0.7,0.2-0.9,0.4c-0.2,0.2-0.4,0.5-1,2.1l-4.3,10.5
			H520.3L520.3,631.3z M397.4,631c-3.8,0-6.5-2.7-6.5-6.7c0-3.9,2.7-6.6,6.4-6.6c3.8,0,6.4,2.8,6.4,6.6c0,2.3-0.9,4.2-2.6,5.4
			C400.2,630.6,398.8,631,397.4,631L397.4,631z M496.4,631c-3.8,0-6.5-2.7-6.5-6.7c0-3.9,2.7-6.6,6.4-6.6c3.8,0,6.4,2.8,6.4,6.6
			c0,2.3-0.9,4.2-2.6,5.4C499.1,630.6,497.8,631,496.4,631z M384.6,631c-2.1,0-3.7-1.4-3.7-3.3c0-1.4,0.7-2.3,2.5-3.3l1.7-0.9
			c1.8-1,2.3-1.5,2.3-2.5c0-1.3-1-2.2-2.5-2.2c-1.9,0-3.2,1.2-3.7,3.5h-0.5v-4.6c0.6,0.5,0.8,0.6,1,0.6c0.2,0,0.3,0,0.6-0.1
			c1.5-0.5,1.8-0.5,2.5-0.5c2.4,0,4.1,1.6,4.1,3.9c0,1.5-0.7,2.6-2.6,3.6l-2.1,1.1c-1.3,0.7-1.8,1.3-1.8,2.1c0,1.1,0.8,1.8,2.1,1.8
			c0.9,0,1.8-0.4,2.4-1c0.4-0.4,0.6-0.9,0.9-1.8h0.5v3.3c-0.5-0.2-0.8-0.2-1-0.2c-0.3,0-0.3,0-1.2,0.2
			C385.5,630.9,385,631,384.6,631z M405.5,630.8v-0.5c0.9,0,1.1,0,1.3-0.2c0.1-0.2,0.2-0.4,0.2-1.9v-5.4c0-2.2,0.2-3.1,0.8-3.8
			c0.8-0.9,2.1-1.3,3.9-1.3c1.8,0,3.2,0.4,3.9,1.3c0.7,0.8,0.9,1.7,0.9,3.8v5.4c0,1.5,0,1.7,0.2,1.9c0.2,0.2,0.4,0.2,1.3,0.2v0.5
			h-3.7v-0.5c0.9,0,1.1,0,1.3-0.2c0.1-0.2,0.2-0.4,0.2-1.9v-5.4c0-1.7-0.2-2.4-0.7-3c-0.6-0.6-1.5-1-2.6-1c-1.3,0-2.4,0.5-2.9,1.3
			c-0.4,0.6-0.5,1.2-0.5,3.4v4.6c0,1.5,0,1.7,0.2,1.9c0.2,0.2,0.3,0.2,1.3,0.2v0.5C410.3,630.8,405.5,630.8,405.5,630.8z M419,630.8
			l-0.2-3.3h0.5c0.3,2.1,1,2.6,4.1,2.5v-9.5c0-1.5,0-1.7-0.2-1.9c-0.2-0.2-0.3-0.2-1.3-0.2v-0.5h4.8v0.5c-0.9,0-1.1,0-1.3,0.2
			c-0.1,0.2-0.2,0.5-0.2,1.9v9.5h0.5c2.8,0.1,3.1-0.2,3.3-2.5h0.5l0.2,3.3c-0.6,0-2.6-0.1-2.9-0.1h-4
			C420.6,630.8,419.4,630.8,419,630.8L419,630.8z M430.9,630.8v-0.5c0.9,0,1.1,0,1.3-0.2c0.1-0.2,0.2-0.4,0.2-1.9v-7.7
			c0-1.5,0-1.7-0.2-1.9c-0.2-0.2-0.3-0.2-1.3-0.2v-0.5h4.8v0.5c-0.9,0-1.1,0-1.3,0.2c-0.1,0.2-0.2,0.4-0.2,1.9v3.6h6.4v-3.6
			c0-1.5,0-1.7-0.2-1.9c-0.2-0.2-0.4-0.2-1.3-0.2v-0.5h4.8v0.5c-0.9,0-1.1,0-1.3,0.2c-0.1,0.2-0.2,0.4-0.2,1.9v7.7
			c0,1.5,0,1.7,0.2,1.9c0.2,0.2,0.4,0.2,1.3,0.2v0.5h-4.8v-0.5c0.9,0,1.1,0,1.3-0.2c0.1-0.2,0.2-0.4,0.2-1.9v-3.3h-6.4v3.3
			c0,1.5,0,1.7,0.2,1.9c0.2,0.2,0.3,0.2,1.3,0.2v0.5C435.7,630.8,430.9,630.8,430.9,630.8z M450.4,630.8v-0.5c0.9,0,1.1,0,1.3-0.3
			c0.1-0.2,0.2-0.4,0.2-1.9v-7.7c0-1.5,0-1.7-0.2-1.9c-0.2-0.2-0.3-0.2-1.3-0.2v-0.5h4.9c2.6,0,4.3,0.6,5.7,1.9
			c1.3,1.2,1.9,2.9,1.9,4.8c0,1.8-0.6,3.3-1.7,4.4c-1.3,1.3-2.9,1.8-5.7,1.8H450.4z M477.5,630.8v-0.5c0.9,0,1.1,0,1.3-0.2
			c0.1-0.2,0.2-0.4,0.2-1.9v-7.7c0-1.5,0-1.7-0.2-1.9c-0.2-0.2-0.4-0.2-1.3-0.2v-0.5h4.8v0.5c-0.9,0-1.1,0-1.3,0.2
			c-0.1,0.2-0.2,0.4-0.2,1.9v7.7c0,1.5,0,1.7,0.2,1.9c0.2,0.2,0.4,0.2,1.3,0.2v0.5H477.5z M484.7,630.8v-0.5c1,0,1.1-0.1,1.1-0.4
			c0-0.2-0.3-0.6-1.1-1.5l-3.7-3.8l4.4-5c0.7-0.8,0.8-0.8,0.8-1c0-0.3-0.3-0.3-1.3-0.3v-0.5h5.2v0.5c-0.8,0-1.2,0.3-2.4,1.6l-5,5.5
			l3.4,3.3c1.5,1.4,1.8,1.5,2.9,1.6v0.5C488.9,630.8,484.7,630.8,484.7,630.8z M504.1,630.8l-0.2-3.3h0.5c0.3,2.1,1,2.6,4.1,2.5
			v-9.5c0-1.5,0-1.7-0.2-1.9c-0.2-0.2-0.3-0.2-1.3-0.2v-0.5h4.8v0.5c-0.9,0-1.1,0-1.3,0.2c-0.1,0.2-0.2,0.5-0.2,1.9v9.5h0.5
			c2.7,0.1,3.1-0.2,3.3-2.5h0.5l0.2,3.3c-0.6,0-2.6-0.1-2.9-0.1h-4C505.7,630.8,504.5,630.8,504.1,630.8L504.1,630.8z M455,630.2
			c1.7,0,2.9-0.3,3.9-1.1c1.3-1,2-2.7,2-4.8c0-1.5-0.4-2.7-1-3.7c-0.9-1.3-2.3-1.9-4.4-1.9c-1,0-1.5,0.1-1.6,0.4
			c-0.1,0.3-0.1,0.3-0.1,2.5v8.6C454.3,630.1,454.6,630.2,455,630.2z M397.3,630c1.4,0,2.5-0.6,3.3-1.7c0.8-1.1,1.2-2.6,1.2-4.2
			c0-3.2-1.7-5.4-4.2-5.4c-2.5,0-4.5,2.7-4.5,6.1C393,627.9,394.8,630,397.3,630z M496.2,630c1.4,0,2.5-0.6,3.3-1.7
			c0.8-1.1,1.2-2.6,1.2-4.2c0-3.2-1.7-5.4-4.2-5.4c-2.5,0-4.5,2.7-4.5,6.1C492,627.9,493.7,630,496.2,630z M469.3,628.2l2-5.1h-4
			L469.3,628.2z M519.9,628.2l2-5.1h-4L519.9,628.2z"/>
	</g>
</g>
</svg>
