<svg width="100" height="106" viewBox="0 0 100 106" fill="none" xmlns="http://www.w3.org/2000/svg">
<path d="M92.7536 23.9745H7.24638C3.24431 23.9745 0 27.5433 0 31.9456V97.3079C0 101.71 3.24431 105.279 7.24638 105.279H92.7536C96.7557 105.279 100 101.71 100 97.3079V31.9456C100 27.5433 96.7557 23.9745 92.7536 23.9745Z" fill="white"/>
<path d="M81.0148 78.7753H18.9858C15.0918 78.7753 11.9351 82.2477 11.9351 86.5311C11.9351 90.8145 15.0918 94.2869 18.9858 94.2869H81.0148C84.9088 94.2869 88.0655 90.8145 88.0655 86.5311C88.0655 82.2477 84.9088 78.7753 81.0148 78.7753Z" fill="#F1F3F5"/>
<path d="M72.6307 84.666H27.3771C26.3554 84.666 25.5293 85.5029 25.5293 86.5312C25.5293 87.5594 26.3554 88.3964 27.3771 88.3964H72.6307C73.6525 88.3964 74.4786 87.5594 74.4786 86.5312C74.4786 85.5029 73.6525 84.666 72.6307 84.666Z" fill="#293B4A"/>
<path d="M77.2972 5.0036H22.6958V68.8116H77.2972V5.0036Z" fill="#F1F3F5" stroke="#293B4A" stroke-width="1.5" stroke-miterlimit="10"/>
<path d="M29.978 52.4152H70.0215" stroke="#293B4A" stroke-width="1.5" stroke-miterlimit="10"/>
<path d="M29.978 58.832H70.0215" stroke="#293B4A" stroke-width="1.5" stroke-miterlimit="10"/>
<path d="M56.2029 1V8.26159L67.1232 35.6022C67.9421 37.6428 67.529 40.0341 66.0942 41.6123C65.1739 42.6246 63.9203 43.1986 62.616 43.1986H37.3769C36.0725 43.1986 34.8189 42.6246 33.8986 41.6123C32.4638 40.0341 32.058 37.6507 32.8696 35.6022L43.7899 8.26159V1" fill="white"/>
<path d="M36.7753 25.8138L32.8623 35.6022C32.8623 35.6022 30.8406 41.5566 36.5072 43.1986H62.6087C62.6087 43.1986 67.7246 42.5928 67.529 36.5109L62.3913 23.7892C62.3913 23.7892 61.9855 22.2827 60.413 22.4102C58.8406 22.5377 55.1014 24.1399 50.0145 26.4116C44.9275 28.6834 39.9855 26.5711 38.5869 25.6225C38.5869 25.6225 37.355 24.3312 36.7608 25.8138H36.7753Z" fill="#FFCD00"/>
<path d="M56.2029 1V8.26159L67.1232 35.6022C67.9421 37.6428 67.529 40.0341 66.0942 41.6123C65.1739 42.6246 63.9203 43.1986 62.616 43.1986H37.3769C36.0725 43.1986 34.8189 42.6246 33.8986 41.6123C32.4638 40.0341 32.058 37.6507 32.8696 35.6022L43.7899 8.26159V1" stroke="#293B4A" stroke-width="1.5" stroke-miterlimit="10"/>
<path d="M37.2031 24.6818C38.464 25.5985 39.6307 26.276 40.7249 26.7543C42.5654 27.5593 44.1814 27.8064 45.6741 27.6948C51.4278 27.2644 55.2176 21.5492 62.0437 22.5137" stroke="#293B4A" stroke-width="1.5" stroke-miterlimit="10"/>
<path d="M41.6235 1.39056H58.4061" stroke="#293B4A" stroke-width="1.5" stroke-miterlimit="10"/>
</svg>
