<svg width="496" height="472" viewBox="0 0 496 472" fill="none" xmlns="http://www.w3.org/2000/svg">
<path d="M454.705 36.8882H21.3168C9.54387 36.8882 0 46.4321 0 58.2051V379.851C0 391.624 9.54387 401.168 21.3168 401.168H454.705C466.478 401.168 476.022 391.624 476.022 379.851V58.2051C476.022 46.4321 466.478 36.8882 454.705 36.8882Z" fill="#F1F3F5"/>
<path d="M452.119 44.638H23.8957C15.3355 44.638 8.39612 51.5774 8.39612 60.1376V377.918C8.39612 386.479 15.3355 393.418 23.8957 393.418H452.119C460.68 393.418 467.619 386.479 467.619 377.918V60.1376C467.619 51.5774 460.68 44.638 452.119 44.638Z" fill="white"/>
<path d="M416.596 65.08C418.878 65.08 420.728 63.2297 420.728 60.9472C420.728 58.6647 418.878 56.8144 416.596 56.8144C414.313 56.8144 412.463 58.6647 412.463 60.9472C412.463 63.2297 414.313 65.08 416.596 65.08Z" fill="#5273FD"/>
<path d="M401.083 65.08C403.365 65.08 405.216 63.2297 405.216 60.9472C405.216 58.6648 403.365 56.8145 401.083 56.8145C398.8 56.8145 396.95 58.6648 396.95 60.9472C396.95 63.2297 398.8 65.08 401.083 65.08Z" fill="#FF340C"/>
<path d="M447.627 65.08C449.91 65.08 451.76 63.2297 451.76 60.9472C451.76 58.6647 449.91 56.8144 447.627 56.8144C445.345 56.8144 443.495 58.6647 443.495 60.9472C443.495 63.2297 445.345 65.08 447.627 65.08Z" fill="#19AD4A"/>
<path d="M432.115 65.08C434.397 65.08 436.248 63.2297 436.248 60.9472C436.248 58.6647 434.397 56.8144 432.115 56.8144C429.832 56.8144 427.982 58.6647 427.982 60.9472C427.982 63.2297 429.832 65.08 432.115 65.08Z" fill="#FFCD00"/>
<path d="M88.9888 438.565C110.595 438.565 128.11 421.05 128.11 399.444C128.11 377.838 110.595 360.323 88.9888 360.323C67.3828 360.323 49.8677 377.838 49.8677 399.444C49.8677 421.05 67.3828 438.565 88.9888 438.565Z" fill="#FF9F00"/>
<path d="M439.055 287.297H176.829C172.098 287.297 168.263 291.133 168.263 295.863V462.513C168.263 467.244 172.098 471.079 176.829 471.079H439.055C443.786 471.079 447.621 467.244 447.621 462.513V295.863C447.621 291.133 443.786 287.297 439.055 287.297Z" fill="#F1F3F5"/>
<path d="M110.606 392.328H65.9614V418.176H110.606V392.328Z" stroke="white" stroke-width="0.867549" stroke-miterlimit="10"/>
<path d="M65.9614 379.335L110.606 384.395V388.711L65.9614 383.651V392.328H110.606" stroke="white" stroke-width="0.867549" stroke-miterlimit="10"/>
<path d="M84.3925 418.176H72.758V403.91H84.3925V412.313H82.7668" stroke="white" stroke-width="0.867549" stroke-miterlimit="10"/>
<path d="M97.3785 405.013V399.81H92.0574V407.853H97.3785V405.013Z" stroke="white" stroke-width="0.867549" stroke-miterlimit="10"/>
<path d="M116.593 418.176H59.9744" stroke="white" stroke-width="0.867549" stroke-miterlimit="10"/>
<path d="M86.8735 403.42V399.81H70.2705V403.42" stroke="white" stroke-width="0.867549" stroke-miterlimit="10"/>
<path d="M84.3925 414.323V418.176" stroke="white" stroke-width="0.867549" stroke-miterlimit="10"/>
<path d="M72.0006 399.81C72.0006 399.81 73.1693 396.376 78.5752 396.376C83.9811 396.376 85.1498 399.81 85.1498 399.81" stroke="white" stroke-width="0.867549" stroke-miterlimit="10"/>
<path d="M97.3785 410.922V411.999H92.0574V410.778" stroke="white" stroke-width="0.867549" stroke-miterlimit="10"/>
<path d="M105.925 399.81H100.604V407.853H105.925V399.81Z" stroke="white" stroke-width="0.867549" stroke-miterlimit="10"/>
<path d="M100.604 410.778V411.999H105.925V410.922" stroke="white" stroke-width="0.867549" stroke-miterlimit="10"/>
<path d="M205.699 139.908L206.607 338.569L39.6761 339.326L38.5988 103.457L168.263 102.869L168.432 140.084L205.699 139.908Z" fill="white" stroke="#293B4A" stroke-width="0.867549" stroke-miterlimit="10"/>
<path d="M205.51 139.914L168.439 140.084L168.269 103.13C168.269 103.032 168.387 102.987 168.452 103.052L205.569 139.777C205.621 139.829 205.582 139.914 205.51 139.914Z" fill="#F1F3F5" stroke="#293B4A" stroke-width="0.867549" stroke-miterlimit="10"/>
<path d="M99.3959 124.656L126.543 124.532" stroke="#293B4A" stroke-width="0.867549" stroke-miterlimit="10"/>
<path d="M115.94 132.112L99.4285 132.184" stroke="#293B4A" stroke-width="0.867549" stroke-miterlimit="10"/>
<path d="M57.389 184.108L174.361 183.579" stroke="#293B4A" stroke-width="0.867549" stroke-miterlimit="10"/>
<path d="M164.946 192.165L57.4282 192.655" stroke="#293B4A" stroke-width="0.867549" stroke-miterlimit="10"/>
<path d="M57.4673 201.201L174.439 200.666" stroke="#293B4A" stroke-width="0.867549" stroke-miterlimit="10"/>
<path d="M165.024 209.251L57.5065 209.741" stroke="#293B4A" stroke-width="0.867549" stroke-miterlimit="10"/>
<path d="M57.5457 218.287L174.517 217.752" stroke="#293B4A" stroke-width="0.867549" stroke-miterlimit="10"/>
<path d="M165.103 226.337L57.5848 226.833" stroke="#293B4A" stroke-width="0.867549" stroke-miterlimit="10"/>
<path d="M182.816 307.276L129.05 307.524" stroke="#293B4A" stroke-width="0.867549" stroke-miterlimit="10"/>
<path d="M137.714 299.389C153.103 291.273 149.224 276.616 144.021 289.125C138.817 301.635 141.102 305.807 150.23 298.175C159.357 290.536 150.341 303.13 159.403 299.872C168.458 296.614 171.246 291.45 170.274 296.092C169.294 300.727 168.217 302.151 172.833 300.394" stroke="#5273FD" stroke-width="0.867549" stroke-miterlimit="10"/>
<path d="M88.0582 121.663L58.9266 121.795C57.697 121.801 56.7048 122.802 56.7104 124.032L56.8601 157.022C56.8656 158.251 57.8669 159.243 59.0965 159.238L88.2281 159.106C89.4577 159.1 90.4499 158.099 90.4443 156.869L90.2946 123.879C90.2891 122.65 89.2878 121.657 88.0582 121.663Z" fill="#F1F3F5" stroke="#293B4A" stroke-width="0.867549" stroke-miterlimit="10"/>
<path d="M129.052 123.044L97.8578 123.186C97.5873 123.187 97.3691 123.407 97.3703 123.678L97.3806 125.937C97.3818 126.207 97.602 126.425 97.8725 126.424L129.067 126.283C129.338 126.281 129.556 126.061 129.555 125.791L129.544 123.532C129.543 123.261 129.323 123.043 129.052 123.044Z" fill="#BCD5FD"/>
<path d="M116.242 130.147L97.8899 130.23C97.6194 130.231 97.4012 130.452 97.4024 130.722L97.4127 132.981C97.4139 133.251 97.6341 133.47 97.9046 133.469L116.257 133.385C116.528 133.384 116.746 133.164 116.745 132.893L116.734 130.634C116.733 130.364 116.513 130.146 116.242 130.147Z" fill="#BCD5FD"/>
<path d="M69.3957 134.867C69.8139 134.867 70.153 134.528 70.153 134.11C70.153 133.692 69.8139 133.353 69.3957 133.353C68.9774 133.353 68.6383 133.692 68.6383 134.11C68.6383 134.528 68.9774 134.867 69.3957 134.867Z" fill="#293B4A"/>
<path d="M67.7765 149.035C64.166 149.851 61.2802 152.313 59.0539 155.29" stroke="#293B4A" stroke-width="0.867549" stroke-miterlimit="10"/>
<path d="M87.1347 153.494C85.2674 151.327 81.2717 149.858 77.6351 149.401C73.1694 157.888 71.5371 151.47 71.5371 151.47C71.5371 151.47 65.8374 157.157 67.783 149.035C70.4468 148.278 70.3097 145.405 69.2324 141.723C67.3978 141.475 64.721 142.565 65.9027 136.656L65.0409 136.637C64.8581 136.637 64.7536 136.434 64.8516 136.278C65.4196 135.39 67.2607 131.76 67.4892 130.199" stroke="#293B4A" stroke-width="0.867549" stroke-linejoin="round"/>
<path d="M76.2902 146.92C73.8418 149.949 70.0877 148.741 69.7156 147.227" stroke="#293B4A" stroke-width="0.867549" stroke-linejoin="round"/>
<path d="M77.6285 149.401C75.1802 148.206 73.3129 143.159 74.2008 140.933C74.5534 139.216 74.2661 138.608 73.6785 137.551C73.5088 137.237 73.6785 136.872 74.018 136.761C74.4032 136.637 74.8211 136.147 75.0627 134.782C75.6046 131.668 72.4315 133.627 72.4315 133.627L72.5229 129.488C71.5109 130.16 71.5632 132.432 71.5632 132.432C69.5066 129.847 65.3868 130.682 65.3868 130.682C65.3868 130.682 66.8689 123.311 72.6013 125.779C72.6013 125.779 82.8516 124.715 80.1813 140.201C79.0192 146.926 81.2064 149.884 84.0529 151.072L77.6285 149.388V149.401Z" fill="#293B4A"/>
<path d="M67.1301 141.579C64.2835 145.092 65.7068 147.781 63.3629 151.118C63.3629 151.118 70.3488 149.244 69.944 145.47C69.6829 143.028 69.2259 141.729 69.2259 141.729L67.1301 141.586V141.579Z" fill="#293B4A"/>
<path d="M246.831 121.881V318.349H81.7286V85.078H209.969V121.881H246.831Z" fill="white" stroke="#293B4A" stroke-width="0.867549" stroke-miterlimit="10"/>
<path d="M246.636 121.881H209.969V85.3326C209.969 85.2347 210.087 85.189 210.152 85.2543L246.694 121.744C246.746 121.796 246.707 121.881 246.636 121.881Z" fill="#F1F3F5" stroke="#293B4A" stroke-width="0.867549" stroke-miterlimit="10"/>
<path d="M141.762 106.316H168.609" stroke="#293B4A" stroke-width="0.867549" stroke-miterlimit="10"/>
<path d="M158.097 113.759H141.762" stroke="#293B4A" stroke-width="0.867549" stroke-miterlimit="10"/>
<path d="M99.9508 164.926H215.636" stroke="#293B4A" stroke-width="0.867549" stroke-miterlimit="10"/>
<path d="M206.287 173.375H99.9508" stroke="#293B4A" stroke-width="0.867549" stroke-miterlimit="10"/>
<path d="M99.9508 181.823H215.636" stroke="#293B4A" stroke-width="0.867549" stroke-miterlimit="10"/>
<path d="M206.287 190.272H99.9508" stroke="#293B4A" stroke-width="0.867549" stroke-miterlimit="10"/>
<path d="M99.9508 198.726H215.636" stroke="#293B4A" stroke-width="0.867549" stroke-miterlimit="10"/>
<path d="M206.287 207.175H99.9508" stroke="#293B4A" stroke-width="0.867549" stroke-miterlimit="10"/>
<path d="M223.438 287.297H170.26" stroke="#293B4A" stroke-width="0.867549" stroke-miterlimit="10"/>
<path d="M178.866 279.3C194.117 271.341 190.35 256.827 185.146 269.18C179.943 281.526 182.182 285.665 191.244 278.157C200.306 270.649 191.336 283.06 200.306 279.874C209.277 276.695 212.058 271.602 211.073 276.185C210.087 280.769 209.009 282.166 213.586 280.449" stroke="#5273FD" stroke-width="0.867549" stroke-miterlimit="10"/>
<path d="M130.545 103.294H101.779C100.549 103.294 99.5526 104.29 99.5526 105.52V138.099C99.5526 139.329 100.549 140.326 101.779 140.326H130.545C131.775 140.326 132.772 139.329 132.772 138.099V105.52C132.772 104.29 131.775 103.294 130.545 103.294Z" fill="#F1F3F5" stroke="#293B4A" stroke-width="0.867549" stroke-miterlimit="10"/>
<path d="M170.855 104.847H140.495C140.091 104.847 139.764 105.175 139.764 105.579V107.315C139.764 107.719 140.091 108.047 140.495 108.047H170.855C171.258 108.047 171.586 107.719 171.586 107.315V105.579C171.586 105.175 171.258 104.847 170.855 104.847Z" fill="#BCD5FD"/>
<path d="M158.149 111.814H140.495C140.091 111.814 139.764 112.141 139.764 112.545V114.282C139.764 114.686 140.091 115.013 140.495 115.013H158.149C158.553 115.013 158.881 114.686 158.881 114.282V112.545C158.881 112.141 158.553 111.814 158.149 111.814Z" fill="#BCD5FD"/>
<path d="M127.829 139.274C126.399 136.297 123.618 133.398 118.206 133.398" stroke="#293B4A" stroke-width="0.867549" stroke-miterlimit="10"/>
<path d="M107.498 136.826C107.439 137.962 107.139 138.954 106.708 139.914" stroke="#293B4A" stroke-width="0.867549" stroke-miterlimit="10"/>
<path d="M113.361 133.092C105.167 131.479 101.413 138.308 101.413 138.308" stroke="#293B4A" stroke-width="0.867549" stroke-miterlimit="10"/>
<path d="M117.997 127.294C116.756 128.913 118.134 132.55 118.454 133.581C118.454 133.581 122.404 136.97 111.416 138.021C111.416 138.021 112.271 135.892 112.996 134.228C113.727 132.563 113.851 131.949 112.826 128.724C111.742 128.619 110.11 130.343 111.037 125.107L109.823 124.813C109.666 124.813 109.561 124.637 109.646 124.499C110.136 123.703 111.683 119.335 111.86 117.958" stroke="#293B4A" stroke-width="0.867549" stroke-miterlimit="10"/>
<path d="M117.455 113.224C114.902 112.571 112.277 113.368 111.67 115.45C111.004 117.736 111.86 117.958 111.86 117.958C116.195 116.018 116.045 121.366 116.045 121.366C116.045 121.366 118.676 120.765 117.331 123.22C117.331 123.22 118.689 126.066 117.997 127.294C117.997 127.294 124.904 128.084 122.541 118.33C122.423 117.84 122.26 117.396 122.071 116.978C122.071 116.978 122.064 116.965 122.058 116.965" fill="#293B4A"/>
<path d="M117.455 113.224C114.902 112.571 112.277 113.368 111.67 115.45C111.004 117.736 111.86 117.958 111.86 117.958C116.195 116.018 116.045 121.366 116.045 121.366C116.045 121.366 118.676 120.765 117.331 123.22C117.331 123.22 118.689 126.066 117.997 127.294C117.997 127.294 124.904 128.084 122.541 118.33C122.423 117.84 122.26 117.396 122.071 116.978C122.071 116.978 122.064 116.965 122.058 116.965" stroke="#293B4A" stroke-width="0.867549" stroke-miterlimit="10"/>
<path d="M118.447 111.102C115.268 102.432 124.532 104.482 128.887 112.989C132.275 119.609 126.51 117.579 123.076 115.953C123.076 115.953 123.39 113.361 118.447 111.102Z" fill="#293B4A" stroke="#293B4A" stroke-width="0.867549" stroke-miterlimit="10"/>
<path d="M123.207 116.449C121.751 112.793 118.454 111.546 118.454 111.546C116.919 112.604 117.05 113.002 117.05 113.002C117.05 113.002 120.961 115.02 122.064 116.972L123.207 116.449Z" stroke="#293B4A" stroke-width="0.867549" stroke-miterlimit="10"/>
<path d="M113.459 122.208C113.737 122.208 113.962 121.983 113.962 121.705C113.962 121.427 113.737 121.202 113.459 121.202C113.182 121.202 112.956 121.427 112.956 121.705C112.956 121.983 113.182 122.208 113.459 122.208Z" fill="#293B4A"/>
<path d="M109.62 122.077C109.898 122.077 110.123 121.852 110.123 121.574C110.123 121.297 109.898 121.072 109.62 121.072C109.342 121.072 109.117 121.297 109.117 121.574C109.117 121.852 109.342 122.077 109.62 122.077Z" fill="#293B4A"/>
<path d="M113.668 125.675C113.198 126.68 112.036 126.66 111.5 126.68" stroke="#293B4A" stroke-width="0.867549" stroke-miterlimit="10"/>
<path fill-rule="evenodd" clip-rule="evenodd" d="M111.239 120.073C109.32 116.299 112.375 113.733 112.375 113.733L113.139 116.671L111.82 118.166L111.22 120.158" fill="#293B4A"/>
<path d="M330.408 345.724L328.07 337.243C328.07 337.243 314.399 326.053 315.13 330.59C315.861 335.122 309.424 345.581 309.424 345.581H313.955L313.517 348.943C312.714 354.356 317.833 353.918 317.833 353.918C322.292 365.618 314.614 366.715 314.614 366.715C308.908 374.465 315.052 380.752 332.379 366.277C328.364 361.433 327.972 354.421 330.408 345.731V345.724Z" fill="#FFDCC2"/>
<path d="M331.975 351.594C328.116 354.212 324.551 348.747 327.431 345.085L327.202 344.628C327.202 344.628 322.625 347.539 325.864 352.671C329.102 357.809 335.187 350.314 335.187 350.314L331.981 351.587L331.975 351.594Z" fill="#FFCD00"/>
<path d="M321.254 340.038L314.425 339.757C314.425 339.757 314.941 342.891 317.761 343.328C319.948 343.289 321.254 340.031 321.254 340.031V340.038Z" fill="white"/>
<path d="M269.963 436.469C281.683 435.595 295.295 429.333 295.295 429.333C296.575 423.092 299.115 414.794 302.066 405.823L298.938 403.564C298.938 403.564 295.224 403.126 293.187 400.796C293.187 400.796 290.275 408.003 289.622 418.117C289.622 418.117 283.726 418.841 277.178 422.341C270.629 425.834 267.933 426.487 267.933 426.487L269.97 436.456L269.963 436.469Z" fill="#FFDCC2"/>
<path d="M362.961 403.283C357.614 409.433 346.658 410.06 346.658 410.06L348.101 423.209L350.105 441.327C350.105 441.327 350.478 442.228 348.663 442.241C346.847 442.254 299.905 442.241 299.905 442.241V438.565H293.245L294.675 431.253C294.675 431.253 300.421 409.858 301.896 406.306C301.896 406.306 302.425 406.149 301.041 405.372C299.657 404.595 298.514 403.381 298.514 403.381C295.844 402.741 293.422 401.279 291.3 398.798C296.066 384.467 301.661 371.187 314.17 366.623C314.17 366.623 303.913 382.182 331.243 366.963L333.672 366.591C333.672 366.591 343.668 368.008 349.028 373.746C354.388 379.485 362.961 403.29 362.961 403.29V403.283Z" fill="#19AD4A"/>
<path d="M362.621 403.139C368.373 421.264 368.445 426.794 368.445 426.794C362.367 432.213 349.407 436.169 327.757 438.291C327.757 438.291 326.517 441.784 317.494 442.293C308.471 442.803 303.594 442.437 303.594 442.437C303.594 442.437 308.542 430.43 325.648 431.736C337.368 425.769 353.814 421.695 353.814 421.695L347.99 410.119C354.375 409.133 359.657 407.161 362.621 403.133V403.139Z" fill="#FFDCC2"/>
<path d="M307.197 381.242C307.197 384.584 303.776 389.35 298.997 396.558C296.614 400.149 297.959 404.334 302.027 405.771C302.066 405.784 302.098 405.797 302.138 405.81C302.138 405.81 295.23 425.553 292.978 438.565" stroke="#293B4A" stroke-width="0.867549" stroke-miterlimit="10"/>
<path d="M349.361 435.112C349.916 440.269 350.249 442.352 350.249 442.352" stroke="#293B4A" stroke-width="0.867549" stroke-miterlimit="10"/>
<path d="M346.658 410.06C347.422 416.236 347.468 417.562 348.101 423.209" stroke="#293B4A" stroke-width="0.867549" stroke-miterlimit="10"/>
<path d="M342.212 390.199C343.407 398.837 344.549 410.008 344.549 410.008C344.549 410.008 356.177 411.072 362.961 403.283" stroke="#293B4A" stroke-width="0.867549" stroke-miterlimit="10"/>
<path d="M348.101 409.975C350.471 415.884 354.095 421.708 354.095 421.708" stroke="#293B4A" stroke-width="0.867549" stroke-miterlimit="10"/>
<path d="M320.059 347.82C319.132 349.759 316.86 349.687 315.737 349.028" stroke="#293B4A" stroke-width="0.867549" stroke-linejoin="round"/>
<path d="M315.744 366.14C299.676 370.142 293.271 392.145 291.3 399.098C291.3 399.098 295.85 403.505 298.769 403.505" stroke="#293B4A" stroke-width="0.867549" stroke-miterlimit="10"/>
<path d="M303.189 442.398C309.13 430.287 325.922 431.481 325.922 431.481C325.922 431.481 338.223 426.108 348.101 423.209C352.645 421.877 356.68 421.061 358.769 421.538" stroke="#293B4A" stroke-width="0.867549" stroke-miterlimit="10"/>
<path d="M308.673 442.359C314.027 436.633 318.662 437.364 318.662 437.364" stroke="#293B4A" stroke-width="0.867549" stroke-miterlimit="10"/>
<path d="M315.744 366.14C320.19 364.769 319.844 359.964 317.905 353.827C314.817 353.474 312.231 355.479 313.994 345.529L309.561 345.581C309.254 345.581 309.019 345.209 309.228 344.993C312.532 341.474 314.229 337.204 314.556 334.58" stroke="#293B4A" stroke-width="0.867549" stroke-linejoin="round"/>
<path d="M270.93 436.28C279.652 435.105 291.012 431.573 295.034 429.209" stroke="#293B4A" stroke-width="0.867549" stroke-linejoin="round"/>
<path d="M292.984 400.567C290.072 409.035 289.537 418.306 289.537 418.306C283.184 418.398 273.508 424.541 267.619 426.689" stroke="#293B4A" stroke-width="0.867549" stroke-miterlimit="10"/>
<path d="M308.464 406.306C315.424 406.913 317.618 407.507 317.618 407.507" stroke="#293B4A" stroke-width="0.867549" stroke-miterlimit="10"/>
<path d="M208.337 404.798L218.235 442.359H299.683V438.559H270.668L261.991 404.798H208.337Z" fill="#F1F3F5" stroke="#293B4A" stroke-width="0.867549" stroke-miterlimit="10"/>
<path d="M239.898 427.459C241.519 427.109 242.444 425.017 241.963 422.785C241.481 420.554 239.777 419.029 238.156 419.379C236.534 419.728 235.61 421.821 236.091 424.052C236.572 426.283 238.277 427.808 239.898 427.459Z" stroke="#293B4A" stroke-width="0.867549" stroke-miterlimit="10"/>
<path d="M299.683 442.359H370.358" stroke="#293B4A" stroke-width="0.867549" stroke-miterlimit="10"/>
<path d="M364.939 442.398H375.549" stroke="#293B4A" stroke-width="0.867549" stroke-miterlimit="10"/>
<path d="M389.305 442.398H412.11" stroke="#293B4A" stroke-width="0.867549" stroke-miterlimit="10"/>
<path d="M407.135 448.652H322.743" stroke="#293B4A" stroke-width="0.867549" stroke-miterlimit="10"/>
<path d="M311.441 448.652H191.786" stroke="#293B4A" stroke-width="0.867549" stroke-miterlimit="10"/>
<path d="M316.991 442.359C326.203 442.541 327.541 438.291 327.541 438.291C363.927 435.072 368.432 426.787 368.432 426.787C368.432 426.787 364.325 395.311 349.028 373.74C346.168 369.705 338.856 367.08 332.281 366.395C332.281 366.395 304.521 382.404 314.836 366.395" stroke="#293B4A" stroke-width="0.867549" stroke-linejoin="round"/>
<path d="M328.704 354.251C328.031 362.562 332.275 366.388 332.275 366.388" stroke="#293B4A" stroke-width="0.867549" stroke-linejoin="round"/>
<path d="M330.427 346.73C329.709 348.708 329.239 350.523 328.958 352.188" stroke="#293B4A" stroke-width="0.867549" stroke-linejoin="round"/>
<path d="M321.156 336.042C327.228 336.042 332.151 332.865 332.151 328.945C332.151 325.026 327.228 321.848 321.156 321.848C315.084 321.848 310.162 325.026 310.162 328.945C310.162 332.865 315.084 336.042 321.156 336.042Z" fill="#293B4A"/>
<path d="M331.646 341.2C333.309 339.538 332.567 336.101 329.989 333.523C327.411 330.945 323.974 330.203 322.312 331.866C320.649 333.528 321.391 336.965 323.969 339.543C326.547 342.121 329.984 342.863 331.646 341.2Z" fill="#293B4A"/>
<path d="M335.162 344.217C337.74 341.639 338.482 338.202 336.819 336.539C335.157 334.877 331.72 335.619 329.142 338.197C326.564 340.775 325.822 344.212 327.485 345.874C329.147 347.537 332.584 346.795 335.162 344.217Z" fill="#293B4A"/>
<path d="M337.203 348.299C339.78 345.722 340.522 342.284 338.86 340.622C337.198 338.96 333.76 339.702 331.183 342.279C328.605 344.857 327.863 348.294 329.525 349.957C331.188 351.619 334.625 350.877 337.203 348.299Z" fill="#293B4A"/>
<path d="M334.691 353.598C337.042 353.598 338.948 351.233 338.948 348.316C338.948 345.399 337.042 343.034 334.691 343.034C332.34 343.034 330.434 345.399 330.434 348.316C330.434 351.233 332.34 353.598 334.691 353.598Z" fill="#293B4A"/>
<path d="M321.75 336.838C324.101 336.838 326.007 333.883 326.007 330.238C326.007 326.592 324.101 323.637 321.75 323.637C319.399 323.637 317.494 326.592 317.494 330.238C317.494 333.883 319.399 336.838 321.75 336.838Z" fill="#293B4A"/>
<path d="M311.82 337.668C314.171 337.668 316.077 334.713 316.077 331.067C316.077 327.422 314.171 324.466 311.82 324.466C309.469 324.466 307.563 327.422 307.563 331.067C307.563 334.713 309.469 337.668 311.82 337.668Z" fill="#293B4A"/>
<path d="M312.754 327.85C315.643 325.627 316.823 322.315 315.39 320.451C313.956 318.588 310.452 318.879 307.562 321.102C304.673 323.325 303.493 326.637 304.926 328.5C306.36 330.364 309.864 330.073 312.754 327.85Z" fill="#293B4A"/>
<path d="M320.089 325.228C322.979 323.005 324.159 319.693 322.726 317.829C321.292 315.966 317.788 316.257 314.898 318.48C312.009 320.703 310.829 324.015 312.262 325.879C313.696 327.742 317.2 327.451 320.089 325.228Z" fill="#293B4A"/>
<path d="M327.178 325.233C330.068 323.011 331.248 319.698 329.815 317.835C328.381 315.971 324.877 316.263 321.987 318.485C319.098 320.708 317.918 324.021 319.351 325.884C320.784 327.747 324.289 327.456 327.178 325.233Z" fill="#293B4A"/>
<path d="M336.175 331.678C339.065 329.455 340.245 326.143 338.811 324.279C337.378 322.416 333.874 322.707 330.984 324.93C328.095 327.153 326.914 330.465 328.348 332.329C329.781 334.192 333.286 333.901 336.175 331.678Z" fill="#293B4A"/>
<path d="M344.091 350.682C346.98 348.459 348.16 345.146 346.727 343.283C345.293 341.42 341.789 341.711 338.9 343.934C336.01 346.156 334.83 349.469 336.263 351.332C337.697 353.196 341.201 352.904 344.091 350.682Z" fill="#293B4A"/>
<path d="M340.345 344.295C343.99 344.295 346.945 341.79 346.945 338.699C346.945 335.609 343.99 333.104 340.345 333.104C336.699 333.104 333.744 335.609 333.744 338.699C333.744 341.79 336.699 344.295 340.345 344.295Z" fill="#293B4A"/>
<path d="M343.968 336.512C346.319 336.512 348.225 334.606 348.225 332.255C348.225 329.904 346.319 327.998 343.968 327.998C341.617 327.998 339.711 329.904 339.711 332.255C339.711 334.606 341.617 336.512 343.968 336.512Z" fill="#293B4A"/>
<path d="M337.818 336.615C341.29 333.944 342.708 329.962 340.984 327.721C339.26 325.481 335.048 325.83 331.576 328.501C328.103 331.172 326.686 335.154 328.409 337.395C330.133 339.635 334.345 339.286 337.818 336.615Z" fill="#293B4A"/>
<path d="M340.377 332.099C344.023 332.099 346.978 329.143 346.978 325.498C346.978 321.852 344.023 318.897 340.377 318.897C336.732 318.897 333.777 321.852 333.777 325.498C333.777 329.143 336.732 332.099 340.377 332.099Z" fill="#293B4A"/>
<path d="M333.026 324.175C335.915 321.952 337.095 318.64 335.662 316.776C334.228 314.913 330.724 315.204 327.835 317.427C324.945 319.65 323.765 322.962 325.198 324.826C326.632 326.689 330.136 326.398 333.026 324.175Z" fill="#293B4A"/>
<path d="M336.158 319.233C337.582 316.377 336.338 312.866 333.379 311.391C330.42 309.915 326.866 311.034 325.443 313.89C324.019 316.746 325.263 320.257 328.222 321.733C331.181 323.208 334.735 322.089 336.158 319.233Z" fill="#293B4A"/>
<path d="M338.254 324.172C341.144 321.95 342.324 318.637 340.891 316.774C339.457 314.91 335.953 315.202 333.063 317.424C330.174 319.647 328.994 322.96 330.427 324.823C331.861 326.686 335.365 326.395 338.254 324.172Z" fill="#293B4A"/>
<path d="M325.097 322.235C327.987 320.012 329.167 316.699 327.734 314.836C326.3 312.973 322.796 313.264 319.906 315.487C317.017 317.709 315.837 321.022 317.27 322.885C318.704 324.749 322.208 324.457 325.097 322.235Z" fill="#293B4A"/>
<path d="M318.676 321.767C321.566 319.544 322.329 315.689 320.381 313.157C318.433 310.625 314.512 310.374 311.622 312.597C308.733 314.82 307.97 318.674 309.917 321.206C311.865 323.739 315.787 323.989 318.676 321.767Z" fill="#293B4A"/>
<path d="M325.583 316.606C327.778 314.917 328.413 312.061 327.002 310.226C325.59 308.391 322.667 308.273 320.472 309.961C318.277 311.65 317.642 314.506 319.053 316.341C320.465 318.175 323.388 318.294 325.583 316.606Z" fill="#293B4A"/>
<path d="M312.793 339.855C313.635 339.241 314.412 339.855 314.412 339.855C314.412 339.855 317.396 347.409 320.941 340.358C321.228 339.783 326.974 340.58 326.974 340.58" stroke="#293B4A" stroke-width="0.867549" stroke-miterlimit="10"/>
<path d="M329.082 354.356C331.567 354.356 333.581 352.049 333.581 349.204C333.581 346.359 331.567 344.053 329.082 344.053C326.598 344.053 324.584 346.359 324.584 349.204C324.584 352.049 326.598 354.356 329.082 354.356Z" stroke="#293B4A" stroke-width="0.867549" stroke-linejoin="round"/>
<path d="M329.918 352.436C331.941 352.436 333.581 350.56 333.581 348.245C333.581 345.93 331.941 344.053 329.918 344.053C327.895 344.053 326.255 345.93 326.255 348.245C326.255 350.56 327.895 352.436 329.918 352.436Z" stroke="#293B4A" stroke-width="0.867549" stroke-linejoin="round"/>
<path d="M318.956 341.011L318.022 339.581" stroke="#293B4A" stroke-width="0.867549" stroke-miterlimit="10"/>
<path d="M317.729 342.081L316.083 339.581" stroke="#293B4A" stroke-width="0.867549" stroke-miterlimit="10"/>
<path d="M377.377 376.567C375.261 375.215 372.728 375.3 371.474 376.867C370.221 378.434 370.691 380.928 372.467 382.698C369.268 384.049 366.656 386.288 366.447 387.94C366.238 389.592 368.517 390.082 371.664 389.161L369.666 392.367C368.713 394.267 368.425 395.775 369.059 396.284C370.019 397.055 372.774 395.253 375.438 392.191C375.229 395.462 376.201 397.57 377.768 397.009C379.335 396.447 380.948 393.411 381.575 389.99C383.69 391.342 386.223 391.257 387.477 389.69C388.73 388.123 388.26 385.629 386.484 383.86L388.678 382.743C390.807 381.457 392.347 379.871 392.504 378.617C392.713 376.965 390.434 376.475 387.287 377.396C389.697 374.125 390.859 371.05 389.899 370.28C388.939 369.509 386.184 371.311 383.52 374.373C383.729 371.102 382.756 368.993 381.189 369.548C380.399 369.829 379.596 370.743 378.911 372.023C378.48 372.832 378.167 373.694 377.925 374.576L377.383 376.567H377.377Z" fill="#FFCD00"/>
<path d="M397.956 432.337H374.151L376.652 439.917C377.142 441.405 378.532 442.411 380.106 442.411H392.36C393.666 442.411 394.828 441.582 395.246 440.341L397.956 432.337Z" fill="#FFE570"/>
<path d="M374.151 432.337L376.822 440.282C377.253 441.562 378.447 442.424 379.799 442.424H392.315C393.666 442.424 394.861 441.562 395.292 440.282L397.962 432.337H374.158H374.151Z" stroke="#293B4A" stroke-width="0.867549" stroke-miterlimit="10"/>
<path d="M386.054 430.515C386.119 413.227 386.093 396.167 381.797 389.984" stroke="#293B4A" stroke-width="0.867549" stroke-miterlimit="10"/>
<path d="M373.387 409.557C373.387 409.557 374.706 422.628 385.375 424.659C385.375 424.659 385.877 414.931 373.387 409.557Z" fill="#5CC46E"/>
<path d="M400.907 405.784C400.907 405.784 387.993 408.186 386.857 418.992C386.857 418.992 396.598 418.678 400.907 405.784Z" fill="#5CC46E"/>
<path d="M373.74 398.752C373.74 398.752 376.619 408.343 384.898 408.317C384.898 408.317 383.866 400.966 373.74 398.752Z" fill="#5CC46E"/>
<path d="M397.799 397.166C397.799 397.166 389.292 395.618 386.067 401.997C386.067 401.997 392.132 404.086 397.799 397.166Z" fill="#5CC46E"/>
<path d="M381.746 384.536C383.072 382.881 383.321 380.879 382.303 380.062C381.284 379.246 379.384 379.925 378.058 381.58C376.732 383.234 376.483 385.237 377.501 386.053C378.52 386.87 380.42 386.19 381.746 384.536Z" fill="#FF340C" stroke="#293B4A" stroke-width="0.867549" stroke-miterlimit="10"/>
<path d="M377.612 376.567C375.496 375.215 372.963 375.3 371.71 376.867C370.456 378.434 370.926 380.928 372.702 382.698C369.503 384.049 366.891 386.288 366.682 387.94C366.473 389.592 368.752 390.082 371.899 389.161" stroke="#293B4A" stroke-width="0.867549" stroke-miterlimit="10"/>
<path d="M388.9 382.743C391.029 381.457 392.569 379.871 392.726 378.617C392.935 376.965 390.656 376.476 387.509 377.396C389.919 374.125 391.081 371.05 390.121 370.28C389.161 369.509 386.406 371.311 383.742 374.373C383.951 371.102 382.978 368.993 381.411 369.548C380.302 369.947 379.172 371.579 378.382 373.707" stroke="#293B4A" stroke-width="0.867549" stroke-miterlimit="10"/>
<path d="M369.894 392.367C368.941 394.267 368.654 395.775 369.287 396.284C370.247 397.055 373.002 395.253 375.666 392.191C375.457 395.462 376.43 397.57 377.997 397.009C379.564 396.447 381.176 393.411 381.803 389.99C383.919 391.342 386.452 391.257 387.705 389.69C388.959 388.123 388.489 385.629 386.713 383.86" stroke="#293B4A" stroke-width="0.867549" stroke-miterlimit="10"/>
<path d="M168.445 318.61V418.502H212.189" stroke="#293B4A" stroke-width="0.867549" stroke-miterlimit="10"/>
<path d="M281.147 277.863C309.709 277.863 332.863 254.709 332.863 226.148C332.863 197.586 309.709 174.432 281.147 174.432C252.586 174.432 229.432 197.586 229.432 226.148C229.432 254.709 252.586 277.863 281.147 277.863Z" fill="#F1F3F5"/>
<path d="M281.147 270.218C305.486 270.218 325.217 250.487 325.217 226.148C325.217 201.809 305.486 182.078 281.147 182.078C256.808 182.078 237.077 201.809 237.077 226.148C237.077 250.487 256.808 270.218 281.147 270.218Z" fill="#FFDCC2"/>
<path d="M308.588 269.983C306.088 271.55 303.443 272.914 300.682 274.044C294.655 276.505 288.061 277.863 281.147 277.863C252.583 277.863 229.432 254.712 229.432 226.148C229.432 197.584 252.583 174.432 281.147 174.432C309.711 174.432 332.863 197.584 332.863 226.148C332.863 236.483 329.833 246.107 324.61 254.183" stroke="#293B4A" stroke-width="0.867549" stroke-miterlimit="10"/>
<path d="M316.005 261.006L346.142 291.143L358.502 303.496" stroke="#293B4A" stroke-width="0.867549" stroke-miterlimit="10"/>
<path d="M281.147 270.218C305.486 270.218 325.217 250.487 325.217 226.148C325.217 201.809 305.486 182.078 281.147 182.078C256.808 182.078 237.077 201.809 237.077 226.148C237.077 250.487 256.808 270.218 281.147 270.218Z" stroke="#293B4A" stroke-width="0.867549" stroke-miterlimit="10"/>
<path d="M261.724 226.135C265.419 221.264 272.725 217.948 281.147 217.948C289.569 217.948 296.875 221.264 300.571 226.135C297.496 231.325 289.569 234.342 281.147 234.342C274.834 234.342 269.141 232.474 265.132 229.484" fill="white"/>
<path d="M261.724 226.135C265.419 221.264 272.725 217.948 281.147 217.948C289.569 217.948 296.875 221.264 300.571 226.135C297.496 231.325 289.569 234.342 281.147 234.342C274.834 234.342 269.141 232.474 265.132 229.484" stroke="#293B4A" stroke-width="0.867549" stroke-miterlimit="10"/>
<path d="M281.226 230.849C283.822 230.849 285.926 228.744 285.926 226.148C285.926 223.552 283.822 221.447 281.226 221.447C278.629 221.447 276.525 223.552 276.525 226.148C276.525 228.744 278.629 230.849 281.226 230.849Z" fill="#C0894C"/>
<g style="mix-blend-mode:multiply">
<path d="M281.226 228.08C282.293 228.08 283.158 227.215 283.158 226.148C283.158 225.08 282.293 224.215 281.226 224.215C280.158 224.215 279.293 225.08 279.293 226.148C279.293 227.215 280.158 228.08 281.226 228.08Z" fill="#293B4A"/>
</g>
<path d="M285.175 228.57C283.837 230.796 280.951 231.515 278.725 230.176C276.499 228.838 275.78 225.952 277.119 223.726C278.457 221.499 281.343 220.781 283.569 222.119C284.118 222.446 284.575 222.87 284.934 223.36" stroke="#293B4A" stroke-width="0.867549" stroke-miterlimit="10"/>
<path d="M255.463 195.651C253.223 204.655 282.42 196.259 304.475 199.112C304.991 199.177 305.134 198.413 304.638 198.256C290.927 193.934 269.931 189.56 256.448 194.554C255.965 194.731 255.587 195.149 255.463 195.651Z" fill="#293B4A"/>
<path d="M251.415 242.561C254.757 253.537 255.293 261.835 255.293 261.835" stroke="#293B4A" stroke-width="0.867549" stroke-miterlimit="10"/>
<path d="M261.724 215.989C271.099 207.358 289.537 210.89 289.537 210.89" stroke="#293B4A" stroke-width="0.867549" stroke-miterlimit="10"/>
<path d="M261.724 78.9343C283.521 78.9343 301.191 61.2643 301.191 39.4672C301.191 17.6701 283.521 0 261.724 0C239.927 0 222.257 17.6701 222.257 39.4672C222.257 61.2643 239.927 78.9343 261.724 78.9343Z" fill="#FFCD00"/>
<path d="M275.017 51.5717C280.934 51.5717 285.731 46.7749 285.731 40.8578C285.731 34.9406 280.934 30.1439 275.017 30.1439C269.099 30.1439 264.303 34.9406 264.303 40.8578C264.303 46.7749 269.099 51.5717 275.017 51.5717Z" fill="white"/>
<path d="M275.017 51.5717C280.934 51.5717 285.731 46.7749 285.731 40.8578C285.731 34.9406 280.934 30.1439 275.017 30.1439C269.099 30.1439 264.303 34.9406 264.303 40.8578C264.303 46.7749 269.099 51.5717 275.017 51.5717Z" fill="#FFCD00" stroke="#293B4A" stroke-width="0.867549" stroke-miterlimit="10"/>
<path d="M272.066 19.8608H246.596C244.964 19.8608 243.645 21.1797 243.645 22.8119V53.1582" stroke="#293B4A" stroke-width="0.867549" stroke-miterlimit="10"/>
<path d="M269.088 28.6291L269.121 22.8119C269.121 21.1797 270.44 19.8608 272.072 19.8608C273.704 19.8608 275.023 21.1797 275.023 22.8119V25.874H271.295" stroke="#293B4A" stroke-width="0.867549" stroke-miterlimit="10"/>
<path d="M266.137 59.0604C264.505 59.0604 263.186 57.7415 263.186 56.1093V53.1583H237.717V56.1093C237.717 57.7415 239.036 59.0604 240.668 59.0604H266.137ZM266.137 59.0604L269.088 59.0734V53.1648" stroke="#293B4A" stroke-width="0.867549" stroke-miterlimit="10"/>
<path d="M247.974 25.2081H255.907" stroke="#293B4A" stroke-width="0.867549" stroke-miterlimit="10"/>
<path d="M247.974 42.6467H252.792" stroke="#293B4A" stroke-width="0.867549" stroke-miterlimit="10"/>
<path d="M258.727 30.2679H264.374" stroke="#293B4A" stroke-width="0.867549" stroke-miterlimit="10"/>
<path d="M247.974 30.2679H256.37" stroke="#293B4A" stroke-width="0.867549" stroke-miterlimit="10"/>
<path d="M247.974 33.0884H264.374" stroke="#293B4A" stroke-width="0.867549" stroke-miterlimit="10"/>
<path d="M254.189 35.9155H262.677" stroke="#293B4A" stroke-width="0.867549" stroke-miterlimit="10"/>
<path d="M247.974 35.9155H251.943" stroke="#293B4A" stroke-width="0.867549" stroke-miterlimit="10"/>
<path d="M247.974 38.7424H260.34" stroke="#293B4A" stroke-width="0.867549" stroke-miterlimit="10"/>
<path d="M276.185 36.1439C277.315 36.49 278.111 37.3256 278.111 38.2985" stroke="#293B4A" stroke-width="0.867549" stroke-miterlimit="10"/>
<path d="M275.017 40.6227C273.306 40.6227 271.922 39.5846 271.922 38.2984C271.922 37.0122 273.306 35.9741 275.017 35.9741" stroke="#293B4A" stroke-width="0.867549" stroke-miterlimit="10"/>
<path d="M273.828 45.095C272.712 44.7425 271.922 43.9133 271.922 42.947" stroke="#293B4A" stroke-width="0.867549" stroke-miterlimit="10"/>
<path d="M275.017 40.6227C276.727 40.6227 278.111 41.6608 278.111 42.947C278.111 44.2332 276.727 45.2713 275.017 45.2713" stroke="#293B4A" stroke-width="0.867549" stroke-miterlimit="10"/>
<path d="M275.017 34.1396V35.9742V47.576" stroke="#293B4A" stroke-width="0.867549" stroke-miterlimit="10"/>
<path d="M464.479 272.294C481.887 272.294 496 258.181 496 240.773C496 223.364 481.887 209.251 464.479 209.251C447.07 209.251 432.957 223.364 432.957 240.773C432.957 258.181 447.07 272.294 464.479 272.294Z" fill="#19AD4A"/>
<path d="M473.417 259.7H450.487V221.845H478.47V259.7" stroke="white" stroke-width="0.867549" stroke-miterlimit="10"/>
<path d="M455.247 228.661H473.704" stroke="white" stroke-width="0.867549" stroke-miterlimit="10"/>
<path d="M472.799 247.531C474.639 242.946 472.415 237.738 467.83 235.898C463.246 234.058 458.038 236.283 456.198 240.867C454.357 245.452 456.582 250.66 461.167 252.5C465.751 254.34 470.959 252.115 472.799 247.531Z" stroke="white" stroke-width="0.867549" stroke-miterlimit="10"/>
<path d="M464.479 253.112C466.328 253.112 467.828 249.108 467.828 244.168C467.828 239.228 466.328 235.223 464.479 235.223C462.629 235.223 461.129 239.228 461.129 244.168C461.129 249.108 462.629 253.112 464.479 253.112Z" stroke="white" stroke-width="0.867549" stroke-miterlimit="10"/>
<path d="M455.534 244.168H473.417" stroke="white" stroke-width="0.867549" stroke-miterlimit="10"/>
<path d="M275.043 112.212H441.96" stroke="#F1F3F5" stroke-width="5.2053" stroke-miterlimit="10"/>
<path d="M275.043 132.843H441.96" stroke="#F1F3F5" stroke-width="5.2053" stroke-miterlimit="10"/>
<path d="M275.043 153.481H415.316" stroke="#F1F3F5" stroke-width="5.2053" stroke-miterlimit="10"/>
</svg>
