<svg xmlns="http://www.w3.org/2000/svg" width="349" height="215" viewBox="0 0 349 215" fill="none"><path d="M179.836 13.1681C178.411 23.6586 171.938 33.4855 171.938 33.4855L174.836 34.3417L174.444 43.3765L176.417 47.4656L181.552 49.7066L185.234 64.1504L192.143 73.1138L204.321 71.4011L207.348 59.7972C207.348 59.7972 207.348 41.2428 207.412 40.9359C207.477 40.629 204.45 14.9522 204.45 14.9522L201.031 6.50977L179.836 13.1681Z" fill="#FFDCC2"></path><path d="M186.354 65.1349C193.262 72.5211 203.069 69.6236 205.049 63.9502L210.576 70.6085C210.576 70.6085 198.07 94.3511 192.543 77.3379C192.543 77.3379 176.305 92.9309 181.261 70.2015L186.354 65.1349Z" fill="#B4CFF9"></path><path d="M139.648 129.255C144.036 130.019 148.333 131.239 152.468 132.895L155.395 116.93L144.556 112.478L139.648 129.255Z" fill="#B4CFF9"></path><path d="M143.781 113.248C147.079 116.402 146.181 121.062 146.181 121.062C146.181 121.062 149.479 115.803 154.429 116.552C149.244 124.631 147.969 132.324 159.414 138.768C159.414 138.768 150.989 190.949 149.336 195.609H153.538V202.339H219.232C219.232 202.339 233.184 151.842 233.633 141.023L234.381 144.477C240.385 146.761 256.295 142.907 262.869 134.914C262.869 134.914 254.322 110.215 247.585 98.0405C240.848 85.8658 236.902 76.2459 224.339 74.2977C219.634 72.6514 214.794 71.4263 209.874 70.6368C209.874 70.6368 200.017 95.3642 192.311 77.5446C175.382 93.1233 180.844 69.7803 180.844 69.7803L169.919 75.3465C158.538 84.2884 149.693 96.7203 143.781 113.248Z" fill="#4E6FFF"></path><path d="M234.408 144.762L232.898 135.664C232.898 135.664 234.821 122.397 244.458 136.042C244.458 136.042 244.657 123.054 253.852 134.044C253.852 134.044 254.258 123.339 260.774 128.549L262.911 134.972C254.906 142.829 245.355 145.911 234.408 144.762Z" fill="#B4CFF9"></path><path d="M237.306 145.248C244.293 160.905 247.22 166.386 247.22 166.386C233.424 169.712 216.638 175.999 198.925 183.192C177.865 183.849 165.737 190.799 160.039 202.296H186.982C193.755 201.34 199.502 199.67 201.724 195.545C234.414 191.485 262.546 186.068 272.232 175.171C270.32 161.499 267.174 148.03 262.831 134.929C257.255 141.202 249.634 145.498 237.306 145.248Z" fill="#FFDCC2"></path><path d="M100.438 175.314C112.638 171.496 120.515 162.197 135.514 160.799C139.708 141.188 143.903 129.977 143.903 129.977L151.908 132.653C151.908 132.653 155.719 138.126 159.408 138.768L155.213 166.401C155.213 166.401 140.342 188.809 105.138 191.742L100.438 175.314Z" fill="#FFDCC2"></path><path d="M163.087 93.8164C162.126 103.807 156.606 113.891 153.195 118.48C151.965 120.111 151.133 122.007 150.765 124.018C150.397 126.029 150.504 128.098 151.077 130.06C151.65 132.022 152.674 133.822 154.065 135.317C155.457 136.812 157.178 137.959 159.092 138.668L159.533 138.826C159.533 138.826 155.324 168.763 149.562 194.668" stroke="#243B4C" stroke-width="1.5" stroke-miterlimit="10"></path><path d="M233.8 139.717C232.362 150.709 230.11 161.579 227.062 172.237" stroke="#243B4C" stroke-width="1.5" stroke-miterlimit="10"></path><path d="M227.062 111.949C232.639 127.307 234.491 145.055 234.491 145.055C234.491 145.055 251.228 148.131 262.979 134.629" stroke="#243B4C" stroke-width="1.5" stroke-miterlimit="10"></path><path d="M237.648 145.319C241.751 155.567 247.619 166.571 247.619 166.571" stroke="#243B4C" stroke-width="1.5" stroke-miterlimit="10"></path><path d="M185.002 28.3465C185.883 28.3465 186.597 27.6308 186.597 26.748C186.597 25.8651 185.883 25.1494 185.002 25.1494C184.121 25.1494 183.406 25.8651 183.406 26.748C183.406 27.6308 184.121 28.3465 185.002 28.3465Z" fill="#243B4C"></path><path d="M188.736 38.4727C187.126 41.8339 183.202 41.7127 181.258 40.5637" stroke="#243B4C" stroke-width="1.5" stroke-linejoin="round"></path><path d="M181.261 70.2305C153.485 77.167 141.378 117.859 139.953 129.505C139.953 129.505 148.72 130.733 152.253 132.967" stroke="#243B4C" stroke-width="1.5" stroke-miterlimit="10"></path><path d="M159.539 202.446C169.816 181.451 198.874 183.513 198.874 183.513C198.874 183.513 244.241 163.66 255.708 166.279" stroke="#243B4C" stroke-width="1.5" stroke-miterlimit="10"></path><path d="M169.031 202.375C178.29 192.441 186.309 193.719 186.309 193.719" stroke="#243B4C" stroke-width="1.5" stroke-miterlimit="10"></path><path d="M183.416 202.375C199.362 202.689 201.67 195.317 201.67 195.317C264.622 189.737 272.42 175.378 272.42 175.378C272.42 175.378 265.298 120.813 238.847 83.4114C233.862 76.4106 221.248 71.8648 209.867 70.6659C197.447 95.6433 192.304 77.0886 192.304 77.0886C192.304 77.0886 176.13 93.9876 181.258 70.2376C188.95 67.8612 188.38 59.5329 184.997 48.8926C179.656 48.286 171.971 51.6188 175.026 34.3772H172.526C172.407 34.3782 172.29 34.3472 172.186 34.2873C172.083 34.2275 171.997 34.1409 171.938 34.0368C171.88 33.9327 171.85 33.8149 171.852 33.6953C171.854 33.5757 171.887 33.4587 171.95 33.3566C173.552 30.7376 178.652 20.0686 179.221 15.5156" stroke="#243B4C" stroke-width="1.5" stroke-linejoin="round"></path><path d="M106.547 191.841C143.311 186.846 154.977 166.571 154.977 166.571" stroke="#243B4C" stroke-width="1.5" stroke-linejoin="round"></path><path d="M143.964 129.505C138.922 144.192 135.916 160.677 135.916 160.677C124.927 160.827 110.989 171.481 100.805 175.206" stroke="#243B4C" stroke-width="1.5" stroke-miterlimit="10"></path><path d="M167.086 139.261C179.122 140.317 184.471 141.951 184.471 141.951" stroke="#243B4C" stroke-width="1.5" stroke-miterlimit="10"></path><path d="M1.92969 137.262L19.0511 202.374H153.48V195.794H106.09L91.0763 137.262H1.92969Z" fill="#F1F3F5" stroke="#243B4C" stroke-width="1.5" stroke-miterlimit="10"></path><path d="M52.9753 176.433C55.7822 175.827 57.3818 172.196 56.5485 168.324C55.7151 164.452 52.7643 161.805 49.9575 162.411C47.1506 163.018 45.5505 166.649 46.3839 170.521C47.2173 174.393 50.1685 177.04 52.9753 176.433Z" fill="white" stroke="#243B4C" stroke-width="1.5" stroke-miterlimit="10"></path><path d="M153.477 202H275.755" stroke="#243B4C" stroke-width="1.5" stroke-miterlimit="10"></path><path d="M222.133 192.576C220.196 200.655 219.641 202.446 219.641 202.446" stroke="#243B4C" stroke-width="1.5" stroke-miterlimit="10"></path><path d="M204.35 64.8418C197.442 73.8051 187.969 69.2235 186.766 64.8418" stroke="#243B4C" stroke-width="1.5" stroke-linejoin="round"></path><path d="M260.998 128.649C254.83 121.926 254.26 134.871 254.26 134.871C254.26 134.871 244.66 121.812 245.001 137.255C245.001 137.255 235.558 121.555 233.172 135.899" stroke="#243B4C" stroke-width="1.5" stroke-linejoin="round"></path><path d="M308.539 202H348.002" stroke="#243B4C" stroke-width="1.5" stroke-miterlimit="10"></path><path d="M209.871 70.6655C202.692 67.3542 196.959 52.7887 199.395 46.2732C200.313 41.2777 199.394 39.522 197.664 36.4676C197.546 36.2595 197.476 36.0274 197.459 35.7884C197.443 35.5495 197.481 35.3099 197.57 35.0877C197.659 34.8654 197.797 34.6661 197.973 34.5047C198.15 34.3433 198.361 34.2241 198.59 34.1556C199.701 33.7631 200.89 32.3216 201.496 28.3395C202.877 19.2477 193.782 25.1494 193.782 25.1494V13.1032C190.884 15.1157 191.19 21.731 191.19 21.731C185.051 14.3377 173.164 17.0425 173.164 17.0425C173.164 17.0425 176.996 -4.48095 193.782 2.32717C193.782 2.32717 223.467 -1.41954 216.687 43.7824C213.745 63.4146 220.248 71.8641 228.609 75.1825L209.871 70.6655Z" fill="#243B4C"></path><path d="M178.899 48.5996C170.872 59.0045 175.16 66.7331 168.586 76.5671C168.586 76.5671 188.734 70.6654 187.317 59.7182C186.405 52.6317 184.995 48.8853 184.995 48.8853L178.899 48.5996Z" fill="#243B4C"></path><path d="M339.391 213.286H193.375" stroke="#243B4C" stroke-width="1.5" stroke-miterlimit="10"></path><path d="M143.969 113.648C143.969 113.648 147.024 114.198 146.155 121.577C146.146 121.624 146.153 121.672 146.177 121.714C146.2 121.756 146.237 121.788 146.282 121.804C146.327 121.82 146.376 121.82 146.421 121.803C146.465 121.787 146.503 121.754 146.525 121.712C147.672 119.736 150.628 115.539 154.417 116.717" stroke="#243B4C" stroke-width="1.5" stroke-miterlimit="10" stroke-linecap="round"></path><path d="M317.803 87.336C321.5 84.9667 325.923 85.1237 328.109 87.8569C330.295 90.5902 329.483 94.9575 326.371 98.0475C331.955 100.417 336.52 104.328 336.883 107.218C337.246 110.108 333.272 110.957 327.781 109.359L331.271 114.961C332.938 118.286 333.408 120.92 332.332 121.805C330.651 123.153 325.851 119.999 321.2 114.668C321.564 120.377 319.869 124.081 317.134 123.104C314.399 122.126 311.586 116.809 310.489 110.829C306.8 113.198 302.377 113.048 300.183 110.308C297.99 107.568 298.816 103.214 301.921 100.117L298.132 98.1475C294.415 95.8996 291.723 93.1522 291.452 90.9327C291.096 88.0425 295.063 87.1933 300.554 88.7918C296.345 83.0827 294.322 77.6948 296.003 76.346C297.684 74.9972 302.477 78.1515 307.134 83.4824C306.771 77.7733 308.466 74.0693 311.201 75.0469C312.583 75.5465 313.979 77.1451 315.168 79.3716C315.908 80.7913 316.486 82.29 316.892 83.8392L317.803 87.336Z" fill="#FFCB00"></path><path d="M281.883 184.876H323.433L319.067 198.128C318.65 199.4 317.843 200.506 316.761 201.29C315.679 202.075 314.377 202.497 313.042 202.496H291.676C290.564 202.497 289.48 202.147 288.577 201.498C287.674 200.849 286.997 199.933 286.64 198.878L281.883 184.876Z" fill="#FF340C"></path><path d="M323.439 184.876L318.788 198.771C318.422 199.86 317.725 200.808 316.793 201.479C315.861 202.149 314.743 202.51 313.596 202.51H291.724C290.577 202.512 289.458 202.151 288.526 201.48C287.594 200.809 286.897 199.861 286.532 198.771L281.867 184.876H323.439Z" stroke="#243B4C" stroke-width="1.5" stroke-miterlimit="10"></path><path d="M302.663 181.687C302.549 151.45 302.599 121.612 310.091 110.801" stroke="#243B4C" stroke-width="1.5" stroke-miterlimit="10"></path><path d="M324.204 145.034C324.204 145.034 321.91 167.871 303.286 171.439C303.286 171.453 302.403 154.433 324.204 145.034Z" fill="#19AD4A" stroke="#243B4C" stroke-width="1.5" stroke-miterlimit="10"></path><path d="M277.852 138.433C277.852 138.433 300.386 142.636 302.366 161.533C302.401 161.533 285.372 160.984 277.852 138.433Z" fill="#19AD4A" stroke="#243B4C" stroke-width="1.5" stroke-miterlimit="10"></path><path d="M322.76 126.137C322.76 126.137 317.732 142.914 303.281 142.864C303.281 142.864 305.09 130.005 322.76 126.137Z" fill="#19AD4A" stroke="#243B4C" stroke-width="1.5" stroke-miterlimit="10"></path><path d="M281.883 123.36C281.883 123.36 296.732 120.656 302.366 131.817C302.401 131.817 291.782 135.471 281.883 123.36Z" fill="#19AD4A" stroke="#243B4C" stroke-width="1.5" stroke-miterlimit="10"></path><path d="M317.765 103.897C319.543 102.47 319.105 98.9642 316.788 96.0671C314.47 93.1699 311.151 91.9781 309.374 93.4052C307.597 94.8323 308.035 98.3381 310.352 101.235C312.669 104.132 315.988 105.324 317.765 103.897Z" fill="white" stroke="#243B4C" stroke-width="1.5" stroke-miterlimit="10"></path><path d="M317.406 87.3362C321.095 84.9669 325.525 85.1239 327.712 87.8572C329.898 90.5904 329.086 94.9577 325.974 98.0478C331.558 100.417 336.123 104.328 336.479 107.218C336.835 110.108 332.868 110.958 327.377 109.359" stroke="#243B4C" stroke-width="1.5" stroke-miterlimit="10"></path><path d="M297.688 98.1475C293.971 95.8996 291.279 93.1522 291.015 90.9327C290.652 88.0425 294.626 87.1933 300.11 88.7918C295.908 83.0827 293.878 77.6948 295.559 76.346C297.24 74.9972 302.04 78.1515 306.691 83.4824C306.328 77.7733 308.023 74.0693 310.757 75.0469C312.695 75.7606 314.667 78.6153 316.042 82.3262" stroke="#243B4C" stroke-width="1.5" stroke-miterlimit="10"></path><path d="M330.891 114.961C332.564 118.287 333.063 120.92 331.959 121.805C330.278 123.154 325.478 119.999 320.827 114.668C321.19 120.378 319.495 124.082 316.76 123.104C314.026 122.126 311.205 116.809 310.116 110.829C306.426 113.198 301.997 113.049 299.81 110.308C297.624 107.568 298.436 103.214 301.548 100.117" stroke="#243B4C" stroke-width="1.5" stroke-miterlimit="10"></path><path d="M12.8251 105.227C11.6249 105.228 10.4365 104.992 9.32741 104.533C8.21836 104.073 7.21043 103.398 6.36174 102.548C5.51306 101.697 4.84015 100.688 4.38128 99.5764C3.9224 98.4651 3.68657 97.2739 3.6875 96.0713V30.3523C3.68657 29.1497 3.9224 27.9585 4.38128 26.8472C4.84015 25.7359 5.51306 24.7263 6.36174 23.8759C7.21043 23.0255 8.21836 22.3513 9.32741 21.8915C10.4365 21.4317 11.6249 21.1954 12.8251 21.1963H108.638C111.062 21.1963 113.385 22.1609 115.099 23.878C116.813 25.5951 117.775 27.924 117.775 30.3523V96.1072C117.775 98.5355 116.813 100.864 115.099 102.582C113.385 104.299 111.062 105.263 108.638 105.263H12.8251V105.227Z" fill="white"></path><path fill-rule="evenodd" clip-rule="evenodd" d="M17.2422 123.86L43.665 105.234H17.2422V123.86Z" fill="white"></path><path d="M43.8438 64.8633V72.7704L60.723 81.5482L77.6022 72.7704V64.8633" stroke="#293B4A" stroke-width="1.5" stroke-miterlimit="10"></path><path d="M43.8438 72.7705V85.4376" stroke="#293B4A" stroke-width="1.5" stroke-miterlimit="10"></path><path d="M60.7253 68.9672L36.375 56.2859L60.7253 43.6045L85.0826 56.2859L60.7253 68.9672Z" stroke="#293B4A" stroke-width="1.5" stroke-miterlimit="10"></path></svg>