<svg width="503" height="383" viewBox="0 0 503 383" fill="none" xmlns="http://www.w3.org/2000/svg">
<path d="M373.68 253.577C373.68 324.018 316.576 381.122 246.135 381.122C175.694 381.122 118.59 324.018 118.59 253.577C118.59 183.136 175.694 126.032 246.135 126.032C316.576 126.032 373.68 183.136 373.68 253.577Z" fill="#19AD4A" stroke="#293B4A"/>
<path d="M263.538 160.288L263.538 160.288C264.483 157.903 265.984 155.784 268.258 154.23C270.967 152.379 272.64 149.557 273.616 146.313C274.592 143.068 274.859 139.431 274.773 136.007C274.688 132.587 274.252 129.402 273.836 127.071C273.628 125.906 273.426 124.956 273.276 124.298C273.21 124.007 273.154 123.774 273.112 123.604L240.788 119.562L239.19 130.324L239.19 130.325L238.929 132.06L238.92 132.118L238.898 132.172L237.685 135.192C236.653 138.331 235.496 141.565 234.456 144.246C233.421 146.914 232.486 149.079 231.9 150.039M263.538 160.288L231.472 149.779M263.538 160.288L263.535 160.297M263.538 160.288L263.535 160.297M231.9 150.039C231.899 150.039 231.899 150.039 231.899 150.04L231.472 149.779M231.9 150.039C231.9 150.038 231.9 150.038 231.9 150.038L231.472 149.779M231.9 150.039C231.87 150.088 231.856 150.139 231.856 150.19M231.472 149.779C231.305 150.055 231.327 150.374 231.48 150.614M231.856 150.19L231.596 150.127L231.48 150.614M231.856 150.19L236.895 151.391L237.397 151.51L237.335 151.74M231.856 150.19C231.856 150.245 231.872 150.299 231.901 150.345L231.48 150.614M231.48 150.614L237.335 151.74M237.335 151.74L237.046 151.668L236.842 151.617L236.816 151.723L236.777 151.877M237.335 151.74L237.262 152.008L237.262 152.008L236.98 151.932L237.262 152.008L237.261 152.009L237.261 152.011L237.258 152.021L237.247 152.062C237.239 152.095 237.226 152.142 237.211 152.204C237.209 152.21 237.208 152.217 237.206 152.223L236.924 152.153L236.924 152.153L236.725 152.103L236.779 151.877L236.777 151.877M236.777 151.877L236.297 151.746L236.297 151.746L236.297 151.746L236.297 151.746L236.296 151.747L236.295 151.75L236.293 151.761L236.777 151.877L236.777 151.877ZM263.535 160.297C263.408 160.635 263.287 160.974 263.174 161.32C261.63 164.007 261.467 167.637 261.874 171.232C262.286 174.865 263.293 178.559 264.171 181.402C264.191 181.47 264.202 181.501 264.209 181.521C264.216 181.541 264.219 181.55 264.224 181.572L264.228 181.593M263.535 160.297L264.228 181.593M264.228 181.593L264.234 181.614M264.228 181.593L264.234 181.614M264.234 181.614C264.698 183.21 265.098 184.331 265.246 184.742C265.256 184.773 265.266 184.799 265.274 184.822L265.277 184.831M264.234 181.614L265.277 184.831M265.277 184.831L265.281 184.84M265.277 184.831L265.281 184.84M265.281 184.84C265.282 184.843 265.283 184.845 265.285 184.851C265.286 184.855 265.288 184.861 265.292 184.871C265.296 184.882 265.302 184.901 265.312 184.923C265.375 185.134 265.439 185.331 265.494 185.503L265.519 185.582M265.281 184.84L265.519 185.582M265.519 185.582L265.568 185.648L265.519 185.582ZM236.963 207.62C236.777 207.638 236.59 207.656 236.402 207.674C236.402 207.674 236.476 207.489 236.612 207.152C236.801 207.133 236.988 207.115 237.174 207.096C237.148 207.161 237.123 207.222 237.1 207.279L236.963 207.62ZM244.59 187.885L245.049 188.085C245.049 188.085 245.049 188.085 245.049 188.085L244.59 187.885ZM236.462 163.689C236.461 163.68 236.459 163.671 236.458 163.662C236.456 163.653 236.454 163.644 236.452 163.635L235.966 163.754L236.462 163.689ZM238.87 166.575C238.853 166.571 238.837 166.568 238.821 166.564C238.805 166.564 238.79 166.564 238.776 166.564H238.768V167.064L238.776 167.029L238.87 166.575ZM265.568 185.649L265.97 185.351L265.568 185.649Z" fill="#FFDCC2" stroke="#293B4A"/>
<path d="M306.501 212.289C306.426 212.249 306.368 212.218 306.328 212.197L306.276 212.169L306.263 212.162L306.26 212.161L306.259 212.16C306.259 212.16 306.259 212.16 306.485 211.734L315.176 240.75L315.196 240.759M306.501 212.289C306.395 212.344 306.258 212.417 306.092 212.506C305.677 212.729 305.085 213.053 304.38 213.459C302.968 214.27 301.107 215.403 299.299 216.691C297.486 217.983 295.753 219.414 294.577 220.82C293.378 222.254 292.882 223.514 293.205 224.524C293.376 225.06 293.82 225.733 294.525 226.518C295.223 227.294 296.141 228.141 297.212 229.027C299.353 230.799 302.064 232.694 304.736 234.437C307.406 236.178 310.026 237.762 311.98 238.911C312.956 239.485 313.766 239.95 314.331 240.271C314.613 240.432 314.834 240.557 314.985 240.641C315.022 240.662 315.055 240.681 315.084 240.697C315.113 240.713 315.137 240.726 315.157 240.737L315.196 240.759M306.501 212.289C306.511 212.295 306.522 212.3 306.533 212.306C306.713 212.403 306.98 212.546 307.325 212.733C308.015 213.107 309.017 213.655 310.263 214.35C312.756 215.74 316.229 217.717 320.143 220.067C327.978 224.77 337.564 230.951 344.625 236.892C351.672 242.821 353.896 247.551 353.594 251.712C353.288 255.921 350.4 259.733 346.717 263.827C345.833 264.81 344.306 266.1 342.277 267.631C340.256 269.157 337.763 270.903 334.967 272.799C331.364 275.242 327.27 277.923 323.047 280.689C320.713 282.217 318.339 283.772 315.987 285.326C309.387 289.688 302.962 294.046 298.101 297.801C295.672 299.678 293.621 301.414 292.132 302.933C291.387 303.692 290.774 304.405 290.322 305.063C289.875 305.714 289.563 306.344 289.463 306.931C289.291 307.936 289.291 308.744 289.462 309.372C289.638 310.02 289.999 310.481 290.518 310.735C291.015 310.979 291.593 311 292.16 310.917C292.732 310.833 293.342 310.635 293.94 310.384C295.138 309.881 296.364 309.134 297.281 308.521C297.742 308.213 298.13 307.936 298.403 307.736C298.537 307.637 298.644 307.557 298.718 307.5C298.72 307.5 298.722 307.5 298.724 307.5C298.818 307.493 298.952 307.485 299.114 307.48C299.439 307.471 299.861 307.478 300.269 307.536C300.689 307.597 301.037 307.704 301.257 307.857C301.361 307.93 301.424 308.004 301.46 308.077C301.495 308.148 301.518 308.245 301.502 308.39C301.401 309.307 301.299 310.173 301.223 310.81C301.185 311.128 301.154 311.389 301.131 311.571L301.106 311.78L301.099 311.835L301.097 311.849L301.097 311.853L301.097 311.853L301.097 311.854L301.593 311.915L301.097 311.854L300.959 312.955L301.875 312.328L305.405 309.91C305.415 309.906 305.427 309.902 305.441 309.896C305.492 309.878 305.564 309.854 305.648 309.834C305.83 309.79 306.004 309.78 306.127 309.818C306.207 309.843 306.302 309.893 306.359 310.111C306.428 310.37 306.433 310.851 306.213 311.686C305.804 313.237 305.207 314.249 304.807 314.927C304.778 314.975 304.75 315.022 304.724 315.067C304.626 315.234 304.533 315.398 304.466 315.544C304.406 315.677 304.329 315.874 304.348 316.088C304.359 316.209 304.4 316.333 304.482 316.444C304.562 316.552 304.663 316.622 304.758 316.669C304.932 316.755 305.14 316.785 305.332 316.799L305.332 316.799C305.671 316.823 306.242 316.801 306.868 316.777C306.968 316.773 307.069 316.769 307.171 316.765C307.935 316.737 308.779 316.712 309.513 316.75C309.88 316.768 310.207 316.802 310.476 316.854C310.754 316.909 310.927 316.975 311.017 317.035C311.029 317.042 311.037 317.049 311.044 317.054C311.039 317.069 311.029 317.093 311.012 317.126C310.976 317.192 310.915 317.281 310.812 317.395C310.394 317.857 309.668 318.32 308.761 318.757C307.864 319.189 306.838 319.574 305.86 319.895C304.884 320.216 303.967 320.472 303.293 320.647C302.956 320.735 302.681 320.802 302.49 320.847C302.395 320.87 302.321 320.887 302.271 320.899L302.215 320.911L302.201 320.915L302.197 320.915L302.196 320.915L302.196 320.915V320.916L302.196 321.892L302.234 321.723C302.197 321.892 302.197 321.892 302.197 321.892L302.197 321.892L302.198 321.892L302.201 321.893L302.213 321.896L302.258 321.905C302.298 321.914 302.356 321.926 302.431 321.941C302.58 321.971 302.796 322.014 303.066 322.063C303.605 322.162 304.361 322.288 305.227 322.398C306.947 322.616 309.146 322.776 310.951 322.508C311.812 322.38 312.522 322.299 313.08 322.267C313.509 322.242 313.821 322.247 314.031 322.273C313.956 322.348 313.858 322.436 313.731 322.538L313.73 322.538C313.694 322.567 313.653 322.6 313.607 322.637C312.689 323.382 309.792 325.73 305.009 326.851C299.996 328.025 292.86 327.864 283.708 322.981L283.473 323.422L283.708 322.981C280.397 321.214 278.178 317.659 276.978 313.957C276.381 312.114 276.043 310.255 275.949 308.601C275.854 306.939 276.005 305.518 276.357 304.534L276.357 304.533C278.325 299.022 281.886 293.611 284.973 289.563C286.514 287.543 287.931 285.869 288.962 284.701C289.478 284.118 289.896 283.66 290.186 283.35C290.331 283.194 290.443 283.076 290.519 282.996C290.557 282.956 290.586 282.926 290.605 282.907L290.626 282.884L290.632 282.879L290.633 282.878L290.633 282.877L290.639 282.871L290.645 282.865L309.485 262.191M306.501 212.289C306.527 212.275 306.551 212.262 306.573 212.251C306.629 212.222 306.671 212.2 306.7 212.185L306.732 212.169L306.739 212.165L306.741 212.164L306.742 212.164L309.485 262.191M315.196 240.759L329.15 246.971L329.941 247.324L329.241 247.833L309.485 262.191M315.196 240.759L309.485 262.191M311.059 317.068C311.059 317.068 311.058 317.067 311.057 317.065C311.059 317.067 311.059 317.068 311.059 317.068Z" fill="#FFDCC2" stroke="#293B4A"/>
<path d="M214.802 216.664C215.148 216.753 215.447 216.82 215.691 216.87C215.464 217.239 215.142 217.757 214.742 218.389C213.911 219.701 212.743 221.503 211.389 223.474C209.375 225.294 200.966 232.724 190.946 239.306C185.899 242.622 180.458 245.713 175.231 247.766C169.992 249.823 165.029 250.813 160.91 250.001L160.854 249.99L160.797 249.992C158.82 250.058 156.967 249.848 155.074 248.715C153.168 247.575 151.167 245.467 148.975 241.624C144.585 233.927 139.531 219.449 132.921 192.478L132.785 191.921L132.252 192.132C128.731 193.522 124.644 193.996 121.418 193.295C119.808 192.945 118.442 192.309 117.46 191.38C116.487 190.459 115.867 189.228 115.773 187.624C115.526 183.351 116.212 178.832 117.554 175.303C118.225 173.538 119.052 172.042 119.99 170.949C120.928 169.855 121.951 169.197 123.016 169.032L123.017 169.032C125.374 168.664 127.749 168.968 129.548 169.372C130.445 169.573 131.192 169.798 131.713 169.971C131.974 170.058 132.178 170.132 132.315 170.184C132.384 170.21 132.436 170.23 132.471 170.244L132.509 170.259L132.518 170.263L132.52 170.263L132.52 170.263L132.52 170.263L133.041 170.48L133.193 169.935L132.711 169.801L133.193 169.935L133.193 169.935L133.194 169.933L133.196 169.924L133.206 169.888C133.215 169.857 133.228 169.809 133.246 169.748C133.281 169.625 133.333 169.444 133.401 169.214C133.537 168.754 133.734 168.1 133.981 167.32C134.476 165.76 135.169 163.707 135.963 161.723C136.761 159.73 137.647 157.842 138.523 156.591C138.965 155.961 139.372 155.539 139.726 155.33C139.898 155.229 140.038 155.189 140.152 155.185C140.26 155.181 140.372 155.208 140.499 155.289C140.775 155.467 141.041 155.841 141.26 156.467C141.475 157.082 141.623 157.877 141.711 158.804C141.888 160.657 141.822 162.95 141.65 165.2C141.479 167.445 141.204 169.627 140.973 171.249C140.857 172.06 140.752 172.73 140.676 173.196C140.638 173.43 140.607 173.612 140.586 173.736C140.575 173.798 140.567 173.845 140.561 173.877L140.555 173.913L140.553 173.922L140.553 173.924L140.553 173.924L141.045 174.012L140.553 173.924L140.54 173.998L140.549 174.073L141.616 182.719L141.633 182.854L141.716 182.962C145.805 188.295 151.629 200.197 156.45 210.825C158.856 216.127 161.003 221.093 162.55 224.734C163.323 226.555 163.945 228.044 164.375 229.077C164.59 229.594 164.756 229.997 164.869 230.27C164.925 230.407 164.968 230.512 164.997 230.582L165.029 230.661L165.037 230.681L165.039 230.686L165.04 230.688C165.04 230.688 165.04 230.688 165.503 230.499L165.04 230.688L165.282 231.28L165.798 230.903L199.658 206.134C203.342 210.959 207.462 213.668 210.697 215.173C212.358 215.945 213.786 216.401 214.802 216.664Z" fill="#FFDCC2" stroke="#293B4A"/>
<mask id="path-5-inside-1_191_7102" fill="white">
<path d="M236.924 152.153C235.9 157.925 235.675 161.54 235.965 163.754C234.985 159.725 236.415 153.373 236.72 152.102L236.924 152.153Z"/>
</mask>
<path d="M236.924 152.153C235.9 157.925 235.675 161.54 235.965 163.754C234.985 159.725 236.415 153.373 236.72 152.102L236.924 152.153Z" fill="#F1F3F5"/>
<path d="M235.965 163.754L234.994 163.99L236.957 163.624L235.965 163.754ZM236.72 152.102L236.963 151.132L235.984 150.887L235.748 151.869L236.72 152.102ZM235.939 151.979C234.913 157.764 234.662 161.508 234.974 163.884L236.957 163.624C236.688 161.572 236.887 158.085 237.908 152.328L235.939 151.979ZM236.937 163.518C236.491 161.686 236.584 159.239 236.854 157.014C237.12 154.817 237.545 152.952 237.693 152.336L235.748 151.869C235.591 152.523 235.148 154.47 234.868 156.773C234.592 159.049 234.459 161.793 234.994 163.99L236.937 163.518ZM236.478 153.073L236.681 153.123L237.166 151.183L236.963 151.132L236.478 153.073Z" fill="#293B4A" mask="url(#path-5-inside-1_191_7102)"/>
<mask id="path-7-inside-2_191_7102" fill="white">
<path d="M264.647 181.257C262.898 175.587 260.662 166.621 263.631 161.525C261.548 168.139 263.326 176.589 264.647 181.257Z"/>
</mask>
<path d="M264.647 181.257C262.898 175.587 260.662 166.621 263.631 161.525C261.548 168.139 263.326 176.589 264.647 181.257Z" fill="#F1F3F5"/>
<path d="M264.647 181.257L263.692 181.551L265.61 180.984L264.647 181.257ZM263.631 161.525L264.585 161.825L262.767 161.022L263.631 161.525ZM265.603 180.962C264.734 178.145 263.759 174.557 263.363 171.063C262.963 167.533 263.178 164.289 264.495 162.028L262.767 161.022C261.115 163.857 260.963 167.644 261.376 171.288C261.793 174.969 262.811 178.698 263.692 181.551L265.603 180.962ZM262.677 161.225C261.579 164.712 261.511 168.629 261.867 172.219C262.224 175.82 263.015 179.161 263.685 181.529L265.61 180.984C264.959 178.685 264.199 175.466 263.858 172.022C263.515 168.567 263.6 164.952 264.585 161.825L262.677 161.225Z" fill="#293B4A" mask="url(#path-7-inside-2_191_7102)"/>
<path d="M293.567 349.173C294.951 358.142 294.812 366.619 294.562 371.288C271.116 380.722 232.951 388.361 190.146 368.675C191.447 358.081 193.012 346.346 194.656 336.29C195.487 331.205 196.338 326.554 197.184 322.7C197.982 319.067 198.771 316.169 199.526 314.286C231.955 337.705 266.372 321.885 274.665 317.451L283.12 323.786C289.152 330.388 292.151 340.001 293.567 349.173Z" fill="#BCD5FD" stroke="#293B4A"/>
<path d="M296.308 227.549C296.308 227.55 296.308 227.55 296.714 227.841L296.308 227.55L296.036 227.928L296.394 228.226L304.121 234.66C300.038 236.788 297.049 236.167 295.063 235.038C294.002 234.435 293.207 233.674 292.676 233.061C292.412 232.755 292.214 232.489 292.085 232.301C292.02 232.207 291.972 232.132 291.941 232.083C291.926 232.058 291.914 232.04 291.907 232.028L291.9 232.016L291.899 232.014L291.899 232.014C291.899 232.014 291.899 232.014 291.897 232.015L290.972 232.344C292.333 240.634 290.3 248.677 286.835 256.292C283.668 263.251 279.326 269.813 275.327 275.855C274.948 276.429 274.571 276.998 274.198 277.563C270.328 283.43 269.896 291.819 270.577 299.27C271.26 306.746 273.076 313.401 273.817 315.891C273.912 316.215 273.99 316.47 274.046 316.648C265.544 321.162 231.713 336.458 199.916 313.333C200.439 312.036 200.941 310.495 201.433 308.771L201.433 308.77C203.931 299.988 206.123 286.178 207.69 274.589C208.474 268.789 209.103 263.536 209.536 259.734C209.752 257.832 209.919 256.293 210.032 255.229C210.089 254.698 210.132 254.284 210.161 254.004L210.194 253.685L210.202 253.604L210.204 253.583L210.205 253.578L210.205 253.576C210.205 253.576 210.205 253.576 209.707 253.526L210.205 253.576L210.237 253.253L209.955 253.092C207.093 251.456 205.442 249.402 204.613 247.162C203.78 244.913 203.761 242.432 204.24 239.927C205.202 234.906 208.148 229.914 210.279 226.81L210.299 226.782L210.301 226.777L210.308 226.767C210.504 226.481 210.696 226.213 210.878 225.96H210.886L211.035 225.752C211.862 224.603 212.449 223.893 212.553 223.769L212.464 223.682C213.72 221.842 214.803 220.169 215.587 218.931C216.009 218.266 216.344 217.725 216.575 217.351C216.69 217.164 216.779 217.018 216.839 216.919L216.907 216.806L216.925 216.777L216.929 216.769L216.931 216.767L216.931 216.767L216.931 216.767L216.502 216.509L216.931 216.767L217.331 216.101L216.56 216.012L216.56 216.012L216.559 216.012L216.559 216.012L216.556 216.012L216.54 216.01C216.531 216.009 216.52 216.007 216.506 216.005C216.495 216.004 216.482 216.002 216.468 216C216.403 215.99 216.305 215.975 216.176 215.952C215.917 215.905 215.536 215.827 215.053 215.702C214.088 215.452 212.719 215.016 211.12 214.273C208.012 212.827 204.036 210.219 200.467 205.551L200.539 205.499L200.381 205.132L199.793 203.767C209.34 189.977 220.859 185.047 229.997 183.555C234.597 182.804 238.601 182.923 241.452 183.229C242.877 183.383 244.014 183.583 244.791 183.744C245.141 183.816 245.418 183.881 245.615 183.929C245.25 185.075 244.75 186.279 244.132 187.691L244.132 187.691C242.703 190.961 240.653 195.913 238.963 200.045C238.117 202.111 237.361 203.974 236.816 205.319C236.543 205.992 236.324 206.536 236.172 206.912L235.998 207.344L235.953 207.456L235.941 207.485L235.938 207.492L235.937 207.494L235.937 207.495C235.937 207.495 235.937 207.495 236.401 207.681L235.937 207.495L235.63 208.258L236.449 208.179C247.24 207.145 254.532 205.226 259.395 202.905C264.263 200.581 266.726 197.84 267.791 195.158C268.854 192.481 268.491 189.949 267.877 188.108C267.569 187.186 267.197 186.43 266.9 185.903C266.752 185.639 266.622 185.432 266.528 185.289C266.514 185.268 266.501 185.248 266.488 185.229C270.128 185.177 274.993 186.429 280.381 188.453C286.092 190.599 292.327 193.588 298.199 196.715C304.069 199.842 309.568 203.102 313.804 205.786C315.922 207.129 317.723 208.326 319.095 209.289C320.479 210.261 321.397 210.973 321.776 211.353L321.777 211.353C322.508 212.083 322.75 212.847 322.728 213.589C322.706 214.353 322.404 215.131 321.978 215.852C321.555 216.569 321.029 217.195 320.604 217.645C320.434 217.824 320.283 217.974 320.162 218.088L314.132 213.892L313.935 213.755L313.705 213.823C308.891 215.24 304.537 218.693 301.408 221.751C299.838 223.286 298.566 224.733 297.685 225.796C297.244 226.328 296.901 226.764 296.668 227.069C296.551 227.221 296.462 227.34 296.401 227.422C296.371 227.463 296.348 227.494 296.332 227.516L296.315 227.54L296.31 227.547L296.308 227.549L296.308 227.549ZM210.314 226.751C210.316 226.747 210.316 226.748 210.313 226.753L210.314 226.751Z" fill="#5273FD" stroke="#293B4A"/>
<path d="M454.011 255.335C472.189 255.335 486.926 240.598 486.926 222.42C486.926 204.241 472.189 189.505 454.011 189.505C435.832 189.505 421.096 204.241 421.096 222.42C421.096 240.598 435.832 255.335 454.011 255.335Z" fill="#F1F3F5" stroke="#293B4A" stroke-miterlimit="10"/>
<path d="M462.914 204.925C463.023 206.718 463.988 211.698 465.012 213.179C465.476 213.854 465.854 214.551 466.159 215.197C466.769 216.497 465.825 217.985 464.388 217.985H463.785V226.145H457.128C457.113 233.847 465.426 236.221 465.426 236.221C470.094 235.807 474.95 235.909 479.357 237.092" stroke="#293B4A" stroke-miterlimit="10"/>
<path d="M460.875 213.164C460.875 213.502 460.601 213.775 460.264 213.775C459.927 213.775 459.653 213.502 459.653 213.164C459.653 212.827 459.927 212.554 460.264 212.554C460.601 212.554 460.875 212.827 460.875 213.164Z" fill="#293B4A" stroke="#293B4A"/>
<path d="M445.463 234.682C456.621 237.694 460.265 233.847 460.265 233.847" stroke="#293B4A" stroke-miterlimit="10"/>
<path d="M445.463 240.787C458.189 243.183 465.434 236.214 465.434 236.214" stroke="#293B4A" stroke-miterlimit="10"/>
<path d="M429.121 243.952C436.134 238.188 436.112 237.709 443.241 236.917C449.738 233.324 448.352 221.302 448.352 221.302" stroke="#293B4A" stroke-miterlimit="10"/>
<path d="M448.087 238.377C449.147 236.634 449.234 235.277 449.234 235.277" stroke="#293B4A" stroke-miterlimit="10"/>
<path fill-rule="evenodd" clip-rule="evenodd" d="M439.384 210.827C376.073 258.617 537.933 164.757 461.301 197.026L439.384 210.827Z" fill="#F1F3F5"/>
<path d="M439.384 210.827C376.073 258.617 537.933 164.757 461.301 197.026" stroke="#293B4A" stroke-miterlimit="10"/>
<path d="M459.151 200.895C446.098 210.187 439.383 210.834 439.383 210.834C439.383 210.834 435.616 182.986 464.139 198.478" stroke="#293B4A" stroke-miterlimit="10"/>
<path d="M443.417 204.068C453.254 199.974 457.138 195.269 457.138 195.269" stroke="#293B4A" stroke-miterlimit="10"/>
<mask id="path-22-inside-3_191_7102" fill="white">
<path fill-rule="evenodd" clip-rule="evenodd" d="M441.429 216.903C440.558 230.66 444.856 226.791 451.672 226.174C456.268 225.76 456.449 211.582 458.264 208.206"/>
</mask>
<path fill-rule="evenodd" clip-rule="evenodd" d="M441.429 216.903C440.558 230.66 444.856 226.791 451.672 226.174C456.268 225.76 456.449 211.582 458.264 208.206" fill="#293B4A"/>
<path d="M451.672 226.174L451.583 225.178L451.582 225.178L451.672 226.174ZM440.431 216.84C440.212 220.302 440.308 222.766 440.733 224.483C441.168 226.239 441.996 227.374 443.32 227.866C444.514 228.31 445.918 228.136 447.245 227.905C448.662 227.659 450.112 227.319 451.763 227.17L451.582 225.178C449.824 225.337 448.181 225.712 446.902 225.935C445.533 226.173 444.64 226.223 444.016 225.991C443.522 225.808 443.013 225.369 442.674 224.002C442.326 222.594 442.211 220.383 442.427 216.966L440.431 216.84ZM451.762 227.17C453.474 227.016 454.566 225.601 455.287 224.099C456.034 222.545 456.563 220.529 456.989 218.507C457.414 216.492 457.762 214.33 458.097 212.566C458.449 210.717 458.778 209.362 459.145 208.68L457.383 207.733C456.843 208.738 456.469 210.421 456.132 212.193C455.779 214.05 455.454 216.091 455.032 218.094C454.612 220.091 454.121 221.908 453.484 223.233C452.822 224.612 452.169 225.125 451.583 225.178L451.762 227.17Z" fill="#293B4A" mask="url(#path-22-inside-3_191_7102)"/>
<path d="M459.153 220.896C459.153 220.896 460.024 222.413 462.558 222.289" stroke="#293B4A" stroke-miterlimit="10"/>
<path d="M476.639 277.07L452.465 258.696L477.314 226.006L501.489 244.38L476.639 277.07Z" fill="white" stroke="#293B4A" stroke-miterlimit="10"/>
<path d="M469.207 246.1L484.3 257.57" stroke="#293B4A" stroke-miterlimit="10"/>
<path d="M466.529 249.622L481.622 261.092" stroke="#293B4A" stroke-miterlimit="10"/>
<path d="M463.847 253.142L478.947 264.619" stroke="#293B4A" stroke-miterlimit="10"/>
<path d="M478.521 234.02L493.526 245.432" stroke="#293B4A" stroke-miterlimit="10"/>
<path d="M476.123 237.171L491.129 248.583" stroke="#293B4A" stroke-miterlimit="10"/>
<path d="M460.771 257.193L465.475 260.772" stroke="#293B4A" stroke-miterlimit="10"/>
<path d="M33.9151 260.721C52.0936 260.721 66.8302 245.984 66.8302 227.806C66.8302 209.627 52.0936 194.891 33.9151 194.891C15.7366 194.891 1 209.627 1 227.806C1 245.984 15.7366 260.721 33.9151 260.721Z" fill="#F1F3F5" stroke="#293B4A" stroke-miterlimit="10"/>
<path d="M39.9425 226.797C39.9425 227.002 39.7763 227.168 39.5713 227.168C39.3664 227.168 39.2002 227.002 39.2002 226.797C39.2002 226.592 39.3664 226.426 39.5713 226.426C39.7763 226.426 39.9425 226.592 39.9425 226.797Z" fill="#293B4A" stroke="#293B4A"/>
<path d="M30.5061 239.958C31.8418 243.719 29.7293 245.94 29.1558 247.9C29.1558 247.9 20.6983 247.937 15.3843 255.015" stroke="#293B4A" stroke-miterlimit="10"/>
<path d="M43.7551 222.427C44.0672 224.931 45.8603 228.866 46.7388 230.303C46.8912 230.55 46.7097 230.869 46.4193 230.869H45.0473C46.7242 240.351 43.9293 238.303 40.9964 238.637C39.1525 244.488 39.1525 247.508 40.6915 249.977C40.6915 249.977 42.7387 252.089 44.6335 253.12" stroke="#293B4A" stroke-linejoin="round"/>
<path d="M38.9844 232.445C39.8628 234.282 42.0189 234.216 43.0861 233.592" stroke="#293B4A" stroke-linejoin="round"/>
<path d="M40.827 222.132C39.1362 222.24 37.2813 222.523 35.6071 223.253L35.7292 220.51L35.8119 218.655L34.8136 220.211C34.8136 220.211 34.8136 220.211 34.8135 220.211C34.8127 220.211 34.802 220.225 34.772 220.259C34.7453 220.288 34.7138 220.322 34.675 220.365C34.6589 220.382 34.6416 220.401 34.6228 220.421C34.4986 220.556 34.3334 220.739 34.1514 220.963C33.7878 221.411 33.3527 222.033 33.0226 222.812C32.3526 224.392 32.1393 226.568 33.6961 229.157L33.8444 229.411C34.5809 230.731 35.5605 231.849 36.5967 232.885L36.5972 232.886C37.7092 233.995 38.1026 235.828 37.4602 237.378C36.8356 238.885 35.1755 240.228 31.9629 240.228H22.4165C18.3712 240.228 16.1623 238.603 15.2456 236.692C14.3129 234.748 14.6574 232.401 15.9298 230.829C18.0566 228.209 19.8105 225.305 20.9079 222.087L20.9082 222.086C22.397 217.691 24.9208 214.014 29.1431 212.831L29.1435 212.831C32.3552 211.929 35.01 211.914 37.1592 212.367L37.4271 212.424L37.619 212.229C40.016 209.789 42.0876 209.3 43.7134 209.745C45.3777 210.2 46.7575 211.68 47.6423 213.559C48.5247 215.433 48.862 217.597 48.5333 219.275C48.3698 220.11 48.0477 220.796 47.5783 221.275C47.1626 221.699 46.6075 221.987 45.8741 222.062L45.6278 222.072C45.2118 222.088 44.7058 222.083 44.1189 222.077C43.9387 222.075 43.7508 222.074 43.5555 222.072C42.7341 222.067 41.8025 222.071 40.827 222.132Z" fill="#293B4A" stroke="#293B4A"/>
<path d="M56.5354 282.463L32.3682 264.089L57.2178 231.399L81.3851 249.773L56.5354 282.463Z" fill="white" stroke="#293B4A" stroke-miterlimit="10"/>
<path d="M49.1099 251.487L64.2026 262.964" stroke="#293B4A" stroke-miterlimit="10"/>
<path d="M46.4326 255.015L61.5254 266.485" stroke="#293B4A" stroke-miterlimit="10"/>
<path d="M43.7505 258.536L58.8432 270.006" stroke="#293B4A" stroke-miterlimit="10"/>
<path d="M58.4146 239.414L73.4274 250.826" stroke="#293B4A" stroke-miterlimit="10"/>
<path d="M56.021 242.565L71.0339 253.977" stroke="#293B4A" stroke-miterlimit="10"/>
<path d="M40.6675 262.587L45.3717 266.166" stroke="#293B4A" stroke-miterlimit="10"/>
<path d="M38.7012 256.931L29.1548 248.263" stroke="#293B4A" stroke-miterlimit="10"/>
<path d="M222.42 66.8302C240.598 66.8302 255.335 52.0936 255.335 33.9151C255.335 15.7366 240.598 1 222.42 1C204.241 1 189.505 15.7366 189.505 33.9151C189.505 52.0936 204.241 66.8302 222.42 66.8302Z" fill="#F1F3F5" stroke="#293B4A" stroke-miterlimit="10"/>
<path d="M245.04 88.5652L220.873 70.1911L245.723 37.5083L269.89 55.8752L245.04 88.5652Z" fill="white" stroke="#293B4A" stroke-miterlimit="10"/>
<path d="M237.609 57.5955L252.702 69.0657" stroke="#293B4A" stroke-miterlimit="10"/>
<path d="M234.926 61.1169L250.026 72.5943" stroke="#293B4A" stroke-miterlimit="10"/>
<path d="M232.255 64.6375L247.348 76.1149" stroke="#293B4A" stroke-miterlimit="10"/>
<path d="M246.919 45.5154L261.932 56.9275" stroke="#293B4A" stroke-miterlimit="10"/>
<path d="M244.526 48.6666L259.539 60.0787" stroke="#293B4A" stroke-miterlimit="10"/>
<path d="M229.172 68.696L233.877 72.2677" stroke="#293B4A" stroke-miterlimit="10"/>
<path d="M231.021 37.4357C228.095 38.0672 226.817 36.1144 226.817 36.1144" stroke="#293B4A" stroke-miterlimit="10"/>
<path d="M229.698 28.1582C229.698 28.5877 229.35 28.9359 228.921 28.9359C228.491 28.9359 228.143 28.5877 228.143 28.1582C228.143 27.7287 228.491 27.3805 228.921 27.3805C229.35 27.3805 229.698 27.7287 229.698 28.1582Z" fill="#293B4A" stroke="#293B4A"/>
<path d="M224.118 58.9456C224.118 58.9456 214.158 61.3413 211.581 54.1688C215.705 53.0436 215.988 43.1995 216.365 39.5117C216.401 39.1269 216.525 38.7784 216.692 38.4445" stroke="#293B4A" stroke-miterlimit="10"/>
<path d="M231.276 55.8894C227.442 52.3031 226.796 48.9056 226.796 44.0707C230.927 44.2305 233.766 40.9709 233.766 40.9709L233.998 34.1686C233.998 34.1686 240.481 34.263 238.426 32.2739C236.372 30.2847 235.377 27.5406 234.753 22.3427" stroke="#293B4A" stroke-miterlimit="10"/>
<path d="M227.197 21.4718C236.627 16.4772 258.166 12.0778 253.694 16.2884C253.694 16.2884 246.536 21.5952 235.415 23.9618C235.415 23.9618 235.749 21.6751 232.003 21.4718C229.658 21.3484 227.197 21.4718 227.197 21.4718Z" fill="#293B4A"/>
<path d="M227.197 21.4718C236.627 16.4772 258.166 12.0778 253.694 16.2884C253.694 16.2884 246.536 21.5952 235.415 23.9618C235.415 23.9618 235.749 21.6751 232.003 21.4718C229.658 21.3484 227.197 21.4718 227.197 21.4718" stroke="#293B4A" stroke-miterlimit="10" stroke-linecap="round"/>
<path d="M236.42 17.7621C236.42 17.7621 232.412 12.7675 221.624 11.9399C221.624 11.9399 207.889 18.8438 214.133 29.4936C214.133 29.4936 221.225 16.7603 237.98 23.2141" stroke="#293B4A" stroke-miterlimit="10" stroke-linecap="round"/>
<path d="M220.878 28.0409C220.805 28.0418 220.728 28.0444 220.646 28.0492C220.154 28.0783 219.489 28.1914 218.849 28.5421C218.198 28.8983 217.59 29.4908 217.221 30.4391C216.857 31.3768 216.738 32.6293 216.994 34.2951C217.235 35.8661 217.164 36.9282 216.931 37.6432C216.706 38.3367 216.323 38.7189 215.87 38.9455C215.394 39.1831 214.805 39.2666 214.153 39.2802C213.83 39.287 213.504 39.2767 213.178 39.2641C213.132 39.2623 213.086 39.2604 213.039 39.2586C212.765 39.2476 212.489 39.2367 212.232 39.2367C212.127 39.2367 211.975 39.1842 211.784 38.9836C211.593 38.7832 211.4 38.4709 211.23 38.0564C210.89 37.2297 210.682 36.0926 210.71 34.9203C210.739 33.7468 211.004 32.5857 211.564 31.686C212.115 30.8024 212.956 30.1567 214.204 29.9812L214.426 29.9499L214.551 29.7627L214.551 29.7627L214.551 29.7625L214.551 29.7621L214.553 29.7588L214.563 29.744C214.572 29.7306 214.586 29.71 214.605 29.6828C214.643 29.6285 214.699 29.5477 214.774 29.4441C214.924 29.237 215.146 28.9392 215.433 28.5811C216.007 27.8639 216.838 26.9085 217.864 25.9537C219.402 24.5232 221.333 23.1364 223.465 22.512C223.308 22.6426 223.149 22.7836 222.991 22.9353C221.851 24.034 220.759 25.7156 220.878 28.0409Z" fill="#293B4A" stroke="#293B4A"/>
<path d="M221.627 11.9399C221.627 11.9399 216.952 18.4663 218.629 22.2268" stroke="#293B4A" stroke-miterlimit="10" stroke-linecap="round"/>
<path d="M201.492 59.3239C201.492 59.3239 204.889 54.5979 211.583 54.1696" stroke="#293B4A" stroke-miterlimit="10"/>
<path d="M373.225 131.196C391.403 131.196 406.14 116.459 406.14 98.2805C406.14 80.1019 391.403 65.3654 373.225 65.3654C355.046 65.3654 340.31 80.1019 340.31 98.2805C340.31 116.459 355.046 131.196 373.225 131.196Z" fill="#F1F3F5" stroke="#293B4A" stroke-miterlimit="10"/>
<path d="M395.846 152.931L371.678 134.564L396.528 101.874L420.695 120.248L395.846 152.931Z" fill="white" stroke="#293B4A" stroke-miterlimit="10"/>
<path d="M388.419 121.961L403.512 133.438" stroke="#293B4A" stroke-miterlimit="10"/>
<path d="M385.736 125.482L400.829 136.96" stroke="#293B4A" stroke-miterlimit="10"/>
<path d="M383.061 129.003L398.153 140.48" stroke="#293B4A" stroke-miterlimit="10"/>
<path d="M397.725 109.881L412.737 121.293" stroke="#293B4A" stroke-miterlimit="10"/>
<path d="M395.331 113.039L410.344 124.451" stroke="#293B4A" stroke-miterlimit="10"/>
<path d="M379.983 133.061L384.68 136.633" stroke="#293B4A" stroke-miterlimit="10"/>
<path d="M379.744 87.3688C379.744 87.5537 379.594 87.7036 379.409 87.7036C379.224 87.7036 379.074 87.5537 379.074 87.3688C379.074 87.1839 379.224 87.0339 379.409 87.0339C379.594 87.0339 379.744 87.1839 379.744 87.3688Z" fill="#293B4A" stroke="#293B4A"/>
<path d="M371.023 106.785C370.958 106.793 370.885 106.803 370.803 106.812C370.451 106.855 369.938 106.912 369.3 106.971C368.022 107.091 366.242 107.22 364.23 107.26C360.188 107.341 355.281 107.057 351.636 105.652C349.818 104.951 348.36 103.989 347.465 102.699C346.582 101.425 346.207 99.7764 346.654 97.6064C347.104 95.4201 348.388 92.7122 350.826 89.3766C353.261 86.0449 356.827 82.112 361.808 77.4773L361.945 77.3497L361.964 77.1636L361.964 77.1635L361.964 77.1634L361.964 77.1616L361.965 77.1534L361.969 77.1183C361.973 77.0869 361.979 77.0394 361.987 76.9769C362.003 76.852 362.028 76.6673 362.064 76.4317C362.136 75.9604 362.252 75.2858 362.428 74.4779C362.781 72.8596 363.37 70.7179 364.317 68.6061C366.222 64.3585 369.481 60.4043 375.031 60.7679L371.023 106.785ZM371.023 106.785C371.249 105.901 371.458 104.51 371.598 103.149C371.676 102.387 371.731 101.648 371.756 101.03C371.782 100.399 371.774 99.9302 371.738 99.6898L371.738 99.6893C371.644 99.0543 371.646 98.2947 371.668 97.7115C371.679 97.4161 371.696 97.1587 371.71 96.9749C371.717 96.8829 371.723 96.809 371.728 96.7578L371.733 96.6984L371.735 96.6824L371.735 96.6781L371.735 96.6768L371.736 96.6764L371.736 96.6763C371.736 96.6762 371.736 96.6761 372.233 96.7267L371.023 106.785ZM372.051 96.261L372.051 96.2609L372.053 96.2603L372.064 96.2558C372.075 96.2514 372.092 96.2444 372.114 96.2346C372.16 96.2151 372.228 96.1847 372.313 96.1435C372.485 96.0608 372.727 95.9349 373.001 95.7646C373.554 95.4211 374.215 94.9112 374.706 94.2309C375.191 93.5591 375.507 92.7258 375.399 91.7016C375.289 90.6675 374.739 89.3772 373.367 87.8152C372.812 87.183 372.491 86.5656 372.446 85.96C372.399 85.3323 372.654 84.8059 373.062 84.3892C373.459 83.9838 374.011 83.6693 374.616 83.4196C375.226 83.1677 375.923 82.9686 376.64 82.8101C378.072 82.4931 379.628 82.3289 380.818 82.2435C381.414 82.2007 381.922 82.1774 382.282 82.1649C382.462 82.1586 382.604 82.155 382.703 82.1529C382.72 82.1525 382.736 82.1522 382.751 82.152C384.426 81.3867 385.85 79.7854 386.78 77.7387C387.725 75.6603 388.139 73.1668 387.805 70.7411C387.472 68.3205 386.395 65.9766 384.364 64.1669C382.333 62.3571 379.311 61.0489 375.032 60.7679L372.051 96.261ZM372.051 96.261L372.051 96.2611L372.051 96.261Z" fill="#293B4A" stroke="#293B4A"/>
<path d="M377.712 92.7771C378.801 95.0421 381.451 94.9622 382.765 94.1854" stroke="#293B4A" stroke-linejoin="round"/>
<path d="M386.317 115.536C372.393 128.11 358.919 113.968 358.919 113.968C358.919 113.968 356.785 112.879 361.787 110.876C361.787 110.876 370.135 121.184 384.255 112.574C382.44 111.594 380.48 109.576 380.48 109.576C379.007 107.224 379.007 104.342 380.771 98.7666C383.573 98.4472 386.252 100.4 384.647 91.3618H385.961C386.237 91.3618 386.411 91.0569 386.266 90.8246C385.424 89.4525 382.745 83.8626 382.448 81.4742" stroke="#293B4A" stroke-linejoin="round"/>
<path d="M87.774 131.46C105.952 131.46 120.689 116.724 120.689 98.5453C120.689 80.3668 105.952 65.6302 87.774 65.6302C69.5955 65.6302 54.8589 80.3668 54.8589 98.5453C54.8589 116.724 69.5955 131.46 87.774 131.46Z" fill="#F1F3F5" stroke="#293B4A" stroke-miterlimit="10"/>
<path fill-rule="evenodd" clip-rule="evenodd" d="M92.3367 73.4198C89.4038 81.6594 87.7704 87.2421 85.6433 85.478C85.6433 85.478 83.8429 84.4036 82.8992 86.037C82.1369 87.3727 82.616 88.7884 82.8193 89.2675C79.6686 96.4836 85.9627 107.213 83.8502 108.556C81.7304 109.899 72.7502 112.469 71.7702 103.061C70.7901 93.6378 71.3201 69.6012 88.99 70.8789C93.0481 71.1765 92.3367 73.427 92.3367 73.427V73.4198Z" fill="#293B4A" stroke="#293B4A" stroke-miterlimit="10"/>
<path d="M91.5747 95.3292C94.5729 97.6087 97.5712 96.2511 97.5712 96.2511" stroke="#293B4A" stroke-miterlimit="10"/>
<path d="M94.8928 87.1257C96.272 87.1257 97.3901 85.6468 97.3901 83.8226C97.3901 81.9983 96.272 80.5194 94.8928 80.5194C93.5136 80.5194 92.3955 81.9983 92.3955 83.8226C92.3955 85.6468 93.5136 87.1257 94.8928 87.1257Z" stroke="#293B4A" stroke-miterlimit="10"/>
<path d="M100.119 87.1328C101.498 87.1328 102.616 85.6518 102.616 83.8297C102.616 82.0075 101.498 80.5266 100.119 80.5266C99.7773 80.5266 99.4434 80.6209 99.1457 80.7879L98.9425 80.9549C99.4361 85.3615 101.157 89.1365 102.456 91.0094C103.088 91.9169 102.572 93.1728 101.476 93.3688L99.4652 93.6592L99.7991 100.737C99.7991 100.737 95.1312 103.975 86.4414 100.2" stroke="#293B4A" stroke-miterlimit="10"/>
<path d="M95.164 83.8225L92.9644 81.7318" stroke="#293B4A" stroke-miterlimit="10"/>
<path d="M99.8221 85.202C98.4501 84.7809 96.8457 85.3835 96.8457 85.3835" stroke="#293B4A" stroke-miterlimit="10"/>
<path d="M93.958 74.509C97.8637 75.4019 98.9526 80.941 98.9526 80.941" stroke="#293B4A" stroke-miterlimit="10"/>
<path d="M92.0361 102.346C93.8037 102.611 95.548 102.565 97.2708 102.209C97.9799 103.803 98.7089 105.074 99.3174 106.075C99.489 106.357 99.6418 106.603 99.7824 106.83C99.9209 107.053 100.048 107.257 100.169 107.459C100.406 107.851 100.568 108.145 100.657 108.37C100.713 108.512 100.724 108.587 100.726 108.619C100.702 108.633 100.651 108.657 100.554 108.681C100.334 108.737 99.9842 108.768 99.4522 108.768C98.9279 108.767 98.2605 108.736 97.4218 108.682C95.8306 108.579 94.7305 108.093 93.9616 107.453C93.1887 106.811 92.7163 105.983 92.4317 105.147C92.1464 104.308 92.055 103.475 92.0365 102.845C92.031 102.657 92.032 102.489 92.0361 102.346ZM100.745 108.605C100.745 108.605 100.744 108.606 100.742 108.608C100.744 108.606 100.745 108.605 100.745 108.605Z" fill="#293B4A" stroke="#293B4A"/>
<path d="M105.579 112.448C104.047 110.683 101.753 109.043 98.334 108.455" stroke="#293B4A" stroke-miterlimit="10"/>
<path d="M74.6487 106.981C74.6487 106.981 64.1004 112.143 63.3164 120.339" stroke="#293B4A" stroke-miterlimit="10"/>
<path d="M94.5782 107.874C94.5782 107.874 95.355 113.37 92.9738 116.288C90.5927 119.206 80.3784 107.874 80.3784 107.874" stroke="#293B4A" stroke-miterlimit="10"/>
<path d="M110.395 153.196L86.2275 134.821L111.077 102.139L135.244 120.505L110.395 153.196Z" fill="white" stroke="#293B4A" stroke-miterlimit="10"/>
<path d="M102.963 122.226L118.063 133.696" stroke="#293B4A" stroke-miterlimit="10"/>
<path d="M100.292 125.747L115.385 137.225" stroke="#293B4A" stroke-miterlimit="10"/>
<path d="M97.6099 129.268L112.703 140.745" stroke="#293B4A" stroke-miterlimit="10"/>
<path d="M112.279 110.146L127.292 121.558" stroke="#293B4A" stroke-miterlimit="10"/>
<path d="M109.881 113.297L124.894 124.709" stroke="#293B4A" stroke-miterlimit="10"/>
<path d="M94.5269 133.326L99.2311 136.898" stroke="#293B4A" stroke-miterlimit="10"/>
<path d="M189.716 368.918C193.666 343.132 192.214 350.761 194.907 336.155C197.542 321.963 199.205 313.97 199.205 313.97" stroke="#293B4A" stroke-miterlimit="10"/>
<path d="M295.061 371.735C296.905 356.337 292.062 333.862 287.482 327.959C280.672 319.175 275.576 316.838 275.576 316.838C275.576 316.838 266.436 290.159 275.576 276.99C296.977 246.144 291.438 232.677 291.438 232.677" stroke="#293B4A" stroke-miterlimit="10"/>
<path d="M226.406 352.997C226.406 352.997 226.573 353.629 226.885 354.841C227.887 358.703 230.348 367.212 234.138 381.44" stroke="#293B4A" stroke-miterlimit="10"/>
<path d="M314.007 215.021C314.007 215.021 346.988 236.038 351.612 243.363C368.055 269.396 288.41 293.294 289.223 309.948C289.223 309.948 293.412 311.465 297.477 307.748C299.873 305.556 304.984 306.942 299.967 312.953" stroke="#293B4A" stroke-miterlimit="10"/>
<path d="M302.43 316.837C308.028 314.188 308.332 306.05 304.318 310.26C304.318 310.26 298.772 315.364 289.784 314.834" stroke="#293B4A" stroke-miterlimit="10"/>
<path d="M337.566 242.267C296.092 263.936 275.787 303.864 275.787 303.864C273.181 324.881 293.994 328.061 300.361 327.959C311.628 327.778 318.546 320.075 312.63 321.665C306.713 323.262 300.354 321.316 300.354 321.316C314.241 318.928 313.385 315.32 307.838 316.01C298.335 317.193 297.566 318.391 294.481 318.224C294.481 318.224 287.998 317.149 289.217 309.941" stroke="#293B4A" stroke-miterlimit="10"/>
<path d="M296.97 228.285C296.97 228.285 310.596 241.584 328.273 247.152" stroke="#293B4A" stroke-miterlimit="10"/>
<path d="M321.213 217.918C330.535 203.885 299.689 217.468 295.884 230.782C292.959 241.011 305.075 234.963 305.075 234.963" stroke="#293B4A" stroke-miterlimit="10"/>
<path d="M270.856 215.021C270.856 215.021 287.038 230.426 296.439 236.089" stroke="#293B4A" stroke-miterlimit="10"/>
<path d="M322.956 211.987C322.956 211.987 294.215 187.232 264.98 184.662" stroke="#293B4A" stroke-miterlimit="10"/>
<path d="M275.566 316.837C229.192 338.848 199.209 313.97 199.209 313.97C199.209 313.97 208.72 279.029 209.671 252.807" stroke="#293B4A" stroke-miterlimit="10"/>
<path d="M223.056 198.07C222.286 212.335 212.05 221.025 204.848 236.735C200.79 245.584 204.638 257.918 224.435 254.84" stroke="#293B4A" stroke-miterlimit="10"/>
<path d="M246.015 183.442C213.92 177.119 199.205 203.878 199.205 203.878C199.205 203.878 202.413 211.987 216.816 216.401" stroke="#293B4A" stroke-miterlimit="10"/>
<path d="M272.599 254.107C262.944 263.871 247.873 258.978 244.221 254.107" stroke="#293B4A" stroke-miterlimit="10"/>
<path d="M132.56 192.516C132.56 202.527 144.284 231.247 149.126 242.223C151.093 246.688 155.101 250.042 159.914 250.847C176.226 253.584 197.598 235.493 213.178 221.983" stroke="#293B4A" stroke-miterlimit="10"/>
<path d="M264.17 160.719C259.321 167.057 264.715 181.307 265.971 185.351C265.971 185.351 279.445 203.551 236.402 207.674C236.402 207.674 241.738 194.411 244.591 187.885C247.444 181.366 247.931 178.963 243.931 166.316C239.691 165.91 233.288 172.654 236.925 152.153L232.156 150.999C231.531 150.999 231.139 150.316 231.473 149.779C233.382 146.665 239.459 129.561 240.134 124.153" stroke="#293B4A" stroke-miterlimit="10"/>
<path d="M262.063 105.619C252.073 103.064 241.765 106.171 239.391 114.352C236.777 123.303 240.124 124.16 240.124 124.16C257.104 116.574 256.524 137.503 256.524 137.503C256.524 137.503 266.832 135.144 261.569 144.755C261.569 144.755 266.905 155.906 264.168 160.712C264.168 160.712 291.217 163.805 281.961 125.59C281.504 123.681 280.872 121.931 280.11 120.298C280.096 120.283 280.081 120.254 280.066 120.24L262.063 105.612V105.619Z" fill="#293B4A" stroke="#293B4A" stroke-miterlimit="10"/>
<path d="M265.949 97.2994C253.499 63.3244 289.782 71.3536 306.842 104.69C320.12 130.621 297.543 122.665 284.091 116.298C284.091 116.298 285.325 106.142 265.949 97.2994Z" fill="#293B4A" stroke="#293B4A" stroke-miterlimit="10"/>
<path d="M286.683 114.127C280.984 99.8042 268.229 95.8986 268.229 95.8986C262.211 100.051 260.469 104.741 260.469 104.741C260.469 104.741 275.787 112.639 280.113 120.298L286.683 114.127Z" stroke="#293B4A" stroke-miterlimit="10"/>
<path d="M247.873 138.832C247.873 139.638 247.219 140.292 246.413 140.292C245.606 140.292 244.953 139.638 244.953 138.832C244.953 138.025 245.606 137.372 246.413 137.372C247.219 137.372 247.873 138.025 247.873 138.832Z" fill="#293B4A" stroke="#293B4A"/>
<path d="M232.809 138.323C232.809 139.13 232.156 139.784 231.349 139.784C230.543 139.784 229.889 139.13 229.889 138.323C229.889 137.517 230.543 136.863 231.349 136.863C232.156 136.863 232.809 137.517 232.809 138.323Z" fill="#293B4A" stroke="#293B4A"/>
<path d="M247.229 154.382C245.392 158.324 240.826 158.244 238.735 158.324" stroke="#293B4A" stroke-miterlimit="10"/>
<mask id="path-117-inside-4_191_7102" fill="white">
<path fill-rule="evenodd" clip-rule="evenodd" d="M237.71 132.436C228.911 115.869 244.323 106.925 244.323 106.925L245.166 119.114L240.011 124.965L237.652 132.762"/>
</mask>
<path fill-rule="evenodd" clip-rule="evenodd" d="M237.71 132.436C228.911 115.869 244.323 106.925 244.323 106.925L245.166 119.114L240.011 124.965L237.652 132.762" fill="#293B4A"/>
<path d="M244.323 106.925L245.321 106.856L245.21 105.254L243.821 106.06L244.323 106.925ZM245.166 119.114L245.916 119.775L246.192 119.462L246.163 119.045L245.166 119.114ZM240.011 124.965L239.261 124.304L239.117 124.468L239.054 124.676L240.011 124.965ZM238.593 131.967C234.381 124.035 235.979 118.043 238.56 114.007C239.867 111.962 241.442 110.4 242.696 109.348C243.321 108.823 243.862 108.428 244.243 108.167C244.434 108.036 244.584 107.94 244.684 107.877C244.734 107.845 244.772 107.822 244.796 107.808C244.808 107.801 244.816 107.795 244.821 107.793C244.824 107.791 244.825 107.79 244.826 107.79C244.826 107.79 244.827 107.79 244.826 107.79C244.826 107.79 244.826 107.79 244.826 107.79C244.826 107.79 244.825 107.79 244.323 106.925C243.821 106.06 243.821 106.061 243.82 106.061C243.82 106.061 243.82 106.062 243.819 106.062C243.818 106.062 243.817 106.063 243.815 106.064C243.812 106.066 243.808 106.068 243.803 106.071C243.793 106.077 243.78 106.085 243.763 106.095C243.729 106.116 243.681 106.145 243.621 106.183C243.499 106.259 243.327 106.371 243.113 106.517C242.686 106.81 242.092 107.243 241.41 107.816C240.049 108.958 238.321 110.667 236.875 112.929C233.948 117.507 232.24 124.269 236.827 132.905L238.593 131.967ZM243.326 106.994L244.168 119.183L246.163 119.045L245.321 106.856L243.326 106.994ZM244.415 118.453L239.261 124.304L240.762 125.626L245.916 119.775L244.415 118.453ZM239.054 124.676L236.695 132.473L238.609 133.052L240.968 125.255L239.054 124.676Z" fill="#293B4A" mask="url(#path-117-inside-4_191_7102)"/>
<path d="M165.521 230.419C191.787 210.266 199.961 205.25 199.961 205.25" stroke="#293B4A" stroke-miterlimit="10"/>
<path d="M131.687 172.4C135.498 165.555 136.383 152.095 140.768 154.868C143.273 156.451 141.247 170.447 141.124 172.792C141.088 173.489 140.899 174.114 140.957 174.665C141.335 178.215 141.843 181.344 142.198 182.404C153.966 199.58 166.605 233.969 166.605 233.969" stroke="#293B4A" stroke-miterlimit="10"/>
<path d="M131.988 169.809C119.618 164.103 117.512 173.663 115.719 181.177C113.904 189.228 115.915 192.807 121.2 193.627C132.663 195.413 133.694 191.972 134.289 188.742" stroke="#293B4A" stroke-miterlimit="10"/>
<path d="M121.387 187.899C121.387 187.899 136.219 190.876 134.106 183.5" stroke="#293B4A" stroke-miterlimit="10"/>
<path d="M122.572 181.809C122.572 181.809 137.403 184.785 135.291 177.409" stroke="#293B4A" stroke-miterlimit="10"/>
<path d="M125.59 175.994C133.503 177.823 134.614 175.014 134.614 175.014" stroke="#293B4A" stroke-miterlimit="10"/>
<path d="M287.319 133.576C337.396 150.839 373.375 198.375 373.375 254.318C373.375 324.831 316.213 382 245.693 382C175.173 382 118.011 324.838 118.011 254.318C118.011 235.182 122.221 217.025 129.764 200.727" stroke="#293B4A" stroke-miterlimit="10"/>
<path d="M144.966 175.849C165.976 148.915 197.562 130.621 233.476 127.209" stroke="#293B4A" stroke-miterlimit="10"/>
<path d="M238.435 131.986L237.215 135.02C237.753 133.372 238.253 131.753 238.696 130.251L238.435 131.986Z" fill="#FFDCC2" stroke="#293B4A" stroke-miterlimit="10"/>
<path d="M265.743 184.655C265.627 184.328 265.206 183.174 264.712 181.475C265.112 182.738 265.475 183.82 265.743 184.655Z" fill="#FFDCC2" stroke="#293B4A" stroke-miterlimit="10"/>
</svg>
