<svg width="569" height="475" viewBox="0 0 569 475" fill="none" xmlns="http://www.w3.org/2000/svg">
<g filter="url(#filter0_d_191_5513)">
<path d="M499.542 32.9481H65.9143C54.1352 32.9481 44.5863 42.4969 44.5863 54.276V376.104C44.5863 387.883 54.1352 397.432 65.9143 397.432H499.542C511.321 397.432 520.87 387.883 520.87 376.104V54.276C520.87 42.4969 511.321 32.9481 499.542 32.9481Z" fill="#F1F3F5"/>
<path d="M496.965 40.6984H68.4977C59.9329 40.6984 52.9897 47.6416 52.9897 56.2063V374.166C52.9897 382.731 59.9329 389.674 68.4977 389.674H496.965C505.53 389.674 512.473 382.731 512.473 374.166V56.2063C512.473 47.6416 505.53 40.6984 496.965 40.6984Z" fill="white"/>
<path d="M461.414 61.1529C463.696 61.1529 465.546 59.3029 465.546 57.0208C465.546 54.7388 463.696 52.8888 461.414 52.8888C459.132 52.8888 457.282 54.7388 457.282 57.0208C457.282 59.3029 459.132 61.1529 461.414 61.1529Z" fill="#5273FD"/>
<path d="M445.891 61.1529C448.173 61.1529 450.023 59.303 450.023 57.0209C450.023 54.7389 448.173 52.8889 445.891 52.8889C443.609 52.8889 441.759 54.7389 441.759 57.0209C441.759 59.303 443.609 61.1529 445.891 61.1529Z" fill="#FF340C"/>
<path d="M492.466 61.1529C494.748 61.1529 496.598 59.3029 496.598 57.0208C496.598 54.7388 494.748 52.8888 492.466 52.8888C490.184 52.8888 488.334 54.7388 488.334 57.0208C488.334 59.3029 490.184 61.1529 492.466 61.1529Z" fill="#19AD4A"/>
<path d="M476.936 61.1529C479.219 61.1529 481.068 59.3029 481.068 57.0208C481.068 54.7388 479.219 52.8888 476.936 52.8888C474.654 52.8888 472.804 54.7388 472.804 57.0208C472.804 59.3029 474.654 61.1529 476.936 61.1529Z" fill="#FFCD00"/>
<path d="M305.667 117.636L306.467 292.59L159.446 293.265L158.5 85.5341L272.692 85.013L272.846 117.79L305.667 117.636Z" fill="white" stroke="#293B4A" stroke-miterlimit="10"/>
<path d="M305.491 117.636L272.838 117.783L272.691 85.2332C272.691 85.1451 272.794 85.1084 272.853 85.1672L305.542 117.511C305.586 117.555 305.557 117.629 305.491 117.629V117.636Z" fill="#F1F3F5" stroke="#293B4A" stroke-miterlimit="10"/>
<path d="M212.04 104.205L235.944 104.095" stroke="#293B4A" stroke-miterlimit="10"/>
<path d="M226.615 110.767L212.069 110.833" stroke="#293B4A" stroke-miterlimit="10"/>
<path d="M175.05 156.564L278.064 156.094" stroke="#293B4A" stroke-miterlimit="10"/>
<path d="M269.771 163.654L175.079 164.087" stroke="#293B4A" stroke-miterlimit="10"/>
<path d="M175.116 171.617L278.137 171.14" stroke="#293B4A" stroke-miterlimit="10"/>
<path d="M269.844 178.706L175.152 179.139" stroke="#293B4A" stroke-miterlimit="10"/>
<path d="M175.182 186.662L278.203 186.192" stroke="#293B4A" stroke-miterlimit="10"/>
<path d="M269.91 193.752L175.219 194.185" stroke="#293B4A" stroke-miterlimit="10"/>
<path d="M285.513 265.038L238.153 265.251" stroke="#293B4A" stroke-miterlimit="10"/>
<path d="M245.786 258.088C259.334 250.94 255.921 238.03 251.334 249.046C246.747 260.062 248.765 263.739 256.802 257.017C264.838 250.294 256.905 261.383 264.875 258.514C272.853 255.644 275.312 251.094 274.446 255.182C273.587 259.27 272.633 260.517 276.699 258.969" stroke="#5273FD" stroke-miterlimit="10"/>
<path d="M201.51 101.564L176.938 101.676C175.556 101.682 174.441 102.808 174.447 104.19L174.574 132.16C174.58 133.542 175.706 134.657 177.088 134.651L201.66 134.54C203.042 134.533 204.157 133.408 204.151 132.025L204.024 104.056C204.018 102.674 202.892 101.558 201.51 101.564Z" fill="#F1F3F5" stroke="#293B4A" stroke-miterlimit="10"/>
<path d="M238.043 102.786L210.807 102.91C210.503 102.911 210.258 103.159 210.259 103.463L210.267 105.209C210.268 105.513 210.516 105.759 210.82 105.757L238.056 105.634C238.36 105.632 238.605 105.385 238.604 105.081L238.596 103.334C238.594 103.03 238.347 102.785 238.043 102.786Z" fill="#BCD5FD"/>
<path d="M226.754 109.039L210.835 109.111C210.531 109.113 210.286 109.36 210.287 109.664L210.295 111.411C210.297 111.715 210.544 111.96 210.848 111.959L226.767 111.887C227.071 111.885 227.316 111.638 227.315 111.334L227.307 109.587C227.306 109.283 227.058 109.038 226.754 109.039Z" fill="#BCD5FD"/>
<path d="M185.618 113.196C185.987 113.196 186.286 112.897 186.286 112.528C186.286 112.159 185.987 111.86 185.618 111.86C185.249 111.86 184.95 112.159 184.95 112.528C184.95 112.897 185.249 113.196 185.618 113.196Z" fill="#293B4A"/>
<path d="M184.194 125.673C181.016 126.392 178.47 128.564 176.51 131.177" stroke="#293B4A" stroke-miterlimit="10"/>
<path d="M201.244 129.599C199.6 127.691 196.077 126.399 192.877 125.988C188.943 133.46 187.504 127.816 187.504 127.816C187.504 127.816 182.484 132.828 184.202 125.665C186.55 124.997 186.425 122.473 185.479 119.229C183.864 119.009 181.508 119.97 182.55 114.766L181.794 114.752C181.633 114.752 181.538 114.576 181.626 114.436C182.132 113.651 183.747 110.458 183.952 109.086" stroke="#293B4A" stroke-linejoin="round"/>
<path d="M191.688 123.808C189.538 126.473 186.227 125.408 185.897 124.08" stroke="#293B4A" stroke-linejoin="round"/>
<path d="M192.87 125.996C190.712 124.946 189.068 120.498 189.853 118.539C190.161 117.027 189.912 116.491 189.391 115.559C189.237 115.288 189.391 114.957 189.684 114.862C190.022 114.752 190.396 114.326 190.602 113.122C191.079 110.378 188.283 112.102 188.283 112.102L188.363 108.455C187.468 109.049 187.519 111.053 187.519 111.053C185.706 108.77 182.081 109.512 182.081 109.512C182.081 109.512 183.387 103.024 188.437 105.196C188.437 105.196 197.464 104.257 195.108 117.9C194.088 123.823 196.011 126.429 198.521 127.478L192.862 125.996H192.87Z" fill="#293B4A"/>
<path d="M183.622 119.111C181.119 122.209 182.367 124.572 180.305 127.508C180.305 127.508 186.455 125.856 186.103 122.532C185.875 120.381 185.471 119.236 185.471 119.236L183.622 119.111Z" fill="#293B4A"/>
<path d="M416.585 172.336V345.367H271.179V139.918H384.124V172.336H416.585Z" fill="white" stroke="#293B4A" stroke-miterlimit="10"/>
<path d="M416.417 172.336H384.124V140.146C384.124 140.065 384.227 140.021 384.285 140.08L416.468 172.218C416.512 172.262 416.483 172.336 416.417 172.336Z" fill="#F1F3F5" stroke="#293B4A" stroke-miterlimit="10"/>
<path d="M324.052 158.626H347.692" stroke="#293B4A" stroke-miterlimit="10"/>
<path d="M338.437 165.18H324.052" stroke="#293B4A" stroke-miterlimit="10"/>
<path d="M287.231 210.243H389.115" stroke="#293B4A" stroke-miterlimit="10"/>
<path d="M380.88 217.685H287.231" stroke="#293B4A" stroke-miterlimit="10"/>
<path d="M287.231 225.127H389.115" stroke="#293B4A" stroke-miterlimit="10"/>
<path d="M380.88 232.569H287.231" stroke="#293B4A" stroke-miterlimit="10"/>
<path d="M287.231 240.011H389.115" stroke="#293B4A" stroke-miterlimit="10"/>
<path d="M380.88 247.454H287.231" stroke="#293B4A" stroke-miterlimit="10"/>
<path d="M395.984 318.013H349.152" stroke="#293B4A" stroke-miterlimit="10"/>
<path d="M356.726 310.968C370.157 303.959 366.84 291.181 362.26 302.05C357.68 312.927 359.655 316.567 367.633 309.955C375.61 303.342 367.713 314.27 375.61 311.467C383.515 308.663 385.959 304.179 385.093 308.215C384.227 312.252 383.273 313.485 387.302 311.973" stroke="#5273FD" stroke-miterlimit="10"/>
<path d="M313.63 155.962H289.381C287.999 155.962 286.878 157.082 286.878 158.465V186.075C286.878 187.457 287.999 188.578 289.381 188.578H313.63C315.012 188.578 316.133 187.457 316.133 186.075V158.465C316.133 157.082 315.012 155.962 313.63 155.962Z" fill="#F1F3F5" stroke="#293B4A" stroke-miterlimit="10"/>
<path d="M349.497 157.334H323.112C322.658 157.334 322.29 157.702 322.29 158.156V159.331C322.29 159.785 322.658 160.153 323.112 160.153H349.497C349.951 160.153 350.319 159.785 350.319 159.331V158.156C350.319 157.702 349.951 157.334 349.497 157.334Z" fill="#BCD5FD"/>
<path d="M338.305 163.47H323.112C322.658 163.47 322.29 163.838 322.29 164.292V165.466C322.29 165.92 322.658 166.288 323.112 166.288H338.305C338.759 166.288 339.127 165.92 339.127 165.466V164.292C339.127 163.838 338.759 163.47 338.305 163.47Z" fill="#BCD5FD"/>
<path d="M311.781 187.653C310.518 185.033 308.074 182.479 303.304 182.479" stroke="#293B4A" stroke-miterlimit="10"/>
<path d="M293.88 185.495C293.829 186.493 293.565 187.374 293.183 188.211" stroke="#293B4A" stroke-miterlimit="10"/>
<path d="M299.04 182.207C291.825 180.783 288.515 186.802 288.515 186.802" stroke="#293B4A" stroke-miterlimit="10"/>
<path d="M303.12 177.099C302.027 178.523 303.245 181.73 303.524 182.64C303.524 182.64 307.003 185.627 297.322 186.552C297.322 186.552 298.071 184.673 298.717 183.213C299.355 181.745 299.465 181.209 298.57 178.361C297.616 178.273 296.177 179.785 296.992 175.176L295.92 174.919C295.781 174.919 295.693 174.765 295.766 174.648C296.192 173.95 297.564 170.105 297.711 168.886" stroke="#293B4A" stroke-miterlimit="10"/>
<path d="M302.643 164.71C300.397 164.138 298.078 164.835 297.55 166.67C296.963 168.681 297.711 168.872 297.711 168.872C301.528 167.169 301.396 171.873 301.396 171.873C301.396 171.873 303.715 171.345 302.526 173.503C302.526 173.503 303.722 176.013 303.113 177.092C303.113 177.092 309.197 177.789 307.113 169.195C307.01 168.769 306.871 168.373 306.695 168.006C306.695 168.006 306.695 167.998 306.687 167.991" fill="#293B4A"/>
<path d="M302.643 164.71C300.397 164.138 298.078 164.835 297.55 166.67C296.963 168.681 297.711 168.872 297.711 168.872C301.528 167.169 301.396 171.873 301.396 171.873C301.396 171.873 303.715 171.345 302.526 173.503C302.526 173.503 303.722 176.013 303.113 177.092C303.113 177.092 309.197 177.789 307.113 169.195C307.01 168.769 306.871 168.373 306.695 168.006C306.695 168.006 306.695 167.998 306.687 167.991" stroke="#293B4A" stroke-miterlimit="10"/>
<path d="M303.516 162.846C300.72 155.206 308.874 157.011 312.713 164.505C315.7 170.332 310.621 168.549 307.597 167.11C307.597 167.11 307.876 164.828 303.516 162.839V162.846Z" fill="#293B4A" stroke="#293B4A" stroke-miterlimit="10"/>
<path d="M307.707 167.551C306.423 164.329 303.524 163.228 303.524 163.228C302.173 164.16 302.284 164.512 302.284 164.512C302.284 164.512 305.726 166.288 306.702 168.013L307.707 167.551Z" stroke="#293B4A" stroke-miterlimit="10"/>
<path d="M299.128 172.622C299.371 172.622 299.568 172.425 299.568 172.182C299.568 171.939 299.371 171.741 299.128 171.741C298.884 171.741 298.687 171.939 298.687 172.182C298.687 172.425 298.884 172.622 299.128 172.622Z" fill="#293B4A"/>
<path d="M295.737 172.505C295.98 172.505 296.177 172.307 296.177 172.064C296.177 171.821 295.98 171.624 295.737 171.624C295.494 171.624 295.297 171.821 295.297 172.064C295.297 172.307 295.494 172.505 295.737 172.505Z" fill="#293B4A"/>
<path d="M299.311 175.675C298.9 176.563 297.873 176.541 297.403 176.563" stroke="#293B4A" stroke-miterlimit="10"/>
<path fill-rule="evenodd" clip-rule="evenodd" d="M297.168 170.743C295.48 167.419 298.173 165.158 298.173 165.158L298.849 167.742L297.689 169.055L297.161 170.809" fill="#293B4A"/>
<path d="M338.811 73.8206C356.711 73.8206 371.221 59.31 371.221 41.4103C371.221 23.5106 356.711 9 338.811 9C320.911 9 306.401 23.5106 306.401 41.4103C306.401 59.31 320.911 73.8206 338.811 73.8206Z" fill="#19AD4A" stroke="#293B4A" stroke-miterlimit="10"/>
<path d="M359.478 33.8949C360.499 36.7498 360.961 39.8544 360.719 43.069C359.801 55.3403 349.108 64.5511 336.837 63.6337C324.565 62.7163 315.355 52.0229 316.272 39.7516C317.19 27.4803 327.883 18.2695 340.154 19.1869C345.527 19.5906 350.304 21.8584 353.908 25.3152" stroke="#293B4A" stroke-linecap="round" stroke-linejoin="round"/>
<path d="M324.911 35.2967L338.151 48.4633L366.231 20.2438" stroke="#293B4A" stroke-linecap="round" stroke-linejoin="round"/>
<path d="M123.337 314.256C123.939 315.929 124.203 317.757 124.063 319.643C123.528 326.85 117.253 332.252 110.045 331.716C102.838 331.18 97.4365 324.905 97.9723 317.698C98.5081 310.491 104.783 305.089 111.99 305.625C115.139 305.86 117.95 307.195 120.064 309.221" stroke="#293B4A" stroke-linecap="round" stroke-linejoin="round"/>
<path d="M103.044 315.078L110.816 322.806L127.3 306.241" stroke="#293B4A" stroke-linecap="round" stroke-linejoin="round"/>
<path d="M276.052 463.266C320.784 463.266 357.046 427.004 357.046 382.273C357.046 337.541 320.784 301.279 276.052 301.279C231.321 301.279 195.059 337.541 195.059 382.273C195.059 427.004 231.321 463.266 276.052 463.266Z" fill="#FFCD00"/>
<mask id="mask0_191_5513" style="mask-type:luminance" maskUnits="userSpaceOnUse" x="195" y="301" width="163" height="163">
<path d="M276.052 463.266C320.784 463.266 357.046 427.004 357.046 382.273C357.046 337.541 320.784 301.279 276.052 301.279C231.321 301.279 195.059 337.541 195.059 382.273C195.059 427.004 231.321 463.266 276.052 463.266Z" fill="white"/>
</mask>
<g mask="url(#mask0_191_5513)">
<path d="M265.484 355.587C286.067 357.252 302.254 374.483 302.254 395.496C302.254 417.615 284.326 435.543 262.208 435.543H256.964V421.438H262.208C276.537 421.438 288.149 409.826 288.149 395.496C288.149 381.167 276.537 369.554 262.208 369.554H261.723" fill="#293B4A"/>
<path d="M265.484 355.587C286.067 357.252 302.254 374.483 302.254 395.496C302.254 417.615 284.326 435.543 262.208 435.543H256.964V421.438H262.208C276.537 421.438 288.149 409.826 288.149 395.496C288.149 381.167 276.537 369.554 262.208 369.554H261.723" stroke="#293B4A" stroke-miterlimit="10"/>
<path d="M284.388 408.966C263.805 407.3 247.618 390.069 247.618 369.056C247.618 346.937 265.546 329.01 287.665 329.01H292.908V343.114H287.665C273.335 343.114 261.723 354.726 261.723 369.056C261.723 383.386 273.335 394.998 287.665 394.998H288.156" stroke="#293B4A" stroke-miterlimit="10"/>
<path d="M299.885 409.095H333.063H354.779" stroke="#293B4A" stroke-miterlimit="10"/>
<path d="M302.254 395.496H333.063H354.779" stroke="#293B4A" stroke-miterlimit="10"/>
<path d="M256.965 421.486C247.612 421.486 234.839 416.366 229.623 407.498C234.989 401.681 231.35 394.827 229.159 393.919C227.336 393.168 227.015 395.244 227.862 395.626C228.708 396.008 231.603 399.538 228.278 402.227C224.954 404.917 221.581 396.841 226.257 394.998C226.94 394.609 226.374 392.711 224.872 393.482C223.37 394.254 219.396 396.978 221.404 400.685C218.12 397.148 212.269 387.529 210.938 388.519C208.644 390.219 220.025 401.244 219.492 401.654C218.96 402.064 209.45 391.584 209.368 394.308C209.286 397.148 218.605 402.023 217.171 403.211C215.696 404.433 210.153 397.66 211.443 400.282C215.355 408.221 223.479 409.983 223.479 409.983C228.408 415.949 236.996 433.201 256.958 433.208" stroke="#293B4A" stroke-miterlimit="10"/>
<path d="M292.901 340.731C302.254 340.731 315.027 345.852 320.242 354.72C314.876 360.536 318.515 367.39 320.707 368.298C322.529 369.049 322.85 366.974 322.004 366.591C321.157 366.209 318.263 362.68 321.587 359.99C324.912 357.3 328.284 365.376 323.608 367.22C322.925 367.609 323.492 369.507 324.994 368.735C326.496 367.964 330.469 365.24 328.462 361.533C331.746 365.069 337.596 374.688 338.927 373.698C341.221 371.998 329.841 360.973 330.373 360.563C330.906 360.154 340.416 370.633 340.498 367.909C340.58 365.069 331.261 360.195 332.695 359.007C334.128 357.819 339.712 364.557 338.422 361.936C334.51 353.996 326.387 352.235 326.387 352.235C321.458 346.268 312.869 329.017 292.908 329.01" stroke="#293B4A" stroke-miterlimit="10"/>
<path d="M249.789 355.587H175.179V370.94H247.612C247.612 370.94 247.707 360.12 249.789 355.587Z" fill="#293B4A" stroke="#293B4A" stroke-miterlimit="10"/>
<path d="M261.723 369.554C261.723 369.554 261.634 360.475 265.484 355.58L261.723 369.554Z" fill="#293B4A"/>
<path d="M261.723 369.554C261.723 369.554 261.634 360.475 265.484 355.58" stroke="#293B4A" stroke-miterlimit="10"/>
</g>
<path d="M8 215.601C8 220.335 8.66054 224.915 9.8862 229.252C15.8237 250.235 35.126 265.611 58.0099 265.611C85.6277 265.611 108.02 243.219 108.02 215.601C108.02 187.983 85.6277 165.591 58.0099 165.591C30.3922 165.591 8 187.983 8 215.601Z" fill="#BCD5FD"/>
<path d="M66.3107 195.844C65.2685 200.974 68.4757 207.469 70.2372 208.988C71.9986 210.515 68.1528 211.073 68.1528 211.073C68.1528 211.073 70.9564 221.575 66.707 222.052C62.4575 222.529 61.5768 221.568 61.5768 221.568C61.5768 221.568 61.5475 226.603 65.4373 228.782C68.2703 230.368 67.1033 234.36 66.3767 235.703C64.7694 238.654 63.0961 240.489 57.9145 237.788C50.3771 233.861 47.889 229.304 47.889 229.304C47.889 229.304 53.3201 227.182 51.0743 222.052C48.8285 216.922 48.8285 196.879 48.8285 196.879L55.7201 190.868L66.3033 195.836L66.3107 195.844Z" fill="#FFD8BC"/>
<path d="M70.9638 248.386L73.217 262.976L67.8593 264.635L61.298 265.097L58.8687 249.67L70.9638 248.386Z" fill="#FFCD00"/>
<path d="M80.0131 245.912C80.5048 251.013 82.3983 255.189 84.2625 258.169" stroke="#293B4A" stroke-miterlimit="10"/>
<path d="M45.768 229.59C53.4743 243.718 65.0336 248.929 65.0336 248.929C65.0336 248.929 69.6941 244.342 66.3767 229.025C77.7453 229.025 84.8717 236.048 90.1634 253.897" stroke="#293B4A" stroke-linejoin="round"/>
<path d="M47.889 229.311C40.5351 230.082 32.3664 233.017 29.1665 237.524C26.3629 241.479 23.8969 245.729 21.7318 250.074" stroke="#293B4A" stroke-linejoin="round"/>
<path d="M67.0446 232.702C65.0336 248.921 47.889 229.303 47.889 229.303" stroke="#293B4A" stroke-miterlimit="10"/>
<path d="M54.01 252.885L42.913 253.736V257.53L54.6119 256.305L54.01 252.885Z" fill="#293B4A"/>
<path d="M71.0151 248.32L58.6558 249.406L61.2979 265.09C63.0226 265.185 65.2831 265.141 67.8592 264.635C70.0023 264.216 71.8078 263.585 73.2169 262.976C72.483 258.088 71.7491 253.2 71.0151 248.312V248.32Z" stroke="#293B4A" stroke-miterlimit="10"/>
<path d="M69.2024 252.687L62.6191 253.465" stroke="#293B4A" stroke-miterlimit="10"/>
<path d="M69.4738 255.101L65.4225 255.542" stroke="#293B4A" stroke-miterlimit="10"/>
<path d="M62.0833 205.788C62.6953 205.788 63.1915 205.292 63.1915 204.68C63.1915 204.068 62.6953 203.572 62.0833 203.572C61.4712 203.572 60.975 204.068 60.975 204.68C60.975 205.292 61.4712 205.788 62.0833 205.788Z" fill="#293B4A"/>
<path d="M69.7454 205.363C70.2602 205.363 70.6775 204.945 70.6775 204.431C70.6775 203.916 70.2602 203.499 69.7454 203.499C69.2307 203.499 68.8134 203.916 68.8134 204.431C68.8134 204.945 69.2307 205.363 69.7454 205.363Z" fill="#293B4A"/>
<path d="M66.1125 199.286C66.6777 204.299 68.8061 207.374 70.2739 208.944C70.817 209.524 70.4868 210.471 69.7088 210.61L66.8685 211.117" stroke="#293B4A" stroke-linejoin="round"/>
<path d="M62.2594 213.766C65.3346 217.12 68.6152 215.029 68.6152 215.029" stroke="#293B4A" stroke-miterlimit="10"/>
<path d="M68.3289 210.794C68.3289 213.003 68.6005 215.227 68.85 217.054C69.217 219.711 68.8573 221.428 66.2666 222.104C63.9474 222.705 61.1291 221.707 58.8172 219.395" stroke="#293B4A" stroke-miterlimit="10"/>
<path fill-rule="evenodd" clip-rule="evenodd" d="M55.5366 183.895C75.0517 177.466 71.2059 197.627 71.2059 197.627C62.8759 198.53 54.9494 196.328 54.9494 196.328C54.9494 196.328 49.2982 204.636 56.0943 217.062C56.0943 217.062 55.4999 232.68 37.9957 220.658C37.9957 220.658 34.0618 180.571 55.5366 183.903V183.895Z" fill="#293B4A"/>
<path d="M66.3767 229.025C66.3767 229.025 61.5475 227.601 61.5475 221.414" stroke="#293B4A" stroke-linejoin="round"/>
<path d="M47.889 229.311C47.889 229.311 52.4688 226.955 51.8816 220.937" stroke="#293B4A" stroke-linejoin="round"/>
<path d="M557.691 262.851C557.691 290.579 535.211 313.059 507.483 313.059C479.755 313.059 457.275 290.579 457.275 262.851C457.275 235.123 479.755 212.643 507.483 212.643C535.211 212.643 557.691 235.123 557.691 262.851Z" fill="#5CC46E"/>
<mask id="mask1_191_5513" style="mask-type:luminance" maskUnits="userSpaceOnUse" x="457" y="212" width="101" height="102">
<path d="M557.691 262.851C557.691 290.579 535.211 313.059 507.483 313.059C479.755 313.059 457.275 290.579 457.275 262.851C457.275 235.123 479.755 212.643 507.483 212.643C535.211 212.643 557.691 235.123 557.691 262.851Z" fill="white"/>
</mask>
<g mask="url(#mask1_191_5513)">
<path d="M504.973 281.251C504.738 287.145 507.681 291.387 507.681 291.387C507.681 291.387 511.439 310.337 500.811 315.907C499.182 316.759 494.125 298.697 494.125 298.697C494.125 298.697 498.602 295.159 495.065 287.739C493.127 282.646 491.446 283.732 491.446 283.732C491.446 283.732 486.859 285.214 486.947 279.174C487.035 273.141 486.661 274.822 485.92 274.822C485.179 274.822 484.437 275.137 485.098 273.398C485.751 271.659 489.142 263.006 488.569 260.532C487.997 258.059 498.903 261.215 498.903 261.215L501.721 264.576L502.147 266.91C502.147 266.91 499.358 266.595 498.162 270.866C496.965 275.137 498.448 280.745 504.393 281.141" fill="#CBB3A4"/>
<path d="M507.402 291.783C506.389 289.566 504.341 284.788 504.378 283.24C504.393 282.594 504.312 281.845 504.217 281.185C504.657 281.214 505.112 281.2 505.567 281.141C509.574 280.634 512.422 276.965 511.908 272.95C511.805 272.158 511.585 271.416 511.262 270.734C514.484 267.791 521.926 260.136 518.58 254.756C525.39 254.851 541.221 257.002 536.664 275.35C536.664 275.35 563.966 277.368 549.228 311.327C549.228 311.327 540.326 298.836 527.35 295.702C520.378 294.021 515.299 293.566 512.092 293.508C512.092 293.508 512.282 291.607 511.659 291.636C511.402 291.651 508.356 291.548 508.158 291.563C507.438 291.614 507.409 291.79 507.409 291.79L507.402 291.783Z" fill="#293B4A"/>
<path d="M487.843 263.042C487.843 263.042 487.916 263.035 488.048 263.02C489.993 262.815 502.36 260.004 501.464 267.27C501.457 267.306 501.464 267.277 501.479 267.27C502.433 266.572 502.455 266.778 503.71 266.616C505.215 266.426 506.668 266.705 507.923 267.336C508.914 266.367 509.787 265.442 510.543 264.569C514.543 259.982 515.527 256.752 515.475 254.639C515.424 252.51 514.316 251.527 514.191 251.417C514.668 251.615 515.108 251.828 515.512 252.055C515.035 245.325 512.055 229.039 494.235 232.819C471.902 237.553 477.678 260.07 487.828 263.05L487.843 263.042Z" fill="#293B4A"/>
<path d="M488.078 262.822C487.579 266.418 485.538 272.503 484.782 274.176C484.635 274.506 484.907 274.866 485.259 274.822L486.962 274.609C486.375 286.565 489.516 283.6 493.193 283.548C496.393 290.476 497.787 295.269 494.514 298.139" stroke="#293B4A" stroke-linejoin="round"/>
<path d="M496.254 275.548C495.219 278.66 491.777 278.99 489.949 278.205" stroke="#293B4A" stroke-linejoin="round"/>
<path d="M491.989 271.593C493.919 271.593 495.483 270.028 495.483 268.099C495.483 266.17 493.919 264.606 491.989 264.606C490.06 264.606 488.496 266.17 488.496 268.099C488.496 270.028 490.06 271.593 491.989 271.593Z" fill="white" stroke="#293B4A" stroke-miterlimit="10"/>
<path d="M485.964 271.336C485.186 270.726 484.636 269.824 484.503 268.759C484.232 266.624 485.744 264.679 487.872 264.407" stroke="#293B4A" stroke-miterlimit="10"/>
<path d="M487.072 267.974L488.305 267.813" stroke="#293B4A" stroke-miterlimit="10"/>
<path d="M495.747 268.004L507.453 266.514" stroke="#293B4A" stroke-miterlimit="10"/>
<path d="M510.551 264.562C514.55 259.974 515.534 256.745 515.483 254.631C515.116 253.222 514.609 252.364 514.609 252.364L510.558 264.554L510.551 264.562Z" fill="#526373"/>
<path d="M486.896 276.737C478.999 278.198 476.225 281.376 482.969 281.816" stroke="#293B4A" stroke-linejoin="round"/>
<path d="M485.135 282.861C485.694 281.672 485.184 280.256 483.995 279.697C482.807 279.138 481.39 279.648 480.831 280.836C480.272 282.025 480.782 283.441 481.971 284C483.159 284.559 484.576 284.049 485.135 282.861Z" fill="#293B4A"/>
<path d="M514.198 251.417C514.323 251.527 515.424 252.51 515.482 254.639C515.541 256.752 514.558 259.982 510.55 264.569C509.787 265.442 508.921 266.367 507.93 267.336C507.468 267.791 506.976 268.26 506.455 268.738" stroke="#293B4A" stroke-linejoin="round"/>
<path d="M514.191 251.409H514.198C514.675 251.615 515.116 251.828 515.519 252.055C516.972 252.855 517.956 253.773 518.572 254.764C521.919 260.151 514.477 267.798 511.255 270.741C510.411 271.504 509.861 271.952 509.861 271.952" stroke="#293B4A" stroke-linejoin="round"/>
<path d="M567.87 359.334C567.87 359.334 569.133 343.774 560.92 330.63C552.707 317.485 545.052 293.691 512.312 293.691" stroke="#293B4A" stroke-miterlimit="10"/>
<path d="M489.92 299.548C483.865 303.298 478.911 311.115 480.004 318.975C484.305 349.969 470.089 359.334 470.089 359.334" stroke="#293B4A" stroke-miterlimit="10"/>
<path d="M501.597 316.869C501.597 316.869 510.191 309.544 512.312 307.518L509.207 302.403L515.519 301.001C515.519 301.001 512.194 294.535 512.011 292.509C511.828 290.484 507.666 291.497 507.666 291.497C507.666 291.497 511.461 303.577 501.589 316.869" stroke="#293B4A" stroke-miterlimit="10"/>
<path d="M490.375 296.957C490.375 296.957 492.144 294.594 494.081 294.821C494.081 294.821 495.417 309.926 501.597 316.869C501.597 316.869 494.147 312.237 491.821 308.759L493.868 304.715C493.868 304.715 491.028 304.377 489.949 305.052C489.949 305.052 489.92 299.548 490.375 296.957Z" stroke="#293B4A" stroke-linejoin="round"/>
<path d="M494.081 294.821C494.081 294.821 494.543 294.19 496.254 293.471" stroke="#293B4A" stroke-linejoin="round"/>
<path d="M510.029 273.633C510.029 270.756 507.695 268.429 504.826 268.429" stroke="#293B4A" stroke-miterlimit="10"/>
<path d="M499.615 273.633C499.615 276.51 501.949 278.836 504.819 278.836" stroke="#293B4A" stroke-miterlimit="10"/>
</g>
</g>
<defs>
<filter id="filter0_d_191_5513" x="0.400744" y="0.900744" width="568.592" height="473.667" filterUnits="userSpaceOnUse" color-interpolation-filters="sRGB">
<feFlood flood-opacity="0" result="BackgroundImageFix"/>
<feColorMatrix in="SourceAlpha" type="matrix" values="0 0 0 0 0 0 0 0 0 0 0 0 0 0 0 0 0 0 127 0" result="hardAlpha"/>
<feOffset dx="1.8511" dy="1.8511"/>
<feGaussianBlur stdDeviation="4.72518"/>
<feComposite in2="hardAlpha" operator="out"/>
<feColorMatrix type="matrix" values="0 0 0 0 0 0 0 0 0 0 0 0 0 0 0 0 0 0 0.25 0"/>
<feBlend mode="normal" in2="BackgroundImageFix" result="effect1_dropShadow_191_5513"/>
<feBlend mode="normal" in="SourceGraphic" in2="effect1_dropShadow_191_5513" result="shape"/>
</filter>
</defs>
</svg>
