<svg width="100" height="114" viewBox="0 0 100 114" fill="none" xmlns="http://www.w3.org/2000/svg">
<g filter="url(#filter0_d_191_4390)">
<path d="M82.2008 42.8452H13.7993C10.5964 42.8452 8 45.4416 8 48.6445V96.1786C8 99.3814 10.5964 101.978 13.7993 101.978H82.2008C85.4036 101.978 88 99.3814 88 96.1786V48.6445C88 45.4416 85.4036 42.8452 82.2008 42.8452Z" fill="white"/>
<path d="M22.2007 91.073C20.5898 91.073 19.3011 89.7595 19.3011 88.1238H18.1363C18.1363 90.379 19.9455 92.213 22.2007 92.213V91.0482V91.073ZM25.1004 88.1238C25.1004 89.7595 23.7868 91.073 22.2007 91.073V92.2378C24.456 92.2378 26.2652 90.4038 26.2652 88.1486H25.1004V88.1238ZM22.2007 85.1746C23.8116 85.1746 25.1004 86.4881 25.1004 88.1238H26.2652C26.2652 85.8685 24.456 84.0345 22.2007 84.0345V85.1994V85.1746ZM19.3011 88.1238C19.3011 86.4881 20.6146 85.1746 22.2007 85.1746V84.0098C19.9455 84.0098 18.1363 85.8437 18.1363 88.099H19.3011V88.1238Z" fill="#293B4A"/>
<path d="M22.2008 75.9555C24.1307 75.9555 25.6952 74.3799 25.6952 72.4363C25.6952 70.4927 24.1307 68.9171 22.2008 68.9171C20.2709 68.9171 18.7064 70.4927 18.7064 72.4363C18.7064 74.3799 20.2709 75.9555 22.2008 75.9555Z" fill="#FFCD00"/>
<path d="M22.2007 75.3856C20.5898 75.3856 19.3011 74.0721 19.3011 72.4364H18.1363C18.1363 74.6917 19.9455 76.5256 22.2007 76.5256V75.3608V75.3856ZM25.1004 72.4364C25.1004 74.0721 23.7868 75.3856 22.2007 75.3856V76.5504C24.456 76.5504 26.2652 74.7164 26.2652 72.4612H25.1004V72.4364ZM22.2007 69.4872C23.8116 69.4872 25.1004 70.8007 25.1004 72.4364H26.2652C26.2652 70.1811 24.456 68.3472 22.2007 68.3472V69.512V69.4872ZM19.3011 72.4364C19.3011 70.8007 20.6146 69.4872 22.2007 69.4872V68.3224C19.9455 68.3224 18.1363 70.1563 18.1363 72.4116H19.3011V72.4364Z" fill="#FFCD00"/>
<path d="M63.5638 70.4038H32.2875C31.4696 70.4038 30.8253 71.073 30.8253 71.8908V73.0556C30.8253 73.8734 31.4944 74.5426 32.2875 74.5426H63.5638C64.3816 74.5426 65.026 73.8734 65.026 73.0556V71.8908C65.026 71.073 64.3569 70.4038 63.5638 70.4038Z" fill="#F1F3F5"/>
<path d="M74.394 85.8188H32.2875C31.4696 85.8188 30.8253 86.488 30.8253 87.3058V88.4706C30.8253 89.2885 31.4944 89.9576 32.2875 89.9576H74.4188C75.2367 89.9576 75.881 89.2885 75.881 88.4706V87.3058C75.881 86.488 75.2119 85.8188 74.4188 85.8188H74.394Z" fill="#F1F3F5"/>
<path d="M48.57 62.7211C63.4893 62.7211 75.5837 50.6045 75.5837 35.6579C75.5837 20.7113 63.4893 8.59473 48.57 8.59473C33.6508 8.59473 21.5564 20.7113 21.5564 35.6579C21.5564 50.6045 33.6508 62.7211 48.57 62.7211Z" fill="white"/>
<path d="M20.9616 35.658C20.9616 50.9244 33.3284 63.316 48.57 63.316V62.1512C33.9728 62.1512 22.1264 50.2801 22.1264 35.658H20.9616ZM48.57 8C33.3284 8 20.9616 20.3916 20.9616 35.658H22.1264C22.1264 21.0112 33.9728 9.16481 48.57 9.16481V8ZM76.1785 35.658C76.1785 20.3916 63.8117 8 48.57 8V9.16481C63.1673 9.16481 75.0137 21.0359 75.0137 35.658H76.1785ZM48.57 63.316C63.8117 63.316 76.1785 50.9244 76.1785 35.658H75.0137C75.0137 50.2801 63.1673 62.1512 48.57 62.1512V63.316Z" fill="#293B4A"/>
<path d="M54.6419 20.9368L58.5576 32.9814H71.2218L60.9864 40.4163L64.9021 52.4609L54.6419 45.0012L44.4064 52.4609L48.3222 40.4163L38.062 32.9814H50.7261L54.6419 20.9368Z" fill="white"/>
<path d="M41.7795 16.2775L45.6952 28.3221H58.3594L48.1239 35.7818L52.0149 47.8264L41.7795 40.3667L31.544 47.8264L35.4597 35.7818L25.1995 28.3221H37.8637L41.7795 16.2775Z" fill="#FFCD00"/>
<path d="M38.4337 28.5204L42.3495 16.4758L41.259 16.1289L37.3433 28.1735L38.4337 28.5204ZM25.2243 28.917H37.8885V27.7522H25.2243V28.917ZM35.8067 35.311L25.5465 27.8761L24.8774 28.8178L35.1376 36.2528L35.8067 35.311ZM32.114 48L36.0298 35.9554L34.9393 35.6084L31.0236 47.653L32.114 48ZM41.4573 39.9207L31.2218 47.3556L31.891 48.2974L42.1264 40.8624L41.4573 39.9207ZM52.3867 47.3556L42.1512 39.9207L41.4821 40.8624L51.7175 48.2974L52.4114 47.3556H52.3867ZM47.5787 35.9554L51.4945 48L52.5849 47.653L48.6692 35.6084L47.5787 35.9554ZM58.0372 27.8761L47.777 35.311L48.4461 36.2528L58.7064 28.8178L58.0372 27.8761ZM45.72 28.917H58.3842V27.7522H45.72V28.917ZM41.259 16.4758L45.1748 28.5204L46.2652 28.1735L42.3495 16.1289L41.259 16.4758ZM37.8885 28.347V28.917H38.3098L38.4337 28.5204L37.8885 28.347ZM25.2243 28.347V27.7769H23.4399L24.8774 28.8178L25.2243 28.347ZM35.4846 35.7819L36.0298 35.9554L36.1537 35.5588L35.8067 35.311L35.4598 35.7819H35.4846ZM31.5688 47.8265L31.0236 47.653L30.4784 49.3383L31.9158 48.2974L31.5688 47.8265ZM41.8043 40.3916L42.1512 39.9207L41.8043 39.6728L41.4573 39.9207L41.8043 40.3916ZM52.0397 47.8265L51.6927 48.2974L53.1302 49.3383L52.5849 47.653L52.0397 47.8265ZM48.124 35.7819L47.777 35.311L47.43 35.5588L47.5539 35.9554L48.0992 35.7819H48.124ZM58.3842 28.347L58.7311 28.8178L60.1686 27.7769H58.3842V28.347ZM45.72 28.347L45.1748 28.5204L45.2987 28.917H45.72V28.347ZM41.8043 16.3023L42.3495 16.1289L41.8043 14.4436L41.259 16.1289L41.8043 16.3023Z" fill="#293B4A"/>
<path d="M48.9495 48.3796L44.1375 51.8757L44.8222 52.8181L49.6342 49.322L48.9495 48.3796Z" fill="#293B4A"/>
<path d="M54.3693 44.4561L53.2292 45.274L53.9232 46.2157L55.0632 45.3979L54.3693 44.4561ZM65.2986 51.8911L55.0384 44.4561L54.3693 45.3979L64.6295 52.8328L65.2986 51.8911ZM60.4907 40.4908L64.4064 52.5354L65.4969 52.1885L61.5812 40.1439L60.4907 40.4908ZM70.9492 32.4115L60.689 39.8465L61.3581 40.7882L71.6183 33.3533L70.9492 32.4115ZM58.632 33.4524H71.2962V32.2876H58.632V33.4524ZM54.7162 44.927L55.0632 44.4561L54.7162 44.2083L54.3693 44.4561L54.7162 44.927ZM64.9765 52.3619L64.6295 52.8328L66.0669 53.8737L65.5217 52.1885L64.9765 52.3619ZM61.0607 40.3173L60.7138 39.8465L60.3668 40.0943L60.4907 40.4908L61.0359 40.3173H61.0607ZM71.3209 32.8824L71.6679 33.3533L73.1053 32.3124H71.3209V32.8824Z" fill="#293B4A"/>
<path d="M55.2867 20.6336L54.1793 20.9945L55.8686 26.1785L56.9761 25.8176L55.2867 20.6336Z" fill="#293B4A"/>
</g>
<defs>
<filter id="filter0_d_191_4390" x="0" y="0" width="100" height="113.978" filterUnits="userSpaceOnUse" color-interpolation-filters="sRGB">
<feFlood flood-opacity="0" result="BackgroundImageFix"/>
<feColorMatrix in="SourceAlpha" type="matrix" values="0 0 0 0 0 0 0 0 0 0 0 0 0 0 0 0 0 0 127 0" result="hardAlpha"/>
<feOffset dx="2" dy="2"/>
<feGaussianBlur stdDeviation="5"/>
<feColorMatrix type="matrix" values="0 0 0 0 0 0 0 0 0 0 0 0 0 0 0 0 0 0 0.25 0"/>
<feBlend mode="normal" in2="BackgroundImageFix" result="effect1_dropShadow_191_4390"/>
<feBlend mode="normal" in="SourceGraphic" in2="effect1_dropShadow_191_4390" result="shape"/>
</filter>
</defs>
</svg>
