<svg width="537" height="416" viewBox="0 0 537 416" fill="none" xmlns="http://www.w3.org/2000/svg">
<g filter="url(#filter0_d_191_5667)">
<path d="M485.309 8H64.6269C53.1994 8 43.9356 17.2638 43.9356 28.6913V340.911C43.9356 352.339 53.1994 361.603 64.6269 361.603H485.309C496.736 361.603 506 352.339 506 340.911V28.6913C506 17.2638 496.736 8 485.309 8Z" fill="#EFF1F3"/>
<path d="M482.81 15.526H67.1332C58.8241 15.526 52.0883 22.2619 52.0883 30.571V339.039C52.0883 347.348 58.8241 354.084 67.1332 354.084H482.81C491.119 354.084 497.855 347.348 497.855 339.039V30.571C497.855 22.2619 491.119 15.526 482.81 15.526Z" fill="white"/>
<path d="M448.319 35.3627C450.533 35.3627 452.328 33.5679 452.328 31.354C452.328 29.1401 450.533 27.3453 448.319 27.3453C446.105 27.3453 444.311 29.1401 444.311 31.354C444.311 33.5679 446.105 35.3627 448.319 35.3627Z" fill="#4470FF"/>
<path d="M433.26 35.3628C435.474 35.3628 437.269 33.568 437.269 31.3541C437.269 29.1402 435.474 27.3455 433.26 27.3455C431.046 27.3455 429.252 29.1402 429.252 31.3541C429.252 33.568 431.046 35.3628 433.26 35.3628Z" fill="#FF340C"/>
<path d="M478.445 35.3627C480.659 35.3627 482.454 33.5679 482.454 31.354C482.454 29.1401 480.659 27.3453 478.445 27.3453C476.231 27.3453 474.437 29.1401 474.437 31.354C474.437 33.5679 476.231 35.3627 478.445 35.3627Z" fill="#19AD4A"/>
<path d="M463.379 35.3627C465.592 35.3627 467.387 33.5679 467.387 31.354C467.387 29.1401 465.592 27.3453 463.379 27.3453C461.165 27.3453 459.37 29.1401 459.37 31.354C459.37 33.5679 461.165 35.3627 463.379 35.3627Z" fill="#FFCC00"/>
<path d="M73.3562 236.487H235.454" stroke="#F3F5F6" stroke-width="7" stroke-miterlimit="10"/>
<path d="M73.3563 258.26H235.454" stroke="#F3F5F6" stroke-width="7" stroke-miterlimit="10"/>
<path d="M73.3563 280.034H209.587" stroke="#F3F5F6" stroke-width="7" stroke-miterlimit="10"/>
<path d="M267 97.7734H409" stroke="#F3F5F6" stroke-width="7" stroke-miterlimit="10"/>
<path d="M267 119.547H386.34" stroke="#F3F5F6" stroke-width="7" stroke-miterlimit="10"/>
<path d="M254.059 180.472V83.2533H198.016H84.7912C78.5041 83.2533 73.4131 88.3513 73.4131 94.6314V210.384H211.303" stroke="#293B4A" stroke-miterlimit="10"/>
<path d="M84.6701 93.1503C86.0464 93.1503 87.1622 92.0345 87.1622 90.6582C87.1622 89.2819 86.0464 88.1661 84.6701 88.1661C83.2938 88.1661 82.178 89.2819 82.178 90.6582C82.178 92.0345 83.2938 93.1503 84.6701 93.1503Z" fill="#5CC46E"/>
<path d="M93.6844 93.1503C95.0608 93.1503 96.1765 92.0345 96.1765 90.6582C96.1765 89.2819 95.0608 88.1661 93.6844 88.1661C92.3081 88.1661 91.1924 89.2819 91.1924 90.6582C91.1924 92.0345 92.3081 93.1503 93.6844 93.1503Z" fill="#FFCB00"/>
<path d="M102.706 93.1503C104.082 93.1503 105.198 92.0345 105.198 90.6582C105.198 89.2819 104.082 88.1661 102.706 88.1661C101.329 88.1661 100.213 89.2819 100.213 90.6582C100.213 92.0345 101.329 93.1503 102.706 93.1503Z" fill="#FF340C"/>
<path d="M73.3989 98.0632H240.773" stroke="#00193C" stroke-miterlimit="10"/>
<path d="M254.06 180.472V331.349H459.484" stroke="#293B4A" stroke-miterlimit="10"/>
<path d="M263.223 140.478L476.537 141.133V238.224" stroke="#293B4A" stroke-miterlimit="10"/>
<path d="M410.632 304.136C410.632 304.136 407.022 301.615 402.473 307.774C401.689 308.828 398.763 308.329 400.614 306.556C402.003 305.218 403.17 304.193 403.17 304.193" stroke="#293B4A" stroke-miterlimit="10"/>
<path d="M362.991 303.744L386.189 306.378" stroke="#293B4A" stroke-miterlimit="10"/>
<path d="M363.034 307.575L376.391 309.091" stroke="#293B4A" stroke-miterlimit="10"/>
<path d="M363.048 312.125L398.471 316.738L431.003 310.608" stroke="#293B4A" stroke-miterlimit="10"/>
<path d="M363.091 315.364L398.863 320.021L419.298 316.176" stroke="#293B4A" stroke-miterlimit="10"/>
<path d="M419.889 232.948C419.889 232.948 415.517 236.957 412.654 237.946C409.792 238.936 406.688 239.342 405.734 233.895C404.779 228.448 408.482 228.598 404.167 229.003C399.845 229.409 393.088 231.844 388.553 240.296C384.01 248.748 382.116 258.324 381.653 260.418C381.19 262.511 380.934 264.853 381.653 265.943L382.372 267.032L383.191 264.925C383.191 264.925 383.896 264.312 384.772 264.683C385.648 265.053 386.737 265.366 387.292 267.032C387.848 268.698 389.079 269.866 390.867 270.414C390.867 270.414 391.92 270.678 391.664 271.575C391.408 272.472 387.107 297.257 384.772 302.234L394.882 303.381C394.882 303.381 398.514 299.272 401.803 298.746C405.093 298.219 410.02 297.756 413.402 299.757L433.509 291.811C433.509 291.811 434.257 290.244 434.706 288.493C435.154 286.741 437.561 275.035 437.561 275.035C437.561 275.035 437.333 273.825 439.533 274.594C441.733 275.356 446.126 274.259 448.391 273.44C450.655 272.614 456.166 269.097 455.867 268.143C455.568 267.189 450.797 253.746 448.227 248.911C445.657 244.077 442.317 236.259 438.059 233.952C433.808 231.645 427.358 229.879 427.358 229.879C427.358 229.879 426.119 228.975 425.051 230.57C423.983 232.165 422.409 234.5 422.409 234.5C422.409 234.5 421.761 231.382 419.896 232.969L419.889 232.948Z" fill="#5CC46E"/>
<path d="M382.223 267.986C382.223 267.986 378.926 280.489 378.52 283.943C378.52 283.943 368.346 285.701 366.544 286.307C364.743 286.919 362.785 286.62 362.785 289.496V296.439C362.785 296.439 362.386 298.34 365.419 297.457C368.453 296.574 380.13 294.687 383.711 292.302C387.293 289.924 388.296 290.151 389.023 285.943C389.749 281.735 391.8 270.77 391.8 270.77C391.8 270.77 388.959 269.966 387.727 267.73C386.495 265.494 386.111 265.117 384.765 264.661C383.419 264.206 383.213 264.305 382.223 267.979V267.986Z" fill="#FFDCC2"/>
<path d="M454.485 269.546C454.485 269.546 450.655 273.27 446.525 273.939C442.388 274.601 441.47 274.623 441.47 274.623C441.47 274.623 440.402 274.537 440.914 275.74C441.427 276.944 445.528 285.609 445.528 285.609C445.528 285.609 447.166 287.46 445.272 287.93C443.378 288.4 433.296 291.569 428.732 293.377C424.168 295.186 414.555 299.244 414.555 299.244C414.555 299.244 413.779 299.693 411.9 299.152C410.013 298.618 404.544 297.236 400.272 299.308C396 301.38 393.159 305.225 393.394 305.987C393.629 306.749 393.408 307.219 394.498 306.927C395.587 306.635 395.594 306.955 395.58 307.582C395.566 308.208 396.328 307.788 397.211 306.763C398.093 305.738 400.621 303.545 401.141 303.246C401.661 302.947 403.69 303.21 402.444 304.862C401.191 306.514 398.271 308.322 401.554 308.294C404.829 308.258 405.584 308.493 408.055 308.337C410.518 308.18 416.065 308.045 418.571 304.997C418.571 304.997 433.915 304.121 445.485 300.697C457.056 297.272 461.57 294.324 461.492 291.825C461.413 289.326 456.436 269.902 456.436 269.902C456.436 269.902 456.03 267.153 454.514 269.539L454.485 269.546Z" fill="#FFDCC2"/>
<path d="M406.802 199.22C406.802 199.22 405.976 204.239 405.057 206.034C404.139 207.828 402.444 210.085 402.444 210.085C402.444 210.085 401.668 211.481 402.978 211.652C404.288 211.822 404.189 212.065 404.16 213.467C404.132 214.87 403.092 220.231 404.16 221.171C405.228 222.111 406.139 222.837 407.599 222.638C409.059 222.439 410.696 221.264 410.682 223.272C410.668 225.28 410.568 228.078 409.45 228.462C408.332 228.847 406.139 228.626 405.819 230.549C405.499 232.471 406.296 237.911 408.468 238.196C410.647 238.48 415.424 236.594 416.791 235.526C418.158 234.458 419.397 234.23 418.557 232.236C417.717 230.242 415.111 225.109 416.563 220.053C418.016 214.998 419.796 206.646 418.828 201.747C417.866 196.842 416.713 197.148 415.567 197.304C414.42 197.461 409.991 200.366 406.802 199.22Z" fill="#FFDCC2"/>
<path d="M294.993 260.767C294.993 260.767 301.223 268.663 307.81 271.71C314.403 274.758 319.715 275.961 314.659 277.656C309.611 279.357 296.78 280.319 281.75 278.453C266.726 276.588 266.1 275.662 266.1 275.662V258.253L294.986 260.759L294.993 260.767Z" fill="#FFCB00"/>
<path d="M351.036 268.456L341.139 269.952L266.164 262.475V180.757H351.036V268.456Z" fill="#FFCB00"/>
<path d="M404.281 211.823C404.281 213.909 404.025 215.995 403.79 217.718C403.448 220.217 403.783 221.841 406.225 222.474C408.411 223.044 411.067 222.097 413.246 219.925" stroke="#293B4A" stroke-miterlimit="10"/>
<path d="M393.28 244.91C392.697 250.969 390.019 255.626 387.947 258.417C384.758 262.696 386.516 268.869 391.536 270.685C391.621 270.713 391.714 270.749 391.806 270.778C391.806 270.778 387.648 294.659 384.772 302.22" stroke="#293B4A" stroke-miterlimit="10"/>
<path d="M438.173 270.934C436.564 282.683 434.008 290.971 434.008 290.971" stroke="#293B4A" stroke-miterlimit="10"/>
<path d="M434.008 254.344C437.404 263.679 438.529 274.459 438.529 274.459C438.529 274.459 448.718 276.331 455.86 268.122" stroke="#293B4A" stroke-miterlimit="10"/>
<path d="M440.451 274.623C442.951 280.846 446.525 287.531 446.525 287.531" stroke="#293B4A" stroke-miterlimit="10"/>
<path d="M451.445 287.353C444.46 285.766 413.395 299.75 413.395 299.75C413.395 299.75 401.419 293.762 393.7 304.912C393.7 304.912 392.234 307.831 395.566 306.628" stroke="#293B4A" stroke-miterlimit="10"/>
<path d="M408.033 301.615C408.033 301.615 401.768 300.561 396.862 307.197C395.58 308.935 394.975 306.72 396.378 305.061C396.378 305.061 398.115 302.334 400.693 301.288" stroke="#293B4A" stroke-miterlimit="10"/>
<path d="M425.542 229.53C418.279 242.845 407.392 247.751 407.392 247.751C407.392 247.751 402.999 243.429 406.125 229.004C393.28 229.004 386.189 238.523 380.927 263.714C380.927 263.714 384.352 264.156 386.502 265.509" stroke="#293B4A" stroke-linejoin="round"/>
<path d="M423.541 229.267C430.469 229.993 438.166 232.756 441.185 237.006C457.298 259.727 461.62 292.879 461.62 292.879C461.62 292.879 456.871 301.601 418.55 304.997C418.55 304.997 416.1 308.614 406.424 308.294" stroke="#293B4A" stroke-linejoin="round"/>
<path d="M362.906 297.827C385.292 294.808 388.296 288.77 388.296 288.77" stroke="#293B4A" stroke-linejoin="round"/>
<path d="M383.419 264.22C380.35 273.141 378.52 283.95 378.52 283.95C375.722 283.316 368.716 285.459 362.507 287.723" stroke="#293B4A" stroke-miterlimit="10"/>
<path d="M399.682 270.934C416.257 272.387 418.721 274.637 418.721 274.637" stroke="#293B4A" stroke-miterlimit="10"/>
<path d="M405.491 232.464C407.393 247.744 423.541 229.267 423.541 229.267" stroke="#293B4A" stroke-miterlimit="10"/>
<path d="M266.164 180.757H351.036V268.877L341.139 270.357L299.985 266.342" stroke="#293B4A" stroke-miterlimit="10"/>
<path d="M341.139 267.388V186.695" stroke="#293B4A" stroke-miterlimit="10"/>
<path d="M362.934 299.742L394.882 303.374" stroke="#293B4A" stroke-miterlimit="10"/>
<path d="M332.965 275.719L362.792 279.607" stroke="#293B4A" stroke-miterlimit="10"/>
<path d="M417.774 251.482L428.233 252.279V255.854L417.211 254.707L417.774 251.482Z" fill="#243B4C"/>
<path d="M401.753 247.174L413.395 248.2L410.775 264.911L399.382 262.96L401.753 247.174Z" stroke="#293B4A" stroke-miterlimit="10"/>
<path d="M403.463 251.29L409.664 252.023" stroke="#293B4A" stroke-miterlimit="10"/>
<path d="M403.206 253.568L407.029 253.981" stroke="#293B4A" stroke-miterlimit="10"/>
<path d="M361.952 180.828L375.957 171.351" stroke="#293B4A" stroke-miterlimit="10"/>
<path d="M361.952 242.71L376.057 248.064" stroke="#293B4A" stroke-miterlimit="10"/>
<path d="M361.859 211.232L375.266 210.242" stroke="#293B4A" stroke-miterlimit="10"/>
<path d="M362.08 194.406L369.164 192.463" stroke="#293B4A" stroke-miterlimit="10"/>
<path d="M351.136 169.222L356.491 155.117" stroke="#293B4A" stroke-miterlimit="10"/>
<path d="M312.003 169.322L311.014 155.915" stroke="#293B4A" stroke-miterlimit="10"/>
<path d="M291.333 169.094C290.358 165.548 290.037 164.366 290.037 164.366" stroke="#293B4A" stroke-miterlimit="10"/>
<path d="M332.047 169.18L333.279 161.938" stroke="#293B4A" stroke-miterlimit="10"/>
<path d="M277.122 237.071C279.068 237.071 280.646 233.577 280.646 229.267C280.646 224.957 279.068 221.463 277.122 221.463C275.175 221.463 273.597 224.957 273.597 229.267C273.597 233.577 275.175 237.071 277.122 237.071Z" stroke="#293B4A" stroke-miterlimit="10"/>
<path d="M307.703 278.46C317.522 277.848 316.803 275.719 316.803 275.719L314.403 274.765C302.519 270.051 293.27 262.817 290.444 250.314C290.444 250.314 288.286 239.086 289.162 219.505" stroke="#293B4A" stroke-miterlimit="10"/>
<path d="M410.006 205.827C410.58 205.827 411.045 205.362 411.045 204.788C411.045 204.214 410.58 203.748 410.006 203.748C409.432 203.748 408.966 204.214 408.966 204.788C408.966 205.362 409.432 205.827 410.006 205.827Z" fill="#293B4A"/>
<path d="M403.32 205.471C403.804 205.471 404.196 205.079 404.196 204.595C404.196 204.112 403.804 203.72 403.32 203.72C402.836 203.72 402.444 204.112 402.444 204.595C402.444 205.079 402.836 205.471 403.32 205.471Z" fill="#293B4A"/>
<path d="M406.375 200.978C405.841 205.706 403.84 208.604 402.452 210.078C401.939 210.619 402.252 211.516 402.986 211.644L405.1 211.822" stroke="#293B4A" stroke-linejoin="round"/>
<path fill-rule="evenodd" clip-rule="evenodd" d="M404.302 215.546C404.302 215.546 406.317 216.059 409.443 215.155C409.443 215.155 408.019 218.124 404.16 217.682L404.302 215.553V215.546Z" stroke="#243B4C" stroke-miterlimit="10"/>
<path fill-rule="evenodd" clip-rule="evenodd" d="M412.591 188.226C398.35 185.001 401.12 199.419 401.12 199.419C407.849 202.559 416.891 198.194 416.891 198.194C416.891 198.194 419.782 204.845 416.322 217.725C414.584 224.197 414.734 232.834 421.633 235.113C421.633 235.113 422.481 234.386 423.385 233.105C423.912 232.357 425.407 229.979 425.407 229.979C426.632 229.502 427.984 229.979 430.185 230.556C437.846 232.556 438.052 233.938 438.052 233.938C438.052 233.938 442.339 214.236 431.352 209.943C431.352 209.943 430.533 179.689 412.598 188.233" fill="#293B4A"/>
<path d="M406.125 229.003C411.045 229.003 410.675 227.665 410.675 221.826" stroke="#293B4A" stroke-linejoin="round"/>
<path d="M382.365 267.025C382.365 267.025 381.461 266.263 380.92 263.714" stroke="#293B4A" stroke-linejoin="round"/>
<path d="M320.861 305.674L265.352 293.299V276.417L334.411 285.488L362.792 279.614V320.021" stroke="#293B4A" stroke-miterlimit="10"/>
<path d="M334.532 320.021V285.488" stroke="#293B4A" stroke-miterlimit="10"/>
<path d="M172.548 196.094C172.548 196.094 167.264 197.105 161.426 197.155C155.587 197.205 151.835 197.155 151.835 197.155C151.835 197.155 150.261 196.849 150.461 198.223C150.66 199.597 151.814 209.188 151.814 209.188C151.814 209.188 152.234 210.434 150.446 210.377C148.659 210.327 113.436 210.377 113.436 210.377C113.436 210.377 111.634 210.762 111.805 209.188C111.976 207.615 112.175 203.221 111.791 203.798C111.407 204.375 111.478 205.671 109.356 205.265C107.234 204.859 99.6796 203.933 93.7983 197.746C93.7983 197.746 92.4099 197.297 93.7983 194.713C95.1867 192.128 101.274 182.53 106.323 178.949C111.364 175.367 116.768 171.921 121.097 171.793C125.426 171.665 124.728 172.512 126.779 173.58C128.822 174.655 134.668 177.546 138.285 176.805C141.902 176.065 143.846 173.566 143.846 173.566C143.846 173.566 144.01 172.469 146.053 172.498C148.104 172.526 153.679 173.146 156.029 173.537C158.378 173.936 164.559 174.762 164.559 174.762C164.559 174.762 167.578 174.534 168.432 176.2C169.287 177.866 173.238 186.482 173.865 189.358C174.491 192.235 176.15 195.695 172.562 196.073L172.548 196.094Z" fill="#4E6FFF"/>
<mask id="mask0_191_5667" style="mask-type:luminance" maskUnits="userSpaceOnUse" x="80" y="94" width="162" height="117">
<path d="M241.984 210.377L80.8609 209.971V94.14L241.984 94.553V210.377Z" fill="white"/>
</mask>
<g mask="url(#mask0_191_5667)">
<path d="M167.706 174.99C167.706 174.99 171.366 180.999 172.811 186.033C174.257 191.067 174.698 195.766 174.698 195.766C174.698 195.766 190.356 193.061 199.028 185.136C199.028 185.136 212.528 176.278 213.824 154.498C213.824 154.498 214.059 143.34 212.656 135.544L214.173 120.121C214.173 120.121 213.56 118.078 213.012 121.147C212.464 124.208 211.802 128.345 210.84 127.669C209.879 126.992 209.666 120.136 209.516 119.246C209.366 118.356 208.74 115.28 207.779 115.33C206.817 115.379 207.729 118.391 207.864 119.666C207.999 120.94 208.605 126.935 208.291 128.011C207.978 129.086 207.729 129.107 207.408 127.469C207.088 125.832 205.087 117.003 204.454 116.782C203.82 116.561 204.389 122.051 204.582 123.475C204.774 124.899 205.749 129.193 204.582 127.875C203.414 126.558 201.456 120.655 200.751 120.577C200.046 120.499 201.114 123.959 201.883 126.01C202.652 128.06 204.318 131.884 203.143 130.965C201.969 130.047 200.046 128.915 199.142 129.684C198.238 130.453 198.921 132.076 200.658 132.952C202.389 133.828 205.009 134.604 205.287 136.761C205.287 136.761 206.191 145.548 204.169 153.081C202.147 160.614 198.594 167.777 191.673 170.974C184.752 174.171 176.898 175.915 167.692 175.004L167.706 174.99Z" fill="#FFDCC2"/>
<path d="M92.8585 196.692C92.8585 196.692 97.1377 201.997 102.841 203.641C108.544 205.286 110.666 205.528 110.666 205.528L108.623 210.384H88.9068C88.9068 210.384 90.0674 202.046 92.8585 196.692Z" fill="#FFDCC2"/>
<path d="M141.411 140.991C141.411 140.991 133.116 140.471 129.848 142.949C126.58 145.434 126.252 151.372 127.626 153.401C129.001 155.423 129.285 155.879 129.107 157.317C128.929 158.756 128.018 165.221 127.299 166.659C126.58 168.097 126.06 170.12 125.206 170.839C124.358 171.558 123.881 171.779 125.654 172.939C127.427 174.1 131.678 177.254 136.705 176.884C141.732 176.521 142.999 174.57 143.825 173.58C144.651 172.583 143.433 172.818 142.664 171.949C141.895 171.081 139.709 166.232 138.94 162.864C138.171 159.496 137.566 158.4 139.325 158.457C141.084 158.521 144.822 158.628 144.822 158.628L145.028 152.483C145.028 152.483 149.606 152.867 149.315 151.821C149.023 150.774 148.09 150.133 147.456 148.674C146.822 147.214 145.27 141.048 145.27 141.048L141.418 140.984L141.411 140.991Z" fill="#FFDCC2"/>
<path d="M133.422 131.706C133.422 131.706 144.309 130.595 149.813 133.543C154.505 136.049 152.589 143.319 143.07 142.764C133.55 142.208 132.14 143.02 132.14 143.02C132.14 143.02 135.515 144.857 134.874 146.139C134.234 147.42 132.268 144.43 130.268 145.327C128.26 146.224 130.182 149.086 129.371 150.361C128.559 151.643 124.721 152.326 124.038 150.617C123.354 148.908 116.754 133.244 133.429 131.706H133.422Z" fill="#243B4C" stroke="#243B4C" stroke-miterlimit="10"/>
<path d="M111.642 210.761C112.012 206.682 112.482 203.05 113.115 200.124" stroke="#293B4A" stroke-miterlimit="10"/>
<path d="M149.222 191.281C150.261 196.115 151.166 202.609 151.935 210.384" stroke="#293B4A" stroke-miterlimit="10"/>
<path d="M142.343 155.438C140.378 155.609 138.121 153.045 138.121 153.045" stroke="#293B4A" stroke-linecap="round" stroke-linejoin="round"/>
<path d="M140.849 148.908C141.509 148.908 142.045 148.373 142.045 147.712C142.045 147.052 141.509 146.516 140.849 146.516C140.188 146.516 139.652 147.052 139.652 147.712C139.652 148.373 140.188 148.908 140.849 148.908Z" fill="#243B4C" stroke="#243B4C" stroke-miterlimit="10"/>
<path d="M123.782 171.664C127.499 170.646 128.773 160.642 129.115 157.317C129.15 156.968 129.257 156.655 129.407 156.356C126.267 152.924 125.583 145.298 128.944 138.919C133.359 130.531 144.26 138.919 144.26 138.919" stroke="#293B4A" stroke-miterlimit="10"/>
<path d="M145.711 141.824C146.274 146.516 147.171 148.994 149.022 150.788C150.881 152.582 145.028 152.497 145.028 152.497L144.821 158.642C144.821 158.642 141.631 158.563 137.901 158.414C139.161 163.327 140.606 173.203 144.65 172.597" stroke="#293B4A" stroke-miterlimit="10"/>
<path d="M144.124 131.891C148.83 132.219 149.172 125.818 142.343 125.818C135.515 125.818 132.824 130.681 130.139 130.809C127.448 130.937 118.455 137.395 122.891 144.893L144.131 131.884L144.124 131.891Z" fill="#243B4C" stroke="#243B4C" stroke-miterlimit="10"/>
<path d="M131.969 130.125C127.811 131.67 127.491 123.511 125.355 124.621C123.219 125.732 126.295 127.099 126.722 129.143C127.149 131.193 122.03 127.057 120.577 130.318C119.125 133.579 123.867 132.781 123.333 135.786C122.799 138.791 131.5 136.227 131.977 130.125H131.969Z" fill="#243B4C" stroke="#243B4C" stroke-miterlimit="10"/>
<path d="M115.316 187.265C116.184 193.823 112.453 202.495 108.623 210.384" stroke="#293B4A" stroke-miterlimit="10"/>
<path d="M88.9068 209.993C89.9321 203.485 92.1678 197.148 95.6496 191.338C100.563 183.135 111.627 171.629 123.682 171.629C123.682 171.629 138.677 182.829 144.444 172.576C144.444 172.576 148.175 172.298 152.469 172.96C153.992 173.195 157.054 173.772 160.379 174.278C163.612 174.776 166.873 175.032 170.141 175.061C181.163 175.161 207.458 175.303 205.315 136.754C205.151 133.75 199.191 133.529 198.935 130.959C198.679 128.388 201.249 129.157 203.172 130.959C205.101 132.76 200.473 123.895 200.601 120.94C200.729 117.986 206.226 133.785 205.023 126.338C203.812 118.89 203.684 112.361 205.87 120.57C208.056 128.78 207.529 130.959 208.305 128.004C209.081 125.049 206.376 112.859 208.305 115.294C210.235 117.729 209.85 128.773 211.267 127.747C212.677 126.722 213.453 115.415 213.966 118.626C214.478 121.838 212.079 131.955 212.876 136.754C222.311 193.623 174.221 198.636 150.176 196.977" stroke="#293B4A" stroke-miterlimit="10"/>
</g>
<path d="M167.705 174.89C175.587 189.337 174.669 195.375 174.669 195.375" stroke="#293B4A" stroke-miterlimit="10"/>
<path d="M92.7161 196.692C100.99 205.357 110.659 205.528 110.659 205.528" stroke="#293B4A" stroke-miterlimit="10"/>
<path d="M220.288 193.089C220.288 193.089 215.874 198.686 211.203 200.85C206.532 203.015 202.765 203.862 206.347 205.065C209.928 206.269 219.028 206.952 229.68 205.635C240.331 204.311 240.78 203.656 240.78 203.656V191.309L220.295 193.089H220.288Z" fill="#F3F5F6"/>
<path d="M180.55 198.536L187.571 199.597L240.73 194.3V136.356H180.55V198.536Z" fill="#F3F5F6"/>
<path d="M240.73 136.356H180.55V198.835L187.571 199.889L216.749 197.034" stroke="#243B4C" stroke-miterlimit="10"/>
<path d="M187.571 197.781V140.564" stroke="#243B4C" stroke-miterlimit="10"/>
<path d="M232.955 176.279C234.336 176.279 235.455 173.802 235.455 170.746C235.455 167.691 234.336 165.214 232.955 165.214C231.575 165.214 230.456 167.691 230.456 170.746C230.456 173.802 231.575 176.279 232.955 176.279Z" stroke="#243B4C" stroke-miterlimit="10"/>
<path d="M211.274 205.628C204.311 205.194 204.823 203.684 204.823 203.684L206.525 203.008C214.948 199.661 221.513 194.535 223.514 185.67C223.514 185.67 225.045 177.71 224.418 163.825" stroke="#243B4C" stroke-miterlimit="10"/>
<path d="M204.823 203.684L157.082 210.163" stroke="#293B4A" stroke-miterlimit="10"/>
<path d="M55.7764 123.504H13.5893C10.4992 123.504 8 126.01 8 129.093V168.539C8 171.629 10.5063 174.128 13.5893 174.128H54.267L61.3658 188.319V129.093C61.3658 126.003 58.8595 123.504 55.7764 123.504Z" fill="#FFCB00"/>
<path d="M46.7552 138.976H49.0835C51.9886 138.976 54.3525 141.333 54.3525 144.245C54.3525 147.157 51.9957 149.514 49.0835 149.514H46.4348" fill="white"/>
<path d="M46.7552 138.976H49.0835C51.9886 138.976 54.3525 141.333 54.3525 144.245C54.3525 147.157 51.9957 149.514 49.0835 149.514H46.4348" stroke="#243B4C" stroke-miterlimit="10"/>
<path d="M33.0558 160.158H32.8493C25.3446 160.158 19.2497 154.063 19.2497 146.559L19.2497 138.976H46.6553V146.559C46.6553 154.063 40.5605 160.158 33.0558 160.158Z" fill="white" stroke="#243B4C" stroke-miterlimit="10"/>
<path d="M36.1676 138.976C36.1676 138.976 33.1344 134.191 29.5458 137.132C25.8576 140.151 29.6313 150.048 26.8615 153.48" stroke="#243B4C" stroke-miterlimit="10"/>
<path d="M25.4219 164.491L17.6339 159.994L20.8843 154.365C21.8313 152.724 23.9322 152.161 25.5724 153.108L27.4223 154.176C29.0625 155.123 29.6255 157.224 28.6785 158.865L25.4281 164.494L25.4219 164.491Z" fill="#00B13A" stroke="#243B4C" stroke-miterlimit="10"/>
<path d="M443.082 144.696V89.4936C443.082 85.905 445.161 83 447.731 83H521.226C523.796 83 525.875 85.905 525.875 89.4936V146.441C525.875 150.029 523.796 152.934 521.226 152.934H443.082H424L443.082 144.696Z" fill="#5CC46E"/>
<path d="M460.719 101.84L459.693 100.815L458.212 99.3408L458.953 98.6003L460.719 100.359L466.372 94.7056L467.113 95.4461L460.719 101.84Z" fill="#243B4C"/>
<path d="M460.506 105.215C460.199 105.215 459.886 105.186 459.58 105.137C458.284 104.916 457.102 104.239 456.262 103.221C455.422 102.21 454.966 100.921 454.995 99.6113C455.016 98.2941 455.507 97.0267 456.376 96.0441C457.252 95.0615 458.448 94.4207 459.751 94.2356C461.054 94.0576 462.385 94.3495 463.489 95.0615L462.919 95.9445C462.022 95.3677 460.947 95.1327 459.893 95.2752C458.839 95.4176 457.871 95.9373 457.159 96.7348C456.454 97.5323 456.055 98.5576 456.041 99.6256C456.02 100.694 456.39 101.726 457.067 102.552C457.75 103.371 458.704 103.919 459.751 104.104C460.798 104.282 461.88 104.083 462.798 103.535C463.71 102.986 464.4 102.132 464.735 101.114C465.07 100.103 465.034 98.999 464.628 98.0164C464.543 97.7886 464.429 97.5536 464.286 97.3258L465.184 96.7846C465.354 97.0623 465.49 97.3471 465.597 97.6248C466.095 98.8424 466.138 100.195 465.725 101.448C465.305 102.702 464.45 103.762 463.325 104.439C462.464 104.959 461.481 105.222 460.484 105.222L460.506 105.215Z" fill="#243B4C"/>
<path d="M460.719 120.018L459.693 118.993L458.212 117.519L458.953 116.778L460.719 118.537L466.372 112.884L467.113 113.624L460.719 120.018Z" fill="#243B4C"/>
<path d="M460.506 123.393C460.199 123.393 459.886 123.364 459.58 123.314C458.284 123.094 457.102 122.417 456.262 121.399C455.422 120.388 454.966 119.099 454.995 117.789C455.016 116.472 455.507 115.205 456.376 114.222C457.252 113.239 458.448 112.599 459.751 112.413C461.054 112.235 462.385 112.527 463.489 113.239L462.919 114.122C462.022 113.546 460.947 113.311 459.893 113.453C458.839 113.595 457.871 114.115 457.159 114.913C456.454 115.71 456.055 116.735 456.041 117.803C456.02 118.871 456.39 119.904 457.067 120.73C457.75 121.549 458.704 122.097 459.751 122.282C460.798 122.46 461.88 122.261 462.798 121.712C463.71 121.164 464.4 120.31 464.735 119.292C465.07 118.28 465.034 117.177 464.628 116.194C464.543 115.966 464.429 115.731 464.286 115.504L465.184 114.962C465.354 115.24 465.49 115.525 465.597 115.803C466.095 117.02 466.138 118.373 465.725 119.626C465.305 120.879 464.45 121.94 463.325 122.617C462.464 123.136 461.481 123.4 460.484 123.4L460.506 123.393Z" fill="#243B4C"/>
<path d="M460.505 141.571C460.199 141.571 459.886 141.542 459.58 141.492C458.284 141.271 457.102 140.595 456.262 139.577C455.422 138.566 454.966 137.277 454.994 135.967C455.016 134.65 455.507 133.382 456.376 132.4C457.251 131.417 458.448 130.776 459.751 130.591C461.054 130.413 462.385 130.705 463.489 131.417L462.919 132.3C462.022 131.723 460.947 131.488 459.893 131.631C458.839 131.773 457.871 132.293 457.159 133.09C456.454 133.888 456.055 134.913 456.041 135.981C456.02 137.049 456.39 138.082 457.066 138.908C457.75 139.726 458.704 140.275 459.751 140.46C460.797 140.638 461.88 140.438 462.798 139.89C463.709 139.342 464.4 138.487 464.735 137.469C465.069 136.458 465.034 135.355 464.628 134.372C464.542 134.144 464.429 133.909 464.286 133.681L465.183 133.14C465.354 133.418 465.489 133.703 465.596 133.98C466.095 135.198 466.137 136.551 465.724 137.804C465.304 139.057 464.45 140.118 463.325 140.794C462.463 141.314 461.481 141.578 460.484 141.578L460.505 141.571Z" fill="#243B4C"/>
<path d="M509.364 100.857H475.33C474.689 100.857 474.169 100.338 474.169 99.6968C474.169 99.0559 474.689 98.5362 475.33 98.5362H509.364C510.005 98.5362 510.525 99.0559 510.525 99.6968C510.525 100.338 510.005 100.857 509.364 100.857Z" fill="#243B4C"/>
<path d="M509.364 119.035H475.33C474.689 119.035 474.169 118.516 474.169 117.875C474.169 117.234 474.689 116.714 475.33 116.714H509.364C510.005 116.714 510.525 117.234 510.525 117.875C510.525 118.516 510.005 119.035 509.364 119.035Z" fill="#243B4C"/>
<path d="M509.364 137.213H475.33C474.689 137.213 474.169 136.693 474.169 136.052C474.169 135.411 474.689 134.892 475.33 134.892H509.364C510.005 134.892 510.525 135.411 510.525 136.052C510.525 136.693 510.005 137.213 509.364 137.213Z" fill="#243B4C"/>
<path d="M196.471 304.556H113.094C108.489 304.556 104.756 308.289 104.756 312.893V396.271C104.756 400.876 108.489 404.609 113.094 404.609H196.471C201.076 404.609 204.809 400.876 204.809 396.271V312.893C204.809 308.289 201.076 304.556 196.471 304.556Z" fill="#FF9F00"/>
<path d="M138.506 376.235H187.664C190.232 376.235 192.313 374.153 192.313 371.585V337.579C192.313 335.011 190.232 332.93 187.664 332.93H138.506C135.938 332.93 133.857 335.011 133.857 337.579V371.585C133.857 374.153 135.938 376.235 138.506 376.235Z" fill="#FF9F00" stroke="white" stroke-width="2" stroke-miterlimit="10"/>
<path d="M117.843 370.332L133.857 359.851V348.544L117.801 338.811C116.818 338.22 115.565 338.925 115.565 340.071V369.107C115.565 370.275 116.861 370.98 117.843 370.339V370.332Z" fill="#FF9F00" stroke="white" stroke-width="2" stroke-miterlimit="10"/>
<path d="M162.736 345.262V362.272" stroke="white" stroke-width="2" stroke-linecap="round" stroke-linejoin="round"/>
<path d="M171.245 353.763H154.227" stroke="white" stroke-width="2" stroke-linecap="round" stroke-linejoin="round"/>
</g>
<defs>
<filter id="filter0_d_191_5667" x="0.789272" y="0.789272" width="535.81" height="414.543" filterUnits="userSpaceOnUse" color-interpolation-filters="sRGB">
<feFlood flood-opacity="0" result="BackgroundImageFix"/>
<feColorMatrix in="SourceAlpha" type="matrix" values="0 0 0 0 0 0 0 0 0 0 0 0 0 0 0 0 0 0 127 0" result="hardAlpha"/>
<feOffset dx="1.75646" dy="1.75646"/>
<feGaussianBlur stdDeviation="4.48359"/>
<feComposite in2="hardAlpha" operator="out"/>
<feColorMatrix type="matrix" values="0 0 0 0 0 0 0 0 0 0 0 0 0 0 0 0 0 0 0.25 0"/>
<feBlend mode="normal" in2="BackgroundImageFix" result="effect1_dropShadow_191_5667"/>
<feBlend mode="normal" in="SourceGraphic" in2="effect1_dropShadow_191_5667" result="shape"/>
</filter>
</defs>
</svg>
