<svg width="100" height="112" viewBox="0 0 100 112" fill="none" xmlns="http://www.w3.org/2000/svg">
<g filter="url(#filter0_d_191_4289)">
<path d="M82.2008 40.0941H13.7993C10.5964 40.0941 8 42.6905 8 45.8934V93.4274C8 96.6303 10.5964 99.2267 13.7993 99.2267H82.2008C85.4036 99.2267 88 96.6303 88 93.4274V45.8934C88 42.6905 85.4036 40.0941 82.2008 40.0941Z" fill="white"/>
<path d="M48 66.4882C61.1809 66.4882 71.8662 55.803 71.8662 42.622C71.8662 29.4411 61.1809 18.7559 48 18.7559C34.8191 18.7559 24.1339 29.4411 24.1339 42.622C24.1339 55.803 34.8191 66.4882 48 66.4882Z" fill="white"/>
<path d="M48 65.8933C35.1376 65.8933 24.7287 55.4596 24.7287 42.622H23.5638C23.5638 56.1288 34.518 67.0582 48 67.0582V65.8933ZM71.2714 42.622C71.2714 55.4844 60.8377 65.8933 48 65.8933V67.0582C61.5068 67.0582 72.4362 56.104 72.4362 42.622H71.2714ZM48 19.3506C60.8625 19.3506 71.2714 29.7843 71.2714 42.622H72.4362C72.4362 29.1152 61.4821 18.1858 48 18.1858V19.3506ZM24.7287 42.622C24.7287 29.7595 35.1624 19.3506 48 19.3506V18.1858C34.4932 18.1858 23.5638 29.1399 23.5638 42.622H24.7287Z" fill="#293B4A"/>
<path d="M47.5043 41.5315C48.0991 41.2589 48.8178 41.5315 49.0905 42.1263L50.1561 41.6554C49.6109 40.4658 48.223 39.9454 47.0334 40.4658L47.5043 41.5315ZM46.9095 43.1176C46.6369 42.5228 46.9095 41.8041 47.5043 41.5315L47.0334 40.4658C45.8439 41.011 45.3234 42.3989 45.8439 43.5885L46.9095 43.1176ZM48.4957 43.7124C47.9009 43.985 47.1821 43.7124 46.9095 43.1176L45.8439 43.5885C46.3891 44.7781 47.7769 45.2985 48.9665 44.7781L48.4957 43.7124ZM49.0905 42.1263C49.3631 42.7211 49.0905 43.4398 48.4957 43.7124L48.9665 44.7781C50.1561 44.2328 50.6766 42.845 50.1561 41.6554L49.0905 42.1263Z" fill="#293B4A"/>
<path d="M48.5948 23.8118H47.43V29.1401H48.5948V23.8118Z" fill="#293B4A"/>
<path d="M48.5948 56.3024H47.43V61.4325H48.5948V56.3024Z" fill="#293B4A"/>
<path d="M48.5948 31.7174H47.43V40.7137H48.5948V31.7174Z" fill="#293B4A"/>
<path d="M40.4276 28.1115L39.4189 28.6941L40.2618 30.1534L41.2705 29.5708L40.4276 28.1115Z" fill="#293B4A"/>
<path d="M56.1139 55.2518L55.1052 55.8344L55.9481 57.2937L56.9568 56.7111L56.1139 55.2518Z" fill="#293B4A"/>
<path d="M34.2024 33.9445L33.6198 34.9531L35.0791 35.796L35.6617 34.7874L34.2024 33.9445Z" fill="#293B4A"/>
<path d="M61.3046 49.5888L60.722 50.5974L62.1813 51.4403L62.7639 50.4316L61.3046 49.5888Z" fill="#293B4A"/>
<path d="M34.5923 42.1263H29.1896V43.2911H34.5923V42.1263Z" fill="#293B4A"/>
<path d="M66.8104 42.1263H61.7546V43.2911H66.8104V42.1263Z" fill="#293B4A"/>
<path d="M35.0685 49.6077L33.6092 50.4506L34.1918 51.4592L35.6511 50.6163L35.0685 49.6077Z" fill="#293B4A"/>
<path d="M62.1839 33.9459L60.7246 34.7888L61.3072 35.7975L62.7665 34.9546L62.1839 33.9459Z" fill="#293B4A"/>
<path d="M40.2743 55.235L39.4315 56.6943L40.4401 57.2769L41.283 55.8176L40.2743 55.235Z" fill="#293B4A"/>
<path d="M55.9189 28.1327L55.076 29.592L56.0847 30.1746L56.9276 28.7153L55.9189 28.1327Z" fill="#293B4A"/>
<path d="M48 24.3816C58.0619 24.3816 66.2404 32.5353 66.2404 42.622H67.4052C67.4052 31.9157 58.7311 23.2168 48 23.2168V24.3816ZM29.7596 42.622C29.7596 32.56 37.9132 24.3816 48 24.3816V23.2168C37.2937 23.2168 28.5948 31.8909 28.5948 42.622H29.7596ZM48 60.8624C37.938 60.8624 29.7596 52.7087 29.7596 42.622H28.5948C28.5948 53.3283 37.2689 62.0272 48 62.0272V60.8624ZM66.2404 42.622C66.2404 52.684 58.0867 60.8624 48 60.8624V62.0272C58.7063 62.0272 67.4052 53.3531 67.4052 42.622H66.2404Z" fill="#293B4A"/>
<path d="M50.3048 12.337V16.4758H51.4696V12.337H50.3048ZM45.1251 12.907H50.8996V11.7422H45.1251V12.907ZM45.6951 16.4758V12.337H44.5303V16.4758H45.6951ZM50.8748 12.337H51.4448V11.767H50.8748V12.337ZM45.1003 12.337V11.767H44.5303V12.337H45.1003Z" fill="#293B4A"/>
<path d="M24.9516 23.0434L27.9504 26.3396L28.8178 25.5465L25.8191 22.2504L24.9516 23.0434ZM29.2639 18.3346L25.0012 22.2256L25.7695 23.093L30.0322 19.2021L29.2639 18.3346ZM32.8823 21.4573L30.0818 18.3842L29.2143 19.1525L32.0148 22.2256L32.8823 21.4573ZM25.373 22.6469L24.9764 22.2256L24.5551 22.6221L24.9516 23.0434L25.373 22.6469ZM29.6357 18.756L30.057 18.3594L29.6604 17.9381L29.2391 18.3346L29.6357 18.756Z" fill="#293B4A"/>
<path d="M65.9182 18.3594L63.1177 21.4325L63.9851 22.2008L66.7856 19.1277L65.9182 18.3594ZM70.9987 22.2008L66.736 18.3099L65.9677 19.1773L70.2304 23.0682L70.9987 22.2008ZM68.0495 26.3148L71.0483 23.0187L70.1809 22.2256L67.1821 25.5218L68.0495 26.3148ZM66.3395 18.756L66.736 18.3346L66.3147 17.9381L65.9182 18.3594L66.3395 18.756ZM70.6022 22.6469L71.0235 23.0434L71.42 22.6221L70.9987 22.2256L70.6022 22.6469Z" fill="#293B4A"/>
<path d="M55.3854 8H40.6146V9.16481H55.3854V8Z" fill="#293B4A"/>
<path d="M79.772 71.99H16.2032V75.5092H79.772V71.99Z" fill="#5273FD"/>
<path d="M79.772 80.4658H16.2032V83.985H79.772V80.4658Z" fill="#5273FD"/>
<path d="M79.772 88.9666H16.2032V92.4858H79.772V88.9666Z" fill="#5273FD"/>
</g>
<defs>
<filter id="filter0_d_191_4289" x="0" y="0" width="100" height="111.227" filterUnits="userSpaceOnUse" color-interpolation-filters="sRGB">
<feFlood flood-opacity="0" result="BackgroundImageFix"/>
<feColorMatrix in="SourceAlpha" type="matrix" values="0 0 0 0 0 0 0 0 0 0 0 0 0 0 0 0 0 0 127 0" result="hardAlpha"/>
<feOffset dx="2" dy="2"/>
<feGaussianBlur stdDeviation="5"/>
<feColorMatrix type="matrix" values="0 0 0 0 0 0 0 0 0 0 0 0 0 0 0 0 0 0 0.25 0"/>
<feBlend mode="normal" in2="BackgroundImageFix" result="effect1_dropShadow_191_4289"/>
<feBlend mode="normal" in="SourceGraphic" in2="effect1_dropShadow_191_4289" result="shape"/>
</filter>
</defs>
</svg>
