<svg width="110" height="107" viewBox="0 0 110 107" fill="none" xmlns="http://www.w3.org/2000/svg">
<path d="M102.029 25.3188H7.97101C3.56874 25.3188 0 28.8876 0 33.2899V98.6522C0 103.054 3.56874 106.623 7.97101 106.623H102.029C106.431 106.623 110 103.054 110 98.6522V33.2899C110 28.8876 106.431 25.3188 102.029 25.3188Z" fill="white"/>
<path d="M89.1161 80.1195H20.8842C16.6008 80.1195 13.1284 83.5919 13.1284 87.8753C13.1284 92.1587 16.6008 95.6311 20.8842 95.6311H89.1161C93.3995 95.6311 96.8719 92.1587 96.8719 87.8753C96.8719 83.5919 93.3995 80.1195 89.1161 80.1195Z" fill="#E9EAEB"/>
<path d="M79.8936 86.0101H30.1146C28.9907 86.0101 28.082 86.8471 28.082 87.8754C28.082 88.9036 28.9907 89.7406 30.1146 89.7406H79.8936C81.0175 89.7406 81.9262 88.9036 81.9262 87.8754C81.9262 86.8471 81.0175 86.0101 79.8936 86.0101Z" fill="#293B4A"/>
<path d="M56.132 10.2536L62.2538 29.0891H82.0538L66.032 40.7268L72.1538 59.5543L56.132 47.9166L40.1183 59.5543L46.232 40.7268L30.2183 29.0891H50.0183L56.132 10.2536Z" fill="white"/>
<path d="M76.4499 17.2999L82.5716 36.1275H102.372L86.3499 47.7651L92.4716 66.6007L76.4499 54.963L60.4282 66.6007L66.5499 47.7651L50.5361 36.1275H70.3282L76.4499 17.2999Z" fill="white"/>
<path d="M36.0209 3L42.1346 21.8275H61.9346L45.9209 33.4652L52.0346 52.2928L36.0209 40.6551L19.9991 52.2928L26.1209 33.4652L10.0991 21.8275H29.8991L36.0209 3Z" fill="#FFCD00" stroke="#293B4A" stroke-width="1.54593" stroke-miterlimit="10"/>
<path d="M47.7463 53.9348L40.2217 59.4029" stroke="#293B4A" stroke-width="1.54593" stroke-miterlimit="10"/>
<path d="M62.357 28.9376H82.157L66.1432 40.5753L72.257 59.4028L56.2432 47.7652L54.4736 49.0485" stroke="#293B4A" stroke-width="1.54593" stroke-miterlimit="10"/>
<path d="M56.2437 10.102L58.8821 18.2324" stroke="#293B4A" stroke-width="1.54593" stroke-miterlimit="10"/>
<path d="M67.7378 61.2124L60.4443 66.5131" stroke="#293B4A" stroke-width="1.54593" stroke-miterlimit="10"/>
<path d="M82.5796 36.0399H102.38L86.3658 47.6775L92.4796 66.513L76.4658 54.8754L74.3774 56.3899" stroke="#293B4A" stroke-width="1.54593" stroke-miterlimit="10"/>
<path d="M76.4653 17.2125L79.0958 25.311" stroke="#293B4A" stroke-width="1.54593" stroke-miterlimit="10"/>
</svg>
