<svg width="568" height="413" viewBox="0 0 568 413" fill="none" xmlns="http://www.w3.org/2000/svg">
<g filter="url(#filter0_d_191_5377)">
<path d="M494.582 8H60.6717C48.8849 8 39.3298 17.5551 39.3298 29.3419V351.38C39.3298 363.166 48.8849 372.721 60.6717 372.721H494.582C506.368 372.721 515.923 363.166 515.923 351.38V29.3419C515.923 17.5551 506.368 8 494.582 8Z" fill="#F1F3F5"/>
<path d="M492.004 15.7627H63.2567C54.6864 15.7627 47.7387 22.7104 47.7387 31.2807V349.448C47.7387 358.018 54.6864 364.966 63.2567 364.966H492.004C500.574 364.966 507.522 358.018 507.522 349.448V31.2807C507.522 22.7104 500.574 15.7627 492.004 15.7627Z" fill="white"/>
<path d="M456.436 36.2233C458.72 36.2233 460.571 34.3722 460.571 32.0886C460.571 29.8051 458.72 27.9539 456.436 27.9539C454.153 27.9539 452.302 29.8051 452.302 32.0886C452.302 34.3722 454.153 36.2233 456.436 36.2233Z" fill="#5273FD"/>
<path d="M440.904 36.2233C443.187 36.2233 445.039 34.3721 445.039 32.0886C445.039 29.805 443.187 27.9539 440.904 27.9539C438.62 27.9539 436.769 29.805 436.769 32.0886C436.769 34.3721 438.62 36.2233 440.904 36.2233Z" fill="#FF340C"/>
<path d="M487.502 36.2233C489.785 36.2233 491.636 34.3722 491.636 32.0886C491.636 29.8051 489.785 27.9539 487.502 27.9539C485.218 27.9539 483.367 29.8051 483.367 32.0886C483.367 34.3722 485.218 36.2233 487.502 36.2233Z" fill="#19AD4A"/>
<path d="M471.969 36.2233C474.253 36.2233 476.104 34.3722 476.104 32.0886C476.104 29.8051 474.253 27.9539 471.969 27.9539C469.686 27.9539 467.834 29.8051 467.834 32.0886C467.834 34.3722 469.686 36.2233 471.969 36.2233Z" fill="#FFCD00"/>
<path d="M283.373 71.7759H17.6354C12.3139 71.7759 8 76.0898 8 81.4113V315.452C8 320.774 12.3139 325.088 17.6354 325.088H283.373C288.695 325.088 293.009 320.774 293.009 315.452V81.4113C293.009 76.0898 288.695 71.7759 283.373 71.7759Z" fill="#BCD5FD"/>
<path d="M123.48 145.297C123.48 145.297 123.464 145.321 123.449 145.328V145.297H123.48Z" fill="#F1F3F5"/>
<path d="M122.949 250.942V231.598L95.6735 223.615V210.3H68.1406V239.764H56.5516V274.054" stroke="#293B4A" stroke-linejoin="round"/>
<path d="M90.7235 215.602H72.378V220.376H90.7235V215.602Z" stroke="#293B4A" stroke-linejoin="round"/>
<path d="M90.7235 224.981H72.378V229.754H90.7235V224.981Z" stroke="#293B4A" stroke-linejoin="round"/>
<path d="M90.7235 234.359H72.378V239.133H90.7235V234.359Z" stroke="#293B4A" stroke-linejoin="round"/>
<path d="M126.577 233.823H167.447V242.496" stroke="#293B4A" stroke-linejoin="round"/>
<path d="M110.964 224.018V192.872H118.771V227.602" stroke="#293B4A" stroke-linejoin="round"/>
<path d="M159.641 225.245V192.872H167.447V225.245" stroke="#293B4A" stroke-linejoin="round"/>
<path d="M124.624 210.3H153.655" stroke="#293B4A" stroke-linejoin="round"/>
<path d="M124.624 192.872H153.655" stroke="#293B4A" stroke-linejoin="round"/>
<path d="M167.322 160.977H110.964" stroke="#293B4A" stroke-linejoin="round"/>
<path d="M139.143 184.698C144.359 184.698 148.588 180.47 148.588 175.254C148.588 170.038 144.359 165.809 139.143 165.809C133.927 165.809 129.699 170.038 129.699 175.254C129.699 180.47 133.927 184.698 139.143 184.698Z" stroke="#293B4A" stroke-linejoin="round"/>
<path d="M110.964 156.343V144.871H118.771V151.701H159.64V144.871H167.447V156.343" stroke="#293B4A" stroke-linejoin="round"/>
<path d="M121.392 160.977H116.024V174.38H121.392V160.977Z" stroke="#293B4A" stroke-linejoin="round"/>
<path d="M121.392 174.38H116.024V187.783H121.392V174.38Z" stroke="#293B4A" stroke-linejoin="round"/>
<path d="M162.255 160.977H156.886V174.38H162.255V160.977Z" stroke="#293B4A" stroke-linejoin="round"/>
<path d="M162.255 174.38H156.886V187.783H162.255V174.38Z" stroke="#293B4A" stroke-linejoin="round"/>
<path d="M136.161 179.976L139.143 175.254V169.768" stroke="#293B4A" stroke-linejoin="round"/>
<path d="M145.848 242.496H214.648" stroke="#293B4A" stroke-linejoin="round"/>
<path d="M175.026 238.163V177.332H236.019V242.496" stroke="#293B4A" stroke-linejoin="round"/>
<path d="M211.372 190.97H181.122V197.183H211.372V190.97Z" stroke="#293B4A" stroke-linejoin="round"/>
<path d="M211.372 203.11H181.122V209.323H211.372V203.11Z" stroke="#293B4A" stroke-linejoin="round"/>
<path d="M211.372 215.25H181.122V221.463H211.372V215.25Z" stroke="#293B4A" stroke-linejoin="round"/>
<path d="M180.248 229.754H227.984V242.496" stroke="#293B4A" stroke-linejoin="round"/>
<path d="M123.897 151.591V144.871H131.255V151.701" stroke="#293B4A" stroke-linejoin="round"/>
<path d="M135.985 151.591V144.871H143.351V151.701" stroke="#293B4A" stroke-linejoin="round"/>
<path d="M148.081 151.591V144.871H155.447V151.701" stroke="#293B4A" stroke-linejoin="round"/>
<path d="M147.097 215.228H131.182V225.12H147.097V215.228Z" stroke="#293B4A" stroke-linejoin="round"/>
<path d="M147.097 196.64H131.182V206.532H147.097V196.64Z" stroke="#293B4A" stroke-linejoin="round"/>
<path d="M106.814 199.372H81.5508V206.217" stroke="#293B4A" stroke-linejoin="round"/>
<path d="M205.519 175.019V165.347H228.476V175.019" stroke="#293B4A" stroke-linejoin="round"/>
<path d="M209.903 175.019V169.327H216.439V175.019" stroke="#293B4A" stroke-linejoin="round"/>
<path d="M209.903 165.347V155.851V94.403" stroke="#293B4A" stroke-linejoin="round"/>
<path d="M181.122 183.237H229.776" stroke="#293B4A" stroke-linejoin="round"/>
<path d="M222.131 242.496H251.735V252.954" stroke="#293B4A" stroke-linejoin="round"/>
<path d="M110.861 306.081V250.45H162.637V306.081" stroke="#293B4A" stroke-linejoin="round"/>
<path d="M136.749 306.081H211.923" stroke="#293B4A" stroke-linejoin="round"/>
<path d="M128.127 257.456H117.559V263.581H128.127V257.456Z" stroke="#293B4A" stroke-linejoin="round"/>
<path d="M142.037 257.456H131.469V263.581H142.037V257.456Z" stroke="#293B4A" stroke-linejoin="round"/>
<path d="M155.939 257.456H145.371V263.581H155.939V257.456Z" stroke="#293B4A" stroke-linejoin="round"/>
<path d="M128.127 270.492H117.559V276.617H128.127V270.492Z" stroke="#293B4A" stroke-linejoin="round"/>
<path d="M142.037 270.492H131.469V276.617H142.037V270.492Z" stroke="#293B4A" stroke-linejoin="round"/>
<path d="M155.939 270.492H145.371V276.617H155.939V270.492Z" stroke="#293B4A" stroke-linejoin="round"/>
<path d="M128.127 283.528H117.559V289.653H128.127V283.528Z" stroke="#293B4A" stroke-linejoin="round"/>
<path d="M117.559 306.081V296.218H128.127V306.081" stroke="#293B4A" stroke-linejoin="round"/>
<path d="M142.037 283.528H131.469V289.653H142.037V283.528Z" stroke="#293B4A" stroke-linejoin="round"/>
<path d="M155.939 283.528H145.371V289.653H155.939V283.528Z" stroke="#293B4A" stroke-linejoin="round"/>
<path d="M178.008 299.64V284.49" stroke="#293B4A" stroke-linejoin="round"/>
<path d="M220.949 306.081V284.49" stroke="#293B4A" stroke-linejoin="round"/>
<path d="M188.826 282.969H227.705L199.482 268.854L171.251 282.969" stroke="#293B4A" stroke-linejoin="round"/>
<path d="M187.526 305.978V293.31H198.256V305.978" stroke="#293B4A" stroke-linejoin="round"/>
<path d="M220.949 288.338H204.358V292.061H220.949V288.338Z" stroke="#293B4A" stroke-linejoin="round"/>
<path d="M220.949 296.218H204.358V299.942H220.949V296.218Z" stroke="#293B4A" stroke-linejoin="round"/>
<path d="M162.637 261.356H183.942V276.617" stroke="#293B4A" stroke-linejoin="round"/>
<path d="M99.6908 305.978H122.847" stroke="#293B4A" stroke-linejoin="round"/>
<path d="M271.74 126.739C251.133 113.189 230.533 137.865 209.925 124.315C209.925 115.01 209.925 105.706 209.925 96.4079C230.533 108.342 251.133 82.0503 271.74 93.9844V126.746V126.739Z" fill="#19AD4A" stroke="#293B4A" stroke-miterlimit="10"/>
<path d="M247.806 109.194C247.226 109.642 246.646 110.09 246.065 110.545V112.308C244.325 113.666 242.584 115.062 240.836 116.443C239.096 116.083 237.355 115.737 235.607 115.356C235.607 114.21 235.607 113.064 235.607 111.919C235.607 111.346 235.607 110.773 235.607 110.2C235.027 110.083 234.447 109.958 233.867 109.825C236.188 108.063 238.516 106.168 240.836 104.251C241.997 104.457 243.157 104.663 244.317 104.89C245.478 105.118 246.638 105.368 247.799 105.639C245.478 107.446 243.15 109.341 240.829 111.214C240.021 111.059 239.221 110.905 238.413 110.751C238.413 111.331 238.413 111.904 238.413 112.484C239.221 112.646 240.021 112.8 240.829 112.961C244.31 110.163 247.799 107.321 251.28 104.802C248.959 104.097 246.631 103.576 244.31 103.135C243.15 102.915 241.989 102.709 240.829 102.511C237.348 105.404 233.86 108.247 230.378 110.67C231.539 110.993 232.699 111.28 233.86 111.537C233.86 112.961 233.86 114.386 233.86 115.811C233.86 116.097 233.86 116.384 233.86 116.663C236.18 117.221 238.508 117.691 240.829 118.183C243.15 116.347 245.478 114.496 247.799 112.734V110.964C247.799 110.376 247.799 109.781 247.799 109.194H247.806Z" fill="white"/>
<path d="M209.903 95.3429C210.605 95.3429 211.174 94.8464 211.174 94.234C211.174 93.6215 210.605 93.125 209.903 93.125C209.202 93.125 208.633 93.6215 208.633 94.234C208.633 94.8464 209.202 95.3429 209.903 95.3429Z" fill="#293B4A"/>
<path d="M121.657 119.388H63.7049C63.7049 119.388 66.4369 111.125 75.8373 115.378C75.8373 115.378 90.6209 95.9599 103.613 117.111" stroke="#293B4A" stroke-linejoin="round"/>
<path d="M72.3783 189.215H29.2686C29.2686 189.215 31.3029 183.068 38.2944 186.233C38.2944 186.233 49.2885 171.787 58.9606 187.518" stroke="#293B4A" stroke-linejoin="round"/>
<path d="M80.8093 273.554H35.5037V292.061" stroke="#293B4A" stroke-linejoin="round"/>
<path d="M45.2125 280.421H99.6908" stroke="#293B4A" stroke-linejoin="round"/>
<path d="M72.3781 264.47H99.6907" stroke="#293B4A" stroke-linejoin="round"/>
<path d="M72.3781 259.182H99.6907" stroke="#293B4A" stroke-linejoin="round"/>
<path d="M72.3781 253.894H99.6907" stroke="#293B4A" stroke-linejoin="round"/>
<path d="M72.3781 248.599H99.6907" stroke="#293B4A" stroke-linejoin="round"/>
<path d="M309.974 95.7323H491.637" stroke="#F1F3F5" stroke-width="7" stroke-miterlimit="10"/>
<path d="M309.974 118.191H491.637" stroke="#F1F3F5" stroke-width="7" stroke-miterlimit="10"/>
<path d="M309.974 140.649H462.642" stroke="#F1F3F5" stroke-width="7" stroke-miterlimit="10"/>
<path d="M309.974 269.603H491.637" stroke="#F1F3F5" stroke-width="7" stroke-miterlimit="10"/>
<path d="M309.974 292.061H491.637" stroke="#F1F3F5" stroke-width="7" stroke-miterlimit="10"/>
<path d="M309.974 314.527H462.642" stroke="#F1F3F5" stroke-width="7" stroke-miterlimit="10"/>
<path d="M494.772 257.75C528.588 257.75 556 230.337 556 196.522C556 162.707 528.588 135.295 494.772 135.295C460.957 135.295 433.545 162.707 433.545 196.522C433.545 230.337 460.957 257.75 494.772 257.75Z" fill="#FFCD00"/>
<path fill-rule="evenodd" clip-rule="evenodd" d="M517.634 187.049L497.196 236.974C496.513 238.633 494.17 238.655 493.458 237.01L471.918 187.056C471.044 184.552 470.566 181.849 470.566 179.036C470.566 164.796 482.853 153.405 497.416 154.948C508.447 156.115 517.407 164.884 518.795 175.886C519.294 179.829 518.839 183.619 517.642 187.049H517.634Z" stroke="#293B4A" stroke-miterlimit="10"/>
<path d="M494.772 197.484C505.423 197.484 514.058 188.85 514.058 178.199C514.058 167.548 505.423 158.913 494.772 158.913C484.121 158.913 475.487 167.548 475.487 178.199C475.487 188.85 484.121 197.484 494.772 197.484Z" stroke="#293B4A" stroke-miterlimit="10"/>
<path d="M311.229 351.005C311.229 355.72 311.883 360.288 313.11 364.614C319.029 385.53 338.27 400.857 361.088 400.857C388.621 400.857 410.947 378.538 410.947 350.998C410.947 323.465 388.629 301.139 361.088 301.139C333.555 301.139 311.229 323.457 311.229 350.998V351.005Z" fill="#19AD4A"/>
<path d="M364.665 388.996H350.887V394.328H364.665V388.996Z" stroke="#293B4A" stroke-miterlimit="10" stroke-linecap="round"/>
<path d="M352.907 391.662H362.682" stroke="#293B4A" stroke-miterlimit="10" stroke-linecap="round"/>
<path d="M343.793 391.662C343.58 393.703 343.338 395.657 343.081 397.508" stroke="#293B4A" stroke-miterlimit="10" stroke-linecap="round"/>
<path d="M367.214 356.961C373.162 358.165 377.694 363.431 377.804 369.637C377.885 374.109 376.533 377.194 376.533 377.194C374.976 374.969 371.282 371.796 369.564 370.379C368.961 369.879 368.051 369.967 367.588 370.599C365.539 373.368 363.16 381.035 363.16 381.035C363.16 381.035 343.441 369.945 341.003 364.085L343.536 360.347C344.315 359.201 345.468 358.364 346.797 357.982C348.442 357.512 350.631 356.976 351.725 357.13" stroke="#293B4A" stroke-miterlimit="10" stroke-linecap="round"/>
<path d="M373.992 374.198C374.154 378.663 372.516 379.874 370.511 379.75C368.506 379.625 366.244 378.046 364.856 376.056" stroke="#293B4A" stroke-miterlimit="10" stroke-linecap="round"/>
<path d="M370.452 399.483C370.856 390.303 370.988 382.092 371.025 379.963C371.025 379.808 371.216 379.757 371.289 379.889C374.337 385.478 376.408 391.353 377.789 397.067" stroke="#293B4A" stroke-miterlimit="10" stroke-linecap="round"/>
<path d="M370.636 397.801L376.21 391.508" stroke="#293B4A" stroke-miterlimit="10" stroke-linecap="round"/>
<path d="M370.834 390.288L374.308 386.345" stroke="#293B4A" stroke-miterlimit="10" stroke-linecap="round"/>
<path d="M398.213 381.512C391.544 371.377 383.113 363.461 375.688 362.755" stroke="#293B4A" stroke-miterlimit="10" stroke-linecap="round"/>
<path d="M322.393 382.445C328.833 370.944 337.037 364.628 341.01 364.085" stroke="#293B4A" stroke-miterlimit="10" stroke-linecap="round"/>
<path d="M368.403 327.012C367.537 332.278 372.648 341.325 372.648 341.325C372.648 341.325 373.118 343.213 371.466 343.844C369.813 344.476 370.915 351.629 370.915 351.629L367.61 353.047L367.845 359.81C367.845 359.81 371.091 364.092 370.129 367.044C362.66 371.216 349.837 358.474 349.837 358.474C349.837 358.474 354.949 353.994 349.522 341.017C344.094 328.04 358.804 324.03 358.804 324.03L368.396 327.019L368.403 327.012Z" fill="#CBB3A4"/>
<path d="M371.987 326.836C371.987 326.88 371.965 326.931 371.936 326.975C371.958 326.916 371.98 326.865 371.987 326.836Z" fill="#293B4A"/>
<path d="M368.462 329.524C368.991 334.209 371.157 339.321 372.538 341.304C373.213 342.273 372.663 343.602 371.502 343.808L368.506 344.19" stroke="#293B4A" stroke-linecap="round" stroke-linejoin="round"/>
<path d="M360.846 345.482C362.968 348.633 367.669 346.907 367.669 346.907" stroke="#293B4A" stroke-miterlimit="10" stroke-linecap="round"/>
<path d="M356.704 351.086C365.943 355.103 370.9 351.659 370.9 351.659V343.918" stroke="#293B4A" stroke-miterlimit="10" stroke-linecap="round"/>
<path d="M367.669 352.812C367.258 356.851 367.897 359.979 367.897 359.979C372.575 365.12 370.761 376.386 349.529 358.606" stroke="#293B4A" stroke-miterlimit="10" stroke-linecap="round"/>
<path d="M350.028 343.183C352.07 347.913 353.12 353.215 351.101 356.77C350.542 357.761 349.558 358.444 348.464 358.738" stroke="#293B4A" stroke-miterlimit="10" stroke-linecap="round"/>
<path d="M372.002 326.777C372.002 326.777 372.002 326.784 372.002 326.799C372.002 326.806 372.002 326.821 372.002 326.828C371.994 326.865 371.98 326.909 371.95 326.968C371.708 327.548 370.459 329.215 364.173 329.516C364.173 329.516 367.015 328.943 367.948 328.047C367.999 328.003 368.051 327.945 368.087 327.893C368.021 327.952 367.948 328.011 367.867 328.062C366.942 328.657 365.069 328.892 362.917 329.009C362.917 329.009 364.57 328.701 365.392 328.216C365.576 328.106 365.715 327.996 365.789 327.871C365.789 327.871 364.173 328.275 362.256 328.202C362.146 328.202 362.028 328.187 361.918 328.18C361.874 328.18 361.83 328.18 361.786 328.172C361.382 328.143 361.022 328.106 360.721 328.055C357.945 327.607 357.46 329.487 357.952 331.962C358.452 334.437 356.866 335.23 356.866 335.23L355.514 334.598C355.037 334.378 354.449 334.518 354.156 334.958C353.113 336.522 354.156 340.716 354.156 340.716C353.928 340.76 353.715 340.841 353.517 340.944L353.025 339.901L353.069 341.23C351.593 342.361 350.888 344.821 350.888 344.821C348.912 343.587 344.586 337.382 344.013 333.651C343.639 331.191 343.477 326.028 346.121 321.827C344.674 321.776 344.138 321.166 346.635 321.071C346.665 321.026 346.701 320.982 346.731 320.938C346.187 319.616 346.657 317.744 347.421 319.69C347.737 314.49 348.971 316.826 348.75 318.845C349.837 317.957 351.152 317.193 352.738 316.613C363.049 312.86 372.016 319.22 372.016 326.777H372.002Z" fill="#293B4A"/>
<path d="M366.156 333.614C366.156 333.614 362.785 332.27 362.094 335.377" stroke="#293B4A" stroke-linecap="round" stroke-linejoin="round"/>
<path fill-rule="evenodd" clip-rule="evenodd" d="M364.959 336.052C364.959 336.376 364.694 336.64 364.371 336.64C364.048 336.64 363.784 336.376 363.784 336.052C363.784 335.729 364.048 335.465 364.371 335.465C364.694 335.465 364.959 335.729 364.959 336.052Z" fill="#293B4A"/>
<path fill-rule="evenodd" clip-rule="evenodd" d="M370.812 335.245C370.812 335.568 370.548 335.832 370.225 335.832C369.901 335.832 369.637 335.568 369.637 335.245C369.637 334.921 369.901 334.657 370.225 334.657C370.548 334.657 370.812 334.921 370.812 335.245Z" fill="#293B4A"/>
</g>
<defs>
<filter id="filter0_d_191_5377" x="0.413833" y="0.413833" width="566.868" height="411.725" filterUnits="userSpaceOnUse" color-interpolation-filters="sRGB">
<feFlood flood-opacity="0" result="BackgroundImageFix"/>
<feColorMatrix in="SourceAlpha" type="matrix" values="0 0 0 0 0 0 0 0 0 0 0 0 0 0 0 0 0 0 127 0" result="hardAlpha"/>
<feOffset dx="1.84791" dy="1.84791"/>
<feGaussianBlur stdDeviation="4.71704"/>
<feComposite in2="hardAlpha" operator="out"/>
<feColorMatrix type="matrix" values="0 0 0 0 0 0 0 0 0 0 0 0 0 0 0 0 0 0 0.25 0"/>
<feBlend mode="normal" in2="BackgroundImageFix" result="effect1_dropShadow_191_5377"/>
<feBlend mode="normal" in="SourceGraphic" in2="effect1_dropShadow_191_5377" result="shape"/>
</filter>
</defs>
</svg>
