<svg width="485" height="325" viewBox="0 0 485 325" fill="none" xmlns="http://www.w3.org/2000/svg">
<path d="M196.979 301.044C195.125 303.079 193.791 305.136 193.289 307.199H89.3257C89.3297 306.989 89.3356 306.717 89.3441 306.388C89.366 305.54 89.4055 304.315 89.4757 302.81C89.6163 299.8 89.8797 295.669 90.3714 291.189C90.8633 286.707 91.5826 281.883 92.633 277.483C93.6855 273.074 95.0612 269.131 96.8465 266.384C100.544 260.694 102.466 255.499 103.463 251.72C103.962 249.831 104.23 248.295 104.374 247.228C104.445 246.694 104.486 246.278 104.509 245.993C104.52 245.85 104.527 245.741 104.531 245.666C104.531 245.664 104.531 245.662 104.531 245.66L118.334 218.047L128.543 215.566L128.688 215.531L128.79 215.422L128.425 215.08L128.79 215.422L128.79 215.421L128.792 215.419L128.799 215.411L128.829 215.379C128.843 215.365 128.859 215.348 128.879 215.327C128.9 215.305 128.923 215.28 128.951 215.252C129.058 215.14 129.218 214.974 129.426 214.762C129.843 214.337 130.455 213.724 131.232 212.975C132.787 211.478 135.002 209.438 137.642 207.272C142.934 202.93 149.885 198.119 156.623 196.103C163.451 194.061 171.198 191.983 177.24 190.415C180.26 189.632 182.854 188.975 184.692 188.515C185.611 188.285 186.341 188.104 186.842 187.981C187.092 187.919 187.285 187.871 187.415 187.839L187.55 187.806L194.9 187.935C194.872 188.06 194.842 188.203 194.809 188.364C194.67 189.039 194.492 190.024 194.333 191.275C194.014 193.775 193.77 197.337 194.063 201.595C194.65 210.114 197.389 221.422 205.991 232.585L206.334 233.03L206.736 232.638L206.387 232.28C206.736 232.638 206.736 232.638 206.737 232.638L206.737 232.637L206.74 232.634L206.748 232.627L206.775 232.599C206.798 232.576 206.831 232.542 206.874 232.496C206.96 232.406 207.084 232.271 207.241 232.091C207.555 231.73 208.002 231.187 208.542 230.444C209.624 228.96 211.081 226.682 212.601 223.49C215.596 217.201 218.836 207.372 219.947 193.08L227.3 195.739L231.164 204.979L231.198 205.062L231.259 205.127L235.057 209.206L235.059 209.208L235.075 209.227C235.082 209.235 235.091 209.246 235.101 209.258C235.114 209.273 235.129 209.291 235.146 209.312C235.208 209.388 235.301 209.501 235.419 209.649C235.655 209.945 235.994 210.379 236.401 210.931C237.217 212.035 238.309 213.607 239.408 215.474C241.615 219.224 243.819 224.104 243.955 228.768C244.095 233.526 243.639 239.206 243.198 244.552L243.162 244.99C242.736 250.148 242.336 254.983 242.544 258.252C242.594 259.05 242.641 259.957 242.692 260.953C242.853 264.07 243.058 268.05 243.567 272.205C244.239 277.685 245.445 283.533 247.81 288.196L247.81 288.196C250.154 292.812 253.485 297.737 256.222 301.498C257.592 303.38 258.816 304.976 259.698 306.101C259.997 306.483 260.258 306.811 260.471 307.078L249.518 307.205C249.506 307.197 249.493 307.189 249.479 307.181C249.373 307.117 249.215 307.023 249.011 306.902C248.603 306.662 248.008 306.317 247.257 305.897C245.754 305.058 243.625 303.921 241.12 302.726C236.119 300.34 229.582 297.706 223.515 296.778C217.519 295.86 212.861 295.26 209.699 294.89C208.119 294.705 206.913 294.577 206.101 294.495C205.695 294.455 205.388 294.425 205.182 294.406C205.079 294.397 205.001 294.39 204.949 294.385L204.89 294.38L204.875 294.379L204.871 294.378L204.87 294.378L204.87 294.378C204.87 294.378 204.87 294.378 204.869 294.388L204.87 294.378L204.681 294.362L204.529 294.475C201.581 296.672 198.963 298.867 196.979 301.044Z" fill="#BCD5FD" stroke="#293B4A"/>
<path d="M285.934 267.337V240.192H306.153V266.764C306.033 266.764 305.891 266.764 305.731 266.765C305.145 266.766 304.308 266.769 303.304 266.776C301.297 266.788 298.622 266.812 295.953 266.862C293.286 266.911 290.619 266.985 288.63 267.096C287.638 267.151 286.803 267.217 286.217 267.295C286.118 267.308 286.023 267.322 285.934 267.337Z" fill="#FF340C" stroke="#293B4A"/>
<path d="M283.095 267.451C282.861 267.459 282.657 267.468 282.487 267.477V258.32H309.613V267.262L308.892 267.263C308.116 267.263 307.007 267.264 305.677 267.267C303.017 267.271 299.474 267.28 295.939 267.297C292.405 267.315 288.879 267.341 286.253 267.381C284.94 267.401 283.85 267.424 283.095 267.451Z" fill="#FFCD00" stroke="#293B4A"/>
<path d="M209.665 306.157L209.664 306.156L209.664 306.156L209.664 306.156L209.388 305.914L209.074 306.107C208.377 306.535 207.091 306.836 205.462 307.02C203.859 307.201 202.007 307.263 200.244 307.263C198.482 307.263 196.819 307.202 195.595 307.14C195.019 307.112 194.542 307.083 194.198 307.06C194.24 306.93 194.294 306.779 194.36 306.607C194.617 305.941 195.071 304.971 195.853 303.784C197.399 301.434 200.235 298.224 205.385 294.842L212.043 295.793L227.2 298.207L241.92 304.309L241.933 304.315C241.955 304.327 241.988 304.345 242.032 304.369C242.119 304.416 242.249 304.487 242.415 304.58C242.748 304.765 243.229 305.037 243.818 305.384C244.997 306.078 246.606 307.072 248.33 308.267C251.787 310.666 255.621 313.825 257.419 316.978C257.574 317.381 257.658 317.698 257.691 317.94C257.724 318.192 257.697 318.328 257.669 318.392C257.65 318.438 257.626 318.463 257.571 318.484C257.498 318.512 257.366 318.533 257.15 318.509C256.717 318.463 256.11 318.261 255.371 317.922C254.641 317.588 253.821 317.138 252.97 316.629C251.268 315.609 249.476 314.368 248.106 313.379C247.421 312.885 246.844 312.455 246.438 312.148C246.235 311.995 246.075 311.873 245.966 311.789C245.911 311.748 245.869 311.715 245.841 311.694L245.81 311.669L245.802 311.663L245.8 311.661L245.799 311.661C245.799 311.661 245.799 311.661 245.492 312.056L245.799 311.661L245.746 311.62L245.685 311.594L243.071 310.505L242.497 311.29C243.534 312.514 244.555 314.515 245.367 316.482C246.178 318.446 246.752 320.307 246.919 321.217C246.921 321.231 246.924 321.245 246.925 321.257C246.857 321.242 246.768 321.216 246.657 321.172C246.48 321.103 246.278 321.004 246.063 320.885C245.634 320.647 245.188 320.348 244.844 320.105C244.673 319.984 244.53 319.878 244.43 319.803C244.38 319.766 244.341 319.736 244.314 319.716L244.303 319.707L239.27 314.457L238.004 313.136L238.422 314.917L239.426 319.192C239.544 320.424 239.486 321.166 239.349 321.564C239.282 321.756 239.214 321.817 239.19 321.833C239.175 321.843 239.141 321.863 239.042 321.844C238.798 321.797 238.406 321.562 237.882 321.078C237.378 320.613 236.818 319.982 236.239 319.259C235.084 317.814 233.892 316.051 232.986 314.641C232.534 313.938 232.154 313.326 231.888 312.89C231.755 312.672 231.65 312.498 231.579 312.378C231.543 312.319 231.516 312.273 231.498 312.242L231.477 312.207L231.472 312.198L231.471 312.196L231.47 312.196C231.47 312.196 231.47 312.196 231.039 312.449L231.47 312.196L230.563 312.601C231.414 315.277 231.66 317.247 231.58 318.628C231.499 320.024 231.092 320.747 230.724 321.044C230.394 321.311 230.051 321.282 229.775 321.037C229.476 320.772 229.206 320.192 229.316 319.289C229.457 318.122 229.031 316.825 228.392 315.588C227.745 314.338 226.843 313.08 225.938 311.965C225.032 310.847 224.111 309.86 223.418 309.154C223.071 308.8 222.78 308.516 222.576 308.32C222.473 308.221 222.393 308.145 222.337 308.093L222.273 308.034L222.257 308.018L222.252 308.014L222.251 308.013L222.25 308.013C222.25 308.012 222.25 308.012 221.912 308.381L222.25 308.012L222.036 307.816L221.759 307.905C218.056 309.1 215.025 308.65 212.923 307.91C211.87 307.539 211.048 307.095 210.492 306.745C210.214 306.571 210.003 306.42 209.864 306.315C209.794 306.262 209.742 306.221 209.709 306.194C209.692 306.18 209.68 306.17 209.673 306.164L209.665 306.157L209.665 306.157Z" fill="#FFDCC2" stroke="#293B4A"/>
<path d="M194.821 183.137L194.493 182.863L194.903 182.885L197.235 139.385L208.662 124.432L213.496 122.076C213.521 122.077 213.55 122.079 213.582 122.081C213.724 122.091 213.932 122.106 214.197 122.127C214.727 122.169 215.484 122.237 216.391 122.337C218.206 122.538 220.611 122.871 222.984 123.398C225.367 123.926 227.678 124.641 229.328 125.591C230.998 126.553 231.819 127.644 231.646 128.899L231.646 128.899C231.421 130.553 231.642 132.929 232.077 135.518C232.515 138.121 233.178 140.992 233.865 143.658C234.553 146.325 235.268 148.795 235.811 150.596C236.082 151.498 236.31 152.232 236.471 152.742C236.481 152.774 236.491 152.805 236.5 152.835L233.531 152.638L232.967 152.601L232.998 153.165C233.487 161.982 231.485 165.757 229.54 167.364C228.563 168.17 227.564 168.465 226.809 168.56C226.431 168.607 226.116 168.604 225.898 168.59C225.789 168.583 225.705 168.573 225.651 168.566C225.624 168.562 225.604 168.559 225.592 168.557L225.581 168.555L225.58 168.554L225.58 168.554L225.579 168.554L225.111 168.458L224.995 168.924L219.079 192.722L219.068 192.765L219.066 192.81C218.206 206.366 214.864 216.135 211.747 222.507C210.188 225.693 208.685 228.031 207.575 229.568C207.02 230.337 206.564 230.905 206.248 231.28C206.213 231.321 206.18 231.36 206.149 231.397C195.916 218.21 193.461 203.387 195.889 187.486L195.966 186.98L195.458 186.915L192.454 186.528L194.821 183.137Z" fill="#FFDCC2" stroke="#293B4A"/>
<path d="M127.32 215.474L116.071 230.356L116.051 230.382L116.035 230.41L107.241 245.898L101.656 255.201C93.3825 254.844 85.2176 253.537 77.18 251.132C77.2184 242.122 80.3522 235.413 85.0358 230.4C89.794 225.306 96.1739 221.94 102.597 219.72C109.018 217.501 115.451 216.437 120.285 215.928C122.701 215.674 124.713 215.559 126.121 215.507C126.591 215.49 126.993 215.48 127.32 215.474Z" fill="#19AD4A" stroke="#293B4A"/>
<path d="M70.4397 212.179L70.52 212.037L70.5015 211.876C68.1682 191.479 81.3393 175.912 95.2433 165.392C102.184 160.14 109.276 156.171 114.635 153.515C117.314 152.187 119.558 151.188 121.131 150.522C121.917 150.189 122.536 149.939 122.957 149.772C122.998 149.756 123.037 149.741 123.074 149.726C123.139 150.006 123.225 150.391 123.323 150.871C123.547 151.966 123.836 153.554 124.093 155.521C124.607 159.456 124.993 164.898 124.482 170.928C123.461 182.992 118.861 197.356 104.586 206.787L104.576 206.793L104.567 206.8C95.8922 213.133 86.3418 215.914 78.9475 217.109C75.2522 217.706 72.1011 217.907 69.8759 217.958C68.7635 217.984 67.883 217.972 67.2823 217.954C67.2423 217.953 67.2036 217.951 67.1661 217.95L70.4397 212.179Z" fill="#F1F3F5" stroke="#293B4A"/>
<path d="M77.6279 162.601C73.6268 174.073 65.6583 183.528 53.8142 191.028C48.2513 174.317 50.5638 158.865 56.1224 146.631C61.6166 134.539 70.2654 125.626 77.5648 121.757C81.6809 137.514 81.6402 151.097 77.6279 162.601Z" fill="#F1F3F5" stroke="#293B4A"/>
<path d="M44.6342 258.314L44.6331 258.33V258.347V258.354V258.606L44.8354 258.756L62.6314 271.938C62.1963 271.948 61.6592 271.953 61.023 271.943C59.0518 271.913 56.1288 271.745 52.3416 271.19C44.7745 270.08 33.754 267.425 19.9765 261.239C0.459545 248.176 -1.39539 227.35 1.69259 209.647C3.23636 200.796 6.01216 192.762 8.40439 186.937C9.60008 184.026 10.6989 181.669 11.4981 180.041C11.8976 179.227 12.2222 178.596 12.4465 178.169C12.4824 178.1 12.5157 178.037 12.5464 177.979C12.8075 178.143 13.1795 178.384 13.6464 178.706C14.6323 179.386 16.0411 180.427 17.7214 181.865C21.082 184.74 25.5274 189.201 29.8491 195.533C38.4878 208.189 46.65 228.345 44.6342 258.314Z" fill="#F1F3F5" stroke="#293B4A"/>
<path d="M76.3133 300.068C79.4751 259.295 14.4407 259.492 11.293 215.972" stroke="#293B4A" stroke-miterlimit="10"/>
<path d="M71.1987 270.011C73.2574 237.648 93.9566 245.96 110.04 241.505" stroke="#293B4A" stroke-miterlimit="10"/>
<path d="M107.273 170.014C98.5395 201.133 56.3894 200.711 66.3806 238.364" stroke="#293B4A" stroke-miterlimit="10"/>
<path d="M75.5408 307.769C77.9719 292.101 75.2949 276.489 65.1491 254.792C42.6442 206.648 55.5021 180.806 64.6924 162.938" stroke="#293B4A" stroke-miterlimit="10"/>
<path d="M315.05 119.426L276.862 126.775V208.391L333.198 211.371" stroke="#293B4A" stroke-miterlimit="10"/>
<path d="M333.199 115.934L315.05 119.426" stroke="#293B4A" stroke-miterlimit="10"/>
<path d="M288.519 176.934L322.708 176.274" stroke="#293B4A" stroke-linejoin="round"/>
<path d="M288.519 185.668L322.708 186.329" stroke="#293B4A" stroke-linejoin="round"/>
<path d="M288.519 193.081L322.708 194.402" stroke="#293B4A" stroke-linejoin="round"/>
<path d="M281.936 268.015V257.841H310.223V268.015" stroke="#293B4A" stroke-miterlimit="10"/>
<path d="M285.443 257.019V239.433H306.719V257.019" stroke="#293B4A" stroke-miterlimit="10"/>
<path d="M286.566 226.336L290.796 239.433" stroke="#293B4A" stroke-miterlimit="10"/>
<path d="M292.951 222.732L295.016 239.433" stroke="#293B4A" stroke-miterlimit="10"/>
<path d="M299.018 222.732L298.913 239.433" stroke="#293B4A" stroke-miterlimit="10"/>
<path d="M88.9423 307.769C88.9423 307.769 86.7009 280.219 101.245 256.956C115.789 233.685 129.343 191.556 187.309 191.556" stroke="#293B4A" stroke-miterlimit="10"/>
<path d="M226.948 201.913C237.677 208.553 246.439 222.387 244.507 236.313C236.897 291.188 262.065 307.769 262.065 307.769" stroke="#293B4A" stroke-miterlimit="10"/>
<path d="M171.325 241.506C171.325 241.506 180.93 248.272 195.025 247.148" stroke="#293B4A" stroke-miterlimit="10"/>
<path d="M149.636 239.32C149.636 239.32 140.642 265.198 122.564 284.155" stroke="#293B4A" stroke-miterlimit="10"/>
<path d="M103.505 287.773C111.866 288.497 147.861 270.685 208.216 292.136C208.216 292.136 195.126 301.586 193.672 307.769" stroke="#293B4A" stroke-miterlimit="10"/>
<path d="M204.977 294.645C204.977 294.645 240.15 295.909 255.116 313.587C267.046 327.682 243.467 310.13 239.286 307.769C239.286 307.769 246.755 313.967 247.486 320.318C248.216 326.67 241.253 315.098 234.712 309.821C234.712 309.821 240.874 315.484 239.967 321.119C239.061 326.754 233.89 313.594 228.803 309.779" stroke="#293B4A" stroke-miterlimit="10"/>
<path d="M208.217 292.136C208.217 292.136 211.948 291.518 213.915 295.664" stroke="#293B4A" stroke-miterlimit="10"/>
<path d="M59.1504 307.77H198.318" stroke="#293B4A" stroke-miterlimit="10"/>
<path d="M228.968 310.025C228.968 310.025 231.483 313.749 232.179 317.628C232.874 321.506 229.691 324.099 228.996 319.223C228.3 314.346 222.145 308.444 222.145 308.444C216.904 310.37 210.917 308.782 209.772 306.681C209.772 306.681 203.238 307.77 198.319 307.77" stroke="#293B4A" stroke-miterlimit="10"/>
<path d="M229.986 232.589C228.574 246.986 240.561 258.614 229.986 271.304C219.412 283.993 223.347 297.034 223.347 297.034" stroke="#293B4A" stroke-miterlimit="10"/>
<path d="M206.27 232.589C206.27 232.589 191.051 219.619 187.299 216.035L192.794 206.972L181.615 204.491C181.615 204.491 187.496 193.039 187.819 189.462C188.143 185.879 195.506 187.671 195.506 187.671C195.506 187.671 188.796 209.051 206.263 232.589" stroke="#293B4A" stroke-miterlimit="10"/>
<path d="M226.151 197.324C226.151 197.324 223.017 193.144 219.589 193.544C219.589 193.544 217.221 220.279 206.274 232.582C206.274 232.582 219.462 224.389 223.586 218.22L219.968 211.054C219.968 211.054 225.006 210.456 226.91 211.651C226.91 211.651 226.952 201.913 226.151 197.324V197.324Z" stroke="#293B4A" stroke-linejoin="round"/>
<path d="M342.8 85.6434V240.114L404.925 215.993V99.0915L342.8 85.6434Z" stroke="#293B4A" stroke-miterlimit="10"/>
<path d="M342.796 85.6434H333.206V240.114H342.796" stroke="#293B4A" stroke-miterlimit="10"/>
<path d="M404.924 215.994V255.797H394.954V219.865" stroke="#293B4A" stroke-miterlimit="10"/>
<path d="M387.768 222.773V249.859H377.798V226.645" stroke="#293B4A" stroke-miterlimit="10"/>
<path d="M397.961 191.816V206.304" stroke="#293B4A" stroke-miterlimit="10"/>
<path d="M394.876 192.8V207.288" stroke="#293B4A" stroke-miterlimit="10"/>
<path d="M391.79 193.784V208.265" stroke="#293B4A" stroke-miterlimit="10"/>
<path d="M404.924 247.274L448.29 261.355H448.451H403.491L360.125 247.274V281.52" stroke="#293B4A" stroke-miterlimit="10"/>
<path d="M404.293 267.552V300.069L371.558 286.284" stroke="#293B4A" stroke-miterlimit="10"/>
<path d="M448.45 261.355V298.045L404.29 300.069" stroke="#293B4A" stroke-miterlimit="10"/>
<path d="M243.672 267.552L289.497 307.77H248.766" stroke="#293B4A" stroke-miterlimit="10"/>
<path d="M314.588 160.521C317.642 160.521 320.117 155.869 320.117 150.13C320.117 144.39 317.642 139.738 314.588 139.738C311.534 139.738 309.058 144.39 309.058 150.13C309.058 155.869 311.534 160.521 314.588 160.521Z" stroke="#293B4A" stroke-linejoin="round"/>
<path d="M238.338 322.096C236.013 321.639 233.877 321.154 231.917 320.641" stroke="#293B4A" stroke-miterlimit="10"/>
<path d="M252.268 310.622C257.671 311.135 265.674 317.852 263.826 320.923C261.985 324 256.765 324 252.401 324C248.038 324 243.352 323.016 239.543 322.314" stroke="#293B4A" stroke-miterlimit="10"/>
<path d="M223.519 309.884C221.053 310.2 219.282 313.615 218.805 314.283C218.805 314.283 219.845 317.163 229.112 319.868" stroke="#293B4A" stroke-miterlimit="10"/>
<path d="M324.494 280.711L284.578 287.084V290.689L319.836 316.58H368.162V308.816L324.494 280.711Z" stroke="#293B4A" stroke-miterlimit="10"/>
<path d="M323.77 284.4L361.964 308.816L324.494 312.512" stroke="#293B4A" stroke-miterlimit="10"/>
<path d="M302.788 294.005L317.543 304.425" stroke="#293B4A" stroke-miterlimit="10"/>
<path d="M404.921 189.94C404.921 189.94 430.026 190.432 421.671 213.056C413.317 235.68 414.146 255.803 414.146 255.803" stroke="#293B4A" stroke-miterlimit="10"/>
<path d="M410.62 255.797H418.728" stroke="#293B4A" stroke-miterlimit="10"/>
<path d="M269.136 268.016H346.481" stroke="#293B4A" stroke-miterlimit="10"/>
<path d="M377.162 308.043H460.493" stroke="#293B4A" stroke-miterlimit="10"/>
<path d="M466.417 308.043H484.931" stroke="#293B4A" stroke-miterlimit="10"/>
<path d="M8.75977 308.043H49.2377" stroke="#293B4A" stroke-miterlimit="10"/>
<path d="M315.325 53.0982C315.325 72.7521 299.393 88.6847 279.739 88.6847C260.085 88.6847 244.152 72.7521 244.152 53.0982C244.152 33.4443 260.085 17.5117 279.739 17.5117C299.393 17.5117 315.325 33.4443 315.325 53.0982Z" fill="#FFCD00" stroke="#293B4A"/>
<path d="M283.678 37.2188C287.479 38.3851 290.163 41.1956 290.163 44.4768" stroke="#293B4A" stroke-miterlimit="10"/>
<path d="M279.739 52.3114C273.985 52.3114 269.319 48.8053 269.319 44.4772C269.319 40.1491 273.985 36.643 279.739 36.643" stroke="#293B4A" stroke-miterlimit="10"/>
<path d="M275.734 67.3754C271.968 66.195 269.319 63.3986 269.319 60.1454" stroke="#293B4A" stroke-miterlimit="10"/>
<path d="M279.738 52.3113C285.493 52.3113 290.158 55.8174 290.158 60.1455C290.158 64.4736 285.493 67.9797 279.738 67.9797" stroke="#293B4A" stroke-miterlimit="10"/>
<path d="M279.738 30.4597V36.6427V75.7364" stroke="#293B4A" stroke-miterlimit="10"/>
<path d="M397.666 23.5518C397.666 36.283 387.345 46.6036 374.614 46.6036C361.883 46.6036 351.562 36.283 351.562 23.5518C351.562 10.8206 361.883 0.5 374.614 0.5C387.345 0.5 397.666 10.8206 397.666 23.5518Z" fill="#FFCD00" stroke="#293B4A"/>
<path d="M377.182 13.1884C379.662 13.9473 381.411 15.7811 381.411 17.9241" stroke="#293B4A" stroke-miterlimit="10"/>
<path d="M374.618 23.0391C370.859 23.0391 367.816 20.7486 367.816 17.924C367.816 15.0995 370.859 12.809 374.618 12.809" stroke="#293B4A" stroke-miterlimit="10"/>
<path d="M372.004 32.8684C369.545 32.0956 367.816 30.2758 367.816 28.1469" stroke="#293B4A" stroke-miterlimit="10"/>
<path d="M374.618 23.0392C378.377 23.0392 381.42 25.3297 381.42 28.1543C381.42 30.9788 378.377 33.2693 374.618 33.2693" stroke="#293B4A" stroke-miterlimit="10"/>
<path d="M374.618 8.77576V12.8088V38.3279" stroke="#293B4A" stroke-miterlimit="10"/>
<path d="M168.715 120.22C168.715 132.951 158.394 143.272 145.663 143.272C132.932 143.272 122.611 132.951 122.611 120.22C122.611 107.489 132.932 97.168 145.663 97.168C158.394 97.168 168.715 107.489 168.715 120.22Z" fill="#FFCD00" stroke="#293B4A"/>
<path d="M148.23 109.856C150.711 110.615 152.46 112.449 152.46 114.592" stroke="#293B4A" stroke-miterlimit="10"/>
<path d="M145.666 119.707C141.907 119.707 138.865 117.416 138.865 114.592C138.865 111.767 141.907 109.477 145.666 109.477" stroke="#293B4A" stroke-miterlimit="10"/>
<path d="M143.052 129.536C140.593 128.763 138.865 126.944 138.865 124.815" stroke="#293B4A" stroke-miterlimit="10"/>
<path d="M145.667 119.707C149.426 119.707 152.468 121.998 152.468 124.822C152.468 127.647 149.426 129.937 145.667 129.937" stroke="#293B4A" stroke-miterlimit="10"/>
<path d="M145.667 105.444V109.477V134.996" stroke="#293B4A" stroke-miterlimit="10"/>
<path d="M224.65 142.492C224.65 143.252 224.034 143.868 223.274 143.868C222.514 143.868 221.898 143.252 221.898 142.492C221.898 141.732 222.514 141.116 223.274 141.116C224.034 141.116 224.65 141.732 224.65 142.492Z" fill="#293B4A" stroke="#293B4A"/>
<path d="M216.817 155.442C218.082 159.637 222.67 160.206 225.136 159.222" stroke="#293B4A" stroke-linejoin="round"/>
<path d="M219.788 193.671C211.272 189.519 213.457 179.949 219.282 168.201C225.606 168.461 233.953 173.724 233.503 153.151L236.412 153.601C237.023 153.699 237.508 153.088 237.269 152.512C235.878 149.181 231.859 135.874 232.021 130.484" stroke="#293B4A" stroke-linejoin="round"/>
<mask id="path-81-inside-1_191_6999" fill="white">
<path d="M196.378 187.305C203.559 182.781 204.915 174.349 203.004 162.573C202.835 156.587 204.177 154.725 206.791 151.5C207.557 150.558 207.199 149.216 206.131 148.647C204.901 147.994 203.784 146.111 203.798 141.368C203.826 130.562 213.347 139.057 213.347 139.057L215.518 125.067C218.532 127.934 216.979 135.557 216.979 135.557C225.453 128.082 238.802 133.365 238.802 133.365C238.802 133.365 238.219 107.678 217.457 112.561C217.457 112.561 183.591 102.851 183.338 156.566C183.225 179.893 157.601 176.443 151.193 197.753C151.193 197.753 172.152 192.055 177.134 192.027C182.115 191.999 187.35 192.561 187.673 190.383C187.996 188.212 188.713 187.228 192.38 187.242"/>
</mask>
<path d="M196.378 187.305C203.559 182.781 204.915 174.349 203.004 162.573C202.835 156.587 204.177 154.725 206.791 151.5C207.557 150.558 207.199 149.216 206.131 148.647C204.901 147.994 203.784 146.111 203.798 141.368C203.826 130.562 213.347 139.057 213.347 139.057L215.518 125.067C218.532 127.934 216.979 135.557 216.979 135.557C225.453 128.082 238.802 133.365 238.802 133.365C238.802 133.365 238.219 107.678 217.457 112.561C217.457 112.561 183.591 102.851 183.338 156.566C183.225 179.893 157.601 176.443 151.193 197.753C151.193 197.753 172.152 192.055 177.134 192.027C182.115 191.999 187.35 192.561 187.673 190.383C187.996 188.212 188.713 187.228 192.38 187.242" fill="#293B4A"/>
<path d="M203.004 162.573L202.004 162.601L202.006 162.668L202.017 162.733L203.004 162.573ZM206.791 151.5L206.015 150.869L206.014 150.87L206.791 151.5ZM206.131 148.647L206.601 147.765L206.6 147.764L206.131 148.647ZM203.798 141.368L204.798 141.371V141.371L203.798 141.368ZM213.347 139.057L212.681 139.803L214.053 141.027L214.335 139.21L213.347 139.057ZM215.518 125.067L216.207 124.343L214.822 123.026L214.529 124.914L215.518 125.067ZM216.979 135.557L215.999 135.358L215.404 138.281L217.641 136.307L216.979 135.557ZM238.802 133.365L238.434 134.295L239.836 134.85L239.802 133.343L238.802 133.365ZM217.457 112.561L217.181 113.522L217.432 113.594L217.686 113.534L217.457 112.561ZM183.338 156.566L184.338 156.571V156.57L183.338 156.566ZM151.193 197.753L150.235 197.465L149.716 199.191L151.455 198.718L151.193 197.753ZM187.673 190.383L186.684 190.236L186.684 190.236L187.673 190.383ZM196.911 188.151C204.648 183.276 205.912 174.249 203.991 162.413L202.017 162.733C203.918 174.449 202.47 182.285 195.845 186.459L196.911 188.151ZM204.004 162.545C203.921 159.625 204.211 157.813 204.784 156.37C205.361 154.913 206.255 153.75 207.568 152.13L206.014 150.87C204.714 152.475 203.629 153.855 202.925 155.632C202.215 157.423 201.918 159.535 202.004 162.601L204.004 162.545ZM207.567 152.131C208.781 150.639 208.151 148.591 206.601 147.765L205.66 149.53C206.247 149.842 206.333 150.478 206.015 150.869L207.567 152.131ZM206.6 147.764C205.907 147.396 204.784 146.062 204.798 141.371L202.798 141.365C202.784 146.159 203.895 148.592 205.661 149.53L206.6 147.764ZM204.798 141.371C204.805 138.752 205.397 137.656 205.93 137.226C206.429 136.823 207.196 136.761 208.274 137.111C209.326 137.452 210.421 138.11 211.284 138.716C211.708 139.014 212.061 139.289 212.308 139.489C212.431 139.589 212.526 139.67 212.59 139.724C212.622 139.751 212.646 139.772 212.661 139.785C212.669 139.792 212.674 139.797 212.678 139.8C212.679 139.801 212.68 139.802 212.681 139.803C212.681 139.803 212.681 139.803 212.681 139.803C212.681 139.803 212.681 139.803 212.681 139.803C212.681 139.803 212.681 139.803 213.347 139.057C214.012 138.31 214.012 138.31 214.012 138.31C214.012 138.31 214.011 138.309 214.011 138.309C214.01 138.309 214.01 138.308 214.009 138.307C214.007 138.306 214.005 138.303 214.002 138.301C213.996 138.296 213.988 138.289 213.977 138.279C213.957 138.261 213.927 138.236 213.889 138.203C213.814 138.139 213.705 138.047 213.567 137.936C213.293 137.713 212.902 137.409 212.434 137.08C211.51 136.431 210.223 135.641 208.891 135.209C207.586 134.786 205.967 134.626 204.674 135.67C203.414 136.686 202.805 138.581 202.798 141.366L204.798 141.371ZM214.335 139.21L216.506 125.221L214.529 124.914L212.358 138.903L214.335 139.21ZM214.829 125.792C215.393 126.329 215.794 127.141 216.047 128.157C216.298 129.166 216.384 130.298 216.379 131.382C216.373 132.462 216.278 133.461 216.183 134.193C216.136 134.558 216.089 134.853 216.054 135.056C216.037 135.157 216.023 135.235 216.013 135.286C216.008 135.312 216.005 135.331 216.002 135.343C216.001 135.349 216 135.353 216 135.356C215.999 135.357 215.999 135.358 215.999 135.358C215.999 135.358 215.999 135.358 215.999 135.358C215.999 135.358 215.999 135.358 215.999 135.358C215.999 135.358 215.999 135.358 216.979 135.557C217.959 135.757 217.959 135.757 217.959 135.757C217.959 135.756 217.959 135.756 217.959 135.756C217.959 135.755 217.959 135.755 217.96 135.754C217.96 135.752 217.96 135.75 217.961 135.748C217.962 135.743 217.963 135.736 217.965 135.728C217.968 135.711 217.973 135.687 217.979 135.656C217.99 135.594 218.006 135.506 218.026 135.393C218.064 135.167 218.115 134.845 218.166 134.45C218.268 133.663 218.373 132.577 218.379 131.392C218.385 130.213 218.293 128.901 217.988 127.674C217.684 126.455 217.149 125.239 216.207 124.343L214.829 125.792ZM217.641 136.307C221.581 132.831 226.707 132.278 230.981 132.654C233.105 132.841 234.978 133.254 236.32 133.621C236.99 133.804 237.525 133.975 237.89 134.1C238.072 134.162 238.212 134.212 238.304 134.246C238.35 134.263 238.384 134.276 238.406 134.284C238.417 134.288 238.425 134.292 238.43 134.293C238.432 134.294 238.434 134.295 238.435 134.295C238.435 134.295 238.435 134.295 238.435 134.295C238.435 134.295 238.435 134.295 238.435 134.295C238.435 134.295 238.434 134.295 238.802 133.365C239.17 132.435 239.17 132.435 239.17 132.435C239.169 132.435 239.169 132.435 239.169 132.435C239.168 132.434 239.167 132.434 239.165 132.434C239.163 132.433 239.16 132.431 239.156 132.43C239.147 132.426 239.136 132.422 239.121 132.416C239.092 132.405 239.051 132.39 238.997 132.37C238.889 132.33 238.734 132.274 238.534 132.206C238.136 132.071 237.562 131.887 236.848 131.692C235.422 131.302 233.428 130.862 231.156 130.662C226.637 130.265 220.851 130.808 216.318 134.808L217.641 136.307ZM238.802 133.365C239.802 133.343 239.802 133.342 239.802 133.342C239.802 133.341 239.802 133.34 239.802 133.34C239.802 133.339 239.802 133.337 239.802 133.335C239.802 133.331 239.802 133.325 239.802 133.318C239.801 133.303 239.8 133.282 239.8 133.256C239.798 133.203 239.795 133.126 239.79 133.028C239.78 132.831 239.763 132.547 239.734 132.19C239.675 131.475 239.568 130.464 239.374 129.267C238.986 126.882 238.244 123.725 236.82 120.705C235.396 117.687 233.26 114.743 230.052 112.886C226.821 111.016 222.623 110.318 217.228 111.587L217.686 113.534C222.672 112.362 226.332 113.044 229.05 114.617C231.791 116.203 233.694 118.765 235.011 121.558C236.328 124.35 237.029 127.31 237.4 129.588C237.584 130.724 237.685 131.681 237.74 132.352C237.767 132.688 237.783 132.951 237.792 133.128C237.797 133.217 237.799 133.284 237.801 133.328C237.802 133.35 237.802 133.366 237.802 133.376C237.803 133.381 237.803 133.384 237.803 133.387C237.803 133.388 237.803 133.388 237.803 133.388C237.803 133.389 237.803 133.388 237.803 133.389C237.803 133.388 237.803 133.388 238.802 133.365ZM217.457 112.561C217.732 111.599 217.732 111.599 217.731 111.599C217.73 111.599 217.729 111.599 217.728 111.598C217.726 111.598 217.724 111.597 217.721 111.596C217.715 111.594 217.707 111.592 217.697 111.589C217.677 111.584 217.648 111.576 217.612 111.567C217.54 111.548 217.437 111.522 217.304 111.491C217.039 111.429 216.656 111.347 216.172 111.263C215.205 111.096 213.831 110.92 212.184 110.883C208.894 110.81 204.478 111.289 200.042 113.527C191.075 118.05 182.465 129.504 182.338 156.561L184.338 156.57C184.463 129.913 192.912 119.364 200.943 115.313C205.004 113.264 209.071 112.814 212.139 112.883C213.671 112.917 214.944 113.08 215.83 113.234C216.273 113.31 216.618 113.385 216.849 113.439C216.964 113.466 217.051 113.487 217.107 113.502C217.135 113.509 217.156 113.515 217.168 113.518C217.174 113.52 217.178 113.521 217.181 113.522C217.182 113.522 217.182 113.522 217.182 113.522C217.183 113.522 217.182 113.522 217.182 113.522C217.182 113.522 217.181 113.522 217.457 112.561ZM182.338 156.561C182.311 162.187 180.753 166.13 178.375 169.238C175.97 172.38 172.686 174.722 169.079 177.079C161.935 181.745 153.563 186.398 150.235 197.465L152.151 198.041C155.23 187.799 162.874 183.521 170.173 178.753C173.787 176.392 177.331 173.891 179.963 170.453C182.621 166.981 184.309 162.608 184.338 156.571L182.338 156.561ZM151.193 197.753C151.455 198.718 151.455 198.718 151.455 198.718C151.456 198.718 151.456 198.718 151.456 198.718C151.457 198.718 151.458 198.718 151.459 198.717C151.461 198.717 151.465 198.716 151.47 198.714C151.48 198.712 151.495 198.708 151.515 198.702C151.554 198.692 151.613 198.676 151.69 198.655C151.844 198.613 152.071 198.552 152.362 198.474C152.943 198.319 153.779 198.097 154.799 197.83C156.838 197.296 159.608 196.585 162.532 195.872C165.457 195.16 168.53 194.448 171.177 193.914C173.856 193.373 176.006 193.033 177.139 193.027L177.128 191.027C175.77 191.035 173.432 191.418 170.781 191.953C168.097 192.495 164.995 193.214 162.058 193.929C159.12 194.645 156.339 195.36 154.292 195.895C153.269 196.163 152.429 196.386 151.845 196.542C151.553 196.621 151.324 196.682 151.169 196.724C151.091 196.745 151.032 196.761 150.992 196.772C150.972 196.777 150.956 196.781 150.946 196.784C150.941 196.785 150.937 196.787 150.935 196.787C150.933 196.788 150.932 196.788 150.932 196.788C150.931 196.788 150.931 196.788 150.931 196.788C150.931 196.788 150.931 196.788 151.193 197.753ZM177.139 193.027C179.533 193.013 182.212 193.146 184.219 193.009C185.231 192.939 186.204 192.797 186.973 192.479C187.761 192.152 188.51 191.557 188.662 190.53L186.684 190.236C186.675 190.298 186.647 190.449 186.208 190.631C185.749 190.821 185.041 190.948 184.082 191.014C182.145 191.146 179.715 191.012 177.128 191.027L177.139 193.027ZM188.662 190.53C188.817 189.488 189.032 189.052 189.378 188.789C189.774 188.488 190.574 188.235 192.377 188.242L192.384 186.242C190.519 186.235 189.127 186.467 188.167 187.197C187.157 187.965 186.852 189.106 186.684 190.236L188.662 190.53Z" fill="#293B4A" mask="url(#path-81-inside-1_191_6999)"/>
<path d="M214.82 181.654C214.88 181.316 214.943 181.054 214.994 180.871H215.009L215.114 180.51C216.278 176.494 217.435 173.471 218.3 171.456C218.732 170.448 219.091 169.692 219.341 169.19C219.434 169.003 219.512 168.851 219.573 168.735L226.117 169.443C229.669 176.008 229.938 182.184 230.011 188.345C230.015 188.728 230.019 189.112 230.023 189.495C230.073 194.586 230.123 199.701 231.999 204.923C231.877 204.806 231.752 204.687 231.625 204.567C231.053 204.027 230.435 203.464 229.878 203.001C229.339 202.553 228.804 202.153 228.41 201.986C227.362 201.544 226.663 200.478 226.656 198.981C226.652 198.023 226.234 196.955 225.651 196.077C225.07 195.205 224.261 194.424 223.385 194.131C223.142 194.051 222.859 193.962 222.549 193.864C221.889 193.657 221.107 193.411 220.328 193.122C219.761 192.911 219.215 192.684 218.745 192.442C218.27 192.197 217.904 191.953 217.674 191.719C216.586 190.61 214.774 187.945 214.634 185.041C214.566 183.544 214.686 182.408 214.82 181.654Z" fill="#293B4A" stroke="#293B4A"/>
</svg>
