<svg width="129" height="110" viewBox="0 0 129 110" fill="none" xmlns="http://www.w3.org/2000/svg">
<g filter="url(#filter0_d_191_6351)">
<path d="M99.6759 30.439H24.5385C21.0218 30.439 18.1709 33.3752 18.1709 36.9972V90.775C18.1709 94.3971 21.0218 97.3333 24.5385 97.3333H99.6759C103.193 97.3333 106.043 94.3971 106.043 90.775V36.9972C106.043 33.3752 103.193 30.439 99.6759 30.439Z" fill="white"/>
<path d="M90.4106 23.4807V16.2862H83.3489V9H33.2998V78.0061H50.3331V83.9086H97.4277V23.4807H90.4106Z" fill="white"/>
<path d="M97.4273 76.5829V23.4806H89.4487" fill="white"/>
<path d="M97.4273 76.5829V23.4806H89.4487" stroke="#243B4C" stroke-miterlimit="10"/>
<path d="M90.41 68.6736V16.2861L83.4248 16.2927" fill="white"/>
<path d="M90.41 68.6736V16.2861L83.4248 16.2927" stroke="#243B4C" stroke-miterlimit="10"/>
<path d="M83.3298 55.0915L83.4636 9.07214H33.2998L33.529 61.3612" stroke="#293B4A" stroke-miterlimit="10"/>
<path d="M40.8198 17.1125H51.2881" stroke="#293B4A" stroke-miterlimit="10"/>
<path d="M47.646 31.462H76.4784" stroke="#293B4A" stroke-miterlimit="10"/>
<path d="M47.646 39.4172H76.4784" stroke="#293B4A" stroke-miterlimit="10"/>
<path d="M41.7941 32.6687C42.4342 32.6687 42.9531 32.1343 42.9531 31.4751C42.9531 30.8159 42.4342 30.2815 41.7941 30.2815C41.1541 30.2815 40.6353 30.8159 40.6353 31.4751C40.6353 32.1343 41.1541 32.6687 41.7941 32.6687Z" fill="#293B4A"/>
<path d="M41.7941 40.6567C42.4342 40.6567 42.9531 40.1223 42.9531 39.4631C42.9531 38.8039 42.4342 38.2695 41.7941 38.2695C41.1541 38.2695 40.6353 38.8039 40.6353 39.4631C40.6353 40.1223 41.1541 40.6567 41.7941 40.6567Z" fill="#293B4A"/>
<path d="M109.778 82.173C116.528 76.4623 117.505 66.1968 111.96 59.2444C106.416 52.292 96.4487 51.2854 89.6984 56.9962C82.9482 62.7069 81.9709 72.9724 87.5156 79.9248C93.0603 86.8772 103.027 87.8838 109.778 82.173Z" fill="#19AD4A"/>
<path d="M94.728 67.4143L98.5486 71.3427L99.3254 72.1428L100.242 73.0872L115.773 57.0719" stroke="#243B4C" stroke-miterlimit="10"/>
<path d="M110.685 62.3251C111.067 62.9744 111.398 63.6499 111.672 64.3582C112.837 67.2963 112.939 70.5623 111.965 73.5725C110.991 76.5828 109.004 79.1339 106.361 80.767C103.719 82.4 100.599 83.0033 97.5613 82.4655C94.524 81.9343 91.7732 80.2948 89.8056 77.8551C87.838 75.4154 86.7874 72.3265 86.8319 69.1588C86.8829 65.9846 88.0354 62.935 90.073 60.5609C92.117 58.1868 94.9188 56.6456 97.9688 56.2128C101.019 55.7799 104.12 56.4882 106.711 58.2065" stroke="#243B4C" stroke-miterlimit="10"/>
<path d="M72.0374 82.1735C78.7876 76.4627 79.7648 66.1972 74.2201 59.2449C68.6754 52.2925 58.7084 51.2859 51.9582 56.9967C45.208 62.7074 44.2307 72.9729 49.7754 79.9253C55.3201 86.8777 65.2871 87.8843 72.0374 82.1735Z" fill="#19AD4A"/>
<path d="M56.9941 67.4145L60.8147 71.3429L61.5915 72.1431L62.5085 73.0874L78.039 57.0721" stroke="#243B4C" stroke-miterlimit="10"/>
<path d="M72.9451 62.3253C73.3272 62.9746 73.6583 63.6501 73.9321 64.3584C75.0974 67.2965 75.1992 70.5625 74.225 73.5728C73.2508 76.583 71.2641 79.1342 68.6215 80.7672C65.979 82.4002 62.8589 83.0036 59.8216 82.4658C56.7842 81.9346 54.0334 80.295 52.0658 77.8553C50.0983 75.4157 49.0476 72.3267 49.0922 69.1591C49.1431 65.9849 50.2957 62.9353 52.3333 60.5612C54.3773 58.1871 57.179 56.6459 60.2291 56.213C63.2791 55.7802 66.3802 56.4885 68.9718 58.2068" stroke="#243B4C" stroke-miterlimit="10"/>
<path d="M34.3015 82.1696C41.0517 76.4588 42.029 66.1933 36.4843 59.2409C30.9396 52.2886 20.9726 51.282 14.2224 56.9928C7.47214 62.7035 6.49487 72.969 12.0396 79.9214C17.5843 86.8738 27.5513 87.8803 34.3015 82.1696Z" fill="#19AD4A"/>
<path d="M19.2534 67.4145L23.074 71.3429L23.8508 72.1431L24.7677 73.0874L40.2983 57.0721" stroke="#243B4C" stroke-miterlimit="10"/>
<path d="M35.2107 62.3253C35.5928 62.9746 35.9239 63.6501 36.1977 64.3584C37.363 67.2965 37.4649 70.5625 36.4906 73.5728C35.5164 76.583 33.5297 79.1342 30.8872 80.7672C28.2446 82.4002 25.1245 83.0036 22.0872 82.4658C19.0498 81.9346 16.299 80.295 14.3315 77.8553C12.3639 75.4157 11.3132 72.3267 11.3578 69.1591C11.4087 65.9849 12.5613 62.9353 14.5989 60.5612C16.6429 58.1871 19.4446 56.6459 22.4947 56.213C25.5448 55.7802 28.6458 56.4885 31.2374 58.2068" stroke="#243B4C" stroke-miterlimit="10"/>
</g>
<defs>
<filter id="filter0_d_191_6351" x="0.444336" y="0.572144" width="127.688" height="108.761" filterUnits="userSpaceOnUse" color-interpolation-filters="sRGB">
<feFlood flood-opacity="0" result="BackgroundImageFix"/>
<feColorMatrix in="SourceAlpha" type="matrix" values="0 0 0 0 0 0 0 0 0 0 0 0 0 0 0 0 0 0 127 0" result="hardAlpha"/>
<feOffset dx="2" dy="2"/>
<feGaussianBlur stdDeviation="5"/>
<feColorMatrix type="matrix" values="0 0 0 0 0 0 0 0 0 0 0 0 0 0 0 0 0 0 0.25 0"/>
<feBlend mode="normal" in2="BackgroundImageFix" result="effect1_dropShadow_191_6351"/>
<feBlend mode="normal" in="SourceGraphic" in2="effect1_dropShadow_191_6351" result="shape"/>
</filter>
</defs>
</svg>
