<svg width="100" height="101" viewBox="0 0 100 101" fill="none" xmlns="http://www.w3.org/2000/svg">
<path d="M92.7536 26.7247H7.24638C3.24431 26.7247 0 29.969 0 33.971V93.3913C0 97.3934 3.24431 100.638 7.24638 100.638H92.7536C96.7557 100.638 100 97.3934 100 93.3913V33.971C100 29.969 96.7557 26.7247 92.7536 26.7247Z" fill="white"/>
<path d="M81.0148 76.5436H18.9858C15.0918 76.5436 11.9351 79.7003 11.9351 83.5943C11.9351 87.4883 15.0918 90.645 18.9858 90.645H81.0148C84.9088 90.645 88.0655 87.4883 88.0655 83.5943C88.0655 79.7003 84.9088 76.5436 81.0148 76.5436Z" fill="#F1F3F5"/>
<path d="M27.3771 82.6485H72.6307C73.2994 82.6485 73.7286 83.1322 73.7286 83.5942C73.7286 84.0561 73.2994 84.5398 72.6307 84.5398H27.3771C26.7085 84.5398 26.2793 84.0561 26.2793 83.5942C26.2793 83.1322 26.7085 82.6485 27.3771 82.6485Z" fill="#293B4A" stroke="#293B4A" stroke-width="1.5"/>
<rect x="25.4546" y="6.45453" width="50.9091" height="50.9091" fill="#FFCD00"/>
<path d="M76.1523 29.9491V56.9346H25.2827V6.065H52.1523" stroke="#293B4A" stroke-width="1.5" stroke-miterlimit="10" stroke-linecap="round"/>
<path d="M63.1738 1H81.355V18.7246" stroke="#293B4A" stroke-width="1.5" stroke-miterlimit="10" stroke-linecap="round"/>
<path d="M57.1669 43.0362H38.9785V25.3115" stroke="#293B4A" stroke-width="1.5" stroke-miterlimit="10" stroke-linecap="round"/>
<path d="M81.3555 1L41.4497 40.7754" stroke="#293B4A" stroke-width="1.5" stroke-miterlimit="10" stroke-linecap="round"/>
</svg>
