<svg width="120" height="121" viewBox="0 0 120 121" fill="none" xmlns="http://www.w3.org/2000/svg">
<g filter="url(#filter0_d_191_6432)">
<path d="M108 64.1295V101.647C108 105.656 104.761 108.895 100.752 108.895H15.2479C11.2388 108.895 8 105.656 8 101.647V42.2282C8 38.2191 11.2388 34.9803 15.2479 34.9803H100.752C104.761 34.9803 108 38.2191 108 42.2282V64.1295Z" fill="white"/>
<path d="M90.0203 82.4768H25.9797C21.9574 82.4768 18.6968 85.7375 18.6968 89.7597C18.6968 93.782 21.9574 97.0426 25.9797 97.0426H90.0203C94.0425 97.0426 97.3032 93.782 97.3032 89.7597C97.3032 85.7375 94.0425 82.4768 90.0203 82.4768Z" fill="#F1F3F5"/>
<path d="M75.6646 88.0092H40.3179C39.2675 88.0092 38.4097 88.797 38.4097 89.7599C38.4097 90.7227 39.2675 91.5106 40.3179 91.5106H75.6646C76.715 91.5106 77.5728 90.7227 77.5728 89.7599C77.5728 88.797 76.715 88.0092 75.6646 88.0092Z" fill="#293B4A"/>
<path d="M58.5248 52.785C51.7321 48.6359 47.1978 41.1604 47.1978 32.6169C47.2153 19.5742 57.7895 9 70.8322 9C83.8749 9 94.4492 19.5742 94.4492 32.6169C94.4492 37.3438 93.0661 41.7381 90.6851 45.4146" fill="white"/>
<path d="M58.5248 52.785C51.7321 48.6359 47.1978 41.1604 47.1978 32.6169C47.2153 19.5742 57.7895 9 70.8322 9C83.8749 9 94.4492 19.5742 94.4492 32.6169C94.4492 37.3438 93.0661 41.7381 90.6851 45.4146" stroke="#293B4A" stroke-miterlimit="10"/>
<path d="M83.3671 52.645C82.2292 53.3628 81.0212 53.9756 79.7607 54.5008C77.0121 55.6212 74.0009 56.2515 70.8321 56.2515C68.6262 56.2515 66.5079 55.9538 64.4771 55.3936" stroke="#293B4A" stroke-miterlimit="10"/>
<path d="M64.9496 39.1996C63.0588 38.3592 61.3782 37.1688 59.9951 35.6807" stroke="#5273FD" stroke-miterlimit="10"/>
<path d="M57.6318 32.3719C60.2054 27.5574 65.2824 24.2661 71.1297 24.2661C76.9771 24.2661 82.0541 27.5574 84.6276 32.3719C82.4918 37.5189 76.9771 40.4951 71.1297 40.4951" stroke="#5273FD" stroke-miterlimit="10"/>
<path d="M73.9138 34.0525C72.9859 35.5931 70.9726 36.1008 69.432 35.173C67.8914 34.2451 67.3837 32.2318 68.3116 30.6912C69.2394 29.1506 71.2527 28.6429 72.7934 29.5707C73.1785 29.7983 73.4936 30.0959 73.7387 30.4286" stroke="#5273FD" stroke-miterlimit="10"/>
<path d="M60.7485 55.7437L68.3291 38.1141" stroke="#293B4A" stroke-miterlimit="10"/>
<path d="M48.9131 52.575L54.0251 57.2843" stroke="#293B4A" stroke-miterlimit="10"/>
<path d="M32.9824 59.6827L40.8606 52.2422" stroke="#293B4A" stroke-miterlimit="10"/>
<path d="M23.9658 75.7892L26.872 68.2787" stroke="#293B4A" stroke-miterlimit="10"/>
<path d="M18.6968 75.7893H97.3032" stroke="#293B4A" stroke-miterlimit="10"/>
<path d="M28.8682 66.9833C30.7827 66.9833 32.3346 65.4314 32.3346 63.5169C32.3346 61.6025 30.7827 60.0505 28.8682 60.0505C26.9538 60.0505 25.4019 61.6025 25.4019 63.5169C25.4019 65.4314 26.9538 66.9833 28.8682 66.9833Z" stroke="#293B4A" stroke-miterlimit="10"/>
<path d="M44.7296 52.1897C46.644 52.1897 48.196 50.6378 48.196 48.7233C48.196 46.8089 46.644 45.257 44.7296 45.257C42.8151 45.257 41.2632 46.8089 41.2632 48.7233C41.2632 50.6378 42.8151 52.1897 44.7296 52.1897Z" stroke="#293B4A" stroke-miterlimit="10"/>
<path d="M58.1046 64.7423C60.019 64.7423 61.571 63.1904 61.571 61.276C61.571 59.3615 60.019 57.8096 58.1046 57.8096C56.1901 57.8096 54.6382 59.3615 54.6382 61.276C54.6382 63.1904 56.1901 64.7423 58.1046 64.7423Z" stroke="#293B4A" stroke-miterlimit="10"/>
</g>
<defs>
<filter id="filter0_d_191_6432" x="0" y="0.5" width="120" height="120.395" filterUnits="userSpaceOnUse" color-interpolation-filters="sRGB">
<feFlood flood-opacity="0" result="BackgroundImageFix"/>
<feColorMatrix in="SourceAlpha" type="matrix" values="0 0 0 0 0 0 0 0 0 0 0 0 0 0 0 0 0 0 127 0" result="hardAlpha"/>
<feOffset dx="2" dy="2"/>
<feGaussianBlur stdDeviation="5"/>
<feColorMatrix type="matrix" values="0 0 0 0 0 0 0 0 0 0 0 0 0 0 0 0 0 0 0.25 0"/>
<feBlend mode="normal" in2="BackgroundImageFix" result="effect1_dropShadow_191_6432"/>
<feBlend mode="normal" in="SourceGraphic" in2="effect1_dropShadow_191_6432" result="shape"/>
</filter>
</defs>
</svg>
