<svg width="120" height="112" viewBox="0 0 120 112" fill="none" xmlns="http://www.w3.org/2000/svg">
<g filter="url(#filter0_d_191_6409)">
<mask id="mask0_191_6409" style="mask-type:luminance" maskUnits="userSpaceOnUse" x="8" y="8" width="100" height="92">
<path d="M108 8H8V99.9355H108V8Z" fill="white"/>
</mask>
<g mask="url(#mask0_191_6409)">
<path d="M93.3387 32.9677H14.6613C10.9839 32.9677 8 35.9031 8 39.5322V93.387C8 97.016 10.9839 99.9515 14.6613 99.9515H93.3226C97 99.9515 99.9839 97.016 99.9839 93.387V39.5322C99.9839 35.9031 97 32.9677 93.3226 32.9677H93.3387Z" fill="white"/>
<path d="M25.8872 48.6614C25.8872 50.8549 27.6775 52.6452 29.8872 52.6452C32.0969 52.6452 33.8872 50.8549 33.8872 48.6614C33.8872 46.4678 32.0969 44.6775 29.8872 44.6775C27.6775 44.6775 25.8872 46.4678 25.8872 48.6614Z" stroke="#293B4A" stroke-miterlimit="10"/>
<path d="M25.8872 66.4516C25.8872 68.6452 27.6775 70.4355 29.8872 70.4355C32.0969 70.4355 33.8872 68.6452 33.8872 66.4516C33.8872 64.2581 32.0969 62.4678 29.8872 62.4678C27.6775 62.4678 25.8872 64.2581 25.8872 66.4516Z" stroke="#293B4A" stroke-miterlimit="10"/>
<path d="M25.8872 84.2419C25.8872 86.4355 27.6775 88.2258 29.8872 88.2258C32.0969 88.2258 33.8872 86.4355 33.8872 84.2419C33.8872 82.0484 32.0969 80.2581 29.8872 80.2581C27.6775 80.2581 25.8872 82.0484 25.8872 84.2419Z" stroke="#293B4A" stroke-miterlimit="10"/>
<path d="M43.6616 48.6614C43.6616 50.8549 45.4519 52.6452 47.6616 52.6452C49.8713 52.6452 51.6616 50.8549 51.6616 48.6614C51.6616 46.4678 49.8713 44.6775 47.6616 44.6775C45.4519 44.6775 43.6616 46.4678 43.6616 48.6614Z" stroke="#293B4A" stroke-miterlimit="10"/>
<path d="M43.6616 66.4516C43.6616 68.6452 45.4519 70.4355 47.6616 70.4355C49.8713 70.4355 51.6616 68.6452 51.6616 66.4516C51.6616 64.2581 49.8713 62.4678 47.6616 62.4678C45.4519 62.4678 43.6616 64.2581 43.6616 66.4516Z" stroke="#293B4A" stroke-miterlimit="10"/>
<path d="M43.6616 84.2419C43.6616 86.4355 45.4519 88.2258 47.6616 88.2258C49.8713 88.2258 51.6616 86.4355 51.6616 84.2419C51.6616 82.0484 49.8713 80.2581 47.6616 80.2581C45.4519 80.2581 43.6616 82.0484 43.6616 84.2419Z" stroke="#293B4A" stroke-miterlimit="10"/>
<path d="M61.4507 48.6614C61.4507 50.8549 63.241 52.6452 65.4507 52.6452C67.6604 52.6452 69.4507 50.8549 69.4507 48.6614C69.4507 46.4678 67.6604 44.6775 65.4507 44.6775C63.241 44.6775 61.4507 46.4678 61.4507 48.6614Z" stroke="#293B4A" stroke-miterlimit="10"/>
<path d="M61.4507 66.4516C61.4507 68.6452 63.241 70.4355 65.4507 70.4355C67.6604 70.4355 69.4507 68.6452 69.4507 66.4516C69.4507 64.2581 67.6604 62.4678 65.4507 62.4678C63.241 62.4678 61.4507 64.2581 61.4507 66.4516Z" stroke="#293B4A" stroke-miterlimit="10"/>
<path d="M73.4355 84.2419C73.4355 86.4355 75.2259 88.2258 77.4355 88.2258C79.6452 88.2258 81.4355 86.4355 81.4355 84.2419C81.4355 82.0484 79.6452 80.2581 77.4355 80.2581C75.2259 80.2581 73.4355 82.0484 73.4355 84.2419Z" stroke="#19AD4A" stroke-miterlimit="10"/>
<path d="M70.1451 84.2421H62.0967" stroke="#19AD4A" stroke-miterlimit="10"/>
<path d="M65.3225 87.9677L61.5806 84.2419L65.3225 80.5161" stroke="#19AD4A" stroke-miterlimit="10"/>
<path d="M92.9521 58.4516C106.323 51.9516 111.807 35.9999 105.21 22.8225C98.6134 9.66123 82.4199 4.25801 69.0489 10.758C55.6779 17.258 50.194 33.2096 56.7908 46.387C63.3876 59.5645 79.5811 64.9677 92.9521 58.4516Z" fill="#19AD4A"/>
<path d="M90.0004 34.6129H65.0811" stroke="#F1F3F5" stroke-miterlimit="10"/>
<path d="M83.0806 21.6451L95.5483 34.5968L83.129 47.5484" stroke="#F1F3F5" stroke-miterlimit="10"/>
</g>
</g>
<defs>
<filter id="filter0_d_191_6409" x="0" y="0.00488281" width="120" height="111.931" filterUnits="userSpaceOnUse" color-interpolation-filters="sRGB">
<feFlood flood-opacity="0" result="BackgroundImageFix"/>
<feColorMatrix in="SourceAlpha" type="matrix" values="0 0 0 0 0 0 0 0 0 0 0 0 0 0 0 0 0 0 127 0" result="hardAlpha"/>
<feOffset dx="2" dy="2"/>
<feGaussianBlur stdDeviation="5"/>
<feColorMatrix type="matrix" values="0 0 0 0 0 0 0 0 0 0 0 0 0 0 0 0 0 0 0.25 0"/>
<feBlend mode="normal" in2="BackgroundImageFix" result="effect1_dropShadow_191_6409"/>
<feBlend mode="normal" in="SourceGraphic" in2="effect1_dropShadow_191_6409" result="shape"/>
</filter>
</defs>
</svg>
