<?xml version="1.0" encoding="utf-8"?>
<!-- Generator: Adobe Illustrator 27.9.0, SVG Export Plug-In . SVG Version: 6.00 Build 0)  -->
<svg version="1.1" id="Layer_1" xmlns="http://www.w3.org/2000/svg" xmlns:xlink="http://www.w3.org/1999/xlink" x="0px" y="0px"
	 viewBox="0 0 503 383" style="enable-background:new 0 0 503 383;" xml:space="preserve">
<style type="text/css">
	.st0{fill:#19AD4A;stroke:#293B4A;}
	.st1{fill:#FFDCC2;}
	.st2{fill:#FFDCC2;stroke:#293B4A;}
	.st3{fill:#F1F3F5;}
	.st4{fill:#FFFFFF;filter:url(#Adobe_OpacityMaskFilter);}
	.st5{mask:url(#path-5-inside-1_191_7102_00000008150824190428409200000018189768155140146359_);fill:#293B4A;}
	.st6{fill:#FFFFFF;filter:url(#Adobe_OpacityMaskFilter_00000162334852957006212020000008503662899794197902_);}
	.st7{mask:url(#path-7-inside-2_191_7102_00000080902130616833570510000010821780614507753117_);fill:#293B4A;}
	.st8{fill:#BCD5FD;}
	.st9{fill:#5273FD;}
	.st10{fill:#F1F3F5;stroke:#293B4A;stroke-miterlimit:10;}
	.st11{fill:none;stroke:#293B4A;stroke-miterlimit:10;}
	.st12{fill:#293B4A;stroke:#293B4A;}
	.st13{fill-rule:evenodd;clip-rule:evenodd;fill:#F1F3F5;}
	.st14{fill-rule:evenodd;clip-rule:evenodd;fill:#293B4A;}
	
		.st15{fill-rule:evenodd;clip-rule:evenodd;fill:#FFFFFF;filter:url(#Adobe_OpacityMaskFilter_00000080169509122683434250000005517920696569865376_);}
	.st16{mask:url(#path-22-inside-3_191_7102_00000014613220755269381120000006749972297385372300_);fill:#293B4A;}
	.st17{fill:#FFFFFF;stroke:#293B4A;stroke-miterlimit:10;}
	.st18{fill:none;stroke:#293B4A;stroke-linejoin:round;}
	.st19{fill:#293B4A;}
	.st20{fill:none;stroke:#293B4A;stroke-linecap:round;stroke-miterlimit:10;}
	.st21{fill-rule:evenodd;clip-rule:evenodd;fill:#293B4A;stroke:#293B4A;stroke-miterlimit:10;}
	.st22{fill:#293B4A;stroke:#293B4A;stroke-miterlimit:10;}
	.st23{fill:#FFDCC2;stroke:#293B4A;stroke-miterlimit:10;}
	.st24{fill:none;stroke:#293B4A;}
</style>
<path class="st0" d="M374.1,253.5c0,70.4-57.1,127.5-127.5,127.5S119,323.9,119,253.5S176.2,126,246.6,126S374.1,183.1,374.1,253.5z
	"/>
<path class="st1" d="M311.3,212l13.8,10.3c0,0,22.8,15.4,26.5,21c3.7,5.7,3.1,13.6-3.8,20.1c-6.9,6.5-17,13.9-22.7,17.5
	c-5.7,3.5-27.8,17.5-30.4,20.1c-2.6,2.6-8.3,10-4.1,9.2s4.5-0.6,6.8-2.5c2.3-1.8,4.3-1.1,4.5,0.1c0.1,1.2-0.6,3.2-0.6,3.2
	s1.3,1.1,3-0.8c1.7-1.9,2.8-0.9,2.7,0.2c-0.1,1-1.2,3.8-2.2,4.7c-1,0.9-1.1,1.6,3,0.9s4.4,1.3,2.8,2.2c-1.6,0.9-10.3,3.1-10.3,3.1
	s4,1.6,8.1,1c4.1-0.6,7.4-1.2,6.2,0.1s-3.7,4.2-10.8,5.5c-7.1,1.3-16.1-1.5-21.7-5.9c-5.6-4.5-8.7-13-5.5-19.8
	c3.2-6.8,22.2-32.3,34.7-42s15.6-11.7,15.6-11.7s2.9-1.4-3.4-3s-14.9-6.9-21.1-12.4c-6.2-5.5-8.1-6.2-7.1-8.7
	C296.4,221.9,311.3,212,311.3,212z"/>
<path class="st1" d="M266,185.4c0,0-6.4-13.7-2.4-25.1c0.9-2.4,2.4-4.5,4.7-6.1c2.7-1.9,4.4-4.7,5.4-7.9c1-3.2,1.2-6.9,1.2-10.3
	c-0.1-3.4-0.5-6.6-0.9-8.9c-0.2-1.2-0.4-2.1-0.6-2.8c-0.1-0.3-0.1-0.5-0.2-0.7l-32.3-4l-1.6,10.8v0l-0.4,1.4l-0.1,0.5l-0.9,3
	c-1,3.1-2.2,6.4-3.2,9.1c-1,2.7-2,4.8-2.6,5.8c0,0,0,0.1,0,0.2l5,1.2l0.5,0.1l-0.1,0.2l0.2,0l-0.1,0.5c-1,5.7-1.2,9.3-1,11.4
	c0.4,1.6,1.1,2.6,2.4,2.9c0.6,0,1.4-0.2,2.1-0.4c0.1,0,0.2,0,0.2-0.1c0.9-0.2,1.9-0.4,2.8-0.3l0.3,0l0.1,0.3
	c2,6.3,2.9,10.2,2.9,13.2c0,3.1-0.9,5.4-2.3,8.7c-1.4,3.3-3.5,8.2-5.2,12.3c-0.8,2.1-1.6,3.9-2.1,5.3c-0.2,0.6-0.4,1-0.6,1.4
	c10.3-1,17.2-2.9,21.8-5.1c4.7-2.2,7-4.8,7.9-7.2c0.9-2.4,0.6-4.7,0.1-6.4c-0.3-0.8-0.6-1.5-0.9-2c-0.1-0.2-0.3-0.4-0.3-0.6
	c0-0.1-0.1-0.1-0.1-0.1c0,0,0,0,0,0c0,0,0,0,0,0l0,0"/>
<path class="st2" d="M311.1,317.1C311.1,317.1,311.1,317.1,311.1,317.1C311.1,317.1,311.1,317.1,311.1,317.1z"/>
<path class="st1" d="M214.8,216.7c0.3,0.1,0.6,0.2,0.9,0.2c-0.2,0.4-0.5,0.9-0.9,1.5c-0.8,1.3-2,3.1-3.4,5.1
	c-2,1.8-10.4,9.2-20.4,15.8c-5,3.3-10.5,6.4-15.7,8.5c-5.2,2.1-10.2,3-14.3,2.2l-0.1,0l-0.1,0c-2,0.1-3.8-0.1-5.7-1.3
	c-1.9-1.1-3.9-3.2-6.1-7.1c-4.4-7.7-9.4-22.2-16.1-49.1l-0.1-0.6l-0.5,0.2c-3.5,1.4-7.6,1.9-10.8,1.2c-1.6-0.3-3-1-4-1.9
	c-1-0.9-1.6-2.2-1.7-3.8c-0.2-4.3,0.4-8.8,1.8-12.3c0.7-1.8,1.5-3.3,2.4-4.4c0.9-1.1,2-1.8,3-1.9h0c2.4-0.4,4.7-0.1,6.5,0.3
	c0.9,0.2,1.6,0.4,2.2,0.6c0.3,0.1,0.5,0.2,0.6,0.2c0.1,0,0.1,0,0.2,0.1l0,0l0,0h0l0,0l0,0l0.5,0.2l0.2-0.5l-0.5-0.1l0.5,0.1l0,0l0,0
	l0,0l0,0c0,0,0-0.1,0-0.1c0-0.1,0.1-0.3,0.2-0.5c0.1-0.5,0.3-1.1,0.6-1.9c0.5-1.6,1.2-3.6,2-5.6c0.8-2,1.7-3.9,2.6-5.1
	c0.4-0.6,0.8-1.1,1.2-1.3c0.2-0.1,0.3-0.1,0.4-0.1c0.1,0,0.2,0,0.3,0.1c0.3,0.2,0.5,0.6,0.8,1.2c0.2,0.6,0.4,1.4,0.5,2.3
	c0.2,1.9,0.1,4.1-0.1,6.4c-0.2,2.2-0.4,4.4-0.7,6c-0.1,0.8-0.2,1.5-0.3,1.9c0,0.2-0.1,0.4-0.1,0.5c0,0.1,0,0.1,0,0.1l0,0l0,0v0l0,0
	l0.5,0.1l-0.5-0.1l0,0.1l0,0.1l1.1,8.6l0,0.1l0.1,0.1c4.1,5.3,9.9,17.2,14.7,27.9c2.4,5.3,4.6,10.3,6.1,13.9
	c0.8,1.8,1.4,3.3,1.8,4.3c0.2,0.5,0.4,0.9,0.5,1.2c0.1,0.1,0.1,0.2,0.1,0.3l0,0.1l0,0l0,0l0,0c0,0,0,0,0.5-0.2l-0.5,0.2l0.2,0.6
	l0.5-0.4l33.9-24.8c3.7,4.8,7.8,7.5,11,9C212.4,215.9,213.8,216.4,214.8,216.7z"/>
<path class="st3" d="M236.9,152.2c-1,5.8-1.2,9.4-1,11.6c-1-4,0.4-10.4,0.8-11.7L236.9,152.2z"/>
<defs>
	<filter id="Adobe_OpacityMaskFilter" filterUnits="userSpaceOnUse" x="234.6" y="150.9" width="3.3" height="13.1">
		<feColorMatrix  type="matrix" values="1 0 0 0 0  0 1 0 0 0  0 0 1 0 0  0 0 0 1 0"/>
	</filter>
</defs>
<mask maskUnits="userSpaceOnUse" x="234.6" y="150.9" width="3.3" height="13.1" id="path-5-inside-1_191_7102_00000008150824190428409200000018189768155140146359_">
	<path class="st4" d="M236.9,152.2c-1,5.8-1.2,9.4-1,11.6c-1-4,0.4-10.4,0.8-11.7L236.9,152.2z"/>
</mask>
<path class="st5" d="M236,163.8l-1,0.2l2-0.4L236,163.8z M236.7,152.1l0.2-1l-1-0.2l-0.2,1L236.7,152.1z M235.9,152
	c-1,5.8-1.3,9.5-1,11.9l2-0.3c-0.3-2.1-0.1-5.5,1-11.3L235.9,152z M236.9,163.5c-0.4-1.8-0.4-4.3-0.1-6.5c0.3-2.2,0.7-4.1,0.8-4.7
	l-1.9-0.5c-0.2,0.7-0.6,2.6-0.9,4.9c-0.3,2.3-0.4,5,0.1,7.2L236.9,163.5z M236.5,153.1l0.2,0.1l0.5-1.9l-0.2-0.1L236.5,153.1z"/>
<path class="st3" d="M264.6,181.3c-1.7-5.7-4-14.6-1-19.7C261.5,168.1,263.3,176.6,264.6,181.3z"/>
<defs>
	
		<filter id="Adobe_OpacityMaskFilter_00000034793067288518740720000017980109204962722747_" filterUnits="userSpaceOnUse" x="262.8" y="161" width="2.8" height="20.5">
		<feColorMatrix  type="matrix" values="1 0 0 0 0  0 1 0 0 0  0 0 1 0 0  0 0 0 1 0"/>
	</filter>
</defs>
<mask maskUnits="userSpaceOnUse" x="262.8" y="161" width="2.8" height="20.5" id="path-7-inside-2_191_7102_00000080902130616833570510000010821780614507753117_">
	<path style="fill:#FFFFFF;filter:url(#Adobe_OpacityMaskFilter_00000034793067288518740720000017980109204962722747_);" d="
		M264.6,181.3c-1.7-5.7-4-14.6-1-19.7C261.5,168.1,263.3,176.6,264.6,181.3z"/>
</mask>
<path class="st7" d="M264.6,181.3l-1,0.3l1.9-0.6L264.6,181.3z M263.6,161.5l1,0.3l-1.8-0.8L263.6,161.5z"/>
<path class="st8" d="M293.6,349.2c0.9,6.9,1.1,11.5,1.1,12.7c0.1,3.8,0,7.1-0.1,9.4c-23.4,9.4-61.6,17.1-104.4-2.6
	c1.3-10.6,2.9-22.3,4.5-32.4c0.8-5.1,1.7-9.7,2.5-13.6c0.8-3.6,1.6-6.5,2.3-8.4c32.4,23.4,66.8,7.6,75.1,3.2c0.7-0.1,1.4,0,1.9,0.1
	c4.2,0.9,6.2,5.4,6.5,6.2c4.3,4.2,6.5,8.2,7.6,10.9C292.1,337.9,292.6,341.6,293.6,349.2z"/>
<path class="st9" d="M296.3,227.5 M296.4,228.2L296.4,228.2l7.7,6.4c-4.1,2.1-7.1,1.5-9.1,0.4c-1.1-0.6-1.9-1.4-2.4-2
	c-0.3-0.3-0.5-0.6-0.6-0.8c-0.1-0.1-0.1-0.2-0.1-0.2c0,0,0,0,0-0.1l0,0l0,0l0,0c0,0,0,0,0,0l-0.9,0.3c1.4,8.3-0.7,16.3-4.1,23.9
	c-3.2,7-5.2,12-9.2,18c-0.4,0.6-2.8,3.8-3.1,4.4c-3.9,5.9-3.7,10.6-3,18.1c0.7,7.5,2.5,15,3.3,17.5c0.1,0.3,0.7,2.4,0.8,2.6
	c-8.5,4.5-44.3,20.6-76-2.6c0.5-1.3,1.4-4.9,1.9-6.7l0.7-3.3c2.5-8.8,4-18.1,5.6-29.7c0.8-5.8,1.4-11.1,1.8-14.9
	c0.2-1.9,0.4-3.4,0.5-4.5c0.1-0.5,0.1-0.9,0.1-1.2l0-0.3l0-0.1l0,0l0,0v0c0,0,0,0-0.5-0.1l0.5,0.1l0-0.3l-0.3-0.2
	c-2.9-1.6-4.5-3.7-5.3-5.9c-0.8-2.2-0.9-4.7-0.4-7.2c1-5,3.9-10,6-13.1l0,0l0,0l0,0c0.2-0.3,0.4-0.6,0.6-0.8h0l0.1-0.2
	c0.8-1.1,1.4-1.9,1.5-2l-0.1-0.1c1.3-1.8,2.3-3.5,3.1-4.8c0.4-0.7,0.8-1.2,1-1.6c0.1-0.2,0.2-0.3,0.3-0.4l0.1-0.1l0,0l0,0l0,0l0,0
	l0,0l-0.4-0.3l0.4,0.3l0.4-0.7l-0.8-0.1l0,0h0l0,0h0l0,0c0,0,0,0,0,0c0,0,0,0,0,0c-0.1,0-0.2,0-0.3,0c-0.3,0-0.6-0.1-1.1-0.2
	c-1-0.2-2.3-0.7-3.9-1.4c-3.1-1.4-7.1-4.1-10.7-8.7l0.1-0.1l-0.2-0.4l-0.6-1.4c9.5-13.8,21.1-18.7,30.2-20.2
	c4.6-0.8,8.6-0.6,11.5-0.3c1.4,0.2,2.6,0.4,3.3,0.5c0.4,0.1,0.6,0.1,0.8,0.2c-0.4,1.1-0.9,2.4-1.5,3.8l0,0
	c-1.4,3.3-3.5,8.2-5.2,12.4c-0.8,2.1-1.6,3.9-2.1,5.3c-0.3,0.7-0.5,1.2-0.6,1.6l-0.2,0.4l0,0.1l0,0l0,0l0,0v0c0,0,0,0,0.5,0.2
	l-0.5-0.2l-0.3,0.8l0.8-0.1c10.8-1,18.1-3,22.9-5.3c4.9-2.3,7.3-5.1,8.4-7.7c1.1-2.7,0.7-5.2,0.1-7.1c-0.3-0.9-0.7-1.7-1-2.2
	c-0.1-0.3-0.3-0.5-0.4-0.6c0,0,0,0,0-0.1c3.6-0.1,8.5,1.2,13.9,3.2c5.7,2.1,13.3,4.6,19.1,7.7c5.9,3.1,10.1,6.9,14.3,9.6
	c2.1,1.3,3.9,2.5,5.3,3.5c1.4,1,2.3,1.7,2.7,2.1h0c0.7,0.7,1,1.5,1,2.2c0,0.8-0.3,1.5-0.8,2.3c-0.4,0.7-0.9,1.3-1.4,1.8
	c-0.2,0.2-0.3,0.3-0.4,0.4l-6-4.2l-0.2-0.1l-0.2,0.1c-4.3,1.4-8,4.9-12.3,7.9c-1.6,1.5-2.5,3.1-3.3,4.1L296.4,228.2z M210.3,226.8
	C210.3,226.7,210.3,226.7,210.3,226.8L210.3,226.8z"/>
<path class="st10" d="M454,255.3c18.2,0,32.9-14.7,32.9-32.9c0-18.2-14.7-32.9-32.9-32.9c-18.2,0-32.9,14.7-32.9,32.9
	C421.1,240.6,435.8,255.3,454,255.3z"/>
<path class="st11" d="M462.9,204.9c0.1,1.8,1.1,6.8,2.1,8.3c0.5,0.7,0.8,1.4,1.1,2c0.6,1.3-0.3,2.8-1.8,2.8h-0.6v8.2h-6.7
	c0,7.7,8.3,10.1,8.3,10.1c4.7-0.4,9.5-0.3,13.9,0.9"/>
<path class="st12" d="M460.9,213.2c0,0.3-0.3,0.6-0.6,0.6s-0.6-0.3-0.6-0.6c0-0.3,0.3-0.6,0.6-0.6S460.9,212.8,460.9,213.2z"/>
<path class="st11" d="M445.5,234.7c11.2,3,14.8-0.8,14.8-0.8"/>
<path class="st11" d="M445.5,240.8c12.7,2.4,20-4.6,20-4.6"/>
<path class="st11" d="M429.1,244c7-5.8,7-6.2,14.1-7c6.5-3.6,5.1-15.6,5.1-15.6"/>
<path class="st11" d="M448.1,238.4c1.1-1.7,1.1-3.1,1.1-3.1"/>
<path class="st13" d="M439.4,210.8c-63.3,47.8,98.5-46.1,21.9-13.8L439.4,210.8z"/>
<path class="st11" d="M439.4,210.8c-63.3,47.8,98.5-46.1,21.9-13.8"/>
<path class="st11" d="M459.2,200.9c-13.1,9.3-19.8,9.9-19.8,9.9s-3.8-27.8,24.8-12.4"/>
<path class="st11" d="M443.4,204.1c9.8-4.1,13.7-8.8,13.7-8.8"/>
<path class="st14" d="M441.4,216.9c-0.9,13.8,3.4,9.9,10.2,9.3c4.6-0.4,4.8-14.6,6.6-18"/>
<defs>
	
		<filter id="Adobe_OpacityMaskFilter_00000132808396364385782090000008457003535017642132_" filterUnits="userSpaceOnUse" x="440.3" y="207.7" width="18.8" height="20.4">
		<feColorMatrix  type="matrix" values="1 0 0 0 0  0 1 0 0 0  0 0 1 0 0  0 0 0 1 0"/>
	</filter>
</defs>
<mask maskUnits="userSpaceOnUse" x="440.3" y="207.7" width="18.8" height="20.4" id="path-22-inside-3_191_7102_00000014613220755269381120000006749972297385372300_">
	
		<path style="fill-rule:evenodd;clip-rule:evenodd;fill:#FFFFFF;filter:url(#Adobe_OpacityMaskFilter_00000132808396364385782090000008457003535017642132_);" d="
		M441.4,216.9c-0.9,13.8,3.4,9.9,10.2,9.3c4.6-0.4,4.8-14.6,6.6-18"/>
</mask>
<path class="st16" d="M451.7,226.2l-0.1-1h0L451.7,226.2z M440.4,216.8c-0.2,3.5-0.1,5.9,0.3,7.6c0.4,1.8,1.3,2.9,2.6,3.4
	c1.2,0.4,2.6,0.3,3.9,0c1.4-0.2,2.9-0.6,4.5-0.7l-0.2-2c-1.8,0.2-3.4,0.5-4.7,0.8c-1.4,0.2-2.3,0.3-2.9,0.1c-0.5-0.2-1-0.6-1.3-2
	c-0.3-1.4-0.5-3.6-0.2-7L440.4,216.8z M451.8,227.2c1.7-0.2,2.8-1.6,3.5-3.1c0.7-1.6,1.3-3.6,1.7-5.6c0.4-2,0.8-4.2,1.1-5.9
	c0.4-1.8,0.7-3.2,1-3.9l-1.8-0.9c-0.5,1-0.9,2.7-1.3,4.5c-0.4,1.9-0.7,3.9-1.1,5.9c-0.4,2-0.9,3.8-1.5,5.1c-0.7,1.4-1.3,1.9-1.9,1.9
	L451.8,227.2z"/>
<path class="st11" d="M459.2,220.9c0,0,0.9,1.5,3.4,1.4"/>
<path class="st17" d="M476.6,277.1l-24.2-18.4l24.8-32.7l24.2,18.4L476.6,277.1z"/>
<path class="st11" d="M469.2,246.1l15.1,11.5"/>
<path class="st11" d="M466.5,249.6l15.1,11.5"/>
<path class="st11" d="M463.8,253.1l15.1,11.5"/>
<path class="st11" d="M478.5,234l15,11.4"/>
<path class="st11" d="M476.1,237.2l15,11.4"/>
<path class="st11" d="M460.8,257.2l4.7,3.6"/>
<path class="st10" d="M33.9,260.7c18.2,0,32.9-14.7,32.9-32.9c0-18.2-14.7-32.9-32.9-32.9S1,209.6,1,227.8
	C1,246,15.7,260.7,33.9,260.7z"/>
<path class="st12" d="M39.9,226.8c0,0.2-0.2,0.4-0.4,0.4c-0.2,0-0.4-0.2-0.4-0.4s0.2-0.4,0.4-0.4C39.8,226.4,39.9,226.6,39.9,226.8z
	"/>
<path class="st11" d="M30.5,240c1.3,3.8-0.8,6-1.4,7.9c0,0-8.5,0-13.8,7.1"/>
<path class="st18" d="M43.8,222.4c0.3,2.5,2.1,6.4,3,7.9c0.2,0.2,0,0.6-0.3,0.6H45c1.7,9.5-1.1,7.4-4.1,7.8
	c-1.8,5.9-1.8,8.9-0.3,11.3c0,0,2,2.1,3.9,3.1"/>
<path class="st18" d="M39,232.4c0.9,1.8,3,1.8,4.1,1.1"/>
<path class="st12" d="M40.8,222.1c-1.7,0.1-3.5,0.4-5.2,1.1l0.1-2.7l0.1-1.9l-1,1.6c0,0,0,0,0,0c0,0,0,0,0,0c0,0-0.1,0.1-0.1,0.1
	c0,0,0,0-0.1,0.1c-0.1,0.1-0.3,0.3-0.5,0.5c-0.4,0.4-0.8,1.1-1.1,1.8c-0.7,1.6-0.9,3.8,0.7,6.3l0.1,0.3c0.7,1.3,1.7,2.4,2.8,3.5l0,0
	c1.1,1.1,1.5,2.9,0.9,4.5c-0.6,1.5-2.3,2.8-5.5,2.8h-9.5c-4,0-6.3-1.6-7.2-3.5c-0.9-1.9-0.6-4.3,0.7-5.9c2.1-2.6,3.9-5.5,5-8.7l0,0
	c1.5-4.4,4-8.1,8.2-9.3h0c3.2-0.9,5.9-0.9,8-0.5l0.3,0.1l0.2-0.2c2.4-2.4,4.5-2.9,6.1-2.5c1.7,0.5,3,1.9,3.9,3.8
	c0.9,1.9,1.2,4,0.9,5.7c-0.2,0.8-0.5,1.5-1,2c-0.4,0.4-1,0.7-1.7,0.8l-0.2,0c-0.4,0-0.9,0-1.5,0c-0.2,0-0.4,0-0.6,0
	C42.7,222.1,41.8,222.1,40.8,222.1z"/>
<path class="st17" d="M56.5,282.5l-24.2-18.4l24.8-32.7l24.2,18.4L56.5,282.5z"/>
<path class="st11" d="M49.1,251.5L64.2,263"/>
<path class="st11" d="M46.4,255l15.1,11.5"/>
<path class="st11" d="M43.8,258.5L58.8,270"/>
<path class="st11" d="M58.4,239.4l15,11.4"/>
<path class="st11" d="M56,242.6L71,254"/>
<path class="st11" d="M40.7,262.6l4.7,3.6"/>
<path class="st11" d="M38.7,256.9l-9.5-8.7"/>
<path class="st10" d="M222.4,66.8c18.2,0,32.9-14.7,32.9-32.9S240.6,1,222.4,1c-18.2,0-32.9,14.7-32.9,32.9S204.2,66.8,222.4,66.8z"
	/>
<path class="st17" d="M245,88.6l-24.2-18.4l24.9-32.7l24.2,18.4L245,88.6z"/>
<path class="st11" d="M237.6,57.6l15.1,11.5"/>
<path class="st11" d="M234.9,61.1L250,72.6"/>
<path class="st11" d="M232.3,64.6l15.1,11.5"/>
<path class="st11" d="M246.9,45.5l15,11.4"/>
<path class="st11" d="M244.5,48.7l15,11.4"/>
<path class="st11" d="M229.2,68.7l4.7,3.6"/>
<path class="st11" d="M231,37.4c-2.9,0.6-4.2-1.3-4.2-1.3"/>
<path class="st12" d="M229.7,28.2c0,0.4-0.3,0.8-0.8,0.8c-0.4,0-0.8-0.3-0.8-0.8c0-0.4,0.3-0.8,0.8-0.8
	C229.4,27.4,229.7,27.7,229.7,28.2z"/>
<path class="st11" d="M224.1,58.9c0,0-10,2.4-12.5-4.8c4.1-1.1,4.4-11,4.8-14.7c0-0.4,0.2-0.7,0.3-1.1"/>
<path class="st11" d="M231.3,55.9c-3.8-3.6-4.5-7-4.5-11.8c4.1,0.2,7-3.1,7-3.1l0.2-6.8c0,0,6.5,0.1,4.4-1.9c-2.1-2-3-4.7-3.7-9.9"
	/>
<path class="st19" d="M227.2,21.5c9.4-5,31-9.4,26.5-5.2c0,0-7.2,5.3-18.3,7.7c0,0,0.3-2.3-3.4-2.5
	C229.7,21.3,227.2,21.5,227.2,21.5z"/>
<path class="st20" d="M227.2,21.5c9.4-5,31-9.4,26.5-5.2c0,0-7.2,5.3-18.3,7.7c0,0,0.3-2.3-3.4-2.5
	C229.7,21.3,227.2,21.5,227.2,21.5"/>
<path class="st20" d="M236.4,17.8c0,0-4-5-14.8-5.8c0,0-13.7,6.9-7.5,17.6c0,0,7.1-12.7,23.8-6.3"/>
<path class="st12" d="M220.9,28c-0.1,0-0.2,0-0.2,0c-0.5,0-1.2,0.1-1.8,0.5c-0.7,0.4-1.3,0.9-1.6,1.9c-0.4,0.9-0.5,2.2-0.2,3.9
	c0.2,1.6,0.2,2.6-0.1,3.3c-0.2,0.7-0.6,1.1-1.1,1.3c-0.5,0.2-1.1,0.3-1.7,0.3c-0.3,0-0.6,0-1,0c0,0-0.1,0-0.1,0c-0.3,0-0.6,0-0.8,0
	c-0.1,0-0.3-0.1-0.4-0.3c-0.2-0.2-0.4-0.5-0.6-0.9c-0.3-0.8-0.5-2-0.5-3.1c0-1.2,0.3-2.3,0.9-3.2c0.6-0.9,1.4-1.5,2.6-1.7l0.2,0
	l0.1-0.2l0,0v0v0l0,0l0,0c0,0,0,0,0-0.1c0-0.1,0.1-0.1,0.2-0.2c0.1-0.2,0.4-0.5,0.7-0.9c0.6-0.7,1.4-1.7,2.4-2.6
	c1.5-1.4,3.5-2.8,5.6-3.4c-0.2,0.1-0.3,0.3-0.5,0.4C221.9,24,220.8,25.7,220.9,28z"/>
<path class="st20" d="M221.6,11.9c0,0-4.7,6.5-3,10.3"/>
<path class="st11" d="M201.5,59.3c0,0,3.4-4.7,10.1-5.2"/>
<path class="st10" d="M373.2,131.2c18.2,0,32.9-14.7,32.9-32.9c0-18.2-14.7-32.9-32.9-32.9c-18.2,0-32.9,14.7-32.9,32.9
	C340.3,116.5,355,131.2,373.2,131.2z"/>
<path class="st17" d="M395.8,152.9l-24.2-18.4l24.9-32.7l24.2,18.4L395.8,152.9z"/>
<path class="st11" d="M388.4,122l15.1,11.5"/>
<path class="st11" d="M385.7,125.5l15.1,11.5"/>
<path class="st11" d="M383.1,129l15.1,11.5"/>
<path class="st11" d="M397.7,109.9l15,11.4"/>
<path class="st11" d="M395.3,113l15,11.4"/>
<path class="st11" d="M380,133.1l4.7,3.6"/>
<path class="st12" d="M379.7,87.4c0,0.2-0.1,0.3-0.3,0.3s-0.3-0.1-0.3-0.3c0-0.2,0.1-0.3,0.3-0.3S379.7,87.2,379.7,87.4z"/>
<path class="st12" d="M371,106.8c-0.1,0-0.1,0-0.2,0c-0.4,0-0.9,0.1-1.5,0.2c-1.3,0.1-3.1,0.2-5.1,0.3c-4,0.1-8.9-0.2-12.6-1.6
	c-1.8-0.7-3.3-1.7-4.2-3c-0.9-1.3-1.3-2.9-0.8-5.1c0.5-2.2,1.7-4.9,4.2-8.2c2.4-3.3,6-7.3,11-11.9l0.1-0.1l0-0.2v0v0v0l0,0l0,0
	c0,0,0-0.1,0-0.1c0-0.1,0-0.3,0.1-0.5c0.1-0.5,0.2-1.1,0.4-2c0.4-1.6,0.9-3.8,1.9-5.9c1.9-4.2,5.2-8.2,10.7-7.8L371,106.8z
	 M371,106.8c0.2-0.9,0.4-2.3,0.6-3.6c0.1-0.8,0.1-1.5,0.2-2.1c0-0.6,0-1.1,0-1.3v0c-0.1-0.6-0.1-1.4-0.1-2c0-0.3,0-0.6,0-0.7
	c0-0.1,0-0.2,0-0.2l0-0.1l0,0v0v0l0,0v0c0,0,0,0,0.5,0.1L371,106.8z M372.1,96.3L372.1,96.3L372.1,96.3L372.1,96.3
	C372.1,96.3,372.1,96.2,372.1,96.3c0.1,0,0.2-0.1,0.3-0.1c0.2-0.1,0.4-0.2,0.7-0.4c0.6-0.3,1.2-0.9,1.7-1.5c0.5-0.7,0.8-1.5,0.7-2.5
	c-0.1-1-0.7-2.3-2-3.9c-0.6-0.6-0.9-1.2-0.9-1.9c0-0.6,0.2-1.2,0.6-1.6c0.4-0.4,0.9-0.7,1.6-1c0.6-0.3,1.3-0.5,2-0.6
	c1.4-0.3,3-0.5,4.2-0.6c0.6,0,1.1-0.1,1.5-0.1c0.2,0,0.3,0,0.4,0c0,0,0,0,0,0c1.7-0.8,3.1-2.4,4-4.4c0.9-2.1,1.4-4.6,1-7
	c-0.3-2.4-1.4-4.8-3.4-6.6c-2-1.8-5.1-3.1-9.3-3.4L372.1,96.3z M372.1,96.3L372.1,96.3L372.1,96.3z"/>
<path class="st18" d="M377.7,92.8c1.1,2.3,3.7,2.2,5.1,1.4"/>
<path class="st18" d="M386.3,115.5c-13.9,12.6-27.4-1.6-27.4-1.6s-2.1-1.1,2.9-3.1c0,0,8.3,10.3,22.5,1.7c-1.8-1-3.8-3-3.8-3
	c-1.5-2.4-1.5-5.2,0.3-10.8c2.8-0.3,5.5,1.6,3.9-7.4h1.3c0.3,0,0.5-0.3,0.3-0.5c-0.8-1.4-3.5-7-3.8-9.4"/>
<path class="st10" d="M87.8,131.5c18.2,0,32.9-14.7,32.9-32.9c0-18.2-14.7-32.9-32.9-32.9c-18.2,0-32.9,14.7-32.9,32.9
	C54.9,116.7,69.6,131.5,87.8,131.5z"/>
<path class="st21" d="M92.3,73.4c-2.9,8.2-4.6,13.8-6.7,12.1c0,0-1.8-1.1-2.7,0.6c-0.8,1.3-0.3,2.8-0.1,3.2
	c-3.2,7.2,3.1,17.9,1,19.3c-2.1,1.3-11.1,3.9-12.1-5.5c-1-9.4-0.5-33.5,17.2-32.2C93,71.2,92.3,73.4,92.3,73.4L92.3,73.4z"/>
<path class="st11" d="M91.6,95.3c3,2.3,6,0.9,6,0.9"/>
<path class="st11" d="M94.9,87.1c1.4,0,2.5-1.5,2.5-3.3c0-1.8-1.1-3.3-2.5-3.3c-1.4,0-2.5,1.5-2.5,3.3
	C92.4,85.6,93.5,87.1,94.9,87.1z"/>
<path class="st11" d="M100.1,87.1c1.4,0,2.5-1.5,2.5-3.3c0-1.8-1.1-3.3-2.5-3.3c-0.3,0-0.7,0.1-1,0.3L98.9,81
	c0.5,4.4,2.2,8.2,3.5,10.1c0.6,0.9,0.1,2.2-1,2.4l-2,0.3l0.3,7.1c0,0-4.7,3.2-13.4-0.5"/>
<path class="st11" d="M95.2,83.8L93,81.7"/>
<path class="st11" d="M99.8,85.2c-1.4-0.4-3,0.2-3,0.2"/>
<path class="st11" d="M94,74.5c3.9,0.9,5,6.4,5,6.4"/>
<path class="st12" d="M92,102.3c1.8,0.3,3.5,0.2,5.2-0.1c0.7,1.6,1.4,2.9,2,3.9c0.2,0.3,0.3,0.5,0.5,0.8c0.1,0.2,0.3,0.4,0.4,0.6
	c0.2,0.4,0.4,0.7,0.5,0.9c0.1,0.1,0.1,0.2,0.1,0.2c0,0-0.1,0-0.2,0.1c-0.2,0.1-0.6,0.1-1.1,0.1c-0.5,0-1.2,0-2-0.1
	c-1.6-0.1-2.7-0.6-3.5-1.2c-0.8-0.6-1.2-1.5-1.5-2.3c-0.3-0.8-0.4-1.7-0.4-2.3C92,102.7,92,102.5,92,102.3z M100.7,108.6
	C100.7,108.6,100.7,108.6,100.7,108.6C100.7,108.6,100.7,108.6,100.7,108.6z"/>
<path class="st11" d="M105.6,112.4c-1.5-1.8-3.8-3.4-7.2-4"/>
<path class="st11" d="M74.6,107c0,0-10.5,5.2-11.3,13.4"/>
<path class="st11" d="M94.6,107.9c0,0,0.8,5.5-1.6,8.4c-2.4,2.9-12.6-8.4-12.6-8.4"/>
<path class="st17" d="M110.4,153.2l-24.2-18.4l24.8-32.7l24.2,18.4L110.4,153.2z"/>
<path class="st11" d="M103,122.2l15.1,11.5"/>
<path class="st11" d="M100.3,125.7l15.1,11.5"/>
<path class="st11" d="M97.6,129.3l15.1,11.5"/>
<path class="st11" d="M112.3,110.1l15,11.4"/>
<path class="st11" d="M109.9,113.3l15,11.4"/>
<path class="st11" d="M94.5,133.3l4.7,3.6"/>
<path class="st11" d="M189.7,368.9c3.9-25.8,2.5-18.2,5.2-32.8c2.6-14.2,4.3-22.2,4.3-22.2"/>
<path class="st11" d="M295.1,371.7c1.8-15.4-3-37.9-7.6-43.8c-6.8-8.8-11.9-11.1-11.9-11.1s-9.1-26.7,0-39.8
	c21.4-30.8,15.9-44.3,15.9-44.3"/>
<path class="st11" d="M226.4,353c0,0,0.2,0.6,0.5,1.8c1,3.9,3.5,12.4,7.3,26.6"/>
<path class="st11" d="M313.8,214.3c0,0,33.2,21.8,37.8,29.1c16.4,26-63.2,49.9-62.4,66.6c0,0,4.2,1.5,8.3-2.2
	c2.4-2.2,7.5-0.8,2.5,5.2"/>
<path class="st11" d="M302.4,316.8c5.6-2.6,5.9-10.8,1.9-6.6c0,0-5.5,5.1-14.5,4.6"/>
<path class="st11" d="M337.6,242.3c-41.5,21.7-61.8,61.6-61.8,61.6c-2.6,21,18.2,24.2,24.6,24.1c11.3-0.2,18.2-7.9,12.3-6.3
	c-5.9,1.6-12.3-0.3-12.3-0.3c13.9-2.4,13-6,7.5-5.3c-9.5,1.2-10.3,2.4-13.4,2.2c0,0-6.5-1.1-5.3-8.3"/>
<path class="st11" d="M297,228.3c0,0,13.6,13.3,31.3,18.9"/>
<path class="st11" d="M320.6,218.2c9.9-15-20.9-0.7-24.7,12.6c-2.9,10.2,9.2,4.2,9.2,4.2"/>
<path class="st11" d="M270.9,215c0,0,16.2,15.4,25.6,21.1"/>
<path class="st11" d="M322,212.2c0,0-26.8-24.3-56-26.8"/>
<path class="st11" d="M275.6,316.8c-46.4,22-76.4-2.9-76.4-2.9s9.5-34.9,10.5-61.2"/>
<path class="st11" d="M223.1,198.1c-0.8,14.3-11,23-18.2,38.7c-4.1,8.8-0.2,21.2,19.6,18.1"/>
<path class="st11" d="M246,183.4c-32.1-6.3-46.8,20.4-46.8,20.4s3.2,8.1,17.6,12.5"/>
<path class="st11" d="M272.6,254.1c-9.7,9.8-24.7,4.9-28.4,0"/>
<path class="st11" d="M132.6,192.5c0,10,11.7,38.7,16.6,49.7c2,4.5,6,7.8,10.8,8.6c16.3,2.7,37.7-15.4,53.3-28.9"/>
<path class="st11" d="M264.2,160.7c-4.8,6.3,0.5,20.6,1.8,24.6c0,0,13.5,18.2-29.6,22.3c0,0,5.3-13.3,8.2-19.8
	c2.9-6.5,3.3-8.9-0.7-21.6c-4.2-0.4-10.6,6.3-7-14.2l-4.8-1.2c-0.6,0-1-0.7-0.7-1.2c1.9-3.1,8-20.2,8.7-25.6"/>
<path class="st22" d="M262.1,105.6c-10-2.6-20.3,0.6-22.7,8.7c-2.6,9,0.7,9.8,0.7,9.8c17-7.6,16.4,13.3,16.4,13.3s10.3-2.4,5,7.3
	c0,0,5.3,11.2,2.6,16c0,0,27,3.1,17.8-35.1c-0.5-1.9-1.1-3.7-1.9-5.3c0,0,0,0,0-0.1c-2.8-2.8-5.6-5.6-8.4-8.5
	C268.5,109.7,265.3,107.7,262.1,105.6z"/>
<path class="st22" d="M265.9,97.3c-12.5-34,23.8-25.9,40.9,7.4c13.3,25.9-9.3,18-22.8,11.6C284.1,116.3,285.3,106.1,265.9,97.3z"/>
<path class="st11" d="M286.7,114.1c-5.7-14.3-18.5-18.2-18.5-18.2c-6,4.2-7.8,8.8-7.8,8.8s15.3,7.9,19.6,15.6L286.7,114.1z"/>
<path class="st12" d="M247.9,138.8c0,0.8-0.7,1.5-1.5,1.5c-0.8,0-1.5-0.7-1.5-1.5c0-0.8,0.7-1.5,1.5-1.5
	C247.2,137.4,247.9,138,247.9,138.8z"/>
<path class="st12" d="M232.8,138.3c0,0.8-0.7,1.5-1.5,1.5c-0.8,0-1.5-0.7-1.5-1.5c0-0.8,0.7-1.5,1.5-1.5
	C232.2,136.9,232.8,137.5,232.8,138.3z"/>
<path class="st11" d="M247.2,154.4c-1.8,3.9-6.4,3.9-8.5,3.9"/>
<path class="st14" d="M237.7,132.4c-8.8-16.6,6.6-25.3,6.6-25.3l0.8,12L240,125l-2.4,7.8"/>
<path class="st11" d="M165.5,230.4c26.3-20.2,34.4-25.2,34.4-25.2"/>
<path class="st11" d="M131.7,172.4c3.8-6.8,4.7-20.3,9.1-17.5c2.5,1.6,0.5,15.6,0.4,17.9c0,0.7-0.2,1.3-0.2,1.9
	c0.4,3.6,0.9,6.7,1.2,7.7c11.8,17.2,24.4,51.6,24.4,51.6"/>
<path class="st11" d="M132,169.8c-12.4-5.7-14.5,3.9-16.3,11.4c-1.8,8.1,0.2,11.6,5.5,12.4c11.5,1.8,12.5-1.7,13.1-4.9"/>
<path class="st11" d="M121.4,187.9c0,0,14.8,3,12.7-4.4"/>
<path class="st11" d="M122.6,181.8c0,0,14.8,3,12.7-4.4"/>
<path class="st11" d="M125.6,176c7.9,1.8,9-1,9-1"/>
<path class="st23" d="M265.7,184.7c-0.1-0.3-0.5-1.5-1-3.2C265.1,182.7,265.5,183.8,265.7,184.7z"/>
<path class="st24" d="M141.8,180.1c21.2-30,55-50.5,93.7-53.7"/>
<path class="st24" d="M283.9,131.7c52,16.1,89.8,64.6,89.8,121.9c0,70.4-57.1,127.5-127.5,127.5S118.6,324,118.6,253.6
	c0-20.2,4.7-39.4,13.1-56.4"/>
</svg>
