<svg width="100" height="109" viewBox="0 0 100 109" fill="none" xmlns="http://www.w3.org/2000/svg">
<g filter="url(#filter0_d_191_4408)">
<path d="M82.2008 37.5165H13.7993C10.5964 37.5165 8 40.1129 8 43.3157V90.8498C8 94.0527 10.5964 96.6491 13.7993 96.6491H82.2008C85.4036 96.6491 88 94.0527 88 90.8498V43.3157C88 40.1129 85.4036 37.5165 82.2008 37.5165Z" fill="white"/>
<path d="M69.9579 83.8117L79.8711 73.8984L79.0533 73.0806L69.14 82.9938L69.9579 83.8117ZM65.6208 80.2925L69.14 83.8117L69.9579 82.9938L66.4387 79.4746L65.6208 80.2925ZM69.5366 83.3904L69.1152 83.8117L69.5366 84.233L69.9579 83.8117L69.5366 83.3904Z" fill="#293B4A"/>
<path d="M69.5118 73.4774C70.8748 73.527 72.2131 73.9483 73.3779 74.6918L73.9975 73.7252C72.6592 72.8578 71.1227 72.3869 69.5365 72.3374L69.487 73.5022L69.5118 73.4774ZM65.5712 74.3944C66.7856 73.7252 68.1487 73.403 69.5118 73.4774L69.5613 72.3126C67.9752 72.2382 66.4139 72.6348 65.026 73.3782L65.5712 74.3944ZM62.6468 77.1949C63.3408 76.0053 64.3569 75.0387 65.5712 74.3944L65.026 73.3782C63.6382 74.1465 62.4733 75.2618 61.6803 76.6001L62.6716 77.1949H62.6468ZM61.5812 81.1106C61.5812 79.7475 61.9529 78.3844 62.6468 77.1949L61.6555 76.6001C60.8377 77.9631 60.4163 79.5245 60.4163 81.0858H61.5812V81.1106Z" fill="#293B4A"/>
<path d="M62.399 84.5301C61.8786 83.4644 61.6059 82.2996 61.5812 81.11H60.4163C60.4163 82.4731 60.7385 83.8362 61.3581 85.0506L62.399 84.5301ZM64.6295 87.2315C63.6877 86.5128 62.9194 85.5958 62.399 84.5301L61.3581 85.0506C61.9777 86.2649 62.8451 87.3306 63.9356 88.1485L64.6295 87.2315ZM67.8265 88.6441C66.6617 88.4211 65.5712 87.9502 64.6295 87.2315L63.9356 88.1485C65.026 88.9663 66.2899 89.5115 67.6282 89.7594L67.8513 88.6193L67.8265 88.6441ZM71.3209 88.4706C70.1809 88.7928 68.9913 88.8424 67.8265 88.6441L67.6282 89.7841C68.9665 90.032 70.3544 89.9576 71.6431 89.5859L71.3209 88.4706ZM74.3693 86.7606C73.5018 87.5537 72.461 88.1485 71.3209 88.4706L71.6431 89.5859C72.9566 89.2141 74.1462 88.5202 75.1623 87.6032L74.3693 86.7358V86.7606ZM76.3519 83.861C75.9306 84.9762 75.2615 85.9675 74.3693 86.7606L75.1623 87.628C76.1784 86.711 76.9467 85.571 77.4424 84.3071L76.3519 83.8858V83.861ZM76.8228 80.3913C76.9467 81.5809 76.7732 82.7457 76.3519 83.861L77.4424 84.2823C77.938 83.0183 78.1115 81.6553 77.9876 80.2922L76.8228 80.3913ZM75.7075 77.0704C76.3271 78.0617 76.7237 79.2017 76.8228 80.3913L77.9876 80.2922C77.8637 78.9291 77.4176 77.6156 76.6989 76.4756L75.7075 77.0952V77.0704Z" fill="#293B4A"/>
<path d="M49.5365 62.7211C64.4557 62.7211 76.5502 50.6045 76.5502 35.6579C76.5502 20.7113 64.4557 8.59473 49.5365 8.59473C34.6173 8.59473 22.5229 20.7113 22.5229 35.6579C22.5229 50.6045 34.6173 62.7211 49.5365 62.7211Z" fill="white"/>
<path d="M21.9281 35.658C21.9281 50.9244 34.2949 63.316 49.5365 63.316V62.1512C34.9393 62.1512 23.0929 50.2801 23.0929 35.658H21.9281ZM49.5365 8C34.2701 8 21.9281 20.3916 21.9281 35.658H23.0929C23.0929 21.0112 34.9145 9.16481 49.5365 9.16481V8ZM77.145 35.658C77.145 20.3916 64.7782 8 49.5365 8V9.16481C64.1338 9.16481 75.9802 21.0359 75.9802 35.658H77.145ZM49.5365 63.316C64.7782 63.316 77.145 50.9244 77.145 35.658H75.9802C75.9802 50.2801 64.1338 62.1512 49.5365 62.1512V63.316Z" fill="#293B4A"/>
<path d="M51.7918 51.7424C52.7832 53.2294 54.1958 54.3694 55.8315 55.0138L56.2528 53.9481C54.8154 53.3781 53.601 52.3868 52.7584 51.1228L51.7918 51.7672V51.7424ZM50.3296 46.761C50.3049 48.5206 50.8005 50.2802 51.7918 51.7424L52.7584 51.0981C51.891 49.8341 51.4697 48.3223 51.4944 46.7858H50.3296V46.761ZM56.005 46.1662H50.8996V47.331H56.005V46.1662ZM55.435 40.4909V46.761H56.5998V40.4909H55.435ZM56.4759 39.9209H56.0298V41.0857H56.4759V39.9209ZM56.922 39.7969C56.798 39.8713 56.6246 39.9209 56.4759 39.9209V41.0857C56.8228 41.0857 57.1698 40.9865 57.492 40.8378L56.922 39.8217V39.7969ZM57.2441 39.4995C57.2441 39.4995 57.0459 39.7226 56.922 39.7969L57.492 40.813C57.7894 40.6396 58.062 40.4165 58.2602 40.0943L57.2689 39.4748L57.2441 39.4995ZM57.3928 39.0534C57.3928 39.2021 57.3433 39.3508 57.2441 39.4995L58.2107 40.1191C58.3842 39.8217 58.5081 39.4995 58.5329 39.1278L57.3681 39.0534H57.3928ZM57.3185 38.6073C57.3928 38.7313 57.4176 38.88 57.3928 39.0534L58.5576 39.1278C58.5576 38.7808 58.5081 38.4091 58.3594 38.0869L57.3185 38.5826V38.6073ZM56.4759 37.1204C56.798 37.5912 57.0707 38.0869 57.3185 38.5826L58.3594 38.0869C58.0868 37.5169 57.7894 36.9717 57.4424 36.4512L56.4759 37.0956V37.1204ZM55.0136 33.0311C55.1128 34.5181 55.6332 35.9308 56.4759 37.1451L57.4176 36.476C56.6989 35.4351 56.2528 34.2207 56.1537 32.9568L54.9889 33.0311H55.0136ZM50.9244 46.7362V46.1662H50.3544V46.7362H50.9244ZM56.0298 46.7362V47.3062H56.5998V46.7362H56.0298ZM56.0298 40.4661V39.8961H55.4597V40.4661H56.0298Z" fill="#293B4A"/>
<path fill-rule="evenodd" clip-rule="evenodd" d="M55.8067 33.3533C55.8067 33.3533 50.4535 32.015 49.9083 34.7659C49.3631 37.5168 51.6183 42.8948 49.9083 39.9208C48.1983 36.9716 45.2986 36.7486 44.7782 38.6073C44.7782 38.6073 46.3395 44.2331 43.9108 44.6544C41.7547 42.3248 39.7472 39.8712 37.8389 37.3186C34.5428 32.4859 36.5502 19.2764 47.2069 20.9121C46.3891 22.2504 43.1921 23.7374 42.6964 23.7126C44.9765 23.7126 46.86 22.523 48.4213 21.1104C49.9579 19.6978 51.0731 18.2851 51.9901 17.5168C54.171 15.7324 55.6828 15.559 56.1289 15.4846C68.9418 13.4028 59.772 31.7919 55.8067 33.3533Z" fill="#293B4A"/>
<path d="M53.3284 37.6655C53.7993 37.6655 54.171 37.2937 54.171 36.8229C54.171 36.352 53.7993 35.9802 53.3284 35.9802C52.8575 35.9802 52.4858 36.352 52.4858 36.8229C52.4858 37.2937 52.8575 37.6655 53.3284 37.6655Z" fill="#293B4A"/>
<path d="M50.8996 42.4982C51.4696 43.6878 52.461 44.2578 53.4523 44.4313C54.4436 44.6048 55.4597 44.3817 56.1537 43.9604L55.7076 43.2169C55.1871 43.5143 54.3941 43.7126 53.601 43.5639C52.8327 43.44 52.114 43.0187 51.6927 42.1017L50.8996 42.4734V42.4982Z" fill="#293B4A"/>
<path d="M42.0273 50.404C41.6803 50.5858 41.5068 50.6766 41.5068 50.6766C41.5068 50.6766 41.5068 50.7262 41.5564 50.751C41.5812 50.8006 41.6307 50.8997 41.7051 50.9988C41.829 51.1971 42.0273 51.4945 42.2751 51.8167C42.7708 52.461 43.539 53.2789 44.5056 53.9232C45.4969 54.5676 46.7113 55.0385 48.1487 54.9889C49.5861 54.9146 51.1475 54.295 52.8327 52.8823L52.0892 51.9901C50.5527 53.2789 49.2144 53.7745 48.0991 53.8241C46.9591 53.8737 45.9926 53.5019 45.1499 52.9567C44.3073 52.4115 43.663 51.6927 43.1921 51.098C42.969 50.8006 42.7955 50.5527 42.6716 50.3792C42.6221 50.2801 42.5725 50.2058 42.5477 50.181C42.5477 50.181 42.5477 50.1314 42.5229 50.1314C42.5229 50.1314 42.3495 50.2223 42.0025 50.404H42.0273ZM32.461 56.8724L42.3247 50.8997L41.7299 49.9084L31.8662 55.8811L32.461 56.8724ZM42.0273 50.404L42.5477 50.1314L42.2503 49.5862L41.7299 49.9084L42.0273 50.404Z" fill="#293B4A"/>
<path d="M23.5063 40.892C28.4885 39.7161 31.5741 34.724 30.3982 29.7418C29.2223 24.7597 24.2302 21.6741 19.248 22.85C14.2658 24.0259 11.1802 29.018 12.3561 34.0002C13.5321 38.9823 18.5242 42.0679 23.5063 40.892Z" fill="#5273FD"/>
<path d="M11.544 31.8659C11.544 37.3182 15.9554 41.7296 21.4077 41.7296V40.5648C16.5997 40.5648 12.7088 36.6738 12.7088 31.8659H11.544ZM21.4077 22.0022C15.9554 22.0022 11.544 26.4136 11.544 31.8659H12.7088C12.7088 27.058 16.5997 23.167 21.4077 23.167V22.0022ZM31.2714 31.8659C31.2714 26.4136 26.86 22.0022 21.4077 22.0022V23.167C26.2156 23.167 30.1066 27.058 30.1066 31.8659H31.2714ZM21.4077 41.7296C26.86 41.7296 31.2714 37.3182 31.2714 31.8659H30.1066C30.1066 36.6738 26.2156 40.5648 21.4077 40.5648V41.7296Z" fill="#293B4A"/>
<path d="M52.684 72.9318H37.715V74.0966H52.684V72.9318Z" fill="#293B4A"/>
<path d="M52.684 80.1193H31.2714V81.2841H52.684V80.1193Z" fill="#293B4A"/>
<path d="M52.684 87.306H20.1437V88.4708H52.684V87.306Z" fill="#293B4A"/>
</g>
<defs>
<filter id="filter0_d_191_4408" x="0" y="0" width="100" height="108.649" filterUnits="userSpaceOnUse" color-interpolation-filters="sRGB">
<feFlood flood-opacity="0" result="BackgroundImageFix"/>
<feColorMatrix in="SourceAlpha" type="matrix" values="0 0 0 0 0 0 0 0 0 0 0 0 0 0 0 0 0 0 127 0" result="hardAlpha"/>
<feOffset dx="2" dy="2"/>
<feGaussianBlur stdDeviation="5"/>
<feColorMatrix type="matrix" values="0 0 0 0 0 0 0 0 0 0 0 0 0 0 0 0 0 0 0.25 0"/>
<feBlend mode="normal" in2="BackgroundImageFix" result="effect1_dropShadow_191_4408"/>
<feBlend mode="normal" in="SourceGraphic" in2="effect1_dropShadow_191_4408" result="shape"/>
</filter>
</defs>
</svg>
