<svg width="142" height="123" viewBox="0 0 142 123" fill="none" xmlns="http://www.w3.org/2000/svg">
<g filter="url(#filter0_d_191_6303)">
<path d="M103.322 42.2028H25.1884C21.5314 42.2028 18.5669 45.1812 18.5669 48.8553V103.406C18.5669 107.08 21.5314 110.058 25.1884 110.058H103.322C106.979 110.058 109.943 107.08 109.943 103.406V48.8553C109.943 45.1812 106.979 42.2028 103.322 42.2028Z" fill="white"/>
<path d="M66.0027 71.1344C83.053 71.1344 96.872 57.224 96.872 40.0672C96.872 22.9104 83.053 9 66.0027 9C48.9523 9 35.1333 22.9104 35.1333 40.0672C35.1333 57.224 48.9523 71.1344 66.0027 71.1344Z" fill="white" stroke="#293B4A" stroke-miterlimit="10"/>
<path d="M72.9223 37.0336C73.0349 38.6102 73.5779 40.1203 74.4784 41.4109C74.8624 41.9764 75.2001 42.5685 75.4848 43.1871C75.6107 43.4466 75.6636 43.7393 75.6438 44.032C75.6239 44.3247 75.5312 44.6041 75.3789 44.8436C75.2266 45.0898 75.0081 45.2893 74.7565 45.429C74.5049 45.5687 74.2201 45.6419 73.9288 45.6419H73.4057V52.8266H67.5854C67.5523 54.7226 68.0953 56.5919 69.1481 58.1686C70.1943 59.7519 71.6974 60.9693 73.452 61.6745" stroke="#293B4A" stroke-miterlimit="10"/>
<path fill-rule="evenodd" clip-rule="evenodd" d="M73.1668 37.4195C73.1668 37.4195 67.0419 35.8761 66.4327 39.0294C65.8235 42.1827 68.3927 48.3496 66.4327 44.9568C64.4728 41.564 61.1753 41.3246 60.5595 43.4534C60.5595 43.4534 62.3406 49.9196 59.5596 50.3919C57.1097 47.7043 54.7988 44.8903 52.6269 41.9698C48.8527 36.4216 51.1437 21.2606 63.3405 23.1366C62.4002 24.68 58.765 26.383 58.189 26.3564C60.7912 26.3564 62.9564 24.986 64.7177 23.3561C66.4791 21.7263 67.7504 20.1097 68.8032 19.2449C71.2995 17.1892 73.0078 17.003 73.5376 16.9231C88.171 14.5282 77.6892 35.65 73.1668 37.4195Z" fill="#293B4A"/>
<path d="M70.3398 42.3756C70.8761 42.3756 71.3065 41.9432 71.3065 41.4044C71.3065 40.8655 70.8761 40.4331 70.3398 40.4331C69.8034 40.4331 69.373 40.8655 69.373 41.4044C69.373 41.9432 69.8034 42.3756 70.3398 42.3756Z" fill="#293B4A"/>
<path d="M68.0225 47.6978C69.1614 50.0794 71.9358 49.9995 73.313 49.1746" stroke="#293B4A" stroke-linejoin="round"/>
<path d="M46.1719 63.8632L57.4284 57.0111C57.4284 57.0111 62.0436 65.6128 69.3736 59.3728" stroke="#293B4A" stroke-miterlimit="10"/>
<path d="M29.4405 71.986C40.7295 71.986 49.881 62.7916 49.881 51.4497C49.881 40.1079 40.7295 30.9135 29.4405 30.9135C18.1515 30.9135 9 40.1079 9 51.4497C9 62.7916 18.1515 71.986 29.4405 71.986Z" fill="#FFCC00" stroke="#253B4C" stroke-miterlimit="10"/>
<path d="M35.8155 44.7607C35.9448 43.5626 34.5524 42.4282 32.7055 42.227C30.8586 42.0257 29.2566 42.8338 29.1272 44.0319C28.9979 45.2299 30.3903 46.3643 32.2372 46.5656C34.0841 46.7668 35.6861 45.9587 35.8155 44.7607Z" fill="#293B4A"/>
<path d="M30.2578 47.8925C30.3872 46.6944 28.9948 45.56 27.1479 45.3588C25.301 45.1576 23.699 45.9656 23.5696 47.1637C23.4403 48.3618 24.8327 49.4962 26.6796 49.6974C28.5264 49.8987 30.1285 49.0906 30.2578 47.8925Z" fill="#293B4A"/>
<path d="M24.835 49.7078C25.7696 48.9525 25.5835 47.1612 24.4192 45.7069C23.2549 44.2525 21.5533 43.6858 20.6186 44.441C19.684 45.1963 19.8701 46.9876 21.0344 48.442C22.1988 49.8964 23.9003 50.4631 24.835 49.7078Z" fill="#293B4A"/>
<path d="M24.1325 45.8337C25.0472 45.0946 25.1608 43.7109 24.3861 42.7432C23.6114 41.7756 22.2419 41.5903 21.3271 42.3295C20.4124 43.0686 20.2989 44.4523 21.0736 45.42C21.8483 46.3877 23.2178 46.5729 24.1325 45.8337Z" fill="#293B4A"/>
<path d="M27.1692 46.1459C28.443 45.1166 28.6023 43.1914 27.5251 41.8458C26.4479 40.5002 24.542 40.2438 23.2683 41.2731C21.9945 42.3024 21.8352 44.2277 22.9124 45.5732C23.9896 46.9188 25.8955 47.1752 27.1692 46.1459Z" fill="#293B4A"/>
<path d="M32.3173 45.5261C33.6937 44.4139 33.8656 42.3333 32.7013 40.8789C31.537 39.4246 29.4774 39.1472 28.101 40.2594C26.7246 41.3716 26.5527 43.4522 27.7171 44.9066C28.8814 46.361 30.941 46.6383 32.3173 45.5261Z" fill="#293B4A"/>
<path d="M32.1767 47.2839C32.9875 46.3958 32.535 44.6531 31.166 43.3915C29.797 42.1298 28.0299 41.8269 27.2191 42.715C26.4083 43.6031 26.8608 45.3458 28.2298 46.6074C29.5988 47.8691 31.3659 48.172 32.1767 47.2839Z" fill="#293B4A"/>
<path d="M33.6859 44.7593C35.2298 43.7213 35.9406 42.0679 35.2735 41.0664C34.6064 40.0649 32.8141 40.0944 31.2701 41.1325C29.7262 42.1705 29.0154 43.8239 29.6825 44.8254C30.3496 45.8269 32.142 45.7974 33.6859 44.7593Z" fill="#293B4A"/>
<path d="M23.2154 48.7692C24.2761 48.0561 24.765 46.9211 24.3074 46.234C23.8497 45.547 22.6189 45.5682 21.5582 46.2813C20.4976 46.9944 20.0087 48.1295 20.4663 48.8165C20.9239 49.5035 22.1547 49.4824 23.2154 48.7692Z" fill="#293B4A"/>
<path d="M23.9776 51.4268C25.0383 50.7137 25.5272 49.5786 25.0696 48.8916C24.612 48.2046 23.3811 48.2257 22.3204 48.9389C21.2598 49.652 20.7709 50.787 21.2285 51.4741C21.6861 52.1611 22.9169 52.14 23.9776 51.4268Z" fill="#293B4A"/>
<path d="M22.7945 50.4514C23.8552 49.7382 24.3441 48.6032 23.8865 47.9162C23.4288 47.2291 22.198 47.2503 21.1373 47.9634C20.0767 48.6765 19.5878 49.8116 20.0454 50.4986C20.503 51.1856 21.7338 51.1645 22.7945 50.4514Z" fill="#293B4A"/>
<path d="M22.0171 48.4798C23.0778 47.7667 23.5667 46.6316 23.1091 45.9446C22.6515 45.2576 21.4207 45.2787 20.36 45.9919C19.2993 46.705 18.8104 47.84 19.268 48.5271C19.7256 49.2141 20.9565 49.1929 22.0171 48.4798Z" fill="#293B4A"/>
<path d="M28.6921 46.0182C29.8018 45.561 30.13 43.7904 29.4251 42.0635C28.7202 40.3367 27.2491 39.3075 26.1393 39.7648C25.0295 40.2221 24.7013 41.9927 25.4063 43.7195C26.1112 45.4463 27.5823 46.4755 28.6921 46.0182Z" fill="#293B4A"/>
<path d="M33.0626 52.8002C33.4027 52.8002 33.6784 52.5232 33.6784 52.1815C33.6784 51.8399 33.4027 51.5629 33.0626 51.5629C32.7225 51.5629 32.4468 51.8399 32.4468 52.1815C32.4468 52.5232 32.7225 52.8002 33.0626 52.8002Z" fill="#293B4A"/>
<path d="M26.0162 57.3971C26.0162 57.3971 26.6121 55.1019 27.7444 54.6296C27.7444 54.6296 24.9369 52.0618 27.7444 47.7975C30.5519 43.5332 22.7253 49.1213 22.7253 49.1213C22.7253 49.1213 21.209 53.5918 26.0096 57.3971H26.0162Z" fill="#293B4A"/>
<path d="M29.1083 52.2347C27.102 50.3054 26.2743 51.4364 26.665 52.7269C27.0557 54.0175 24.0562 52.3478 24.0562 52.3478L24.4799 48.5159L27.3205 46.8528L30.3532 50.8243C30.3333 51.9353 29.9493 52.4542 29.1083 52.2347Z" fill="#293B4A"/>
<path d="M35.2676 63.7501C38.969 63.9031 40.876 68.5466 40.876 68.5466" stroke="#293B4A" stroke-miterlimit="10"/>
<path d="M17.0981 67.5221C19.323 62.2932 23.8057 63.3842 23.8057 63.3842C31.7912 68.9857 37.9691 67.2826 35.2675 63.7501C35.241 63.7169 35.294 63.6703 35.2543 63.6703C34.5126 63.637 31.9832 62.393 31.9899 58.7208H35.6846V55.0353H36.0157C36.8037 55.0353 37.34 54.2104 37.0023 53.492C36.8302 53.1261 36.6183 52.7336 36.36 52.3544C35.7906 51.5295 35.4264 50.5782 35.3668 49.5803C35.3668 49.5803 35.0887 48.0968 34.4928 46.6C33.1023 43.1207 27.2489 42.0563 24.4215 45.2029C18.8727 51.3898 26.5602 57.9092 26.5602 57.9092C26.5602 57.9092 26.0371 62.0338 23.7991 63.3842" stroke="#293B4A" stroke-miterlimit="10"/>
<path d="M106.752 78.259C94.4626 78.259 84.5039 68.2537 84.5039 55.9066C84.5039 43.5596 94.4626 33.5542 106.752 33.5542C119.042 33.5542 129 43.5596 129 55.9066C129 68.2537 119.042 78.259 106.752 78.259Z" fill="#19AD4A" stroke="#293B4A" stroke-miterlimit="10"/>
<path d="M102.712 53.0528C103.1 53.0528 103.414 52.7371 103.414 52.3476C103.414 51.9582 103.1 51.6425 102.712 51.6425C102.324 51.6425 102.01 51.9582 102.01 52.3476C102.01 52.7371 102.324 53.0528 102.712 53.0528Z" fill="#293B4A"/>
<path d="M109.751 70.1963C109.288 68.6861 108.003 63.8963 109.083 61.0092" stroke="#293B4A" stroke-miterlimit="10"/>
<path d="M100.157 47.3715C99.905 49.3872 97.6471 54.1171 96.9386 55.2813C96.8194 55.4809 96.9584 55.7337 97.1902 55.7337H98.296C96.9452 63.3774 99.1965 61.7276 101.56 62.0003C103.05 66.7169 103.05 69.1584 101.805 71.1475C101.805 71.1475 100.157 72.8506 98.6271 73.6821" stroke="#293B4A" stroke-linejoin="round"/>
<path d="M103.19 56.9244C102.482 58.4146 100.747 58.3614 99.8862 57.8491" stroke="#293B4A" stroke-linejoin="round"/>
<path d="M106.348 50.1389L106.222 47.2384C106.421 47.5511 109.48 50.0924 107.11 54.0573C104.686 58.1286 106.54 63.0847 106.54 63.0847H119.684C119.684 63.0847 121.333 43.4997 111.242 40.6458C108.487 39.8675 106.216 39.8808 104.375 40.3065C104.362 40.3065 104.342 40.3065 104.329 40.3198C101.429 41.0982 99.7599 42.8677 98.813 44.5774C97.6477 46.653 97.5483 48.6421 97.5483 48.6421C103.216 48.0634 106.355 50.1456 106.355 50.1456L106.348 50.1389Z" fill="#293B4A"/>
<path d="M108.851 63.6302C100.164 63.6302 103.786 51.8154 110.897 57.6895L113.89 55.9066C123.141 48.2696 127.842 63.6302 116.552 63.6302H108.858H108.851Z" fill="#293B4A"/>
<path d="M92.7549 79.8557L70.7583 101.436H30.1885" stroke="#293B4A" stroke-miterlimit="10"/>
<path d="M82.5049 79.4966H92.9801V90.1007" stroke="#293B4A" stroke-miterlimit="10"/>
<path d="M54.1191 101.436L76.1157 79.8557" stroke="#293B4A" stroke-miterlimit="10"/>
<path d="M65.8721 79.4966H76.3406V90.1007" stroke="#293B4A" stroke-miterlimit="10"/>
<path d="M37.478 101.436L59.4746 79.8557" stroke="#293B4A" stroke-miterlimit="10"/>
<path d="M49.2324 79.4966H59.701V90.1007" stroke="#293B4A" stroke-miterlimit="10"/>
</g>
<defs>
<filter id="filter0_d_191_6303" x="0.5" y="0.5" width="141" height="121.558" filterUnits="userSpaceOnUse" color-interpolation-filters="sRGB">
<feFlood flood-opacity="0" result="BackgroundImageFix"/>
<feColorMatrix in="SourceAlpha" type="matrix" values="0 0 0 0 0 0 0 0 0 0 0 0 0 0 0 0 0 0 127 0" result="hardAlpha"/>
<feOffset dx="2" dy="2"/>
<feGaussianBlur stdDeviation="5"/>
<feColorMatrix type="matrix" values="0 0 0 0 0 0 0 0 0 0 0 0 0 0 0 0 0 0 0.25 0"/>
<feBlend mode="normal" in2="BackgroundImageFix" result="effect1_dropShadow_191_6303"/>
<feBlend mode="normal" in="SourceGraphic" in2="effect1_dropShadow_191_6303" result="shape"/>
</filter>
</defs>
</svg>
