<svg width="100" height="101" viewBox="0 0 100 101" fill="none" xmlns="http://www.w3.org/2000/svg">
<path d="M92.7536 26.3334H7.24638C3.24431 26.3334 0 29.5777 0 33.5798V93C0 97.0021 3.24431 100.246 7.24638 100.246H92.7536C96.7557 100.246 100 97.0021 100 93V33.5798C100 29.5777 96.7557 26.3334 92.7536 26.3334Z" fill="white"/>
<path d="M55.283 25.0652C55.283 35.1521 37.0221 63.2898 37.0221 63.2898C37.0221 63.2898 18.7612 35.1521 18.7612 25.0652C18.7612 14.9782 26.9351 6.80432 37.0221 6.80432C47.1091 6.80432 55.283 14.9782 55.283 25.0652Z" fill="#FFCD00" stroke="#293B4A" stroke-width="1.5" stroke-miterlimit="10"/>
<path d="M37.0217 37.9419C44.1134 37.9419 49.8623 32.193 49.8623 25.1013C49.8623 18.0097 44.1134 12.2607 37.0217 12.2607C29.9301 12.2607 24.1812 18.0097 24.1812 25.1013C24.1812 32.193 29.9301 37.9419 37.0217 37.9419Z" stroke="#293B4A" stroke-width="1.5" stroke-miterlimit="10"/>
<path d="M42.4927 59.1884C48.7246 59.6884 53.1811 61.0289 53.1811 62.5942C53.1811 64.5942 45.9493 66.2173 37.0217 66.2173C28.0942 66.2173 20.8623 64.5942 20.8623 62.5942C20.8623 61.0217 25.3188 59.6884 31.5507 59.1884" stroke="#293B4A" stroke-width="1.5" stroke-miterlimit="10"/>
<path d="M85.6665 13.5435C85.6665 20.471 73.1231 39.7899 73.1231 39.7899C73.1231 39.7899 60.5796 20.4638 60.5796 13.5435C60.5796 6.62319 66.2028 1 73.1231 1C80.0434 1 85.6665 6.61594 85.6665 13.5435Z" fill="#FFCD00" stroke="#293B4A" stroke-width="1.5" stroke-miterlimit="10"/>
<path d="M73.123 22.3912C77.9936 22.3912 81.9419 18.4429 81.9419 13.5724C81.9419 8.70187 77.9936 4.75354 73.123 4.75354C68.2525 4.75354 64.3042 8.70187 64.3042 13.5724C64.3042 18.4429 68.2525 22.3912 73.123 22.3912Z" stroke="#293B4A" stroke-width="1.5" stroke-miterlimit="10"/>
<path d="M76.884 36.9781C81.1593 37.3259 84.2245 38.239 84.2245 39.3187C84.2245 40.6955 79.2535 41.8042 73.1303 41.8042C67.0071 41.8042 62.0361 40.6882 62.0361 39.3187C62.0361 38.239 65.0941 37.3259 69.3767 36.9781" stroke="#293B4A" stroke-width="1.5" stroke-miterlimit="10"/>
<path d="M57.2466 63.2898C57.2466 63.2898 57.6379 63.2246 58.3118 63.0942" stroke="#293B4A" stroke-width="1.5" stroke-miterlimit="10"/>
<path d="M60.3986 62.681C67.7826 61.181 84.8189 57.1593 74.7971 53.8115C63.8116 50.1448 57.7754 47.6376 60.7174 45.3405" stroke="#293B4A" stroke-width="1.5" stroke-miterlimit="10"/>
<path d="M61.6235 44.7827C61.9134 44.6377 62.2395 44.4856 62.609 44.3406" stroke="#293B4A" stroke-width="1.5" stroke-miterlimit="10"/>
<path d="M81.0148 76.1522H18.9858C15.0918 76.1522 11.9351 79.3089 11.9351 83.2029C11.9351 87.097 15.0918 90.2537 18.9858 90.2537H81.0148C84.9088 90.2537 88.0655 87.097 88.0655 83.2029C88.0655 79.3089 84.9088 76.1522 81.0148 76.1522Z" fill="#F1F3F5"/>
<path d="M72.6303 81.5001H27.3766C26.3549 81.5001 25.5288 82.2609 25.5288 83.1957C25.5288 84.1305 26.3549 84.8914 27.3766 84.8914H72.6303C73.652 84.8914 74.4781 84.1305 74.4781 83.1957C74.4781 82.2609 73.652 81.5001 72.6303 81.5001Z" fill="#293B4A"/>
</svg>
