<svg width="120" height="100" viewBox="0 0 120 100" fill="none" xmlns="http://www.w3.org/2000/svg">
<g filter="url(#filter0_d_191_4319)">
<path d="M92.416 27.7751H22.8881C19.6325 27.7751 16.9933 30.4143 16.9933 33.6699V81.9868C16.9933 85.2424 19.6325 87.8816 22.8881 87.8816H92.416C95.6716 87.8816 98.3108 85.2424 98.3108 81.9868V33.6699C98.3108 30.4143 95.6716 27.7751 92.416 27.7751Z" fill="white"/>
<path d="M83.851 21.5275V15.0785H77.3264V8.52881H30.9997V70.5246H46.7694V75.8147H90.3503V21.5275H83.851Z" fill="white"/>
<path d="M90.3503 69.24V21.5277H82.9693" fill="white"/>
<path d="M90.3503 20.9482H82.9693V22.1322H90.3503V20.9482ZM90.9297 69.2399V21.5276H89.7458V69.2399H90.9297ZM90.3503 21.5276H90.9297V20.9482H90.3503V21.5276Z" fill="#293B4A"/>
<path d="M83.8509 62.1362V15.0789H77.3768" fill="white"/>
<path d="M83.8509 14.4739H77.3768V15.6579H83.8509V14.4739ZM84.4303 62.1358V15.0785H83.2463V62.1358H84.4303ZM83.8509 15.0785H84.4303V14.4991H83.8509V15.0785Z" fill="#293B4A"/>
<path d="M30.4203 8.5794L30.6218 55.5611H31.8058L31.6043 8.5794H30.4203ZM77.4273 8H30.9997V9.18399H77.4273V8ZM77.8807 49.9435L78.0067 8.60459H76.8227L76.6967 49.9435H77.8807ZM30.9997 8.5794V8H30.4203V8.5794H30.9997ZM77.4273 8.5794H78.0067V8H77.4273V8.5794Z" fill="#293B4A"/>
<path d="M47.6511 15.23H37.9525V16.414H47.6511V15.23Z" fill="#293B4A"/>
<path d="M70.9531 28.1279H44.2755V29.3119H70.9531V28.1279Z" fill="#293B4A"/>
<path d="M70.9531 35.2568H44.2755V36.4408H70.9531V35.2568Z" fill="#293B4A"/>
<path d="M38.8593 29.7906C39.4639 29.7906 39.9426 29.312 39.9426 28.7074C39.9426 28.1028 39.4639 27.6241 38.8593 27.6241C38.2548 27.6241 37.7761 28.1028 37.7761 28.7074C37.7761 29.312 38.2548 29.7906 38.8593 29.7906Z" fill="#293B4A"/>
<path d="M38.8593 36.9699C39.4639 36.9699 39.9426 36.4913 39.9426 35.8867C39.9426 35.2821 39.4639 34.8035 38.8593 34.8035C38.2548 34.8035 37.7761 35.2821 37.7761 35.8867C37.7761 36.4913 38.2548 36.9699 38.8593 36.9699Z" fill="#293B4A"/>
<path d="M107.081 63.8517C107.589 55.7844 101.46 48.833 93.3927 48.3255C85.3254 47.8179 78.374 53.9463 77.8665 62.0137C77.3589 70.0811 83.4874 77.0324 91.5547 77.54C99.6221 78.0475 106.573 71.9191 107.081 63.8517Z" fill="#FFCD00"/>
<path d="M93.3734 66.5191L107.732 52.1349L106.901 51.3036L92.5421 65.6878L93.3734 66.5191ZM91.6856 65.6626L92.5421 66.5191L93.3734 65.6878L92.5169 64.8313L91.6856 65.6626ZM90.955 64.9321L91.6856 65.6626L92.5169 64.8313L91.7863 64.1008L90.955 64.9321ZM87.4282 61.4053L90.955 64.9321L91.7863 64.1008L88.2595 60.574L87.4282 61.4053ZM92.9451 66.0909L92.5169 66.5191L92.9451 66.9474L93.3734 66.5191L92.9451 66.0909Z" fill="#293B4A"/>
<path d="M90.9298 51.5305C93.6 51.1526 96.3459 51.7572 98.6131 53.2435L99.2429 52.261C96.7238 50.6488 93.726 49.9686 90.7534 50.3717L90.9046 51.5305H90.9298ZM83.977 55.2336C85.7656 53.2183 88.2343 51.8831 90.9298 51.5305L90.7786 50.3717C87.8061 50.7747 85.0854 52.2358 83.1205 54.4778L84.0022 55.2588L83.977 55.2336ZM81.1304 62.5894C81.1807 59.8688 82.1884 57.2741 83.977 55.2336L83.0953 54.4526C81.1052 56.6947 79.9968 59.5665 79.9464 62.5642H81.1304V62.5894ZM83.7503 70.046C82.0121 67.9552 81.1052 65.3353 81.1304 62.6146H79.9464C79.896 65.5872 80.9288 68.4842 82.8434 70.8018L83.7503 70.046ZM90.5771 73.9759C87.9068 73.5224 85.4885 72.1117 83.7503 70.046L82.8434 70.8018C84.7579 73.0942 87.4282 74.6561 90.3756 75.1599L90.5771 74.0011V73.9759ZM98.3108 72.5148C95.9932 73.9003 93.2474 74.4293 90.5771 73.9759L90.3756 75.1347C93.3229 75.6385 96.3459 75.0843 98.9154 73.5224L98.3108 72.5148ZM103.248 66.3681C102.392 68.9376 100.654 71.1293 98.3108 72.5148L98.9154 73.5224C101.485 71.9858 103.399 69.5674 104.357 66.746L103.248 66.3681ZM102.996 58.5084C104.029 61.0276 104.105 63.7986 103.248 66.3681L104.357 66.746C105.314 63.8994 105.213 60.826 104.08 58.055L102.996 58.5084ZM102.115 56.7702C102.442 57.3245 102.744 57.9038 102.996 58.5084L104.08 58.0802C103.803 57.4 103.5 56.7702 103.122 56.1657L102.115 56.7702Z" fill="#293B4A"/>
<path d="M72.1636 63.8836C72.6712 55.8162 66.5427 48.8649 58.4754 48.3573C50.408 47.8498 43.4566 53.9782 42.9491 62.0456C42.4415 70.1129 48.57 77.0643 56.6373 77.5718C64.7047 78.0794 71.656 71.951 72.1636 63.8836Z" fill="#FFCD00"/>
<path d="M58.4329 66.5191L72.7919 52.1349L71.9606 51.3036L57.6016 65.6878L58.4329 66.5191ZM56.7451 65.6626L57.6016 66.5191L58.4329 65.6878L57.5764 64.8313L56.7451 65.6626ZM56.0145 64.9321L56.7451 65.6626L57.5764 64.8313L56.8458 64.1008L56.0145 64.9321ZM52.4877 61.4053L56.0145 64.9321L56.8458 64.1008L53.3191 60.574L52.4877 61.4053ZM58.0046 66.0909L57.5764 66.5191L58.0046 66.9474L58.4329 66.5191L58.0046 66.0909Z" fill="#293B4A"/>
<path d="M55.9895 51.5305C58.6598 51.1526 61.4056 51.7572 63.6728 53.2435L64.3026 52.261C61.7835 50.6488 58.7857 49.9686 55.8131 50.3717L55.9643 51.5305H55.9895ZM49.0367 55.2336C50.8253 53.2183 53.294 51.8831 55.9895 51.5305L55.8383 50.3717C52.8658 50.7747 50.1451 52.2358 48.1802 54.4778L49.0619 55.2588L49.0367 55.2336ZM46.1901 62.5894C46.2405 59.8688 47.2481 57.2741 49.0367 55.2336L48.155 54.4526C46.1649 56.6947 45.0565 59.5665 45.0061 62.5642H46.1901V62.5894ZM48.81 70.046C47.0718 67.9552 46.1649 65.3353 46.1901 62.6146H45.0061C44.9557 65.5872 45.9885 68.4842 47.9031 70.8018L48.81 70.046ZM55.6368 73.9759C52.9665 73.5224 50.5482 72.1117 48.81 70.046L47.9031 70.8018C49.8176 73.0942 52.4879 74.6561 55.4353 75.1599L55.6368 74.0011V73.9759ZM63.3705 72.5148C61.0529 73.9003 58.3071 74.4293 55.6368 73.9759L55.4353 75.1347C58.3827 75.6385 61.4056 75.0843 63.9751 73.5224L63.3705 72.5148ZM68.308 66.3681C67.4515 68.9376 65.7133 71.1293 63.3705 72.5148L63.9751 73.5224C66.5446 71.9858 68.4592 69.5674 69.4164 66.746L68.308 66.3681ZM68.0561 58.5084C69.089 61.0276 69.1645 63.7986 68.308 66.3681L69.4164 66.746C70.3737 63.8994 70.2729 60.826 69.1393 58.055L68.0561 58.5084ZM67.1744 56.7702C67.5019 57.3245 67.8042 57.9038 68.0561 58.5084L69.1393 58.0802C68.8622 57.4 68.5599 56.7702 68.1821 56.1657L67.1744 56.7702Z" fill="#293B4A"/>
<path d="M22.6361 77.5784C30.7195 77.5784 37.2723 71.0256 37.2723 62.9423C37.2723 54.859 30.7195 48.3062 22.6361 48.3062C14.5528 48.3062 8 54.859 8 62.9423C8 71.0256 14.5528 77.5784 22.6361 77.5784Z" fill="#FFCD00"/>
<path d="M23.5178 66.5191L37.8768 52.1349L37.0455 51.3036L22.6865 65.6878L23.5178 66.5191ZM21.83 65.6626L22.6865 66.5191L23.5178 65.6878L22.6613 64.8313L21.83 65.6626ZM21.0994 64.9321L21.83 65.6626L22.6613 64.8313L21.9308 64.1008L21.0994 64.9321ZM17.5727 61.4053L21.0994 64.9321L21.9308 64.1008L18.404 60.574L17.5727 61.4053ZM23.0896 66.0909L22.6613 66.5191L23.0896 66.9474L23.5178 66.5191L23.0896 66.0909Z" fill="#293B4A"/>
<path d="M21.0742 51.5305C23.7445 51.1526 26.4904 51.7572 28.7576 53.2435L29.3874 52.261C26.8682 50.6488 23.8705 49.9686 20.8979 50.3717L21.049 51.5305H21.0742ZM14.1214 55.2336C15.91 53.2183 18.3788 51.8831 21.0742 51.5305L20.9231 50.3717C17.9505 50.7747 15.2298 52.2358 13.2649 54.4778L14.1466 55.2588L14.1214 55.2336ZM11.2748 62.5894C11.3252 59.8688 12.3329 57.2741 14.1214 55.2336L13.2397 54.4526C11.2496 56.6947 10.1412 59.5665 10.0908 62.5642H11.2748V62.5894ZM13.8947 70.046C12.1565 67.9552 11.2496 65.3353 11.2748 62.6146H10.0908C10.0404 65.5872 11.0733 68.4842 12.9878 70.8018L13.8947 70.046ZM20.7215 73.9759C18.0513 73.5224 15.6329 72.1117 13.8947 70.046L12.9878 70.8018C14.9024 73.0942 17.5726 74.6561 20.52 75.1599L20.7215 74.0011V73.9759ZM28.4553 72.5148C26.1377 73.9003 23.3918 74.4293 20.7215 73.9759L20.52 75.1347C23.4674 75.6385 26.4904 75.0843 29.0599 73.5224L28.4553 72.5148ZM33.3928 66.3681C32.5363 68.9376 30.7981 71.1293 28.4553 72.5148L29.0599 73.5224C31.6294 71.9858 33.5439 69.5674 34.5012 66.746L33.3928 66.3681ZM33.1409 58.5084C34.1737 61.0276 34.2493 63.7986 33.3928 66.3681L34.5012 66.746C35.4585 63.8994 35.3577 60.826 34.2241 58.055L33.1409 58.5084ZM32.2592 56.7702C32.5866 57.3245 32.8889 57.9038 33.1409 58.5084L34.2241 58.0802C33.947 57.4 33.6447 56.7702 33.2668 56.1657L32.2592 56.7702Z" fill="#293B4A"/>
</g>
<defs>
<filter id="filter0_d_191_4319" x="0" y="0" width="119.732" height="99.8816" filterUnits="userSpaceOnUse" color-interpolation-filters="sRGB">
<feFlood flood-opacity="0" result="BackgroundImageFix"/>
<feColorMatrix in="SourceAlpha" type="matrix" values="0 0 0 0 0 0 0 0 0 0 0 0 0 0 0 0 0 0 127 0" result="hardAlpha"/>
<feOffset dx="2" dy="2"/>
<feGaussianBlur stdDeviation="5"/>
<feColorMatrix type="matrix" values="0 0 0 0 0 0 0 0 0 0 0 0 0 0 0 0 0 0 0.25 0"/>
<feBlend mode="normal" in2="BackgroundImageFix" result="effect1_dropShadow_191_4319"/>
<feBlend mode="normal" in="SourceGraphic" in2="effect1_dropShadow_191_4319" result="shape"/>
</filter>
</defs>
</svg>
