<svg width="543" height="309" viewBox="0 0 543 309" fill="none" xmlns="http://www.w3.org/2000/svg">
<path d="M343.073 262.703C350.124 256.355 360.937 256.829 360.937 256.829L362.819 259.299L367.048 274.342L368.34 283.159C368.34 283.159 369.633 291.036 367.163 292.917C364.693 294.798 357.879 300.205 336.841 300.672C315.802 301.139 314.625 299.027 314.625 299.027C314.625 299.027 302.404 297.498 297.464 299.968C297.464 299.968 297.335 297.802 301.389 295.671C301.389 295.671 288.802 295.529 296.124 292.754C303.446 289.98 305.51 291.76 305.51 291.76C305.51 291.76 300.604 288.491 308.142 289.269C315.681 290.054 318.029 292.896 318.029 292.896L353.731 283.795C348.649 277.319 344.609 270.464 343.066 262.709L343.073 262.703Z" fill="#FFDCC2"/>
<path d="M287.106 283.287H273.524V267.284C279.317 268.238 284.825 269.781 290.022 271.98L292.58 275.106L287.106 283.287Z" fill="#FFDCC2"/>
<path d="M310.457 187.265C310.457 187.265 306.708 199.906 304.055 202.876C304.265 204.358 306.512 203.594 306.512 203.594C306.512 203.594 304.975 213.818 307.939 214.224C310.903 214.63 311.769 214.529 311.769 214.529C311.769 214.529 312.487 216.776 313.251 218.819C314.016 220.863 314.835 227.251 312.845 229.91C310.849 232.569 305.794 235.635 305.794 235.635C305.794 235.635 309.678 241.258 310.139 241.258C310.599 241.258 315.505 242.943 315.505 242.943L328.078 241.664L337.585 236.657L338.147 229.044L332.422 198.688L328.179 190.662L310.45 187.265H310.457Z" fill="#FFDCC2"/>
<path d="M289.853 271.709C280.021 267.338 273.619 267.182 273.619 267.182C273.619 267.182 285.948 243.146 296.877 237.679C307.805 232.218 307.805 234.87 307.805 234.87C307.805 234.87 309.68 243.457 322.787 240.175C334.65 235.804 336.213 233.307 336.213 233.307C336.213 233.307 344.956 232.685 350.883 239.709C356.811 246.733 361.501 256.721 361.501 256.721C361.501 256.721 348.231 257.032 343.081 262.811L343.548 264.996C343.548 264.996 340.117 277.955 343.548 283.105H296.877L297.033 278.422L289.853 271.709Z" fill="#19AD4A"/>
<path d="M129.965 93.7537C148.844 93.7537 164.144 78.4538 164.144 59.5742C164.144 40.6945 148.844 25.3946 129.965 25.3946C111.085 25.3946 95.7852 40.6945 95.7852 59.5742C95.7852 78.4538 111.085 93.7537 129.965 93.7537Z" fill="#5273FD" stroke="#293B4A" stroke-miterlimit="10"/>
<path d="M256.339 69.3591C275.212 69.3591 290.519 54.0591 290.519 35.1795C290.519 16.2999 275.212 1 256.339 1C237.466 1 222.16 16.2999 222.16 35.1795C222.16 54.0591 237.46 69.3591 256.339 69.3591Z" fill="#19AD4A" stroke="#293B4A" stroke-miterlimit="10"/>
<path d="M394.865 91.7913C413.745 91.7913 429.045 76.4914 429.045 57.6118C429.045 38.7322 413.745 23.4323 394.865 23.4323C375.985 23.4323 360.686 38.7322 360.686 57.6118C360.686 76.4914 375.985 91.7913 394.865 91.7913Z" fill="#FFCD00" stroke="#293B4A" stroke-miterlimit="10"/>
<path d="M478.466 197.815C497.345 197.815 512.645 182.515 512.645 163.635C512.645 144.756 497.345 129.456 478.466 129.456C459.586 129.456 444.286 144.756 444.286 163.635C444.286 182.515 459.586 197.815 478.466 197.815Z" fill="#5273FD" stroke="#293B4A" stroke-miterlimit="10"/>
<path d="M54.4969 201.178C73.3765 201.178 88.6765 185.878 88.6765 166.998C88.6765 148.119 73.3765 132.819 54.4969 132.819C35.6173 132.819 20.3174 148.119 20.3174 166.998C20.3174 185.878 35.6173 201.178 54.4969 201.178Z" fill="#FFCD00" stroke="#293B4A" stroke-miterlimit="10" stroke-linecap="round"/>
<path d="M363.305 257.181C353.236 255.591 345.962 259.793 342.829 262.763" stroke="#293B4A" stroke-miterlimit="10"/>
<path d="M354.894 283.606C339.297 287.422 331.021 290.109 319.131 292.978C318.57 293.113 317.974 293.012 317.473 292.727C313.745 290.636 307.506 288.329 304.339 289.337C300.942 290.42 309.563 292.579 309.563 292.579C309.563 292.579 298.316 290.264 294.608 293.668C290.9 297.065 304.353 294.71 304.353 294.71C299.406 295.637 293.992 301.606 298.472 299.596C302.39 297.836 310.828 297.336 317.514 299.934C319.849 300.841 322.373 301.179 324.876 301.084C341.279 300.448 367.982 300.503 368.53 288.694C369.145 275.452 358.082 231.88 336.211 233.612C310.49 250.739 307.235 234.647 307.235 234.647C290.271 232.028 273.82 267.101 273.82 267.101C288.004 270.079 290.589 272.183 290.589 272.183" stroke="#293B4A" stroke-miterlimit="10"/>
<path d="M428.831 283.362H368.511" stroke="#293B4A" stroke-miterlimit="10"/>
<path d="M500.248 283.362H446.099" stroke="#293B4A" stroke-miterlimit="10"/>
<path d="M353.554 283.362H274.186" stroke="#293B4A" stroke-miterlimit="10"/>
<path d="M139.998 283.362H117.596" stroke="#293B4A" stroke-miterlimit="10"/>
<path d="M183.955 301.023H148.53" stroke="#293B4A" stroke-miterlimit="10"/>
<path d="M187.615 295.468H147.183C143.218 295.468 139.997 292.254 139.997 288.281V226.594C139.997 222.629 143.211 219.408 147.183 219.408H266.517C270.482 219.408 273.703 222.622 273.703 226.594V288.281C273.703 292.247 270.489 295.468 266.517 295.468H224.285" fill="#F1F3F5"/>
<path d="M187.615 295.468H147.183C143.218 295.468 139.997 292.254 139.997 288.281V226.594C139.997 222.629 143.211 219.408 147.183 219.408H266.517C270.482 219.408 273.703 222.622 273.703 226.594V288.281C273.703 292.247 270.489 295.468 266.517 295.468H224.285" stroke="#293B4A" stroke-miterlimit="10"/>
<path d="M227.655 299.602H242.779C244.586 299.602 245.229 301.991 243.659 302.898L242.096 303.798C237.318 306.552 231.905 308 226.396 308H186.343C183.149 308 181.309 304.373 183.197 301.795L195.756 284.627C201.041 279.748 209.134 279.572 214.629 284.208L227.926 300.056C230.125 302.681 230.829 302.972 234.205 303.541" fill="#F1F3F5"/>
<path d="M227.655 299.602H242.779C244.586 299.602 245.229 301.991 243.659 302.898L242.096 303.798C237.318 306.552 231.905 308 226.396 308H186.343C183.149 308 181.309 304.373 183.197 301.795L195.756 284.627C201.041 279.748 209.134 279.572 214.629 284.208L227.926 300.056C230.125 302.681 230.829 302.972 234.205 303.541" stroke="#293B4A" stroke-miterlimit="10"/>
<path d="M316.595 300.076C316.081 301.132 314.578 302.438 313.117 302.438H289.933C286.306 302.438 285.251 297.532 288.533 295.996C290.123 295.251 291.984 294.649 294.034 294.216" stroke="#293B4A" stroke-miterlimit="10"/>
<path d="M53.4164 170.172C54.1115 170.172 54.675 169.609 54.675 168.914C54.675 168.219 54.1115 167.655 53.4164 167.655C52.7212 167.655 52.1577 168.219 52.1577 168.914C52.1577 169.609 52.7212 170.172 53.4164 170.172Z" stroke="#293B4A" stroke-miterlimit="10"/>
<path d="M53.415 155.617V159.379" stroke="#293B4A" stroke-miterlimit="10"/>
<path d="M53.415 178.577V182.211" stroke="#293B4A" stroke-miterlimit="10"/>
<path d="M53.415 161.213V167.567" stroke="#293B4A" stroke-miterlimit="10"/>
<path d="M47.7124 158.885L48.3079 159.914" stroke="#293B4A" stroke-miterlimit="10"/>
<path d="M43.4497 163.148L44.4783 163.744" stroke="#293B4A" stroke-miterlimit="10"/>
<path d="M40.1211 168.981H43.9444" stroke="#293B4A" stroke-miterlimit="10"/>
<path d="M63.144 168.981H66.717" stroke="#293B4A" stroke-miterlimit="10"/>
<path d="M43.4492 174.807L44.4778 174.219" stroke="#293B4A" stroke-miterlimit="10"/>
<path d="M62.6123 163.744L63.6409 163.148" stroke="#293B4A" stroke-miterlimit="10"/>
<path d="M47.7124 179.078L48.3079 178.049" stroke="#293B4A" stroke-miterlimit="10"/>
<path d="M58.7744 159.914L59.3699 158.885" stroke="#293B4A" stroke-miterlimit="10"/>
<path d="M56.6322 181.818C55.6037 182.075 54.521 182.211 53.4112 182.211C46.0691 182.211 40.1143 176.256 40.1143 168.914C40.1143 161.572 46.0691 155.617 53.4112 155.617C60.7533 155.617 66.7081 161.572 66.7081 168.914C66.7081 169.942 66.5931 170.937 66.3698 171.898" stroke="#293B4A" stroke-miterlimit="10"/>
<path d="M57.9244 185.167C56.4899 185.567 54.9741 185.777 53.4109 185.777C44.0997 185.777 36.5479 178.225 36.5479 168.913C36.5479 159.602 44.0997 152.05 53.4109 152.05C62.7222 152.05 70.274 159.602 70.274 168.913C70.274 170.368 70.0913 171.776 69.7462 173.122" stroke="#293B4A" stroke-miterlimit="10"/>
<path d="M51.3735 150.447V147.517H55.454V150.447" stroke="#293B4A" stroke-miterlimit="10"/>
<path d="M42.4275 154.23L40.4448 152.057L37.4268 154.798L39.5448 157.126" stroke="#293B4A" stroke-miterlimit="10"/>
<path d="M67.2816 157.126L69.3997 154.798L66.3816 152.057L64.3989 154.23" stroke="#293B4A" stroke-miterlimit="10"/>
<path d="M48.1914 144.864H58.6327" stroke="#293B4A" stroke-miterlimit="10"/>
<path d="M65.1797 187.597C69.1674 187.597 72.4 184.364 72.4 180.377C72.4 176.389 69.1674 173.156 65.1797 173.156C61.1921 173.156 57.9595 176.389 57.9595 180.377C57.9595 184.364 61.1921 187.597 65.1797 187.597Z" stroke="#293B4A" stroke-miterlimit="10"/>
<path d="M65.1787 182.163V176.655" stroke="#293B4A" stroke-miterlimit="10"/>
<path d="M65.1787 184.721V183.266" stroke="#293B4A" stroke-miterlimit="10"/>
<path d="M141.988 166.998H198.194L209.901 218.995" stroke="#293B4A" stroke-miterlimit="10"/>
<path d="M88.6807 166.998H138.052" stroke="#293B4A" stroke-miterlimit="10"/>
<path d="M129.963 93.7539V139.119L168.589 166.66" stroke="#293B4A" stroke-miterlimit="10"/>
<path d="M454.339 188.693L395.812 247.227H358.466" stroke="#293B4A" stroke-miterlimit="10"/>
<path d="M395.122 123.494V92.2988" stroke="#293B4A" stroke-miterlimit="10"/>
<path d="M395.122 148.254V128.63" stroke="#293B4A" stroke-miterlimit="10"/>
<path d="M436.441 205.908L395.122 166.315V152.761" stroke="#293B4A" stroke-miterlimit="10"/>
<path d="M199.542 254.224V257.37L206.276 260.869L213.009 257.37V254.224" stroke="#293B4A" stroke-miterlimit="10"/>
<path d="M199.542 257.37V262.412" stroke="#293B4A" stroke-miterlimit="10"/>
<path d="M206.276 255.862L196.559 250.807L206.276 245.759L215.993 250.807L206.276 255.862Z" stroke="#293B4A" stroke-miterlimit="10"/>
<path d="M394.974 173.495C398.91 173.495 402.1 170.304 402.1 166.369C402.1 162.434 398.91 159.244 394.974 159.244C391.039 159.244 387.849 162.434 387.849 166.369C387.849 170.304 391.039 173.495 394.974 173.495Z" fill="#BCD5FD" stroke="#293B4A" stroke-miterlimit="10"/>
<path d="M167.979 174.618C171.914 174.618 175.105 171.428 175.105 167.493C175.105 163.557 171.914 160.367 167.979 160.367C164.044 160.367 160.854 163.557 160.854 167.493C160.854 171.428 164.044 174.618 167.979 174.618Z" fill="#BCD5FD" stroke="#293B4A" stroke-miterlimit="10"/>
<path d="M395.727 251.26C398.269 251.26 400.329 249.2 400.329 246.658C400.329 244.117 398.269 242.057 395.727 242.057C393.186 242.057 391.126 244.117 391.126 246.658C391.126 249.2 393.186 251.26 395.727 251.26Z" fill="#BCD5FD" stroke="#293B4A" stroke-miterlimit="10"/>
<path d="M130.362 143.206C132.903 143.206 134.963 141.146 134.963 138.604C134.963 136.063 132.903 134.003 130.362 134.003C127.82 134.003 125.76 136.063 125.76 138.604C125.76 141.146 127.82 143.206 130.362 143.206Z" fill="#BCD5FD" stroke="#293B4A" stroke-miterlimit="10"/>
<path d="M407.995 111.828C408.753 112.038 409.504 112.329 410.262 112.735V127.811C405.248 125.138 400.234 127.209 395.226 128.413C391.761 129.246 388.304 129.659 384.839 127.811V126.113" fill="#FFCD00"/>
<path d="M407.995 111.828C408.753 112.038 409.504 112.329 410.262 112.735V127.811C405.248 125.138 400.234 127.209 395.226 128.413C391.761 129.246 388.304 129.659 384.839 127.811V126.113" stroke="#293B4A" stroke-miterlimit="10" stroke-linecap="round"/>
<path d="M406.36 123.596C397.881 119.075 389.409 128.116 380.937 123.596V108.519C389.416 113.039 397.888 103.999 406.36 108.519V123.596Z" fill="#FFCD00" stroke="#293B4A" stroke-miterlimit="10" stroke-linecap="round"/>
<path d="M397.407 113.568C397.928 114.555 397.901 115.638 397.258 116.295L397.407 113.568Z" fill="#FFCD00"/>
<path d="M397.407 113.568C397.928 114.555 397.901 115.638 397.258 116.295L397.407 113.568Z" fill="#FFCD00"/>
<path d="M397.407 113.568C397.928 114.555 397.901 115.638 397.258 116.295" stroke="#293B4A" stroke-miterlimit="10" stroke-linecap="round"/>
<path d="M393.632 115.78C392.488 114.637 392.265 113.019 393.117 112.167C393.977 111.307 395.594 111.537 396.731 112.681L393.625 115.787L393.632 115.78Z" fill="#FFCD00"/>
<path d="M393.632 115.78C392.488 114.637 392.265 113.019 393.117 112.167C393.977 111.307 395.594 111.537 396.731 112.681" fill="#FFCD00"/>
<path d="M393.632 115.78C392.488 114.637 392.265 113.019 393.117 112.167C393.977 111.307 395.594 111.537 396.731 112.681" stroke="#293B4A" stroke-miterlimit="10" stroke-linecap="round"/>
<path d="M389.848 117.972C389.334 116.991 389.361 115.908 390.01 115.259L389.848 117.972Z" fill="#FFCD00"/>
<path d="M389.848 117.972C389.334 116.991 389.361 115.908 390.01 115.259L389.848 117.972Z" fill="#FFCD00"/>
<path d="M389.848 117.972C389.334 116.991 389.361 115.908 390.01 115.259" stroke="#293B4A" stroke-miterlimit="10" stroke-linecap="round"/>
<path d="M393.634 115.78C394.777 116.924 395.001 118.541 394.148 119.394C393.289 120.253 391.672 120.023 390.535 118.879L393.641 115.773L393.634 115.78Z" fill="#FFCD00"/>
<path d="M393.634 115.78C394.777 116.923 395.001 118.541 394.148 119.393C393.289 120.253 391.672 120.023 390.535 118.879" fill="#FFCD00"/>
<path d="M393.634 115.78C394.777 116.923 395.001 118.541 394.148 119.393C393.289 120.253 391.672 120.023 390.535 118.879" stroke="#293B4A" stroke-miterlimit="10" stroke-linecap="round"/>
<path d="M397.969 111.443L396.738 112.667L388.983 120.422L397.969 111.443Z" fill="#FFCD00"/>
<path d="M397.969 111.443L396.738 112.667L388.983 120.422" fill="#FFCD00"/>
<path d="M397.969 111.443L396.738 112.667L388.983 120.422" stroke="#293B4A" stroke-miterlimit="10" stroke-linecap="round"/>
<path d="M391.735 149.316L395.105 152.862L398.699 149.269" stroke="#293B4A" stroke-miterlimit="10"/>
<path d="M256.47 138.476V69.8325" stroke="#293B4A" stroke-miterlimit="10"/>
<path d="M256.47 163.236V143.613" stroke="#293B4A" stroke-miterlimit="10"/>
<path d="M256.47 219.408V167.736" stroke="#293B4A" stroke-miterlimit="10"/>
<path d="M269.343 126.81C270.101 127.019 270.852 127.31 271.61 127.716V142.793C266.596 140.12 261.582 142.191 256.574 143.395C253.11 144.228 249.652 144.64 246.187 142.793V141.094" fill="#FFCD00"/>
<path d="M269.343 126.81C270.101 127.019 270.852 127.31 271.61 127.716V142.793C266.596 140.12 261.582 142.191 256.574 143.395C253.11 144.228 249.652 144.64 246.187 142.793V141.094" stroke="#293B4A" stroke-miterlimit="10" stroke-linecap="round"/>
<path d="M267.704 138.577C259.226 134.057 250.753 143.098 242.281 138.577V123.501C250.76 128.021 259.232 118.981 267.704 123.501V138.577Z" fill="#FFCD00" stroke="#293B4A" stroke-miterlimit="10" stroke-linecap="round"/>
<path d="M258.753 128.549C259.274 129.537 259.247 130.62 258.604 131.276L258.753 128.549Z" fill="#FFCD00"/>
<path d="M258.753 128.549C259.274 129.537 259.247 130.62 258.604 131.276L258.753 128.549Z" fill="#FFCD00"/>
<path d="M258.753 128.549C259.274 129.537 259.247 130.62 258.604 131.276" stroke="#293B4A" stroke-miterlimit="10" stroke-linecap="round"/>
<path d="M254.976 130.762C253.832 129.618 253.609 128.001 254.462 127.149C255.321 126.289 256.938 126.519 258.075 127.663L254.969 130.769L254.976 130.762Z" fill="#FFCD00"/>
<path d="M254.976 130.762C253.832 129.618 253.609 128.001 254.462 127.149C255.321 126.289 256.938 126.519 258.075 127.663" fill="#FFCD00"/>
<path d="M254.976 130.762C253.832 129.618 253.609 128.001 254.462 127.149C255.321 126.289 256.938 126.519 258.075 127.663" stroke="#293B4A" stroke-miterlimit="10" stroke-linecap="round"/>
<path d="M251.192 132.954C250.678 131.973 250.705 130.89 251.355 130.241L251.192 132.954Z" fill="#FFCD00"/>
<path d="M251.192 132.954C250.678 131.973 250.705 130.89 251.355 130.241L251.192 132.954Z" fill="#FFCD00"/>
<path d="M251.192 132.954C250.678 131.973 250.705 130.89 251.355 130.241" stroke="#293B4A" stroke-miterlimit="10" stroke-linecap="round"/>
<path d="M254.974 130.762C256.118 131.905 256.341 133.523 255.489 134.375C254.636 135.228 253.012 135.005 251.875 133.861L254.981 130.755L254.974 130.762Z" fill="#FFCD00"/>
<path d="M254.974 130.761C256.118 131.905 256.341 133.522 255.489 134.375C254.636 135.228 253.012 135.004 251.875 133.861" fill="#FFCD00"/>
<path d="M254.974 130.761C256.118 131.905 256.341 133.522 255.489 134.375C254.636 135.228 253.012 135.004 251.875 133.861" stroke="#293B4A" stroke-miterlimit="10" stroke-linecap="round"/>
<path d="M259.315 126.424L258.083 127.649L250.328 135.404L259.315 126.424Z" fill="#FFCD00"/>
<path d="M259.315 126.424L258.083 127.649L250.328 135.404" fill="#FFCD00"/>
<path d="M259.315 126.424L258.083 127.649L250.328 135.404" stroke="#293B4A" stroke-miterlimit="10" stroke-linecap="round"/>
<path d="M253.074 164.299L256.444 167.845L260.037 164.251" stroke="#293B4A" stroke-miterlimit="10"/>
<path d="M256.136 109.453C258.677 109.453 260.737 107.393 260.737 104.852C260.737 102.31 258.677 100.25 256.136 100.25C253.594 100.25 251.534 102.31 251.534 104.852C251.534 107.393 253.594 109.453 256.136 109.453Z" fill="#BCD5FD" stroke="#293B4A" stroke-miterlimit="10"/>
<path d="M401.051 69.1698H390.379C390.379 61.645 385.304 62.518 385.304 55.0879C385.304 49.3361 389.967 44.6737 395.718 44.6737C401.47 44.6737 406.133 49.3361 406.133 55.0879C406.133 61.1172 402.797 61.6856 401.531 65.6916" stroke="#293B4A" stroke-miterlimit="10"/>
<path d="M400.76 72.2891H391.415C390.813 72.2891 390.319 72.7763 390.319 73.3853V73.5612C390.319 74.1635 390.806 74.6575 391.415 74.6575H399.001C399.603 74.6575 400.097 75.1447 400.097 75.7537C400.097 76.356 399.61 76.8499 399.001 76.8499H392.525C391.923 76.8499 391.429 77.3372 391.429 77.9462V78.1221C391.429 78.7244 391.916 79.2184 392.525 79.2184H398.459" stroke="#293B4A" stroke-miterlimit="10"/>
<path d="M395.543 34.699V39.8622" stroke="#293B4A" stroke-miterlimit="10"/>
<path d="M384.783 37.6558L387.415 42.0949" stroke="#293B4A" stroke-miterlimit="10"/>
<path d="M377.468 44.9238L381.894 47.5832" stroke="#293B4A" stroke-miterlimit="10"/>
<path d="M407.053 38.123L404.231 42.447" stroke="#293B4A" stroke-miterlimit="10"/>
<path d="M413.643 44.9779L409.21 47.6237" stroke="#293B4A" stroke-miterlimit="10"/>
<path d="M395.713 47.5355C400.112 47.5355 403.671 51.1016 403.671 55.4934" stroke="#293B4A" stroke-miterlimit="10"/>
<path d="M243.394 31.5525C244.833 31.5525 245.999 30.3861 245.999 28.9472C245.999 27.5084 244.833 26.342 243.394 26.342C241.955 26.342 240.789 27.5084 240.789 28.9472C240.789 30.3861 241.955 31.5525 243.394 31.5525Z" stroke="#293B4A" stroke-miterlimit="10"/>
<path d="M238.188 40.9042C238.188 36.5734 240.516 33.0681 243.392 33.0681C246.268 33.0681 248.596 36.5801 248.596 40.9042" stroke="#293B4A" stroke-miterlimit="10"/>
<path d="M268.361 27.8174C270.375 27.8174 272.008 26.1845 272.008 24.1701C272.008 22.1557 270.375 20.5227 268.361 20.5227C266.346 20.5227 264.713 22.1557 264.713 24.1701C264.713 26.1845 266.346 27.8174 268.361 27.8174Z" stroke="#293B4A" stroke-miterlimit="10"/>
<path d="M262.054 35.4168C263.313 32.1349 265.668 29.9289 268.361 29.9289C272.38 29.9289 275.642 34.8416 275.642 40.9048" stroke="#293B4A" stroke-miterlimit="10"/>
<path d="M254.833 29.6852C256.559 29.6852 257.959 28.2855 257.959 26.5589C257.959 24.8322 256.559 23.4326 254.833 23.4326C253.106 23.4326 251.707 24.8322 251.707 26.5589C251.707 28.2855 253.106 29.6852 254.833 29.6852Z" stroke="#293B4A" stroke-miterlimit="10"/>
<path d="M249.657 35.6466C250.78 33.1429 252.682 31.4985 254.833 31.4985C258.285 31.4985 261.079 35.7075 261.079 40.9045" stroke="#293B4A" stroke-miterlimit="10"/>
<path d="M235.168 43.0766H278.956" stroke="#293B4A" stroke-miterlimit="10"/>
<path d="M118.561 73.0533L120.774 79.4074L123.521 76.6601L122.553 69.7173C125.369 67.7887 129.111 64.6962 132.785 61.2925" stroke="#293B4A" stroke-miterlimit="10"/>
<path d="M128.392 56.9077C124.989 60.5821 121.896 64.3309 119.968 67.1392L113.025 66.1715L110.277 68.9189L116.625 71.1316" stroke="#293B4A" stroke-miterlimit="10"/>
<path d="M133.928 62.8896L143.895 76.7617L146.643 74.0144L144.227 68.7903C144.288 68.7362 144.349 68.6753 144.41 68.6212C145.54 67.4911 145.959 66.0768 145.35 65.461C144.856 64.967 143.834 65.1498 142.86 65.8332L141.161 62.152C141.317 62.0302 141.479 61.8881 141.628 61.7392C142.758 60.6092 143.178 59.1949 142.569 58.5791C142.021 58.031 140.843 58.3084 139.788 59.1746L138.265 55.8791C144.355 49.4641 146.595 45.3498 145.458 44.213C144.322 43.0762 140.214 45.316 133.792 51.4062L130.497 49.8837C131.363 48.8348 131.64 47.6506 131.092 47.1025C130.477 46.4867 129.069 46.913 127.932 48.0431C127.783 48.1919 127.641 48.3476 127.519 48.51L123.838 46.8115C124.528 45.8371 124.704 44.822 124.21 44.3213C123.595 43.7055 122.187 44.1318 121.05 45.2619C120.989 45.3228 120.935 45.3837 120.881 45.4446L115.657 43.0288L112.91 45.7762L126.809 55.7641" stroke="#293B4A" stroke-miterlimit="10"/>
<path d="M117.594 51.0478L116.653 51.9884" stroke="#293B4A" stroke-miterlimit="10"/>
<path d="M123.555 55.3512L122.614 56.2918" stroke="#293B4A" stroke-miterlimit="10"/>
<path d="M138.625 72.1872L137.685 73.1278" stroke="#293B4A" stroke-miterlimit="10"/>
<path d="M134.319 66.2259L133.378 67.1665" stroke="#293B4A" stroke-miterlimit="10"/>
<path d="M129.949 55.3512L128.393 56.9076" stroke="#293B4A" stroke-miterlimit="10"/>
<path d="M134.321 59.7228L132.765 61.2792" stroke="#293B4A" stroke-miterlimit="10"/>
<path d="M119.614 70.0693L115.818 73.8723" stroke="#293B4A" stroke-miterlimit="10"/>
<path d="M143.05 47.8538C143.693 47.1163 143.795 46.514 143.497 46.2163C143.199 45.9185 142.604 46.0268 141.873 46.6764" stroke="#293B4A" stroke-miterlimit="10"/>
<path d="M292.76 252.403C283.232 268.461 293.031 275.634 296.888 278.307C296.888 278.307 297.693 281.054 297.05 283.314" stroke="#293B4A" stroke-miterlimit="10"/>
<path d="M342.086 255.692C342.086 255.692 341.714 270.214 354.375 283.984" stroke="#293B4A" stroke-miterlimit="10"/>
<path d="M324.822 211.45C324.822 211.45 314.326 207.356 322.616 197.93C328.686 191.028 309.271 190.852 309.271 190.852C298.39 186.095 295.149 160.218 320.68 158.1C346.212 155.989 340.575 182.752 340.575 182.752C340.575 182.752 371.561 186.447 361.877 211.45C361.877 211.45 392.957 237.103 367.379 275.959C367.379 275.959 362.723 258.927 356.051 246.462C354.461 243.491 348.756 237.618 348.756 237.618C348.756 237.618 345.163 235.148 342.084 234.085C339.012 233.023 335.277 233.862 335.277 233.862C335.277 233.862 326.818 229.457 326.006 226.845C325.194 224.233 324.551 217.392 324.808 215.68C325.065 213.961 324.808 211.457 324.808 211.457L324.822 211.45Z" fill="#293B4A"/>
<path d="M309.879 189.133C309.446 192.625 305.521 200.806 304.289 202.816C304.08 203.161 304.33 203.601 304.729 203.601H306.651C304.303 216.83 308.221 213.975 312.322 214.435C314.907 222.596 314.907 226.811 312.748 230.256C312.748 230.256 309.879 233.199 307.219 234.641" stroke="#293B4A" stroke-linejoin="round"/>
<path d="M316.864 205.963C315.274 209.278 311.39 209.163 309.468 208.026" stroke="#293B4A" stroke-linejoin="round"/>
<path d="M292.689 274.761C292.689 274.761 287.844 281.866 286.071 283.484" stroke="#293B4A" stroke-miterlimit="10"/>
<path d="M343.396 264.442C343.396 264.442 339.756 276.237 343.443 283.227" stroke="#293B4A" stroke-miterlimit="10"/>
<path d="M313.169 200.982C315.333 200.982 317.087 199.228 317.087 197.064C317.087 194.9 315.333 193.146 313.169 193.146C311.005 193.146 309.251 194.9 309.251 197.064C309.251 199.228 311.005 200.982 313.169 200.982Z" stroke="#293B4A" stroke-miterlimit="10"/>
<path d="M305.537 199.818C304.84 199.108 304.407 198.14 304.407 197.064C304.407 194.899 306.159 193.146 308.325 193.146" stroke="#293B4A" stroke-miterlimit="10"/>
<path d="M307.715 196.224H309.116" stroke="#293B4A" stroke-miterlimit="10"/>
<path d="M317.364 197.49H326.039" stroke="#293B4A" stroke-miterlimit="10"/>
<path d="M312.263 197.693L315.633 194.323" stroke="#293B4A" stroke-miterlimit="10"/>
<path d="M483.045 172.825V164.989H486.503V172.825" stroke="#293B4A" stroke-miterlimit="10"/>
<path d="M470.697 172.825V164.989H474.155V172.825" stroke="#293B4A" stroke-miterlimit="10"/>
<path d="M494.819 158.655H462.385V162.316H494.819V158.655Z" stroke="#293B4A" stroke-miterlimit="10"/>
<path d="M451.81 178.847H505.553" stroke="#293B4A" stroke-miterlimit="10"/>
<path d="M462.385 176.932V175.146H494.819V176.932" stroke="#293B4A" stroke-miterlimit="10"/>
<path d="M480.116 162.309H477.084V175.146H480.116V162.309Z" stroke="#293B4A" stroke-miterlimit="10"/>
<path d="M467.55 162.309H464.519V175.146H467.55V162.309Z" stroke="#293B4A" stroke-miterlimit="10"/>
<path d="M492.682 162.309H489.651V175.146H492.682V162.309Z" stroke="#293B4A" stroke-miterlimit="10"/>
<path d="M478.599 154.196C479.735 154.196 480.656 153.275 480.656 152.139C480.656 151.002 479.735 150.081 478.599 150.081C477.463 150.081 476.542 151.002 476.542 152.139C476.542 153.275 477.463 154.196 478.599 154.196Z" stroke="#293B4A" stroke-miterlimit="10"/>
<path d="M491.167 152.741V139.633" stroke="#293B4A" stroke-miterlimit="10"/>
<path d="M497.167 144.417C495.164 142.739 493.161 146.096 491.158 144.417V141.054C493.161 142.732 495.164 139.376 497.167 141.054V144.417Z" stroke="#293B4A" stroke-miterlimit="10"/>
<path d="M502.514 176.932V167.378" stroke="#293B4A" stroke-miterlimit="10"/>
<path d="M500.131 172.825C498.622 171.986 497.594 170.369 497.594 168.514C497.594 166.89 498.385 165.456 499.597 164.556C499.13 163.94 498.846 163.169 498.846 162.336C498.846 160.306 500.49 158.669 502.513 158.669C504.537 158.669 506.181 160.313 506.181 162.336C506.181 163.169 505.897 163.94 505.43 164.556C506.641 165.456 507.44 166.89 507.44 168.514C507.44 170.369 506.418 171.979 504.902 172.818" stroke="#293B4A" stroke-miterlimit="10"/>
<path d="M455.91 176.932V170.517" stroke="#293B4A" stroke-miterlimit="10"/>
<path d="M454.306 174.178C453.291 173.61 452.601 172.527 452.601 171.282C452.601 170.192 453.129 169.225 453.948 168.623C453.63 168.21 453.447 167.696 453.447 167.134C453.447 165.774 454.55 164.671 455.91 164.671C457.27 164.671 458.373 165.774 458.373 167.134C458.373 167.696 458.184 168.21 457.866 168.623C458.678 169.225 459.212 170.192 459.212 171.282C459.212 172.527 458.522 173.61 457.507 174.171" stroke="#293B4A" stroke-miterlimit="10"/>
<path d="M464.519 157.045V154.778H467.692L478.6 145.791L489.509 154.778H492.682V157.045" stroke="#293B4A" stroke-miterlimit="10"/>
<path d="M475.981 155.982H481.219" stroke="#293B4A" stroke-miterlimit="10"/>
<path d="M269.481 79.8006C272.343 75.0841 277.527 71.9239 283.441 71.9239C284.328 71.9239 285.2 71.9916 286.046 72.1337C290.81 66.4022 298.003 62.7413 306.042 62.7413C316.436 62.7413 325.403 68.8382 329.557 77.6487C331.533 76.4374 333.848 75.7405 336.331 75.7405C340.817 75.7405 344.769 78.0141 347.111 81.472C348.511 83.5494 349.33 86.0464 349.33 88.7396H201.968" stroke="#293B4A" stroke-miterlimit="10"/>
<path d="M286.621 81.1334C288.658 76.6267 293.963 74.6237 298.47 76.6605" stroke="#293B4A" stroke-miterlimit="10"/>
<path d="M418.415 103.451H541.815C541.815 103.451 528.769 85.2138 520.398 93.5371C520.398 93.5371 498.386 20.9825 461.506 93.5371" stroke="#293B4A" stroke-miterlimit="10"/>
<path d="M105.826 107.91H1C1 107.91 7.3744 88.638 29.2856 98.5651C29.2856 98.5651 63.7425 53.3014 94.0514 102.605" stroke="#293B4A" stroke-miterlimit="10"/>
<path d="M447.491 222.9C449.642 221.52 452.227 221.608 453.5 223.205C454.778 224.795 454.298 227.332 452.485 229.139C455.739 230.52 458.399 232.793 458.609 234.478C458.818 236.163 456.504 236.657 453.303 235.723L455.34 238.985C456.315 240.92 456.606 242.45 455.963 242.971C454.981 243.756 452.187 241.922 449.473 238.802C449.683 242.132 448.695 244.283 447.098 243.708C445.501 243.14 443.864 240.041 443.227 236.562C441.076 237.943 438.491 237.855 437.218 236.258C435.939 234.668 436.42 232.123 438.233 230.323L436 229.186C433.835 227.88 432.265 226.263 432.109 224.984C431.9 223.306 434.214 222.805 437.415 223.739C434.965 220.41 433.781 217.284 434.762 216.492C435.743 215.7 438.538 217.541 441.251 220.66C441.042 217.331 442.03 215.179 443.627 215.754C444.432 216.045 445.251 216.972 445.941 218.271C446.381 219.09 446.699 219.97 446.942 220.87L447.497 222.9H447.491Z" fill="#FFCD00"/>
<path d="M426.539 279.674H450.771L448.227 287.389C447.726 288.904 446.312 289.933 444.715 289.933H432.237C430.91 289.933 429.726 289.087 429.3 287.828L426.539 279.681V279.674Z" fill="#FFCD00"/>
<path d="M450.774 279.674L448.054 287.761C447.614 289.06 446.396 289.94 445.022 289.94H432.287C430.913 289.94 429.695 289.06 429.255 287.761L426.535 279.674H450.767H450.774Z" stroke="#293B4A" stroke-miterlimit="10"/>
<path d="M438.658 277.813C438.591 260.219 438.618 242.849 442.989 236.562" stroke="#293B4A" stroke-miterlimit="10"/>
<path d="M451.779 256.484C451.779 256.484 450.439 269.788 439.578 271.859C439.578 271.859 439.064 261.952 451.779 256.484Z" fill="#19AD4A"/>
<path d="M423.19 252.641C423.19 252.641 436.338 255.091 437.489 266.087C437.489 266.087 427.575 265.769 423.19 252.641Z" fill="#19AD4A"/>
<path d="M451.489 245.488C451.489 245.488 448.559 255.253 440.134 255.226C440.134 255.226 441.183 247.742 451.489 245.488Z" fill="#19AD4A"/>
<path d="M426.539 243.871C426.539 243.871 435.201 242.294 438.483 248.79C438.483 248.79 432.311 250.915 426.539 243.871Z" fill="#19AD4A"/>
<path d="M447.369 232.52C448.407 231.688 448.154 229.647 446.803 227.961C445.452 226.276 443.515 225.584 442.477 226.416C441.439 227.248 441.692 229.289 443.043 230.974C444.394 232.66 446.331 233.352 447.369 232.52Z" fill="white" stroke="#293B4A" stroke-miterlimit="10"/>
<path d="M447.253 222.9C449.405 221.52 451.99 221.607 453.262 223.204C454.541 224.795 454.06 227.332 452.247 229.139C455.502 230.519 458.161 232.793 458.371 234.478C458.581 236.163 456.266 236.657 453.066 235.723" stroke="#293B4A" stroke-miterlimit="10"/>
<path d="M435.758 229.186C433.593 227.88 432.023 226.263 431.867 224.984C431.657 223.306 433.972 222.805 437.172 223.739C434.723 220.41 433.539 217.284 434.52 216.492C435.501 215.7 438.296 217.541 441.009 220.66C440.799 217.331 441.787 215.179 443.384 215.754C444.515 216.16 445.665 217.818 446.463 219.99" stroke="#293B4A" stroke-miterlimit="10"/>
<path d="M455.109 238.978C456.083 240.913 456.374 242.443 455.732 242.964C454.75 243.749 451.956 241.915 449.242 238.795C449.452 242.125 448.464 244.277 446.867 243.701C445.27 243.133 443.632 240.034 442.996 236.556C440.844 237.936 438.259 237.848 436.987 236.251C435.715 234.654 436.189 232.117 438.002 230.317" stroke="#293B4A" stroke-miterlimit="10"/>
</svg>
