<svg width="116" height="112" viewBox="0 0 116 112" fill="none" xmlns="http://www.w3.org/2000/svg">
<g filter="url(#filter0_d_191_4344)">
<path d="M97.4608 32.5323H20.2059C16.5944 32.5323 13.6667 35.46 13.6667 39.0715V92.7545C13.6667 96.366 16.5944 99.2937 20.2059 99.2937H97.4608C101.072 99.2937 104 96.366 104 92.7545V39.0715C104 35.46 101.072 32.5323 97.4608 32.5323Z" fill="white"/>
<path d="M87.7943 77.0398H29.8982C26.2725 77.0398 23.3333 79.979 23.3333 83.6048V83.6306C23.3333 87.2564 26.2725 90.1956 29.8982 90.1956H87.7943C91.42 90.1956 94.3593 87.2564 94.3593 83.6306V83.6048C94.3593 79.979 91.42 77.0398 87.7943 77.0398Z" fill="#F1F3F5"/>
<path d="M80.3505 82.0283H38.1432C37.1869 82.0283 36.4115 82.7262 36.4115 83.6049C36.4115 84.4837 37.1869 85.1816 38.1432 85.1816H80.3505C81.3068 85.1816 82.0822 84.4837 82.0822 83.6049C82.0822 82.7262 81.3068 82.0283 80.3505 82.0283Z" fill="#293B4A"/>
<path d="M29.0195 69.3895H84.822C87.1998 69.3895 89.1125 67.451 89.1125 65.099V16.7661" stroke="#FFCD00" stroke-miterlimit="10"/>
<path d="M78.7996 63.3415C81.1977 63.3415 83.1418 61.3974 83.1418 58.9993C83.1418 56.6012 81.1977 54.6571 78.7996 54.6571C76.4015 54.6571 74.4574 56.6012 74.4574 58.9993C74.4574 61.3974 76.4015 63.3415 78.7996 63.3415Z" fill="#293B4A" stroke="white" stroke-miterlimit="10"/>
<path d="M78.7996 50.7025C81.1977 50.7025 83.1418 48.7584 83.1418 46.3603C83.1418 43.9621 81.1977 42.0181 78.7996 42.0181C76.4015 42.0181 74.4574 43.9621 74.4574 46.3603C74.4574 48.7584 76.4015 50.7025 78.7996 50.7025Z" fill="#293B4A" stroke="white" stroke-miterlimit="10"/>
<path d="M78.7996 38.0894C81.1977 38.0894 83.1418 36.1454 83.1418 33.7472C83.1418 31.3491 81.1977 29.405 78.7996 29.405C76.4015 29.405 74.4574 31.3491 74.4574 33.7472C74.4574 36.1454 76.4015 38.0894 78.7996 38.0894Z" fill="#293B4A" stroke="white" stroke-miterlimit="10"/>
<path d="M65.4887 63.3415C67.8868 63.3415 69.8309 61.3974 69.8309 58.9993C69.8309 56.6012 67.8868 54.6571 65.4887 54.6571C63.0906 54.6571 61.1465 56.6012 61.1465 58.9993C61.1465 61.3974 63.0906 63.3415 65.4887 63.3415Z" fill="#293B4A" stroke="white" stroke-miterlimit="10"/>
<path d="M65.4887 50.7025C67.8868 50.7025 69.8309 48.7584 69.8309 46.3603C69.8309 43.9621 67.8868 42.0181 65.4887 42.0181C63.0906 42.0181 61.1465 43.9621 61.1465 46.3603C61.1465 48.7584 63.0906 50.7025 65.4887 50.7025Z" fill="#293B4A" stroke="white" stroke-miterlimit="10"/>
<path d="M65.4887 38.0894C67.8868 38.0894 69.8309 36.1454 69.8309 33.7472C69.8309 31.3491 67.8868 29.405 65.4887 29.405C63.0906 29.405 61.1465 31.3491 61.1465 33.7472C61.1465 36.1454 63.0906 38.0894 65.4887 38.0894Z" fill="#293B4A" stroke="white" stroke-miterlimit="10"/>
<path d="M52.1778 63.3415C54.5759 63.3415 56.52 61.3974 56.52 58.9993C56.52 56.6012 54.5759 54.6571 52.1778 54.6571C49.7796 54.6571 47.8356 56.6012 47.8356 58.9993C47.8356 61.3974 49.7796 63.3415 52.1778 63.3415Z" fill="#293B4A" stroke="white" stroke-miterlimit="10"/>
<path d="M52.1778 50.7025C54.5759 50.7025 56.52 48.7584 56.52 46.3603C56.52 43.9621 54.5759 42.0181 52.1778 42.0181C49.7796 42.0181 47.8356 43.9621 47.8356 46.3603C47.8356 48.7584 49.7796 50.7025 52.1778 50.7025Z" fill="#293B4A" stroke="white" stroke-miterlimit="10"/>
<path d="M38.8927 63.3415C41.2908 63.3415 43.2349 61.3974 43.2349 58.9993C43.2349 56.6012 41.2908 54.6571 38.8927 54.6571C36.4946 54.6571 34.5505 56.6012 34.5505 58.9993C34.5505 61.3974 36.4946 63.3415 38.8927 63.3415Z" fill="#293B4A" stroke="white" stroke-miterlimit="10"/>
<path d="M78.7996 25.4505C81.1977 25.4505 83.1418 23.5064 83.1418 21.1083C83.1418 18.7102 81.1977 16.7661 78.7996 16.7661C76.4015 16.7661 74.4574 18.7102 74.4574 21.1083C74.4574 23.5064 76.4015 25.4505 78.7996 25.4505Z" fill="#293B4A" stroke="white" stroke-miterlimit="10"/>
<path d="M33.4859 45.4511C43.3195 42.2255 48.6764 31.639 45.4509 21.8055C42.2254 11.9719 31.6389 6.61496 21.8053 9.84048C11.9717 13.066 6.6148 23.6525 9.84031 33.4861C13.0658 43.3197 23.6523 48.6766 33.4859 45.4511Z" fill="#FFCD00"/>
<path d="M27.6495 21.3927V38.684" stroke="#293B4A" stroke-miterlimit="10"/>
<path d="M18.5257 26.2002L27.6495 17.5675L36.7733 26.1744" stroke="#293B4A" stroke-miterlimit="10"/>
</g>
<defs>
<filter id="filter0_d_191_4344" x="0.901871" y="0.901978" width="115.098" height="110.392" filterUnits="userSpaceOnUse" color-interpolation-filters="sRGB">
<feFlood flood-opacity="0" result="BackgroundImageFix"/>
<feColorMatrix in="SourceAlpha" type="matrix" values="0 0 0 0 0 0 0 0 0 0 0 0 0 0 0 0 0 0 127 0" result="hardAlpha"/>
<feOffset dx="2" dy="2"/>
<feGaussianBlur stdDeviation="5"/>
<feColorMatrix type="matrix" values="0 0 0 0 0 0 0 0 0 0 0 0 0 0 0 0 0 0 0.25 0"/>
<feBlend mode="normal" in2="BackgroundImageFix" result="effect1_dropShadow_191_4344"/>
<feBlend mode="normal" in="SourceGraphic" in2="effect1_dropShadow_191_4344" result="shape"/>
</filter>
</defs>
</svg>
