<svg width="106" height="93" viewBox="0 0 106 93" fill="none" xmlns="http://www.w3.org/2000/svg">
<g filter="url(#filter0_d_191_4366)">
<path d="M74.8435 32.0422H18.6567C16.0258 32.0422 13.893 34.175 13.893 36.8059V75.8517C13.893 78.4826 16.0258 80.6153 18.6567 80.6153H74.8435C77.4744 80.6153 79.6072 78.4826 79.6072 75.8517V36.8059C79.6072 34.175 77.4744 32.0422 74.8435 32.0422Z" fill="white"/>
<path d="M93.491 8.48853H26.1686V58.0999H93.491V8.48853Z" fill="white"/>
<path d="M93.491 37.2537H26.1686V38.2105H93.491V37.2537Z" fill="#F2F4F5"/>
<path d="M93.491 27.7468H26.1686V28.7036H93.491V27.7468Z" fill="#F2F4F5"/>
<path d="M93.491 46.7404H26.1686V47.6972H93.491V46.7404Z" fill="#F2F4F5"/>
<path d="M93.491 18.2605H26.1686V19.2173H93.491V18.2605Z" fill="#F2F4F5"/>
<path d="M67.2298 11.4609H93.0635V16.3467H67.2298C65.8862 16.3467 64.7869 15.2474 64.7869 13.9038C64.7869 12.5602 65.8862 11.4609 67.2298 11.4609Z" fill="#FFD530"/>
<path d="M65.5809 49.7532H93.0636V54.639H65.5809C64.2373 54.639 63.138 53.5397 63.138 52.1961C63.138 50.8525 64.2373 49.7532 65.5809 49.7532Z" fill="#4076BB"/>
<path d="M81.0729 21.0291H93.0635V25.9149H81.0729C79.7293 25.9149 78.63 24.8156 78.63 23.472C78.63 22.1284 79.7293 21.0291 81.0729 21.0291Z" fill="#4076BB"/>
<path d="M26.1686 21.0291H52.0023C53.3459 21.0291 54.4452 22.1284 54.4452 23.472C54.4452 24.8156 53.3459 25.9149 52.0023 25.9149H26.1686V21.0291Z" fill="#FFD530"/>
<path d="M43.6965 45.0714H85.857C87.2006 45.0714 88.2999 43.972 88.2999 42.6285C88.2999 41.2849 87.2006 40.1855 85.857 40.1855H43.6965C42.3529 40.1855 41.2536 41.2849 41.2536 42.6285C41.2536 43.972 42.3529 45.0714 43.6965 45.0714Z" fill="#FFD530"/>
<path d="M26.1686 30.5969H66.6191C67.9627 30.5969 69.062 31.6962 69.062 33.0398C69.062 34.3834 67.9627 35.4827 66.6191 35.4827H26.1686V30.5969Z" fill="#4076BB"/>
<path d="M93.5114 57.8149H69.9985V58.7717H93.5114V57.8149ZM93.0432 8.48858V58.2831H94V8.48858H93.0432ZM58.2318 8.9568H93.5114V8H58.2318V8.9568ZM93.5114 58.2831V58.7514H93.9797V58.2831H93.5114ZM93.5114 8.48858H93.9797V8.02036H93.5114V8.48858Z" fill="#00193C"/>
<path d="M52.5723 63.4745H26.8811C26.2093 63.4745 25.68 64.0241 25.68 64.6959V65.6527C25.68 66.3245 26.2297 66.8742 26.8811 66.8742H52.5723C53.2441 66.8742 53.7734 66.3245 53.7734 65.6527V64.6959C53.7734 64.0241 53.2238 63.4745 52.5723 63.4745Z" fill="#F2F4F5"/>
<path d="M69.4691 70.62H26.8811C26.2093 70.62 25.68 71.1696 25.68 71.8414V72.7983C25.68 73.4701 26.2297 74.0197 26.8811 74.0197H69.4487C70.1205 74.0197 70.6498 73.4701 70.6498 72.7983V71.8414C70.6498 71.1696 70.1002 70.62 69.4487 70.62H69.4691Z" fill="#F2F4F5"/>
<path d="M26.1686 8.97719H39.1771V8.02039H26.1686V8.97719ZM26.6368 58.3035V8.48861H25.68V58.2832H26.6368V58.3035ZM63.9319 57.8353H26.1686V58.7921H63.9522V57.8353H63.9319ZM26.1686 8.48861V8.02039H25.7004V8.48861H26.1686ZM26.1686 58.2832H25.7004V58.7514H26.1686V58.2832Z" fill="#00193C"/>
<path d="M25.2687 69.7265C31.1413 66.7896 33.5211 59.6481 30.5842 53.7755C27.6473 47.903 20.5058 45.5232 14.6332 48.4601C8.76065 51.397 6.38084 58.5385 9.31775 64.411C12.2547 70.2836 19.3962 72.6634 25.2687 69.7265Z" fill="#FFD530"/>
<path d="M20.6721 62.0089L32.3369 50.3237L31.6651 49.6519L20.0003 61.3371L20.6721 62.0089ZM19.3081 61.3167L20.0003 62.0089L20.6721 61.3371L19.9799 60.6449L19.3081 61.3167ZM18.7177 60.7264L19.3081 61.3167L19.9799 60.6449L19.3895 60.0546L18.7177 60.7264ZM15.8473 57.8559L18.7177 60.7264L19.3895 60.0546L16.5191 57.1841L15.8473 57.8559ZM20.326 61.6628L19.9799 62.0089L20.326 62.355L20.6721 62.0089L20.326 61.6628Z" fill="#00193C"/>
<path d="M18.6974 49.8146C20.8756 49.5092 23.0946 49.9978 24.9471 51.1989L25.4561 50.405C23.4203 49.0817 20.9774 48.5524 18.5549 48.8782L18.677 49.8146H18.6974ZM13.0583 52.8275C14.5241 51.1786 16.5191 50.12 18.6974 49.8146L18.5752 48.8782C16.173 49.2039 13.954 50.3846 12.3458 52.1964L13.0583 52.8275ZM10.7376 58.7923C10.7783 56.5937 11.5926 54.4765 13.0583 52.8275L12.3458 52.1964C10.7376 54.0083 9.82146 56.3494 9.78075 58.7719H10.7376V58.7923ZM12.8547 64.8385C11.4501 63.1488 10.6968 61.0113 10.7376 58.8126H9.78075C9.74003 61.2148 10.5747 63.5967 12.1219 65.4492L12.8547 64.8385ZM18.392 68.0346C16.2137 67.6682 14.2594 66.5281 12.8547 64.8385L12.1219 65.4492C13.669 67.3221 15.8473 68.5639 18.2291 68.9711L18.392 68.0346ZM24.6825 66.8539C22.7892 67.9939 20.5702 68.401 18.392 68.0346L18.2291 68.9711C20.6313 69.3782 23.0742 68.91 25.1711 67.6682L24.6825 66.8539ZM28.6929 61.8663C28.0008 63.9631 26.5757 65.7342 24.6825 66.8539L25.1711 67.6682C27.2475 66.4264 28.8151 64.472 29.5886 62.1716L28.6929 61.8663ZM28.4893 55.474C29.324 57.5098 29.3851 59.7694 28.6929 61.8663L29.5886 62.1716C30.3622 59.8712 30.2808 57.3673 29.3647 55.1076L28.4893 55.474ZM27.7768 54.0693C28.0618 54.5172 28.2858 54.9854 28.4893 55.474L29.3647 55.1279C29.1408 54.5986 28.8965 54.0693 28.5911 53.5807L27.7768 54.0897V54.0693ZM12.6919 52.5425L13.038 52.8682L12.6715 52.5425H12.6919Z" fill="#00193C"/>
</g>
<defs>
<filter id="filter0_d_191_4366" x="0.0595551" y="0" width="105.94" height="92.6154" filterUnits="userSpaceOnUse" color-interpolation-filters="sRGB">
<feFlood flood-opacity="0" result="BackgroundImageFix"/>
<feColorMatrix in="SourceAlpha" type="matrix" values="0 0 0 0 0 0 0 0 0 0 0 0 0 0 0 0 0 0 127 0" result="hardAlpha"/>
<feOffset dx="2" dy="2"/>
<feGaussianBlur stdDeviation="5"/>
<feColorMatrix type="matrix" values="0 0 0 0 0 0 0 0 0 0 0 0 0 0 0 0 0 0 0.25 0"/>
<feBlend mode="normal" in2="BackgroundImageFix" result="effect1_dropShadow_191_4366"/>
<feBlend mode="normal" in="SourceGraphic" in2="effect1_dropShadow_191_4366" result="shape"/>
</filter>
</defs>
</svg>
