<svg xmlns="http://www.w3.org/2000/svg" width="510" height="259" viewBox="0 0 510 259" fill="none"><rect x="70.6066" y="0.42792" width="397.965" height="257.608" rx="15.833" stroke="white" stroke-width="0.855839"></rect><rect x="84.728" y="43.6477" width="369.723" height="199.411" rx="8.55839" fill="#526373"></rect><g clip-path="url(#clip0_89_854)"><path d="M236.367 150.511V155.72" stroke="white" stroke-width="1.35151" stroke-miterlimit="10"></path><path d="M212.65 155.72V150.511" stroke="white" stroke-width="1.35151" stroke-miterlimit="10"></path><path d="M198.938 158.128H249.434" stroke="white" stroke-width="1.35151" stroke-miterlimit="10"></path><path d="M189.191 141.489H264.514V96.7107H184.504V147.649H264.514" stroke="white" stroke-width="1.35151" stroke-miterlimit="10"></path><path d="M197.489 129.41V121.716" stroke="white" stroke-width="1.35151" stroke-miterlimit="10"></path><path d="M201.591 129.411V119.188" stroke="white" stroke-width="1.35151" stroke-miterlimit="10"></path><path d="M205.688 129.41V116.326" stroke="white" stroke-width="1.35151" stroke-miterlimit="10"></path><path d="M209.784 129.41V113.465" stroke="white" stroke-width="1.35151" stroke-miterlimit="10"></path><path d="M195.618 131.868H212.164" stroke="white" stroke-width="1.35151" stroke-miterlimit="10"></path><path d="M195.618 108.823H212.164" stroke="white" stroke-width="1.35151" stroke-miterlimit="10"></path><path d="M246.059 118.275C249.228 118.275 251.797 115.711 251.797 112.547C251.797 109.383 249.228 106.819 246.059 106.819C242.89 106.819 240.321 109.383 240.321 112.547C240.321 115.711 242.89 118.275 246.059 118.275Z" stroke="white" stroke-width="1.35151" stroke-miterlimit="10"></path><path d="M226.051 117.626H218.301" stroke="white" stroke-width="1.35151" stroke-miterlimit="10"></path><path d="M226.051 113.225H218.301" stroke="white" stroke-width="1.35151" stroke-miterlimit="10"></path><path d="M226.051 108.823H218.301" stroke="white" stroke-width="1.35151" stroke-miterlimit="10"></path><path d="M228.846 113.225H237.411" stroke="white" stroke-width="1.35151" stroke-miterlimit="10"></path><path d="M228.846 117.626H233.047V108.823H228.846" stroke="white" stroke-width="1.35151" stroke-miterlimit="10"></path><path d="M218.301 131.977H253.399" stroke="white" stroke-width="1.35151" stroke-miterlimit="10"></path><path d="M218.301 127.423H253.399" stroke="white" stroke-width="1.35151" stroke-miterlimit="10"></path><path d="M157.516 181.648V194.181" stroke="white" stroke-width="1.35151" stroke-miterlimit="10"></path><path d="M172.405 181.648V194.181" stroke="white" stroke-width="1.35151" stroke-miterlimit="10"></path><path d="M187.293 181.648V194.181" stroke="white" stroke-width="1.35151" stroke-miterlimit="10"></path><path d="M215.587 194.399H149.618" stroke="white" stroke-width="1.35151" stroke-miterlimit="10"></path><path d="M200.962 201.995H178.673" stroke="white" stroke-width="1.35151" stroke-miterlimit="10"></path><path d="M152.73 176.674L172.405 162.836L192.074 176.674H152.73Z" stroke="white" stroke-width="1.35151" stroke-miterlimit="10"></path><path d="M158.988 214.997C159.69 216.07 160.633 216.966 161.741 217.613C162.85 218.259 164.095 218.64 165.376 218.724C166.658 218.807 167.941 218.592 169.125 218.095C170.309 217.598 171.36 216.832 172.197 215.859" stroke="white" stroke-width="1.35151" stroke-miterlimit="10"></path><path d="M164.561 202.329C163.296 202.54 162.097 203.043 161.061 203.798C160.024 204.552 159.177 205.537 158.587 206.674C157.998 207.812 157.682 209.071 157.664 210.351C157.646 211.632 157.927 212.899 158.484 214.053" stroke="white" stroke-width="1.35151" stroke-miterlimit="10"></path><path d="M138.728 204.775L153.879 211.394C153.365 209.413 153.533 207.318 154.356 205.444C155.178 203.571 156.607 202.027 158.413 201.062L143.246 194.432C143.765 196.412 143.601 198.509 142.782 200.385C141.962 202.261 140.534 203.807 138.728 204.775V204.775Z" stroke="white" stroke-width="1.35151" stroke-miterlimit="10"></path><path d="M132.586 203.497C133.942 203.268 135.22 202.705 136.304 201.858C137.388 201.012 138.243 199.909 138.793 198.65C139.342 197.391 139.569 196.014 139.451 194.646C139.334 193.277 138.877 191.959 138.121 190.811" stroke="white" stroke-width="1.35151" stroke-miterlimit="10"></path><path d="M133.915 183.144C135.393 183.335 136.794 183.916 137.973 184.826L142.453 174.587L138.356 172.801L133.838 183.133L133.915 183.144Z" stroke="white" stroke-width="1.35151" stroke-miterlimit="10"></path><path d="M131.328 187.087C131.65 187.087 131.971 187.109 132.29 187.153C133.986 187.374 135.571 188.116 136.825 189.277" stroke="white" stroke-width="1.35151" stroke-miterlimit="10"></path><path d="M147.206 161.656L143 170.825" stroke="white" stroke-width="1.35151" stroke-miterlimit="10"></path><path d="M147.474 172.223L136.682 167.521" stroke="white" stroke-width="1.35151" stroke-miterlimit="10"></path><path d="M157.708 209.405C157.505 210.996 157.776 212.612 158.485 214.052C158.643 214.38 158.826 214.696 159.032 214.997C159.734 216.07 160.677 216.966 161.786 217.613C162.894 218.259 164.139 218.64 165.42 218.724C166.702 218.807 167.985 218.592 169.169 218.095C170.353 217.598 171.405 216.832 172.241 215.859C173.293 214.646 173.963 213.149 174.166 211.556C174.423 209.398 173.817 207.226 172.48 205.511C171.144 203.795 169.184 202.674 167.026 202.391C164.867 202.108 162.684 202.686 160.95 203.999C159.215 205.311 158.068 207.254 157.757 209.405H157.708Z" stroke="white" stroke-width="1.35151" stroke-miterlimit="10"></path><path d="M165.918 213.856C167.784 213.856 169.298 212.345 169.298 210.481C169.298 208.617 167.784 207.106 165.918 207.106C164.051 207.106 162.537 208.617 162.537 210.481C162.537 212.345 164.051 213.856 165.918 213.856Z" stroke="white" stroke-width="1.35151" stroke-miterlimit="10"></path><path d="M158.988 214.997C159.69 216.07 160.633 216.966 161.742 217.613C162.851 218.26 164.095 218.64 165.377 218.724C166.658 218.807 167.941 218.592 169.125 218.095C170.309 217.598 171.361 216.833 172.197 215.86C173.25 214.646 173.92 213.149 174.122 211.556C174.298 210.278 174.172 208.976 173.753 207.755C173.334 206.534 172.635 205.429 171.711 204.526C170.787 203.624 169.664 202.95 168.432 202.559C167.2 202.168 165.894 202.07 164.618 202.274C163.341 202.477 162.13 202.977 161.082 203.732C160.034 204.487 159.177 205.476 158.581 206.621C157.985 207.766 157.666 209.035 157.649 210.325C157.632 211.616 157.918 212.892 158.485 214.052" stroke="white" stroke-width="1.35151" stroke-miterlimit="10"></path><path d="M123.003 194.268C122.714 196.44 123.301 198.638 124.634 200.379C125.967 202.12 127.938 203.261 130.114 203.551C130.93 203.66 131.758 203.645 132.569 203.508V203.508C133.926 203.279 135.204 202.715 136.288 201.869C137.372 201.023 138.227 199.92 138.777 198.661C139.326 197.401 139.553 196.025 139.435 194.657C139.318 193.288 138.861 191.97 138.105 190.822C137.736 190.259 137.299 189.743 136.803 189.288C135.549 188.127 133.964 187.384 132.269 187.163C131.95 187.12 131.628 187.098 131.306 187.098C129.283 187.071 127.32 187.786 125.79 189.108C124.26 190.429 123.268 192.265 123.003 194.268V194.268Z" stroke="white" stroke-width="1.35151" stroke-miterlimit="10"></path><path d="M131.207 198.718C133.074 198.718 134.588 197.207 134.588 195.343C134.588 193.479 133.074 191.969 131.207 191.969C129.341 191.969 127.827 193.479 127.827 195.343C127.827 197.207 129.341 198.718 131.207 198.718Z" stroke="white" stroke-width="1.35151" stroke-miterlimit="10"></path><path d="M123.003 194.268C122.714 196.44 123.301 198.638 124.634 200.379C125.967 202.12 127.938 203.261 130.114 203.551C130.93 203.66 131.758 203.645 132.569 203.508V203.508C133.926 203.279 135.204 202.715 136.288 201.869C137.372 201.023 138.227 199.92 138.777 198.661C139.326 197.401 139.553 196.025 139.435 194.657C139.318 193.288 138.861 191.97 138.105 190.822C137.736 190.259 137.299 189.743 136.803 189.288C135.549 188.127 133.964 187.384 132.269 187.163C131.95 187.12 131.628 187.098 131.306 187.098C129.283 187.071 127.32 187.786 125.79 189.108C124.26 190.429 123.268 192.265 123.003 194.268V194.268Z" stroke="white" stroke-width="1.35151" stroke-miterlimit="10"></path><path d="M314.287 92.1672V72.1917" stroke="white" stroke-width="1.35151" stroke-miterlimit="10"></path><path d="M316.142 74.3656L314.287 72.5144L312.433 74.3656V72.7929L314.287 70.9417L316.142 72.7929V74.3656Z" fill="white"></path><path d="M349.402 112.334H302.582V102.936V100.441V65.5898H349.402V112.334Z" stroke="white" stroke-width="1.35151" stroke-miterlimit="10"></path><path d="M306.766 98.2622H316.672V112.335" stroke="white" stroke-width="1.35151" stroke-miterlimit="10"></path><path d="M316.672 117.025V126.407H288.487V98.2622H302.582" stroke="white" stroke-width="1.35151" stroke-miterlimit="10"></path><path d="M320.856 93.5981L339.836 74.6492" stroke="white" stroke-width="1.35151" stroke-miterlimit="10"></path><path d="M339.606 77.4944V74.8786H336.986L338.097 73.7646H340.722V76.3858L339.606 77.4944Z" fill="white"></path><path d="M322.289 98.1907H342.297" stroke="white" stroke-width="1.35151" stroke-miterlimit="10"></path><path d="M340.12 100.042L341.975 98.1903L340.12 96.3391H341.696L343.55 98.1903L341.696 100.042H340.12Z" fill="white"></path><path d="M297.813 167.876L304.24 153.11" stroke="white" stroke-width="1.35151" stroke-miterlimit="10"></path><path d="M283.542 167.401L290.363 170.803" stroke="white" stroke-width="1.35151" stroke-miterlimit="10"></path><path d="M265.438 176.739L274.102 168.575" stroke="white" stroke-width="1.35151" stroke-miterlimit="10"></path><path d="M248.892 174.986L255.708 178.388" stroke="white" stroke-width="1.35151" stroke-miterlimit="10"></path><path d="M234.994 194.388L241.454 178.011" stroke="white" stroke-width="1.35151" stroke-miterlimit="10"></path><path d="M226.423 194.388H413.32" stroke="white" stroke-width="1.35151" stroke-miterlimit="10"></path><path d="M243.674 176.188C245.78 176.188 247.486 174.483 247.486 172.381C247.486 170.279 245.78 168.575 243.674 168.575C241.569 168.575 239.862 170.279 239.862 172.381C239.862 174.483 241.569 176.188 243.674 176.188Z" stroke="white" stroke-width="1.35151" stroke-miterlimit="10"></path><path d="M260.931 184.739C263.036 184.739 264.743 183.035 264.743 180.933C264.743 178.831 263.036 177.127 260.931 177.127C258.825 177.127 257.119 178.831 257.119 180.933C257.119 183.035 258.825 184.739 260.931 184.739Z" stroke="white" stroke-width="1.35151" stroke-miterlimit="10"></path><path d="M278.346 168.531C280.452 168.531 282.159 166.827 282.159 164.725C282.159 162.623 280.452 160.919 278.346 160.919C276.241 160.919 274.534 162.623 274.534 164.725C274.534 166.827 276.241 168.531 278.346 168.531Z" stroke="white" stroke-width="1.35151" stroke-miterlimit="10"></path><path d="M295.647 177.432C297.752 177.432 299.459 175.728 299.459 173.626C299.459 171.524 297.752 169.82 295.647 169.82C293.541 169.82 291.834 171.524 291.834 173.626C291.834 175.728 293.541 177.432 295.647 177.432Z" stroke="white" stroke-width="1.35151" stroke-miterlimit="10"></path><path d="M306.684 151.302C308.79 151.302 310.497 149.598 310.497 147.496C310.497 145.394 308.79 143.69 306.684 143.69C304.579 143.69 302.872 145.394 302.872 147.496C302.872 149.598 304.579 151.302 306.684 151.302Z" stroke="white" stroke-width="1.35151" stroke-miterlimit="10"></path><path d="M326.747 187.081C328.986 187.081 330.8 185.27 330.8 183.035C330.8 180.8 328.986 178.989 326.747 178.989C324.509 178.989 322.694 180.8 322.694 183.035C322.694 185.27 324.509 187.081 326.747 187.081Z" stroke="white" stroke-width="1.35151" stroke-miterlimit="10"></path><path d="M344.841 187.081C347.079 187.081 348.894 185.27 348.894 183.035C348.894 180.8 347.079 178.989 344.841 178.989C342.602 178.989 340.788 180.8 340.788 183.035C340.788 185.27 342.602 187.081 344.841 187.081Z" stroke="white" stroke-width="1.35151" stroke-miterlimit="10"></path><path d="M362.934 187.081C365.173 187.081 366.987 185.27 366.987 183.035C366.987 180.8 365.173 178.989 362.934 178.989C360.696 178.989 358.881 180.8 358.881 183.035C358.881 185.27 360.696 187.081 362.934 187.081Z" stroke="white" stroke-width="1.35151" stroke-miterlimit="10"></path><path d="M326.747 169.116C328.986 169.116 330.8 167.304 330.8 165.069C330.8 162.834 328.986 161.023 326.747 161.023C324.509 161.023 322.694 162.834 322.694 165.069C322.694 167.304 324.509 169.116 326.747 169.116Z" stroke="white" stroke-width="1.35151" stroke-miterlimit="10"></path><path d="M344.841 169.116C347.079 169.116 348.894 167.304 348.894 165.069C348.894 162.834 347.079 161.023 344.841 161.023C342.602 161.023 340.788 162.834 340.788 165.069C340.788 167.304 342.602 169.116 344.841 169.116Z" stroke="white" stroke-width="1.35151" stroke-miterlimit="10"></path><path d="M362.934 169.116C365.173 169.116 366.987 167.304 366.987 165.069C366.987 162.834 365.173 161.023 362.934 161.023C360.696 161.023 358.881 162.834 358.881 165.069C358.881 167.304 360.696 169.116 362.934 169.116Z" stroke="white" stroke-width="1.35151" stroke-miterlimit="10"></path><path d="M326.747 151.155C328.986 151.155 330.8 149.344 330.8 147.109C330.8 144.874 328.986 143.062 326.747 143.062C324.509 143.062 322.694 144.874 322.694 147.109C322.694 149.344 324.509 151.155 326.747 151.155Z" stroke="white" stroke-width="1.35151" stroke-miterlimit="10"></path><path d="M344.841 151.155C347.079 151.155 348.894 149.344 348.894 147.109C348.894 144.874 347.079 143.062 344.841 143.062C342.602 143.062 340.788 144.874 340.788 147.109C340.788 149.344 342.602 151.155 344.841 151.155Z" stroke="white" stroke-width="1.35151" stroke-miterlimit="10"></path><path d="M362.934 139.049C365.173 139.049 366.987 137.237 366.987 135.003C366.987 132.768 365.173 130.956 362.934 130.956C360.696 130.956 358.881 132.768 358.881 135.003C358.881 137.237 360.696 139.049 362.934 139.049Z" stroke="white" stroke-width="1.35151" stroke-miterlimit="10"></path><path d="M362.934 142.375V150.5" stroke="white" stroke-width="1.35151" stroke-miterlimit="10"></path><path d="M366.719 147.24L362.934 151.018L359.149 147.24" stroke="white" stroke-width="1.35151" stroke-miterlimit="10"></path><path d="M139.642 75.6978H283.542" stroke="white" stroke-width="1.35151" stroke-miterlimit="10"></path><path d="M362.934 75.6978H416.794" stroke="white" stroke-width="1.35151" stroke-miterlimit="10"></path><path d="M397.53 102.009V111.095" stroke="white" stroke-width="1.35151" stroke-miterlimit="10"></path><path d="M402.08 106.552H392.979" stroke="white" stroke-width="1.35151" stroke-miterlimit="10"></path><path d="M402.08 143.302H392.979" stroke="white" stroke-width="1.35151" stroke-miterlimit="10"></path><path d="M400.746 121.71L394.308 128.138" stroke="white" stroke-width="1.35151" stroke-miterlimit="10"></path><path d="M400.746 128.138L394.308 121.71" stroke="white" stroke-width="1.35151" stroke-miterlimit="10"></path><path d="M413.321 92.1404H381.733V155.638H413.321V92.1404Z" stroke="white" stroke-width="1.35151" stroke-miterlimit="10"></path></g><line x1="83.8723" y1="32.9498" x2="454.451" y2="32.9498" stroke="white" stroke-width="0.855839"></line><circle cx="422.785" cy="16.2609" r="4.2792" fill="#19AD4A"></circle><circle cx="436.478" cy="16.2609" r="4.2792" fill="#FFCD00"></circle><circle cx="450.172" cy="16.2609" r="4.2792" fill="#FF340C"></circle><g filter="url(#filter0_d_89_854)"><path d="M95.3235 161.223C112.872 143.675 112.872 115.223 95.3235 97.6742C77.7749 80.1257 49.3231 80.1257 31.7745 97.6742C14.2259 115.223 14.2259 143.675 31.7745 161.223C49.3231 178.772 77.7749 178.772 95.3235 161.223Z" fill="#FFCD00"></path></g><path d="M67.7266 112.572C71.7649 113.81 74.617 116.793 74.617 120.282" stroke="#293B4A" stroke-miterlimit="10"></path><path d="M63.5487 128.603C57.4346 128.603 52.4805 124.879 52.4805 120.282C52.4805 115.685 57.4346 111.961 63.5487 111.961" stroke="#293B4A" stroke-miterlimit="10"></path><path d="M59.2924 144.616C55.289 143.361 52.4805 140.395 52.4805 136.932" stroke="#293B4A" stroke-miterlimit="10"></path><path d="M63.5488 128.603C69.663 128.603 74.6171 132.327 74.6171 136.924C74.6171 141.52 69.663 145.244 63.5488 145.244" stroke="#293B4A" stroke-miterlimit="10"></path><path d="M63.5488 105.394V111.961V153.496" stroke="#293B4A" stroke-miterlimit="10"></path><path d="M66.4165 167.685C87.5329 166.101 103.367 147.698 101.783 126.582C100.199 105.466 81.7966 89.6315 60.6802 91.2156C39.5638 92.7996 23.7297 111.202 25.3137 132.318C26.8978 153.435 45.3001 169.269 66.4165 167.685Z" stroke="#293B4A" stroke-miterlimit="10"></path><path d="M477.5 219C495.449 219 510 204.449 510 186.5C510 168.551 495.449 154 477.5 154C459.551 154 445 168.551 445 186.5C445 204.449 459.551 219 477.5 219Z" fill="#5273FD"></path><path d="M458.633 186.485C462.218 179.74 469.322 175.153 477.5 175.153C485.678 175.153 492.777 179.745 496.367 186.485C493.378 193.671 485.678 197.842 477.5 197.842C471.367 197.842 465.84 195.258 461.946 191.113" fill="#5273FD"></path><path d="M458.633 186.485C462.218 179.74 469.322 175.153 477.5 175.153C485.678 175.153 492.777 179.745 496.367 186.485C493.378 193.671 485.678 197.842 477.5 197.842C471.367 197.842 465.84 195.258 461.946 191.113" stroke="white" stroke-miterlimit="10"></path><path d="M481.414 188.853C480.115 191.015 477.31 191.714 475.147 190.414C472.985 189.115 472.286 186.31 473.586 184.148C474.885 181.985 477.69 181.286 479.853 182.586C480.387 182.904 480.829 183.315 481.173 183.788" fill="#5273FD"></path><path d="M481.414 188.853C480.115 191.015 477.31 191.714 475.147 190.414C472.985 189.115 472.286 186.31 473.586 184.148C474.885 181.985 477.69 181.286 479.853 182.586C480.387 182.904 480.829 183.315 481.173 183.788" stroke="white" stroke-miterlimit="10"></path><defs><filter id="filter0_d_89_854" x="16.1273" y="82.0269" width="99.8149" height="99.8152" filterUnits="userSpaceOnUse" color-interpolation-filters="sRGB"><feGaussianBlur stdDeviation="2.48578"></feGaussianBlur></filter><clipPath id="clip0_89_854"><rect width="294.409" height="192.564" fill="white" transform="translate(122.385 65.0437)"></rect></clipPath></defs></svg>