<svg xmlns="http://www.w3.org/2000/svg" viewBox="0 0 815.17 707.18"><defs><style>.cls-1{opacity:0.15;}.cls-2{fill:#1a3141;}.cls-3{fill:#293b4a;}</style></defs><g id="Layer_2" data-name="Layer 2"><g id="ARTWORK"><g class="cls-1"><polygon class="cls-2" points="514.71 279.14 442.53 392.35 571.9 392.35 644.08 279.14 514.71 279.14"></polygon></g><g class="cls-1"><path class="cls-2" d="M719.82,152.09s9.12,50.52-29.8,60.73c0,0-6.69-11-5.55-18.5,0,0,11.32,42.06-37.76,21,0,0,2.82,11,3.59,12.68,0,0,1.49,10.53-20.95,17.54,0,0,10.12,19.23,32.19,0,0,0,2.29-4.53,8.48-2.77s25-2.14,28.35-10.11a26.07,26.07,0,0,0,2.06-14.31s7.15,1.92,9.63,1.76c0,0-5.58,14.08,1.42,21.06,6.6,6.59,18.5,18.4,30.64,12.92s20.13-24.51,20.13-24.51-39.1,12-31.78-18c0,0,5.91-12,1.54-25S726.48,166,726.48,166Z"></path></g><g class="cls-1"><polygon class="cls-2" points="442.53 655.67 442.53 414.68 457.89 414.68 457.89 656.14 442.53 655.67"></polygon></g><g class="cls-1"><polygon class="cls-2" points="718.21 608.48 710.53 597.97 710.53 409.01 725.89 409.01 725.89 634.24 718.21 608.48"></polygon></g><path class="cls-3" d="M493,87.54c19.38-.08,38.87,0,58.67.21,0,.21-.07.41-.1.62-13.64-14.58-7.19-29.16-.51-43.74s13.6-29.15,1.8-43.73l1.64.89-59.42-.12c0-.26.09-.52.12-.77C520.28,29.88,469.52,58.67,493,87.54Zm-.22,1.66c-27.1-29.45,26.19-59,.88-88.3-.22-.26-.44-.52-.68-.77h.77L553,0h.85l.85.9c13.38,14.57,6.86,29.16.18,43.73s-13.64,29.16-2,43.74l.5.61h-.57C533,89.18,513,89.27,492.78,89.2Z"></path><path class="cls-3" d="M548.43,20.08a48.55,48.55,0,0,1-8.75,1.68,79.58,79.58,0,0,1-8.69.46,76.92,76.92,0,0,1-8.6-.45,45.08,45.08,0,0,1-8.52-1.69,48,48,0,0,1,8.67-1.68,75.49,75.49,0,0,1,8.63-.46,81.13,81.13,0,0,1,8.65.46A47.81,47.81,0,0,1,548.43,20.08Z"></path><path class="cls-3" d="M543.66,37.72a75.55,75.55,0,0,1-9.14,1.18q-4.47.33-8.79.33c-2.89,0-5.71-.11-8.5-.33a52.37,52.37,0,0,1-8.13-1.18,73.85,73.85,0,0,1,9.14-1.18c3-.22,5.9-.34,8.78-.33s5.71.11,8.5.33A53.55,53.55,0,0,1,543.66,37.72Z"></path><path class="cls-3" d="M539.11,47.81A74.31,74.31,0,0,1,529.94,49c-3,.22-5.91.34-8.79.34s-5.71-.11-8.49-.33a51.77,51.77,0,0,1-8.11-1.19,78.25,78.25,0,0,1,9.18-1.18c3-.22,5.91-.33,8.79-.33s5.71.12,8.48.34A53.16,53.16,0,0,1,539.11,47.81Z"></path><path class="cls-3" d="M535,57.91a56.45,56.45,0,0,1-9.18,1.68,82,82,0,0,1-8.78.46,76.63,76.63,0,0,1-8.5-.45,38.85,38.85,0,0,1-8.1-1.69,57.78,57.78,0,0,1,9.23-1.69,82.67,82.67,0,0,1,8.81-.45,76.07,76.07,0,0,1,8.47.46A38.64,38.64,0,0,1,535,57.91Z"></path><path class="cls-3" d="M532.78,68a13.64,13.64,0,0,1-4.13,1.67,18.19,18.19,0,0,1-4,.47,17.33,17.33,0,0,1-4-.46,11.54,11.54,0,0,1-4-1.68,13.42,13.42,0,0,1,4.23-1.69,18.83,18.83,0,0,1,4.11-.46,17.25,17.25,0,0,1,4,.47A11.33,11.33,0,0,1,532.78,68Z"></path><path class="cls-3" d="M396.82,281.24c19.18-.19,38.38-.16,58,.06-.11.42-.2.85-.27,1.28-6.27-7.29-7.8-14.58-6.88-21.87a50,50,0,0,1,2.82-10.93c1.38-3.65,3-7.29,4.71-10.94,3.35-7.28,6.64-14.57,7.79-21.86a27.62,27.62,0,0,0-5.31-21.87l1.35.75c-9.68.26-19.5.35-29.25.54s-19.6.23-29.49.23a14.28,14.28,0,0,0,.33-1.52c5.84,7.2,7.24,14.4,6.28,21.6s-4.16,14.37-7.45,21.55C392.9,252.59,386.09,266.92,396.82,281.24Zm-.46,2.68c-13.49-14.83-7-29.66-.24-44.49,3.39-7.4,6.84-14.79,7.92-22.18a26.69,26.69,0,0,0-6.42-22.14c-.43-.51-.87-1-1.34-1.52h1.54c9.88,0,19.91.16,29.87.23s20,.27,30.13.54l.71,0,.68.73c6.61,7.29,8.25,14.58,7.39,21.87s-4.26,14.57-7.58,21.86c-1.67,3.65-3.34,7.29-4.72,10.94a50.89,50.89,0,0,0-3.08,10.93,27,27,0,0,0,5.92,21.87c.34.42.69.85,1.06,1.27H457C437.1,284.08,416.77,284.11,396.36,283.92Z"></path><path class="cls-3" d="M452.68,214.29a63.81,63.81,0,0,1-8.72,1.18c-2.9.22-5.8.34-8.67.34s-5.75-.11-8.61-.34a61.15,61.15,0,0,1-8.56-1.18,65.49,65.49,0,0,1,8.68-1.18c2.89-.21,5.76-.33,8.65-.33s5.76.11,8.63.34A62.58,62.58,0,0,1,452.68,214.29Z"></path><path class="cls-3" d="M447.84,231.93a59.21,59.21,0,0,1-9.37,1.68,86.49,86.49,0,0,1-8.85.46,72.82,72.82,0,0,1-8.43-.45,36.46,36.46,0,0,1-7.91-1.69,58,58,0,0,1,9.34-1.68,83.36,83.36,0,0,1,8.83-.46,75.71,75.71,0,0,1,8.45.46A37,37,0,0,1,447.84,231.93Z"></path><path class="cls-3" d="M443.3,242a76.72,76.72,0,0,1-9.17,1.17c-3,.22-5.91.34-8.79.34s-5.71-.12-8.49-.33a51.9,51.9,0,0,1-8.12-1.18,74.71,74.71,0,0,1,9.18-1.18c3-.22,5.91-.35,8.79-.34s5.71.12,8.49.34A53.16,53.16,0,0,1,443.3,242Z"></path><path class="cls-3" d="M439.19,252.12A56.26,56.26,0,0,1,430,253.8a82,82,0,0,1-8.78.46,74.4,74.4,0,0,1-8.5-.45,38.85,38.85,0,0,1-8.1-1.69,56.55,56.55,0,0,1,9.24-1.68,85.43,85.43,0,0,1,8.81-.46,78.55,78.55,0,0,1,8.47.46A39.2,39.2,0,0,1,439.19,252.12Z"></path><path class="cls-3" d="M436.91,262.22a14,14,0,0,1-4.15,1.68,18.19,18.19,0,0,1-4.06.46,17.8,17.8,0,0,1-4-.46,11.44,11.44,0,0,1-3.94-1.68,13.81,13.81,0,0,1,4.24-1.69,18.9,18.9,0,0,1,4.11-.46,17.12,17.12,0,0,1,4,.47A11.2,11.2,0,0,1,436.91,262.22Z"></path><path class="cls-3" d="M396.51,151.77c19.23-.33,38.25-.57,57.58-.55a18,18,0,0,0-.47,1.89C430.19,124,480.3,94.79,456.87,65.63c1.14.63,2.24,1.26,3.31,1.89H400.86a18.62,18.62,0,0,0,.47-1.89,27.91,27.91,0,0,1,5.06,21.71c-1.17,7.27-4.41,14.5-7.7,21.73s-6.52,14.41-7.54,21.53A26.83,26.83,0,0,0,396.51,151.77Zm-.53,2.67c-6.54-7.62-7.88-15.13-6.9-22.56S393.56,117,397,109.67s6.8-14.69,7.71-22-.58-14.63-7.11-22c-.56-.63-1.15-1.26-1.78-1.89H459c.57.63,1.12,1.26,1.62,1.89C484.08,94.79,434,124,457.4,153.11c.51.63,1.05,1.26,1.63,1.88h-1.89C436.94,155,416.34,154.77,396,154.44Z"></path><path class="cls-3" d="M452.74,84.82A65.7,65.7,0,0,1,444,86q-4.35.33-8.67.33c-2.88,0-5.75-.11-8.61-.33a60.67,60.67,0,0,1-8.54-1.18,63.66,63.66,0,0,1,8.68-1.18c2.89-.22,5.77-.34,8.65-.33s5.76.11,8.63.33A62.81,62.81,0,0,1,452.74,84.82Z"></path><path class="cls-3" d="M447.85,102.46a60.58,60.58,0,0,1-9.37,1.68,86.44,86.44,0,0,1-8.84.46,75.14,75.14,0,0,1-8.44-.46,36.58,36.58,0,0,1-7.91-1.68,60.3,60.3,0,0,1,9.34-1.69,86.1,86.1,0,0,1,8.83-.46,75.56,75.56,0,0,1,8.45.47A36.85,36.85,0,0,1,447.85,102.46Z"></path><path class="cls-3" d="M408.75,112.55c5.54-.41,11.36-.81,17.32-1.14,3-.18,6-.33,9-.44s6.07-.25,9.08-.3l1.86,0-.83,1.91c-1.46,3.37-2.78,6.73-3.92,10.1A44.68,44.68,0,0,0,439,132.74c-.06.72-.1,1.45-.12,2.17l-2.16,0c-5.75-.06-11.51,0-17.27-.19-2.88-.08-5.75-.1-8.63-.22s-5.75-.19-8.63-.34l-1.44-.08c0-.43.1-.87.16-1.31A42.32,42.32,0,0,1,404,122.33C405.37,119.07,407,115.81,408.75,112.55Zm0,0A105.74,105.74,0,0,0,405.29,123a47.77,47.77,0,0,0-1.59,9.78q-.63-.69-1.23-1.38c2.91-.16,5.8-.23,8.69-.34s5.79-.15,8.68-.23c5.79-.16,11.54-.13,17.31-.19-.83.71-1.64,1.43-2.42,2.14a45.09,45.09,0,0,1,2.4-10.09,101.58,101.58,0,0,1,4.3-10.1c.34.63.69,1.26,1,1.88-2.75,0-5.46-.17-8.21-.29s-5.49-.27-8.27-.45Z"></path><path class="cls-3" d="M492.66,216.51c19.17-.18,38.4-.12,58.06.1-.1.41-.18.82-.25,1.23-6.2-7.28-7.67-14.57-6.72-21.86s4.2-14.58,7.56-21.87,6.62-14.58,7.76-21.87a29.78,29.78,0,0,0-.3-10.93,28.72,28.72,0,0,0-5.31-10.94l1.35.75c-9.7.23-19.52.32-29.28.49s-19.62.21-29.51.21c.13-.48.23-1,.32-1.45,5.84,7.21,7.26,14.41,6.31,21.61s-4.12,14.37-7.39,21.56C488.72,187.86,482,202.18,492.66,216.51Zm-.46,2.67c-13.45-14.83-6.95-29.67-.2-44.5,3.38-7.4,6.82-14.79,7.89-22.18a26.71,26.71,0,0,0-6.45-22.13c-.4-.48-.83-1-1.28-1.45h1.47c9.89,0,19.91.15,29.85.21s20,.25,30.09.49l.72,0c.23.24.45.49.67.73a28.72,28.72,0,0,1,6.33,10.94,26,26,0,0,1,.82,10.93c-.84,7.29-4.2,14.58-7.51,21.87s-6.66,14.58-7.72,21.87a27,27,0,0,0,6,21.86c.33.41.67.82,1,1.22l-1.19,0C532.91,219.3,512.6,219.36,492.2,219.18Z"></path><path class="cls-3" d="M515.64,204.08a19.49,19.49,0,0,1-1.52-9.08,32.19,32.19,0,0,1,2-9.07,62.13,62.13,0,0,1,4.23-9.08,91.33,91.33,0,0,1,5.76-9.08,48.34,48.34,0,0,1-2.39,9.08c-1.05,3-2.22,6.05-3.32,9.08s-2.12,6-2.93,9.07A74.92,74.92,0,0,0,515.64,204.08Z"></path><path class="cls-3" d="M528.12,162.82c.08-1.91.38-3.82.65-5.72s.54-3.83.75-5.73.37-3.82.42-5.73,0-3.82,0-5.73a16,16,0,0,1,2.35,5.73,18.09,18.09,0,0,1,.25,5.73,23.67,23.67,0,0,1-1.42,5.73A26.53,26.53,0,0,1,528.12,162.82Z"></path><path class="cls-3" d="M253.51,219.69c2.75.42,5.51.76,8.24,1,1.36.1,2.73.15,4.06.12a13,13,0,0,0,3.75-.51l-.74,1.95a18,18,0,0,1-3.21-7.65,23.49,23.49,0,0,1,.11-8.24,32.7,32.7,0,0,1,2.39-7.73,37.67,37.67,0,0,1,1.79-3.6,24,24,0,0,1,2.35-3.41,18.66,18.66,0,0,1,6.46-5.27,10.55,10.55,0,0,1,4.28-1,9.13,9.13,0,0,1,4.26,1.05,15.37,15.37,0,0,1,5.74,5.72,36.13,36.13,0,0,1,3.3,7,50,50,0,0,0-4.37-6.27,15,15,0,0,0-5.6-4.46,7.21,7.21,0,0,0-6.3.54,17.53,17.53,0,0,0-5.11,4.74,17.34,17.34,0,0,0-1.86,3c-.55,1.09-1.08,2.2-1.54,3.34a42.7,42.7,0,0,0-2.16,7c-.92,4.71-.76,9.63,1.63,13.8l.92,1.6-1.66.35a15.31,15.31,0,0,1-4.51.12,30.57,30.57,0,0,1-4.21-.71A52.37,52.37,0,0,1,253.51,219.69Z"></path><path class="cls-3" d="M264.27,187.79a33.38,33.38,0,0,0-5.49-3.36,17.54,17.54,0,0,0-5.57-1.62,21.87,21.87,0,0,0-5.85.23,10.09,10.09,0,0,0-1.53.3l-1.58.32a32.21,32.21,0,0,1-3.28.78,20.43,20.43,0,0,1,2.47-2.45,18.81,18.81,0,0,1,3-1.79,13.87,13.87,0,0,1,7.18-1.14,12.78,12.78,0,0,1,6.73,2.89A11.65,11.65,0,0,1,264.27,187.79Z"></path><path class="cls-3" d="M271.18,228.66a8.65,8.65,0,0,1-4.51,5.72,12.9,12.9,0,0,1-7.19,1.63,10.94,10.94,0,0,1-7.2-3.17,7,7,0,0,1-1.77-7.34,12.22,12.22,0,0,0,5,2.66,27.18,27.18,0,0,0,4.43.61c1.56.1,3.23.16,5,.17A44,44,0,0,0,271.18,228.66Z"></path><path class="cls-3" d="M298.82,212.87A130.26,130.26,0,0,1,284.6,238l-2.2,2.91c-.77,1-1.6,1.85-2.4,2.78s-1.66,1.8-2.54,2.67a32.55,32.55,0,0,1-2.71,2.53c-3.75,3.21-8.23,6-13.5,6.92a17.61,17.61,0,0,1-7.93-.66,20.81,20.81,0,0,1-6.81-3.82,14.52,14.52,0,0,1-1.42-1.28c-.45-.45-.93-.88-1.35-1.35-.81-1-1.68-1.87-2.39-2.89a45.69,45.69,0,0,1-4-6.24,94.25,94.25,0,0,1-9.12-27.43c3.27,9,6.77,18,11.68,26,2.52,3.91,5.27,7.74,8.82,10.45a17.92,17.92,0,0,0,5.68,3.09,14.21,14.21,0,0,0,6.25.44c4.24-.67,8.24-3,11.79-5.93a71.65,71.65,0,0,0,9.82-9.95C288.35,228.94,293.57,220.9,298.82,212.87Z"></path><ellipse class="cls-3" cx="282.19" cy="205.34" rx="6.65" ry="3.4" transform="translate(10.69 424.62) rotate(-74.97)"></ellipse><ellipse class="cls-3" cx="251.86" cy="199.25" rx="6.42" ry="3.28" transform="translate(18.86 420.26) rotate(-81.84)"></ellipse><path class="cls-3" d="M299,204.54a12.56,12.56,0,0,1,4.64-4.51,13.48,13.48,0,0,1,6.56-1.88,8.81,8.81,0,0,1,3.77.75,5.82,5.82,0,0,1,3,3.31,7.27,7.27,0,0,1,.06,4.23,13.81,13.81,0,0,1-1.41,3.37,27.51,27.51,0,0,1-4.13,5.32,25.34,25.34,0,0,1-5.33,4,27,27,0,0,1-6.08,2.45,28.7,28.7,0,0,1-3.17.64l-1.6.16-.8,0-.39,0c-.09,0-.38,0-.21.08,0,0-.07,0-.1,0s.05-.08.07-.11l.18-.12.35-.2.71-.37,1.39-.74c.93-.46,1.82-1,2.7-1.49a41.45,41.45,0,0,0,5-3.34,32.72,32.72,0,0,0,4.28-3.93,31.4,31.4,0,0,0,3.48-4.55c.95-1.54,1.56-3.27,1.29-4.27a2,2,0,0,0-1-1.3,5.35,5.35,0,0,0-2.24-.79,13.71,13.71,0,0,0-5.6.5A16.48,16.48,0,0,0,299,204.54Z"></path><path class="cls-3" d="M234.55,195.61a19.18,19.18,0,0,0-4.29-5.47,22.59,22.59,0,0,0-5.52-3.76,12.62,12.62,0,0,0-2.93-1,3.48,3.48,0,0,0-2.24.15,2,2,0,0,0-.84,1.42,9.1,9.1,0,0,0,0,2.82,24,24,0,0,0,.64,3.19,19.85,19.85,0,0,0,1,3.05,28.63,28.63,0,0,0,3.3,5.75,75.69,75.69,0,0,0,9.48,10.36A33.46,33.46,0,0,1,221,204a26.45,26.45,0,0,1-4.4-6.22,20.51,20.51,0,0,1-1.38-3.66,22.06,22.06,0,0,1-.78-3.8,11.83,11.83,0,0,1,.18-4.28,6.83,6.83,0,0,1,1-2.34,5.28,5.28,0,0,1,2.22-1.75,7.3,7.3,0,0,1,4.76-.12,13.43,13.43,0,0,1,3.66,1.73,20,20,0,0,1,5.46,5.26A14.85,14.85,0,0,1,234.55,195.61Z"></path><path class="cls-3" d="M235.34,243.84c-.72,2.83-1.5,5.63-2.3,8.43s-1.61,5.59-2.48,8.37l0,.08a8.37,8.37,0,0,0-.06,4,31.92,31.92,0,0,0,1.13,4.37c1,2.9,2.23,5.75,3.52,8.59s2.77,5.6,4.21,8.38,3,5.53,4.58,8.19l-2.82-.8a71.88,71.88,0,0,0,7.88-5,88,88,0,0,0,7.36-5.83A68.93,68.93,0,0,0,262.9,276a51.72,51.72,0,0,0,5.44-7.62l-.12.6c-.17-5.45-.31-10.9-.25-16.37,1,5.38,1.76,10.78,2.51,16.18l0,.26-.15.35a45.19,45.19,0,0,1-5,8.56,55.54,55.54,0,0,1-6.49,7.46,69.42,69.42,0,0,1-7.5,6.42,76.6,76.6,0,0,1-8.35,5.41l-1.78,1-1-1.79c-1.64-2.81-3.13-5.61-4.59-8.47s-2.79-5.79-4-8.77a63.7,63.7,0,0,1-3.13-9.22,29.24,29.24,0,0,1-.87-4.92,10.68,10.68,0,0,1,.75-5.34l0,.08c1.1-2.69,2.28-5.35,3.42-8S234.11,246.48,235.34,243.84Z"></path><path class="cls-3" d="M308.2,216.22s22.34,14.3,8.65,32.22c-16.16,21.16,6.61,30.7,4.44,60,0,0-22.47-25.83-51.94-39.51L267.88,253c5.38-3.63,9.92-6,15.07-13,8.24-11.24,10.52-17.53,10.52-17.53s6.84-.33,7.6-1.7Z"></path><path class="cls-3" d="M309.74,198.84l-1.85.81h0c-13.46-8.83-9.22-20.56-9.22-20.56C265,191.07,240,151.8,240,151.8s-6.87,11.71-10.75,35.37h0s-9.36-7.66-11.55-4c-5.3,8.74,11.82,26.54,11.82,26.54l.21,7.88c3.07,13.2,7.12,18.84,7.12,18.84s.34,2.2-2.54,10.23-5.76,17-5.76,17-45.78-20.08-83.46,33.5c0,0,6.71-49.79,20.41-61.34s35.07-12,30.82-34.48c-8-42,25.08-108.54,64.54-71.15,0,0,83.57-24.2,48.84,68.66"></path><path class="cls-3" d="M143.29,305.05c-.36,4.76-.88,9.46-1.2,14.17s-.48,9.42-.37,14.12a127.22,127.22,0,0,0,1,14,80.88,80.88,0,0,0,2.83,13.53,48.1,48.1,0,0,0,5.58,12.36,36,36,0,0,0,9.1,9.71c7.26,5.27,16.55,7.32,25.74,7.34A86.31,86.31,0,0,0,199.86,389c4.57-.76,9.21-1.87,13.89-2.84,9.35-1.87,18.77-3.39,28.21-4.63a471.84,471.84,0,0,1,57-4.08l-2.13,1.59a50,50,0,0,1,2.85-7,51.63,51.63,0,0,1,3.8-6.49,29.5,29.5,0,0,1,11.4-10.13h0l.4,3.44c-10.46-2.26-21.05-4.19-31.63-6s-21.21-3.37-31.88-4.62-21.37-2.14-32.09-2.44a219.84,219.84,0,0,0-32.12,1.56,70.7,70.7,0,0,1,15.94-2.89c5.4-.41,10.8-.56,16.21-.55,10.8.06,21.59.74,32.33,1.74a602.41,602.41,0,0,1,64,9.6l5,1-4.56,2.42h0a21.38,21.38,0,0,0-5.3,3.91,35.11,35.11,0,0,0-4.26,5.26,47.5,47.5,0,0,0-3.34,6,52.36,52.36,0,0,0-2.49,6.37l-.49,1.56-1.64,0c-18.81.37-37.75,1.46-56.5,3.67-9.38,1.11-18.73,2.49-28,4.21l-6.94,1.4c-2.31.47-4.69,1-7.06,1.41A91.6,91.6,0,0,1,186,394a58.79,58.79,0,0,1-14.61-1.54,40.39,40.39,0,0,1-13.62-6,37.66,37.66,0,0,1-10.34-10.82,52.71,52.71,0,0,1-6-13.5,85.28,85.28,0,0,1-2.67-28.81c.28-4.79.83-9.55,1.54-14.26A103.73,103.73,0,0,1,143.29,305.05Z"></path><path class="cls-3" d="M429,393.33q18.09-28.83,36.43-57.63l18.4-28.61c6.15-9.51,12.3-18.95,18.28-28.49l.28-.44.57,0c11.76-.43,23.52-.67,35.27-.86s23.52-.23,35.28-.36,23.51,0,35.27.06l17.63.25c5.88.15,11.76.25,17.64.48l2.56.1-1.35,2.11L572.91,393l-.35.55h-.66q-35.52.21-71.36.19T429,393.33Zm3.57-2c23.26-.19,46.42-.37,69.58-.41s46.38.06,69.72.2l-1,.55,72-113.34,1.21,2.21c-5.88.23-11.76.33-17.64.48l-17.63.25c-11.76.05-23.52.13-35.27.06s-23.52-.11-35.28-.36-23.51-.43-35.27-.86l.85-.46c-6,9.33-11.92,18.75-17.8,28.12l-17.69,28Q450.62,363.67,432.6,391.37Z"></path><path class="cls-3" d="M550.62,414.48c-5.72.26-11.44.38-17.16.57l-17.15.34c-11.44.2-22.88.27-34.32.31l-68.62.09L276.11,416l-137.25.18L1.61,416H.11v-1.51l-.09-21V391.9H1.61c63-.38,126-.29,189-.43l94.47-.08,94.48.21,189,.43,94.47.2h95.74V409l-1.21,0q-27.24.81-54.46,2l-54.44,2.62c-18.14.87-36.29,1.66-54.45,2.14s-36.31,1-54.56-1.38c18.07-3.47,36.22-4.22,54.38-4.71s36.31-1,54.48-1.2l54.49-.72q27.24-.47,54.48-1.3l-1.22,1.26V393.49l1.26,1.26-94.48,0-94.47.2-189,.43-94.48.2-94.47-.08c-63-.13-126,0-188.95-.42l1.6-1.61-.09,21L1.61,413l137.25-.16,137.25.18,137.26.18,68.62.09c11.44,0,22.88.1,34.32.31l17.15.34C539.18,414.1,544.9,414.23,550.62,414.48Z"></path><path class="cls-3" d="M289,352.58c6.87.29,13.71.83,20.56,1.42s13.67,1.35,20.5,2.34c3.41.49,6.84,1,10.28,1.82a55.29,55.29,0,0,0,9.74.9,180.82,180.82,0,0,0,20.11-1.1l.39,0,.19,0a44.67,44.67,0,0,1,8.11,2.1,43.75,43.75,0,0,1,7.52,3.47c1.19.72,2.35,1.48,3.46,2.31a31.32,31.32,0,0,1,3.1,2.76,21.52,21.52,0,0,1,4.53,6.77,26.81,26.81,0,0,0-5.68-5.44,37.16,37.16,0,0,0-6.76-3.73,54,54,0,0,0-7.31-2.44,56.42,56.42,0,0,0-7.48-1.41h.58c-3.48.62-6.91,1-10.4,1.22a89.5,89.5,0,0,1-10.5.21,45.69,45.69,0,0,1-10.64-1.52c-3.21-.87-6.53-1.55-9.87-2.23q-10.05-1.92-20.19-3.7C302.48,355.09,295.72,353.91,289,352.58Z"></path><path class="cls-3" d="M357.48,370.12a26.06,26.06,0,0,1,4-.56,36.86,36.86,0,0,1,3.93,0,49.11,49.11,0,0,1,7.68.92l.58.11.41.31a47.35,47.35,0,0,1,5.06,4.36,32.6,32.6,0,0,1,2.3,2.52,23.56,23.56,0,0,1,2.05,2.85,23.48,23.48,0,0,1-3.36-1c-1.07-.41-2.11-.87-3.11-1.37a47.81,47.81,0,0,1-5.75-3.41l1,.41a49.31,49.31,0,0,1-7.53-1.78,34,34,0,0,1-3.67-1.39A24.81,24.81,0,0,1,357.48,370.12Z"></path><path class="cls-3" d="M320.9,393.49c-.32-1.74-.57-3.49-.78-5.23-.11-.88-.2-1.75-.28-2.62s-.19-1.75-.25-2.62l-.08-1.41,1.64-.14c4.67-.42,9.34-.53,14-.63a117.6,117.6,0,0,1,14,.86,99.56,99.56,0,0,0,14,.54c4.67-.13,9.34-.61,14-1s9.34-.47,14-.65,9.34-.25,14-.11a230.09,230.09,0,0,1,28,2.3v.48a232.1,232.1,0,0,1-28,2.3c-4.68.13-9.35,0-14-.12s-9.34-.25-14-.65-9.34-.87-14-1a99.57,99.57,0,0,0-14,.55,117.6,117.6,0,0,1-14,.86c-4.67-.1-9.34-.22-14-.63L322.7,383c-.06.87-.17,1.74-.25,2.62s-.17,1.74-.28,2.62c-.21,1.74-.46,3.49-.78,5.23Z"></path><path class="cls-3" d="M187.24,300c2.59,7.39,4.84,14.91,6.8,22.53a182.32,182.32,0,0,1,4.5,23.28l-4.53.31a177.88,177.88,0,0,0-2.2-23.14C190.61,315.26,189.1,307.58,187.24,300Z"></path><path class="cls-3" d="M130.11,305.05c-4.91.51-9.82.91-14.64,1.55s-9.54,1.66-13.56,3.83a17.25,17.25,0,0,0-8.29,10.1,40.2,40.2,0,0,0-1.74,13.87c.29,9.56,2,19.18,4.06,28.69q1.64,7.13,3.44,14.23c1.23,4.73,2.55,9.44,3.84,14.16l-4.36,1.28-2.1-7.1-2-7.14L93,371.33l-1.63-7.24c-2-9.71-3.74-19.55-3.68-29.67a44.55,44.55,0,0,1,2.4-15.18,20.77,20.77,0,0,1,10.33-11.78c4.8-2.28,9.94-2.93,14.9-3.11A112.63,112.63,0,0,1,130.11,305.05Z"></path><path class="cls-3" d="M145.61,468.65a46.61,46.61,0,0,1-9.44,1.54,32.11,32.11,0,0,1-4.9,0,17.8,17.8,0,0,1-5.14-1.09,12,12,0,0,1-4.89-3.3,15.67,15.67,0,0,1-2.89-4.9,61,61,0,0,1-2.57-9.49c-1.31-6.1-2.56-12-4.13-17.93s-3.29-11.73-5.14-17.56l6.85-2.42A144.09,144.09,0,0,1,119,431.59c1.53,6.14,2.59,12.43,3.48,18.56a76.19,76.19,0,0,0,1.66,8.66c.77,2.65,1.85,4.24,4.09,5.35s5.22,1.77,8.18,2.42S142.51,467.78,145.61,468.65Z"></path><path class="cls-3" d="M335,485.76a12.68,12.68,0,0,1,1.89,3.83,27.6,27.6,0,0,1,1,4.17,56.27,56.27,0,0,1,.78,8.46,111.13,111.13,0,0,1-.93,16.75,254.87,254.87,0,0,1-6.62,32.54c-2.85,10.67-6.07,21.22-9,31.83s-5.46,21.33-8.84,31.84l-.84,2.62-2.46-1.1a24,24,0,0,0-7.77-1.89,45.45,45.45,0,0,0-8.4.14,70.16,70.16,0,0,0-8.46,1.43,74.26,74.26,0,0,0-8.27,2.37h0l-2.82,1,.35-3q1.86-15.83,3.24-31.75c.91-10.6,1.67-21.21,2-31.82.1-2.65.12-5.3.18-8l0-8c-.07-5.38.13-10.76.47-16.13s1-10.73,1.83-16.06a55.46,55.46,0,0,1,1.83-7.9,31.48,31.48,0,0,1,3.34-7.52,105.81,105.81,0,0,1-.67,16c-.55,5.24-.93,10.51-1.22,15.78s-.53,10.55-.61,15.84-.27,10.74-.57,16.07q-.86,16.06-2.46,32c-1.05,10.64-2.27,21.25-3.75,31.85l-2.48-1.92h0a79,79,0,0,1,8.62-2.95,68,68,0,0,1,8.93-1.86,45.37,45.37,0,0,1,9.27-.41,28.56,28.56,0,0,1,9.4,2.11l-3.3,1.52c2.85-10.57,6.35-21,8.93-31.67s4.82-21.41,6.91-32.16l6.34-32.11c1-5.33,2.11-10.65,3.06-16,.44-2.66.9-5.33,1.17-8A26.9,26.9,0,0,0,335,485.76Z"></path><path class="cls-3" d="M146.61,459.22a67.67,67.67,0,0,0-.18,16.21,35.21,35.21,0,0,0,5.15,14.9A32.64,32.64,0,0,0,163,500.85a56.58,56.58,0,0,0,14.79,5.49,104.86,104.86,0,0,0,15.84,2.22c2.67.2,5.36.28,8,.34l4,0,4-.27A101.19,101.19,0,0,0,240.44,501c19.66-8.36,36.7-22.3,50.56-38.69,3.47-4.1,6.74-8.38,9.82-12.79.79-1.09,1.52-2.22,2.28-3.33a22.91,22.91,0,0,1,10-8.51,21.87,21.87,0,0,1,17.36-.33,16.48,16.48,0,0,1,3.88,2.45,14.73,14.73,0,0,1,2.94,3.59,16,16,0,0,1,1.9,8.82v.17a165.21,165.21,0,0,0-1.44,16.74c-.22,5.62-.25,11.25.05,16.87a183.71,183.71,0,0,0,4.6,33.37,145.5,145.5,0,0,0,4.79,16.12,122.88,122.88,0,0,0,6.64,15.42,103.16,103.16,0,0,0,19.77,26.94l-2.07.45a60.08,60.08,0,0,1,3.64-7.21,39.92,39.92,0,0,1,4.77-6.58,15.82,15.82,0,0,1,7-4.76,8.47,8.47,0,0,1,4.47,0,10.33,10.33,0,0,1,3.84,2.06h0l-1.66,1a61.58,61.58,0,0,1-1.8-9.3L390.43,544c-.85-6.25-1.67-12.52-2.65-18.76s-2-12.46-3.16-18.67-2.23-12.43-3.45-18.63c-2.42-12.38-5-24.75-7.87-37-1.47-6.13-2.94-12.26-4.67-18.29a135.75,135.75,0,0,0-6.17-17.47l1.31-1c2.44,2.5,3.56,5.6,4.64,8.6s2,6.07,2.81,9.14c1.69,6.12,3.18,12.28,4.53,18.46,2.68,12.37,5,24.8,7.24,37.25L389.5,525l3.44,18.64c.57,3.11,1.07,6.23,1.61,9.35a58.29,58.29,0,0,1,1.05,9.43l0,2.73-1.7-1.78h0a6.86,6.86,0,0,0-6.41-1.5,13.6,13.6,0,0,0-5.81,4.22,39.58,39.58,0,0,0-4.39,6.25,58.19,58.19,0,0,0-3.4,6.91l-.71,1.74-1.36-1.29a106.23,106.23,0,0,1-20.58-27.44,128,128,0,0,1-7-15.72,148,148,0,0,1-4.86-16.47,186.73,186.73,0,0,1-4.61-33.93,201.41,201.41,0,0,1,1.05-34.26l0,.16a12.65,12.65,0,0,0-1.52-6.92,10.92,10.92,0,0,0-5.27-4.52,18.23,18.23,0,0,0-14.38.55,19,19,0,0,0-6,4.29,20,20,0,0,0-2.28,2.93c-.75,1.15-1.49,2.32-2.27,3.45-3.09,4.56-6.36,9-9.89,13.24a159,159,0,0,1-23.53,23.23,121.9,121.9,0,0,1-28.51,17,103.44,103.44,0,0,1-32.31,7.87l-4.21.21-4.17-.09c-2.77-.11-5.51-.24-8.27-.5A99.9,99.9,0,0,1,176.86,510a56,56,0,0,1-15.51-6.41,40.14,40.14,0,0,1-6.66-5.26,31.55,31.55,0,0,1-5.14-6.75,35.28,35.28,0,0,1-4.43-16A60.79,60.79,0,0,1,146.61,459.22Z"></path><path class="cls-3" d="M284.75,615.06a96.76,96.76,0,0,1-.78,11.19c-.42,3.71-1,7.38-1.69,11.06s-1.47,7.31-2.42,10.94a96.67,96.67,0,0,1-3.34,10.8,92.75,92.75,0,0,1,0-11.31c.17-3.74.54-7.46.95-11.16s1-7.4,1.67-11.06a94.63,94.63,0,0,1,2.6-10.92Z"></path><path class="cls-3" d="M308.1,613.6a91.47,91.47,0,0,1-2.39,13c-1.07,4.26-2.33,8.48-3.75,12.64s-3,8.28-4.78,12.34A93.7,93.7,0,0,1,291,663.57a93.31,93.31,0,0,1,1.29-13.37q1.06-6.56,2.67-13c1.06-4.27,2.28-8.5,3.7-12.66a91.49,91.49,0,0,1,5.06-12.26Z"></path><path class="cls-3" d="M373.27,573.61a57.36,57.36,0,0,1,9.19,8.64,96.23,96.23,0,0,1,7.48,9.78,94.61,94.61,0,0,1,6.18,10.65,56.9,56.9,0,0,1,4.44,11.81,57.38,57.38,0,0,1-9.2-8.63,97.43,97.43,0,0,1-13.63-20.45A57.64,57.64,0,0,1,373.27,573.61Z"></path><path class="cls-3" d="M391.5,559.32a76.38,76.38,0,0,1,6.57,9.92c1.94,3.42,3.7,6.92,5.32,10.49s3.07,7.2,4.36,10.92a75,75,0,0,1,3.11,11.49,75.44,75.44,0,0,1-6.58-9.92c-1.93-3.42-3.7-6.93-5.31-10.5s-3.07-7.2-4.36-10.92A77.6,77.6,0,0,1,391.5,559.32Z"></path><path class="cls-3" d="M278,642c-.93.61-1.82,1.19-2.62,1.81a11.07,11.07,0,0,0-2,2,2.12,2.12,0,0,0-.56,1.69c.17.24.3.18.7.44a12,12,0,0,0,4.36.92,40.07,40.07,0,0,0,5.56-.1c1.89-.14,3.86-.42,5.9-.63s4-.4,5.9-.65c.95-.12,1.88-.26,2.65-.43a8.12,8.12,0,0,1,.86-.17c.07,0,.06.06,0,.29a.93.93,0,0,0,.17.66c.22.15.11-.28-.14-.58a8.24,8.24,0,0,0-1-1c-.74-.7-1.61-1.35-2.49-2.06a12.59,12.59,0,0,1,3.41.06,7.75,7.75,0,0,1,1.78.48,3.76,3.76,0,0,1,2,1.68,3.08,3.08,0,0,1,.21,2.19,4.1,4.1,0,0,1-.86,1.57,8.38,8.38,0,0,1-1.78,1.5,18.1,18.1,0,0,1-3.26,1.64,36.84,36.84,0,0,1-6.39,1.84,42.75,42.75,0,0,1-6.56.83,27.57,27.57,0,0,1-7-.49,13.11,13.11,0,0,1-7.14-3.6,6.48,6.48,0,0,1-1.34-2.33,5.19,5.19,0,0,1,0-2.87,5.92,5.92,0,0,1,2.85-3.42A11.45,11.45,0,0,1,278,642Z"></path><path class="cls-3" d="M384.28,592.38a37.59,37.59,0,0,0-2.66,2.72,9.3,9.3,0,0,0-1.75,2.78c-.13.41-.1.77,0,.74s0-.32.2-.28a11.16,11.16,0,0,0,2.39.09,45.21,45.21,0,0,0,6.71-1.16c2.31-.54,4.65-1.16,7-1.81,4.69-1.34,9.59-2.54,13.94-4,.53-.19,1.05-.37,1.5-.57s.84-.44.93-.39-.18.35,0,1a1.18,1.18,0,0,0,.35.6c0,.05.17.08.14,0s-.52-.45-1-.66a52.45,52.45,0,0,0-7.13-2.12,22.58,22.58,0,0,1,3.81-1,17.49,17.49,0,0,1,4.09-.33,6.42,6.42,0,0,1,2.54.63,4,4,0,0,1,.86.64,3.13,3.13,0,0,1,.75,1.44,3.56,3.56,0,0,1-.57,2.68,8.21,8.21,0,0,1-1.94,2,17.69,17.69,0,0,1-1.81,1.24,59.77,59.77,0,0,1-14.54,5.87,57.23,57.23,0,0,1-7.71,1.58,30.18,30.18,0,0,1-8.29.07,14.66,14.66,0,0,1-2.29-.56,7.72,7.72,0,0,1-2.5-1.35c-.22-.21-.43-.4-.63-.63a5.68,5.68,0,0,1-.55-.83,4,4,0,0,1-.43-2,4.8,4.8,0,0,1,1.16-2.79,9.82,9.82,0,0,1,3.58-2.5A15.25,15.25,0,0,1,384.28,592.38Z"></path><path class="cls-3" d="M384.6,601.28S392,612,394.05,619a57.37,57.37,0,0,1,1.84,10.35,5,5,0,0,0,6.45,4.3L461,616.14s16.15-5.79,12.84-11.88-24.44,3-36.65-1.47a158,158,0,0,1-21.64-9.93S395.49,600.19,384.6,601.28Z"></path><path class="cls-3" d="M171.35,480.82a35,35,0,0,1-3.18-2.41,25.62,25.62,0,0,1-2.79-2.91,21.91,21.91,0,0,1-4.06-7.37,17.68,17.68,0,0,1-.43-9,20.69,20.69,0,0,1,3.78-8.15,32.82,32.82,0,0,1,13.21-9.93,39.65,39.65,0,0,1,15.45-3.43c-4.42,2.9-8.68,5.56-12.64,8.41a47.08,47.08,0,0,0-10.22,9.32A16.16,16.16,0,0,0,166.9,467C167.28,471.35,169.19,476,171.35,480.82Z"></path><path class="cls-3" d="M337.24,462.21a14.56,14.56,0,0,1-6.32,4.54,20.76,20.76,0,0,1-7.4,1.36,21.92,21.92,0,0,1-7.35-1.25,15.7,15.7,0,0,1-6.48-4.21,37.27,37.27,0,0,1,7.22-1.46,59.63,59.63,0,0,1,6.6-.35c2.16,0,4.29.09,6.51.28A50,50,0,0,1,337.24,462.21Z"></path><path class="cls-3" d="M273.59,652.3s-.43,13.18-2.29,21.37-8,10.06-9.87,15.27-2.22,12.66-2.22,12.66h48a25.19,25.19,0,0,0-5.79-17.31c-6.7-7.82-6.86-20.92-2.7-34.2A64.42,64.42,0,0,1,273.59,652.3Z"></path><path class="cls-3" d="M535.43,351a3.76,3.76,0,0,1-1.84-.46c-1.45-.79-3-2.82-1.9-8A46.18,46.18,0,0,1,543,321.83c3.81-3.7,6.33-3.53,7.77-2.75s3,2.83,1.91,8a41.42,41.42,0,0,1-4.31,11.09l-1.88-1,1.88,1a41.4,41.4,0,0,1-7,9.63C538.84,350.28,536.88,351,535.43,351ZM548.66,323c-1.3.41-5.07,3.53-8.9,10.55s-4.43,11.88-4.06,13.2c1.31-.4,5.07-3.53,8.91-10.55S549,324.27,548.66,323Z"></path><path class="cls-3" d="M311.05,297.15c6.34,4.79,12.53,9.74,18.64,14.78,3.08,2.49,6.08,5.08,9.12,7.61s6,5.15,9,7.73l-1.12-.52c4.58.53,9.08,1.22,13.61,2s9,1.51,13.51,2.42c9,1.79,17.9,3.81,26.72,6.31,4.42,1.23,8.81,2.54,13.15,4s8.65,3,12.88,4.86a125.19,125.19,0,0,1,12.38,6,62.29,62.29,0,0,1,11.25,7.89c-7.58-5.11-16.08-8.4-24.59-11.42-4.28-1.46-8.61-2.78-13-4s-8.74-2.35-13.13-3.46c-8.81-2.13-17.66-4.09-26.57-5.78s-17.86-3.3-26.79-4.66l-.69-.11-.43-.41c-2.89-2.71-5.82-5.37-8.68-8.11s-5.75-5.44-8.57-8.22C322.11,308.53,316.5,302.93,311.05,297.15Z"></path><path class="cls-3" d="M257.16,531.47a240.85,240.85,0,0,1-32,7q-8.09,1.26-16.26,2c-5.44.54-10.9.95-16.37,1.14a249.12,249.12,0,0,1-32.89-.71,197.7,197.7,0,0,1-32.53-5.56l-1-.27-.55-.79a30.06,30.06,0,0,1-1.75-2.93c-.5-1-1-1.92-1.41-2.9a59.33,59.33,0,0,1-2.3-5.92,73.42,73.42,0,0,1-2.86-12.24,91.25,91.25,0,0,1-.83-12.45c0-2.07.12-4.14.19-6.2s.42-4.11.62-6.16l.18-1.75,1.67.08q7.24.33,14.48.81c4.83.31,9.65.68,14.48,1.14-4.83.43-9.66.76-14.49,1s-9.65.52-14.48.71l1.85-1.66c-.07,2-.19,4-.22,6s0,4,.09,5.94a88.27,88.27,0,0,0,1.33,11.73,77.12,77.12,0,0,0,3,11.3,51.31,51.31,0,0,0,2.23,5.34c.41.87.87,1.71,1.32,2.53s1,1.67,1.42,2.25l-1.58-1.06c5.22,1.15,10.44,2.3,15.74,3.1s10.61,1.48,16,2,10.7.88,16.07,1.06,10.76.35,16.15.3,10.78-.14,16.17-.37,10.79-.57,16.18-1C235.6,534.11,246.38,533,257.16,531.47Z"></path><path class="cls-3" d="M74.17,414.68c.82,23.91,1.18,47.82,1.51,71.73q.19,17.93.26,35.86c.06,12,.07,23.91-.06,35.87l-1.14,71.73q-.18,17.94,0,35.87l.1,17.93.26,17.93v1.09l-1.13,0L55.69,703l-1.37,0,0-1.42L54,683.67l-.19-17.93-.29-35.87L53.29,594c0-12-.06-23.91,0-35.86.06-23.91.39-47.82.64-71.73s.79-47.82,1.53-71.73h.45c.73,23.91,1.15,47.82,1.52,71.73s.59,47.82.65,71.73c.07,12,0,23.91,0,35.86l-.22,35.87-.29,35.87-.2,17.93-.29,17.93-1.4-1.39,18.25.28-1.11,1.11.26-17.93.1-17.93q.14-17.94,0-35.87L72,558.14c-.13-12-.12-23.91-.06-35.87s.13-23.91.26-35.86c.33-23.91.69-47.82,1.51-71.73Z"></path><path class="cls-3" d="M519,414.68c.82,23.91,1.17,47.82,1.51,71.73q.18,17.93.25,35.86t-.06,35.87l-1.13,71.73q-.18,17.94,0,35.87l.09,17.93.26,17.93,0,1.09-1.13,0-18.25.28-1.37,0,0-1.42-.29-17.93-.2-17.93-.29-35.87L498.12,594c0-12-.07-23.91,0-35.86.06-23.91.39-47.82.65-71.73s.79-47.82,1.52-71.73h.45c.74,23.91,1.15,47.82,1.53,71.73s.58,47.82.64,71.73c.07,12,0,23.91,0,35.86l-.23,35.87-.29,35.87-.19,17.93-.3,17.93-1.39-1.39,18.25.28-1.11,1.11.26-17.93.09-17.93q.13-17.94,0-35.87l-1.13-71.73c-.13-12-.12-23.91-.06-35.87s.13-23.91.25-35.86c.34-23.91.69-47.82,1.51-71.73Z"></path><path class="cls-3" d="M710.71,598A8.16,8.16,0,0,1,709,595a9.72,9.72,0,0,1-.55-2.93c-.07-2-.19-3.91-.21-5.86-.11-3.91-.05-7.82.08-11.73.3-7.82.48-15.64.84-23.45s1-15.64,1-23.46-.1-15.63-.56-23.45-.83-15.64-1-23.45-.34-15.64-.3-23.46c.23-15.63.79-31.27,2.35-46.91h.48c1.56,15.64,2.12,31.28,2.34,46.91.05,7.82-.09,15.64-.29,23.46s-.49,15.63-1,23.45-.68,15.63-.55,23.45.65,15.64,1,23.46.53,15.63.83,23.45c.14,3.91.19,7.82.08,11.73,0,2-.14,3.91-.21,5.86a9.72,9.72,0,0,1-.55,2.93,8.12,8.12,0,0,1-1.73,2.93Z"></path><path class="cls-3" d="M726.55,410.34c.92,9.48,1.33,19,1.64,28.42q.21,7.11.26,14.21t-.13,14.21l-.66,14.21c-.25,4.74-.49,9.47-.57,14.21-.18,9.47.12,18.94.54,28.42s.85,18.94,1,28.41.37,19,.3,28.42c-.2,18.95-.81,37.89-2.34,56.84h-.48c-1.53-19-2.14-37.89-2.35-56.84-.06-9.47.14-18.94.31-28.42s.48-18.94,1-28.41.73-18.95.54-28.42c-.08-4.74-.31-9.47-.56-14.21l-.67-14.21q-.21-7.11-.13-14.21c.05-4.74.12-9.47.27-14.21.3-9.47.71-18.94,1.64-28.42Z"></path><path class="cls-3" d="M442.29,656.14C441.36,646.08,441,636,440.65,626c-.15-5-.22-10.06-.27-15.09s0-10.06.13-15.09l.67-15.09c.25-5,.48-10.07.56-15.1.19-10.06-.11-20.12-.54-30.18s-.84-20.12-.95-30.18-.37-20.12-.3-30.19c.2-20.12.81-40.24,2.34-60.36h.48c1.53,20.12,2.14,40.24,2.34,60.36.07,10.07-.13,20.13-.3,30.19s-.48,20.12-.95,30.18-.73,20.12-.54,30.18c.07,5,.31,10.07.56,15.1l.67,15.09c.14,5,.19,10.06.12,15.09s-.11,10.06-.26,15.09c-.31,10.06-.71,20.12-1.64,30.18Z"></path><path class="cls-3" d="M458.13,414.68c.93,10.06,1.33,20.12,1.64,30.18.15,5,.22,10.06.27,15.09s0,10.06-.13,15.1l-.67,15.09c-.25,5-.49,10.06-.56,15.09-.19,10.06.11,20.12.54,30.18s.84,20.12.95,30.18.37,20.13.3,30.19c-.2,20.12-.81,40.24-2.34,60.36h-.48c-1.53-20.12-2.14-40.24-2.34-60.36-.07-10.06.13-20.12.3-30.19s.48-20.12.95-30.18.73-20.12.54-30.18c-.08-5-.31-10.06-.56-15.09l-.67-15.09q-.21-7.56-.13-15.1c.05-5,.12-10.06.27-15.09.31-10.06.71-20.12,1.64-30.18Z"></path><path class="cls-3" d="M143.16,538l-15.62,73.82-7.84,36.91-3.82,18.47c-.66,3.08-1.34,6.15-2.12,9.2-.36,1.53-.79,3-1.19,4.57a6.85,6.85,0,0,1-2.64,4.27,6.91,6.91,0,0,1-.74-5c.23-1.55.43-3.12.7-4.67.48-3.11,1.06-6.2,1.67-9.28l3.74-18.49,7.29-37,14.64-74Z"></path><path class="cls-3" d="M214.41,537.74l-8.91,63-4.45,31.51c-.71,5.26-1.57,10.49-2.1,15.77-.28,2.64-.58,5.28-1.06,7.89s-.7,5.25-2.92,7.64c-1.54-2.88-1-5.48-.87-8.14s.59-5.27,1-7.89c.83-5.24,1.35-10.52,2-15.78l3.76-31.6,7.54-63.2Z"></path><path class="cls-3" d="M233.89,537l9.24,74,4.59,37c.76,6.16,1.58,12.32,2.41,18.48.4,3.08.77,6.17,1.05,9.26.15,1.55.27,3.1.38,4.65s.71,3-1.2,4.86c-2.31-1.26-2-2.87-2.41-4.38s-.58-3.06-.83-4.59c-.54-3.06-1-6.14-1.4-9.22-.79-6.16-1.58-12.33-2.45-18.48l-5.15-36.92-10.23-73.86Z"></path><path class="cls-3" d="M700.62,218.36a21.91,21.91,0,0,1,.74,9.07,16.45,16.45,0,0,1-3.92,8.53c-4.27,4.9-10.63,7-16.47,8.31a35.3,35.3,0,0,1-9.25.79,23.5,23.5,0,0,1-9.12-2.28,22.71,22.71,0,0,1-7.4-5.63,33.19,33.19,0,0,1-4.9-7.69,69.76,69.76,0,0,1-4.94-17.31,112.7,112.7,0,0,1-1.41-18,173.91,173.91,0,0,1,1.16-18,150.76,150.76,0,0,1,3-17.79l.62-2.61,2.28,1.34a99.07,99.07,0,0,1,17.77,13.52c2.7,2.54,5.29,5.19,7.73,8a106,106,0,0,1,6.91,8.65l-.29.24c-2.6-2.6-5.22-5.14-7.94-7.58s-5.47-4.83-8.3-7.1a128.07,128.07,0,0,0-17.82-12.24l2.9-1.28a247,247,0,0,0-4.83,35,119.52,119.52,0,0,0,0,17.65,47.23,47.23,0,0,0,4.28,17A22,22,0,0,0,663.6,240.4c5.28,1.95,11.1,1.62,16.71.57a44.85,44.85,0,0,0,8.24-2.34,21.18,21.18,0,0,0,7-4.42,15.42,15.42,0,0,0,4.12-7.13,25.44,25.44,0,0,0,.57-8.65Z"></path><path class="cls-3" d="M668.11,198.41A96.75,96.75,0,0,1,674,210.62c.81,2.11,1.64,4.22,2.35,6.37s1.47,4.29,2.12,6.45a252.11,252.11,0,0,1,6.38,26.42,58.61,58.61,0,0,1,.88,6.74c.23,2.25.34,4.52.52,6.77s.49,4.5.69,6.75l.63,6.75q1.06,13.5,1.65,27.05l-2.59.06c-.12-9-.55-18-1.4-26.9-.5-4.47-.87-8.94-1.61-13.37-.34-2.22-.87-4.42-1.3-6.62s-.84-4.4-1.2-6.61c-1.23-8.88-2.91-17.68-4.95-26.41-1-4.38-2.18-8.7-3.48-13A116.3,116.3,0,0,0,668.11,198.41Z"></path><path class="cls-3" d="M711.42,220c4.57.2,9.37-.37,13.24-2.79a14.74,14.74,0,0,0,4.73-4.63,19.28,19.28,0,0,0,2.44-6.11,42.44,42.44,0,0,0,.36-13.32,101.41,101.41,0,0,0-2.54-13.36A124.91,124.91,0,0,0,720.13,154a97,97,0,0,0-15.76-22.59l1.78-.47a128,128,0,0,1-7.89,26.68,210.71,210.71,0,0,0-9.63,25.49,59.46,59.46,0,0,0-2.44,13.07c-.23,4.35.17,8.76,2.17,12.57a18.88,18.88,0,0,0,9.74,8.5A39.64,39.64,0,0,0,711.42,220Zm0,.38a52.42,52.42,0,0,1-13.67-2.22,26,26,0,0,1-6.38-3.05,19,19,0,0,1-5.13-5.14c-2.79-4.11-3.75-9.2-3.67-14a57.13,57.13,0,0,1,2.19-14c2.5-9.07,6.38-17.54,10.27-25.86,1.89-4.1,3.53-8.33,5-12.63s2.92-8.65,4.08-13l.52-2,1.26,1.5a111.85,111.85,0,0,1,8.2,11.38q3.76,5.88,7.1,12c4.44,8.17,8.67,16.56,11.47,25.57a66.35,66.35,0,0,1,2.82,13.89,36.11,36.11,0,0,1-1.35,14.29,21,21,0,0,1-3.42,6.43,17.17,17.17,0,0,1-5.6,4.51,21.35,21.35,0,0,1-6.74,2A34.79,34.79,0,0,1,711.4,220.4Z"></path><path class="cls-3" d="M709.55,173.94a156.49,156.49,0,0,1,2.32,16.45l.32,4.14.19,4.16c.17,2.77.14,5.55.2,8.32a243.11,243.11,0,0,1-2.33,33.23,148.07,148.07,0,0,1-3.57,16.28c-.33,1.35-.63,2.7-.93,4.06l-1,4c-.69,2.68-1.28,5.4-2.06,8.05-2.87,10.71-6.31,21.25-9.89,31.73l-2.43-.89a314.82,314.82,0,0,0,10-31.44c.75-2.65,1.3-5.34,2-8l1-4c.26-1.35.52-2.7.76-4.06,1-5.41,1.44-10.91,2.43-16.3A265.87,265.87,0,0,0,710.2,207c.27-5.48.43-11,.28-16.49S710.1,179.45,709.55,173.94Z"></path><path class="cls-3" d="M645.64,207.27c-2.47-1.07-4.88-2.19-7.3-3.19a62.63,62.63,0,0,0-7.34-2.56c-2.47-.72-5-1.17-7.58-1.68s-5.2-1.07-7.79-1.76l1.45-1.31a100.65,100.65,0,0,0,.6,10.38,89.15,89.15,0,0,0,1.91,10.24,125.48,125.48,0,0,0,7,19.42,44.76,44.76,0,0,0,5.11,8.61,20.41,20.41,0,0,0,7.05,6.13,13.34,13.34,0,0,0,9,.69,31.08,31.08,0,0,0,9-4.18l.06,0a35.11,35.11,0,0,0,4-2.64,23.28,23.28,0,0,0,3.56-3.32l.32.21a19.83,19.83,0,0,1-3,4.06c-.58.62-1.19,1.21-1.82,1.78s-1.29,1.08-2,1.61l.06,0a28.89,28.89,0,0,1-9.31,5.69,15.84,15.84,0,0,1-11.47-.24,21.17,21.17,0,0,1-8.66-7.34,48.39,48.39,0,0,1-5.11-9.59c-2.74-6.62-4-13.63-5.15-20.52l-1.78-10.35c-.61-3.45-1.33-6.87-1.85-10.38l-.22-1.45,1.67.13c2.65.21,5.3.44,8,.89a47.42,47.42,0,0,1,7.94,2A42.58,42.58,0,0,1,645.84,207Z"></path><path class="cls-3" d="M632.31,217.84a75.73,75.73,0,0,1,8.85,8.79c2.71,3.17,5.2,6.53,7.59,9.94a203.36,203.36,0,0,1,12.73,21.52,109.54,109.54,0,0,1,4.74,11.56c1.57,3.85,3.21,7.66,4.74,11.52,3.09,7.7,6,15.47,8.95,23.23l-2.44.86c-2.67-7.82-5.47-15.6-8.68-23.21-.77-1.91-1.62-3.79-2.43-5.69s-1.62-3.8-2.56-5.64c-1.84-3.69-4-7.21-5.71-11a233.73,233.73,0,0,0-11.35-21.89c-2.08-3.55-4.27-7-6.67-10.38A90.42,90.42,0,0,0,632.31,217.84Z"></path><path class="cls-3" d="M711.64,220.32a9.81,9.81,0,0,0-.14,2.06c0,.7,0,1.42,0,2.13l0,4.25-.09.38c0,.15,0,.4,0,.61l-.07.64a2.58,2.58,0,0,1-.54,1.23,8.63,8.63,0,0,0-.84,1.26,2.39,2.39,0,0,0-.14,1.37v-.13a13.43,13.43,0,0,0,1.5,3.12,26.61,26.61,0,0,0,1.77,2.59,12.1,12.1,0,0,0,1,1.1c.34.38.73.73,1.1,1.1s.75.77,1.13,1.14l.28.29.07.07.24.2c.2.19.17.18.27.28l.63.72,2.26,2.74.55.65.25.27s.1.1,0,0-.06,0,0,0l.09.06,1.44.95a33,33,0,0,0,6,3,18.26,18.26,0,0,0,12.75.38c4.12-1.44,7.65-4.45,10.57-7.92,5.83-7.07,9.67-15.79,12.77-24.59a174.92,174.92,0,0,0,7-27.26l1,1c-6.6.9-13.17,1.39-19.67,2.5s-12.95,2.67-18.8,5.74l-.18-.33c5.78-3.34,12.29-5.15,18.78-6.46s13.13-2,19.61-3.11l1.13-.19-.17,1.14A172.84,172.84,0,0,1,766.77,221a112.51,112.51,0,0,1-5.22,13.35A61,61,0,0,1,754,246.74c-3.08,3.76-6.91,7.23-11.75,9a21.48,21.48,0,0,1-15-.17,36.57,36.57,0,0,1-6.68-3.26l-1.53-1-.09-.06a1.17,1.17,0,0,1-.2-.14,3.13,3.13,0,0,1-.35-.33l-.35-.38-.6-.69-2.29-2.7-.54-.61,0,0,.07.05-.11-.06-.42-.24a17.57,17.57,0,0,1-1.58-1.14,13.32,13.32,0,0,1-1.4-1.41,17.09,17.09,0,0,1-1.11-1.7,10,10,0,0,1-1.32-3.78c-.13-1.31-.06-2.56-.14-3.76v-.14a3.09,3.09,0,0,0,0-1.45c-.13-.5-.35-1-.51-1.55a2.76,2.76,0,0,1,0-1.56l.27-.74.42-.75-.08.39c.25-1.45.52-2.87.91-4.29.18-.71.41-1.41.66-2.12a6.79,6.79,0,0,1,1.07-2Z"></path><path class="cls-3" d="M742.46,215.36a68.39,68.39,0,0,0-7.75,10.06c-1.15,1.78-2.31,3.54-3.37,5.38s-2.13,3.65-3.15,5.51q-6.13,11.12-11.46,22.68c-1.79,3.84-4,7.47-6,11.23s-3.61,7.69-5.39,11.54c-3.47,7.76-6.7,15.62-9.76,23.55l-2.4-1,10-23.52,2.56-5.86c.85-1.95,1.77-3.88,2.57-5.86l2.37-6a56.85,56.85,0,0,1,2.66-5.84c4-7.55,8.12-15.05,12.8-22.23S735.84,220.82,742.46,215.36Z"></path><ellipse class="cls-3" cx="688.32" cy="304.46" rx="29.89" ry="1.6"></ellipse><path class="cls-3" d="M650.31,304.83c-.23,9.55,3.62,14.88,3.62,14.88,0,.88,15.39,1.6,34.39,1.6s38.14-.72,38.14-1.6c0,0,1.79-1.94,1.48-13,0,0-.72,3-20.6,3H664.53C654.62,309.69,650.31,304.83,650.31,304.83Z"></path><path class="cls-3" d="M661.32,325.19l8.32,50.3h44.74l5.5-48.69S674.91,328,661.32,325.19Z"></path><path class="cls-3" d="M722.43,375.82c3.41,0,6.81,0,10.23.17A60.69,60.69,0,0,1,743,377.17a7.41,7.41,0,0,1,1.42.53,2.23,2.23,0,0,1,.93.84,1.45,1.45,0,0,1,.16,1.17,1.63,1.63,0,0,1-.22.53,3,3,0,0,1-.24.28,4.54,4.54,0,0,1-1.55.93c-.46.18-.89.31-1.33.45-1.73.48-3.43.8-5.13,1.1-3.41.59-6.81.95-10.22,1.3-13.61,1.32-27.25,1.66-40.89,1.67a363.85,363.85,0,0,1-40.9-2.23c-1.7-.23-3.41-.47-5.12-.78a28.48,28.48,0,0,1-5.24-1.31,4.35,4.35,0,0,1-1.69-1.09,1.5,1.5,0,0,1-.27-.4,2.64,2.64,0,0,1-.19-.68,1.65,1.65,0,0,1,.09-.72,1.68,1.68,0,0,1,.27-.52,2.72,2.72,0,0,1,1-.79,11.68,11.68,0,0,1,2.79-.83,51.57,51.57,0,0,1,5.17-.68,189.14,189.14,0,0,1,20.47-.45c-6.76.82-13.54,1.51-20.18,2.66-1.66.29-3.31.59-4.88,1a9.3,9.3,0,0,0-2,.74c-.11.05-.16.15,0,0a1,1,0,0,0,.12-.24,1.58,1.58,0,0,0,.06-.42.83.83,0,0,0-.1-.38c-.1-.14,0-.09-.08-.14s.22.08.51.15a31.49,31.49,0,0,0,4.7.86c1.65.21,3.32.36,5,.5,6.71.47,13.47.78,20.24.92s13.54.3,20.31.29,13.55,0,20.32-.08,13.54-.29,20.29-.57c3.38-.16,6.74-.39,10.08-.71,1.66-.17,3.32-.37,4.89-.69.38-.09.77-.17,1.11-.28s.7-.29.68-.26a.08.08,0,0,0,0,.05s-.1.15-.1.24a1.6,1.6,0,0,0,0,.31,1.44,1.44,0,0,0,.09.26c.13.18.1.07,0,0a5.3,5.3,0,0,0-.94-.42,63.9,63.9,0,0,0-9.78-2.05C729.18,376.72,725.81,376.26,722.43,375.82Z"></path><path class="cls-3" d="M457,655.81a14.29,14.29,0,0,1,2.44-.31,7,7,0,0,1,2.69.3,1.7,1.7,0,0,1,.49.28,1.57,1.57,0,0,1,.14,2.39,2.4,2.4,0,0,1-.72.47,7.37,7.37,0,0,1-1.55.4c-.87.15-1.67.21-2.47.27-3.18.2-6.22.18-9.24.22s-6.07.09-9.34-.17c-.42,0-.84-.09-1.31-.16-.24,0-.47-.09-.77-.17a2.84,2.84,0,0,1-1.31-.68,2,2,0,0,1-.49-.75,1.77,1.77,0,0,1,0-1,1.86,1.86,0,0,1,.65-1,2.73,2.73,0,0,1,.95-.47,6.87,6.87,0,0,1,1.39-.22,17.44,17.44,0,0,1,4.91.48c-1.5.66-3,1.15-4.35,1.81a5.22,5.22,0,0,0-.84.48c-.08.08-.17.18-.05.12s.22-.13.34-.54a1.35,1.35,0,0,0-.34-1.22c-.42-.35-.3-.23-.23-.28l.39,0,1-.13a64.16,64.16,0,0,1,9.36-.89,54.47,54.47,0,0,1,9.46.84l2.2.37a6.66,6.66,0,0,1,.77.11s0,0-.21.2a1.12,1.12,0,0,0-.26,1c.26.59.34.37.27.34a6.3,6.3,0,0,0-1.77-1Z"></path><path class="cls-3" d="M519.6,702.57a21.19,21.19,0,0,1,3.19-.2,11.23,11.23,0,0,1,1.63.1,6.23,6.23,0,0,1,1.78.42,2.17,2.17,0,0,1,.57.33,1.74,1.74,0,0,1,.62,1,1.56,1.56,0,0,1,0,.88,1.79,1.79,0,0,1-.44.7,2.3,2.3,0,0,1-.8.51,8.63,8.63,0,0,1-1.93.46c-1.12.16-2.17.21-3.23.26-4.19.14-8.23.07-12.27.11s-8.09.19-12.37,0c-.55,0-1.1-.09-1.69-.17-.3,0-.6-.1-1-.19a3.13,3.13,0,0,1-1.48-.75,1.93,1.93,0,0,1-.51-.79,2,2,0,0,1-.05-1,2,2,0,0,1,.71-1.09,3.15,3.15,0,0,1,1.11-.57,8.52,8.52,0,0,1,1.74-.35,25.81,25.81,0,0,1,6.41.26c-2,.71-4,1.26-5.85,2a8.39,8.39,0,0,0-1.2.59c-.15.09-.29.23-.22.22s.17-.08.29-.46a1.26,1.26,0,0,0-.31-1.14c-.36-.3-.18-.17-.05-.21l.58,0c.44,0,.92-.08,1.41-.13a110.34,110.34,0,0,1,12.4-1,85.79,85.79,0,0,1,12.49.94l3,.39c.45,0,1,.06,1.14.07s0,0-.12.15a1,1,0,0,0-.24.9c.24.52.26.27.15.21a9.54,9.54,0,0,0-2.5-1.25Z"></path><path class="cls-3" d="M571.36,605.81a73.73,73.73,0,0,0-7.64,2.19,70.36,70.36,0,0,0-7.23,3c-2.36,1.09-4.64,2.34-6.88,3.62s-4.43,2.76-6.39,4.18l.43-.39c-1.21,1.53-2.4,3.32-3.5,5.05S538,627,537,628.81a62.15,62.15,0,0,0-4.74,11.34A37.83,37.83,0,0,0,530.51,652a30.42,30.42,0,0,0,.79,5.92,31.92,31.92,0,0,0,2,5.71l-.82-.62c9,2.36,18.28,4.17,27.54,5.68s18.59,2.72,28,3.59a453.83,453.83,0,0,0,56.27,2.07l14.07-.57,14-1a170.37,170.37,0,0,0,27.52-4.34,73.49,73.49,0,0,0,12.88-4.5,29.35,29.35,0,0,0,10.4-7.55,13.75,13.75,0,0,0,3.11-11,20.62,20.62,0,0,0-1.86-5.88,26.83,26.83,0,0,0-1.55-2.77,24.2,24.2,0,0,0-1.79-2.48l-.65-.75-.09-1.06h0a78.36,78.36,0,0,0-2.16-15.82,53.36,53.36,0,0,0-5.85-14.88,27.08,27.08,0,0,0-11.42-10.84,27.91,27.91,0,0,0-16-2,28.68,28.68,0,0,1,16.6.62,29.41,29.41,0,0,1,13.35,10.55,56.74,56.74,0,0,1,7.69,15.29,83.2,83.2,0,0,1,3.85,16.76h0l-.73-1.81a28.62,28.62,0,0,1,2.3,3.29,34.07,34.07,0,0,1,1.82,3.43,26.06,26.06,0,0,1,2.2,7.62,19.5,19.5,0,0,1-.66,8.16,20.07,20.07,0,0,1-4,7.11A35.19,35.19,0,0,1,715,668.67a79,79,0,0,1-13.86,4.59,173.52,173.52,0,0,1-28.36,4l-14.18.78-14.2.33a491.73,491.73,0,0,1-56.67-2.83c-9.41-1-18.78-2.32-28.1-3.92s-18.59-3.42-27.81-5.89l-.47-.12-.35-.5a28.12,28.12,0,0,1-3.24-6,30.43,30.43,0,0,1-1.61-6.73,35.25,35.25,0,0,1,0-6.89,44.62,44.62,0,0,1,1.21-6.72,56.54,56.54,0,0,1,5.09-12.45,64.38,64.38,0,0,1,7.58-11.06l.23-.26.2-.13a53.69,53.69,0,0,1,7.28-4,59.13,59.13,0,0,1,7.65-2.94,49.86,49.86,0,0,1,8-1.79A38.52,38.52,0,0,1,571.36,605.81Z"></path><path class="cls-3" d="M532.54,633.5a49,49,0,0,1,7.76-.06,47.63,47.63,0,0,1,7.63,1.26,64.47,64.47,0,0,1,14.15,5.59C571,644.92,579,650.64,587.63,655a73.51,73.51,0,0,0,13.37,5.4c4.66,1.29,9.43,2.48,14.22,3.41a138,138,0,0,0,29.2,2.92,121.42,121.42,0,0,1-29.56-.75c-4.92-.68-9.77-1.56-14.64-2.68a73.43,73.43,0,0,1-14.11-5.21c-9-4.29-17.29-9.81-25.91-14.11a63.83,63.83,0,0,0-13.32-5A42.8,42.8,0,0,0,540,637.9a43.86,43.86,0,0,0-7,.12Z"></path><path class="cls-3" d="M669.77,660.46a56.19,56.19,0,0,1,13.49-29.73,41.19,41.19,0,0,1,13.42-10.08,32,32,0,0,1,16.22-3A55.38,55.38,0,0,0,698.47,624a56.76,56.76,0,0,0-11.61,10,91,91,0,0,0-9.28,12.5C674.81,650.94,672.31,655.63,669.77,660.46Z"></path><path class="cls-3" d="M626.32,607.46a7.69,7.69,0,0,1-2-4.11,16,16,0,0,1-.31-4.64,16.92,16.92,0,0,1,1-4.54,14.48,14.48,0,0,1,2.34-4.07h0l-.18.45c.2-5.22.88-10.35,1.55-15.47s1.44-10.23,2.31-15.33l.66-3.84,2.3,3.22c2.45,3.44,4.84,6.9,7.19,10.41q1.75,2.63,3.48,5.3c1.15,1.79,2.26,3.59,3.31,5.54l-3.3-.45a17.51,17.51,0,0,1,4.55-3.26,20.09,20.09,0,0,1,5.09-1.82,22.91,22.91,0,0,1,5.34-.5,26.41,26.41,0,0,1,2.67.19c.87.11,1.74.29,2.61.44l-2.61,1.37q4.32-11,8.83-21.92l2-4.8,1.91,4.73c2.87,7.13,5.49,14.29,7.72,21.63,1.11,3.66,2.11,7.37,2.94,11.14a39.11,39.11,0,0,1,1.17,11.71l-.39-1a40.68,40.68,0,0,1,4.74,5.65,23,23,0,0,1,3.9,6.3,19.92,19.92,0,0,1,1.15,7.42,15.14,15.14,0,0,1-2,7,23.44,23.44,0,0,0,0-7,25,25,0,0,0-2-6.4,52,52,0,0,0-2.9-6.15,29.64,29.64,0,0,0-4.49-5.15l-.43-.39,0-.62a37.33,37.33,0,0,0-1.47-10.84c-.91-3.62-2.1-7.2-3.36-10.75-2.55-7.08-5.42-14.11-8.51-21l3.89-.07q-4.15,11.07-8.54,22l-.71,1.77-1.9-.4a24.26,24.26,0,0,0-4.38-.59,18.48,18.48,0,0,0-4.34.33,17.74,17.74,0,0,0-4.1,1.34,15.55,15.55,0,0,0-1.88,1,12.51,12.51,0,0,0-1.57,1.2l-2.07,1.95-1.23-2.4c-.91-1.77-2-3.57-3-5.36s-2.16-3.56-3.27-5.34L631.31,561l3-.61q-1.56,7.54-3,15.12c-.48,2.52-.94,5-1.36,7.58s-.84,5.07-1.1,7.59l0,.29-.15.16h0a17.63,17.63,0,0,0-1.91,3.69,17.38,17.38,0,0,0-1,8.3A33.19,33.19,0,0,1,626.32,607.46Z"></path><path class="cls-3" d="M654.59,599.27s5.78-4.56,11.15-1.72a3.9,3.9,0,0,1-3.7,3.34l-1.3,5.12-1.65-4.78Z"></path><path class="cls-3" d="M581.13,601.24a31,31,0,0,0,.39,10.22,30.05,30.05,0,0,0,3.55,9.49,32.53,32.53,0,0,0,15.1,12.93,62.49,62.49,0,0,0,19.6,4.87,122.72,122.72,0,0,0,20.38.16l6.29-.41L641,641.77c-3.22,1.94-6.48,3.81-9.73,5.7l-.41-3.1L649.56,649l4.83,1.2L650,652.49A41.31,41.31,0,0,1,638.74,656a80.52,80.52,0,0,1-11.45,1.26,87.39,87.39,0,0,1-22.83-2.24,54.21,54.21,0,0,1-20.89-9.81,34.71,34.71,0,0,1-12.39-19.4A47.37,47.37,0,0,1,570,614.41,48.11,48.11,0,0,1,571,603a20.89,20.89,0,0,1,5.55-10.22,29.81,29.81,0,0,1,9.69-6.22,58.21,58.21,0,0,1,11-3.77,13.1,13.1,0,0,1,6.46.34A21.1,21.1,0,0,1,609.1,586a16,16,0,0,0,4.18,2.27,14.43,14.43,0,0,0,4.61.69,32.43,32.43,0,0,0,5.2-.4c.89-.11,1.78-.3,2.68-.47.45-.08.89-.2,1.34-.31s.95-.07,1.78.8c0,1.19-.41,1.57-.85,1.76s-.86.44-1.3.64c-.88.4-1.77.81-2.69,1.15a24.52,24.52,0,0,1-5.84,1.59,15.67,15.67,0,0,1-6.49-.44,17.55,17.55,0,0,1-5.68-3c-1.57-1.18-2.78-2.28-4.08-3.08a9.87,9.87,0,0,0-4.52-1.41c-3.44-.24-7.15.92-10.51,2.31a28.4,28.4,0,0,0-9,6,18.87,18.87,0,0,0-4.87,9.34,46,46,0,0,0-.73,10.92,42.67,42.67,0,0,0,1.36,10.82,31.88,31.88,0,0,0,12,17.32c5.73,4.33,12.65,7,19.71,8.59a83.62,83.62,0,0,0,21.76,2,77.47,77.47,0,0,0,10.88-1,37.33,37.33,0,0,0,10.18-3l.4,3.48-18.61-5-4-1.08,3.63-2c3.29-1.82,6.57-3.66,9.88-5.43l.84,2.86a126.16,126.16,0,0,1-20.83-.77,64.66,64.66,0,0,1-20.12-5.63,33.7,33.7,0,0,1-15.18-14.12A31.3,31.3,0,0,1,581.13,601.24Z"></path><circle class="cls-3" cx="649.09" cy="592.89" r="2.91"></circle><circle class="cls-3" cx="667.82" cy="589.98" r="2.91"></circle><ellipse class="cls-3" cx="660.85" cy="612.42" rx="1.11" ry="2.98"></ellipse><path class="cls-3" d="M637.11,605.48c1.42,2.58,2.5,5.33,4,7.72a21.52,21.52,0,0,0,2.46,3.29,14,14,0,0,0,3.06,2.4,15.11,15.11,0,0,0,7.45,1.74,25,25,0,0,0,4-.35,39.72,39.72,0,0,0,4.06-.78c2.86-.73,5.77-1.28,8.47-1.89a22.11,22.11,0,0,0,3.7-1.15,5.66,5.66,0,0,0,2.49-2.05,10,10,0,0,0,1.45-3.43,36.47,36.47,0,0,0,.8-4.11c.41-2.83.66-5.75,1.08-8.68a52.87,52.87,0,0,1,1.32,8.78c.11,3,.21,6.11-1.39,9.37a9.46,9.46,0,0,1-3.83,3.8,18.58,18.58,0,0,1-4.52,1.76c-2.94.8-5.76,1.31-8.57,1.92a32,32,0,0,1-9.22.88,17.13,17.13,0,0,1-9.11-3.06,16.32,16.32,0,0,1-5.52-7.56A53.72,53.72,0,0,1,637.11,605.48Z"></path><path class="cls-3" d="M669.77,635.55a16.29,16.29,0,0,0-4.31,5.52,12.89,12.89,0,0,0-1.34,5.81,5.11,5.11,0,0,0,.56,2.28,3.16,3.16,0,0,0,1.62,1.45c1.65.77,4.18.7,6.83.66a9.67,9.67,0,0,1-7.68,3.06,6.56,6.56,0,0,1-4.51-2.5,8.16,8.16,0,0,1-1.65-4.74,11.67,11.67,0,0,1,3.06-8.2A9.47,9.47,0,0,1,669.77,635.55Z"></path><path class="cls-3" d="M619.08,608.48a78.34,78.34,0,0,1-1.41,15.77c-.48,2.61-1,5.2-1.64,7.79s-1.28,5.14-2.08,7.75l-4.5-1.79c1.09-2.27,2.14-4.68,3.12-7.07s1.9-4.83,2.75-7.29A76.24,76.24,0,0,0,619.08,608.48Z"></path><path class="cls-3" d="M655.45,608.28a55.36,55.36,0,0,0-5.4,2.89,33.5,33.5,0,0,0-4.82,3.53,50.67,50.67,0,0,0-8.12,9,19.06,19.06,0,0,1,2.71-5.66,24.2,24.2,0,0,1,4.23-4.7,28.07,28.07,0,0,1,2.54-1.91,21.53,21.53,0,0,1,2.8-1.5A18.63,18.63,0,0,1,655.45,608.28Z"></path><path class="cls-3" d="M652.94,604.92c-1.2.48-2.41.86-3.6,1.28s-2.35.89-3.5,1.39-2.29,1-3.36,1.6a30,30,0,0,0-3.22,1.83,34.37,34.37,0,0,0-5.77,4.58,26.16,26.16,0,0,0-4.52,6,16.28,16.28,0,0,1,3.47-6.9,24.4,24.4,0,0,1,5.84-5.17,30,30,0,0,1,7.08-3.23c1.23-.4,2.51-.63,3.75-.92S651.66,605,652.94,604.92Z"></path><path class="cls-3" d="M652.44,602.91c-2.2.33-4.35.55-6.46,1-.53.1-1.06.2-1.59.28l-1.56.36c-1.05.2-2.08.52-3.1.8a52,52,0,0,0-6,2.16,46.57,46.57,0,0,0-5.79,3,18.58,18.58,0,0,1,5.14-4.23,28,28,0,0,1,6.16-2.64,29.59,29.59,0,0,1,6.59-1.11A26.26,26.26,0,0,1,652.44,602.91Z"></path><path class="cls-3" d="M666.78,608.73a18.55,18.55,0,0,1,6.18-1.11,22.44,22.44,0,0,1,3.17.16,27.38,27.38,0,0,1,3.12.64,23.56,23.56,0,0,1,5.83,2.45,18.78,18.78,0,0,1,4.87,4,50.71,50.71,0,0,0-11.18-4.65A34.4,34.4,0,0,0,672.9,609,55.75,55.75,0,0,0,666.78,608.73Z"></path><path class="cls-3" d="M667.62,604.62c1.18-.46,2.4-.87,3.63-1.26s2.51-.61,3.79-.77a30.15,30.15,0,0,1,7.77-.11,24.78,24.78,0,0,1,7.5,2.18,16.24,16.24,0,0,1,6.08,4.75,26.2,26.2,0,0,0-6.63-3.45,34.75,34.75,0,0,0-7.17-1.68,35.22,35.22,0,0,0-3.7-.28c-1.23-.11-2.47,0-3.72,0s-2.5.18-3.76.24S668.91,604.54,667.62,604.62Z"></path><path class="cls-3" d="M667.21,602.59a25.89,25.89,0,0,1,5.79-3.24,29.79,29.79,0,0,1,6.44-1.82,28.26,28.26,0,0,1,6.69-.24,18.68,18.68,0,0,1,6.46,1.62,45.78,45.78,0,0,0-6.5-.2,52.21,52.21,0,0,0-6.37.61c-1.05.19-2.1.34-3.14.61l-1.57.34c-.51.15-1,.29-1.55.42C671.37,601.23,669.34,602,667.21,602.59Z"></path><polygon class="cls-3" points="815.17 672.13 694.27 674.55 694.27 669.71 815.17 672.13"></polygon><path class="cls-3" d="M191.76,702.39c13.59-.94,27.18-1.43,40.77-1.77,6.79-.2,13.59-.25,20.38-.37l20.39-.13,20.38.12c6.8.13,13.59.17,20.39.38,13.59.33,27.18.82,40.77,1.77-13.59.94-27.18,1.44-40.77,1.77-6.8.21-13.59.25-20.39.38l-20.38.12-20.39-.13c-6.79-.12-13.59-.17-20.38-.38C218.94,703.82,205.35,703.33,191.76,702.39Z"></path><path class="cls-3" d="M21,702.39a170.25,170.25,0,0,1,17.35-1.77c2.9-.2,5.79-.25,8.68-.37l8.67-.13c5.79,0,11.57.17,17.35.5a164.49,164.49,0,0,1,17.35,1.77A167.18,167.18,0,0,1,73,704.16c-5.78.33-11.56.51-17.35.5L47,704.53c-2.89-.12-5.78-.17-8.68-.38A167.43,167.43,0,0,1,21,702.39Z"></path><g class="cls-1"><polygon class="cls-2" points="757.41 393.49 757.41 407.81 539.54 414.48 542.18 393.49 757.41 393.49"></polygon></g><g class="cls-1"><path class="cls-2" d="M528.87,644.1c3.9-8.34,6-10.85,16.15-7.78s40.76,20.43,47.44,22.79S631.17,672,662,664.35s49.53-31.79,61.41-31.23c0,0,25.39,27.29-19.08,37.15s-97.07,8-139.3,1.6S530.4,661.8,530.4,661.8Z"></path></g><g class="cls-1"><path class="cls-2" d="M704.77,592.89c-9.4-5.57-20.08-5-19.62-1.9,0,0-.28,7.79,3,10.32s6.64,12.5,6.64,12.5,17.75-9.84,23.39-5.33C718.21,608.48,710,596,704.77,592.89Z"></path></g><g class="cls-1"><path class="cls-2" d="M537,624.46s22-5.76,35.71,1.94c0,0-1.86-15.59-1.32-19.74,0,0-.2-2.11-15.39,2.74S537,624.46,537,624.46Z"></path></g><g class="cls-1"><path class="cls-2" d="M273.45,483.08c-9.33,8.59-40.7,23.24-74.36,27.92s-79.9-4.61-79.9-4.61a153.69,153.69,0,0,0,5.88,21.27c4.31,12.46,68.26,14,68.26,14C294,537.14,285,502.2,285,502.2s-3.51,77-5.1,87.78-5.37,27.52-1,26.18,15.95-3.54,15.95-3.54,22.42-72.67,28.63-96.73,11.48-24.85,12.63-39.27,5.61-37.54-8.32-38.4-17.33.82-22.89,8.86S273.45,483.08,273.45,483.08Z"></path></g><g class="cls-1"><path class="cls-2" d="M146.84,373.4c-13.05-18.2-5.35-56.88-5.35-56.88s-19.1-6.65-31.56,8.12,12.46,68.85,12.46,68.85h64.85S159.9,391.61,146.84,373.4Z"></path></g><g class="cls-1"><path class="cls-2" d="M163.53,414.68l.18-.2h-33.6s8.13,20.92,5.37,37.24.41,17,3.16,16.93c0,0,7.24,1.64,6.92-1.58,0,0,1.28-14.93,4.77-20.53,13.38-20.15,23.76-12.15,52.86-18,30.56-6.19,115-13.82,115-13.82Z"></path></g><g class="cls-1"><path class="cls-2" d="M490.11,51.49h58.68a38.08,38.08,0,0,0,2.32,36.88H493.63a14.07,14.07,0,0,1-6.06-6.69A37.35,37.35,0,0,1,490.11,51.49Z"></path></g><g class="cls-1"><path class="cls-2" d="M499.39,160l45.85,33.13s-6.16,4.65,5.87,23.72H493.63a14.44,14.44,0,0,1-6.06-6.7C482.08,196.21,492.22,173.51,499.39,160Z"></path></g></g></g></svg>