<svg xmlns="http://www.w3.org/2000/svg" viewBox="0 0 976.54 768.08"><defs><style>.cls-1{fill:none;}.cls-2{fill:#293b4a;}.cls-3{opacity:0.15;}.cls-4{fill:#1a3141;}</style></defs><g id="Layer_2" data-name="Layer 2"><g id="ARTWORK"><path class="cls-1" d="M590.85,80.48a14.55,14.55,0,0,1,1.64,4.79c-1.21-1.22-2.29-2.41-3.35-3.62s-2.1-2.45-3.07-3.81a16.53,16.53,0,0,1-3.42-9.41c1,1.39,1.91,2.72,2.83,4l2.77,3.87A38.6,38.6,0,0,1,590.85,80.48ZM567.6,150.83c1.3-1.12,2.57-2.09,3.8-3.12l3.64-3a39.29,39.29,0,0,1,4-2.9,14.68,14.68,0,0,1,4.66-2c-1.12,1.32-2.24,2.47-3.36,3.62a47.72,47.72,0,0,1-3.59,3.34A16.29,16.29,0,0,1,567.6,150.83Zm50.59,2.36a15.07,15.07,0,0,1,.68-5c.55,1.63,1,3.18,1.38,4.73s.78,3.15,1,4.78a16.38,16.38,0,0,1-1.15,9.94c-.3-1.69-.48-3.28-.72-4.84l-.75-4.7A36.82,36.82,0,0,1,618.19,153.19Zm35.19-11.77a16.33,16.33,0,0,1,6,8c-1.37-1-2.61-2-3.87-3l-3.77-2.9a39.27,39.27,0,0,1-3.7-3.22,15.26,15.26,0,0,1-3-4.12c1.53.82,2.89,1.65,4.27,2.5A41.75,41.75,0,0,1,653.38,141.42Zm-.11-29.77c1.71-.2,3.3-.29,4.92-.36a41.92,41.92,0,0,1,4.89,0,16.54,16.54,0,0,1,9.48,3.21c-1.72-.06-3.31-.21-4.9-.31l-4.75-.25a40,40,0,0,1-4.89-.56A15,15,0,0,1,653.27,111.65ZM640.14,67.32c-.86,1.49-1.74,2.83-2.56,4.18l-2.46,4.07a37.39,37.39,0,0,1-2.78,4.05A15.69,15.69,0,0,1,628.58,83c.64-1.61,1.3-3.06,2-4.53a46.93,46.93,0,0,1,2.28-4.31A16.41,16.41,0,0,1,640.14,67.32ZM624.8,95.54,646.28,105l-30.72,17.23L608.11,119l-.24-5.25,7.45,3.28,20.46-11.48L625,100.77,614.32,96l-20.49,11.48,5.37,2.37.25,5.24.5,10.5,16.11,7.11,15.35-8.61-.24-5.25,5.11-2.87.26,5.24.24,5.25L616.3,138l-21.47-9.5-.12-2.62-.63-13.12L583.35,108l30.71-17.23Zm-68.6,9.27,4.64,1a39.17,39.17,0,0,1,4.74,1.33,14.69,14.69,0,0,1,4.43,2.44c-1.73-.08-3.32-.25-4.92-.43a45.59,45.59,0,0,1-4.83-.75,16.36,16.36,0,0,1-8.86-4.66C553.09,104.08,554.64,104.48,556.2,104.81Z"></path><path class="cls-2" d="M0,735.93c10.6-.37,21.2-.55,31.8-.83l31.8-.51c21.2-.3,42.4-.34,63.61-.52,21.2.06,42.4,0,63.6.17l31.8.33c10.61.22,21.21.34,31.81.66-10.6.37-21.2.54-31.8.83l-31.8.5c-21.2.3-42.4.35-63.61.53-21.2-.07-42.4,0-63.6-.18l-31.81-.33C21.2,736.36,10.6,736.24,0,735.93Z"></path><polygon class="cls-2" points="39.46 766.92 155.37 766.1 271.28 765.59 503.11 765.06 734.94 765.23 850.86 765.57 966.77 766.22 850.86 767.04 734.94 767.56 503.12 768.08 271.29 767.9 155.37 767.57 39.46 766.92"></polygon><path class="cls-2" d="M341.62,736.82c10.6-.37,21.2-.55,31.8-.83l31.8-.5c21.2-.31,42.4-.35,63.6-.53,21.2.06,42.4,0,63.61.17l31.8.33c10.6.22,21.2.34,31.8.66-10.6.37-21.2.55-31.8.83l-31.8.51c-21.2.3-42.4.34-63.6.52-21.2-.07-42.4,0-63.61-.18l-31.8-.33C362.82,737.25,352.22,737.13,341.62,736.82Z"></path><path class="cls-2" d="M523.57,702c5.39-.29,10.77-.43,16.16-.65l16.16-.4c10.78-.27,21.55-.35,32.33-.44s21.55-.06,32.32.08l16.17.23c5.39.16,10.77.24,16.16.47-5.38.29-10.77.43-16.16.65l-16.16.4c-10.77.26-21.55.35-32.32.44s-21.55.06-32.33-.09l-16.16-.23C534.35,702.28,529,702.2,523.57,702Z"></path><polygon class="cls-2" points="496.26 671.4 618.64 672.21 496.27 674.43 496.26 671.4"></polygon><polygon class="cls-2" points="470.34 674.43 418.63 673.62 470.3 671.4 470.34 674.43"></polygon><path class="cls-2" d="M643,731c13.63-.37,27.26-.54,40.89-.82l40.89-.51c27.25-.31,54.51-.34,81.77-.53,27.26.06,54.52,0,81.78.17l40.89.34c13.63.22,27.26.34,40.89.65-13.63.37-27.26.55-40.89.83l-40.89.51c-27.25.3-54.51.35-81.77.52-27.26-.07-54.52,0-81.78-.17l-40.89-.34C670.25,731.46,656.62,731.34,643,731Z"></path><path class="cls-2" d="M405.34,615.94a21.94,21.94,0,0,1-.95-7.46,42.11,42.11,0,0,1,.91-6.94l2.08-13.94,4.08-28,4.22-28,4.07-28,8-56.07,4.32-28,2.28-14c.37-2.33.79-4.66,1.21-7a34.68,34.68,0,0,1,1.69-6.91l4.9.87a34.43,34.43,0,0,1-.67,7c-.37,2.32-.75,4.64-1.08,7l-2.05,14-3.87,28-7.69,56.1c-2.55,18.7-5,37.43-7.72,56.13q-2.05,14-4.63,28c-.8,4.66-1.87,9.31-2.8,14a44.16,44.16,0,0,1-1.93,6.92A16.4,16.4,0,0,1,408,613,15.41,15.41,0,0,1,405.34,615.94Z"></path><path class="cls-2" d="M447.16,354.9c-1.79-7.59-.74-14.69.4-21.78l3.26-21.29q3.33-21.29,6.94-42.52L465,226.85l7-42.51c4.53-28.36,8.4-56.83,12.61-85.24l3.29-21.3c1.19-7.08,2.3-14.18,3.58-21.26l1.89-10.61a74.14,74.14,0,0,1,2.31-10.55c1.16-3.45,2.9-6.79,4.33-10.19q1.11-2.53,2-5.12t1.59-5.19c-.18,1.79-.29,3.6-.31,5.41s0,3.64.08,5.48c.18,3.68.71,7.41.64,11a78,78,0,0,1-1.29,10.69L501,58.13q-3.33,21.25-7,42.48C489,128.9,483.72,157.15,479,185.49L472,228l-6.87,42.53q-3.45,21.27-7.29,42.47c-1.24,7.08-2.61,14.13-3.91,21.19S451.35,348.33,447.16,354.9Z"></path><path class="cls-2" d="M495.78,26.5c-.44-4.43,4.11-14.94,8.6-19,0,0,5.19,13.56,3.62,20.8a21.32,21.32,0,0,0,8-19.19c-1.47-12.44-19.4-11.82-22.85.32S495.78,26.5,495.78,26.5Z"></path><path class="cls-2" d="M731.68,111.13c-36.64-27.73-87.85-87-145.14-68s-56.4,2.6-75.8.21a227.38,227.38,0,0,1-2.14,25.1c-1.75,10.84-8.7,27.15-6.22,39.54,3.39,16.92-4.16,62.25-4.16,62.25,14.95,8,15.57,7.69,41.18,20.44s48.9-13.6,104.39,4.09,74,37.45,74,37.45c5.51-15.29,2-50.67,1.83-68.28C719.35,131,731.68,111.13,731.68,111.13ZM630.58,78.5a46.93,46.93,0,0,1,2.28-4.31,16.41,16.41,0,0,1,7.28-6.87c-.86,1.49-1.74,2.83-2.56,4.18l-2.46,4.07a37.39,37.39,0,0,1-2.78,4.05A15.69,15.69,0,0,1,628.58,83C629.22,81.42,629.88,80,630.58,78.5Zm-45.1-6.06,2.77,3.87a38.6,38.6,0,0,1,2.6,4.17,14.55,14.55,0,0,1,1.64,4.79c-1.21-1.22-2.29-2.41-3.35-3.62s-2.1-2.45-3.07-3.81a16.53,16.53,0,0,1-3.42-9.41C583.68,69.82,584.56,71.15,585.48,72.44Zm-25.22,36a16.36,16.36,0,0,1-8.86-4.66c1.69.34,3.24.74,4.8,1.07l4.64,1a39.17,39.17,0,0,1,4.74,1.33,14.69,14.69,0,0,1,4.43,2.44c-1.73-.08-3.32-.25-4.92-.43A45.59,45.59,0,0,1,560.26,108.4Zm20,35a47.72,47.72,0,0,1-3.59,3.34,16.29,16.29,0,0,1-9.12,4.1c1.3-1.12,2.57-2.09,3.8-3.12l3.64-3a39.29,39.29,0,0,1,4-2.9,14.68,14.68,0,0,1,4.66-2C582.55,141.09,581.43,142.24,580.31,143.39Zm39.83,24.23c-.3-1.69-.48-3.28-.72-4.84l-.75-4.7a36.82,36.82,0,0,1-.48-4.89,15.07,15.07,0,0,1,.68-5c.55,1.63,1,3.18,1.38,4.73s.78,3.15,1,4.78A16.38,16.38,0,0,1,620.14,167.62Zm4.9-66.85L614.32,96l-20.49,11.48,5.37,2.37.25,5.24.5,10.5,16.11,7.11,15.35-8.61-.24-5.25,5.11-2.87.26,5.24.24,5.25L616.3,138l-21.47-9.5-.12-2.62-.63-13.12L583.35,108l30.71-17.23,10.74,4.75L646.28,105l-30.72,17.23L608.11,119l-.24-5.25,7.45,3.28,20.46-11.48Zm30.47,45.64-3.77-2.9a39.27,39.27,0,0,1-3.7-3.22,15.26,15.26,0,0,1-3-4.12c1.53.82,2.89,1.65,4.27,2.5a41.75,41.75,0,0,1,4,2.75,16.33,16.33,0,0,1,6,8C658,148.39,656.77,147.38,655.51,146.41Zm12.15-32.24-4.75-.25a40,40,0,0,1-4.89-.56,15,15,0,0,1-4.75-1.71c1.71-.2,3.3-.29,4.92-.36a41.92,41.92,0,0,1,4.89,0,16.54,16.54,0,0,1,9.48,3.21C670.84,114.42,669.25,114.27,667.66,114.17Z"></path><path class="cls-2" d="M586.89,268c3.52-3,7.4-3.24,7.33-8.44s2.66-3.86,2.66-3.86,4.08-4.75-.15-9-7.2-2.28-14.59-9.31-9.51-10.23-16.08-4.39-10.63.12-18.18.67S541.54,242,540,249s-5.18,9.86,1.45,13.72,6.61,7.5,6.61,7.5a41,41,0,0,0,9.51-8c3.69-4.57,8.78-4.65,12.68-.24S582,272.25,586.89,268Z"></path><path class="cls-2" d="M561.17,305.92c-2.2-.38-4.4-.62-6.61-.92s-4.4-.59-6.64-1.12l-1.26-.3.66-1.31c.88-1.74,1.87-3.42,2.81-5.13s2-3.35,3-5,2-3.3,3.13-4.91,2.12-3.24,3.27-4.81l-.26,1.08a9.14,9.14,0,0,0-1.35-3.9,4.75,4.75,0,0,0-3.19-2.13,10.11,10.11,0,0,0-4.51.39,35.87,35.87,0,0,0-4.62,1.77,20.65,20.65,0,0,1,4.13-3,10.47,10.47,0,0,1,5.21-1.4,7,7,0,0,1,5.26,2.61,9,9,0,0,1,1.51,2.49,12.35,12.35,0,0,1,.83,2.78l.08.49-.34.59c-1,1.69-2,3.3-3.06,4.95s-2.14,3.24-3.21,4.87-2.23,3.17-3.34,4.77-2.3,3.13-3.53,4.65l-.6-1.62c2,.71,4.17,1.31,6.3,1.95A60.64,60.64,0,0,1,561.17,305.92Z"></path><path class="cls-2" d="M566.59,283.88a10,10,0,0,1,4.57-2,12.79,12.79,0,0,1,5,.15,10.89,10.89,0,0,1,4.6,2.25,8.48,8.48,0,0,1,2.81,4.18c-1.62-.64-2.88-1.34-4.25-1.78a31.8,31.8,0,0,0-4-1.19c-1.34-.31-2.72-.57-4.17-.82S568.26,284.22,566.59,283.88Z"></path><path class="cls-2" d="M562.67,294.7a7.49,7.49,0,0,1,3.94-2.21,9.43,9.43,0,0,1,4.6.09,9.17,9.17,0,0,1,4,2.25,7.74,7.74,0,0,1,2.27,3.9c-1.48-.53-2.64-1.14-3.83-1.57a28.29,28.29,0,0,0-3.4-1.14,30.71,30.71,0,0,0-3.54-.74C565.51,295.07,564.2,294.92,562.67,294.7Z"></path><path class="cls-2" d="M539.5,289.37a6.44,6.44,0,0,1,3.66-2.32,8.51,8.51,0,0,1,4.45.07,8.61,8.61,0,0,1,3.8,2.26,8.12,8.12,0,0,1,1.32,1.72,8.68,8.68,0,0,1,.75,2,18.51,18.51,0,0,1-2-.76c-.63-.21-1.14-.54-1.72-.72a28.22,28.22,0,0,0-3.18-1.12,24.48,24.48,0,0,0-3.27-.72C542.2,289.64,541,289.52,539.5,289.37Z"></path><path class="cls-2" d="M553.27,310.6c1.81.14,3.39.48,4.92.68a24.2,24.2,0,0,0,4.35.22,11.43,11.43,0,0,0,4-.88,17.5,17.5,0,0,0,4-2.55,7.07,7.07,0,0,1-2.4,4.87,8.64,8.64,0,0,1-5.32,2.12,11.06,11.06,0,0,1-5.38-1.12A11.34,11.34,0,0,1,553.27,310.6Z"></path><path class="cls-2" d="M596.17,287.44a18.74,18.74,0,0,1,5.15-1.85,15.65,15.65,0,0,1,5.69-.18,6.35,6.35,0,0,1,3.08,1.3,4.31,4.31,0,0,1,1.25,1.68,4.49,4.49,0,0,1,.28,2.08,7.48,7.48,0,0,1-1.21,3.18A15.86,15.86,0,0,1,608.6,296a21.46,21.46,0,0,1-4.4,3.67,21.14,21.14,0,0,1-5.21,2.24,25.14,25.14,0,0,1-10.89.57,60,60,0,0,0,9.95-3.18,25.44,25.44,0,0,0,4.3-2.44,25.91,25.91,0,0,0,3.63-3.27,14.31,14.31,0,0,0,1.48-1.83,4.83,4.83,0,0,0,.81-1.69.94.94,0,0,0-.25-1,4.58,4.58,0,0,0-1.68-.95,18.81,18.81,0,0,0-4.88-.77A39.2,39.2,0,0,0,596.17,287.44Z"></path><path class="cls-2" d="M587.56,315.64a24.75,24.75,0,0,1-9.64,7.94,31.18,31.18,0,0,1-12.33,3.14A23.67,23.67,0,0,1,553,323.94a15.14,15.14,0,0,1-7.62-9.91,18.72,18.72,0,0,0,8.85,7.41,27.06,27.06,0,0,0,11.21,1.72A41.66,41.66,0,0,0,576.86,321,42.48,42.48,0,0,0,587.56,315.64Z"></path><path class="cls-2" d="M605.43,286.05l-8.14.63-2.85-6.51-10.83.85c-1.47-5.52,7.79-30.64,16.75-26.78,3.47,1.5,13.75,4.51,8.69,12.33S610.17,279.8,605.43,286.05Z"></path><path class="cls-2" d="M553.75,326.34c0,2.06,0,4.11-.06,6.16s-.2,4.11-.4,6.15-.43,4.1-.75,6.15c-.16,1-.32,2.05-.54,3.08a29.67,29.67,0,0,1-.86,3.19L550,348.88a81,81,0,0,0,12.17,1c4,0,8.08-.52,11.16-2.39a6.86,6.86,0,0,0,1.92-1.7,4.18,4.18,0,0,0,.95-2l.5-6.24c.28-4.17.84-8.32.88-12.51a36.9,36.9,0,0,1,.9,6.26q.27,3.15.37,6.3c.1,2.1.12,4.19.14,6.29a8.31,8.31,0,0,1-3.86,6.32,16.91,16.91,0,0,1-6.37,2.61,34.85,34.85,0,0,1-6.56.67,64.43,64.43,0,0,1-12.76-1.4l-1.93-.39.74-1.8a24.32,24.32,0,0,0,.86-2.68c.28-.95.54-1.92.78-2.9.48-1.95.91-3.93,1.35-5.92C552,334.36,552.84,330.35,553.75,326.34Z"></path><path class="cls-2" d="M577.8,336.06a2.81,2.81,0,0,1,2-1.49,11.57,11.57,0,0,1,1.85-.12,26.92,26.92,0,0,1,3.57.74,44.54,44.54,0,0,1,6.92,2.46A32.88,32.88,0,0,1,604,346.5a30,30,0,0,1,6.2,13.15,33.23,33.23,0,0,1-.2,14.15,35,35,0,0,0-.25-6.95,33.38,33.38,0,0,0-1.52-6.68,28,28,0,0,0-6.88-11.28,28.32,28.32,0,0,0-5.11-4.09c-.94-.56-1.87-1.13-2.87-1.6a31.2,31.2,0,0,0-3-1.38,52.27,52.27,0,0,0-6.29-2.13,30.39,30.39,0,0,1-3.25-.84,9.84,9.84,0,0,1-1.6-.72A3,3,0,0,1,577.8,336.06Z"></path><path class="cls-2" d="M522.49,407c-.13-6.57,1.62-13,3.7-18.92s4.59-11.64,5.48-17.44c.11-.73.18-1.45.22-2.18l0-2.4c0-.8.05-1.61.1-2.41s.1-1.61.23-2.41a37.42,37.42,0,0,1,2.34-9.37,31.46,31.46,0,0,1,4.93-8.23,37.33,37.33,0,0,1,7-6.39,41.72,41.72,0,0,0-6.16,7,31.08,31.08,0,0,0-4,8.24,35.44,35.44,0,0,0-1.55,9c-.06.76-.07,1.52-.06,2.28s0,1.52,0,2.29l.13,2.3a23.66,23.66,0,0,1,.15,2.52,38.45,38.45,0,0,1-1.49,9.72c-.82,3.11-1.82,6.1-2.8,9.05A117.67,117.67,0,0,0,526,407.23Z"></path><path class="cls-2" d="M614.06,388.88c-.31,11.52,1.44,22.93,4.14,34s6.14,22.06,9.75,33c1.79,5.46,3.65,10.91,5.28,16.47a128.5,128.5,0,0,1,4.06,17.06,40.52,40.52,0,0,1,.4,9.12,16.09,16.09,0,0,1-3.53,9.28A12.94,12.94,0,0,1,630,511a42.75,42.75,0,0,1-4.22,1.8,68.94,68.94,0,0,1-8.61,2.48,110.49,110.49,0,0,1-17.49,2.27,140.88,140.88,0,0,1-34.93-2.4A83.5,83.5,0,0,1,547.81,510a36.84,36.84,0,0,1-7.86-4.61,20.52,20.52,0,0,1-3.37-3.35,23.4,23.4,0,0,1-2.47-4,54.8,54.8,0,0,1-3.14-8.37c-.82-2.83-1.54-5.67-2.1-8.53a131.28,131.28,0,0,1-2.27-17.27,81.53,81.53,0,0,1,.55-17.38c1.24,5.71,2,11.39,2.76,17s1.6,11.3,2.72,16.85,2.47,11.11,4.87,16a17.32,17.32,0,0,0,2.06,3.31,16.4,16.4,0,0,0,2.8,2.64,32.85,32.85,0,0,0,7.09,3.9,74.47,74.47,0,0,0,16.15,4.36,143.6,143.6,0,0,0,16.84,1.72c11.28.4,22.69.06,33.65-2.12a62.33,62.33,0,0,0,8-2.09,37.48,37.48,0,0,0,3.75-1.48,8.14,8.14,0,0,0,2.69-1.94,11.52,11.52,0,0,0,2.57-6.56,35.46,35.46,0,0,0-.19-8.08,122.23,122.23,0,0,0-3.52-16.56c-1.51-5.51-3.08-11-4.67-16.56-3.17-11.06-6.31-22.19-8.47-33.55S612.91,400.36,614.06,388.88Z"></path><path class="cls-2" d="M607.33,393.22a100.71,100.71,0,0,1-27.15,31.93,95.76,95.76,0,0,1-38.66,17.37,120.77,120.77,0,0,1-21.15,2.42c-1.77.06-3.54.07-5.3.07a20.37,20.37,0,0,1-5.9-.87,23.06,23.06,0,0,1-9.62-6.35,94.6,94.6,0,0,1-6.87-8.13c-2.16-2.71-4.31-5.39-6.56-8a115.37,115.37,0,0,0-15-14.31,74,74,0,0,1,17.24,12.1c5.24,4.74,9.72,10.35,14.49,14.92a19.7,19.7,0,0,0,7.78,4.81,14.84,14.84,0,0,0,4.4.57c1.72,0,3.43,0,5.14-.11a131.2,131.2,0,0,0,20.29-2.22A100.89,100.89,0,0,0,578,422.09C589.38,414.52,599.05,404.42,607.33,393.22Z"></path><path class="cls-2" d="M575.1,363.33c-3.49,5-7.82,9.38-12.06,13.74q-3.24,3.21-6.56,6.36t-6.75,6.14q-6.83,6.07-14,11.76c-2.41,1.88-4.85,3.72-7.37,5.51-1.26.89-2.54,1.76-3.89,2.6-.67.42-1.37.83-2.13,1.21a13.35,13.35,0,0,1-1.24.56,5.18,5.18,0,0,1-2,.42h.27a17,17,0,0,1-7.09-.85,19.88,19.88,0,0,1-6-3.44,91.83,91.83,0,0,1-9.09-9c-2.85-3-5.72-5.93-8.84-8.63a94.59,94.59,0,0,0-9.91-7.53,59.38,59.38,0,0,1,11.2,5.84,84.23,84.23,0,0,1,9.94,7.87c3.15,2.78,6.08,5.78,9.23,8.07a18.86,18.86,0,0,0,4.88,2.62,12.56,12.56,0,0,0,5.25.54h.27c-.34,0,0,0,.22-.13a8.46,8.46,0,0,0,.83-.39c.58-.31,1.2-.67,1.82-1,1.23-.75,2.47-1.57,3.7-2.41,2.45-1.69,4.87-3.48,7.27-5.29,4.83-3.6,9.57-7.35,14.32-11.1q3.55-2.8,7.07-5.68t7-5.74C566.14,371.49,570.81,367.64,575.1,363.33Z"></path><path class="cls-2" d="M533.39,491.09c-11.5,13.1-20,28.36-26.64,44.22-3.31,8-6.21,16.08-8.82,24.32l-3.87,12.42c-.66,2.08-1.31,4.17-2.05,6.27-.36,1.06-.75,2.12-1.19,3.19-.21.53-.49,1.1-.72,1.62s-.33.78-.48,1.25a107.38,107.38,0,0,0-3,12.27c-.83,4.23-1.57,8.49-2.29,12.75-1.47,8.53-2.82,17.09-4.14,25.67l-4,25.71-2,12.87-1,6.44c-.51,2.12.11,4.38-2.81,6.2-2.38-2.49-1.2-4.53-1.16-6.72l.7-6.48,1.45-13c1-8.64,2.17-17.26,3.33-25.89s2.59-17.22,4.1-25.81c.78-4.29,1.59-8.58,2.5-12.87a106.41,106.41,0,0,1,3.38-13c.2-.56.5-1.18.75-1.76s.43-.87.64-1.35c.4-.92.79-1.9,1.16-2.88.75-2,1.44-4,2.14-6.07,1.4-4.1,2.75-8.25,4.23-12.35a257.42,257.42,0,0,1,9.94-24.3C511,518,520.71,503.07,533.39,491.09Z"></path><path class="cls-2" d="M553.75,519.23c5.66,17.87,17.66,32.84,29.59,47.38,12.16,14.45,25,28.36,38.19,42l2.48,2.54c.81.83,1.7,1.76,2.42,2.41a18.33,18.33,0,0,0,17.44,4.19c9-2.61,18.16-5.38,27.26-8.1s18.31-5.23,27.58-7.49q7-1.67,14-2.84A77.46,77.46,0,0,1,727,598.06c-9.47.91-18.59,3.63-27.64,6.37s-18,5.84-27,9-17.93,6.25-27.09,9.07a23.48,23.48,0,0,1-15.66-.74,23.23,23.23,0,0,1-6.77-4.23c-1-1-1.79-1.74-2.65-2.6l-2.52-2.53a520.18,520.18,0,0,1-38.23-42.59,242.39,242.39,0,0,1-16.67-23.41,107.15,107.15,0,0,1-6.85-12.78,32.78,32.78,0,0,1-2.38-7A14.48,14.48,0,0,1,553.75,519.23Z"></path><path class="cls-2" d="M650.82,576.48a112.44,112.44,0,0,1-8.94-15.25A153.91,153.91,0,0,1,635,544.92a131.13,131.13,0,0,1-4.83-17.1A94.67,94.67,0,0,1,628,510.14l3.08-.29c1.13,5.69,2.16,11.35,3.56,16.95s2.85,11.18,4.61,16.69C642.64,554.58,646.62,565.49,650.82,576.48Z"></path><path class="cls-2" d="M639.85,579A86.58,86.58,0,0,1,659,571.75l2.49-.67,2.51-.52c1.67-.35,3.36-.68,5-1,3.39-.48,6.78-1,10.19-1.21a123,123,0,0,1,20.49,0,89.89,89.89,0,0,1,20.1,3.75c-6.82.1-13.52.21-20.21.42s-13.33.6-20,1.13c-3.33.2-6.62.61-9.94.9s-6.62.71-9.91,1.22C653.15,576.63,646.63,578,639.85,579Z"></path><path class="cls-2" d="M565.43,548.63c.27,2.75-1.36,3.12-2.37,4.28-1.13,1-2.19,2.09-3.25,3.17-2.16,2.13-4.2,4.37-6.25,6.6-4,4.54-8,9.15-11.62,14s-7.25,9.76-10.6,14.84-6.53,10.3-9.45,15.52l.2-.45-13.83,41.27c-2.35,6.86-4.62,13.75-7,20.59l-3.63,10.27-1.82,5.12a9.28,9.28,0,0,1-3.2,4.68,9.18,9.18,0,0,1,.18-5.66l1.54-5.22,3.12-10.43c2.08-7,4.31-13.85,6.45-20.78L517,604.94l.08-.24.12-.21c3.11-5.47,6.47-10.62,10-15.75s7.15-10.12,11-15,8-9.51,12.3-14c2.22-2.18,4.4-4.39,6.78-6.41,1.16-1,2.31-2.08,3.54-3S562.82,547.87,565.43,548.63Z"></path><path class="cls-2" d="M501.87,691a3.74,3.74,0,0,0-1.39-2.89,3.83,3.83,0,0,0-3.22-.8,34.89,34.89,0,0,1-3.8.47c-.18,0-.36,0-.56,0l-.5,0a47.1,47.1,0,0,1-8.7-.55c-2.09-.3-4.16-.72-6.2-1.22-1.62-.4-3.24-.85-4.83-1.35l-.54-.18-.65-.21c-.24-.08-.32-.11-.68-.21a4.54,4.54,0,0,0-1.17-.18,3.89,3.89,0,0,0-.68,0,5,5,0,0,0-4.42,4.21c0,.2,0,.39-.06.59v.35l0,.63-.12,2.58-.21,5.15-.06,1.37,1.2.84a16.87,16.87,0,0,0,4,2.35l1,.41c.71.3,1.44.57,2.17.81.36.15.74.28,1.1.4a45.9,45.9,0,0,0,8.8,2c.79.11,1.58.19,2.36.25.53,0,1.08,0,1.61.06a35,35,0,0,0,5-.23,30.54,30.54,0,0,0,8.56-2.3l.28-.06,0-.35c.62-4,1.18-7.94,1.68-11.92l0,0Zm-2.31,11.57-.32.41c0-.11,0-.23,0-.33a32.8,32.8,0,0,1-16.24-.49,43,43,0,0,1-7.72-2.9c-2.06-1-4-2.25-6-3.31v1.62l-1.13-2.21c.38.18.74.37,1.12.59l0-3.54,0-2.57v-1s0,0,0,0a.24.24,0,0,1,0-.14.36.36,0,0,1,.26-.23h.09l.57.15,1.29.32c1.71.41,3.45.75,5.17,1.06,6.93,1.16,14.16,1.6,21.17-.17A1.34,1.34,0,0,1,499,690a1.54,1.54,0,0,1,.71,1.11q-.33,5.78-.5,11.57Z"></path><path class="cls-2" d="M744.78,593.09a10.61,10.61,0,0,0,0-1.26v-.27a56.76,56.76,0,0,0-1.29-10.46,45.5,45.5,0,0,0-1.84-6.27c-.41-1.09-.87-2.17-1.38-3.23a3.23,3.23,0,0,0-.2-.42,2.8,2.8,0,0,0-.15-.3l0-.08a36.93,36.93,0,0,0-5.63-8.18v0l-.15-.22-.37.07c-2.27.39-4.53.83-6.8,1.3s-4.53.94-6.77,1.44h0l-.14,0a4.45,4.45,0,0,0-2.62,2.77,4.67,4.67,0,0,0,.26,3.46l.09.17c0,.07.08.15.12.23a1.78,1.78,0,0,1,.17.3,45.38,45.38,0,0,1,4.31,10.38c.27,1,.53,1.9.76,2.86h0c.66,2.84,1.15,5.73,1.56,8.64.16,1.31.3,2.66.42,4a.78.78,0,0,1,0,.21c.06.55.09,1.11.13,1.65l.09,1.47,0,.74a7.25,7.25,0,0,0,.2,1.23,5.58,5.58,0,0,0,3.45,3.81,5.46,5.46,0,0,0,2.69.29,2.58,2.58,0,0,0,.67-.14l.33-.09.2-.06.71-.24,2.86-1,5.72-1.92,1.67-.56v-1.28a21.28,21.28,0,0,0,.91-5.34C744.78,595.61,744.81,594.36,744.78,593.09Zm-6,7.88q.07-.66.18-1.32l-4.17,1.51-2.83,1-.71.25-.17.07h0a.08.08,0,0,1-.06,0,.68.68,0,0,1-.28,0,.8.8,0,0,1-.54-.7L730,601l-.15-1.54c-.23-2-.51-4.08-.88-6.11a72.22,72.22,0,0,0-3.1-12,47.6,47.6,0,0,0-3.22-7.4c-.7-1.3-1.45-2.57-2.27-3.81a1.76,1.76,0,0,1,.56-2.57c2.15-.64,4.3-1.35,6.45-2s4.17-1.38,6.24-2.12l-.18-.27.5.16-.32.11a36.66,36.66,0,0,1,4.24,8.61c.17.48.33.95.47,1.44a42.19,42.19,0,0,1,1.63,8.15,50.63,50.63,0,0,1,.06,9.77c-.19,2.76-.77,5.55-1.15,8.2l1.5-.54Z"></path><path class="cls-2" d="M468.83,723.79a30.51,30.51,0,0,1-.63-6.54,49,49,0,0,1,.35-6.42,55,55,0,0,1,1.12-6.34,32,32,0,0,1,2.14-6.21,31.2,31.2,0,0,1,.65,6.54,52.92,52.92,0,0,1-.37,6.42,50.6,50.6,0,0,1-1.14,6.33A31.09,31.09,0,0,1,468.83,723.79Z"></path><path class="cls-2" d="M486.12,703.33a29.1,29.1,0,0,1,0,6.33,48,48,0,0,1-1,6.11,50.23,50.23,0,0,1-1.75,5.93,29.91,29.91,0,0,1-2.75,5.71,29.83,29.83,0,0,1,0-6.34,48.17,48.17,0,0,1,1-6.1A46.32,46.32,0,0,1,483.4,709,28.91,28.91,0,0,1,486.12,703.33Z"></path><path class="cls-2" d="M461.87,379.48a60.61,60.61,0,0,1-10-7.87q-2.31-2.17-4.54-4.4L445.15,365a20.74,20.74,0,0,0-2-1.88,11.25,11.25,0,0,0-5-1.37,16.11,16.11,0,0,0-5.55.49,6.66,6.66,0,0,0-2.29,1.08,11.47,11.47,0,0,0-1,1l-1,1.1a8.25,8.25,0,0,0-1.5,2.34,14,14,0,0,0-.57,3,6.49,6.49,0,0,1,.2-6.62,13.6,13.6,0,0,1,.89-1.42,11.71,11.71,0,0,1,1.06-1.39,9.42,9.42,0,0,1,3.1-2.07A16.47,16.47,0,0,1,438.3,358a12.51,12.51,0,0,1,6.92,2.12,15.85,15.85,0,0,1,2.46,2.51l2,2.42,4,4.86C456.39,373.14,458.92,376.46,461.87,379.48Z"></path><path class="cls-2" d="M440.51,367.87a2.45,2.45,0,0,0-1.49-.24,12.42,12.42,0,0,0-1.47.22c-1,.22-2,.45-2.94.74-2,.52-3.9,1.09-5.83,1.66l-2.89.89a9.39,9.39,0,0,0-2.39,1.26,6.14,6.14,0,0,0-2.23,5.14,6,6,0,0,1,.54-6.72,9.82,9.82,0,0,1,2.81-2.38,18.07,18.07,0,0,1,3-1.5,20.09,20.09,0,0,1,6.55-1.35,14.31,14.31,0,0,1,3.43.34,7.27,7.27,0,0,1,1.68.62A2.33,2.33,0,0,1,440.51,367.87Z"></path><path class="cls-2" d="M439.72,375.55a2.93,2.93,0,0,0-2.19-.07,20.92,20.92,0,0,0-2.07.69l-4.26,1.6c-1.43.54-3,1-4.38,1.49a10,10,0,0,0-1.91.95,1.38,1.38,0,0,0-.66,1.76,1.42,1.42,0,0,1-.8-1.14,2.48,2.48,0,0,1,.29-1.5,6.81,6.81,0,0,1,1.79-2.16,19.62,19.62,0,0,1,4.37-2.68,14.51,14.51,0,0,1,5-1.22,8,8,0,0,1,2.76.34,4.29,4.29,0,0,1,1.31.71A1.92,1.92,0,0,1,439.72,375.55Z"></path><path class="cls-2" d="M437.75,382.2a2.06,2.06,0,0,0-1.27.4c-.3.19-.61.43-.91.63a18.31,18.31,0,0,1-2,1.21,12.67,12.67,0,0,1-2.31.94,9,9,0,0,1-2.93.37,6.22,6.22,0,0,1,1.38-2.71,7.56,7.56,0,0,1,2.23-1.77,6.52,6.52,0,0,1,2.93-.75,4.24,4.24,0,0,1,1.71.34A1.84,1.84,0,0,1,437.75,382.2Z"></path><path class="cls-2" d="M444.8,360.66a6,6,0,0,0,3.75,4,7.61,7.61,0,0,0,2.47.4c.78,0,1.93-.12,3-.15a16,16,0,0,1,3.46.21,7.23,7.23,0,0,1,3.53,1.66,6.28,6.28,0,0,1,1.85,3.28,8.47,8.47,0,0,1,0,3.4c-1.05-2-2.13-3.76-3.55-4.43s-3.17-.61-5.22-.56a27.14,27.14,0,0,1-3.34,0A7.61,7.61,0,0,1,447.2,367a6.68,6.68,0,0,1-2.35-2.91A4.54,4.54,0,0,1,444.8,360.66Z"></path><polygon class="cls-2" points="464.79 704.63 449.2 711.03 406.01 716.16 404.66 722.92 484.4 736.47 489.77 719.85 465.51 714.58 464.79 704.63"></polygon><path class="cls-2" d="M489.8,719.74l-5.43-1.17-3.3-.69h0l-9.69-2.09-3.15-.67-2.66-.57-.76-9.93.7,10h0v0l2.71.6,3.12.69L481,718l3.28.73,5.3,1.16,0-.1.08.1v0h0l-.1,0L484.75,735l-.44,1.33h.12l-.15.09,0-.1L476.49,735l-31.93-5.47-39.69-6.72,0,.17h0l-.13-.2.18,0,1.27-6.46H406l.14-.13,0,.12,43.07-5.25h0l15.57-6.45L449.19,711,406,716l-.12,0,0,.1-1.36,6.76,0,.19.18,0,39.87,6.79L474.44,735h.22l9.72,1.64h.12l0-.1L485,735l4.86-15.1,0-.12Z"></path><path class="cls-2" d="M771.22,586.17a40.69,40.69,0,0,1-6.87,3.07,65.83,65.83,0,0,1-7.11,2.11A70.72,70.72,0,0,1,750,592.7a41.63,41.63,0,0,1-7.52.36,41.24,41.24,0,0,1,6.87-3.09,71.34,71.34,0,0,1,7.11-2.09,66.1,66.1,0,0,1,7.28-1.33A40.73,40.73,0,0,1,771.22,586.17Z"></path><path class="cls-2" d="M738.81,571.21a35.23,35.23,0,0,1,6.88-1.47,61.51,61.51,0,0,1,6.9-.47,59,59,0,0,1,6.9.31,36.06,36.06,0,0,1,6.92,1.32,36.11,36.11,0,0,1-6.89,1.48,61.15,61.15,0,0,1-13.79.14A35.89,35.89,0,0,1,738.81,571.21Z"></path><polygon class="cls-2" points="751.52 599.05 761.96 607.73 782.76 640.29 789.49 638.81 772.99 563.57 755.61 565.33 762.15 595.16 751.52 599.05"></polygon><path class="cls-2" d="M607.33,353.43c7.68,7.48,15.53,14.73,23.53,21.83,4,3.54,8,7.11,11.94,10.83,2,1.88,3.89,3.81,5.73,5.89a36,36,0,0,1,5,7,17.11,17.11,0,0,1,2.07,9,21.79,21.79,0,0,1-2.48,8.65c-.63,1.3-1.36,2.53-2.07,3.72l-2.1,3.44-4.24,6.85c-2.82,4.56-5.68,9.1-8.67,13.56-1.47,2.24-3,4.45-4.54,6.64l-2.35,3.27L628,455.77c-.53.45-.26,1.44-2.44.8-1.43-1.76-.42-1.88-.21-2.55l1-1.73,2-3.46c1.36-2.29,2.71-4.6,4.11-6.87l8.28-13.72,4-6.9,2-3.47c.61-1.13,1.19-2.24,1.68-3.37,2-4.59,2.35-9,.34-13.23s-5.48-8.36-9-12.25-7.37-7.7-11.05-11.6-7.38-7.79-11-11.78S610.71,357.59,607.33,353.43Z"></path><path class="cls-2" d="M623.83,614.78a27.2,27.2,0,0,0,8.35-1.85,14,14,0,0,0,5.62-4.69,36,36,0,0,0,3.89-7.09c1.14-2.62,2.18-5.38,3.42-8.31a21.07,21.07,0,0,1,.63,9.44,20.38,20.38,0,0,1-3.65,9.16A13.67,13.67,0,0,1,633.3,617,13.32,13.32,0,0,1,623.83,614.78Z"></path><path class="cls-2" d="M506.84,594.85A12.2,12.2,0,0,1,500,597a13.35,13.35,0,0,1-7.27-1.88,12.16,12.16,0,0,1-1.61-1.16c-.48-.46-1-.92-1.41-1.4a11.93,11.93,0,0,1-1.89-3.41,11.1,11.1,0,0,1-.67-3.66,12.31,12.31,0,0,1,.59-3.58c.82,1,1.28,2,1.93,2.84a23.46,23.46,0,0,0,1.84,2.37,19.43,19.43,0,0,0,1.88,2,20.63,20.63,0,0,0,2.12,1.48,26.29,26.29,0,0,0,5.06,2.3C502.48,593.52,504.52,594.12,506.84,594.85Z"></path><path class="cls-2" d="M472.82,374.74a29,29,0,0,0-5.94,6.1,45.45,45.45,0,0,0-4.11,7.29,67.18,67.18,0,0,0-3,7.83,76.73,76.73,0,0,0-2.1,8l-1.27-2.78c3.59,1.92,7.14,3.92,10.68,5.94l-3.92,2a79.55,79.55,0,0,1,1.91-9.36,66.62,66.62,0,0,1,3-9.05,42.09,42.09,0,0,1,2.06-4.35,30.56,30.56,0,0,1,2.58-4.09c1.92-2.55,4.42-5,7.54-5.79-2.65,1.72-4.22,4.35-5.51,7a52.54,52.54,0,0,0-3,8.47c-.79,2.9-1.4,5.87-2,8.84s-1,6-1.34,8.93l-.45,3.91-3.47-1.91c-3.57-2-7.13-3.95-10.64-6l-1.68-1,.41-1.79a57.45,57.45,0,0,1,2.82-8.61,51.63,51.63,0,0,1,4.09-8,21.32,21.32,0,0,1,1.28-1.87,19.85,19.85,0,0,1,1.37-1.8c.49-.58.94-1.18,1.45-1.73l1.62-1.59A21.51,21.51,0,0,1,472.82,374.74Z"></path><path class="cls-2" d="M668.85,229.59a19.71,19.71,0,0,1,.77,6.74,22.92,22.92,0,0,1-1.33,6.69,40.62,40.62,0,0,1-2.83,6,21.67,21.67,0,0,0-2.4,5.87,10.31,10.31,0,0,1-.22-6.89c.6-2.21,1.41-4.19,2.1-6.15s1.31-3.93,1.94-5.95S668,231.75,668.85,229.59Z"></path><path class="cls-2" d="M660.61,227a20.07,20.07,0,0,1,1.55,6.58,23.7,23.7,0,0,1-.44,6.77,40.77,40.77,0,0,1-2,6.28,25.12,25.12,0,0,0-1.61,6.15A10.75,10.75,0,0,1,657,246c.28-2.27.79-4.34,1.21-6.38s.78-4.07,1.15-6.16S660,229.19,660.61,227Z"></path><path class="cls-2" d="M652.36,228.24a20.07,20.07,0,0,1,1.55,6.58,24.06,24.06,0,0,1-.43,6.77,41.91,41.91,0,0,1-2,6.28A25.12,25.12,0,0,0,649.9,254a10.81,10.81,0,0,1-1.12-6.78c.28-2.27.79-4.33,1.21-6.38s.78-4.07,1.15-6.16S651.78,230.47,652.36,228.24Z"></path><path class="cls-2" d="M672.62,252.15c.64,1.8,1.31,3.56,2,5.27a25.81,25.81,0,0,0,2.54,4.72l.26.36-.07.51a13.06,13.06,0,0,1-.69,2.74,15.51,15.51,0,0,1-1.1,2.46,21.08,21.08,0,0,1-3.11,4.32,25.51,25.51,0,0,1-3.93,3.5c-1.38,1.05-3,1.92-4.2,2.71-.66.39-1.22.9-1.84,1.34s-1.14,1-1.64,1.58a21.8,21.8,0,0,0-2.83,3.68,29.66,29.66,0,0,0-3.56,9,20.43,20.43,0,0,1,1.41-10.08,20.07,20.07,0,0,1,6.48-8.31l2.14-1.46c.66-.42,1.31-.85,1.93-1.33a29.14,29.14,0,0,0,3.53-3,22.43,22.43,0,0,0,2.92-3.54,15.82,15.82,0,0,0,1.93-4l.18.86a20.45,20.45,0,0,1-1.86-5.63A29.88,29.88,0,0,1,672.62,252.15Z"></path><path class="cls-2" d="M648.53,273a11.87,11.87,0,0,1,2-6A14.89,14.89,0,0,1,655,262.4a11.86,11.86,0,0,1,6.35-2A7.54,7.54,0,0,1,667.3,263c-4.19-.79-7.31.5-10.33,2.42a34.64,34.64,0,0,0-4.31,3.39C651.27,270.06,650,271.45,648.53,273Z"></path><path class="cls-2" d="M643.83,239.06a25.51,25.51,0,0,1,.2,4.3,18,18,0,0,1-.41,3.88,8.28,8.28,0,0,0-.2,3.71,32,32,0,0,0,.73,3.87c.62,2.63,1.59,5.15,2,8.13a6.44,6.44,0,0,1,.08,1.18,3.4,3.4,0,0,1,0,.69c0,.25-.07.38-.11.58l-.48,2c-.32,1.33-.63,2.65-.91,4a103.72,103.72,0,0,0-1.83,32.4,115.92,115.92,0,0,0,7.92,31.46,148.54,148.54,0,0,0,7,14.71c1.34,2.36,2.64,4.74,4.1,7,.71,1.16,1.42,2.32,2.19,3.44a5.08,5.08,0,0,1,1.22,4.14,5,5,0,0,1-3.43-2.65c-.81-1.13-1.56-2.29-2.3-3.46-1.53-2.32-2.94-4.7-4.31-7.11a130,130,0,0,1-7.15-15A116.46,116.46,0,0,1,640.47,304a112.57,112.57,0,0,1,2-33.11c.28-1.36.59-2.7.91-4l.46-2c0-.14.08-.34.08-.43a1.19,1.19,0,0,0,0-.34,5.35,5.35,0,0,0-.09-.86c-.45-2.46-1.51-5.08-2.27-7.76a36.78,36.78,0,0,1-1-4.17,40.73,40.73,0,0,1-.38-4.5,6.38,6.38,0,0,1,.34-2.18,14.58,14.58,0,0,1,.79-2A12.8,12.8,0,0,1,643.83,239.06Z"></path><path class="cls-2" d="M708,343.93a16.76,16.76,0,0,1-5.09,2.77,25.29,25.29,0,0,1-5.73,1.2,36,36,0,0,1-5.87.05,35.45,35.45,0,0,1-5.87-.88l-.26-.07-.29-.25a64,64,0,0,1-5.67-5.62,60.27,60.27,0,0,1-5-6.24,74.12,74.12,0,0,1-7.77-13.95c-1-2.47-1.91-5-2.7-7.5s-1.39-5.13-1.89-7.73A61.81,61.81,0,0,1,660.74,290a105.81,105.81,0,0,0,3.37,15.2c.74,2.47,1.52,4.92,2.45,7.32s1.88,4.77,3,7.09A91.44,91.44,0,0,0,677,332.91c1.47,2.09,3,4.16,4.59,6.13s3.36,3.86,5.11,5.74l-.55-.32a41.44,41.44,0,0,0,5.36,1.23,36.71,36.71,0,0,0,5.54.52,27.32,27.32,0,0,0,5.56-.43A19,19,0,0,0,708,343.93Z"></path><path class="cls-2" d="M714.66,326.79c-1.54.34-3,.71-4.56,1a38.08,38.08,0,0,1-4.7.78l-1.33.11L704,327c-.19-3.82-.13-7.63.06-11.42s.54-7.56,1-11.33l.62,1.74a8.85,8.85,0,0,0-1.06-1,10.43,10.43,0,0,0-1.31-.84,7.21,7.21,0,0,0-2.93-.82,8.17,8.17,0,0,0-3.31.62,17.79,17.79,0,0,0-3.38,1.83,10.49,10.49,0,0,1,2.42-3.33,8.51,8.51,0,0,1,3.9-2.11,8.77,8.77,0,0,1,4.71.17,10.32,10.32,0,0,1,2.16.92,10.07,10.07,0,0,1,2,1.42l.65.61,0,1.13q-.19,5.68-.84,11.35a111.48,111.48,0,0,1-1.81,11.27l-1.42-1.58c1.43.18,3,.28,4.54.42A35.58,35.58,0,0,1,714.66,326.79Z"></path><path class="cls-2" d="M713.07,304.24a5.18,5.18,0,0,1,2.34-3.26,6.44,6.44,0,0,1,3.93-1,6.25,6.25,0,0,1,3.79,1.55,5.24,5.24,0,0,1,1.84,3.55c-1.5,0-2.54-.12-3.49-.14s-1.69-.08-2.45-.15l-2.49-.21C715.58,304.5,714.53,304.41,713.07,304.24Z"></path><path class="cls-2" d="M707.92,334.93c1.7-.36,3.25-.58,4.71-.93a16.86,16.86,0,0,0,4-1.38,17.51,17.51,0,0,0,3.39-2.47,18.39,18.39,0,0,0,3.07-3.52,7.26,7.26,0,0,1-1.08,5.08,9.6,9.6,0,0,1-9.18,4.8A10.25,10.25,0,0,1,707.92,334.93Z"></path><ellipse class="cls-2" cx="717.9" cy="313.56" rx="5.43" ry="2.28" transform="translate(350.87 1005.65) rotate(-85.66)"></ellipse><ellipse class="cls-2" cx="699.73" cy="314.27" rx="4.4" ry="1.81" transform="translate(311.91 976.07) rotate(-83.82)"></ellipse><path class="cls-2" d="M733.58,320.17a22.4,22.4,0,0,1,4.73-6.91,8.58,8.58,0,0,1,2-1.43,3.89,3.89,0,0,1,1.79-.44,3.17,3.17,0,0,1,1.41.36,3.06,3.06,0,0,1,1.07,1,4.24,4.24,0,0,1,.63,1.78,7,7,0,0,1,.06,1.34c0,.41-.06.79-.11,1.17s-.16.83-.26,1.22a23.74,23.74,0,0,1-4.06,7.51,26.25,26.25,0,0,1-5.84,5.78c1.19-2.45,2.28-4.88,3.35-7.28a41.45,41.45,0,0,0,2.64-7l.12-.74a8,8,0,0,0,0-.82c0-.26,0-.5,0-.67s-.07-.26,0-.1a1.11,1.11,0,0,0,.82.42c.16,0,0,0-.14,0a7.26,7.26,0,0,0-1.39.68c-1,.61-2.13,1.35-3.26,2.06A22.92,22.92,0,0,1,733.58,320.17Z"></path><path class="cls-2" d="M731.59,315.52l-4-21s-5.66-10.75-31.16-.74c0,0-8.52-13.95-11-27.11,0,0,27.75-16.57,47,14.92,0,0,24.11.08,14.27,31.51C746.72,313.1,740.87,297.27,731.59,315.52Z"></path><path class="cls-2" d="M684.43,348.65a21.41,21.41,0,0,1-3.2,5.9,24.51,24.51,0,0,1-4.86,4.79A32.3,32.3,0,0,1,663.81,365h-.28a1.29,1.29,0,0,0,.91-.32,1.34,1.34,0,0,0,.45-1,1.07,1.07,0,0,0,0-.32c0-.06,0-.09,0,0l.3.52.58,1c.38.7.83,1.36,1.24,2s.83,1.34,1.27,2,.89,1.31,1.36,1.94a61.06,61.06,0,0,0,6.1,7.2,41.2,41.2,0,0,0,15.68,10.21l-.25,1.25a25.8,25.8,0,0,1-9.65-3,36.5,36.5,0,0,1-8.22-5.94,46.2,46.2,0,0,1-6.53-7.71c-.48-.69-.93-1.39-1.36-2.12s-.87-1.43-1.26-2.18-.8-1.48-1.14-2.24l-.52-1.14-.27-.57s-.07-.14-.12-.3a2,2,0,0,1-.11-.62,1.64,1.64,0,0,1,1.75-1.66h-.28a32.11,32.11,0,0,0,6.11-1.52,32.66,32.66,0,0,0,5.81-2.71,27,27,0,0,0,5.1-3.95A25,25,0,0,0,684.43,348.65Z"></path><path class="cls-2" d="M708.42,341.21a28.76,28.76,0,0,1,.3,6.55l-.26,3.17a8.55,8.55,0,0,0,.07,2.7,9.41,9.41,0,0,0,.93,2.45,19.27,19.27,0,0,0,1.48,2.44,7.62,7.62,0,0,0,4.19,2.93,11.66,11.66,0,0,0,5.56-.09,29.08,29.08,0,0,0,5.73-2,73.37,73.37,0,0,0,10.86-6.5,42.86,42.86,0,0,1-9.78,8.49,27.11,27.11,0,0,1-6,2.86,14.11,14.11,0,0,1-7.08.51,10.64,10.64,0,0,1-6.23-4,18.26,18.26,0,0,1-1.85-3,10.38,10.38,0,0,1-1.12-3.57c-.21-2.72.67-4.76,1.24-6.77S707.67,343.29,708.42,341.21Z"></path><path class="cls-2" d="M742.17,342.83A70.21,70.21,0,0,1,759.8,344a51.54,51.54,0,0,1,8.61,2.49c.71.26,1.39.56,2.09.85a21,21,0,0,1,2.1,1.11,22.3,22.3,0,0,1,3.74,2.86,29.81,29.81,0,0,1,5.58,7.36,48,48,0,0,1,3.63,8.3A72.66,72.66,0,0,1,789,384.51l.05.66-.38.43a17,17,0,0,1-3.44,2.91,25.78,25.78,0,0,1-3.79,2.06,28.17,28.17,0,0,1-8.19,2.19,38.43,38.43,0,0,1-16.37-1.83,46.4,46.4,0,0,0,16-.17,29.26,29.26,0,0,0,7.38-2.59,22.19,22.19,0,0,0,3.25-2,17.08,17.08,0,0,0,2.69-2.47l-.34,1.08a80.28,80.28,0,0,0-1.44-8.43,72.2,72.2,0,0,0-2.28-8.24c-1.82-5.36-4.35-10.53-8.13-14.48A19.05,19.05,0,0,0,771,351c-.54-.41-1.16-.67-1.73-1s-1.27-.64-1.92-.93a60.26,60.26,0,0,0-8-3A109.08,109.08,0,0,0,742.17,342.83Z"></path><path class="cls-2" d="M695.47,364.61A71.6,71.6,0,0,0,693,378.3c-.49,4.61-.74,9.26-1,13.89-.47,9.29-.75,18.59-1,27.89s-.55,18.63-1.1,28-1.15,18.66-3,28l-1.21-2c7.38,2.06,15,3.84,22.54,5.3a227.74,227.74,0,0,0,22.94,3.26,119.66,119.66,0,0,0,23.1,0,55.68,55.68,0,0,0,11.29-2.35,31.91,31.91,0,0,0,10.23-5.35,30,30,0,0,1-9.95,6.12,57.24,57.24,0,0,1-11.36,3.05,109.2,109.2,0,0,1-23.48,1,202.68,202.68,0,0,1-23.33-2.69c-7.72-1.35-15.35-2.94-22.95-5.06l-1.51-.42.3-1.58c.85-4.48,1.38-9.07,1.8-13.67s.78-9.23,1.07-13.87L687.91,420c.56-9.3,1.14-18.62,2.1-27.91q.71-7,1.88-13.89A61.31,61.31,0,0,1,695.47,364.61Z"></path><path class="cls-2" d="M822.26,226a3,3,0,0,1,1.35,1.26,15.89,15.89,0,0,1,.5,1.52,24,24,0,0,1,.63,3.12,25.12,25.12,0,0,1,0,6.19c-.25,2-.56,4-.91,5.95s-.67,3.89-.85,6A16.59,16.59,0,0,1,821.4,244a56.84,56.84,0,0,1-.18-6.09c0-2,.12-3.93.26-5.86.06-1,.12-1.92.14-2.89S821.37,227.27,822.26,226Z"></path><path class="cls-2" d="M831.17,232.44a2.29,2.29,0,0,1,.77,1.22c.07.42.06.84.09,1.26a21,21,0,0,1-.11,2.51,20.35,20.35,0,0,1-1.2,4.74c-.56,1.5-1.17,3-1.81,4.4s-1.24,2.86-1.77,4.42a13.4,13.4,0,0,1,0-4.93c.23-1.62.63-3.17,1-4.7s.84-3,1.31-4.46c.23-.72.46-1.45.66-2.19A3.48,3.48,0,0,1,831.17,232.44Z"></path><path class="cls-2" d="M814.39,226.17c1.48.33,2,1.62,2.33,2.64a17.87,17.87,0,0,1,.92,3.26,25.94,25.94,0,0,1,.42,6.49q-.16,3.21-.56,6.34c-.23,2.1-.54,4.15-.72,6.33a20.32,20.32,0,0,1-1.7-6.31c-.31-2.14-.41-4.26-.52-6.36s-.1-4.15,0-6.18a29.93,29.93,0,0,0-.08-3l-.08-.73c0-.23-.1-.46-.12-.71A5.8,5.8,0,0,1,814.39,226.17Z"></path><path class="cls-2" d="M831.33,245.84c.86,1.7,1.7,3.36,2.64,4.94l.71,1.17c.24.4.48.7.77,1.21a7.37,7.37,0,0,1,1,3.13,7.63,7.63,0,0,1-.42,3.34,19.37,19.37,0,0,1-1.26,2.78,22.26,22.26,0,0,1-3.6,4.79,19.75,19.75,0,0,1-2.19,2c-.76.63-1.59,1.21-2.2,1.7a12.1,12.1,0,0,0-3.16,3.72c-1.55,2.87-1.67,6.61-.7,10.27A11.94,11.94,0,0,1,821,273.48a13.12,13.12,0,0,1,3.56-5.13c.82-.71,1.52-1.22,2.18-1.8s1.31-1.18,1.93-1.78a25.13,25.13,0,0,0,3.29-4,18.36,18.36,0,0,0,1.26-2.23,5.84,5.84,0,0,0,.55-2.15,6.37,6.37,0,0,0-.32-2.27c-.11-.33-.35-.84-.52-1.28s-.34-.91-.48-1.37A27.1,27.1,0,0,1,831.33,245.84Z"></path><path class="cls-2" d="M813.57,265.53a7.67,7.67,0,0,1,.82-4.07,9.73,9.73,0,0,1,2.61-3.35,7.6,7.6,0,0,1,4-1.75,4.83,4.83,0,0,1,4,1.32,8.91,8.91,0,0,0-6.5,2.35,23.82,23.82,0,0,0-2.56,2.48C815.18,263.43,814.41,264.41,813.57,265.53Z"></path><path class="cls-2" d="M856.87,370.72a24.19,24.19,0,0,1-7.13-4L843.13,362c-4.39-3.18-8.72-6.5-12.88-10a84.1,84.1,0,0,1-11.6-11.8,37.37,37.37,0,0,1-2.41-3.5,26.38,26.38,0,0,1-1.86-3.91,47.91,47.91,0,0,1-2.21-8.09c-1.07-5.41-1.63-10.82-2.28-16.2L808,292.29c-.32-2.69-.7-5.36-1.09-8l-.6-4c-.17-1.6-.17-2.83-.22-4.23-.15-5.43-.23-10.84-.3-16.26v-.21l.07-.23a43.09,43.09,0,0,0,1.27-6.22,45.42,45.42,0,0,0,.41-6.37,32,32,0,0,0-2.41-12.3l2.79-1.18a35.7,35.7,0,0,1,2.48,13.45,49.39,49.39,0,0,1-.44,6.78,47.1,47.1,0,0,1-1.39,6.69l.06-.44c.07,5.4.14,10.82.28,16.21,0,1.3.08,2.79.18,3.88l.61,4,1.13,8.06L812.93,308c.69,5.35,1.38,10.72,2.45,15.92a46.11,46.11,0,0,0,2.08,7.55,25.05,25.05,0,0,0,3.81,6.6,82,82,0,0,0,11.12,11.33c4,3.52,8.26,6.86,12.48,10.22l6.37,5A19.1,19.1,0,0,1,856.87,370.72Z"></path><path class="cls-2" d="M942.46,225.67c.87,2,1.4,3.89,2,5.74s1.25,3.65,2,5.44,1.47,3.59,2,5.64a9.27,9.27,0,0,1-.1,6.4,21.43,21.43,0,0,0-2.42-5.35,34.61,34.61,0,0,1-2.8-5.43,20.63,20.63,0,0,1-1.36-6.18A17.68,17.68,0,0,1,942.46,225.67Z"></path><path class="cls-2" d="M950,223c.63,2.05.94,4,1.36,5.94s.78,3.78,1.23,5.65,1,3.77,1.24,5.87a9.7,9.7,0,0,1-.94,6.31,25.18,25.18,0,0,0-1.7-5.63,35,35,0,0,1-2-5.75,21.34,21.34,0,0,1-.54-6.27A18,18,0,0,1,950,223Z"></path><path class="cls-2" d="M957.67,224c.64,2.05,1,4,1.37,5.93s.78,3.79,1.23,5.66a58.26,58.26,0,0,1,1.23,5.87,9.7,9.7,0,0,1-.93,6.31,25.18,25.18,0,0,0-1.71-5.63,34.11,34.11,0,0,1-2-5.75,21.72,21.72,0,0,1-.55-6.27A18,18,0,0,1,957.67,224Z"></path><path class="cls-2" d="M939.52,246.62a27.06,27.06,0,0,1-.31,5.31,18.71,18.71,0,0,1-1.57,5.29l.16-.86a15.44,15.44,0,0,0,1.88,3.58,22,22,0,0,0,2.78,3.18,24.7,24.7,0,0,0,3.32,2.69c1.17.88,2.37,1.49,3.82,2.48a18.45,18.45,0,0,1,7.69,16.89,27.64,27.64,0,0,0-3.56-8.2,20.19,20.19,0,0,0-2.71-3.3c-.48-.52-1-.95-1.56-1.42s-1.11-.84-1.72-1.18c-1.09-.71-2.64-1.48-4-2.41a24.79,24.79,0,0,1-3.73-3.15,19.22,19.22,0,0,1-3-3.94,16.18,16.18,0,0,1-1.08-2.26,12.5,12.5,0,0,1-.69-2.54l-.08-.5.24-.35a24.34,24.34,0,0,0,2.26-4.41C938.36,249.93,939,248.29,939.52,246.62Z"></path><path class="cls-2" d="M962.29,265.34c-1.39-1.4-2.66-2.64-4-3.77a31.19,31.19,0,0,0-4.06-3c-2.83-1.69-5.66-2.83-9.55-2.08a6.83,6.83,0,0,1,5.41-2.61,10.8,10.8,0,0,1,6,1.71,13.91,13.91,0,0,1,4.31,4.19A11,11,0,0,1,962.29,265.34Z"></path><path class="cls-2" d="M870,325c2.84,3.14,5.77,6.24,9.28,8.11a11.56,11.56,0,0,0,11,.07c3.56-1.66,6.73-4.41,9.86-7.15a116.67,116.67,0,0,1,9.69-8.22c-2.67,3.31-5.25,6.64-8.16,9.78a35.1,35.1,0,0,1-10.21,8.13,14.32,14.32,0,0,1-6.74,1.45,13,13,0,0,1-6.52-2.19A25.1,25.1,0,0,1,870,325Z"></path><path class="cls-2" d="M884.4,320.29a14,14,0,0,1-4.84.54,8.49,8.49,0,0,1-2.55-.56,4,4,0,0,1-2.22-2.06l-.12-.29.28-.73c.74-1.94,1.54-3.55,2.27-5.21l1.11-2.56c.39-.89.77-1.82,1.31-2.89a6.93,6.93,0,0,1,1.13,3.22,9,9,0,0,1-.34,3.38,10.32,10.32,0,0,1-3.79,5.36l.15-1a2.17,2.17,0,0,0,1,1.26,7.06,7.06,0,0,0,2,.87A19,19,0,0,0,884.4,320.29Z"></path><path class="cls-2" d="M876.82,324.37a8.74,8.74,0,0,0,4.15,1,19,19,0,0,0,3.94-.48,41.28,41.28,0,0,0,4-1.09A16.41,16.41,0,0,0,893,322a6.38,6.38,0,0,1-2.74,4.22,11.42,11.42,0,0,1-4.61,2.11,9.76,9.76,0,0,1-5.21-.25A5.37,5.37,0,0,1,876.82,324.37Z"></path><ellipse class="cls-2" cx="892.13" cy="308.57" rx="5.46" ry="2.45" transform="translate(518.69 1175.55) rotate(-85.78)"></ellipse><ellipse class="cls-2" cx="872.24" cy="307.6" rx="5.31" ry="2.38" transform="translate(530.67 1167.1) rotate(-87.75)"></ellipse><path class="cls-2" d="M894.45,261.2a34.05,34.05,0,0,1,5.7,1.2c8.69,2.62,14.14,7.48,16.63,14.57a18.24,18.24,0,0,0,2.63-3c6.55-9.23,3.44-16.19-3.47-20.41s-16.06-2.4-20.52,5.75C895.07,260,894.74,260.59,894.45,261.2Z"></path><path class="cls-2" d="M905.57,307.23c2.54-1.92,3.66-4.59,5.53-7.2a20.63,20.63,0,0,1,3.22-3.68,10.56,10.56,0,0,1,1-.8,9.06,9.06,0,0,1,1.16-.8,4.15,4.15,0,0,1,1.86-.52,3.64,3.64,0,0,1,2.1.61,5.33,5.33,0,0,1,1.91,2.78,9.57,9.57,0,0,1,.42,2.75,11.26,11.26,0,0,1-1.15,5.09,8.67,8.67,0,0,1-3.44,3.85,7.07,7.07,0,0,1-4.79.85,8.55,8.55,0,0,0,3.76-2.22,8.21,8.21,0,0,0,1.94-3.49,11.21,11.21,0,0,0,.36-3.94,6.84,6.84,0,0,0-.37-1.78,2.1,2.1,0,0,0-.6-1l-.07,0a1.16,1.16,0,0,0-.34.11,6.51,6.51,0,0,0-.75.47c-.3.19-.57.41-.86.62a33,33,0,0,0-3.24,2.87c-1,1.07-2.12,2.21-3.34,3.27A9.42,9.42,0,0,1,905.57,307.23Z"></path><path class="cls-2" d="M872.48,292.89a10.83,10.83,0,0,1-4.1-.82,8.11,8.11,0,0,1-1.92-1.23,9.61,9.61,0,0,1-1.46-1.76,33.72,33.72,0,0,1-1.93-3.6l-.42-.87c-.1-.21-.21-.31-.15-.25a.83.83,0,0,0,.31.17.9.9,0,0,0,.47,0c.17-.06.06,0,0,.09a9.33,9.33,0,0,0-1.47,2.8,20.48,20.48,0,0,0-.92,3.48,12.3,12.3,0,0,0-.1,3.58,5.59,5.59,0,0,0,1.57,3.33,5.12,5.12,0,0,1-3.16-2.8,10.69,10.69,0,0,1-1-4.24,14.52,14.52,0,0,1,.46-4.3,10.05,10.05,0,0,1,2.06-4.23,3.68,3.68,0,0,1,1.55-1,2.69,2.69,0,0,1,2.61.61,4.07,4.07,0,0,1,.93,1.39l.38.95,1.31,3.62a7.05,7.05,0,0,0,1.87,2.81A24.24,24.24,0,0,0,872.48,292.89Z"></path><path class="cls-2" d="M909.67,304s-7-13.62-5.31-19.93c0,0-14.89,17.06-41.66,8.65-.3-6.42,3.8-33.47,34.85-28.7,18.15,2.78,23.4,10.91,18.6,33.12-.28,1.28-6.12,5.86-6.48,6.86Z"></path><path class="cls-2" d="M898.33,301a30,30,0,0,1-3.41.43c-1,.06-2.06.09-3.07.05a27.6,27.6,0,0,1-3.09-.26,15,15,0,0,1-3.39-.85A8.87,8.87,0,0,1,892,298a10,10,0,0,1,3.47.76A6.41,6.41,0,0,1,898.33,301Z"></path><path class="cls-2" d="M879.1,300.06a29.8,29.8,0,0,1-3.4.43c-1.05.06-2.06.08-3.08,0a25.54,25.54,0,0,1-3.09-.25,15.2,15.2,0,0,1-3.39-.86,8.91,8.91,0,0,1,6.6-2.38,10.13,10.13,0,0,1,3.46.75A6.5,6.5,0,0,1,879.1,300.06Z"></path><path class="cls-2" d="M362.22,247.21c.75,2.18,1.17,4.29,1.74,6.34s1.09,4,1.73,6,1.36,4,1.88,6.22a10.29,10.29,0,0,1-.46,6.88,21.9,21.9,0,0,0-2.19-6,40.22,40.22,0,0,1-2.62-6.06,22.69,22.69,0,0,1-1.09-6.74A19.37,19.37,0,0,1,362.22,247.21Z"></path><path class="cls-2" d="M370.54,244.87c.5,2.25.69,4.39,1,6.5s.58,4.15.94,6.2.78,4.14,1,6.41a10.69,10.69,0,0,1-1.36,6.74,24.64,24.64,0,0,0-1.39-6.2,40.71,40.71,0,0,1-1.74-6.35,24.07,24.07,0,0,1-.2-6.78A20.14,20.14,0,0,1,370.54,244.87Z"></path><path class="cls-2" d="M378.74,246.44c.5,2.25.69,4.39,1,6.5s.58,4.15.94,6.2.78,4.14,1,6.41a10.83,10.83,0,0,1-1.36,6.74,25.08,25.08,0,0,0-1.4-6.2,41.84,41.84,0,0,1-1.73-6.35A23.7,23.7,0,0,1,377,253,20.14,20.14,0,0,1,378.74,246.44Z"></path><path class="cls-2" d="M363.21,272.91a21.94,21.94,0,0,1-.41,4.49,15.36,15.36,0,0,1-1.53,4.43l.21-.86a13.67,13.67,0,0,0,1.42,3,18.13,18.13,0,0,0,2.15,2.74,22.94,22.94,0,0,0,2.62,2.39c.93.77,1.87,1.33,3.06,2.28a15.44,15.44,0,0,1,4.82,6.83,15.11,15.11,0,0,1,.59,8,24.72,24.72,0,0,0-2.77-7,16.59,16.59,0,0,0-2.12-2.83,15.74,15.74,0,0,0-1.22-1.23c-.46-.35-.88-.74-1.37-1.05-.85-.61-2.15-1.35-3.2-2.21a19.5,19.5,0,0,1-3-2.88,16.65,16.65,0,0,1-2.31-3.53,11.93,11.93,0,0,1-1.22-4.22l-.06-.54.27-.33a20.52,20.52,0,0,0,2.18-3.49C362,275.6,362.58,274.27,363.21,272.91Z"></path><path class="cls-2" d="M386.52,259.83a13.36,13.36,0,0,1,3.49,7.62c0,.37,0,.72,0,1.1s-.09.75-.09,1.12a15.14,15.14,0,0,1-.27,2.17,31.73,31.73,0,0,1-1.06,4.06c-.85,2.59-2,5.06-2.66,7.45a9.45,9.45,0,0,0-.34,1.68l0,.29.09.45.19,1,.81,3.91A99.47,99.47,0,0,1,388,322.69a86.64,86.64,0,0,1-9.82,30.46,93.57,93.57,0,0,1-8.86,13.34,110.22,110.22,0,0,1-10.94,11.61A128.68,128.68,0,0,0,368.7,366,99.22,99.22,0,0,0,377,352.51a88.12,88.12,0,0,0,9-30.07,99.1,99.1,0,0,0-1.56-31.34l-.83-3.88-.21-1-.1-.53c0-.21-.05-.47-.07-.7a12,12,0,0,1,.27-2.25c.62-2.76,1.54-5.22,2.19-7.73a26.23,26.23,0,0,0,.77-3.68,13.89,13.89,0,0,0,.14-1.79v-.44a3.25,3.25,0,0,1-.08-.43c0-.29-.08-.59-.12-.89A31.17,31.17,0,0,1,386.52,259.83Z"></path><path class="cls-2" d="M215.83,269.77a44.45,44.45,0,0,1,1.54,7.72c0,2.4,1,4.66,2.18,7s2.53,4.52,3.71,7a11.1,11.1,0,0,1,.74,2.06,8.19,8.19,0,0,1,.06,2.29l-.29,3.94a94.28,94.28,0,0,0,2.68,31,79.19,79.19,0,0,0,13.61,28,90,90,0,0,0,10.59,11.59A116.74,116.74,0,0,0,263.1,380a103.57,103.57,0,0,1-12.9-9.16,85.61,85.61,0,0,1-11.06-11.38,78.21,78.21,0,0,1-14.42-28.22,94.51,94.51,0,0,1-3-31.63l.26-3.94a5.76,5.76,0,0,0,0-1.64,9.22,9.22,0,0,0-.7-1.62c-1.18-2.2-2.75-4.38-4.07-6.73a29.65,29.65,0,0,1-1.81-3.71,16.79,16.79,0,0,1-.67-2,16.18,16.18,0,0,1-.51-2.11A14.91,14.91,0,0,1,215.83,269.77Z"></path><path class="cls-2" d="M316.9,354.58a26.37,26.37,0,0,0,12.85,2.82,41,41,0,0,0,6.55-.63,44.12,44.12,0,0,0,6.31-1.59l-.16.07,3.59-2c1.16-.73,2.35-1.41,3.47-2.18s2.27-1.53,3.31-2.41S355,347,356,346a44.68,44.68,0,0,0,10-12.54,37.38,37.38,0,0,0,3.11-7.44,43.65,43.65,0,0,0,1.67-8,51.13,51.13,0,0,0-.74-16.52,40,40,0,0,1,3.09,16.68,43.22,43.22,0,0,1-1.12,8.6,40.8,40.8,0,0,1-3,8.19,43.16,43.16,0,0,1-10.77,13.61,50.27,50.27,0,0,1-7,5.07c-1.23.76-2.5,1.42-3.75,2.13l-3.87,1.83-.1.05-.06,0A38.5,38.5,0,0,1,336.6,359a38.9,38.9,0,0,1-6.91.08,28.66,28.66,0,0,1-6.76-1.36A20.9,20.9,0,0,1,316.9,354.58Z"></path><path class="cls-2" d="M348.48,357.94a35,35,0,0,0,2.78,7.28,16.64,16.64,0,0,0,4.78,5.64,13.88,13.88,0,0,0,8.38,2.57h.34a1.62,1.62,0,0,1,.46.11,1.76,1.76,0,0,1,1.14,1.49,1.79,1.79,0,0,1-.83,1.68l-.26.16-.9.53-3.45,1.89a42.37,42.37,0,0,0-6.25,4.15,27.57,27.57,0,0,0-5,5.41c-2.88,4-4.49,9-5.69,14.17a26.68,26.68,0,0,1,3.11-15.79c2.73-4.92,7.38-8.61,12.21-11,1.19-.63,2.42-1.15,3.57-1.7l.84-.41.17-.09a1.34,1.34,0,0,0-.62,1.27,1.32,1.32,0,0,0,.85,1.11,1.25,1.25,0,0,0,.35.08h0a14.12,14.12,0,0,1-2.17-.19,15.3,15.3,0,0,1-7.7-3.65,17,17,0,0,1-4.56-6.88A26.15,26.15,0,0,1,348.48,357.94Z"></path><path class="cls-2" d="M326.58,375.29a42.8,42.8,0,0,0,3.25,9.48,41.14,41.14,0,0,0,5.62,8.16c2.12,2.54,4.61,5.1,5.94,8.63a17.47,17.47,0,0,1,.72,2.69c.15.92.14,1.84.2,2.77a23.41,23.41,0,0,1-.79,5.32,39.41,39.41,0,0,1-1.61,5c-.56,1.65-1.19,3.06-1.63,4.67a63.28,63.28,0,0,0-2.22,9.59,104.92,104.92,0,0,0-1.18,19.78l0,.55-.24.41a30.28,30.28,0,0,1-8.67,9.47,25.08,25.08,0,0,1-12.1,4.16,34.42,34.42,0,0,1-12.44-1.48,44.49,44.49,0,0,1-11.23-5.08,52.1,52.1,0,0,0,11.56,3.77,36.46,36.46,0,0,0,11.86.46,22.84,22.84,0,0,0,10.62-4.28,27.21,27.21,0,0,0,7.47-8.71l-.23,1a96,96,0,0,1,0-10.32A86.11,86.11,0,0,1,332.59,431,65.48,65.48,0,0,1,335,421c.48-1.65,1.28-3.31,1.85-4.84a37.79,37.79,0,0,0,1.63-4.57c.89-3.07,1.33-6.24.36-9.12s-3-5.5-5-8.25a36.93,36.93,0,0,1-5.06-8.95A35.47,35.47,0,0,1,326.58,375.29Z"></path><path class="cls-2" d="M329.7,317.69s-.05.08-.11.2l.11-1.23Z"></path><path class="cls-2" d="M319.23,286.15c-11.32-.5-10.73-12.81-27.34-8.46S281.54,294,275,299c-8.1,6.12-12.4,16.46-5.67,25.65s8.58,6.35,3.5,13.67a15.58,15.58,0,0,0-2.5,12.92,8.85,8.85,0,0,0,.41,1.27,28.46,28.46,0,0,0,10.18,4.66s0,0,0,0a29.67,29.67,0,0,0,5,.56h.4c2.46.08,5.25,0,8.65-.15l1.62,0,.42-10.87.08-1.83-7.28-7.92.09-.64h0a78.72,78.72,0,0,0,.59-10.1,115.88,115.88,0,0,0-3.1-26.18s17.13,15.63,31.74,5.5c0,0-.44,5.22,5.38,8a15.23,15.23,0,0,0,1.71.68l2.62-.82.77,1v2.29l.29-3.14s.15-.59.34-1.59C331.44,306.2,334.1,286.8,319.23,286.15ZM283.1,315.92c-2,2.35-2,6.3-1.72,8.72-.4-.52-.8-1.08-1.23-1.7C275,315.35,279.46,313.38,283.1,315.92Z"></path><path class="cls-2" d="M335.85,358s-7.35-1-18.86-1.43L314,345c2.12-2.45,4-4.19,5.56-8.23a98.14,98.14,0,0,0,3.34-9.82s2.68-1,2.86-1.78,3.19-6.19,3.81-7.31l-.33,3.69s1.8,11.39-2.45,21.79C321.78,355.64,333.16,342.84,335.85,358Z"></path><path class="cls-2" d="M304.78,331.74c1.47-.59,2.87-1.27,4.31-1.87a34.92,34.92,0,0,1,4.52-1.67l-.65,2.23a13.42,13.42,0,0,1-2.85-2.88,16.78,16.78,0,0,1-1.91-3.5,21.08,21.08,0,0,1-1.07-3.78,19.3,19.3,0,0,1-.34-3.93V316l.06-.16a11.16,11.16,0,0,1,2.45-4.12,6.79,6.79,0,0,1,2.1-1.52,4.91,4.91,0,0,1,2.66-.42,7.08,7.08,0,0,1,4.11,2.23,15,15,0,0,1,2.5,3.43,28.46,28.46,0,0,0-3.35-2.33,6.08,6.08,0,0,0-3.34-1,3.32,3.32,0,0,0-2.37,1.56,10,10,0,0,0-1.41,3.09l.07-.51c.13,1,.31,2.19.54,3.27s.52,2.18.86,3.23a22.87,22.87,0,0,0,1.23,3,17,17,0,0,0,1.77,2.7l1.77,2.09-2.41.14c-1.43.08-3,.41-4.53.6A29.8,29.8,0,0,1,304.78,331.74Z"></path><path class="cls-2" d="M304.79,314.08a30.76,30.76,0,0,0-3.55-.45,14.18,14.18,0,0,0-3.07.08,17.58,17.58,0,0,0-3,.7c-.54.13-1.06.37-1.64.53a14.39,14.39,0,0,1-1.82.6,7.9,7.9,0,0,1,.92-1.78,8.17,8.17,0,0,1,1.39-1.43,7.65,7.65,0,0,1,3.79-1.62,7.44,7.44,0,0,1,4.1.63A6,6,0,0,1,304.79,314.08Z"></path><path class="cls-2" d="M316,335.7a8.43,8.43,0,0,1-7.66,3.61A9,9,0,0,1,304,338a5.29,5.29,0,0,1-2.61-3.55,11.67,11.67,0,0,0,3.55,1.37,22.11,22.11,0,0,0,3.5.47,23.62,23.62,0,0,0,3.56-.06C313.25,336.14,314.5,335.92,316,335.7Z"></path><path class="cls-2" d="M323.36,323A55.67,55.67,0,0,1,320,337.35a31.34,31.34,0,0,1-3.45,6.74,16.18,16.18,0,0,1-5.87,5.36,10.74,10.74,0,0,1-8.19.39,18.3,18.3,0,0,1-6.55-4.2,36.51,36.51,0,0,1-8.28-12.27,60.66,60.66,0,0,0,9.82,10.49c3.58,2.9,8.15,4.81,11.89,2.86a13.7,13.7,0,0,0,4.86-4.31,35.64,35.64,0,0,0,3.61-6C320,332.14,321.63,327.57,323.36,323Z"></path><ellipse class="cls-2" cx="300.2" cy="321.71" rx="2.2" ry="4.31" transform="translate(-36.83 38.82) rotate(-6.97)"></ellipse><ellipse class="cls-2" cx="316.23" cy="320.92" rx="2.2" ry="4.31" transform="translate(-36.62 40.76) rotate(-6.97)"></ellipse><path class="cls-2" d="M322.69,317.67a5.7,5.7,0,0,1,1.16-3.3,6.78,6.78,0,0,1,3-2.36,5.19,5.19,0,0,1,2.38-.33,4.22,4.22,0,0,1,2.82,1.53,5,5,0,0,1,1,2.81,7.73,7.73,0,0,1-.19,2.23,12.75,12.75,0,0,1-1.38,3.43,11.37,11.37,0,0,1-2.22,2.76,8.93,8.93,0,0,1-6.43,2.54c1.18-2.09,2.09-3.72,2.88-5.36.39-.8.77-1.58,1.11-2.37a19.67,19.67,0,0,0,.9-2.27c.25-.68.12-1.15.35-.88.15.1.37.08.27,0a1.12,1.12,0,0,0-.67-.22A8.19,8.19,0,0,0,322.69,317.67Z"></path><path class="cls-2" d="M297.19,344.83c.37,2.78.57,5.56.74,8.35.05.7.09,1.39.11,2.09a5.57,5.57,0,0,0,.07.86,4.66,4.66,0,0,0,.2.75,19.09,19.09,0,0,0,1.66,3.28c1.33,2.21,2.92,4.37,4.52,6.51s3.3,4.29,5,6.33l-4.07-.05a49.11,49.11,0,0,0,3.13-4.19c1-1.48,1.92-3,2.79-4.55a53.17,53.17,0,0,0,2.36-4.79,43.5,43.5,0,0,0,1.83-5.06l0,.63c-.32-1.64-.58-3.3-.86-4.95s-.5-3.33-.66-5c.8,1.5,1.51,3,2.22,4.55s1.37,3.06,2,4.6l.08.19,0,.43a31.46,31.46,0,0,1-.84,5.87,35.62,35.62,0,0,1-1.87,5.62,42,42,0,0,1-6.16,10.19l-2,2.45-2-2.51a76.8,76.8,0,0,1-5-6.85,48.27,48.27,0,0,1-4.07-7.59,17.3,17.3,0,0,1-1.21-4.45,7.86,7.86,0,0,1-.05-1.3c0-.46.12-.9.16-1.2.1-.68.21-1.36.34-2C296,350.27,296.51,347.55,297.19,344.83Z"></path><path class="cls-2" d="M296.68,357.53a61,61,0,0,1-23-2,37.22,37.22,0,0,1-5.55-1.94l-2.7-1.2-1.35-.61-1.27-.74a52.91,52.91,0,0,1-9.62-6.86A45.9,45.9,0,0,1,249,340a40.56,40.56,0,0,1-3.65-4.65l-1.65-2.46c-.54-.82-.95-1.72-1.44-2.57l-1.39-2.6L239.77,325a52.32,52.32,0,0,1-3.9-22.78,70.64,70.64,0,0,0,6.44,21.65,58.53,58.53,0,0,0,13.24,17.72,57,57,0,0,0,19,11.36A88.41,88.41,0,0,0,296.68,357.53Z"></path><path class="cls-2" d="M273.76,445.3a81.91,81.91,0,0,0-1-33.56,101.93,101.93,0,0,0-13-30.77L257.84,378l3.36.73a8.4,8.4,0,0,0,5.84-.85,8.56,8.56,0,0,0,3.67-5,22.47,22.47,0,0,0,1.05-6.74,61.44,61.44,0,0,0-.31-7,44.19,44.19,0,0,1,1.31,7,22.81,22.81,0,0,1-.34,7.26,10.51,10.51,0,0,1-4.1,6.46,9.63,9.63,0,0,1-3.7,1.54,11.62,11.62,0,0,1-4,.07L262,379.3a64.52,64.52,0,0,1,4.79,7.34,77.63,77.63,0,0,1,3.91,7.79A81.51,81.51,0,0,1,276,411a76.23,76.23,0,0,1,1.2,8.65,66.79,66.79,0,0,1,.07,8.72A57.05,57.05,0,0,1,273.76,445.3Z"></path><path class="cls-2" d="M246.06,275.09a9.09,9.09,0,0,1,.53,6.43,15,15,0,0,1-3.15,5.73,44.53,44.53,0,0,1-4.37,4.33c-1.42,1.38-2.85,2.56-3.5,4.61a5,5,0,0,1,.16-3.27,12.83,12.83,0,0,1,1.55-2.88c1.23-1.74,2.59-3.25,3.84-4.74a25.5,25.5,0,0,0,3.27-4.61A16.76,16.76,0,0,0,246.06,275.09Z"></path><path class="cls-2" d="M221.17,257.29a18.74,18.74,0,0,1,2.08,5,34.5,34.5,0,0,1,1,5.19,37,37,0,0,1,.26,5.27,23.52,23.52,0,0,1-.67,5.34,27,27,0,0,1-1.69-5.1,45.49,45.49,0,0,1-.9-5.15A44.59,44.59,0,0,1,221.17,257.29Z"></path><path class="cls-2" d="M226.71,252a19.49,19.49,0,0,1,2.08,5,35.5,35.5,0,0,1,1,5.19,36.93,36.93,0,0,1,.27,5.26,23.47,23.47,0,0,1-.68,5.34,26.65,26.65,0,0,1-1.69-5.09,45.88,45.88,0,0,1-.9-5.15A44.16,44.16,0,0,1,226.71,252Z"></path><path class="cls-2" d="M237,254.11a19,19,0,0,1,.8,5.35,34.28,34.28,0,0,1-.28,5.27,36.8,36.8,0,0,1-1,5.18,24,24,0,0,1-2,5,26.47,26.47,0,0,1-.39-5.35,47.49,47.49,0,0,1,.38-5.22A44.69,44.69,0,0,1,237,254.11Z"></path><path class="cls-2" d="M166.28,225.52c1,2,1.66,3.89,2.47,5.74s1.58,3.66,2.46,5.43,1.85,3.56,2.64,5.59a9.79,9.79,0,0,1,.59,6.5,21,21,0,0,0-2.83-5.33,39.4,39.4,0,0,1-3.31-5.33,22.11,22.11,0,0,1-2-6.17A19,19,0,0,1,166.28,225.52Z"></path><path class="cls-2" d="M173.78,222.16c.76,2.05,1.21,4,1.78,6s1.11,3.83,1.74,5.72,1.33,3.78,1.82,5.89a10.19,10.19,0,0,1-.27,6.5,23.66,23.66,0,0,0-2.11-5.66,39.69,39.69,0,0,1-2.52-5.72,22.92,22.92,0,0,1-1.14-6.34A19.65,19.65,0,0,1,173.78,222.16Z"></path><path class="cls-2" d="M181.71,222.49c.76,2,1.21,4,1.78,6s1.11,3.84,1.73,5.72,1.33,3.78,1.83,5.89a10.25,10.25,0,0,1-.27,6.5,24.1,24.1,0,0,0-2.11-5.66,38.17,38.17,0,0,1-2.52-5.72,22.86,22.86,0,0,1-1.14-6.34A19.65,19.65,0,0,1,181.71,222.49Z"></path><path class="cls-2" d="M165.13,247.24a28.34,28.34,0,0,1,.06,5.45A19.41,19.41,0,0,1,164,258.2l.08-.8a15.28,15.28,0,0,0,2.24,3.56,22.1,22.1,0,0,0,3.14,3.05,25.66,25.66,0,0,0,3.67,2.48c1.28.8,2.58,1.33,4.14,2.2a19,19,0,0,1,7,7.12,19.5,19.5,0,0,1,2.45,9.34,27.73,27.73,0,0,0-4.28-8.14,21.11,21.11,0,0,0-3.06-3.2c-.54-.49-1.15-.89-1.73-1.32s-1.22-.78-1.88-1.08c-1.2-.65-2.83-1.29-4.25-2.12a25.5,25.5,0,0,1-4.08-2.88,19.42,19.42,0,0,1-3.39-3.73,14.26,14.26,0,0,1-2.24-4.69l-.12-.45.2-.35a24.33,24.33,0,0,0,1.88-4.76C164.29,250.74,164.72,249,165.13,247.24Z"></path><path class="cls-2" d="M190.1,264.39c-1.48-1.35-2.87-2.54-4.31-3.62a32.21,32.21,0,0,0-4.44-2.76c-3.08-1.51-6.21-2.38-10-1.12a7.12,7.12,0,0,1,5.31-3,11.2,11.2,0,0,1,6.18,1.23,14.47,14.47,0,0,1,4.76,3.86A11.52,11.52,0,0,1,190.1,264.39Z"></path><path class="cls-2" d="M190.92,231.81a11.8,11.8,0,0,1,2.77,3.24c.34.6.66,1.23,1,1.87a7.94,7.94,0,0,1,.32,1,3.75,3.75,0,0,1,.2,1.06,8.25,8.25,0,0,1,0,1.12l.09,1.1c0,.73,0,1.45,0,2.15a38.92,38.92,0,0,1-.56,4.12,60,60,0,0,0-1.27,7.69,2.35,2.35,0,0,0,.09.69l.32.87.75,1.84,1.49,3.74a120,120,0,0,1,7.71,31.3,87.36,87.36,0,0,1-2.51,32.18,76.41,76.41,0,0,1-5.94,15.11c-.58,1.22-1.32,2.36-2,3.55s-1.38,2.32-2.13,3.45a33.41,33.41,0,0,1-2.32,3.32,12.51,12.51,0,0,1-1.47,1.44,10.4,10.4,0,0,1-1.72,1.22,11.2,11.2,0,0,1,.63-2,12.05,12.05,0,0,1,.89-1.8c.73-1.1,1.43-2.22,2.13-3.34s1.4-2.23,2-3.4,1.31-2.28,1.85-3.48a79.23,79.23,0,0,0,5.68-14.7,87.16,87.16,0,0,0,2.72-31.31,112,112,0,0,0-7.54-30.74l-1.49-3.69-.76-1.87c-.13-.32-.25-.65-.37-1a5.06,5.06,0,0,1-.22-1.27c0-3,.68-5.53,1-8.15a33.93,33.93,0,0,0,.33-3.84c0-.63,0-1.24-.07-1.85l-.12-.89-.31-.86a11.73,11.73,0,0,1-.51-1.78c-.1-.64-.21-1.28-.34-1.92A23.66,23.66,0,0,1,190.92,231.81Z"></path><path class="cls-2" d="M140,335.75a14.69,14.69,0,0,1,5.53-2,28.19,28.19,0,0,1,5.95-.31,46.76,46.76,0,0,1,5.91.73,45.41,45.41,0,0,1,5.81,1.48l-1.42.17,3.06-2.43c1-.85,2-1.66,2.94-2.54s1.9-1.75,2.74-2.72,1.78-1.86,2.58-2.85a42.69,42.69,0,0,0,7.63-13.09,35.08,35.08,0,0,0,1.9-7.36,40.06,40.06,0,0,0,.52-7.67,49.94,49.94,0,0,0-2.78-15.45,37.35,37.35,0,0,1,5.45,15.24,41,41,0,0,1,.2,8.29,39,39,0,0,1-1.64,8.19,41,41,0,0,1-8.28,14.4,46.16,46.16,0,0,1-5.93,5.77c-1,.88-2.16,1.67-3.24,2.51l-3.42,2.26-.7.46-.72-.3c-1.67-.7-3.51-1.3-5.31-1.86a52,52,0,0,0-5.51-1.32,30.51,30.51,0,0,0-5.64-.52A16.1,16.1,0,0,0,140,335.75Z"></path><path class="cls-2" d="M162.65,337.06c4.09,4.35,8,9.14,12.95,11.83a28.55,28.55,0,0,0,8.08,2.61l2.15.37,1.09.17.55.09h-.24a1.65,1.65,0,0,0-1.32.74,1.77,1.77,0,0,0-.22,1.5,1.7,1.7,0,0,0,1,1.08,1.75,1.75,0,0,0,.76.11,1.72,1.72,0,0,0,.59-.15,1.66,1.66,0,0,0,.56-.43,1.27,1.27,0,0,0,.25-.4l0,.14c-.55,1.41-1.11,2.84-1.76,4.23A65.32,65.32,0,0,1,177,374.2a87.61,87.61,0,0,1-13.24,12.37c3.39-5,7.06-9.73,10.49-14.55a118.4,118.4,0,0,0,9.39-14.79c.68-1.29,1.34-2.59,2-3.92l.06-.12a2,2,0,0,1,.33-.52,1.67,1.67,0,0,1,.62-.47,1.87,1.87,0,0,1,.61-.17,1.8,1.8,0,1,1,.2,3.6,2.12,2.12,0,0,1-.51,0l-.56-.12-1.12-.23c-.75-.15-1.49-.37-2.24-.54a28.65,28.65,0,0,1-8.66-3.63,27.79,27.79,0,0,1-6.62-6.49A80.6,80.6,0,0,1,162.65,337.06Z"></path><path class="cls-2" d="M139.64,325.83c-.73,2.39,0,4.63.77,6.81s1.84,4.36,2.77,6.65a25.58,25.58,0,0,1,1.92,7.5,11.06,11.06,0,0,1-.47,4.3,11.91,11.91,0,0,1-2.16,3.78,10.52,10.52,0,0,1-3.42,2.74,11.62,11.62,0,0,1-4.16,1.09,18.16,18.16,0,0,1-7.78-1.34,37.39,37.39,0,0,1-12.35-8.15A62.31,62.31,0,0,0,128,354.6a18,18,0,0,0,6.53.53,7.44,7.44,0,0,0,4.91-2.76,7.74,7.74,0,0,0,1.74-5.38,31.38,31.38,0,0,0-1.24-6.63,64.62,64.62,0,0,1-1.64-7.19,14.93,14.93,0,0,1-.09-3.84A6.54,6.54,0,0,1,139.64,325.83Z"></path><path class="cls-2" d="M106.73,342.75A78.51,78.51,0,0,0,93,347.48a48,48,0,0,0-11.92,7.61,40.06,40.06,0,0,0-8.68,10.82,38.11,38.11,0,0,0-2.74,6.37,31.94,31.94,0,0,0-1.47,6.6l0,.18v.05q-1,5.67-1.75,11.37c-.25,1.89-.45,3.8-.65,5.7s-.39,3.83-.48,5.67l-1.06-1.42a69.38,69.38,0,0,0,7.9,1.85,65,65,0,0,0,8.12.89,45.54,45.54,0,0,0,8.17-.35,29.62,29.62,0,0,0,7.94-2.21,28.48,28.48,0,0,1-3.73,1.91,34.73,34.73,0,0,1-4,1.3A42.09,42.09,0,0,1,80.25,405a58.31,58.31,0,0,1-8.46-.28,57.43,57.43,0,0,1-8.4-1.44l-1-.26,0-1.16c0-2,0-4,.08-5.92s.24-3.9.41-5.85.37-3.89.61-5.83.54-3.86.85-5.79l0,.23A36,36,0,0,1,69,364a39.66,39.66,0,0,1,10-11.53,50.4,50.4,0,0,1,6.38-4.09,49.1,49.1,0,0,1,6.91-2.91A54.07,54.07,0,0,1,106.73,342.75Z"></path><path class="cls-2" d="M157.14,363.76c2.6,7.8,4.94,15.71,6.77,23.74s3.5,16.1,4.79,24.24,2.38,16.31,3.17,24.51,1.35,16.41,1.61,24.7l0,1.15-1,.5a97.09,97.09,0,0,1-18.12,6.58,140.44,140.44,0,0,1-18.82,3.52,118.12,118.12,0,0,1-19.08.78,65.78,65.78,0,0,1-9.5-1.08,29,29,0,0,1-9-3.07,30.38,30.38,0,0,0,9.12,2.27,75.64,75.64,0,0,0,9.4.41,132.06,132.06,0,0,0,18.72-1.77,147.84,147.84,0,0,0,18.31-4.13,95.63,95.63,0,0,0,17.34-6.71l-1,1.65c-.35-8.12-1-16.3-1.76-24.44s-1.69-16.27-2.72-24.39c-.53-4.06-1.11-8.11-1.69-12.16l-1-6.06c-.3-2-.61-4.05-1-6.06C160.45,379.85,158.77,371.83,157.14,363.76Z"></path><path class="cls-2" d="M127.21,313.64c1.86-.25,3.7-.5,5.52-.8.91-.14,1.81-.31,2.68-.51a15,15,0,0,0,2.47-.72l-.74,1.63c-.8-1.29-1.46-2.63-2.18-3.95s-1.34-2.67-2-4c-1.24-2.72-2.36-5.48-3.37-8.3l-.37-1.05.55-.72a16.38,16.38,0,0,1,3.91-3.68,12.61,12.61,0,0,1,4.93-2.1,10.64,10.64,0,0,1,2.7-.12,10,10,0,0,1,2.57.63,11.23,11.23,0,0,1,4.06,2.91,14.73,14.73,0,0,0-4.45-1.47,8.85,8.85,0,0,0-4.24.5,11.75,11.75,0,0,0-3.59,2.24,17.52,17.52,0,0,0-2.78,3.19l.18-1.77c1.29,2.7,2.46,5.44,3.52,8.24.53,1.39,1,2.8,1.49,4.23s.91,2.85,1.27,4.32l.33,1.36-1.08.27a15.17,15.17,0,0,1-3,.37c-1,0-1.91,0-2.85,0A43.61,43.61,0,0,1,127.21,313.64Z"></path><path class="cls-2" d="M124.57,295.86a48.2,48.2,0,0,1-4.71,1.81l-4.38,1.45c-1.43.47-2.8,1-4.22,1.52s-2.8,1.23-4.53,1.95a9.07,9.07,0,0,1,2.8-4.62,13.35,13.35,0,0,1,4.67-2.69,15.37,15.37,0,0,1,5.24-.75A11.45,11.45,0,0,1,124.57,295.86Z"></path><path class="cls-2" d="M114.63,314.61a35.42,35.42,0,0,0,5.14,2.12,46.05,46.05,0,0,0,4.74,1.25c1.6.33,3.22.61,4.89.8a18.24,18.24,0,0,0,5.43,0,5.61,5.61,0,0,1-2,2.54,9.77,9.77,0,0,1-2.95,1.41,13.36,13.36,0,0,1-12.12-2.61A8.59,8.59,0,0,1,114.63,314.61Z"></path><path class="cls-2" d="M147.16,312a33.53,33.53,0,0,1-7.52,13.85,27.49,27.49,0,0,1-6.31,5.21,23.57,23.57,0,0,1-7.85,2.91,19.51,19.51,0,0,1-8.49-.54,18.44,18.44,0,0,1-7.28-4.21,23.52,23.52,0,0,1-7-14.2c2.29,4.67,5.15,8.94,9,11.77a17.08,17.08,0,0,0,6.29,2.94,16.37,16.37,0,0,0,6.83.25c4.59-.71,8.9-3.17,12.6-6.37A57.16,57.16,0,0,0,147.16,312Z"></path><ellipse class="cls-2" cx="143.86" cy="298.12" rx="2.74" ry="5.36" transform="translate(-86.96 60.85) rotate(-18.45)"></ellipse><ellipse class="cls-2" cx="123.53" cy="303.48" rx="2.74" ry="5.36" transform="translate(-89.7 54.7) rotate(-18.45)"></ellipse><path class="cls-2" d="M153.69,292.07a5.41,5.41,0,0,1,1.53-2.68,4.32,4.32,0,0,1,1.54-1,3.21,3.21,0,0,1,2.48.09A3.38,3.38,0,0,1,161,291a5.51,5.51,0,0,1,0,2.2,10.08,10.08,0,0,1-1.28,3.14,13.34,13.34,0,0,1-4.06,4.32,9.59,9.59,0,0,1-2.79,1.28,5.5,5.5,0,0,1-3.19,0c1.25-1.74,2-3.13,3-4.5s2-2.62,2.88-3.84a13.5,13.5,0,0,0,1.08-1.68c.14-.23.2-.43.27-.45s.25.22.48.22.13-.2-.13-.25a2.46,2.46,0,0,0-1-.07A10.73,10.73,0,0,0,153.69,292.07Z"></path><path class="cls-2" d="M94.22,295.45a3.44,3.44,0,0,0-4.42,1.21,3.57,3.57,0,0,0,.32,3.74,17.82,17.82,0,0,0,3.52,3.66c1.4,1.27,2.6,2.6,4.35,4a5.82,5.82,0,0,1-3.4.18,10.41,10.41,0,0,1-3.1-1.15,11.68,11.68,0,0,1-4.83-4.87,7.08,7.08,0,0,1-.76-3.87,5.55,5.55,0,0,1,1.85-3.62,4.67,4.67,0,0,1,3.66-1.11A3.88,3.88,0,0,1,94.22,295.45Z"></path><path class="cls-2" d="M100.23,304.47s-13-13.52-10.74-29.32c1.51-10.6,8.88-21.62,22.58-16.15,0,0,16.91-20,35-3.62,15.26,13.79,3,41.62,3,41.62s1.27-19.18-6.4-22.83c0,0,6.49,2.45,5.9,7.89,0,0-14.43,11.22-27.71,7a13.88,13.88,0,0,1-8-9.16S101,293,100.23,304.47Z"></path><path class="cls-2" d="M175.38,490.94a36.2,36.2,0,0,1,4.45,10.69q1.62,5.53,3.11,11.1c2,7.41,3.85,14.89,5.33,22.46a277.22,277.22,0,0,1,4.9,45.94c.5,15.4.05,30.71.33,46,.1,7.64.23,15.29.51,22.93s.56,15.3,1.18,22.88l-2.32.25c-1.69-15.33-2.37-30.65-2.81-46s-.12-30.7-.59-45.94c-.27-7.62-.72-15.23-1.5-22.8s-1.88-15.09-3.24-22.59-3.06-14.93-4.81-22.36q-1.33-5.58-2.78-11.13A38.79,38.79,0,0,1,175.38,490.94Z"></path><path class="cls-2" d="M144.61,521.13c-1.43,12.66-3,25.3-4.87,37.92-1,6.3-2,12.61-3.4,18.88s-3.27,12.45-5.28,18.5l-3.07,9c-1,3-1.94,6.06-3,9.06-2,6-4,12.08-6.09,18.09q-1.53,4.53-3.13,9t-3.18,9c-2.1,6-4.43,11.94-6.33,18,.41-3.17,1.21-6.27,1.93-9.38s1.51-6.2,2.35-9.27,1.67-6.16,2.57-9.21,1.75-6.13,2.69-9.17c3.67-12.19,7.6-24.34,11.87-36.33,2.07-6,4-12,5.56-18.1s2.8-12.34,4-18.58C139.72,546.14,142.05,533.61,144.61,521.13Z"></path><path class="cls-2" d="M336.13,461.25c4.61,15.19,10.32,30,15.13,45.16,1.2,3.8,2.38,7.59,3.36,11.5.49,2,.84,3.9,1.26,5.85s.82,3.89,1.17,5.85c1.52,7.82,2.73,15.68,3.89,23.55,2.12,15.77,3.84,31.59,4.86,47.46q.84,11.91,1.16,23.85c.22,8,.23,15.93-.24,23.94l0,.74-.54.43a19.31,19.31,0,0,1-5.3,3,16.37,16.37,0,0,1-6,1.06,14.55,14.55,0,0,1-6-1.51,19,19,0,0,1-4.86-3.6l-.39-.4-.07-.55q-1.62-13.65-3.54-27.28c-1.25-9.08-2.55-18.16-4-27.21S332.82,575,331,566c-.92-4.49-1.92-9-3.07-13.39a96.73,96.73,0,0,0-4.24-13.07,85.15,85.15,0,0,1,4.95,12.86c1.35,4.4,2.55,8.85,3.67,13.31,2.25,8.92,4,17.94,5.76,27s3.29,18.1,4.72,27.18,2.73,18.17,3.91,27.3l-.46-.95a15.6,15.6,0,0,0,4,2.94,11.07,11.07,0,0,0,4.63,1.15,13,13,0,0,0,4.78-.86A16.14,16.14,0,0,0,364,647l-.58,1.17c.45-7.84.36-15.76.18-23.66s-.54-15.81-1.06-23.71c-1-15.8-2.44-31.59-4.41-47.3-1-7.86-2-15.71-3.37-23.51q-.47-2.92-1-5.84c-.38-1.93-.69-3.91-1.13-5.81-.86-3.81-1.95-7.63-3.05-11.43l-6.86-22.79C340.37,476.56,337.9,469,336.13,461.25Z"></path><path class="cls-2" d="M786.69,397.38c2.69,9.61,4.76,19.35,6.57,29.14s3.23,19.65,4.42,29.54,1.88,19.86,2.06,29.85-.11,20.09-2.5,29.82c.58-10-.11-19.8-.9-29.65-.42-4.93-.84-9.85-1.38-14.77l-.75-7.38-.85-7.38c-.52-4.92-1.13-9.84-1.71-14.76L789.91,427C788.74,417.17,787.6,407.31,786.69,397.38Z"></path><path class="cls-2" d="M769.07,419.52a47.91,47.91,0,0,0,.3,5.25c.14,1.73.42,3.46.69,5.18.53,3.44,1.21,6.86,1.85,10.3l2,10.3,1.87,10.37c1.11,6.94,2.14,13.93,2.58,21s.47,14.28-1.14,21.2A171.59,171.59,0,0,0,775,482.3q-.47-2.58-.85-5.16l-.89-5.16-1.76-10.35c-1.1-6.92-2.24-13.86-2.93-20.9-.35-3.52-.58-7.06-.61-10.61A40.57,40.57,0,0,1,769.07,419.52Z"></path><path class="cls-2" d="M695.84,478.48c-.66,5.1-1.37,10.18-2.1,15.27L691.6,509c-.72,5.08-1.4,10.16-2,15.25s-1.16,10.14-1.84,15.3c-1.22-5.12-1.08-10.38-.82-15.51s.65-10.31,1.07-15.44,1-10.26,1.55-15.38,1.22-10.22,1.92-15.32Z"></path><path class="cls-2" d="M688.84,606.59c-.09,5.86.25,11.9.5,17.86l.92,17.95q.94,17.94,2.1,35.87l-.9-.92c4.16.42,8.36.72,12.55.82,2.09.05,4.19.07,6.27,0a41.74,41.74,0,0,0,6.16-.63l-.64.89c-.26-3-.33-5.89-.31-8.83s.15-5.87.41-8.79a105.1,105.1,0,0,1,2.87-17.31c-.37,2.9-.73,5.79-1,8.69s-.47,5.8-.63,8.7-.17,5.81-.16,8.71.14,5.81.44,8.65l.08.73-.72.15a42.57,42.57,0,0,1-6.42.76c-2.13.13-4.26.15-6.38.13-4.26,0-8.48-.28-12.73-.64l-.83-.07-.06-.86q-1.38-17.94-2.49-35.89c-.38-6-.69-12-1-18s-.6-11.94-.52-18.08Z"></path><path class="cls-2" d="M879.9,334.67c2.3,4,0,9.23-.8,12.61a7.31,7.31,0,0,0,2.29,4.86,14.57,14.57,0,0,0,4.83,3.34,16.29,16.29,0,0,0,11.68.68c3.89-1.22,7.28-3.92,10.26-7.09a19.75,19.75,0,0,1-9.5,9.13,16.53,16.53,0,0,1-6.78,1.35,17.91,17.91,0,0,1-6.8-1.52,16.74,16.74,0,0,1-5.66-4.12,12.47,12.47,0,0,1-1.92-3.08,7.25,7.25,0,0,1-.57-3.74c.06-.32.12-.65.2-1l.36-.91.68-1.43a28.31,28.31,0,0,0,1.16-2.93C880,338.89,880.53,336.76,879.9,334.67Z"></path><path class="cls-2" d="M952.72,359.36a26.32,26.32,0,0,1,.29,6.93,13.75,13.75,0,0,1-2.23,6.78,7.74,7.74,0,0,1-1.28,1.41,11.51,11.51,0,0,1-1.63,1.08c-.59.24-1.22.42-1.85.61l-1.9.17a13.41,13.41,0,0,1-7.1-2.09,18.25,18.25,0,0,1-5.27-5.12,26.75,26.75,0,0,1-3.11-6.55,28.71,28.71,0,0,1-1.22-7.12,30.12,30.12,0,0,1,.7-7.2l.09-.39.29-.27q6.35-5.91,12.94-11.52c2.22-1.85,4.43-3.72,6.74-5.47s4.58-3.53,7-5.12c-4.26,3.91-8.36,7.95-12.48,12l-12.34,12.07.37-.66a27.61,27.61,0,0,0-.55,6.48,31,31,0,0,0,1.09,6.42c1.3,4.11,3.56,8.08,7.07,10.44a11.85,11.85,0,0,0,5.82,2.06,6.15,6.15,0,0,0,5.38-2.18,13.54,13.54,0,0,0,2.6-5.93A32.77,32.77,0,0,0,952.72,359.36Z"></path><path class="cls-2" d="M944.46,365.62a20.11,20.11,0,0,0,4-2.57c1.26-1,2.45-2,3.61-3.11,2.32-2.19,4.49-4.51,6.64-6.86s4.17-4.8,6.18-7.28,3.94-5,5.89-7.51l-.23.49a191.57,191.57,0,0,0,2.52-19c.6-6.4.83-12.83.88-19.25.07-3.22-.09-6.43-.13-9.65-.21-3.2-.28-6.43-.61-9.63-.45-6.43-1.43-12.8-2.47-19.2.83,3.12,1.79,6.23,2.4,9.42l1,4.77c.28,1.6.5,3.21.75,4.82a148.84,148.84,0,0,1,1.58,19.44,174.24,174.24,0,0,1-.62,19.52A154,154,0,0,1,973,339.33l-.06.28-.17.22c-2,2.49-4.08,5-6.22,7.38s-4.33,4.76-6.63,7a86.2,86.2,0,0,1-7.22,6.42C950.15,362.6,947.52,364.6,944.46,365.62Z"></path><path class="cls-2" d="M858.86,437.18c.36-3.05.61-6,.91-9s.67-5.94.86-8.94c.4-6,.78-12,.94-18l0,.31a67.72,67.72,0,0,0-2.16-8.2c-.88-2.7-2-5.3-3-8.16a19.69,19.69,0,0,1-1-9.18,43.14,43.14,0,0,1,2.17-8.72c1-2.79,2.09-5.49,3.25-8.16l.86-2a15.08,15.08,0,0,0,.69-1.84,17.18,17.18,0,0,0,.69-3.85c.23-2.67-.44-5.26-.55-8.44a5.51,5.51,0,0,1,.54-2.67,3.5,3.5,0,0,1,2.25-1.74,9.55,9.55,0,0,1,4.59.17,16,16,0,0,0-4,1.35c-1,.69-1,1.36-.82,2.7.52,2.55,1.36,5.63,1.24,8.77a18.23,18.23,0,0,1-.71,4.68,19,19,0,0,1-.79,2.23c-.3.74-.6,1.33-.89,2q-1.78,3.92-3.3,7.88a38.83,38.83,0,0,0-2.29,8,16.9,16.9,0,0,0,.67,7.91c.87,2.63,2.07,5.33,3,8.13a68.59,68.59,0,0,1,2.27,8.55l0,.15v.16c-.07,3.05-.22,6.06-.41,9.09s-.43,6.05-.78,9.06-.69,6-1.29,9A27.53,27.53,0,0,1,858.86,437.18Z"></path><path class="cls-2" d="M833.54,325.66a66.34,66.34,0,0,0,7.73,3.51c2.63,1.05,5.27,2.09,7.89,3.19a134.26,134.26,0,0,1,15.35,7.6l-1.5,2.37a129.92,129.92,0,0,0-14.45-8.7c-2.5-1.31-5-2.56-7.58-3.82A67.56,67.56,0,0,1,833.54,325.66Z"></path><path class="cls-2" d="M878,457.67c4.94,0,9.84.24,14.73-.13a92.63,92.63,0,0,0,14.45-1.78,41.37,41.37,0,0,0,13.24-5.1,27,27,0,0,0,5.39-4.36,26.4,26.4,0,0,0,3.93-5.66l-.07,1.3a95.47,95.47,0,0,1-3.88-15.06,90,90,0,0,1-1.29-15.46,66.38,66.38,0,0,1,2.07-15.37,46,46,0,0,1,6.71-13.82,51,51,0,0,0-5.13,14.2,73.64,73.64,0,0,0-1.09,15,101.26,101.26,0,0,0,1.78,14.92,98.75,98.75,0,0,0,3.86,14.47l.25.71-.32.59a29.16,29.16,0,0,1-4.52,6.38,27.66,27.66,0,0,1-6.11,4.8,41.48,41.48,0,0,1-14.35,5,79.31,79.31,0,0,1-14.9.88A125,125,0,0,1,878,457.67Z"></path><path class="cls-2" d="M936.55,449.19A33.17,33.17,0,0,1,944.41,460a38.21,38.21,0,0,1,3.1,13.11c.59,9-1.11,18-3,26.75s-4.06,17.45-5.63,26.22a119.66,119.66,0,0,0-2.19,26.45c.1,2.2.27,4.4.54,6.58s.67,4.33,1.07,6.56l2.32,13.23c1.51,8.83,3.06,17.65,4.41,26.5s2.77,17.71,3.89,26.6,2.22,17.79,2.66,26.85h0l0,.68-.5.47a32.21,32.21,0,0,1-6.23,4.6,30.12,30.12,0,0,1-7.13,3,24.66,24.66,0,0,1-7.8.88,23.88,23.88,0,0,1-7.7-1.73h0l-.57-.21-.31-.59c-3-5.86-5.59-11.79-8.11-17.79s-4.86-12-7-18.18c-4.35-12.24-8.22-24.66-11.37-37.26-1.58-6.3-3-12.64-4.3-19s-2.4-12.77-3.33-19.19a220.38,220.38,0,0,1-2.46-38.82c1.47,12.89,3,25.68,5.15,38.4,1,6.36,2.29,12.68,3.62,19s2.91,12.56,4.58,18.78c3.4,12.43,7.15,24.77,11.57,36.87s9.2,24.11,14.76,35.63l-.87-.81h0a20.38,20.38,0,0,0,6.56,1.57,21,21,0,0,0,6.77-.66,27.23,27.23,0,0,0,6.42-2.61,30,30,0,0,0,5.65-4L948.6,659h0q-.52-6.6-1.43-13.24t-1.76-13.28L941.57,606l-4-26.54-2.06-13.26c-.34-2.19-.71-4.45-.95-6.72s-.37-4.53-.43-6.8a123.08,123.08,0,0,1,2.76-26.92c1.77-8.82,4.12-17.48,6.17-26.17,1-4.34,2-8.71,2.63-13.11a68.66,68.66,0,0,0,1-13.27,37.3,37.3,0,0,0-2.64-13A33.07,33.07,0,0,0,936.55,449.19Z"></path><path class="cls-2" d="M80.11,677.4c2.67.72,5.18,1.63,7.67,2.44a50.55,50.55,0,0,0,7.43,1.82,17.89,17.89,0,0,0,7.25-.33,31.06,31.06,0,0,0,7.14-3.14,14.7,14.7,0,0,1-14.84,6.67,24.37,24.37,0,0,1-8-2.7A31.23,31.23,0,0,1,80.11,677.4Z"></path><path class="cls-2" d="M173.69,674.73c2.32,0,4.55.13,6.74.22a39.76,39.76,0,0,0,6.4-.22,14.69,14.69,0,0,0,5.77-1.91,25.25,25.25,0,0,0,5-4.16,12.38,12.38,0,0,1-3.79,5.88,12.2,12.2,0,0,1-3.12,1.94,16.12,16.12,0,0,1-3.53.93,21.36,21.36,0,0,1-7-.37A26.64,26.64,0,0,1,173.69,674.73Z"></path><path class="cls-2" d="M268.53,456.4c-1.36,4.12-3.38,7.82-4.66,11.82a53.47,53.47,0,0,0-2.62,12.27,86,86,0,0,0-.14,12.64q.17,3.17.48,6.33c.22,2.12.4,4.21.81,6.24,1.59,8.21,5,16,8.3,23.89,1.64,3.93,3.31,7.87,4.77,11.92a65.82,65.82,0,0,1,3.38,12.57,26.06,26.06,0,0,1-1,13.27l-1.2,3c-.41.95-.71,2-1.07,2.93-.67,2-1.24,4-1.74,6a138,138,0,0,0-3.37,25,317.46,317.46,0,0,0,2,50.74l-.39-.85a14.67,14.67,0,0,0,7.53,4.91,10.64,10.64,0,0,0,4.39.08,11.61,11.61,0,0,0,4.05-1.6l-.59.91c2.91-13.48,5.8-27,8.58-40.48l2.07-10.13c.64-3.39,1.28-6.78,1.87-10.17l3.49-20.37c.6-3.38,1.23-6.77,1.72-10.15s.93-6.82,1.35-10.23q1.25-10.25,2-20.54a317.77,317.77,0,0,0,.2-41.29c.7,6.86,1.34,13.74,1.66,20.65s.3,13.83,0,20.75-.78,13.82-1.42,20.7-1.41,13.8-2.51,20.63-2.49,13.6-3.91,20.35l-2.06,10.15-2,10.17q-4,20.33-8.17,40.59l-.13.6-.46.31a14.17,14.17,0,0,1-5.27,2.18,13.71,13.71,0,0,1-5.67,0,17.88,17.88,0,0,1-9.24-5.84l-.33-.37-.06-.48c-1.11-8.55-1.71-17.07-2-25.63s-.29-17.14.21-25.71a141.87,141.87,0,0,1,3.65-25.55c.53-2.1,1.14-4.18,1.86-6.24.38-1,.69-2.06,1.15-3.06s.88-2,1.22-2.93a23.52,23.52,0,0,0,1-11.93c-1.21-8.21-4.6-16.09-7.78-24s-6.63-15.82-8.22-24.41c-.41-2.15-.57-4.32-.76-6.44s-.33-4.28-.41-6.42a87,87,0,0,1,.31-12.91C260.35,471.76,263,463.07,268.53,456.4Z"></path><path class="cls-2" d="M99.15,683.46c-1.11,3-2.35,5.91-3.58,8.84l-.12-.91a144.6,144.6,0,0,0,12.42,10.3c1.08.79,2.19,1.53,3.29,2.28.55.38,1.11.73,1.67,1.08a18.67,18.67,0,0,1,1.88,1.28,4.68,4.68,0,0,1,1,1.19,2.94,2.94,0,0,1,.35,1.16,2.41,2.41,0,0,1-.33,1.39,3.36,3.36,0,0,1-1.41,1.28,6.89,6.89,0,0,1-1.23.48,20.21,20.21,0,0,1-4.41.63,48.64,48.64,0,0,1-8.38-.37,64.46,64.46,0,0,1-8.17-1.48c-5.34-1.36-10.66-3.27-15.13-6.48a65.31,65.31,0,0,0,15.59,4.19,79.08,79.08,0,0,0,15.91,1,17.56,17.56,0,0,0,3.66-.56,4.72,4.72,0,0,0,.67-.26c.17-.07.25-.19.12,0a.77.77,0,0,0-.08.42.48.48,0,0,0,0,.19,1.67,1.67,0,0,0-.31-.33,14.65,14.65,0,0,0-1.49-1c-.58-.39-1.17-.76-1.73-1.17-1.15-.78-2.24-1.65-3.33-2.51a85.4,85.4,0,0,1-11.81-11.55l-.39-.46.26-.45C95.78,688.85,97.39,686.12,99.15,683.46Z"></path><path class="cls-2" d="M884.84,653a84,84,0,0,1-8.63,4,43.39,43.39,0,0,1-9.27,2.55,24.67,24.67,0,0,1-9.82-.34,26.35,26.35,0,0,1-9-4.17l-.45-.31-.14-.55c-1.85-7.27-3.19-14.53-4.33-21.87s-2-14.68-2.73-22.06A391.57,391.57,0,0,1,839,565.85q.21-11.1,1.13-22.18c.54-7.38,1.41-14.73,2.39-22.06s2.24-14.63,3.78-21.86,3.17-14.43,5.08-21.56c-1.41,7.25-2.83,14.48-3.93,21.77-.59,3.64-1.09,7.28-1.55,10.94s-.88,7.31-1.32,11c-1.51,14.64-2.38,29.34-2.48,44a437,437,0,0,0,1.85,44,329.08,329.08,0,0,0,6.63,43.46l-.59-.86a25.93,25.93,0,0,0,7.87,4.09,24.38,24.38,0,0,0,8.91.87,52.82,52.82,0,0,0,9.13-1.61C878.87,655.06,881.84,654.05,884.84,653Z"></path><path class="cls-2" d="M859.09,656.89a2.88,2.88,0,0,1,2.06,2.06l.72,2.42c.48,1.62.9,3.25,1.32,4.88a83.14,83.14,0,0,1,1.89,10l.07.65-.35.21h0a134.92,134.92,0,0,1-15.06,10.63q-2,1.18-4,2.28c-1.33.74-2.84,1.41-4,2.1a2,2,0,0,0-.32.24s-.05.05,0,0a.93.93,0,0,0,.12-.32,1,1,0,0,0-.2-.78c-.31-.32-.36-.24-.37-.27h.11a3.06,3.06,0,0,0,.43,0,18.88,18.88,0,0,0,2.13-.25c1.46-.24,2.93-.58,4.4-.93,5.87-1.43,11.62-3.43,17.35-5.33l8.61-2.84a20.48,20.48,0,0,1,9.17-1.48,16.08,16.08,0,0,1-7.83,5.24c-2.88,1.1-5.8,2.08-8.76,2.92-5.92,1.68-12,2.91-18,4q-2.26.44-4.59.75a22.71,22.71,0,0,1-2.42.21,6,6,0,0,1-.71,0,2.34,2.34,0,0,1-.46-.08,1.56,1.56,0,0,1-.87-.53,1.33,1.33,0,0,1-.26-1,1.5,1.5,0,0,1,.23-.57,2.51,2.51,0,0,1,.4-.43,5.63,5.63,0,0,1,.61-.44c1.51-.86,2.83-1.37,4.18-2.08s2.67-1.39,4-2.13a114.62,114.62,0,0,0,15-10.16h0l-.27.86a79.07,79.07,0,0,1-3.29-9.58c-.45-1.62-.89-3.25-1.28-4.88l-.57-2.47A2.89,2.89,0,0,1,859.09,656.89Z"></path><path class="cls-2" d="M192.82,674.21l.58,6.84-.16-.36c4,4.19,8,8.34,12.31,12.1q1.6,1.43,3.28,2.74c.56.46,1,.81,1.79,1.46a4.92,4.92,0,0,1,1,1.28,2.85,2.85,0,0,1,.33,1.19,2.44,2.44,0,0,1-.38,1.46,3.49,3.49,0,0,1-1.58,1.27,7.3,7.3,0,0,1-1.33.43,16,16,0,0,1-2.4.31,36.44,36.44,0,0,1-4.56,0,77.51,77.51,0,0,1-17.42-3.31c-5.59-1.78-11.18-4.07-15.75-7.77,5.06,2.94,10.67,4.53,16.27,5.81a94.1,94.1,0,0,0,17,2.25,34,34,0,0,0,4.18-.11,13.4,13.4,0,0,0,1.91-.3,4.15,4.15,0,0,0,.75-.24c.19-.07.27-.21.14,0a.79.79,0,0,0-.11.42c0,.14.05.19,0,.16a1.62,1.62,0,0,0-.36-.4c-.35-.31-1-.83-1.61-1.28-1.16-.94-2.28-1.93-3.37-2.93A74.46,74.46,0,0,1,192,681.66h0l-.09-.11-.06-.25-1.55-6.7Z"></path><path class="cls-2" d="M698.39,678.68l-1.74,14.25,0,.37-.3.25h0a149.27,149.27,0,0,1-15,10.5c-.67.38-1.33.78-2,1.14s-1.44.76-1.91,1c-.23.12-.49.39-.35.25a.77.77,0,0,0,.14-.41,1.08,1.08,0,0,0-.15-.69c-.2-.28-.23-.23-.17-.22a7.42,7.42,0,0,0,1.72.31,75.47,75.47,0,0,0,8.78,0c6-.24,11.94-.81,17.89-1.6,3-.41,5.93-.88,8.87-1.47a63.94,63.94,0,0,0,8.7-2.27h0l-.08.06a3.21,3.21,0,0,0,.61-1.36,6.49,6.49,0,0,0,.13-1.59,12.07,12.07,0,0,0-.55-3.2,12.39,12.39,0,0,1,.81,3.18,6.3,6.3,0,0,1,0,1.68,3.55,3.55,0,0,1-.61,1.64l0,0-.07,0h0a66.43,66.43,0,0,1-17.35,5.77,125.78,125.78,0,0,1-18.16,2.43,50.53,50.53,0,0,1-9.34-.19,9.19,9.19,0,0,1-2.68-.73,2.55,2.55,0,0,1-1.05-.9,2,2,0,0,1-.29-1.23,2.11,2.11,0,0,1,.34-.94,3.93,3.93,0,0,1,1.4-1.18c.84-.44,1.43-.68,2.13-1s1.34-.64,2-1a82.18,82.18,0,0,0,7.8-4.42,61.81,61.81,0,0,0,7.27-5.24h0l-.34.61,2.11-14.19Z"></path><path class="cls-2" d="M793.62,682.28a37.43,37.43,0,0,1-6.67,2.81,35.06,35.06,0,0,1-7.15,1.48,20.07,20.07,0,0,1-7.42-.64,12.8,12.8,0,0,1-6.17-4,21.89,21.89,0,0,0,6.59,2.14,29.63,29.63,0,0,0,6.79.07c2.29-.17,4.59-.56,6.92-.89S791.19,682.48,793.62,682.28Z"></path><path class="cls-2" d="M773.39,685.2l-1,5.36-.07.36-.16.13h0q-5.24,6.06-10.72,11.88l-1.37,1.46-.69.72-.17.19a.44.44,0,0,0,.09-.22.82.82,0,0,0,0-.46c-.05-.1-.07-.11,0-.08a3.7,3.7,0,0,0,.45.26,9.44,9.44,0,0,0,1.58.52,34.35,34.35,0,0,0,7.53.8A43.09,43.09,0,0,0,783.81,704a15.72,15.72,0,0,0,3.22-1.64,19,19,0,0,0,2.67-2.23c1.62-1.76,1.73-4.62,1-7.18a11,11,0,0,1,1.33,3.87,8.78,8.78,0,0,1-.55,4.35,7.53,7.53,0,0,1-2.74,3.58,18.74,18.74,0,0,1-3.78,2.15,40.28,40.28,0,0,1-16.31,2.72,36.81,36.81,0,0,1-8.31-1.05,12.12,12.12,0,0,1-2.17-.81,5.25,5.25,0,0,1-1.21-.83,3,3,0,0,1-.64-.87,2.4,2.4,0,0,1-.21-1.44,3,3,0,0,1,1-1.67l.72-.7,1.43-1.39q5.72-5.56,11.68-10.9h0l-.23.49,0-5.46Z"></path><path class="cls-2" d="M67.24,402.4c.48,5.49.75,11,1.06,16.47l.64,16.47c.41,11,.69,21.93,1.25,32.86s1.29,21.85,2.58,32.7l.5,4.07c.18,1.35.44,2.69.65,4l.67,4,.87,4a93.5,93.5,0,0,0,4.65,15.72A81.19,81.19,0,0,1,74,517.44l-1.13-4-.92-4c-.3-1.35-.64-2.69-.9-4l-.75-4.07a300.56,300.56,0,0,1-3.74-32.87q-1-16.49-1.18-33L65.16,419l0-16.45Z"></path><path class="cls-2" d="M91.53,419.27c.23,6.52.43,13,.49,19.49s0,13,0,19.47-.29,13-.64,19.46-.74,13-1.54,19.45c-.54-6.5-.84-13-1-19.49s-.15-13-.07-19.48.33-13,.75-19.47A184.11,184.11,0,0,1,91.53,419.27Z"></path><path class="cls-2" d="M931,665.94c2.17,1.16,2.3,2.87,3,4.43s1.12,3.19,1.67,4.79a84.44,84.44,0,0,1,2.65,9.74l.3,1.53-1,.73h0c-2.53,1.91-5.07,3.61-7.69,5.29s-5.25,3.27-8,4.74c-1.37.73-2.75,1.44-4.14,2.11s-2.92,1.29-4,1.9l-.33.21s0,.05,0,0a.78.78,0,0,0,.13-.34,1.07,1.07,0,0,0-.22-.81c-.32-.34-.38-.25-.39-.28s0,0,.1,0l.43,0a18.15,18.15,0,0,0,2.15-.14c1.47-.17,3-.42,4.45-.69,6-1.12,11.88-2.57,17.75-4.19a151,151,0,0,0,17.31-5.82,177.13,177.13,0,0,1-17,6.67c-5.8,1.95-11.65,3.73-17.61,5.19-1.5.36-3,.7-4.54,1a24,24,0,0,1-2.4.32,5.6,5.6,0,0,1-.71,0,2.43,2.43,0,0,1-.47-.07,1.55,1.55,0,0,1-.89-.53,1.39,1.39,0,0,1-.28-1.08,1.52,1.52,0,0,1,.24-.6,2.1,2.1,0,0,1,.4-.45,4.2,4.2,0,0,1,.6-.46c1.49-1,2.77-1.52,4.09-2.28s2.59-1.51,3.86-2.31a113.13,113.13,0,0,0,14.41-10.75h0l-.72,2.25a84.52,84.52,0,0,1-2.52-9.78c-.32-1.66-.65-3.31-.92-5S929.71,668,931,665.94Z"></path><path class="cls-2" d="M267.81,679.52a29.65,29.65,0,0,1-2.64,4.91,8.3,8.3,0,0,0-.94,2.41,2.59,2.59,0,0,0,.54,2.13,6,6,0,0,0,1.87,1.56c.76.43,1.53.78,2.41,1.18,1.72.76,3.38,1.64,5,2.49,3.32,1.71,6.51,3.59,9.81,5.1a36.56,36.56,0,0,0,4.94,2l1.25.32,1.23.21,1.2.07H294c1.9.07,3.76.22,5.58.32a16.62,16.62,0,0,0,5-.21c.63-.24.7-.31.74-.6,0,.24.06,0-.22-.19a6.87,6.87,0,0,0-.92-.7c-1.45-.92-3.14-1.79-4.75-2.75a27.67,27.67,0,0,1-8.74-7.36,14.6,14.6,0,0,1-2.56-10.87,15.05,15.05,0,0,0,3.73,10,28.56,28.56,0,0,0,8.71,6.21c1.64.84,3.3,1.56,5,2.58a9.11,9.11,0,0,1,1.33.94,3,3,0,0,1,1.16,2.13,5,5,0,0,1-.18,1.18,3.81,3.81,0,0,1-.63,1,3.29,3.29,0,0,1-.86.72,4.16,4.16,0,0,1-.89.42,10.45,10.45,0,0,1-3.18.49c-1,0-1.95,0-2.89,0-1.88-.08-3.72-.2-5.53-.24l-1.35,0c-.52,0-1.05-.06-1.57-.12s-1-.16-1.51-.27L288,704.1a34.28,34.28,0,0,1-5.34-2.23c-3.38-1.74-6.56-3.69-9.71-5.62q-2.37-1.44-4.77-2.78c-1.57-.92-3.48-1.82-4.63-3.7a4,4,0,0,1-.44-3.18,8.55,8.55,0,0,1,1.38-2.61A38.38,38.38,0,0,0,267.81,679.52Z"></path><path class="cls-2" d="M349.14,660.3a30,30,0,0,1-2.81,5.25,9.14,9.14,0,0,0-1,2.57,2.9,2.9,0,0,0,.52,2.29,6.43,6.43,0,0,0,2,1.68,26.75,26.75,0,0,0,2.57,1.28,26.93,26.93,0,0,1,5.21,3.32c3.25,2.49,5.83,5.75,8.81,7.66a8.75,8.75,0,0,0,2.29,1,6.64,6.64,0,0,0,1.18.22c.39,0,.79,0,1.37,0a43.45,43.45,0,0,1,6.12.61,50.52,50.52,0,0,0,5.67.81,4,4,0,0,0,1.48-.15s0,0,0-.06,0-.13,0-.08,0,.06,0,0a2.7,2.7,0,0,0-.46-.75A46,46,0,0,0,378,682.1c-1.46-1.34-2.94-2.7-4.36-4.13a38.06,38.06,0,0,1-7.25-9.72,20,20,0,0,1-2.08-11.74,21.13,21.13,0,0,0,3.33,11,40.73,40.73,0,0,0,7.62,8.71c1.45,1.31,2.95,2.55,4.49,3.8a39.15,39.15,0,0,1,4.59,4.13A5,5,0,0,1,385.4,686a2.83,2.83,0,0,1,.12.77,3.79,3.79,0,0,1-.06.65,3,3,0,0,1-.53,1.29,3.51,3.51,0,0,1-2.16,1.34,8.13,8.13,0,0,1-1.84.16,51.9,51.9,0,0,1-6.1-.75,49.85,49.85,0,0,0-5.69-.65c-.42,0-1,0-1.6-.07a10.24,10.24,0,0,1-4.81-1.82,30.42,30.42,0,0,1-4.64-4.17c-1.39-1.43-2.7-2.85-4.13-4.12a28.33,28.33,0,0,0-4.58-3.38c-1.65-1-3.7-2-4.91-4a4.35,4.35,0,0,1-.39-3.41,9,9,0,0,1,1.51-2.77A39.22,39.22,0,0,0,349.14,660.3Z"></path><g class="cls-3"><path class="cls-4" d="M557.45,532.77s-37.65,37.9-46.65,62.37-27.43,93.39-27.43,93.39,4.12,1.71,6.67.86,4.11-1.37,5.17-8.92,24.34-74.7,24.34-74.7,21.79-32.41,25.39-36.58,20.42-22.5,21.74-20.56Z"></path></g><g class="cls-3"><path class="cls-4" d="M602.41,515.11s13.51,19.09,12.66,35.13,12.84,18.61,13.81,20.18-7,10.65-6.63,19.2c0,0,14.14-8.86,25.75-5.65s22.59,13.06,36.31,9.09,31.53-11.06,41-6.89l-4.11-11.46s11.43-6.14,18.94,0l22.5,1.77-1.69-5.27H749.75l-8.55-.31s-3,.17-3.69-1.77a45.72,45.72,0,0,0-3.66-6.22l-9.33,2.53-4,1-1.71,2.69,1,3a25.77,25.77,0,0,0-8.15-.94c-3.7.35-34.2-1.12-34.2-1.12s-19.31,3.44-22.27,4.62-3.6-.36-4.36,0-1.29-.62-2.47-4.13-16.47-34.22-18-48-1.22-12.88-2.9-12.35S602.41,515.11,602.41,515.11Z"></path></g><g class="cls-3"><path class="cls-4" d="M587.29,515.73s-.39-62.61-9.31-91.31c0,0,17.07-14.49,21.06-19.68s7.17-39.41-9.09-46.17,2.39-10.25-12.42-14.52c0,0-4.29-10.84,6.29-6.83s22.66,10.18,24.57,20.09a7.45,7.45,0,0,1,.3-1.88c.21-.3.52.05,1.78,1.39s25.69,26.24,31.14,31,12.87,14.62,10.83,21.6-22.7,40.7-23.9,42.54-2.65,2.75-.38,10.29,9.5,29.06,6.23,38.34-15.5,11.38-21.85,12.58S587.29,515.73,587.29,515.73Z"></path></g></g></g></svg>