<svg xmlns="http://www.w3.org/2000/svg" viewBox="0 0 1062.32 490.54"><defs><style>.cls-1{opacity:0.15;}.cls-2{fill:#1a3141;}.cls-3{fill:#293b4a;}</style></defs><g id="Layer_2" data-name="Layer 2"><g id="ARTWORK"><g class="cls-1"><path class="cls-2" d="M721.92,479s8.05-22.48,35.87-18.92,65.35,8.32,85,7.54,31.94-.42,36.87-4.82,5.68-14.5,5.68-14.5l0-16.37V421h5.91l.93,9.18,6,1.09,4.36,36.3c.64,5.26,6,20.41-1.55,20.42H745.36v-9Z"></path></g><g class="cls-1"><path class="cls-2" d="M895.22,415.3s-.87-1,5.8-1.33,35.79-1.25,56.47-.29,16.88,1.62,14.94,2.21c0,0,1.72-1.78,1.39,2s-.25,12.62-4.08,13-4.44,1.07-4.33,2.57-5.49,53.48-5.49,53.48h-40s-.84-27.84-6.75-54.74l-9.72-.93S903.67,422,902,417Z"></path></g><g class="cls-1"><path class="cls-2" d="M802.67,291.19s24.79-1.09,43.79,20.86c0,0-49,46.37-57.42,64.35s17.62,25.88,18.31,58.87l25.46-3.67s6.91,4.47,5.66-4.81-6.65-54.16-5.66-70.83,3.48-14,3.48-14l19.38-7.35,3.46-9.92a14.63,14.63,0,0,1,11-1.27c6.34,1.69,12.73-2.57,15.22-3.53s12.79-4.63,12.79-4.63-23.42-24.11-50.75-30.42S814,277.43,814,277.43Z"></path></g><path class="cls-3" d="M0,488.48c44.26-.55,88.53-.81,132.79-1.22l132.79-.72c44.26-.3,88.52-.27,132.79-.4l132.79-.28L664,486c44.26.09,88.52,0,132.79.27l132.79.58c44.26.37,88.52.57,132.79,1.08-44.27.55-88.53.81-132.79,1.22l-132.79.72c-44.26.31-88.53.27-132.79.4l-132.79.28-132.79-.14c-44.26-.08-88.53,0-132.79-.27l-132.79-.58C88.53,489.19,44.26,489,0,488.48Z"></path><path class="cls-3" d="M644.6,477.4c-3.41-9.63-5.94-18.17-8.1-26.56s-4.18-16.64-6.08-24.89-3.78-16.52-5.49-24.84-3.32-16.69-4.72-25.21l1.14.91-145,.56,1.68-2.12L502.56,479l-2.25-1.76q8.9-.35,17.76-.54l17.72-.41c11.8-.2,23.6-.29,35.44-.34l35.7,0,18,.08A113,113,0,0,1,644.6,477.4Zm0,0c-4.36,1.4-10.35,1.7-16.4,1.84l-18.06.62c-12.06.43-24.25.76-36.43,1.11s-24.44.57-36.69.72l-18.35.12q-9.17.07-18.3,0h-1.85l-.4-1.75L474.64,376l-.48-2.13h2.16l145,.56h.87l.27.91c2.47,8.43,4.76,17,6.9,25.67s4.22,17.35,6.13,26,3.73,17.36,5.55,26A191.63,191.63,0,0,1,644.6,477.4Z"></path><path class="cls-3" d="M568.41,425.22a14.77,14.77,0,0,1-.73,9,10.36,10.36,0,0,1-6.82,6.18,10.65,10.65,0,0,1-9.22-2.15,14.11,14.11,0,0,1-4-17.51,10.65,10.65,0,0,1,7.4-5.91,10.31,10.31,0,0,1,8.81,2.64A14.69,14.69,0,0,1,568.41,425.22Zm-1.36.31a12.54,12.54,0,0,0-4.18-6.89,8.41,8.41,0,0,0-7.33-1.77,8.17,8.17,0,0,0-5.28,5,14,14,0,0,0,3.2,14.15,8.17,8.17,0,0,0,6.93,2.26,8.36,8.36,0,0,0,5.85-4.76A12.43,12.43,0,0,0,567.05,425.53Z"></path><path class="cls-3" d="M642.1,465.34c6.28-.55,12.56-.81,18.84-1s12.57-.26,18.85-.22,12.56.13,18.84.32,12.57.47,18.85.92l1.18.08-.08,1c-.29,4.18-.61,8.35-1.1,12.53-.49-4.18-.81-8.35-1.11-12.53l1.11,1.11c-6.28.44-12.56.71-18.85.92s-12.56.31-18.84.32-12.57-.06-18.85-.23-12.56-.46-18.84-1Z"></path><g class="cls-1"><path class="cls-2" d="M508,187.94l33.89-58.89h0l10.94-4,57.65,63.06S561.77,187.08,508,187.94Z"></path></g><path class="cls-3" d="M467.24,188.11c5.92-1.53,11.9-1.82,17.87-2l17.92-.5c11.94-.28,23.89-.51,35.84-.59s23.89,0,35.84.16,23.9.48,35.84.94l-1.48,3.26h0q-7.27-7.49-14.41-15.08c-4.73-5.09-9.5-10.14-14.19-15.27l-28.2-30.71,2.7.35a33.31,33.31,0,0,1-6.64,3.09,19.71,19.71,0,0,1-7.46,1.19,22.25,22.25,0,0,1-7.24-1.87,40,40,0,0,1-6.35-3.4h0l2.43-.3c-7.61,8.59-15.41,17-23.23,25.41l-11.83,12.52c-3.95,4.16-7.75,8.46-12.55,11.86,2.91-5.11,6.81-9.32,10.56-13.67l11.28-13c7.59-8.61,15.19-17.2,23-25.63l1.09-1.17,1.33.87h0a36.76,36.76,0,0,0,5.75,2.88,18.34,18.34,0,0,0,5.95,1.39,16.79,16.79,0,0,0,5.92-1,29.49,29.49,0,0,0,5.7-2.69l1.51-.93,1.2,1.27,28.46,30.47c4.76,5.07,9.42,10.22,14.14,15.32s9.33,10.31,13.92,15.52l3.15,3.33-4.63-.07-35.78-.6q-17.88-.33-35.78-.36t-35.8-.1l-17.89.14A87.3,87.3,0,0,1,467.24,188.11Z"></path><path class="cls-3" d="M556.37,187.94a15.65,15.65,0,0,1-3.15,14.23,18.59,18.59,0,0,1-28.39.33c-3.44-4-4.82-9.54-3.47-14.16a20.72,20.72,0,0,0,7.07,10.47,17,17,0,0,0,21.12-.24A20.59,20.59,0,0,0,556.37,187.94Z"></path><path class="cls-3" d="M361.35,203.41a15.68,15.68,0,0,1-2.7-2.38c-.79-.86-1.6-1.66-2.28-2.56s-1.5-1.67-2.24-2.5a28.83,28.83,0,0,0-2.43-2.17l-1.28-.93-1.33-.72a12.12,12.12,0,0,0-1.32-.53,10.46,10.46,0,0,0-1.31-.26,6,6,0,0,0-4.64,1.93,17.37,17.37,0,0,0-3.48,5,21.83,21.83,0,0,0-1.85,6,23.52,23.52,0,0,0-.15,6.27c.12,1.08.29,2,.5,3.18l.61,3.43,2.32,13.73,1.13,6.87.55,3.44.13.86.07.42.06.57a7.85,7.85,0,0,1-.1,2.32,8.48,8.48,0,0,1-5.73,6.56,7.92,7.92,0,0,1-4.42.08,14.31,14.31,0,0,1-1.81-.64l-1.64-.69a77.35,77.35,0,0,1-12.33-6.79c4.49,1.37,8.92,2.76,13.33,4l1.65.44a11.4,11.4,0,0,0,1.53.35,4.54,4.54,0,0,0,2.43-.31,4.44,4.44,0,0,0,2.72-3.64,3.63,3.63,0,0,0-.06-1.14l0-.3-.09-.43L337,242l-.71-3.41-1.36-6.83-2.67-13.66-.63-3.42a27.59,27.59,0,0,1-.49-3.7,28.94,28.94,0,0,1,.51-7.6,26.2,26.2,0,0,1,2.56-7.18,21.57,21.57,0,0,1,4.72-6.15,11,11,0,0,1,1.68-1.23c.31-.18.61-.37.93-.54l1-.4a9.94,9.94,0,0,1,2.17-.51,12.74,12.74,0,0,1,2.23,0,13.12,13.12,0,0,1,7,3.76,32,32,0,0,1,2.52,2.71c.72,1,1.51,1.9,2.15,2.9A16.44,16.44,0,0,1,361.35,203.41Z"></path><path class="cls-3" d="M324.53,198.1c-2.95-1.8-5.72-3.56-8.51-4.37a9.53,9.53,0,0,0-3.92-.28,8.35,8.35,0,0,0-1.76.48l-.83.45a3.14,3.14,0,0,0-.81.53,24.09,24.09,0,0,0-5.65,6.69c-1.76,2.65-3.13,5.64-5,8.56a28.09,28.09,0,0,1,1.61-10.2,18.83,18.83,0,0,1,6.28-9,6.26,6.26,0,0,1,1.3-.79c.46-.23.92-.47,1.39-.68l1.52-.39c.26-.06.51-.13.77-.17l.79,0c.52,0,1.05,0,1.56,0s1,.19,1.5.29a14.09,14.09,0,0,1,2.74,1A17.35,17.35,0,0,1,324.53,198.1Z"></path><path class="cls-3" d="M343.71,259.92a14,14,0,0,1-4.48,3.88,22.54,22.54,0,0,1-5.57,2.26,23.69,23.69,0,0,1-12.2,0,18.14,18.14,0,0,1-10.31-7.19,16.49,16.49,0,0,1-2.74-11.58c1,1.7,1.87,3.32,2.92,4.77a24.15,24.15,0,0,0,3.37,3.82,20.32,20.32,0,0,0,8.34,4.5,35.22,35.22,0,0,0,9.95,1.12A39.38,39.38,0,0,0,343.71,259.92Z"></path><path class="cls-3" d="M335.14,280.36c-2.09,2.11-5,3.21-7.87,4a37.79,37.79,0,0,1-8.85,1.13,51.84,51.84,0,0,1-8.88-.59,25.85,25.85,0,0,1-8.85-3.22,40.13,40.13,0,0,1-12.81-12.62,51.14,51.14,0,0,1-7.18-15.95,160.24,160.24,0,0,0,10.4,13.48,52.9,52.9,0,0,0,12.21,10.59,25.11,25.11,0,0,0,7.13,2.85c2.68.55,5.44,1.06,8.17,1.39a55.74,55.74,0,0,0,8.27.4A23.47,23.47,0,0,0,335.14,280.36Z"></path><ellipse class="cls-3" cx="343.71" cy="218.8" rx="8.75" ry="3.4" transform="translate(84.29 532.99) rotate(-82.93)"></ellipse><ellipse class="cls-3" cx="312.79" cy="216.29" rx="8.75" ry="4.47" transform="translate(72.31 510.9) rotate(-85.44)"></ellipse><path class="cls-3" d="M275.72,218.8c-2.4-4.18-7-6.23-10.7-5.44s-5.49,4.16-5.23,8.18a23.71,23.71,0,0,0,1.2,6.16,10.81,10.81,0,0,0,2.66,4.89,9.65,9.65,0,0,0,5.18,2.42,28.07,28.07,0,0,0,6.89.12,14.58,14.58,0,0,1-6.9,2.87,11.09,11.09,0,0,1-8-1.79,13,13,0,0,1-4.78-6.88,24.68,24.68,0,0,1-1.43-7.67,13.2,13.2,0,0,1,2.39-8.14,9.84,9.84,0,0,1,7.7-4,11.19,11.19,0,0,1,7.52,2.75A10.36,10.36,0,0,1,275.72,218.8Z"></path><path class="cls-3" d="M539.09,120.43,541.52,0,544,120.43a2.43,2.43,0,0,1-4.86.1Z"></path><path class="cls-3" d="M352.88,111c-1.22,27.49-1.79,28.15-1.79,28.15a40.23,40.23,0,0,1,16.42-9.57c7.32,29.27-13.24,50.34-13.24,50.34s-11.81-16.16-39.67-12.35-42.16,12.35-42.16,12.35c-1.84,18.86,3.28,38.87,3.28,38.87s-8.12-17.16-20.23,0c0,0-33.21-45.59,14.51-63,0,0,16.71-46,82.88-44.75"></path><path class="cls-3" d="M745.36,479q-23.42,1-46.85,1.31c-15.61.27-31.23.34-46.85.37s-31.23-.1-46.85-.37S573.58,479.63,558,479q23.43-1,46.85-1.32c15.62-.26,31.24-.33,46.85-.36s31.24.1,46.85.37S729.75,478.33,745.36,479Z"></path><path class="cls-3" d="M321.72,292.56c1.12.71.78,1.29.79,1.9l-.11,1.8-.28,3.6c-.19,2.4-.43,4.8-.74,7.18-.56,4.78-1.31,9.53-2.1,14.27L318,328.45l-.33,1.8c-.21.84-.37,1.32-.59,2a32.4,32.4,0,0,1-1.42,3.6,20.92,20.92,0,0,1-4.54,6.64,13.14,13.14,0,0,1-3.7,2.49,10.6,10.6,0,0,1-4.62.84,14.21,14.21,0,0,1-7.82-3.3,33.63,33.63,0,0,1-5.33-5.49A77.1,77.1,0,0,1,282,324.53,203.72,203.72,0,0,1,271,297.87a254.72,254.72,0,0,0,13.36,25.29,83.53,83.53,0,0,0,8.28,11.32,29.44,29.44,0,0,0,5,4.45,9.51,9.51,0,0,0,5.32,1.92c3.24,0,6-3.5,8.07-7.33a29.26,29.26,0,0,0,1.38-3c.19-.47.43-1.11.53-1.44l.42-1.7,1.67-6.91c1.09-4.64,2.08-9.3,3.08-14l1.45-7,.69-3.51.31-1.76C320.7,293.65,320.49,293,321.72,292.56Z"></path><path class="cls-3" d="M421.47,486.74l19.28-1.17-2,1.83c.57-8.27,1.31-16.53,2-24.78L442,450.24c.41-4.13.79-8.25,1.25-12.37l2,2.22c-7.29-.15-14.58-.21-21.87-.44s-14.58-.41-21.87-.75l.84-.93a28,28,0,0,1,1.05,6c.07,1,.14,2,.12,3a6.72,6.72,0,0,1-.86,3.12,6.84,6.84,0,0,1-1.45-2.9c-.21-1-.33-2-.45-3a28.61,28.61,0,0,1-.1-6.07l.1-.89.75,0c7.29-.34,14.58-.56,21.87-.75s14.58-.29,21.87-.43l2.18,0-.16,2.27c-.28,4.13-.66,8.26-1,12.39L445.23,463c-.76,8.26-1.53,16.51-2.47,24.75l-.22,1.94-1.79-.11-19.28-1.16Z"></path><path class="cls-3" d="M400.08,430.41c4-1,7.92-1,11.88-1.09l11.88-.36c7.92-.17,15.84-.33,23.76-.29l-1.69,2.21-1.68-5.34c-.54-1.79-1.16-3.55-1.62-5.36l2,1.54-43.86-.47,1.57-1.2-3.67,10.6a.9.9,0,0,1-1.73-.47l2.26-11,.25-1.18h1.32l43.86-.47,1.56,0,.46,1.56c.53,1.79.9,3.62,1.34,5.43l1.29,5.45.52,2.2h-2.2c-7.92,0-15.84-.12-23.76-.29L412,431.51C408,431.39,404,431.39,400.08,430.41Z"></path><path class="cls-3" d="M429,411.07a43.38,43.38,0,0,0,2.62-5.56,11.56,11.56,0,0,0,.76-5.41c-.33-3.42-2.78-6.5-5.05-10s-4.54-7.65-4.85-12.25a18.86,18.86,0,0,1,.73-6.64,21.14,21.14,0,0,1,2.83-5.78,49.57,49.57,0,0,0-.63,6.14,21.77,21.77,0,0,0,.6,5.75c.86,3.67,2.86,6.88,5.12,10.29a48.89,48.89,0,0,1,3.27,5.55,14.07,14.07,0,0,1,1.54,6.88,12.4,12.4,0,0,1-2.35,6.49A20.16,20.16,0,0,1,429,411.07Z"></path><path class="cls-3" d="M440.43,384.45a28.42,28.42,0,0,1-6.06-6.5,18.09,18.09,0,0,1-2.89-8.88,19.36,19.36,0,0,1,1.87-9.08,21.82,21.82,0,0,1,5.33-7.15c-.57,3-1.48,5.61-1.95,8.29a31.7,31.7,0,0,0-.72,7.72,26.47,26.47,0,0,0,1.55,7.52C438.44,378.91,439.67,381.54,440.43,384.45Z"></path><path class="cls-3" d="M332.16,451.65c3.73-1.23,7.5-2.32,11.25-3.47s7.54-2.2,11.31-3.29,7.55-2.12,11.34-3.11,7.57-2,11.37-3l.61-.16.66.25c4.67,1.69,9.34,3.38,14,5.16s9.27,3.56,13.87,5.42,9.16,3.82,13.73,5.78l6.82,3c2.24,1.1,4.73,1.55,6.36,4.19-3,.86-5.13-.49-7.52-1.19l-7.06-2.39c-4.69-1.64-9.38-3.26-14-5s-9.3-3.49-13.9-5.36-9.2-3.71-13.79-5.6l1.27.09c-3.83.84-7.68,1.59-11.52,2.39s-7.69,1.51-11.54,2.27-7.7,1.46-11.58,2.1S336.05,451.09,332.16,451.65Z"></path><path class="cls-3" d="M391.2,462.42a44.54,44.54,0,0,1,8.84-.25,75.51,75.51,0,0,1,17,3.1,44.2,44.2,0,0,1,8.19,3.37,43.2,43.2,0,0,1-8.85.25,74.58,74.58,0,0,1-17-3.11A43.6,43.6,0,0,1,391.2,462.42Z"></path><path class="cls-3" d="M416.57,481.59c-6.46,1.08-12.94,1.7-19.42,2.16s-13,.75-19.45.86a64.4,64.4,0,0,1-19.63-3.45c-3.14-1-6.19-2.16-9.21-3.36s-6-2.52-9.05-3.61a58.28,58.28,0,0,1,9.71,1.41l9.47,2a94.28,94.28,0,0,0,18.71,2.3q9.71-.17,19.42.18C403.59,480.34,410.07,480.74,416.57,481.59Z"></path><path class="cls-3" d="M379.36,474.19a85.31,85.31,0,0,1,12.22-1.57c4.07-.25,8.14-.32,12.2-.24s8.12.34,12.18.77a85.44,85.44,0,0,1,12.14,2.1,85.34,85.34,0,0,1-12.22,1.58q-6.11.38-12.2.23t-12.18-.77A86.88,86.88,0,0,1,379.36,474.19Z"></path><path class="cls-3" d="M324.24,463.37a19.54,19.54,0,0,1-2.53,7.65,11.39,11.39,0,0,1-2.75,3.19,6.46,6.46,0,0,1-4.32,1.35,6.69,6.69,0,0,1-4.16-2.11,11.7,11.7,0,0,1-2.32-3.77,19.6,19.6,0,0,1-1.1-8.43,19.39,19.39,0,0,1,3.12-7.92,11.49,11.49,0,0,1,3.16-3.09,6.74,6.74,0,0,1,4.55-1,6.5,6.5,0,0,1,3.87,2.37,11.19,11.19,0,0,1,1.89,3.76A19.4,19.4,0,0,1,324.24,463.37Zm-1.26-.16a16.2,16.2,0,0,0-.74-7.4,9.18,9.18,0,0,0-1.84-3.05,4.43,4.43,0,0,0-2.77-1.43c-2-.09-3.82,1.62-4.92,3.63A22.71,22.71,0,0,0,311,468.72c.58,2.21,1.91,4.31,3.9,4.72a4.48,4.48,0,0,0,3-.71,9.05,9.05,0,0,0,2.53-2.52A16.34,16.34,0,0,0,323,463.21Z"></path><path class="cls-3" d="M317.45,474a1.58,1.58,0,0,1-2.32-.42A9.18,9.18,0,0,1,313.9,472a11.9,11.9,0,0,1-1.44-3.67,19.61,19.61,0,0,1,0-7.71,18.28,18.28,0,0,1,3.28-7,17.23,17.23,0,0,1,2.67-2.73,14.12,14.12,0,0,1,1.59-1.12,1.68,1.68,0,0,1,1-.25,2.38,2.38,0,0,1,1.34.51,3,3,0,0,1-.59,2.1,13.21,13.21,0,0,0-1,1.17,30.29,30.29,0,0,0-1.9,2.56,17.63,17.63,0,0,0-2.69,5.56,14.33,14.33,0,0,0-.31,3.07,17.8,17.8,0,0,0,.25,3.11,18,18,0,0,0,.73,3,10.29,10.29,0,0,0,.58,1.36,3,3,0,0,1,.32.67A3.55,3.55,0,0,1,317.45,474Z"></path><path class="cls-3" d="M322.36,450c1.4-.74,2-.17,2.46.34a10.83,10.83,0,0,1,1.31,1.64,12.58,12.58,0,0,1,1.62,3.71,23.38,23.38,0,0,1-1.79,15.4,12.69,12.69,0,0,1-2.49,3.24,10.72,10.72,0,0,1-1.69,1.28,2,2,0,0,1-2.54-.36c0-1.44.14-1.89.49-2.26a8.81,8.81,0,0,0,.91-1.18,19.37,19.37,0,0,0,1.52-2.68,19.32,19.32,0,0,0,1.64-12.52,18.65,18.65,0,0,0-.8-3,13.19,13.19,0,0,0-.62-1.38C322.1,451.82,321.86,451.56,322.36,450Z"></path><path class="cls-3" d="M340.77,448.13s-16.13-1.91-18.12,6.65c0,0-3.77-4.93-5.55-4.54A21,21,0,0,1,340.77,448.13Z"></path><path class="cls-3" d="M328.93,481.06s-6.67-5-7.8-9.93c0,0-5.4,3.95-7.19,3.57C313.94,474.7,316.77,480.44,328.93,481.06Z"></path><path class="cls-3" d="M298.41,468.64c-14.47,3.34-29.2,4.45-43.86,6.17s-29.39,2.94-44.12,4.08-29.51,1.89-44.32,2.12c-7.41.07-14.82.07-22.25-.31-3.71-.17-7.42-.45-11.14-.8a79.8,79.8,0,0,1-11.28-1.81h0l-1.64-.44.13-1.68a380.42,380.42,0,0,1,5.33-39.35A384.5,384.5,0,0,1,134.48,398q2.86-9.51,6.27-18.84t7.61-18.36c2.82-6,5.88-11.89,9.23-17.62a171.84,171.84,0,0,1,11.19-16.49l2.29,1.78a168.74,168.74,0,0,0-10.84,16.25q-4.87,8.5-8.95,17.42t-7.37,18.18q-3.3,9.24-6,18.67A379.62,379.62,0,0,0,129,437.3a375.07,375.07,0,0,0-5,38.92l-1.51-2.12h0c1.55.36,3.43.64,5.19.88s3.59.45,5.4.63c3.63.34,7.27.62,10.93.79q11,.51,22,.46c14.7-.08,29.41-.73,44.1-1.7s29.4-2.12,44.09-3.33S283.58,468.74,298.41,468.64Z"></path><path class="cls-3" d="M151.64,430.26c6.86-1.93,13.37-4.72,20-7.32a135.06,135.06,0,0,1,20.52-6.54,91.84,91.84,0,0,1,21.63-2.18,104.76,104.76,0,0,1,21.6,2.71c14.16,3.27,27.42,9.17,40.09,15.71s24.87,13.86,38.12,19a7,7,0,0,1-2.7-.28c-.87-.23-1.73-.5-2.58-.78-1.71-.54-3.38-1.16-5.06-1.8-3.34-1.29-6.62-2.7-9.88-4.14-6.53-2.88-13-5.87-19.49-8.69-13-5.67-26-11.06-39.61-14.34a102.27,102.27,0,0,0-41.44-1.73A164,164,0,0,0,172.36,425C165.57,427,158.71,429.27,151.64,430.26Z"></path><path class="cls-3" d="M156.13,338.3a3.74,3.74,0,0,1-1.75-2.44,4.55,4.55,0,0,1,.53-3.15,10.12,10.12,0,0,1,4.48-4,24.63,24.63,0,0,1,11.23-2.15c7.63.14,15,2.69,21.65,5.76s13.54,7.06,18.39,13.31A34,34,0,0,1,216.15,356a36.94,36.94,0,0,1,1.73,11.42l-3.83-1.61c1.95-2.31,4-4.75,6-7.18s3.91-4.92,5.78-7.45c1-1.24,1.8-2.57,2.76-3.83s1.84-2.58,2.71-3.91c1.88-2.6,3.56-5.31,5.63-8a37.42,37.42,0,0,1-2.36,9.69,51.06,51.06,0,0,1-4.44,8.91,62.61,62.61,0,0,1-5.8,8.11,48,48,0,0,1-7.19,7l-3.42,2.64-.41-4.25a52.33,52.33,0,0,0-1.8-10.15,30.05,30.05,0,0,0-4.43-9.08c-4-5.54-10-9.48-16.4-12.64a76.75,76.75,0,0,0-9.83-4.22,43.3,43.3,0,0,0-10.33-2.16,22.18,22.18,0,0,0-10.2,1.33,8.09,8.09,0,0,0-3.79,2.94A5.83,5.83,0,0,0,156.13,338.3Z"></path><path class="cls-3" d="M156.48,321.31c1.71-4.87,4.56-9.09,7.31-13.37s5.79-8.38,9-12.35a142.2,142.2,0,0,1,10.39-11.29,103.65,103.65,0,0,1,11.64-10l3.14-2.21a32.53,32.53,0,0,1,3.49-2.15,30.73,30.73,0,0,1,7.66-2.72,49.62,49.62,0,0,1,15.73-.57,83.33,83.33,0,0,1,15.1,3.24c2.44.76,4.86,1.59,7.24,2.5s4.84,1.64,6.66,3.9c-2.87.39-5.11-.68-7.53-1.37s-4.8-1.37-7.22-1.94a94.34,94.34,0,0,0-14.61-2.42,45.65,45.65,0,0,0-14.38.91,25.86,25.86,0,0,0-6.49,2.51,24.12,24.12,0,0,0-2.9,1.91l-3,2.29c-3.88,3.1-7.86,6.08-11.58,9.38A147.85,147.85,0,0,0,175.5,298q-5.15,5.44-9.74,11.4C162.63,313.29,160,317.53,156.48,321.31Z"></path><path class="cls-3" d="M336.56,311.21c7.52-1.66,15.58-.14,22.71,3s13.45,8.19,18.78,13.9a91.48,91.48,0,0,1,13.16,19.26A140.1,140.1,0,0,1,400,368.78l1.14,3.5-3.69-.44a56.07,56.07,0,0,0-11.53-.22,40.82,40.82,0,0,0-11.25,2.44,24.91,24.91,0,0,0-9.53,6.25,26.61,26.61,0,0,0-5.78,10.27A23.74,23.74,0,0,1,363.61,379a25.59,25.59,0,0,1,9.73-8.06,41,41,0,0,1,12.14-3.55,57.35,57.35,0,0,1,6.27-.49,41.74,41.74,0,0,1,6.38.26l-2.55,3.05a171.13,171.13,0,0,0-8.6-20.74,101.14,101.14,0,0,0-12.06-18.69,60.11,60.11,0,0,0-16.83-14.24C351.61,313.07,344.2,310.81,336.56,311.21Z"></path><path class="cls-3" d="M347.91,350.74a206.54,206.54,0,0,0-.39,24c.31,8,.9,15.95,1.88,23.86s2.19,15.79,3.85,23.57,3.56,15.49,5.69,23.12l-5.85,1.51c-1.69-7.92-3.25-15.86-4.31-23.86s-1.88-16-2.39-24.07-.58-16.1-.38-24.13A204.63,204.63,0,0,1,347.91,350.74Z"></path><path class="cls-3" d="M159.29,343.32s-8.72-7.63-3.23-12,13.86-3.72,13.86-3.72Z"></path><g class="cls-1"><path class="cls-2" d="M271,325.14c13.36,48,33.78,35.59,40.53,25.6s14.71-35.31,14.71-35.31,36-2.82,56,47.28c7.62,15.57,41.17,56.91,41.17,56.91l-2.92-.05-19.71.05-3,10.8,7.48-.16v7.79h-3.75a63.51,63.51,0,0,0,.66,6.71c.56,3.8-1.69,5.28-1.69,5.28l-21.14-9.16s-11.83,2.45-19.34,4.22c-3.06.72-4.49.14-5.13-.78-.69,3.86-4.82,3.12-4.82,3.12l-7.33,1.72s-4.93-3.83-14.22-2.15-8.59,3.08-8.59,3.08-4.31,0-5.65,1.08-8.83-.89-23.93-9.21-40.19-20.91-57.73-23.2-6.82-1.24-6.82-1.24-2.76-5-.93-16.39c3.28-20.42,14.08-18.15,21.39-43.48s.22-30.57-5.63-53.48c-3.37-13.23-3.8-24.63,1.27-24.2s14.78,5.34,18.58,12.59S267.34,311.88,271,325.14Z"></path></g><g class="cls-1"><polygon class="cls-2" points="502.1 488.56 493.54 450.09 486.81 421.01 444.76 420.09 447.6 430.42 441.59 430.42 441.31 438.05 445.27 438.05 440.75 487.59 502.1 488.56"></polygon></g><g class="cls-1"><polygon class="cls-2" points="438.54 419.62 423.4 419.62 444.76 420.09 444.63 419.62 438.54 419.62"></polygon></g><path class="cls-3" d="M580.5,177.14c-8.91,0-17.77.1-26.62.17l-26.56.5-13.27.31c-4.43,0-8.85.2-13.28.2l-13.29.07-6.65,0a13,13,0,0,1-6.72-1.29,12.54,12.54,0,0,1,6.56-2l6.65-.56c4.43-.4,8.87-.65,13.31-.9s8.88-.34,13.32-.46,8.9-.05,13.34-.05c8.9.13,17.79.41,26.67,1S571.71,175.73,580.5,177.14Z"></path><path class="cls-3" d="M930.08,417.63c-1.5-1.44-1-2.78-1.07-4.15s0-2.73,0-4.1c-.09-2.73-.18-5.46-.45-8.17s-.59-5.43-.93-8.13c-.2-1.34-.47-2.68-.71-4l-.36-2-.47-2a89.39,89.39,0,0,0-12.31-29.88,71.42,71.42,0,0,0-23-22.27A62.24,62.24,0,0,0,876,326.46a45.26,45.26,0,0,0-15.7-1.9l1.33-.81h0c-4.38,8.26-7.15,17.89-6.38,27.07a29.19,29.19,0,0,0,4.14,12.92,35.11,35.11,0,0,0,9.47,9.9,73.65,73.65,0,0,0,12.41,6.94,59.5,59.5,0,0,0,13.53,4.23,50.21,50.21,0,0,0,14.06.45A62.43,62.43,0,0,0,923,382.34c-3.61,3.61-8.57,5.64-13.57,6.64a46.76,46.76,0,0,1-15.3,0,61.56,61.56,0,0,1-14.63-4.24,77.79,77.79,0,0,1-13.35-7.31,38,38,0,0,1-10.69-11.33,33.75,33.75,0,0,1-4.66-14.95,43.67,43.67,0,0,1,1.77-15.3,54.82,54.82,0,0,1,6.14-14h0l.45-.75.88-.06A47.75,47.75,0,0,1,877,323.18,65.2,65.2,0,0,1,892.44,330a74.69,74.69,0,0,1,24,23.4,86.15,86.15,0,0,1,7.66,15,90.36,90.36,0,0,1,4.79,16.06l.43,2.05.34,2.06c.21,1.38.46,2.75.64,4.13.29,2.77.66,5.54.77,8.32s.26,5.55.29,8.33c0,1.39,0,2.77-.05,4.16S931.64,416.31,930.08,417.63Z"></path><path class="cls-3" d="M874.06,342c-.32,2.22-.65,4.62.25,6.35s2.77,2.39,4.81,2.93,4.3.87,6.54,1.29a59.69,59.69,0,0,1,6.74,1.75c1.11.38,2.2.84,3.28,1.32a16.38,16.38,0,0,1,3.23,1.92,10.82,10.82,0,0,1,4,6.51,23.51,23.51,0,0,1-.1,7.08,8.85,8.85,0,0,0,0,3.13,3.26,3.26,0,0,0,2.17,2.13,4.43,4.43,0,0,1-1.71-.42,3.4,3.4,0,0,1-1.34-1.32,9.14,9.14,0,0,1-.88-3.53,28.61,28.61,0,0,0-.83-6.42,8.43,8.43,0,0,0-3.37-4.51,16.25,16.25,0,0,0-2.63-1.45c-1-.41-2-.8-3-1.14-4.1-1.48-8.48-2.15-13-3.75a13.53,13.53,0,0,1-3.3-1.72,6.11,6.11,0,0,1-2.3-3.22C872.07,346.28,873.05,344,874.06,342Z"></path><path class="cls-3" d="M934.46,401a133.19,133.19,0,0,1,2-24.88,73.05,73.05,0,0,1,8.37-23.66,48.53,48.53,0,0,1,17.85-17.91,55.53,55.53,0,0,1,24.41-7.08l1.73-.08.1,1.65h0a79.73,79.73,0,0,1-.66,21.87,62.31,62.31,0,0,1-2.73,10.73,46.53,46.53,0,0,1-4.86,10.14,37.06,37.06,0,0,1-7.53,8.59,33.59,33.59,0,0,1-10,5.6,29.67,29.67,0,0,1-21.92-.49c7.3-1.07,14-1.65,20.26-4A30.67,30.67,0,0,0,976.26,369a57.34,57.34,0,0,0,7.2-19,103.46,103.46,0,0,0,2-20.7h0l1.84,1.56a88.69,88.69,0,0,0-12,2,51.38,51.38,0,0,0-11.29,4.24,46.35,46.35,0,0,0-17.56,16.39,71.47,71.47,0,0,0-9,22.83,122.85,122.85,0,0,0-2.09,12.25C934.91,392.73,934.63,396.87,934.46,401Z"></path><path class="cls-3" d="M973.82,337.15A16.5,16.5,0,0,1,970.9,343c-1.32,1.75-2.78,3.35-4.13,4.92a19.12,19.12,0,0,0-3.2,4.89,10.55,10.55,0,0,0-.71,5.41c0,.4,0,1.07.06,1.7a6.82,6.82,0,0,1-.1,1.86,10.91,10.91,0,0,1-.4,1.82c-.21.57-.42,1.16-.66,1.71a17.71,17.71,0,0,1-4.42,5.35,26,26,0,0,1-5.59,3.56,29.38,29.38,0,0,1-6.12,2.18,53.26,53.26,0,0,0,9.85-7.73,17.82,17.82,0,0,0,3.28-4.75c.13-.44.28-.86.43-1.29a8.28,8.28,0,0,0,.25-1.3,4.42,4.42,0,0,0,0-1.31c0-.43,0-.83-.08-1.49a13.33,13.33,0,0,1,1.17-7.07,18.73,18.73,0,0,1,4.25-5.41C968,343.06,971.45,340.81,973.82,337.15Z"></path><path class="cls-3" d="M974.37,415.3a1.66,1.66,0,0,1-1.12.76c-.44.1-.88.17-1.32.23-.87.13-1.75.22-2.62.31-1.75.18-3.5.31-5.25.43-3.5.23-7,.4-10.51.54q-10.51.4-21,.51c-7,.07-14,.06-21-.07-3.51-.06-7-.16-10.53-.32-1.76-.08-3.52-.17-5.29-.31-.88-.07-1.77-.15-2.66-.26-.45-.06-.9-.12-1.38-.21-.23,0-.48-.1-.74-.17l-.47-.17a2.55,2.55,0,0,1-.38-.24l-.1-.07a2.38,2.38,0,0,1-.2-.25,1.52,1.52,0,0,1-.23-.71,1.45,1.45,0,0,1,.23-.7,1.31,1.31,0,0,1,.2-.26l.1-.07a2.13,2.13,0,0,1,.38-.24,4.51,4.51,0,0,1,.46-.17c.27-.07.52-.13.75-.17.47-.09.92-.15,1.38-.21.89-.11,1.78-.19,2.66-.26,1.77-.14,3.53-.24,5.28-.32,3.52-.16,7-.26,10.54-.32,7-.13,14-.14,21-.08s14,.24,21,.52c3.5.14,7,.31,10.51.54,1.75.12,3.5.25,5.25.42.88.09,1.75.19,2.63.32a4,4,0,0,1,1.29.34c.21.08.41.18.61.28S974.29,415.09,974.37,415.3Zm0,0a83.45,83.45,0,0,0-10.36-.91c-3.49-.15-7-.24-10.49-.3q-10.5-.16-21,0c-7,.07-14,.21-21,.47-3.5.13-7,.29-10.48.52-1.74.11-3.48.24-5.2.41-.86.08-1.72.18-2.56.3-.42.06-.83.12-1.22.2l-.53.13-.16.06a.38.38,0,0,0,.11-.07l0,0a1.19,1.19,0,0,0,.17-.19.89.89,0,0,0,.14-.56.85.85,0,0,0-.15-.56.76.76,0,0,0-.16-.18l0,0a.58.58,0,0,0-.11-.07l.16.06a4.58,4.58,0,0,0,.53.13c.38.08.8.15,1.22.21.84.12,1.7.21,2.56.3,1.72.17,3.46.3,5.2.41q5.24.33,10.47.52c7,.26,14,.4,21,.47s14,.09,21,0c3.5,0,7-.14,10.49-.29A77.9,77.9,0,0,0,974.37,415.3Z"></path><path class="cls-3" d="M967,431.35,961.13,487,961,488.1l-1.1,0c-9.19.27-18.37.36-27.56.45l-13.78,0q-6.89,0-13.78-.13l-1.33,0-.22-1.35c-.74-4.62-1.3-9.26-2-13.89s-1.16-9.27-1.68-13.92-1-9.29-1.5-13.94l-.68-7-.34-3.49-.16-1.75c-.1-.58-.14-1.16,1.17-1.91,1.45.42,1.55,1,1.59,1.58l.25,1.73.5,3.47,1,6.94c.61,4.64,1.27,9.26,1.84,13.9s1.14,9.28,1.67,13.92,1,9.29,1.4,14l-1.56-1.37q6.9-.12,13.78-.14l13.78,0c9.19.08,18.37.17,27.56.44l-1.22,1.09,6.16-55.66Z"></path><path class="cls-3" d="M891.77,415.19,893.23,430v.11a.82.82,0,0,0-.24-.61l-.09-.08.11,0a3.7,3.7,0,0,0,.49.14c.36.08.75.15,1.15.21.8.12,1.62.21,2.44.28,1.65.16,3.31.26,5,.35,3.33.18,6.68.28,10,.36q10,.21,20.11.12t20.1-.44c3.35-.09,6.69-.26,10-.4,1.67-.07,3.33-.15,5-.27.83-.07,1.65-.14,2.45-.23.4-.05.8-.11,1.17-.18l.5-.11.13,0s0,0-.1.07a1,1,0,0,0-.35.79V430q.42-3.7,1.06-7.39a67.44,67.44,0,0,1,1.64-7.34,67.51,67.51,0,0,1,.12,7.52c-.08,2.49-.22,5-.45,7.45v-.12a1.32,1.32,0,0,1-.51,1.05,2.66,2.66,0,0,1-.37.24l-.46.18c-.26.08-.49.14-.72.19-.46.1-.89.17-1.32.24-.86.13-1.71.23-2.56.32-1.69.18-3.37.32-5.06.44-3.37.23-6.73.32-10.1.43-6.73.16-13.45.17-20.17.15s-13.45-.08-20.18-.28c-3.36-.1-6.73-.22-10.09-.42-1.69-.1-3.38-.22-5.07-.39-.85-.09-1.7-.19-2.56-.32-.43-.07-.86-.14-1.32-.25-.23-.06-.46-.12-.72-.21a3.07,3.07,0,0,1-.47-.22,1.38,1.38,0,0,1-.34-.26,1.3,1.3,0,0,1-.38-.89v.11l-1.57-14.84Z"></path><g class="cls-1"><path class="cls-2" d="M606,375.64l-34.9,102.6h68.67s8,6.41,3.24-8-21.62-94.62-21.62-94.62Z"></path></g><path class="cls-3" d="M746.93,191.79a11.2,11.2,0,0,1,4.15-6.6,10.74,10.74,0,0,1,8.32-2.11,13.26,13.26,0,0,1,7.17,4.15,22.33,22.33,0,0,1,2.18,3.2,19.83,19.83,0,0,1,1.28,3.63,26.12,26.12,0,0,1-3.21-1.88c-1-.6-2-1.16-2.91-1.75a20.79,20.79,0,0,0-5.41-2.14,11.11,11.11,0,0,0-5.37.5A37.71,37.71,0,0,0,746.93,191.79Z"></path><path class="cls-3" d="M720.53,196.17a11.8,11.8,0,0,1,.92-7.12,9.61,9.61,0,0,1,2.38-3.24,7.52,7.52,0,0,1,4.3-1.86,8,8,0,0,1,4.44,1,10.63,10.63,0,0,1,3,2.49,13.59,13.59,0,0,1,3,6.44c-2.19-1.09-4-2.32-5.72-3.27a8.4,8.4,0,0,0-4.32-1.4,4,4,0,0,0-1.68.56,10.87,10.87,0,0,0-2,1.58C723.52,192.71,722.17,194.38,720.53,196.17Z"></path><path class="cls-3" d="M746.82,245.58a21.92,21.92,0,0,0,5.41-.26,15.83,15.83,0,0,0,3.4-1.21,32.54,32.54,0,0,0,3.56-2c1.32-.85,2.72-1.85,4.58-3.29a8,8,0,0,1-.19,6.67,10.19,10.19,0,0,1-4.94,5,9.18,9.18,0,0,1-7.42.27A7.24,7.24,0,0,1,746.82,245.58Z"></path><ellipse class="cls-3" cx="760.99" cy="207.91" rx="3.6" ry="8.67" transform="translate(-23.87 128.31) rotate(-9.49)"></ellipse><ellipse class="cls-3" cx="732.15" cy="210.59" rx="3.6" ry="8.67" transform="translate(-22.82 108.56) rotate(-8.35)"></ellipse><path class="cls-3" d="M740.34,253.8c2.79,2.64,5.09,5.42,7.82,7.53a20.39,20.39,0,0,0,8.32,4.49,11.57,11.57,0,0,0,8.59-1.37,21.51,21.51,0,0,0,7.22-7.34,14.3,14.3,0,0,1-4.73,10.68,13.51,13.51,0,0,1-2.59,1.88,11.76,11.76,0,0,1-1.49.68,8.73,8.73,0,0,1-1.56.54,13.49,13.49,0,0,1-3.28.44l-1.67,0c-.54-.06-1.07-.19-1.61-.3a18.33,18.33,0,0,1-10.19-6.78A25.55,25.55,0,0,1,740.34,253.8Z"></path><path class="cls-3" d="M756.32,292.35a74.2,74.2,0,0,0,1.48,10.43,68.5,68.5,0,0,0,2.87,10.07,73.65,73.65,0,0,0,4.22,9.52,56.59,56.59,0,0,0,5.54,8.64l-2.32,0,21.78-27.71,10.9-13.85,11-13.75,1-1.24,1.61.27h0c7.57,2.67,15.27,3.87,23,5.65A129.37,129.37,0,0,1,860,287.72,140.25,140.25,0,0,1,880.93,299a110.74,110.74,0,0,1,18.56,15.06l2,2.06-2.82,1c-7.84,2.67-15.55,5.87-23.19,9.21l-1.69-4c7.79-3.2,15.65-6.25,23.73-8.79l-.81,3a84.43,84.43,0,0,0-8.42-7.76q-4.49-3.64-9.31-6.88a123.08,123.08,0,0,0-20.36-11,125.64,125.64,0,0,0-22-7.07c-7.62-1.59-15.27-3.55-23.12-3.66h0l2.61-1-11.32,13.5L793.33,306.1l-22.91,26.79-1.26,1.48-1.07-1.49a58,58,0,0,1-5.35-9.44A66.4,66.4,0,0,1,759,313.39a69.49,69.49,0,0,1-2.16-10.45A73.66,73.66,0,0,1,756.32,292.35Z"></path><path class="cls-3" d="M753.7,232.59a11.94,11.94,0,0,1-2.7,3.63,10.31,10.31,0,0,1-4.24,2.44,10.51,10.51,0,0,1-5.23.14,11.11,11.11,0,0,1-2.51-.86,10.25,10.25,0,0,1-1.18-.63,9.63,9.63,0,0,1-1.22-.89l-1.84-1.57,1.8-2.51.47-.66c.18-.27.37-.54.55-.84a17.38,17.38,0,0,0,1-1.81,27.36,27.36,0,0,0,1.56-3.92,38.71,38.71,0,0,0,1.6-8.55,65.74,65.74,0,0,0,0-9.1c-.16-3.1-.54-6.25-.86-9.52a36.61,36.61,0,0,1,6.28,18.69A30.55,30.55,0,0,1,746,226.9a25.77,25.77,0,0,1-2,4.91,23.08,23.08,0,0,1-1.43,2.3c-.26.38-.54.75-.84,1.12s-.57.67-1.07,1.16l0-4.09a2.72,2.72,0,0,0,.45.43c.2.16.4.33.62.48A9.07,9.07,0,0,0,743,234a8.21,8.21,0,0,0,3.15.78,10.71,10.71,0,0,0,3.65-.54A26.54,26.54,0,0,0,753.7,232.59Z"></path><path class="cls-3" d="M813.67,278.84c-11.82-14.87-19.51-51.65-21-56.08a.63.63,0,0,1,.86-.77c3.36,1.47,5.28,5.3,11.59-3.78,11.11-16-5.84-44.47-18.34-8.61a.65.65,0,0,1-1.16.14c-10.26-16.55-7.35-34.29-6.46-38.5a.62.62,0,0,0-.75-.74c-102.86,20.25-84.47-49.65-63-53.21S764.17,152,799,149.58c25.24-1.74,58.63,55.24,37.38,132.36l-22.66-3.1"></path><circle class="cls-3" cx="821.94" cy="154.16" r="28.85"></circle><path class="cls-3" d="M742.18,457.7a349.92,349.92,0,0,1,37.16,3.06c6.14.81,12.29,1.62,18.44,2.35s12.33,1.24,18.51,1.64a334.28,334.28,0,0,0,37,.59,116.32,116.32,0,0,0,18.11-2.06,31.75,31.75,0,0,0,8.17-2.8,9,9,0,0,0,2.87-2.4,4.57,4.57,0,0,0,.82-3.13l0-.18v-.1c.31-6,.34-12,.24-18s-.27-12.05-.55-18.07-.74-12-1.28-18c-.27-3-.57-6-.92-9s-.75-6-1.32-8.92l4.74-.61c.3,6.09,1.13,12.11,1.47,18.18s.74,12.12,1,18.18.4,12.12.44,18.19l0,18.21v-.27a8.4,8.4,0,0,1-1.31,5.73,12.62,12.62,0,0,1-4.06,3.72,31.75,31.75,0,0,1-9.3,3.45,102,102,0,0,1-18.87,2.09c-12.56.39-25-.41-37.44-1.31l-18.62-1.54c-6.21-.48-12.41-1-18.6-1.72A203,203,0,0,1,742.18,457.7Z"></path><path class="cls-3" d="M657.05,449.91c.58-3.32,2.93-5.93,5.53-7.68a45,45,0,0,1,8.36-4.31,66.14,66.14,0,0,1,8.83-2.82,77.82,77.82,0,0,1,9.15-1.73l.35,0,.4.09c7.4,1.65,14.83,3.23,22.27,4.69s14.91,3,22.26,3.8c.92.11,1.8.15,2.68.2s1.85,0,2.78,0c1.88,0,3.75,0,5.63-.09l5.64-.25,5.63-.41c7.5-.66,15-1.65,22.45-2.87s14.92-2.62,22.37-4.17c3.73-.76,7.46-1.51,11.24-2.21,1.88-.37,3.79-.67,5.7-1s3.89-.52,5.77-.68c7.61-.65,15.46-1.24,23.31.33a30.13,30.13,0,0,1,11.14,4.47,20,20,0,0,1,7.34,9.22,44.67,44.67,0,0,0-9-6.44,32.2,32.2,0,0,0-10.17-3.35c-7.17-1.13-14.68-.62-22.19.08s-14.82,2.18-22.27,3.68-14.93,3.1-22.47,4.43S764.61,445.28,757,446l-5.75.44-5.76.27c-1.92.12-3.85.07-5.78.11-1,0-1.89.06-2.92,0s-2-.09-3-.21c-15.44-1.82-30.2-5.22-45.12-8.57l.75.05a76.75,76.75,0,0,0-8.56,1.42,74.21,74.21,0,0,0-8.37,2.39,41.93,41.93,0,0,0-7.75,3.64C662.24,447,660,448.37,657.05,449.91Z"></path><path class="cls-3" d="M705.88,445.88c-4.33.62-8.56.94-12.73,1.37-2.08.22-4.15.43-6.16.74a29.84,29.84,0,0,0-5.65,1.29,33.16,33.16,0,0,0-5.09,2.78c-1.72,1.11-3.44,2.3-5.16,3.5-3.46,2.39-6.89,4.91-10.59,7.22a58.89,58.89,0,0,1,8.25-10,55.47,55.47,0,0,1,5-4.32,26.78,26.78,0,0,1,6-3.55,25.4,25.4,0,0,1,6.81-1.36,46.91,46.91,0,0,1,6.6,0A51.73,51.73,0,0,1,705.88,445.88Z"></path><path class="cls-3" d="M717.73,449.91c-1.53.48-3,1-4.54,1.54s-3,1.06-4.46,1.63a38.9,38.9,0,0,0-8.21,4c-2.35,1.73-4.51,4.12-6.89,6.11s-4.69,4.13-8.8,4.35c.55-4.09,3.09-6.12,5.47-8.3a34.21,34.21,0,0,1,4-2.85,45.64,45.64,0,0,1,4.36-2.52,26.59,26.59,0,0,1,4.79-1.72c1.59-.42,3.17-.81,4.77-1.08A85.7,85.7,0,0,1,717.73,449.91Z"></path><path class="cls-3" d="M856.58,334.74q-7.4,2.83-14.75,5.77c-4.9,2-9.8,3.93-14.62,6.1,4.48-2.81,9.09-5.43,13.68-8.05s9.23-5.18,13.86-7.74Z"></path><path class="cls-3" d="M726.88,329.31c-.76.75-1,.46-1.21.32l-.78-.44-1.5-.93c-1-.61-1.95-1.27-2.93-1.9q-2.91-1.94-5.76-3.93c-3.78-2.69-7.58-5.36-11.28-8.16s-7.4-5.57-11-8.47-7.25-5.77-10.82-8.67l-2-1.62,2.1-1.33c4.1-2.6,8.26-4.89,12.54-7.07s8.61-4.15,13-6a129.8,129.8,0,0,1,13.56-4.65,93.58,93.58,0,0,1,14-2.73,121.5,121.5,0,0,0-13.58,4.11c-4.4,1.7-8.75,3.51-13,5.54s-8.43,4.22-12.54,6.5-8.16,4.74-12,7.29l.11-2.95c3.73,2.8,7.35,5.65,11,8.52s7.24,5.75,10.84,8.65l10.75,8.75c1.79,1.45,3.59,2.9,5.41,4.32.91.7,1.81,1.42,2.73,2.09l1.39,1,.69.47C726.84,328.24,727.15,328.25,726.88,329.31Z"></path><path class="cls-3" d="M836.78,432q-1.78-16.47-3-32.94c-.39-5.5-.72-11-.92-16.51s-.34-11,0-16.51c.1,5.5.64,11,1.24,16.43s1.32,10.9,2.11,16.33c1.58,10.86,3.39,21.71,5.36,32.49Z"></path><path class="cls-3" d="M732.33,308c.69,6-.41,11.9-2,17.6-.75,2.86-1.6,5.69-2.51,8.49L725,342.36a170.31,170.31,0,0,0-5.26,16.54,66.36,66.36,0,0,0-2.12,16.88,65.55,65.55,0,0,0,2.15,16.78,80.73,80.73,0,0,0,6.35,15.79c2.6,5.16,5.48,10.48,7.32,16.42a48.79,48.79,0,0,1,1.93,18.44l-6-.56A42.76,42.76,0,0,0,728,426.36c-1.49-5.31-4.06-10.42-6.59-15.75a85.09,85.09,0,0,1-6.28-16.88,69.66,69.66,0,0,1-1.86-18A76.93,76.93,0,0,1,716,358c1.56-5.76,3.54-11.33,5.61-16.81l3-8.2c1-2.72,2-5.45,2.86-8.2C729.27,319.21,730.58,313.65,732.33,308Z"></path><path class="cls-3" d="M702.72,323.45,700,335.14l-2.83,11.64L691.48,370c-2,7.73-3.78,15.49-5.62,23.24-.94,3.86-1.81,7.74-2.66,11.62L682,410.71l-1.11,5.8-4-.59a221.4,221.4,0,0,1,4.73-23.68c1.91-7.78,4.07-15.49,6.25-23.18s4.59-15.33,7.07-22.93l3.8-11.38C700,331,701.3,327.19,702.72,323.45Z"></path><path class="cls-3" d="M697.93,422.94c-5-.4-9.77-2-14.41-3.26a66.73,66.73,0,0,0-14-2.42l-3.56-.14-3.57.08c-2.39.1-4.78.25-7.18.53-4.82.44-9.61,1.32-14.55,1.89a64.81,64.81,0,0,1,14.07-4.83,54.32,54.32,0,0,1,15-1.34l3.79.41c1.25.24,2.51.4,3.74.7a52.56,52.56,0,0,1,7.2,2.31C689.12,418.7,693.36,421,697.93,422.94Z"></path><path class="cls-3" d="M549,333.09a97.81,97.81,0,0,0-7.85-6.11c-2.93-2.1-6.12-4.44-9.24-6.93l2.08.86-37.32-1L459.35,319l-.87,0-.12-1c-.42-3.62-.67-7.25-.81-10.87s-.19-7.24-.14-10.87.08-7.24.22-10.87.34-7.24.67-10.86l.09-1,1,0q11.2-.49,22.4-.7l11.19-.19,11.2-.07,22.39-.12,22.39,0h2.15v2.16l.06,15.2c0,5.11,0,10.27-.12,15.4s-.34,10.2-.59,15.15l-.38,7.33C549.93,330,549.64,332.16,549,333.09Zm-.16-.4a79.54,79.54,0,0,1-1.05-9.09l-.38-7.27c-.25-4.78-.48-9.45-.59-14s-.13-9.18-.12-13.81l.06-14,2.16,2.15-22.39,0-22.39-.12-11.2-.07-11.19-.19q-11.21-.19-22.4-.7l1.06-1.05c.33,3.62.54,7.24.67,10.86s.21,7.25.22,10.87,0,7.25-.14,10.87-.39,7.25-.81,10.87l-1-1,37.32-.93L534,315l1.42,0,.67.9c1.85,2.49,3.64,5.12,5.69,8A97.5,97.5,0,0,0,548.84,332.69Z"></path><path class="cls-3" d="M565.69,292.36a38.17,38.17,0,0,1,2.64-5.15,41.89,41.89,0,0,1,4-4.79l.39-.43h.45c10.72-.44,21.43-.68,32.15-.79l8-.1h8c5.36,0,10.71.14,16.07.39l-1.5,1.51c-.11-3-.19-5.91-.2-8.87s0-5.91,0-8.87,0-5.91.13-8.87a82.94,82.94,0,0,1,.77-8.87l.79.79c-6.05.21-12.1.42-18.15.54l-18.16.42c-6,.16-12.1.23-18.15.31s-12.11.08-18.16,0l2.09-2.09c0,7.62-.06,15.06-.37,22.56l-.49,11.31-.26,5.72C565.7,289,565.63,291,565.69,292.36ZM564,298c.06-2.58,0-4.62-.1-6.66l-.26-6.2-.49-12.52c-.3-8.39-.39-16.83-.37-25.1v-2.07l2.08,0q9.07-.08,18.16,0c6,.08,12.1.15,18.15.31l18.16.43c6.05.11,12.1.32,18.15.53l.68,0,.11.77a82.94,82.94,0,0,1,.77,8.87c.11,3,.09,5.91.14,8.87s0,5.91,0,8.87S639.06,280,639,283l-.05,1.44-1.46.06c-5.36.26-10.71.36-16.07.39h-8l-8-.09c-10.72-.12-21.43-.35-32.15-.79l.85-.44a64.18,64.18,0,0,1-4.36,7.39A83.39,83.39,0,0,1,564,298Z"></path><path class="cls-3" d="M601.13,272.75c2-.36,4.11-.63,6.16-.89s4.1-.47,6.15-.66l6.16-.51,6.16-.38-2.44,2.44c-.08-1.2-.11-2.41-.17-3.61l-.14-3.6c-.08-2.41-.12-4.81-.16-7.22l2.91,2.91q-12.56.18-25.1-.43c-4.18-.25-8.36-.5-12.55-.9s-8.36-.85-12.54-1.58c4.18-.72,8.36-1.16,12.54-1.57s8.37-.65,12.55-.9q12.55-.61,25.1-.44l3,0-.05,2.87c0,2.41-.08,4.81-.17,7.22l-.13,3.6c-.06,1.2-.09,2.41-.18,3.61l-.18,2.57-2.25-.14-6.16-.37-6.16-.52c-2.05-.18-4.1-.42-6.15-.65S603.18,273.11,601.13,272.75Z"></path><polygon class="cls-3" points="99.6 488.84 83.3 365.38 82.99 363.02 85.27 363.13 128.76 365.12 85.27 367.11 87.25 364.86 103.87 488.27 99.6 488.84"></polygon><g class="cls-1"><polygon class="cls-2" points="459.35 274.49 508.01 317.96 533.99 317.96 548.92 332.89 548.92 274.49 459.35 274.49"></polygon></g><g class="cls-1"><path class="cls-2" d="M883.08,327.14s5.22,16.25,2.24,27l9.7,3s2.68,15.69-4.37,28.93c0,0,14.81,2.65,21.78.38s14.11-5.84,14-6.38S918.29,341.52,883.08,327.14Z"></path></g><g class="cls-1"><path class="cls-2" d="M936.55,378.22s.59,10.09,13.2,7.8,26.3-5,33.7-26.24,3.73-30.57,3.73-30.57-22.61,1-33.68,13.89S936.55,378.22,936.55,378.22Z"></path></g><g class="cls-1"><path class="cls-2" d="M148.2,365.12H85.27L100.9,482.29s-2.68,6.39,8.86,6.27,294,0,294,0l-.84-6.73s-29.83,2.75-41.23-1.75-36.31.56-36.31.56l-8.25-4.54-4.84-1.91s-11.11-5.51-26.73-4S203.2,479,174.35,479c-25.7,0-52.35-2.86-52.35-2.86s2.68-34.86,7.18-51.19S148.2,365.12,148.2,365.12Z"></path></g></g></g></svg>