<svg xmlns="http://www.w3.org/2000/svg" viewBox="0 0 1005.98 637.06"><defs><style>.cls-1{fill:none;}.cls-2{opacity:0.15;}.cls-3{fill:#1a3141;}.cls-4{fill:#293b4a;}.cls-5{fill:#19ad4a;}</style></defs><g id="Layer_2" data-name="Layer 2"><g id="ARTWORK"><path class="cls-1" d="M691.77,187a28.7,28.7,0,0,0-4.14-3.11c-.23-.14-.46-.26-.69-.38a17.1,17.1,0,0,1,5,1.16l.57,0a16.12,16.12,0,0,1,1.61-.89A17.65,17.65,0,0,0,691.77,187Z"></path><g class="cls-2"><path class="cls-3" d="M663.52,103.11l13.71,27.81s2.78-7.65,1.16-11.78-6.71-16.22-3.73-16Z"></path></g><g class="cls-2"><path class="cls-3" d="M326,455.94S270.55,607.4,257,620.59s15.14,2.25,16.75-5.49,8.47-21.34,11.81-27.23,48.77-79.41,53.28-129.67S326,455.94,326,455.94Z"></path></g><g class="cls-2"><path class="cls-3" d="M414.88,458.52c.64,11.92.06,21.35,4.44,48.33s.08,118.56.08,118.56L430,610.92s6.11-44.41,7.42-60.87,6.44-54.16-3.55-90.56S414.88,458.52,414.88,458.52Z"></path></g><path class="cls-4" d="M0,633.85l31.44-.47L62.87,633l62.88-.69,125.75-.86c41.91-.34,83.83-.36,125.74-.54L503,630.79l125.75.18c41.92.19,83.83.21,125.75.58l125.75.89,62.87.72,31.44.36L1006,634l-31.43.47-31.44.35-62.87.7-125.75.86c-41.92.35-83.83.35-125.75.53L503,637.06l-125.75-.19c-41.91-.19-83.83-.22-125.74-.58l-125.75-.89-62.88-.71-31.43-.36Z"></path><path class="cls-4" d="M460.29,600.32c4.85-.27,9.69-.38,14.54-.57l14.53-.31c9.69-.2,19.38-.2,29.07-.2s19.37.12,29.06.38L562,600c4.85.23,9.69.36,14.53.66-4.84.27-9.69.38-14.53.57l-14.53.31c-9.69.2-19.38.2-29.07.2s-19.38-.12-29.07-.38l-14.53-.4C470,600.75,465.14,600.61,460.29,600.32Z"></path><polygon class="cls-4" points="281.48 598.58 382.83 600.67 281.47 602.05 281.48 598.58"></polygon><polygon class="cls-4" points="259.43 602.4 158.07 600.32 259.44 598.94 259.43 602.4"></polygon><polygon class="cls-4" points="756.42 598.58 857.77 600.67 756.4 602.05 756.42 598.58"></polygon><path class="cls-4" d="M655.41,317.18a66.63,66.63,0,0,1-11,.84,98.11,98.11,0,0,1-11.09-.8c-3.67-.5-7.33-1.15-10.95-2s-7.19-1.79-10.78-3l-.75-.25-.25-1c-.61-2.41-1.2-4.82-1.68-7.25s-.94-4.87-1.35-7.31-.72-4.9-1-7.37a74.3,74.3,0,0,1-.41-7.47l1.93-.33a74.25,74.25,0,0,1,2.09,7.18c.58,2.42,1.08,4.84,1.53,7.28s.84,4.88,1.14,7.35.59,4.92.8,7.4l-1-1.2c3.33,1.28,6.84,2.41,10.33,3.4s7,1.87,10.62,2.59a106.66,106.66,0,0,0,10.83,1.6A79,79,0,0,0,655.41,317.18Z"></path><path class="cls-4" d="M713.46,275.11q.15,3.24.07,6.48c0,2.15-.12,4.31-.22,6.46a67.9,67.9,0,0,1-1.53,12.88l-.19.8-.39.12h0a106.37,106.37,0,0,1-10.63,4.76c-1.82.67-3.65,1.32-5.53,1.85a19.4,19.4,0,0,1-5.76,1l.2-.39,4.2,8.53L689,309.31l.2-.39c1.82-.63,3.63-1.13,5.42-1.77s3.55-1.37,5.29-2.15c3.48-1.54,6.92-3.27,10.25-5.08h0l-.58.92a67,67,0,0,1-.5-13c.06-2.15.12-4.31.29-6.46s.31-4.3.58-6.45Z"></path><path class="cls-4" d="M668.54,310.7c1.46-.68,2.92-1.32,4.4-1.94l4.44-1.81c3-1.15,6-2.28,9-3.34l1.19-.41.74,1.23c1.15,1.92,2.23,3.89,3.33,5.84s2.18,3.91,3.22,5.9l1.3,2.47-2.77.48c-2.51.43-5,.91-7.53,1.27s-5,.81-7.54,1.14-5,.71-7.58,1-5.06.59-7.6.81l-1.21.1-.19-1c-.75-4-1.39-8.1-1.86-12.2,1.58,3.82,3,7.69,4.26,11.59l-1.4-.92c2.47-.62,5-1.14,7.45-1.69s5-1,7.49-1.51,5-.9,7.51-1.35,5-.82,7.53-1.22l-1.48,2.95c-1-2-2-4-3-6s-2-4-2.87-6.08l1.92.81c-3.08.79-6.19,1.49-9.31,2.18l-4.7.95C671.7,310.18,670.13,310.45,668.54,310.7Z"></path><path class="cls-4" d="M671.65,403.26c1.81,1.14,2.26,2.72,2.78,4.27l1.62,4.66,3.32,9.27c2.21,6.18,4.51,12.33,6.83,18.47s4.72,12.23,7.32,18.24A153,153,0,0,0,702,475.75h0l.12.21,0,.23c3.2,17.93,6.56,35.83,9.89,53.73,1.67,8.94,3.35,17.89,5.12,26.81s3.57,17.88,5.74,26.57l-1.57-1.44a60,60,0,0,0,9,.64,54.62,54.62,0,0,0,9-.73,35.72,35.72,0,0,0,8.47-2.45,28.89,28.89,0,0,0,3.8-2.05,24.45,24.45,0,0,0,3.3-2.68l-.6,1.59-5.43-68.46-2.9-34.21-1.61-17.07c-.61-5.68-1.09-11.37-2.1-16.91-1.95-11.19-4.37-22.41-6.74-33.59s-4.83-22.37-7.32-33.55l-15-67,1.88.19a16,16,0,0,1-3.28,4.3,25.88,25.88,0,0,1-4.14,3.25,33.45,33.45,0,0,1-4.62,2.45c-.79.35-1.61.65-2.42,1l-2.46.82-.86-3.25,2.33-.6c.76-.25,1.54-.47,2.29-.75a30.6,30.6,0,0,0,4.37-1.95,24.14,24.14,0,0,0,3.94-2.67,14.69,14.69,0,0,0,3-3.42l1.29-2.19.58,2.38h0c5.43,22.25,10.85,44.5,16.06,66.8q3.9,16.74,7.66,33.5c2.48,11.19,5,22.33,7.09,33.69,1.06,5.72,1.57,11.46,2.2,17.15l1.68,17.12,3,34.23,2.84,34.23,2.62,34.26.08,1-.67.65a27.84,27.84,0,0,1-3.94,3.18,33,33,0,0,1-4.41,2.38,40.68,40.68,0,0,1-9.43,2.7,57.9,57.9,0,0,1-9.64.75,63.15,63.15,0,0,1-9.64-.73l-1.26-.19-.31-1.25c-2.25-9-3.85-17.92-5.57-26.89s-3.25-17.93-4.82-26.91-3-18-4.52-26.95l-4.34-27,.16.44h0a130.59,130.59,0,0,1-9.24-17.64c-2.66-6.05-5.12-12.18-7.49-18.33s-4.55-12.38-6.69-18.61l-3.11-9.38-1.51-4.7C671.42,406.8,670.84,405.25,671.65,403.26Z"></path><path class="cls-4" d="M598.3,339.13c-1.79,11.16-.84,22.54,1.73,33.41a126.38,126.38,0,0,0,12.12,31.06l.37.68v1.15q-2.92,44.51-4.66,89.17c-.56,14.87-1,29.74-1.13,44.62s-.11,29.75.85,44.53l-.84-1.36h0a49.43,49.43,0,0,0,9,3.84,40,40,0,0,0,9.55,1.83,25.39,25.39,0,0,0,9.34-1.1,20.81,20.81,0,0,0,7.87-4.74h0l-.66,1.3c1.2-9,2.28-18,3.29-27.06s2-18.07,2.89-27.12,1.63-18.12,2.3-27.18c.3-4.54.62-9.07.84-13.61.12-2.27.25-4.54.33-6.81l.14-3.4a8.56,8.56,0,0,1,.53-3.4l1.59,0a8.5,8.5,0,0,1,.33,3.42l-.06,3.43c0,2.28-.12,4.56-.2,6.83-.13,4.57-.36,9.12-.56,13.68q-.72,13.65-1.74,27.3t-2.35,27.25c-.91,9.08-1.89,18.13-3,27.2l-.1.82-.57.49h0a25.06,25.06,0,0,1-9.62,5.52A29.52,29.52,0,0,1,625,592a44.12,44.12,0,0,1-10.44-2.22,51.75,51.75,0,0,1-9.67-4.39h0l-.76-.44-.08-.92c-1.25-14.95-1.51-29.88-1.7-44.8s-.09-29.85.15-44.76q.69-44.76,2.71-89.46h0l.37,1.82a132,132,0,0,1-9.89-33.46c-1.7-11.48-1.66-23.32,1.14-34.53Z"></path><path class="cls-4" d="M628.93,478.39a52.24,52.24,0,0,0,6.37-.68c2-.32,4-.75,6-1.21s4-1,6-1.53l6.07-1.6-.67.81c5.51-20.2,10.9-40.42,15.84-60.76,2.44-10.18,4.81-20.37,6.9-30.63a277,277,0,0,0,4.87-31A265.72,265.72,0,0,1,676.28,383c-1.87,10.31-4,20.57-6.25,30.8-4.55,20.46-9.6,40.8-14.84,61.08l-.11.42-.56.39a30,30,0,0,1-5.94,3.1,32.62,32.62,0,0,1-6.48,1.74,24.35,24.35,0,0,1-6.77.16A14.8,14.8,0,0,1,628.93,478.39Z"></path><rect class="cls-4" x="611.13" y="586" width="4.18" height="15.82" transform="matrix(1, 0, 0, 1, -1.19, 1.23)"></rect><rect class="cls-4" x="631.79" y="592.28" width="15.82" height="4.18" transform="translate(-4.66 1183.69) rotate(-85.34)"></rect><rect class="cls-4" x="748.9" y="581.09" width="4.18" height="15.8" transform="matrix(1, -0.09, 0.09, 1, -51.95, 73.06)"></rect><rect class="cls-4" x="727.93" y="583.75" width="4.18" height="16.91" transform="translate(-106.99 164.36) rotate(-11.98)"></rect><path class="cls-4" d="M619.47,603.91c-14.24,0-17.33-1.59-17.68-4.29-.21-1.6.93-4.66,10.92-7.22l1,4.05a33.42,33.42,0,0,0-6.66,2.46c1.86.42,5.92.9,14.69.8,14.31-.15,21.08-.73,24.28-1.25-1.4-.52-3.56-1.2-6.89-2.06l1.05-4c9.68,2.5,12.54,4.09,12.21,6.78s-2.57,4.46-30.6,4.77Z"></path><path class="cls-4" d="M727.68,604.06c-4.84,0-6.39-1.13-6.91-2.87-1.12-3.71,5.2-7.13,8-8.42l1.77,3.78a22.51,22.51,0,0,0-5,3.2c1.41.2,4.63.28,11.72-.76,11.61-1.7,16.84-3,19.2-3.79a47.18,47.18,0,0,0-5.88-1.35l.74-4.12c8.17,1.47,10.92,2.85,10.88,5.46s-1.81,4.65-24.34,7.94A71.8,71.8,0,0,1,727.68,604.06Z"></path><path class="cls-4" d="M608.18,601.84l3.92,11.79-8.17,20.45,42.85-.09-3.57-32.23S617.13,602.49,608.18,601.84Z"></path><polygon class="cls-4" points="726.95 603.07 730.86 615.24 726.39 633.83 782.02 633.72 801.48 632.06 801.47 625.25 764.55 613.82 757.91 596.84 726.95 603.07"></polygon><path class="cls-4" d="M675.13,79.31c2.6-1,5.29-1.79,8-2.54s5.36-1.46,7.91-2.33l-.6,1.63c-1.49-1.92-2.88-3.91-4.32-5.87s-2.8-4-4.14-6-2.71-4-4-6.08-2.63-4.08-3.86-6.17l-.34-.58.09-.51a14.5,14.5,0,0,1,1-3.39,11.33,11.33,0,0,1,1.81-3,8.5,8.5,0,0,1,6.31-3.2,13.15,13.15,0,0,1,6.43,1.63,26.41,26.41,0,0,1,5.22,3.59,40.47,40.47,0,0,0-5.71-2.36,12.7,12.7,0,0,0-5.72-.62,6.23,6.23,0,0,0-4.23,2.72,11.75,11.75,0,0,0-1.82,5l-.25-1.09c1.41,2,2.71,4,4.06,6s2.61,4.09,3.92,6.13,2.52,4.15,3.78,6.22,2.44,4.19,3.59,6.34l.69,1.31-1.29.32c-2.77.68-5.51,1.08-8.26,1.5S677.86,78.78,675.13,79.31Z"></path><path class="cls-4" d="M665.56,51.78a101.42,101.42,0,0,0-11.08,1.62,31.46,31.46,0,0,0-5,1.62,52.2,52.2,0,0,0-5.13,2.51A11.27,11.27,0,0,1,648,52.59a14.33,14.33,0,0,1,5.67-2.68,16.73,16.73,0,0,1,6.18-.26A13.26,13.26,0,0,1,665.56,51.78Z"></path><path class="cls-4" d="M673.25,65.3c-1.85.1-3.49.19-5.09.38a28.49,28.49,0,0,0-4.54.85,25.86,25.86,0,0,0-4.33,1.56c-1.48.61-2.88,1.46-4.6,2.24a10.4,10.4,0,0,1,3-4.59,11.86,11.86,0,0,1,5-2.68,12.34,12.34,0,0,1,5.63-.19A9.94,9.94,0,0,1,673.25,65.3Z"></path><path class="cls-4" d="M697.89,58.64a20.73,20.73,0,0,0-8.26,0,22.51,22.51,0,0,0-3.7,1.31c-.65.26-1.26.64-2,.92a17.41,17.41,0,0,1-2.16,1,10.68,10.68,0,0,1,1-2.29,11.07,11.07,0,0,1,1.55-2,9.9,9.9,0,0,1,4.5-2.5,9.08,9.08,0,0,1,5.22.32A7.3,7.3,0,0,1,697.89,58.64Z"></path><path class="cls-4" d="M685,85.15a15.54,15.54,0,0,1-5.2,3.86,14.36,14.36,0,0,1-6.6,1.29,10.78,10.78,0,0,1-6.48-2.5,9.21,9.21,0,0,1-3.19-5.8,19.16,19.16,0,0,0,4.77,3.46,13.21,13.21,0,0,0,5.11,1.26,25.91,25.91,0,0,0,5.55-.39C680.88,86,682.82,85.49,685,85.15Z"></path><path class="cls-4" d="M633.26,56.63a45,45,0,0,0-7-.39,33.07,33.07,0,0,0-6.75.76,13,13,0,0,0-2.93,1.06A2.89,2.89,0,0,0,615,59.65a3.2,3.2,0,0,0,.4,2.12,12,12,0,0,0,1.77,2.49A26,26,0,0,0,628,71.7c4.22,1.63,8.83,2.4,13.54,3.29a36.68,36.68,0,0,1-14.4-.57,23.06,23.06,0,0,1-10-5.17,26.51,26.51,0,0,1-2.65-2.65,15.45,15.45,0,0,1-2.22-3.33,5.51,5.51,0,0,1,2.92-8,13,13,0,0,1,3.82-1,26.57,26.57,0,0,1,7.36.24A26.06,26.06,0,0,1,633.26,56.63Z"></path><path class="cls-4" d="M650.41,33.34S697.67,8.18,717.3,19s-21.21,25.64-21.21,25.64S687.29,24.2,650.41,33.34Z"></path><path class="cls-4" d="M650.41,33.34s1.7.25,4.28-2.15c0,0,10.8-12.22,24.56-14.5,0,0-14.12-27.29-44.06-12.08C602,21.46,614.34,58.46,614.34,58.46S624.27,41.91,650.41,33.34Z"></path><path class="cls-4" d="M642.17,91.45a50.22,50.22,0,0,0,27.6,9.83,35.7,35.7,0,0,0,7.24-.37,29.18,29.18,0,0,0,6.93-1.9,22.93,22.93,0,0,0,10.91-9.57,19.27,19.27,0,0,1-9.68,12.08,29.88,29.88,0,0,1-15.54,3.34,40.06,40.06,0,0,1-15.3-3.8A31.81,31.81,0,0,1,642.17,91.45Z"></path><path class="cls-4" d="M614,54.49l13.21.79,3.56-8.14,13.54,1.06c1.83-6.89,4.63-11,15.53-16.66a33.71,33.71,0,0,0-21.22,1.82C629.94,37.1,620.69,47.66,614,54.49Z"></path><path class="cls-4" d="M630.73,73.42c.45,4,.84,8,1,12s.17,8,.07,12-.48,8-1,12a86.09,86.09,0,0,1-2.32,12l-.11.37-.32.33a101,101,0,0,1-11.79,10.27q-6.15,4.75-12.46,9.29c-4.18,3-8.45,6-12.71,8.89s-8.62,5.72-13,8.54l12.16-9.61q6-4.83,12-9.75t11.79-10c3.85-3.39,7.74-6.81,11.56-10.07l-.43.7A83.4,83.4,0,0,0,627.57,109c.55-3.88.91-7.8,1.12-11.72s.24-7.85.07-11.79-.43-7.85-.83-11.77Z"></path><path class="cls-4" d="M673.25,103.11l1.66,4.42c.58,1.47,1.1,2.94,1.7,4.38s1.16,2.9,1.8,4.3,1.31,2.86,2,4l-.28-.34c3.61,2.77,7.18,5.54,11,8s7.55,5,11.48,7.3c1.92,1.21,3.91,2.32,5.88,3.45s4,2.24,6,3.32c4,2.2,8.07,4.3,12.19,6.4a88.69,88.69,0,0,1-13.21-4.23c-2.14-.88-4.26-1.82-6.36-2.79s-4.16-2-6.19-3.17-4-2.33-6-3.52c-1-.6-2-1.26-2.91-1.91s-1.93-1.3-2.86-2l-2.82-2-2.7-2.21c-1.84-1.42-3.5-3.07-5.22-4.63l-.2-.18-.08-.16a33,33,0,0,1-1.76-4.58c-.47-1.52-.93-3.05-1.29-4.59s-.73-3.08-1-4.63S673.47,104.68,673.25,103.11Z"></path><path class="cls-4" d="M550.93,261l-8.37-98-.17-2,2-.17,55.23-4.65c9.2-.8,18.41-1.42,27.62-2.13l13.82-1,13.82-.93,55.3-3.71,27.65-1.83,27.66-1.69,1.66-.1.11,1.63,8.89,123.95.1,1.38-1.37.1-221,16.73-1.87.14,0-1.78-.28-16.05,1.73-.13,2.09,15.92-1.9-1.64L774.71,269l-1.28,1.48L764,146.58l1.78,1.52-27.61,2.41-27.62,2.25-55.24,4.46-13.81,1.11-13.82,1c-9.22.64-18.42,1.39-27.64,2l-55.31,3.51,1.86-2.16,6.06,98.21Z"></path><g class="cls-2"><path class="cls-3" d="M750.25,586.49S751.76,580,754,578s1.63-10.07.89-19.58S748,460.73,744.66,442.86s-30.52-137.73-30.52-137.73l-4.78,5.21s3.76-22.58,2.35-35.3L626.9,281.1c-1.71,25.92-2.57,65.35,6.85,82.12,14.11,25.12-7.11,81.36-4.82,94.82s-9.72,5.84-8.07,21.14,0,81.83,0,81.83l6.25,59.56,12.59,0L640,590.1s3.9-5.56,4.48-10.29,5.69-54.84,6.2-61.78,2-34.63,2-34.63c1.24-8.9-2-2,1.58-10.17s17.15-69.06,17.15-69.06,8.64-32.35,8.9-52.37c0,0,8.18,18.58,12.66,32.84S720.5,447,722.73,463.85s12.79,106.67,12.79,106.67l5.86,41.19,14.88-3.7L751,601.76Z"></path></g><path class="cls-4" d="M679.25,120.41c.93.7.64,1.27.63,1.87l-.15,1.78-.47,3.56a49.41,49.41,0,0,1-1.7,7,34.18,34.18,0,0,1-3,6.75,24.17,24.17,0,0,1-2.19,3.1c-.42.49-.86,1-1.33,1.42a10.52,10.52,0,0,1-1.73,1.33l-.68.41-.78-.3h0c-3.9-1.42-7.66-3-11.39-4.79s-7.41-3.58-11-5.57a110.16,110.16,0,0,1-10.56-6.55,37.05,37.05,0,0,1-9.2-8.76l2.29-1.55c2.2,3,5.42,5.53,8.68,7.79A103.18,103.18,0,0,0,647,134.1c3.57,1.88,7.23,3.63,10.92,5.28s7.45,3.23,11.16,4.76h0l-1.46.1a8.39,8.39,0,0,0,1-.86,13.1,13.1,0,0,0,1.1-1.13,21.4,21.4,0,0,0,1.94-2.62,31.24,31.24,0,0,0,3-6,57.31,57.31,0,0,0,2.18-6.52l.83-3.38.34-1.71C678.28,121.47,678.16,120.87,679.25,120.41Z"></path><path class="cls-4" d="M660.27,164a4.12,4.12,0,0,0-2.22-1.59,4.71,4.71,0,0,1,1.18,2.12,2.53,2.53,0,0,1-.29,1.92,5.69,5.69,0,0,1-1.3,1.59,7.37,7.37,0,0,1-1.68,1.22,10,10,0,0,1-4,.87c-.78,0-1.63.1-2.52.21-.67.09-.76,0-.88-.06-.29-.08-.83-1.44-.85-2.8,0-.35,0-.7,0-1,0-.09,0-.18,0-.25v0l0,0h0a.29.29,0,0,0,.06-.11v.09a6.77,6.77,0,0,1,.9-.26,46.82,46.82,0,0,0,4.9-.93,10,10,0,0,0,4.55-2.56c-3.34.94-6.23.26-9.79.21a9.42,9.42,0,0,0-1.51.14,4.83,4.83,0,0,0-1,.32,3.08,3.08,0,0,0-1,.78,2.93,2.93,0,0,0-.71,1.3,2.06,2.06,0,0,0-.07.34.57.57,0,0,0,0,.18,2.25,2.25,0,0,0-.06.36,9.76,9.76,0,0,0-.14,1.44,5.42,5.42,0,0,0,0,.57c0,.23,0,.46,0,.68a9.76,9.76,0,0,0,.29,1.8,6,6,0,0,0,2.08,3.21,5.28,5.28,0,0,0,3.89.76c.74-.14,1.53-.21,2.38-.35a10.5,10.5,0,0,0,5.37-2.07,9.45,9.45,0,0,0,2-2.2,7.68,7.68,0,0,0,1.17-2.8A4.14,4.14,0,0,0,660.27,164Zm-12.72,2.28c-.12.06-.06.05-.09,0l.14-.08S647.57,166.24,647.55,166.25Z"></path><path class="cls-4" d="M664,177.24a4.63,4.63,0,0,0-2.34-1.86,5.47,5.47,0,0,1,1.3,2.37,3,3,0,0,1-.34,2.21,6.77,6.77,0,0,1-1.51,1.8,9.76,9.76,0,0,1-1.92,1.38,10.93,10.93,0,0,1-4.57.87c-.89,0-1.84.08-2.83.17-.75.06-.94,0-1.13-.15-.44-.21-1-1.8-.94-3.36a9.3,9.3,0,0,1,0-1.18,1.45,1.45,0,0,1,0-.3v-.09h0s0,0,0,0v0c0-.06,0,0,0,0a0,0,0,0,1,0,0v0a.34.34,0,0,0,.12-.06,5.24,5.24,0,0,1,1.07-.26c1.67-.24,3.64-.38,5.51-.83a11.46,11.46,0,0,0,5.18-2.57,16.87,16.87,0,0,1-5.39.48c-1.78-.05-3.53-.36-5.52-.39a11.4,11.4,0,0,0-1.67.12,7.68,7.68,0,0,0-1,.3,3.34,3.34,0,0,0-1.14.82,3.07,3.07,0,0,0-.76,1.33,4.49,4.49,0,0,0-.15.54,3.38,3.38,0,0,1-.07.4,14.15,14.15,0,0,0-.18,1.58,11.75,11.75,0,0,0,.25,3.35,6.35,6.35,0,0,0,2.14,3.51,4.21,4.21,0,0,0,1.54.77,6.33,6.33,0,0,0,2.57.17c.85-.11,1.74-.19,2.69-.29l1.27-.18a10.55,10.55,0,0,0,4.71-1.88,10.23,10.23,0,0,0,2.22-2.34,8.75,8.75,0,0,0,1.43-3A4.63,4.63,0,0,0,664,177.24Zm-14.34,1.95h0v0l.1-.06Z"></path><path class="cls-4" d="M668.52,189.91a5.62,5.62,0,0,0-2.63-2.34,6.35,6.35,0,0,1,1.55,2.83,3.65,3.65,0,0,1-.39,2.74,7.24,7.24,0,0,1-1.83,2.2,11.32,11.32,0,0,1-2.36,1.67,12.88,12.88,0,0,1-5.58,1c-1.06,0-2.19,0-3.34.11a2.21,2.21,0,0,1-1.64-.3c-.68-.47-1.19-2.46-1.1-4.36a11.84,11.84,0,0,1,.09-1.44c0-.12,0-.24,0-.36s0-.12,0-.18,0,0,0,0-.06,0-.06,0,0,0,.06-.09.28-.1.41-.18.41-.11.61-.15l.72-.11a63.4,63.4,0,0,0,6.55-.68,13.72,13.72,0,0,0,6.24-2.69,19.67,19.67,0,0,1-6.39.59c-1.1,0-2.21-.17-3.33-.27s-2.08-.23-3.2-.26H652l-1,.09a5.71,5.71,0,0,0-1.15.33l-.26.14a2.68,2.68,0,0,0-1,.71,3.43,3.43,0,0,0-.88,1.42c0,.12-.1.3-.12.38s0,.15,0,.23-.08.3-.11.45c-.1.61-.2,1.23-.26,1.83a13.8,13.8,0,0,0,.2,3.87,7.16,7.16,0,0,0,2.27,4,5.31,5.31,0,0,0,1.57.88,7.11,7.11,0,0,0,3,.31c1-.1,2.09-.15,3.21-.24h.22a13.23,13.23,0,0,0,6.8-2.09,12.73,12.73,0,0,0,2.7-2.63,9.87,9.87,0,0,0,1.79-3.44A5.45,5.45,0,0,0,668.52,189.91Z"></path><path class="cls-4" d="M669.83,204.45a5.62,5.62,0,0,0-2.57-2.43,6.41,6.41,0,0,1,1.49,2.87,3.89,3.89,0,0,1-.47,2.74,7.89,7.89,0,0,1-1.92,2.15,11.54,11.54,0,0,1-2.41,1.59,12.65,12.65,0,0,1-5.61.81c-1.06,0-2.18,0-3.35,0a2.21,2.21,0,0,1-1.61-.35c-.67-.5-1.12-2.52-1-4.4a11.5,11.5,0,0,1,.13-1.44c0-.12,0-.24.06-.36s0-.12,0-.18v0s0,0,0,0,0-.05.06-.1.29-.09.41-.16l.62-.14.73-.07c2-.16,4.33-.12,6.58-.47a13.56,13.56,0,0,0,6.29-2.51,18.92,18.92,0,0,1-6.38.39c-1.06-.08-2.1-.21-3.18-.36h0c-1.06-.15-2.15-.31-3.31-.38l-.92,0-1,.06a8.66,8.66,0,0,0-1.17.29,3.76,3.76,0,0,0-1.28.81,3.3,3.3,0,0,0-.91,1.41,3.66,3.66,0,0,0-.14.36,2,2,0,0,1-.06.23c0,.15-.07.3-.1.45a16.29,16.29,0,0,0-.32,1.83,13.71,13.71,0,0,0,.07,3.88,7.14,7.14,0,0,0,2.14,4.1,4.73,4.73,0,0,0,1.57.92,7,7,0,0,0,3,.42c1-.09,2.07-.09,3.2-.15h.17a13,13,0,0,0,6.91-1.86,12.45,12.45,0,0,0,2.8-2.55,9.74,9.74,0,0,0,1.88-3.38A5.3,5.3,0,0,0,669.83,204.45Z"></path><path class="cls-4" d="M670.68,219.05a5.53,5.53,0,0,0-2.48-2.51,6.46,6.46,0,0,1,1.39,2.92,3.79,3.79,0,0,1-.57,2.72,7.48,7.48,0,0,1-2,2.09,11.58,11.58,0,0,1-2.46,1.51,13.14,13.14,0,0,1-5.63.64c-1.06-.06-2.18-.11-3.35-.11a2.12,2.12,0,0,1-1.6-.41c-.66-.51-1-2.54-.85-4.43.05-.48.11-.95.19-1.44a2.58,2.58,0,0,0,.07-.34.63.63,0,0,0,0-.19h0s-.05,0-.06,0,0,0,.06-.09a3.15,3.15,0,0,0,.42-.15l.62-.1c.24,0,.48,0,.73-.06a65.59,65.59,0,0,0,6.58-.26,13.67,13.67,0,0,0,6.38-2.3,19.45,19.45,0,0,1-6.4.18c-1.07-.11-2.13-.29-3.22-.48s-2.12-.37-3.27-.47c-.3,0-.62,0-.92-.06l-1,0a8.75,8.75,0,0,0-1.15.24h0a3.88,3.88,0,0,0-1.3.78,3.31,3.31,0,0,0-1,1.37,2.36,2.36,0,0,0-.13.37.73.73,0,0,0-.06.21c0,.15-.1.3-.14.45-.08.33-.15.67-.23,1s-.09.47-.12.7a.61.61,0,0,1,0,.13,13.51,13.51,0,0,0,0,3.87,7.24,7.24,0,0,0,2,4.18,3.16,3.16,0,0,0,.66.51,6.53,6.53,0,0,0,3.83,1c1,0,2.07,0,3.21,0a18.52,18.52,0,0,0,4.07-.42,10,10,0,0,0,3.07-1.24,12.11,12.11,0,0,0,2.86-2.45,9.62,9.62,0,0,0,2-3.33A5.38,5.38,0,0,0,670.68,219.05Z"></path><path class="cls-4" d="M672.74,232.86a6.11,6.11,0,0,0-2.57-2.84,7,7,0,0,1,1.47,3.22,4.34,4.34,0,0,1-.67,3,8.38,8.38,0,0,1-2.22,2.27,12.44,12.44,0,0,1-2.76,1.62,13.43,13.43,0,0,1-6.2.54c-1.15-.1-2.38-.19-3.62-.22a2.53,2.53,0,0,1-1.86-.55c-.78-.68-1.09-2.95-.81-5,.06-.52.13-1.05.24-1.58l.09-.4a1.8,1.8,0,0,1,0-.19s0,0,0,0a.09.09,0,0,0,0,0c-.1-.12,1.07-.42,2.13-.39,2.21,0,4.7.19,7.15,0a15,15,0,0,0,7-2.22,20.37,20.37,0,0,1-7,.09,2.24,2.24,0,0,0-.24,0c-2.21-.29-4.37-.88-6.8-1.15l-1-.09h-1.07a7.52,7.52,0,0,0-1.26.24,5.4,5.4,0,0,0-1,.48,2.4,2.4,0,0,0-.38.29,3.35,3.35,0,0,0-1,1.41,3.8,3.8,0,0,0-.17.38,2,2,0,0,0-.08.22c-.06.17-.1.34-.15.49a18.45,18.45,0,0,0-.47,2,14.76,14.76,0,0,0-.18,4.17,7.66,7.66,0,0,0,2,4.5,5.47,5.47,0,0,0,1.59,1.1,7.45,7.45,0,0,0,3.12.62c1,0,2,.05,3,.06a3.77,3.77,0,0,0,.48,0c2.39,0,5.31-.08,7.76-1.53a12.71,12.71,0,0,0,3.18-2.54,10.73,10.73,0,0,0,2.29-3.51A5.88,5.88,0,0,0,672.74,232.86Z"></path><path class="cls-4" d="M671,248.34a5.67,5.67,0,0,0-2.31-2.68,6.51,6.51,0,0,1,1.19,3,3.74,3.74,0,0,1-.74,2.67,7.23,7.23,0,0,1-2.1,2,10.41,10.41,0,0,1-2.56,1.36,12.62,12.62,0,0,1-5.66.27c-1-.12-2.16-.24-3.31-.31a2.19,2.19,0,0,1-1.59-.52c-.62-.54-.88-2.6-.56-4.48.08-.46.17-1,.29-1.42l.09-.36c0-.06,0-.11,0-.17h0s-.06,0-.08,0,0,0,.08-.09a3.54,3.54,0,0,0,.42-.12c.22,0,.43,0,.64-.07h.72c2,.06,4.32.28,6.59.15a13.72,13.72,0,0,0,6.52-1.91,19,19,0,0,1-6.4-.21c-1.06-.18-2.11-.44-3.18-.7s-2.1-.48-3.24-.66c-.3-.05-.6-.08-.91-.12s-.66,0-1,0a5.63,5.63,0,0,0-1,.13l-.21,0a4,4,0,0,0-1.36.7,3.27,3.27,0,0,0-1,1.31c-.05.11-.13.26-.16.35l-.08.21c-.06.16-.1.31-.15.46-.19.59-.36,1.19-.5,1.8a13.6,13.6,0,0,0-.28,3.87,7.2,7.2,0,0,0,1.72,4.31,4.47,4.47,0,0,0,1.35,1,6.59,6.59,0,0,0,3,.77l1.93.09,1.27.08a13.43,13.43,0,0,0,7.24-1.21,12,12,0,0,0,3-2.27,9.61,9.61,0,0,0,2.19-3.21A5.38,5.38,0,0,0,671,248.34Z"></path><path class="cls-4" d="M670.68,263.35a6.15,6.15,0,0,0-2.37-3,7.05,7.05,0,0,1,1.24,3.32,4.3,4.3,0,0,1-.86,3,8,8,0,0,1-2.38,2.12,11.52,11.52,0,0,1-2.84,1.44,13.45,13.45,0,0,1-6.24.13c-1.13-.18-2.34-.34-3.58-.46a2.56,2.56,0,0,1-1.83-.67c-.73-.73-.88-3-.47-5.05a14.91,14.91,0,0,1,.35-1.58c0-.12.07-.24.1-.37s.05-.13.06-.19,0,0,0,0a.18.18,0,0,0,0-.05c-.11-.13,1.09-.36,2.15-.25,2.21.15,4.67.51,7.14.45a14.75,14.75,0,0,0,7.14-1.76,20,20,0,0,1-7-.36c-1.38-.26-2.71-.63-4.12-1-.9-.24-1.84-.47-2.83-.65-.31,0-.65-.09-1-.15s-.73,0-1.08-.06h-.1a8.07,8.07,0,0,0-1.15.15,3.78,3.78,0,0,0-1.44.68,3.72,3.72,0,0,0-1.14,1.33c-.06.13-.15.29-.18.37l-.09.24c-.06.15-.12.3-.18.47-.23.62-.42,1.27-.59,1.92a14.3,14.3,0,0,0-.45,4.15,7.53,7.53,0,0,0,1.68,4.62,6.56,6.56,0,0,0,4.58,2c1.12.06,2.25.21,3.48.3,2.39.19,5.29.28,7.84-1A13.42,13.42,0,0,0,668,271a10.53,10.53,0,0,0,2.51-3.36A5.83,5.83,0,0,0,670.68,263.35Z"></path><path class="cls-4" d="M640,205.46a84.5,84.5,0,0,1-26-4.29,47.73,47.73,0,0,1-12.2-5.87,17.39,17.39,0,0,1-5.1-5.27,8.55,8.55,0,0,1-1.21-4,8,8,0,0,1,1.08-4.21,15.43,15.43,0,0,1,5.49-5.11,37.07,37.07,0,0,1,6.24-2.92,81.25,81.25,0,0,1,12.9-3.4,150.69,150.69,0,0,1,26.18-2.4c-8.57,1.8-17.12,3.43-25.47,5.59a101.73,101.73,0,0,0-12.18,3.9,37.49,37.49,0,0,0-5.54,2.72,11.59,11.59,0,0,0-4,3.7,3.88,3.88,0,0,0,.06,4.17,14.62,14.62,0,0,0,3.88,4.09,51.56,51.56,0,0,0,11,6A140.93,140.93,0,0,0,640,205.46Z"></path><path class="cls-4" d="M638.24,218.05a85.17,85.17,0,0,1-26-4.29,48,48,0,0,1-12.2-5.87,17.39,17.39,0,0,1-5.1-5.27,8.78,8.78,0,0,1-1.21-4.05,8,8,0,0,1,1.09-4.2,15.18,15.18,0,0,1,5.49-5.11,36.68,36.68,0,0,1,6.23-2.93,82.58,82.58,0,0,1,12.9-3.39,149.8,149.8,0,0,1,26.18-2.4c-8.57,1.8-17.12,3.42-25.47,5.58A101.77,101.77,0,0,0,608,190a37.38,37.38,0,0,0-5.53,2.72,11.5,11.5,0,0,0-4,3.7,3.86,3.86,0,0,0,0,4.17,14.52,14.52,0,0,0,3.89,4.09,51.56,51.56,0,0,0,11,6A141.27,141.27,0,0,0,638.24,218.05Z"></path><path class="cls-4" d="M638.24,230.64a85.17,85.17,0,0,1-26-4.29,48,48,0,0,1-12.2-5.87,17.39,17.39,0,0,1-5.1-5.27,8.78,8.78,0,0,1-1.21-4.05,8,8,0,0,1,1.09-4.2,15.18,15.18,0,0,1,5.49-5.11,36.68,36.68,0,0,1,6.23-2.93,82.58,82.58,0,0,1,12.9-3.39,149.8,149.8,0,0,1,26.18-2.4c-8.57,1.8-17.12,3.42-25.47,5.58A101.77,101.77,0,0,0,608,202.62a36.42,36.42,0,0,0-5.53,2.72,11.48,11.48,0,0,0-4,3.69,3.86,3.86,0,0,0,0,4.17,14.39,14.39,0,0,0,3.89,4.09,51.6,51.6,0,0,0,11,6A142.13,142.13,0,0,0,638.24,230.64Z"></path><path class="cls-4" d="M640,243.22a84.79,84.79,0,0,1-26-4.28,47.76,47.76,0,0,1-12.2-5.88,17.35,17.35,0,0,1-5.1-5.26,8.59,8.59,0,0,1-1.21-4.05,8,8,0,0,1,1.08-4.21,15.4,15.4,0,0,1,5.49-5.1,36.37,36.37,0,0,1,6.24-2.93,83.45,83.45,0,0,1,12.9-3.4,149.7,149.7,0,0,1,26.18-2.39c-8.57,1.79-17.12,3.42-25.47,5.58a103.57,103.57,0,0,0-12.18,3.9,37.53,37.53,0,0,0-5.54,2.73,11.47,11.47,0,0,0-4,3.69,3.88,3.88,0,0,0,.06,4.17,14.48,14.48,0,0,0,3.88,4.09,51.13,51.13,0,0,0,11,6A140.93,140.93,0,0,0,640,243.22Z"></path><path class="cls-4" d="M645.87,257.61a72.39,72.39,0,0,1-24.11-4.44,40.9,40.9,0,0,1-11.14-6,15.75,15.75,0,0,1-4.49-5.19,7.43,7.43,0,0,1-.7-1.76,6.65,6.65,0,0,1-.33-2,6.21,6.21,0,0,1,.15-2,6.66,6.66,0,0,1,.62-1.89,6.54,6.54,0,0,1,1-1.62,8,8,0,0,1,1.16-1.39c.43-.4.84-.82,1.28-1.2l1.36-1a31.47,31.47,0,0,1,5.7-3.06,70.7,70.7,0,0,1,11.93-3.53,127.22,127.22,0,0,1,24.33-2.5c-7.93,1.83-15.86,3.45-23.54,5.67a86.34,86.34,0,0,0-11.13,4,30.5,30.5,0,0,0-4.93,2.77,9.7,9.7,0,0,0-3.34,3.62,4.32,4.32,0,0,0,.12,4,12.68,12.68,0,0,0,3.35,4,43,43,0,0,0,9.88,6A119.07,119.07,0,0,0,645.87,257.61Z"></path><path class="cls-4" d="M684.71,202c7.63-2.35,15.16-5,22-8.65a46.57,46.57,0,0,0,4.78-3.09,15.19,15.19,0,0,0,3.72-3.75,4.54,4.54,0,0,0,.84-3.92,7.86,7.86,0,0,0-2.95-3.52,38,38,0,0,0-10.1-4.87c-3.64-1.35-7.47-2.26-11.27-3.29-7.66-1.88-15.46-3.4-23.29-5.12a146.08,146.08,0,0,1,24,1.92,92.82,92.82,0,0,1,11.83,2.73,39.9,39.9,0,0,1,11.4,5.3,11.75,11.75,0,0,1,4.33,5.67,7.48,7.48,0,0,1,.09,4,6.74,6.74,0,0,1-.65,1.8,7.76,7.76,0,0,1-.93,1.56,18.72,18.72,0,0,1-4.84,4.48,35.68,35.68,0,0,1-5.46,3A71.72,71.72,0,0,1,684.71,202Z"></path><path class="cls-4" d="M677.59,215.85a141.3,141.3,0,0,0,24.85-7.34,50.89,50.89,0,0,0,11-6,14.39,14.39,0,0,0,3.89-4.09,3.88,3.88,0,0,0,.06-4.17,11.6,11.6,0,0,0-4-3.69,36,36,0,0,0-5.53-2.72,101.77,101.77,0,0,0-12.18-3.91c-8.35-2.16-16.9-3.78-25.47-5.58a148.76,148.76,0,0,1,26.18,2.4,82.29,82.29,0,0,1,12.9,3.39,37.13,37.13,0,0,1,6.24,2.93,15.29,15.29,0,0,1,5.48,5.1,8,8,0,0,1,1.09,4.21,8.78,8.78,0,0,1-1.21,4,17.39,17.39,0,0,1-5.1,5.27,48,48,0,0,1-12.2,5.87A85.12,85.12,0,0,1,677.59,215.85Z"></path><path class="cls-4" d="M677.59,228.43a152.51,152.51,0,0,0,23.06-6.68,63.6,63.6,0,0,0,10.51-5.14,25.16,25.16,0,0,0,4.4-3.39,7.34,7.34,0,0,0,2.35-4,4.47,4.47,0,0,0-1.49-3.76,17.75,17.75,0,0,0-4.33-3.17,62.31,62.31,0,0,0-10.81-4.42c-7.58-2.4-15.45-4.15-23.32-6.07a118,118,0,0,1,24.19,2.93,54.47,54.47,0,0,1,11.8,4.07,20.28,20.28,0,0,1,5.44,3.85,10.56,10.56,0,0,1,2.12,3.1,7.71,7.71,0,0,1,.54,4,11.38,11.38,0,0,1-3.61,6.31A26.88,26.88,0,0,1,713.2,220a56,56,0,0,1-11.48,4.83A83.1,83.1,0,0,1,677.59,228.43Z"></path><path class="cls-4" d="M675.8,241a146.79,146.79,0,0,0,23.74-6.93,58.15,58.15,0,0,0,10.73-5.46,20.78,20.78,0,0,0,4.28-3.66,5.34,5.34,0,0,0,1.57-4.07,6.31,6.31,0,0,0-2.55-3.79,23.75,23.75,0,0,0-4.87-3,75.45,75.45,0,0,0-11.37-4.2c-7.88-2.31-16-4-24.15-5.87a130,130,0,0,1,25,2.71,63.85,63.85,0,0,1,12.23,3.77,25.46,25.46,0,0,1,5.79,3.42,12.77,12.77,0,0,1,2.55,2.63,8.48,8.48,0,0,1,1.55,3.77,8,8,0,0,1-.58,4.11,11.88,11.88,0,0,1-2,3.16,22.67,22.67,0,0,1-5.25,4.33,52.8,52.8,0,0,1-11.77,5.2A83.37,83.37,0,0,1,675.8,241Z"></path><path class="cls-4" d="M671.84,255.41a126.2,126.2,0,0,0,20.54-6.7,53.25,53.25,0,0,0,9.19-5.05,23.57,23.57,0,0,0,3.81-3.22,8.47,8.47,0,0,0,2.15-3.72,4.54,4.54,0,0,0-.68-3.6l-.64-.88-.82-.81a17.91,17.91,0,0,0-1.87-1.52,42.68,42.68,0,0,0-9.3-4.61c-6.66-2.52-13.7-4.34-20.74-6.3a89.39,89.39,0,0,1,21.77,3.21,39.33,39.33,0,0,1,10.49,4.41l1.22.87a7.67,7.67,0,0,1,1.18,1c.38.36.76.71,1.13,1.09l1,1.32a8.68,8.68,0,0,1,1.34,6.76,12.43,12.43,0,0,1-3.25,5.59,24.59,24.59,0,0,1-4.58,3.71,47,47,0,0,1-10.22,4.8A68.3,68.3,0,0,1,671.84,255.41Z"></path><path class="cls-5" d="M711.14,194.71a13.59,13.59,0,0,1-1,2.4s0,0,0,0l0,0c-.13.24-.28.5-.43.74-.51.85-1.06,1.65-1.62,2.44a57.88,57.88,0,0,1-6.12,7.29c-.64.63-1.24,1.24-1.85,1.8l-1.07,1c-1.77,1.56-3.32,2.76-4.39,3.56s-1.62,1.12-1.62,1.12-.3-.21-.85-.65-1.22-.94-2.11-1.68c-1.79-1.49-4.3-3.68-7.25-6.57-.59-.57-1.21-1.19-1.85-1.83-1-1.06-2.11-2.19-3.23-3.4a8.59,8.59,0,0,1-.65-.77c-.11-.13-.2-.25-.29-.37a7.67,7.67,0,0,1-.53-.74c-.2-.29-.36-.59-.53-.88a.06.06,0,0,1,0-.06,9.37,9.37,0,0,1,1.77-11.54,1.52,1.52,0,0,1,.33-.3,1.33,1.33,0,0,1,.24-.2,11,11,0,0,1,3.35-1.9,13.33,13.33,0,0,1,5.59-.73c.23.12.46.24.69.38a28.7,28.7,0,0,1,4.14,3.11,17.65,17.65,0,0,1,2.38-3.26,1.07,1.07,0,0,1,.24-.12,14.18,14.18,0,0,1,8-1.5,5.52,5.52,0,0,1,.55.07,11.12,11.12,0,0,1,2.51.71,9.91,9.91,0,0,1,4.2,3.14,9,9,0,0,1,1.64,3.37,5.39,5.39,0,0,1,.16.8A10.2,10.2,0,0,1,711.14,194.71Z"></path><g class="cls-2"><path class="cls-3" d="M693,215.12a59.81,59.81,0,0,0,16.68-17.19C716.4,187.05,702.43,173,692,190h0c-16-14.54-23,1.56-14.28,11A112.87,112.87,0,0,0,693,215.12Z"></path></g><path class="cls-4" d="M712.69,190.14c0-.26-.09-.53-.15-.79a13.19,13.19,0,0,0-1.81-4.37,4.92,4.92,0,0,0-.31-.41,11,11,0,0,0-6.67-4.54,9,9,0,0,0-4.57.28,9.62,9.62,0,0,0-1.54.65,13.67,13.67,0,0,0-2.3,1.56,13.14,13.14,0,0,0-1.06,1c0,.05-.09.1-.13.16a17.65,17.65,0,0,0-2.38,3.26,28.7,28.7,0,0,0-4.14-3.11c-.23-.14-.46-.26-.69-.38a12.29,12.29,0,0,0-7.14-1.77,7.58,7.58,0,0,0-4.13,1.78,9,9,0,0,0-2.46,3.54,13.18,13.18,0,0,0-.36,7.89,15.42,15.42,0,0,0,3.63,6.79c.81.86,1.63,1.71,2.46,2.53l1.45,1.43,1.12,1.06c1.73,1.62,3.48,3.21,5.3,4.74l2,1.65c.26.19.5.4.76.6l1.25,1,.17.12.71.53.36.27.19.14.09.06a1.53,1.53,0,0,0,.63.24,1.9,1.9,0,0,0,.58-.17l.16-.1.21-.14.4-.26.77-.52c.51-.37,1-.73,1.53-1.11l.41-.32c.86-.63,1.69-1.31,2.51-2,.24-.2.47-.41.69-.62.94-.8,1.85-1.63,2.73-2.51a2.72,2.72,0,0,0,.3-.29c.59-.57,1.15-1.16,1.71-1.75a57.37,57.37,0,0,0,4.39-5.34l.37-.5,1.08-1.58c.21-.36.47-.74.68-1.15.1-.21.21-.42.3-.65a10.85,10.85,0,0,0,1-3.31,4.4,4.4,0,0,0,.09-.74A11.93,11.93,0,0,0,712.69,190.14Zm-4.37,7.17-1,1.53c-.21.33-.44.66-.67,1a52.29,52.29,0,0,1-3.63,4.75c-.8.94-1.63,1.85-2.49,2.74s-1.67,1.66-2.53,2.47l-.3.27-.52.45c-.63.56-1.27,1.11-1.92,1.64-.45.39-.94.75-1.41,1.12l-.72.54-.18.12.21.17.16.12,0,0h0a.61.61,0,0,0-.37-.08.66.66,0,0,0-.37,0l.18-.13.19-.14-.14-.1-.67-.55-1-.83-.35-.29c-.87-.75-1.74-1.54-2.58-2.31-1.09-1-2.15-2-3.2-3.07l-1.8-1.8c-.13-.16-.28-.29-.42-.44-1.45-1.53-2.92-3.12-4.28-4.68a12.5,12.5,0,0,1-2.74-5.58,10.09,10.09,0,0,1,.47-5.94,5.71,5.71,0,0,1,1.12-1.7,1.52,1.52,0,0,1,.33-.3,1.33,1.33,0,0,1,.24-.2,4,4,0,0,1,2.15-.8,9.48,9.48,0,0,1,5.42,1.85,28.13,28.13,0,0,1,4.9,4.29l.59.64h2.74l.65-1.24a17.5,17.5,0,0,1,3.54-5.41,7.38,7.38,0,0,1,.83-.67,5.58,5.58,0,0,1,4.28-1.15,7.67,7.67,0,0,1,4.81,3.24,10,10,0,0,1,.79,1.3,9.75,9.75,0,0,1,.94,3.31,8.53,8.53,0,0,1-.56,4.25l-.05.12a6.09,6.09,0,0,1-.33.78C708.58,196.86,708.44,197.08,708.32,197.31Zm-1.62,2.51a52.29,52.29,0,0,1-3.63,4.75c-.8.94-1.63,1.85-2.49,2.74s-1.67,1.66-2.53,2.47l-.3.27-.52.45c.3-.1.61-.21.91-.33.65-.21,1.29-.45,1.92-.71.61-.56,1.21-1.17,1.85-1.8a57.88,57.88,0,0,0,6.12-7.29C707.59,200.19,707.16,200,706.7,199.82Z"></path><path class="cls-4" d="M573.79,261l-1.28-21c-.43-7-.82-14-1.35-21-.25-3.49-.54-7-.85-10.45s-.64-7-1.11-10.35a32.23,32.23,0,0,0-.94-4.77c0-.15-.11-.28-.13-.33l0,.06a1.1,1.1,0,0,0,.2.21c.2.16.08.06,0,0a6.94,6.94,0,0,1-.74-.61,3.68,3.68,0,0,1-.89-1.2,2.8,2.8,0,0,1-.25-1.26,2.66,2.66,0,0,1,.36-1.3,3.67,3.67,0,0,1,1.07-1.17,8.48,8.48,0,0,1,1.53-.85c1.8-.79,3.39-1.33,5-2,.8-.31,1.59-.64,2.37-1a17,17,0,0,1,2.79-1,8.14,8.14,0,0,1,6.94,1.07,5.24,5.24,0,0,1,2,3.88,6.72,6.72,0,0,1-1,3.74,12,12,0,0,1-2.08,2.49l-.57.5s0,0-.07.1a4.25,4.25,0,0,0-.37.7,22.44,22.44,0,0,0-1.09,4.61,178.58,178.58,0,0,0-1.2,20.7c-.16,14,.21,28,.89,42l0-.2a18,18,0,0,0,3.33,5.49,11.64,11.64,0,0,1,1.84,3.05,3.15,3.15,0,0,1,.08,1.85,3.33,3.33,0,0,1-1,1.47,2.74,2.74,0,0,0,.19-3,12.57,12.57,0,0,0-2.11-2.5,34.22,34.22,0,0,1-2.38-2.54,10.74,10.74,0,0,1-1.81-3.23l0-.08V263c-1.28-14-2.34-28-2.72-42.12-.09-7.06-.25-14.11.7-21.33a26,26,0,0,1,1.3-5.62,8.16,8.16,0,0,1,.85-1.61,5.21,5.21,0,0,1,.79-.89l.42-.38a7.63,7.63,0,0,0,1.28-1.54,2.51,2.51,0,0,0,.39-1.25.85.85,0,0,0-.36-.62,3.86,3.86,0,0,0-3.14-.3,13.07,13.07,0,0,0-2.13.8c-.83.36-1.67.7-2.5,1-1.65.65-3.39,1.25-4.81,1.86a5,5,0,0,0-.76.41c-.07,0,0,.05.16-.24a1.6,1.6,0,0,0,.06-1.3c-.11-.23-.17-.22-.09-.17a1.44,1.44,0,0,0,.27.22l.29.23a2.69,2.69,0,0,1,.42.45,5,5,0,0,1,.38.63,7.29,7.29,0,0,1,.35.89,35.56,35.56,0,0,1,1,5.56c.85,7.1,1.21,14.11,1.51,21.14.61,14.07.88,28.08.78,42.17Z"></path><path class="cls-4" d="M749.8,252.5c-3.34-14.67-6.26-29.43-8.36-44.36-.54-3.74-1-7.49-1.34-11.27a72.56,72.56,0,0,1-.33-11.57,11,11,0,0,1,.71-3.31,5.07,5.07,0,0,1,.55-1l.33-.49a6.91,6.91,0,0,0,.54-1,3.37,3.37,0,0,0,.37-1.71.87.87,0,0,0-.5-.74c-.64-.4-2.16-.2-3.37.56a9.84,9.84,0,0,0-1,.66l-1.16.87c-.78.57-1.57,1.12-2.36,1.65l-2.3,1.56c-.36.26-.72.51-1,.74l-.33.3c-.06.06-.06.13.05-.14a1.36,1.36,0,0,0,.07-.72,1.48,1.48,0,0,0-.27-.66c-.19-.22-.17-.16-.1-.13l.16.08.11,0,.06,0a3.47,3.47,0,0,1,.42.22,3.63,3.63,0,0,1,1.15,1.28,16.47,16.47,0,0,1,1.21,3c1.14,3.77,1.92,7.44,2.7,11.16q2.16,11.13,3.86,22.28c1.1,7.45,2.18,14.89,3.1,22.36l.68,5.61.31,2.81c.05.5.1.88.14,1.52a1.17,1.17,0,0,1,0,.36l0,.22c0,.14,0,.27-.07.41s-.12.54-.19.79a29.17,29.17,0,0,1-1,2.77A6.64,6.64,0,0,0,742,259c0,.57.21.82.79,1.3a14.26,14.26,0,0,1,2.08,1.9,3.73,3.73,0,0,1-3.23.08,3.64,3.64,0,0,1-2.12-3.21,9.09,9.09,0,0,1,.67-3.2c.32-.92.65-1.76.84-2.56.05-.2.09-.39.12-.58a2.66,2.66,0,0,0,0-.28v-.14s0-.13,0,0L741,251l-.44-2.77-.93-5.55c-1.28-7.39-2.52-14.79-3.88-22.17s-2.63-14.76-4.18-22.07c-.75-3.63-1.51-7.32-2.53-10.76a13.58,13.58,0,0,0-.83-2.19c0-.09-.2-.16.27.19a1.41,1.41,0,0,0,.27.14l-.11,0-.22-.09-.46-.23a4,4,0,0,1-1.2-1,2.75,2.75,0,0,1-.57-1.29,2.7,2.7,0,0,1,.16-1.41,3.64,3.64,0,0,1,.85-1.29,6.68,6.68,0,0,1,.71-.65c.45-.36.86-.65,1.27-.93l2.37-1.59,2.28-1.54L735,175a13.21,13.21,0,0,1,1.38-.91,9.41,9.41,0,0,1,3.38-1.16,6.37,6.37,0,0,1,4,.68,4.88,4.88,0,0,1,2.44,3.8,7.15,7.15,0,0,1-.76,3.75,12.92,12.92,0,0,1-.84,1.46l-.47.66a1.83,1.83,0,0,0-.13.24,8.47,8.47,0,0,0-.48,2.18,70,70,0,0,0,0,10.94c.22,3.71.54,7.43.88,11.16.74,7.45,1.61,14.9,2.55,22.35S748.83,245,749.8,252.5Z"></path><path class="cls-4" d="M383.06,294.25c-29.39-2.22-43-16.52-43-16.52-18.35,27.45-15.71,44.87-18.91,74-2.79,25.31-26.77,113.08-26.77,113.08,14.7,5.51,39.86,11.16,39.86,11.16-.8,9.47-5.76,22.52-5.76,22.52,38.16,12.25,111.29-26.6,111.29-26.6,32-164.35,4.9-173.61,0-197C439.77,274.86,432.77,298,383.06,294.25Z"></path><path class="cls-4" d="M398.29,119.16a84.3,84.3,0,0,0,1,15,47.53,47.53,0,0,1-1.43,15.22,72.67,72.67,0,0,1-5.38,14.27,80.84,80.84,0,0,1-8.05,13h0L383,178.41l-1.33-1.69a61.25,61.25,0,0,1-6.55-10.47A87.08,87.08,0,0,1,370.37,155a93.94,93.94,0,0,1-3.14-11.76c-.46-2-.69-4-1-6s-.43-4-.66-6v-.15l0-.18,1.72-13.26,3.08.37-1.44,13.29V131c.23,1.94.38,3.9.66,5.84s.56,3.87,1,5.78a91.67,91.67,0,0,0,3.07,11.31,85,85,0,0,0,4.58,10.76,59.34,59.34,0,0,0,6.13,9.75l-2.74,0h0a81.43,81.43,0,0,0,8.2-12.11,66.1,66.1,0,0,0,5.74-13.51,40.72,40.72,0,0,0,1.66-14.45,86.58,86.58,0,0,0-2.59-14.75Z"></path><path class="cls-4" d="M439.77,500.88c1.51,23.14.37,46.42-2.11,69.49q-1,8.65-2.19,17.28l-1.4,8.6-.37,2.15a13.35,13.35,0,0,1-.72,2.46,11.65,11.65,0,0,1-3.11,4.41c-5.9,4.93-15.16,1.94-17.18-5.13a9.47,9.47,0,0,1-.29-1.28l-.1-.64-.07-.51-.26-2.08-.61-4.26-1.28-8.56L399.85,514.2l-5-34.32L390,445.52c2.2,11.35,4.26,22.73,6.38,34.11l6.13,34.15L408.39,548c1.93,11.4,3.93,22.79,5.71,34.23.45,2.86.9,5.71,1.29,8.59l.6,4.33.45,4.08a6.59,6.59,0,0,0,1.43,3,6,6,0,0,0,2.9,1.86,4.79,4.79,0,0,0,1.72.26,5,5,0,0,0,1.69-.27,5.24,5.24,0,0,0,2.58-1.9,7.91,7.91,0,0,0,1.31-3l.31-1.74.33-2.13,1.43-8.52,1.39-8.52,1.27-8.55q2.47-17.1,4.25-34.31C438.21,524,439.22,512.45,439.77,500.88Z"></path><path class="cls-4" d="M431.56,594.54a37,37,0,0,1,2.58,11.5c.54,7.06,1.22,12,5.58,20.4s-4.52,10.32-23.14,9.52c-19.1-.81-3.83-13.11-4.09-23.18S410.3,598.5,414,594.54c0,0-1.17,11.5,8.75,11.5S431.56,594.54,431.56,594.54Z"></path><path class="cls-4" d="M336.38,471.89a83.49,83.49,0,0,1-3.07,18.1c-1.62,5.9-3.5,11.74-5.57,17.5a359.63,359.63,0,0,1-14.42,33.74c-5.33,11-11.09,21.8-17,32.48l-8.89,15.95c-2.92,5.32-5.86,10.64-8.31,16-.29.62-.62,1.45-1,2.25a17.3,17.3,0,0,1-1.48,2.27,13.46,13.46,0,0,1-4.3,3.69,9.78,9.78,0,0,1-6,1.13,8.82,8.82,0,0,1-5.51-3.07,10,10,0,0,1-2.24-5.45c0-.47-.08-.88-.08-1.5s.06-1,.11-1.37c.1-.84.23-1.62.37-2.4.58-3.09,1.28-6.06,2-9,2.9-11.9,6.28-23.6,9.62-35.33q10.2-35.11,21.49-69.88l-18.18,70.78c-3,11.79-6,23.61-8.64,35.43-.65,2.95-1.28,5.91-1.77,8.82-.11.72-.22,1.45-.28,2.12a8.12,8.12,0,0,0-.06.91,5,5,0,0,0,.11.77,5.83,5.83,0,0,0,1.35,2.81c1.29,1.38,3.29,1.48,5.18.5a8.12,8.12,0,0,0,2.56-2.23,11.61,11.61,0,0,0,1-1.56,17.25,17.25,0,0,0,1-1.85c2.67-5.67,5.7-11,8.71-16.29l9.13-15.84c6.13-10.5,12.12-21.06,17.69-31.84a351.5,351.5,0,0,0,15.13-33c2.2-5.65,4.2-11.37,6-17.16S334.44,477.72,336.38,471.89Z"></path><path class="cls-4" d="M276.89,602.09s1,10.68-8.21,10.68-8.13-10.68-8.13-10.68c-19.88,16-45.09,30.56-45.09,30.56s22.77,0,41.83,0c19.74,0,21.1-1,19.63-12.23S276.89,602.09,276.89,602.09Z"></path><path class="cls-4" d="M395.93,93.48c3.36-1,6.74-1.71,10.14-2.39l-.7,2A31.46,31.46,0,0,1,401,88.55a22.78,22.78,0,0,1-3.24-5.65,31.57,31.57,0,0,1-1.7-6.18c-.36-2.07-.67-4.11-.84-6.15l0-.48.12-.28a11,11,0,0,1,2-3.14A10.42,10.42,0,0,1,400,64.4a11.27,11.27,0,0,1,6.81-1.32,18.29,18.29,0,0,1,6.26,2,30.58,30.58,0,0,1,5.3,3.5c-3.81-1.72-7.79-3.26-11.67-3.23a9.42,9.42,0,0,0-5.18,1.53,8.91,8.91,0,0,0-1.91,1.82,8,8,0,0,0-1.25,2.21l.08-.76c.37,2,.63,4,1,5.92A41.55,41.55,0,0,0,401,81.66a24.94,24.94,0,0,0,2.52,5.1A40.79,40.79,0,0,0,407,91.43l1.72,1.95-2.42.08C402.89,93.59,399.42,93.65,395.93,93.48Z"></path><path class="cls-4" d="M392.43,66.21C389,66.84,386,67,383,67.38c-1.49.17-2.94.41-4.43.68s-2.95.71-4.71,1.12a9.31,9.31,0,0,1,3.69-3.75,13.64,13.64,0,0,1,5-1.62,15.52,15.52,0,0,1,5.18.27A11.72,11.72,0,0,1,392.43,66.21Z"></path><path class="cls-4" d="M398.44,101.43a7.47,7.47,0,0,1-3.27.29,3.83,3.83,0,0,1-2.33-1.24c-.06-.08-.14-.16-.18-.23a23.88,23.88,0,0,1-3.07-.12l1.9-2.27a7.21,7.21,0,0,0,1.17,2.39c.72,0,1.5,0,2.3-.11,2-.16,4.08-.36,6.7-.5a50.52,50.52,0,0,0-5.17-1.78A42.4,42.4,0,0,0,390,96.57l-2.63-.28.73,2.55a8.51,8.51,0,0,0,2.36,4.1,6.28,6.28,0,0,0,4.67,1.67,7.84,7.84,0,0,0,4.19-1.58,5.83,5.83,0,0,0,2.38-3.39A7.62,7.62,0,0,1,398.44,101.43Z"></path><ellipse class="cls-4" cx="384.96" cy="76.47" rx="2.71" ry="6.52" transform="translate(-7.5 72.59) rotate(-10.67)"></ellipse><ellipse class="cls-4" cx="407.26" cy="75.63" rx="2.71" ry="6.52" transform="translate(-6.54 56.87) rotate(-7.92)"></ellipse><path class="cls-4" d="M417.24,53.75s-5.66-69-57.36-23.59c0,0-16.68,6.14-22.33,16.16-7.33,13-12.61,35.93-4.83,52.87,8,17.52,22.68,24.19,33.49,26.7,1.12.26,2.2.47,3.23.65a49.16,49.16,0,0,0,10.25.8s-1.6-5.37-4.66-18.12q-.64-2.77-1.42-6c-.18-.78-.36-1.58-.56-2.42C368.15,79.43,370,51.6,370,51.6l-1.77-1.11C371.93,52.69,393.31,64.09,417.24,53.75ZM345.41,83.62c-6.05-15.52,10.52-17,9.16-11.13-3.17,13.67,1.58,20.68,1.81,21C354.49,92.62,348.85,92.47,345.41,83.62Z"></path><path class="cls-4" d="M411.39,103.61a43.74,43.74,0,0,1-3.57,7.79,25.37,25.37,0,0,1-5.63,6.79,13.43,13.43,0,0,1-8.81,3.11,18.16,18.16,0,0,1-8.72-3.11c-5-3.4-8.76-7.79-12.28-12.24s-6.66-9.12-10-13.7c4.46,3.56,8.29,7.81,12.15,11.87,1.95,2,3.83,4.06,5.86,5.93a42.44,42.44,0,0,0,6.26,5.13,15.34,15.34,0,0,0,6.95,2.74,11.09,11.09,0,0,0,7-2,27.25,27.25,0,0,0,5.84-5.54C408.2,108.29,409.73,105.92,411.39,103.61Z"></path><path class="cls-4" d="M305.79,211.5c-1.7,12.84-2.66,25.64-3.63,38.5s-2.33,25.69-3.3,38.58c-.52,6.46-1.09,12.91-2,19.37a66.07,66.07,0,0,1-2,9.73,22.28,22.28,0,0,1-.93,2.45,12.3,12.3,0,0,1-.65,1.24l-.69,1.07a36.39,36.39,0,0,1-3.1,4,89.78,89.78,0,0,1-7.1,6.79,25.56,25.56,0,0,0-5.75,7.09,29.53,29.53,0,0,0-2.79,8.76c-.61,3.08-1.06,6.22-2,9.45-1.78-6.45-.73-13.34,2.19-19.55a28.9,28.9,0,0,1,6.21-8c2.39-2.29,4.82-4.3,6.87-6.63a34.22,34.22,0,0,0,2.84-3.64l.63-1c.16-.28.32-.59.47-.91a17.58,17.58,0,0,0,.78-2.08,64.65,64.65,0,0,0,2-9.22c1-6.32,1.52-12.74,2.06-19.16,1.07-12.85,1.36-25.79,2.66-38.67S301.82,223.88,305.79,211.5Z"></path><path class="cls-4" d="M304.48,352.46c.26-1.83.68-3.33.84-4.84a27.49,27.49,0,0,0,.22-4.31,29.09,29.09,0,0,0-.48-4.34c-.26-1.5-.6-3.05-1-4.83a9.36,9.36,0,0,1,3.8,3.76,11.35,11.35,0,0,1,1.49,5.28,11.1,11.1,0,0,1-1.21,5.39A9.36,9.36,0,0,1,304.48,352.46Z"></path><path class="cls-4" d="M294.76,347.73c.47,3.7.73,7.24.94,10.8.08,1.78.22,3.55.15,5.33,0,.88-.08,1.78-.18,2.67s.22,1.77-1.44,2.77c-1.76-.8-1.47-1.73-1.73-2.63s-.3-1.81-.36-2.72a33.46,33.46,0,0,1,.1-5.48,45.79,45.79,0,0,1,.82-5.44A25.36,25.36,0,0,1,294.76,347.73Z"></path><path class="cls-4" d="M288.28,343.3c-.24,2.65-.44,5.25-.63,7.85s-.34,5.17-.43,7.75l-.29,7.71c-.09,1.29-.16,2.57-.28,3.86s.23,2.56-1.44,4c-1.75-1.22-1.5-2.58-1.73-3.89s-.27-2.66-.27-4a49.41,49.41,0,0,1,.57-8,61,61,0,0,1,1.64-7.82A37.9,37.9,0,0,1,288.28,343.3Z"></path><path class="cls-4" d="M279.91,343.31c.25,4.73.28,9.33.27,13.94,0,2.3,0,4.6-.17,6.89-.09,1.15-.19,2.3-.34,3.45s.11,2.29-1.6,3.46c-1.71-1.16-1.37-2.33-1.58-3.5s-.19-2.34-.2-3.51a54.86,54.86,0,0,1,.44-7c.29-2.32.64-4.64,1.16-6.94A39.93,39.93,0,0,1,279.91,343.31Z"></path><path class="cls-4" d="M333.87,213.26a39.86,39.86,0,0,1-.28,6c-.18,2-.48,4-.73,5.94q-.87,5.91-2,11.78c-1.48,7.82-3.31,15.57-5.3,23.27q-1.55,5.77-3.23,11.5c-1.2,3.79-2.32,7.61-3.67,11.36a172.15,172.15,0,0,1-9.11,22.09c2.24-7.65,4.34-15.27,6.43-22.91s4.13-15.28,6.11-22.95l6.05-23,3-11.5C332.12,221,333.2,217.18,333.87,213.26Z"></path><path class="cls-4" d="M361.61,132.93c-6.72.75-12.69,3.92-17.94,7.81a72.45,72.45,0,0,0-7.47,6.42q-3.56,3.43-6.76,7.21a157.1,157.1,0,0,0-11.92,15.83c-3.49,5.52-7,11.38-10.6,17l0-1.51A14,14,0,0,0,309,188a31,31,0,0,0,2.58,2.09,40.73,40.73,0,0,0,5.8,3.49,66.51,66.51,0,0,0,6.28,2.78l3.26,1.17,3.31,1.07-3.45-.53-3.42-.75a57.9,57.9,0,0,1-6.71-2.11,43,43,0,0,1-6.39-3.14,29.78,29.78,0,0,1-3-2.08,16.09,16.09,0,0,1-2.74-2.69l-.52-.65.47-.86c1.61-2.94,3.29-5.84,4.94-8.75l2.49-4.35c.85-1.47,1.75-2.94,2.66-4.36a123,123,0,0,1,12.32-16.17,76.83,76.83,0,0,1,15.46-13.3C348.1,135.21,354.82,132.54,361.61,132.93Z"></path><path class="cls-4" d="M560.13,267.44c-2.54.37-3.9-.76-5.34-1.8s-2.56-2.49-3.92-3.64-2.71-2.3-4.1-3.41c-.69-.55-1.4-1.09-2.13-1.6a7.55,7.55,0,0,0-2.31-1.26,7.52,7.52,0,0,1,2.62.68c.85.33,1.67.72,2.49,1.11,1.63.79,3.22,1.66,4.79,2.55s3.27,1.63,4.73,2.67S559.85,264.89,560.13,267.44Z"></path><path class="cls-4" d="M406.61,132.93a43.9,43.9,0,0,1,17.06,2.9,66.72,66.72,0,0,1,8,3.46,83.11,83.11,0,0,1,7.59,4.29,127.56,127.56,0,0,1,14.05,10.26,137,137,0,0,1,12.58,12l2,2.18-2.88.5a67.93,67.93,0,0,0-8,1.94,45.44,45.44,0,0,0-7.64,3.1,18.63,18.63,0,0,0-6.28,5.07,10,10,0,0,0-1.71,7.83,10.72,10.72,0,0,1-.64-4.26A9.84,9.84,0,0,1,442,178a18.5,18.5,0,0,1,6.23-6.24,40,40,0,0,1,7.83-3.9,55.15,55.15,0,0,1,8.39-2.48l-.9,2.69c-4-4-8.18-7.85-12.53-11.45a166,166,0,0,0-13.5-10.31,104.16,104.16,0,0,0-14.66-8.45A55.13,55.13,0,0,0,406.61,132.93Z"></path><path class="cls-4" d="M469.4,173.88a203.06,203.06,0,0,1,17.34,15.85c5.52,5.56,10.83,11.32,16,17.15l15.54,17.49c2.6,2.88,5.2,5.76,7.88,8.51a67.41,67.41,0,0,0,8.49,7.61h0l-.43-.17,16.42,3.48-.21,1.17-16.62-2.24-.21,0-.22-.14a50.88,50.88,0,0,1-9.57-7.26c-2.9-2.7-5.63-5.55-8.27-8.46C510.29,221,505.35,215,500.35,209s-10-12-15.06-17.91S474.92,179.42,469.4,173.88Z"></path><path class="cls-4" d="M560.13,269.72a18.32,18.32,0,0,1-13.11,2,37.45,37.45,0,0,1-12.46-5.11,60.1,60.1,0,0,1-10.42-8.26,64.55,64.55,0,0,1-4.51-4.85,57.51,57.51,0,0,1-4.06-5.27h0l.32.34c-5.88-4-11.56-8.33-17.19-12.68s-11.18-8.83-16.77-13.24-11.14-8.88-16.69-13.35-11-9-16.55-13.52c5.83,4.09,11.72,8.11,17.51,12.25s11.63,8.24,17.39,12.42,11.57,8.31,17.3,12.54,11.41,8.52,16.88,13.09l.25.2.08.14h0a97.53,97.53,0,0,0,8.57,9.3,71,71,0,0,0,9.78,7.91,37.31,37.31,0,0,0,11.21,5.18A35.46,35.46,0,0,0,560.13,269.72Z"></path><path class="cls-4" d="M425.77,213.68c.79,6.6,2.05,13,3.45,19.43l1.1,4.79,1.21,4.77c.81,3.18,1.61,6.36,2.52,9.52s1.75,6.33,2.65,9.49l2.73,9.49c1.85,6.32,3.7,12.66,5.44,19.07a156,156,0,0,1-8.09-18.18q-3.55-9.3-6.19-18.93a157.39,157.39,0,0,1-4.11-19.52A82.64,82.64,0,0,1,425.77,213.68Z"></path><path class="cls-4" d="M345.18,177c-1.17,4.33-2.42,8.54-3.33,12.77a46.54,46.54,0,0,0-1.22,12.6,17.66,17.66,0,0,0,4.25,11,20.72,20.72,0,0,0,4.85,3.9,48.33,48.33,0,0,0,5.93,2.81,24.93,24.93,0,0,1-6.67-1.21,18.3,18.3,0,0,1-6.07-3.51,16.54,16.54,0,0,1-4.25-5.83,21.84,21.84,0,0,1-1.62-7A35.78,35.78,0,0,1,339.16,189,50.67,50.67,0,0,1,345.18,177Z"></path><path class="cls-4" d="M418.66,170.81a65.2,65.2,0,0,1,9.31,10.5,38.08,38.08,0,0,1,6.18,13,19.47,19.47,0,0,1,.27,7.54,14.54,14.54,0,0,1-3.3,6.88c-3.37,3.87-8.09,5.67-12.64,6.5a49.57,49.57,0,0,0,5.85-3.62A19.51,19.51,0,0,0,428.9,207c2.4-3.46,2.78-7.75,1.75-11.93a33.58,33.58,0,0,0-2.08-6.21c-.85-2.06-1.92-4.05-3-6.06C423.43,178.79,420.94,174.9,418.66,170.81Z"></path><path class="cls-4" d="M338.25,281.81a80.9,80.9,0,0,0,5.14-13.5,123.85,123.85,0,0,0,2.84-14.3c.66-4.84,1-9.74,1.32-14.66s.37-9.89.31-14.88a87.34,87.34,0,0,1,2.1,14.86,104,104,0,0,1-.16,15.08,84.93,84.93,0,0,1-2.75,15,53.11,53.11,0,0,1-6.42,13.89Z"></path><path class="cls-4" d="M442.53,195.77a51.15,51.15,0,0,1-6.81-4.92q-3.18-2.67-6.08-5.63c-1.94-2-3.79-4-5.53-6.18a50.35,50.35,0,0,1-4.8-6.89,51.15,51.15,0,0,1,6.81,4.92q3.18,2.67,6.08,5.63c1.93,2,3.78,4,5.53,6.18A51.89,51.89,0,0,1,442.53,195.77Z"></path><path class="cls-4" d="M754.12,272c.52,8.15.48,16.3.78,24.42a108.09,108.09,0,0,0,.73,12c.07.49.14.94.25,1.42l.44,1.44c.32.95.64,1.9,1,2.83.72,1.88,1.53,3.72,2.42,5.54,1.75,3.65,3.78,7.2,5.64,10.87a60.41,60.41,0,0,1,6.55,35.88c.3-8.15-.33-16.41-2.93-24.1a70.35,70.35,0,0,0-5-11.07c-1.94-3.57-4.08-7.06-6-10.73a65.38,65.38,0,0,1-4.8-11.56,52.43,52.43,0,0,1-1.2-6.17c-.3-2.05-.58-4.1-.77-6.15a200.43,200.43,0,0,1-.77-24.61Z"></path><path class="cls-4" d="M744.08,363.38A14.36,14.36,0,0,1,739,358a19,19,0,0,1-2.21-7.16,23.67,23.67,0,0,1,2.92-14.19c.24,2.46.18,4.8.25,7.08s.16,4.52.4,6.71a36.46,36.46,0,0,0,1.23,6.46A48.85,48.85,0,0,0,744.08,363.38Z"></path><path class="cls-4" d="M750.21,345.91a40.14,40.14,0,0,1,2.32,9.1,70.18,70.18,0,0,1,.74,9.39,60.21,60.21,0,0,1-.61,9.39c-.2,1.55-.58,3.08-.92,4.61s-.43,3.12-2.44,4.3c-1.47-1.86-.83-3.27-.81-4.82l.35-4.55c.26-3,.59-6,.85-9.06A174.58,174.58,0,0,0,750.21,345.91Z"></path><path class="cls-4" d="M758,345.24a42.28,42.28,0,0,1,2.48,9.59,65.8,65.8,0,0,1,.68,9.92,57.78,57.78,0,0,1-.89,9.91,44.91,44.91,0,0,1-1.18,4.84c-.53,1.57-.61,3.28-2.7,4.42-1.36-2-.6-3.46-.49-5.08l.56-4.77c.41-3.16.81-6.32,1.12-9.5s.46-6.37.55-9.59S758.24,348.52,758,345.24Z"></path><path class="cls-4" d="M764.49,346.77a29.74,29.74,0,0,1,3.14,8.94,44.7,44.7,0,0,1,.83,9.53,42.29,42.29,0,0,1-1.23,9.5,37.9,37.9,0,0,1-1.48,4.56c-.66,1.44-.9,3.08-3,3.93a4.23,4.23,0,0,1-.58-2.65c.12-.76.38-1.47.48-2.23.26-1.5.64-3,.86-4.44.14-.74.27-1.48.43-2.22l.36-2.22c.31-1.47.44-3,.63-4.46a73.54,73.54,0,0,0,.42-9.05A61.25,61.25,0,0,0,764.49,346.77Z"></path><path class="cls-4" d="M577.07,283.61l8.77,17.78c3,5.9,6,11.8,9,17.65s6.16,11.72,9.24,17.61,6.2,11.75,9.13,17.76c-4.21-5.2-8.1-10.63-11.8-16.18s-7.21-11.24-10.53-17-6.41-11.74-9.2-17.82a157.9,157.9,0,0,1-7.4-18.67Z"></path><path class="cls-4" d="M628.93,326c0,1.95-.29,3.86-.53,5.79s-.7,3.79-1.14,5.67a61.84,61.84,0,0,1-3.9,11,42.45,42.45,0,0,1-6.47,9.87,23.81,23.81,0,0,1-4.58,3.9c-1.72,1-3.66,2-5.67,1.82a13.28,13.28,0,0,0,4.24-3.52,34.32,34.32,0,0,0,3.21-4.37,108.86,108.86,0,0,0,5.21-9.65c1.55-3.35,3.1-6.72,4.62-10.16S627,329.4,628.93,326Z"></path><g class="cls-2"><path class="cls-3" d="M678.66,124.55s-1.4-5,3.6-1.07,22.75,15.3,27.52,17.61,17.72,10.26,29.28,7.34l-58.83,4.34S685.48,137.74,678.66,124.55Z"></path></g><g class="cls-2"><path class="cls-3" d="M741.23,272.86s-1,34.54,5.52,46.43,14.88,27.59,12.75,47.16c0,0,2.92-10.39,7.29-4.1,0,0-.57-15.54,4.8-10.55a66.35,66.35,0,0,0-11.07-28.12s-6.32-11.26-7-21.58-1.21-25.29-1.21-25.29,1.48-4.88-3-4.54Z"></path></g><g class="cls-2"><path class="cls-3" d="M385,116.22s4.76,17.4,3.86,31.84-1.87,22-1.87,22l5.81-10.39s18.63,29.36,18.63,41.23c0,19.2-8.13,20.7-7.29,32.4,3.65,50.77-10.75,68.61-10.75,68.61l49.18-7.74a73.43,73.43,0,0,0-5.26-25.07c-5.3-13.11-10.18-37.21-10.8-44.66s-1.8-12.56,2.5-15.39A16.25,16.25,0,0,0,432,193c-3.38-9.31-11-19.12-11-19.12l20.24,7.3s1.28-6.47,12.31-10.37c0,0,45.6,45.58,56.43,56.7s18.56,17.4,22.42,19.81,18.82,6,18.82,6l-.65-6.57s2.49-2.17-3.55-3.14S532.89,241,532.89,241,490,193.77,479.48,183.55,461.73,167,461.73,167l1.24-1.85a125.84,125.84,0,0,0-33.89-25.64c-20.33-10.27-31.14-5.56-31.14-5.56L397,124s2-4.36-5.05-4.53Z"></path></g></g></g></svg>