<svg xmlns="http://www.w3.org/2000/svg" viewBox="0 0 1179.29 718.63"><defs><style>.cls-1{opacity:0.15;}.cls-2{fill:#1a3141;}.cls-3{fill:#293b4a;}</style></defs><g id="Layer_2" data-name="Layer 2"><g id="ARTWORK"><g class="cls-1"><path class="cls-2" d="M950.81,526.66c-6.12,7.27-14.25,37-14.25,37"></path></g><g class="cls-1"><path class="cls-2" d="M917,493.56s49.08,11.56,77.66,4.69c0,0,26.68,5-6.75,30.39-10.61,8.07-46.16,40.16-46.16,40.16l5.07,1.37s7.29-2.51,23.1-13.41c0,0,3.11-4.56,1,4s-22,91.42-23.68,95.55-3.41,10-17.53,6.28L932,562.85l5.21-2.39S943,541.25,944.91,537s5.34-9.92,7.17-11l-10.49,2.16s5.64-7.93,1-15-17.7-7.77-23.42-6.7Z"></path></g><g class="cls-1"><path class="cls-2" d="M808.65,184.26l48.77-24.91,3,4.08,8,2.95v56.16S835.7,214.77,808.65,184.26Z"></path></g><g class="cls-1"><path class="cls-2" d="M681.52,201.66c-2.81,8.16-5.65,24-5.65,24l-119.16.55s2.85-20.87,14.94-32.85S596,175.85,603,175.08c0,0-24.8,9.83-5.07,23.47s36,7.84,49.17-1.82c16.8-12.29,4.79-24.69,14.36-27,0,0,12.8-4.51,22.37-13.07l2.71,2.64s8.12,9,22.87,15.58l2,.89S700,198.06,681.52,201.66"></path></g><g class="cls-1"><path class="cls-2" d="M447.2,233.53l50.69,29.23H552.1l60.71,60.71v-45h11.27v54.71l8.94,9.23,18.2-63.83,10.19,2.9-20.23,71L640,356.56s-2.65,4.55,0,4.31,30.55,0,30.55,0l50.19,50.2V233.53Z"></path></g><g class="cls-1"><path class="cls-2" d="M369.27,203.52c55.16,18.14,66.12,73.35,40.92,170.34l-1.39,44.46s-1,11.91-28.52,13.08c0,0-1.39-30.75-7.36-57.83-7.87-35.74,15-62.32-2.77-95.09s.57-48,0-58.85S369.27,203.52,369.27,203.52Z"></path></g><path class="cls-3" d="M412.44,225.72l154.18-1.07,77.08-.53c25.7-.06,51.4-.33,77.09-.12l1.59,0,0,1.6c.34,17.92.43,35.85.65,53.78l.26,53.78c.14,17.93,0,35.85,0,53.78l-.05,26.89,0,13.45v10.08a2.2,2.2,0,1,1-3.72,0l0-3.36,0-6.72-.1-13.45L719.16,387c-.09-17.92-.34-35.85-.3-53.78l0-53.78c.13-17.93.12-35.86.36-53.79l1.62,1.62c-25.7.31-51.39.14-77.09.17l-77.09-.23-154.18-.48Z"></path><path class="cls-3" d="M605.15,84.28l-1.1-72.57,1,1-235.46.59-117.73.16L193,13.33l-58.87.07,1.7-1.7L136.18,303l-2.07-2.07,40.81.11,20.41.06,10.2,0h5.1a5.8,5.8,0,0,1,5.1,1.86c-1.7,1.86-3.4,1.89-5.1,1.86h-5.1l-10.2,0-20.41.05-40.81.11h-2.06V303l.36-291.28V10h1.69l58.87.07L251.85,10l117.73.17L605,10.71h1v1l.09,72.57Z"></path><path class="cls-3" d="M584.16,658.55c-.3-5.48-.27-11-.26-16.43l0-16.43.06-32.86.22-65.72v-1.39h1.38l86-.42,86-.29,86-.14c28.66-.07,57.32,0,86,.3h1.25v1.23l0,136.16h-2.22l-.32-136.16,1.25,1.24c-28.66.47-57.32.6-86,.65l-86,.21-86,0-86-.07L587,527.1l.5,65.72.2,32.86.1,16.43c0,5.47.09,10.95-.19,16.43Z"></path><path class="cls-3" d="M1142.94,645.66a6.87,6.87,0,0,1-.74-3.09l-.1-3.1-.18-6.2,1,1c-11.93.25-23.86.37-35.8.5l-35.8.34-35.8.18-17.9,0c-6,0-11.93,0-17.9-.15l1.55-1.56-.56,25.6-.94-.93,16.85.44v1l-16.85.45-.92,0,0-1-.66-25.6,0-1.5,1.58,0c6-.19,11.94-.19,17.9-.23l17.9-.09,35.8,0,35.81.2c11.93.08,23.86.16,35.8.36l1,0,0,1-.15,6.19-.07,3.1A7,7,0,0,1,1142.94,645.66Z"></path><path class="cls-3" d="M628.38,368.71c-6.36.32-12.71.46-19.07.69l-19.07.4c-12.71.27-25.43.33-38.14.39s-25.43,0-38.14-.23l-19.07-.33c-6.36-.21-12.72-.32-19.07-.61,6.35-.31,12.71-.45,19.06-.68l19.07-.41c12.72-.27,25.43-.33,38.14-.38s25.43,0,38.15.23l19.07.33C615.67,368.31,622,368.43,628.38,368.71Z"></path><path class="cls-3" d="M708.42,360.57c-12.08.31-24.15.45-36.22.68l-36.22.41c-24.15.24-48.3.24-72.44.38-24.15-.08-48.3,0-72.45-.23l-36.22-.33c-12.07-.2-24.14-.32-36.22-.61,12.08-.31,24.15-.45,36.22-.68l36.22-.41c24.15-.24,48.3-.25,72.44-.38,24.15.08,48.3,0,72.44.23l36.23.33C684.27,360.17,696.34,360.28,708.42,360.57Z"></path><path class="cls-3" d="M256.73,360.57a7.39,7.39,0,0,1-.45,1.77c-.15.37-.3.52-.45.53h-.9l-1.8,0-3.6,0-7.2.07-14.41,0-28.81-.21-57.62-.78L26.24,360.87l115.24-1.48,57.63-.94,28.81-.28h14.4l7.21.05,3.6,0h2.7c.15,0,.3.16.45.53A7.66,7.66,0,0,1,256.73,360.57Z"></path><path class="cls-3" d="M764.36,102.27c12.16-.33,24.31-.48,36.47-.62l36.46-.21,36.47.14,18.23.2,18.23.35-18.23.39-18.23.23-36.47.2-36.46-.14C788.67,102.7,776.52,102.57,764.36,102.27Z"></path><path class="cls-3" d="M772.38,62.31c5.77-.31,11.54-.46,17.3-.58s11.54-.11,17.31-.17,11.53.06,17.3.18l8.65.21c2.89.13,5.77.2,8.66.38-2.89.17-5.77.24-8.66.37l-8.65.2c-5.77.12-11.53.12-17.3.17s-11.54,0-17.31-.18S778.15,62.62,772.38,62.31Z"></path><path class="cls-3" d="M278.75,613.39a3.72,3.72,0,0,1-.45,1.16c-.15.25-.3.34-.45.35h-2.7l-3.6,0-7.2,0-14.41.06-28.81-.12-57.62-.49L48.26,613.7l115.25-1,57.62-.64,28.81-.19,14.4,0h13.51a.59.59,0,0,1,.45.34A3.8,3.8,0,0,1,278.75,613.39Z"></path><path class="cls-3" d="M585.59,609.73c-.33,2.21-.67,1.33-1,1.52h-1l-2,0-4.08.05-8.16,0L553,611.24l-32.63-.49L455.09,610l65.25-1,32.63-.64,16.31-.2h8.15l4.08,0,2,0h1C584.91,608.4,585.25,607.52,585.59,609.73Z"></path><polygon class="cls-3" points="592.97 261.52 421.19 263.27 421.19 260.62 592.97 261.52"></polygon><polygon class="cls-3" points="798.25 323.42 721.11 325.17 721.09 322.52 798.25 323.42"></polygon><polygon class="cls-3" points="670.57 62.32 605.91 64.07 605.89 61.42 670.57 62.32"></polygon><polygon class="cls-3" points="397.17 492.31 643.37 493.27 397.17 495.34 397.17 492.31"></polygon><polygon class="cls-3" points="271.52 511.63 134.29 510.86 271.5 508.99 271.52 511.63"></polygon><polygon class="cls-3" points="585.64 543.8 418.65 542.68 585.64 541.16 585.64 543.8"></polygon><path class="cls-3" d="M690.23,483.88q-33.4.47-66.8.55c-22.26.15-44.53.09-66.79.06l-33.4-.07-33.4-.26c-22.27-.26-44.53-.62-66.8-1.29,22.27-.73,44.53-1.14,66.8-1.45l33.39-.34,33.4-.15c22.27-.08,44.53-.19,66.8-.09s44.53.14,66.79.39Z"></path><polygon class="cls-3" points="270.29 484.03 119.23 483.02 270.28 481.39 270.29 484.03"></polygon><path class="cls-3" d="M585.68,586.1c6.63.5,13.25.41,19.88.47l19.88.11,39.75.22,39.76.22,39.75.11h1.23l0,1.17-1.12,25.3-1.23-25.29,1.18,1.17-39.76.27-39.75.38-39.76.38-19.87.19c-6.63.09-13.26,0-19.88.55Z"></path><path class="cls-3" d="M954.43,659.43q28.11-.9,56.21-1.24c18.74-.27,37.48-.35,56.22-.41s37.47.05,56.21.27,37.48.54,56.22,1.11q-28.11.92-56.22,1.25c-18.73.26-37.47.35-56.21.4s-37.48,0-56.21-.27S973.17,660,954.43,659.43Z"></path><path class="cls-3" d="M0,660.24c37.92-.62,75.85-.91,113.77-1.38L227.54,658c37.93-.35,75.85-.32,113.78-.47l113.77-.33,113.77.15c37.93.09,75.85,0,113.77.28l113.78.65c37.92.41,75.85.63,113.77,1.2-37.92.63-75.85.92-113.77,1.39l-113.77.83c-37.93.35-75.85.31-113.77.46l-113.78.33-113.77-.15c-37.92-.09-75.85,0-113.77-.29l-113.78-.65C75.85,661,37.92,660.81,0,660.24Z"></path><g class="cls-1"><path class="cls-2" d="M599,535.41H921.22V647.2H801.73c-58.74,0,16.32-90.91-47.3-74.79s-10.6-37-69.22-12.49C631.45,582.4,599,535.41,599,535.41Z"></path></g><path class="cls-3" d="M916.25,513.45a22.51,22.51,0,0,1,9.39-3.26,18,18,0,0,1,5.26.17,11.56,11.56,0,0,1,5.23,2.37,9.41,9.41,0,0,1,2,2.31l.38.66.29.58c.19.38.36.78.52,1.19a10.55,10.55,0,0,1,.91,5.65,5.31,5.31,0,0,1-1.48,2.94,7.35,7.35,0,0,1-2.42,1.54,19.51,19.51,0,0,1-4.9,1c1.26-1.08,2.67-1.94,3.77-2.94a5,5,0,0,0,1.24-1.48,2.68,2.68,0,0,0,.26-1.43,9.87,9.87,0,0,0-1.28-3.54l-.52-1-.27-.48-.25-.35a5.47,5.47,0,0,0-1.15-1.25c-1.76-1.47-4.59-2.17-7.55-2.46S919.56,513.49,916.25,513.45Z"></path><path class="cls-3" d="M864.92,527.93a41.75,41.75,0,0,1-8.46-14.75,43.67,43.67,0,0,1-1.87-16.78,61.44,61.44,0,0,1,3.62-16.3,73.2,73.2,0,0,1,7.38-14.92l-.15.78a177.14,177.14,0,0,1-2.72-17.72,157.2,157.2,0,0,1,.45-35.84,125.63,125.63,0,0,1,3.45-17.76h0l.07,1.33a59.15,59.15,0,0,1-2.6-6.87,55.17,55.17,0,0,1-1.59-7.21,40.18,40.18,0,0,1,.66-14.74,30.22,30.22,0,0,1,6.74-13c3.3-3.59,7.55-6.48,12.3-7.29h0c-1.06.59-2.19.92-3.2,1.52a22,22,0,0,0-2.94,1.9,24.61,24.61,0,0,0-4.83,4.95A30.48,30.48,0,0,0,866,367.76a39,39,0,0,0,.06,13.58,58.1,58.1,0,0,0,4,13.11l.28.68-.21.66h0a115.43,115.43,0,0,0-3.92,17,154.74,154.74,0,0,0-1.43,35.21,132.09,132.09,0,0,0,2.61,17.48h0l.08.4-.23.38a71.32,71.32,0,0,0-6.74,14.59,59.2,59.2,0,0,0-3.06,15.68,40.75,40.75,0,0,0,2.14,15.54,38.18,38.18,0,0,0,8.1,13.28Z"></path><path class="cls-3" d="M875.88,398.34a24.2,24.2,0,0,1,4.8-7,16.46,16.46,0,0,1,7.4-4.45,15.63,15.63,0,0,1,8.83.36,27.93,27.93,0,0,1,7.8,4.09h0l.51.38.06.67c1.51,16.44,2.8,32.9,4.19,49.35v-.08l10.67,71.06-.41-.3,10.12-1.1-.12.05a1.81,1.81,0,0,1,1.86.1,6.2,6.2,0,0,1,1.41,1.06,17,17,0,0,1,2.21,2.67,32.55,32.55,0,0,1,3.18,6.11,32.19,32.19,0,0,0-3.36-6,17.2,17.2,0,0,0-2.24-2.57,6.33,6.33,0,0,0-1.36-1,1.54,1.54,0,0,0-1.41-.12l-.07,0h-.05l-10.08,1.41-.34,0-.06-.35-12.34-70.8V442c-1.6-16.43-3.31-32.85-4.79-49.29l.56,1.05h0a24.8,24.8,0,0,0-6.7-4.33,13.68,13.68,0,0,0-7.73-1,15.5,15.5,0,0,0-7.21,3.53A24.2,24.2,0,0,0,875.88,398.34Z"></path><path class="cls-3" d="M864.69,456c1.29,3.18,2.28,6.43,3.58,9.4a15.22,15.22,0,0,0,2.37,3.93,8.55,8.55,0,0,0,3.55,2.29,21.43,21.43,0,0,0,4.6.92c1.6.25,3.27.28,4.94.45,3.34.24,6.73.45,10.12,1a69.73,69.73,0,0,1-10.14,1.35,29.22,29.22,0,0,1-10.51-.88,11,11,0,0,1-4.75-3.3,14.85,14.85,0,0,1-2.38-4.95A38.83,38.83,0,0,1,864.69,456Z"></path><path class="cls-3" d="M908.26,527.83a5.65,5.65,0,0,1-4.16-1.78A9.8,9.8,0,0,1,902,522.5a28.11,28.11,0,0,1-1.32-7.35,65.13,65.13,0,0,1,0-7.26c.12-2.41.32-4.78.65-7.2l.06.66L891.92,473l-4.79-14.18c-1.67-4.71-3.27-9.43-4.75-14.19l0-.17v-.1L881.23,435c-.36-3.12-.76-6.23-1.07-9.35-.67-6.24-1.32-12.49-1.84-18.75,1.34,6.14,2.55,12.3,3.74,18.46.61,3.08,1.15,6.17,1.72,9.26l1.7,9.25-.06-.26c1.66,4.7,3.2,9.44,4.68,14.21L894.75,472l9.38,28.43.1.32-.05.34c-.31,2.26-.52,4.61-.65,6.93a61.63,61.63,0,0,0,0,6.93,25.11,25.11,0,0,0,1.14,6.59,7.25,7.25,0,0,0,1.43,2.56,2.87,2.87,0,0,0,2.17,1Z"></path><path class="cls-3" d="M925.05,474c8.5-.09,16.93,1,25.34,2s16.8,2.47,25.11,4.25a168.45,168.45,0,0,1,24.57,7,79.58,79.58,0,0,1,11.65,5.55,35.72,35.72,0,0,1,10.09,8.46c.34.49.66.85,1,1.45a8.16,8.16,0,0,1,.78,1.79,9.26,9.26,0,0,1,.23,3.76,18.1,18.1,0,0,1-2.45,6.45,53.59,53.59,0,0,1-8.15,10.16,172.9,172.9,0,0,1-19.52,16.53,392.06,392.06,0,0,1-42.9,27.31c7.09-4.63,14.08-9.4,21-14.24s13.72-9.88,20.37-15.06a191,191,0,0,0,18.91-16.61,55.82,55.82,0,0,0,7.69-9.61,15.27,15.27,0,0,0,2.08-5.33,6.08,6.08,0,0,0-.14-2.53,7,7,0,0,0-1.28-2.28,32.84,32.84,0,0,0-9.17-7.87,77.76,77.76,0,0,0-11.17-5.51,167.19,167.19,0,0,0-24.06-7.46c-8.2-2-16.51-3.51-24.86-4.81S933.44,475.35,925.05,474Z"></path><path class="cls-3" d="M972.77,555.23Q970,568.31,967,581.33c-2,8.69-4.07,17.35-6.15,26s-4.23,17.31-6.39,25.95l-3.35,12.94-3.47,12.9,0,.13,0,0a10,10,0,0,1-3.91,4,12.31,12.31,0,0,1-5.16,1.58,18.85,18.85,0,0,1-5.26-.31c-.84-.21-1.68-.4-2.51-.63s-1.72-.34-2.21-1.46c1.11-.61,1.78-.11,2.59.08s1.6.33,2.4.5a17.51,17.51,0,0,0,4.79.09,10.48,10.48,0,0,0,4.34-1.52,8.21,8.21,0,0,0,2.94-3.2l-.06.16,3-13,3.08-13c2.13-8.65,4.24-17.3,6.48-25.93s4.37-17.27,6.7-25.87,4.63-17.21,7.08-25.78Z"></path><path class="cls-3" d="M945.88,669.11l19.22,49.52-36.58-31.22V667.57S934.18,674.24,945.88,669.11Z"></path><path class="cls-3" d="M950.81,568.8l-21.12,45.91V558.34l9.85-2.82S939.18,563.89,950.81,568.8Z"></path><path class="cls-3" d="M936.56,528.52c3.27-.71,6.43-1.46,9.56-2.29s6.18-1.8,9.17-2.94a68.32,68.32,0,0,0,8.73-3.93,84.57,84.57,0,0,0,8.28-5.18,28.17,28.17,0,0,1-7,7.18,37.75,37.75,0,0,1-8.93,4.76,44.83,44.83,0,0,1-9.78,2.41A34.61,34.61,0,0,1,936.56,528.52Z"></path><path class="cls-3" d="M891.53,359.76a105.77,105.77,0,0,1,9.29,7.47q4.47,4,8.53,8.38a85.6,85.6,0,0,1,7.54,9.39A40.56,40.56,0,0,1,922.42,396l-2.8,0q1.68-5.88,3.58-11.7c1.3-3.87,2.62-7.73,4.17-11.54-.56,4.07-1.35,8.08-2.17,12.08s-1.78,8-2.77,11.92l-1.24,4.95-1.56-4.91a43.25,43.25,0,0,0-5.21-10.13c-2.16-3.21-4.53-6.32-7-9.34C902.4,371.27,897,365.52,891.53,359.76Z"></path><path class="cls-3" d="M932.76,422.19a15,15,0,0,0,7.32-2.84,13,13,0,0,0,4.24-6.17,20.59,20.59,0,0,0,1-7.57,25.41,25.41,0,0,0-1.41-7.54c-.23-.59-.4-1.21-.68-1.78l-.84-1.73a33,33,0,0,1-1.79-3.87,32.29,32.29,0,0,1-2-8.22,34.78,34.78,0,0,1,1.93-16.41,48.67,48.67,0,0,0,.4,16,35.21,35.21,0,0,0,2.34,7.51,36.7,36.7,0,0,0,1.71,3.51l1,1.94c.34.65.54,1.34.82,2,1.78,5.47,2.07,11.56-.28,17a13.79,13.79,0,0,1-5.6,6.55A13.58,13.58,0,0,1,932.76,422.19Z"></path><path class="cls-3" d="M951.21,412.44c.11,4.83,0,9.62-.24,14.4s-.54,9.55-.87,14.31c-.76,9.54-1.65,19-3,28.56a112.05,112.05,0,0,1-.69-14.41c0-4.8.29-9.59.62-14.38s.87-9.55,1.55-14.3S950.08,417.13,951.21,412.44Z"></path><path class="cls-3" d="M943.26,417.53c-1,3.88-2.23,7.6-2.91,11.45a86.13,86.13,0,0,0-1.54,11.52,110.51,110.51,0,0,0-.3,11.66c.11,3.91.37,7.82.77,11.81a43.56,43.56,0,0,1-3.12-11.61,56.72,56.72,0,0,1-.37-12.08c.14-2,.46-4,.77-6l.68-3c.12-.49.22-1,.36-1.47l.48-1.44A41.11,41.11,0,0,1,943.26,417.53Z"></path><path class="cls-3" d="M942.11,350.3A10.09,10.09,0,0,1,946.9,353a18.48,18.48,0,0,1,3.31,4.5,31.23,31.23,0,0,1,3.3,10.53,36.41,36.41,0,0,1-.2,11,22.49,22.49,0,0,1-4.13,10.05A39.91,39.91,0,0,0,951,378.73a56.33,56.33,0,0,0-.45-10.31,43.77,43.77,0,0,0-2.43-9.94C946.83,355.34,945.17,352.26,942.11,350.3Z"></path><path class="cls-3" d="M504.37,442.35c-1.31-1-.87-1.92-.95-2.87s0-1.89,0-2.83c-.06-1.89-.15-3.77-.34-5.64s-.45-3.74-.68-5.61-.62-3.7-1.09-5.52a65.52,65.52,0,0,0-8.4-20.63,52.9,52.9,0,0,0-15.21-16,42,42,0,0,0-9.79-5,27.07,27.07,0,0,0-10.59-1.71l1.15-.7c-3.14,5.38-5.21,11.87-4.81,18.13a21.83,21.83,0,0,0,.82,4.62,21.13,21.13,0,0,0,1.87,4.28,24.89,24.89,0,0,0,6.39,7,46,46,0,0,0,17.72,7.9c6.37,1.24,13.31.72,19.16-2.48a24.21,24.21,0,0,1-9.3,3.55,32.94,32.94,0,0,1-10.06.13,46.9,46.9,0,0,1-18.7-7.45,25.22,25.22,0,0,1-7.23-7.39,23.75,23.75,0,0,1-2.21-4.77,24.4,24.4,0,0,1-1-5.14,30.57,30.57,0,0,1,.95-10.32,39.37,39.37,0,0,1,3.88-9.61l.37-.65.78-.05a29.56,29.56,0,0,1,11.86,1.78,44.75,44.75,0,0,1,10.54,5.31,55.3,55.3,0,0,1,16.05,17,67.27,67.27,0,0,1,8.33,21.7c.42,1.9.65,3.82.95,5.73s.45,3.84.52,5.78.17,3.85.18,5.78c0,1,0,1.92,0,2.88S505.7,441.45,504.37,442.35Z"></path><path class="cls-3" d="M466.52,388c-.13,1.53-.26,3.14.34,4.22s1.81,1.44,3.17,1.79c2.78.61,6,.93,9,2,.77.24,1.51.59,2.25.89a11.59,11.59,0,0,1,2.23,1.38,7.47,7.47,0,0,1,2.79,4.56,15.15,15.15,0,0,1-.15,4.84,6.36,6.36,0,0,0,0,2.08,2.3,2.3,0,0,0,1.38,1.48,2.49,2.49,0,0,1-2.15-1.14,6.47,6.47,0,0,1-.67-2.42,19.53,19.53,0,0,0-.66-4.27,5.39,5.39,0,0,0-2.23-2.84,10,10,0,0,0-1.71-.94c-.67-.25-1.32-.55-2-.76-2.74-1-5.65-1.48-8.72-2.62A9.14,9.14,0,0,1,467,395a7.14,7.14,0,0,1-1-1,4,4,0,0,1-.58-1.3A6.71,6.71,0,0,1,466.52,388Z"></path><path class="cls-3" d="M507.32,427.89a86.21,86.21,0,0,1,.91-16.89,47.92,47.92,0,0,1,5.57-16.2,33,33,0,0,1,12.34-12.18,39.39,39.39,0,0,1,16.68-4.72l1.29-.09.26,1.21a53.91,53.91,0,0,1,1.23,13.73,31.42,31.42,0,0,1-3.21,13.49,17.56,17.56,0,0,1-10.58,8.8,29.26,29.26,0,0,1-13.51.23,31,31,0,0,0,13.08-1.49,17,17,0,0,0,5.39-3.39,17.31,17.31,0,0,0,3.65-5.14,30.88,30.88,0,0,0,2.46-12.57,57.79,57.79,0,0,0-1.39-12.95l1.55,1.12a39.11,39.11,0,0,0-15.48,4.33A31.76,31.76,0,0,0,516,396.11a49.55,49.55,0,0,0-6.16,15.21A110,110,0,0,0,507.32,427.89Z"></path><path class="cls-3" d="M539,385.15a45.45,45.45,0,0,1-4.17,7.14,56.62,56.62,0,0,1-5.26,6.4,61.06,61.06,0,0,1-6.09,5.62,45.21,45.21,0,0,1-6.86,4.61c2.09-1.79,4.09-3.65,6.08-5.5s3.91-3.78,5.77-5.77,3.68-4,5.42-6.07S537.29,387.33,539,385.15Z"></path><path class="cls-3" d="M537.67,438.89c0,.31-.25.9-.62.94a7.31,7.31,0,0,1-1,.33c-.66.18-1.32.32-2,.44-1.32.24-2.66.42-4,.58-2.67.32-5.34.55-8,.74-5.34.37-10.7.58-16,.69s-10.72.07-16.09-.11c-2.68-.1-5.37-.23-8.07-.45-1.35-.12-2.7-.25-4.07-.45-.68-.1-1.37-.22-2.09-.39a11.45,11.45,0,0,1-1.14-.33,3.85,3.85,0,0,1-.72-.35,2.41,2.41,0,0,1-.51-.42,2.1,2.1,0,0,1-.3-.43,1.72,1.72,0,0,1,0-1.57,1.59,1.59,0,0,1,.3-.43,2,2,0,0,1,.51-.43,4.14,4.14,0,0,1,.71-.35,9.74,9.74,0,0,1,1.15-.32c.72-.16,1.41-.27,2.1-.36,1.37-.18,2.72-.3,4.07-.4,2.7-.19,5.39-.29,8.07-.35,5.37-.11,10.73,0,16.08.15s10.69.4,16,.78c2.67.17,5.34.4,8,.68,1.33.14,2.66.3,4,.52.66.11,1.31.24,2,.4a6.66,6.66,0,0,1,1,.3C537.2,438.43,537.59,438.55,537.67,438.89Zm0,0c-.09-.34-.47-.45-.76-.58A8,8,0,0,0,536,438c-.65-.16-1.31-.28-2-.38-1.32-.21-2.65-.36-4-.49-2.66-.24-5.33-.37-8-.47-5.34-.15-10.68-.11-16,0s-10.67.47-16,.9c-2.65.21-5.3.46-7.92.8-1.3.17-2.61.36-3.88.61-.63.12-1.25.26-1.83.42a6.06,6.06,0,0,0-.76.26,1.12,1.12,0,0,0-.19.09l.13-.12a1.07,1.07,0,0,0,.14-.23,1,1,0,0,0,.12-.55,1,1,0,0,0-.12-.54c-.09-.16-.08-.16-.15-.23s-.09-.1-.12-.11l.18.09a8.1,8.1,0,0,0,.78.25c.57.15,1.2.28,1.83.4,1.27.22,2.57.4,3.88.55,2.62.31,5.27.52,7.92.7,5.3.36,10.63.54,16,.64s10.66.1,16-.06c2.67-.08,5.33-.21,8-.42A32.79,32.79,0,0,0,537.67,438.89Z"></path><path class="cls-3" d="M537.67,438.89,532.34,460l-5.45,21-.21.81-.88,0-20.82.36-10.4.07c-3.47,0-6.94,0-10.41-.16l-1.07,0-.3-1.05c-1-3.44-1.8-6.93-2.71-10.39s-1.67-7-2.45-10.45-1.54-7-2.31-10.48l-1.09-5.26-.54-2.63-.27-1.31c-.13-.43-.21-.87.91-1.6,1.32.15,1.45.58,1.53,1l.34,1.3.69,2.6,1.37,5.19c.87,3.47,1.78,6.93,2.6,10.41s1.67,7,2.46,10.45,1.55,7,2.21,10.51l-1.37-1.09c3.47-.12,6.94-.15,10.41-.16l10.4.07,20.82.36-1.1.83,6.42-20.76Z"></path><path class="cls-3" d="M897.14,330c-2.92,0-5.82-.2-8.71-.45l-1.81-.16L888,328a81.1,81.1,0,0,0,7.79-9.22,35.35,35.35,0,0,0,3-5.06,24.92,24.92,0,0,0,1.85-5.48l0,.65a6.93,6.93,0,0,0-1-1.89,7.45,7.45,0,0,0-1.54-1.58,7.8,7.8,0,0,0-4.28-1.46c-3.25-.16-6.64,1-9.88,2.31a24.71,24.71,0,0,1,4.56-2.76,15.32,15.32,0,0,1,5.3-1.45,9.43,9.43,0,0,1,5.66,1.33,8.53,8.53,0,0,1,2.27,2,9.15,9.15,0,0,1,1.54,2.69l.1.25-.06.4a23.3,23.3,0,0,1-1.87,6.24,29.84,29.84,0,0,1-3.32,5.52,47.35,47.35,0,0,1-8.92,8.86l-.47-1.57C891.54,328.4,894.35,329.13,897.14,330Z"></path><path class="cls-3" d="M908.11,304.06a10,10,0,0,1,4-1.63,13.16,13.16,0,0,1,4.34-.05,11.21,11.21,0,0,1,4.15,1.53,7.66,7.66,0,0,1,3,3.27c-1.46-.4-2.66-.82-3.91-1.09s-2.44-.53-3.68-.73C913.51,305,911,304.71,908.11,304.06Z"></path><path class="cls-3" d="M893.38,335.62a45.8,45.8,0,0,0,4.72,0,23.27,23.27,0,0,0,4.29-.68,22.31,22.31,0,0,0,4.06-1.44,12.59,12.59,0,0,0,3.73-2.61,6.51,6.51,0,0,1-2.39,4.57,11.27,11.27,0,0,1-4.66,2.42A10.55,10.55,0,0,1,893.38,335.62Z"></path><ellipse class="cls-3" cx="909.76" cy="311.98" rx="4.69" ry="1.95" transform="translate(152.38 904.74) rotate(-56.98)"></ellipse><ellipse class="cls-3" cx="892.7" cy="311.69" rx="4.69" ry="1.95" transform="translate(144.86 890.3) rotate(-56.98)"></ellipse><path class="cls-3" d="M952.1,287.52a20,20,0,0,0-13.28-10.12c-41.79-39.79-53.35,14.14-53.35,14.14,19.34,9.29,37.31.94,41-1l-1.33.77s7,37.92-6.54,55.2c0,0,23.6,10.58,36.15-14.11C961.8,318.48,957.79,298.63,952.1,287.52ZM945.22,315l-.62,2.15a21.7,21.7,0,0,1-4.45,7.58,13.61,13.61,0,0,1-7.48,4.34,22.45,22.45,0,0,0,5.63-5.81,32.67,32.67,0,0,0,3.44-7.11l.59-1.86c.1-.59.3-1.22.34-1.8a3.35,3.35,0,0,0-.51-2.86,4.29,4.29,0,0,0-3.1-1,16.74,16.74,0,0,0-4.07.56,10.44,10.44,0,0,1,3.87-2,5.6,5.6,0,0,1,4.84.65,5.3,5.3,0,0,1,1,1.06,7.64,7.64,0,0,1,.56,1.28l.24,1.27c0,.43,0,.82,0,1.23A15.5,15.5,0,0,1,945.22,315Z"></path><path class="cls-3" d="M892.64,343.6c1.85,1.61,3.44,3.34,5.15,4.84a17,17,0,0,0,5.27,3.56,4.91,4.91,0,0,0,1.36.33,4.7,4.7,0,0,0,1.35,0,7.14,7.14,0,0,0,2.74-1,35.62,35.62,0,0,0,5.32-4.37,14.05,14.05,0,0,1-3.91,6.27,8.21,8.21,0,0,1-3.63,1.93,7.76,7.76,0,0,1-4.25-.32,13.59,13.59,0,0,1-6-4.82A22.49,22.49,0,0,1,892.64,343.6Z"></path><path class="cls-3" d="M808.9,518.36c-1.33-3.69-2.43-7.12-3.44-10.47s-1.9-6.58-2.74-9.78c-1.57-6.36-3.19-12.7-4.64-19s-2.88-12.6-4.19-18.94c-.67-3.17-1.28-6.36-1.87-9.56s-1.21-6.42-1.73-9.67l.87.69-110.61.43,1.29-1.62,18.72,79.14-1.71-1.34c9-.36,18.06-.53,27.06-.72l27-.27,27.23,0,13.72.07A85.29,85.29,0,0,1,808.9,518.36Zm0,0c-3.32,1.07-7.89,1.3-12.51,1.41l-13.78.46-27.78.85-28,.54c-9.34.09-18.67.18-28,.1h-1.42l-.3-1.33-17.91-79.33-.37-1.62h1.65l110.61.43h.67l.2.69c1,3.22,1.83,6.47,2.71,9.73s1.75,6.55,2.56,9.85c1.65,6.59,3.22,13.23,4.68,19.86s2.84,13.24,4.22,19.82c.65,3.26,1.25,6.51,1.69,9.62S808.74,515.58,808.9,518.36Z"></path><path class="cls-3" d="M750.79,478.57a10.94,10.94,0,0,1-.56,6.84,7.91,7.91,0,0,1-5.2,4.71,8.14,8.14,0,0,1-7-1.64,10.77,10.77,0,0,1-3-13.35,8.12,8.12,0,0,1,5.64-4.52,7.94,7.94,0,0,1,6.73,2A10.93,10.93,0,0,1,750.79,478.57Zm-1,.23a9.72,9.72,0,0,0-3.19-5.25,6.38,6.38,0,0,0-5.59-1.36,6.28,6.28,0,0,0-4,3.83,10.67,10.67,0,0,0,2.44,10.8,6.21,6.21,0,0,0,5.28,1.72,6.37,6.37,0,0,0,4.46-3.63A9.76,9.76,0,0,0,749.75,478.8Z"></path><path class="cls-3" d="M807,510c3.57-.6,7.14-.93,10.71-1.22s7.15-.4,10.72-.49,7.14-.07,10.71,0l5.36.2c1.78.12,3.57.21,5.36.36l1.21.1-.08,1c-.26,3.19-.6,6.37-1.13,9.56-.54-3.19-.88-6.37-1.14-9.56l1.14,1.13c-1.79.16-3.58.24-5.36.36l-5.36.2c-3.57.09-7.14.09-10.71,0s-7.15-.24-10.72-.49S810.56,510.62,807,510Z"></path><path class="cls-3" d="M803.85,427.53c-1.57-1.44-3.26-2.91-5-4.43s-3.59-3.14-5.37-4.79l.63.26q-6.08.23-12.14.34c-4,.09-8.09.1-12.14.13s-8.09,0-12.13-.21l-12.14-.45-.72,0,0-.67c.38-9.42.28-18.85,0-28.27l0-.73.77,0c4.85-.12,9.71-.36,14.56-.46s9.71-.2,14.57-.24l29.13-.07h1.51v1.52l0,9.92c0,3.33,0,6.71-.08,10.05s-.24,6.66-.41,9.89l-.27,4.77A7.32,7.32,0,0,1,803.85,427.53Zm-.12-.27a52.16,52.16,0,0,1-.73-6l-.27-4.73c-.17-3.11-.34-6.14-.41-9.11s-.09-5.94-.08-8.94l0-9.07,1.51,1.51-29.13-.07c-4.86,0-9.71-.11-14.57-.24s-9.71-.33-14.56-.46l.74-.74c-.32,9.42-.42,18.85,0,28.27l-.69-.69,12.14-.45c4-.17,8.09-.2,12.13-.21s8.1,0,12.14.13,8.09.19,12.14.34h.4l.23.25c1.46,1.58,2.88,3.19,4.34,4.92S802.06,425.46,803.73,427.26Z"></path><path class="cls-3" d="M814.18,402.72c.93-1.5,1.75-3,2.48-4.35s1.41-2.67,2.16-3.93l.22-.35.51,0c4.52-.23,9-.39,13.55-.44,2.26,0,4.52,0,6.77,0s4.52.13,6.78.27l-1.08,1.07c.17-3.84.47-7.69.56-11.54s.07-7.69,0-11.53l.57.56c-5.42.2-10.84.55-16.26.72s-10.84.19-16.26.21l1.49-1.49q0,3.69,0,7.33l-.12,7.19c0,2.37-.12,4.68-.3,7.17l-.3,3.85A43.73,43.73,0,0,1,814.18,402.72Zm-.09.29c-.48.2-.6-1.16-.68-2.44l-.3-3.9c-.19-2.67-.26-5.53-.3-8.33l-.12-8.3-.05-8.17v-1.5h1.5c5.42,0,10.84.06,16.26.22s10.84.51,16.26.71l.58,0,0,.55c-.11,3.84-.13,7.69,0,11.53s.38,7.7.56,11.54l0,1-1.12.07q-3.39.19-6.78.26c-2.25,0-4.51,0-6.77,0-4.52,0-9-.2-13.55-.43l.73-.39c-1,1.39-2.16,2.77-3.25,4S815,401.87,814.09,403Z"></path><path class="cls-3" d="M334.35,380.55c2.49-1.06,5-2,7.55-2.88s5.09-1.74,7.65-2.54l1-.31.58,1.06c.91,1.66,1.76,3.34,2.62,5s1.72,3.37,2.53,5.07l1,2.12-2.35.32c-2.12.28-4.24.61-6.37.84s-4.26.52-6.39.72-4.27.44-6.41.59-4.28.34-6.42.44l-1,.05-.13-.86c-.5-3.42-.92-6.86-1.18-10.34,1.21,3.27,2.26,6.57,3.22,9.9l-1.15-.82c2.11-.44,4.22-.8,6.33-1.19s4.23-.69,6.35-1,4.24-.6,6.36-.91,4.26-.53,6.39-.79l-1.34,2.44q-1.2-2.56-2.32-5.17c-.75-1.73-1.52-3.45-2.23-5.21l1.6.75c-2.62.56-5.26,1.06-7.91,1.54S337,380.25,334.35,380.55Z"></path><path class="cls-3" d="M334.61,444.4c1.64.66,1.82,1.85,2.27,2.93l1.3,3.29,2.59,6.57q2.57,6.58,5.22,13.13c1.78,4.36,3.58,8.71,5.57,13A136.34,136.34,0,0,0,358,495.81l.11.17,0,.23q2.84,21.23,5.91,42.42,1.56,10.59,3.22,21.16c1.17,7,2.26,14.11,3.73,21l-1.31-1.3a50.15,50.15,0,0,0,7.52.81,46.43,46.43,0,0,0,7.56-.34,31.6,31.6,0,0,0,7.2-1.77,19.62,19.62,0,0,0,6.14-3.74l-.55,1.32-1.09-36.14q-.54-18.08-1.26-36.13c-.27-6-.52-12-.92-18s-1.12-12-1.7-18l-1.83-18-.92-9a48.62,48.62,0,0,0-1.52-8.93l2.81-.3a47.14,47.14,0,0,0,.4,9.05l1,9,2,18c.64,6,1.41,11.95,1.93,18s.87,12.05,1.24,18.07c.71,12,1.3,24.09,1.86,36.14s1,24.1,1.43,36.15l0,.78-.58.53a23.32,23.32,0,0,1-7.19,4.46,32.94,32.94,0,0,1-8,2,49.33,49.33,0,0,1-8.14.33,53.89,53.89,0,0,1-8.11-.93l-1.08-.21-.23-1.08c-1.5-7.11-2.52-14.16-3.54-21.25s-1.94-14.17-2.86-21.26q-2.74-21.25-5.2-42.54l.13.39c-2.34-4.16-4.41-8.42-6.43-12.71s-3.94-8.61-5.81-12.95-3.67-8.72-5.4-13.12c-.84-2.21-1.7-4.41-2.49-6.63l-1.21-3.34C334.44,447,333.79,446,334.61,444.4Z"></path><path class="cls-3" d="M271.9,430c1,11.4,1.6,22.8,2,34.22s.61,22.83.72,34.25c.22,22.84-.15,45.69-.42,68.54l-.14,8.57,0,2.14v.53c0,.12,0,0,0,0s0,0,0,0,.07.15.23.3a10.72,10.72,0,0,0,3.19,1.77,39.18,39.18,0,0,0,8,2.14,58,58,0,0,0,8.31.82,37.2,37.2,0,0,0,8-.54,6.4,6.4,0,0,0,2.91-1.23,1,1,0,0,0,.22-.31A.38.38,0,0,0,305,581c0-.07.06-.32.08-.47l.33-2.11q1.31-8.44,2.49-16.92c1.58-11.29,3-22.6,4.42-33.92.69-5.66,1.31-11.33,1.9-17l.8-8.51.36-4.26.17-2.12a5.59,5.59,0,0,1,.49-2.12l1.34.08a5.73,5.73,0,0,1,.22,2.16l-.12,2.15-.26,4.28-.61,8.56c-.46,5.69-.95,11.39-1.51,17.08-1.08,11.38-2.41,22.73-3.86,34.07q-1.1,8.5-2.28,17l-.31,2.12-.09.58a3.85,3.85,0,0,1-.25.88,4.42,4.42,0,0,1-1,1.46,9.09,9.09,0,0,1-4.76,2.28,32.25,32.25,0,0,1-9,.36,71.72,71.72,0,0,1-17.22-3.52,13.26,13.26,0,0,1-4.25-2.36,4.18,4.18,0,0,1-1-1.42,3.44,3.44,0,0,1-.15-.55,4.85,4.85,0,0,1-.05-.54v-.54l0-2.14-.16-8.55c-.44-22.82-1.46-45.63-2-68.45-.27-11.41-.53-22.82-.54-34.24s.1-22.83.55-34.26Z"></path><path class="cls-3" d="M329.67,414.44c0,6.69-.28,13.35-.67,20s-1,13.31-1.84,19.94-1.89,13.25-3.26,19.82a151.6,151.6,0,0,1-5.37,19.38l-.13.38-.25.16a42.16,42.16,0,0,1-5.06,2.92,39.15,39.15,0,0,1-5.39,2.17,23.63,23.63,0,0,1-5.71,1.09,13.27,13.27,0,0,1-5.67-.82c3.74.92,7.53-.06,10.95-1.45a37,37,0,0,0,5-2.52,43.71,43.71,0,0,0,4.62-3.09l-.38.54c1.61-6.42,3-12.89,4.13-19.41s2.19-13.06,3.15-19.62l2.77-19.74C327.5,427.62,328.44,421,329.67,414.44Z"></path><path class="cls-3" d="M279.14,601.56a27.4,27.4,0,0,1,1.27,6.06,45.26,45.26,0,0,1,.3,6,43.5,43.5,0,0,1-.49,6,27.18,27.18,0,0,1-1.47,6,27.8,27.8,0,0,1-1.28-6.05,46.9,46.9,0,0,1,.2-12.07A28,28,0,0,1,279.14,601.56Z"></path><path class="cls-3" d="M301.82,601.77c1,.53,1.17,1,1.18,1.47l.11,1.4c.08.93.14,1.87.15,2.79a41.41,41.41,0,0,1-.35,5.56q-.33,2.76-.91,5.52a35.87,35.87,0,0,1-1.53,5.48,38.13,38.13,0,0,1-.85-5.63c-.16-1.87-.24-3.73-.23-5.59a41.23,41.23,0,0,1,.32-5.55c.12-.92.29-1.84.49-2.76l.28-1.37C300.54,602.62,300.78,602.18,301.82,601.77Z"></path><path class="cls-3" d="M395.23,598a16.79,16.79,0,0,1,1.63,4.36,26.52,26.52,0,0,1,.51,8.88,16.56,16.56,0,0,1-1.13,4.52,16.6,16.6,0,0,1-1.64-4.36,26.18,26.18,0,0,1-.5-8.88A16.47,16.47,0,0,1,395.23,598Z"></path><path class="cls-3" d="M376.63,599.66a47.51,47.51,0,0,1,1.93,7.8,78.07,78.07,0,0,1,1,7.88,74.91,74.91,0,0,1,.18,7.93,45.39,45.39,0,0,1-.8,8,46.32,46.32,0,0,1-1.94-7.8,81.59,81.59,0,0,1-1.13-15.81A46.55,46.55,0,0,1,376.63,599.66Z"></path><path class="cls-3" d="M294.15,380.67a23,23,0,0,1-4,5.93,32.39,32.39,0,0,1-5.31,4.75,28.24,28.24,0,0,1-6.3,3.42,19.42,19.42,0,0,1-7,1.46c2-1.43,3.9-2.61,5.76-3.9s3.71-2.53,5.52-3.86l5.53-3.91C290.19,383.23,292.07,381.92,294.15,380.67Z"></path><path class="cls-3" d="M402.81,388.68a23,23,0,0,1-6.67-2.58,31.91,31.91,0,0,1-5.81-4.13,28.51,28.51,0,0,1-4.73-5.37,19.67,19.67,0,0,1-3-6.53c1.84,1.6,3.41,3.22,5.08,4.75s3.3,3.05,5,4.52l5.05,4.53C399.43,385.39,401.13,386.94,402.81,388.68Z"></path><path class="cls-3" d="M300.47,635.05c.3-1,.65-2,1-3s.79-2,.91-2.84a3.3,3.3,0,0,0-2.29-3.56,2.7,2.7,0,0,0-1-.08l-1.53.1c-1,.09-2.07.1-3.11.13-2.07,0-4.14,0-6.22.06s-4.14.16-6.22.25l-3.11.13a9.74,9.74,0,0,0-2.52.22,6.15,6.15,0,0,0-3.52,2.74,7,7,0,0,0-.95,2.2,11.09,11.09,0,0,1-.21,1.09c-.16.37-.65.68-1.38,1.63a2.16,2.16,0,0,1-2.16-1.37,4.83,4.83,0,0,1,0-2,11,11,0,0,1,1.19-3.61,9.8,9.8,0,0,1,5.94-4.84,11.58,11.58,0,0,1,3.65-.32l3.11.1c2.07.08,4.14.17,6.22.2s4.14,0,6.21,0c1,0,2.08,0,3.11.11l1.59.1a5.85,5.85,0,0,1,2,.52,5.3,5.3,0,0,1,2.79,6.6,8.83,8.83,0,0,1-.84,1.51c-.27.44-.55.87-.84,1.3C301.65,633.32,301.08,634.2,300.47,635.05Z"></path><path class="cls-3" d="M263.49,651.65a22.6,22.6,0,0,1,0-7.91c.19-1.33.46-2.64.77-3.94s.66-2.57,1.11-3.91h0l.18-.44.55-.35a31.7,31.7,0,0,1,10.35-4.16,34.48,34.48,0,0,1,11.14-.3,58.1,58.1,0,0,1,10.58,2.65,106.4,106.4,0,0,1,9.94,4l.48.22.07.42a37.48,37.48,0,0,1,.38,4c.07,1.31.09,2.63.06,3.94-.06,2.62-.2,5.23-.5,7.82-.1-2.6-.24-5.2-.51-7.78-.15-1.28-.29-2.57-.48-3.84s-.43-2.56-.73-3.73l.55.65c-3.35-1.11-6.69-2.19-10.06-3.09a54.91,54.91,0,0,0-10.15-1.76,34,34,0,0,0-10,.58,38.11,38.11,0,0,0-9.37,3.47l.73-.79h0c-.64,1-1.26,2.16-1.82,3.28s-1.1,2.3-1.56,3.48A21.77,21.77,0,0,0,263.49,651.65Z"></path><path class="cls-3" d="M294.19,640.18a21.66,21.66,0,0,1-4.54.29c-1.45,0-2.85-.15-4.23-.29l-4.09-.44a21.36,21.36,0,0,0-4.3-.19,6.43,6.43,0,0,1,4.06-2.57,13.76,13.76,0,0,1,4.68-.31,17,17,0,0,1,4.45,1.09A13.45,13.45,0,0,1,294.19,640.18Z"></path><path class="cls-3" d="M382.59,627.25a10.41,10.41,0,0,1,.64-5.51,6.76,6.76,0,0,1,1.93-2.52,8.28,8.28,0,0,1,2.66-1.42,12,12,0,0,1,2.65-.52l2.26-.17c1.5-.11,3-.19,4.52-.26l2.27-.12,1.13-.06.61,0a5.78,5.78,0,0,1,.83,0,5.43,5.43,0,0,1,5,5.75l-.06,1.13-.13,2.27c-.08,1.5-.16,3-.3,4.52l-.16,1.74-1.56-.22h0c-3.35,0-6.75-.12-10.06-.05a43.13,43.13,0,0,0-4.89.34c-.79.11-1.53.3-2.27.41a10.65,10.65,0,0,0-2.38.51l-.2,0a9.91,9.91,0,0,1-1.71-2.82A13.57,13.57,0,0,1,382.59,627.25Zm3.75-.4a13.12,13.12,0,0,1-.07,3,9.79,9.79,0,0,1-.94,3.13l-.2,0a3.25,3.25,0,0,1,1.56-2.66,8.2,8.2,0,0,1,2.65-1.1,27.6,27.6,0,0,1,5.33-.89,44.59,44.59,0,0,1,5.29-.12,40.73,40.73,0,0,1,5.25.51h0l-1.73,1.51c0-1.51,0-3,0-4.53l0-2.27,0-1.13a2.08,2.08,0,0,0-.08-.6,1.82,1.82,0,0,0-1.65-1.29,1.55,1.55,0,0,0-.3,0l-.53.06-1.12.12-2.25.26c-1.5.18-3,.35-4.51.49l-2.26.2a9.16,9.16,0,0,0-.94.12c-.3.06-.58.13-.85.2a3.31,3.31,0,0,0-2.19,1.65A6.65,6.65,0,0,0,386.34,626.85Z"></path><path class="cls-3" d="M376.32,621.1c-.41.37-.8.69-1.19,1s-.71.68-1,1a4.19,4.19,0,0,0-1.14,2,2.06,2.06,0,0,0,.4,1.61,5.07,5.07,0,0,0,.65.8c.29.25.58.51.9.75a22.42,22.42,0,0,0,4.76,2.48c1.75.76,3.62,1.34,5.56,2.24a15,15,0,0,1-6.26.42,13,13,0,0,1-6.16-2.3,17.09,17.09,0,0,1-1.35-1.22,7.32,7.32,0,0,1-1.07-1.65,4.55,4.55,0,0,1,0-4.14,4.8,4.8,0,0,1,1.22-1.53,9.61,9.61,0,0,1,1.51-.91,14,14,0,0,1,1.59-.44A12.44,12.44,0,0,1,376.32,621.1Z"></path><path class="cls-3" d="M372.38,626.74a46.75,46.75,0,0,1,.47,6.87c0,2.28-.08,4.56-.22,6.84s-.41,4.55-.78,6.82a48.39,48.39,0,0,1-1.49,6.8,48.22,48.22,0,0,1-1-6.89c-.2-2.29-.25-4.57-.28-6.86s.08-4.56.28-6.84a48,48,0,0,1,1-6.81Z"></path><path class="cls-3" d="M405.06,630.25a122.61,122.61,0,0,1,12.78,2.18q6.32,1.38,12.52,3.13l3.1.89.77.24a6.46,6.46,0,0,1,1,.41,10.85,10.85,0,0,1,1.62,1,14.35,14.35,0,0,1,4.48,5.52,18.36,18.36,0,0,1,1.7,6.57,24.82,24.82,0,0,1-.35,6.57,50.82,50.82,0,0,0-1.35-6.25,20.66,20.66,0,0,0-2.42-5.57,13,13,0,0,0-3.94-4.08,12.52,12.52,0,0,0-1.18-.64l-.5-.19-.78-.2-3.11-.85q-6.19-1.76-12.29-3.88A120.38,120.38,0,0,1,405.06,630.25Z"></path><path class="cls-3" d="M424.15,635.82a18.7,18.7,0,0,1-3.93,1.38c-1.28.31-2.5.57-3.7.79s-2.35.45-3.45.76a6,6,0,0,0-3.17,1.73,2.87,2.87,0,0,1,.28-2.33,5.73,5.73,0,0,1,1.55-1.83,9.82,9.82,0,0,1,4.11-1.79A12.31,12.31,0,0,1,424.15,635.82Z"></path><path class="cls-3" d="M412.44,632.44a22.93,22.93,0,0,1-4.18,1.38c-1.34.34-2.63.63-3.88.92a34.25,34.25,0,0,0-3.61,1,8.92,8.92,0,0,0-3.45,2,5,5,0,0,1,2-4.34,9.9,9.9,0,0,1,4.26-2.12,13.22,13.22,0,0,1,4.55-.26A11.66,11.66,0,0,1,412.44,632.44Z"></path><path class="cls-3" d="M306.75,584.22a54.5,54.5,0,0,1-13,1,90,90,0,0,1-13.07-1.41c-2.16-.39-4.31-.86-6.44-1.39l-1.6-.41c-.25-.06-.57-.16-.77-.2a2.28,2.28,0,0,0-.52,0,2.13,2.13,0,0,0-1.71,1,2,2,0,0,0-.3.9v1.46l0,3.27c0,2.18,0,4.35-.11,6.53l-.57-1.34a36.1,36.1,0,0,0,4.47,3.11,42.2,42.2,0,0,0,4.88,2.6,38.94,38.94,0,0,0,10.54,3.15,34,34,0,0,0,5.53.37,33.09,33.09,0,0,0,5.51-.78A35.56,35.56,0,0,0,310,597.64l-.14.25c.19-1.74.33-3.48.49-5.22s.32-3.47.44-5.21h0a3.38,3.38,0,0,0-4-3.24Zm0,0a3.42,3.42,0,0,1,2.81.65,3.47,3.47,0,0,1,1.32,2.59h0c-.11,1.75-.17,3.49-.23,5.23s-.14,3.49-.17,5.24v.15l-.14.09A36.5,36.5,0,0,1,300,603.6a34.33,34.33,0,0,1-5.79,1.36,38.61,38.61,0,0,1-6,.16,34.85,34.85,0,0,1-11.63-2.78,39.29,39.29,0,0,1-10.26-6.27l-.61-.52,0-.83c.09-2.17.23-4.35.37-6.52l.21-3.26.06-.82,0-.41.07-.58a4.82,4.82,0,0,1,1-2.07,4.7,4.7,0,0,1,4-1.75,4.41,4.41,0,0,1,1.08.22c.33.1.53.18.8.28l1.52.54q3.06,1.06,6.18,1.94a73.47,73.47,0,0,0,12.75,2.47A44.93,44.93,0,0,0,306.75,584.22Z"></path><path class="cls-3" d="M400.55,579.29a50.62,50.62,0,0,1-12.92,3.6,77.93,77.93,0,0,1-13.29.83q-3.33-.08-6.63-.36l-1.66-.15c-.25,0-.6-.07-.77-.07a1.6,1.6,0,0,0-.38,0,1.65,1.65,0,0,0-1.17.9,1.71,1.71,0,0,0-.17.74l0,.19.06.39.13.8.51,3.23,1,6.45v0l-.83-1.2a59.74,59.74,0,0,0,10.26,3.9,35.83,35.83,0,0,0,11,1.07,35.42,35.42,0,0,0,5.5-.81,31.77,31.77,0,0,0,5.25-1.93,35.57,35.57,0,0,0,9.34-6.35h0l-.08.27c-.9-3.4-1.63-6.82-2.26-10.26v.1a2.2,2.2,0,0,0-1.21-1.37A2,2,0,0,0,400.55,579.29Zm-1.08-2.53a4.71,4.71,0,0,1,4,.21,4.58,4.58,0,0,1,2.31,3.16l0,.1h0c.31,3.48.53,7,.58,10.49v.18l-.09.09h0a36.37,36.37,0,0,1-9.1,7.29,34.65,34.65,0,0,1-5.42,2.41A37.13,37.13,0,0,1,386,602a38,38,0,0,1-11.9-.36,43.25,43.25,0,0,1-5.8-1.48,24.76,24.76,0,0,1-5.53-2.49l-.71-.45-.11-.76h0L360.78,590l-.54-3.22-.14-.8-.07-.43c0-.2,0-.41,0-.61a5.11,5.11,0,0,1,.5-2.43,5.19,5.19,0,0,1,3.86-2.86,4.69,4.69,0,0,1,1.24,0l.85.09,1.6.16q3.2.3,6.4.41a86.33,86.33,0,0,0,12.77-.48A48.31,48.31,0,0,0,399.47,576.76Z"></path><path class="cls-3" d="M305.3,198a29.1,29.1,0,0,1-5.4,1.91c-1.78.49-3.56.85-5.33,1.19s-3.55.6-5.34.85l-5.58.68a12.27,12.27,0,0,1,4.72-3.54,22.15,22.15,0,0,1,5.51-1.72,26.56,26.56,0,0,1,5.7-.42A19.8,19.8,0,0,1,305.3,198Z"></path><path class="cls-3" d="M319.13,305.72c-.93-6.12-1.73-12.26-2.48-18.39s-1.51-12.27-2.19-18.4-1.38-12.27-1.89-18.42-.94-12.32-1.13-18.5l.54.84h0a61.36,61.36,0,0,1-9.57-6.43,30.64,30.64,0,0,1-7.71-9,15.07,15.07,0,0,1-1.79-6,11.48,11.48,0,0,1,1.48-6.27c2.13-3.81,5.71-6.07,9.18-7.8l-.34.23c.61-.57,1.25-1.23,1.82-1.88a21.93,21.93,0,0,0,1.61-2.05c.5-.7.86-1.44,1.28-2.1l.64-1,.31-.57a4.16,4.16,0,0,0,.24-.73,1.65,1.65,0,0,1,.65.58,2.21,2.21,0,0,1,.39.82,3.92,3.92,0,0,1,0,1.7,8.24,8.24,0,0,1-1.3,2.79,27.65,27.65,0,0,1-1.76,2.35c-.63.74-1.25,1.43-2,2.14l-.13.13-.21.11c-3.16,1.69-6.18,3.87-7.73,6.76s-1.23,6.3.38,9.35a30.35,30.35,0,0,0,6.82,8.23,80.4,80.4,0,0,0,8.83,6.71h0l.42.22.12.62c1.17,6.1,2,12.22,2.7,18.37s1.15,12.32,1.57,18.49.74,12.35.92,18.53S319.2,299.53,319.13,305.72Z"></path><path class="cls-3" d="M256.73,357.62a112.92,112.92,0,0,1,2.34,16.17c.45,5.41.75,10.82,1.07,16.23.59,10.83,1,21.65,1.12,32.49l-.79-1.71h0a49.84,49.84,0,0,0,11.94,7.8,51.11,51.11,0,0,0,13.67,4.2,62.32,62.32,0,0,0,14.45.65,64.24,64.24,0,0,0,14.23-2.57l-1,.93c2.46-5.1,3.64-11.1,4.61-17s1.51-11.94,2-18,.75-12.06,1-18.11.37-12.11.44-18.17c.64,12.1,1,24.23.7,36.39-.15,6.08-.5,12.16-1.2,18.24s-1.63,12.18-4.2,18.15l-.29.67-.73.26a67.42,67.42,0,0,1-30.62,3,55.8,55.8,0,0,1-15-4.37,53.82,53.82,0,0,1-13.08-8.57h0l-.75-.6,0-1.11c-.46-10.82-.58-21.64-.63-32.47,0-5.42,0-10.83,0-16.25S256.33,363.07,256.73,357.62Z"></path><path class="cls-3" d="M349.27,217.59c-1.49.87-3,1.6-4.61,2.33s-3.2,1.27-4.83,1.83-3.32.92-5,1.38-3.4.67-5.13.86a36.47,36.47,0,0,1-10.48-.19,22.62,22.62,0,0,1-5.1-1.43,11.58,11.58,0,0,1-4.34-3c3.15,1.37,6.45,1.55,9.71,1.66a77.07,77.07,0,0,0,9.81-.58c1.64-.16,3.27-.45,4.92-.63l4.95-.78c1.64-.32,3.32-.52,5-.81S347.53,217.72,349.27,217.59Z"></path><path class="cls-3" d="M275.63,210.83a70.26,70.26,0,0,0,5.75,11.89c2.29,3.74,5,7.29,7.64,10.92a176.16,176.16,0,0,1,14.8,22.79,124.13,124.13,0,0,1,10.07,25.32,130.82,130.82,0,0,1,4.43,26.72c-.93-4.41-1.76-8.82-3-13.14-1.07-4.35-2.37-8.63-3.85-12.83a147.91,147.91,0,0,0-11-24.24c-4.33-7.76-9.46-15-14.49-22.48a123.66,123.66,0,0,1-7.18-11.6,30.4,30.4,0,0,1-2.69-6.41A16.31,16.31,0,0,1,275.63,210.83Z"></path><path class="cls-3" d="M369.27,203.52a26.44,26.44,0,0,1,1.4,6.57,36.72,36.72,0,0,1-.21,6.79A72.77,72.77,0,0,1,367.24,230c-2.8,8.5-6.16,16.67-8.88,25-1.42,4.16-2.68,8.36-3.81,12.6s-2.1,8.52-3,12.83a243.16,243.16,0,0,0-3.49,26.27,119.16,119.16,0,0,1,.57-26.75,139.52,139.52,0,0,1,6.11-26.15q2.17-6.36,4.67-12.56l5-12.29a91.64,91.64,0,0,0,4.17-12.43,40.82,40.82,0,0,0,1-6.45A31.67,31.67,0,0,0,369.27,203.52Z"></path><path class="cls-3" d="M298.07,184.59l-8.73,5.25a89.52,89.52,0,0,0-8.13,5.57,24.32,24.32,0,0,0-6.36,6.76,7.3,7.3,0,0,0-1,4.18,10,10,0,0,0,1.77,4.48,8.16,8.16,0,0,1-3.58-4,8.44,8.44,0,0,1,.07-5.78,19.75,19.75,0,0,1,6.74-8.6,38.85,38.85,0,0,1,9.14-5.21A36,36,0,0,1,298.07,184.59Z"></path><path class="cls-3" d="M355.65,186.84a12.71,12.71,0,0,1,7.34-1.29,13.49,13.49,0,0,1,3.78,1.07,10.62,10.62,0,0,1,3.46,2.38,9.23,9.23,0,0,1,2.19,3.76,10.53,10.53,0,0,1,.33,4.11,14.61,14.61,0,0,1-2.77,7l-.49-1.14a81.73,81.73,0,0,1,11.91,4,71.94,71.94,0,0,1,11.12,6,68,68,0,0,1,17.91,17.87,83.18,83.18,0,0,1,10.68,22.95A116.11,116.11,0,0,1,424,265.89c.74,4.15,1.26,8.32,1.62,12.5,1.43,16.73.19,33.53-2.52,50q-2.06,12.34-5.12,24.45-1.51,6-3.27,12-.88,3-1.83,6a19.14,19.14,0,0,1-2.73,5.67,24.23,24.23,0,0,1,1.05-6.18q.86-3,1.64-6,1.58-6,2.9-12.05,2.67-12.11,4.36-24.37c1.09-8.17,1.89-16.38,2.26-24.59a192.05,192.05,0,0,0-.47-24.59,125.8,125.8,0,0,0-4.4-24.05,83.26,83.26,0,0,0-10-22.1,65.25,65.25,0,0,0-16.63-17.52,78.8,78.8,0,0,0-10.47-6.24,95.46,95.46,0,0,0-11.42-4.52l-.95-.32.46-.83a22.38,22.38,0,0,0,.77-6.39,7.29,7.29,0,0,0-2-4.93,12.41,12.41,0,0,0-5.12-2.62A50,50,0,0,1,355.65,186.84Z"></path><path class="cls-3" d="M350.36,359.22,354.83,378c.75,3.12,1.59,6.22,2.43,9.32s1.68,6.18,2.6,9.24c1.8,6.13,3.82,12.19,6.13,18.11a127.85,127.85,0,0,0,8,17.19l-1.16-.69a62.51,62.51,0,0,0,9.28.07,45,45,0,0,0,9.09-1.53,32.66,32.66,0,0,0,8.4-3.63,21.76,21.76,0,0,0,6.63-6h0l-.1.31c.16-4.83.62-9.63,1.12-14.43s1-9.6,1.37-14.41.79-9.61,1-14.44.37-9.64.27-14.48c.54,4.81.76,9.66.82,14.5s0,9.7-.19,14.54-.48,9.68-.82,14.51a115.08,115.08,0,0,1-1.84,14.42l0,.23-.06.09h0a23.18,23.18,0,0,1-7,7,35,35,0,0,1-8.86,4.17,47.38,47.38,0,0,1-9.56,1.92,61.76,61.76,0,0,1-9.71.2l-.71,0-.45-.65a88.29,88.29,0,0,1-9.06-17.4,157.76,157.76,0,0,1-5.88-18.59q-1.17-4.73-2.15-9.48c-.64-3.18-1.19-6.37-1.7-9.56C351.61,372.08,350.86,365.65,350.36,359.22Z"></path><path class="cls-3" d="M365.05,201.29a37,37,0,0,0-4-2.31,30.06,30.06,0,0,0-4.26-1.71,26.24,26.24,0,0,0-4.44-1,17.77,17.77,0,0,0-4.43,0l.21-1.33a11.14,11.14,0,0,1,5.48,2.52,17.53,17.53,0,0,1,4.33,4.54,12.44,12.44,0,0,1,2,6.17,15.48,15.48,0,0,1-1.08,6.26,32.06,32.06,0,0,1-6.67,10.07,57.27,57.27,0,0,1-9,7.75h0l.53-1c.36,6.42.57,12.85.67,19.28s.1,12.85.17,19.28l.12,19.3c.07,6.44.14,12.88.12,19.34-.91-6.39-1.68-12.81-2.24-19.23s-1.08-12.86-1.43-19.31c-.69-12.88-1-25.8.09-38.71l.06-.71.47-.29h0a62.47,62.47,0,0,0,8.27-7.66,30.53,30.53,0,0,0,6-9.18,12.84,12.84,0,0,0,.93-5.06,10,10,0,0,0-1.48-4.74,14.82,14.82,0,0,0-3.57-3.86,32,32,0,0,1-4.39-3.5L346.35,195l1.36-.09a18.06,18.06,0,0,1,4.8.37A28,28,0,0,1,357,196.6a32,32,0,0,1,4.19,2.07A37,37,0,0,1,365.05,201.29Z"></path><path class="cls-3" d="M388.52,362.65c.17-8.67.36-17.26.41-25.86-.06-4.3.06-8.6-.05-12.9s-.06-8.59-.15-12.89c-.11-8.6-.35-17.2-.52-25.81s-.41-17.22-.47-25.88A259.41,259.41,0,0,1,391.17,285c.78,8.61,1.17,17.26,1.36,25.91s-.07,17.32-.65,26A199.14,199.14,0,0,1,388.52,362.65Z"></path><path class="cls-3" d="M332.76,177.76c2.14-.22,4.27-.47,6.37-.77,1.05-.14,2.1-.32,3.12-.53a17.28,17.28,0,0,0,2.9-.79l-.7,1.52c-.87-1.5-1.61-3.06-2.42-4.59s-1.5-3.1-2.19-4.68-1.41-3.14-2-4.75S336.5,160,336,158.35l-.35-1,.51-.66a19.77,19.77,0,0,1,4.38-4.2,14.53,14.53,0,0,1,5.54-2.43,11.59,11.59,0,0,1,3.05-.18,11.81,11.81,0,0,1,2.92.66,13.25,13.25,0,0,1,4.73,3.2,16.38,16.38,0,0,0-5.09-1.85,10.25,10.25,0,0,0-5,.47,13.36,13.36,0,0,0-4.29,2.57,19.48,19.48,0,0,0-3.34,3.73l.17-1.66c.76,1.55,1.4,3.15,2.1,4.72s1.29,3.2,1.94,4.79,1.19,3.24,1.78,4.86,1.1,3.27,1.56,4.94l.35,1.26-1.05.27a17,17,0,0,1-3.38.47c-1.1.05-2.19.05-3.27,0A55.39,55.39,0,0,1,332.76,177.76Z"></path><path class="cls-3" d="M329.72,157.25c-3.82,1.36-7.27,2.21-10.63,3.34-1.68.56-3.29,1.19-4.92,1.89s-3.19,1.59-5,2.53a11.26,11.26,0,0,1,3.41-5,16.21,16.21,0,0,1,5.35-3,19.16,19.16,0,0,1,5.94-.94A14.54,14.54,0,0,1,329.72,157.25Z"></path><path class="cls-3" d="M318.25,178.88a27.13,27.13,0,0,0,5.51,3.13,30.81,30.81,0,0,0,5.68,1.75,33.49,33.49,0,0,0,5.93.72,16.34,16.34,0,0,0,6.17-.8c-1.17,2.07-3.58,3.23-5.84,3.77a16.64,16.64,0,0,1-13.48-2.89A10.88,10.88,0,0,1,318.25,178.88Z"></path><path class="cls-3" d="M355.78,175.84a40.2,40.2,0,0,1-8.92,15.74,31.61,31.61,0,0,1-7.24,5.89,26.89,26.89,0,0,1-8.93,3.29,22.15,22.15,0,0,1-9.61-.59,21,21,0,0,1-8.3-4.72,27.69,27.69,0,0,1-8.27-16.12c2.47,5.44,5.69,10.47,10.16,13.84A19.89,19.89,0,0,0,322,196.7a19,19,0,0,0,8.06.31c5.41-.84,10.45-3.75,14.71-7.53a50.87,50.87,0,0,0,5.91-6.34C352.53,180.84,354.15,178.37,355.78,175.84Z"></path><ellipse class="cls-3" cx="351.97" cy="159.85" rx="3.16" ry="6.19" transform="translate(-32.5 119.61) rotate(-18.45)"></ellipse><ellipse class="cls-3" cx="328.51" cy="166.04" rx="3.16" ry="6.19" transform="translate(-35.66 112.51) rotate(-18.45)"></ellipse><path class="cls-3" d="M363.3,152.88a6.68,6.68,0,0,1,2-2.71,4.94,4.94,0,0,1,1.67-.9,3.17,3.17,0,0,1,2.38.13,3.13,3.13,0,0,1,1.63,2.29,5.55,5.55,0,0,1-.09,2.18,11.27,11.27,0,0,1-1.44,3.32,17.81,17.81,0,0,1-4.44,4.9,12.22,12.22,0,0,1-2.94,1.63,6.76,6.76,0,0,1-3.36.51,44.28,44.28,0,0,0,4-4.54c1.19-1.52,2.51-3,3.56-4.54a12.12,12.12,0,0,0,1.29-2.23,3.87,3.87,0,0,0,.27-.87c0-.21.07-.19.08-.28s-.25-.26-.62-.27a4,4,0,0,0-1.24.14A11.33,11.33,0,0,0,363.3,152.88Z"></path><path class="cls-3" d="M294.69,156.78a4.1,4.1,0,0,0-5.31,1.18,4.34,4.34,0,0,0,.22,4.72,19.18,19.18,0,0,0,4.19,4.36,51.56,51.56,0,0,0,5.26,4.29,7,7,0,0,1-3.81,0,13.14,13.14,0,0,1-3.46-1.42,13.75,13.75,0,0,1-5.44-5.49,7.81,7.81,0,0,1-.86-4.25,6.14,6.14,0,0,1,2-4,5.22,5.22,0,0,1,4-1.3A4.5,4.5,0,0,1,294.69,156.78Z"></path><path class="cls-3" d="M301.63,167.18s-15-15.6-12.39-33.83c1.75-12.23,10.24-24.93,26.05-18.63,0,0,19.51-23,40.4-4.17,17.61,15.91,3.5,48,3.5,48s1.46-22.13-7.39-26.34c0,0,7.49,2.83,6.81,9.11,0,0-16.65,12.94-32,8,0,0-6.69-2.21-9.26-10.57,0,0-14.86,15.13-15.75,28.37"></path><path class="cls-3" d="M268.3,216.59a67.76,67.76,0,0,1-10.25,10.87q-5.46,4.9-10.42,10.32a141,141,0,0,0-9.29,11.29,116.18,116.18,0,0,0-8,12.18,96.27,96.27,0,0,0-10.61,26.93,80.84,80.84,0,0,0-1.83,14.37,61.23,61.23,0,0,0,1,14.36,40.15,40.15,0,0,0,5.21,13.17,41.49,41.49,0,0,0,9.58,10.56c7.57,6,16.85,9.7,26.32,12.19a139.6,139.6,0,0,0,29.27,4.08c4.94.22,9.9.24,14.85,0,2.47-.11,4.93-.39,7.39-.7,1.23-.16,2.46-.37,3.67-.63a14.35,14.35,0,0,0,1.79-.48,5.24,5.24,0,0,0,.85-.35c.25-.14.62-.33.55-.65.08.32-.29.54-.53.69a5.85,5.85,0,0,1-.84.39,18.42,18.42,0,0,1-1.78.57c-1.21.31-2.43.57-3.65.78-2.45.43-4.92.83-7.4,1-5,.45-9.95.65-14.93.65a141.13,141.13,0,0,1-29.79-3.13c-9.77-2.2-19.45-5.82-27.69-12A44.71,44.71,0,0,1,221.1,332a43.32,43.32,0,0,1-6-14.25,55,55,0,0,1-1.15-7.65c-.17-2.55-.28-5.09-.22-7.64a85.12,85.12,0,0,1,1.61-15.18A94.31,94.31,0,0,1,226,258.78a119.36,119.36,0,0,1,8.31-12.73,133.75,133.75,0,0,1,9.83-11.55q5.22-5.49,11-10.42a42.08,42.08,0,0,1,6.12-4.47A25.68,25.68,0,0,1,268.3,216.59Z"></path><path class="cls-3" d="M256.73,289.64a20,20,0,0,0-1.37,7.64,14.72,14.72,0,0,0,2.2,7.22c2.69,4.35,7.18,7.21,11.76,9.44A72.51,72.51,0,0,0,284,318.88c5,1.23,10.16,2.12,15.22,3l2.22.38-1.28,1.86A29.63,29.63,0,0,0,298,327.7a28.63,28.63,0,0,0-1.52,3.92,38.34,38.34,0,0,0-1.51,8.38,57.06,57.06,0,0,0,.05,8.67c.1,1.45.26,2.9.48,4.34s.74,2.79-.37,4.61c-1.9-1.05-2-2.65-2.31-4.12s-.58-3-.79-4.52a49.52,49.52,0,0,1-.39-9.2,42.86,42.86,0,0,1,.52-4.63,36.31,36.31,0,0,1,1.17-4.56,24.4,24.4,0,0,1,4.68-8.22l.93,2.24a77.18,77.18,0,0,1-15.71-2.84,76,76,0,0,1-14.88-5.88c-4.67-2.54-9.21-5.94-11.82-10.79a14.88,14.88,0,0,1-1.78-7.82A20.27,20.27,0,0,1,256.73,289.64Z"></path><path class="cls-3" d="M362.93,316.32a1.75,1.75,0,0,1-.61,1.28,3.44,3.44,0,0,1-.68.48,8.41,8.41,0,0,1-1.21.5,20.23,20.23,0,0,1-2.29.58c-1.51.3-3,.49-4.51.64-3,.31-6,.47-9,.51s-6,0-9-.27c-1.51-.13-3-.29-4.56-.56a20.15,20.15,0,0,1-2.34-.55,7.56,7.56,0,0,1-1.28-.51,3.47,3.47,0,0,1-.77-.52,2,2,0,0,1,0-3.16,3.47,3.47,0,0,1,.77-.52,7.56,7.56,0,0,1,1.28-.51,19.68,19.68,0,0,1,2.34-.55c1.54-.27,3-.44,4.56-.56,3-.25,6-.31,9-.27s6,.2,9,.51c1.5.15,3,.34,4.51.64a20.23,20.23,0,0,1,2.29.58,8.41,8.41,0,0,1,1.21.5,3.44,3.44,0,0,1,.68.48A1.75,1.75,0,0,1,362.93,316.32Zm-2.19,0a.55.55,0,0,0,.09.33,1.25,1.25,0,0,0-.24-.14,4.55,4.55,0,0,0-.85-.34,17.22,17.22,0,0,0-2-.49c-1.4-.27-2.85-.44-4.3-.58-2.91-.25-5.85-.31-8.79-.28s-5.87.2-8.76.52c-1.44.17-2.88.37-4.27.66-.68.15-1.36.32-2,.52a5.54,5.54,0,0,0-.78.33l-.15.1a.33.33,0,0,0,.1-.12.72.72,0,0,0,.09-.2,1.22,1.22,0,0,0,0-.62.72.72,0,0,0-.09-.2.51.51,0,0,0-.1-.12l.15.1a4.57,4.57,0,0,0,.78.33,16.19,16.19,0,0,0,2,.52c1.39.29,2.83.49,4.27.66,2.89.32,5.83.47,8.76.52s5.88,0,8.79-.28c1.45-.14,2.9-.31,4.3-.58a17.22,17.22,0,0,0,2-.49,4.55,4.55,0,0,0,.85-.34,1.25,1.25,0,0,0,.24-.14A.55.55,0,0,0,360.74,316.32Z"></path><path class="cls-3" d="M318.32,339.8a22,22,0,0,1-1.42-7.65,47.55,47.55,0,0,1,.13-7.64l.14-1.29h1c3-.49,6-.83,9.05-1.26l1.81-.26.06,2q.36,11.64.21,23.28l0,2.91,0,1.45v-.07a1.27,1.27,0,0,0-.06-.28,1,1,0,0,0-.16-.34c-.1-.14-.14-.17-.16-.18a1.17,1.17,0,0,0,.25.15,12.51,12.51,0,0,0,2.38.72c.88.19,1.81.34,2.74.48a95.24,95.24,0,0,0,11.38.8,85,85,0,0,0,11.42-.51,20.8,20.8,0,0,0,2.7-.53,4.33,4.33,0,0,0,1.05-.41c.13-.06.06-.12,0,.2l0-.68.14-5.82c.24-7.76.48-15.52.83-23.29.34,7.77.58,15.53.82,23.29l.14,5.82,0,.77a1.86,1.86,0,0,1-.8,1.35,6.12,6.12,0,0,1-1.58.79,22.61,22.61,0,0,1-3,.8,71.15,71.15,0,0,1-11.78,1.24,85.53,85.53,0,0,1-11.85-.34c-1-.11-2-.24-3-.42a15.48,15.48,0,0,1-3.2-.88,5.51,5.51,0,0,1-1-.58,3,3,0,0,1-.67-.7,2.78,2.78,0,0,1-.32-.67,2.23,2.23,0,0,1-.08-.45l0-.26,0-1.45,0-2.91q-.14-11.64.21-23.28l1.87,1.7c-3,.14-6.08.35-9.13.42h0l1.17-1.28a47.55,47.55,0,0,1,.13,7.64A22,22,0,0,1,318.32,339.8Z"></path><path class="cls-3" d="M368,495.29a53,53,0,0,0,19.27-5.36,58.62,58.62,0,0,0,5.7-3.3l2.93-1.85-.26,3.45a33.27,33.27,0,0,1-1.77,8.76,15.52,15.52,0,0,1-5.45,7.58,11.41,11.41,0,0,1-4.47,1.76,13.73,13.73,0,0,1-4.62-.13,19,19,0,0,1-7.91-3.67,25.21,25.21,0,0,0,8.13,1.82,10.35,10.35,0,0,0,7.13-2.14,13.77,13.77,0,0,0,4-6.35,40.29,40.29,0,0,0,1.55-7.94l2.67,1.6c-1,.59-2,1.24-3.06,1.79s-2.12,1.07-3.22,1.5a37.06,37.06,0,0,1-6.72,2.16,36.34,36.34,0,0,1-6.95.89A27.14,27.14,0,0,1,368,495.29Z"></path><path class="cls-3" d="M370.36,645c6.25-.33,12.26.63,18.33,1.18,6,.71,12.08,1.4,18.13,1.77a134.53,134.53,0,0,0,18.08-.18c3-.22,5.93-.49,8.81-.9.71-.13,1.42-.23,2.14-.34s1.37-.31,2.06-.46a5.93,5.93,0,0,1,2.07-.28,19.5,19.5,0,0,1,2.7.47,2.91,2.91,0,0,1-.37,1.62,4.26,4.26,0,0,1-.85,1.19,5.51,5.51,0,0,1-2.21,1.32c-.79.23-1.58.5-2.37.71l-2.35.53a55.86,55.86,0,0,1-9.42.87c-6.26.1-12.41-.54-18.54-1-3.07-.28-6.13-.52-9.18-.9s-6.1-.7-9.13-1.19l-4.53-.79-2.26-.4-2.25-.51A63.9,63.9,0,0,1,370.36,645Z"></path><path class="cls-3" d="M641.26,147.21a69.52,69.52,0,0,1,6.7-2.14c2.25-.64,4.51-1.23,6.66-2l-.5,1.37c-2.49-3.26-4.84-6.6-7.13-10-1.12-1.71-2.28-3.38-3.36-5.12s-2.22-3.43-3.25-5.2l-.29-.49.07-.42a12.19,12.19,0,0,1,.84-2.86,9.62,9.62,0,0,1,1.52-2.55,7.18,7.18,0,0,1,5.32-2.7,11.13,11.13,0,0,1,5.42,1.37,22.17,22.17,0,0,1,4.4,3,34.27,34.27,0,0,0-4.82-2A10.78,10.78,0,0,0,648,117a5.23,5.23,0,0,0-3.57,2.29,10,10,0,0,0-1.53,4.24l-.21-.91c1.19,1.66,2.28,3.39,3.42,5.08s2.2,3.44,3.3,5.16c2.16,3.47,4.25,7,6.21,10.59l.6,1.1-1.11.27C650.49,146,645.87,146.33,641.26,147.21Z"></path><path class="cls-3" d="M633.2,124a84,84,0,0,0-9.33,1.37,26.93,26.93,0,0,0-4.25,1.36,47.51,47.51,0,0,0-4.33,2.12,9.51,9.51,0,0,1,3.11-4.16,11.94,11.94,0,0,1,4.77-2.26,14.09,14.09,0,0,1,5.21-.22A11.38,11.38,0,0,1,633.2,124Z"></path><path class="cls-3" d="M639.68,135.41a37,37,0,0,0-8.12,1,22.55,22.55,0,0,0-3.65,1.32c-1.25.5-2.42,1.23-3.87,1.88a8.79,8.79,0,0,1,2.55-3.86,9.9,9.9,0,0,1,4.19-2.26,10.28,10.28,0,0,1,4.74-.16A8.3,8.3,0,0,1,639.68,135.41Z"></path><path class="cls-3" d="M660.43,129.79a27.17,27.17,0,0,0-7.61.9,22.89,22.89,0,0,0-3.4,1.29c-.6.23-1.15.58-1.78.86s-1.19.66-1.92.93a9.92,9.92,0,0,1,.91-2,10.55,10.55,0,0,1,1.42-1.72,9.43,9.43,0,0,1,4-2.25,9.12,9.12,0,0,1,4.55-.15A7.33,7.33,0,0,1,660.43,129.79Z"></path><path class="cls-3" d="M649.57,152.13a13.16,13.16,0,0,1-4.38,3.25,12.13,12.13,0,0,1-5.57,1.09,9,9,0,0,1-5.45-2.11,7.75,7.75,0,0,1-2.69-4.88,16.36,16.36,0,0,0,4,2.91,11.11,11.11,0,0,0,4.3,1.06,21.59,21.59,0,0,0,4.68-.33C646.11,152.86,647.74,152.41,649.57,152.13Z"></path><path class="cls-3" d="M605.37,128.78a42.21,42.21,0,0,0-11.15-.16,8.11,8.11,0,0,0-2.32.72,2,2,0,0,0-.67.52.83.83,0,0,0-.14.5,3.87,3.87,0,0,0,.73,1.79,14.08,14.08,0,0,0,1.63,2c.62.65,1.26,1.29,1.94,1.91a23.81,23.81,0,0,0,2.08,1.64,26.25,26.25,0,0,0,4.69,2.65,57,57,0,0,0,10.76,3.23,28.21,28.21,0,0,1-11.59-1,21,21,0,0,1-7.91-4.32,27.92,27.92,0,0,1-2.17-2.06,17.25,17.25,0,0,1-1.92-2.47,6,6,0,0,1-1.08-3.53,3.62,3.62,0,0,1,.9-2.11,4.73,4.73,0,0,1,1.62-1.13,9.06,9.06,0,0,1,3.19-.66A24.87,24.87,0,0,1,605.37,128.78Z"></path><path class="cls-3" d="M620.43,108.48s39.82-21.2,56.36-12.08S658.92,118,658.92,118,651.5,100.78,620.43,108.48Z"></path><path class="cls-3" d="M620.43,108.48s1.44.21,3.61-1.81c0,0,9.1-10.3,20.69-12.22,0,0-11.89-23-37.12-10.18-28,14.2-17.57,45.37-17.57,45.37S598.41,115.7,620.43,108.48Z"></path><path class="cls-3" d="M613.49,157.44a42.31,42.31,0,0,0,23.25,8.28,27.82,27.82,0,0,0,11.94-1.92,19.24,19.24,0,0,0,9.19-8.06,16.19,16.19,0,0,1-8.15,10.18,25.23,25.23,0,0,1-13.1,2.82,33.78,33.78,0,0,1-12.88-3.21A26.73,26.73,0,0,1,613.49,157.44Z"></path><path class="cls-3" d="M589.76,126.3l15.61,2.48,2,7.39.84-16.89c1.55-5.81,10.94-7.52,20.13-12.32a28.47,28.47,0,0,0-17.88,1.53C603.19,111.64,595.4,120.55,589.76,126.3Z"></path><path class="cls-3" d="M605.3,150.71a38.22,38.22,0,0,1,1.09,8.08,49.34,49.34,0,0,1-.37,8.15,44.71,44.71,0,0,1-1.8,8,25.46,25.46,0,0,1-3.63,7.35c1-5.36,1.74-10.5,2.43-15.73l1-7.85c.18-1.32.34-2.64.55-4S605,152.06,605.3,150.71Z"></path><path class="cls-3" d="M644.73,182.27a10.9,10.9,0,0,1-2.69-3.21,18.72,18.72,0,0,1-1.64-3.7,20.35,20.35,0,0,1-.85-3.94,13.92,13.92,0,0,1,.13-4.16,16.8,16.8,0,0,1,2.16,3.51,28.34,28.34,0,0,1,1.44,3.66A29.7,29.7,0,0,1,644.73,182.27Z"></path><path class="cls-3" d="M603.83,171.11A174.35,174.35,0,0,0,582.39,178a104.12,104.12,0,0,0-10.09,4.72c-1.66.84-3.22,1.83-4.82,2.75s-3.12,2-4.57,3.12a61.84,61.84,0,0,0-15.33,15.73,53.25,53.25,0,0,0-5.16,9.8,43.84,43.84,0,0,0-2.95,10.8A35.54,35.54,0,0,1,541,213.6,46.16,46.16,0,0,1,545.58,203a55.3,55.3,0,0,1,15.55-16.93,75.89,75.89,0,0,1,20.45-10.35A96.23,96.23,0,0,1,603.83,171.11Z"></path><path class="cls-3" d="M691.67,147.58a3.64,3.64,0,0,1,1-2.45c.46-.72,1-1.41,1.38-2.13.83-1.47,1.73-2.91,2.52-4.4q2.38-4.47,4.36-9.12c1.34-3.09,2.59-6.22,3.7-9.4s2.23-6.36,3.17-9.59c3.92-12.92,6.37-26.26,8.41-39.76a147.23,147.23,0,0,1-5.51,40.61q-1.46,4.95-3.26,9.79c-1.25,3.2-2.63,6.36-4.18,9.44s-3.28,6.05-5.12,9c-.91,1.46-1.93,2.85-2.88,4.27-.49.71-1,1.37-1.55,2.06S692.76,147.33,691.67,147.58Z"></path><path class="cls-3" d="M641.26,171.84c3.94-.58,7.85-1,11.68-1.69a69.52,69.52,0,0,0,11.17-2.85,66.09,66.09,0,0,0,10.42-4.77,53.93,53.93,0,0,0,4.92-3.09c.78-.58,1.6-1.12,2.36-1.74l1.14-.92.57-.47a.86.86,0,0,1,.85-.18.79.79,0,0,1-.24.82l-.51.55-1,1.08c-.68.74-1.43,1.4-2.14,2.1a52.37,52.37,0,0,1-4.62,3.88,37.91,37.91,0,0,1-10.76,5.6,46.7,46.7,0,0,1-11.88,2.2A58.77,58.77,0,0,1,641.26,171.84Z"></path><path class="cls-3" d="M710.33,177.68a33.15,33.15,0,0,1-7.09,11.87,51.83,51.83,0,0,1-11,8.58,66.27,66.27,0,0,1-12.7,5.55,57.16,57.16,0,0,1-13.49,2.71c4.32-1.52,8.53-3.16,12.67-4.93,1-.43,2.06-.89,3.07-1.37s2.05-.91,3-1.44,2-1,3-1.51l2.91-1.63a74.87,74.87,0,0,0,10.87-7.65A54.71,54.71,0,0,0,710.33,177.68Z"></path><path class="cls-3" d="M734.22,71.14a95.9,95.9,0,0,1,.95,12.07,99.45,99.45,0,0,1-.38,12.08c-.24,2-.56,4-.85,6s-.68,4-.91,6-.5,4-.68,6l-.53,6c-.16,2-.35,4-.63,6s-.59,4-1,6a114.53,114.53,0,0,1-2.74,11.83,88.33,88.33,0,0,1-9.88,22.14l-.27-.13c2.57-7.66,5-15.2,7-22.9l1.57-5.75c.53-1.92,1-3.84,1.49-5.79s.93-3.88,1.37-5.82,1-3.89,1.38-5.85a82.2,82.2,0,0,0,1.87-11.86c.34-4,.14-8,.22-12s.34-8,.55-12,.51-8,1.1-12Z"></path><path class="cls-3" d="M711,2.3c.57,2.42.87,4.78,1.36,7.08s1,4.55,1.62,6.78,1.4,4.46,1.95,6.89a11.75,11.75,0,0,1-.39,7.46,21.69,21.69,0,0,0-1.86-6.75A53.9,53.9,0,0,1,711.06,17a28.27,28.27,0,0,1-1-7.37A24.42,24.42,0,0,1,711,2.3Z"></path><path class="cls-3" d="M720.24,0c.29,2.47.33,4.84.53,7.18s.4,4.64.72,6.94.75,4.61,1,7.09a12.43,12.43,0,0,1-1.36,7.32,24.25,24.25,0,0,0-1-6.94,55,55,0,0,1-1.62-7A28.13,28.13,0,0,1,720.24,0Z"></path><path class="cls-3" d="M729.22,2c.29,2.47.32,4.84.52,7.19s.41,4.63.73,6.93.75,4.61.95,7.09a12.33,12.33,0,0,1-1.35,7.32,24.3,24.3,0,0,0-1-6.94,55.88,55.88,0,0,1-1.61-7A28.14,28.14,0,0,1,729.22,2Z"></path><path class="cls-3" d="M705.22,26.84A34.69,34.69,0,0,1,704,33,22.81,22.81,0,0,1,701.5,39l.2-.72a17.56,17.56,0,0,0,1.81,4.64,25.78,25.78,0,0,0,3,4.21,29.1,29.1,0,0,0,3.72,3.64c1.31,1.18,2.72,2.06,4.28,3.35A22,22,0,0,1,721,63.47a23.18,23.18,0,0,1,1.11,11.07,31.06,31.06,0,0,0-3-10.27,22.77,22.77,0,0,0-6.47-7.93c-1.27-1-3-2.06-4.4-3.3a28.72,28.72,0,0,1-4-4.07,22.2,22.2,0,0,1-3.09-4.87,16.54,16.54,0,0,1-1.62-5.68l0-.42.24-.31a26.85,26.85,0,0,0,3.06-5.14C703.66,30.7,704.46,28.79,705.22,26.84Z"></path><path class="cls-3" d="M730.21,51.53a48.44,48.44,0,0,0-4-5.17,30.81,30.81,0,0,0-4.52-4.2,17.75,17.75,0,0,0-5.24-2.78,12.63,12.63,0,0,0-6.21-.26,8.42,8.42,0,0,1,6.63-2.06,13.09,13.09,0,0,1,6.63,2.68A17.61,17.61,0,0,1,728.18,45,14.16,14.16,0,0,1,730.21,51.53Z"></path><path class="cls-3" d="M739.4,24.8a56.6,56.6,0,0,1-1.93,9.4c-.41,1.54-.85,3.07-1.19,4.59-.17.76-.33,1.51-.43,2.24a9.23,9.23,0,0,0-.06,2.17c.23,3.12.42,6.33.59,9.52s.18,6.39.22,9.59a183.15,183.15,0,0,1-1.06,19.16,125.59,125.59,0,0,1-3.43,18.86c.42-6.38.82-12.71,1.08-19s.39-12.66.38-19-.14-12.63-.13-19.06a11.46,11.46,0,0,1,.27-2.59,22.88,22.88,0,0,1,.67-2.4c.53-1.54,1.11-3,1.69-4.51C737.27,30.78,738.48,27.86,739.4,24.8Z"></path><path class="cls-3" d="M689.21,144a6.19,6.19,0,0,1,2.47,2.27c.7.85,1.43,1.67,2.15,2.5,1.47,1.63,3,3.18,4.61,4.67a64.91,64.91,0,0,0,10.44,7.82,55.68,55.68,0,0,0,11.77,5.41c.29.1.44.13.84.28a6,6,0,0,1,1,.54,5,5,0,0,1,1.53,1.75,4.79,4.79,0,0,1,.53,2.26,6.07,6.07,0,0,1-.45,2.06L722,179.81l-.47,1.36-1.38-.44h0a85.56,85.56,0,0,1-11.69-4.84,100,100,0,0,1-11-6.2,57.06,57.06,0,0,1-9.84-8A26.56,26.56,0,0,1,681,150.87l-.05-.17.06-.16h0a14.37,14.37,0,0,1,2.22-5.3,9,9,0,0,1,2.07-2.2,4.55,4.55,0,0,1,1.42-.73,1.73,1.73,0,0,1,1.63.41,7.15,7.15,0,0,1-1.07,1,6.49,6.49,0,0,0-1,.66,10,10,0,0,0-1.63,1.89,39.2,39.2,0,0,0-2.58,4.64h0v-.34a25.07,25.07,0,0,0,6.7,10,55.65,55.65,0,0,0,9.81,7.34,99.33,99.33,0,0,0,11,5.61c3.75,1.68,7.67,3.06,11.47,4.44h0l-1.84.91,2.25-6.24a3.62,3.62,0,0,0,.31-1.16,2,2,0,0,0-.2-.94,2,2,0,0,0-.63-.73,2,2,0,0,0-.43-.24c-.11-.05-.49-.17-.73-.26a58.08,58.08,0,0,1-12.11-6,63.44,63.44,0,0,1-10.41-8.55c-1.56-1.61-3.06-3.27-4.47-5-.69-.89-1.4-1.75-2.06-2.65A6.08,6.08,0,0,1,689.21,144Z"></path><path class="cls-3" d="M595.62,185a14.27,14.27,0,0,0,5.48,5.4,24.77,24.77,0,0,0,7.16,2.63,43.38,43.38,0,0,0,15.33.18,51.29,51.29,0,0,0,14.72-4.58,43.89,43.89,0,0,0,12.55-9.32,32.09,32.09,0,0,1-11.41,11.39,43,43,0,0,1-15.4,5.5,37.91,37.91,0,0,1-16.37-.9,22.67,22.67,0,0,1-7.41-3.68A12.9,12.9,0,0,1,595.62,185Z"></path><path class="cls-3" d="M699.69,190.63c-1.17,3-2.39,6-3.57,8.91s-2.27,5.92-3.23,8.9a73.11,73.11,0,0,0-2.34,9c-.13.75-.27,1.51-.34,2.26A21.36,21.36,0,0,0,690,222a16.17,16.17,0,0,0,0,2.2,11.91,11.91,0,0,0,.27,1.94L688,227.21a8.89,8.89,0,0,1-.82-2.71,18.93,18.93,0,0,1-.25-2.58,26.27,26.27,0,0,1,.39-5,47,47,0,0,1,2.72-9.47c.63-1.51,1.28-3,2-4.46s1.45-2.9,2.29-4.28,1.65-2.78,2.55-4.12S698.71,191.9,699.69,190.63Z"></path><path class="cls-3" d="M679.24,360.72l.65-82.24V277.2l1.3,0c3.53-.07,7.06,0,10.59.06l1.27,0,0,1.22-1.25,81.28-1.24-81.28,1.24,1.25c-3.53,0-7.06.12-10.59.06l1.31-1.31.65,82.24Z"></path><path class="cls-3" d="M663.44,360.87l.53-82.39V277.2l1.3,0c3.53-.07,7.06,0,10.59.06l1.26,0,0,1.22-1.24,81.28-1.25-81.28,1.25,1.25c-3.53,0-7.06.12-10.59.06l1.3-1.31.54,82.39Z"></path><path class="cls-3" d="M562.86,469.15l91.82.65H656l0,1.3c.06,3.94,0,7.88-.06,11.83l0,1.26-1.23,0-90.76-1.24,90.76-1.25-1.24,1.25c-.06-3.95-.13-7.89-.06-11.83l1.3,1.31-91.82.65Z"></path><path class="cls-3" d="M562.68,453.18c7.67-.5,15.34-.81,23-1s15.34-.27,23-.2,15.34.48,23,.72,15.34.2,23,0h.58l0,.61.35,11.82,0,.91-1,0q-5.74.21-11.5.31c-3.83.09-7.66.14-11.5.18-7.66.1-15.33.21-23,.18s-15.33-.14-23-.33c-3.83-.09-7.66-.2-11.5-.35s-7.66-.26-11.5-.47l-.48,0v-.45l.32-11.82h.31l.31,11.82-.47-.47c3.84-.2,7.67-.33,11.5-.46s7.67-.26,11.5-.35c7.67-.19,15.34-.29,23-.34s15.34.09,23,.19c3.84,0,7.67.09,11.5.18s7.67.17,11.5.31l-.94.94.35-11.82.59.59c-7.66-.18-15.33-.2-23,0s-15.33.6-23,.71-15.33-.05-23-.2-15.33-.48-23-1Z"></path><path class="cls-3" d="M654.51,423.71c-7.65.71-15.3,1-23,1.28s-15.31.36-23,.23-15.31-.68-23-1-15.3-.19-23,.1l-.81,0,0-.88-.46-11.15,0-1.24,1.35-.07c7.57-.36,15.13-.48,22.69-.6s15.13-.26,22.69-.14,15.13.27,22.69.55,15.13.7,22.69,1.3v.39c-7.56.61-15.12,1-22.69,1.3s-15.12.48-22.69.56-15.12,0-22.69-.15-15.12-.23-22.69-.6l1.31-1.3-.46,11.15-.85-.84q11.49.43,23,.09c7.65-.27,15.31-.79,23-.95s15.3,0,23,.22,15.3.58,23,1.29Z"></path><path class="cls-3" d="M654.68,448l-92-.5h-1.34v-1.33l0-8.26c0-2.76,0-5.51,0-8.27l0-1.27h1.25l90.76-.09H655l-.18,1.36-1.37,10.2-1.36-10.2,1.36,1.37-90.76-.09,1.28-1.28c.07,2.76,0,5.51,0,8.27l0,8.26-1.34-1.34,92-.5Z"></path><path class="cls-3" d="M613.49,359.76c-.28-6.77-.41-13.54-.61-20.32l-.36-20.32c-.13-6.77-.2-13.54-.25-20.32l-.09-20.32v-1.3h13.21v1.3l-.09,20.32c-.06,6.78-.11,13.55-.25,20.32l-.36,20.32c-.2,6.78-.33,13.55-.61,20.32-.28-6.77-.41-13.54-.61-20.32l-.36-20.32c-.14-6.77-.2-13.54-.25-20.32l-.09-20.32,1.31,1.31H613.49l1.3-1.31-.09,20.32c-.05,6.78-.11,13.55-.24,20.32l-.36,20.32C613.9,346.22,613.77,353,613.49,359.76Z"></path><path class="cls-3" d="M639.12,359.66a21.24,21.24,0,0,1,.89-10.31l2.67-9.81c1.76-6.54,3.66-13,5.5-19.56,3.79-13,7.66-26,12-38.84l.89,1.6c-1.71-.44-3.4-.93-5.1-1.42s-3.39-1-5.08-1.49l1.6-.89L629,356.78l-.06-.11,5.68,1.56-5.72-1.39-.09,0,0-.09L650,278.23l.33-1.22,1.27.34c1.7.45,3.4.93,5.1,1.41s3.4,1,5.08,1.48l1.19.37-.29,1.24c-3.11,13.2-6.67,26.27-10.31,39.32-1.88,6.51-3.69,13-5.65,19.52l-2.9,9.74A21.17,21.17,0,0,1,639.12,359.66Z"></path><path class="cls-3" d="M589.22,335.89a25.76,25.76,0,0,1-7.2,17.57,24.93,24.93,0,0,1-17.57,7.42,25.25,25.25,0,0,1-25.38-25,28.57,28.57,0,0,1,1.57-9.87A23.63,23.63,0,0,1,546,317.4a25.4,25.4,0,0,1,43.26,18.49Zm-1.79,0a22.29,22.29,0,0,0-23-21.89,22.88,22.88,0,0,0-8.3,1.83,23.24,23.24,0,0,0-7,4.79c-4,3.9-7,9.33-7.09,15.27a22.5,22.5,0,0,0,22.36,22.76,22.94,22.94,0,0,0,16.2-6.57A22.15,22.15,0,0,0,587.43,335.89Z"></path><path class="cls-3" d="M577.62,327.21a6.8,6.8,0,0,1-6,6.73,6.71,6.71,0,0,1-5.14-1.58,6.82,6.82,0,0,1,0-10.29,6.71,6.71,0,0,1,5.15-1.59A6.81,6.81,0,0,1,577.62,327.21Zm0,0a5.33,5.33,0,0,0-1.9-4.07,5.2,5.2,0,0,0-4.07-1.14,5.28,5.28,0,0,0,0,10.43,5.16,5.16,0,0,0,4.07-1.14A5.35,5.35,0,0,0,577.62,327.21Z"></path><path class="cls-3" d="M134.11,126.13c.74-1.53,1.48-1.63,2.22-1.59l2.22,0,4.43-.07,8.86-.16c5.91-.11,11.82-.2,17.74-.22l35.46-.11,35.46,0c11.82,0,23.64-.07,35.46,0l-2.2,2.55h0A44.37,44.37,0,0,0,271,116.26a22.88,22.88,0,0,0-5.84-8.21,21.55,21.55,0,0,0-9-4.5,41.29,41.29,0,0,0-10.54-1.07c-7.24.09-14.54,1.36-22,2.27a61.16,61.16,0,0,1-11.56.58,18.57,18.57,0,0,1-6.09-1.36,15.62,15.62,0,0,1-4-2.71c-.38-.35-.77-.69-1.11-1.07A31.1,31.1,0,0,1,194.75,90c-1.44-3.55-2.53-7.1-4-10.37a23.9,23.9,0,0,0-5.9-8.52,21.4,21.4,0,0,0-9.24-4.61,51.44,51.44,0,0,0-10.77-1.32,65.78,65.78,0,0,0-11,.43,41.43,41.43,0,0,0-10.6,2.72,24.53,24.53,0,0,0-9.16,6.05c2.1-3.13,5.33-5.36,8.65-7.16a42.13,42.13,0,0,1,10.78-3.62,59.14,59.14,0,0,1,11.34-1.1,53,53,0,0,1,11.43,1,28.71,28.71,0,0,1,5.62,1.86A23.25,23.25,0,0,1,187,68.61a27.15,27.15,0,0,1,7,9.54c1.67,3.5,2.88,7.07,4.28,10.42a27.4,27.4,0,0,0,5.4,8.89,13,13,0,0,0,3.84,2.84,14.72,14.72,0,0,0,4.78,1,59.94,59.94,0,0,0,10.76-.65c7.32-.94,14.76-2.31,22.46-2.46a45.91,45.91,0,0,1,11.67,1.11A25.82,25.82,0,0,1,268,104.64a26.6,26.6,0,0,1,7.09,9.81,43.77,43.77,0,0,1,3.06,11.34h0l.43,2.54H276c-11.82.09-23.64,0-35.46,0l-35.46,0-35.46-.12c-5.92,0-11.83-.11-17.74-.22l-8.86-.16-4.43-.07-2.22,0C135.59,127.76,134.85,127.65,134.11,126.13Z"></path><path class="cls-3" d="M454.11,211.45l-.12-20,0-20,.06-40,.29-40q.11-20,.42-40v-.81l.83,0c9.07-.25,18.14-.32,27.21-.32s18.14.09,27.21.13l27.21.17c9.07,0,18.13.2,27.2.31H565l0,.55c.77,10.27,1.12,20.54,1.35,30.81s.26,20.54.16,30.81-.25,20.54-.58,30.81-.79,20.54-1.49,30.81Q563.4,159.37,563,144c-.34-10.27-.5-20.54-.58-30.81s0-20.54.16-30.81.58-20.54,1.35-30.81l.55.56c-9.07.1-18.13.28-27.2.31L510,52.57c-9.07,0-18.14.15-27.21.13s-18.14-.07-27.21-.32l.85-.85c.19,13.33.35,26.66.41,40l.29,40,.07,40v20l-.11,20Z"></path><path class="cls-3" d="M396,204.62c-.33-4.93-.5-9.86-.74-14.78s-.35-9.85-.53-14.78q-.37-14.77-.51-29.55l0-1.78H396c9.94,0,19.88-.1,29.81,0l14.91.06,14.9.15h1.65l0,1.61L457,160.28l-.33,14.78c-.1,4.93-.29,9.85-.46,14.78s-.34,9.85-.6,14.78c-.25-4.93-.42-9.86-.59-14.78s-.36-9.85-.47-14.78l-.33-14.78L454,145.51l1.62,1.62-14.9.15-14.91.05c-9.93.07-19.87,0-29.81,0l1.79-1.78q-.14,14.78-.51,29.55c-.18,4.93-.29,9.85-.54,14.78S396.34,199.69,396,204.62Z"></path><path class="cls-3" d="M492,65.94c-2,.14-3.94.21-5.91.31s-3.94.13-5.91.2c-3.94.13-7.88.19-11.82.22l.73-.73c0,3.26,0,6.52,0,9.78l-.73-.73c3.94,0,7.88.08,11.82.22,2,.06,3.94.09,5.91.19s3.94.18,5.91.32c-2,.15-3.94.22-5.91.32s-3.94.13-5.91.2q-5.91.2-11.82.22h-.73v-.74c0-3.26,0-6.52,0-9.78v-.73h.73q5.91,0,11.82.23c2,.07,3.94.09,5.91.2S490,65.8,492,65.94Z"></path><path class="cls-3" d="M492,95.89c-2,.14-3.94.21-5.91.31s-3.94.13-5.91.19q-5.91.19-11.82.23l.73-.73c0,3.26,0,6.52,0,9.78l-.73-.73c3.94,0,7.88.08,11.82.21,2,.07,3.94.1,5.91.2s3.94.18,5.91.32c-2,.15-3.94.22-5.91.32s-3.94.13-5.91.2q-5.91.19-11.82.22h-.73v-.74c0-3.26,0-6.52,0-9.78v-.73h.73q5.91,0,11.82.23c2,.07,3.94.08,5.91.19S490,95.75,492,95.89Z"></path><path class="cls-3" d="M492,125.84c-2,.14-3.94.21-5.91.31s-3.94.13-5.91.19q-5.91.19-11.82.23l.73-.73c0,3.26,0,6.52,0,9.78l-.73-.73c3.94,0,7.88.08,11.82.21,2,.07,3.94.1,5.91.2s3.94.18,5.91.32c-2,.14-3.94.22-5.91.32s-3.94.13-5.91.2c-3.94.13-7.88.19-11.82.21h-.73v-.74c0-3.26,0-6.52,0-9.78v-.74h.73q5.91,0,11.82.23c2,.06,3.94.08,5.91.19S490,125.7,492,125.84Z"></path><path class="cls-3" d="M492,155.79c-2,.14-3.94.21-5.91.3s-3.94.13-5.91.2q-5.91.19-11.82.23l.73-.73c0,3.26,0,6.52,0,9.78l-.73-.74q5.91,0,11.82.22c2,.07,3.94.1,5.91.2s3.94.17,5.91.32c-2,.14-3.94.21-5.91.32s-3.94.13-5.91.2c-3.94.13-7.88.19-11.82.21h-.73v-.74c0-3.26,0-6.52,0-9.78v-.74h.73q5.91,0,11.82.22c2,.07,3.94.09,5.91.2S490,155.65,492,155.79Z"></path><path class="cls-3" d="M492,185.74c-2,.13-3.94.21-5.91.3s-3.94.13-5.91.2q-5.91.19-11.82.23l.73-.73c0,3.26,0,6.52,0,9.78l-.73-.74q5.91,0,11.82.22c2,.07,3.94.09,5.91.2s3.94.17,5.91.32c-2,.14-3.94.21-5.91.31s-3.94.13-5.91.2c-3.94.14-7.88.2-11.82.22h-.73v-.74c0-3.26,0-6.52,0-9.78V185h.73c3.94,0,7.88.09,11.82.22,2,.07,3.94.09,5.91.2S490,185.6,492,185.74Z"></path><path class="cls-3" d="M521.86,65.94c-2,.14-3.94.21-5.91.31s-3.94.13-5.91.2c-3.94.13-7.88.19-11.82.22l.73-.73c0,3.26,0,6.52,0,9.78l-.73-.73c3.94,0,7.88.08,11.82.22,2,.06,3.94.09,5.91.19s3.94.18,5.91.32c-2,.15-3.94.22-5.91.32s-3.94.13-5.91.2q-5.91.2-11.82.22h-.73v-.74c0-3.26,0-6.52,0-9.78v-.73h.73q5.91,0,11.82.23c2,.07,3.94.09,5.91.2S519.89,65.8,521.86,65.94Z"></path><path class="cls-3" d="M521.86,95.89c-2,.14-3.94.21-5.91.31s-3.94.13-5.91.19q-5.91.19-11.82.23l.73-.73c0,3.26,0,6.52,0,9.78l-.73-.73c3.94,0,7.88.08,11.82.21,2,.07,3.94.1,5.91.2s3.94.18,5.91.32c-2,.15-3.94.22-5.91.32s-3.94.13-5.91.2q-5.91.19-11.82.22h-.73v-.74c0-3.26,0-6.52,0-9.78v-.73h.73q5.91,0,11.82.23c2,.07,3.94.08,5.91.19S519.89,95.75,521.86,95.89Z"></path><path class="cls-3" d="M521.86,125.84c-2,.14-3.94.21-5.91.31s-3.94.13-5.91.19q-5.91.19-11.82.23l.73-.73c0,3.26,0,6.52,0,9.78l-.73-.73c3.94,0,7.88.08,11.82.21,2,.07,3.94.1,5.91.2s3.94.18,5.91.32c-2,.14-3.94.22-5.91.32s-3.94.13-5.91.2c-3.94.13-7.88.19-11.82.21h-.73v-.74c0-3.26,0-6.52,0-9.78v-.74h.73q5.91,0,11.82.23c2,.06,3.94.08,5.91.19S519.89,125.7,521.86,125.84Z"></path><path class="cls-3" d="M521.86,155.79c-2,.14-3.94.21-5.91.3s-3.94.13-5.91.2q-5.91.19-11.82.23l.73-.73c0,3.26,0,6.52,0,9.78l-.73-.74q5.91,0,11.82.22c2,.07,3.94.1,5.91.2s3.94.17,5.91.32c-2,.14-3.94.21-5.91.32s-3.94.13-5.91.2c-3.94.13-7.88.19-11.82.21h-.73v-.74c0-3.26,0-6.52,0-9.78v-.74h.73q5.91,0,11.82.22c2,.07,3.94.09,5.91.2S519.89,155.65,521.86,155.79Z"></path><path class="cls-3" d="M521.86,185.74c-2,.13-3.94.21-5.91.3s-3.94.13-5.91.2q-5.91.19-11.82.23l.73-.73c0,3.26,0,6.52,0,9.78l-.73-.74q5.91,0,11.82.22c2,.07,3.94.09,5.91.2s3.94.17,5.91.32c-2,.14-3.94.21-5.91.31S512,196,510,196c-3.94.14-7.88.2-11.82.22h-.73v-.74c0-3.26,0-6.52,0-9.78V185h.73c3.94,0,7.88.09,11.82.22,2,.07,3.94.09,5.91.2S519.89,185.6,521.86,185.74Z"></path><path class="cls-3" d="M551.74,65.94c-2,.14-3.94.21-5.91.31s-3.94.13-5.91.2c-3.94.13-7.88.19-11.82.22l.73-.73c0,3.26,0,6.52,0,9.78L528.1,75c3.94,0,7.88.08,11.82.22,2,.06,3.94.09,5.91.19s3.94.18,5.91.32c-2,.15-3.94.22-5.91.32s-3.94.13-5.91.2q-5.91.2-11.82.22h-.73v-.74c0-3.26,0-6.52,0-9.78v-.73h.73q5.91,0,11.82.23c2,.07,3.94.09,5.91.2S549.77,65.8,551.74,65.94Z"></path><path class="cls-3" d="M551.74,95.89c-2,.14-3.94.21-5.91.31s-3.94.13-5.91.19q-5.91.19-11.82.23l.73-.73c0,3.26,0,6.52,0,9.78l-.73-.73c3.94,0,7.88.08,11.82.21,2,.07,3.94.1,5.91.2s3.94.18,5.91.32c-2,.15-3.94.22-5.91.32s-3.94.13-5.91.2q-5.91.19-11.82.22h-.73v-.74c0-3.26,0-6.52,0-9.78v-.73h.73q5.91,0,11.82.23c2,.07,3.94.08,5.91.19S549.77,95.75,551.74,95.89Z"></path><path class="cls-3" d="M551.74,125.84c-2,.14-3.94.21-5.91.31s-3.94.13-5.91.19q-5.91.19-11.82.23l.73-.73c0,3.26,0,6.52,0,9.78l-.73-.73c3.94,0,7.88.08,11.82.21,2,.07,3.94.1,5.91.2s3.94.18,5.91.32c-2,.14-3.94.22-5.91.32s-3.94.13-5.91.2c-3.94.13-7.88.19-11.82.21h-.73v-.74c0-3.26,0-6.52,0-9.78v-.74h.73q5.91,0,11.82.23c2,.06,3.94.08,5.91.19S549.77,125.7,551.74,125.84Z"></path><path class="cls-3" d="M551.74,155.79c-2,.14-3.94.21-5.91.3s-3.94.13-5.91.2q-5.91.19-11.82.23l.73-.73c0,3.26,0,6.52,0,9.78l-.73-.74q5.91,0,11.82.22c2,.07,3.94.1,5.91.2s3.94.17,5.91.32c-2,.14-3.94.21-5.91.32s-3.94.13-5.91.2c-3.94.13-7.88.19-11.82.21h-.73v-.74c0-3.26,0-6.52,0-9.78v-.74h.73q5.91,0,11.82.22c2,.07,3.94.09,5.91.2S549.77,155.65,551.74,155.79Z"></path><path class="cls-3" d="M551.74,185.74c-2,.13-3.94.21-5.91.3s-3.94.13-5.91.2q-5.91.19-11.82.23l.73-.73c0,3.26,0,6.52,0,9.78l-.73-.74q5.91,0,11.82.22c2,.07,3.94.09,5.91.2s3.94.17,5.91.32c-2,.14-3.94.21-5.91.31s-3.94.13-5.91.2c-3.94.14-7.88.2-11.82.22h-.73v-.74c0-3.26,0-6.52,0-9.78V185h.73c3.94,0,7.88.09,11.82.22,2,.07,3.94.09,5.91.2S549.77,185.6,551.74,185.74Z"></path><path class="cls-3" d="M407.54,155.74a109.95,109.95,0,0,1,0,25.81,111.4,111.4,0,0,1,0-25.81Z"></path><path class="cls-3" d="M417,155.74a98.07,98.07,0,0,1,.75,12.91,96.23,96.23,0,0,1-.75,12.9,96.24,96.24,0,0,1-.76-12.9A98.08,98.08,0,0,1,417,155.74Z"></path><path class="cls-3" d="M426.41,155.74a109.95,109.95,0,0,1,0,25.81,111.4,111.4,0,0,1,0-25.81Z"></path><path class="cls-3" d="M435.85,155.74a99.83,99.83,0,0,1,.76,12.91,97.93,97.93,0,0,1-.76,12.9,109.95,109.95,0,0,1,0-25.81Z"></path><path class="cls-3" d="M445.29,155.74a111.4,111.4,0,0,1,0,25.81,109.95,109.95,0,0,1,0-25.81Z"></path><path class="cls-3" d="M407.54,185.64a109.95,109.95,0,0,1,0,25.81,111.4,111.4,0,0,1,0-25.81Z"></path><path class="cls-3" d="M417,185.64a97.92,97.92,0,0,1,.75,12.9,96.28,96.28,0,0,1-.75,12.91,96.3,96.3,0,0,1-.76-12.91A97.93,97.93,0,0,1,417,185.64Z"></path><path class="cls-3" d="M426.41,185.64a109.95,109.95,0,0,1,0,25.81,111.4,111.4,0,0,1,0-25.81Z"></path><path class="cls-3" d="M435.85,185.64a27.75,27.75,0,0,1,0,12.9,27.75,27.75,0,0,1,0-12.9Z"></path><path class="cls-3" d="M445.29,185.64a28.11,28.11,0,0,1,0,12.9,27.75,27.75,0,0,1,0-12.9Z"></path><path class="cls-3" d="M194.48,303c-.94-9.31-1.43-18.62-1.76-27.93-.21-4.66-.26-9.31-.38-14l-.12-14,.05-7v-1.75a13.25,13.25,0,0,0-.09-1.44,10.18,10.18,0,0,0-.75-2.76,10.05,10.05,0,0,0-3.61-4.43,10.92,10.92,0,0,0-5.52-1.85c-9.31-.33-18.62-.82-27.93-1.77,9.31-.94,18.62-1.44,27.93-1.77a14,14,0,0,1,13.05,8,13.17,13.17,0,0,1,1.17,3.94,15.69,15.69,0,0,1,.16,2v1.75l.05,7-.12,14c-.13,4.66-.17,9.31-.38,14C195.91,284.36,195.42,293.67,194.48,303Z"></path><path class="cls-3" d="M235.07,208c-7.13.94-14.25,1.43-21.37,1.77-3.56.21-7.13.25-10.69.38l-10.68.12-10.69-.12c-3.56-.12-7.12-.17-10.68-.38-7.12-.33-14.24-.82-21.37-1.77,7.13-.94,14.25-1.44,21.37-1.77,3.56-.21,7.12-.25,10.68-.38l10.69-.11,10.68.12c3.56.12,7.13.17,10.69.38C220.82,206.61,227.94,207.1,235.07,208Z"></path><path class="cls-3" d="M860.41,163.43a5.28,5.28,0,0,1,2.16-5.57l4.07-3.56c1.37-1.16,2.78-2.28,4.17-3.42s2.89-2.16,4.33-3.24a133.2,133.2,0,0,1,18.52-11.15,137,137,0,0,1,41.05-12.73,122.49,122.49,0,0,1,42.82,1.12,120.18,120.18,0,0,1,39.75,16.05,122,122,0,0,1,17.1,13.1,124.49,124.49,0,0,1,14.48,16,130.5,130.5,0,0,1,19.84,38.1,148.8,148.8,0,0,1,7.1,42.36c.15,14.26.06,28.36.1,42.55l.21,340h-4.77l.21-340c0-14.15.07-28.39,0-42.45a144.76,144.76,0,0,0-6.67-41.22,126.64,126.64,0,0,0-19-37.05,119.09,119.09,0,0,0-30.41-28.43,114,114,0,0,0-59.32-18.29A109.86,109.86,0,0,0,935.2,127,123.38,123.38,0,0,0,896,140.88a167.19,167.19,0,0,0-17.57,11.24q-4.2,3.09-8.28,6.36l-4,3.36A5.23,5.23,0,0,1,860.41,163.43Z"></path><path class="cls-3" d="M798.25,162.55c1.75,3.71,3.29,7.26,5,10.81a66.86,66.86,0,0,0,6.31,10,85.85,85.85,0,0,0,16.87,16.54,118.13,118.13,0,0,0,20.27,12.32,172.74,172.74,0,0,0,22.11,8.9h0l-2,1.44c-.13-4.68-.2-9.36-.26-14s-.06-9.36,0-14l.14-28.08L868,168l-6.72-1.72-.55-.14-.33-.42-7.26-9.43h0l1.33.55c-2.32.45-4.64.84-7,1.22s-4.64.79-7,1.12c-4.65.7-9.32,1.32-14,1.93s-9.34,1.14-14,1.62c-2.34.23-4.67.58-7,.68a22.12,22.12,0,0,1-7.22-.85A21.77,21.77,0,0,1,805,159.9c2.3-.5,4.64-.74,7-1.11,4.65-.72,9.32-1.34,14-2s9.34-1.17,14-1.65c2.34-.28,4.69-.45,7-.67s4.69-.43,7.05-.58l.91-.05.41.59,7.51,9.23-.87-.56,6.74,1.64,1.25.3v1.3l.14,28.08c0,4.68,0,9.36,0,14s-.12,9.36-.25,14l-.06,2.13-1.91-.69h0a154.24,154.24,0,0,1-22.64-8.82,121.59,121.59,0,0,1-20.74-12.8,87.61,87.61,0,0,1-17-17.47,70.35,70.35,0,0,1-6.31-10.51C799.45,170.72,798,166.73,798.25,162.55Z"></path><path class="cls-3" d="M833.32,207.09a7.19,7.19,0,0,1-5.37,4,8.54,8.54,0,0,1-10-8.39,7.16,7.16,0,0,1,3-6c-1.76,4-.68,8,2,10.21S829.67,209.54,833.32,207.09Z"></path><path class="cls-3" d="M837.29,246.65a75.43,75.43,0,0,1,4.22,8.62c1.26,2.92,2.36,5.9,3.42,8.89s2,6,2.79,9.11a74.88,74.88,0,0,1,2,9.39,77.13,77.13,0,0,1-4.22-8.62c-1.26-2.92-2.36-5.9-3.42-8.89s-2-6-2.78-9.11A76.73,76.73,0,0,1,837.29,246.65Z"></path><path class="cls-3" d="M778.86,196.73a76.28,76.28,0,0,1-9.58-.55c-3.16-.33-6.3-.84-9.42-1.37s-6.23-1.23-9.31-2a75.74,75.74,0,0,1-9.16-2.86,76.06,76.06,0,0,1,9.58.54c3.17.33,6.3.84,9.43,1.38s6.23,1.23,9.31,2A76.15,76.15,0,0,1,778.86,196.73Z"></path><path class="cls-3" d="M789.8,246.94a20.74,20.74,0,0,1-2.23,4.26,33.91,33.91,0,0,1-6.22,6.95,19.82,19.82,0,0,1-4,2.68,20.56,20.56,0,0,1,2.23-4.27,33.13,33.13,0,0,1,2.87-3.69,34.31,34.31,0,0,1,3.35-3.25A20.1,20.1,0,0,1,789.8,246.94Z"></path><g class="cls-1"><path class="cls-2" d="M390.71,434.15,399.23,520v55.7s-5.37,7.26-17.66,6.36,1.88-38.79-3.81-55.94.45-30.07-7.4-58.51-35.75-57.73-35.75-57.73l-4.94,4.58s-9.43,68.8-11.35,76.06S303.85,585,303.85,585a13.13,13.13,0,0,1-14.54-3c-6.7-6.71,9.74-144,9.74-144l16.33-5.42,6.5-42,32.87-3.86,18,46Z"></path></g><g class="cls-1"><path class="cls-2" d="M362.38,317.46l-.54,33.9S350,355.74,339.1,354s3.95-6.77,11.64-16.13,2.07-12.2,3-14.48,5.39-5.89,5.39-5.89Z"></path></g><path class="cls-3" d="M268.85,647.37l8.69-.7c2.83-.23,5.66-.46,8.51-.62s5.73-.25,8.65-.17c1.46,0,2.93.12,4.42.3.75.12,1.5.21,2.25.39a9.7,9.7,0,0,1,1.13.34,2.77,2.77,0,0,1,.56.3.63.63,0,0,1,.22.28.3.3,0,0,1-.1.3c0-.22-.11-.25-.26-.26a2.2,2.2,0,0,0-.5.06,9.92,9.92,0,0,0-1.05.24l-2.1.58c-1.4.38-2.82.72-4.25,1a58,58,0,0,1-8.72,1.15,45,45,0,0,1-8.89-.35A22.7,22.7,0,0,1,268.85,647.37Z"></path><path class="cls-3" d="M434.56,226.17c-.32-4.91-.47-9.82-.71-14.72l0-.69.74,0c9-.32,18-.57,27-.66,4.51-.08,9-.1,13.51-.12s9,0,13.51,0q13.5,0,27,.38c9,.23,18,.57,27,1.1q-13.51.78-27,1.09c-9,.22-18,.37-27,.39-4.51,0-9,0-13.51,0s-9,0-13.51-.11c-9-.1-18-.34-27-.66l.71-.71C435,216.35,434.89,221.26,434.56,226.17Z"></path><g class="cls-1"><polygon class="cls-2" points="499.18 542.48 585.16 628.45 585.16 542.48 499.18 542.48"></polygon></g><g class="cls-1"><path class="cls-2" d="M265.41,277.88c-2.81-2-36.72,37,33.64,45.36Z"></path></g><g class="cls-1"><path class="cls-2" d="M868.6,485.41c-8.19,13,1,34.36,9.26,40.54h29.8a13.68,13.68,0,0,1-5.59-11.77c.17-8.18.7-13.28.7-13.28l-3-9s-1-.85-8.71.13-19.66,2.46-22.48-6.65"></path></g><g class="cls-1"><path class="cls-2" d="M904.41,399.6s6.65,27.86,15.52,37.15,12.75,29.92,12.75,29.92-3.84,3.49-19.9,3C912.78,469.71,905.36,413.1,904.41,399.6Z"></path></g></g></g></svg>