<svg id="Layer_1" data-name="Layer 1" xmlns="http://www.w3.org/2000/svg" xmlns:xlink="http://www.w3.org/1999/xlink" viewBox="0 0 62 36.98"><defs><clipPath id="clip-path" transform="translate(-0.13 0.21)"><rect x="0.13" y="-0.23" width="62" height="37" style="fill:none"/></clipPath></defs><g style="clip-path:url(#clip-path)"><path d="M30.46,36.77A3.73,3.73,0,0,1,28,35.83c-5.25-4.6-17.43-16.23-18-24.35A10.62,10.62,0,0,1,16.37.63c4.46-1.88,9.79-.55,14.09,3.43,4.3-4,9.55-5.31,14-3.43a10.84,10.84,0,0,1,6.36,10.93c-.55,8-12.73,19.67-17.9,24.27A3.74,3.74,0,0,1,30.46,36.77ZM20.67,2.11a8.34,8.34,0,0,0-8.28,9.29c.48,7.41,13.29,19.2,17.19,22.71a1.26,1.26,0,0,0,1.75,0C35.23,30.68,48,18.81,48.44,11.4c.24-3.9-1.59-7.18-4.93-8.59-3.82-1.64-8.44-.23-12.18,3.75l-.87.94-.88-.94C26.8,3.59,23.61,2.11,20.67,2.11Z" transform="translate(-0.13 0.21)" style="fill:#fff"/><path d="M60.94,23.81H50.43a1.17,1.17,0,1,1,0-2.34H60.94a1.17,1.17,0,1,1,0,2.34Z" transform="translate(-0.13 0.21)" style="fill:#fff"/><path d="M30.7,27.79,27.83,18l-1.91,5.85H16.85a1.17,1.17,0,1,1,0-2.34h7.24L27.91,10l3.42,11.56,3.43-6.25L38,21.47h6a1.17,1.17,0,1,1,0,2.34h-7.4L34.76,20.3Z" transform="translate(-0.13 0.21)" style="fill:#fff"/><path d="M10.4,23.81H1.33a1.17,1.17,0,1,1,0-2.34H10.4a1.17,1.17,0,1,1,0,2.34Z" transform="translate(-0.13 0.21)" style="fill:#fff"/></g></svg>