<svg id="Layer_1" data-name="Layer 1" xmlns="http://www.w3.org/2000/svg" viewBox="0 0 630 372.1"><defs><style>.cls-1{fill:none;stroke:#f5f5f5;stroke-miterlimit:10;stroke-opacity:0.2;}.cls-2{fill:#fc0;}</style></defs><path class="cls-1" d="M260,.5H237.9"/><path class="cls-1" d="M213.8.5H174.2"/><path class="cls-1" d="M266.7,6.2H224.1"/><path class="cls-1" d="M206.3,6.2H151.5"/><path class="cls-1" d="M434.4,11.9h-3.9"/><path class="cls-1" d="M273.4,11.9h-58"/><path class="cls-1" d="M198.9,11.9h-57"/><path class="cls-1" d="M447.5,17.6H423.4"/><path class="cls-1" d="M127.4,17.6h-7.7"/><path class="cls-1" d="M277.9,17.6H206.5"/><path class="cls-1" d="M191.5,17.6H146.8"/><path class="cls-1" d="M73.9,17.6H61.8"/><path class="cls-1" d="M581.8,23.3H534.7"/><path class="cls-1" d="M459.5,23.3H416.3"/><path class="cls-1" d="M132.1,23.3H106"/><path class="cls-1" d="M275.9,23.3H197.8"/><path class="cls-1" d="M184.1,23.3H153.7"/><path class="cls-1" d="M80.5,23.3H46.6"/><path class="cls-1" d="M599.3,29H409.2"/><path class="cls-1" d="M107.7,29h29.1"/><path class="cls-1" d="M273.8,29H189"/><path class="cls-1" d="M176.6,29h-1.3"/><path class="cls-1" d="M87,29H31.4"/><path class="cls-1" d="M610.6,34.8h-207"/><path class="cls-1" d="M141.5,34.8H111"/><path class="cls-1" d="M271.8,34.8H194.9"/><path class="cls-1" d="M93.6,34.8H16.2"/><path class="cls-1" d="M607.8,40.5H388.5"/><path class="cls-1" d="M114.4,40.5h74.9"/><path class="cls-1" d="M269.8,40.5H202.4"/><path class="cls-1" d="M100.1,40.5H14.3"/><path class="cls-1" d="M604.9,46.2H397.6"/><path class="cls-1" d="M192.6,46.2H143.2"/><path class="cls-1" d="M279.1,46.2H206.8"/><path class="cls-1" d="M106.8,46.2H13.1"/><path class="cls-1" d="M602.1,51.9H394.5"/><path class="cls-1" d="M195.8,51.9H157.3"/><path class="cls-1" d="M265.7,51.9H207.3"/><path class="cls-1" d="M125.7,51.9H12"/><path class="cls-1" d="M599.3,57.6H391.5"/><path class="cls-1" d="M166.7,57.6h32.4"/><path class="cls-1" d="M263.7,57.6h-56"/><path class="cls-1" d="M144.6,57.6H5.2"/><path class="cls-1" d="M596.5,63.3h-208"/><path class="cls-1" d="M176,63.3h22.2"/><path class="cls-1" d="M261.7,63.3H208.2"/><path class="cls-1" d="M158.4,63.3H9.8"/><path class="cls-1" d="M324,69H597.4"/><path class="cls-1" d="M185.3,69h11.1"/><path class="cls-1" d="M254.5,69H208.6"/><path class="cls-1" d="M167.5,69H0"/><path class="cls-1" d="M599.3,74.7H314.5"/><path class="cls-1" d="M176.6,74.7H40.3"/><path class="cls-1" d="M245.5,74.7H209"/><path class="cls-1" d="M34.5,74.7H7.5"/><path class="cls-1" d="M332,80.4H588"/><path class="cls-1" d="M185.8,80.4H44.4"/><path class="cls-1" d="M236.4,80.4h-27"/><path class="cls-1" d="M24.4,80.4H6.4"/><path class="cls-1" d="M299,86.2H585"/><path class="cls-1" d="M194.9,86.2H48.5"/><path class="cls-1" d="M229.2,86.2H209.9"/><path class="cls-1" d="M14.3,86.2h-9"/><path class="cls-1" d="M299.8,91.9H602.1"/><path class="cls-1" d="M196.4,91.9H52.6"/><path class="cls-1" d="M227.1,91.9h-15"/><path class="cls-1" d="M300.6,97.6H579.5"/><path class="cls-1" d="M225.1,97.6h-9.8"/><path class="cls-1" d="M196.8,97.6H56.7"/><path class="cls-1" d="M576.7,103.3H301.4"/><path class="cls-1" d="M289.1,103.3H285"/><path class="cls-1" d="M223.1,103.3h-4.6"/><path class="cls-1" d="M197.1,103.3H60.8"/><path class="cls-1" d="M549.7,109h-243"/><path class="cls-1" d="M291,109h-8.6"/><path class="cls-1" d="M197.4,109H64.8"/><path class="cls-1" d="M552,114.7H314.7"/><path class="cls-1" d="M292.8,114.7H274.1"/><path class="cls-1" d="M197.8,114.7H63.7"/><path class="cls-1" d="M554.3,120.4H311.2"/><path class="cls-1" d="M294.6,120.4h-22"/><path class="cls-1" d="M198.1,120.4H62.1"/><path class="cls-1" d="M554.8,126.1h-252"/><path class="cls-1" d="M296,126.1H284.1"/><path class="cls-1" d="M198.5,126.1H60.7"/><path class="cls-1" d="M539.2,131.8H297.1"/><path class="cls-1" d="M289.6,131.8H285"/><path class="cls-1" d="M209.9,131.8H59.2"/><path class="cls-1" d="M536.3,137.5h-245"/><path class="cls-1" d="M192.7,137.5H57.7"/><path class="cls-1" d="M535.8,143.2H285.6"/><path class="cls-1" d="M179.2,143.2H56.2"/><path class="cls-1" d="M549.7,149H282"/><path class="cls-1" d="M165.8,149H54.7"/><path class="cls-1" d="M536.2,154.7H329.1"/><path class="cls-1" d="M301.2,154.7H279.1"/><path class="cls-1" d="M156.1,154.7H55.8"/><path class="cls-1" d="M538.6,160.4H342.4"/><path class="cls-1" d="M321.4,160.4H302.7"/><path class="cls-1" d="M152.9,160.4H60.4"/><path class="cls-1" d="M540.9,166.1H355.7"/><path class="cls-1" d="M333.9,166.1H292.3"/><path class="cls-1" d="M149.7,166.1H65"/><path class="cls-1" d="M543.2,171.8H361.6"/><path class="cls-1" d="M346.5,171.8H282"/><path class="cls-1" d="M69.7,171.8h76.8"/><path class="cls-1" d="M363.2,177.5H535.6"/><path class="cls-1" d="M353.4,177.5H271.7"/><path class="cls-1" d="M74.3,177.5h69"/><path class="cls-1" d="M395.6,183.2H364.9"/><path class="cls-1" d="M527.2,183.2h-119"/><path class="cls-1" d="M355.4,183.2h-94"/><path class="cls-1" d="M116.6,183.2H78.9"/><path class="cls-1" d="M403.3,188.9H366.6"/><path class="cls-1" d="M518.8,188.9H422.6"/><path class="cls-1" d="M357.4,188.9H262"/><path class="cls-1" d="M118.3,188.9H60.8"/><path class="cls-1" d="M510.4,194.6H427"/><path class="cls-1" d="M359.4,194.6H263.8"/><path class="cls-1" d="M405.8,194.6H368.2"/><path class="cls-1" d="M120.1,194.6H88.2"/><path class="cls-1" d="M505.3,200.3H473"/><path class="cls-1" d="M459.4,200.3H431.2"/><path class="cls-1" d="M361.4,200.3H265.5"/><path class="cls-1" d="M398.5,200.3H369.9"/><path class="cls-1" d="M123.4,200.3H93.1"/><path class="cls-1" d="M507.3,206.1H483.6"/><path class="cls-1" d="M534.8,206.1h-6.5"/><path class="cls-1" d="M455.9,206.1H435.4"/><path class="cls-1" d="M363.4,206.1H267.3"/><path class="cls-1" d="M391.2,206.1H371.5"/><path class="cls-1" d="M161.7,206.1h-6.8"/><path class="cls-1" d="M127.4,206.1H104.8"/><path class="cls-1" d="M509.3,211.8H481.9"/><path class="cls-1" d="M538.5,211.8H524.9"/><path class="cls-1" d="M452.5,211.8H439.6"/><path class="cls-1" d="M365.4,211.8H269"/><path class="cls-1" d="M171.6,211.8H151.3"/><path class="cls-1" d="M131.4,211.8h-15"/><path class="cls-1" d="M511.2,217.5h-31"/><path class="cls-1" d="M542.2,217.5H521.5"/><path class="cls-1" d="M449,217.5h-5.3"/><path class="cls-1" d="M382.6,217.5h-112"/><path class="cls-1" d="M181.4,217.5H147.7"/><path class="cls-1" d="M135.4,217.5H128"/><path class="cls-1" d="M546,223.2H518.2"/><path class="cls-1" d="M508.2,223.2H478.5"/><path class="cls-1" d="M391.5,223.2H272.4"/><path class="cls-1" d="M191.3,223.2H144.2"/><path class="cls-1" d="M546.5,228.9H514.8"/><path class="cls-1" d="M503.6,228.9H476.8"/><path class="cls-1" d="M388.9,228.9H296.1"/><path class="cls-1" d="M201.1,228.9H140.5"/><path class="cls-1" d="M537.5,234.6h-26"/><path class="cls-1" d="M499,234.6H475.1"/><path class="cls-1" d="M386.4,234.6H308.9"/><path class="cls-1" d="M211,234.6H137"/><path class="cls-1" d="M508.1,240.3h20.3"/><path class="cls-1" d="M554.5,240.3H549"/><path class="cls-1" d="M498.6,240.3H483.1"/><path class="cls-1" d="M383.9,240.3H312"/><path class="cls-1" d="M220.8,240.3H133.3"/><path class="cls-1" d="M516.3,246h3.1"/><path class="cls-1" d="M575.8,246H538.7"/><path class="cls-1" d="M500.4,246h-9.1"/><path class="cls-1" d="M395.6,246H315"/><path class="cls-1" d="M230.7,246H131"/><path class="cls-1" d="M587.9,251.7H576.6"/><path class="cls-1" d="M502.1,251.7h-2.7"/><path class="cls-1" d="M369.9,251.7H314.3"/><path class="cls-1" d="M237.7,251.7H136.2"/><path class="cls-1" d="M588.4,257.4h-2.2"/><path class="cls-1" d="M376.2,257.4h-63"/><path class="cls-1" d="M233.2,257.4H141.4"/><path class="cls-1" d="M576.1,263.1h-4.3"/><path class="cls-1" d="M548.8,263.1H529.3"/><path class="cls-1" d="M373.7,263.1H300.6"/><path class="cls-1" d="M228.7,263.1H146.6"/><path class="cls-1" d="M578.7,268.9H570"/><path class="cls-1" d="M561.7,268.9H517.8"/><path class="cls-1" d="M371.1,268.9H311.2"/><path class="cls-1" d="M224.2,268.9H151.8"/><path class="cls-1" d="M581.4,274.6H506.3"/><path class="cls-1" d="M368.6,274.6H313.5"/><path class="cls-1" d="M219.7,274.6H155.8"/><path class="cls-1" d="M584,280.3H504.3"/><path class="cls-1" d="M366,280.3H316.2"/><path class="cls-1" d="M215.2,280.3H155.3"/><path class="cls-1" d="M594.6,286H506.4"/><path class="cls-1" d="M363,286H318.9"/><path class="cls-1" d="M210.6,286H154.7"/><path class="cls-1" d="M589.2,291.7H508.5"/><path class="cls-1" d="M359.2,291.7H321.6"/><path class="cls-1" d="M206.1,291.7H154.2"/><path class="cls-1" d="M588.2,297.4H510.6"/><path class="cls-1" d="M355.3,297.4h-31"/><path class="cls-1" d="M215.2,297.4H153.8"/><path class="cls-1" d="M585.9,303.1H512.7"/><path class="cls-1" d="M351.5,303.1H327"/><path class="cls-1" d="M197.1,303.1H153.2"/><path class="cls-1" d="M583.7,308.8H514.9"/><path class="cls-1" d="M347.6,308.8h-18"/><path class="cls-1" d="M192.6,308.8H152.8"/><path class="cls-1" d="M581.4,314.5H551.8"/><path class="cls-1" d="M522,314.5h-5"/><path class="cls-1" d="M188.1,314.5H152.3"/><path class="cls-1" d="M579.1,320.2H556"/><path class="cls-1" d="M183.6,320.2H151.8"/><path class="cls-1" d="M575.6,326H560.1"/><path class="cls-1" d="M179.8,326H151.2"/><path class="cls-1" d="M630,331.7h-9"/><path class="cls-1" d="M179.7,331.7h-29"/><path class="cls-1" d="M625.4,337.4h-7.8"/><path class="cls-1" d="M571.8,337.4H561.6"/><path class="cls-1" d="M179.6,337.4H152"/><path class="cls-1" d="M619.3,343.1H609.1"/><path class="cls-1" d="M568.3,343.1h-4.8"/><path class="cls-1" d="M179.6,343.1H155.9"/><path class="cls-1" d="M613.3,348.8H600.6"/><path class="cls-1" d="M179.5,348.8H159.8"/><path class="cls-1" d="M607.3,354.5H594.6"/><path class="cls-1" d="M179.4,354.5H163.7"/><path class="cls-1" d="M601.3,360.2h-.5"/><path class="cls-1" d="M179.4,360.2H167.7"/><path class="cls-1" d="M179.3,365.9h-7.7"/><path class="cls-1" d="M179.2,371.6h-3.7"/><rect class="cls-2" x="451" y="217.5" width="3" height="3"/><rect class="cls-2" x="436.3" y="202.5" width="3" height="3"/><rect class="cls-2" x="458.5" y="186.8" width="3" height="3"/><rect class="cls-2" x="446.8" y="193.1" width="3" height="3"/><rect class="cls-2" x="460.7" y="173.2" width="3" height="3"/><rect class="cls-2" x="508" y="215.5" width="3" height="3"/><rect class="cls-2" x="290" y="124.5" width="3" height="3"/><rect class="cls-2" x="560" y="324.5" width="3" height="3"/><rect class="cls-2" x="431.8" y="173.2" width="3" height="3"/><rect class="cls-2" x="491.9" y="236" width="3" height="3"/><rect class="cls-2" x="505.3" y="187.4" width="3" height="3"/><rect class="cls-2" x="433.3" y="197.3" width="3" height="3"/><rect class="cls-2" x="446.8" y="210.3" width="3" height="3"/><rect class="cls-2" x="443" y="206.1" width="3" height="3"/></svg>