<svg xmlns="http://www.w3.org/2000/svg" xmlns:xlink="http://www.w3.org/1999/xlink" id="Layer_1" x="0px" y="0px" viewBox="0 0 427.8 128.6" style="enable-background:new 0 0 427.8 128.6;" xml:space="preserve">
<style type="text/css">
	.st0{fill-rule:evenodd;clip-rule:evenodd;fill:#FAA61A;}
	.st1{fill:#231F20;}
	.st2{fill-rule:evenodd;clip-rule:evenodd;fill:#231F20;}
	.st3{fill:#FAA61A;}
	.st4{fill-rule:evenodd;clip-rule:evenodd;fill:#E41815;}
	.st5{fill:#E41815;}
	.st6{fill-rule:evenodd;clip-rule:evenodd;fill:#FFFFFF;}
	.st7{stroke:#000000;stroke-miterlimit:10;}
	.st8{fill-rule:evenodd;clip-rule:evenodd;stroke:#000000;stroke-miterlimit:10;}
	.st9{stroke:#FFFFFF;stroke-miterlimit:10;}
</style>
<path class="st0" d="M102.2,122.7c0,0.7,0.6,1.3,1.2,1.3c0,0,0,0,0,0c0.9-0.1,1.5-0.7,2.1-2s1.3-3,2.2-4.8s1.4-2.6,2.2-4  c-0.9,0.3-1.8,0.3-2.8,0.1c-1.1-0.2-2.1-0.8-2.8-1.6L102.2,122.7L102.2,122.7z M9.8,122.7l-2.2-11c-0.7,0.9-1.7,1.4-2.8,1.6  c-0.9,0.2-1.9,0.2-2.7-0.1c0.7,1.4,1.3,2.3,2.2,4s1.5,3.5,2.2,4.8s1.3,1.9,2.1,2C9.2,124,9.8,123.5,9.8,122.7  C9.8,122.8,9.8,122.8,9.8,122.7L9.8,122.7z M98.6,85c3.9,9.2-16.5,32.3-42.6,32.4c-25.9,0-46.4-23.2-42.6-32.4  c-2.6,1.7-6.2,4.1-7.3,5c-5.7,4.9,4.3,19.8,18.7,29c9.3,6,20.1,9,31.2,8.8c11,0.3,21.9-2.8,31.2-8.8c14.4-9.2,24.4-24,18.7-29  C104.8,89,101.2,86.7,98.6,85z M20.3,100c1.8,2.1,3.8,4,6,5.8c0.5,0.4,0.9,0.7,1.5,1.1c0.2-0.2,0.5-0.6,0.8-1  c0.8-1.1,1.5-2.2,2.1-3.4c1-1.8,1.6-3.8,2-5.8c-1.8-1.6-4.2-4.1-4.2-4.1s-1.8-2-3.6-4.2c0.4,2,0.1,4.1-0.6,6  C23.3,96.5,22,98.5,20.3,100L20.3,100z M15.9,113.2c-1.2-1-2.3-2.1-3.3-3.2c-1.3-1.3-2.5-2.7-3.6-4.2c-0.9,0.1-2,0.2-3.2,0.4  c-1.3,0.2-2.4,0.7-3.4,1.4c-1.6,1.3-1.8,2.6-1.3,3.8s2.1,1.4,3.6,1.1c1.2-0.2,2.3-1,2.8-2.2l0.6-1.2l1.3,6.8c1.4-0.1,2.7-0.3,4-0.7  c1.2-0.3,2.4-0.7,3.5-1.1L15.9,113.2L15.9,113.2z M103.1,105.8c-2.4,3-5,5.8-7.9,8.3c1.1,0.4,2.3,0.8,3.5,1.1c1.3,0.4,2.6,0.6,4,0.7  l1.3-6.8l0.6,1.2c0.5,1.2,1.6,2,2.8,2.2c1.4,0.3,3,0.1,3.6-1.1s0.3-2.5-1.3-3.8c-1-0.8-2.2-1.2-3.4-1.4  C105.1,106,104,105.9,103.1,105.8L103.1,105.8z M87.8,94.3c-0.8-1.9-1-4-0.6-6c-1.8,2.2-3.7,4.3-3.7,4.3s-2.3,2.4-4.1,4  c0.3,2.1,1,4.1,1.9,5.9c0.6,1.2,1.3,2.3,2.1,3.4c0.3,0.4,0.7,0.9,0.9,1.2c2.7-2,5.1-4.2,7.3-6.7C90,98.6,88.7,96.5,87.8,94.3  L87.8,94.3z"></path>
<polygon class="st1" points="23.1,115.5 23,111.6 26.5,110.8 25.4,110 22.4,110.7 22.4,110.7 23.8,108.8 22.9,108.1 19.4,112.7   20.3,113.4 21.8,111.4 21.9,111.4 21.9,114.7 23.1,115.5 "></polygon>
<path class="st2" d="M30.5,116.7c0.9-1.3,0.6-3-0.7-3.9c-0.1-0.1-0.2-0.1-0.3-0.2c-0.7-0.4-1.5-0.6-2.3-0.4  c-0.8,0.2-1.4,0.7-1.8,1.4c-0.5,0.7-0.6,1.6-0.4,2.4c0.4,1.6,2.1,2.6,3.7,2.1C29.5,118,30.2,117.5,30.5,116.7L30.5,116.7z   M29.4,116.1c-0.6,0.7-1.7,0.9-2.5,0.2s-0.9-1.7-0.2-2.5c0.6-0.7,1.5-0.8,2.3-0.4c0.8,0.5,1.1,1.6,0.6,2.4  C29.5,116,29.4,116,29.4,116.1z"></path>
<polygon class="st1" points="40.2,117.6 35.8,116 35.4,116.9 37,117.5 35.4,122 36.5,122.4 38.2,117.9 39.7,118.4 40.2,117.6 "></polygon>
<polygon class="st1" points="43.6,124.5 43.9,123.6 41.8,123 42.2,121.6 44,122.1 44.3,121.1 42.5,120.6 42.8,119.3 44.6,119.8   45.2,118.9 41.9,118 40.4,123.7 43.6,124.5 "></polygon>
<polygon class="st1" points="54,120.1 49.3,119.6 49.1,120.6 50.8,120.8 50.3,125.6 51.5,125.7 52.1,120.9 53.6,121.1 54,120.1 "></polygon>
<path class="st2" d="M60.5,125.8L58,120h-0.9l-2.2,5.9h1.2l0.5-1.4h2l0.6,1.4L60.5,125.8L60.5,125.8z M58.2,123.5H57l0.4-1.2  c0.1-0.2,0.2-0.5,0.2-0.7l0,0c0.1,0.2,0.1,0.5,0.2,0.7L58.2,123.5L58.2,123.5z"></path>
<path class="st2" d="M68,124.8l-0.9-5.8l-1.2,0.2l0.5,2.9c0,0.2,0.1,0.6,0.2,0.9l0,0c-0.2-0.2-0.4-0.4-0.7-0.7l-2.9-2.7l-1.2,0.2  l0.9,5.8l1.2-0.2l-0.5-3.2c0-0.3-0.1-0.6-0.1-0.8l0,0c0.2,0.2,0.4,0.4,0.7,0.7l3,2.8L68,124.8L68,124.8z"></path>
<path class="st1" d="M75.5,122.2l-0.7-2.4l-1.2,0.3l0.6,1.9c-0.2,0.2-0.5,0.3-0.8,0.4c-1,0.3-2.1-0.2-2.4-1.3c0,0,0-0.1,0-0.1  c-0.4-1,0.2-2.1,1.1-2.4c0.1,0,0.2-0.1,0.3-0.1c0.5-0.2,1.1-0.2,1.6-0.1l-0.3-1.1c-0.6,0-1.2,0.1-1.8,0.2c-1.7,0.4-2.7,2-2.3,3.7  c0,0.1,0,0.1,0.1,0.2c0.4,1.5,1.9,2.4,3.4,2.1c0.1,0,0.2-0.1,0.3-0.1C74.2,123.2,74.9,122.8,75.5,122.2L75.5,122.2z"></path>
<path class="st2" d="M82.7,119.5l-4.6-4.3l-0.8,0.4l0.4,6.3l1.1-0.5l-0.1-1.5l1.8-0.8l1.1,1.1L82.7,119.5L82.7,119.5z M79.7,118.3  l-1.2,0.5l-0.1-1.2c0-0.2,0-0.5-0.1-0.7l0,0c0.2,0.2,0.3,0.4,0.5,0.6L79.7,118.3L79.7,118.3z"></path>
<polygon class="st1" points="84.7,111.6 80.6,114.1 81.2,114.9 82.6,114 85.2,118.1 86.2,117.5 83.6,113.4 85,112.6 84.7,111.6 "></polygon>
<path class="st2" d="M92.9,112.5l-5.5-3.2l-0.7,0.6l1.8,6l0.9-0.7l-0.4-1.4l1.6-1.2l1.3,0.8L92.9,112.5L92.9,112.5z M89.7,112  l-1,0.8l-0.3-1.2c-0.1-0.2-0.2-0.5-0.3-0.7l0,0c0.2,0.2,0.4,0.3,0.6,0.4L89.7,112L89.7,112z"></path>
<path class="st1" d="M102.2,122.7c0,0.7,0.6,1.3,1.2,1.3c0,0,0,0,0,0c0.9-0.1,1.5-0.7,2.1-2s1.3-3,2.2-4.8s1.4-2.6,2.2-4  c-0.9,0.3-1.8,0.3-2.8,0.1c-1.1-0.2-2.1-0.8-2.8-1.6L102.2,122.7L102.2,122.7z M9.8,122.7l-2.2-11c-0.7,0.9-1.7,1.4-2.8,1.6  c-0.9,0.2-1.9,0.2-2.7-0.1c0.7,1.4,1.3,2.3,2.2,4s1.5,3.5,2.2,4.8s1.3,1.9,2.1,2C9.2,124,9.8,123.5,9.8,122.7  C9.8,122.8,9.8,122.8,9.8,122.7L9.8,122.7z M20.3,100c1.8,2.1,3.8,4,6,5.8c0.5,0.4,0.9,0.7,1.5,1.1c0.2-0.2,0.5-0.6,0.8-1  c0.8-1.1,1.5-2.2,2.1-3.4c1-1.8,1.6-3.8,2-5.8c-1.8-1.7-4.2-4.2-4.2-4.2s-1.8-2-3.6-4.2c0.4,2,0.1,4.1-0.6,6  C23.3,96.5,22,98.5,20.3,100L20.3,100z M15.9,113.2c-1.2-1-2.3-2.1-3.3-3.2c-1.3-1.3-2.5-2.7-3.6-4.2c-0.9,0.1-2,0.2-3.2,0.4  c-1.3,0.2-2.4,0.7-3.4,1.4c-1.6,1.3-1.8,2.6-1.3,3.8s2.1,1.4,3.6,1.1c1.2-0.2,2.3-1,2.8-2.2l0.6-1.2l1.3,6.8c1.4-0.1,2.7-0.3,4-0.7  c1.2-0.3,2.4-0.7,3.5-1.1L15.9,113.2L15.9,113.2z M103.1,105.8c-2.4,3-5,5.8-7.9,8.3c1.1,0.4,2.3,0.8,3.5,1.1c1.3,0.4,2.6,0.6,4,0.7  l1.3-6.8l0.6,1.2c0.5,1.2,1.6,2,2.8,2.2c1.4,0.3,3,0.1,3.6-1.1s0.3-2.5-1.3-3.8c-1-0.8-2.2-1.2-3.4-1.4  C105.1,106,104,105.9,103.1,105.8L103.1,105.8z M87.8,94.3c-0.8-1.9-1-4-0.6-6c-1.8,2.2-3.7,4.3-3.7,4.3s-2.3,2.4-4.1,4  c0.3,2.1,1,4.1,1.9,5.9c0.6,1.2,1.3,2.3,2.1,3.4c0.3,0.4,0.7,0.9,0.9,1.2c2.7-2,5.1-4.2,7.3-6.7C90,98.6,88.7,96.5,87.8,94.3  L87.8,94.3z M23,94.8c-0.9-1-2.2-1.5-3.5-1.3c-1.1,0-2.2,0.5-3,1.3c0.9,1.6,2,3.1,3.2,4.6C21.1,98,22.2,96.5,23,94.8L23,94.8z   M95.6,94.8c-0.8-0.9-1.8-1.4-3-1.4c-1.3-0.2-2.6,0.3-3.5,1.3c0.7,1.8,1.8,3.4,3.3,4.7C93.6,98,94.7,96.4,95.6,94.8L95.6,94.8z   M98.7,85c0.1,0.3,0.2,0.6,0.2,0.9c2.2,9.8-17.7,31.3-42.9,31.4c-25.9,0-46.4-23.2-42.6-32.4c-2.6,1.7-6.2,4.1-7.3,5  c-5.7,4.9,4.3,19.8,18.7,29c9.3,6,20.1,9,31.2,8.8c11,0.3,21.9-2.8,31.2-8.8c14.4-9.2,24.4-24,18.7-29  C104.8,89.1,101.3,86.7,98.7,85L98.7,85z M88.5,85.3c1.1-1.9,2.6-3.4,5-3.4c1.3-0.1,2.5,0.2,3.5,1c0.2,0.1,8.1,5.3,9.4,6.4  c3.7,3.2,1.9,9.3-2.8,15.7c0.8,0.1,1.7,0.2,2.6,0.3c1.4,0.2,2.7,0.7,3.8,1.6c1.8,1.5,2.2,3,1.4,5.1c-1.1,2.2-1.9,3.4-3,5.7  c-0.9,1.8-1.5,3.5-2.2,4.8s-1.5,2.3-2.8,2.4c-1.2,0.1-2.2-0.8-2.2-2c0-0.1,0-0.2,0-0.3l1.1-5.8c-1.4-0.1-2.7-0.3-4-0.7  c-1.4-0.3-2.7-0.8-4-1.3c-2.1,1.8-4.4,3.5-6.8,5c-9.4,6.1-20.5,9.2-31.7,8.9c-11.2,0.3-22.2-2.8-31.6-8.9c-2.4-1.5-4.6-3.2-6.8-5  c-1.3,0.6-2.6,1-4,1.4c-1.3,0.4-2.6,0.6-4,0.7l1.1,5.8c0.1,1.2-0.8,2.2-1.9,2.3c-0.1,0-0.2,0-0.3,0c-1.4-0.2-2.1-1.2-2.8-2.4  s-1.3-3-2.2-4.8c-1.2-2.3-2-3.5-3-5.7c-0.8-2-0.4-3.6,1.4-5.1c1.1-0.9,2.5-1.4,3.8-1.6c1-0.2,1.9-0.2,2.7-0.3  c-4.7-6.4-6.5-12.5-2.8-15.7c1.5-1.3,7.6-5.3,9.7-6.6c1-0.7,2.1-1,3.3-0.8c2.4,0.1,3.8,1.5,5,3.4c2,2.8,5.5,6.7,5.5,6.7  s2.6,2.7,4.3,4.3l0.1,0.4c-0.3,2.2-1,4.3-2.1,6.3c-0.6,1.2-1.4,2.4-2.2,3.5c-0.3,0.4-0.6,0.8-0.8,1.1c16.4,11.9,38.7,11.9,55.1,0  c-0.2-0.3-0.6-0.7-0.9-1.1c-0.8-1.1-1.5-2.3-2.2-3.5c-1-2-1.7-4.1-2.1-6.3l0.1-0.4c1.7-1.5,4.2-4.2,4.2-4.2s3.5-4,5.5-6.7L88.5,85.3  L88.5,85.3z"></path>
<path class="st3" d="M102,0.9v48.7c0,3.8-0.5,7.5-1.5,11.2c-2.6,9.6-7.1,18.5-13.3,26.2c-6,7.7-13.8,14-20.2,18.3  c-3.5,2.4-7.2,4.6-11,6.6c-4-2-7.9-4.3-11.5-6.8c-6.7-4.5-14.8-11.3-21-19.9C18.1,77.6,14.3,69,12.1,60c-1-3.9-1.6-7.9-1.9-11.9V0.9  H102z"></path>
<path class="st1" d="M20.9,11.7h70.4v37.4c0,0,0,13.2-10.5,28.7C71.7,91.1,56,99.5,56,99.5S38.7,89.2,30.1,75.6  c-9.6-15.3-9.2-28.7-9.2-28.7V11.7z"></path>
<path class="st2" d="M102,0.9H10.2v47.2c0.2,4,0.9,8,1.9,11.9c2.2,9,6,17.6,11.4,25.2c6.2,8.6,14.3,15.3,21,19.9  c3.7,2.5,7.5,4.8,11.5,6.8c3.8-2,7.4-4.2,11-6.6c6.3-4.3,14.2-10.6,20.2-18.3c6.2-7.7,10.7-16.7,13.3-26.2c1-3.6,1.5-7.4,1.5-11.2  V0.9z M102.8,0v49.5c0,0.1,0.8,17.7-15,38C75.6,103.2,56,112.9,56,112.9c-4.2-2.1-8.2-4.4-12-7.1c-6.7-4.6-15-11.3-21.2-20.1  C15,74.6,10.4,61.6,9.3,48.1V0H102.8z"></path>
<path class="st4" d="M31.7,82.1l1.3,2.3c-2.3-0.6-4.5-1.4-6.6-2.3L31.7,82.1z M80.6,82.1l-1.3,2.3c2.3-0.6,4.5-1.4,6.7-2.3  L80.6,82.1z M56,109.2c2.4-1,4.6-2.3,6.7-3.8c7.3-5.5-0.7-7.6-3.5-4.7c-2.4,2.5,0.2,3.5,2.3,2.8c0,0-1.5,1-2.9,1.8  c-0.9,0.5-1.9,1-2.6,1.4c-0.8-0.3-1.7-0.9-2.6-1.4c-1.4-0.8-2.9-1.8-2.9-1.8c2.1,0.7,4.7-0.3,2.3-2.8c-2.8-2.9-10.7-0.8-3.5,4.7  C51.4,106.9,53.7,108.2,56,109.2z M86.8,83.2c-5.6,3-9.4,2.7-13.3,5.8c-6,4.8,0,6.1,2.6,3.4c1.8-1.9-0.2-2.7-1.6-2  c2.7-1.8,4.4-2.2,7.3-3.2c0,0-4.4,6.7-10.8,10.2c1.2-1.3,1-3.7-1.7-2.3c-3.8,1.9-4.3,9,2.8,4C78.1,94.9,83,89.5,86.8,83.2z   M25.5,83.2c5.6,3,9.4,2.7,13.3,5.8c6,4.8,0,6.1-2.6,3.4c-1.8-1.9,0.2-2.7,1.5-2c-2.7-1.8-4.4-2.2-7.3-3.2c0,0,4.4,6.7,10.8,10.2  c-1.2-1.3-1-3.7,1.7-2.3c3.8,1.9,4.3,9-2.8,4C34.2,94.9,29.2,89.5,25.5,83.2L25.5,83.2z"></path>
<path class="st4" d="M14.8,55c0.3,1.6,0.7,3.1,1.2,4.6c-0.1-1.8,1.8-4,3.1-1.3c1.9,3.8-2.8,10-5,1.5c-0.4-1.6-0.8-3.2-1-4.8L14.8,55  z M19.5,55c-0.4,1.7-2,1.3-3.1,0H19.5z M92.9,55c0.4,1.7,2,1.3,3.1,0H92.9z M97.5,55c-0.3,1.6-0.7,3.1-1.2,4.6  c0.1-1.8-1.8-4-3.1-1.3c-1.9,3.8,2.8,10,5,1.5c0.4-1.6,0.8-3.2,1-4.8L97.5,55z M26.4,82.1c-2-0.9-3.8-2.3-5.1-4.1  c-4.5-6.3,0.2-6.1,2.6-3.4c1.8,2-0.2,2.8-1.5,2c1.7,1.9,3.9,3.4,6.3,4.3c-2.2-4.3-5-8.3-8.1-11.9c1.2,1.4,1,3.7-1.7,2.3  c-3.8-1.9-2.8-10.6,2.8-4c1.9,2.3,3.6,4.6,5,6.7c2.1,3.1,3.7,5.7,5.1,8L26.4,82.1z M85.9,82.1c2-0.9,3.8-2.3,5.1-4.1  c4.5-6.3-0.2-6.1-2.6-3.4c-1.8,2,0.2,2.8,1.6,2c-1.7,1.9-3.9,3.4-6.3,4.3c2.2-4.3,5-8.3,8.1-11.9c-1.2,1.4-1,3.7,1.7,2.3  c3.8-1.9,2.8-10.6-2.8-4c-1.9,2.3-3.6,4.6-5,6.7c-2.1,3.1-3.7,5.7-5.1,8L85.9,82.1z"></path>
<path class="st4" d="M13.1,55c-0.8-5.3-0.9-10.7-0.5-16c2.7,5.8,5.4,7.6,6.6,12.4c0.4,1.2,0.5,2.4,0.3,3.7h-3.1  c-0.6-0.7-1-1.6-1.1-2.5c-0.3-2.6,1.6-2.1,2.3-0.7c-0.8-2.4-2-4.7-3.5-6.8c-0.1,3.4,0.2,6.7,0.8,10L13.1,55z M96,55  c0.6-0.7,1-1.6,1.1-2.5c0.3-2.6-1.6-2.1-2.3-0.7c0.8-2.4,1.9-4.7,3.5-6.8c0.1,3.4-0.2,6.7-0.8,10h1.7c0.8-5.3,1-10.7,0.6-16  c-2.7,5.8-5.4,7.6-6.7,12.4c-0.4,1.2-0.5,2.4-0.3,3.6L96,55z M97.8,5.3c1,2.5,1.7,5,2.1,7.7c1.2,9-5.6,4.9-5.8,0.9  c-0.2-3.5,2.9-2.4,3.6-0.7c-0.1-1-0.3-2.1-0.6-3.1c-0.3-1-0.6-2-1.1-3c-1-0.4-2-0.8-3-1.1c-1-0.3-2.1-0.5-3.1-0.6  c1.7,0.7,2.8,3.8-0.7,3.6c-4-0.2-8.2-7,0.9-5.8C92.7,3.6,95.3,4.3,97.8,5.3L97.8,5.3z M93.4,46.2c2.9-4,5.7-8.5,6.6-13.4  c1.5-7.5-3.8-4.7-4.1-1c-0.2,2.6,1.9,2.1,2.4,0.6c-0.7,2.6-1.7,5.2-3.1,7.5v-9.3c0.1-1.9,0.4-3.9,1.1-5.7c-0.3,1.8,1.6,3.5,2.8,0.8  c1.7-3.9-2.4-9.7-4.7-1.4c-0.6,2-0.9,4.1-0.9,6.2L93.4,46.2L93.4,46.2z M51.9,9.6c4.5-3,9.7-5.7,15.2-6.7c8.6-1.5,5.3,3.9,1,4.2  c-3,0.2-2.3-1.9-0.6-2.4c-3,0.7-5.9,1.7-8.6,3.2h10.2c2.8,0,5.5-0.4,8.2-1.1c-2,0.3-3.9-1.6-0.8-2.8c4.4-1.7,10.9,2.4,1.4,4.7  c-2.9,0.7-5.8,1-8.7,1H51.9z M14.5,5.3c-1,2.5-1.7,5-2.1,7.6c-1.2,9,5.6,4.9,5.8,0.9c0.2-3.5-2.9-2.4-3.6-0.7c0.1-1,0.3-2.1,0.6-3.1  c0.3-1,0.6-2,1.1-3c1-0.4,2-0.8,3-1.1c1-0.3,2-0.5,3-0.6c-1.7,0.7-2.8,3.8,0.7,3.6c4-0.2,8.2-7-0.9-5.8C19.6,3.6,17,4.3,14.5,5.3  L14.5,5.3z M18.9,46.2c-2.9-4-5.7-8.5-6.6-13.4c-1.5-7.5,3.8-4.7,4.1-1c0.2,2.6-1.9,2.1-2.4,0.6c0.7,2.6,1.7,5.2,3.1,7.5v-9.3  c-0.1-1.9-0.4-3.9-1.1-5.7c0.3,1.8-1.6,3.5-2.8,0.8c-1.7-3.9,2.4-9.7,4.7-1.4c0.6,2,0.9,4.1,1,6.2V46.2z M60.2,2.8  c-4.5,3-9.7,5.7-15.2,6.7c-8.5,1.6-5.3-3.9-1-4.2c3-0.2,2.3,1.9,0.6,2.4c3-0.7,5.8-1.7,8.5-3.2H42.9c-2.8,0-5.5,0.4-8.2,1.1  c2-0.3,3.9,1.6,0.8,2.8c-4.4,1.7-10.9-2.4-1.4-4.8c2.9-0.7,5.8-1,8.7-1L60.2,2.8L60.2,2.8z"></path>
<path class="st0" d="M92.4,87.7c0.1,0.6,0.8,1,1.4,0.9c0.5-0.1,0.9-0.5,0.9-1c0-0.3-0.1-0.5-0.3-0.7c-0.2-0.2-0.4-0.3-0.7-0.4  c-1-0.2-2,0.2-2.4,1.1c-0.7,1.4-0.1,3.1,1.3,3.7c0.1,0,0.2,0.1,0.3,0.1c2.1,0.7,4.4-0.4,5.1-2.5c0.1-0.3,0.2-0.7,0.2-1  c0.4-1.8-0.4-3.6-2-4.5c-1.9-1-5.8-0.6-6.6,3l0.2,0.1c1.8-2.3,4-2.3,5.3-1.7c1.5,0.8,2,2.6,1.2,4.1C96,88.9,96,89,95.9,89.1  c-0.6,1-1.9,1.3-2.9,0.7c0,0-0.1,0-0.1-0.1C92.3,89.3,92.1,88.5,92.4,87.7L92.4,87.7z M19.7,87.7c-0.1,0.6-0.7,1-1.3,0.9  c-0.5-0.1-0.9-0.6-0.9-1.1c0-0.3,0.1-0.5,0.3-0.7c0.2-0.2,0.4-0.3,0.6-0.4c1-0.2,2,0.2,2.4,1.1c0.7,1.4,0.1,3.1-1.3,3.7  c-0.1,0-0.2,0.1-0.3,0.1c-2.1,0.7-4.4-0.4-5.1-2.5c-0.1-0.3-0.2-0.7-0.2-1c-0.4-1.8,0.4-3.6,2-4.5c1.9-1,5.9-0.6,6.6,3l-0.1,0.1  c-1.8-2.3-4-2.3-5.3-1.7c-1.5,0.8-2,2.6-1.2,4.1c0.1,0.1,0.1,0.2,0.2,0.3c0.6,1,1.9,1.3,2.9,0.7c0,0,0.1-0.1,0.1-0.1  C19.8,89.3,20,88.5,19.7,87.7L19.7,87.7z"></path>
<path class="st0" d="M61.4,90.6l-5.3-3.9l-5.3,3.9l2-6.3l-5.3-3.9h6.6l2-6.3l2,6.3h6.6l-5.3,3.9L61.4,90.6L61.4,90.6z M60.3,26.8  l-4.2-3.1l-4.2,3.1l1.6-5l-4.2-3.1h5.2l1.6-5l1.6,5h5.1l-4.2,3.1L60.3,26.8L60.3,26.8z M87.3,54.1L83.1,51l-4.2,3.1l1.6-5L76.3,46  h5.2l1.6-5l1.6,5H90l-4.2,3.1L87.3,54.1L87.3,54.1z M33.1,54.1L28.9,51l-4.2,3.1l1.6-5L22,46h5.2l1.6-5l1.6,5h5.2l-4.2,3.1  L33.1,54.1L33.1,54.1z"></path>
<path class="st5" d="M37.7,36.8H39V67h14.9c0.2,0,0.4,0,0.6-0.1c0.4-0.2,0.8-0.5,1.2-0.8c0.2-0.2,0.3-0.4,0.4-0.6  c0.1,0.2,0.3,0.4,0.4,0.6c0.3,0.4,0.7,0.6,1.2,0.8C57.8,67,58,67,58.2,67h15V36.8h1.3v31.1H59.1c0.1,1.2-1.1,1.1-3,1.1  s-3.2,0.1-3.1-1.1H37.7V36.8z"></path>
<path class="st1" d="M71,33.9c-0.2-0.1-0.5-0.3-0.7-0.5v28.7l2,2.9V34.7c-0.3-0.2-0.7-0.4-1.1-0.7L71,33.9L71,33.9z M56.5,60.4  c0.7-0.6,1.5-0.9,2.4-0.9c2.4-0.2,3.3,0.8,4.4,1.3c1.9,0.8,4,1.2,6.1,1V32.5c-2.1,0.1-4.1-0.2-6.1-0.9c-1.2-0.5-1.9-1.6-4.5-1.4  c-1,0-1.8,0.5-2.3,1.3V60.4z M55.6,60.4V31.5c-0.5-0.8-1.4-1.3-2.3-1.3c-2.5-0.2-3.3,0.9-4.5,1.4c-1.9,0.7-4,1-6.1,0.9v29.3  c2.1,0.2,4.2-0.2,6.1-1c1.1-0.6,2-1.5,4.4-1.3C54.1,59.5,54.9,59.8,55.6,60.4L55.6,60.4z M40.2,66.1H54c0.4-0.1,0.7-0.4,1-0.7  c0.3-0.3,0.5-0.6,0.6-0.9v-0.3v-2.5c-0.1-0.2-0.3-0.4-0.5-0.6c-0.5-0.4-1.2-0.7-1.8-0.8c-0.9-0.1-1.8,0-2.6,0.4  c-0.7,0.3-1.2,0.7-1.8,1c-1.4,0.6-3,0.9-4.6,1c-0.6,0-1.3,0-1.9-0.1L40.2,66.1L40.2,66.1z M41.2,33.9c-0.6,0.3-1.1,0.6-1.3,0.8V65  l2-2.9V33.4C41.7,33.6,41.5,33.8,41.2,33.9L41.2,33.9z M56.5,61.7v2.5c0,0.1,0,0.2,0,0.3c0.1,0.3,0.3,0.7,0.6,0.9  c0.3,0.3,0.6,0.5,1,0.7H72l-2.3-3.4c-0.6,0.1-1.3,0.1-1.9,0.1c-1.6-0.1-3.1-0.4-4.6-1c-0.6-0.3-1.1-0.7-1.8-1  c-0.8-0.4-1.7-0.5-2.6-0.4c-0.7,0-1.3,0.3-1.8,0.8C56.8,61.3,56.7,61.5,56.5,61.7L56.5,61.7z M44.3,31.7c1.5,0,2.9-0.3,4.3-0.9  c0.6-0.3,1.1-0.7,1.7-1c0.9-0.4,2-0.6,3-0.5c0.9,0.1,1.7,0.4,2.4,1c0.1,0.1,0.2,0.2,0.3,0.3c0.1-0.1,0.2-0.2,0.3-0.3  c0.7-0.6,1.5-0.9,2.4-1c1-0.1,2.1,0,3,0.5c0.7,0.3,1.1,0.7,1.7,1c1.4,0.6,2.9,0.9,4.5,0.9c0.8,0,1.6,0,2.4-0.1  c0.1,0.7,0.5,1.2,1.1,1.6c0.6,0.4,1.8,1.1,1.8,1.1V67H58.3c-0.2,0-0.4,0-0.6-0.1c-0.4-0.2-0.8-0.5-1.2-0.8c-0.2-0.2-0.3-0.3-0.4-0.5  c-0.1,0.2-0.3,0.4-0.4,0.5c-0.3,0.4-0.7,0.6-1.2,0.8c-0.1,0-0.2,0.1-0.4,0.1H39V34.2c0,0,1.2-0.7,1.8-1.1c0.6-0.3,1-0.9,1.1-1.6  C42.7,31.7,43.5,31.7,44.3,31.7L44.3,31.7z"></path>
<path class="st0" d="M40.2,66.1H54c0.4-0.1,0.7-0.4,1-0.7c0.3-0.3,0.5-0.6,0.6-0.9v-2.8c-0.1-0.2-0.3-0.4-0.5-0.6  c-0.5-0.4-1.2-0.7-1.8-0.8c-0.9-0.1-1.8,0-2.6,0.4c-0.7,0.3-1.2,0.7-1.8,1c-1.4,0.6-3,0.9-4.6,1c-0.6,0-1.3,0-1.9-0.1L40.2,66.1  L40.2,66.1z M72,66.1H58.2c-0.4-0.1-0.7-0.4-1-0.7c-0.3-0.3-0.5-0.6-0.6-0.9v-2.8c0.1-0.2,0.3-0.4,0.5-0.6c0.5-0.4,1.2-0.7,1.8-0.8  c0.9-0.1,1.8,0,2.6,0.4c0.7,0.3,1.2,0.7,1.8,1c1.4,0.6,3,0.9,4.6,1c0.6,0,1.3,0,1.9-0.1L72,66.1L72,66.1z M71,33.9  c0.6,0.3,1.1,0.6,1.3,0.8V65l-2-2.9V33.4C70.5,33.6,70.7,33.8,71,33.9L71,33.9z M41.2,33.9c-0.6,0.3-1.1,0.6-1.3,0.8V65l2-2.9V33.4  C41.7,33.6,41.5,33.8,41.2,33.9L41.2,33.9z"></path>
<path class="st6" d="M56.5,60.4V31.5c0.5-0.8,1.4-1.3,2.4-1.3c2.5-0.2,3.3,0.9,4.5,1.4c1.9,0.7,4,1,6.1,0.9v29.3  c-2.1,0.2-4.2-0.2-6.1-1c-1.1-0.6-2-1.5-4.4-1.3C58.1,59.5,57.2,59.8,56.5,60.4L56.5,60.4z M55.6,60.4V31.5  c-0.5-0.8-1.4-1.3-2.3-1.3c-2.5-0.2-3.3,0.9-4.5,1.4c-1.9,0.7-4,1-6.1,0.9v29.3c2.1,0.2,4.2-0.2,6.1-1c1.1-0.6,2-1.5,4.4-1.3  C54.1,59.5,54.9,59.8,55.6,60.4L55.6,60.4z"></path>
<path class="st2" d="M68.2,58.6c-1.2,0.2-2.3,0.1-3.4-0.3c-1.8-0.5-2.8-1.5-4.2-1.6c-1-0.1-1.9,0-2.9,0.3c0.8-0.6,1.7-0.9,2.6-1  c2,0,3.1,1,4.8,1.6C66.1,58,67.1,58.4,68.2,58.6L68.2,58.6z M68.2,55.8c-1.2,0.2-2.3,0.1-3.4-0.3C63,55,62,54,60.6,53.9  c-1-0.1-1.9,0-2.9,0.3c0.8-0.6,1.7-0.9,2.6-1c2,0,3.1,1,4.8,1.6C66.1,55.2,67.1,55.6,68.2,55.8L68.2,55.8z M68.2,52.9  c-1.2,0.2-2.3,0.1-3.4-0.3c-1.8-0.5-2.8-1.5-4.2-1.6c-1-0.1-1.9,0-2.9,0.3c0.8-0.6,1.7-0.9,2.6-1c2,0,3.1,1,4.8,1.6  C66.1,52.4,67.1,52.7,68.2,52.9L68.2,52.9z M68.2,50.1c-1.2,0.2-2.3,0.1-3.4-0.3c-1.8-0.5-2.8-1.5-4.2-1.6c-1-0.1-1.9,0-2.9,0.3  c0.8-0.6,1.7-0.9,2.6-1c2,0,3.1,1,4.8,1.6C66.1,49.5,67.1,49.9,68.2,50.1L68.2,50.1z M68.2,47.3c-1.2,0.2-2.3,0.1-3.4-0.3  c-1.8-0.5-2.8-1.5-4.2-1.6c-1-0.1-1.9,0-2.9,0.3c0.8-0.6,1.7-0.9,2.6-1c2,0,3.1,1,4.8,1.6C66.1,46.7,67.1,47.1,68.2,47.3L68.2,47.3z   M68.2,44.4c-1.2,0.2-2.3,0.1-3.4-0.3c-1.8-0.5-2.8-1.5-4.2-1.6c-1-0.1-1.9,0-2.9,0.3c0.8-0.6,1.7-0.9,2.6-1c2,0,3.1,1,4.8,1.6  C66.1,43.9,67.1,44.2,68.2,44.4L68.2,44.4z M68.2,41.6c-1.2,0.2-2.3,0.1-3.4-0.3c-1.8-0.5-2.8-1.5-4.2-1.6c-1-0.1-1.9,0-2.9,0.3  c0.8-0.6,1.7-0.9,2.6-1c2,0,3.1,1,4.8,1.6C66.1,41.1,67.1,41.4,68.2,41.6L68.2,41.6z M68.2,38.8c-1.2,0.2-2.3,0.1-3.4-0.3  C63,38,62,37,60.6,36.9c-1-0.1-1.9,0-2.9,0.3c0.8-0.6,1.7-0.9,2.6-1c2,0,3.1,1,4.8,1.6C66.1,38.2,67.1,38.6,68.2,38.8L68.2,38.8z   M68.2,36c-1.2,0.2-2.3,0.1-3.4-0.3c-1.8-0.5-2.8-1.5-4.2-1.6c-1-0.1-1.9,0-2.9,0.3c0.8-0.6,1.7-0.9,2.6-1c2,0,3.1,1,4.8,1.6  C66.1,35.4,67.1,35.7,68.2,36L68.2,36z M43.9,58.6c1.2,0.2,2.3,0.1,3.5-0.3c1.8-0.5,2.8-1.5,4.2-1.6c1-0.1,1.9,0,2.9,0.3  c-0.8-0.6-1.7-0.9-2.6-1c-2,0-3.1,1-4.8,1.6C46,58,45,58.4,43.9,58.6z M43.9,55.8c1.2,0.2,2.3,0.1,3.5-0.3c1.8-0.5,2.8-1.5,4.2-1.6  c1-0.1,1.9,0,2.9,0.3c-0.8-0.6-1.7-0.9-2.6-1c-2,0-3.1,1-4.8,1.6C46,55.2,45,55.6,43.9,55.8L43.9,55.8z M43.9,52.9  c1.2,0.2,2.3,0.1,3.5-0.3c1.8-0.5,2.8-1.5,4.2-1.6c1-0.1,1.9,0,2.9,0.3c-0.8-0.6-1.7-0.9-2.6-1c-2,0-3.1,1-4.8,1.6  C46,52.4,45,52.7,43.9,52.9L43.9,52.9z M43.9,50.1c1.2,0.2,2.3,0.1,3.5-0.3c1.8-0.5,2.8-1.5,4.2-1.6c1-0.1,1.9,0,2.9,0.3  c-0.8-0.6-1.7-0.9-2.6-1c-2,0-3.1,1-4.8,1.6C46,49.5,45,49.9,43.9,50.1L43.9,50.1z M43.9,47.3c1.2,0.2,2.3,0.1,3.5-0.3  c1.8-0.5,2.8-1.5,4.2-1.6c1-0.1,1.9,0,2.9,0.3c-0.7-0.6-1.6-1-2.6-1.1c-2,0-3.1,1-4.8,1.6C46.1,46.6,45,47,43.9,47.3L43.9,47.3z   M43.9,44.4c1.2,0.2,2.3,0.1,3.5-0.3c1.8-0.5,2.8-1.5,4.2-1.6c1-0.1,1.9,0,2.9,0.3c-0.8-0.6-1.7-0.9-2.6-1c-2,0-3.1,1-4.8,1.6  C46,43.9,45,44.2,43.9,44.4L43.9,44.4z M43.9,41.6c1.2,0.2,2.3,0.1,3.5-0.3c1.8-0.5,2.8-1.5,4.2-1.6c1-0.1,1.9,0,2.9,0.3  c-0.8-0.6-1.7-0.9-2.6-1c-2,0-3.1,1-4.8,1.6C46,41,45,41.4,43.9,41.6z M43.9,38.8c1.2,0.2,2.3,0.1,3.5-0.3c1.8-0.5,2.8-1.5,4.2-1.6  c1-0.1,1.9,0,2.9,0.3c-0.8-0.6-1.7-0.9-2.6-1c-2,0-3.1,1-4.8,1.6C46,38.2,45,38.5,43.9,38.8L43.9,38.8z M43.9,35.9  c1.2,0.2,2.3,0.1,3.5-0.3c1.8-0.5,2.8-1.5,4.2-1.6c1-0.1,1.9,0,2.9,0.3c-0.8-0.6-1.7-0.9-2.6-1c-2,0-3.1,1-4.8,1.6  C46,35.4,45,35.7,43.9,35.9L43.9,35.9z"></path>
<path class="st7" d="M147,12c0-0.2-0.1-0.3-0.3-0.3h-0.5h-0.7c-0.2,0-0.7,0-1.6,0h-3.6h-3.1h-1.4h-1.4c-0.3,0-0.3,0-0.4,0.1  c-0.1,0.2-0.1,0.5-0.1,0.7l-0.2,2c0,0.1,0,0.3,0,0.4l0,0c0,0.1,0.2,0.2,0.5,0.2c0.1,0,0.2,0,0.2-0.2c0.1-0.8,0.6-1.5,1.3-1.9  c0.5-0.3,1.2-0.3,3.2-0.3h0.3v11c0,1.3-0.1,1.6-0.4,1.8c-0.5,0.2-1,0.3-1.5,0.3c-0.4,0-0.5,0.1-0.5,0.3v0.1c0,0.2,0.1,0.3,0.3,0.3  h0.3c0.2,0,0.6,0,1.1,0c0.8,0,1.5,0,2,0h2.3c0.4,0,0.7,0,0.8,0h0.3c0.3,0,0.4,0,0.4-0.3v-0.2c0-0.2-0.1-0.2-0.6-0.2  c-0.5,0-1-0.1-1.5-0.3c-0.4-0.2-0.5-0.5-0.5-1.8v-11h0.9c0.7,0,1.5,0,1.9,0.1c0.3,0,0.6,0.1,0.9,0.3c0.4,0.3,0.7,0.8,0.8,1.7  c0,0.3,0.1,0.4,0.4,0.4s0.4,0,0.4-0.3v-0.4v-0.5l0.1-1.5v-0.3L147,12L147,12z"></path>
<path class="st7" d="M168.7,26.4L168.7,26.4c0-0.4-0.1-0.4-0.5-0.5h-0.5l0,0c-1-0.1-1.1-0.4-1.1-2v-9.4c0-1.6,0.1-1.9,1-2l0,0  l0.5-0.1c0.4,0,0.5-0.1,0.5-0.4v-0.1c0-0.2-0.1-0.3-0.3-0.3h-0.2h-0.9h-0.7c-0.6,0-1.1,0-1.3,0h-0.2c-0.5,0-1,0-1.4,0h-0.8h-0.2  c-0.3,0-0.3,0.1-0.3,0.3v0.1c0,0.3,0.1,0.4,0.5,0.4c0.2,0,0.3,0,0.5,0.1l0,0c0.9,0.1,1,0.4,1,2v3.7h-7.5v-3.7c0-1.6,0.1-1.9,1-2l0,0  l0.5-0.1c0.4,0,0.5-0.1,0.5-0.4v-0.1c0-0.2-0.1-0.3-0.3-0.3s-0.5,0-1,0c-0.9,0-1.5,0-2,0s-0.8,0-1.3,0h-0.5h-0.8h-0.2  c-0.3,0-0.3,0.1-0.3,0.3v0.1c0,0.3,0.1,0.4,0.5,0.4c0.2,0,0.3,0,0.5,0.1l0,0c0.9,0.1,1,0.4,1,2v9.3c0,0.5,0,1.1-0.2,1.6  c-0.1,0.2-0.3,0.3-0.9,0.5l0,0c-0.2,0-0.3,0.1-0.5,0.1c-0.4,0-0.5,0-0.5,0.4v0.1c0,0.2,0.1,0.3,0.3,0.3h0.6h0.5c0.7,0,1.4,0,1.9,0  s1.7,0,2.6,0h0.4c0.2,0,0.3,0,0.3-0.3v-0.1c0-0.3-0.1-0.3-0.5-0.3l-0.6-0.1l0,0c-1.1-0.1-1.2-0.3-1.2-2v-4.5h7.5v4.5  c0,1.7-0.1,1.8-1.1,2l0,0c-0.2,0-0.4,0.1-0.5,0.1c-0.4,0-0.4,0.1-0.4,0.3v0.1c0,0.3,0.1,0.3,0.3,0.3h0.7h0.6c0.6,0,1.2,0,1.8,0  s1,0,1.4,0h0.9h0.7C168.6,26.7,168.6,26.7,168.7,26.4L168.7,26.4z"></path>
<path class="st7" d="M186,23.1c0-0.2-0.2-0.3-0.5-0.3c-0.1,0-0.2,0.1-0.3,0.3c-0.5,1.2-0.9,1.6-1.7,1.9c-0.9,0.4-1.9,0.5-2.9,0.5  c-1.7,0-2-0.2-2-1.3v-4.8h0.5h1.1c2,0,2.4,0.1,2.6,0.4c0.2,0.4,0.3,0.9,0.3,1.4c0,0.2,0.1,0.2,0.2,0.2c0.4,0,0.5,0,0.5-0.3  c0-0.1,0-0.2,0-0.4c0-0.6,0-1.3,0-2c0-0.5,0-1,0-1.5v-0.6c0-0.2-0.1-0.3-0.4-0.3s-0.3,0.1-0.3,0.4c-0.1,1.2-0.4,1.5-1.6,1.5h-1.1  h-1.3h-0.5v-5.5h0.6h1.1c1-0.1,2,0.1,2.9,0.4c0.6,0.4,1,0.9,1.1,1.6l0.1,0.3c0,0.1,0.1,0.1,0.1,0.1c0.4,0,0.5-0.1,0.5-0.3  c0-0.1,0-0.2,0-0.3c0-0.3-0.1-0.8-0.2-1.7c0-0.3,0-0.4,0-0.6c0-0.5-0.1-0.6-0.6-0.6c-0.1,0-0.2,0-0.4,0h-1.6h-2.3h-3.6  c-0.8,0-1.3,0-1.5,0h-0.4c-0.2,0-0.2,0.1-0.2,0.3v0.2c0,0.2,0.1,0.3,0.3,0.3h0.4h0.4c0.2,0,0.4,0.1,0.5,0.2c0.3,0.2,0.4,0.6,0.4,1.8  v9.8c0,0.8,0,0.9-0.2,1.1c0,0.1-0.1,0.2-0.2,0.2c-0.4,0.2-0.9,0.3-1.4,0.3c-0.2,0-0.3,0.1-0.3,0.3v0.2c0,0.2,0.1,0.2,0.3,0.2h0.7  h1.3c1.2,0,2,0,2.6,0h0.5h2.7h1.3c0.5,0,0.9,0,1,0h0.4c0.3,0,0.4-0.1,0.4-0.5c0-0.1,0-0.3,0-0.5l0.2-1.1c0.1-0.5,0.2-0.9,0.3-1.4  c0-0.1,0-0.2,0-0.3L186,23.1z"></path>
<path class="st7" d="M219.1,12.2V12c0-0.2-0.1-0.3-0.3-0.3s-0.5,0-1.1,0c-0.9,0-1.5,0-1.9,0h-1.3h-0.9h-0.2l0,0  c-0.2,0-0.2,0-0.3,0.2v0.1c0,0,0,0,0,0.1c0,0.3,0.1,0.3,0.7,0.4c0.9,0,1.3,0.2,1.5,0.5c0.1,0.6,0.2,1.1,0.2,1.7l0.1,5.2v0.5  c0,1.9-0.1,2.7-0.6,3.5c-0.8,1.2-2.2,1.9-3.7,1.8c-1.7,0-3.2-0.7-3.7-1.7c-0.4-0.8-0.5-1.6-0.5-3.7v-5.7c0,0,0-0.2,0-0.5  s0-0.4,0-0.5c0-0.3,0.1-0.5,0.3-0.7c0.6-0.3,1.2-0.4,1.8-0.4c0.2,0,0.3-0.1,0.3-0.3V12c0-0.1-0.1-0.2-0.3-0.2l0,0H209h-1.4H206h-2  h-0.7H203c-0.2,0-0.2,0.1-0.2,0.3c0,0.4,0,0.5,0.3,0.5h0.4c0.7,0,1.1,0.3,1.2,0.7c0.1,0.4,0.1,0.9,0.1,1.3V22c0,1,0.2,1.9,0.6,2.8  c0.3,0.6,0.9,1.1,1.5,1.5c1.2,0.6,2.5,0.9,3.8,0.8c2.7,0,4.7-0.9,5.5-2.5c0.6-1.2,0.7-1.7,0.8-4.6v-5.3c0-1.3,0.1-1.8,0.4-2  c0.4-0.2,0.9-0.3,1.4-0.3C219,12.5,219,12.4,219.1,12.2L219.1,12.2z"></path>
<path class="st7" d="M240.7,12c0-0.2-0.1-0.3-0.3-0.3h-0.3h-0.7h-1.6h-1.7h-0.8h-0.3c-0.3,0-0.3,0.1-0.3,0.4c0,0.3,0.1,0.4,0.4,0.4  c0.4,0,0.7,0.1,1.1,0.1c0.3,0,0.7,0.2,0.9,0.5c0.2,0.5,0.2,1,0.2,1.5l0.2,8.4l-8.7-11.2h-0.4h-1.9h-1.2h-0.3l0,0  c-0.3,0-0.3,0.1-0.3,0.5c0,0.2,0.1,0.3,0.4,0.3c0.7,0,1.4,0.3,1.9,0.8l-0.4,9.9v0.9c0,0.9-0.1,1.3-0.4,1.5c-0.2,0.2-0.5,0.3-0.8,0.3  l-0.4,0.1c-0.5,0.1-0.5,0.1-0.5,0.5s0.1,0.3,0.3,0.3h0.3h0.8h1.4c0.4,0,0.9,0,1.6,0h1c0.5,0,0.5,0,0.5-0.3s0-0.4-0.3-0.4  c-0.4,0-0.8-0.1-1.1-0.2c-0.4,0-0.7-0.3-0.8-0.6c-0.1-0.5-0.1-1-0.1-1.5v-0.4l0.1-8.7l9.3,12c0.1,0.2,0.2,0.3,0.4,0.4  c0.1,0.1,0.3,0.1,0.4,0.1c0.2,0,0.3,0,0.5-0.1c0-0.1,0.1-0.1,0.1-0.5V14.8c0-1.2,0.1-1.7,0.4-1.9c0.4-0.2,0.8-0.3,1.3-0.3  C240.7,12.6,240.7,12.5,240.7,12L240.7,12z"></path>
<path class="st7" d="M253,26.4v-0.2c0-0.1-0.1-0.2-0.3-0.2l-0.5-0.1c-1.1-0.1-1.3-0.3-1.3-1.3v-0.7v-9.3c0,0,0-0.3,0-0.8  c0-0.1,0-0.3,0-0.5c0-0.2,0.1-0.4,0.3-0.6c0.4-0.2,0.9-0.3,1.4-0.3c0.3,0,0.3-0.1,0.3-0.3V12c0-0.2,0-0.3-0.3-0.3h-0.4h-1h-1.5h-1.9  h-1c-0.1,0-0.1,0-0.2,0c-0.2,0-0.3,0-0.3,0.2v0.1v0.1c0,0.3,0,0.3,0.3,0.4c0.5,0,1,0.1,1.4,0.3c0.3,0.2,0.4,0.5,0.4,1.8v9.3  c0,1.1-0.1,1.6-0.4,1.8c-0.4,0.2-0.9,0.3-1.4,0.3c-0.2,0-0.3,0.1-0.3,0.4v0.1c0,0.2,0.1,0.3,0.3,0.3h0.3h0.7c0.7,0,1.2,0,1.4,0h1  c0.3,0,0.8,0,1.4,0c0.3,0,0.6,0,0.7,0h0.4C252.8,26.7,252.9,26.7,253,26.4L253,26.4z"></path>
<path class="st7" d="M274.5,12.2c0-0.4,0-0.4-0.3-0.4h-0.2c-0.5,0-1.2,0-1.7,0h-1.8c-0.4,0-0.7,0-0.9,0h-0.2c-0.2,0-0.3,0.1-0.3,0.4  s0.1,0.3,0.3,0.4h0.4c0.7,0.1,0.8,0.1,1,0.2c0.1,0.1,0.2,0.3,0.2,0.4c0,0.3-0.1,0.5-0.2,0.8l-0.3,0.8l-0.3,0.7l-3.1,8.5l-3.6-9  l-0.3-0.8c-0.1-0.3-0.2-0.6-0.3-0.9c0-0.4,0.3-0.5,1.4-0.6h0.3c0.2,0,0.3-0.1,0.3-0.3s0-0.4-0.3-0.4h-0.3h-0.7c-1,0-1.7,0-1.9,0  h-1.8c-0.4,0-0.7,0-1.1,0h-0.4c-0.2,0-0.3,0.1-0.3,0.4c0,0.3,0,0.3,0.4,0.4c0.4,0,0.9,0.1,1.3,0.4c0.3,0.2,0.3,0.3,1,1.8l0.5,1  l4.6,10.9l0.1,0.3c0.1,0.2,0.1,0.2,0.4,0.2h0.3h0.1c0.1,0,0.2,0,0.2-0.2l0.1-0.2l4.5-11.2c0.2-0.5,0.3-0.7,0.3-0.8  c0.2-0.4,0.4-0.8,0.6-1.3c0.1-0.2,0.2-0.4,0.4-0.6c0.3-0.3,0.6-0.4,1-0.4c0.4,0,0.4-0.1,0.5-0.1C274.5,12.4,274.4,12.3,274.5,12.2  L274.5,12.2z"></path>
<path class="st7" d="M291.4,23.1c0-0.2-0.2-0.3-0.5-0.3c-0.1,0-0.2,0.1-0.3,0.3c-0.5,1.2-0.9,1.6-1.7,1.9c-0.9,0.4-1.9,0.5-2.9,0.5  c-1.7,0-2-0.2-2-1.3v-4.8h0.5h1.1c2,0,2.4,0.1,2.6,0.4c0.2,0.4,0.3,0.9,0.3,1.4c0,0.2,0.1,0.2,0.2,0.2c0.4,0,0.5,0,0.5-0.3  c0-0.1,0-0.2,0-0.4c0-0.6,0-1.3,0-2c0-0.5,0-1,0-1.5v-0.6c0-0.2-0.1-0.3-0.4-0.3s-0.3,0.1-0.3,0.4c-0.1,1.2-0.4,1.5-1.6,1.5h-1.1  h-1.3h-0.5v-5.5h0.6h1.1c1-0.1,2,0.1,2.9,0.4c0.6,0.4,1,0.9,1.1,1.6l0.1,0.3c0,0.1,0.1,0.1,0.1,0.1c0.4,0,0.5-0.1,0.5-0.3  c0-0.1,0-0.2,0-0.3c0-0.3-0.1-0.8-0.2-1.7c0-0.3,0-0.4,0-0.6c0-0.5-0.1-0.6-0.6-0.6c-0.1,0-0.2,0-0.4,0h-1.6h-2.3h-3.6  c-0.8,0-1.3,0-1.5,0h-0.4c-0.2,0-0.2,0.1-0.2,0.3v0.2c0,0.2,0.1,0.3,0.3,0.3h0.4h0.5c0.2,0,0.4,0.1,0.5,0.2c0.3,0.2,0.4,0.6,0.4,1.8  v9.8c0,0.8,0,0.9-0.2,1.1c0,0.1-0.1,0.2-0.2,0.2c-0.4,0.2-0.9,0.3-1.4,0.3c-0.2,0-0.3,0.1-0.3,0.3v0.2c0,0.2,0.1,0.2,0.3,0.2h0.7  h1.3c1.2,0,2,0,2.6,0h0.5h2.7h1.3c0.5,0,0.9,0,1,0h0.4c0.3,0,0.4-0.1,0.5-0.5c0-0.1,0-0.3,0-0.5l0.2-1.1c0.1-0.5,0.2-0.9,0.3-1.4  c0-0.1,0-0.2,0-0.3L291.4,23.1z"></path>
<path class="st8" d="M311.4,26.4c0-0.3-0.1-0.3-0.4-0.3c-1-0.1-1.9-0.6-2.5-1.5c-0.8-1.1-1.6-2.3-2.2-3.5c-0.4-0.8-0.9-1.6-1.4-2.3  c1.7-0.4,3-2,3-3.8c0-1.2-0.6-2.3-1.6-2.9c-1.2-0.6-2.6-0.9-4-0.8c-1.6,0-3.3,0.1-4.9,0.4c-0.3,0-0.4,0-0.5,0.1  c-0.1,0.1-0.1,0.2-0.1,0.3c0,0.3,0.1,0.4,0.3,0.4h0.5c0.7,0,1.1,0.2,1.2,0.5c0.2,0.3,0.1,0.4,0.2,1.1v0.7v9.1v0.5c0,0.3,0,0.5,0,0.6  c0,0.2-0.1,0.3-0.1,0.5c0,0.1-0.1,0.2-0.2,0.2c-0.3,0.2-0.7,0.3-1,0.3h-0.4c-0.2,0-0.3,0.1-0.3,0.3s0,0.4,0.3,0.4l0,0h0.5h0.9h1.8  h1.8h0.7h0.4c0.2,0,0.2,0,0.3-0.2v-0.2c0-0.2-0.1-0.3-0.3-0.3h-0.5c-0.5,0-0.9-0.1-1.3-0.5c-0.1-0.3-0.2-0.7-0.1-1  c0-0.3,0-0.5,0-0.5v-4.4h0.7c0.8,0,1.1,0.3,2.1,2.3c0.6,1.5,1.5,2.9,2.7,4.1c0.7,0.6,1.6,1,2.6,0.9c0.6,0,1.3-0.1,1.9-0.3  c0.1,0,0.1-0.1,0.1-0.3L311.4,26.4z M305.4,15.4c0,2-1.4,3.2-3.7,3.2h-0.4v-6.1h0.1c0.1,0,0.2,0,0.4,0  C304.1,12.5,305.4,13.5,305.4,15.4L305.4,15.4z"></path>
<path class="st7" d="M326.7,22.6c0-1-0.4-2-1.1-2.8c-0.8-0.8-1.7-1.4-2.7-1.8c-1-0.4-2-1-2.8-1.8c-0.4-0.4-0.6-0.9-0.6-1.4  c0-1.3,1.1-2.2,2.7-2.2c1.5-0.1,2.8,1,3.1,2.4c0.1,0.2,0.2,0.3,0.3,0.3c0.3,0,0.5-0.1,0.5-0.3v-0.2v-0.1l-0.2-1.8c0-0.1,0-0.1,0-0.2  c0-0.4-0.1-0.5-0.3-0.7c-1-0.5-2.1-0.7-3.2-0.7c-3,0-4.9,1.6-4.9,4c0,1.2,0.6,2.3,1.5,3c0.7,0.5,1.4,1,2.2,1.4c1,0.4,2,1.1,2.8,1.8  c0.4,0.4,0.6,1,0.6,1.6c-0.1,1.6-1.4,2.8-2.9,2.7c0,0-0.1,0-0.1,0c-1.6,0-3-1-3.6-2.5l-0.2-0.5c0-0.1-0.1-0.2-0.2-0.2  c-0.3,0-0.6,0.1-0.6,0.3c0,0.1,0,0.1,0,0.2v0.3l0.4,2.1c0,0.1,0,0.2,0,0.2c0.1,0.5,0.1,0.6,0.4,0.7c1.1,0.4,2.2,0.7,3.3,0.6  C324.5,27.1,326.7,25.3,326.7,22.6L326.7,22.6z"></path>
<path class="st7" d="M339.2,26.4v-0.2c0-0.1-0.1-0.2-0.3-0.2l-0.5-0.1c-1-0.1-1.3-0.3-1.3-1.3v-0.7v-9.3c0,0,0-0.3,0-0.8  c0-0.1,0-0.3,0-0.5c0-0.2,0.1-0.4,0.3-0.6c0.4-0.2,0.9-0.3,1.4-0.3c0.3,0,0.3-0.1,0.3-0.3V12c0-0.2,0-0.3-0.3-0.3h-0.4h-1h-1.5h-1.9  h-1c-0.1,0-0.1,0-0.2,0c-0.2,0-0.3,0-0.3,0.2v0.1v0.1c0,0.3,0,0.3,0.3,0.4c0.5,0,1,0.1,1.4,0.3c0.3,0.2,0.4,0.5,0.4,1.8v9.3  c0,1.1-0.1,1.6-0.4,1.8c-0.4,0.2-0.9,0.3-1.4,0.3c-0.2,0-0.3,0.1-0.3,0.4v0.1c0,0.2,0.1,0.3,0.3,0.3h0.3h0.7c0.7,0,1.2,0,1.4,0h1  c0.3,0,0.8,0,1.5,0c0.3,0,0.6,0,0.7,0h0.4C339.1,26.7,339.2,26.7,339.2,26.4L339.2,26.4z"></path>
<path class="st7" d="M357.7,12c0-0.2-0.1-0.3-0.3-0.3H357h-0.7c-0.2,0-0.7,0-1.6,0H351h-3.1h-1.4h-1.4c-0.3,0-0.3,0-0.4,0.1  c-0.1,0.2-0.1,0.5-0.1,0.7l-0.2,2c0,0.1,0,0.3,0,0.4l0,0c0,0.1,0.2,0.2,0.5,0.2c0.1,0,0.2,0,0.2-0.2c0.1-0.8,0.6-1.5,1.3-1.9  c0.5-0.3,1.2-0.3,3.2-0.3h0.3v11c0,1.3-0.1,1.6-0.4,1.8c-0.5,0.2-1,0.3-1.5,0.3c-0.4,0-0.5,0.1-0.5,0.3v0.1c0,0.2,0.1,0.3,0.3,0.3  h0.3c0.2,0,0.6,0,1.1,0c0.8,0,1.5,0,2,0h2.3c0.4,0,0.7,0,0.8,0h0.3c0.3,0,0.4,0,0.4-0.3v-0.2c0-0.2-0.1-0.2-0.6-0.2  c-0.5,0-1-0.1-1.5-0.3c-0.4-0.2-0.5-0.5-0.5-1.8v-11h0.9c0.7,0,1.5,0,1.9,0.1c0.3,0,0.6,0.1,0.9,0.3c0.5,0.3,0.7,0.8,0.8,1.7  c0,0.3,0.1,0.4,0.4,0.4s0.4,0,0.4-0.3v-0.4v-0.5l0.1-1.5v-0.3V12H357.7z"></path>
<path class="st7" d="M377.9,12.1c0-0.3,0-0.4-0.3-0.4l0,0h-0.3h-0.7h-1.5c-0.4,0-0.6,0-1.5,0h-0.8c-0.1,0-0.2,0-0.3,0l0,0  c-0.2,0-0.3,0.1-0.3,0.3c0,0.2,0,0.3,0.1,0.4s0.1,0,0.2,0h0.5c0.7,0,1.1,0.3,1.1,0.6c-0.1,0.5-0.4,1-0.6,1.5l-2.6,4.5l-2.8-4.6  c-0.3-0.4-0.5-0.8-0.6-1.2c0-0.4,0.4-0.5,1.1-0.6h0.5c0.3,0,0.3-0.1,0.3-0.4c0-0.3,0-0.4-0.3-0.4h-0.5h-2.9c-0.8,0-1.4,0-1.9,0  c-0.3,0-0.5,0-0.6,0h-0.4l0,0c-0.2,0-0.3,0.1-0.3,0.4c0,0.3,0,0.3,0.2,0.3h0.4c0.9,0.1,1.2,0.3,1.8,1.4c0.1,0.1,0.2,0.3,0.3,0.5  l3.8,5.9v3.6c0,1.3,0,1.6-0.4,1.8c-0.5,0.2-1,0.3-1.6,0.3c-0.4,0-0.5,0.1-0.5,0.3v0.1c0,0.3,0,0.3,0.3,0.3l0,0h0.4h1.1h1.8h2.1h1  h0.5l0,0c0.2,0,0.3,0,0.3-0.3v-0.2c0-0.3,0-0.3-0.6-0.3c-1.3-0.1-1.8-0.2-1.9-0.5c-0.1-0.3-0.2-0.7-0.1-1c0-0.3,0-0.5,0-0.6v-3.6  l3.8-5.9c0.8-1.2,1-1.5,1.3-1.6c0.3-0.2,0.6-0.3,0.9-0.3C377.9,12.5,377.9,12.4,377.9,12.1L377.9,12.1z"></path>
<path class="st8" d="M410.3,18.6c0.1-3.9-3-7.1-6.9-7.2c-0.2,0-0.3,0-0.5,0c-4.4-0.1-8.1,3.4-8.2,7.8c0,0.2,0,0.3,0,0.5  c-0.2,3.9,2.9,7.3,6.8,7.5c0.2,0,0.4,0,0.6,0c4.6,0,7.9-3.3,8.1-8.2C410.3,18.8,410.3,18.7,410.3,18.6L410.3,18.6z M407.9,19.6  c0,3.7-2.1,6.3-5.3,6.3s-5.5-3-5.5-7.1c0-3.8,2.1-6.3,5.2-6.3S407.9,15.6,407.9,19.6z"></path>
<path class="st7" d="M426.9,15L426.9,15c0-0.1,0-0.2,0-0.3l-0.2-2.1v-0.4c0-0.3-0.1-0.4-0.3-0.4c-0.1,0-0.2,0-0.3,0h-2.8h-2.5  c-0.9,0-1.6,0-2.5,0c-0.6,0-1,0-1.2,0c-0.2,0-0.4,0-0.5,0l0,0c-0.2,0-0.3,0.1-0.3,0.3c0,0.2,0,0.3,0.1,0.4s0.1,0,0.5,0.1  c1.3,0,1.5,0.3,1.5,2.1V24c0,0.5,0,1.1-0.2,1.6c-0.1,0.3-0.6,0.5-1.3,0.5c-0.5,0-0.5,0-0.5,0.4s0,0.3,0.3,0.3h0.2h0.8h1.9h2.1h1.5  h0.4c0.2,0,0.2,0,0.2-0.3v-0.2c0-0.2-0.1-0.3-0.5-0.3c-0.8,0-1.5-0.1-2.2-0.4c-0.3-0.2-0.4-0.5-0.4-1.2v-4.9h1.1h1.2h1  c0.2,0,0.4,0.1,0.6,0.2c0.1,0,0.2,0.1,0.3,0.2c0.2,0.3,0.3,0.7,0.3,1c0,0.6,0.1,0.6,0.3,0.6c0.4,0,0.5,0,0.5-0.3l0,0  c0-0.1,0-0.3,0-0.5c0-0.5,0-0.9,0-1.2v-0.4c0-0.8,0-1.6,0-2c0-0.1,0-0.2,0-0.3c0-0.2-0.1-0.3-0.4-0.3s-0.3,0.1-0.4,0.3  c-0.1,0.8-0.3,1.2-0.6,1.4s-0.9,0.3-3,0.3h-0.9v-5.5h0.4h0.7c1.1-0.1,2.1,0,3.1,0.3c0.5,0.3,0.9,0.7,1,1.3l0.2,0.5  c0.1,0.2,0.1,0.2,0.3,0.2C426.7,15.2,426.9,15.1,426.9,15L426.9,15z"></path>
<path class="st8" d="M342.5,111.9c0,3.1-2.7,6.8-6.6,6.8c-2.1,0-3.8-1.7-3.8-3.8c0-0.1,0-0.2,0-0.3c0-3.1,2.7-6.9,6.6-6.9  c2.1,0,3.8,1.7,3.8,3.8C342.5,111.7,342.5,111.8,342.5,111.9L342.5,111.9z M334.2,115.5c0,1.7,0.7,2.5,1.8,2.5c1.6,0,4.6-3.6,4.6-7  c0-1.7-0.7-2.5-1.8-2.5C337.1,108.5,334.2,112.2,334.2,115.5z"></path>
<path class="st7" d="M175.7,107.2c-0.2,0.5-5.3,8-5.3,8c-0.6,0.8-1.9,3-2.2,3.5l-1.3,0.1c0.1-5.1,0.8-13.2,0.8-14.8s-0.2-1.8-2-1.8  v-0.8c0.8,0,2.2,0.1,3.6,0.1c1,0,1.9,0,2.9-0.1v0.8c-1.8,0.1-2.2,0.5-2.3,2.1l-0.6,9.9c0,0.3,0,0.5-0.1,0.7l0.6-0.9l1.7-2.4  c1.3-1.9,2.9-4.2,4.1-5.8l0.2-2.5c0-0.6-0.4-1.1-1.5-1.1v-0.8c0.4,0,1.6,0.1,3,0.1s2,0,2.8-0.1v0.8c-1.6,0.1-2,0.3-2.1,2.6l-0.4,6.8  c-0.1,1.5-0.3,3.4-0.3,3.7c0.1,0.2,7.7-10.7,7.7-12.3c0-0.6-0.4-0.9-1.3-0.8v-0.8c0.5,0,1.4,0.1,2.3,0.1c1.1,0,1.9,0,2.4-0.1v0.8  c-1.2,0.1-1.6,0.4-2.5,2c-3,5.1-6.3,9.9-9.8,14.6h-1.2L175.7,107.2L175.7,107.2z"></path>
<path class="st8" d="M190.2,112.1c0,0.1,0,0.1,0,0.2V112.1z M190.4,111.6c-0.1,0.2-0.2,0.4-0.2,0.6l-0.1,0.1l0.1-0.1l0.4-0.5  c0.3-0.4,0.8-1,1.2-1.5c1-1.1,2.2-2.3,3.4-2.3c1,0,1.6,0.7,1.6,2c-0.1,1.4-0.5,2.7-1.1,4c-0.3,0.7-0.5,1.3-0.7,1.8  c-0.1,0.3-0.2,0.6-0.3,0.9c0,0.1,0,0.2,0.3,0.2c0.4-0.1,0.7-0.4,0.9-0.7c0.4-0.4,0.8-0.8,0.9-0.9l0.6,0.5c-1.1,1.3-2.7,3.1-4.3,3.1  c-0.4,0.1-0.8-0.2-0.9-0.6c0-0.1,0-0.2,0-0.2c0.1-0.5,0.2-1,0.4-1.5c0.3-0.6,0.6-1.4,0.9-2.1c0.6-1.2,1.1-2.5,1.3-3.8  c0-0.5-0.1-0.7-0.6-0.7c-1.6,0-5,4.2-6.2,8.3c-0.1,0.4-0.4,0.4-1,0.4s-0.9-0.1-0.9-0.4c0.4-1.3,0.8-2.6,1.4-3.8  c0.8-1.9,1.6-4.2,2.2-5.8c0.5-1.4,1-2.8,1.4-3.9c0.3-0.7,0.5-1.5,0.7-2.3c0-0.2-0.1-0.4-0.6-0.4s-0.9-0.2-0.9-0.5  c0-0.1,0.1-0.2,0.2-0.3c0.1,0,0.2-0.1,0.4-0.1h2.8c0.3,0,0.5,0.1,0.5,0.4s-1,3.3-2.6,7.2C191,109.9,190.6,110.9,190.4,111.6  L190.4,111.6z"></path>
<path class="st8" d="M205,114.6l-0.2,0.3c-0.1,0.2-0.3,0.4-0.5,0.8c-1.7,2.4-2.9,3.1-4.1,3.1c-0.9,0-1.7-0.7-1.7-2.2  c0-2.1,2.4-8.6,7.3-8.6c0.3,0,0.6,0,0.9,0.1l0.3,0.1h0.3c0.1,0,0.1,0,0.2-0.1c0.1-0.1,0.1-0.1,0.1-0.2l0.1-0.1l0.1-0.1  c0.1-0.1,0.2-0.1,0.3-0.1c0.2,0,0.4,0.1,0.6,0.2c0.2,0.1,0.5,0.3,0.5,0.6c-0.1,0.5-0.3,1-0.5,1.4c-0.3,0.7-0.6,1.7-1,2.7  c-0.6,1.4-1.1,2.9-1.5,4.3c0,0.1,0,0.2,0.1,0.3c0,0,0,0,0.1,0c0.2,0,0.3-0.1,0.5-0.3c0.2-0.2,0.4-0.4,0.6-0.7  c0.2-0.3,0.4-0.5,0.6-0.7c0.1-0.1,0.2-0.2,0.3-0.2c0.1-0.1,0.2-0.1,0.3-0.1c0.3,0,0.4,0.1,0.4,0.3s-2.1,3.4-3.9,3.4  c-0.6,0-0.9-0.4-0.9-1.1c0.1-0.6,0.2-1.3,0.5-1.9c0.1-0.3,0.3-0.6,0.3-0.8l0.1-0.3C205,114.6,205,114.6,205,114.6L205,114.6z   M206.5,110c0.1-0.6-0.4-1.2-1-1.3c-0.1,0-0.1,0-0.2,0c-2.3,0-4.8,4.4-4.8,7.3c0,0.8,0.3,0.9,0.6,0.9  C203.2,117,206.5,111.3,206.5,110L206.5,110z"></path>
<path class="st7" d="M211.1,118.6c-0.3,0-0.4-0.2-0.4-0.4c0.1-0.4,0.2-0.9,0.4-1.3c0.2-0.7,0.6-1.5,0.9-2.4c0.6-1.4,1-2.9,1.3-4.4  c0-0.4-0.1-0.5-0.3-0.5s-0.4,0.2-0.8,0.6s-0.6,0.7-0.8,1l-0.2,0.3l-0.1,0.1c0,0-0.1,0.1-0.1,0.1c-0.2,0-0.3-0.1-0.3-0.3  c0-0.5,2.4-3.4,3.6-3.4c0.4-0.1,0.8,0.2,0.9,0.7c0,0.1,0,0.2,0,0.2c-0.1,0.7-0.2,1.5-0.4,2.2l-0.3,1.2c-0.1,0.4-0.1,0.6-0.1,0.6  c0.1-0.1,0.2-0.2,0.2-0.3c0.4-0.6,1-1.8,1.7-2.8s1.5-1.9,2.2-1.9s0.9,0.6,0.9,1.3c0,0.9-0.3,1.4-0.8,1.4c-0.4,0-0.7-0.2-0.8-0.6  l-0.1-0.2c0,0,0-0.1-0.1-0.1c0-0.1-0.1-0.1-0.2-0.1c-0.4,0-1.6,1.5-4.1,6.9l-0.7,1.6c0,0.1-0.1,0.2-0.2,0.3  c-0.1,0.1-0.2,0.1-0.3,0.1L211.1,118.6z"></path>
<path class="st8" d="M222.4,117.3c0.7-0.1,1.4-0.3,2-0.8c0.3-0.2,0.6-0.4,0.8-0.5l0.3-0.2c0.1-0.1,0.2-0.1,0.2-0.1  c0.2,0,0.3,0.1,0.3,0.3c-1.1,1.5-2.7,2.5-4.6,2.8c-1.5,0.1-2.8-1.1-2.9-2.7c0-0.1,0-0.2,0-0.3c0-3.9,4.4-8,7.4-8  c1.1-0.1,2.1,0.7,2.2,1.8c0,0,0,0,0,0c0,2.2-3.5,2.9-5.1,2.9c-0.6,0-0.8,0-1.1,0c-0.7,0.9-1,2-1.1,3.1c-0.1,0.9,0.5,1.6,1.4,1.7  C222.2,117.3,222.3,117.3,222.4,117.3L222.4,117.3z M225.5,108.6c-1.2,0-2.7,2.2-3.2,3c2.4-0.1,4-0.8,4-2.1  C226.3,109,226,108.6,225.5,108.6C225.5,108.6,225.5,108.6,225.5,108.6L225.5,108.6z"></path>
<path class="st7" d="M247.4,107.2c-0.2,0.5-5.3,8-5.3,8c-0.6,0.8-1.9,3-2.2,3.5l-1.3,0.1c0.1-5.1,0.8-13.2,0.8-14.8s-0.2-1.8-2-1.8  v-0.8c0.8,0,2.2,0.1,3.6,0.1c1,0,1.9,0,2.9-0.1v0.8c-1.8,0.1-2.2,0.5-2.3,2.1l-0.6,9.9c0,0.3,0,0.5-0.1,0.7l0.6-0.9l1.7-2.4  c1.3-1.9,2.9-4.2,4.1-5.8l0.2-2.5c0-0.6-0.4-1.1-1.5-1.1v-0.8c0.4,0,1.6,0.1,3,0.1s2,0,2.8-0.1v0.8c-1.6,0.1-2,0.3-2.1,2.6l-0.4,6.8  c-0.1,1.5-0.3,3.4-0.3,3.7c0.1,0.2,7.7-10.7,7.7-12.3c0-0.6-0.5-0.9-1.3-0.8v-0.8c0.5,0,1.4,0.1,2.3,0.1c1.1,0,1.9,0,2.4-0.1v0.8  c-1.2,0.1-1.6,0.4-2.5,2c-3,5.1-6.3,9.9-9.8,14.6h-1.2L247.4,107.2L247.4,107.2z"></path>
<path class="st8" d="M260.6,114.6l-0.2,0.3c-0.1,0.2-0.3,0.4-0.5,0.8c-1.7,2.4-2.9,3.1-4.1,3.1c-0.9,0-1.7-0.7-1.7-2.2  c0-2.1,2.4-8.6,7.3-8.6c0.3,0,0.6,0,0.9,0.1l0.3,0.1h0.3c0.1,0,0.1,0,0.1-0.1c0.1-0.1,0.1-0.1,0.1-0.2l0.1-0.1l0.1-0.1  c0.1-0.1,0.2-0.1,0.3-0.1c0.2,0,0.4,0.1,0.6,0.2c0.2,0.1,0.5,0.3,0.5,0.6c-0.1,0.5-0.3,1-0.5,1.4c-0.3,0.7-0.6,1.7-1,2.7  c-0.6,1.4-1.1,2.9-1.5,4.3c0,0.1,0,0.2,0,0.3c0,0,0,0,0.1,0c0.2,0,0.3-0.1,0.5-0.3c0.2-0.2,0.4-0.4,0.6-0.7c0.2-0.3,0.4-0.5,0.6-0.7  l0.3-0.2c0.1-0.1,0.2-0.1,0.3-0.1c0.3,0,0.4,0.1,0.4,0.3s-2.1,3.4-3.9,3.4c-0.6,0-0.9-0.4-0.9-1.1c0.1-0.6,0.2-1.3,0.5-1.9  c0.1-0.3,0.3-0.6,0.3-0.8l0.1-0.3C260.6,114.6,260.6,114.6,260.6,114.6L260.6,114.6z M262,110c0.1-0.6-0.4-1.2-1-1.3  c-0.1,0-0.1,0-0.2,0c-2.3,0-4.8,4.4-4.8,7.3c0,0.8,0.3,0.9,0.6,0.9C258.7,117,262,111.3,262,110L262,110z"></path>
<path class="st7" d="M270,111.6c0.1-0.1,0.2-0.2,0.3-0.3c0.1-0.2,0.4-0.5,0.7-0.8c0.3-0.4,0.6-0.8,1-1.2c0.7-0.8,1.7-1.3,2.8-1.5  c1,0,1.8,0.8,1.8,1.8c0,0,0,0.1,0,0.1c-0.2,1.4-0.6,2.8-1.3,4c-0.3,0.7-0.6,1.4-0.9,1.9c-0.2,0.3-0.3,0.7-0.4,1  c0,0.2,0.1,0.2,0.1,0.2c0.8-0.3,1.5-0.9,2.1-1.5l0.5,0.4c-1.5,1.7-3.6,3-4.7,3c-0.4,0-0.7-0.2-0.8-0.6c0,0,0-0.1,0-0.1  c0.1-0.4,0.3-0.9,0.5-1.3c0.3-0.7,0.7-1.5,1.1-2.4c0.7-1.4,1.3-2.8,1.6-4.3c0-0.6-0.4-0.8-0.7-0.8c-1.6,0-4.5,3.8-5.8,7.4l-0.4,1.1  c-0.1,0.2-0.2,0.4-0.3,0.6l-0.1,0.1h-0.7c-0.2,0-0.4,0-0.6,0c-0.1,0-0.2-0.1-0.2-0.2c0.1-0.5,0.2-1,0.4-1.5c0.3-0.7,0.6-1.6,1-2.5  c0.6-1.4,1.1-2.9,1.4-4.4c0-0.1,0-0.2,0-0.2c-0.3,0-0.8,0.4-1.4,0.9l-0.7,0.7l-0.3,0.2c-0.1,0.1-0.2,0.1-0.2,0.1  c-0.2,0-0.3-0.2-0.3-0.3c0,0,0,0,0,0c0-0.5,3.3-3.4,4.4-3.4c0.4-0.1,0.8,0.3,0.9,0.7c0,0,0,0.1,0,0.1c-0.1,0.6-0.2,1.2-0.5,1.8  l-0.3,0.8l-0.1,0.3L270,111.6L270,111.6z"></path>
<path class="st8" d="M284.8,114.6l-0.2,0.3c-0.1,0.2-0.3,0.4-0.5,0.8c-1.7,2.4-2.9,3.1-4,3.1c-0.9,0-1.7-0.7-1.7-2.2  c0-2.1,2.4-8.6,7.3-8.6c0.3,0,0.6,0,0.9,0.1l0.3,0.1h0.3c0.1,0,0.1,0,0.1-0.1c0.1-0.1,0.1-0.1,0.1-0.2l0.1-0.1l0.1-0.1  c0.1-0.1,0.2-0.1,0.3-0.1c0.2,0,0.4,0.1,0.6,0.2c0.2,0.1,0.5,0.3,0.5,0.6c-0.1,0.5-0.3,1-0.5,1.4c-0.3,0.7-0.6,1.7-1,2.7  c-0.6,1.4-1.1,2.9-1.5,4.3c0,0.1,0,0.2,0,0.3c0,0,0,0,0.1,0c0.2,0,0.3-0.1,0.5-0.3c0.2-0.2,0.4-0.4,0.6-0.7c0.2-0.3,0.4-0.5,0.6-0.7  l0.3-0.2c0.1-0.1,0.2-0.1,0.3-0.1c0.3,0,0.4,0.1,0.4,0.3s-2.1,3.4-3.9,3.4c-0.6,0-0.9-0.4-0.9-1.1c0.1-0.6,0.2-1.3,0.5-1.9  c0.1-0.3,0.3-0.6,0.3-0.8l0.1-0.3C284.8,114.6,284.8,114.6,284.8,114.6L284.8,114.6z M286.2,110c0.1-0.6-0.4-1.2-1-1.3  c-0.1,0-0.1,0-0.2,0c-2.3,0-4.8,4.4-4.8,7.3c0,0.8,0.3,0.9,0.6,0.9C282.9,117,286.2,111.3,286.2,110L286.2,110z"></path>
<path class="st7" d="M294.7,111.6c0.1-0.1,0.2-0.2,0.3-0.3c0.1-0.2,0.4-0.5,0.7-0.8c0.3-0.4,0.6-0.8,1-1.2c0.7-0.8,1.7-1.3,2.8-1.5  c1,0,1.8,0.8,1.8,1.8c0,0,0,0.1,0,0.1c-0.2,1.4-0.6,2.8-1.3,4c-0.3,0.7-0.6,1.4-0.9,1.9c-0.2,0.3-0.3,0.7-0.4,1  c0,0.2,0.1,0.2,0.1,0.2c0.8-0.3,1.5-0.9,2.1-1.5l0.5,0.4c-1.5,1.7-3.6,3-4.7,3c-0.4,0-0.7-0.2-0.8-0.6c0,0,0-0.1,0-0.1  c0.1-0.4,0.3-0.9,0.5-1.3c0.3-0.7,0.7-1.5,1.1-2.4c0.7-1.4,1.3-2.8,1.6-4.3c0-0.6-0.4-0.8-0.7-0.8c-1.6,0-4.5,3.8-5.8,7.4l-0.4,1.1  c-0.1,0.2-0.2,0.4-0.3,0.6l-0.1,0.1h-0.7c-0.2,0-0.4,0-0.6,0c-0.1,0-0.2-0.1-0.2-0.2c0.1-0.5,0.2-1,0.4-1.5c0.3-0.7,0.6-1.6,1-2.5  c0.6-1.4,1.1-2.9,1.4-4.4c0-0.1,0-0.2,0-0.2c-0.3,0-0.8,0.4-1.4,0.9l-0.7,0.7l-0.3,0.2c-0.1,0.1-0.2,0.1-0.2,0.1s-0.3-0.2-0.3-0.4  c0-0.5,3.3-3.4,4.4-3.4c0.4-0.1,0.8,0.3,0.9,0.7c0,0,0,0.1,0,0.1c-0.1,0.6-0.2,1.2-0.5,1.8l-0.3,0.8l-0.1,0.3L294.7,111.6  L294.7,111.6z"></path>
<path class="st8" d="M306.2,115.7c-0.2-0.1-0.3-0.1-0.5-0.2l-0.3-0.2c-0.7,0.4-0.8,0.6-0.8,0.8s0.3,0.6,1,1s1.5,0.8,2.3,1.2  c1.6,0.8,3.4,1.8,3.4,3c0,1.7-1.9,3.5-6.2,3.5c-2.8,0-4.5-1.4-4.5-2.8c0-1.2,1-2.2,4-3.2l-0.3-0.2c-0.2-0.2-0.5-0.3-0.7-0.5  c-0.5-0.4-0.8-0.9-0.8-1.5c0-0.5,0.3-1,0.7-1.2c0.4-0.3,0.8-0.4,1.3-0.7c-0.6-0.7-0.9-1.5-0.9-2.4c0.1-2.5,2.1-4.5,4.5-4.5  c0.7,0,1.5,0.2,2.1,0.6l0.3,0.2l0.2,0.2l0.1,0.1l0.3-0.1l0.5-0.2c0.4-0.2,0.8-0.3,1.3-0.4c0.5,0,1,0.3,1,0.8c0,0.1,0,0.1,0,0.2  c0,0.4-0.4,0.8-0.8,0.8c0,0-0.1,0-0.1,0c-0.3,0-0.6-0.1-0.9-0.1l-0.4-0.1h-0.2c-0.1,0.4,0.1,0.6,0.1,1.8c0,2.4-2,4.3-4.4,4.3  C307.1,116,306.7,115.9,306.2,115.7L306.2,115.7z M306.1,123.9c2.3,0,3.5-0.9,3.5-1.7c0-0.7-0.6-1.2-1.5-1.6  c-0.4-0.2-0.9-0.4-1.3-0.6c-0.4-0.2-0.8-0.4-1.2-0.6c-1.9,0.8-2.8,1.4-2.8,2.5S304.2,123.9,306.1,123.9L306.1,123.9z M307.4,115  c2,0,3-2.8,3-4.2c0-1.1-0.6-2-1.6-2c-1.9,0-3.1,2.2-3.1,4.3C305.7,114.2,306.3,115,307.4,115L307.4,115z"></path>
<path class="st8" d="M319.9,114.6l-0.2,0.3c-0.1,0.2-0.3,0.4-0.5,0.8c-1.7,2.4-2.9,3.1-4,3.1c-0.9,0-1.7-0.7-1.7-2.2  c0-2.1,2.4-8.6,7.3-8.6c0.3,0,0.6,0,0.9,0.1l0.3,0.1h0.3c0.1,0,0.1,0,0.1-0.1c0.1-0.1,0.1-0.1,0.1-0.2l0.1-0.1l0.1-0.1  c0.1-0.1,0.2-0.1,0.3-0.1c0.2,0,0.4,0.1,0.6,0.2c0.2,0.1,0.5,0.3,0.5,0.6c-0.1,0.5-0.3,1-0.5,1.4c-0.3,0.7-0.6,1.7-1,2.7  c-0.6,1.4-1.1,2.9-1.5,4.3c0,0.1,0,0.2,0,0.3c0,0,0,0,0.1,0c0.2,0,0.3-0.1,0.5-0.3c0.2-0.2,0.4-0.4,0.6-0.7c0.2-0.3,0.4-0.5,0.6-0.7  c0.1-0.1,0.2-0.2,0.3-0.2c0.1-0.1,0.2-0.1,0.3-0.1c0.3,0,0.4,0.1,0.4,0.3s-2.1,3.4-3.9,3.4c-0.6,0-0.9-0.4-0.9-1.1  c0.1-0.6,0.2-1.3,0.5-1.9c0.1-0.3,0.3-0.6,0.3-0.8l0.1-0.3C319.9,114.7,319.9,114.6,319.9,114.6L319.9,114.6z M321.3,110  c0.1-0.6-0.4-1.2-1-1.3c-0.1,0-0.1,0-0.2,0c-2.3,0-4.8,4.4-4.8,7.3c0,0.8,0.3,0.9,0.6,0.9C318,117,321.3,111.3,321.3,110L321.3,110z  "></path>
<path class="st7" d="M360.1,107.2c-0.2,0.5-5.3,8-5.3,8c-0.6,0.8-2,3-2.2,3.5l-1.3,0.1c0.1-5.1,0.8-13.2,0.8-14.8s-0.2-1.8-2-1.8  v-0.8c0.8,0,2.2,0.1,3.6,0.1c1,0,2,0,2.9-0.1v0.8c-1.8,0.1-2.2,0.5-2.3,2.1l-0.6,9.9c0,0.3,0,0.5,0,0.7l0.6-0.9l1.7-2.4  c1.3-1.9,2.9-4.2,4.1-5.8l0.2-2.5c0-0.6-0.4-1.1-1.5-1.1v-0.8c0.4,0,1.6,0.1,3,0.1s2,0,2.8-0.1v0.8c-1.6,0.1-2,0.3-2.1,2.6l-0.4,6.8  c-0.1,1.5-0.3,3.4-0.3,3.7c0.1,0.2,7.7-10.7,7.7-12.3c0-0.6-0.5-0.9-1.3-0.8v-0.8c0.5,0,1.4,0.1,2.3,0.1c1.1,0,1.9,0,2.4-0.1v0.8  c-1.2,0.1-1.6,0.4-2.5,2c-3,5.1-6.3,9.9-9.8,14.6h-1.3L360.1,107.2L360.1,107.2z"></path>
<path class="st8" d="M373.4,114.6l-0.2,0.3c-0.1,0.2-0.3,0.4-0.5,0.8c-1.7,2.4-2.9,3.1-4,3.1c-0.9,0-1.7-0.7-1.7-2.2  c0-2.1,2.4-8.6,7.3-8.6c0.3,0,0.6,0,0.9,0.1l0.3,0.1h0.3c0.1,0,0.1,0,0.2-0.1c0.1-0.1,0.1-0.1,0.1-0.2l0.1-0.1l0.1-0.1  c0.1-0.1,0.2-0.1,0.3-0.1c0.2,0,0.4,0.1,0.6,0.2c0.2,0.1,0.5,0.3,0.5,0.6c-0.1,0.5-0.3,1-0.5,1.4c-0.3,0.7-0.6,1.7-1,2.7  c-0.6,1.4-1.1,2.9-1.5,4.3c0,0.2,0,0.3,0,0.3s0,0,0.1,0c0.2,0,0.4-0.1,0.5-0.3c0.2-0.2,0.4-0.4,0.6-0.7c0.2-0.3,0.4-0.5,0.6-0.7  c0.1-0.1,0.2-0.2,0.3-0.2c0.1-0.1,0.2-0.1,0.3-0.1c0.3,0,0.4,0.1,0.4,0.3s-2.1,3.4-3.9,3.4c-0.6,0-0.9-0.4-0.9-1.1  c0.1-0.6,0.2-1.3,0.5-1.9c0.1-0.3,0.3-0.6,0.3-0.8l0.1-0.3C373.4,114.6,373.4,114.6,373.4,114.6L373.4,114.6z M374.8,110  c0.1-0.6-0.3-1.2-1-1.3c-0.1,0-0.1,0-0.2,0c-2.3,0-4.8,4.4-4.8,7.3c0,0.8,0.3,0.9,0.6,0.9C371.5,117,374.8,111.3,374.8,110  L374.8,110z"></path>
<path class="st8" d="M378.9,110.9l0.2-0.2c0.7-0.8,2.4-2.7,3.7-2.7c0.4,0,0.8,0.3,0.8,0.8c0,0,0,0,0,0.1c-0.2,1.6-0.7,3.2-1.4,4.6  c-0.4,0.8-0.7,1.7-1,2.3c-0.2,0.4-0.3,0.8-0.4,1.3c0,0.2,0,0.2,0.2,0.2c0.4-0.1,0.8-0.3,1.1-0.7c0.4-0.3,0.7-0.6,1.1-1l0.1-0.1  l0.5,0.4l-0.1,0.1c-0.3,0.3-0.5,0.5-0.8,0.8c-0.3,0.3-0.6,0.6-0.9,0.9c-0.7,0.6-1.5,1-2.4,1c-0.7,0-0.9-0.3-0.9-0.7  c0.3-1.5,0.7-2.9,1.4-4.2c0.4-0.8,0.7-1.6,1-2.3c0.2-0.5,0.4-0.9,0.4-1.4c0-0.2-0.1-0.3-0.2-0.3c-0.4,0.1-0.7,0.3-0.9,0.6  c-0.4,0.3-0.7,0.7-0.9,0.8l-0.1,0.1L378.9,110.9L378.9,110.9z M384,101.3c0.7,0,1.2,0.5,1.2,1.2s-0.5,1.2-1.2,1.2  c-0.7,0-1.2-0.5-1.2-1.2C382.8,101.9,383.3,101.3,384,101.3z"></path>
<path class="st8" d="M389.6,109.7c0.1-0.1,0.3-0.2,0.4-0.3c0.3-0.2,0.6-0.5,1-0.8c0.8-0.7,1.9-1.1,2.9-1.1c1.1,0,2,0.8,2.1,1.9  c0,0,0,0,0,0c0,2-2.8,3.3-4.2,3.9c0.3,2,0.7,4,1.2,5.9c0.7,2.6,1.6,4.9,2.7,4.9c0.4,0,0.4-0.2,0.4-0.3c0-0.1-0.1-0.2-0.1-0.3  l-0.1-0.1h0.1h0.1h0.2c0.2,0,0.5,0.2,0.5,0.6s-0.5,1-1.3,1c-2.3,0-4.8-4.7-5.6-10.9l-1,0.3l-1,0.3l-0.8,2.3  c-0.1,0.5-0.3,0.9-0.5,1.4c-0.1,0.2-0.3,0.3-0.5,0.3h-1c-0.4,0-0.5-0.2-0.5-0.4s0.8-2.6,2.8-8.3c1-2.9,1.7-4.8,2.1-5.9  c0.2-0.6,0.4-1.2,0.5-1.8c0-0.1,0-0.2-0.3-0.3c-0.4-0.1-0.9-0.1-1.4-0.1h-0.1v-0.8h3.8c0.2,0,0.4,0,0.4,0.3c-0.1,0.5-0.2,1-0.4,1.4  l-2.2,5.9l-0.3,0.7L389.6,109.7c-0.1,0.2,0,0.2,0,0.2l0,0L389.6,109.7z M388.4,113.6c2-0.6,5.9-2.2,5.9-4c0-0.5-0.3-0.8-0.9-0.8  c-1,0-3.5,1.8-4.2,2.4L388.4,113.6z"></path>
<path class="st8" d="M402.8,114.6l-0.2,0.3c-0.1,0.2-0.3,0.4-0.5,0.8c-1.7,2.4-2.9,3.1-4,3.1c-0.9,0-1.7-0.7-1.7-2.2  c0-2.1,2.4-8.6,7.3-8.6c0.3,0,0.6,0,0.9,0.1l0.3,0.1h0.3c0.1,0,0.1,0,0.1-0.1c0.1-0.1,0.1-0.1,0.1-0.2l0.1-0.1l0.1-0.1  c0.1-0.1,0.2-0.1,0.3-0.1c0.2,0,0.4,0.1,0.6,0.2c0.2,0.1,0.5,0.3,0.5,0.6c-0.1,0.5-0.3,1-0.5,1.4c-0.3,0.7-0.6,1.7-1,2.7  c-0.6,1.4-1.1,2.9-1.5,4.3c0,0.1,0,0.2,0,0.3c0,0,0,0,0.1,0c0.2,0,0.4-0.1,0.5-0.3c0.2-0.2,0.4-0.4,0.6-0.7c0.2-0.3,0.4-0.5,0.6-0.7  c0.1-0.1,0.2-0.2,0.3-0.2c0.1-0.1,0.2-0.1,0.3-0.1c0.3,0,0.4,0.1,0.4,0.3s-2.1,3.4-3.9,3.4c-0.6,0-0.9-0.4-0.9-1.1  c0.1-0.6,0.2-1.3,0.5-1.9c0.1-0.3,0.3-0.6,0.3-0.8l0.1-0.3C402.8,114.6,402.8,114.6,402.8,114.6L402.8,114.6z M404.2,110  c0.1-0.6-0.4-1.2-1-1.3c-0.1,0-0.1,0-0.2,0c-2.3,0-4.8,4.4-4.8,7.3c0,0.8,0.3,0.9,0.6,0.9C400.9,117,404.2,111.3,404.2,110  L404.2,110z"></path>
<path class="st7" d="M413.9,108h1c0.3,0,0.4,0.3,0.4,0.8s-0.2,0.8-0.5,0.8h-1.3c-0.2,0-0.4,0.1-0.5,0.4l-2.1,5.6l-0.2,0.6  c-0.1,0.2-0.1,0.3-0.1,0.5c0,0.1,0.1,0.2,0.4,0.2c0.6-0.2,1.1-0.6,1.6-1l0.9-0.7l0.3-0.2l0.1-0.1h0.1c0.2,0,0.3,0.1,0.3,0.3  c0,0,0,0,0,0c0,0.3-0.5,0.7-1.9,1.9c-0.9,0.9-2.1,1.5-3.3,1.7c-0.5,0.1-0.9-0.2-1-0.7c0,0,0-0.1,0-0.1c0.1-0.7,0.3-1.4,0.6-2  l2.2-5.9l0.1-0.3c0-0.1,0-0.1,0-0.2c0,0,0-0.1-0.3-0.1h-1.1c-0.2,0-0.4-0.1-0.4-0.3c0-0.1,0-0.1,0-0.2c0,0,0-0.1,0.1-0.1l0.3-1h1.7  c0.1,0,0.2,0,0.3-0.2l0.8-1.8c0-0.1,0.1-0.2,0.2-0.2c0.2-0.1,0.4-0.1,0.6-0.1l0.4-0.1h0.3c0.2,0,0.3,0.1,0.3,0.3c0,0,0,0.1,0,0.1  l0,0.2l-0.1,0.4l-0.5,1.3L413.9,108L413.9,108L413.9,108z"></path>
<path class="st8" d="M426.4,111.9c0,3.1-2.7,6.8-6.6,6.8c-2.1,0-3.8-1.7-3.8-3.8c0-0.1,0-0.2,0-0.3c0-3.1,2.7-6.9,6.6-6.9  c2.1,0,3.8,1.7,3.8,3.8C426.4,111.7,426.4,111.8,426.4,111.9L426.4,111.9z M418,115.5c0,1.7,0.7,2.5,1.8,2.5c1.6,0,4.6-3.6,4.6-7  c0-1.7-0.7-2.5-1.8-2.5C421,108.5,418,112.2,418,115.5z"></path>
<path class="st7" d="M134.8,104.9l0.1-0.2c0.3-0.6,0.6-1.6,1-2.4c0.2-0.4,0.4-0.7,0.6-1.1c0.2-0.3,0.4-0.5,0.6-0.5  c0.2,0,0.4,0.1,0.5,0.2c0.1,0.1,0.3,0.2,0.4,0.3c0.6,0.3,1.3,0.5,2,0.4h7.4c1,0.1,2-0.1,2.9-0.6c0.2-0.2,0.4-0.2,0.6-0.3  c0.3,0,0.4,0.2,0.4,0.5s-0.3,2.1-0.6,4c-0.1,0.5-0.2,0.6-0.6,0.6s-0.6-0.1-0.6-0.6c0-2-0.8-2.6-3-2.6c-1,0-1.3,0.2-1.7,1.8l-2.4,9.3  c-0.3,1.1-0.6,2.3-0.7,3.4c0,0.5,0.6,0.7,2.2,0.7v0.8c-1.7,0-2.7-0.1-4.1-0.1c-1,0-1.9,0-3.5,0.1v-0.8c2.1-0.2,2.5-0.3,3-2l2.9-10.7  c0.2-0.6,0.3-1.3,0.3-1.9c0-0.4,0-0.6-1.9-0.6s-2.9,0.3-4.8,2.4L134.8,104.9L134.8,104.9z"></path>
<path class="st8" d="M150.7,117.3c0.7-0.1,1.4-0.3,2-0.8c0.3-0.2,0.6-0.4,0.8-0.5l0.3-0.2c0.1-0.1,0.2-0.1,0.2-0.1  c0.2,0,0.3,0.1,0.3,0.3c-1.1,1.5-2.7,2.5-4.6,2.8c-1.5,0.1-2.8-1.1-2.9-2.7c0-0.1,0-0.2,0-0.3c0-3.9,4.4-8,7.4-8  c1.1-0.1,2.1,0.7,2.2,1.8c0,0,0,0,0,0.1c0,2.2-3.5,2.9-5.1,2.9c-0.6,0-0.8,0-1.1,0c-0.7,0.9-1,2-1.1,3.1c-0.1,0.9,0.5,1.6,1.4,1.7  C150.6,117.3,150.6,117.3,150.7,117.3L150.7,117.3z M153.9,108.6c-1.2,0-2.7,2.2-3.2,3c2.4-0.1,4-0.8,4-2.1  C154.7,109,154.4,108.6,153.9,108.6C153.9,108.6,153.9,108.6,153.9,108.6z"></path>
<polygon class="st7" points="259.3,105.1 265.1,105.1 265.1,106.1 259.3,106.1 259.3,105.1 "></polygon>
<path class="st8" d="M230.8,83.7V83c0-0.4-0.2-0.6-0.9-0.6c-1,0-2-0.2-2.9-0.6c-0.8-0.3-1.1-0.9-1.8-2.3l-0.8-1.6l-13.9-32.5  c-0.5-1.2-0.6-1.2-1.4-1.2h-0.7c-0.6,0-0.8,0-0.9,0.2s-0.4,0.6-0.6,1.1l-13.6,32.1c-0.9,2.3-1.3,3-1.9,3.6c-0.2,0.3-0.5,0.5-0.9,0.7  c-0.8,0.3-1.6,0.5-2.5,0.6c-0.5,0.1-0.6,0.2-0.6,0.9s0.1,0.9,0.8,0.9h1.2c2.3,0,4-0.1,5-0.1s2.6,0.1,5.3,0.1h1.2  c0.8,0,0.9-0.2,0.9-0.9s-0.2-1-1.2-1c-2.5-0.1-3.7-0.6-3.7-1.8c0.1-1,0.4-1.9,0.8-2.9l2.8-7.4h14.2l2.9,7.6l0.5,1.3  c0.1,0.3,0.2,0.6,0.3,0.9c0.1,0.3,0.2,0.6,0.2,0.9c0,0.7-0.8,1.1-2.5,1.3c-0.6,0.1-1,0.1-1.2,0.1c-0.2,0-0.3,0.1-0.5,0.2  c-0.2,0.1-0.3,0.3-0.2,0.5v0.6c0,0.5,0.1,0.6,0.6,0.6h0.7l1.5-0.1h5.5c3.7,0,5.7,0.1,6.2,0.1h1.2C230.5,84.3,230.7,84.2,230.8,83.7  L230.8,83.7z M213.4,67.4h-11.9l5.8-15.2L213.4,67.4L213.4,67.4z"></path>
<path class="st8" d="M302.1,83.4c0-0.6-0.1-0.8-0.6-0.9l-0.5-0.1c-1-0.1-2-0.4-2.9-0.8c-1.2-0.7-1.9-1.4-4.3-4.1l-13.4-14.9l9.7-9.5  c2.9-2.8,4.8-4.4,6-5c1.1-0.5,2.2-0.8,3.3-0.9c0.8-0.1,0.9-0.2,0.9-0.9v-0.4c0-0.4-0.2-0.6-0.7-0.6h-0.8c-0.3,0-0.8,0.1-1.5,0.1  c-1.6,0.1-2.9,0.1-3.9,0.1l-5-0.1h-2c-0.3,0-0.6,0-0.8-0.1c-0.5,0-0.7,0.2-0.7,0.9c0,0.8,0.2,1,0.9,1c1.9,0.1,2.6,0.4,2.6,1.2  s-0.8,1.9-3.6,4.8l-10.7,11.2l11.7,13.7c1.4,1.6,1.9,2.5,1.9,3c0,0.8-0.9,1.3-2.7,1.4c-0.9,0.1-1,0.2-1,0.9c0,0.9,0.1,1,0.9,1h1.1  c0.5,0,1.2,0,2.2-0.1c2.2-0.1,4-0.1,5.3-0.1s2.9,0,4.9,0.1l1.8,0.1h0.8C302,84.3,302.1,84.1,302.1,83.4L302.1,83.4z M279.3,83.5  v-0.2c0-0.8-0.2-0.9-1.4-0.9c-1.9,0-3.8-0.6-4-1.4c-0.3-1.3-0.4-2.7-0.4-4V52.5c0-4.3,0.3-4.9,2.7-5.3h0.1c0.8-0.1,1.2-0.2,1.3-0.2  c1.2-0.1,1.3-0.2,1.3-1v-0.2c0-0.5-0.1-0.8-0.7-0.7l-0.8,0.1h-1.8c-1.9,0-3.1,0.1-3.8,0.1h-2.6c-0.8,0-2-0.1-3.8-0.1h-2.2l-0.4-0.1  c-0.6,0-0.8,0.2-0.8,0.8V46c0,0.8,0.2,0.9,1.2,1c0.5,0,0.9,0.1,1.4,0.2h0.1c2.4,0.3,2.7,0.9,2.7,5.3V77c0,3-0.2,4.3-0.9,4.7  c-0.6,0.3-1.1,0.5-1.8,0.6h-0.1c-0.4,0.1-0.9,0.2-1.4,0.2c-1.1,0-1.2,0.1-1.2,1v0.2c0,0.5,0.2,0.6,0.7,0.6h0.8  c0.5,0,1.1-0.1,1.8-0.1c1.9-0.1,3.1-0.1,3.8-0.1h2.6c0.9,0,2.2,0,3.8,0.1c1,0.1,1.7,0.1,2.2,0.1h0.8  C279.2,84.3,279.4,84.2,279.3,83.5L279.3,83.5z"></path>
<path class="st8" d="M349.6,83.7V83c0-0.4-0.2-0.6-0.9-0.6c-1,0-2-0.2-2.9-0.6c-0.8-0.3-1.1-0.9-1.8-2.3l-0.8-1.6l-13.9-32.5  c-0.5-1.2-0.6-1.2-1.4-1.2h-0.7c-0.6,0-0.8,0-0.9,0.2s-0.4,0.6-0.6,1.1l-13.6,32.1c-0.9,2.3-1.3,3-1.9,3.6c-0.2,0.3-0.5,0.5-0.9,0.7  c-0.8,0.3-1.6,0.5-2.5,0.6c-0.5,0.1-0.6,0.2-0.6,0.9s0.1,0.9,0.8,0.9h1.2c2.3,0,4-0.1,5-0.1s2.6,0.1,5.3,0.1h1.2  c0.8,0,0.9-0.2,0.9-0.9s-0.2-1-1.2-1c-2.5-0.1-3.7-0.6-3.7-1.8c0.1-1,0.4-1.9,0.8-2.9l2.8-7.4h14.2l2.9,7.6l0.5,1.3  c0.1,0.3,0.2,0.6,0.3,0.9c0.1,0.3,0.2,0.6,0.2,0.9c0,0.7-0.8,1.1-2.5,1.3c-0.6,0.1-1,0.1-1.2,0.1c-0.2,0-0.3,0.1-0.5,0.2  c-0.2,0.1-0.3,0.3-0.2,0.5v0.6c0,0.5,0.1,0.6,0.6,0.6h0.7l1.5-0.1h5.5c3.7,0,5.7,0.1,6.2,0.1h1.2C349.3,84.3,349.6,84.2,349.6,83.7  L349.6,83.7z M332.2,67.4h-11.9l5.8-15.2L332.2,67.4z"></path>
<path class="st8" d="M427.8,63c0-11-8.1-19-19.3-19C396,44,387,53.2,387,65.8c0,11.5,8.1,19.6,19.6,19.6c12.1,0,20.6-8.7,21.2-21.5  C427.7,63.6,427.8,63.3,427.8,63L427.8,63z M421.4,65.7c0,9.7-5.6,16.5-13.8,16.5s-14.4-8-14.4-18.6c0-9.9,5.5-16.5,13.7-16.5  S421.4,55.1,421.4,65.7L421.4,65.7z"></path>
<path class="st7" d="M253.7,83.5v-0.5c-0.1-0.3-0.2-0.4-0.8-0.5l-1.4-0.2c-2.8-0.3-3.3-0.9-3.4-3.4L248,77V52.5c0-0.1,0.1-0.8,0.1-2  c0-0.4,0-0.8,0.1-1.2c0-0.6,0.3-1.2,0.8-1.5c1.2-0.5,2.4-0.8,3.7-0.9c0.7,0,0.7-0.2,0.7-0.9v-0.2c0-0.5-0.1-0.8-0.7-0.7l-1,0.1  l-2.6,0.1h-3.9l-4.9-0.1h-2.6c-0.1,0-0.3-0.1-0.4-0.1c-0.5,0-0.6,0.1-0.6,0.5l-0.1,0.2V46c0,0.8,0.1,0.9,0.6,0.9  c1.3,0,2.6,0.3,3.8,0.8c0.8,0.6,0.9,1.4,0.9,4.8V77c0,3-0.2,4.2-0.9,4.7s-1.4,0.7-3.7,0.8c-0.6,0.1-0.7,0.2-0.7,1v0.2  c0,0.5,0.2,0.6,0.7,0.6h0.8c0.6,0,1.2-0.1,1.8-0.1c1.9-0.1,3.2-0.1,3.8-0.1h2.7c0.8,0,2.1,0,3.8,0.1c0.9,0.1,1.5,0.1,1.9,0.1h0.9  C253.5,84.3,253.7,84.2,253.7,83.5L253.7,83.5z"></path>
<path class="st7" d="M195,46c0-0.6-0.2-0.9-0.8-0.9c-0.1,0-0.3,0.1-0.6,0.1h-1.7l-3.8,0.1h-3.6c-1.1,0-1.9-0.1-2.3-0.1  s-0.6-0.1-0.9-0.1c-0.5,0-0.8,0.3-0.8,1c0,0.4,0.1,0.7,0.4,0.8s0.3,0.1,1.4,0.2c2.3,0.2,3.1,0.7,3.1,1.9c0,0.9-0.2,1.7-0.5,2.5  l-0.5,1.6L177.1,76l-7.5-22.7l-0.7-1.8c-0.3-0.8-0.5-1.7-0.6-2.5c0-1.2,0.8-1.7,3.4-1.8l1.1-0.1c0.6-0.1,0.8-0.2,0.8-0.9  c0-0.9-0.2-1.1-1.4-1.1c-0.3,0-1.2,0.1-3,0.1h-8.4c-1.8,0-2.3,0-3.2-0.1c-0.2,0-0.3-0.1-0.4-0.1c-0.6,0-0.8,0.2-0.8,0.9  c0,0.9,0.1,1,0.8,1.1c2.2,0.2,2.9,0.5,3.5,1.2c0.7,1,1.2,2.1,1.5,3.2l-8.1,24.4l-8.1-23.3l-0.4-1.2c-0.3-0.7-0.5-1.5-0.6-2.3  c0-1.3,0.8-1.7,3.8-1.9l0.8-0.1c0.6-0.1,0.8-0.2,0.8-0.9s-0.2-1.1-0.9-1.1l-0.9,0.1l-2.4,0.1H137l-2.5-0.1c-0.3,0-0.6-0.1-0.7-0.1  c-0.8,0-0.9,0.2-0.9,1.1c0,0.5,0,0.6,0.2,0.8c0.3,0.1,0.6,0.2,0.9,0.2c2.1,0.2,2.9,0.5,3.5,1.2c0.5,0.6,0.9,1.4,1.1,2.1  c0.5,1.1,0.8,1.9,1,2.5L151,83.4c0.6,1.6,0.7,1.8,1.2,1.8h1.2c0.5,0,0.7-0.2,1-1.1l9.4-28.2l9.9,27.6c0.5,1.3,0.8,1.6,1.4,1.6h1.1  c0.5,0,0.6-0.1,1-0.9l0.2-0.8l11.1-30.5l1.1-2.8c0.5-1.3,0.6-1.6,1.2-2.1c0.8-0.7,1.7-1.1,2.8-1.1c1.1-0.2,1.2-0.2,1.3-0.3  C194.9,46.5,195,46.2,195,46L195,46z"></path>
<path class="st7" d="M384.1,45.8c0.1-0.5-0.2-0.7-0.8-0.7H382l-1.9,0.1c-0.4,0-1.9,0.1-4.3,0.1h-9.4l-8.2-0.1l-3.6-0.1H351  c-0.7,0-0.8,0-0.9,0.3c-0.2,0.6-0.3,1.2-0.3,1.8l-0.5,5.3c0,0.3-0.1,0.8-0.1,1.1v0c0,0.3,0.5,0.6,1.4,0.6c0.3,0,0.4-0.1,0.5-0.4  c0.3-2.1,1.5-4,3.3-5c1.4-0.6,3.1-0.9,8.4-0.9h0.8v29c0,3.3-0.2,4.2-1.1,4.6c-1.3,0.6-2.6,0.9-4,0.9c-1.1,0.1-1.3,0.2-1.3,0.8v0.3  c0,0.6,0.2,0.8,0.6,0.8h0.7c0.6,0,1.5,0,2.9-0.1c2.2-0.1,4-0.1,5.3-0.1l6.1,0.1c1.1,0,1.8,0.1,2,0.1h0.8c0.9,0,1-0.1,1-0.8v-0.6  c0-0.4-0.2-0.5-1.6-0.6c-1.3,0-2.7-0.2-3.9-0.6c-1.1-0.5-1.4-1.3-1.4-4.8V48h2.5c1.8,0,3.9,0.1,5,0.2c0.8,0.1,1.5,0.3,2.2,0.6  c1.2,0.6,1.9,2,2.2,4.4c0.1,0.9,0.2,1,1.1,1s0.9-0.1,1-0.7l0.1-0.9v-1.4l0.2-4v-0.6L384.1,45.8L384.1,45.8z"></path>
<rect x="121.1" y="104.9" class="st9" width="3.1" height="0.2"></rect>
</svg>