<svg xmlns="http://www.w3.org/2000/svg" xmlns:v="https://vecta.io/nano" width="119" height="44" viewBox="0 0 31.485 11.642"><g transform="matrix(1.044029 0 0 1.044029 322.1017 -200.52593)" fill="#231f20"><path d="M-300.936 202.1a1.21 1.21 0 0 0-.216-.104 1.49 1.49 0 0 1-.195-.088.48.48 0 0 1-.139-.111c-.032-.038-.05-.093-.05-.164 0-.04.007-.08.02-.115a.23.23 0 0 1 .058-.087.24.24 0 0 1 .1-.057.31.31 0 0 1 .216-.001.29.29 0 0 1 .076.053c.02.02.037.043.05.067a.67.67 0 0 1 .033.077l.015.043h.132l.01-.052.03-.127a.55.55 0 0 1 .036-.089l.024-.046-.04-.033c-.06-.05-.126-.086-.196-.1a.83.83 0 0 0-.5.007.65.65 0 0 0-.206.12c-.056.05-.103.115-.134.188a.61.61 0 0 0-.046.238c0 .122.025.22.074.296a.61.61 0 0 0 .177.18c.07.048.14.08.216.1.07.027.137.056.197.088s.102.066.14.1c.032.038.048.092.048.16a.4.4 0 0 1-.023.135c-.015.04-.037.076-.064.106s-.06.053-.1.07c-.08.035-.188.034-.27.004-.04-.015-.075-.035-.105-.058a.41.41 0 0 1-.077-.08.51.51 0 0 1-.051-.089l-.017-.04h-.134l-.006.06-.016.126a.63.63 0 0 1-.031.104l-.016.043.036.03c.052.043.113.08.2.114s.176.05.297.05c.1 0 .213-.017.302-.05a.64.64 0 0 0 .23-.145c.062-.062.1-.137.144-.22s.05-.173.05-.265c0-.115-.025-.2-.075-.28s-.107-.125-.177-.168m3.036-.943l-.05-.01-.022.048-.115.244-.13.25-.134.243-.07.122-.212-.388-.246-.473-.02-.042-.118.016a.65.65 0 0 1-.133 0l-.2-.03.07.117.078.13.57.98-.003.412-.018.344-.01.08.08-.007c.08-.007.174-.007.253 0l.077.007-.007-.077-.01-.15-.007-.207-.004-.228-.001-.204.094-.177.137-.24.18-.296.232-.366.083-.13-.15.03c-.098.02-.085.02-.184 0m3.158 1.41c-.046.106-.104.2-.174.25s-.15.1-.24.122c-.16.04-.325.038-.477.028l-.097-.01-.013-.535v-.478l.004-.294.01-.224.133-.013a1.75 1.75 0 0 1 .514.025c.084.02.154.057.214.1a.55.55 0 0 1 .142.22 1.1 1.1 0 0 1 .054.375c0 .173-.023.316-.07.423m.238-1.14h0a.78.78 0 0 0-.302-.2c-.17-.064-.405-.076-.638-.06a3.56 3.56 0 0 1-.4.003l-.274-.013.018.43.006.357v.478l-.006.358-.015.35-.004.072.072-.005.177-.006h.18l.18.003c.168.005.345.005.534-.048a.96.96 0 0 0 .342-.177c.103-.084.2-.194.255-.33s.1-.302.1-.497c0-.148-.018-.284-.053-.403a.79.79 0 0 0-.172-.314m3.433-.24a.31.31 0 0 1-.076-.012l-.086-.022.005.1.017.52.004.567v.216l-.178-.192-.35-.386-.373-.414-.37-.415h-.14l.004.068.007.283.001.458v.206l-.007.238-.01.243-.012.227-.012.177-.01.097-.016.087.088-.01a.75.75 0 0 1 .178 0l.084.01-.01-.084c-.002-.014-.003-.04-.005-.08l-.01-.325-.004-.2-.002-.18v-.144l.003-.354.001-.048.594.653.68.778h.133v-.156-.158l-.005-.4-.001-.196v-.167l.005-.2.012-.272.013-.26.012-.18.008-.1-.1.023a.3.3 0 0 1-.07.012m2.954 1.8l.028-.102-.104.022c-.04.008-.1.015-.144.02l-.184.01-.198.005h-.127l-.002-.092-.001-.26v-.275l.001-.062.067.001.176.003.183.007.16.013.087.01-.017-.087c-.004-.024-.007-.048-.007-.07a.42.42 0 0 1 .007-.074l.016-.084-.085.008-.124.01-.144.008-.17.007-.147.002-.001-.092-.001-.2.004-.18.005-.108.162.004.173.01.15.01.16.01.084.005-.016-.083a.37.37 0 0 1-.007-.071c0-.024.002-.047.007-.07l.016-.08-.322.013h-.477l-.3-.013.004.07.015.355.007.36v.478l-.007.357-.015.354-.004.07.07-.003.243-.006h.5l.24.006.1.004-.025-.086c-.002-.01-.006-.026-.006-.055l.001-.04zm2.995-1.83c-.098.02-.085.02-.185 0l-.05-.01-.022.048-.115.244-.13.25-.134.243-.07.122-.212-.388-.246-.473-.02-.042-.118.016a.65.65 0 0 1-.134 0l-.208-.03.07.117.078.13.57.98-.003.412-.02.344-.008.08.08-.007a1.44 1.44 0 0 1 .253 0l.077.007-.007-.077-.01-.15-.007-.207-.004-.23-.001-.204.095-.177.137-.24.18-.296.232-.366.083-.13zm-16.813-4.584c-.01 2.26-1.136 3.396-3.2 3.396-2.04 0-3.232-.917-3.232-3.02v-2.14c0-1.2-.132-2.16-.176-2.667.242.033.64.055.87.055s.474-.022.695-.055c-.1 1.048-.143 2.447-.143 3.9 0 2.094.385 3.284 2.326 3.284 2.097 0 2.152-2.083 2.152-3.802l-.078-3.383a2.65 2.65 0 0 0 .508.055c.153 0 .297-.022.44-.055-.078.837-.154 2.678-.165 4.43m7.188-.69v4.022a1.04 1.04 0 0 0-.264-.034c-.077 0-.186.01-.252.034l-5.2-5.728-.033 2.4.088 3.25a2.12 2.12 0 0 0-.45-.057 2.14 2.14 0 0 0-.462.057c.077-.42.232-3.25.232-5.1l-.044-2.564c.076.01.208.022.285.022.086 0 .208-.01.295-.022l5.2 5.6-.088-5.525a2 2 0 0 0 .44.054 1.87 1.87 0 0 0 .418-.054l-.155 3.653"></path><path d="M-291.937 200c-.96 0-1.952-.463-2.426-.806.187-.153.264-.198.474-.474.154-.2.254-.552.254-.552.198.585.793 1.16 1.864 1.16s1.82-.806 1.82-1.556c0-1.856-4.06-1.006-4.06-3.556 0-1.38 1.213-2.143 2.824-2.143.86 0 1.58.272 2.086.607-.232.188-.265.2-.4.4-.1.165-.242.52-.242.52-.2-.52-.663-.995-1.523-.995-.872 0-1.5.54-1.5 1.215 0 1.844 4.216 1.105 4.205 3.502-.01 1.888-1.36 2.672-3.377 2.672m11.118-.167c-.154-.02-.3-.055-.453-.055-.153 0-.3.034-.463.055l-1.808-5.863h-.023l-1.93 5.863c-.155-.02-.298-.055-.463-.055-.144 0-.3.034-.453.055l-1.335-4.805c-.176-.595-.826-2.4-1.003-2.8a7.31 7.31 0 0 0 .84.055c.234 0 .463-.022.694-.055l1.6 6.05h.022l1.92-6.05a1.93 1.93 0 0 0 .441.055c.144 0 .288-.022.43-.055.253 1.1 1.478 4.75 1.852 6.05h.022l1.73-6.05a1.74 1.74 0 0 0 .409.055c.143 0 .276-.022.43-.055l-2.47 7.604"></path></g></svg>