<svg xmlns="http://www.w3.org/2000/svg" xmlns:xlink="http://www.w3.org/1999/xlink" id="Layer_1" x="0px" y="0px" viewBox="0 0 186.224 58.131" style="enable-background:new 0 0 186.224 58.131;" xml:space="preserve">
<style type="text/css">
	.st0{clip-path:url(#SVGID_2_);}
	.st1{clip-path:url(#SVGID_2_);fill:#FFA814;}
	.st2{clip-path:url(#SVGID_2_);fill:#E6A815;}
	.st3{clip-path:url(#SVGID_4_);fill:url(#SVGID_5_);}
	.st4{clip-path:url(#SVGID_7_);fill:#FFA814;}
	.st5{clip-path:url(#SVGID_7_);fill:#FFFFFF;}
	.st6{clip-path:url(#SVGID_7_);fill:#7A716D;}
</style>
<g>
	<defs>
		<polyline id="SVGID_1_" points="186.224,58.131 186.224,8.378 5.888,8.378 5.888,58.131   "></polyline>
	</defs>
	<clipPath id="SVGID_2_">
		<use xlink:href="#SVGID_1_" style="overflow:visible;"></use>
	</clipPath>
	<path class="st0" d="M78.678,12.005c3.852,0,6.66,2.528,6.66,6.487c0,3.958-2.808,6.486-6.66,6.486   c-3.854,0-6.661-2.528-6.661-6.486C72.017,14.533,74.824,12.005,78.678,12.005 M78.678,22.467c2.319,0,3.835-1.674,3.835-3.975   c0-2.302-1.516-3.976-3.835-3.976c-2.319,0-3.836,1.674-3.836,3.976C74.842,20.793,76.359,22.467,78.678,22.467"></path>
	<polygon class="st0" points="53.956,12.319 56.92,12.319 58.89,20.236 58.926,20.236 61.507,12.319 64.035,12.319 66.598,20.445    66.633,20.445 68.708,12.319 71.462,12.319 67.853,24.664 65.429,24.664 62.709,16.121 62.675,16.121 59.954,24.664 57.618,24.664     "></polygon>
	<path class="st0" d="M87.183,12.319h4.778c2.528,0,4.656,0.872,4.656,3.749c0,1.726-0.925,3.069-2.668,3.382l3.139,5.214h-3.261   l-2.581-4.935h-1.343v4.935h-2.72V12.319z M89.903,17.428h1.604c0.994,0,2.285-0.035,2.285-1.378c0-1.237-1.116-1.43-2.11-1.43   h-1.779V17.428z"></path>
	<polygon class="st0" points="98.583,12.319 101.303,12.319 101.303,22.153 106.342,22.153 106.342,24.664 98.583,24.664  "></polygon>
	<path class="st0" d="M107.84,12.319h4.081c3.975,0,7.305,1.691,7.305,6.207c0,3.994-3.26,6.138-6.939,6.138h-4.447V12.319z    M110.561,22.153h1.412c2.527,0,4.428-0.959,4.428-3.766c0-2.424-1.933-3.557-4.237-3.557h-1.603V22.153z"></path>
	<path class="st0" d="M65.656,35.266c0,2.912-1.779,5.074-5.196,5.074c-3.435,0-5.214-2.162-5.214-5.074v-7.585h2.72v7.481   c0,1.517,1.047,2.668,2.494,2.668c1.429,0,2.476-1.151,2.476-2.668v-7.481h2.72V35.266z"></path>
	<polygon class="st0" points="68.164,27.681 71.861,27.681 77.109,36.259 77.144,36.259 77.144,27.681 79.864,27.681 79.864,40.026    76.307,40.026 70.919,31.238 70.884,31.238 70.884,40.026 68.164,40.026  "></polygon>
	<rect x="82.337" y="27.681" class="st0" width="2.72" height="12.345"></rect>
	<polygon class="st0" points="86.31,27.681 89.414,27.681 92.465,35.771 92.501,35.771 95.604,27.681 98.516,27.681 93.425,40.026    91.245,40.026  "></polygon>
	<polygon class="st0" points="99.908,27.681 108.295,27.681 108.295,30.191 102.628,30.191 102.628,32.493 107.981,32.493    107.981,35.004 102.628,35.004 102.628,37.515 108.609,37.515 108.609,40.026 99.908,40.026  "></polygon>
	<path class="st0" d="M110.786,27.681h4.778c2.527,0,4.655,0.872,4.655,3.749c0,1.726-0.924,3.069-2.667,3.383l3.137,5.213h-3.259   l-2.581-4.934h-1.343v4.934h-2.72V27.681z M113.506,32.79h1.604c0.994,0,2.285-0.035,2.285-1.377c0-1.239-1.117-1.43-2.111-1.43   h-1.778V32.79z"></path>
	<path class="st0" d="M128.184,30.698c-0.434-0.558-1.306-0.82-1.97-0.82c-0.768,0-1.831,0.349-1.831,1.273   c0,2.249,5.686,0.802,5.686,5.127c0,2.754-2.215,4.062-4.761,4.062c-1.587,0-2.981-0.471-4.149-1.552l1.934-2.127   c0.558,0.732,1.465,1.169,2.373,1.169c0.887,0,1.881-0.419,1.881-1.291c0-2.267-5.787-1.046-5.787-5.161   c0-2.633,2.285-4.011,4.706-4.011c1.395,0,2.74,0.366,3.785,1.291L128.184,30.698z"></path>
	<rect x="132.053" y="27.681" class="st0" width="2.72" height="12.345"></rect>
	<polygon class="st0" points="139.637,30.087 136.115,30.087 136.115,27.681 145.879,27.681 145.879,30.087 142.358,30.087    142.358,40.026 139.637,40.026  "></polygon>
	<polygon class="st0" points="150.289,34.761 145.652,27.682 149.033,27.682 151.649,32.302 154.422,27.682 157.648,27.682    153.01,34.761 153.01,40.027 150.289,40.027  "></polygon>
	<path class="st0" d="M55.246,43.043h4.777c2.529,0,4.656,0.872,4.656,3.749c0,1.727-0.924,3.069-2.668,3.384l3.139,5.213h-3.261   l-2.58-4.936h-1.343v4.936h-2.72V43.043z M57.966,48.152h1.604c0.994,0,2.285-0.034,2.285-1.377c0-1.239-1.117-1.43-2.11-1.43   h-1.779V48.152z"></path>
	<path class="st0" d="M70.605,43.043h2.249l5.371,12.345h-3.07l-1.063-2.615h-4.794l-1.029,2.615H65.27L70.605,43.043z    M71.651,46.635l-1.499,3.835h3.017L71.651,46.635z"></path>
	<polygon class="st0" points="79.46,43.043 83.157,43.043 88.406,51.621 88.44,51.621 88.44,43.043 91.16,43.043 91.16,55.389    87.604,55.389 82.216,46.601 82.18,46.601 82.18,55.389 79.46,55.389  "></polygon>
	<polygon class="st0" points="93.772,43.043 96.492,43.043 96.492,48.17 101.287,43.043 104.845,43.043 99.351,48.78    105.316,55.389 101.514,55.389 96.492,49.53 96.492,55.389 93.772,55.389  "></polygon>
	<rect x="106.218" y="43.043" class="st0" width="2.72" height="12.346"></rect>
	<polygon class="st0" points="111.413,43.043 115.11,43.043 120.358,51.621 120.393,51.621 120.393,43.043 123.114,43.043    123.114,55.389 119.556,55.389 114.169,46.601 114.135,46.601 114.135,55.389 111.413,55.389  "></polygon>
	<path class="st0" d="M136.798,54.515c-1.604,0.84-3.367,1.188-5.179,1.188c-3.853,0-6.661-2.53-6.661-6.487   c0-3.958,2.808-6.486,6.661-6.486c1.953,0,3.679,0.435,4.916,1.586l-1.915,2.093c-0.733-0.768-1.623-1.168-3.001-1.168   c-2.319,0-3.836,1.673-3.836,3.975s1.517,3.975,3.836,3.975c1.186,0,2.056-0.332,2.564-0.61v-2.005h-2.215v-2.511h4.83V54.515z"></path>
	<path class="st0" d="M145.287,46.059c-0.435-0.557-1.308-0.819-1.971-0.819c-0.767,0-1.831,0.348-1.831,1.273   c0,2.248,5.684,0.802,5.684,5.126c0,2.756-2.213,4.063-4.759,4.063c-1.588,0-2.984-0.471-4.15-1.551l1.934-2.128   c0.558,0.732,1.466,1.168,2.373,1.168c0.889,0,1.883-0.418,1.883-1.29c0-2.268-5.789-1.046-5.789-5.162   c0-2.632,2.285-4.01,4.707-4.01c1.396,0,2.738,0.366,3.786,1.291L145.287,46.059z"></path>
	<path class="st1" d="M177.658,12.373c1.766,0,3.213,1.445,3.213,3.213v6.055c0,0.061-0.005,0.121-0.009,0.182l0.004,3.031h-59.389   V12.373H177.658z"></path>
	<path class="st1" d="M177.658,55.418c1.766,0,3.213-1.448,3.213-3.214v-6.055c0-0.062-0.005-0.122-0.009-0.183l0.004-3.03h-31.023   v12.482H177.658z"></path>
	<rect x="159.429" y="27.772" class="st1" width="21.442" height="12.482"></rect>
	<path class="st0" d="M183.961,8.377c1.229,0,2.263,0.974,2.263,2.264c0,1.29-1.034,2.263-2.263,2.263   c-1.236,0-2.264-0.973-2.264-2.263C181.697,9.351,182.725,8.377,183.961,8.377 M183.961,12.576c1.033,0,1.861-0.84,1.861-1.935   c0-1.095-0.828-1.935-1.861-1.935c-1.041,0-1.862,0.84-1.862,1.935C182.099,11.736,182.92,12.576,183.961,12.576 M183.097,9.314   h0.998c0.627,0,0.923,0.25,0.923,0.755c0,0.481-0.302,0.682-0.699,0.724l0.761,1.168h-0.431l-0.719-1.138h-0.433v1.138h-0.4V9.314z    M183.497,10.495h0.414c0.36,0,0.708-0.019,0.708-0.444c0-0.366-0.316-0.408-0.592-0.408h-0.53V10.495z"></path>
	<path class="st2" d="M51.828,15.061v37.227c0,1.595-1.295,2.889-2.889,2.889H8.782c-1.598,0-2.893-1.294-2.893-2.889V15.061   c0-1.595,1.295-2.889,2.893-2.889h40.157C50.533,12.172,51.828,13.466,51.828,15.061"></path>
</g>
<g>
	<defs>
		<path id="SVGID_3_" d="M8.782,12.172c-1.599,0-2.894,1.294-2.894,2.889v19.335c8.234-8.685,19.879-14.104,32.79-14.104    c4.574,0,8.988,0.683,13.149,1.947v-7.178c0-1.595-1.294-2.889-2.889-2.889H8.782z"></path>
	</defs>
	<clipPath id="SVGID_4_">
		<use xlink:href="#SVGID_3_" style="overflow:visible;"></use>
	</clipPath>
	
		<linearGradient id="SVGID_5_" gradientUnits="userSpaceOnUse" x1="5.5629" y1="678.111" x2="6.5629" y2="678.111" gradientTransform="matrix(-5.9688 -20.8158 -20.8158 5.9688 14178.9697 -3903.3296)">
		<stop offset="0" style="stop-color:#F6E09C"></stop>
		<stop offset="0.7511" style="stop-color:#FFA814"></stop>
		<stop offset="1" style="stop-color:#FFA814"></stop>
	</linearGradient>
	<polygon class="st3" points="9.379,46.568 0,13.86 48.337,0 57.716,32.708  "></polygon>
</g>
<g>
	<defs>
		<polyline id="SVGID_6_" points="186.224,58.131 186.224,8.378 5.888,8.378 5.888,58.131   "></polyline>
	</defs>
	<clipPath id="SVGID_7_">
		<use xlink:href="#SVGID_6_" style="overflow:visible;"></use>
	</clipPath>
	<path class="st4" d="M8.782,55.177h40.156c1.595,0,2.889-1.294,2.889-2.889V22.239c-4.161-1.264-8.575-1.947-13.149-1.947   c-12.911,0-24.557,5.419-32.79,14.104v17.892C5.888,53.883,7.183,55.177,8.782,55.177"></path>
	<path class="st5" d="M24.414,35.513c-1.05,0.394-2.729,0.683-4.119,0.683c-7.688,0-10.678-5.694-10.678-10.416   c0-4.277,3.07-10.151,10.757-10.151c6.269,0,10.624,3.801,10.624,9.941c0,4.618-2.912,7.531-4.565,8.631l5.273,2.702   c5.537,2.834,9.025,3.121,10.81,3.121c1.364,0,3.305-0.208,5.115-0.917c0.158-0.051,0.289-0.13,0.394-0.13   c0.131,0,0.235,0.103,0.235,0.235c0,0.157-0.131,0.236-0.314,0.315c-1.574,0.762-4.538,1.968-8.316,1.968   c-3.961,0-6.742-1.049-11.097-3.569L24.414,35.513 M27.326,26.278c0-6.349-3.935-9.391-7.555-9.391   c-3.438,0-6.507,2.204-6.507,8.289c0,6.245,3.777,9.707,8.001,9.707C23.364,34.883,27.326,33.965,27.326,26.278"></path>
	<path class="st5" d="M35.432,35.513c-0.42-0.184-0.498-0.315-0.498-0.892c0-1.442,0.104-3.016,0.132-3.436   c0.025-0.394,0.103-0.683,0.313-0.683c0.237,0,0.264,0.236,0.264,0.446c0,0.341,0.104,0.892,0.235,1.338   c0.577,1.941,2.125,2.649,3.752,2.649c2.361,0,3.515-1.598,3.515-2.991c0-1.285-0.393-2.517-2.571-4.197l-1.206-0.944   c-2.887-2.256-3.883-4.093-3.883-6.218c0-2.886,2.413-4.957,6.06-4.957c1.705,0,2.807,0.262,3.489,0.444   c0.236,0.053,0.368,0.132,0.368,0.316c0,0.342-0.105,1.102-0.105,3.148c0,0.577-0.079,0.787-0.289,0.787   c-0.184,0-0.262-0.157-0.262-0.473c0-0.236-0.132-1.049-0.682-1.73c-0.394-0.499-1.154-1.286-2.86-1.286   c-1.942,0-3.122,1.127-3.122,2.702c0,1.206,0.603,2.126,2.781,3.777l0.735,0.551c3.148,2.441,4.303,4.199,4.303,6.69   c0,1.522-0.578,3.332-2.468,4.567c-1.311,0.837-2.781,1.075-4.171,1.075C37.74,36.196,36.56,36.012,35.432,35.513"></path>
	<path class="st6" d="M48.122,50.462c0,0.497-8.557,0.899-19.114,0.899c-10.555,0-19.113-0.402-19.113-0.899   c0-0.497,8.558-0.899,19.113-0.899C39.565,49.563,48.122,49.965,48.122,50.462"></path>
</g>
<g>
</g>
<g>
</g>
<g>
</g>
<g>
</g>
<g>
</g>
<g>
</g>
</svg>